<svg id="Layer_1" data-name="Layer 1" xmlns="http://www.w3.org/2000/svg" viewBox="0 0 333.82 432"><defs><style>.cls-1{fill:#8dc63f;}</style></defs><title>acacia</title><path class="cls-1" d="M238.61,180.94l6.18.57c1.42,2.39,3.7,5,4.52,8a10.67,10.67,0,0,1-1.32,7.73c-1.66,2.18-3,.07-4.27-2.27-3.47-6.4-9.25-5-13,3.62a30.61,30.61,0,0,1,3.86-1.75c1.26-.36,2.58-.43,3.51.55,1.71.76,3.43,1.46,5.11,2.28,1.4.69,2.75,1.51,4.13,2.27L245,206.49c5.57,3.61-3.86,4.28-1.12,8.45H249l-8.49,21.66,3.57,2.1-6.22,7.8,2.48,3.25c-2.28,6.1-7.16,11.33-4.61,19.82-.47.78-1.53,2.3-2.4,4-1.26,2.42-4.43,3.78-2.84,8,.31.83-1.58,3.61-2.91,4.38-3.93,2.27-4.88,5.44-4.41,10.48.23,2.55-1.35,5.87-2.93,8-6.15,8.4-13.41,15-23,17.24-2.67.64-5.24,1.95-7.92,2.38-2.06.33-4.23-.24-6.34-.41l-.93-2c-1.18,3.32-2.61,6.54-3.5,10-5,19.15-10.76,37.88-19.81,55l.12.13c-1-3.92-1.8-7.72,2.77-9.42.47-.18.89-1,1.1-1.65,5.66-17.5,12.43-34.65,16.57-52.63,3.3-14.37,1.68-29.49-1.91-44.21-1.9-7.77-1.42-16.31-2.6-24.38-3-20.61-6.52-41.11-9.53-61.72-2.38-16.36-4.21-32.84-6.5-49.23-1.32-9.41-3.07-18.73-4.63-28.09l-1.59.31c2.25,17.24,4.51,34.49,6.85,52.43l-11.29-6.32L147.5,163c2,1.4,4,3.17,6.14,4.12,4.32,1.89,6.37,5.24,7.07,10.63,2.06,16,4.47,31.94,6.79,48.26l-7.3-3.27-.41.84c.59.6,1.1,1.54,1.77,1.75,5.89,1.84,7.18,7.18,7.93,13.38,2.16,17.68,4.65,35.3,6.81,53,.59,4.83,1.34,9.53-.36,14.71-1.08,3.31.68,7.84,1,11.85.31,4.39-1.43,7-5.31,6.62-11-1-21.67-2.85-31-11.25s-17.76-17.16-24.33-28.34c-5.11-8.69-9.72-17.81-14.24-26.95-2.56-5.17-3.7-11.56-6.91-15.93s-5.11-9.58-7.32-14.6c-2-4.65-5.93-9.35-5.78-13.88.16-4.77-3.65-5.75-3.37-9.72l1.29-.57-5.68-14.15L91.44,187l-1.65,4.92,9.14,7-.84,1.56,20,8.69c1.91-6.5-.67-9.32-4.87-11.75l3.92-2.29c-1.6-4-8.94-1.5-7.32-8l-11.6-10.94c4.39-3,7.42.69,10.65,4,6.63,6.71,13.34,13.3,20,19.94l.86-.92a41.9,41.9,0,0,0-2.75-3.52c-5.91-6.12-11.92-12.13-17.76-18.35-1.12-1.19-1.64-3.18-2.44-4.8l-.19.22c2-1.37,4.77-2.21,5.77-4.25,1.55-3.16,3.45-1.87,4.46-.88a59.42,59.42,0,0,1,8.34,9.87c1.36,2.08,1.62,5.16,2.48,8.14,3.47-2,7,7.75,11.37.71l-3.25-4.23.49-1.78c4.45,6.44,7.25,1.39,10.41-1.09-.35-1.78-.7-3.57-1.15-5.84l-3.41,2.51-11.22-7.32L129,170.51l-.7-.29c.59-1.94,1.19-3.89,1.81-5.92l-7.37,1.89a76.77,76.77,0,0,1-2-8.1c-.18-1.48.42-3.08,0-5.64-1,1-2,2.09-3.09,3a21.27,21.27,0,0,1-2.89,1.67l-1.15-2.14,2.85-1.55c-1.12-2.27-1.88-3.79-2.44-4.92-8.44.6-11.87-8.51-17.62-13.88.59-3,.88-6.38-2.17-10-1.8-2.16-1.24-7.12-1.61-10.84-.23-2.29-.23-4.61-.38-8l9.42,13.16.62-.51c-2.49-5.13-5-10.26-7.36-15.13l6.74-2.45-.07-1.64,6.08,3,1.88-2.74c.62,3.14.93,5.87,4.35,2.42,5-5,4.42-4.43,1.56-12-1.25-3.31-4.78-6.1-3.39-11.29.64-2.38-1.55-5.82-2.46-8.78l.87-1A77.18,77.18,0,0,1,117,74.6c8.24,9.19,17.46,16.59,28.11,21.57A129.53,129.53,0,0,1,114,67.8l9.78-4.26-4.12-.84-.25-1.78c4.1-.87,8.17-1.89,12.29-2.52,2.23-.35,4.81.49,4.85-3.46L132,50.59c5.83.21,8.63,2.6,10,7.93,1,3.59,2,7.13,3,10.67.24.8.48,1.64.72,2.47l2.13,19.77.47-.28q.13-10,.26-20.05l-.15.16c1.83-1.69,4.2-3,5.4-5.14,3.78-6.81,7.13-14,10.36-20.42l3.66,13.62-5-.45C164.1,61.78,164.55,65,166,66s4.4.17,5.86-1.14c1.8-1.61,2.74-4.56,4.16-7.14l2.75,2c1.13-3,2.16-5.76,3.57-9.55,3.24,8.25.53,14.77-1.52,21.25s-4.43,13.12-6.67,19.67l1.14.59c2.77-7.25,5.53-14.5,7.93-20.81l10.89,1.37c.49,2.71.95,5.48,1.6,8.18a21,21,0,0,0,2.86-.57l-.86-3.15L208.64,71c-.29,4.17-.6,8.61-.9,13.06l.87.27L211,76l3.91,11.07c-3.11,3-9.7,3.46-8.27,13.08,1.76-9.12,7.86-9.58,13.21-12.69-.18,4.23-.33,7.86-.53,12.6l8-1c3.13,10.89-.33,20.83-4,30.75a7.65,7.65,0,0,0,.07,2.64c-1.07,2.46-2.3,4.83-3.2,7.37-1.58,4.43-2.38,9.39-4.54,13.35-4.66,8.56-10,16.6-15,24.91-1.33,2.22-2.36,4.69-3.52,7l1,.74c3.43-5.59,7-11.09,10.27-16.8,5-8.72,11.44-16.51,13-27.54.43-3.11,1.25-6.14,1.9-9.21q4.25-10.92,8.51-21.83l.73-.14c-.12,2.07-.24,4.15-.39,6.8l3.69,1.56-3.75,2c-.26,4-.5,7.81-.79,12.53l7.11,4.85-5.06,7.23,4-.77v7.13c.06.38.11.78.17,1.17l-2.69,2.28,2.14,4.48,4.75-3.48-.15.14,5.18,1.71c-2.73-.42-5.83,5.34-5.15,9.57l-3.07,5.75q-2.83,4.19-5.69,8.38c-1.95-1-3.88-2.1-5.81-3.16l.09-1.72,6.66-1c-.31-1.35-.81-3.54-1.3-5.72,3.58-.57,5-2.89,4.31-7.4l-6.13,1.08.77-3.3h-7.8c.23,1.85.51,4.2.79,6.54-5.47.33-8.32,3.44-6.22,7.11,2.33,4.05.86,4.34-2.15,5.49-5.6,2.16-6.62,5.56-3.88,10.91-4.3,1.82-9.23,2.89-10.37,10.25-7.08,2.76-7.08,2.76-8.55,6.42l6.86-3,4.25,6,6.23-17.11,5.18,1.73c2.12-2.64,6-3.48,6.91-5.9,2.21-5.67,6.3-6,10.27-7.29-3,6.18-5.84,12.4-8.86,18.52-1.92,3.87-4,7.6-6.07,11.39l1.18.82c3.63-6.54,7.24-13.09,10.91-19.6,1.52-2.69,3.94-5.07,4.53-8C235.28,181.63,236.6,181.21,238.61,180.94Zm-43.08-59.52c-8,20.71-16.32,39.42-31,54.21C173.93,173,194.9,136.31,195.53,121.42Zm5.4,33.41c-.7-.19,0,.25.44.06a25.26,25.26,0,0,0,3.2-1.79c-1.08-.58-2.14-1.22-3.23-1.74-3.88-1.82-5.24,3.33-8.15,4.27a5.17,5.17,0,0,0,.07,3.24c1.23,2.3,3.1,2.55,4.8.73C199,158.57,199.63,157,200.93,154.83Zm-61,3.54,1-1.54L114.66,132.9l-1.16,1.79Zm70,70.32-1.24-1.06-14.19,21.58,1.22,1.07Q202.76,239.48,209.86,228.69Zm-17.32-32.45-1.48-1.18-11.64,16.65,1.46,1.37Zm-65.61,16.09h-9.36C123.77,217.86,125,217.66,126.93,212.33Zm66.18,41.39L192,252.6l-11.72,15.33,1,1ZM177.53,152.34c-.42-.56-1.7-2.64-1.92-2.49-2.48,1.62-4.79,3.58-7.15,5.45l.84,1.49Z"/><path class="cls-1" d="M145.78,71.66c-.24-.83-.48-1.67-.72-2.47-.59-5.44-1.06-10.93-1.82-16.36-.63-4.54-.41-5.66,3.39-8.32-2.47,4.31-2.12,7.49,1.61,8.45,1.62.41,3.57-.88,5.36-1.44,1.6-.51,3.18-1.07,5.56-1.88-1.57,9.56-6.81,15.13-10.67,21.62l.15-.16Z"/><path class="cls-1" d="M238.54,173.32l3.07-5.75,5.69-9.28a31.66,31.66,0,0,1-5,18.08c-1.11,1.74-2.42,3.31-3.63,4.95C235.66,178.73,237,176,238.54,173.32Z"/><path class="cls-1" d="M238.54,173.32c-1.5,2.71-2.88,5.41.16,8l-.09-.39c-2,.28-3.33.7-4,3.83-.59,2.91-3,5.29-4.53,8-3.67,6.51-7.28,13.06-10.91,19.6l-1.18-.82c2-3.79,4.15-7.52,6.07-11.39,3-6.12,5.91-12.34,8.86-18.52l-.1.08Z"/><path class="cls-1" d="M185.63,65.43c0-2.89-.09-4.77,0-6.63a10.14,10.14,0,0,1,.79-3.35,2.2,2.2,0,0,1,1.94.49c.4.8.27,2,.4,3.37l5.34-2.08.35.62Z"/><path class="cls-1" d="M106.63,172.72l.19-.22a28.7,28.7,0,0,1-4.25-3.69,68.4,68.4,0,0,1-4.09-6.5C105.71,164.39,106.49,165.43,106.63,172.72Z"/><path class="cls-1" d="M151,399.73c-5.07,5.74-5.07,5.74-8.91,3,.65-1.12,1.24-2.26,1.92-3.31s1.36-1.83,1.73-2.31l5.38,2.64Z"/><path class="cls-1" d="M237.53,152.87c-.06-.39-.11-.79-.17-1.17.6-.52,1.16-1.43,1.8-1.51a21.43,21.43,0,0,1,4.07.16c-.27,1.36-.49,2.73-.82,4.07a12,12,0,0,1-.83,1.87l.15-.14Z"/><path class="cls-1" d="M247.3,158.29l-5.69,9.28c-.68-4.23,2.42-10,5.15-9.57A.81.81,0,0,0,247.3,158.29Z"/><path class="cls-1" d="M97.7,166.09l3.72,6.15C95.36,174.6,99.05,167.67,97.7,166.09Z"/><path class="cls-1" d="M151.08,399.77c-.12-.11-.36-.3-.35-.31,2.43-4.53,2.75-10.93,8.15-12.85l-.12-.12c-2.61,4.41-5.23,8.8-7.82,13.22A.73.73,0,0,0,151.08,399.77Z"/><path class="cls-1" d="M195.53,121.42c-.63,14.89-21.6,51.54-31,54.21C179.21,160.84,187.57,142.13,195.53,121.42Z"/><path class="cls-1" d="M223.29,132.36c-.65,3.07-1.47,6.1-1.9,9.21-1.55,11-8,18.82-13,27.54-3.29,5.71-6.84,11.21-10.27,16.8l-1-.74c1.16-2.36,2.19-4.83,3.52-7,5-8.31,10.35-16.35,15-24.91,2.16-4,3-8.92,4.54-13.35.9-2.54,2.13-4.91,3.2-7.37Z"/><path class="cls-1" d="M200.93,154.83c-1.3,2.21-1.9,3.74-2.87,4.77-1.7,1.82-3.57,1.57-4.8-.73a5.17,5.17,0,0,1-.07-3.24c2.91-.94,4.27-6.09,8.15-4.27,1.09.52,2.15,1.16,3.23,1.74a25.26,25.26,0,0,1-3.2,1.79C200.89,155.08,200.23,154.64,200.93,154.83Z"/><path class="cls-1" d="M139.89,158.37,113.5,134.69l1.16-1.79,26.23,23.93Z"/><path class="cls-1" d="M209.86,228.69q-7.11,10.78-14.21,21.59l-1.22-1.07,14.19-21.58Z"/><path class="cls-1" d="M192.54,196.24l-11.66,16.84-1.46-1.37,11.64-16.65Z"/><path class="cls-1" d="M230.67,163.79l6.13-1.08c.72,4.51-.73,6.83-4.31,7.4l.13.12-1.86-6.59Z"/><path class="cls-1" d="M126.93,212.33c-2,5.33-3.16,5.53-9.36,0Z"/><path class="cls-1" d="M145.78,71.66l2.86-.56q-.13,10-.26,20.05l-.47.28Z"/><path class="cls-1" d="M224.43,167c-.28-2.34-.56-4.69-.79-6.54h7.8l-.77,3.3.09-.15c-2.1,1.26-5.52-1.1-6.51,3.27Z"/><path class="cls-1" d="M193.11,253.72,181.22,269l-1-1L192,252.6Z"/><path class="cls-1" d="M177.53,152.34l-8.23,4.45-.84-1.49c2.36-1.87,4.67-3.83,7.15-5.45C175.83,149.7,177.11,151.78,177.53,152.34Z"/><path class="cls-1" d="M237.53,152.87l4.2,3.28L237,159.63l-2.14-4.48Z"/><path class="cls-1" d="M224.25,166.91c1-4.37,4.41-2,6.51-3.27l1.86,6.59Z"/></svg>