<svg id="Layer_1" data-name="Layer 1" xmlns="http://www.w3.org/2000/svg" viewBox="0 0 289 433"><defs><style>.cls-1{fill:#90c33e;stroke:#90c33e;stroke-miterlimit:10;}</style></defs><title>alder63</title><path class="cls-1" d="M506.78,88c7.38,4.66,13.51,10,15.86,17.33-.78.35-1.37.87-1,1.54,1.76,3,4.78-.87,7.23.85-1.3,1.25-2.31,2.71-3.87,3.61a8.76,8.76,0,0,1-8.15.8c-2.68-1.2-2.16-2.9-2.1-5.12s1.83-4.39.72-6.81c-11.56,7.51-17.07,23.26-13.53,37.82,2.14-2.2,3.71-4.82,6.76-6.57h0c.13,2.26-.58,3.94-2.78,5.89-3.53,3.11-6.74,6.67-6.06,11.49a31.24,31.24,0,0,1-.68,10.94c-.69,3.28-1.71,7,1,10.21-.83,9.13-3.31,18.22-2,27.58,2.44-.45,2.69-1.65,3.38-2.57l3.81-1.86c-.59,2.7-3.49,4.39-5,6.68-1.91,1.24-2.15,2.93-2.47,4.72a104.54,104.54,0,0,0-1,23.43c.12,2.39-1.76,4.68-.35,7.05.36.6,0,1.91,1.56,1.48.66-.18.87-1.31,1.28-2,4.38,0,4-5.15,8.78-4.79.22,2.48-3.95,3.26-3.79,5.72-8.33,3-7.79,8.8-7.6,14.45-.81.11-1.8.18-1.8,1s1,.87,1.8,1l0,2.86c-3.1-.15-1.41,3-3.92,3.36-1.47-1-.5-3.35-3.44-3.33.3-1.49-2.36-4.22-.37-4.14,6.34.25,2.52-2.68,2.75-4.17.37-2.5.28-5,.67-7.56.77-4.95,1.73-10-.76-14.93a102.29,102.29,0,0,0,3.23-22.41c.22-5.08,1-10.13-1-15.11l0,0c4.85-9.44,1.6-19.23,2-28.85,0-.76-1.36-1.54-2.05-2.33-5.28-6.08-9.3-12.78-15.46-18.43-.82-.75-1.62-1.68-.54-2.56a1.6,1.6,0,0,1,2.47.54c1.05,4.07,5.17,4.43,9.38,5,1.19.18,4.75.77,3,1.92-4.7,3.12.5,5.38.41,8,0,1,.3,3,2.64,2.7s2-2.06,1.6-3.16c-1.64-5.11-.75-10,1-15a4.5,4.5,0,0,0-2.59-5.52c-3.15-1.55-2.38,2.64-5.91,2.2.43-3,.4-5.84,6-5.68,1.14,0,2.45.13,2.46-.8,0-4.58,2.27-9.92-2.16-13.39-3.05-2.39-1.61-3.29-.29-5,.77-1,1.93-2,.37-2.93a3.22,3.22,0,0,0-4.26.77c-1.92,2.12-4,4.13-8,2.9-.43,3,2.1,4.26,3.89,6,1.38,1.3,3,3.25.9,4.71-1.57,1.07-3.87,2.29-6.06-.47-1.3-1.64-5.29-1.5-6.19.63-1.53,3.59-4.77,3.51-8.39,3.38-8.44-.3-8.42-.3-9.88,6.27-.31,1.41-.83,2.79-1.18,4.19-.2.81-.55,2-1.61,1.69-11.75-3.52-2.73,2.7-3.42,4.29a4.72,4.72,0,0,0,0,1.91h0c-2.5,0-5.58-.3-6.65,1.71-.95,1.75,3.63.45,3.46,2.14-2.32,2.64-6.35-.18-7.52,1-3.89,4-9.2,3.71-14.53,3.9-1.58.06-4.16,0-2.79,1.93,2.15,3.05-1.33,6,.36,9,.45.78.09,2.06-1.44,2.34-4.69.85-4.65,4.16-5.24,6.63-.41,1.72-.13,2.4-2.57,1.57-2.22-.75-4.61-2.17-6.47.34-1.69,2.27,1.39,3.12,4.19,5.19-3.84,0-6.15.36-8.22,0-3.86-.73-4.25.75-3.94,3h0c-1,.16-2.36.27-2,1.36.89,2.63,2,5.22,3.29,8.52,2.61-3.7-1.86-7.88,3.6-10.24,3.8,2.39-.06,5.36-.53,7.15-1.11,4.22,5.07,8.55-.57,12.37-.1.07.31.79.68,1,4,2.58,2.29,4.5-1.51,5.61-4.37,1.27-3.59,3-1.87,5.46,4.69,6.74,12.16,11.78,18.09,17.76,1.22,2.92,2.87,5.53,7.6,5.75a1.88,1.88,0,0,0,1.27,1.91l1.29,4.81h-2.52a2.91,2.91,0,0,0-2.53-1c.62-2.58-1.81-4-4.09-4.83-3.7-1.28-6.41-2.65-6.23-6.13.06-1.17-2-1.85-2.58-1.17-2.21,2.54-12.74,0-7.52,7.11.24.32-.5,1.16-1,1.66-2.41,2.58-.3,2.81,2.47,3.71,3.77,1.22,8.75.25,11.39,3.52-.14,1.52.14,3.24,2,3.77,6.15,1.77,1.14,6.37,4.13,9,.73.65-1,1.54-2.35,1.68s-2.2.78-2.39,1.88c-.29,1.69-1.31,3.52-3.56,3.36s-2-2.47-2.68-3.88c-.47-1,.54-2.57-1.47-2.77-1.82-.18-2.84,1.21-3.82,2.19-2,2-.67,3.86,1.52,4.89,3.86,1.81,4.6,5.26,7.55,7.54,2,1.59,0,1.81-1.81,2.26-4.2,1.06-8.73,1.85-13.06,5.65,4.27-.54,6.93-1.35,8.79.38,2.15,2-2.46,2.21-2,3.81,1.45,1.59,3.6-.78,5.15.63-.23,1.76-4.24,4.44-.31,5.19,8.36,1.6,1.85,5.45,2.52,8,.37,1.46-3.24,2.62-5.76,3.05-.82.14-1.94-.2-1.73-1,1.33-4.61-2.84-1.18-4.26-1.74h0c-1.24-2.75-3.5-.85-4.8-.32-2.08.85-1,2.11.29,3.12,5.19,4.15,10.68,8,16.26,11.89,2.59,1.79,4.21,2.37,6.85-.42.38,7.74-8.46,9-14,13.51,6.9-1.15,6.67.72,4.1,3.43-.78.82-2.87,1.29-.64,2.49,1.61.87,3.1.94,4.27-.48a6.76,6.76,0,0,1,1-1.22c1.08-.8,2-2.72,3.8-1.45,1.62,1.12-.73,2.18-1.19,3.3-.84,2-4.94,1.28-5.16,3.68,1.39,1.65,4.16-1.31,5.34,1.08-.85,2-3.63,2.46-5.38,3.73-2.62,1.9-7.77,3.06-8.25,5-.59,2.47,4.94,3.87,6.68,6.47a11.46,11.46,0,0,1-4.7-1c-5.28-2-14-1-19.35,2.49,5.08-1.74,8.53-1.35,9.59,1.88s6.62,1.9,7.76,4.86a3.34,3.34,0,0,1-.36,2.77c-.57,1.24-1,2.79.15,3.68,3.07,2.31,1.55,4.67.8,7.12-1.22,4-1.17,4.05,4.63,5.19.7-1.52-1.12-2.28-1.74-3.4-.8-1.47,0-2.53,1.7-3.17,1.17-.46,2.46-1.55,3.86-.26,2.67,2.45,7.12,2.35,10.37,3,4.69,1,8.45,3.11,12.91,4.2,2.06.5,2.48,2.48,1.06,4.11-1.73,2-3.08,4.33-5.4,5.76-2.7,1.66-2.8,3.11.44,6.31-4.48-1.94-7-3.08-9.57-.82s-5.86,2.77-9.54,1.62l.08,0-1.43-1c-10-6.59-18.23-14.29-24.17-23.34-.4-.63-.52-2-.07-2.22,5.4-2.93,1.34-5.21-.89-7.46-1.89-1.9-4.24-3.53-6.29-5.35-2.63-2.34-5.09-4.35-5.59-8-.57-4.26-6.6-7-8.15-11.56-1.79-5.19-5.21-10.09-6.66-15.32-.76-2.75-2.11-5.41-2.6-8.27-.53-3.16.36-5.07,4.09-6s4.31-2.48,2.64-5.07A59.16,59.16,0,0,1,363,294c-1.06-2.26-3.6-4.45-.54-7,.5-.42-.06-1.88-.6-2.67-3.43-5.06-2.3-10.83-4.49-16.08-1.41-3.37.8-5.32,5.06-5.56,6.07-.34,6.43-2.53,4.67-6.32-3.61-7.79-3-15.87-2.56-24,.15-2.69-1.12-5.58-1.6-8.42s.53-3.68,3.75-4.29c9.16-1.75,9.1-1.81,8.78-8.77-.05-1.24-.24-2.9.66-3.68,4.88-4.22,2-9.17,2.49-13.75.7-6.08,2-7.67,10.09-8.4,3.43-.3,4.36-1.13,4.8-3.73,1-5.68,5.83-10.66,5-16.88-.2-1.47,4.68-2.27,7.58-2.15,3.88.16,5.6-.8,6.07-3.92.63-4.31,5.68-7.11,7.45-11.11,2.42-4.28,7-5.46,12.65-5.27.39,0,.83-.64,1.25-1,3.69-3.51,1.89-8.11,4.28-12.08,2.62-4.36,5.64-6.13,11.51-4.58,2.68.71,3.76.63,4.78-1.86,1.64-4,4.35-7.68,6.76-11.44,1.77-2.78,4.56-.79,6.47-.32,4.23,1,6.32.43,5.46-3.12-.63-2.6,2.72-3.83,3-6.07.46-3.67,3.72-2.5,6.52-2.13a2.27,2.27,0,0,0,2.48-1.09c2.88-5.63,10.33-8.51,14-13.72,2-2.83,4-2.75,4.72.73-3.25,2.36-3.66,7.5-.43,11.46.13-2.16,1.4-3.65.66-5.5S504.13,88.19,506.78,88ZM420.93,384c.23,1,.48,2,2.22,1.33.54-.21,1.16-1.22,1-1.47-1-1.16-2.1,0-3.17.14l0-2.88c4.07-.87,2.17-2.62,2-5-2.77,1.92-1.64,3.55-2,5-1,.13-2.11.22-2.27,1.22C418.44,383.61,419.64,383.85,420.93,384Zm-14.57-116.4c-1-2.26-3.2-3.93-5-5.83-1.22-1.32-2.44-1.38-4.24-.93s-2.63,1.34-1.7,2.47c2.11,2.56-4.55,2.66-2.3,4.37,1.66,1.26,4.85,1.39,7.4,1.9,1.49.3.8,1.32,1.32,1.83,2.38,2.34,4.87-.11,7.33-.07,1.47,0,2.21-.87,2-2-.4-2.46-3-1.56-4.88-1.78Zm-2.94,74.85c.91-1.57-.79-2.84.5-4,3-2.69,0-5.52.19-8.28.11-1.5-1.15-2.06-2.79-.87C396,333.12,396.89,339.32,403.42,342.43Zm-8.27-145.78c0-3.79,6.28-2.43,8-6-3.54.28-6.76-1.18-9.33,1.37-4.11,4.08-.94,7.33,2.41,11.25,1-2.74,5.76-3.19,4.93-5.81C400.44,195.29,396.94,198.3,395.15,196.65Zm.57,11c-1.39-.9-1.49-3.47-3.49-3.14-3.47.57-6.1,3.23-10.21,2.91-.28,0-.91.66-.92,1a1.1,1.1,0,0,0,1.54,1.05C386.74,208,391.75,210.83,395.72,207.68ZM432,382c-1.75,1-4.87,1.21-5.36,3.45-.16.73,0,3.13,2.27,2.66a7.15,7.15,0,0,0,5.26-4.63C434.6,382.42,433.49,382.22,432,382ZM397.24,209.91c-1.1,0-2.11.26-2.29,1.22-.13.67.3,1.36,1.32,1.25,1.18-.14,2.58-.41,2.76-1.53C399.17,210,398.05,210,397.24,209.91Zm-7-7.92c-1.65-1.19-2.1-2.88-4.33-2-.42.17-.9.9-.74,1.16C386.08,202.77,387.86,202.09,390.23,202Zm11.93,145.12c.15-.27.5-.59.4-.78s-.65-.25-1-.37c-.15.27-.49.6-.39.78S401.81,347,402.16,347.11Zm-17.41,3.58,1,.35c.15-.27.49-.6.39-.79s-.64-.25-1-.36C385,350.16,384.89,350.42,384.75,350.69ZM440,136.29a1.16,1.16,0,0,0-.16.41s.29.08.44.12c.06-.13.17-.27.16-.41S440.18,136.33,440,136.29Z" transform="translate(-356.47 -82.03)"/><path class="cls-1" d="M633,278.51c8.8.36,13.73,3.17,11.36,10.46a34.52,34.52,0,0,1-3.85,8.65c-3.54,5.15-3.56,11.2-8.1,16-1.59,1.66-2.67,3.64-1.08,5.82,1.47,2-.68,3.34-1.9,4.68-2.73,3-6,5.73-8.09,9.08-4.79-2-2.43-4.24-.31-6.45,2.76-2.87,2.76-2.87.9-5.06-5.74-1-11.38,2-17.22.16-1.44-.45-3,.48-2.8,1.87.72,4.35-2.76,3.16-7.09,1.79,3.2,4,1.56,5.11-2.51,5-2.26-.07-1.89,1-2.4,2.35-1.61,4.26,4.93,3.46,6,6.78-7.2-3.1-7.46-.3-8.11,4.08-.74,5,2.61,9.09,2.9,13.72-2,.85-3.66,1.91-3.77,3.85-3.73.85-7.74,1.32-11.07,2.72-1.55.67-5.54,1.17-4,4.09l-3.77,2.9c-3,.31-4.65,1.58-5,3.87-1.84,0-3.66,0-3.79,1.92a278.19,278.19,0,0,0-5,2c-3.23,2.78-8.72,3.35-11.31,6.76l-3.72,1c-.55-.7-.95-.65-1.21.14-.13,1.18-1,1.76-2.5,1.83-2-1.5-2.35-.38-2.56.95h0a2.62,2.62,0,0,0-2.49,1v0c-1.85,0-3.7-.09-3.74,1.92l0,0C521,395,515,397.46,512.93,402.92c-1.48.68-1.19,1.81-1.28,2.85l-1.23,1c-2.26.85-3.46,2.44-4.6,4.56-.7-1.29-1.41-2-1.45-2.74-.18-3.79-.19-7.59-.26-11.39,6.62-1.12,8.91-4,5.67-7.41,4.24-.42,8.29-1,11.23-3.65,4.21-3.83,8.11-8,14.84-9.58a3.61,3.61,0,0,0,2-1.69c3.63-6.94,10.35-10.78,19.58-13.11,5.21-1.32,10-4.29,7.38-9.87-.49-1,.91-1.6,2.15-2,2.28-.68,4.51-1.46,6.79-2.14,1.42-.42,2.6-.73,2.28-2.31-.63-3.09,3.6-8.72,7.26-9.08,4.11-.41,3.1-1.78,1.82-3.47-.82-1.09-2.26-1.94-2.17-3.37,2.64.37,4.3-1.07,6.25-2,.46.55,1.12,1,1.85.44s.1-1.06-.61-1.41l1.26-2.88h0c2.45-.1,3.71-1.07,3.77-2.95-.46-1.91,3-2.58,2.61-4.59-1.39-.19-2.62-.23-3.56.59-3.52,3.09-6.91,6.13-12.22,7.75-1.69.52-4.29,2.57-3.11,5,0,.61,0,1.22-.05,1.83l-2.44.09c-7.9.41-10.3,1.85-11.3,6.83v1.83l0,0H562.9c-3.32-1.68-3.22.5-3.76,2-5.28,0-8.19,2.36-10,5.79-8.15,3.66-15.35,8.08-20.07,14.51a10.44,10.44,0,0,0-5,1c-3.22-.53-5.32-1.45-1.89-3.81.81-.56,1.7-.91,1.25-1.84-1.79-3.63.05-7.14.54-10.7,1.52-.93-2.47-1.79-.08-2.68,3.29-1.24,8.29-2.93,6.24-5.72-4.88-6.66,5.9-.8,4.74-3.88-.05-.13.17-.3.18-.45.29-5.45,11.31-5.43,10.29-11.65a9.74,9.74,0,0,1,3.37-.69c3,0,4.78-.31,5.86-3,.57-1.44.86-3.62,2.67-4.59,2.14-1.15,4,2.27,6.11.95,2.46-1.52-2.41-3.72-.73-4.43,5.11-2.17.74-3.23-.84-4.47,3.53-2.26,6,1.2,9.08.42-2.55-4.05.87-6.16,4.5-7.92,1.61-.77,4.2-1.2,3.34-2.8-1.34-2.52.38-4.69.3-7h0l15-5.83h0l1.27.95c6-.35,3.67-4.34,5-6.73h0c2.12.22,4.52-.67,6.29.94.09,1,.57,2.46,1.65,2.31,6.49-.89,4,1.93,2.91,4-1.35,2.46-4.48,1.8-7,1.81-1.34,0-2.56-.15-3.15.89-.79,1.42.55,2,2,2.44.95.29,2.09.4,1.57,1.56-3.19,1.34-5.46-.29-8-1.38-2.26-1-4.19-1.28-3.32,1.65a3.6,3.6,0,0,1,.07,2.29c-2.18,5.49-2.66,10.09,7.69,10,1.05,0,2.3,2,3.54.76,1.39-1.42-.9-2.14-2.11-2.85s-4-.59-2.81-2.38c1.4-2.09,4.1.45,6.27-.49,1.51-.65,3.08.28,2.89,1.61-.37,2.57,2.08,5,.5,7.58h0q-4.23-.33-3.77,2.9h0c-3.15.19-6.54.23-3.8,3.83,5.67-.24,8.34-3.09,10.07-6.76,0-1.63,1.55-2.5,2.75-3.58,4.39-3.95,9.85-7.13,13.46-11.69,2.09-2.62,4.57-6,10.22-4.15a1.89,1.89,0,0,0,1.95-.86c3-4,1.9-6.23-4.06-7.61C634.66,280,633.24,279.94,633,278.51Zm-.47,29.13c-1.22-5.8,6.59-8.29,4.32-13.32C637,298.81,626.45,300.61,632.55,307.64Zm-4.88-3.57c-.35-.11-.77-.37-1-.3s-.32.49-.47.76c.35.11.77.37,1,.3S627.52,304.34,627.67,304.07Z" transform="translate(-356.47 -82.03)"/><path class="cls-1" d="M508.13,229.74c-4.74-.36-4.4,4.75-8.78,4.79-1.19-11.31,1.25-22.48,2.28-33.7A35.28,35.28,0,0,0,516,196c2.47-1.52,7.83-1.16,5.27-5.53-.59-1,.92-1.07,1.92-1.27,1.82-.37,3.5,1,5.37.23.15-1.39-3.26-2.25-.45-4.07,4-2.6,4.47-6.06,2.29-9.71v-.91c1.17.11,3-.37,3.23.83.8,3.55,3,3.06,6,1.53a17.72,17.72,0,0,1,3.87-1c.85-1.82-3.87-1.55-2.09-2.75,5.49-3.7-.55-2.69-2.17-3.5,0-.34,0-.68,0-1s0-.57,0-.86l3.79-.06.53.23L543,168c.28-3,6.45-2.58,6.29-6.32,0-1,3-4.27,2.44-6.72l-4.94,3.42c-1.68,0-2.55.63-2.55,1.93h0c-5.34-2.35-1.24-4.65.56-6.35,2.16-2,3.6-4.58,2.2-6.34-1.14-1.43-7.48-1.71-7.52-1-.17,3-10.57.83-5,6,.57.54.67,1.37-.34,1.53-5.1.79-7.34,4.44-10.56,6.79-3,2.21-5.48,3.6-9.52,3.29,0-2.49,6-2.8,4.35-4.85s-.3-3.88-.65-5.75h0c5.84-.23,10-1.38,6.25-6.78,3.91-6.55,9.94-12.09,14.89-18.14.74-.9,1.36-2.35,3.2-1.48a2.45,2.45,0,0,1,1.34,2.89c-.31,1.91-.59,5,.72,5.66,4.12,1.95,1.74,2.75-.26,4.11-1,.71-2.75,3-.73,2.6,5-.88,9.94.49,14.77-.44,2.87-.55,5.67-3.52,8.37.69,1,1.63,4.07.6,5.7-.92.41.5,1.09,1,1.18,1.51.9,5.31,3.07,9.77,11.27,10.44-.19,2.52-1.86,6.09-.31,7.36,4.6,3.74,5.24,8.23,6.18,12.7.87,4.12,4.56,6.4,8.91,7.21,6.32,1.18,8.81,3.61,8.16,8.39a38.33,38.33,0,0,0,0,5.25c-3.51,1.23-6.14-1-9.16-1.59-.8-.15-1.69-1.4-2.5-.3-2.63,3.58-7.74,5.69-9.7,9.64-1.6,1.46-3.53,2.76-3.74,4.83l-.05,0-6.2,1.95c3.49-6,2.45-7.24-7-8-.76,1.72,3.27,2.82,1.1,4.72-2.09.56-3.68-2.45-6.13-.51-1,.76-2.46,2.68-3.84,1.05s.86-3.1,2.85-3.52c1.71-.35,3.36-.16,2.76-2.09-1.15-3.76,1.92-5.74,5.68-7,2.77-.9,4.91-2.93,4-4.24-4.15-6.17,5.6-10.09,3.87-16-.53-1.78,4.37-2.83,7.68-4.2a17.86,17.86,0,0,1-3.41-1.1c-4.91-3.16-7.69-1.86-10,2.28-.76,1.36-1.57,3.32-4.42,3.7-8.25,1.09-9.45,2.76-6,8-.42.65-.84,1.29-1.25,1.94,0,.31,0,.63,0,.94-6.07-2.45-5.16,1.71-6.32,3.91-4.67-.25-4.61,2.93-6.15,5-1.09,1.33-1.57,3-3.67,3.75a1.74,1.74,0,0,0-1.37,1.92h0l-1.24,1,0,0c-1.67,0-2.51.63-2.48,1.91l0,0c-1.75,0-2.52.69-2.48,2l-2.45,1.86c-1.68,0-2.59.61-2.56,1.94h0c-5.74,2-9.93,5.21-12.48,9.65l0,0c-2.63,0-2.56,1.43-2.46,2.85l0,0c-6.42.8-8.44,4.56-10,8.65ZM601,188.93c.9-.14,2-.13,1.88-1.18,0-.12-.25-.3-.4-.3-1.38-.07-1.35.75-1.52,1.45-.92.13-2,.12-1.89,1.18,0,.11.25.29.4.29C600.86,190.44,600.84,189.62,601,188.93Zm-19.35-.5a5.15,5.15,0,0,0-1.69-1,1.11,1.11,0,0,0-1.43,1.14c.05.69.66,1.16,1.56,1.19S581.61,189.43,581.66,188.43Zm-23.2-6.27a1.17,1.17,0,0,0,.18.41,1.65,1.65,0,0,0,.46-.1,1,1,0,0,0-.18-.4S558.62,182.13,558.46,182.16Z" transform="translate(-356.47 -82.03)"/><path class="cls-1" d="M415.81,394.68c3.68,1.15,7,.61,9.54-1.62s5.09-1.12,9.57.82c-3.24-3.2-3.14-4.65-.44-6.31,2.32-1.43,3.67-3.79,5.4-5.76,1.42-1.63,1-3.61-1.06-4.11-4.46-1.09-8.22-3.24-12.91-4.2-3.25-.67-7.7-.57-10.37-3-1.4-1.29-2.69-.2-3.86.26-1.65.64-2.5,1.7-1.7,3.17.62,1.12,2.44,1.88,1.74,3.4-5.8-1.14-5.85-1.15-4.63-5.19.75-2.45,2.27-4.81-.8-7.12-1.17-.89-.72-2.44-.15-3.68a3.34,3.34,0,0,0,.36-2.77c-1.14-3-6.67-1.54-7.76-4.86s-4.51-3.62-9.59-1.88c5.32-3.53,14.07-4.45,19.35-2.49a11.46,11.46,0,0,0,4.7,1c1.72,0,3.42.06,4.59,1.16,4.15,3.93,10.65,5.34,15.58,8.52,3,2,7.69,4.45,11.89.42a1.93,1.93,0,0,1,2.25-.17c.93.5.43,1.12,0,1.67-.72,1-1.57,1.89-2.2,2.89s-.71,2.36,1.24,2.63,2.9,2.19,5,1.35,6.79-8,6.94-11.22c3,3,4.18,6.2,6.93,8.66,1,.89-.18,3.22-2.66,4.24-7,2.85-13.62,2.2-20.16-1.89-5.54-3.45-10.09-10.17-19.62-4.95-1,.57-3.3.07-3.1,1.7s2.06,1.29,3.48,1.32c1.67,0,3.35,0,5,0,2.09.05,5,0,4.41,2.23-.88,3,2.17,3,3.89,3.16,5.53.66,7.7,3.29,8,7.12.19,2.36,1.34,4,4.36,4.67,2.47.52,3.43,1.72,3.31,3.53s.36,3.7,2.64,4.55c3,1.13.67,2.6.68,3.91,7.84-.76,10.37,1.62,8.56,7.82-.17.58-.31,1.49.1,1.8,4.48,3.42.38,5.67-1.7,8.27-.91,1.14-4.94,1.51-2.4,3.42,1.58,1.17,4.41.56,6-1.2,1.95-2.22,4-1,4.74.43,1.26,2.61,1.65,5.34,6.71,5.09.65,0,2.1,2.15-.7,2.79-1.4.31-2.79.64-4.19,1h0c0-1.82-2.18-2.17-3.48-3.09-.94-.65-2.13-2.22-3.46-.9s-.7,2.73,1.89,3c2.12,5.18,7.52,8.24,12.66,11.47l.05,0c.15,2.52,2.35,2.94,5,2.88,0,.3,0,.61,0,.92v1c.39,1.67,1.12,3.54,3.81,2.14,3.72-1.95,4.68.44,6,1.93.83,1,.5,2.54,2.78,2.58-.35,2.25,1.18,4.67-1.08,6.74-11-8.73-21.52-17.78-33-26.1a383.53,383.53,0,0,0-36.5-24A50.94,50.94,0,0,1,415.81,394.68Zm21.64,10.4c-.18-.69-.17-1.51-1.55-1.43-.14,0-.38.19-.39.3-.08,1.05,1,1,1.9,1.16l1.55,1.25.49-.57Zm6.77-7.52c-2.59-1.52-4.73-3.95-8.49-3C438.4,395.9,440.46,398.26,444.22,397.56Zm-21,.53c3.16,1.09,4.5,3,8.08,2.45C429.38,398.39,427.86,396.88,423.24,398.09Zm37.09-30.35c.35.12.78.38,1,.3s.32-.49.47-.76c-.34-.11-.77-.38-1-.3S460.49,367.47,460.33,367.74Zm-34.77,2.14c-.15.27-.49.59-.39.79s.65.24,1,.36c.15-.27.49-.6.39-.79S425.91,370,425.56,369.88Z" transform="translate(-356.47 -82.03)"/><path class="cls-1" d="M571.93,141.79c-1.63,1.52-4.65,2.55-5.7.92-2.7-4.21-5.5-1.24-8.37-.69-4.83.93-9.75-.44-14.77.44-2,.36-.31-1.89.73-2.6,2-1.36,4.38-2.16.26-4.11-1.31-.63-1-3.75-.72-5.66A2.45,2.45,0,0,0,542,127.2c-1.84-.87-2.46.58-3.2,1.48-5,6-11,11.59-14.89,18.14-7.23.64-7.92,1.4-6.25,6.78h0l-2.47,0-1.23,1-1.2,1.9c-3.74.44-3.69,2.65-3.81,4.78l-.05,0-1.19,1-1.29,1.85c-1.67.05-2.52.7-2.5,2-1.1,1.36-1.5,3.12-3.74,3.82-2.69-3.25-1.67-6.93-1-10.21a31.24,31.24,0,0,0,.68-10.94c-.68-4.82,2.53-8.38,6.06-11.49,2.2-1.95,2.91-3.63,2.78-5.89,3.08,0,4.85-.83,4.14-3.58-2.75.45-3.89,1.72-4.15,3.57-3.05,1.75-4.62,4.37-6.76,6.57-3.54-14.56,2-30.31,13.53-37.82,1.11,2.42-.65,4.66-.72,6.81s-.58,3.92,2.1,5.12a8.76,8.76,0,0,0,8.15-.8c1.56-.9,2.57-2.36,3.87-3.61-2.45-1.72-5.47,2.13-7.23-.85-.4-.67.19-1.19,1-1.54,5.8-.92,9.22.36,10.09,5.33.43,2.39,2.85,4.54,4,6.9s3.56,1.21,5.17.83c3.83-.9,5.64,0,6.54,2.93,1.31,4.3,7.43,6.62,8.19,11.27.15.93,1.85,1.29,3.13,1.16C567.82,133,570.51,136.79,571.93,141.79Z" transform="translate(-356.47 -82.03)"/><path class="cls-1" d="M586,202.4c2-4,7.07-6.06,9.7-9.64.81-1.1,1.7.15,2.5.3,3,.58,5.65,2.82,9.16,1.59h4.93a9.22,9.22,0,0,1,1.24,6.77c-1.35.58-2.1,0-3.16-.67-9.1-6-8.22-4.78-14.92.15,3,1.52,5,4.44,9.74,2.95,2.19-.69,2.28,1,2.15,2a28.85,28.85,0,0,1-1.15,4.18l-.28.4.28-.4c2.11,2.87,6.21.44,8.83,1.94,0,1.49-.1,3.43-2.26,3.48-4.16.1-5,1.35-4,4.15.2.52-.86,1.31-1.34,2-2.77-.18-4,.78-3.68,2.9h0c-1.66,0-2.51.66-2.51,1.94h0c-3.71-.25-4.62,1.62-5,3.87h0c-2.57.1-2.56,1.48-2.51,2.9h0c-1.69,0-2.49.68-2.52,1.94h0c-3.33,0-3.85,2.17-5,3.85l-.05,0-1.27,0c-1.37-1.54-2.67-3.15-5.55-3.54-.08,2.69.83,6.28-4.72,2.68a3.9,3.9,0,0,0-4.55-.24c-5.27,3.64-8.51.2-12.9-1.7,3-1.44,4.89-.2,6.65.3,3.79,1.08,4.42-1.32,5.35-2.77s-1.51-2.43-2.39-3.63c-.66-.89-2.74-1.43-1.54-2.72s2.12.09,3.15.46c2.84,1,5.66-1.31,5.51-1.84-1.29-4.85,3.33-3.71,7.94-3.71-5.35-2.56-10.37-4.31-7.11-9.17,4.24-.64,5.83-3.24,7.42-5.84l.05,0C586.51,207,585.94,204.57,586,202.4Z" transform="translate(-356.47 -82.03)"/><path class="cls-1" d="M588.41,390.11c-6.12,6.61-14.64,11.3-22.52,16.5-2.25-2.58-2.21-4.71,2.12-5.88a20.52,20.52,0,0,0,6.6-3.33c2.46-1.84,6.77-3.23,7.15-6.85a3.75,3.75,0,0,0-3.38,1.34c-1.22,1.19-3,1.69-4.19.53s.89-1.71,1.93-2.42c1.41-1,3.83-1.24,4.11-3.49-3.72-.8-8.4.16-10.79-3.07,0-.32,0-.64,0-1,2.09-.25,3.32,1,4.95,1.53,1.93.6,5.4,1.08,4.65-1.68-.67-2.45.89-3.44,2.47-4.85,2.73-2.44,5.05-5,4.22-8.53,0-1.28,0-2.56,0-3.84h2.5c1.29.95,2.52,2.06,4.5,1.22.52-1.49-2.2-2.08-1.29-3.56,2.51-1,7.29,2.61,7.82-1.72.3-2.51,2.43-4.27,2.76-6.59l.28-.41-.29.4-5,0c1.77-4,6.61-6,10.31-8.68.85-.62,2.84-.9.69-1.73-2.73-1-.43-2-.42-3,0-3.66,8.09-6.72,1.34-10.92-1-.63.16-1.7,1.25-1.5,7.75,1.39,9-3.57,11.79-6.95,1.86,2.19,1.86,2.19-.9,5.06-2.12,2.21-4.48,4.43.31,6.45l.84,1.35c.11.57,0,1.45,1.14.43l1.25.5A1.6,1.6,0,0,0,626,337l-.14-.05c-.5,5-3.46,9.62-6.42,13.68-4.72,6.46-10,13.16-17.67,17.8-8.73,5.27-9.54,12.44-10.88,19.74l-.06,0-1.21.89-.08.06Z" transform="translate(-356.47 -82.03)"/><path class="cls-1" d="M609.3,308.25c1.58-2.58-.87-5-.5-7.58.19-1.33-1.38-2.26-2.89-1.61-2.17.94-4.87-1.6-6.27.49-1.2,1.79,1.64,1.69,2.81,2.38s3.5,1.43,2.11,2.85c-1.24,1.27-2.49-.76-3.54-.76-10.35.05-9.87-4.55-7.69-10a3.6,3.6,0,0,0-.07-2.29c-.87-2.93,1.06-2.63,3.32-1.65,2.51,1.09,4.78,2.72,8,1.38.52-1.16-.62-1.27-1.57-1.56-1.43-.43-2.77-1-2-2.44.59-1,1.81-.88,3.15-.89,2.51,0,5.64.65,7-1.81,1.13-2.07,3.58-4.89-2.91-4-1.08.15-1.56-1.32-1.65-2.31l2.51,0c3.52.67,7.08-.55,10.82.22-1.89-1.64-3.64-3.13-4.55-5.05l-1.27-1c0-1,0-1.92,0-2.88,1.64,0,2.47-.69,2.51-1.94a2.88,2.88,0,0,0,2.5-1c3.79.19,7.79-1.2,11.32.9,0,1.8,0,3.59-.06,5.39,0,1.44-2.86,3.22.84,4.24l1.83,1.17c.22,1.43,1.64,1.47,3.1,1.8,6,1.38,7.06,3.63,4.06,7.61a1.89,1.89,0,0,1-1.95.86c-5.65-1.81-8.13,1.53-10.22,4.15-3.61,4.56-9.07,7.74-13.46,11.69-1.2,1.08-2.8,1.95-2.75,3.58Z" transform="translate(-356.47 -82.03)"/><path class="cls-1" d="M615,212c-2.62-1.5-6.72.93-8.83-1.94h0a28.85,28.85,0,0,0,1.15-4.18c.13-1.06,0-2.73-2.15-2-4.71,1.49-6.77-1.43-9.74-2.95,6.7-4.93,5.82-6.15,14.92-.15,1.06.7,1.81,1.25,3.16.67,2,1.35,4.69,1.47,7,1.63,4.17.28,5.35,1.74,4.71,4.59,0,7.07-.05,14.14,0,21.21,0,1.5-.39,3.51,3.16,2.73,0,0,.09,0,.09,0,0,.28,0,.55-.07.83l.67-.71,2.44.52c-1.51,4.46,2.46,1.39,4,1.69l-.14,0c2.46,5.87-.23,11.5-1.36,17.21-.18.9-1.3,1.14-2.37,1.26-2-.25-4.63.79-5.81-.87-2.19-3.08-3.06-1.18-4.57.32-2.55,2.56-3.66,6.21-8.63,7-1.42-.89,0-1.81-.21-2.69-.81-3.62-3.57-7.74,4.35-9a1.11,1.11,0,0,0,.4-2c-6-2.49-.53-8.24-6.19-10.64,2.32-1.18,4.45.4,6.16-1.19-.71-1.35-5.13-1.89-1.77-4.54,6.69-5.26,6.24-6.21-2.77-8.13,0-1.25.85-1.86,2.45-1.92,4.62.15,4-1.67,2.49-3.85l1.29-2.88c1.05-.48,2.48-1,1.84-2.07-.88-1.44-2.9-.6-4.4-.81-.17-.7-.14-1.52-1.53-1.45a.51.51,0,0,0-.39.3c-.07,1.06,1,1,1.91,1.15,0,1,0,1.93,0,2.9Z" transform="translate(-356.47 -82.03)"/><path class="cls-1" d="M497,453.94c2.26-2.07.73-4.49,1.08-6.74,1.25-6.89-2.14-13.43-2.57-20.2,1.43-.77,1.24-1.92,1.15-3-.45-5.72-.93-11.44-1.4-17.16a6.12,6.12,0,0,1,2.61-5c0,3.45.06,6.45.05,9.44s-.25,6.07,3.66,8c0,1.61.07,3.22.1,4.82-1.25.14-2.5.46-2.22,1.62s1.43.44,2.25.29l.13.14c.3,4.48-1.23,9.15,2.32,13.31a92.32,92.32,0,0,0,3,21.53c.26,6.2,2,12.26,3,18.38,1.85,10.87,2.32,21.89-.16,32.84-.51,2.25-2.36,2.52-4.52,2.22-2.37-.33-5.26-.56-4.75-3.38s1.1-5.68,1.6-8.53c2.62-15.1-1.45-29.95-2.85-44.89C499.36,456.05,498.16,455,497,453.94Z" transform="translate(-356.47 -82.03)"/><path class="cls-1" d="M590.92,388.16c1.34-7.3,2.15-14.47,10.88-19.74,7.7-4.64,13-11.34,17.67-17.8,3-4.06,5.92-8.68,6.42-13.68,5.39,5.87,1.44,11-1.18,16.74-2.35,5.16-8.24,8.25-10.33,13.23-2.59,0-5.53.43-7,1.69-2.2,1.92-8.06,3.19-3.82,7.23l-1.65,1.7c-7.22-.73-6.27,2.91-5.76,6.31-.06,1.11-.11,2.22-.17,3.33Z" transform="translate(-356.47 -82.03)"/><path class="cls-1" d="M612.25,194.65h-4.93a38.33,38.33,0,0,1,0-5.25c.65-4.78-1.84-7.21-8.16-8.39-4.35-.81-8-3.09-8.91-7.21-.94-4.47-1.58-9-6.18-12.7-1.55-1.27.12-4.84.31-7.36,2.62,0,4,.33,4.86,3,2,6.6,5.29,13,7.71,19.5.71,1.92,2.22,1.89,4.09,2.17,6.3.92,9,4.77,10.07,8.83A25.15,25.15,0,0,1,612.25,194.65Z" transform="translate(-356.47 -82.03)"/><path class="cls-1" d="M631.59,252.33c1.07-.12,2.19-.36,2.37-1.26,1.13-5.71,3.82-11.34,1.36-17.21,4.73.36,5.11,2.79,5.17,5.76.1,4.55-3,8.42-4.09,12.72-2.18,8.29-.54,17-5.21,25-3.7-1-.84-2.8-.84-4.24,0-1.8,0-3.59.06-5.39v-2.88c1-3.81,3.2-7.55,1.19-11.54C631.6,253,631.59,252.65,631.59,252.33Z" transform="translate(-356.47 -82.03)"/><path class="cls-1" d="M628.34,231.58c-3.55.78-3.15-1.23-3.16-2.73,0-7.07,0-14.14,0-21.21,4.91,1.7.8,4.67,1.39,7C628,220.16,627.85,225.92,628.34,231.58Z" transform="translate(-356.47 -82.03)"/><path class="cls-1" d="M603.58,375.83c-4.24-4,1.62-5.31,3.82-7.23,1.45-1.26,4.39-1.72,7-1.69C613.73,372,607.64,373.18,603.58,375.83Z" transform="translate(-356.47 -82.03)"/><path class="cls-1" d="M433.52,141c-.42.35-.86,1-1.25,1-5.64-.19-10.23,1-12.65,5.27C420,139.5,421.38,138.87,433.52,141Z" transform="translate(-356.47 -82.03)"/><path class="cls-1" d="M506.78,88c-2.65.15-3.85,1.23-3.07,3.19s-.53,3.34-.66,5.5c-3.23-4-2.82-9.1.43-11.46l0,0c.17.63.69.93,1.51.94A2.07,2.07,0,0,1,506.78,88Z" transform="translate(-356.47 -82.03)"/><path class="cls-1" d="M596.17,383.84c-.51-3.4-1.46-7,5.76-6.31Z" transform="translate(-356.47 -82.03)"/><path class="cls-1" d="M635.46,233.91c-1.53-.3-5.5,2.77-4-1.69A3.62,3.62,0,0,1,635.46,233.91Z" transform="translate(-356.47 -82.03)"/><path class="cls-1" d="M626,337a1.6,1.6,0,0,1-1.44-1.54C625.56,335.69,626.19,336.13,626,337Z" transform="translate(-356.47 -82.03)"/><path class="cls-1" d="M414.46,393.7l1.43,1Z" transform="translate(-356.47 -82.03)"/><path class="cls-1" d="M623.34,335c-1.12,1-1,.14-1.14-.43Z" transform="translate(-356.47 -82.03)"/><path class="cls-1" d="M629,231.7l-.67.71c0-.28,0-.55.07-.83A.77.77,0,0,1,629,231.7Z" transform="translate(-356.47 -82.03)"/><path class="cls-1" d="M505,86.19c-.82,0-1.34-.31-1.51-.94Z" transform="translate(-356.47 -82.03)"/><path class="cls-1" d="M495.47,427c.43,6.77,3.82,13.31,2.57,20.2-2.28,0-2-1.61-2.78-2.58-1.28-1.49-2.24-3.88-6-1.93-2.69,1.4-3.42-.47-3.81-2.14.86-.33.85-.67,0-1,0-.31,0-.62,0-.92-.38-2.29-2.71-2.57-5-2.88l-.05,0c-.22-4.49-7-6.19-7.61-10.52,1.4-.32,2.79-.65,4.19-1,2.8-.64,1.35-2.82.7-2.79-5.06.25-5.45-2.48-6.71-5.09-.69-1.45-2.79-2.65-4.74-.43-1.54,1.76-4.37,2.37-6,1.2-2.54-1.91,1.49-2.28,2.4-3.42,2.08-2.6,6.18-4.85,1.7-8.27-.41-.31-.27-1.22-.1-1.8,1.81-6.2-.72-8.58-8.56-7.82,0-1.31,2.34-2.78-.68-3.91-2.28-.85-2.77-2.67-2.64-4.55s-.84-3-3.31-3.53c-3-.63-4.17-2.31-4.36-4.67-.3-3.83-2.47-6.46-8-7.12-1.72-.2-4.77-.12-3.89-3.16.63-2.19-2.32-2.18-4.41-2.23-1.68,0-3.36,0-5,0-1.42,0-3.29.21-3.48-1.32s2.06-1.13,3.1-1.7c9.53-5.22,14.08,1.5,19.62,4.95,6.54,4.09,13.19,4.74,20.16,1.89,2.48-1,3.65-3.35,2.66-4.24-2.75-2.46-3.95-5.65-6.93-8.66-.15,3.19-4.73,10.36-6.94,11.22s-3.19-1.11-5-1.35-2-1.49-1.24-2.63,1.48-1.92,2.2-2.89c.41-.55.91-1.17,0-1.67a1.93,1.93,0,0,0-2.25.17c-4.2,4-8.85,1.54-11.89-.42-4.93-3.18-11.43-4.59-15.58-8.52-1.17-1.1-2.87-1.2-4.59-1.16-1.74-2.6-7.27-4-6.68-6.47.48-2,5.63-3.14,8.25-5,1.75-1.27,4.53-1.75,5.38-3.73-1.18-2.39-3.95.57-5.34-1.08.22-2.4,4.32-1.65,5.16-3.68.46-1.12,2.81-2.18,1.19-3.3-1.83-1.27-2.72.65-3.8,1.45a6.76,6.76,0,0,0-1,1.22c-1.17,1.42-2.66,1.35-4.27.48-2.23-1.2-.14-1.67.64-2.49,2.57-2.71,2.8-4.58-4.1-3.43,5.5-4.55,14.34-5.77,14-13.51-2.64,2.79-4.26,2.21-6.85.42-5.58-3.85-11.07-7.74-16.26-11.89-1.27-1-2.37-2.27-.29-3.12,1.3-.53,3.56-2.43,4.8.32-.9.13-2,.1-1.89,1.16,0,.11.25.29.4.3,1.38.05,1.33-.77,1.49-1.46,1.42.56,5.59-2.87,4.26,1.74-.21.76.91,1.1,1.73,1,2.52-.43,6.13-1.59,5.76-3.05-.67-2.59,5.84-6.44-2.52-8-3.93-.75.08-3.43.31-5.19-1.55-1.41-3.7,1-5.15-.63-.48-1.6,4.13-1.83,2-3.81-1.86-1.73-4.52-.92-8.79-.38,4.33-3.8,8.86-4.59,13.06-5.65,1.79-.45,3.86-.67,1.81-2.26-3-2.28-3.69-5.73-7.55-7.54-2.19-1-3.57-2.87-1.52-4.89,1-1,2-2.37,3.82-2.19,2,.2,1,1.81,1.47,2.77.68,1.41.31,3.71,2.68,3.88s3.27-1.67,3.56-3.36c.19-1.1.95-1.72,2.39-1.88s3.08-1,2.35-1.68c-3-2.61,2-7.21-4.13-9-1.86-.53-2.14-2.25-2-3.77,2.06-1.79,6-1.5,7.52-3.87a2.91,2.91,0,0,1,2.53,1c1.12,4.47,7.44,5.39,10.21,8.74,1.27,1.54,3.21,2.51,5.12,1.3s-1.22-2-1.25-3.15c-.1-3.39-7.21-2.17-6.52-6a7.42,7.42,0,0,0,4.84-2c4.11-3.13,6.21-8.24,13.75-7.93.23,0,.76-.5.69-.66-2.06-4.76,3.36-3.78,6.08-4.23,1.89-.3,2.48-1,2.89-2,.58-1.4-1.07-1.42-2.17-1.76a9.85,9.85,0,0,1-7-6.57c-.32-1-2.38-1.86-.11-2.66,1.25-.44,3.24-.6,4.05.44,1.06,1.38,3.65,3,3.46,3.69-1.67,6,9.1,2,8.72,6.66,3.38-2.87,7.19.61,11.68-.32-4.19-2.37-1.64-4.4-.57-6.52.47-.94-.62-2.6,1.42-2.77,2.22-.18,1.92,1.7,2.79,2.68,2.11,2.4,1.91,5.91,6,7.35,2.49,4.9,1.53,10,.76,14.93-.39,2.54-.3,5.06-.67,7.56-.23,1.49,3.59,4.42-2.75,4.17-2-.08.67,2.65.37,4.14-2.18.2-2.55,1.33-2.54,2.75.08,8.33.1,16.65.18,25,0,1.08-.27,2.56,1.58,2.8,4.38.59,3.45,3.09,3.46,5.21q.24,28.33.4,56.67c0,4.55.06,9.11,0,13.66,0,1.51.58,3.31-2.44,3.68-3.07-3.6-4-8.59-11.22-9.68,1.58-1.8,3.16-3.55-.58-5s-6.09-3.5-1.79-7.32c-3.63.65-5.67,1.49-6.52,3.11-2,3.84-3.75,2.37-6.65.45-2.17-1.43-2.23-3.94-4.85-4.82-6.16-2.09-10.65-4.84-7.26-12.07-4.12,2.86-9.26,2.88-8,7.23-2.78,0-5.2-2-8.57-.84,3.55,2.38,6.67,4.33,11.45,3.18a3.9,3.9,0,0,1,4.27,1.4c1,1.74-1.14,1.92-2.25,2.77-1.47,1.14-4.22,1.59-4.19,4,2.25-.09,4.37-.42,5.05,2.06.86,3.2,4.3,3.59,7.91,3,2.78-.42,5.51-1,8.23-1.54.85,2.05-4.33,3.37-1.7,4,6.46,1.44,6.13,9.28,14.48,8.33,1.1-.12,1.31.46.89,1.22-1.52,2.7,1.84,4.49,2.29,6.85a2.29,2.29,0,0,0,3,1.84c1.35-.39.93-1.62.71-2.56-.17-.72-1.12-1.43,0-2.17,3.31,2.1,4.3,18.52,1.39,23-1.6-.92-.56-2.45-1.36-3.54-1.05-1.42-2.74-3.31-4.75-2.23-6.15,3.29-5.29,0-4.54-2.7.47-1.72-.1-2.27-2.09-2.7s-4.1-1.51-4.67,1.2h0c-4.2.87-5.66-3.31-10.15-3.54,1.82,3.19,4.65,5.85,4.48,8.39-.31,4.62,3.25,5.32,7.36,6.93,3.1,1.22,7.81,1.38,8.87,4.79.29.95-1,2.34.59,3,1.94.8,1-2.62,3.89-1.45-1,3-2.34,6.53,4.92,5.48.65-.1,2.55,1.53,2.36,1.93-1.89,4,2.82,7.19,1.84,11-.33,1.31.8,3.34-1.86,3.54s-3.05-1.68-3.2-3.38c-.23-2.74.57-5.58-.57-8.21-1.84.08-1.74.8-1.92,1.39-.82,2.66.66,7.88-6.55,3.42a1.35,1.35,0,0,0-2,.47,1.57,1.57,0,0,0,1,2.11c6.54,3,10.06,7.36,10.3,13.31.09,2.1,2.95,2.37,4.78,2.18,2.19-.23.64-1.7.61-2.71S490.9,426,495.47,427ZM466.29,298c-2.51,1.36-4.14,2.32-5.88,3.16-1.93.94-3.94,1.32-5.52-.4-5.61-6.09-12.65-5.16-20.08-2.46-1.62.59-4.49.74-3.92,2.46.83,2.49,2.31-.55,3.7-.16a2.88,2.88,0,0,1,2.07,1.63c.42,1,1,2,2.52,1.72,6.25-1.18,7.79,2.74,10.22,5.51,1.58,1.8,3,5.21,4,5.58a73.59,73.59,0,0,1,25.53,15.74c1.11,1,4.66,1,6.87.64,2.4-.37,1.33-2.4,1.45-3.74a34.75,34.75,0,0,0,0-4.33c-.13-3.94-3-6.14-8.29-6.33-1.89-.07-1.83-1-1.4-2,.58-1.34,3-1.88,2.77-4-4.65,1.06-5.44-.77-5-3.81.12-.9-1.39-2.8-1.78-2.74C467.08,305.39,467.29,301.57,466.29,298ZM466,339.66c-1.91,0-2.44.93-2.43,2.19s.23,2.28,2.18,2.38c2.27.12,2.79-1,2.75-2.42C468.42,340.54,467.85,339.65,466,339.66Zm25.81,95.39c-1.76.13-2.31.45-2,.93a2.71,2.71,0,0,0,1.5,1.26c.94.23,1.46-.34,1.2-1.05A4.46,4.46,0,0,0,491.76,435.05Zm-37.85-51.26c.62.38,1,.78,1.42.81s1.35-.2,1.45-.46c.3-.72-.41-1.1-1.27-1.06A5.52,5.52,0,0,0,453.91,383.79Zm0-48.75,1,.34c.15-.26.49-.59.39-.78s-.64-.24-1-.36C454.18,334.51,454,334.77,453.89,335Z" transform="translate(-356.47 -82.03)"/><path class="cls-1" d="M491.69,224c-4.08-1.44-3.88-4.95-6-7.35-.87-1-.57-2.86-2.79-2.68-2,.17-1,1.83-1.42,2.77-1.07,2.12-3.62,4.15.57,6.52-4.49.93-8.3-2.55-11.68.32.38-4.61-10.39-.7-8.72-6.66.19-.66-2.4-2.31-3.46-3.69-.81-1-2.8-.88-4.05-.44-2.27.8-.21,1.71.11,2.66a9.85,9.85,0,0,0,7,6.57c1.1.34,2.75.36,2.17,1.76-.41,1-1,1.68-2.89,2-2.72.45-8.14-.53-6.08,4.23.07.16-.46.67-.69.66-7.54-.31-9.64,4.8-13.75,7.93a7.42,7.42,0,0,1-4.84,2c0-1.79-2.3-3.44-.6-5.33.53-.59,1.76-1.14.66-1.9a3,3,0,0,0-3.32.15,5.45,5.45,0,0,1-3.07,1.33,1.88,1.88,0,0,1-1.27-1.91c-.79-3.27-2.7-5.66-7.6-5.75-5.93-6-13.4-11-18.09-17.76-1.72-2.47-2.5-4.19,1.87-5.46,3.8-1.11,5.49-3,1.51-5.61-.37-.24-.78-1-.68-1,5.64-3.82-.54-8.15.57-12.37.47-1.79,4.33-4.76.53-7.15-5.46,2.36-1,6.54-3.6,10.24-1.29-3.3-2.4-5.89-3.29-8.52-.36-1.09,1-1.2,2-1.36l.53.22-.52-.22c-.31-2.24.08-3.72,3.94-3,2.07.4,4.38.06,8.22,0-2.8-2.07-5.88-2.92-4.19-5.19,1.86-2.51,4.25-1.09,6.47-.34,2.44.83,2.16.15,2.57-1.57.59-2.47.55-5.78,5.24-6.63,1.53-.28,1.89-1.56,1.44-2.34-1.69-3,1.79-5.92-.36-9-1.37-2,1.21-1.87,2.79-1.93,5.33-.19,10.64.13,14.53-3.9,1.17-1.2,5.2,1.62,7.52-1,.17-1.69-4.41-.39-3.46-2.14,1.07-2,4.15-1.7,6.65-1.71,0,.63,0,1.26,0,1.89.11.88-.36,2,1.18,2.39a2.34,2.34,0,0,0,1.57-.43,2,2,0,0,0,.55-3c-.68-1-2.12-.77-3.33-.82a4.72,4.72,0,0,1,0-1.91c.69-1.59-8.33-7.81,3.42-4.29,1.06.32,1.41-.88,1.61-1.69.35-1.4.87-2.78,1.18-4.19,1.46-6.57,1.44-6.57,9.88-6.27,3.62.13,6.86.21,8.39-3.38.9-2.13,4.89-2.27,6.19-.63,2.19,2.76,4.49,1.54,6.06.47,2.14-1.46.48-3.41-.9-4.71-1.79-1.7-4.32-3-3.89-6,4,1.23,6.06-.78,8-2.9a3.22,3.22,0,0,1,4.26-.77c1.56.92.4,2-.37,2.93-1.32,1.66-2.76,2.56.29,5,4.43,3.47,2.18,8.81,2.16,13.39,0,.93-1.32.83-2.46.8-5.64-.16-5.61,2.71-6,5.68,3.53.44,2.76-3.75,5.91-2.2a4.5,4.5,0,0,1,2.59,5.52c-1.71,5-2.6,9.92-1,15,.35,1.1.68,2.91-1.6,3.16s-2.67-1.75-2.64-2.7c.09-2.63-5.11-4.89-.41-8,1.74-1.15-1.82-1.74-3-1.92-4.21-.6-8.33-1-9.38-5a1.6,1.6,0,0,0-2.47-.54c-1.08.88-.28,1.81.54,2.56,6.16,5.65,10.18,12.35,15.46,18.43.69.79,2.08,1.57,2.05,2.33-.39,9.62,2.86,19.41-2,28.85-3.49-4.24-4.56-9.9-11.71-12,4.42,3.71,4.33,10,11.67,12,2,5,1.19,10,1,15.11A102.29,102.29,0,0,1,491.69,224Zm-41.59-7.53c.3-4.9-5.6-6.75-8.57-10-4-4.4-8.54-8.51-12.85-12.75-.39,2.69,1.32,4.41,2.76,6.29,4.27,5.57,12,9.16,14.89,15.51-1.93,1.2-3.9,2.36-5.78,3.61-1,.66-1.92,1.77.14,2,5.22.64,1.92,2.72,1.16,4.49,2.76-.2,5.24-.21,7.6-.62,1.93-.32,4.52-.29,5.33-2s-1.51-2.36-3-3.13S450.1,217.72,450.1,216.42Zm13.44-86.95A5.58,5.58,0,0,0,465,131c1.08.63,1.84,0,2.47-.72a6.72,6.72,0,0,1,3.68-2.4c1.81-.36,2.41-1.08,1.51-2.39-.54-.8-.28-2.14-1.81-2.26-3-.23-1,1.5-1.3,2.29-.63,1.45-2.16,1.24-3.53,1.34C464.17,127,463.44,127.74,463.54,129.47Zm-9,52c-.63,4.84,5.5,6.22,8.19,9.44C462.12,186.73,458.42,184.1,454.56,181.45ZM481.85,209c-1.54-3.29-3.53-6.31-8.14-8.28C473.32,205.72,478.6,206.78,481.85,209Zm-12.43-11.61c-1.07-1.88-1.45-4.22-5.72-4.94C465.36,194.89,466.08,196.93,469.42,197.39Zm-37.5,28.85c-1.67.07-2.71.75-2.93,2-.11.62.09,1.4,1.22,1.32a3.44,3.44,0,0,0,3-2.1C433.54,226.81,433,226.29,431.92,226.24Zm43.13-97.3c-.55.4-1.15.63-1.23.94a1.13,1.13,0,0,0,.44,1.15c.86.36,1.49,0,1.5-.75C475.76,129.91,475.38,129.53,475.05,128.94ZM436.16,221l-1.81,1c.31.31.56.8.95.89.77.18,1.65,0,1.6-.78C436.87,221.79,436.43,221.43,436.16,221Z" transform="translate(-356.47 -82.03)"/><path class="cls-1" d="M539.16,168c0,.29,0,.57,0,.86a3,3,0,0,0-2.53,1h0c-1.62.05-2.47.68-2.52,1.93h0l-1.23,1-2.52,2v.91c-4.56,1.22-6,5.08-10,6.81a2.72,2.72,0,0,0-2.47,1l0,0c-1.65,0-2.49.62-2.45,1.9l-.08,0-1.16.89-.09.09a1.66,1.66,0,0,0-1.18,1.94l-1.23.92c-1.68,0-2.56.6-2.54,1.91l0,0-1.21.93-.06,0a2.49,2.49,0,0,0-2.42.93l-.06.08L501.55,195c.05-6.42-.06-12.85.24-19.26.09-1.93,1.89-3.54,4.42-4.27,4.47-1.3,6.71-3.92,7.77-7.31,4,.31,6.49-1.08,9.52-3.29,3.22-2.35,5.46-6,10.56-6.79,1-.16.91-1,.34-1.53-5.54-5.18,4.86-3,5-6,0-.71,6.38-.43,7.52,1,1.4,1.76,0,4.3-2.2,6.34-1.8,1.7-5.9,4-.56,6.35C543.71,163.3,539,164.73,539.16,168Z" transform="translate(-356.47 -82.03)"/><path class="cls-1" d="M492.48,347.16q-.19-28.34-.4-56.67c0-2.12.92-4.62-3.46-5.21-1.85-.24-1.57-1.72-1.58-2.8-.08-8.33-.1-16.65-.18-25,0-1.42.36-2.55,2.54-2.75,2.94,0,2,2.35,3.44,3.33,2.51-.31.82-3.51,3.92-3.36-.09,6,0,12.07-.4,18.09-.1,1.55.08,2.41,1.86,3,0,.67-1.31,1.36.07,2-2.44,10.51-.87,21.09-.83,31.64,0,.38.68.75,1,1.12,0,.27,0,.53.08.79a18.9,18.9,0,0,0-1.35,8c.14,7,.07,14,.09,21-.88.17-2.08.23-1.76,1.2.11.36,1.15.54,1.77.8,0,.61,0,1.23,0,1.85-2.48.16-2.36,1.61-2.48,2.93Z" transform="translate(-356.47 -82.03)"/><path class="cls-1" d="M545.8,197.8c2.1-.74,2.58-2.42,3.67-3.75l3.62-1.17.11.07v3.84h0a7,7,0,0,0-1.23.16c-6,1.84-5.26,8.32-11.82,10.2-.78.22-.94,3.81-5.22,3.76-1.87,0-2.51,2.4-.61,3.39,4.34,2.25,1.7,3.71-.38,5.65-3.09,2.91-7.08,4.27-11.73,4.82-1.9.23-4.81-.31-2.59,2.62.27.36-.38,6.09-5.69,2.43-1.18-.81-3.11-.52-2.74.44,2.08,5.29-4.32,3.71-6.84,5.21h0c-.16-2.46,4-3.24,3.79-5.72l0-.08c4.34-2.2,6.62-5.77,10-8.65l0,0c1.6-.56,2.56-1.44,2.46-2.85l0,0c5.89-1.91,9.51-5.54,12.48-9.65h0c1.64,0,2.4-.76,2.56-1.94l2.45-1.86,2.48-2,0,0,2.48-1.91,0,0,1.24-1h0Z" transform="translate(-356.47 -82.03)"/><path class="cls-1" d="M511.69,189.26l1.23-.93a1.81,1.81,0,0,0,1.18-1.93l.09-.09,1.16-.89.08,0c1.62,0,2.42-.67,2.45-1.9l0,0a2.81,2.81,0,0,0,2.47-1c4-1.73,5.46-5.59,10-6.81,2.18,3.65,1.71,7.11-2.29,9.71-2.81,1.82.6,2.68.45,4.07-1.87.81-3.55-.6-5.37-.23-1,.2-2.51.26-1.92,1.27,2.56,4.37-2.8,4-5.27,5.53a35.28,35.28,0,0,1-14.37,4.82l-1.29-1c1.53-2.29,4.43-4,5-6.68l.06-.08a2.59,2.59,0,0,0,2.42-.93l.06,0,1.21-.93,0,0Z" transform="translate(-356.47 -82.03)"/><path class="cls-1" d="M425.06,238.64c-1.55,2.37-5.46,2.08-7.52,3.87-2.64-3.27-7.62-2.3-11.39-3.52-2.77-.9-4.88-1.13-2.47-3.71.46-.5,1.2-1.34,1-1.66-5.22-7.07,5.31-4.57,7.52-7.11.59-.68,2.64,0,2.58,1.17-.18,3.48,2.53,4.85,6.23,6.13C423.25,234.59,425.68,236.06,425.06,238.64Zm-12.27-5.37c-.35.1-.9.15-1,.34s.22.52.36.79c.35-.11.89-.15,1-.34S412.93,233.54,412.79,233.27Z" transform="translate(-356.47 -82.03)"/><path class="cls-1" d="M514,164.2c-1.06,3.39-3.3,6-7.77,7.31-2.53.73-4.33,2.34-4.42,4.27-.3,6.41-.19,12.84-.24,19.26-.69.92-.94,2.12-3.38,2.57-1.28-9.36,1.2-18.45,2-27.58,2.24-.7,2.64-2.46,3.74-3.82,1.63-.08,2.47-.74,2.5-2l1.29-1.85,1.19-1,.05,0c2.53-1,3.21-2.87,3.81-4.78l1.2-1.9,1.23-1,2.47,0c.35,1.87-1.12,3.55.65,5.75S514,161.71,514,164.2Z" transform="translate(-356.47 -82.03)"/><path class="cls-1" d="M406.36,267.58c1.87.22,4.48-.68,4.88,1.78.18,1.09-.56,2-2,2-2.46,0-4.95,2.41-7.33.07-.52-.51.17-1.53-1.32-1.83-2.55-.51-5.74-.64-7.4-1.9-2.25-1.71,4.41-1.81,2.3-4.37-.93-1.13-.07-2,1.7-2.47s3-.39,4.24.93c1.76,1.9,3.94,3.57,5,5.83-.9.13-2,.1-1.89,1.16,0,.11.25.29.39.29C406.24,269.09,406.2,268.27,406.36,267.58Z" transform="translate(-356.47 -82.03)"/><path class="cls-1" d="M500.34,199.86l1.29,1c-1,11.22-3.47,22.39-2.28,33.7-.41.7-.62,1.83-1.28,2-1.55.43-1.2-.88-1.56-1.48-1.41-2.37.47-4.66.35-7.05a104.54,104.54,0,0,1,1-23.43C498.19,202.79,498.43,201.1,500.34,199.86Z" transform="translate(-356.47 -82.03)"/><path class="cls-1" d="M498.22,275.82c-1.78-.6-2-1.46-1.86-3,.41-6,.31-12.06.4-18.09,0-.95,0-1.91,0-2.86v-2c-.19-5.65-.73-11.42,7.6-14.45h0c-.3,3.89-5.46,6.33-5,10.56.79,8-2.4,16.1.25,24.13C500,272.16,498.79,274,498.22,275.82Z" transform="translate(-356.47 -82.03)"/><path class="cls-1" d="M403.42,342.43c-6.53-3.11-7.4-9.31-2.1-13.17,1.64-1.19,2.9-.63,2.79.87-.22,2.76,2.77,5.59-.19,8.28C402.63,339.59,404.33,340.86,403.42,342.43Z" transform="translate(-356.47 -82.03)"/><path class="cls-1" d="M395.15,196.65c1.79,1.65,5.29-1.36,6,.85.83,2.62-3.9,3.07-4.93,5.81-3.35-3.92-6.52-7.17-2.41-11.25,2.57-2.55,5.79-1.09,9.33-1.37C401.43,194.22,395.16,192.86,395.15,196.65Z" transform="translate(-356.47 -82.03)"/><path class="cls-1" d="M435.15,240.52c-.69,3.79,6.42,2.57,6.52,6,0,1.1,3.11,2,1.25,3.15s-3.85.24-5.12-1.3c-2.77-3.35-9.09-4.27-10.21-8.74h2.52A10.54,10.54,0,0,0,435.15,240.52Z" transform="translate(-356.47 -82.03)"/><path class="cls-1" d="M395.72,207.68c-4,3.15-9,.28-13.08,1.84a1.1,1.1,0,0,1-1.54-1.05c0-.36.64-1,.92-1,4.11.32,6.74-2.34,10.21-2.91C394.23,204.21,394.33,206.78,395.72,207.68Z" transform="translate(-356.47 -82.03)"/><path class="cls-1" d="M435.15,240.52a10.54,10.54,0,0,1-5-.94l-1.29-4.81a5.45,5.45,0,0,0,3.07-1.33,3,3,0,0,1,3.32-.15c1.1.76-.13,1.31-.66,1.9C432.85,237.08,435.1,238.73,435.15,240.52Z" transform="translate(-356.47 -82.03)"/><path class="cls-1" d="M432,382c1.49.19,2.6.39,2.17,1.48a7.15,7.15,0,0,1-5.26,4.63c-2.3.47-2.43-1.93-2.27-2.66C427.13,383.24,430.25,383,432,382Z" transform="translate(-356.47 -82.03)"/><path class="cls-1" d="M420,227.11c4.9.09,6.81,2.48,7.6,5.75C422.82,232.64,421.17,230,420,227.11Z" transform="translate(-356.47 -82.03)"/><path class="cls-1" d="M397.25,209.92c.8.1,1.92.07,1.78.93-.18,1.12-1.58,1.39-2.76,1.53-1,.11-1.45-.58-1.32-1.25C395.13,210.17,396.14,209.94,397.25,209.92Z" transform="translate(-356.47 -82.03)"/><path class="cls-1" d="M390.23,202c-2.37.1-4.15.78-5.07-.81-.16-.26.32-1,.74-1.16C388.13,199.11,388.58,200.8,390.23,202Z" transform="translate(-356.47 -82.03)"/><path class="cls-1" d="M420.91,381.1c.33-1.42-.8-3.05,2-5,.2,2.35,2.1,4.1-2,5Z" transform="translate(-356.47 -82.03)"/><path class="cls-1" d="M420.93,384c1.07-.16,2.16-1.3,3.17-.14.21.25-.41,1.26-1,1.47-1.74.7-2-.37-2.22-1.33Z" transform="translate(-356.47 -82.03)"/><path class="cls-1" d="M420.91,381.1c0,1,0,1.92,0,2.88h0c-1.29-.13-2.49-.37-2.29-1.66.16-1,1.26-1.09,2.27-1.22Z" transform="translate(-356.47 -82.03)"/><path class="cls-1" d="M402.16,347.11c-.35-.11-.89-.17-1-.37s.24-.51.39-.78c.35.12.9.17,1,.37S402.31,346.84,402.16,347.11Z" transform="translate(-356.47 -82.03)"/><path class="cls-1" d="M496.74,249.91v2c-.82-.1-1.8-.17-1.8-1S495.93,250,496.74,249.91Z" transform="translate(-356.47 -82.03)"/><path class="cls-1" d="M384.75,350.69c.14-.27.29-.53.44-.8.35.11.89.17,1,.36s-.24.52-.39.79Z" transform="translate(-356.47 -82.03)"/><path class="cls-1" d="M440,136.29c.16,0,.44.08.44.12s-.1.28-.16.41c-.15,0-.43-.08-.44-.12A1.16,1.16,0,0,1,440,136.29Z" transform="translate(-356.47 -82.03)"/><path class="cls-1" d="M631.59,252.33c0,.32,0,.64,0,1-7.33.17-5.54,7.64-12,8.46,2.31,4.07,7.35,1.83,10.76,3.08v2.88c-3.53-2.1-7.53-.71-11.32-.9-.91-1.13-2.4-.92-3.78-.95l-.52-.22.52.22a1.9,1.9,0,0,0,1.28,1.92c0,1.25-.87,1.9-2.51,1.94-4,1-2,1.92,0,2.88l1.27,1-3.78,1c-.19-1-.49-1.91-2.16-1.69-.38,0-1,.68-.94.87.58,1.12,2,.71,3.11.82l-2.5,3.86-2.51,0c-1.77-1.61-4.17-.72-6.29-.94a5.58,5.58,0,0,0-1.31-3.89l.09-1.84,1.2-1c2.27-1.24,4.63-2.43,5.08-4.8l.45-.5-.64.36c-3.48.53-5.08,2.19-5,4.87l-1.28.93c-2.35.18-3.63,1.13-3.66,3h0c-2.46,0-3.7,1-3.76,2.9h0c-4.94,1.58-9.14,3.8-11.33,7.74-1.79,1-1,2.52-1.19,3.85h-2.5c-9.45,1.42-13.76,7.34-18.82,12.59h0q-6.63,1.71-8.78,6.78h0a2.78,2.78,0,0,0-2.53,1h0c-6,2.1-11.76,4.33-13.79,9.69h0c-8.05,2.33-12.52,7.88-18.49,12.07-5,3.48-7.37,8.82-13.83,11.24a89.41,89.41,0,0,1-.26-10.08c.66-8.07-3.48-16.8,5.79-23.72,1.51.31,2.28,3.69,4.66,2.05,3.39-2.33,8-2.56,11.36-5,4.74-3.4,11.59-4.68,16.07-8.55,2.42-2.09,4.52-4.55,9-4.47,1.26,0,3.46-.9,2.82-2.07-1.83-3.35,1.84-3.61,4-4.85,2.77-1.6,6.11-3.12,6.94-5.74.44-1.43-.32-2.29,2.42-1.91,2.49.36,1.69-1.14,1.49-2.23-.74-4.23,6.76-13.47,12.14-14.66,3.06-.67,4.94-1.38,3.55-4.24-.66-1.36.1-2,2.62-2.12,3.57-.13,7.86-3.59,7.57-4.47-2.32-7.2,2.87-6.56,8.86-5.68.89.13,2.16.18,2.52-.79,0-1.78-4.91-1.57-3.16-2.25,3.21-1.25-.56-7.6,6.68-5.09.08,0,.75-.53.67-.68-2.31-4.58,3.23-3.31,5.8-4.06-.86-1.8-2.48-2.55-4-3.41-1.75-1-2.14-2.38.22-2.74,4-.61,3.61-3.09,4.52-5.07,9,1.92,9.46,2.87,2.77,8.13-3.36,2.65,1.06,3.19,1.77,4.54-1.71,1.59-3.84,0-6.16,1.19,5.66,2.4.2,8.15,6.19,10.64a1.11,1.11,0,0,1-.4,2c-7.92,1.23-5.16,5.35-4.35,9,.19.88-1.21,1.8.21,2.69,5-.79,6.08-4.44,8.63-7,1.51-1.5,2.38-3.4,4.57-.32C627,253.12,629.61,252.08,631.59,252.33Zm-55,32.2a1.88,1.88,0,0,0-.52.14c-.05,0,.07.22.12.34a2.09,2.09,0,0,0,.52-.13S576.66,284.65,576.62,284.53Z" transform="translate(-356.47 -82.03)"/><path class="cls-1" d="M504.11,397.16c-.76-4,1.09-7.74,1.14-11.64l1.34-1.87c6.31-5.07,12.66-10.11,18.91-15.22.62-.51.67-1.43,1-2.15l.08-.06c2.52-.84,6.56-.23,6.19-3.81l.09-.07c4.92-.35,7.19-3.82,10.15-5.92,4-2.83,9.76-4.78,11.08-9.5l.06,0c4.35.08,6.59-1.75,7.47-4.81l0,0c1.84.06,3.67.11,3.72-1.9l0,0c3.29-.13,5.19-1.58,6.22-3.85l0,0c1.69,0,2.51-.61,2.47-1.9l.05,0c2.46-.19,5.83.52,5-2.94,0-.61,0-1.22,0-1.83l2.5-1,1.28,1c-.09,1.43,1.35,2.28,2.17,3.37,1.28,1.69,2.29,3.06-1.82,3.47-3.66.36-7.89,6-7.26,9.08.32,1.58-.86,1.89-2.28,2.31-2.28.68-4.51,1.46-6.79,2.14-1.24.37-2.64.93-2.15,2,2.64,5.58-2.17,8.55-7.38,9.87-9.23,2.33-16,6.17-19.58,13.11a3.61,3.61,0,0,1-2,1.69c-6.73,1.61-10.63,5.75-14.84,9.58-2.94,2.68-7,3.23-11.23,3.65C513,393.18,510.73,396,504.11,397.16Z" transform="translate(-356.47 -82.03)"/><path class="cls-1" d="M622,321.66c-2.84,3.38-4,8.34-11.79,6.95-1.09-.2-2.26.87-1.25,1.5,6.75,4.2-1.33,7.26-1.34,10.92,0,1-2.31,2,.42,3,2.15.83.16,1.11-.69,1.73-3.7,2.7-8.54,4.64-10.31,8.68h0l-1.22.95,0,0c-2.2-.17-3.28,1.38-5,1.92-.29-4.63-3.64-8.74-2.9-13.72.65-4.38.91-7.18,8.11-4.08-1-3.32-7.59-2.52-6-6.78.51-1.35.14-2.42,2.4-2.35,4.07.14,5.71-1,2.51-5,4.33,1.37,7.81,2.56,7.09-1.79-.23-1.39,1.36-2.32,2.8-1.87C610.57,323.63,616.21,320.69,622,321.66Z" transform="translate(-356.47 -82.03)"/><path class="cls-1" d="M502.8,379.89c-2.75-8.6-.77-17.3-1.55-26.72a14,14,0,0,1,1.24,1.51c.8,1.8-1.59,4.94,1.82,5.32,3.58.4,3-2.65,3.51-4.63s2.86-1.34,4.6-1.57,4.8.84,4.85-1.67c0-2.14-2.59-2.08-4.68-2.22a23.94,23.94,0,0,1-3.17-.86c5.42-1.8,10.61.19,14.51-2-.49,3.56-2.33,7.07-.54,10.7.45.93-.44,1.28-1.25,1.84-3.43,2.36-1.33,3.28,1.89,3.81-4.59,3.7-9.06,7.49-13.83,11C507.75,376.27,507.1,379.55,502.8,379.89Z" transform="translate(-356.47 -82.03)"/><path class="cls-1" d="M502.8,379.89c4.3-.34,4.95-3.62,7.4-5.45,4.77-3.55,9.24-7.34,13.83-11a10.44,10.44,0,0,1,5-1l.11.09c-.74,1.29-2.77,2.06-2.57,3.73l-.08.06c-8.8,4.33-15.89,9.82-19.89,17.37l-1.34,1.87c-1.13.28-1.31,1.89-2.78,1.44s-.82-1.59-.66-2.47C502.11,383,502.47,381.42,502.8,379.89Z" transform="translate(-356.47 -82.03)"/><path class="cls-1" d="M579,289.1c.16-1.33-.6-2.82,1.19-3.85,1.31,1.33,2.35.55,3.44-.24,1.57-1.13,2.73-2.77,5.35-2.7l.55.22-.52-.24,2.51-4.78h0c2.4-.1,3.59-1.12,3.76-2.9h0l3.74-1a5.58,5.58,0,0,1,1.31,3.89h0c-5.92-.49-6.36,2.49-6.28,5.8Z" transform="translate(-356.47 -82.03)"/><path class="cls-1" d="M581.71,328.54l-2.5,1c-1.17-2.48,1.43-4.53,3.12-5,5.31-1.62,8.7-4.66,12.22-7.75.94-.82,2.17-.78,3.56-.59.34,2-3.07,2.68-2.61,4.59-1.56.76-3.74,1-3.77,2.95h0C587.56,324.3,585.09,327,581.71,328.54Z" transform="translate(-356.47 -82.03)"/><path class="cls-1" d="M535.59,388.43c1.5-.07,2.37-.65,2.5-1.83a12.1,12.1,0,0,1,1.21-.14l3.72-1,0,0c.24,1.36.47,2.73.77,4.47-4.08-.78-6.92.71-10.06,2.29-3.48,1.74-5.8,5.2-10.89,4.84,1-1.73,4-2.51,3.87-4.78l0,0c1.85.05,3.62,0,3.74-1.92v0a2.64,2.64,0,0,0,2.49-1h0Z" transform="translate(-356.47 -82.03)"/><path class="cls-1" d="M529,362.4c4.72-6.43,11.92-10.85,20.07-14.51l.11.09c-.37,2.34-3,3.28-4.86,4.73-4,3.1-9.68,5-11.5,9.63l-.09.07-3.62.08Z" transform="translate(-356.47 -82.03)"/><path class="cls-1" d="M588.23,365.11h-2.5c-6.15,1.83-11,5.63-17.56,6.81l0-1,3.77-2.9,13.8-4.88C587.33,363.2,588.19,363.84,588.23,365.11Z" transform="translate(-356.47 -82.03)"/><path class="cls-1" d="M526.74,392.3c.14,2.27-2.86,3.05-3.87,4.78l-1.18.89a29.64,29.64,0,0,0-7.46,4.92l0,0h-1.26C515,397.46,521,395,526.74,392.3Z" transform="translate(-356.47 -82.03)"/><path class="cls-1" d="M585.69,363.16,571.89,368c-1.57-2.92,2.42-3.42,4-4.09,3.33-1.4,7.34-1.87,11.07-2.72l0,0Z" transform="translate(-356.47 -82.03)"/><path class="cls-1" d="M632.55,307.64c-6.1-7,4.47-8.83,4.32-13.32C639.14,299.35,631.33,301.84,632.55,307.64Z" transform="translate(-356.47 -82.03)"/><path class="cls-1" d="M594,283.27c-.08-3.31.36-6.29,6.28-5.8-1.34,2.4,1,6.39-5,6.74l-1.27-.95Z" transform="translate(-356.47 -82.03)"/><path class="cls-1" d="M565.43,338.28c1-5,3.4-6.42,11.3-6.83l-2.54,2.85-.05,0c-1.61,0-2.47.64-2.47,1.9l0,0C569,335.84,567.37,337.37,565.43,338.28Z" transform="translate(-356.47 -82.03)"/><path class="cls-1" d="M543,385.45c2.59-3.41,8.08-4,11.31-6.76h0c-.76,5.18-5.86,6.14-11.28,6.79Z" transform="translate(-356.47 -82.03)"/><path class="cls-1" d="M609.3,308.25l2.5-.05c-1.73,3.67-4.4,6.52-10.07,6.76q1.9-1.9,3.8-3.83h0a7.34,7.34,0,0,0,3.77-2.9Z" transform="translate(-356.47 -82.03)"/><path class="cls-1" d="M581.71,328.54c3.38-1.58,5.85-4.24,10-4.86l-1.26,2.88-1.24,1c-2,.91-3.61,2.35-6.25,2Z" transform="translate(-356.47 -82.03)"/><path class="cls-1" d="M549.09,347.89c1.86-3.43,4.77-5.81,10-5.79h0l-5,4.77-.06,0L549.2,348Z" transform="translate(-356.47 -82.03)"/><path class="cls-1" d="M590.7,357.38c1.74-.54,2.82-2.09,5-1.92-1,3.66-5.07,4.54-8.76,5.8l0,0C587,359.29,588.69,358.23,590.7,357.38Z" transform="translate(-356.47 -82.03)"/><path class="cls-1" d="M565.43,338.28c1.94-.91,3.53-2.44,6.21-2-1,2.27-2.93,3.72-6.22,3.85Z" transform="translate(-356.47 -82.03)"/><path class="cls-1" d="M568.12,370.94c0,.33,0,.65,0,1l-2.54,2.88h-2.51C563.47,372.52,565.16,371.25,568.12,370.94Z" transform="translate(-356.47 -82.03)"/><path class="cls-1" d="M605.53,311.13q-1.89,1.92-3.8,3.83C599,311.36,602.38,311.32,605.53,311.13Z" transform="translate(-356.47 -82.03)"/><path class="cls-1" d="M574.19,334.3l2.54-2.85,2.44-.09C580,334.82,576.65,334.11,574.19,334.3Z" transform="translate(-356.47 -82.03)"/><path class="cls-1" d="M559.14,342.1c.54-1.45.44-3.63,3.76-2l-1.25,1.9,0,0-2.45,0Z" transform="translate(-356.47 -82.03)"/><path class="cls-1" d="M609.3,308.24a7.34,7.34,0,0,1-3.77,2.9Q605.07,307.92,609.3,308.24Z" transform="translate(-356.47 -82.03)"/><path class="cls-1" d="M512.93,402.92h1.26c0,1.39,0,2.76-2.48,2.89l-.06,0C511.74,404.73,511.45,403.6,512.93,402.92Z" transform="translate(-356.47 -82.03)"/><path class="cls-1" d="M591.73,323.68c0-1.9,2.21-2.19,3.77-2.95C595.44,322.61,594.18,323.58,591.73,323.68Z" transform="translate(-356.47 -82.03)"/><path class="cls-1" d="M530.51,390.36c-.12,1.93-1.89,2-3.74,1.92C526.81,390.27,528.66,390.32,530.51,390.36Z" transform="translate(-356.47 -82.03)"/><path class="cls-1" d="M561.65,342.05l1.25-1.9h2.47C565.32,342.16,563.49,342.11,561.65,342.05Z" transform="translate(-356.47 -82.03)"/><path class="cls-1" d="M559.33,376.73c.13-2,1.95-1.94,3.79-1.92h0a4,4,0,0,1-3.76,1.94Z" transform="translate(-356.47 -82.03)"/><path class="cls-1" d="M535.59,388.43l-2.56.95C533.24,388.05,533.59,386.93,535.59,388.43Z" transform="translate(-356.47 -82.03)"/><path class="cls-1" d="M627.67,304.07c-.15.27-.22.68-.47.76s-.67-.19-1-.3c.15-.27.22-.68.47-.76S627.32,304,627.67,304.07Z" transform="translate(-356.47 -82.03)"/><path class="cls-1" d="M589.24,327.53l1.24-1c.71.35,1.33.84.61,1.41S589.7,328.08,589.24,327.53Z" transform="translate(-356.47 -82.03)"/><path class="cls-1" d="M554.33,378.69a2.9,2.9,0,0,1,2.49-1l0,0a2.84,2.84,0,0,1-2.51,1Z" transform="translate(-356.47 -82.03)"/><path class="cls-1" d="M556.82,377.7a2.91,2.91,0,0,1,2.51-1l0,0a2.86,2.86,0,0,1-2.51,1Z" transform="translate(-356.47 -82.03)"/><path class="cls-1" d="M533,389.38a2.64,2.64,0,0,1-2.49,1A2.62,2.62,0,0,1,533,389.38Z" transform="translate(-356.47 -82.03)"/><path class="cls-1" d="M539.3,386.46a12.1,12.1,0,0,0-1.21.14C538.35,385.81,538.75,385.76,539.3,386.46Z" transform="translate(-356.47 -82.03)"/><path class="cls-1" d="M594,283.26l1.27.95Z" transform="translate(-356.47 -82.03)"/><path class="cls-1" d="M510.42,406.73l1.23-1,.06,0-1.25,1Z" transform="translate(-356.47 -82.03)"/><path class="cls-1" d="M499.56,270.15c-2.65-8,.54-16.1-.25-24.13-.42-4.23,4.74-6.67,5-10.56,2.52-1.5,8.92.08,6.84-5.21-.37-1,1.56-1.25,2.74-.44,5.31,3.66,6-2.07,5.69-2.43-2.22-2.93.69-2.39,2.59-2.62,4.65-.55,8.64-1.91,11.73-4.82,2.08-1.94,4.72-3.4.38-5.65-1.9-1-1.26-3.41.61-3.39,4.28,0,4.44-3.54,5.22-3.76,6.56-1.88,5.82-8.36,11.82-10.2a7,7,0,0,1,1.23-.16l.53.22-.53-.21V193c3.28.25,5.19-3.62,9.18-1.73.53.25.91-1.25.77-2-.28-1.37-.79-2.71-1.21-4.07,0-.31,0-.63,0-.94,1.59-.2,3.19-.4,1.25-1.94-3.47-5.22-2.27-6.89,6-8,2.85-.38,3.66-2.34,4.42-3.7,2.28-4.14,5.06-5.44,10-2.28a17.86,17.86,0,0,0,3.41,1.1c-3.31,1.37-8.21,2.42-7.68,4.2,1.73,5.89-8,9.81-3.87,16,.88,1.31-1.26,3.34-4,4.24-3.76,1.22-6.83,3.2-5.68,7,.6,1.93-1.05,1.74-2.76,2.09-2,.42-4.23,1.87-2.85,3.52s2.87-.29,3.84-1.05c2.45-1.94,4,1.07,6.13.51,2.17-1.9-1.86-3-1.1-4.72,9.46.8,10.5,2,7,8h0a1.81,1.81,0,0,0-1.25,1.92h0c-1.66,0-2.5.69-2.51,2h0c-2.43.09-3.7,1-3.76,2.91h0c-2.6.06-2.53,1.49-2.51,2.89h0c-1.67,0-2.53.65-2.51,1.94h0c-3.69.39-5.19,2.09-5,4.83h0c-1.69,0-2.52.65-2.51,1.94h0l-1.26,1h0c-3.19.77-6.46,1.49-6.25,4.83l0,0c-4.18,1.14-7.44,2.89-7.47,6.73l-.07.05-1.21,1.06c-1.06,3.78-6,4.93-8.75,7.61-.41-.65-.83-.79-1.25,0l0,0c-3,.25-4.69,1.49-5,3.82l-.07.05c-2.42,0-3.68,1-3.68,2.84l-.08.08a1.55,1.55,0,0,0-1.21,1.87l0,0c-1.05,0-2,.11-2.45.95l-.09.05-1.16.9-.08.07a1.55,1.55,0,0,0-1.19,1.86l-.06.06-1.18.91-.08.06c-1.73-.08-2.51.57-2.43,1.87l-.06.06c-3,.22-5.4,1.22-6.62,3.45A4.33,4.33,0,0,1,499.56,270.15Zm66.1-92.67-.93,1,.47.24.48-1.25c.91-.13,2-.12,1.89-1.17,0-.11-.25-.29-.4-.3C565.79,176,565.82,176.79,565.66,177.48Z" transform="translate(-356.47 -82.03)"/><path class="cls-1" d="M530.4,174.75l2.52-2,1.23-1h0c1.67,0,2.5-.66,2.52-1.93h2.54c1.62.81,7.66-.2,2.17,3.5-1.78,1.2,2.94.93,2.09,2.75a17.72,17.72,0,0,0-3.87,1c-3,1.53-5.16,2-6-1.53C533.35,174.38,531.57,174.86,530.4,174.75Z" transform="translate(-356.47 -82.03)"/><path class="cls-1" d="M539.16,168c-.15-3.27,4.55-4.7,5-7.73h0c1.63,0,2.44-.71,2.55-1.93l4.94-3.42c.52,2.45-2.49,5.72-2.44,6.72.16,3.74-6,3.27-6.29,6.32h0Z" transform="translate(-356.47 -82.03)"/><path class="cls-1" d="M561.94,185.19c.42,1.36.93,2.7,1.21,4.07.14.71-.24,2.21-.77,2-4-1.89-5.9,2-9.18,1.73l-.11-.07,2.53-3.78C556.78,186.9,555.87,182.74,561.94,185.19Z" transform="translate(-356.47 -82.03)"/><path class="cls-1" d="M517.68,153.6c-1.67-5.38-1-6.14,6.25-6.78C527.67,152.22,523.52,153.37,517.68,153.6Z" transform="translate(-356.47 -82.03)"/><path class="cls-1" d="M533.15,208.44c-3,4.11-6.59,7.74-12.48,9.65C523.22,213.65,527.41,210.46,533.15,208.44Z" transform="translate(-356.47 -82.03)"/><path class="cls-1" d="M518.11,221c-3.34,2.88-5.62,6.45-10,8.65C509.67,225.57,511.69,221.81,518.11,221Z" transform="translate(-356.47 -82.03)"/><path class="cls-1" d="M582.17,207.27c-1.59,2.6-3.18,5.2-7.42,5.84l-.21-.16c.06-.6.11-1.21.16-1.81h0a1.87,1.87,0,0,0,1.25-1.92h0Z" transform="translate(-356.47 -82.03)"/><path class="cls-1" d="M555.62,189.1l-2.53,3.78-3.62,1.17C551,192,551,188.85,555.62,189.1Z" transform="translate(-356.47 -82.03)"/><path class="cls-1" d="M586,202.4c0,2.17.55,4.6-3.74,4.83C582.43,205.16,584.36,203.86,586,202.4Z" transform="translate(-356.47 -82.03)"/><path class="cls-1" d="M581.66,188.43c0,1-.65,1.38-1.56,1.35s-1.51-.5-1.56-1.19a1.11,1.11,0,0,1,1.43-1.14A5.15,5.15,0,0,1,581.66,188.43Z" transform="translate(-356.47 -82.03)"/><path class="cls-1" d="M520.62,218.13c.1,1.41-.86,2.29-2.46,2.85C518.06,219.56,518,218.16,520.62,218.13Z" transform="translate(-356.47 -82.03)"/><path class="cls-1" d="M601,188.93c-.17.69-.15,1.51-1.53,1.44-.15,0-.39-.18-.4-.29-.1-1.06,1-1.05,1.89-1.18Z" transform="translate(-356.47 -82.03)"/><path class="cls-1" d="M535.73,206.49c-.16,1.18-.92,1.9-2.56,1.94C533.14,207.1,534.05,206.5,535.73,206.49Z" transform="translate(-356.47 -82.03)"/><path class="cls-1" d="M601,188.9c.17-.7.14-1.52,1.52-1.45.15,0,.39.18.4.3.1,1.05-1,1-1.88,1.18Z" transform="translate(-356.47 -82.03)"/><path class="cls-1" d="M546.74,158.33c-.11,1.22-.92,1.89-2.55,1.93C544.19,159,545.06,158.33,546.74,158.33Z" transform="translate(-356.47 -82.03)"/><path class="cls-1" d="M540.66,202.64l-2.48,2C538.14,203.33,538.91,202.63,540.66,202.64Z" transform="translate(-356.47 -82.03)"/><path class="cls-1" d="M543.17,200.7l-2.48,1.91C540.66,201.33,541.5,200.7,543.17,200.7Z" transform="translate(-356.47 -82.03)"/><path class="cls-1" d="M563.18,182.31c1.94,1.54.34,1.74-1.25,1.94C562.34,183.6,562.76,183,563.18,182.31Z" transform="translate(-356.47 -82.03)"/><path class="cls-1" d="M539.2,169.88h-2.55a3,3,0,0,1,2.53-1C539.19,169.2,539.2,169.54,539.2,169.88Z" transform="translate(-356.47 -82.03)"/><path class="cls-1" d="M558.46,182.16c.16,0,.42-.13.46-.09a1,1,0,0,1,.18.4,1.65,1.65,0,0,1-.46.1A1.17,1.17,0,0,1,558.46,182.16Z" transform="translate(-356.47 -82.03)"/><path class="cls-1" d="M545.8,197.8l-1.37,1.92A1.74,1.74,0,0,1,545.8,197.8Z" transform="translate(-356.47 -82.03)"/><path class="cls-1" d="M544.43,199.71l-1.24,1Z" transform="translate(-356.47 -82.03)"/><path class="cls-1" d="M543,168l.53.22-.53-.23Z" transform="translate(-356.47 -82.03)"/><path class="cls-1" d="M494.87,347.14c.12-1.32,0-2.77,2.48-2.93.2,1.07-.09,2.28,1.46,3V349q0,15.94-.05,31.88l-3.44-.07,0-1.91c1.45-1,1.41-1.91,0-2.85l-.9-1c-.14.07-.37.12-.41.22-1.38,3.79-2.46,7.59,0,11.39-1,3.53-2.19,7.24-1,10.68,1.12,3.17-1.6,6.82,2.26,9.52.47,5.72.95,11.44,1.4,17.16.09,1.1.28,2.25-1.15,3-4.57-1-2,1.53-2,2.57s1.58,2.48-.61,2.71c-1.83.19-4.69-.08-4.78-2.18-.24-6-3.76-10.26-10.3-13.31a1.57,1.57,0,0,1-1-2.11,1.35,1.35,0,0,1,2-.47c7.21,4.46,5.73-.76,6.55-3.42.18-.59.08-1.31,1.92-1.39,1.14,2.63.34,5.47.57,8.21.15,1.7.42,3.58,3.2,3.38s1.53-2.23,1.86-3.54c1-3.8-3.73-7-1.84-11,.19-.4-1.71-2-2.36-1.93-7.26,1.05-5.93-2.47-4.92-5.48-2.86-1.17-1.95,2.25-3.89,1.45-1.6-.66-.3-2.05-.59-3-1.06-3.41-5.77-3.57-8.87-4.79-4.11-1.61-7.67-2.31-7.36-6.93.17-2.54-2.66-5.2-4.48-8.39,4.49.23,6,4.41,10.15,3.54.33,1.45.68,2.93,3.36,2.34.47-.11,1.13-.73,1.06-1-.48-2.23-2.88-.95-4.41-1.32.57-2.71,2.65-1.63,4.67-1.2s2.56,1,2.09,2.7c-.75,2.72-1.61,6,4.54,2.7,2-1.08,3.7.81,4.75,2.23.8,1.09-.24,2.62,1.36,3.54,2.91-4.48,1.92-20.9-1.39-23-1.1.74-.15,1.45,0,2.17.22.94.64,2.17-.71,2.56a2.29,2.29,0,0,1-3-1.84c-.45-2.36-3.81-4.15-2.29-6.85.42-.76.21-1.34-.89-1.22-8.35,1-8-6.89-14.48-8.33-2.63-.59,2.55-1.91,1.7-4-2.72.52-5.45,1.12-8.23,1.54-3.61.55-7,.16-7.91-3-.68-2.48-2.8-2.15-5.05-2.06,0-2.38,2.72-2.83,4.19-4,1.11-.85,3.29-1,2.25-2.77a3.9,3.9,0,0,0-4.27-1.4c-4.78,1.15-7.9-.8-11.45-3.18,3.37-1.15,5.79.85,8.57.84-1.28-4.35,3.86-4.37,8-7.23-3.39,7.23,1.1,10,7.26,12.07,2.62.88,2.68,3.39,4.85,4.82,2.9,1.92,4.65,3.39,6.65-.45.85-1.62,2.89-2.46,6.52-3.11-4.3,3.82-1.92,5.86,1.79,7.32s2.16,3.22.58,5c7.18,1.09,8.15,6.08,11.22,9.67-.1,3.22-.54,6.58,5,7.6,1.72-.91,1.5-1.85.09-2.81,0-1.28,0-2.57,0-3.85,1.18-.65,1.18-1.29,0-1.94Q495,355.32,494.87,347.14Z" transform="translate(-356.47 -82.03)"/><path class="cls-1" d="M569.44,383.44c2.39,3.23,7.07,2.27,10.79,3.07-.28,2.25-2.7,2.53-4.11,3.49-1,.71-3.14,1.21-1.93,2.42s3,.66,4.19-.53a3.75,3.75,0,0,1,3.38-1.34c-.38,3.62-4.69,5-7.15,6.85a20.52,20.52,0,0,1-6.6,3.33c-4.33,1.17-4.37,3.3-2.12,5.88-2.74,4.65-8.8,6.69-13.52,9.67-14.23,9-25.66,20-38.55,29.91a38.74,38.74,0,0,1-3.12,2.37,4.92,4.92,0,0,1-2.6,1c-1.27-.11-1.14-1.2-1.1-2,.35-6.23-2.26-12.34-1.32-18.59,9.61-3.32,16.06-8.91,20-16.28,1.07-2,2.86-2.81,5.38-2.63,1.12,1.66-2.81,2.45-.41,4.05a9.27,9.27,0,0,0,1.62-.64c.8-.52,1.37-1.34,2.26-1.65,5.36-1.89,5-10.43,14.66-7.42.37.12,1.46-1,2.12-1.56a9.52,9.52,0,0,0,3.18-6.09C555.62,388.86,561.34,383.92,569.44,383.44Zm-22.46,27c.91-.13,2-.11,1.89-1.17,0-.11-.25-.29-.39-.29-1.38-.06-1.35.76-1.51,1.45-4.24.23-7.77,1.21-8.78,4.85-4.06.72-8.12,1.44-10,5.55,4.87-.82,10.06-.3,10-5.55C542,414.62,545.27,413.39,547,410.48Zm-21.32,11.63.28-.42-.3.4c-3.94,0-5.61,2.49-9.25,4.18C522.51,427.43,524.36,425.09,525.66,422.11Z" transform="translate(-356.47 -82.03)"/><path class="cls-1" d="M569.44,383.44c-8.1.48-13.82,5.42-14.91,13.31a9.52,9.52,0,0,1-3.18,6.09c-.66.6-1.75,1.68-2.12,1.56-9.67-3-9.3,5.53-14.66,7.42-.89.31-1.46,1.13-2.26,1.65a9.27,9.27,0,0,1-1.62.64c-2.4-1.6,1.53-2.39.41-4.05-2.52-.18-4.31.67-5.38,2.63-4,7.37-10.43,13-20,16.28-2.45-6.78-2.57-13,6-17.69,2.63-1.44-2-2.78-1.25-4.51l1.25-1c2.51-.13,2.52-1.5,2.48-2.89l0,0c2.59-.62,4.24,1.58,7.78,1.39-2.64-2.28-.55-4.23-.32-6.31l1.18-.89c5.09.36,7.41-3.1,10.89-4.84,3.14-1.58,6-3.07,10.06-2.29-.3-1.74-.53-3.11-.77-4.47,5.42-.65,10.52-1.61,11.28-6.79a91078143715495.88,91078143715495.88,0,0,0,5-1.94,4,4,0,0,0,3.76-1.94h2.52c3.57.43,5.81,2.65,8.84,3.81,1.63,1.73.38,2.06-1.32,1.23-6.11-3-4.32.26-3.7,2.64C569.45,382.8,569.44,383.12,569.44,383.44Z" transform="translate(-356.47 -82.03)"/><path class="cls-1" d="M495.22,406.82c-3.86-2.7-1.14-6.35-2.26-9.52-1.21-3.44,0-7.15,1-10.68,2.34-1.68.73-3.91,1.39-5.83l3.44.07c0,.62,0,1.23,0,1.85-4,.93-1.57,3.13-1.64,4.84l1.7-1.83c2.74,11.1.22,22.45,2.7,33.56-3.92-2-3.68-5-3.67-8s0-6-.05-9.44A6.12,6.12,0,0,0,495.22,406.82Z" transform="translate(-356.47 -82.03)"/><path class="cls-1" d="M498.82,349c0-.6,0-1.2,0-1.8,1.92-1.33.95-3.18,1.46-4.76,6.46-2.42,8.86-7.76,13.83-11.24,6-4.19,10.44-9.74,18.49-12.07-1.58,4.12-6.4,6.19-10,8.93-8,6-16.78,11.47-20.39,20.09C501.72,349.17,500.07,349,498.82,349Z" transform="translate(-356.47 -82.03)"/><path class="cls-1" d="M557.64,301.69c5.06-5.25,9.37-11.17,18.82-12.59-.34,1.31.54,2.42-2.51,3.37-4.2,1.32-7.48,4.45-11,7A10.2,10.2,0,0,1,557.64,301.69Z" transform="translate(-356.47 -82.03)"/><path class="cls-1" d="M532.58,319.11c2-5.36,7.83-7.59,13.79-9.69A22,22,0,0,1,532.58,319.11Z" transform="translate(-356.47 -82.03)"/><path class="cls-1" d="M548.87,308.46q2.14-5.07,8.78-6.78C556.12,305,553.14,307.23,548.87,308.46Z" transform="translate(-356.47 -82.03)"/><path class="cls-1" d="M504.12,439.46c-3.55-4.16-2-8.83-2.32-13.31C503.33,430.51,504.47,434.91,504.12,439.46Z" transform="translate(-356.47 -82.03)"/><path class="cls-1" d="M498.85,385.72l-1.7,1.83c.07-1.71-2.36-3.91,1.64-4.84Z" transform="translate(-356.47 -82.03)"/><path class="cls-1" d="M501.67,426c-.82.15-1.95.94-2.25-.29s1-1.48,2.22-1.62Z" transform="translate(-356.47 -82.03)"/><path class="cls-1" d="M546.35,309.43a2.78,2.78,0,0,1,2.53-1A2.79,2.79,0,0,1,546.35,309.43Z" transform="translate(-356.47 -82.03)"/><path class="cls-1" d="M588.41,390.11l1.16-.95Z" transform="translate(-356.47 -82.03)"/><path class="cls-1" d="M590.86,388.21q.07.41.12.81l-1.33.08Z" transform="translate(-356.47 -82.03)"/><path class="cls-1" d="M472.79,425.19c.59,4.33,7.39,6,7.61,10.52-5.14-3.23-10.54-6.29-12.66-11.47,1.9-.35,2.85,2.23,5.05.95Z" transform="translate(-356.47 -82.03)"/><path class="cls-1" d="M444.22,397.56c-3.76.7-5.82-1.66-8.49-3C439.49,393.61,441.63,396,444.22,397.56Z" transform="translate(-356.47 -82.03)"/><path class="cls-1" d="M472.79,425.19c-2.2,1.28-3.15-1.3-5.05-.95-2.59-.31-3.25-1.68-1.89-3s2.52.25,3.46.9C470.61,423,472.84,423.37,472.79,425.19Z" transform="translate(-356.47 -82.03)"/><path class="cls-1" d="M423.24,398.09c4.62-1.21,6.14.3,8.08,2.45C427.74,401.07,426.4,399.18,423.24,398.09Z" transform="translate(-356.47 -82.03)"/><path class="cls-1" d="M480.45,435.75c2.31.31,4.64.59,5,2.88C482.8,438.69,480.6,438.27,480.45,435.75Z" transform="translate(-356.47 -82.03)"/><path class="cls-1" d="M437.41,405.12c-.91-.14-2-.12-1.9-1.17,0-.11.25-.29.39-.3,1.38-.08,1.37.74,1.55,1.43Z" transform="translate(-356.47 -82.03)"/><path class="cls-1" d="M460.33,367.74c.16-.27.23-.68.48-.76s.68.19,1,.3c-.15.27-.22.69-.47.76S460.68,367.86,460.33,367.74Z" transform="translate(-356.47 -82.03)"/><path class="cls-1" d="M425.56,369.88c.35.12.89.17,1,.36s-.24.52-.39.79c-.34-.12-.89-.17-1-.36S425.41,370.15,425.56,369.88Z" transform="translate(-356.47 -82.03)"/><path class="cls-1" d="M437.45,405.08l2,.71-.49.57-1.55-1.24Z" transform="translate(-356.47 -82.03)"/><path class="cls-1" d="M485.49,439.55c.85.33.86.67,0,1Z" transform="translate(-356.47 -82.03)"/><path class="cls-1" d="M508.73,131.49c.26-1.85,1.4-3.12,4.15-3.57.71,2.75-1.06,3.6-4.14,3.58Z" transform="translate(-356.47 -82.03)"/><path class="cls-1" d="M512.78,156.55c-.6,1.91-1.28,3.78-3.81,4.78C509.09,159.2,509,157,512.78,156.55Z" transform="translate(-356.47 -82.03)"/><path class="cls-1" d="M506.44,164.22c0,1.25-.87,1.91-2.5,2C503.92,164.92,504.77,164.27,506.44,164.22Z" transform="translate(-356.47 -82.03)"/><path class="cls-1" d="M515.21,153.62l-1.23,1Z" transform="translate(-356.47 -82.03)"/><path class="cls-1" d="M508.92,161.37l-1.19,1Z" transform="translate(-356.47 -82.03)"/><path class="cls-1" d="M500.26,342.42c-.51,1.58.46,3.43-1.46,4.76-1.54-.69-1.25-1.9-1.45-3,0-.62,0-1.24,0-1.85s0-1.34,0-2c0-7,.05-14-.09-21a18.9,18.9,0,0,1,1.35-8c9.45-9,19.56-17.6,30-25.94h0c3.33-.68,5.5-2.23,6.28-4.84h0c4.7-1.54,8.11-4.07,10-7.73h0c2.54-.09,3.83-1.44,5-2.91h0a52.09,52.09,0,0,0,5-3.55c1.18-1.06-.22-1.2-1.26-1.3.18-2.23-1.55-3.86-2.83-5.7-1.39-2-2.66-4.42,2.29-4.88,1.22-.11,2.73-.06,2.38-1.51a2.9,2.9,0,0,0-1.17-1.64c-1.36-.88-2.24.1-3.16.68-1.59,1-4,1.82-4.57,3.11-1.34,2.85-4.07,2.13-6.65,2.31-1.62.11-3.43-1.45-4.67-.14-1.9,2,3.25,1.63,2.49,3.38-3.13,1.59-6.19,3-10.12,2.14.64,3.44,5,1.37,6.63,3.46-4.25,1.95-9,.75-11.65-.77-4.85-2.8-8-1.06-11.81.62,0-.6,0-1.21,0-1.82l.06-.06a3.33,3.33,0,0,0,2.43-1.87l.08-.06,1.18-.91.06-.06a1.58,1.58,0,0,0,1.19-1.86l.08-.07,1.16-.9.09-.05a2.49,2.49,0,0,0,2.45-.95l0,0a1.59,1.59,0,0,0,1.21-1.87l.08-.07c2.38-.08,3.65-1,3.68-2.85l.07-.05c3-.28,4.57-1.59,5-3.82l0,0a5.8,5.8,0,0,0,1.25,0c2.71-2.68,7.69-3.83,8.75-7.62l1.21-1,.07-.05c3.55-1.56,6.17-3.72,7.47-6.73l0,0c3.47-.55,5.45-2.25,6.25-4.83h0l1.26-1h0a4,4,0,0,0,2.51-1.94h0c2.66-1,3.77-3,5-4.83h0l2.51-1.94h0c1.57-.58,2.54-1.48,2.51-2.88h0c2.43-.08,3.56-1.14,3.76-2.91h0l2.35-.14.21.16c-3.26,4.86,1.76,6.61,7.11,9.17-4.61,0-9.23-1.14-7.94,3.71.15.53-2.67,2.88-5.51,1.84-1-.37-2-1.63-3.15-.46s.88,1.83,1.54,2.72c.88,1.2,3.34,2.14,2.39,3.63s-1.56,3.85-5.35,2.77c-1.76-.5-3.68-1.74-6.65-.3,4.39,1.9,7.63,5.34,12.9,1.7a3.9,3.9,0,0,1,4.55.24c5.55,3.6,4.64,0,4.72-2.68,2.88.39,4.18,2,5.55,3.54,0,.3-.07.61-.08.91-9,5.87-15.76,13.31-24.17,19.59-.73.54-.53,1.79-.77,2.71l-2,.7.49.58,1.56-1.27a91.89,91.89,0,0,0,16.71-13.11c2.95-2.89,8.17-4.66,8.45-9l1.12-1,.05,0c3-.26,4.54-1.65,5-3.85h0c1.61-.06,2.48-.68,2.52-1.94h0c1.66-.55,2.54-1.49,2.51-2.9h0c3-.31,4.53-1.68,5-3.87h0c1.63,0,2.44-.71,2.51-1.94h0a7.29,7.29,0,0,0,3.68-2.9c.48-.67,1.54-1.46,1.34-2-1-2.8-.2-4,4-4.15,2.16-.05,2.31-2,2.26-3.48l1.27,0,2.53,0-1.29,2.88c-2.26.75-2.6,2.21-2.49,3.85-1.6.06-2.45.67-2.45,1.92-.91,2-.52,4.46-4.52,5.07-2.36.36-2,1.72-.22,2.74,1.48.86,3.1,1.61,4,3.41-2.57.75-8.11-.52-5.8,4.06.08.15-.59.7-.67.68-7.24-2.51-3.47,3.84-6.68,5.09-1.75.68,3.12.47,3.16,2.25-.36,1-1.63.92-2.52.79-6-.88-11.18-1.52-8.86,5.68.29.88-4,4.34-7.57,4.47-2.52.09-3.28.76-2.62,2.12,1.39,2.86-.49,3.57-3.55,4.24-5.38,1.19-12.88,10.43-12.14,14.66.2,1.09,1,2.59-1.49,2.23-2.74-.38-2,.48-2.42,1.91-.83,2.62-4.17,4.14-6.94,5.74-2.15,1.24-5.82,1.5-4,4.85.64,1.17-1.56,2.1-2.82,2.07-4.46-.08-6.56,2.38-9,4.47-4.48,3.87-11.33,5.15-16.07,8.55-3.37,2.43-8,2.66-11.36,5-2.38,1.64-3.15-1.74-4.66-2.05-9.27,6.92-5.13,15.65-5.79,23.72A89.41,89.41,0,0,0,500.26,342.42Z" transform="translate(-356.47 -82.03)"/><path class="cls-1" d="M601.24,226.46c-.49,2.19-2,3.56-5,3.87C596.62,228.08,597.53,226.21,601.24,226.46Z" transform="translate(-356.47 -82.03)"/><path class="cls-1" d="M591.22,235.16c-.45,2.2-2,3.59-5,3.85C587.37,237.33,587.89,235.18,591.22,235.16Z" transform="translate(-356.47 -82.03)"/><path class="cls-1" d="M607.42,221.62a7.29,7.29,0,0,1-3.68,2.9C603.41,222.4,604.65,221.44,607.42,221.62Z" transform="translate(-356.47 -82.03)"/><path class="cls-1" d="M596.23,230.32c0,1.41-.85,2.35-2.51,2.9C593.67,231.8,593.66,230.42,596.23,230.32Z" transform="translate(-356.47 -82.03)"/><path class="cls-1" d="M593.73,233.22c0,1.26-.91,1.88-2.52,1.94C591.24,233.9,592,233.23,593.73,233.22Z" transform="translate(-356.47 -82.03)"/><path class="cls-1" d="M603.74,224.52c-.07,1.23-.88,1.9-2.51,1.94C601.23,225.18,602.08,224.54,603.74,224.52Z" transform="translate(-356.47 -82.03)"/><path class="cls-1" d="M606.15,210.07l-.28.4.28-.4Z" transform="translate(-356.47 -82.03)"/><path class="cls-1" d="M586.18,239l-1.12,1-.23-.17c0-.3,0-.61.08-.91Z" transform="translate(-356.47 -82.03)"/><path class="cls-1" d="M569.45,382.48c-.62-2.38-2.41-5.6,3.7-2.64,1.7.83,3,.5,1.32-1.23,3-3.74,5.21-8,11.27-9.66.83,3.49-1.49,6.09-4.22,8.53-1.58,1.41-3.14,2.4-2.47,4.85.75,2.76-2.72,2.28-4.65,1.68C572.77,383.5,571.54,382.23,569.45,382.48Z" transform="translate(-356.47 -82.03)"/><path class="cls-1" d="M585.74,369c-6.06,1.65-8.28,5.92-11.27,9.66-3-1.16-5.27-3.38-8.84-3.81l2.54-2.88c6.57-1.18,11.41-5,17.56-6.81C585.73,366.39,585.73,367.67,585.74,369Z" transform="translate(-356.47 -82.03)"/><path class="cls-1" d="M587,361.26c3.69-1.26,7.8-2.14,8.76-5.8l0,0,1.22-.95h0l5,0h0c-.33,2.32-2.46,4.08-2.76,6.59-.53,4.33-5.31.75-7.82,1.72-.91,1.48,1.81,2.07,1.29,3.56-2,.84-3.21-.27-4.5-1.22,0-1.27-.9-1.91-2.54-1.95Z" transform="translate(-356.47 -82.03)"/><path class="cls-1" d="M602,354.45l.29-.4-.28.41Z" transform="translate(-356.47 -82.03)"/><path class="cls-1" d="M611.58,274.53l3.78-1c.91,1.92,2.66,3.41,4.55,5.05-3.74-.77-7.3.45-10.82-.22l2.5-3.86Z" transform="translate(-356.47 -82.03)"/><path class="cls-1" d="M615.31,265.86c1.38,0,2.87-.18,3.78.95a2.88,2.88,0,0,1-2.5,1,1.9,1.9,0,0,1-1.28-1.92Z" transform="translate(-356.47 -82.03)"/><path class="cls-1" d="M614.09,272.6c-2-1-4-1.91,0-2.88C614.09,270.68,614.09,271.64,614.09,272.6Z" transform="translate(-356.47 -82.03)"/><path class="cls-1" d="M618.78,212l-2.53,0c0-1,0-1.94,0-2.9h0c1.5.21,3.52-.63,4.4.81C621.26,210.94,619.83,211.47,618.78,212Z" transform="translate(-356.47 -82.03)"/><path class="cls-1" d="M615,218.68c-.11-1.64.23-3.1,2.49-3.85C619,217,619.62,218.83,615,218.68Z" transform="translate(-356.47 -82.03)"/><path class="cls-1" d="M616.21,209.07c-.91-.12-2-.09-1.91-1.15a.51.51,0,0,1,.39-.3c1.39-.07,1.36.75,1.53,1.45Z" transform="translate(-356.47 -82.03)"/><path class="cls-1" d="M630.41,264.83c-3.41-1.25-8.45,1-10.76-3.08,6.41-.82,4.62-8.29,12-8.46C633.61,257.28,631.4,261,630.41,264.83Z" transform="translate(-356.47 -82.03)"/><path class="cls-1" d="M466.29,298c1,3.59.79,7.41,7.24,6.48.39-.06,1.9,1.84,1.78,2.74-.41,3,.38,4.87,5,3.81.19,2.11-2.19,2.65-2.77,4-.43,1-.49,1.93,1.4,2,5.26.19,8.16,2.39,8.29,6.33a34.75,34.75,0,0,1,0,4.33c-.12,1.34.95,3.37-1.45,3.74-2.21.35-5.76.37-6.87-.64A73.59,73.59,0,0,0,453.41,315c-1-.37-2.43-3.78-4-5.58-2.43-2.77-4-6.69-10.22-5.51-1.48.28-2.1-.74-2.52-1.72a2.88,2.88,0,0,0-2.07-1.63c-1.39-.39-2.87,2.65-3.7.16-.57-1.72,2.3-1.87,3.92-2.46,7.43-2.7,14.47-3.63,20.08,2.46,1.58,1.72,3.59,1.34,5.52.4C462.15,300.3,463.78,299.34,466.29,298Zm-22.05.95c-1.95-.79-3.25-.67-4.16.48-.23.29-.06,1.14.15,1.19C441.84,301,442.92,300.32,444.24,298.93Z" transform="translate(-356.47 -82.03)"/><path class="cls-1" d="M495.12,372.09c-5.58-1-5.14-4.38-5-7.6,3-.36,2.43-2.16,2.44-3.67,0-4.55,0-9.11,0-13.66l2.39,0q.15,8.17.29,16.35c0,.65,0,1.3,0,1.94,0,1.28,0,2.57,0,3.85Z" transform="translate(-356.47 -82.03)"/><path class="cls-1" d="M466,339.66c1.9,0,2.47.88,2.5,2.15,0,1.45-.48,2.54-2.75,2.42-1.95-.1-2.17-1.21-2.18-2.38S464,339.67,466,339.66Z" transform="translate(-356.47 -82.03)"/><path class="cls-1" d="M491.76,435.05a4.46,4.46,0,0,1,.68,1.14c.26.71-.26,1.28-1.2,1.05a2.71,2.71,0,0,1-1.5-1.26C489.45,435.5,490,435.18,491.76,435.05Z" transform="translate(-356.47 -82.03)"/><path class="cls-1" d="M453.91,383.79a5.52,5.52,0,0,1,1.6-.71c.86,0,1.57.34,1.27,1.06-.1.26-1,.48-1.45.46S454.53,384.17,453.91,383.79Z" transform="translate(-356.47 -82.03)"/><path class="cls-1" d="M404,296.46c-.16.69-.11,1.51-1.49,1.46-.15,0-.39-.19-.4-.3-.09-1.06,1-1,1.89-1.16Z" transform="translate(-356.47 -82.03)"/><path class="cls-1" d="M453.89,335c.14-.27.29-.53.44-.8.35.12.89.17,1,.36s-.24.52-.39.78Z" transform="translate(-356.47 -82.03)"/><path class="cls-1" d="M450.1,216.42c0,1.3,0,2.58,1.66,3.42s3.87,1.33,3,3.13-3.4,1.66-5.33,2c-2.36.41-4.84.42-7.6.62.76-1.77,4.06-3.85-1.16-4.49-2.06-.25-1.15-1.36-.14-2,1.88-1.25,3.85-2.41,5.78-3.61Z" transform="translate(-356.47 -82.03)"/><path class="cls-1" d="M450.1,216.42l-3.77-1c-2.85-6.35-10.62-9.94-14.89-15.51-1.44-1.88-3.15-3.6-2.76-6.29,4.31,4.24,8.84,8.35,12.85,12.75C444.5,209.67,450.4,211.52,450.1,216.42Z" transform="translate(-356.47 -82.03)"/><path class="cls-1" d="M494,186.43c-7.34-2-7.25-8.33-11.67-12,7.15,2.11,8.22,7.77,11.71,12Z" transform="translate(-356.47 -82.03)"/><path class="cls-1" d="M463.54,129.47c-.1-1.73.63-2.48,2.43-2.6,1.37-.1,2.9.11,3.53-1.34.34-.79-1.66-2.52,1.3-2.29,1.53.12,1.27,1.46,1.81,2.26.9,1.31.3,2-1.51,2.39a6.72,6.72,0,0,0-3.68,2.4c-.63.68-1.39,1.35-2.47.72A5.58,5.58,0,0,1,463.54,129.47Z" transform="translate(-356.47 -82.03)"/><path class="cls-1" d="M454.56,181.45c3.86,2.65,7.56,5.28,8.19,9.44C460.06,187.67,453.93,186.29,454.56,181.45Z" transform="translate(-356.47 -82.03)"/><path class="cls-1" d="M481.85,209c-3.25-2.22-8.53-3.28-8.14-8.28C478.32,202.69,480.31,205.71,481.85,209Z" transform="translate(-356.47 -82.03)"/><path class="cls-1" d="M452.14,139.4c1.21,0,2.65-.15,3.33.82a2,2,0,0,1-.55,3,2.34,2.34,0,0,1-1.57.43c-1.54-.4-1.07-1.51-1.18-2.39-.07-.63,0-1.26,0-1.89Z" transform="translate(-356.47 -82.03)"/><path class="cls-1" d="M469.42,197.39c-3.34-.46-4.06-2.5-5.72-4.94C468,193.17,468.35,195.51,469.42,197.39Z" transform="translate(-356.47 -82.03)"/><path class="cls-1" d="M431.93,226.24c1,0,1.61.57,1.32,1.23a3.44,3.44,0,0,1-3,2.1c-1.13.08-1.33-.7-1.22-1.32C429.21,227,430.25,226.31,431.93,226.24Z" transform="translate(-356.47 -82.03)"/><path class="cls-1" d="M475.05,128.94c.33.59.71,1,.71,1.34,0,.71-.64,1.11-1.5.75a1.13,1.13,0,0,1-.44-1.15C473.9,129.57,474.5,129.34,475.05,128.94Z" transform="translate(-356.47 -82.03)"/><path class="cls-1" d="M436.16,221c.27.41.71.77.74,1.16.05.83-.83,1-1.6.78-.39-.09-.64-.58-.95-.89Z" transform="translate(-356.47 -82.03)"/><path class="cls-1" d="M400.78,178.09l.52.22-.53-.22Z" transform="translate(-356.47 -82.03)"/><path class="cls-1" d="M517.88,183.47c0,1.23-.83,1.87-2.45,1.9C515.39,184.09,516.23,183.47,517.88,183.47Z" transform="translate(-356.47 -82.03)"/><path class="cls-1" d="M536.66,169.88c0,1.27-.85,1.92-2.52,1.93C534.19,170.56,535,169.93,536.66,169.88Z" transform="translate(-356.47 -82.03)"/><path class="cls-1" d="M511.69,189.26l-2.54,1.91C509.13,189.86,510,189.25,511.69,189.26Z" transform="translate(-356.47 -82.03)"/><path class="cls-1" d="M520.38,182.47a2.81,2.81,0,0,1-2.47,1A2.72,2.72,0,0,1,520.38,182.47Z" transform="translate(-356.47 -82.03)"/><path class="cls-1" d="M507.84,192.17a2.59,2.59,0,0,1-2.42.93A2.49,2.49,0,0,1,507.84,192.17Z" transform="translate(-356.47 -82.03)"/><path class="cls-1" d="M514.1,186.4a1.81,1.81,0,0,1-1.18,1.93A1.66,1.66,0,0,1,514.1,186.4Z" transform="translate(-356.47 -82.03)"/><path class="cls-1" d="M515.35,185.42l-1.16.89Z" transform="translate(-356.47 -82.03)"/><path class="cls-1" d="M534.15,171.82l-1.23,1Z" transform="translate(-356.47 -82.03)"/><path class="cls-1" d="M509.11,191.2l-1.21.93Z" transform="translate(-356.47 -82.03)"/><path class="cls-1" d="M528.59,285.43c-10.45,8.34-20.56,16.92-30,25.94,0-.26-.06-.52-.08-.79.05-1.26.1-2.53.14-3.8a5.07,5.07,0,0,0,3.39-1.94c5.91-6.23,13.19-11.5,20.21-16.95C524,286.51,525.69,285.07,528.59,285.43Z" transform="translate(-356.47 -82.03)"/><path class="cls-1" d="M498.64,306.78c0,1.27-.09,2.54-.14,3.8-.36-.37-1-.74-1-1.12,0-10.55-1.61-21.13.83-31.64l2.44-1C499.79,286.81,498,296.74,498.64,306.78Z" transform="translate(-356.47 -82.03)"/><path class="cls-1" d="M500.73,276.83l-2.44,1c-1.38-.64,0-1.33-.07-2,.57-1.87,1.74-3.66,1.34-5.67a4.33,4.33,0,0,0,4.63-2.35c1.22-2.23,3.58-3.23,6.62-3.45,0,.61,0,1.22,0,1.82l0,.07-1.19.92-.06,0a11.41,11.41,0,0,0-6.39,6.69l-1.1.94a2,2,0,0,0-1.21,2Z" transform="translate(-356.47 -82.03)"/><path class="cls-1" d="M497.32,340.36c0,.66,0,1.33,0,2-.62-.26-1.66-.44-1.77-.8C495.24,340.59,496.44,340.53,497.32,340.36Z" transform="translate(-356.47 -82.03)"/><path class="cls-1" d="M412.79,233.27c.14.27.47.6.36.79s-.65.23-1,.34c-.14-.27-.47-.61-.36-.79S412.44,233.37,412.79,233.27Z" transform="translate(-356.47 -82.03)"/><path class="cls-1" d="M406.36,267.58c-.16.69-.12,1.51-1.5,1.45-.14,0-.38-.18-.39-.29-.09-1.06,1-1,1.89-1.16Z" transform="translate(-356.47 -82.03)"/><path class="cls-1" d="M591.48,277.51,589,282.29l0,0c-2.62-.07-3.78,1.57-5.35,2.7-1.09.79-2.13,1.57-3.44.24C582.34,281.31,586.54,279.09,591.48,277.51Z" transform="translate(-356.47 -82.03)"/><path class="cls-1" d="M600.17,270.69c-.09-2.68,1.51-4.34,5-4.87l.19.14c-.45,2.37-2.81,3.56-5.08,4.8Z" transform="translate(-356.47 -82.03)"/><path class="cls-1" d="M599,273.58l-3.74,1c0-1.86,1.31-2.81,3.67-3l.16.12Z" transform="translate(-356.47 -82.03)"/><path class="cls-1" d="M595.24,274.61c-.17,1.78-1.36,2.8-3.76,2.9C591.54,275.64,592.78,274.65,595.24,274.61Z" transform="translate(-356.47 -82.03)"/><path class="cls-1" d="M611.59,274.53c-1.13-.11-2.53.3-3.11-.82-.09-.19.56-.83.94-.87,1.67-.22,2,.73,2.16,1.69Z" transform="translate(-356.47 -82.03)"/><path class="cls-1" d="M576.62,284.53c0,.12.16.32.12.35a2.09,2.09,0,0,1-.52.13c-.05-.12-.17-.31-.12-.34A1.88,1.88,0,0,1,576.62,284.53Z" transform="translate(-356.47 -82.03)"/><path class="cls-1" d="M605.16,265.82l.64-.36-.45.5Z" transform="translate(-356.47 -82.03)"/><path class="cls-1" d="M600.27,270.76l-1.2,1-.16-.12,1.27-.93Z" transform="translate(-356.47 -82.03)"/><path class="cls-1" d="M615.31,265.86l-.52-.22.52.22Z" transform="translate(-356.47 -82.03)"/><path class="cls-1" d="M549.2,348l4.87-1.06c-1.32,4.72-7.12,6.67-11.08,9.5-3,2.1-5.23,5.57-10.15,5.92,1.82-4.61,7.51-6.53,11.5-9.63C546.21,351.26,548.83,350.32,549.2,348Z" transform="translate(-356.47 -82.03)"/><path class="cls-1" d="M506.59,383.65c4-7.55,11.09-13,19.89-17.37-.31.72-.36,1.64-1,2.15C519.25,373.54,512.9,378.58,506.59,383.65Z" transform="translate(-356.47 -82.03)"/><path class="cls-1" d="M529.13,362.49l3.62-.08c.37,3.58-3.67,3-6.19,3.81C526.36,364.55,528.39,363.78,529.13,362.49Z" transform="translate(-356.47 -82.03)"/><path class="cls-1" d="M559.15,342.11l2.45,0c-.88,3.06-3.12,4.89-7.47,4.81Z" transform="translate(-356.47 -82.03)"/><path class="cls-1" d="M571.67,336.23c0-1.26.86-1.86,2.47-1.9C574.18,335.62,573.36,336.25,571.67,336.23Z" transform="translate(-356.47 -82.03)"/><path class="cls-1" d="M597,354.48l-1.22.95Z" transform="translate(-356.47 -82.03)"/><path class="cls-1" d="M589,282.29l.52.24-.55-.22Z" transform="translate(-356.47 -82.03)"/><path class="cls-1" d="M521.69,398c-.23,2.08-2.32,4,.32,6.31-3.54.19-5.19-2-7.78-1.39A29.64,29.64,0,0,1,521.69,398Z" transform="translate(-356.47 -82.03)"/><path class="cls-1" d="M548.4,233.4c-1.3,3-3.92,5.17-7.47,6.73C541,236.29,544.22,234.54,548.4,233.4Z" transform="translate(-356.47 -82.03)"/><path class="cls-1" d="M554.67,228.55c-.8,2.58-2.78,4.28-6.25,4.83C548.21,230,551.48,229.32,554.67,228.55Z" transform="translate(-356.47 -82.03)"/><path class="cls-1" d="M529.6,248.88c-.38,2.23-2,3.54-5,3.82C524.91,250.37,526.6,249.13,529.6,248.88Z" transform="translate(-356.47 -82.03)"/><path class="cls-1" d="M563.44,220.82c-1.24,1.87-2.35,3.81-5,4.83C558.25,222.91,559.75,221.21,563.44,220.82Z" transform="translate(-356.47 -82.03)"/><path class="cls-1" d="M572.21,213.08c-.2,1.77-1.33,2.83-3.76,2.91C568.51,214.12,569.78,213.17,572.21,213.08Z" transform="translate(-356.47 -82.03)"/><path class="cls-1" d="M524.58,252.75c0,1.85-1.3,2.77-3.68,2.85C520.9,253.72,522.16,252.79,524.58,252.75Z" transform="translate(-356.47 -82.03)"/><path class="cls-1" d="M568.44,216c0,1.4-.94,2.3-2.51,2.88C565.91,217.49,565.84,216.06,568.44,216Z" transform="translate(-356.47 -82.03)"/><path class="cls-1" d="M565.66,177.48c.16-.69.13-1.51,1.51-1.45.15,0,.39.19.4.3.1,1-1,1-1.89,1.17Z" transform="translate(-356.47 -82.03)"/><path class="cls-1" d="M574.54,213l-2.35.14c0-1.26.85-1.91,2.51-2C574.65,211.74,574.6,212.35,574.54,213Z" transform="translate(-356.47 -82.03)"/><path class="cls-1" d="M558.43,225.65a4,4,0,0,1-2.51,1.94C555.91,226.3,556.74,225.65,558.43,225.65Z" transform="translate(-356.47 -82.03)"/><path class="cls-1" d="M513.3,262.42a3.33,3.33,0,0,1-2.43,1.87C510.79,263,511.57,262.34,513.3,262.42Z" transform="translate(-356.47 -82.03)"/><path class="cls-1" d="M565.94,218.88l-2.51,1.94C563.41,219.53,564.27,218.9,565.94,218.88Z" transform="translate(-356.47 -82.03)"/><path class="cls-1" d="M519.59,257.56a2.49,2.49,0,0,1-2.45.95C517.61,257.67,518.54,257.52,519.59,257.56Z" transform="translate(-356.47 -82.03)"/><path class="cls-1" d="M576,209.23a1.87,1.87,0,0,1-1.25,1.92A1.81,1.81,0,0,1,576,209.23Z" transform="translate(-356.47 -82.03)"/><path class="cls-1" d="M520.82,255.67a1.59,1.59,0,0,1-1.21,1.87A1.55,1.55,0,0,1,520.82,255.67Z" transform="translate(-356.47 -82.03)"/><path class="cls-1" d="M515.81,259.53a1.58,1.58,0,0,1-1.19,1.86A1.55,1.55,0,0,1,515.81,259.53Z" transform="translate(-356.47 -82.03)"/><path class="cls-1" d="M565.68,177.5l-.48,1.25-.47-.24.93-1Z" transform="translate(-356.47 -82.03)"/><path class="cls-1" d="M540.86,240.18l-1.21,1Z" transform="translate(-356.47 -82.03)"/><path class="cls-1" d="M517.05,258.56l-1.16.9Z" transform="translate(-356.47 -82.03)"/><path class="cls-1" d="M530.9,248.85a5.8,5.8,0,0,1-1.25,0C530.07,248.06,530.49,248.2,530.9,248.85Z" transform="translate(-356.47 -82.03)"/><path class="cls-1" d="M553.2,196.79l.53.21-.53-.22Z" transform="translate(-356.47 -82.03)"/><path class="cls-1" d="M555.93,227.58l-1.26,1Z" transform="translate(-356.47 -82.03)"/><path class="cls-1" d="M514.56,261.45l-1.18.91Z" transform="translate(-356.47 -82.03)"/><path class="cls-1" d="M495.33,380.79c-.66,1.92.95,4.15-1.39,5.83-2.43-3.8-1.35-7.6,0-11.39,0-.1.27-.15.41-.22l.9,1c0,1,0,1.9,0,2.85Z" transform="translate(-356.47 -82.03)"/><path class="cls-1" d="M468.75,380.92c1.53.37,3.93-.91,4.41,1.32.07.3-.59.92-1.06,1-2.68.59-3-.89-3.36-2.34Z" transform="translate(-356.47 -82.03)"/><path class="cls-1" d="M495.3,378.88c0-.95,0-1.9,0-2.85C496.71,377,496.75,377.92,495.3,378.88Z" transform="translate(-356.47 -82.03)"/><path class="cls-1" d="M495.12,372.09l.09-2.81C496.62,370.24,496.84,371.18,495.12,372.09Z" transform="translate(-356.47 -82.03)"/><path class="cls-1" d="M495.17,365.43c0-.64,0-1.29,0-1.94C496.35,364.14,496.35,364.78,495.17,365.43Z" transform="translate(-356.47 -82.03)"/><path class="cls-1" d="M538.19,415.32c.11,5.25-5.08,4.73-10,5.55,1.83-4.11,5.89-4.83,10-5.55Z" transform="translate(-356.47 -82.03)"/><path class="cls-1" d="M525.66,422.11c-1.3,3-3.15,5.32-9.27,4.16,3.64-1.69,5.31-4.23,9.25-4.18Z" transform="translate(-356.47 -82.03)"/><path class="cls-1" d="M547,410.48c-1.71,2.91-5,4.14-8.79,4.84h0c1-3.64,4.54-4.62,8.78-4.85Z" transform="translate(-356.47 -82.03)"/><path class="cls-1" d="M547,410.47c.16-.69.13-1.51,1.51-1.45.14,0,.38.18.39.29.09,1.06-1,1-1.89,1.17Z" transform="translate(-356.47 -82.03)"/><path class="cls-1" d="M525.64,422.09l.3-.4-.28.42Z" transform="translate(-356.47 -82.03)"/><path class="cls-1" d="M502,274.84l1.1-.94c4.06-1.15,6.39-3.27,6.39-6.69l.06,0,1.19-.92,0-.07c3.77-1.68,7-3.42,11.81-.62,2.62,1.52,7.4,2.72,11.65.77-1.62-2.09-6,0-6.63-3.46,3.93.85,7-.55,10.12-2.14.76-1.75-4.39-1.37-2.49-3.38,1.24-1.31,3,.25,4.67.14,2.58-.18,5.31.54,6.65-2.31.6-1.29,3-2.1,4.57-3.11.92-.58,1.8-1.56,3.16-.68a2.9,2.9,0,0,1,1.17,1.64c.35,1.45-1.16,1.4-2.38,1.51-5,.46-3.68,2.88-2.29,4.88,1.28,1.84,3,3.47,2.83,5.7-2.51,1.05-4.11,2.51-3.75,4.85h0c-2.73-.09-4.88.4-5,2.91h0c-4.87,1.42-8.23,4-10,7.73h0c-3.56.5-5.64,2.12-6.28,4.84h0c-2.9-.36-4.58,1.08-6.35,2.46-7,5.45-14.3,10.72-20.21,16.95a5.07,5.07,0,0,1-3.39,1.94c-.67-10,1.15-20,2.09-29.95l.09,0A1.69,1.69,0,0,0,502,274.84Z" transform="translate(-356.47 -82.03)"/><path class="cls-1" d="M585.06,240.07c-.28,4.37-5.5,6.14-8.45,9a91.89,91.89,0,0,1-16.71,13.11h0c.24-.92,0-2.17.77-2.71,8.41-6.28,15.21-13.72,24.17-19.59Z" transform="translate(-356.47 -82.03)"/><path class="cls-1" d="M534.86,280.6c1.78-3.76,5.14-6.31,10-7.73C543,276.53,539.56,279.06,534.86,280.6Z" transform="translate(-356.47 -82.03)"/><path class="cls-1" d="M528.58,285.44c.64-2.72,2.72-4.34,6.28-4.84C534.08,283.21,531.91,284.76,528.58,285.44Z" transform="translate(-356.47 -82.03)"/><path class="cls-1" d="M549.88,270c-.36-2.34,1.24-3.8,3.75-4.85,1,.1,2.44.24,1.26,1.3A52.09,52.09,0,0,1,549.88,270Z" transform="translate(-356.47 -82.03)"/><path class="cls-1" d="M544.89,272.86c.13-2.51,2.28-3,5-2.91C548.72,271.42,547.43,272.77,544.89,272.86Z" transform="translate(-356.47 -82.03)"/><path class="cls-1" d="M559.9,262.21l-1.56,1.27-.49-.58,2-.7Z" transform="translate(-356.47 -82.03)"/><path class="cls-1" d="M444.24,298.93c-1.32,1.39-2.4,2.08-4,1.67-.21-.05-.38-.9-.15-1.19C441,298.26,442.29,298.14,444.24,298.93Z" transform="translate(-356.47 -82.03)"/><path class="cls-1" d="M509.52,267.21c0,3.42-2.33,5.54-6.39,6.69A11.41,11.41,0,0,1,509.52,267.21Z" transform="translate(-356.47 -82.03)"/><path class="cls-1" d="M502,274.84a1.69,1.69,0,0,1-1.21,2A2,2,0,0,1,502,274.84Z" transform="translate(-356.47 -82.03)"/><path class="cls-1" d="M510.77,266.24l-1.19.92Z" transform="translate(-356.47 -82.03)"/><path class="cls-1" d="M496.93,357.64c-.76-3.95,1.1-7.74,1.15-11.64l1.33-1.87c6.32-5.06,12.66-10.11,18.91-15.22.62-.51.68-1.42,1-2.15l.07-.06c2.53-.83,6.56-.23,6.2-3.81l.08-.07c4.93-.35,7.2-3.81,10.15-5.92,4-2.83,9.77-4.78,11.09-9.5l.06,0c4.34.07,6.58-1.76,7.47-4.82l0,0c1.85.06,3.68.11,3.73-1.9l0,0c3.29-.14,5.18-1.59,6.21-3.86l0,0c1.68,0,2.51-.62,2.46-1.91l.06,0c2.45-.19,5.82.52,5-2.94,0-.61,0-1.22,0-1.82l2.5-1,1.27,1c-.08,1.43,1.35,2.28,2.17,3.37,1.29,1.7,2.29,3.06-1.82,3.47-3.65.36-7.89,6-7.26,9.08.33,1.58-.86,1.89-2.28,2.31-2.27.68-4.5,1.46-6.78,2.14-1.25.37-2.65.93-2.15,2,2.64,5.57-2.17,8.54-7.38,9.86-9.23,2.33-15.95,6.18-19.58,13.11a3.64,3.64,0,0,1-2.06,1.69c-6.72,1.62-10.62,5.75-14.84,9.59-2.94,2.67-7,3.22-11.22,3.64C505.85,353.66,503.56,356.52,496.93,357.64Z" transform="translate(-356.47 -82.03)"/><path class="cls-1" d="M499.93,437.42q-.19-28.34-.4-56.66c0-2.12.92-4.62-3.46-5.21-1.84-.25-1.57-1.73-1.58-2.81-.08-8.32-.1-16.65-.18-25,0-1.42.37-2.55,2.54-2.75,2.94,0,2,2.35,3.44,3.33,2.51-.31.82-3.52,3.92-3.37-.09,6,0,12.08-.4,18.09-.1,1.56.08,2.42,1.86,3,.05.67-1.31,1.36.07,2-2.44,10.52-.87,21.1-.83,31.65,0,.37.68.75,1,1.12,0,.26.05.52.08.78a19,19,0,0,0-1.35,8c.14,7,.08,14,.09,21-.88.17-2.07.23-1.76,1.2.11.35,1.15.53,1.77.79,0,.62,0,1.24,0,1.86-2.47.16-2.36,1.6-2.48,2.93Z" transform="translate(-356.47 -82.03)"/><path class="cls-1" d="M517.53,349.63c-.76-3.94,1.1-7.74,1.15-11.64.44-.62.89-1.24,1.33-1.87,6.32-5.06,12.66-10.11,18.91-15.22.62-.51.67-1.42,1-2.15l.07-.06c2.52-.83,6.56-.23,6.2-3.81l.08-.07c4.93-.35,7.2-3.81,10.15-5.92,4-2.82,9.77-4.77,11.09-9.5l.06,0c4.34.08,6.58-1.75,7.47-4.82l0,0c1.85.06,3.68.11,3.73-1.89l.05,0c3.29-.14,5.18-1.59,6.21-3.86l0,0c1.68,0,2.51-.62,2.46-1.91l.06,0c2.45-.2,5.82.51,5-2.95,0-.61,0-1.21,0-1.82l2.5-1,1.27,1c-.08,1.42,1.35,2.27,2.17,3.36,1.29,1.7,2.29,3.06-1.82,3.47-3.65.36-7.89,6-7.26,9.08.33,1.58-.86,1.89-2.28,2.32-2.27.67-4.5,1.45-6.78,2.13-1.25.37-2.65.93-2.15,2,2.64,5.57-2.17,8.54-7.38,9.86-9.23,2.34-15.95,6.18-19.58,13.11a3.6,3.6,0,0,1-2.06,1.69c-6.72,1.62-10.63,5.76-14.84,9.59-2.94,2.67-7,3.22-11.22,3.64C526.45,345.65,524.15,348.51,517.53,349.63Z" transform="translate(-356.47 -82.03)"/><path class="cls-1" d="M560,324.64c-8.1.48-13.82,5.42-14.91,13.3a9.47,9.47,0,0,1-3.18,6.1c-.66.59-1.75,1.68-2.12,1.56-9.67-3-9.3,5.52-14.66,7.41-.89.32-1.46,1.14-2.26,1.66a9.27,9.27,0,0,1-1.62.64c-2.39-1.6,1.54-2.39.41-4.05-2.52-.18-4.31.67-5.38,2.63-4,7.37-10.43,13-20,16.28-2.45-6.78-2.57-13,6-17.69,2.63-1.45-2-2.78-1.25-4.51l1.25-1c2.51-.13,2.52-1.5,2.48-2.9l0,0c2.59-.62,4.24,1.58,7.78,1.39-2.64-2.28-.55-4.23-.32-6.31l1.18-.89c5.09.36,7.41-3.1,10.89-4.84,3.14-1.58,6-3.08,10.07-2.29-.3-1.74-.54-3.11-.78-4.48,5.42-.64,10.52-1.61,11.28-6.78a2019.21,2019.21,0,0,0,5-1.94,3.93,3.93,0,0,0,3.75-1.95h2.52c3.57.42,5.81,2.65,8.84,3.81,1.63,1.73.38,2.06-1.32,1.23-6.11-3-4.32.26-3.7,2.64C560,324,560,324.32,560,324.64Z" transform="translate(-356.47 -82.03)"/><path class="cls-1" d="M567.92,314.17c1.59-2.58-.86-5-.49-7.58.19-1.32-1.38-2.26-2.89-1.61-2.17.95-4.87-1.6-6.27.5-1.2,1.78,1.64,1.68,2.81,2.37s3.5,1.43,2.11,2.86c-1.24,1.26-2.49-.77-3.54-.76-10.36,0-9.87-4.55-7.69-10a3.6,3.6,0,0,0-.07-2.29C551,294.68,553,295,555.21,296c2.5,1.08,4.78,2.71,8,1.37.52-1.16-.63-1.27-1.57-1.55-1.43-.43-2.78-1-2-2.45.59-1,1.81-.88,3.15-.89,2.51,0,5.63.65,7-1.81,1.14-2.07,3.59-4.89-2.9-4-1.08.15-1.56-1.32-1.66-2.31h2.52c3.52.66,7.07-.56,10.82.21-1.89-1.63-3.64-3.13-4.56-5l-1.26-1c0-1,0-1.92,0-2.87,1.63,0,2.47-.7,2.51-1.95a2.89,2.89,0,0,0,2.5-1c3.79.18,7.79-1.21,11.31.89,0,1.8,0,3.6,0,5.39,0,1.45-2.86,3.22.83,4.24l1.83,1.18c.23,1.43,1.65,1.46,3.11,1.8,6,1.37,7,3.63,4.06,7.61a1.89,1.89,0,0,1-1.95.86c-5.65-1.82-8.13,1.52-10.22,4.15-3.62,4.56-9.07,7.73-13.46,11.69-1.2,1.08-2.81,1.94-2.75,3.57Z" transform="translate(-356.47 -82.03)"/><path class="cls-1" d="M499,439.21c1.58-2.58-.87-5-.5-7.58.19-1.32-1.38-2.26-2.88-1.61-2.18,1-4.87-1.6-6.28.5-1.19,1.78,1.64,1.68,2.82,2.37s3.5,1.43,2.1,2.86c-1.23,1.26-2.48-.77-3.54-.76-10.35,0-9.86-4.55-7.69-10a3.63,3.63,0,0,0-.06-2.3c-.88-2.93,1.05-2.63,3.31-1.65,2.51,1.09,4.78,2.72,8,1.38.53-1.16-.62-1.27-1.56-1.55-1.44-.44-2.78-1-2-2.45.58-1,1.8-.88,3.15-.89,2.5,0,5.63.65,7-1.81,1.13-2.07,3.58-4.89-2.9-4-1.08.15-1.57-1.32-1.66-2.31h2.52c3.51.66,7.07-.56,10.81.21-1.89-1.63-3.64-3.13-4.55-5.05l-1.26-1c0-1,0-1.92,0-2.87,1.63-.05,2.46-.7,2.51-1.95a2.84,2.84,0,0,0,2.49-1c3.79.19,7.79-1.2,11.32.9,0,1.8-.05,3.6-.05,5.39,0,1.45-2.87,3.22.83,4.24l1.83,1.17c.22,1.44,1.65,1.47,3.1,1.81,6,1.37,7.06,3.63,4.06,7.61a1.88,1.88,0,0,1-1.94.86c-5.65-1.82-8.14,1.52-10.22,4.15-3.62,4.56-9.08,7.73-13.47,11.68-1.2,1.09-2.8,1.95-2.75,3.58Z" transform="translate(-356.47 -82.03)"/></svg>