<svg id="Layer_1" data-name="Layer 1" xmlns="http://www.w3.org/2000/svg" viewBox="0 0 333.82 432"><defs><style>.cls-1{fill:#8dc63f;}</style></defs><title>angelica</title><path class="cls-1" d="M150.06,392.46c-2.86-5.17-6.11-5.26-9.75-4-19.35,6.62-38.75,13.41-58.47,7.09C72,392.38,62.24,388.36,54,375.62c-1.82-2.82-4-4.68-6.09-6.81-10.61-10.93-17-28.82-21.14-51.11l4.93-4.18L31.56,312H25.94c3.78-7.28,3.59-14.31.66-24.22L132.46,368c-1.81-3.25-5.07-9.11-7.75-13.95,0-.53.07,1.62.21,4.83-5.34-4.2-10.85-6.6-12.26-20.23.08,2.84.15,5.68.27,9.94-5.16-4-10-7.35-14.56-11.7-1.35-1.29-2.37-5.28-2.93-8.47-2.83-16.32-5.47-32.79-8.17-49.19-.36-1.44-.73-2.9-1.1-4.35q-1.29-6.86-2.59-13.71l1.24-2.84C89,263.49,93.17,268.65,97.49,274c0-.38,0-1.56-.12-3.68a30.61,30.61,0,0,1,2.65,2.43c15.06,17.41,29,37.3,37.59,69,1.5,5.56,3,11.1,4.4,16.8,2.69,11.32,5.27,22.75,7.91,34.11Z"/><path class="cls-1" d="M280,280.3l6.34-2.91c.16,7.08-.37,12.93.54,17.67,2.16,11.31-3.16,16.88-4.22,25.6-.32,2.69-1.77,4.77-2.56,7.31-4.36,13.93-10.08,22.2-18.62,17.72,2.22,3.25,4.36,6.4,6.74,9.9-5.2,12.17-11.29,7.05-18,9.6l10.52,1.88c-29.25,33.08-60,36.85-92.07,18.69.78-2.27,1.75-5.08,2.71-7.9l-.16.31c2.05-2,4.26-3.53,6.11-6.1,5.56-7.71,11.26-11.38,17.7-4.59a6.12,6.12,0,0,0,1.89,1l.18-1.17-7.71-7.93c6.48-6.14,12.09-11.63,17.76-16.8,4.13-3.77,8.27-9.62,12.92-2.09l-3.33-5a7.5,7.5,0,0,1,.32-1.36q25.31-21.93,50.6-43.83c1.77-1.54,3.49-3.34,5.24-5Z"/><path class="cls-1" d="M150.83,227.09c6,10.24,7.41,23.14,6.11,38.38-.63,7.38-.11,15.16-.11,23.61L153.6,287a17.38,17.38,0,0,0,.08,1.83c1,6.39,2.75,12.72,2.85,19.16.29,18.67-.15,37.38-.12,56.07,0,3.09.93,6.18,1.42,9.22l-.09-.23c-.18,5.52-.28,11.05-.56,16.55-.19,3.94-.61,7.84-1.13,14.16-2.85-5.39-4.41-8.34-6-11.28l-.15.23c1.71,1.65,3.44,3.27,5.59,5.3,1.51-10.31,2.22-19.67-.92-29-18.49-55-28.71-116.35-33.83-181.46-.29-3.62.51-7.59.81-11.39l3.66,3.09Q138,203.11,150.83,227.09Z"/><path class="cls-1" d="M150.83,227.09q-12.81-24-25.6-47.91c-6.34-15.19-4.72-32.39-3-49.56.53-5.23,1.6-10.31,1.86-15.57.66-13.08,5-20.3,9.89-27.57l5.18,15.19Q147,120,154.83,138.42c7.68,8.81,5.6,22.65,4.69,37.79l-7-10.46c7.72,10.81,7.21,25.85,6,41.27L157,209.27l-15.78-27.91-.6,1.2c4.82,9,9.54,18.19,14.49,26.87,2.25,3.95,4.55,6.37,2,13.67-.95,2.68.24,8.42.5,13.74Z"/><path class="cls-1" d="M195.79,212.53c1.68-.38,1.85-.26,1.27,3.08-2.79,16-4.91,32.83-8.73,47.84-5.35,21-12,40.68-18.09,60.93-.94,3.14-1.9,6.26-2.73,9.52q-4.94,19.47-9.79,39.06l.11.28c.13-17.27,0-34.61.48-51.89.25-9,2-17.78,2.35-26.78.24-5.95-.93-12.07-1.16-18.17-.31-8.21,1.14-15,4.67-19.68Q180,234.64,195.79,212.53Z"/><path class="cls-1" d="M171.36,377.86,167,380.59c5.45-56.54,22.47-93.3,47.5-121.06-.79,5.49-1.28,8.89-1.77,12.24-1.79,9.49-3.6,19-5.41,28.56-1.7,9.71-3.8,19.22-5,29.18-1.68,14-2.79,16.88-10.81,20.29.88-12.92,1.76-25.59,2.63-38.26-1.77,10.91-2.74,22.06-3.81,33.17-.66,6.83-5.8,11.5-8.21,9.81-2.54,6-4.67,11.32-6.93,16.35-1.21,2.67-2.66,4.88-4,7.3Z"/><path class="cls-1" d="M154.83,138.42Q147,120,139.17,101.67c-4-11.22-3.28-23.39-1.29-35.4.37-2.21,2.57-3.2,3.93-4.72.45-.51,1.14-.64,1.36-1.38C146.58,49,152.3,46.54,158,44.05c3.68-1.6,5.53,2.68,5.44,9-.3,21.06-.91,42.11-1.62,63.13-.06,1.77-1.74,3.31-2.33,4.38.62,6.18,1.36,13.49,2.1,20.8l-1.3,1.93Z"/><path class="cls-1" d="M229,254.27c2.26-3.05,4.36-7,6.83-8.94,3.31-2.67,5.69-1.19,3.62,9.4,3.62-5.85,6.67-10.8,9-4.32,2.74-1.8,5.44-5.46,6.82-4,2.06,2.17,2,7.62.58,12.72-1.85,6.56-3.09,13.83-4.59,20.75-.61,2.1-1.24,4.23-1.86,6.36-1,6.18-1,15.07-3.07,18-4.31,6-9.71,8.8-15.95,14,2.22-19.06,4.15-35.6,6.07-52.14-2.65,12.33-4.41,25.1-5.86,38-1.91,16.93-3.1,19.42-12.45,22.4.27-5.87.31-11.51.83-17,1-10.49,2.28-20.87,3.44-31.3Q225.66,266.22,229,254.27Z"/><path class="cls-1" d="M86.17,274.89c.37,1.45.74,2.91,1.1,4.35q3.77,26,7.55,52.14l-1.29,2.3c-6.64-5.22-13.25-10.53-19.92-15.58a34.79,34.79,0,0,0-6.45-3.6c-3.36-1.59-4.59-5.55-5.06-12.62-1-15.08-2.28-30.28-7.69-42.27,0,0,.16.29.16.29-.38-2.49-.76-5-1.46-9.6,8.31,4.65,17.78.11,21.93,21l-2.36-12.56c2.78,3.27,5.31,9.24,7.47-.89Z"/><path class="cls-1" d="M169.54,228.46l-9.25,9.27c1.44-13.26-1.09-25.79,5-33.74L191,163.4a73.08,73.08,0,0,1,5.34-7.08c.51-.54,1.59,1.11,2.41,1.73.15,7.07-4.71,13.35-.85,21-.39,1.77-.54,4.13-1.21,5.22C187.71,199.14,178.61,213.78,169.54,228.46Z"/><path class="cls-1" d="M191,163.4,165.28,204c-2.65,2.53-3.78.26-3.63-5.09.23-8,.48-16,1-24a13.15,13.15,0,0,1,2.08-6.05c3.39-4.72,6.94-9,10.4-13.39l5.72-8.49a20.1,20.1,0,0,1,1.18-1.84c7.66-9.53,7.66-9.53,15.25,1.58Q194.17,155.07,191,163.4Z"/><path class="cls-1" d="M249.33,286.22c.62-2.13,1.25-4.26,1.86-6.36,2.65-8.71,5.3-17.46,8-26.49,2.71,4.74,4.68,11,7.28.58,1.65-6.62,5.1-5.06,7.89-1.85,4.85,5.59,9.6,11.52,14.7,17.66L280,280.3q-3.57,2.52-7.11,5.05l-23.55,15.82Z"/><path class="cls-1" d="M180.87,147l-5.72,8.49c-3.94,3.41-7.9,6.86-12.17,10.57.36-15.49-.31-30.13,7.79-36.87l15.48-21.76q3.31-10.75,6.61-21.52l.14-.39c4.78,7.23,5.85,22.81,2,31.15C190.36,126.87,185.6,136.9,180.87,147Z"/><path class="cls-1" d="M169.54,228.46c9.07-14.68,18.17-29.32,27.19-44.14.67-1.09.82-3.45,1.22-5.22l-.15.12c.92,2.3,2.82,5.14,2.59,6.8-1.23,9-3,17.64-4.58,26.47Q180,234.66,164.17,256.72l-3.55,1.85C158.24,241.14,165,236.19,169.54,228.46Z"/><path class="cls-1" d="M229,254.27q-3.3,12-6.62,23.91c-1.7,12.44-3.35,24.9-5.12,37.3-.74,5.24-1,12.23-2.77,15.08-2.94,4.69-7,6.67-11.85,11,1.79-15.54,3.27-28.37,4.74-41.19,1.81-9.53,3.62-19.07,5.41-28.56,3.22-10.71,7.54-18.81,13.62-22.61C228.82,247.63,230.67,247.29,229,254.27Z"/><path class="cls-1" d="M193,85.52l-.14.39c-.92,2.21-1.83,4.42-2.76,6.64a35.9,35.9,0,0,0-3.32-3.33A12.09,12.09,0,0,0,183.92,88c6.66,4,3.62,12.19,2.33,19.48l-15.48,21.76-6.41,5.7c-2.26-15.42,2.63-22.76,7.26-30.29L183.7,76.43c1.19-3.46,2.37-6.91,3.72-10.83C189.44,72.83,191.22,79.17,193,85.52Z"/><path class="cls-1" d="M183.7,76.43,171.62,104.6c-2.08,2.14-4.17,4.32-7.39,7.67,1.16-13.6-.45-25.35,4.37-34.69,1.1-2.13,1-6.85,1.41-10.36,0,0,.29.2.29.2l-.22-.64c1.89-1.63,4-2.61,5.59-5,2.24-3.44,3.94-7.88,7.22-3.71,3.48,4.44,2.24,10,1.4,15.68C184.15,74.65,183.9,75.53,183.7,76.43Z"/><path class="cls-1" d="M35.5,273.68c3.35-10,8.76-11.07,12-2.29,1.47,4,2.75,8.19,4.11,12.25,1.09,4.38,2.18,8.8,3.28,13.23.67,6.6-1,7.88-3.67,6.21-6.36-4-12.94-7.46-14-24.13-.12-2-1.22-3.71-1.87-5.56Z"/><path class="cls-1" d="M54.88,296.87c-1.1-4.43-2.19-8.85-3.28-13.23-.94-4.91-2.16-9.74-2.73-14.86-.5-4.44-.27-9.21-.36-13.83l6.05,4.94a2.49,2.49,0,0,0-.15-.28c2.54,15.92,6.86,30.87,6.93,48.91C56.72,308.82,55.54,303.4,54.88,296.87Z"/><path class="cls-1" d="M35.34,273.39c.86,5.89,1.72,11.78,2.88,19.76L25.6,283.59,25.28,280l10.22-6.35Z"/><path class="cls-1" d="M197.8,179.22l.15-.12c-3.87-7.7,1-14,.84-21,1,.14,2,.25,3,.36C201.58,166.22,202.14,174.63,197.8,179.22Z"/><path class="cls-1" d="M170.08,66.78l.22.64s-.29-.19-.29-.2a.86.86,0,0,1,.16,0Z"/><path class="cls-1" d="M207.34,300.33c-1.47,12.82-3,25.65-4.74,41.19,4.89-4.29,8.91-6.27,11.85-11,1.79-2.85,2-9.84,2.77-15.08,1.77-12.4,3.42-24.86,5.12-37.3-1.16,10.43-2.44,20.81-3.44,31.3-.52,5.46-.56,11.1-.83,17,9.35-3,10.54-5.47,12.45-22.4,1.45-12.91,3.21-25.68,5.86-38-1.92,16.54-3.85,33.08-6.07,52.14,6.24-5.19,11.64-8,15.95-14,2.08-2.9,2.11-11.79,3.07-18v14.95l23.55-15.82c-1.75,1.68-3.47,3.48-5.24,5Q242.35,312.32,217,334.2a7.5,7.5,0,0,0-.32,1.36l3.33,5c-4.65-7.53-8.79-1.68-12.92,2.09-5.67,5.17-11.28,10.66-17.76,16.8l7.71,7.93-.18,1.17a6.12,6.12,0,0,1-1.89-1c-6.44-6.79-12.14-3.12-17.7,4.59-1.85,2.57-4.06,4.1-6.11,6.1,1.35-2.42,2.8-4.63,4-7.3,2.26-5,4.39-10.32,6.93-16.35,2.41,1.69,7.55-3,8.21-9.81,1.07-11.11,2-22.26,3.81-33.17-.87,12.67-1.75,25.34-2.63,38.26,8-3.41,9.13-6.28,10.81-20.29C203.54,319.55,205.64,310,207.34,300.33Z"/><path class="cls-1" d="M186.25,107.43c1.29-7.29,4.33-15.49-2.33-19.48a12.09,12.09,0,0,1,2.86,1.27,35.9,35.9,0,0,1,3.32,3.33c.93-2.22,1.84-4.43,2.76-6.64Q189.56,96.68,186.25,107.43Z"/></svg>