<svg id="Layer_1" data-name="Layer 1" xmlns="http://www.w3.org/2000/svg" viewBox="0 0 333.82 432"><defs><style>.cls-1{fill:#99c864;}</style></defs><title>Artboard 83</title><path class="cls-1" d="M114.64,333.85c-12.41-6.23-19.08-15.74-23.55-25.55l5.54-5L94.3,301.2A46.27,46.27,0,0,1,81,281.11a4.9,4.9,0,0,1,.16-3.07c1.26-3,2.65-5.9,4.12-8.77a2.69,2.69,0,0,0-.21-3.18c-4.9-7.31-8.78-15.25-10.36-24.41-.56-3.25-.62-6.6-1-9.9-.17-1.65.5-2.26,1.8-2.54,2.17-.47,4.32-1.09,6.72-1.71-4.2-9.85-7.51-19.8-7.86-31l6.86-1.89A119.48,119.48,0,0,1,79,150.75l5.65,3.19a111.06,111.06,0,0,1,8.86-46.11L97,112.71c3.9-14.22,9.12-26.89,18.75-36.83.49,1,.9,1.83,1.3,2.67s.74,1.58,1.28,2.71c3.87-11.86,8.78-22.64,17-31.17l3.65,6.7c1.88-3,3.57-5.87,5.4-8.61a94.72,94.72,0,0,1,23-23.81,2,2,0,0,1,2.79,0,94.33,94.33,0,0,1,27.73,31.31c.17.32.37.61.73,1.19.67-1.2,1.27-2.24,1.85-3.3s1.16-2.18,1.85-3.48c8.17,8.55,13,19.28,16.94,31.26l2.62-5.42c9.55,9.9,14.89,22.42,18.61,36.52l1.87-2.14c.56-.64,1.1-1.29,1.86-2.18a108.54,108.54,0,0,1,8.85,45.79l5.66-3.18a116.74,116.74,0,0,1-2.4,43.94c1.81.47,3.5,1,5.21,1.33,1.34.25,1.83.82,1.7,2.51a84.74,84.74,0,0,1-6.53,26l-1.23,3a53.2,53.2,0,0,0,6.09,1.61c1.94.3,2.35,1.37,2.32,3.45-.14,11.06-3.54,20.79-8.84,29.79-1.09,1.85-2.88,3.68-3,5.61s1.6,3.85,2.5,5.77a6.17,6.17,0,0,0,.58,1.18c2.63,3.41,1.81,6.71.09,10.27A50.79,50.79,0,0,1,243,301.55c-.61.53-1.2,1.1-1.93,1.76l5.43,5c-5.29,11.64-12.8,20.38-23.58,25.55l8.11,6.08c-3.21,5.28-9.45,9.46-18.85,12.62,1.56,2.25,3,4.41,4.62,6.71A72.86,72.86,0,0,1,174,383.8c-.31-7.93-.6-15.54-.9-23.29,17.66-6.58,30.62-19.58,39.64-38.06-10.08,15.69-22.59,27.15-39.84,30.89-.17-5-.37-9.64-.48-14.31-.3-11.88-.5-23.76-.88-35.63-.08-2.29.47-3.2,2.39-3.9A99.66,99.66,0,0,0,216.28,271c4.17-4.79,7.75-10.25,11.59-15.4a1.44,1.44,0,0,0,.21-.91c-14.91,20.63-33.87,33.5-56.63,39.93-.27-21.4-.53-42.62-.8-64.06a81.08,81.08,0,0,0,33.16-11,110.71,110.71,0,0,0,27.56-23.63c-17.31,17.5-37.13,27.85-60.83,28.67,0-5.16,0-10.13,0-15.1q-.09-24.53-.2-49.05c0-1.61.29-2.29,1.82-2.66,12.82-3.08,24.92-8.22,35.29-17.78a83.41,83.41,0,0,0,9-10.08c-13.1,13.86-28.79,21.23-46.37,25.19V85.56c4.53-1.62,9.4-3.08,14.07-5.12a39.13,39.13,0,0,0,12.52-9.23c-8.23,6-17.05,10-26.93,11.39-.25-17.12-.49-34.07-.74-51h-.46c-.31,16.9-.62,33.8-.93,50.89a58.49,58.49,0,0,1-27-11.64c7.7,7.79,16.58,12.61,27,14.08-.21,23.23-.43,46.42-.65,70-18-4.12-34.06-11.9-47.17-26.95.25.41.47.84.75,1.22,10.19,14,23.48,22.15,38.53,26.88a46.86,46.86,0,0,0,5.91,1.65c1.56.26,2,1,2,2.76-.1,11.2-.08,22.4-.14,33.6,0,9.61-.14,19.23-.22,28.84,0,.44-.06.89-.11,1.64-21.61-.67-40.31-9.76-56.94-25.2,16,17.4,34.56,28.75,56.62,31v64.31c-23.47-6.69-42.71-20.24-58-41.43,1.91,2.89,3.75,5.85,5.75,8.65a102.78,102.78,0,0,0,49.68,37.69c1.62.59,2.22,1.31,2.17,3.39-.4,15.81-.68,31.62-1,47.44,0,.88-.08,1.77-.14,3-17.58-3.84-30.12-15.66-40.17-31.72,9,18.81,22,32.18,40,38.87-.3,7.71-.59,15.32-.89,23.27a72,72,0,0,1-42.71-24.57l2.3-3.4,2.28-3.4c-7.63-1.67-13.71-5.84-18.93-12.35Z"/></svg>