<svg id="Layer_1" data-name="Layer 1" xmlns="http://www.w3.org/2000/svg" viewBox="0 0 291.62 444.12"><defs><style>.cls-1{fill:#90c33e;}</style></defs><title>avondale73</title><path class="cls-1" d="M511,355.15c-4.12,0-5.41,2.53-5.42,6.15-.14,30.82-6.29,61.12-7.91,91.81-.85,16.1-1.44,32.22-3.07,48.26-.79,7.79-2.15,15.42-5.21,22.74a17,17,0,0,0-1.47,9.36h-5c-4.71-3.82-4.64-3.78-.95-11a73.28,73.28,0,0,0,7.73-28.39q3.09-41.85,6.06-83.71c.94-13.22,3.2-26.36,2.51-39.7a63.82,63.82,0,0,0-1-10.39c-1.18-5.47-2.4-6.29-7.79-4.46-1.57.53-3.1,1.17-4.64,1.75,0-2.78,2-3,4.05-3.35a1.61,1.61,0,0,0,1.49-1.68c-.11-1.08-1.1-1-1.91-1.08l-9.82-.71,0-1.22a61.85,61.85,0,0,0,8.06-.09c1.94-.26,4.68,2.19,5.34.16.78-2.41-3-2.82-4.43-4.51-.55-.66-1.78-.79-2.72-1.07-3.25-1-7.41-1-9.74-2.26-6.84-3.78-14-3.67-21.16-4.32-.06-.32-.11-.65-.15-1a7.37,7.37,0,0,0,0-.94,150.11,150.11,0,0,1,24.94,4c.73,1.14,1.9,1,3,1a2,2,0,0,0,2,.85c2.53.22,4.5,2.94,7.77,1.57-1.57-2.29-1.94-5.19-4.72-6.49a3,3,0,0,0-.85-.1,15.22,15.22,0,0,0-4.16-6.89c-2.28-1.5-5.44-2.26-5.12-6l1.1-.09a81,81,0,0,1,12.95,13.16c1.35,2.54,2.84,4.93,5.91,6.37.24-4.41-1.56-7.87-2.82-11.47-1.42-5-2.83-10.09-4.27-15.13-.38-1.31-1.08-2.67,1.2-2.79v0c1.49,3.61,1.82,7.64,4,11q2.46,9.18,4.93,18.35c3-6.42,1.59-13,2.18-19.34,1.62-6.63.69-13.37.84-20.06,1.48-1.15,1-2.66.77-4.12,0-1.65.72-3.42-.74-4.85l.12-2.93c1.37-1.12.82-2.68.92-4.09,0-.33,0-.66,0-1,0-1-.07-2-.11-3l0-3c.6-2-.74-4.41,1.3-6.09l0,2c0,2.38-.93,4.87.79,7.07,0,1.34,0,2.68,0,4-1.34,1.34-1.46,2.67.05,4q0,6,0,12c-1.05.66-1.05,1.31,0,2,0,3.3-1.47,6.5-.7,9.86l0,4.2,0,.45.05.44-.2,3.05v1c0,5.1-.76,10.26,1.52,15.31l7.29-18.33a39.54,39.54,0,0,1,6-11h1.28l-1.29,4.95-.83,1a7,7,0,0,0-1.37,3.92c-2,1.15-1.79,3.41-2.66,5.12-.08.9-.17,1.8-.26,2.69-2.54,1.12-2.41,3.72-3.06,5.8-.71,2.24-2.72,5.52-.46,6.71,2.69,1.42,4.1-2.2,5.69-4.13a2.14,2.14,0,0,0,2-1,6.75,6.75,0,0,0,3-2.83c5.61-2.91,9.26-8.42,15-11.22l.07,1a14.91,14.91,0,0,1-3.18,3.64c-5.42,5.36-12.18,9.21-17,15.24a7.49,7.49,0,0,0-5.75,6.37c2.71.1,3.92-2.27,6-2.68l3,0-.12,1.39c-1,.06-2,.18-2.36,1.24-.39,1.26.75,1.62,1.6,1.91,1.18.41,2.44.62,3.66.92-2.18,4-5.84,1.66-8.69,1.65C511.37,352.16,510.92,353,511,355.15Z" transform="translate(-358.49 -89.35)"/><path class="cls-1" d="M364.14,214.57c0-.66.07-1.32.11-2,2.53-3.63,1.61-8.58,4.63-12,5.69.32,5.71.32,4.46-5.52-.21-1,0-1.7.79-2.06,5-2.23,1.16-3.76-.4-5.47l-.18-2.24v.1c.83.05,1.66.07,2.49.15,7.27.75,9.27-1.47,8.27-9.2-.31-2.47,3.19-4.91,5.77-3.89,1,.41,2.06,1.69,3,.45s-.67-2-1.14-2.95c-1.63-3.35-2.33-6,2.89-6.55a5.18,5.18,0,0,0,5-5.15c.15-2,2.47-5.46,2.83-5.23,4.82,3.08,8.9-.62,13-.66,3.74,0,4.94-.51,6.35-3.28.54-1,1.9-2.1,2.46-.19.68,2.31,1.77,3.33,3.85,2.07s1.69-3.09.47-4.78c-2-2.76-.43-4.58,1.54-6.34,3.13-2.8,6.43-5.45,9.34-8.46,2.65-2.72,4.89-5.83,7.86-8.25,1-.84,1.91-2,3.34-.49,1.2,1.23,3.22,1.44,4,.3,1-1.46,3-2.89,2.07-5.16-1.75-4.4,2.1-5.13,4.46-5.85,3.26-1,1.8,2.71,2.91,4,.69.83-1.14,2.17.62,3.18a10.22,10.22,0,0,0,1.74-5c.11-1.2.16-2.39,1.76-2.54s2,.7,2.26,2c.67,3.64,4.28,4,6.74,5.22a3.75,3.75,0,0,0,5.28-2.78c1-5.29,2.22-5.42,7.28-3.16,3.94,1.77,7.9,4.7,12.78,1.2,2.53-1.83,4,.43,3.83,3.05a82.83,82.83,0,0,1-1.45,10.28c-1.75,8.37-1.82,8.36-9.44,7-1.36,0-2.66,0-3.1-1.76-.3-1.18-1-2.27-2.47-1.74-1.28.46-1.4,1.69-1.4,2.91,0,4.87-1.32,10.1,4.08,13.35a1.75,1.75,0,0,1,.59,2.23,1.54,1.54,0,0,1-1.17.59c-4.11.19-8,.39-10-4.64a23.21,23.21,0,0,1-1.65-4.43c-.29-1.58-.69-3.65-2.94-3.25-5,.89-2.68-2.22-2.33-4.13.18-1,2-2.4.26-2.71a10.87,10.87,0,0,0-6.14,1.24c-1.34.64-.56,2.34-.13,3.61,1.37,4,1.54,8.58,6.18,10.73,1.71.79,1.11,2.58,1.22,4h-2c-4.05-2-5.54-7.26-10.56-8.28a9.07,9.07,0,0,0,.16,1.49c.84,3-1.4,3.52-3.34,3.65-2.82.2-1.73-1.72-1.72-3.39s1.06-3.48-.83-5.56c-.87,3.35-1.46,6.36-3.67,8.71-1.63-1.09-2.79-3.41-1.52-4,3.79-1.89,1.21-4.52,1.49-6.78.67-5.44-2.15-4.66-5.34-3.27-1.05,1.8,3.62,1.63,1.19,3.18-2.67,1.71-1.82,4.39-2.89,6.47-1.47,2.87-.12,6.37-1.91,9.11-.6.93-.93,2.89-2.8,2.09-1.27-.54-1.31-1.75-.92-3,.3-1,1.38-2.38-.4-2.85a2.16,2.16,0,0,0-2.45,2c.11,2.12-2.7,3.34-1.33,5.86.94,1.71-.64,1.18-1.54,1-4.25-.84-5.77,3.19-8.35,5.08a4.35,4.35,0,0,0-.62,6.53c1.23,1.53-.24,3.4-2.37,3s-6.63,2-6.42-1.64c.21-3.78-2-5.72-3.09-8.49-.3-.76-.85-1.54-1.86-1.24s-1,1.32-.85,2.08c.47,2.93.91,5.88,1.64,8.75.59,2.29-.07,3.53-2.32,4-3.53.71-7.83,2.4-10.41,2.07-6.74-.88-5.26,3.51-5.3,6.39,0,2.08-.16,3.12-2.18,3.5-4.82.93-6.26,4.37-6.47,8.71h0c-.76.29-1.55.52-2.28.87-3.9,1.82-6.13,4-2.28,8.15,1.35,1.45,2.06,5,.11,5.07-4.4.22-5.56,5.71-10.26,4.62,2.18,3.55,5.9,1.34,8.25,3-.74,2.31-3.49.32-3.94,2.1,3.51,4.81,5.24,10.75,11.18,13.26-5-.15-5.7.07-5.16,1.85,1.17,3.85,5.83,5.61,8.74,2.91,1.91-1.79,4.15-2.77,5.46-.93s4.39,4.16,2.36,7.35a5.5,5.5,0,0,0-.92,4.74c1.18-.21,1.24-2.65,2.89-1.59,1.35.87.71,2,0,3-1.89,2.52-.78,3.35,1.85,3.88,1.22.25,3.06.17,3.58,2.31-2.5.8-6.64-1.92-7.18,3.12,0,.2-1.53.23-2.35.34-.3-1.54,2.05-3.12.15-4.51-.8-.58-2.23.21-2.51,1.05-.63,1.92.41,3.1,2.36,3.46.3.55.49,1.49.89,1.59,5.49,1.31,10.94,2.87,17.5,2.84-1.82,1.43-2.95,2.24-4,3.15-2.44,2.1-4.72,3.48-1.93,7.78,1.59,2.46,7.54,1.13,5.35,6.26a1.66,1.66,0,0,0,2.14-.63c1-1.21,1.53-2.9,3.15-3.55,2.74,2.32.69,4.41-.09,6.55a72.79,72.79,0,0,1-21.41.9c6.53.95,12.75,4.07,19.58,2.08,1.76-.51,1.78-1.65,1.84-3,3.9,1.58,8.18-1.52,12,1,4.85-.39,8,2.56,10.84,5.81,4.2,4.82,7.76,10.28,12.41,14.59,3.37,3.14,6.23,6.26,7.78,10.55-1.55,1.06-1.51,7.23-5.32.94-.76,3.31-2.47,5-5.2,5.49-1.24-2.08,3.2-4.5-.88-5.89-1.33,1.68-.95,5-3.62,4.88-2.32-.08.86-3-1.23-4-1.82.14-4,5.16-5.08,1.41-1.86-6.23-4-3.38-7.31-.55,0-4.26-3.5-5.66-4.2-8.86-2.33,1.51-4.25,2.8-6.22,4-1.41.86-2.56.73-2.92-1.16-.68-3.63-3.64-6.95-1.2-11,.45-.74.15-3.75-.67-3.22-4.73,3.09-2.28-3.18-4.58-3.1l-1.52,2.59c-1.85-4.72-8.57,3.23-9.76-3.75-.16-1-1.55-.33-2.27.6-2.1,2.7-4.23,2.77-6.22-.19-1-1.52-3-2.71-4.23-1.89-4.66,3-6.57-.88-9.08-3.21-1.7-1.57-3.15-3.41-4.72-5.13a1.49,1.49,0,0,0-1.75-.58c-.74.31-.83.9-.59,1.62.3.9.9,1.87-.45,2.67-5.35-3.15-.92-10.9-7.08-13.75,1.59-1.21,5.15.59,3.82-2.77-1.07-2.7-.32-4.67,1-7,.71-1.29,1.91-3.06.78-4.7a12,12,0,0,1-1.64-11.32,4.67,4.67,0,0,0-.43-3.36c-2.16-3.95-3.19-7.91-1.14-12.22.66-1.4,1.27-3.15.07-4.23-2.5-2.27-2.88-5.49-4.34-8.21C364,218.33,366.18,215.72,364.14,214.57Zm47.49-46.49c-1-1.86-3.59-2-2.59-4.32.5-1.16-.35-1.95-1.47-2-1.65-.13-1.76,1.13-1.8,2.35-.07,1.79.3,3.64-1.67,4.88-1.2.77-2,2.2-.37,3.21a2.31,2.31,0,0,0,3.44-1C407.91,169.23,409.2,168.35,411.63,168.08ZM397.11,284.55c-.18-.37-.34-.85-.43-.84-.46.06-1.06.11-1.3.41a.6.6,0,0,0,.51,1C396.29,285.12,396.7,284.75,397.11,284.55Zm-21.34-25.27.4-.21c-.12-.1-.23-.26-.35-.27s-.26.13-.39.2Z" transform="translate(-358.49 -89.35)"/><path class="cls-1" d="M506.72,90.58l1.94-.66c1.5,4.55,4.89.31,7.11,1.53,4.14,1.67,8.44,3,12.21,5.5,0,.49-.17,1.25.07,1.42,3.17,2.27,7.46,2.8,9.66,6.75.5.88,3.14.75,4.23-1.07l1.71.32c1.23.92-1.15,2.9.6,3.22,4.35.79,7.63,5,12.56,3.76h0c0,2.18,1.56,2.53,3.17,2.88h0c0,1.87,0,3.71,2.76,2.45l1.8.23c.31.74.45,2,.94,2.13A31.74,31.74,0,0,1,579.75,128c2.78,3,7,4.82,9.38,8.36,1.53,2.23,4.65.23,5.94,2.71,1.95,3.71,6.84,4.17,8.76,8.29,1.79,3.81,6.76,5.07,8.59,9.27,1.26,2.91,3.33,4.71,6.62,6.32,2.43,1.18,3.39,7,3.56,10.84.22,4.65,4.85,7.05,4.78,11.58,0,.52,1.11,1.39,1.82,1.55,4.87,1.06,4.95,5.4,6.35,8.89.72,1.81-.69,4.1,1.32,5.57v0l.63,1.15a.85.85,0,0,1,.38.67c2.09,3.47-.93,8.25,2.89,11.27.06.57.12,1.15.17,1.72.94,2.28-2.8,6.18,2.42,7,.17.37.33.74.5,1.12-.1,3.06.54,6.08-1.44,9.05-.81,1.22.15,3.63.31,5.5l3.24-.44a.48.48,0,0,1,.3.5c-1.4,2.58-4,4.47-2.18,8.38a10.49,10.49,0,0,1-.18,8.07c-1.3.49-2.72,2-3.89,0-2-3.31-.65-6.3,1.73-9.4-1.39,0-3,.28-3.13,0-1.5-3.66-9.77-4.88-4.12-11.2.79-.88-.36-2.17-.65-3.28-1.16-4.42-2.51-8.93,0-13.29,3.61-6.21-.82-11-2.71-16.24-1.42-3.93-8.15-3.14-8-8.81,0-.87-1.7-.19-2.65-.15-3.75.16-5.17-.68-7.44-3.95a2,2,0,0,0-1.33-.54c-4-.4-5.29-3-4.59-6.47.6-3-2.64-5.33-.37-8.8,3.22-4.91-.31-12.1-5.43-12.42-6.77-.42-7.52-1.24-6.08-8.1.47-2.21.09-4.11-1.71-4.54-2.88-.71-5.2-3.1-8.39-2.68-3.53.46-5.34-1-5.44-4.65-.09-2.9-1.54-5.6-4-6.51-5.57-2.06-8.92-6.77-13.38-10.12-3.05-2.28-7.58-1.83-9.45,1.4s-3.39.64-3.65-.56c-1-4.65-6.37-5.87-7.62-10.29-.39-1.4-1.48-.29-2.35.16-4.44,2.33-9.63-.34-14.27,2.25-1.46.82-4.22-1.92-4.91-3.56-2-4.8-6.2-7.26-9.7-10.79-1.16,2.43-.48,4.61-.66,6.72a2.14,2.14,0,0,1-1,2c-1.6-2.52-4.27-4.32-4.86-7.53a1.56,1.56,0,0,0-1.88-1.24,1,1,0,0,0-.82,1.46c1,2.85,0,5-2.6,6.12-3.52,1.49-3.7-2.28-5.33-3.78a5.77,5.77,0,0,1-1.65-3.53c-.21-1.25-1.51-1.82-2.2-1.13-2.56,2.56-7.61,2.73-8.72,5-3.06,6.17-5.45,2.38-7.56.16-2.8-2.93-4.74-3.35-7.64-.1-1.73,1.94-4.21,5-7.1.67-.65-1-2.09,0-2.33.86-2,6.93-8.06,7.78-13.65,9-3,.66-4.12,1.61-3,4.66.57,1.54,1,3.67-.27,4.7s-2.89-.72-3.68-1.66c-2.49-2.94-4.2.36-6.12.69-2.58.45.4,1.89.14,2.8-.65,2.26.37,6-2.13,6.54-4.35,1-6.1,4.25-8.44,7.13-.82,1-1.39,2.72-3,1.35-3.86-3.32-7.5-.48-10.93.57-4.18,1.29-9.69,1.42-10,8.14,0,1-3.5,4.59-5.3-.05,2-1.49,4-2.91,4.84-5.45.3-.91.94-2.19,1.67-2.39,5.91-1.65,8.38-7.7,13.49-10.29a9.08,9.08,0,0,0,3.2-3c2.78-3.87,5.33-7.55,10.27-9.61,3.12-1.3,5.51-4.7,9-6.42,2.54-1.25,4.64-3.09,7.73-2.51a2.08,2.08,0,0,0,1.78-.58c5-8,14.35-7.9,21.75-10.69,5.12-1.93,10.86-5.19,17.12-3.62a2.34,2.34,0,0,0,1.91-.25c4.36-5,10.94-2.87,16.16-5C501.27,91.71,505,95.61,506.72,90.58Z" transform="translate(-358.49 -89.35)"/><path class="cls-1" d="M511,355.15c-.1-2.15.35-3,3-3,2.85,0,6.51,2.36,8.69-1.65,4.64,1.33,9.35.9,14.12.81-.66-2.36-2.76-5.44,2.37-4,.43.12,1.07-.55,1.61-.85h0c4.33.19,8.61,4.11,13,.14.22-.2,1.34.24,1.73.67,1.1,1.22,2.61.32,3.54.69,4.67,1.85,8.45,1,12.11-2.33.93-.83,2.53.28,3.72.87s2.84,1.56,3.74.7c2.91-2.79,5.46-4.34,8.54-.25.5.66,1.39-.42,2-1a5.82,5.82,0,0,1,3.59-1.56c.12.72.1,1.58,1.2,1.51a.48.48,0,0,0,.31-.31c.07-1.1-.79-1.08-1.51-1.2,0-2.05,0-2.2,4.24-3.77,8.14-3,12.66-9.5,16.22-16.75,1.07-2.17,1-4.74,4.11-5.22.44-.07,1.14-1.89,1-2.06-5.6-5.1.26-3.74,2.46-4.55a1.93,1.93,0,0,0,.91-1.6c-.75-5.44,8.15-3.91,6.89-9.64a8,8,0,0,0,1,0c4.3-.47,2.53-4.16,1.44-4.77-3.28-1.85-1-3.41-.79-5.3,1.7.32.84,4.06,3.41,2.05,1.52-1.18.83-2.33-.43-3.2s-1.86-2.19-1-3.4c1.12-1.54,1.17-2-.62-3.28-2.66-1.85,3.82-3.16.88-5.79-.26-.23,1.54-.58,2.48-.56,2.63.07,5.1-3.7,3.26-5.35-2.93-2.61-3-5.33-1.08-7.85,1.74-2.34,2.69-6,6.7-5.95.07,4.71-.36,9.4.31,14.13a13.05,13.05,0,0,1-2.85,10.1c-1.15,1.51-3.36,6,2,7.06.88.18,1.08,1,.31,1.93-2,2.31.24,3.5,1.46,4.94l0,0c-2.76-.09-1.9,1.71-2,3.37-.35,5-.15,10.47-5,13.7a6.68,6.68,0,0,0-3.22,6.68h0c-.54.29-1.52.53-1.56.87-.51,4.68-4.47,6.51-7.42,9.17l-.4-.24.42.21c0,2.07-1.88,3-3.17,3.42-9.57,2.78-9.7,13.17-15.53,18.91a8.39,8.39,0,0,0,.57.73,1.21,1.21,0,0,1,0,.88c-2.53,1.7-5.17,3.46-7.63,4.94-1.77,1.07-.13,3.59-2.22,3.14-6-1.3-6,5.28-9.37,7.62s-6.63,4.9-10,2c-1.19-1-2.19-2.08-3.87-1.24-1.95,1,.81,2.39-.28,3.75-4.85-2.37-10.23-5.32-14.72-5.35-5.14,0-9.06-3.88-14-2.66a.56.56,0,0,1-.69-.28c-.06-1,0-2.14-1.05-2.56-5.31-2.18-10.33-5.66-16.57-3.94l-2.3-.21-1.14-.14C519.3,358.51,515.15,356.86,511,355.15Zm73.29,13.22.8-.4c-.25-.15-.48-.42-.74-.43s-.52.22-.78.35Z" transform="translate(-358.49 -89.35)"/><path class="cls-1" d="M454,337.45c7.19.65,14.32.54,21.16,4.32,2.33,1.29,6.49,1.29,9.74,2.26.94.28,2.17.41,2.72,1.07,1.43,1.69,5.21,2.1,4.43,4.51-.66,2-3.4-.42-5.34-.16a61.85,61.85,0,0,1-8.06.09l0,1.22,9.82.71c.81.06,1.8,0,1.91,1.08a1.61,1.61,0,0,1-1.49,1.68c-2,.37-4.07.57-4.05,3.35l-3,1.86c-.89-.07-1.63.11-1.93,1.09h0l-1,1-1.25.8c-4.1.6-9.13-.08-12.08,2.09-5,3.68-7.59,1-10.45-2-1.49-1.52-2.62-1.69-4.7-1.47-7.54.83-15.3,2.39-22.06-2.95-.49-.39-1.41-1.06-1.54-.95-4.46,4-7.79-1-11.67-1.42-.7-.08-2-.11-1.74-1.26.27-1.3,1.58-.81,2.5-.93l.4.25-.44-.22c-.25-1.32.45-2.79-.65-4.25-2.74,4.28-6.31,1.88-9.63,1.44-5.83-3-12.18-5.46-13.09-13.32-.23-2-1.92-2.87-3.34-4-4-3.3-6.68-7.31-5.39-12.85,1-4.51-2.16-7.81-3.17-11.72a6,6,0,0,0,1.15-4.13c1-.75,1.66-1.79.39-2.58-.94-.57-1.09.64-1.25,1.37l-1.18.11-4.95-1.86-.94-2c.11-2,.37-4.16,3-2.08,1.63,1.29,3.49,1.07,5.18,1.38,3.19.6,6.08,1.17,6.76,5.11.61-.52,1-.68,1-.9.8-4.22,4.34-4.75,6.81-3.24,3.5,2.14-1.93,2.22-1.75,4.12.1,1-.63,2.07-1,3.22,2.14.18,4,1.65,6.27,1.05.95-.25,1.72-.23,1.52,1-.13.86-.86.88-1.54.7-1.38-.37-3.46-1.34-3.65.66-.27,2.92.6,6.22,3,8,2.22,1.64,2.58-2.36,4.87-2.68.91,2.39,1.74,6.73,4.92,5.17,5.71-2.8,8.92.44,12.65,3.3-.79.17-2.12.12-2.3.55-2,4.72-4,4-5.91-.28-1.76,2.22,2,6.05-3.15,6.17,3,1.55,9.71-1.86,6.42,5.78-.09.2,1,1,1.67,1.42,3.25,1.88,5.22,4.28,3.26,8.12,3.91-.5,7.2-1.6,9.5-4.68a1.88,1.88,0,0,1,2.62-.71c1.47,1.09-1.18,1.84-.31,3.1,1.81.24,4-1.51,5.59.06,2.38,2.35,3.56.48,5.4-.71C447.72,341.33,450.12,338.17,454,337.45Zm-50.44-11.3c2.67,2.43,4.64,4.45,7.49,2.81,1.09-.63-.2-1.65-.63-2.45C408.55,323,406.43,325.58,403.58,326.15Zm36.55,27.05c-2.6-4-4-1.43-6.65,1.09Zm29.6-1.5c2.71-.48,4.3.18,6.09-1.31C473.66,349.15,472.23,349.63,469.73,351.7Zm-29.91-2.45.39-.21c-.11-.09-.22-.24-.34-.25s-.26.12-.39.19Z" transform="translate(-358.49 -89.35)"/><path class="cls-1" d="M389.64,152.26c1.8,4.64,5.26,1,5.3.05.34-6.72,5.85-6.85,10-8.14,3.43-1,7.07-3.89,10.93-.57,1.6,1.37,2.17-.35,3-1.35,2.34-2.88,4.09-6.14,8.44-7.13,2.5-.57,1.48-4.28,2.13-6.54.26-.91-2.72-2.35-.14-2.8,1.92-.33,3.63-3.63,6.12-.69.79.94,2.26,2.8,3.68,1.66s.84-3.16.27-4.7c-1.13-3,0-4,3-4.66,5.59-1.22,11.65-2.07,13.65-9,.24-.84,1.68-1.84,2.33-.86,2.89,4.38,5.37,1.27,7.1-.67,2.9-3.25,4.84-2.83,7.64.1,2.11,2.22,4.5,6,7.56-.16,1.11-2.24,6.16-2.41,8.72-5,.69-.69,2-.12,2.2,1.13a5.77,5.77,0,0,0,1.65,3.53c1.63,1.5,1.81,5.27,5.33,3.78,2.61-1.1,3.58-3.27,2.6-6.12a1,1,0,0,1,.82-1.46,1.56,1.56,0,0,1,1.88,1.24c.59,3.21,3.26,5,4.86,7.53.06,3.37.18,6.75-1,10-.38,7.34-2.2,14.55-1.89,22,.09,2-.21,4.13,1.53,5.49s3,0,4.5-.83a8.93,8.93,0,0,1,2.86-.62h0c-1.46,3.51-4.44,4.64-7.89,5.05a2.29,2.29,0,0,0-2.12-1.09c.68-6.79-.44-12.66-7.75-15.47-.52-.2-.81-1-1.21-1.49,7.62,1.35,7.69,1.36,9.44-7a82.83,82.83,0,0,0,1.45-10.28c.2-2.62-1.3-4.88-3.83-3.05-4.88,3.5-8.84.57-12.78-1.2-5.06-2.26-6.26-2.13-7.28,3.16a3.75,3.75,0,0,1-5.28,2.78c-2.46-1.19-6.07-1.58-6.74-5.22-.24-1.34-.79-2.17-2.26-2s-1.65,1.34-1.76,2.54a10.22,10.22,0,0,1-1.74,5c-1.76-1,.07-2.35-.62-3.18-1.11-1.32.35-5-2.91-4-2.36.72-6.21,1.45-4.46,5.85.9,2.27-1.09,3.7-2.07,5.16-.78,1.14-2.8.93-4-.3-1.43-1.46-2.3-.35-3.34.49-3,2.42-5.21,5.53-7.86,8.25-2.91,3-6.21,5.66-9.34,8.46-2,1.76-3.54,3.58-1.54,6.34,1.22,1.69,1.48,3.59-.47,4.78s-3.17.24-3.85-2.07c-.56-1.91-1.92-.86-2.46.19-1.41,2.77-2.61,3.24-6.35,3.28-4.08,0-8.16,3.74-13,.66-.36-.23-2.68,3.19-2.83,5.23a5.18,5.18,0,0,1-5,5.15c-5.22.55-4.52,3.2-2.89,6.55.47,1,2.1,1.73,1.14,2.95s-2,0-3-.45c-2.58-1-6.08,1.42-5.77,3.89,1,7.73-1,9.95-8.27,9.2-.83-.08-1.66-.1-2.49-.15.35-1.28.7-2.56,1-3.83,2.1-1.57.88-3.71,1-5.62a2.84,2.84,0,0,1,1.52-2.39c2.66-.92,1.47-3,1.38-4.69.1-.45.2-.9.29-1.35,1.78-.65,2.18-2.41,3-3.8,2.32-1.92,2.31-5.06,3.84-7.37C386.66,154.75,387.31,152.64,389.64,152.26Z" transform="translate(-358.49 -89.35)"/><path class="cls-1" d="M636.87,201.35c-2-1.47-.6-3.76-1.32-5.57-1.4-3.49-1.48-7.83-6.35-8.89-.71-.16-1.83-1-1.82-1.55.07-4.53-4.56-6.93-4.78-11.58-.17-3.83-1.13-9.66-3.56-10.84-3.29-1.61-5.36-3.41-6.62-6.32-1.83-4.2-6.8-5.46-8.59-9.27-1.92-4.12-6.81-4.58-8.76-8.29-1.29-2.48-4.41-.48-5.94-2.71-2.43-3.54-6.6-5.37-9.38-8.36A31.74,31.74,0,0,0,565.49,119c-.49-.15-.63-1.39-.94-2.13,2-.75,3.52.44,5.11,1.29,2.77,1.49,5.4,3.31,8.73,3.37,1.64,0,2.77,1.13,3.79,2.2,5.79,6.09,12.63,10.81,19.25,15.89,5.45,4.18,12.86,7.37,15.4,15.29,1.13,3.5,5.13,5.58,7.13,9.08a234.39,234.39,0,0,1,12.72,24.59C638.43,192.75,638,197.09,636.87,201.35Z" transform="translate(-358.49 -89.35)"/><path class="cls-1" d="M545.64,365.54c4.94-1.22,8.86,2.63,14,2.66,4.49,0,9.87,3,14.72,5.35,1.09-1.36-1.67-2.78.28-3.75,1.68-.84,2.68.21,3.87,1.24,3.33,2.89,6.74.25,10-2s3.33-8.92,9.37-7.62c2.09.45.45-2.07,2.22-3.14,2.46-1.48,5.1-3.24,7.63-4.94.07.66.46,1.59.17,1.93-6.29,7.26-9.94,16.76-21.5,19.14-5.89,1.21-11.33,2.25-17,.89C561,373.27,552.4,371.59,545.64,365.54Z" transform="translate(-358.49 -89.35)"/><path class="cls-1" d="M645.11,295.59c-1.22-1.44-3.43-2.63-1.46-4.94.77-.9.57-1.75-.31-1.93-5.36-1.05-3.15-5.55-2-7.06a13.05,13.05,0,0,0,2.85-10.1c-.67-4.73-.24-9.42-.31-14.13,0-.71,0-1.43,0-2.14a10.49,10.49,0,0,0,.18-8.07c-1.87-3.91.78-5.8,2.18-8.38.39.3,1.09.57,1.13.91q1.13,10.29,2.07,20.61c.07.79-.75,1.79-.49,2.4,3.39,8-2,15.79-.24,23.75A8.36,8.36,0,0,1,645.11,295.59Z" transform="translate(-358.49 -89.35)"/><path class="cls-1" d="M405.55,350.71c3.32.44,6.89,2.84,9.63-1.44,1.1,1.46.4,2.93.65,4.25l0,0c-.92.12-2.23-.37-2.5.93-.23,1.15,1,1.18,1.74,1.26,3.88.41,7.21,5.47,11.67,1.42.13-.11,1.05.56,1.54.95,6.76,5.34,14.52,3.78,22.06,2.95,2.08-.22,3.21-.05,4.7,1.47,2.86,2.92,5.44,5.64,10.45,2,3-2.17,8-1.49,12.08-2.09-5.56,5.11-12.17,6.63-19.49,5.7-.49-.06-1.25-.18-1.37-.48-2.76-6.76-7.8-3.43-12.42-3.15a35.42,35.42,0,0,1-16.17-2.94,5.06,5.06,0,0,0-3.28-.46,43.53,43.53,0,0,1-4.45.41C412.36,362.17,407.78,358.08,405.55,350.71Z" transform="translate(-358.49 -89.35)"/><path class="cls-1" d="M364.14,214.57c2,1.15-.17,3.76,1.7,5-1.72,2.44-6.1,4.69-3.57,7.74,2.18,2.64,1.63,4.23,1,6.7-.51,1.84-1.36,3.68-.85,5.76,1.65,6.77-.62,13.94,2,20.64.42,1.07.77,2.24-.47,3.12l-3-1.83a91.85,91.85,0,0,0-2-11.49c-1.44-7.53,1.28-14.28,1.44-21.34C360.47,223.48,360.5,218.72,364.14,214.57Z" transform="translate(-358.49 -89.35)"/><path class="cls-1" d="M625.83,329.42c2.95-2.66,6.91-4.49,7.42-9.17,0-.34,1-.58,1.56-.87.37,7.78-4,12.5-10.4,15.73a7,7,0,0,0-4,4.33c-2.25,6-6,11.09-12.68,13a8.39,8.39,0,0,1-.57-.73c5.83-5.74,6-16.13,15.53-18.91,1.29-.38,3.13-1.35,3.17-3.42Z" transform="translate(-358.49 -89.35)"/><path class="cls-1" d="M360.88,261.67l3,1.83c-.26,4.94-.93,9.77,2.52,14.29,1.41,1.85,1.67,4.87,1.3,7.66-.77,5.84,2.61,10.09,6.06,14.22l.94,2c-5.16-1.37-9.71-8.91-9.68-16,0-1.3.39-3-.27-3.85C360,275.73,359.9,268.83,360.88,261.67Z" transform="translate(-358.49 -89.35)"/><path class="cls-1" d="M373.73,187.52c1.56,1.71,5.37,3.24.4,5.47-.81.36-1,1.1-.79,2.06,1.25,5.84,1.23,5.84-4.46,5.52l-1.32-1.13c2-2.13-.53-4.68.63-6.89a7.3,7.3,0,0,0,3.24-5.37Z" transform="translate(-358.49 -89.35)"/><path class="cls-1" d="M634.82,319.37a6.68,6.68,0,0,1,3.22-6.68c4.87-3.23,4.67-8.68,5-13.7.12-1.66-.74-3.46,2-3.37-.42,5.08,1.81,10.22-1.64,15.3C641,314.44,638.65,317.52,634.82,319.37Z" transform="translate(-358.49 -89.35)"/><path class="cls-1" d="M527.33,358.76c6.24-1.72,11.26,1.76,16.57,3.94,1,.42,1,1.59,1.05,2.56C538.87,363.66,532.55,362.72,527.33,358.76Z" transform="translate(-358.49 -89.35)"/><path class="cls-1" d="M541.94,104.05c-1.09,1.82-3.73,2-4.23,1.07-2.2-4-6.49-4.48-9.66-6.75-.24-.17-.06-.93-.07-1.42C533.21,98.18,537.66,101,541.94,104.05Z" transform="translate(-358.49 -89.35)"/><path class="cls-1" d="M646,238.34l-3.24.44c-.16-1.87-1.12-4.28-.31-5.5,2-3,1.34-6,1.44-9.05,2.86,2.33,2.39,5.59,2.36,8.7C646.19,234.74,646.05,236.54,646,238.34Z" transform="translate(-358.49 -89.35)"/><path class="cls-1" d="M556.81,111.35c-4.93,1.29-8.21-3-12.56-3.76-1.75-.32.63-2.3-.6-3.22C549,104.9,551.89,110,556.81,111.35Z" transform="translate(-358.49 -89.35)"/><path class="cls-1" d="M367.56,199.44l1.32,1.13c-3,3.44-2.1,8.39-4.63,12C363.51,207.74,364,203.22,367.56,199.44Z" transform="translate(-358.49 -89.35)"/><path class="cls-1" d="M640.76,214.42c-3.82-3-.8-7.8-2.89-11.27C643,205.84,640.75,210.42,640.76,214.42Z" transform="translate(-358.49 -89.35)"/><path class="cls-1" d="M515.77,91.45c-2.22-1.22-5.61,3-7.11-1.53C511.3,89.17,513.87,88.75,515.77,91.45Z" transform="translate(-358.49 -89.35)"/><path class="cls-1" d="M643.35,223.11c-5.22-.79-1.48-4.69-2.42-7C644.33,217.57,642.56,220.78,643.35,223.11Z" transform="translate(-358.49 -89.35)"/><path class="cls-1" d="M506.72,90.58c-1.75,5-5.45,1.13-8.16,1.78C501.11,91,504,91.07,506.72,90.58Z" transform="translate(-358.49 -89.35)"/><path class="cls-1" d="M381.71,304.65a6,6,0,0,1-1.15,4.13c-1.84-1.48-1-3.41-.89-5.23l1.18-.11C381.13,303.85,381.42,304.25,381.71,304.65Z" transform="translate(-358.49 -89.35)"/><path class="cls-1" d="M371.43,187.18a7.3,7.3,0,0,1-3.24,5.37C369,190.56,368.44,187.82,371.43,187.18Z" transform="translate(-358.49 -89.35)"/><path class="cls-1" d="M375.54,175.93c-.07,1.91,1.15,4-1,5.62C374.14,179.55,374.11,177.62,375.54,175.93Z" transform="translate(-358.49 -89.35)"/><path class="cls-1" d="M378.44,168.85c.09,1.72,1.28,3.77-1.38,4.69C377.31,171.91,377.19,170.18,378.44,168.85Z" transform="translate(-358.49 -89.35)"/><path class="cls-1" d="M562.75,116.67c-2.76,1.26-2.78-.58-2.76-2.45Z" transform="translate(-358.49 -89.35)"/><path class="cls-1" d="M381.77,163.7c-.86,1.39-1.26,3.15-3,3.8C379,165.63,379.75,164.16,381.77,163.7Z" transform="translate(-358.49 -89.35)"/><path class="cls-1" d="M560,114.22c-1.61-.35-3.22-.7-3.17-2.88C558.28,111.84,559.63,112.49,560,114.22Z" transform="translate(-358.49 -89.35)"/><path class="cls-1" d="M373.73,187.52l-2.29-.34a2.46,2.46,0,0,1,2.11-1.9Z" transform="translate(-358.49 -89.35)"/><path class="cls-1" d="M479.9,360.53c.3-1,1-1.16,1.93-1.09C481.54,360.42,480.8,360.62,479.9,360.53Z" transform="translate(-358.49 -89.35)"/><path class="cls-1" d="M523.89,358.41l1.14.14a5.08,5.08,0,0,1-.84.19C524.09,358.74,524,358.53,523.89,358.41Z" transform="translate(-358.49 -89.35)"/><path class="cls-1" d="M637.49,202.48l-.63-1.15A.87.87,0,0,1,637.49,202.48Z" transform="translate(-358.49 -89.35)"/><path class="cls-1" d="M478.86,361.54l1-1A1,1,0,0,1,478.86,361.54Z" transform="translate(-358.49 -89.35)"/><path class="cls-1" d="M516.74,341.35c4.81-6,11.57-9.88,17-15.24a14.91,14.91,0,0,0,3.18-3.64c4.72-2.87,9.73-5.43,11.91-11h0c2.58-.09,3.07-1.82,3.07-3.93,6.5-.57,9.51-6.51,14.48-9.45.3-.17.34-1.34.07-1.77-.62-1-1.45-.39-2.05.14-4.16,3.7-9,6.61-12.61,11l-1.93.1c-1-1.34-3-3.07-2.67-3.93,1.37-3.67-1.91-4.21-3.34-6-.72-.89-1.6-1.44-2.45-.47a1.92,1.92,0,0,0,.36,3c.77.59,2.38-.09,2.61,1.59-1.3.28-2.42.49-3.54.77-1.66.41-3.6,2.39-4.66-.66-.7-2-.69-3.77,2-4.7,1.85-.66,2.58-2.67,2.6-4.49a7.78,7.78,0,0,1,2.74-6.22c2.73-2.66-.24-6.81.84-10.23a10.31,10.31,0,0,0-1.69-.69c-1.25-.37-2.52-.69-3.78-1,1.22-4.82,1.73-9.89,5-14,.25,4.38-1.22,9.21,3.58,12.94,1.27-3.79,3.52-6.36,7.38-7.12a2,2,0,0,0,1.67-1.63c.35-1.86-3.43-6.87-5.34-7.22-1.45-.26-2.88-.65-4.32-1l0-2c4.28,1.37,8.74.3,13.1.93,1.33.2,3.43.59,3.67-1.46.37-3.17.9-7.26.09-9.43-2-5.22.92-6.75,4.11-8.4,1.91-1,4.05-1.65,5.37-3.36,2.62-3.4,6.54-4.5,10.12-6.25s4.83-4.3,3.51-8.07c.05-2.69,4.53-1.83,4-5h0c1.18-.28,3.06.73,3.35-1,.21-1.24-1.46-.8-2.35-1-.27-2.92,1.08-6.31-1.09-8.67s-8.75-1.93-3.43-7.51c0,0-.14-.26-.23-.38-3.55-4.58,5-4.46,3.23-8.33,5.37.27,5.78-4.44,7.88-7.59l-4.37-1.51c1-2.52,2.49-4.52,5.3-5.47,1.17-.39,2.1-2,3.19-.17.71,1.17.93,2.66-.61,3.42-2.73,1.36-1.83,2.72-.55,4.67a10.3,10.3,0,0,1,1.14,9.48c-.87,2.4-1.12,4.4.4,6.83,2.88,4.61,4.41,9.32-2.76,11.76-.08,0-.07.31-.1.47-1.18.11-2.29.35-2.57,1.73a.68.68,0,0,0,.85.85c1.38-.28,1.62-1.39,1.73-2.57,5.08.53,8.14-2.08,9.92-6.52.4-1,.21-2.82,1.95-1.81,2.17,1.26,5.17,2.31,3.76,6-.54,1.42-1.28,3.08.28,4.09,2.5,1.62,1.38,3,.48,5-.5,1.08-2.49,3.83.12,4,4.86.29,2.64,3.36,2.66,6.21,2.53-1.85,4.29-1.26,5.46.91a1.81,1.81,0,0,1-.83,2.57c-2.2,1.12-3.67.68-5.35-1.57s-4.64-3.91-7-5.83c-1.41-1.12-2.81-.8-3.08.79-.36,2.17-2.09,4.26-.81,6.68,1.62.47,1.88-4.07,4-1.11,1.33,1.83,1.11,2.94-.7,4.93-4.76,5.27-10.1,10.13-13.48,16.61-2.67,5.11-3.67,11-7.43,15.57-2.8,3.37-2.33,8.61-6.15,11.14-5.41,3.57-8.78,9-13.26,13.43-.92.91-2,1.88-.76,3.69a20.13,20.13,0,0,0,3.06-2.25c3-3.27,6.06-6.56,8.89-10,2.33-2.82,4.52-5.08,8.76-3.64,1.9.65,4.2.11,6.32.11-6.9-1.46-8.18-3.64-5.57-10.17.49-1.22,1.4-2.27,1.92-3.48,1.57-3.61,3.58-7,5.24-10.57,2-4.28,3.84-9.68,9.76-11,1.51-.33,1.41-2,1.95-3.17,2.83-6.32,6.12-9.85,13.29-7.21,1.49.55,4.25-.34,4.32,2.34.05,2.08-2,2.88-3.61,3.73-1.93,1-4,1.93-4,4.57,0,1.49.64,2.88,2.21,2.76,2.42-.17.51-1.44.43-2.34-.17-1.77,1.3-2.53,2.59-3.2a1.72,1.72,0,0,1,2.25.5c.78,1.23,0,2.27-.88,3.06-1.54,1.34-.74,2.09.47,3.05.81.65,1.18,2.33.23,2.52-2.83.56-3.67,3.06-5.38,4.68a2,2,0,0,1-3.06.18c-1-.9-1.56-2.87-3.55-1.75s-.49,2.61-.49,4a23.77,23.77,0,0,1-.5,3.91c-.2,1.18.48,2.47,1.35,2.22,6.6-1.89,6.19,4,8.64,7.29-3.11.17-5,1.65-7.24,3.47,2.91,1.14,4.45-1.22,6.54-1.37,1.3-.09,3-2,3.77.11.47,1.34-.12,3.77-1.73,4.31-4.32,1.46-7.34,5.2-11.59,6.47-2.82.85-3.53,2.54-3,4.78,1.13,4.94.77,10.44,4.92,14.36-2.35,1.67-5.29.63-7.77,2h3.76c-.81,4.49-1.78,9.05-7,10.39-5.91,1.52-11.54-.49-14-4.64-.43-.74-.49-1.07-1.29-.46-1.94,1.5-3.12-.09-4.17-1.28a5.8,5.8,0,0,0-6.8-1.67c-2.58,1-3.28,3.08-2.3,5.72.48,1.32-.31,1.83-1.5,1.85s-1.83-.61-1.46-1.9c.65-2.24-1.08-3.72-1.8-5.51-.34-.83-.67-2.24-1.89-1.92a2.33,2.33,0,0,0-1.48,2.82c.84,4-1.53,5-4.52,4.32-4.43-.94-4.1,1.33-3.25,4.13.31,1,1.88,1.89.48,3-3.25,2.52-7,4.41-10.45,7.07.43.26.58.12.34-.34s-.38-.89-.71-1c-.51-.22-.92.19-.7.71.14.34.63.53,1.07.66.67,2,1.27,3.63,3.35,4.31a1.41,1.41,0,0,1,.77,2.06c-.57,1.36-1.27.6-2.28.31-5.84-1.71-7.74-.86-8.89,3.58,3.39-1.41,4.75,2.49,7.47,2.85-3.17,1.42-6.55,1.63-9.94,2.05-7.1.88-14.4,1-20.93,4.57h-3C516.92,343.82,516.83,342.58,516.74,341.35Zm83.09-38.94c-3.44-2.34-7.4-.45-11.1-1.41a78.14,78.14,0,0,0-19.33-2.66c10,2.4,19.78,6.38,30.42,4.08,1.51,1.43,3,1.23,4.9.12C602.79,301.18,601.32,302.93,599.83,302.41Zm1.51-24c1-.43,2-.64,2-1.9,0-.26-.72-.81-.94-.73-.88.29-2.07.4-2.09,1.67C600.34,277.78,601,278.08,601.34,278.44Z" transform="translate(-358.49 -89.35)"/><path class="cls-1" d="M507.74,121.46c1.16-3.25,1-6.63,1-10a2.14,2.14,0,0,0,1-2c3.18.17.51,2.72,1.53,3.75a40.31,40.31,0,0,0,10.41,7.5c3.87,1.87,9.91,5.58,15.23,1a1.74,1.74,0,0,1,2.27.41c.66.78.12,1.44-.22,2.22-1.86,4.23-.75,6.48,3.91,7,2.21.26,3.53.84,4.64,2.82,2.16,3.85,6.27,3.68,9.65,3.1,2.19-.37,2.61.08,3.09,1.66,1.74,5.69,2.53,6.06,7.28,3.36,2.06-1.17,3.41-1.36,4.37,1.6a34.27,34.27,0,0,0,4.59,9.17c2.31,3.24.88,4.79-1.79,6.26-2.82,1.55-2.83,1.53-4,4.52,4.87-3.38,11-4.34,13.25-10.36a1.21,1.21,0,0,1,2-.54c.39.32.67,1.52.46,1.71-2.6,2.3-1.22,5.38-1.17,7.93,0,1.73-.66,4.72,1.94,5.64s5.1.35,6.5-2.57c1.73,2,.54,3.42,0,4.91-.83,2.23-2.09,4.41-.93,6.91a2.18,2.18,0,0,1-1,2,13,13,0,0,0-10,7,15.68,15.68,0,0,1-7,2c-1.41-1.78-3.44.5-5.06-.82-.76-.63-2.73,0-2.7-1.54.09-6.61-.08-13.29.83-19.81.47-3.35-.38-5.26-2.73-7.23,2.17,16.2.12,31.91-4.36,47.39a61,61,0,0,0-5,13.18,232.41,232.41,0,0,1-8.57,25.65c-2.87,7-6.89,13.55-9.1,20.64-3.36,10.77-8.7,20.54-13,30.82-1.88,4.51-4.76,8.68-5.33,13.71a39.54,39.54,0,0,0-6,11l-8.62-1.06-.05-.44,0-.45c.28-.32.55-.66.83-1,1.29-.41,3.33-.46,3.15-2.15s-2.12-.66-3.26-.93l-.69-.13c-.77-3.36.7-6.56.7-9.86.93-.66.94-1.31,0-2q0-6,0-12a2.46,2.46,0,0,0-.05-4c0-1.33,0-2.67,0-4,1.39-2.54,2.19-5-.79-7.07l0-2c1.69-2.13.46-4.63.87-6.93a2,2,0,0,0,2-1c3-.25,3,1.73,3,3.89-.06,4.67,1.24,9.15,2.08,13.7a2.14,2.14,0,0,0,1.43,1.87c.72.2,1.14-.27,1.4-1,1.66-4.58,4.62-2.29,7.23-1.24,1.08.43,1.57,2.39,3.26,1.21-1.36-3.11-1.6-3.34,0-5,2.45-2.56.53-3-1.4-3.35-1.62-.31-4-.07-3.61-2.33.59-3.62-1.09-2.58-3-2-1.72.49-3.3-.14-3-2.07.2-1.18-.13-3.88,2.72-3,1.27.39,2.33.33,2.95-1,.86-1.82,2-3.08,4.25-2.51s1.35,2.7,1.7,4.17c.19.76.51,1.15,1.32,1,.95-6.16-.11-7.75-5.7-8.28-1.57-.15-3-.31-3.51-2.13s.09-3.9,1.5-4.42c4.25-1.59,3.94-6.28,6.63-8.85.85-.81.75-2.11-.45-2.39-3.2-.76-.49-3.47-1.58-4.73-1.56-.54-2.2,1.85-3.6.94-.87-4.13,2.47-9.71-4.73-11.39-1.28-.3-3.07-4.42-.31-4.41,4.51,0,4.06-2.4,4.84-5.11a5.12,5.12,0,0,1,4.46-3.54c.86-.09,1.71-.33,1.8-1.35.11-1.35-1.2-1.28-1.92-1.84-2.26-1.75-4.18,1.43-6.85.4,1.29-1.17,2.25-2,3.18-2.9,3.43-3.22,3.82-9.49,10.13-9.92.86-.06.71-1.72.58-2.7-.18-1.38-1-1.4-2.18-1.06-1.53.46-2.81.43-2.16-1.78.43-1.46-.33-2.24-1.52-2.68s-2.46-.84-1.6-2.35c.63-1.1,1.67-.66,2.51.1,1.15,1,1.84.45,2-.77.22-1.73,1.36-2.09,2.78-2.25,3.22-.36,5-2.78,7.18-4.8,1.27-1.19.93-4.29,3.38-3.7a3.28,3.28,0,0,0,4.28-3.37c-.52-2.83,1.74-6.26-1.77-8.6-4.23-2.82-9.6-2.15-12.46,2-.88,1.28-1.56,2.57-3.35,2.57v0c-1-2.07,6.19-7-2.3-6.5-.19,0-.56-.79-.63-1.25-.43-3.07-2.83-6.33,1-9,1-.73,1.42-2.21,0-2.88-3.29-1.6-.81-2.17.37-3.11,3.18-2.55,1.83-6,.18-8-1.84-2.17-3.21,1.25-4.87,2.12-3.32,1.75-4.54,6.18-8.77,6.65h0c-1.29-3.63,1.88-5.29,3.6-7.33,1.92-2.27,2.59-7.52,0-8.31-3.16-1-3.13-3.48-3.34-5.39C514.48,121.6,512.53,119.67,507.74,121.46Zm58,34.31c1.53-3.2.34-5.92-1.47-9.33C563.14,150.31,564.46,153,565.73,155.77Z" transform="translate(-358.49 -89.35)"/><path class="cls-1" d="M592.78,177.44c-1.16-2.5.1-4.68.93-6.91.56-1.49,1.75-2.92,0-4.91-1.4,2.92-3.89,3.49-6.5,2.57s-1.9-3.91-1.94-5.64c0-2.55-1.43-5.63,1.17-7.93.21-.19-.07-1.39-.46-1.71a1.21,1.21,0,0,0-2,.54c-2.3,6-8.38,7-13.25,10.36,1.13-3,1.14-3,4-4.52,2.67-1.47,4.1-3,1.79-6.26a34.27,34.27,0,0,1-4.59-9.17c-1-3-2.31-2.77-4.37-1.6-4.75,2.7-5.54,2.33-7.28-3.36-.48-1.58-.9-2-3.09-1.66-3.38.58-7.49.75-9.65-3.1-1.11-2-2.43-2.56-4.64-2.82-4.66-.54-5.77-2.79-3.91-7,.34-.78.88-1.44.22-2.22a1.74,1.74,0,0,0-2.27-.41c-5.32,4.63-11.36.92-15.23-1a40.31,40.31,0,0,1-10.41-7.5c-1-1,1.65-3.58-1.53-3.75.18-2.11-.5-4.29.66-6.72,3.5,3.53,7.66,6,9.7,10.79.69,1.64,3.45,4.38,4.91,3.56,4.64-2.59,9.83.08,14.27-2.25.87-.45,2-1.56,2.35-.16,1.25,4.42,6.61,5.64,7.62,10.29.26,1.2,1.7,3.9,3.65.56s6.4-3.68,9.45-1.4c4.46,3.35,7.81,8.06,13.38,10.12,2.45.91,3.9,3.61,4,6.51.1,3.63,1.91,5.11,5.44,4.65,3.19-.42,5.51,2,8.39,2.68,1.8.43,2.18,2.33,1.71,4.54-1.44,6.86-.69,7.68,6.08,8.1,5.12.32,8.65,7.51,5.43,12.42-2.27,3.47,1,5.82.37,8.8-.7,3.51.55,6.07,4.59,6.47a2,2,0,0,1,1.33.54c2.27,3.27,3.69,4.11,7.44,3.95,1,0,2.68-.72,2.65.15-.14,5.67,6.59,4.88,8,8.81,1.89,5.22,6.32,10,2.71,16.24-2.54,4.36-1.19,8.87,0,13.29.29,1.11,1.44,2.4.65,3.28-5.65,6.32,2.62,7.54,4.12,11.2.13.32,1.74,0,3.13,0-2.38,3.1-3.68,6.09-1.73,9.4,1.17,2,2.59.45,3.89,0,0,.71,0,1.43,0,2.14-4-.07-5,3.61-6.7,5.95-1.87,2.52-1.85,5.24,1.08,7.85,1.84,1.65-.63,5.42-3.26,5.35-.94,0-2.74.33-2.48.56,2.94,2.63-3.54,3.94-.88,5.79,1.79,1.25,1.74,1.74.62,3.28-.88,1.21-.33,2.5,1,3.4s2,2,.43,3.2c-2.57,2-1.71-1.73-3.41-2.05-.22,1.89-2.49,3.45.79,5.3,1.09.61,2.86,4.3-1.44,4.77a8,8,0,0,1-1,0c1.26,5.73-7.64,4.2-6.89,9.64a1.93,1.93,0,0,1-.91,1.6c-2.2.81-8.06-.55-2.46,4.55.19.17-.51,2-1,2.06-3.15.48-3,3.05-4.11,5.22-3.56,7.25-8.08,13.76-16.22,16.75-4.24,1.57-4.19,1.72-4.24,3.77h0a5.82,5.82,0,0,0-3.59,1.56c-.62.54-1.51,1.62-2,1-3.08-4.09-5.63-2.54-8.54.25-.9.86-2.53-.09-3.74-.7s-2.79-1.7-3.72-.87c-3.66,3.29-7.44,4.18-12.11,2.33-.93-.37-2.44.53-3.54-.69-.39-.43-1.51-.87-1.73-.67-4.42,4-8.7.05-13-.14-.09-.64-.08-1.38-.93-1.5-.17,0-.58.39-.55.56.11.85.86.83,1.49.93-.54.3-1.18,1-1.61.85-5.13-1.39-3,1.69-2.37,4-4.77.09-9.48.52-14.12-.81-1.22-.3-2.48-.51-3.66-.92-.85-.29-2-.65-1.6-1.91.33-1.06,1.38-1.18,2.36-1.24,10-4.38,21-3.2,31.33-5.81a12.36,12.36,0,0,1,5.86-.36c5.88,1.37,11-1.8,16.47-3a1.28,1.28,0,0,0,1-1.88,1.3,1.3,0,0,0-2.08-.47c-5.37,3.64-11.48,3.55-17.58,3.51-.48-1.24,2-3-.36-3.71-1.86-.53-1.42,1.8-2.16,2.75a4.28,4.28,0,0,0-.42.89l-1,.08c-2.72-.36-4.08-4.26-7.47-2.85,1.15-4.44,3-5.29,8.89-3.58,1,.29,1.71,1.05,2.28-.31a1.41,1.41,0,0,0-.77-2.06c-2.08-.68-2.68-2.3-2.94-4.2,3.08-2.77,6.79-4.66,10-7.18,1.4-1.09-.17-2-.48-3-.85-2.8-1.18-5.07,3.25-4.13,3,.64,5.36-.34,4.52-4.32a2.33,2.33,0,0,1,1.48-2.82c1.22-.32,1.55,1.09,1.89,1.92.72,1.79,2.45,3.27,1.8,5.51-.37,1.29.19,1.91,1.46,1.9s2-.53,1.5-1.85c-1-2.64-.28-4.77,2.3-5.72a5.8,5.8,0,0,1,6.8,1.67c1.05,1.19,2.23,2.78,4.17,1.28.8-.61.86-.28,1.29.46,2.43,4.15,8.06,6.16,14,4.64,5.2-1.34,6.17-5.9,7-10.39,1.49,0,3,0,4.47-.08.8-.06,2.31.32,1.75-1.33-.14-.41-1.44-.42-2.21-.62C611.67,297.48,612,292,610.9,287c-.51-2.24.2-3.93,3-4.78,4.25-1.27,7.27-5,11.59-6.47,1.61-.54,2.2-3,1.73-4.31-.73-2.08-2.47-.2-3.77-.11-2.09.15-3.63,2.51-6.54,1.37,2.21-1.82,4.13-3.3,7.24-3.47-2.45-3.33-2-9.18-8.64-7.29-.87.25-1.55-1-1.35-2.22a23.77,23.77,0,0,0,.5-3.91c0-1.37-1.44-2.89.49-4s2.51.85,3.55,1.75a2,2,0,0,0,3.06-.18c1.71-1.62,2.55-4.12,5.38-4.68,1-.19.58-1.87-.23-2.52-1.21-1-2-1.71-.47-3.05.9-.79,1.66-1.83.88-3.06a1.72,1.72,0,0,0-2.25-.5c-1.29.67-2.76,1.43-2.59,3.2.08.9,2,2.17-.43,2.34-1.57.12-2.24-1.27-2.21-2.76.06-2.64,2.12-3.56,4-4.57,1.63-.85,3.66-1.65,3.61-3.73-.07-2.68-2.83-1.79-4.32-2.34-7.17-2.64-10.46.89-13.29,7.21-.54,1.19-.44,2.84-1.95,3.17-5.92,1.28-7.77,6.68-9.76,11-1.66,3.55-3.67,7-5.24,10.57-.52,1.21-1.43,2.26-1.92,3.48-2.61,6.53-1.33,8.71,5.57,10.17-2.12,0-4.42.54-6.32-.11-4.24-1.44-6.43.82-8.76,3.64-2.83,3.45-5.85,6.74-8.89,10a20.13,20.13,0,0,1-3.06,2.25c-1.26-1.81-.16-2.78.76-3.69,4.48-4.41,7.85-9.86,13.26-13.43,3.82-2.53,3.35-7.77,6.15-11.14,3.76-4.53,4.76-10.46,7.43-15.57,3.38-6.48,8.72-11.34,13.48-16.61,1.81-2,2-3.1.7-4.93-2.15-3-2.41,1.58-4,1.11-1.28-2.42.45-4.51.81-6.68.27-1.59,1.67-1.91,3.08-.79,2.37,1.92,5.24,3.46,7,5.83s3.15,2.69,5.35,1.57a1.81,1.81,0,0,0,.83-2.57c-1.17-2.17-2.93-2.76-5.46-.91,0-2.85,2.2-5.92-2.66-6.21-2.61-.16-.62-2.91-.12-4,.9-1.94,2-3.35-.48-5-1.56-1-.82-2.67-.28-4.09,1.41-3.65-1.59-4.7-3.76-6-1.74-1-1.55.8-1.95,1.81-1.78,4.44-4.84,7-9.92,6.52h0c0-.16,0-.45.1-.47,7.17-2.44,5.64-7.15,2.76-11.76-1.52-2.43-1.27-4.43-.4-6.83a10.3,10.3,0,0,0-1.14-9.48c-1.28-2-2.18-3.31.55-4.67,1.54-.76,1.32-2.25.61-3.42-1.09-1.8-2-.22-3.19.17-2.81,1-4.25,3-5.3,5.47Zm31.06,123,1.3-.4-.26-.37-1.07.74c-1.11.43-3-.94-3.39,1.46C622,302.22,623,301.42,623.84,300.42Zm-27.18,31.5c-3.59-.36-7.32-1.33-11.19,2.27C590,334,593.09,331.57,596.66,331.92Zm12.94-4.27c-1.51-1.72-2.81-1.37-4.59-.41C606.64,328.84,607.94,328.54,609.6,327.65ZM628,298.42c.32-.21,1.1-.43,1.24-.86.29-.9-.62-1.07-1.2-1s-1.41.33-1.55.72C626.18,298.16,627.1,298.16,628,298.42ZM614.09,317.3,613,315.87c-.32.25-.83.44-.92.75-.18.61-.06,1.3.8,1.26C613.29,317.86,613.66,317.52,614.09,317.3Zm-20.43,21.1c.27-.42.72-.84.64-1.08a1.29,1.29,0,0,0-1-.71c-.67,0-1.21.4-.93,1.13C592.52,338,593.13,338.14,593.66,338.4Zm-42.47-4.79-.73-.55a3.55,3.55,0,0,0-.22.77c0,.08.29.29.35.26A3.71,3.71,0,0,0,551.19,333.61Z" transform="translate(-358.49 -89.35)"/><path class="cls-1" d="M373.78,299.67c-3.45-4.13-6.83-8.38-6.06-14.22.37-2.79.11-5.81-1.3-7.66-3.45-4.52-2.78-9.35-2.52-14.29,1.24-.88.89-2.05.47-3.12-2.62-6.7-.35-13.87-2-20.64-.51-2.08.34-3.92.85-5.76.68-2.47,1.23-4.06-1-6.7-2.53-3.05,1.85-5.3,3.57-7.74,1.46,2.72,1.84,5.94,4.34,8.21,1.2,1.08.59,2.83-.07,4.23-2.05,4.31-1,8.27,1.14,12.22a4.67,4.67,0,0,1,.43,3.36,12,12,0,0,0,1.64,11.32c1.13,1.64-.07,3.41-.78,4.7-1.28,2.31-2,4.28-1,7,1.33,3.36-2.23,1.56-3.82,2.77,6.16,2.85,1.73,10.6,7.08,13.75,1.35-.8.75-1.77.45-2.67-.24-.72-.15-1.31.59-1.62a1.49,1.49,0,0,1,1.75.58c1.57,1.72,3,3.56,4.72,5.13,2.51,2.33,4.42,6.2,9.08,3.21,1.28-.82,3.2.37,4.23,1.89,2,3,4.12,2.89,6.22.19.72-.93,2.11-1.56,2.27-.6,1.19,7,7.91-1,9.76,3.75l1.52-2.59c2.3-.08-.15,6.19,4.58,3.1.82-.53,1.12,2.48.67,3.22-2.44,4.09.52,7.41,1.2,11,.36,1.89,1.51,2,2.92,1.16,2-1.2,3.89-2.49,6.22-4,.7,3.2,4.23,4.6,4.2,8.86,3.27-2.83,5.45-5.68,7.31.55,1.12,3.75,3.26-1.27,5.08-1.41,2.09,1-1.09,3.92,1.23,4,2.67.11,2.29-3.2,3.62-4.88,4.08,1.39-.36,3.81.88,5.89,2.73-.49,4.44-2.18,5.2-5.49,3.81,6.29,3.77.12,5.32-.94,2.6.33,4.3,2.06,6.18,3.66s3.46,4.46,6.69,4.36c-.32,3.73,2.84,4.49,5.12,6-1.53,5-.54,6.66,4.16,6.89a3,3,0,0,1,.85.1c.11,2.34-4,2.08-3.05,4.92a2,2,0,0,1-2-.85c-.2-2.72-1.7-1.57-3-1a150.11,150.11,0,0,0-24.94-4,3.78,3.78,0,0,0-3.41-2.59c-7,.55-13.1-2.91-19.61-4.44h0c-.71-1.2-1.89-1-3-1h0c-.71-1.2-1.89-1-3-1h0a3,3,0,0,0-3-2h0c-3.73-2.86-6.94-6.1-12.65-3.3-3.18,1.56-4-2.78-4.92-5.17-2.29.32-2.65,4.32-4.87,2.68-2.4-1.77-3.27-5.07-3-8,.19-2,2.27-1,3.65-.66.68.18,1.41.16,1.54-.7.2-1.27-.57-1.29-1.52-1-2.25.6-4.13-.87-6.27-1.05.4-1.15,1.13-2.23,1-3.22-.18-1.9,5.25-2,1.75-4.12-2.47-1.51-6-1-6.81,3.24-.05.22-.43.38-1,.9-.68-3.94-3.57-4.51-6.76-5.11-1.69-.31-3.55-.09-5.18-1.38C374.15,295.51,373.89,297.67,373.78,299.67Zm2.41-8.88c.27.11.61.38.81.31s.25-.51.37-.79c-.27-.12-.61-.39-.81-.31S376.3,290.51,376.19,290.79Zm-9.33-50.49.31-.23-.26-.29-.39.39Z" transform="translate(-358.49 -89.35)"/><path class="cls-1" d="M502.78,294.48c1.46,1.43.73,3.2.74,4.85-.25.05-.51.08-.76.11-3.19,2.5-7.52,4.24-6.13,9.72.22.87-.95,1.18-1.8,1.31-.26-.34.44-1.37-.74-1l.74,1c.32,3.23-1.92,3-4,3v0c1.23-3.23-.1-5.44-2.83-7.09-3.24-9.51-6.3-19.09-10.29-28.35-2.78-6.46-5.23-13.06-7.84-19.6,1.33.08,3.17-.36,3.88.34,2,2,4,1.6,5.86.46,2.53-1.52.19-3.17-.24-4.71-.31-1.1-.31-2,.79-2.51,1.33-.57,1.78.58,2.1,1.47a6.87,6.87,0,0,1,.53,2.9c-.38,3.5,1.41,4.47,4.45,4,3.56-.51,6.23.18,6,4.29,1.91.61,1.26-2.71,3.11-1.51,2.25,2.61-6.45,7.29,2.3,8.58-1.92-2.91.22-4.06,2.09-5.35-2.77-3.73-.47-11.28-8.43-11.18-1.21,0-1.5-1.16-1.35-2.24a1.63,1.63,0,0,1,2.18-1.46c2.85.93,5.92-.61,8.69.88.19,8.1,1.49,16.14,1,24.26-.08,1.3-.28,2.69.85,3.74l0,3c-1.05.78-.86,1.93-.88,3v1h0c-2.09,1-4.1,2.71-4.22,4.74C498.46,293.88,500.84,294.61,502.78,294.48Z" transform="translate(-358.49 -89.35)"/><path class="cls-1" d="M538.83,274.44c1.26.35,2.53.67,3.78,1a10.31,10.31,0,0,1,1.69.69c-1.08,3.42,1.89,7.57-.84,10.23a7.78,7.78,0,0,0-2.74,6.22c0,1.82-.75,3.83-2.6,4.49-2.65.93-2.66,2.69-2,4.7,1.06,3.05,3,1.07,4.66.66,1.12-.28,2.24-.49,3.54-.77-.23-1.68-1.84-1-2.61-1.59a1.92,1.92,0,0,1-.36-3c.85-1,1.73-.42,2.45.47,1.43,1.77,4.71,2.31,3.34,6-.32.86,1.72,2.59,2.67,3.93a6.31,6.31,0,0,0-1,3.94h0c-5.46,1.59-8.45,6.13-12,10-5.69,2.8-9.34,8.31-15,11.21a6.12,6.12,0,0,0-1.43-4.51,2.11,2.11,0,0,0-2.68-.35c-.4.24-.46,1.07-.68,1.63,3.58,1.15.26,4.31,1.78,6.07a2.14,2.14,0,0,1-2,1c-.27-2.91-3.43-5.07-2.17-8.38.09-.89.18-1.79.26-2.69a12.16,12.16,0,0,0,3-.05c1.58-.42,3.71,1.83,4.47,0,1-2.55-2.35-1.39-3.16-2.66-.52-.81-1.07-1.6-1.61-2.4a7.11,7.11,0,0,1,1.36-3.92l.84-1,1.29-4.95c5.16-6.92,7.44-15.32,11.56-22.8C535,283.44,535.73,278.38,538.83,274.44Z" transform="translate(-358.49 -89.35)"/><path class="cls-1" d="M454,337.45c-3.9.72-6.3,3.88-9.4,5.88-1.84,1.19-3,3.06-5.4.71-1.58-1.57-3.78.18-5.59-.06-.87-1.26,1.78-2,.31-3.1a1.88,1.88,0,0,0-2.62.71c-2.3,3.08-5.59,4.18-9.5,4.68,2-3.84,0-6.24-3.26-8.12-.65-.38-1.76-1.22-1.67-1.42,3.29-7.64-3.42-4.23-6.42-5.78,5.17-.12,1.39-3.95,3.15-6.17,1.92,4.28,3.93,5,5.91.28.18-.43,1.51-.38,2.3-.55h0c.09,2,1.54,2,3,2h0c.71,1.2,1.89,1,3,1h0c.72,1.19,1.89,1,3,1h0c.18.85-.37,1.76,1,2.37,7,3,14.91,2.76,22,5.6C453.91,336.8,454,337.13,454,337.45ZM424.69,340c2.31.14,4-1.19,6-3.41A6.26,6.26,0,0,0,424.69,340Zm.58-4.52a11.35,11.35,0,0,0-2.76.32c-.92.37-1.78,1-.93,2.31C423.18,338.05,424.13,337.07,425.27,335.49Zm7,.31c.1,0,.25,0,.3-.07a.91.91,0,0,0,.08-.37l-.52.1Z" transform="translate(-358.49 -89.35)"/><path class="cls-1" d="M488,306.43c2.73,1.65,4.06,3.86,2.83,7.09-2.28.12-1.58,1.48-1.2,2.79q2.16,7.56,4.26,15.13-1.53,2.55-3.08,5.1a80.55,80.55,0,0,0-12.95-13.15c-.68-1-2.14-1.41-2-2.94-2.72-3,4.1-7.76-.9-9.33s1.92-8.31-5.83-7.33c3.67-2,5.38-.61,7,.73,1,.81.64,3.61,2.81,2.53,2-1,2.72-3.78,1.61-5.18-1.8-2.27.31-3.64.27-5.4,3.27,1.16,2.29,4.28,3.16,6.59C484.62,304.71,483.91,308.61,488,306.43Z" transform="translate(-358.49 -89.35)"/><path class="cls-1" d="M538.83,274.44c-3.1,3.94-3.86,9-6.17,13.21-4.12,7.48-6.4,15.88-11.56,22.8h-1.28c.57-5,3.45-9.2,5.33-13.71,4.27-10.28,9.61-20.05,13-30.82,2.21-7.09,6.23-13.65,9.1-20.64a232.41,232.41,0,0,0,8.57-25.65,61,61,0,0,1,5-13.18h1.05c-1.31,6.44-4.54,12.37-5.09,19-1.73,1.78-.65,4-.94,6-4,7.27-6.21,15.25-9,23l0,2-3,4C540.56,264.55,540.05,269.62,538.83,274.44Z" transform="translate(-358.49 -89.35)"/><path class="cls-1" d="M503.67,280.47c-1.13-1.05-.93-2.44-.85-3.74.49-8.12-.81-16.16-1-24.26,0-1,0-2-.05-3a6.53,6.53,0,0,0-.91-4v-7.05c1.79-5.12.64-10.39.73-15.59,0-.9-.93-1.25-1.78-1.4.74-1.47-2.8-3.28-.9-3.36,4.8-.21,2.58-3.39,2.76-5.2.56-5.75.26-11.54.74-17.34.39-4.88,1-10.12-.68-15.07,1-1.56,2-.37,2.95,0,0,.33,0,.65.07,1,.36,2.34.73,4.67,1.09,7-.07,6.67-1.67,13.24-1.11,19.94l-.81,1v6.05c-.41,2.93,1.26,5.94-.9,8.92a4.05,4.05,0,0,0,.81,5,39.53,39.53,0,0,0,1,11c-.62,2.36,1.48,4.68.09,7,0,1.65,0,3.3,0,4.94,0,1.41-.53,2.91.82,4,0,2,.06,4,.08,6,0,1.34,0,2.69,0,4l0,.49v.48c-.41,2.3.82,4.8-.87,6.93C502.93,276.06,504.27,278.48,503.67,280.47Z" transform="translate(-358.49 -89.35)"/><path class="cls-1" d="M490.8,313.5c2.11,0,4.35.2,4-3h0c.85-.13,2-.44,1.8-1.31-1.39-5.48,2.94-7.22,6.13-9.72.44,1.34-1.67,2.67,0,4-.15,6.69.78,13.43-.85,20.06-2.65-1.74-4.67,1.1-7.1,1C492.62,321.14,492.29,317.11,490.8,313.5Z" transform="translate(-358.49 -89.35)"/><path class="cls-1" d="M475.83,320.45c-.14,1.53,1.32,2,2,2.94l-1.1.08c-3.23.1-4.67-2.64-6.69-4.36s-3.58-3.33-6.18-3.66c-1.55-4.29-4.41-7.41-7.78-10.55-4.65-4.31-8.21-9.77-12.41-14.59-2.83-3.25-6-6.2-10.84-5.81a2,2,0,0,1,1.95-1l3.1-1.07c3.87-.14,4.16,5.15,7.9,5.22a18.49,18.49,0,0,0,1.24,2.62c5.73,8.52,13.76,14.95,20.62,22.44C470.17,315.43,472.32,318.69,475.83,320.45Z" transform="translate(-358.49 -89.35)"/><path class="cls-1" d="M550.85,338.44l1-.07,2.94.06c6.1,0,12.21.13,17.58-3.51a1.3,1.3,0,0,1,2.08.47,1.28,1.28,0,0,1-1,1.88c-5.46,1.22-10.59,4.39-16.47,3a12.36,12.36,0,0,0-5.86.36c-10.33,2.61-21.35,1.43-31.33,5.81l.12-1.39c6.54-3.54,13.84-3.7,20.94-4.58C544.3,340.07,547.68,339.86,550.85,338.44Z" transform="translate(-358.49 -89.35)"/><path class="cls-1" d="M505.22,320.4l8.62,1.06-7.29,18.33c-2.28-5.05-1.5-10.21-1.52-15.31.44-.35.44-.69,0-1Z" transform="translate(-358.49 -89.35)"/><path class="cls-1" d="M494.8,324.5c2.43.11,4.45-2.73,7.1-1-.58,6.38.84,12.92-2.17,19.34Q497.26,333.67,494.8,324.5Z" transform="translate(-358.49 -89.35)"/><path class="cls-1" d="M514.69,328.16c-1.26,3.31,1.9,5.47,2.17,8.38-1.59,1.93-3,5.55-5.69,4.13-2.26-1.19-.25-4.47.46-6.71C512.28,331.88,512.15,329.28,514.69,328.16Z" transform="translate(-358.49 -89.35)"/><path class="cls-1" d="M453.87,336.48c-7.07-2.84-14.94-2.56-22-5.6-1.41-.61-.86-1.52-1-2.37,6.51,1.53,12.57,5,19.61,4.44a3.78,3.78,0,0,1,3.41,2.59A7.37,7.37,0,0,1,453.87,336.48Z" transform="translate(-358.49 -89.35)"/><path class="cls-1" d="M536.84,321.46c3.53-3.9,6.52-8.44,12-10-2.18,5.61-7.19,8.17-11.91,11C536.89,322.14,536.86,321.8,536.84,321.46Z" transform="translate(-358.49 -89.35)"/><path class="cls-1" d="M490.78,336.54q1.55-2.55,3.08-5.1c1.27,3.6,3.07,7.06,2.83,11.47C493.62,341.47,492.13,339.08,490.78,336.54Z" transform="translate(-358.49 -89.35)"/><path class="cls-1" d="M483.81,341.37c-.91-2.84,3.16-2.58,3.05-4.92,2.78,1.3,3.15,4.2,4.72,6.49C488.31,344.31,486.34,341.59,483.81,341.37Z" transform="translate(-358.49 -89.35)"/><path class="cls-1" d="M518.88,335.51c-1.52-1.76,1.8-4.92-1.78-6.07.22-.56.28-1.39.68-1.63a2.11,2.11,0,0,1,2.68.35,6.12,6.12,0,0,1,1.43,4.51A6.72,6.72,0,0,1,518.88,335.51Z" transform="translate(-358.49 -89.35)"/><path class="cls-1" d="M517.61,320.35c.54.8,1.09,1.59,1.61,2.4.81,1.27,4.21.11,3.16,2.66-.76,1.84-2.89-.41-4.47,0a12.16,12.16,0,0,1-3,.05C515.82,323.76,515.64,321.5,517.61,320.35Z" transform="translate(-358.49 -89.35)"/><path class="cls-1" d="M502.78,294.48c-1.94.13-4.32-.6-4.21-2.29.12-2,2.13-3.74,4.22-4.74,0,1.37.07,2.73.11,4.1Z" transform="translate(-358.49 -89.35)"/><path class="cls-1" d="M516.74,341.35c.09,1.23.18,2.47.28,3.7-2.11.4-3.32,2.77-6,2.67A7.49,7.49,0,0,1,516.74,341.35Z" transform="translate(-358.49 -89.35)"/><path class="cls-1" d="M486,336.35c-4.7-.23-5.69-1.86-4.16-6.89A15.22,15.22,0,0,1,486,336.35Z" transform="translate(-358.49 -89.35)"/><path class="cls-1" d="M505,276.39c3,2.05,2.18,4.53.79,7.07C504.07,281.26,505,278.77,505,276.39Z" transform="translate(-358.49 -89.35)"/><path class="cls-1" d="M505.83,287.47a2.46,2.46,0,0,1,.05,4C504.37,290.14,504.49,288.81,505.83,287.47Z" transform="translate(-358.49 -89.35)"/><path class="cls-1" d="M502.75,303.45c-1.66-1.34.45-2.67,0-4,.25,0,.51-.06.76-.11C503.75,300.79,504.23,302.3,502.75,303.45Z" transform="translate(-358.49 -89.35)"/><path class="cls-1" d="M478.81,339.51c1.31-.56,2.81-1.71,3,1C480.71,340.5,479.54,340.65,478.81,339.51Z" transform="translate(-358.49 -89.35)"/><path class="cls-1" d="M502.9,291.55c0-1.37-.08-2.73-.11-4.1h1C503.72,288.87,504.27,290.43,502.9,291.55Z" transform="translate(-358.49 -89.35)"/><path class="cls-1" d="M505.92,303.48c.94.66.93,1.31,0,2C504.87,304.79,504.87,304.14,505.92,303.48Z" transform="translate(-358.49 -89.35)"/><path class="cls-1" d="M505.22,315.31l.69.13c0,1,.07,2.06.11,3.08-.28.33-.55.67-.83,1Z" transform="translate(-358.49 -89.35)"/><path class="cls-1" d="M502.82,286.47c0-1.09-.17-2.24.88-3l.12,3C503.48,286.46,503.15,286.47,502.82,286.47Z" transform="translate(-358.49 -89.35)"/><path class="cls-1" d="M505,323.45c.45.34.45.68,0,1C505,324.14,505,323.79,505,323.45Z" transform="translate(-358.49 -89.35)"/><path class="cls-1" d="M502.82,286.47c.33,0,.66,0,1,0v1h-1v-1Z" transform="translate(-358.49 -89.35)"/><path class="cls-1" d="M519.81,315.4l-.84,1Z" transform="translate(-358.49 -89.35)"/><path class="cls-1" d="M445.78,287.62c-3.74-.07-4-5.36-7.91-5.22-.89-4.07-4.27-6.54-6.33-9.86-1.26-2-1.53-4.86-4.71-5.06-1.14-5.27-5.78-8.39-8-13,.21-6.39-5.39-10-7.44-15.26-.26-.7-1.1-.7-1.72-.35s-.59,1.2-.23,1.73c3,4.5,4.35,10,8.38,13.89,0,.33,0,.66,0,1h-5.94l-.1.72,6,1.31c2.89,3.43,4.72,7.82,9,10,.7,3.92,3.58,6.63,5.62,9.76,1.28,2,2.86,3.61,2.38,6.18a2,2,0,0,0-1.95,1c-3.83-2.51-8.11.59-12-1h0c.78-2.14,2.83-4.23.09-6.55-1.62.65-2.13,2.34-3.15,3.55a1.66,1.66,0,0,1-2.14.63c2.19-5.13-3.76-3.8-5.35-6.26-2.79-4.3-.51-5.68,1.93-7.78,1.05-.91,2.18-1.72,4-3.15-6.56,0-12-1.53-17.5-2.84-.4-.1-.59-1-.89-1.59h0c.82-.11,2.32-.14,2.35-.34.54-5,4.68-2.32,7.18-3.12-.52-2.14-2.36-2.06-3.58-2.31-2.63-.53-3.74-1.36-1.85-3.88.73-1,1.37-2.12,0-3-1.65-1.06-1.71,1.38-2.89,1.59a5.5,5.5,0,0,1,.92-4.74c2-3.19-1-5.39-2.36-7.35s-3.55-.86-5.46.93c-2.91,2.7-7.57.94-8.74-2.91-.54-1.78.17-2,5.16-1.85-5.94-2.51-7.67-8.45-11.18-13.26.45-1.78,3.2.21,3.94-2.1-2.35-1.62-6.07.59-8.25-3,4.7,1.09,5.86-4.4,10.26-4.62,1.95-.1,1.24-3.62-.11-5.07-3.85-4.16-1.62-6.33,2.28-8.15.73-.35,1.52-.58,2.28-.87-2.35,3.52-.73,5.7,3.33,8.07-1.76-3.14,3.72-7.7-3.33-8.07.21-4.34,1.65-7.78,6.47-8.71,2-.38,2.15-1.42,2.18-3.5,0-2.88-1.44-7.27,5.3-6.39,2.58.33,6.88-1.36,10.41-2.07,2.25-.45,2.91-1.69,2.32-4-.73-2.87-1.17-5.82-1.64-8.75-.12-.76-.17-1.77.85-2.08s1.56.48,1.86,1.24c1.07,2.77,3.3,4.71,3.09,8.49-.21,3.62,4.16,1.17,6.42,1.64s3.6-1.43,2.37-3a4.35,4.35,0,0,1,.62-6.53c2.58-1.89,4.1-5.92,8.35-5.08.9.18,2.48.71,1.54-1-1.37-2.52,1.44-3.74,1.33-5.86a2.16,2.16,0,0,1,2.45-2c1.78.47.7,1.84.4,2.85-.39,1.25-.35,2.46.92,3,1.87.8,2.2-1.16,2.8-2.09,1.79-2.74.44-6.24,1.91-9.11,1.07-2.08.22-4.76,2.89-6.47,2.43-1.55-2.24-1.38-1.19-3.18,3.19-1.39,6-2.17,5.34,3.27-.28,2.26,2.3,4.89-1.49,6.78-1.27.63-.11,2.95,1.52,4,2.21-2.35,2.8-5.36,3.67-8.71,1.89,2.08.84,4,.83,5.56s-1.1,3.59,1.72,3.39c1.94-.13,4.18-.64,3.34-3.65a9.07,9.07,0,0,1-.16-1.49c5,1,6.51,6.28,10.56,8.28.57,3.74,2.37,6.55,6,8,1.84,3.32,3.11,7.13,7.06,8.62-2.17-3-1.16-8.81-7.06-8.61-.45-3.11-2.73-5.3-4-8-.11-1.43.49-3.22-1.22-4-4.64-2.15-4.81-6.76-6.18-10.73-.43-1.27-1.21-3,.13-3.61a10.87,10.87,0,0,1,6.14-1.24c1.74.31-.08,1.74-.26,2.71-.35,1.91-2.66,5,2.33,4.13,2.25-.4,2.65,1.67,2.94,3.25a23.21,23.21,0,0,0,1.65,4.43c2,5,5.91,4.83,10,4.64a1.54,1.54,0,0,0,1.17-.59,1.75,1.75,0,0,0-.59-2.23c-5.4-3.25-4.1-8.48-4.08-13.35,0-1.22.12-2.45,1.4-2.91,1.47-.53,2.17.56,2.47,1.74.44,1.75,1.74,1.76,3.1,1.76.4.51.69,1.29,1.21,1.49,7.31,2.81,8.43,8.68,7.75,15.47-2.07,3.52-.5,7.35-.94,11-.35,3.93-.67,7.86-1,11.79-.3,3.14-1.51,3.44-4.22,1.8s-4.41-4.48-7.46-5.69c2.18,4.84,5.43,8.53,10.69,10.14,1.65,5,1.07,10.19.68,15.07-.48,5.8-.18,11.59-.74,17.34-.18,1.81,2,5-2.76,5.2-1.9.08,1.64,1.89.9,3.36-1.39,1.32-2.55,2.66-1,4.64.62.79,1.17,2.18-.51,2-4.4-.58-1.88,3.29-3.22,4.61,1.91,1.93.83,6.84,5.75,5.78q0,3.52,0,7.05c-2.06-.12-4.63-.12-4.49,2.5s2.89,1,4.41,1.47a3.64,3.64,0,0,0,1,0c0,1,0,2,.05,3-2.77-1.49-5.84.05-8.69-.88a1.63,1.63,0,0,0-2.18,1.46c-.15,1.08.14,2.26,1.35,2.24,8-.1,5.66,7.45,8.43,11.18-1.87,1.29-4,2.44-2.09,5.35-8.75-1.29-.05-6-2.3-8.58-1.85-1.2-1.2,2.12-3.11,1.51.21-4.11-2.46-4.8-6-4.29-3,.44-4.83-.53-4.45-4a6.87,6.87,0,0,0-.53-2.9c-.32-.89-.77-2-2.1-1.47-1.1.48-1.1,1.41-.79,2.51.43,1.54,2.77,3.19.24,4.71-1.9,1.14-3.86,1.5-5.86-.46-.71-.7-2.55-.26-3.88-.34l0,0c0-1.46,0-2.89-2-2.94a48.26,48.26,0,0,1-3.22-6.48c-1.74-4.09-4.42-7.78-6.7-11.64-.59-8.32-5-15.68-6.08-23.88-2.06-7.63-.85-15.47-1.29-23.2-.53-9.3-.31-18.62-2.29-28.06-.61.75-1,1.23-1.42,1.76-2,2.79,1.08,4.82,1.1,7.45.07,12,.58,23.9.88,35.85,0,1.45.57,3.28-.86,4.2-1.95,1.25-2.73-1.21-4.14-1.77a7.8,7.8,0,0,0-2-.24c-1-3.39-3.76-5.36-6.41-8.33.82,4.94,2,6.34,6.39,8.35-.44,3.76,3,4.27,5,6,3.21,2.2,9.21,17.73,7.86,21.15-1,2.56.06,2.9,2.1,2.88,1.66,6.26,7.17,11,7,18-1.77.07-3.82-.41-4,2.39-.1,1.23-.76,2.53-2.12,2.19a6.68,6.68,0,0,1-3.24-2.14c-1.07-1.26-.12-2.07,1.15-2.53.72-.26,1.08-.78.73-1.53a1.55,1.55,0,0,0-2-1c-1.62.72-3.58.42-4.94,2.05a4.56,4.56,0,0,1-4.54,1.49c-2.39-.56-4.8-1.68-5.35,2.14-3.6-.54-3.43,2.85-4.63,4.64-1.48,2.22,1.14,3.76,1.75,5.62.44,1.34,1.8-.2,2.77-.71,2.63-1.39,5.67-.25,7.9.44,1.75.53-1.28,2.67-1.87,4.23-.12.29-.28.78-.15.93C448.59,279.53,445.18,283.68,445.78,287.62Zm-21-96.11c2,3.18,3.76,6.64,8.23,9.35-1.29-5.49-3.47-8.54-8.22-9.36a3.05,3.05,0,0,0-2-3c-1.86-3.67-3.66-7.38-6.33-10.56-.83-1-1.78-1.7-2.86-.45s-.11,1.58.87,2.13c2.38,1.32,3,3.95,3.81,6.18.88,2.44,2.32,2.94,4.5,2.71C422.74,190,422.75,191.41,424.76,191.51Zm-25,32c-2-3.69-1.77-8.46-5.11-11.67-2.85,2.82,4.88,6.76-2,8.56l5.07,3.1c.15,2.42,1.85,3.32,3.66,4.83C402,225.66,400.25,224.9,399.77,223.53Zm37.65,52.38c1.41.2,3,1.44,3.9-.45a2.32,2.32,0,0,0-.88-2.08C438.49,272.54,438.22,274.53,437.42,275.91Zm-31.11-41.67c.21-1.73-.14-2.83-2-3.39C404.09,232.57,404.42,233.68,406.31,234.24Zm2.58,3.14c.2-.49.56-1,.44-1.16a1.73,1.73,0,0,0-1.15-.54c-.49,0-.89.38-.55.88C407.85,236.89,408.34,237,408.89,237.38Zm-1.95-59c.74,0,1.24-.13,1-.82-.09-.26-.47-.63-.68-.6a3.25,3.25,0,0,0-1.08.52Z" transform="translate(-358.49 -89.35)"/><path class="cls-1" d="M420.82,283.51c-.06,1.33-.08,2.47-1.84,3-6.83,2-13.05-1.13-19.58-2.08a72.79,72.79,0,0,0,21.41-.9Z" transform="translate(-358.49 -89.35)"/><path class="cls-1" d="M411.63,168.08c-2.43.27-3.72,1.15-4.46,3.13a2.31,2.31,0,0,1-3.44,1c-1.6-1-.83-2.44.37-3.21,2-1.24,1.6-3.09,1.67-4.88,0-1.22.15-2.48,1.8-2.35,1.12.08,2,.87,1.47,2C408,166.11,410.59,166.22,411.63,168.08Z" transform="translate(-358.49 -89.35)"/><path class="cls-1" d="M476.74,150.48c1.28,2.7,3.56,4.89,4,8h0c-3.63-1.44-5.43-4.25-6-8Z" transform="translate(-358.49 -89.35)"/><path class="cls-1" d="M397.8,259.52c-1.95-.36-3-1.54-2.36-3.46.28-.84,1.71-1.63,2.51-1.05,1.9,1.39-.45,3-.15,4.51Z" transform="translate(-358.49 -89.35)"/><path class="cls-1" d="M397.11,284.55c-.41.2-.82.57-1.22.57a.6.6,0,0,1-.51-1c.24-.3.84-.35,1.3-.41C396.77,283.7,396.93,284.18,397.11,284.55Z" transform="translate(-358.49 -89.35)"/><path class="cls-1" d="M375.77,259.28l-.34-.28c.13-.07.27-.21.39-.2s.23.17.35.27Z" transform="translate(-358.49 -89.35)"/><path class="cls-1" d="M592.85,344.42c.72.12,1.58.1,1.51,1.2a.48.48,0,0,1-.31.31c-1.1.07-1.08-.79-1.2-1.51Z" transform="translate(-358.49 -89.35)"/><path class="cls-1" d="M584.31,368.37l-.72-.48c.26-.13.53-.36.78-.35s.49.28.74.43Z" transform="translate(-358.49 -89.35)"/><path class="cls-1" d="M625.85,329.39l-.42-.21.4.24Z" transform="translate(-358.49 -89.35)"/><path class="cls-1" d="M403.58,326.15c2.85-.57,5-3.2,6.86.36.43.8,1.72,1.82.63,2.45C408.22,330.6,406.25,328.58,403.58,326.15Z" transform="translate(-358.49 -89.35)"/><path class="cls-1" d="M440.13,353.2l-6.65,1.09C436.13,351.77,437.53,349.21,440.13,353.2Z" transform="translate(-358.49 -89.35)"/><path class="cls-1" d="M469.73,351.7c2.5-2.07,3.93-2.55,6.09-1.31C474,351.88,472.44,351.22,469.73,351.7Z" transform="translate(-358.49 -89.35)"/><path class="cls-1" d="M381.71,304.65c-.29-.4-.58-.8-.86-1.21.16-.73.31-1.94,1.25-1.37C383.37,302.86,382.68,303.9,381.71,304.65Z" transform="translate(-358.49 -89.35)"/><path class="cls-1" d="M439.82,349.25l-.34-.27c.13-.07.27-.2.39-.19s.23.16.34.25Z" transform="translate(-358.49 -89.35)"/><path class="cls-1" d="M415.83,353.52l.44.22-.4-.25Z" transform="translate(-358.49 -89.35)"/><path class="cls-1" d="M503.92,215.5q0-3,0-6.05l.81-1c-.56-6.7,1-13.27,1.11-19.94a3.88,3.88,0,0,0,3.32-4c-.26-1.67-2.37-2.8-4.41-3,0-.33-.06-.65-.07-1-.05-6,1.77-12,1-18.07.12-3.33-.32-6.73,1.14-9.9,3.45-.41,6.43-1.54,7.89-5.05,4.23-.47,5.45-4.9,8.77-6.65,1.66-.87,3-4.29,4.87-2.12,1.65,1.94,3,5.42-.18,8-1.18.94-3.66,1.51-.37,3.11,1.38.67,1,2.15,0,2.88-3.79,2.7-1.39,6-1,9,.07.46.44,1.26.63,1.25,8.49-.54,1.32,4.43,2.3,6.5-.72.14-1.58.12-1.5,1.21a.41.41,0,0,0,.31.31c1.09.07,1.07-.78,1.2-1.5,1.79,0,2.47-1.29,3.35-2.57,2.86-4.17,8.23-4.84,12.46-2,3.51,2.34,1.25,5.77,1.77,8.6a3.28,3.28,0,0,1-4.28,3.37c-2.45-.59-2.11,2.51-3.38,3.7-2.16,2-4,4.44-7.18,4.8-1.42.16-2.56.52-2.78,2.25-.16,1.22-.85,1.8-2,.77-.84-.76-1.88-1.2-2.51-.1-.86,1.51.45,1.92,1.6,2.35s2,1.22,1.52,2.68c-.65,2.21.63,2.24,2.16,1.78,1.13-.34,2-.32,2.18,1.06.13,1,.28,2.64-.58,2.7-6.31.43-6.7,6.7-10.13,9.92-.93.88-1.89,1.73-3.18,2.9,2.67,1,4.59-2.15,6.85-.4.72.56,2,.49,1.92,1.84-.09,1-.94,1.26-1.8,1.35a5.12,5.12,0,0,0-4.46,3.54c-.78,2.71-.33,5.13-4.84,5.11-2.76,0-1,4.11.31,4.41,7.2,1.68,3.86,7.26,4.73,11.39,1.4.91,2-1.48,3.6-.94,1.09,1.26-1.62,4,1.58,4.73,1.2.28,1.3,1.58.45,2.39-2.69,2.57-2.38,7.26-6.63,8.85-1.41.52-2,2.63-1.5,4.42s1.94,2,3.51,2.13c5.59.53,6.65,2.12,5.7,8.28-.81.14-1.13-.25-1.32-1-.35-1.47.65-3.56-1.7-4.17s-3.39.69-4.25,2.51c-.62,1.31-1.68,1.37-2.95,1-2.85-.86-2.52,1.84-2.72,3-.34,1.93,1.24,2.56,3,2.07,1.92-.54,3.6-1.58,3,2-.37,2.26,2,2,3.61,2.33,1.93.36,3.85.79,1.4,3.35-1.62,1.68-1.38,1.91,0,5-1.69,1.18-2.18-.78-3.26-1.21-2.61-1.05-5.57-3.34-7.23,1.24-.26.73-.68,1.2-1.4,1a2.14,2.14,0,0,1-1.43-1.87c-.84-4.55-2.14-9-2.08-13.7,0-2.16,0-4.14-3-3.89h0c.22-1.52,2.57-1.58,2.4-3.75l-4.37-.26c0-2,0-4-.08-6a1.86,1.86,0,0,0,2-2.18c-.11-1.85-1.5-1.76-2.78-1.86,0-1.64,0-3.29,0-4.94,3.69.22,3.56-4.23,6.39-5.49l-6.48-1.55a39.53,39.53,0,0,1-1-11c.74-5.36,5.34-9.11,6.33-14.55C508.1,217.58,506.2,218.66,503.92,215.5Zm19.58-39.82c-6,1.23-6,1.23-7,4.46C519.07,179.75,520.75,178.14,523.5,175.68Zm-10.33,41.68c1.22-.18,2.15-.54,2.18-1.77,0-.26-.72-.82-.94-.74-.88.29-2.06.41-2.09,1.68C512.31,216.82,512.92,217.13,513.17,217.36Z" transform="translate(-358.49 -89.35)"/><path class="cls-1" d="M507.74,121.46c4.79-1.79,6.74.14,7.3,5,.21,1.91.18,4.41,3.34,5.39,2.55.79,1.88,6,0,8.31-1.72,2-4.89,3.7-3.6,7.33a8.93,8.93,0,0,0-2.86.62c-1.46.87-2.89,2.09-4.5.83s-1.44-3.45-1.53-5.49C505.54,136,507.36,128.8,507.74,121.46Z" transform="translate(-358.49 -89.35)"/><path class="cls-1" d="M506.84,152.52c-1.46,3.17-1,6.57-1.14,9.91h-1.92c.44-3.66-1.13-7.49.94-11A2.29,2.29,0,0,1,506.84,152.52Z" transform="translate(-358.49 -89.35)"/><path class="cls-1" d="M556.74,225.44c.55-6.64,3.78-12.57,5.09-19,2.09-1.18,2.61-3.21,3-5.36,1-5.56,1.82-11.35,9.29-11.94.24,0,.45-.45.67-.68a15.56,15.56,0,0,0,7-2c3.81-1.66,7.42-3.62,10-7a2.18,2.18,0,0,0,1-2l1,0,4.37,1.51c-2.1,3.15-2.51,7.86-7.88,7.59,1.73,3.87-6.78,3.75-3.23,8.33.09.12.25.35.23.38-5.32,5.58,1.38,5.26,3.43,7.51s.82,5.75,1.09,8.67c-.33.67-.66,1.33-1,2h0c-3.58-.22-6,.89-6,5h0c-1,.18-2.18,0-2.82.58-5.51,4.74-12.65,5.78-19,8.57C560,228.88,558,228.48,556.74,225.44Z" transform="translate(-358.49 -89.35)"/><path class="cls-1" d="M546.8,254.44c2.79-7.74,5-15.72,9-23,6.15-1.78,12.34-3.46,18.45-5.37,4.32-1.36,8.13-3.58,10.54-7.66h0l2,0c1.32,3.77-.07,6.39-3.51,8.07s-7.5,2.85-10.12,6.25c-1.32,1.71-3.46,2.37-5.37,3.36-3.19,1.65-6.07,3.18-4.11,8.4.81,2.17.28,6.26-.09,9.43-.24,2.05-2.34,1.66-3.67,1.46C555.54,254.74,551.08,255.81,546.8,254.44Z" transform="translate(-358.49 -89.35)"/><path class="cls-1" d="M543.8,260.44l3-4c1.44.33,2.87.72,4.32,1,1.91.35,5.69,5.36,5.34,7.22a2,2,0,0,1-1.67,1.63c-3.86.76-6.11,3.33-7.38,7.12C542.58,269.65,544.05,264.82,543.8,260.44Z" transform="translate(-358.49 -89.35)"/><path class="cls-1" d="M599.82,302.42c-10.64,2.3-20.42-1.68-30.42-4.08A78.14,78.14,0,0,1,588.73,301c3.7,1,7.66-.93,11.1,1.41Z" transform="translate(-358.49 -89.35)"/><path class="cls-1" d="M551.78,307.39c3.59-4.36,8.45-7.27,12.61-11,.6-.53,1.43-1.16,2.05-.14.27.43.23,1.6-.07,1.77-5,2.94-8,8.88-14.48,9.45Z" transform="translate(-358.49 -89.35)"/><path class="cls-1" d="M586.77,218.4l-2,0c-.06-4.13,2.41-5.24,6-5C591.3,216.57,586.82,215.71,586.77,218.4Z" transform="translate(-358.49 -89.35)"/><path class="cls-1" d="M615.82,301.4c.77.2,2.07.21,2.21.62.56,1.65-.95,1.27-1.75,1.33-1.48.12-3,.06-4.47.08h-3.76C610.53,302,613.47,303.07,615.82,301.4Z" transform="translate(-358.49 -89.35)"/><path class="cls-1" d="M548.82,311.43a6.31,6.31,0,0,1,1-3.94l1.93-.1.11.11C551.89,309.61,551.4,311.34,548.82,311.43Z" transform="translate(-358.49 -89.35)"/><path class="cls-1" d="M601.34,278.44c-.39-.36-1-.66-1-1,0-1.27,1.21-1.38,2.09-1.67.22-.08.94.47.94.73C603.37,277.8,602.32,278,601.34,278.44Z" transform="translate(-358.49 -89.35)"/><path class="cls-1" d="M599.83,302.41c1.49.52,3-1.23,4.89.13-1.9,1.11-3.39,1.31-4.9-.12Z" transform="translate(-358.49 -89.35)"/><path class="cls-1" d="M590.77,213.41c.34-.67.67-1.33,1-2,.89.17,2.56-.27,2.35,1C593.83,214.14,592,213.13,590.77,213.41Z" transform="translate(-358.49 -89.35)"/><path class="cls-1" d="M599.78,208.42c-.11,1.18-.35,2.29-1.73,2.57a.68.68,0,0,1-.85-.85c.28-1.38,1.39-1.62,2.57-1.73Z" transform="translate(-358.49 -89.35)"/><path class="cls-1" d="M550,325.22s-.51-.21-.65-.55c-.22-.52.19-.93.7-.71.33.14.52.66.71,1S550.86,325.59,550,325.22Z" transform="translate(-358.49 -89.35)"/><path class="cls-1" d="M574.8,188.45c-.22.23-.43.66-.67.68-7.47.59-8.25,6.38-9.29,11.94-.4,2.15-.92,4.18-3,5.36h-1.05c4.48-15.48,6.53-31.19,4.36-47.39,2.35,2,3.2,3.88,2.73,7.23-.91,6.52-.74,13.2-.83,19.81,0,1.58,1.94.91,2.7,1.54C571.36,189,573.39,186.67,574.8,188.45Z" transform="translate(-358.49 -89.35)"/><path class="cls-1" d="M591.81,179.44c-2.62,3.38-6.23,5.34-10,7A13,13,0,0,1,591.81,179.44Z" transform="translate(-358.49 -89.35)"/><path class="cls-1" d="M565.73,155.77c-1.27-2.75-2.59-5.46-1.47-9.33C566.07,149.85,567.26,152.57,565.73,155.77Z" transform="translate(-358.49 -89.35)"/><path class="cls-1" d="M506,318.52c0-1-.07-2-.11-3.08,1.14.27,3.08-.64,3.26.93S507.31,318.11,506,318.52Z" transform="translate(-358.49 -89.35)"/><path class="cls-1" d="M505.84,267.45V267l0-.49,1.95,0h0A2,2,0,0,1,505.84,267.45Z" transform="translate(-358.49 -89.35)"/><path class="cls-1" d="M596.66,331.92c-3.57-.35-6.67,2.05-11.19,2.27C589.34,330.59,593.07,331.56,596.66,331.92Z" transform="translate(-358.49 -89.35)"/><path class="cls-1" d="M554.84,338.43l-2.94-.06a4.14,4.14,0,0,1,.42-.9c.74-1,.3-3.28,2.16-2.75C556.88,335.4,554.36,337.19,554.84,338.43Z" transform="translate(-358.49 -89.35)"/><path class="cls-1" d="M609.6,327.65c-1.66.89-3,1.19-4.59-.41C606.79,326.28,608.09,325.93,609.6,327.65Z" transform="translate(-358.49 -89.35)"/><path class="cls-1" d="M628,298.42c-.9-.26-1.82-.26-1.51-1.16.14-.39,1-.68,1.55-.72s1.49.12,1.2,1C629.1,298,628.32,298.21,628,298.42Z" transform="translate(-358.49 -89.35)"/><path class="cls-1" d="M623.84,300.42c-.89,1-1.86,1.8-3.42,1.43.38-2.4,2.28-1,3.39-1.46Z" transform="translate(-358.49 -89.35)"/><path class="cls-1" d="M614.09,317.3c-.43.22-.8.56-1.2.58-.86,0-1-.65-.8-1.26.09-.31.6-.5.92-.75Z" transform="translate(-358.49 -89.35)"/><path class="cls-1" d="M593.66,338.4c-.53-.26-1.14-.37-1.25-.66-.28-.73.26-1.16.93-1.13a1.29,1.29,0,0,1,1,.71C594.38,337.56,593.93,338,593.66,338.4Z" transform="translate(-358.49 -89.35)"/><path class="cls-1" d="M540.85,346.44c-.63-.1-1.38-.08-1.49-.93,0-.17.38-.58.55-.56.85.12.84.86.93,1.5Z" transform="translate(-358.49 -89.35)"/><path class="cls-1" d="M551.19,333.61a3.71,3.71,0,0,1-.6.48c-.06,0-.36-.18-.35-.26a3.55,3.55,0,0,1,.22-.77Z" transform="translate(-358.49 -89.35)"/><path class="cls-1" d="M623.81,300.39l1.07-.74.26.37-1.3.4Z" transform="translate(-358.49 -89.35)"/><path class="cls-1" d="M424.84,326.5c-1.46,0-2.91,0-3-2A3,3,0,0,1,424.84,326.5Z" transform="translate(-358.49 -89.35)"/><path class="cls-1" d="M376.18,290.78c.12-.27.18-.7.38-.78s.54.19.81.31c-.12.28-.17.71-.37.79S376.46,290.9,376.18,290.78Z" transform="translate(-358.49 -89.35)"/><path class="cls-1" d="M430.83,328.5c-1.11,0-2.28.19-3-1C428.94,327.52,430.12,327.3,430.83,328.5Z" transform="translate(-358.49 -89.35)"/><path class="cls-1" d="M427.84,327.51c-1.11,0-2.29.2-3-1C426,326.51,427.13,326.31,427.84,327.51Z" transform="translate(-358.49 -89.35)"/><path class="cls-1" d="M366.86,240.3l-.34-.13.39-.39.26.29Z" transform="translate(-358.49 -89.35)"/><path class="cls-1" d="M463.78,257.48c.13-7-5.38-11.7-7-18a2.34,2.34,0,0,1,1.11-2.14c2.28,3.86,5,7.55,6.7,11.64a48.26,48.26,0,0,0,3.22,6.48,3,3,0,0,0,2,2.94l0,0c2.61,6.54,5.06,13.14,7.84,19.6,4,9.26,7.05,18.84,10.29,28.35-4.06,2.18-3.35-1.72-4-3.37-.87-2.31.11-5.43-3.16-6.59a17.17,17.17,0,0,0-2.28-9,98.53,98.53,0,0,1-6.75-15.3C470,266.6,466.87,262.15,463.78,257.48Z" transform="translate(-358.49 -89.35)"/><path class="cls-1" d="M494.83,310.47l-.74-1c1.18-.33.48.7.74,1Z" transform="translate(-358.49 -89.35)"/><path class="cls-1" d="M424.69,340a6.26,6.26,0,0,1,6-3.41C428.66,338.82,427,340.15,424.69,340Z" transform="translate(-358.49 -89.35)"/><path class="cls-1" d="M425.27,335.49c-1.14,1.58-2.09,2.56-3.69,2.63-.85-1.29,0-1.94.93-2.31A11.35,11.35,0,0,1,425.27,335.49Z" transform="translate(-358.49 -89.35)"/><path class="cls-1" d="M432.23,335.8l-.14-.34.52-.1a.91.91,0,0,1-.08.37C432.48,335.79,432.33,335.78,432.23,335.8Z" transform="translate(-358.49 -89.35)"/><path class="cls-1" d="M463.78,257.48c3.09,4.67,6.19,9.12,8,14.73a98.53,98.53,0,0,0,6.75,15.3,17.17,17.17,0,0,1,2.28,9c0,1.76-2.07,3.13-.27,5.4,1.11,1.4.35,4.2-1.61,5.18-2.17,1.08-1.81-1.72-2.81-2.53-1.66-1.34-3.37-2.73-7-.73,7.75-1,.9,5.77,5.83,7.33s-1.82,6.33.9,9.33c-3.51-1.76-5.66-5-8.19-7.77-6.86-7.49-14.89-13.92-20.62-22.44a18.49,18.49,0,0,1-1.24-2.62c-.6-3.94,2.81-8.09-.6-11.91-.13-.15,0-.64.15-.93.59-1.56,3.62-3.7,1.87-4.23-2.23-.69-5.27-1.83-7.9-.44-1,.51-2.33,2.05-2.77.71-.61-1.86-3.23-3.4-1.75-5.62,1.2-1.79,1-5.18,4.63-4.64.55-3.82,3-2.7,5.35-2.14a4.56,4.56,0,0,0,4.54-1.49c1.36-1.63,3.32-1.33,4.94-2.05a1.55,1.55,0,0,1,2,1c.35.75,0,1.27-.73,1.53-1.27.46-2.22,1.27-1.15,2.53a6.68,6.68,0,0,0,3.24,2.14c1.36.34,2-1,2.12-2.19C460,257.07,462,257.55,463.78,257.48Z" transform="translate(-358.49 -89.35)"/><path class="cls-1" d="M584.79,218.42c-2.41,4.08-6.22,6.3-10.54,7.66-6.11,1.91-12.3,3.59-18.45,5.37.29-2-.79-4.23.94-6,1.28,3,3.27,3.44,6.23,2.13,6.35-2.79,13.49-3.83,19-8.57C582.61,218.46,583.83,218.6,584.79,218.42Z" transform="translate(-358.49 -89.35)"/><path class="cls-1" d="M503.78,162.44h1.92c.76,6.08-1.06,12-1,18.06-1-.38-2-1.57-2.95,0-5.26-1.61-8.51-5.3-10.69-10.14,3.05,1.21,4.74,4,7.46,5.69s3.92,1.34,4.22-1.8C503.11,170.3,503.43,166.37,503.78,162.44Z" transform="translate(-358.49 -89.35)"/><path class="cls-1" d="M500.87,238.44c-4.92,1.06-3.84-3.85-5.75-5.78,1.34-1.32-1.18-5.19,3.22-4.61,1.68.22,1.13-1.17.51-2-1.58-2-.42-3.32,1-4.64.85.15,1.79.5,1.78,1.4C501.51,228.05,502.66,233.32,500.87,238.44Zm-1-5c-.4-.73-.33-1.71-1.24-1.38-.39.13-.68,1-.72,1.53s.12,1.49,1,1.2C499.36,234.67,499.58,233.9,499.87,233.46Z" transform="translate(-358.49 -89.35)"/><path class="cls-1" d="M503.92,215.5c2.28,3.16,4.18,2.08,6.24-.6-1,5.44-5.59,9.19-6.33,14.55a4.05,4.05,0,0,1-.81-5C505.18,221.44,503.51,218.43,503.92,215.5Z" transform="translate(-358.49 -89.35)"/><path class="cls-1" d="M504.84,240.45l6.48,1.55c-2.83,1.26-2.7,5.71-6.39,5.49C506.32,245.13,504.22,242.81,504.84,240.45Z" transform="translate(-358.49 -89.35)"/><path class="cls-1" d="M501.77,249.47a3.64,3.64,0,0,1-1,0c-1.52-.48-4.27,1.2-4.41-1.47s2.43-2.62,4.49-2.5A6.53,6.53,0,0,1,501.77,249.47Z" transform="translate(-358.49 -89.35)"/><path class="cls-1" d="M504.76,181.47c2,.2,4.15,1.33,4.41,3a3.88,3.88,0,0,1-3.32,4C505.49,186.14,505.12,183.81,504.76,181.47Z" transform="translate(-358.49 -89.35)"/><path class="cls-1" d="M507.81,266.46l-1.95,0c0-1.34,0-2.69,0-4l4.37.26C510.38,264.88,508,264.94,507.81,266.46Z" transform="translate(-358.49 -89.35)"/><path class="cls-1" d="M504.94,252.43c1.28.1,2.67,0,2.78,1.86a1.86,1.86,0,0,1-2,2.18C504.41,255.34,504.92,253.84,504.94,252.43Z" transform="translate(-358.49 -89.35)"/><path class="cls-1" d="M504.74,208.41l-.81,1Z" transform="translate(-358.49 -89.35)"/><path class="cls-1" d="M426.83,267.48c3.18.2,3.45,3,4.71,5.06,2.06,3.32,5.44,5.79,6.33,9.86l-3.09,1.07c.48-2.57-1.1-4.2-2.38-6.18-2-3.13-4.92-5.84-5.62-9.76Z" transform="translate(-358.49 -89.35)"/><path class="cls-1" d="M446.78,215.49c-2-1.71-5.45-2.22-5-6l0,0a8.28,8.28,0,0,1,2,.25c1.41.56,2.19,3,4.14,1.77,1.43-.92.9-2.75.86-4.2-.3-12-.81-23.9-.88-35.85,0-2.63-3.15-4.66-1.1-7.45.38-.53.81-1,1.42-1.76,2,9.44,1.76,18.76,2.29,28.06.44,7.73-.77,15.57,1.29,23.2C450,213.9,447.43,212.3,446.78,215.49Z" transform="translate(-358.49 -89.35)"/><path class="cls-1" d="M446.78,215.49c.65-3.19,3.22-1.59,5-2,1.1,8.2,5.49,15.56,6.08,23.88a2.34,2.34,0,0,0-1.11,2.14c-2,0-3.12-.32-2.1-2.88C456,233.22,450,217.69,446.78,215.49Z" transform="translate(-358.49 -89.35)"/><path class="cls-1" d="M417.79,254.51c-4-3.88-5.37-9.39-8.38-13.89-.36-.53-.53-1.3.23-1.73s1.46-.35,1.72.35c2.05,5.3,7.65,8.87,7.44,15.26Z" transform="translate(-358.49 -89.35)"/><path class="cls-1" d="M422.76,188.51c-2.18.23-3.62-.27-4.5-2.71-.81-2.23-1.43-4.86-3.81-6.18-1-.55-1.86-1-.87-2.13s2-.54,2.86.45c2.67,3.18,4.47,6.89,6.33,10.56Z" transform="translate(-358.49 -89.35)"/><path class="cls-1" d="M397.78,223.52l-5.07-3.1c6.83-1.8-.9-5.74,2-8.56,3.34,3.21,3.07,8,5.11,11.67Z" transform="translate(-358.49 -89.35)"/><path class="cls-1" d="M417.79,254.51h1c2.25,4.59,6.89,7.71,8,13l-.05,0c-4.29-2.18-6.12-6.57-9-10v-2C417.78,255.17,417.79,254.84,417.79,254.51Z" transform="translate(-358.49 -89.35)"/><path class="cls-1" d="M424.77,191.5c4.75.82,6.93,3.87,8.22,9.36-4.47-2.71-6.2-6.17-8.23-9.35Z" transform="translate(-358.49 -89.35)"/><path class="cls-1" d="M387.77,195.52c7.05.37,1.57,4.93,3.33,8.07-4.06-2.37-5.68-4.55-3.33-8.07Z" transform="translate(-358.49 -89.35)"/><path class="cls-1" d="M480.75,158.48c5.9-.2,4.89,5.58,7.06,8.61-3.95-1.49-5.22-5.3-7.06-8.62Z" transform="translate(-358.49 -89.35)"/><path class="cls-1" d="M441.77,209.51c-4.41-2-5.57-3.41-6.39-8.35,2.65,3,5.38,4.94,6.41,8.33Z" transform="translate(-358.49 -89.35)"/><path class="cls-1" d="M437.42,275.91c.8-1.38,1.07-3.37,3-2.53a2.32,2.32,0,0,1,.88,2.08C440.42,277.35,438.83,276.11,437.42,275.91Z" transform="translate(-358.49 -89.35)"/><path class="cls-1" d="M397.78,223.52h2c.48,1.37,2.24,2.13,1.67,4.82C399.63,226.84,397.93,225.94,397.78,223.52Z" transform="translate(-358.49 -89.35)"/><path class="cls-1" d="M417.77,255.49v2l-6-1.31.1-.72Z" transform="translate(-358.49 -89.35)"/><path class="cls-1" d="M406.31,234.24c-1.89-.56-2.22-1.67-2-3.39C406.17,231.41,406.52,232.51,406.31,234.24Z" transform="translate(-358.49 -89.35)"/><path class="cls-1" d="M408.89,237.38c-.55-.34-1-.49-1.26-.82-.34-.5.06-.89.55-.88a1.73,1.73,0,0,1,1.15.54C409.45,236.34,409.09,236.89,408.89,237.38Z" transform="translate(-358.49 -89.35)"/><path class="cls-1" d="M406.94,178.4l-.74-.9a3.25,3.25,0,0,1,1.08-.52c.21,0,.59.34.68.6C408.18,178.27,407.68,178.38,406.94,178.4Z" transform="translate(-358.49 -89.35)"/><path class="cls-1" d="M424.76,191.51c-2-.1-2-1.54-2-3h0a3.05,3.05,0,0,1,2,3Z" transform="translate(-358.49 -89.35)"/><path class="cls-1" d="M469.81,258.44a3,3,0,0,1-2-2.94C469.79,255.55,469.82,257,469.81,258.44Z" transform="translate(-358.49 -89.35)"/><path class="cls-1" d="M523.5,175.68c-2.75,2.46-4.43,4.07-7,4.46C517.5,176.91,517.5,176.91,523.5,175.68Z" transform="translate(-358.49 -89.35)"/><path class="cls-1" d="M513.17,217.36c-.25-.23-.86-.54-.85-.83,0-1.27,1.21-1.39,2.09-1.68.22-.08.94.48.94.74C515.32,216.82,514.39,217.18,513.17,217.36Z" transform="translate(-358.49 -89.35)"/><path class="cls-1" d="M529.76,169.46c-.13.72-.11,1.57-1.2,1.5a.41.41,0,0,1-.31-.31c-.08-1.09.78-1.07,1.5-1.21Z" transform="translate(-358.49 -89.35)"/><path class="cls-1" d="M499.87,233.46c-.29.44-.51,1.21-.94,1.35-.9.29-1.06-.61-1-1.2s.33-1.4.72-1.53C499.54,231.75,499.47,232.73,499.87,233.46Z" transform="translate(-358.49 -89.35)"/></svg>