<svg id="Layer_1" data-name="Layer 1" xmlns="http://www.w3.org/2000/svg" viewBox="0 0 333.82 432"><defs><style>.cls-1{fill:#8dc63f;}.cls-2{fill:#fff;}</style></defs><title>beech</title><path class="cls-1" d="M120,310.17c-2.39,8.83-4.71,16.66-6.57,24.76a24.25,24.25,0,0,0,.09,9.06c1.21,6.5,2.92,12.77,4.26,19.23.28,1.34-.16,3.06-.27,4.61l-.91,0c-1-4.87-1.83-9.88-3.09-14.59-1.61-6-3.56-11.73-5.4-17.55a1.88,1.88,0,0,0-.94-1.17c-5.38-1.53-9-7.63-12.9-12.75-5-6.73-9.47-14.63-14.18-22-2-3.21-4-6.54-6.22-9.52-4.41-6-6.7-14.19-9.45-21.95-1.77-5-4-9.57-5.68-14.63-1.53-4.61-2.54-9.63-3.82-14.44-1.89-7.06-4.71-13.55-5.15-21.47-.5-8.86-1-17.73-1.56-26.58-.51-8-1.17-16.09-1.66-24.15-.08-1.25.54-2.58.6-3.89.19-4.51.94-8.93.67-13.56-.07-1.22,1.16-2.64,1.78-4l.76.48c-.4-1.48-.79-3-1.49-5.56,1.75,1.82,2.9,3.14,4.13,4.25.72.67,1.85,1.8,2.31,1.39,3.54-3.22,6.95-.95,10,1.11,5.45,3.65,10.65,8.29,16,12.5a67.24,67.24,0,0,1,17.11,20.9c2.37,4.36,4.35,9.25,6.49,13.91a7.19,7.19,0,0,0,2,2.91c0-2.66.14-5.33,0-8A108.9,108.9,0,0,1,108,163.83c.39-2.2,1.29-4.17,1.87-6.3a13.3,13.3,0,0,0,.73-4c-1-16.22,2.76-30.86,5.87-45.79a193.4,193.4,0,0,1,15-44.92c1.95-4.05,4.27-7.67,6.47-11.4,1.1-1.87,2.4-2.43,3.91-1,.85.81,1.92,1.17,2.63,2.18,4.14,5.87,8.44,11.51,12.2,17.93,3.63,6.18,5.49,13.92,5.78,22.5a44.52,44.52,0,0,0,5.33,19.52,57.79,57.79,0,0,1,6.75,26.4,30,30,0,0,1-.22,5.47c-2,11.24.08,21.76,2,32.38a49.68,49.68,0,0,1,1,10.68c-.34,8.36-1.1,16.67-1.68,25,0,.58,0,1.18,0,2.92,1-2.48,1.77-4,2.32-5.69,3.49-10.83,9-18.58,15.66-24,10.65-8.78,21.9-15.15,33.84-18.1,3.61-.89,7.26-1.34,10.89-2,1.55-.3,3.09-.75,4.28-1,2,2.55,4,4.89,5.81,7.39a7,7,0,0,1,1.18,2.87c1.94,12,2.35,23.87,0,36a294.45,294.45,0,0,1-16.35,55.39c-3.22,7.84-7.5,14.65-11.57,21.52-3.35,5.64-7.11,10.66-10.64,16a45.22,45.22,0,0,0-2.21,4.68c4.18-1.62,7.59-3.13,11.06-4.25,7.23-2.35,14.43-.47,21.58,1.07A87.27,87.27,0,0,1,256,309.86c2.61,1.07,5,3.52,7.54,5a28.64,28.64,0,0,0,5,1.94c-1.35,3.48-2.55,6.69-3.82,9.83-6.42,15.82-13.85,30.28-24.12,40.2-4.57,4.4-9.64,7.58-14.62,10.79-4.52,2.91-9.33,4.72-13.83,7.72-6.9,4.6-13.88,3.7-21,2.64-6.66-1-12.5-5.22-18.31-9.68-3.82-2.93-7.4-2.27-11.05,0-2.46,1.51-4.83,3.43-7.48,5.34l-1.47-3.8c2.51-1.42,4.68-3,7-3.87,3.82-1.43,6.07-4.59,7.79-10.54,2.53-8.73,6.18-16.65,9.38-24.89.41-1.06,1-2,1.37-2.8-5.15,2-10.25,4.1-15.39,5.87a20.92,20.92,0,0,1-6.69,1.12c-4.05,0-7.27,2.51-10.23,6.79a18,18,0,0,1-5.68,5.24c-3.09,1.8-3.56,1.09-4.07-3.34,3.64-2.95,7.09-5.83,10.59-8.57,2.36-1.84,3.15-5.28,3.05-8.8-.37-12.56,1.5-24.43,3.92-36.2a4.34,4.34,0,0,0-.1-.93c-2.56,4.57-4.91,9.3-7.6,13.48A212.15,212.15,0,0,1,134,329.86c-5.27,6.61-7.56,15.28-8.39,25.35a51.16,51.16,0,0,1-.81,6.92c-.24,1-1.31,2.27-2,2.24-1,0-2.45-.58-2-3.26.36-2.13.79-4.23,1.27-6.29,1.28-5.51,2.81-10.89,3.84-16.51A22.42,22.42,0,0,0,124.49,326C122.69,321.3,121.59,316,120,310.17ZM58,215.63c1.31,4.37,2.94,5.22,5.69,3.16C61.6,213.73,60.72,213.2,58,215.63Zm96.39,104.29-.83-.29c-3,7.43-3.19,9.26-.46,11.81C153.57,327.38,154,323.65,154.41,319.92Z"/><path class="cls-2" d="M141.86,60.65c-.18,11.3-.55,22.59-.82,33.88l-1.13,33.87c-.76,22.58-1.75,45.15-2.74,67.72s-2.14,45.13-3.44,67.68l-2,33.83c-.77,11.27-1.43,22.55-2.28,33.82.17-11.3.54-22.59.81-33.89l1.13-33.87c.76-22.57,1.75-45.14,2.75-67.71s2.14-45.13,3.45-67.68l2-33.83C140.34,83.2,141,71.92,141.86,60.65Z"/><path class="cls-2" d="M243,180q-9.91,19.35-20.34,38.43c-3.44,6.38-7,12.7-10.46,19.05l-10.61,19-10.74,18.89c-3.64,6.27-7.22,12.57-10.9,18.81Q169,312.94,157.55,331.45q9.91-19.36,20.34-38.44c3.44-6.38,7-12.7,10.46-19.05L199,255l10.75-18.89c3.63-6.27,7.22-12.57,10.9-18.81Q231.55,198.51,243,180Z"/><path class="cls-2" d="M261.55,319.63c-7.25,4.9-14.66,9.56-22.11,14.12-3.72,2.3-7.49,4.51-11.23,6.77l-11.31,6.62-11.39,6.49c-3.82,2.11-7.62,4.27-11.47,6.33-7.68,4.18-15.41,8.27-23.29,12.1,7.26-4.91,14.66-9.57,22.12-14.12,3.71-2.31,7.48-4.52,11.22-6.77l11.31-6.63,11.39-6.48c3.83-2.11,7.63-4.27,11.48-6.33C246,327.55,253.68,323.46,261.55,319.63Z"/><path class="cls-2" d="M53.12,154Q60.83,175.16,68,196.5c2.42,7.11,4.75,14.25,7.12,21.37l7,21.42,6.81,21.47c2.21,7.18,4.48,14.33,6.64,21.53q6.6,21.52,12.64,43.25Q100.44,304.36,93.28,283c-2.43-7.1-4.74-14.25-7.12-21.37l-7-21.42-6.8-21.47c-2.22-7.18-4.48-14.34-6.64-21.53Q59.17,175.69,53.12,154Z"/><path class="cls-2" d="M135.12,83.25A19.31,19.31,0,0,1,133,79.17a31.22,31.22,0,0,1-2-8.67,18.37,18.37,0,0,1,.13-4.61A18.37,18.37,0,0,1,133.23,70a31,31,0,0,1,1.33,4.27,30.68,30.68,0,0,1,.69,4.41A18.86,18.86,0,0,1,135.12,83.25Z"/><path class="cls-2" d="M132.61,124.33a50.7,50.7,0,0,1-3.16-7c-.89-2.38-1.66-4.79-2.34-7.23s-1.25-4.89-1.71-7.39a50.5,50.5,0,0,1-.89-7.62,50.7,50.7,0,0,1,3.16,7c.89,2.38,1.66,4.79,2.33,7.22s1.25,4.9,1.71,7.4A51.83,51.83,0,0,1,132.61,124.33Z"/><path class="cls-2" d="M126.53,177.76c-1.32-4.19-2.35-8.43-3.28-12.69-.49-2.12-.88-4.26-1.31-6.4l-1.15-6.43c-.72-4.29-1.31-8.6-1.8-12.93s-.88-8.68-1-13.07c1.33,4.19,2.36,8.43,3.29,12.69s1.75,8.53,2.45,12.83l1,6.45c.28,2.16.6,4.31.82,6.48C126,169,126.43,173.37,126.53,177.76Z"/><path class="cls-2" d="M126.19,222.82c-1.66-3.92-3-7.91-4.29-11.93-.67-2-1.22-4-1.83-6l-1.66-6.1c-1.07-4.07-2-8.17-2.85-12.3s-1.58-8.29-2-12.52c1.66,3.92,3,7.91,4.3,11.93s2.43,8.07,3.48,12.14l1.5,6.14c.45,2.05,1,4.1,1.34,6.17C125,214.43,125.74,218.59,126.19,222.82Z"/><path class="cls-2" d="M125.77,260.41a109.48,109.48,0,0,1-5.31-10.11c-.84-1.71-1.57-3.46-2.35-5.18l-2.2-5.25c-1.42-3.51-2.72-7.07-3.93-10.67a109.58,109.58,0,0,1-3.14-11,109.58,109.58,0,0,1,5.32,10.11q2.41,5.14,4.54,10.43l2,5.3c.63,1.79,1.3,3.56,1.88,5.37A107,107,0,0,1,125.77,260.41Z"/><path class="cls-2" d="M123.59,295.65a88.17,88.17,0,0,1-5.54-8.58c-1.71-2.93-3.28-5.92-4.78-9s-2.91-6.1-4.2-9.24a87.15,87.15,0,0,1-3.44-9.62,86.34,86.34,0,0,1,5.54,8.58c1.71,2.93,3.29,5.93,4.79,9s2.9,6.11,4.19,9.24A89.24,89.24,0,0,1,123.59,295.65Z"/><path class="cls-2" d="M268.13,27.18A9.26,9.26,0,0,1,266,24.83a13,13,0,0,1-1.31-2.64,13.47,13.47,0,0,1-.72-2.86,9.37,9.37,0,0,1,.1-3.15,9.27,9.27,0,0,1,2.12,2.34,13,13,0,0,1,1.31,2.64,13.16,13.16,0,0,1,.71,2.86A9.17,9.17,0,0,1,268.13,27.18Z"/><path class="cls-2" d="M222.68,49.34a28.1,28.1,0,0,1-3.12-4.69,46.08,46.08,0,0,1-2.32-5,45.26,45.26,0,0,1-1.73-5.24,27.27,27.27,0,0,1-.92-5.55,28,28,0,0,1,3.12,4.68,49.36,49.36,0,0,1,2.32,5,47,47,0,0,1,1.72,5.23A28.08,28.08,0,0,1,222.68,49.34Z"/><path class="cls-2" d="M148.09,83.7a17.18,17.18,0,0,1,.45-4.35,28.16,28.16,0,0,1,3.09-7.86A17.24,17.24,0,0,1,154.27,68a16.86,16.86,0,0,1-.45,4.36,27.46,27.46,0,0,1-3.09,7.85A17.24,17.24,0,0,1,148.09,83.7Z"/><path class="cls-2" d="M145.28,124.74a46.33,46.33,0,0,1,1.85-7c.77-2.26,1.65-4.47,2.62-6.65s2-4.3,3.21-6.38a45.65,45.65,0,0,1,4-6,46.12,46.12,0,0,1-1.84,7q-1.17,3.39-2.63,6.64c-1,2.17-2,4.3-3.22,6.38A44.93,44.93,0,0,1,145.28,124.74Z"/><path class="cls-2" d="M144.39,179c.65-4.17,1.58-8.24,2.62-12.29.49-2,1.08-4,1.63-6l1.79-6c1.23-4,2.59-7.93,4-11.84s3-7.79,4.86-11.59c-.65,4.17-1.59,8.25-2.62,12.29s-2.17,8.06-3.42,12l-1.95,5.95c-.7,2-1.35,3.94-2.11,5.89C147.78,171.33,146.22,175.22,144.39,179Z"/><path class="cls-2" d="M142.86,224.52a119.21,119.21,0,0,1,3.59-11.42c.65-1.88,1.4-3.72,2.11-5.58l2.25-5.52c1.55-3.65,3.22-7.26,5-10.83a119.09,119.09,0,0,1,5.75-10.5,119.21,119.21,0,0,1-3.59,11.42c-1.36,3.74-2.8,7.44-4.37,11.09l-2.41,5.45c-.85,1.79-1.66,3.61-2.56,5.38A119.16,119.16,0,0,1,142.86,224.52Z"/><path class="cls-2" d="M141.39,262.42a95.31,95.31,0,0,1,4.5-9.59c1.63-3.11,3.39-6.15,5.21-9.15s3.75-5.94,5.78-8.81a94.29,94.29,0,0,1,6.5-8.37,91.24,91.24,0,0,1-4.5,9.59c-1.63,3.12-3.39,6.16-5.22,9.16s-3.74,5.93-5.78,8.8A94.17,94.17,0,0,1,141.39,262.42Z"/><path class="cls-2" d="M139,305.67a74.1,74.1,0,0,1,4.62-8.17c1.67-2.64,3.45-5.18,5.3-7.68s3.78-4.93,5.82-7.28a71.7,71.7,0,0,1,6.51-6.78,74.17,74.17,0,0,1-4.63,8.17c-1.66,2.64-3.44,5.18-5.3,7.68s-3.78,4.93-5.82,7.28A75.5,75.5,0,0,1,139,305.67Z"/></svg>