<svg id="Layer_1" data-name="Layer 1" xmlns="http://www.w3.org/2000/svg" viewBox="0 0 333.82 432"><defs><style>.cls-1{fill:#99c864;}.cls-2{fill:#fff;}</style></defs><title>birch</title><path class="cls-1" d="M49.8,273.62l6.63-1.2c-2.22-4-4.66-7.8-6.55-11.84a88.73,88.73,0,0,1-4.61-12.28c-1.25-4.23-2-8.59-3-13.33l7,1.32c-.65-9.18-1.56-18.3-1.85-27.44s1.12-18.16,3.22-27.25l9.85,3.61c2.11-17.52,7.47-33.86,17.81-48.9L85.24,144c3.36-13.74,7.49-26.78,15.41-39,2.88,4.45,5.57,8.62,8.67,13.4,3.77-13,9.54-24.5,19-34.63l5.4,6.79c3.41-10.46,8.28-19.77,16.51-27.65L153.4,67c3-8.9,7-17,13.46-24.34,6.55,7.2,10.52,15.36,13.59,24.48l3.13-4.21c8.21,7.8,13.12,17.12,16.5,27.69l5.38-6.87c9.68,10,15.29,21.6,19,34.71l8.75-13.35c8.14,12,12,25.18,15.39,39l6.84-7.81c10.6,15,15.69,31.35,17.81,48.9l9.87-3.63c4.05,18.21,4.6,36.25.47,54.79l3.69-.63,3.82-.69a57.57,57.57,0,0,1-4.38,19.41c-2.58,6.12-5.88,12-8.9,18l6.69,1.19c-3.63,3.49-6.63,6.7-10,9.52s-7.29,5.31-11.2,8.12l5.73,1.91c-29.91,19.91-63.56,29.3-99.67,33,5.52,25.66,4.92,51.1,1.81,76.39l-8.53-.38c.26-2.7.61-5.78.84-8.87,1.09-14.78,2.39-29.55,3.09-44.35.32-6.75-.61-13.54-.85-20.31-.06-1.89-.94-2.31-2.88-2.53-30-3.39-58.65-10.62-84.74-24.89-4.43-2.42-8.67-5.11-13.55-8l6.56-2.07C62.88,286.4,55.68,280.92,49.8,273.62Zm118.28,44a30.42,30.42,0,0,0-3.72-2.73C128.24,296.4,93.19,276.46,61,252.69c-1.25-.93-2.53-1.83-3.79-2.74l-.56.58c.71.48,1.45.93,2.13,1.44,10.13,7.77,19.95,15.9,30.44,23.26,23.34,16.37,48.72,29.89,74.74,42.45a35.58,35.58,0,0,1,4,2.64c35.76-9.45,99.66-49.54,109.42-68.91A357.73,357.73,0,0,1,168.08,317.61Zm0-23.68c-1.54-1.86-2.41-3.44-3.77-4.51-29-22.77-57-46.43-82.94-72.12-3.78-3.76-7.53-7.55-11.49-11.52,0,.49-.08.71,0,.81,3.25,3.55,6.46,7.13,9.77,10.63,25.54,27,54,51.32,83.44,74.71A51.18,51.18,0,0,1,168,297c33.26-25.92,65.52-53.52,94.25-85.3-15.75,14.53-30.64,28.86-46.26,42.5S183.84,280.94,168.13,293.93ZM167,211.31c19.12-16.05,52.34-61.11,54.78-74-14.34,25.54-33.48,47.55-54.71,68.85-.24-4.57-.26-4.56-3.19-7.58-13.2-13.6-25.47-27.85-36-43.29-5.36-7.9-10.31-16-15.54-24.2.51,1.17.94,2.24,1.42,3.28,12.13,25.89,29.63,48.65,49.81,69.83C165.54,206.2,168,208,167,211.31Zm-.41,37.75a4.69,4.69,0,0,0-1.56-5.57c-26.37-23.82-50.39-49.37-70-78.15-.28-.41-.64-.79-1-1.19C112.36,196.46,137.87,223.71,166.58,249.06Zm74.35-81a5.92,5.92,0,0,0-.69.73c-19.86,29.53-44.57,55.49-71.52,79.82-1.16,1.06-1.52,2.86-2.25,4.31l1.05.47C196.65,228.28,222.46,200.79,240.93,168.09ZM167.3,165.6c15.2-16.46,29.26-33.12,31.34-55.4-1.93,5.36-3.59,10.75-5.81,15.94-5.27,12.3-14,22.65-23.3,32.62C167.76,160.66,166.08,162.52,167.3,165.6Zm-.67-8.55a6.23,6.23,0,0,0-1.6-6.34c-4.28-4.87-8.51-9.81-12.39-15a90.75,90.75,0,0,1-15.53-32.26C139.3,124.64,151.9,141.09,166.63,157.05Zm.12-44.41.83.19c5.25-7.82,10-15.85,12.78-23.75-3.94,6-8.43,12.62-12.71,19.39C166.91,109.63,167,111.24,166.75,112.64ZM155.56,80.19l-.44.12L166,101.56l1.1-.32c-.21-1.25-.09-2.66-.71-3.71C162.85,91.7,159.17,86,155.56,80.19Z"/><path class="cls-2" d="M168.08,317.61a357.73,357.73,0,0,0,109.25-66.2c-9.76,19.37-73.66,59.46-109.42,68.91a35.58,35.58,0,0,0-4-2.64c-26-12.56-51.4-26.08-74.74-42.45C78.69,267.87,68.87,259.74,58.74,252c-.68-.51-1.42-1-2.13-1.44l.56-.58c1.26.91,2.54,1.81,3.79,2.74,32.23,23.77,67.28,43.71,103.4,62.19A30.42,30.42,0,0,1,168.08,317.61Z"/><path class="cls-2" d="M168.13,293.93c15.71-13,32.15-26,47.86-39.74s30.51-28,46.26-42.5c-28.73,31.78-61,59.38-94.25,85.3a51.18,51.18,0,0,0-4.85-5.06c-29.48-23.39-57.9-47.73-83.44-74.71-3.31-3.5-6.52-7.08-9.77-10.63-.09-.1,0-.32,0-.81,4,4,7.71,7.76,11.49,11.52,25.9,25.69,54,49.35,82.94,72.12C165.72,290.49,166.59,292.07,168.13,293.93Z"/><path class="cls-2" d="M167,211.31c1-3.29-1.45-5.11-3.39-7.15-20.18-21.18-37.68-43.94-49.81-69.83-.48-1-.91-2.11-1.42-3.28,5.23,8.17,10.18,16.3,15.54,24.2,10.49,15.44,22.76,29.69,36,43.29,2.93,3,2.95,3,3.19,7.58,21.23-21.3,40.37-43.31,54.71-68.85C219.33,150.2,186.11,195.26,167,211.31Z"/><path class="cls-2" d="M166.58,249.06c-28.71-25.35-54.22-52.6-72.53-84.91.32.4.68.78,1,1.19,19.62,28.78,43.64,54.33,70,78.15A4.69,4.69,0,0,1,166.58,249.06Z"/><path class="cls-2" d="M240.93,168.09c-18.47,32.7-44.28,60.19-73.41,85.33l-1.05-.47c.73-1.45,1.09-3.25,2.25-4.31,26.95-24.33,51.66-50.29,71.52-79.82A5.92,5.92,0,0,1,240.93,168.09Z"/><path class="cls-2" d="M167.3,165.6c-1.22-3.08.46-4.94,2.23-6.84,9.31-10,18-20.32,23.3-32.62,2.22-5.19,3.88-10.58,5.81-15.94C196.56,132.48,182.5,149.14,167.3,165.6Z"/><path class="cls-2" d="M166.63,157.05c-14.73-16-27.33-32.41-29.52-53.55a90.75,90.75,0,0,0,15.53,32.26c3.88,5.14,8.11,10.08,12.39,15A6.23,6.23,0,0,1,166.63,157.05Z"/><path class="cls-2" d="M166.75,112.64c.28-1.4.16-3,.9-4.17,4.28-6.77,8.77-13.42,12.71-19.39-2.76,7.9-7.53,15.93-12.78,23.75Z"/><path class="cls-2" d="M155.56,80.19c3.61,5.77,7.29,11.51,10.78,17.34.62,1,.5,2.46.71,3.71l-1.1.32L155.12,80.31Z"/></svg>