<svg id="Layer_1" data-name="Layer 1" xmlns="http://www.w3.org/2000/svg" viewBox="0 0 303.19 471.68"><defs><style>.cls-1{fill:#90c33e;}</style></defs><title>cascara93</title><path class="cls-1" d="M551.42,426.1c-12.55,3.08-24-.24-35.44-3.86l-.69,0L512,421.8c-3.75-8.38-18.17-8.43-21.16-17.45-.1-.32-1.43-.73-1.84-.56-4.2,1.72-6.19-1.37-7.55-3-2.43-2.94-5.3-3.51-9.08-3.15a1.37,1.37,0,0,1-.86-.87,2.33,2.33,0,0,0-2.4-1.75l-.92-.86L467,392.84c-9.68-10-19.05-20.28-25.73-31.83-1.73-3-6.36-4.4-6.21-8.18.61-1,1.72-1.22,3-1.21l.58,1.48.51-.28c-.33-.42-.68-.83-1-1.24.75-3,.6-5.28-4.46-3.48l0,0c-.1-.58.06-1.32-.33-1.69-4.46-4.22-6.94-8.9-6.86-14.58.05-4.1-.69-8.17-8.24-6.89-.85.14-2.42-1.17-3.16-2.07-3.48-4.2-5.43-8.55-2.08-13.53.82-1.21,1.37-2.92-1.15-4.38-1.37,2-1.79,5.15-6,4.39-.92-2.85-3.61-4.84-5.37-7.28,1.36.2,2.86,2.18,4,.21.8-1.34-.23-3-2.08-3.19-3.19-.26-2.64,1.49-1.84,3.08.62-5.07-3.08-9.23-5.56-13.29-2.13-3.46-3.06-6.47-2.51-10.06,8.87.45,7.53,6.12,8,11.08a13.87,13.87,0,0,0,2.87-4.3c1.47-3-5.28-10.84,6.88-7.62,3.09-4.42,7.76-1.27,10.79-1.92,3.88,1.44-6.9.59.34,3.83,3.74,1.67,10.56,4.15,11.36,9.52-1.05.15-2.3.09-2.23,1.37,0,.13.28.36.44.37,1.6.08,1.56-.92,1.76-1.76a17.6,17.6,0,0,1,2.18,0,13.6,13.6,0,0,0,11.42-3.81c2.93-3.09-2.27-4.75-4.09-7a10.09,10.09,0,0,1-2-3.73c-.77-3.12-3.27-5-6.44-6.54-6.95-3.46-7.42-5.25-2.73-11.55-2.89.51-6.4,1.48-6.52-1.66-.14-3.9,3.83-3.16,6.91-3.16.33,2.5,2.51,3.93,5,6.16,1.24-4.31-1.36-5.55-4.81-6.32-1-2.58-2.24-5-5.84-5.86-.23-.15-.45-.31-.67-.47l.56.56c-.69,1.45,3,3.54-.5,4.34-2.43.56-5.64-1-5.52-2.82.42-6.45-13.18-9.52-6.22-17.29-7-3.11.82-12.32-9.12-14.22a1.24,1.24,0,0,1-.84-.9c.07-4-3.91-7.28-3.5-12.32,5.06,4.54,8.67.3,12.64-.47s5.24-5.25,9.93-5.66a16.72,16.72,0,0,0-.8-2.18c-1.06-2-4.48-3.86-2.16-6.23s5.34.33,8.08.26c-.06,2.53-.25,5.11,3.7,6.88.83-3.54-2.09-5-3.71-6.86.38-2.61-1.42-4.4-3.87-6.42-.73,2.72-2.64,5-5.86,3.64-3.38-1.47,2.4-2.89,1-4.78,4.3-1.78,3.37-4.84,3.55-7.91.11-1.8,3.61-3.14,4.82-1.12,3.75,6.27,8.38,1.88,14.62,2.33-4.08-3-7.35-1.36-10.32-2.94,3.33-.56,6.1-1.32,8.91-1.42,3.63-.13,4.09-1.29,5.65-4,1.8-3.1.57-8.35,7-9.85-8.08.91-10.95-4.09-11.08-8.23-.09-2.61-1.13-5.69-.55-7.52,1.38-4.39-3.53-9.88,3.39-13.63,1.83,3.41,3.44,6.75,8.67,2.71,1.91-1.48,4.35.08,5.45,1.61,2.46,3.39,8.23-.5,10.34,3.24,2.06-2.94,8.15-2,8.79-7s-5.65-2-6.18-4.75c4.2-4.19,10.15,2.83,14.5-1.28.38.41,1.13.85,1.08,1.23-.63,4.88,4.72,5.41,8.2,6.57,4.46,1.49,6.11,3.76,6.85,7.31,1.9,9.15,4.54,18.2,6.48,27.35.6,2.82.67,6.69,4.42,9.45.66-3.08.08-5.5-.38-8-.81-4.55-3.63-8.94-1.94-13.71l1.48-1.17a4.62,4.62,0,0,0,4.42-2.3c.55-.74,1.09-1.48,1.64-2.21,1.08-.2,2.21-.37,2.07-1.58a.64.64,0,0,0-.46-.36c-1.51-.07-1.67.86-1.92,1.72a2.5,2.5,0,0,0-1.39,2.38c-2.16-.05-3.59.75-4.36,2.36l-1.46,1.17c-5.66-4.83-2.07-11.51-5.26-16.84-4.48-7.51-2-13.74,5.73-19.09,2,1.79-.72,6.25,3.17,5.94,4.18-.33,7.17,3.6,8.86,2.43,3-2,9.43-3,6.39-8.25,4.6.44,6.73,1.33,4.3,5.16s-3.76,7.94-5.58,11.95a6.61,6.61,0,0,0-3,4.67,2.37,2.37,0,0,0-1.49,2.32c-.38.43-.76.84-1.1,1.28a4.59,4.59,0,0,0,.52.33c.23-.5.47-1,.71-1.51a2.38,2.38,0,0,0,1.49-2.33c3.7-.46,2.64-2.85,3-4.68,4.75-.72,4.23-4.37,5.47-6.82a57.2,57.2,0,0,1,10-14.53c.09,3.78-1.06,7.35,2.65,10.43,1,.87-.88,1.4-2,1.58-.51-.5-.81-1.57-1.93-.46l2,.43c.17,1.29.95,1.9,2.59,2.4,5.18,1.56,9.7-1.23,14.62-1.13,4.12.09,6.83-.7,4.93-4.76-.46-1-.67-2.66,1.34-2.79,2.2-.14,2.78,1.39,2.48,2.85-.65,3.15-1.95,6.06-6.11,7.64,2.32.08,4.49,3.17,6.22,0a42.19,42.19,0,0,0,2.14-5.6c.9,6.56,6.09,5.43,11.1,5.25,8.26-.3,11.36,2.23,9.2,8.5-1.68,4.89,5.81,4.93,5.51,8.6,7.79-.53,7.31,5.71,11,8.55,1.09-.76,1.36-4.41,2.91-2.36,2.68,3.53,8.17,5.25,9.13,9.67-.12.16-.24.32-.35.49l.33-.51c3.6.94,5-2.31,9.85-3.45-3.25,2.76.58,6.19-4.78,7.22-.71.13-.71,2.67-1,4.1,4.55.67,2.21,4.29,4,6.05s1.57,5.45,6.88,4.28c2.28-.49,3.61,1.69,4,4,1.2,6.69.21,13.15-2.83,19.91,4.85-.81,3.48-3.88,4.69-5.7,1-1.47,1-3.77,4.09-3.32,3.5.51,2.17,2.36,1.57,4.06-.31.89-.57,2.54-.09,2.76,6.11,2.78.3,3.9-.87,5.94-1.45,2.51-5.69,5.43,1.8,7.71,4.14,1.25,13.28-.81,11,7.58,2.75-1.41,5.53-3.65,7-1.52,2.58,3.86-3-1-3.31,1.6s-2.63,5.22.6,7.52c1.5,1.07,4.2,1.15,2.39,3.78s-3.72-1.18-6.22.92c5.11,1.6,2,7.08,7.32,8.9h0c0,1.3.36,2.72-1.51,3.52-.27-.61.34-1.73-1.34-1.51a.67.67,0,0,0-.48.39c-.27,1.33,1.06.92,1.87,1.09.22,2.53,2.72,3.31,5.06,3.41,4.13.18,2,3.28,3.73,4.48-1.94.17-1.2,4.09-4.74,2.15-1.28-.7-2.18.17-3,.92-4.13,3.64.38,7.87-1.21,11.81-.56,1.37,2.77,1.56,4.46,2.07,4.31,1.29,5.91,3.32,2.75,6.57-.46.48-2.38.88-1.23,1.36,9.15,3.75-6.51,9.55,1.82,13.21-.75.42-1.84.7-2.2,1.27-1.8,2.85-8.66,5.48-6.82,6.95,4,3.19.18,3.28-1.23,4.44-2.59,2.13-2.21,3.09,1.54,3.64,2.1.3,4.09.77,7.09-.58-1.88,3.4-2.73,5.76-4.38,8-2.22,3,0,3.7,3.42,3.08,0,1.15-.09,2.29-.13,3.44-3.83.16-7.4-2.17-11.48-.74,1.71,1.34,5.87.47,5.37,3.66-.45,2.84-2.73,4.41-6.12,4.94-4.51.71-7.42,2.49-7.29,6.43,2.31,1.66,5.93-2.82,5.82-.18-.14,3.83,4,8-1.62,12-3.31,2.36-6.56,6.34-6,10.5.54,4.33-1.72,7.87-3.08,11.73-1,2.84-6.6,3.77-5.09,7.14a4,4,0,0,1-3,5.62c-6.34.74-5.13,5.49-7.49,8.17-1.92,2.18,1.68,1.78,3.27,2.09-4,6.11-7.86,12.06-14.79,16.78-9.83,6.7-20.62,11.84-32.86,14.21-7.14,1.39-14.26,5.19-22.31,2.41-2.48-.86-3,1.45-4.34,2.39.72-7.64,2.4-15.31,2-22.9-.77-13.15-3.49-26.17-6.08-39.2-4.09-20.53-8.44-41-12.34-61.56-2.53-13.39-8.11-26.57-6-40.43,4.31-2,9.49-3.28,10.3-8.14,1.84,0,2.91-.73,3.06-2.25l1.42-1.17c3.41-.4,5.23-2.07,5.85-4.71a4.19,4.19,0,0,0,3-4.62l1.45-1.16c5.7-2.74,8.58-6.88,9.38-12.05-3.39,3.87-8.17,7-9.59,11.88l-1.45,1.16a4.3,4.3,0,0,0-3,4.7c-3.77.07-4.34,2.76-5.88,4.66l-1.48,1.13c-1.88.09-2.79.93-2.85,2.41-3.22,2.88-9.27,3.47-10.27,8.17-.82-.34-2.2-.56-2.36-1A140.48,140.48,0,0,1,530.37,242c-1.27-8-3.06-15.9-4.5-23.86-.85-4.71.07-9.78-4.86-13.86.68,17.19,5.8,34,8,51.52-4.62-1.2-8.16-3.58-12.66-3.44-1.86-2.84-5-4.1-8.76-4.7-4.27-4.05-10.28-6-15.91-8.37a15.77,15.77,0,0,0-10.07-4.82c-3.38-5.45-8.91-8.78-16-10.58-1-3.47-4.09-5.2-9.16-7.23,2.49,4.1,4.64,6.58,8.94,7.4,4.07,4.77,10.06,7.67,16,10.66a13.09,13.09,0,0,0,10.16,4.74c3.61,5,10.09,6.28,16.1,8.19.85,4,4.77,4.38,8.68,4.77.77,1.34,2.14,1.94,3.85,2.42,6.1,1.73,9.86,4.9,10.91,10.36,3.48,18.11,7.29,36.19,11.15,55.16-4.63-2.56-8.42-4.63-14.84-4.48,3,1.67,4.4,3,6.13,3.35,8.31,1.47,10.47,6.66,11,12.2,1.47,14.82,8.13,29.12,6.55,44.27-.17,1.68.12,4.84,1.35,5.81,7.73,6.12,3.09,13.34,3.41,20.06.13,2.82-1.91,3.57-5.38,2.61-4.28-1.18-8.74-1.92-13.13-2.86a17.82,17.82,0,0,0,6.53,2.83c12,3.43,13,4.95,12.1,14.89C555.62,422.11,552.17,423.45,551.42,426.1Zm32.68-79.61,1.48-1.16c3.12-.43,3.83-2,3.66-4.37-3.61.54-3.58,2.48-3.66,4.37l-1.46,1.18-.35.46Zm33.6,16.7.53-.67-.85.41-.55.68Zm-189.39-60.9.58.28-.6-.27-.6-.28Zm180.45,65.44,1.46-1.16a3.48,3.48,0,0,0,3-1.1l.59-.62-.79.46a3.11,3.11,0,0,0-2.82,1.25l-1.47,1.17-1.57,1.06-.62.67.85-.48Zm-155-153.19.64,1.55.54-.31c-.34-.45-.72-.89-1.09-1.32a3.22,3.22,0,0,0-2.9-1.19c-.15-2-1.38-3.24-3.92-4-.63,3,1.36,3.71,3.86,4.06A3.17,3.17,0,0,0,453.76,214.54Zm49.94-38.42c.52.28,1,.56,1.58.82a3.47,3.47,0,0,0,.38-.41L503.8,176c-.59-1-1.69-1.16-2.88-1.2-2.11-3.38-6.62-3.41-10.2-4.74-.53-.29-1.06-.58-1.61-.84,0,0-.27.26-.4.41l1.89.54c2.39,3,5.82,4.53,10.21,4.73C501.41,175.88,502.51,176.06,503.7,176.12Zm71.69,178.61,1.4-1.2c2.91-.51,3.86-1.92,3.61-4.55a5.46,5.46,0,0,0-3.69,4.48l-1.52,1.1c-.37.43-.75.86-1.08,1.31a3.3,3.3,0,0,0,.5.35ZM640,284.61c-.95.1-2,.18-2.13,1.16,0,.19.56.67.8.64,1.22-.13,1.24-1,1.42-1.73a6.47,6.47,0,0,0,3-4.66l1.46-1.14,6.22-2.85c-4.6-1.14-5.86.34-6.37,2.72L643,279.9C639.24,280.37,640.31,282.76,640,284.61Zm-5.19-72.68c.8-.19,2.17.24,1.88-1.11a.69.69,0,0,0-.5-.4c-1.67-.24-1.17.85-1.39,1.5-1.92.91-3.54,1.91-2.19,4.11C635,215.06,634.76,213.44,634.84,211.93Zm-29.79,46.56c-1.4.31-2.69.73-2.54,2.17,0,.26.54.72.73.69,1.68-.28,1.81-1.49,2.19-2.54,2.61-1.37,4.38-3.16,4.55-5.77a9.29,9.29,0,0,0,5.7-6c1.85-1,3.84-2,3.65-4.35-3.81.25-3.61,2.35-3.9,4.17-3.5.93-4.79,3.32-5.95,5.8C606.92,254.09,605,255.79,605.05,258.49Zm-21.21-43.25c1.68-1.56,3.55-3.09,1.62-5.86-2.32,1.85-1.5,3.9-1.9,5.67-2.71,1.38-3.68,3.57-4.33,5.91-2.11,2.36-5,4.4-5.41,8.37,4.17-2.4,5.87-4.91,5.56-8.24C583.22,220.3,583.46,217.73,583.84,215.24ZM593,337.17l-1.14,1.27.58.29.55-1.57c3.14-.24,4.95-1.46,5.43-4.33C594.64,333.29,593.38,334.92,593,337.17ZM563.55,364c1.28-.16,2.9.3,3.55-1.05.1-.22-.64-1-1.07-1-1.9-.23-2.21.95-2.5,2.08-3,.33-4.88,1.46-5.27,4.35C561.76,367.69,563.26,366.28,563.55,364ZM423.93,298.76c-.44-.68-.87-1.37-1.33-2.05-.67-1-1.26-2.2-3-2.08a1.65,1.65,0,0,0-1.13,1.16c-.09,1.45,1.51,1.84,2.75,2.35a16.73,16.73,0,0,0,2.75.61,1.6,1.6,0,0,0,.23.4c.07.07.25.06.38.09ZM598,266.9c1.77-1,3.73-1.87,2.11-4-2.49.7-2.11,2.4-2.37,3.85-4.12.44-4.38,2.93-4.73,5.38C595.19,270.65,597.64,269.38,598,266.9Zm5.1,60.84-.58.64.81-.45c2.82-1.63,5.13-3.48,5.06-7.3C604.48,322.64,603.3,325,603.1,327.74ZM441.34,312.92a19.08,19.08,0,0,0-7.32-5.61c1.56,3.47.52,7.8,7.34,5.6.11.76.15,1.58,1.36,1.73.23,0,.82-.45.79-.63C443.32,313,442.25,313.05,441.34,312.92ZM655.11,230.8c-.2-1-.6-2.46-1.85-2.07-4.91,1.53-10.54,1.93-14.24,5.49a2.47,2.47,0,0,0-.5.19c-.09.06-.08.2-.12.3l.64-.48c5.81.23,10.31-3.53,16.08-3.44.53.38.8,1.52,1.86.43ZM473.34,160.57a19,19,0,0,0-11.71-9.34L461,151l.61.25c1.39,5.09,6.33,7.4,11.53,9.51,1.27,1.48,2.37,3.19,5.36,3C478.24,160.61,475.63,160.78,473.34,160.57Zm158.39,76,3.21-.5c-.12-.16-.21-.41-.37-.45a2.51,2.51,0,0,0-2.87.91c-5.09,1-7.26-.68-7.09-4.93l-4.26,8.75C623.82,237.9,629.69,240.57,631.73,236.55Zm-30.31-50.63c-.36.44-.72.87-1,1.31a4.52,4.52,0,0,0,.52.31l.65-1.52c5.76-2.71,5.41-8.25,8.71-12.1.66-.77,3.24-1.14,1.14-2.48-1.44-.92-2.72.06-3.54,1.1A36,36,0,0,0,601.42,185.92ZM449,267.24c.14.56,0,1.36.46,1.66q15.48,10.91,31.1,21.67c.08.05.7-.38.5-.27-4-3.64-7.78-7.68-12.35-11-6.15-4.42-12.28-9-19.69-12.11-.55-2.42-2.33-3.15-5.61-2.92C444.85,266.58,446.86,267,449,267.24ZM497,297.81l-1.44,1.84c10.21,4.79,18.42,12.12,30.93,14ZM572,295.37c-2.21,1.57-7.68,1-7.06,1.93,2.55,3.72-2.2,4.11-3.29,6-1.61,2.82-6.13,3.95-7.74,7.74C564.14,308.36,567.55,301.58,572,295.37Zm-9.73-137.23c5.37-8.15,12.66-16,7.76-26.34C571.73,141.47,564,149.11,562.29,158.14Zm36.65,32.12c-5.13,4-9.41,8.38-9.31,14.49C595.4,201.05,595.42,194.88,598.94,190.26Zm14.12-34.45c-5.73,1.87-7,6.26-3.72,12.31C611.2,164,608.06,159,613.06,155.81Zm19,64.36-1.71-.82c-2.31,2.73-3.75,5.7-2.76,9.36ZM430.38,262.44c3.26,2.38,5.85-.07,8.56,0,1.4.06,2.37-.45,1.6-1.76-.55-.93-1.71-2-2.65-.88C436.05,262,432.74,260.52,430.38,262.44Zm57.54,31c1.12,2.23,2.49,4,5.86,3.27a5.8,5.8,0,0,0-3.27-2.94A9.61,9.61,0,0,0,487.92,293.43Zm147.23-3.16c-3.55,1.39-4.52,3.07-4.15,5.43C632.54,294.31,635.18,293.47,635.15,290.27Zm-51.44,10.44c-.29,1.77-2.17,3.49-.37,5.2a2.31,2.31,0,0,0,1.79-.05C586.59,303.92,584.52,302.41,583.71,300.71ZM420.18,320a10.19,10.19,0,0,0-1.58,1.07,5.39,5.39,0,0,0,1.54,1.62,3.08,3.08,0,0,0,1.36-.65A13.63,13.63,0,0,0,420.18,320Zm151.2,37.57a1.84,1.84,0,0,0-2.2,1.34c-.15.41.15,1.31.41,1.35,1.32.21,2.38-.24,2.48-1.41C572.1,358.38,571.59,357.91,571.38,357.55Zm49.07-47.45c.7-1.69,1.33-2.55,1.34-3.42,0-.58-1.11-.67-1.62-.19C619.32,307.28,619.27,308.23,620.45,310.1Zm2.46-6.88c.32.37.51.79.77.82a1.33,1.33,0,0,0,1-.4c.26-.56-.06-1-.89-1C623.51,302.7,623.22,303,622.91,303.22Zm4.17-4.23c-.39.17-.93.25-1.07.49s.18.61.29.92l1.42-.61Zm-196.72,7.14,1.2.43c.17-.32.57-.7.46-.94a1.33,1.33,0,0,0-1.1-.4C430.63,305.31,430.54,305.81,430.36,306.13Zm223.49,35.33-.52,1c.39.14.87.45,1.15.36s.38-.58.55-.89Zm-104-28c.2.29.34.76.61.81a1.39,1.39,0,0,0,1.1-.36c.35-.56,0-1-.78-1.05C550.5,312.84,550.19,313.22,549.87,313.44Zm88.31-108.1c-.42.13-1.06.18-1.18.41s.25.65.4,1c.42-.12,1.05-.17,1.18-.41S638.34,205.68,638.18,205.34ZM484.93,292.08l-.3-.47c-.14.14-.37.26-.38.4s.17.31.27.47Zm-38.35-14.64c-.07.17-.2.33-.19.5s.32.1.5.15a1.42,1.42,0,0,0,.19-.49C447.08,277.54,446.75,277.5,446.58,277.44Z" transform="translate(-377.81 -42.51)"/><path class="cls-1" d="M666.64,246.11c1.87-.8,1.48-2.22,1.51-3.52,1.08-.13,2.32-.11,2.23-1.41,0-.13-.29-.36-.45-.37-1.62-.08-1.59.92-1.78,1.78-5.3-1.82-2.21-7.3-7.32-8.9,2.5-2.1,4.32,1.84,6.22-.92s-.89-2.71-2.39-3.78c-3.23-2.3-1-4.88-.6-7.52s5.89,2.26,3.31-1.6c-1.43-2.13-4.21.11-7,1.52,2.3-8.39-6.84-6.33-11-7.58-7.49-2.28-3.25-5.2-1.8-7.71,1.17-2,7-3.16.87-5.94-.48-.22-.22-1.87.09-2.76.6-1.7,1.93-3.55-1.57-4.06-3.12-.45-3.12,1.85-4.09,3.32-1.21,1.82.16,4.89-4.69,5.7,3-6.76,4-13.22,2.83-19.91-.42-2.3-1.75-4.48-4-4-5.31,1.17-5.06-2.52-6.88-4.28s.53-5.38-4-6.05c.33-1.43.33-4,1-4.1,5.36-1,1.53-4.46,4.78-7.22-4.8,1.14-6.25,4.39-9.85,3.45l0,0c-1-4.42-6.45-6.14-9.13-9.67-1.55-2.05-1.82,1.6-2.91,2.36-3.68-2.84-3.2-9.08-11-8.55.3-3.67-7.19-3.71-5.51-8.6,2.16-6.27-.94-8.8-9.2-8.5-5,.18-10.2,1.31-11.1-5.25a42.19,42.19,0,0,1-2.14,5.6c-1.73,3.21-3.9.12-6.22,0,4.16-1.58,5.46-4.49,6.11-7.64.3-1.46-.28-3-2.48-2.85-2,.13-1.8,1.81-1.34,2.79,1.9,4.06-.81,4.85-4.93,4.76-4.92-.1-9.44,2.69-14.62,1.13-1.64-.5-2.42-1.11-2.59-2.4l0,0c1.16-.18,3.08-.71,2-1.58-3.71-3.08-2.56-6.65-2.65-10.43a57.2,57.2,0,0,0-10,14.53c-1.24,2.45-.72,6.1-5.47,6.82l-.12-.08c1.82-4,3.18-8.19,5.58-11.95s.3-4.72-4.3-5.16c3,5.23-3.43,6.22-6.39,8.25-1.69,1.17-4.68-2.76-8.86-2.43-3.89.31-1.2-4.15-3.17-5.94-7.69,5.35-10.21,11.58-5.73,19.09,3.19,5.33-.4,12,5.26,16.84h0c-1.69,4.77,1.13,9.16,1.94,13.71.46,2.51,1,4.93.38,8-3.75-2.76-3.82-6.63-4.42-9.45-1.94-9.15-4.58-18.2-6.48-27.35-.74-3.55-2.39-5.82-6.85-7.31-3.48-1.16-8.83-1.69-8.2-6.57.05-.38-.7-.82-1.08-1.23-4.35,4.11-10.3-2.91-14.5,1.28.53,2.77,6.82-.18,6.18,4.75s-6.73,4-8.79,7c-2.11-3.74-7.88.15-10.34-3.24-1.1-1.53-3.54-3.09-5.45-1.61-5.23,4-6.84.7-8.67-2.71-6.92,3.75-2,9.24-3.39,13.63-.58,1.83.46,4.91.55,7.52.13,4.14,3,9.14,11.08,8.23-6.4,1.5-5.17,6.75-7,9.85-1.56,2.7-2,3.86-5.65,4-2.81.1-5.58.86-8.91,1.42,3,1.58,6.24,0,10.32,2.94-6.24-.45-10.87,3.94-14.62-2.33-1.21-2-4.71-.68-4.82,1.12-.18,3.07.75,6.13-3.55,7.91,1.42,1.89-4.36,3.31-1,4.78,3.22,1.39,5.13-.92,5.86-3.64,2.45,2,4.25,3.81,3.87,6.42v0c-2.74.07-5.74-2.64-8.08-.26s1.1,4.2,2.16,6.23a16.72,16.72,0,0,1,.8,2.18c-4.69.41-6,4.89-9.93,5.66s-7.58,5-12.64.47c-.41,5,3.57,8.31,3.5,12.32a1.24,1.24,0,0,0,.84.9c9.94,1.9,2.17,11.11,9.12,14.22-7,7.77,6.64,10.84,6.22,17.29-.12,1.83,3.09,3.38,5.52,2.82,3.49-.8-.19-2.89.5-4.34l.11-.09c3.6.89,4.87,3.28,5.84,5.86l-.2.16c-3.07,0-7-.74-6.9,3.16.12,3.14,3.63,2.17,6.52,1.66-4.69,6.3-4.22,8.09,2.73,11.55,3.17,1.58,5.67,3.42,6.44,6.54a10.09,10.09,0,0,0,2,3.73c1.82,2.26,7,3.92,4.09,7A13.6,13.6,0,0,1,435,289.43a17.6,17.6,0,0,0-2.18,0l0,0c-.8-5.37-7.62-7.85-11.36-9.52-7.24-3.24,3.54-2.39-.34-3.83-3,.65-7.7-2.5-10.79,1.92-12.16-3.22-5.41,4.6-6.88,7.62a13.87,13.87,0,0,1-2.87,4.3c-.46-5,.88-10.63-8-11.08-3.26-1.71-3.11-4-3.67-7-1.25-6.58-1.14-13.55-3.91-19.65-1.4-3.09-3.22-5.08-1.93-8.69.79-2.23-1.93-5.13-2.21-7.79-.16-1.47-4.18-4.58,1.94-4.81,1.12,0,.95-2,.27-2.51-6.83-5.08-1.2-12.4-5.08-18-.23-.33-.5-1.83,1.13-1.49,5.78,1.19,1.89-3.53,4.24-4.39-5.27-6.61,1.14-13,1.85-19.23.85-7.44,1.08-15.52,4.79-23.1,2.19-.56,1.51,2.86,4.38,2-2.44-8.34,8.29-14.54,4.44-24,3.89,1.33,2.59,4.12,6.17,4.4-1-7.48,4.74-12.63,9.7-18.22,1.53-1.72,1.21-4.5,1.71-6.8.28-1.29.14-3.22,2.76-2.26,5.85,2.12,5.08-1.12,5.23-3.85.13-2.33.45-4.64.72-7.3,2.76.54,8.46,7.42,7.2-2-.17-1.28-1.58-9.27,7.49-8.75,2.62.14,1.36-2.88,1.85-4.45s-.43-4.21,1.62-4c10.79,1.16,5.69-5.58,7.23-8.94.47-1,.4-2.2.72-4.11,3,3.1,4.58,4,6.05-.27.48-1.42.69-5.77,6.62-5,2.4.31.65-4,1.68-6.12.7-1.39-1.79-5.32,3.63-2.83a1.66,1.66,0,0,0,1.25-.12c1.11-2.6,1.17-6.44,3.39-7.57,3.55-1.81,4.16-1.16,4.83-6.05.16-1.19-1-3,1.41-3.46a3.64,3.64,0,0,1,3.64,1.56c1.94,2.83,6,3.15,8.66,5,3.24,2.33,4,.21,4.95-2.51l5.61,8.89c4.35-4.54,6.86-2.08,9.19,1.5,1,1.63,1.49,4.53,5.19,1.27,1.54-1.35,2.88,1.09,3.31,2.59.92,3.23,2.93,4.32,7.32,5.54,4.81,1.34,10.84,3.77,13.41,8.49,3.13-.4,2.38-2.92,3.88-5.08l5.71,9.75c2.32.09,1.11-1.94,2.72-2.51,2.38,2.9,2.58,6.37,3.7,9.57,3.59-.31,3.26-3.11,5.24-5.21,1.9,5,6.65,8,9.26,12.15,1,1.62,1.36,1.91,3.93.93,3.6-1.37,3,2.34,4.29,3.75,1,1.12-1,3.71,1.7,3.68,3.5,0,1.56-3,2.4-5.27,4.71,6,9.47,11.27,13,17,2.6,4.21,4.78-.2,7,.62,1.25,6.06,10.57,9,8.91,16,4.25-.22,3-3.53,5.88-4.22,1.53,6.19,7.09,11.07,8,17.35,4.08.69,3.22-2.69,5.17-3.84,2.81,2.35,1.24,6,3.76,8.11,3.84,3.21,0,10.43,8.89,10.85.7,4.71,6.32,7.79,6.52,12.66a12.24,12.24,0,0,0,1.89,6.25c2.81.09,1.43-3.22,4-3.29.33.22,1,.47.94.68-.51,5.72,2.67,11,2.79,16.76.1,4.49,3.55,1.56,5.93.71-1.41,6.18,2.54,11.93,1.73,18,0,.38-.06,1.08.1,1.11,10.14,2.28,3.56,9.06,5.59,13.5.44,1-.36,2.92,1.64,2.59,5.25-.88,3.38,2.27,3.16,3.7-1.57,10.55,1,21.19,1.7,31.51.92,13.25-2.93,25.2-4.84,37.77-.95,6.27-.19,12.58-4.29,18.33-3.46.62-5.64-.09-3.42-3.08,1.65-2.22,2.5-4.58,4.38-8-3,1.35-5,.88-7.09.58-3.75-.55-4.13-1.51-1.54-3.64,1.41-1.16,5.22-1.25,1.23-4.44-1.84-1.47,5-4.1,6.82-6.95.36-.57,1.45-.85,2.2-1.27-8.33-3.66,7.33-9.46-1.82-13.21-1.15-.48.77-.88,1.23-1.36,3.16-3.25,1.56-5.28-2.75-6.57-1.69-.51-5-.7-4.46-2.07,1.59-3.94-2.92-8.17,1.21-11.81.84-.75,1.74-1.62,3-.92,3.54,1.94,2.8-2,4.74-2.15-1.72-1.2.4-4.3-3.73-4.48-2.34-.1-4.84-.88-5.06-3.41ZM490.71,118.77c-.18.43-.34.79-.48,1.16-1.23,3.29.95,5.21,4.31,6.43,1.82.66,4.12,2.63,5.78.81,1.9-2.1-.9-4.32-1.38-6.53a9,9,0,0,1-.49-1.69c-.05-2.77-.63-5.1-5.07-5C487.88,114,490.59,116.84,490.71,118.77Zm-90.8,93.93a5.75,5.75,0,0,0-1.27.43c.07.54.13,1.23.55,1.55a.9.9,0,0,0,1.47-.52C400.68,213.68,400.18,213.18,399.91,212.7Z" transform="translate(-377.81 -42.51)"/><path class="cls-1" d="M538.06,265.35c-2.15,13.86,3.43,27,6,40.43,3.9,20.54,8.25,41,12.34,61.56,2.59,13,5.31,26.05,6.08,39.2.45,7.59-1.23,15.26-2,22.9-4.65,7.1-5.66,15.18-9.42,22.51a11.62,11.62,0,0,0-5.72,10.51l0-.06c-2.38,1.12-1.51,3-1.59,4.58-7.21,13-14.78,25.91-25.66,37.3-1.86,2-3.17,4.47-6.77,4.88-2.61.06-4-1.74-6-2.54,3.75-7.56,12.81-11.77,17.8-18.84,12.31-17.46,20.8-36,28-55.07.77-2,2.51-4.36.27-6.61.75-2.65,4.2-4,4.47-7.11.85-9.94-.15-11.46-12.1-14.89a17.82,17.82,0,0,1-6.53-2.83c4.39.94,8.85,1.68,13.13,2.86,3.47,1,5.51.21,5.38-2.61-.32-6.72,4.32-13.94-3.41-20.06-1.23-1-1.52-4.13-1.35-5.81,1.58-15.15-5.08-29.45-6.55-44.27-.55-5.54-2.71-10.73-11-12.2-1.73-.31-3.16-1.68-6.13-3.35,6.42-.15,10.21,1.92,14.84,4.48-3.86-19-7.67-37.05-11.15-55.16-1-5.46-4.81-8.63-10.91-10.36-1.71-.48-3.08-1.08-3.85-2.42l.07-.06c4.5-.14,8,2.24,12.66,3.44-2.16-17.51-7.28-34.33-8-51.52,4.93,4.08,4,9.15,4.86,13.86,1.44,8,3.23,15.89,4.5,23.86a140.48,140.48,0,0,0,5.34,22.37c.16.48,1.54.7,2.36,1Z" transform="translate(-377.81 -42.51)"/><path class="cls-1" d="M634.79,393.65c-1.59-.31-5.19.09-3.27-2.09,2.36-2.68,1.15-7.43,7.49-8.17a4,4,0,0,0,3-5.62c-1.51-3.37,4.09-4.3,5.09-7.14,1.36-3.86,3.62-7.4,3.08-11.73-.51-4.16,2.74-8.14,6-10.5,5.61-4,1.48-8.18,1.62-12,.11-2.64-3.51,1.84-5.82.18-.13-3.94,2.78-5.72,7.29-6.43,3.39-.53,5.67-2.1,6.12-4.94.5-3.19-3.66-2.32-5.37-3.66,4.08-1.43,7.65.9,11.48.74-4.25,10.6-7.51,21.4-12.42,31.91-3.62,7.75-6.13,16.12-9.6,24.11-1,2.23-1.42,4.65-4.35,5.77C640,386.07,640.39,392,634.79,393.65Z" transform="translate(-377.81 -42.51)"/><path class="cls-1" d="M405.89,309.37c4.2.76,4.62-2.34,6-4.39,2.52,1.46,2,3.17,1.15,4.38-3.35,5-1.4,9.33,2.08,13.53.74.9,2.31,2.21,3.16,2.07,7.55-1.28,8.29,2.79,8.24,6.89-.08,5.68,2.4,10.36,6.86,14.58.39.37.23,1.11.33,1.69-2.32.09-3.31-1.31-4.52-2.53a131,131,0,0,1-23.43-32.78C405.26,311.84,405.82,310.52,405.89,309.37Z" transform="translate(-377.81 -42.51)"/><path class="cls-1" d="M472.38,397.64c3.78-.36,6.65.21,9.08,3.15,1.36,1.63,3.35,4.72,7.55,3,.41-.17,1.74.24,1.84.56,3,9,17.41,9.07,21.16,17.45-10.62-.8-17.7-6.44-24.72-11.95-3.29-2.57-6.69-5-10.19-7.35C475.14,401.17,472.44,400.2,472.38,397.64Z" transform="translate(-377.81 -42.51)"/><path class="cls-1" d="M505.32,506.62c2,.8,3.43,2.6,6,2.54-1.89,1.89-3.31,4-6.73,4.71-2.67.56-4.86.55-6-1.44s1.25-2.51,2.8-3.35C502.76,508.33,504,507.45,505.32,506.62Z" transform="translate(-377.81 -42.51)"/><path class="cls-1" d="M545.35,462.46A11.62,11.62,0,0,1,551.07,452C549.77,455.67,549.14,459.62,545.35,462.46Z" transform="translate(-377.81 -42.51)"/><path class="cls-1" d="M433.68,348.1c5.06-1.8,5.21.46,4.46,3.48l-.06,0c-1.26,0-2.37.2-3,1.21C433.2,351.53,433.72,349.76,433.68,348.1Z" transform="translate(-377.81 -42.51)"/><path class="cls-1" d="M543.79,467c.08-1.63-.79-3.46,1.59-4.58A3.59,3.59,0,0,1,543.79,467Z" transform="translate(-377.81 -42.51)"/><path class="cls-1" d="M469.12,395a2.33,2.33,0,0,1,2.4,1.75A2.52,2.52,0,0,1,469.12,395Z" transform="translate(-377.81 -42.51)"/><polygon class="cls-1" points="137.49 379.71 138.17 379.73 137.81 380.12 137.49 379.71"/><path class="cls-1" d="M467,392.84l1.16,1.32Z" transform="translate(-377.81 -42.51)"/><path class="cls-1" d="M449,267.22c7.41,3.14,13.54,7.69,19.69,12.11,4.57,3.29,8.31,7.33,12.35,11,.2-.11-.42.32-.5.27q-15.6-10.79-31.1-21.67c-.43-.3-.32-1.1-.46-1.66Z" transform="translate(-377.81 -42.51)"/><path class="cls-1" d="M497,297.81l29.49,15.81c-12.51-1.85-20.72-9.18-30.93-14Z" transform="translate(-377.81 -42.51)"/><path class="cls-1" d="M572,295.37c-4.47,6.21-7.88,13-18.09,15.67,1.61-3.79,6.13-4.92,7.74-7.74,1.09-1.89,5.84-2.28,3.29-6C564.34,296.38,569.81,296.94,572,295.37Z" transform="translate(-377.81 -42.51)"/><path class="cls-1" d="M562.29,158.14c1.73-9,9.44-16.67,7.76-26.34C575,142.12,567.66,150,562.29,158.14Z" transform="translate(-377.81 -42.51)"/><path class="cls-1" d="M598.94,190.26c-3.52,4.62-3.54,10.79-9.31,14.49C589.53,198.64,593.81,194.29,598.94,190.26Z" transform="translate(-377.81 -42.51)"/><path class="cls-1" d="M601.42,185.92a36,36,0,0,1,6.44-13.38c.82-1,2.1-2,3.54-1.1,2.1,1.34-.48,1.71-1.14,2.48-3.3,3.85-3,9.39-8.71,12.1Z" transform="translate(-377.81 -42.51)"/><path class="cls-1" d="M481.3,234.67c-5.91-3-11.9-5.89-16-10.66l.22-.18c7.11,1.81,12.64,5.14,16,10.59Z" transform="translate(-377.81 -42.51)"/><path class="cls-1" d="M631.73,236.55c-2,4-7.91,1.35-11.38,3.78l4.26-8.75c-.17,4.25,2,5.9,7.09,4.93Z" transform="translate(-377.81 -42.51)"/><path class="cls-1" d="M563,243.13c1.42-4.87,6.2-8,9.59-11.88-.8,5.17-3.68,9.31-9.38,12.05Z" transform="translate(-377.81 -42.51)"/><path class="cls-1" d="M473.18,160.72c-5.2-2.11-10.14-4.42-11.53-9.51l0,0a19,19,0,0,1,11.71,9.34Z" transform="translate(-377.81 -42.51)"/><path class="cls-1" d="M613.06,155.81c-5,3.19-1.86,8.16-3.72,12.31C606,162.07,607.33,157.68,613.06,155.81Z" transform="translate(-377.81 -42.51)"/><path class="cls-1" d="M507.56,247.6c-6-1.91-12.49-3.23-16.1-8.2l.18-.16c5.63,2.39,11.64,4.32,15.91,8.37Z" transform="translate(-377.81 -42.51)"/><path class="cls-1" d="M655.12,230.79c-5.77-.09-10.27,3.67-16.08,3.44h0c3.7-3.56,9.33-4,14.24-5.49,1.25-.39,1.65,1.11,1.85,2.07Z" transform="translate(-377.81 -42.51)"/><path class="cls-1" d="M465.33,224c-4.3-.82-6.45-3.3-8.94-7.4,5.07,2,8.18,3.76,9.16,7.23Z" transform="translate(-377.81 -42.51)"/><path class="cls-1" d="M632,220.17l-4.47,8.54c-1-3.66.45-6.63,2.76-9.36Z" transform="translate(-377.81 -42.51)"/><path class="cls-1" d="M548.36,257.21c-.81,4.86-6,6.14-10.3,8.14h0c1-4.7,7-5.29,10.27-8.17Z" transform="translate(-377.81 -42.51)"/><path class="cls-1" d="M430.38,262.44c2.36-1.92,5.67-.49,7.51-2.6.94-1.07,2.1,0,2.65.88.77,1.31-.2,1.82-1.6,1.76C436.23,262.37,433.64,264.82,430.38,262.44Z" transform="translate(-377.81 -42.51)"/><path class="cls-1" d="M441.36,312.91c-6.82,2.2-5.78-2.13-7.34-5.6a19.08,19.08,0,0,1,7.32,5.61Z" transform="translate(-377.81 -42.51)"/><path class="cls-1" d="M490.72,170.08c3.58,1.33,8.09,1.36,10.2,4.74l-.11.1c-4.39-.2-7.82-1.74-10.21-4.73Z" transform="translate(-377.81 -42.51)"/><path class="cls-1" d="M603.09,327.74c.21-2.78,1.39-5.1,5.3-7.11.07,3.82-2.24,5.67-5.06,7.3Z" transform="translate(-377.81 -42.51)"/><path class="cls-1" d="M579.39,221.09c.3,3.33-1.4,5.84-5.57,8.24.38-4,3.3-6,5.41-8.37Z" transform="translate(-377.81 -42.51)"/><path class="cls-1" d="M516.24,252.37c-3.91-.39-7.83-.77-8.68-4.77h0c3.73.6,6.9,1.86,8.76,4.7Z" transform="translate(-377.81 -42.51)"/><path class="cls-1" d="M481.57,234.42a15.77,15.77,0,0,1,10.07,4.82l-.18.16a13.05,13.05,0,0,1-10.16-4.73Z" transform="translate(-377.81 -42.51)"/><path class="cls-1" d="M431.73,251.81c3.45.77,6,2,4.81,6.32-2.49-2.23-4.67-3.66-5-6.16Z" transform="translate(-377.81 -42.51)"/><path class="cls-1" d="M487.92,293.43a9.61,9.61,0,0,1,2.59.33,5.8,5.8,0,0,1,3.27,2.94C490.41,297.45,489,295.66,487.92,293.43Z" transform="translate(-377.81 -42.51)"/><path class="cls-1" d="M598,266.9c-.36,2.48-2.81,3.75-5,5.2.35-2.45.61-4.94,4.73-5.38Z" transform="translate(-377.81 -42.51)"/><path class="cls-1" d="M635.15,290.27c0,3.2-2.61,4-4.15,5.43C630.63,293.34,631.6,291.66,635.15,290.27Z" transform="translate(-377.81 -42.51)"/><path class="cls-1" d="M427.76,188.57c1.62,1.9,4.54,3.32,3.71,6.86-4-1.77-3.76-4.35-3.7-6.88Z" transform="translate(-377.81 -42.51)"/><path class="cls-1" d="M424,298.75a16.73,16.73,0,0,1-2.75-.61c-1.24-.51-2.84-.9-2.75-2.35a1.65,1.65,0,0,1,1.13-1.16c1.75-.12,2.34,1.07,3,2.08.46.68.89,1.37,1.33,2.05Z" transform="translate(-377.81 -42.51)"/><path class="cls-1" d="M563.55,364c-.29,2.3-1.79,3.71-5.29,4.34.39-2.89,2.28-4,5.27-4.35Z" transform="translate(-377.81 -42.51)"/><path class="cls-1" d="M609.48,252.69c1.16-2.48,2.45-4.87,5.95-5.8l.25.18a9.25,9.25,0,0,1-5.71,6Z" transform="translate(-377.81 -42.51)"/><path class="cls-1" d="M593,337.17c.43-2.25,1.69-3.88,5.42-4.34-.48,2.87-2.29,4.09-5.43,4.33Z" transform="translate(-377.81 -42.51)"/><path class="cls-1" d="M583.71,300.71c.81,1.7,2.88,3.21,1.42,5.15a2.31,2.31,0,0,1-1.79.05C581.54,304.2,583.42,302.48,583.71,300.71Z" transform="translate(-377.81 -42.51)"/><path class="cls-1" d="M579.23,221c.65-2.34,1.62-4.53,4.33-5.91l.28.19c-.38,2.49-.62,5.06-4.45,5.85Z" transform="translate(-377.81 -42.51)"/><path class="cls-1" d="M605.05,258.49c-.07-2.7,1.87-4.4,4.43-5.8l.49.34c-.16,2.62-1.93,4.41-4.54,5.78Z" transform="translate(-377.81 -42.51)"/><path class="cls-1" d="M585.58,345.33c.08-1.89,0-3.83,3.66-4.37.17,2.36-.54,3.94-3.66,4.37Z" transform="translate(-377.81 -42.51)"/><path class="cls-1" d="M558.69,249.08c-.62,2.64-2.44,4.31-5.85,4.7l-.17-.13c1.54-1.9,2.11-4.59,5.88-4.66Z" transform="translate(-377.81 -42.51)"/><path class="cls-1" d="M400.64,302.19c-.8-1.59-1.35-3.34,1.84-3.08,1.85.15,2.88,1.85,2.08,3.19-1.18,2-2.68,0-4-.21Z" transform="translate(-377.81 -42.51)"/><path class="cls-1" d="M615.43,246.89c.29-1.82.09-3.92,3.9-4.17.19,2.35-1.8,3.31-3.65,4.35Z" transform="translate(-377.81 -42.51)"/><path class="cls-1" d="M449,267.24c-2.15-.24-4.16-.66-5.59-2.94,3.28-.23,5.06.5,5.61,2.92Z" transform="translate(-377.81 -42.51)"/><path class="cls-1" d="M576.71,353.46A5.46,5.46,0,0,1,580.4,349c.25,2.63-.7,4-3.61,4.55Z" transform="translate(-377.81 -42.51)"/><path class="cls-1" d="M583.56,215.05c.4-1.77-.42-3.82,1.9-5.67,1.93,2.77.06,4.3-1.62,5.86Z" transform="translate(-377.81 -42.51)"/><path class="cls-1" d="M450.89,213.33c-2.5-.35-4.49-1.06-3.86-4.06,2.54.76,3.77,2,3.92,4Z" transform="translate(-377.81 -42.51)"/><path class="cls-1" d="M644.41,278.75c.52-2.38,1.78-3.86,6.38-2.72l-6.22,2.85Z" transform="translate(-377.81 -42.51)"/><path class="cls-1" d="M473.34,160.57c2.29.21,4.9,0,5.2,3.11-3,.23-4.09-1.48-5.36-3Z" transform="translate(-377.81 -42.51)"/><path class="cls-1" d="M420.18,320a13.63,13.63,0,0,1,1.32,2,3.08,3.08,0,0,1-1.36.65,5.39,5.39,0,0,1-1.54-1.62A10.19,10.19,0,0,1,420.18,320Z" transform="translate(-377.81 -42.51)"/><path class="cls-1" d="M571.38,357.55c.21.36.72.83.69,1.28-.1,1.17-1.16,1.62-2.48,1.41-.26,0-.56-.94-.41-1.35A1.84,1.84,0,0,1,571.38,357.55Z" transform="translate(-377.81 -42.51)"/><path class="cls-1" d="M634.84,211.93c-.08,1.51.15,3.13-2.2,4.1-1.35-2.2.27-3.2,2.19-4.11Z" transform="translate(-377.81 -42.51)"/><path class="cls-1" d="M620.45,310.1c-1.18-1.87-1.13-2.82-.28-3.61.51-.48,1.62-.39,1.62.19C621.78,307.55,621.15,308.41,620.45,310.1Z" transform="translate(-377.81 -42.51)"/><path class="cls-1" d="M563.53,364c.29-1.13.6-2.31,2.5-2.08.43.05,1.17.82,1.07,1-.65,1.35-2.27.89-3.55,1.05Z" transform="translate(-377.81 -42.51)"/><path class="cls-1" d="M558.55,249a4.3,4.3,0,0,1,3-4.7l.22.17a4.21,4.21,0,0,1-3,4.62Z" transform="translate(-377.81 -42.51)"/><path class="cls-1" d="M525.91,137.46a6.66,6.66,0,0,1,3-4.67l.12.08c-.31,1.83.75,4.22-3,4.68Z" transform="translate(-377.81 -42.51)"/><path class="cls-1" d="M597.74,266.72c.26-1.45-.12-3.15,2.37-3.85,1.62,2.16-.34,3.06-2.11,4Z" transform="translate(-377.81 -42.51)"/><path class="cls-1" d="M640,284.61c.28-1.85-.79-4.24,2.93-4.71l.15.13a6.47,6.47,0,0,1-3,4.65Z" transform="translate(-377.81 -42.51)"/><path class="cls-1" d="M605.43,258.81c-.38,1.05-.51,2.26-2.19,2.54-.19,0-.71-.43-.73-.69-.15-1.44,1.14-1.86,2.54-2.17Z" transform="translate(-377.81 -42.51)"/><path class="cls-1" d="M622.91,303.22c.31-.19.6-.52.92-.55.83-.06,1.15.41.89,1a1.33,1.33,0,0,1-1,.4C623.42,304,623.23,303.59,622.91,303.22Z" transform="translate(-377.81 -42.51)"/><path class="cls-1" d="M627.08,299l.64.8-1.42.61c-.11-.31-.41-.69-.29-.92S626.69,299.16,627.08,299Z" transform="translate(-377.81 -42.51)"/><path class="cls-1" d="M640.12,284.68c-.18.74-.2,1.6-1.42,1.73-.24,0-.83-.45-.8-.64.15-1,1.18-1.06,2.13-1.16Z" transform="translate(-377.81 -42.51)"/><path class="cls-1" d="M430.36,306.13c.18-.32.27-.82.56-.91a1.33,1.33,0,0,1,1.1.4c.11.24-.29.62-.46.94Z" transform="translate(-377.81 -42.51)"/><path class="cls-1" d="M432.77,289.41c-.2.84-.16,1.84-1.76,1.76-.16,0-.44-.24-.44-.37-.07-1.28,1.18-1.22,2.23-1.37Z" transform="translate(-377.81 -42.51)"/><path class="cls-1" d="M441.34,312.92c.91.13,2,.11,2.17,1.09,0,.18-.56.66-.79.63-1.21-.15-1.25-1-1.36-1.73Z" transform="translate(-377.81 -42.51)"/><path class="cls-1" d="M653.85,341.46l1.18.42c-.17.31-.26.8-.55.89s-.76-.22-1.15-.36Z" transform="translate(-377.81 -42.51)"/><path class="cls-1" d="M512.73,150.32c.77-1.61,2.2-2.41,4.36-2.36l.06,0a4.62,4.62,0,0,1-4.42,2.3Z" transform="translate(-377.81 -42.51)"/><path class="cls-1" d="M518.48,145.58c.25-.86.41-1.79,1.92-1.72a.64.64,0,0,1,.46.36c.14,1.21-1,1.38-2.07,1.58Z" transform="translate(-377.81 -42.51)"/><path class="cls-1" d="M548.34,257.19c.06-1.48,1-2.32,2.85-2.41l.23.18c-.15,1.52-1.22,2.22-3.06,2.25Z" transform="translate(-377.81 -42.51)"/><path class="cls-1" d="M549.87,313.44c.32-.22.63-.6.93-.6.81,0,1.13.49.78,1.05a1.39,1.39,0,0,1-1.1.36C550.21,314.2,550.07,313.73,549.87,313.44Z" transform="translate(-377.81 -42.51)"/><path class="cls-1" d="M638.18,205.34c.16.34.53.75.4,1s-.76.29-1.18.41c-.15-.33-.53-.74-.4-1S637.76,205.47,638.18,205.34Z" transform="translate(-377.81 -42.51)"/><path class="cls-1" d="M634.83,211.92c.22-.65-.28-1.74,1.39-1.5a.69.69,0,0,1,.5.4c.29,1.35-1.08.92-1.88,1.11Z" transform="translate(-377.81 -42.51)"/><path class="cls-1" d="M631.7,236.51a2.51,2.51,0,0,1,2.87-.91c.16,0,.25.29.37.45l-3.21.5Z" transform="translate(-377.81 -42.51)"/><path class="cls-1" d="M666.69,246.08c-.81-.17-2.14.24-1.87-1.09a.67.67,0,0,1,.48-.39c1.68-.22,1.07.9,1.34,1.51Z" transform="translate(-377.81 -42.51)"/><path class="cls-1" d="M484.93,292.08l-.41.4c-.1-.16-.29-.32-.27-.47s.24-.26.38-.4Z" transform="translate(-377.81 -42.51)"/><path class="cls-1" d="M438.14,351.58c.35.41.7.82,1,1.24l-.51.28-.58-1.48Z" transform="translate(-377.81 -42.51)"/><path class="cls-1" d="M575.4,354.73l-.79,1.49a3.3,3.3,0,0,1-.5-.35c.33-.45.71-.88,1.08-1.31Z" transform="translate(-377.81 -42.51)"/><path class="cls-1" d="M655.11,230.8l1.87.42c-1.06,1.09-1.33-.05-1.86-.43Z" transform="translate(-377.81 -42.51)"/><path class="cls-1" d="M503.8,176l1.86.51a3.47,3.47,0,0,1-.38.41c-.54-.26-1.06-.54-1.58-.82Z" transform="translate(-377.81 -42.51)"/><path class="cls-1" d="M500.92,174.82c1.19,0,2.29.23,2.88,1.2l-.1.1c-1.19-.06-2.29-.24-2.89-1.2Z" transform="translate(-377.81 -42.51)"/><path class="cls-1" d="M601.55,186l-.65,1.52a4.52,4.52,0,0,1-.52-.31c.32-.44.68-.87,1-1.31Z" transform="translate(-377.81 -42.51)"/><path class="cls-1" d="M490.6,170.19l-1.89-.54c.13-.15.37-.43.4-.41.55.26,1.08.55,1.61.84Z" transform="translate(-377.81 -42.51)"/><path class="cls-1" d="M613.24,365.47a3.48,3.48,0,0,1-3,1.1h0a3.11,3.11,0,0,1,2.82-1.25Z" transform="translate(-377.81 -42.51)"/><path class="cls-1" d="M518.79,145.8c-.55.73-1.09,1.47-1.64,2.21l-.06,0a2.5,2.5,0,0,1,1.39-2.38Z" transform="translate(-377.81 -42.51)"/><path class="cls-1" d="M453.85,214.46c.37.43.75.87,1.09,1.32l-.54.31c-.21-.51-.43-1-.64-1.55Z" transform="translate(-377.81 -42.51)"/><path class="cls-1" d="M451,213.27a3.22,3.22,0,0,1,2.9,1.19l-.09.08a3.17,3.17,0,0,1-2.87-1.21Z" transform="translate(-377.81 -42.51)"/><path class="cls-1" d="M592.94,337.16l-.55,1.57-.58-.29,1.14-1.27Z" transform="translate(-377.81 -42.51)"/><path class="cls-1" d="M446.58,277.44c.17.06.5.1.5.16a1.42,1.42,0,0,1-.19.49c-.18,0-.5-.1-.5-.15S446.51,277.61,446.58,277.44Z" transform="translate(-377.81 -42.51)"/><path class="cls-1" d="M545.08,123.5l-2-.43c1.12-1.11,1.42,0,1.93.46Z" transform="translate(-377.81 -42.51)"/><path class="cls-1" d="M526.05,137.55a2.38,2.38,0,0,1-1.49,2.33l-.14-.1a2.4,2.4,0,0,1,1.5-2.32Z" transform="translate(-377.81 -42.51)"/><path class="cls-1" d="M524.56,139.88c-.24.5-.48,1-.71,1.51a4.59,4.59,0,0,1-.52-.33c.34-.44.72-.85,1.1-1.28Z" transform="translate(-377.81 -42.51)"/><path class="cls-1" d="M603.33,327.93l-.81.45.58-.64Z" transform="translate(-377.81 -42.51)"/><path class="cls-1" d="M461.65,151.21,461,151l.59.27Z" transform="translate(-377.81 -42.51)"/><path class="cls-1" d="M607.41,369l-.85.48.62-.67Z" transform="translate(-377.81 -42.51)"/><path class="cls-1" d="M608.76,367.73,607.41,369l-.23-.19,1.57-1.06Z" transform="translate(-377.81 -42.51)"/><path class="cls-1" d="M608.75,367.73l1.47-1.17h0l-1.46,1.16Z" transform="translate(-377.81 -42.51)"/><path class="cls-1" d="M613,365.31l.79-.46c-.19.21-.39.41-.59.62Z" transform="translate(-377.81 -42.51)"/><path class="cls-1" d="M428.29,302.3l.6.27-.58-.28Z" transform="translate(-377.81 -42.51)"/><path class="cls-1" d="M617.7,363.19l-.87.42.55-.68Z" transform="translate(-377.81 -42.51)"/><path class="cls-1" d="M617.38,362.93l.85-.41c-.17.23-.35.45-.53.67Z" transform="translate(-377.81 -42.51)"/><path class="cls-1" d="M428.31,302.29l-.62-.27.6.28Z" transform="translate(-377.81 -42.51)"/><path class="cls-1" d="M639,234.23l-.64.48c0-.1,0-.24.12-.3a2.47,2.47,0,0,1,.5-.19Z" transform="translate(-377.81 -42.51)"/><path class="cls-1" d="M561.5,244.29l1.45-1.16.21.17-1.45,1.16Z" transform="translate(-377.81 -42.51)"/><path class="cls-1" d="M644.57,278.88,643.11,280l-.15-.13,1.46-1.15Z" transform="translate(-377.81 -42.51)"/><path class="cls-1" d="M622.11,160.26l-.33.51c.11-.17.23-.33.35-.49Z" transform="translate(-377.81 -42.51)"/><path class="cls-1" d="M575.19,354.56l1.52-1.1.08.07-1.4,1.2Z" transform="translate(-377.81 -42.51)"/><path class="cls-1" d="M425.78,246l-.56-.56c.22.16.44.32.67.47Z" transform="translate(-377.81 -42.51)"/><path class="cls-1" d="M551.19,254.78l1.48-1.13.17.13L551.42,255Z" transform="translate(-377.81 -42.51)"/><path class="cls-1" d="M511.27,151.49l1.46-1.17h0l-1.48,1.17Z" transform="translate(-377.81 -42.51)"/><path class="cls-1" d="M584.1,346.49l-.33.48.35-.46Z" transform="translate(-377.81 -42.51)"/><path class="cls-1" d="M423.93,298.76l.64.48c-.13,0-.31,0-.38-.09a1.6,1.6,0,0,1-.23-.4Z" transform="translate(-377.81 -42.51)"/><path class="cls-1" d="M585.58,345.33l-1.48,1.16,0,0c.49-.39,1-.78,1.46-1.18Z" transform="translate(-377.81 -42.51)"/><path class="cls-1" d="M490.71,118.77c-.12-1.93-2.83-4.82,2.67-4.87,4.44-.05,5,2.28,5.07,5a9,9,0,0,0,.49,1.69c.48,2.21,3.28,4.43,1.38,6.53-1.66,1.82-4-.15-5.78-.81-3.36-1.22-5.54-3.14-4.31-6.43C490.37,119.56,490.53,119.2,490.71,118.77Z" transform="translate(-377.81 -42.51)"/><path class="cls-1" d="M399.91,212.7c.27.48.77,1,.75,1.46a.9.9,0,0,1-1.47.52c-.42-.32-.48-1-.55-1.55A5.75,5.75,0,0,1,399.91,212.7Z" transform="translate(-377.81 -42.51)"/><path class="cls-1" d="M668.15,242.59c.19-.86.16-1.86,1.78-1.78.16,0,.44.24.45.37.09,1.3-1.15,1.28-2.23,1.41Z" transform="translate(-377.81 -42.51)"/></svg>