<svg id="Layer_1" data-name="Layer 1" xmlns="http://www.w3.org/2000/svg" viewBox="0 0 333.82 432"><defs><style>.cls-1{fill:#99c864;}.cls-2{fill:#fff;}</style></defs><title>cedar</title><path class="cls-1" d="M151.53,397.89c-3.12-3.45-5.38-7.21-4.21-12.28.93-4-2-6.42-4.12-8.68-3-3.32-6.88-5.86-10.4-8.7-7.92-6.4-15.86-12.76-23.72-19.22-.7-.58-.92-1.81-1-3.23,10.53,2.67,17.23,11.6,26.76,18.19l-5.71-13.35.79-.95,5,3.78,1.87-5.29c-6.53-3-12.92-6.43-17.51-12.41l.51-1,15,7.76L102.64,311c3.41-1.78,8,.59,14.44,6.73a140.63,140.63,0,0,0,12.19,10.82l-6.43-16.87.87-.92c1.23.95,2.85,1.64,3.63,2.89,3.76,6,7.72,11.75,8.79,19.24.5,3.48,3.07,6.64,5.43,9.81l-1.62-12.56a14,14,0,0,1-.29-2.79,7.19,7.19,0,0,1,.77-2c.58.4,1.44.65,1.7,1.21,1.19,2.51,2.2,5.1,3.26,7.63l2.17-3.22a20.27,20.27,0,0,1,2.35,4.26,50.37,50.37,0,0,1,.94,6.79l3.56-2.73c.49,4.28,1.19,7.82,1.21,11.36a103.89,103.89,0,0,1-.94,10.66l1.31.19c.74-5.66,1.84-11.3,2.12-17,.46-8.92-5.71-14.5-10.54-20.62a55.72,55.72,0,0,0-7.87-8.49c-3.58-3-7.65-5.31-11.47-8-2.83-2-5.64-4-8.37-6.09-.51-.4-.58-1.4-.86-2.12l.65-1,12.57,6.47a23.26,23.26,0,0,0-1.37-3.5c-2.7-4.48-5.59-8.84-8.2-13.38-2.37-4.13-4.56-8.38-6.61-12.7-.6-1.26-.47-2.91-.67-4.38,1.32.71,2.89,1.16,3.91,2.2,1.67,1.69,2.67,4.29,4.54,5.56,3.38,2.3,7.48,3.5,10.75,5.94,2,1.47,3.37,3,5.94,2-3.81-5.89-7.45-11.63-11.2-17.28-3.58-5.38-9.46-8.91-11.71-15.47,10.72,2.65,15.83,12.67,23.46,19.4,1-9.62-7.78-10.71-12.88-16.19,7.29-1.24,11.92,3.46,17.66,4.7-4.79-8.55-15.75-9.06-20.64-17.1l.78-1.45,10.43,4.76c-3.67-10.64-9.82-20.28-12.76-31.2l1.52-1.08c1.28,1.21,2.93,2.2,3.77,3.69,3.95,7,7.57,14.27,11.56,21.28.89,1.57,2.78,2.52,4,3.6a43.92,43.92,0,0,1-1.44-4.78,8.8,8.8,0,0,1,.44-2.85c1,.24,2.63.25,2.79.77,1.86,5.89,8,8.4,10.13,13.79,2.82,7.06,5,14.4,6.95,20.19.2-8.65.54-18.87.58-29.09,0-2.27-1.12-4.53-1.58-6.83a14.36,14.36,0,0,1-.23-3.87,2.42,2.42,0,0,1,1.07-1.81c.41-.15,1.44.48,1.7,1,1.13,2.44,2.13,5,3.1,7.47,1,2.71,2,5.45,3.33,9.12l4.61-10-1.43.29c-.92-.66-2.12-1.13-2.7-2-3.34-5.15-6.62-10.36-9.75-15.66-2.15-3.66-4.06-7.48-6-11.27a51.27,51.27,0,0,1-2.6-5.57c-.4-1.07-.13-2.41-.53-3.48a32.69,32.69,0,0,0-2-3.59c-.46-.86-.8-1.78-1.19-2.67.92-.19,2-.81,2.73-.49,3.09,1.41,6.07,3.09,9.48,4.88a18,18,0,0,0-1.28-4c-3.38-5.43-7-10.58-12.35-14.27-1.38-.95-1.77-3.47-2.62-5.27,1.74.69,3.51,1.31,5.19,2.12.49.23.75,1,1.49,1.38-.08-3.51-4.55-6-1.94-10.57,7.72,3.27,8.38,11.57,12.54,17.61-.22-3-.56-6.08-.61-9.12a11.57,11.57,0,0,1,1-3.37c.87.68,2.17,1.16,2.54,2.06,1,2.42,2.57,3.53,4.77,4.93,2.47,1.57,3.49,5.61,5.11,8.52,2.84-2.17,3.9-1.78,5.34,2.66.52,1.61.94,3.26,1.49,4.86a2.47,2.47,0,0,0,.93,1.24c4.31,2.58,4.43,2.7,5.86,6.9l1.08-.23c-1.15-4.6-1.87-9.38-3.6-13.73-1.37-3.46-4.18-6.26-5.95-9.59-.8-1.49-.61-3.56-.92-5.69-2.53-.12-5.38-.32-5.24-4.48,0-.49-1.59-.87-2.05-1.58-4-6.06-10.27-8.84-15.87-12.64-1-.71-1.5-2.38-2.23-3.61,1.31.19,2.63.39,4,.55.37.05.75,0,1.73-.91L147.67,143l.59-1.22a19.08,19.08,0,0,0,2.49-.56c.49-.18,1.16-.58,1.24-1a1.62,1.62,0,0,0-.81-1.34c-5.73-1.21-3.14-7.35-5.72-10.4,1-.37,2.41-1.36,2.88-1a33.44,33.44,0,0,1,5.8,5.48c2.08,2.6,3.79,5.53,6.07,8.94a36.87,36.87,0,0,1,.14-4.29,13.62,13.62,0,0,1,.94-2.66c.77.49,2,.81,2.23,1.5,1.62,4.74,3,9.56,4.54,14.34a17.73,17.73,0,0,0,1.21,2.48c.57-.9,1.59-1.78,1.62-2.71.07-1.82-.57-3.68-.57-5.52,0-.78.87-1.55,1.35-2.33.76.52,1.86.86,2.21,1.59a39.74,39.74,0,0,1,1.75,5.52l1.21-4.72c1,.58,2.28.83,2.77,1.6,2.4,3.75,4.6,7.62,6.86,11.46.19.32.25,1,.44,1,7.2,1.38,4.74,7.73,5.83,12.24a5,5,0,0,0,.39,1.1c.2.34.5.62,1.65,2-.05-6.08.27-11.11-.22-16-.58-5.64-3.76-9.94-7.67-13.86-2.93-2.94-5-6.85-7.86-9.83-1.73-1.78-4.33-2.67-6.6-3.84-3.06-1.58-6.18-3-9.52-4.67,2.47-2.69,3.79-2.6,8.67-.74-1.61-1.51-3.17-3.08-4.84-4.51s-3.71-2.94-5.83-4.6l2.48-1.68c-1.62-2.82-3.31-5.53-4.72-8.39-.34-.69.26-1.88.43-2.85a15.47,15.47,0,0,1,2.54,1.07c1.82,1.15,3.85,2.14,5.23,3.73,1.06,1.22,1.27,3.25,2.14,5.72,2.91.78.59-3.58,2.54-4.53,4.4.62,3.34,4.93,4.27,7.87.85,2.68,1.47,5.44,2.18,8.16l1.44-.32c-.16-2.88-.31-5.77-.47-8.68,3.34-.13,3.34-.13,6.2,9.95l3.93-4.11,2.71,5.61c2.22-1.62,4.63-2.61,4.88,2.24,0,.44,1.35,1.29,1.61,1.13.65-.39,1.58-1.46,1.43-1.91-1.91-5.8,1.64-12-1.36-17.7-1.27-2.41-2.23-5.12-3.94-7.13-3.29-3.86-7.13-7.22-10.51-11a17.28,17.28,0,0,1-3.23-5.68c-.32-.91.64-2.32,1-3.51A17.61,17.61,0,0,1,185.07,86c.5.37.54,1.43.59,1.55l8.22,2.22c.63,4.46,3.82,4,6.82,4.78-.32-5.42-.26-10.57-1.1-15.56-.38-2.29-2.52-4.26-3.89-6.36-.22-.33-.78-.52-.83-.82-.26-1.89-.42-3.78-.61-5.68,1.53.47,3.09.84,4.57,1.44a13.4,13.4,0,0,1,2.46,1.76c5.19-5.76-1.7-11.91.84-18.07l2.91,1.48c1-4,1.92-8.16,3.22-12.14.36-1.11,1.93-1.79,2.95-2.67.49,1.16,1.44,2.34,1.37,3.45-.26,4.45,1,9-2.35,13.19-1.57,2-1,5.85-1.34,8.91L213.25,60l.9.46c-.21,1.16-.1,2.54-.67,3.45-2,3.16-5,5.88-6.1,9.3-1.23,3.93-.86,8.44-.95,12.7,0,.41,1.71.86,2.91,1.42.51-2.54-.06-6.08,4.15-4.65.39.13,1.36-1.6,2-2.47,1.69-2.12,3.22-2.14,4-.84-1.64,2.7-4.16,4.95-4,7,.33,5.29-4.2,6.83-6,10.34a24.59,24.59,0,0,0-1.12,2.64c-.35,1-.36,2.47-1,2.8-2.71,1.42-1.26,3.8-1.27,5.66s.85,3.64,1.59,6.49c1.24-1.21,2.4-2.37,3.59-3.49a14.14,14.14,0,0,1,4.45-3.16l2.92-2.72,2.43,4.22,3.39-8.55,6.88-1.23.77,4-1.13.92-1.17-3-.83.36a23.23,23.23,0,0,1,.21,2.87c0,1,.06,2.36-.49,3-3.22,4.05-7.77,7.45-9.61,12.06-1.61,4-7.29,4.42-6.64,9.6-4.33.92-3.36,5.41-5,8.14a23.62,23.62,0,0,0-2.45,5.33c2.41-1.54,6.21-.27,7.23-4.35.1-.38,2.47-.14,3.92-.2,2.75-6.1,4.66-7,9.55-4.31l3.36-3.6,1.27.3c.05,2,.09,4,.12,5.6l6.57-4.44,1.26,1.15c-.21,1-.1,2.36-.69,3-3.37,3.61-7,6.95-10.35,10.57-2.22,2.4-4.13,5.1-6.18,7.67a8.7,8.7,0,0,1-.94,1.27c-2.23,2-4.44,4-6.74,5.92-2.86,2.37-6.38,4.16-8.55,7.06-2.41,3.23-3.63,7.43-5.65,11.81l4.63-2.56,1.51,5.45c2.19-3.39,4.19-6.51,6.69-10.4l2,4.7a6.62,6.62,0,0,1,.81-1.88c1.52-1.53,3.11-3,4.68-4.46-.26,2.25-.52,4.5-.81,6.74a1.79,1.79,0,0,0,0,1.31l6-7.56,1.66,1c-.89,2.65-1.77,5.29-2.74,8.21,5.94-.34,6.46-8.68,12.66-10.16l-.92,5c4,1,7.59-5.19,13.05-1.3-2.41,1.72-4.12,3.3-6.1,4.29-4,2-8.18,3.56-12.2,5.5a46.16,46.16,0,0,0-5.64,3.53c-5.13,3.43-10.26,6.85-15.33,10.37-2.52,1.75-4.72,4.14-7.41,5.46-4.79,2.33-4.73,7.66-7.12,11.43-.54.85,0,2.46.9,3.95a29.52,29.52,0,0,1,2.31-4.26,12,12,0,0,1,2.87-2.09c.31,1.09.6,2.19.95,3.27a4.94,4.94,0,0,0,.61,1c1.58-2.8,3-5.54,4.66-8.12.43-.67,1.57-.83,2.39-1.23.2.8.73,1.68.56,2.37a77.26,77.26,0,0,0-2.21,9.69l11.72-13.88,1.14,5.61c2.46-3.13,4.73-6,7-8.89l1.74,1.08c-1,2.9-2.05,5.8-3.57,10.07,2-1.49,3.4-2.22,4.41-3.34,2.07-2.28,3.9-4.8,5.91-7.14a1.69,1.69,0,0,1,1.6-.4,2,2,0,0,1,.72,1.63,19.8,19.8,0,0,1-1.36,3.39l9.46-4.65.85,1.56c-6.15,8.66-16.74,11.28-24.35,18.76l11.61-1.55c-2.21,4.53-5.71,4.8-8.76,5.34-3.94.69-8.06.43-12,1.31a32.54,32.54,0,0,0-8.57,3.81c-3.2,1.82-6.17,4.07-9.28,6.06-4.39,2.8-5.39,7.45-7,12.36,3.49-.85,2.4-7.9,7.89-5.16l5.17-5.39,1.57,1.05-3.36,8.78c2.83-2.35,5.12-4.17,7.32-6.1,3.26-2.87,6.41-5.88,9.72-8.67.62-.52,1.8-.3,2.72-.42-.08.94.19,2.19-.29,2.76-2.79,3.39-6,6.39-8.61,9.94-5.26,7.27-13.56,10.32-19.78,16.15-2.68,2.52-4.32,6.23-6.44,9.4l1.1.78c.64-.9,1.26-1.83,1.94-2.7.57-.71,1.29-2,1.81-1.92,4.66.62,6.38-3.45,9.11-5.91a5.65,5.65,0,0,1,1.72-.62l1.92,3.07a55.62,55.62,0,0,1,4.3-3.92,11.34,11.34,0,0,1,3-1.12,11.38,11.38,0,0,1-.75,3c-1.44,2.51-3.06,4.91-4.95,7.88,2.92-1.45,5.55-2.91,8.29-4.09,5.46-2.35,11-4.58,16.5-6.74.64-.25,1.53.21,2.31.34-.46.77-.75,1.84-1.42,2.25-6.62,4.09-13.21,8.25-20,12-3.35,1.85-7.55,2.24-10.6,4.45-5,3.57-12,3.67-15.23,10,0,.09,0,.23,0,.45l5.88-3.88c.15,1.9.23,2.83.34,4.33,5.57-3.16,10.77-6.1,16.11-9.14,1.46,3.69-2,5.15-2.78,8.1l23.53-19.69c.51,5.88-3.57,8.11-5.94,11.19s-5.2,5.93-8.55,9.68l6.27-2.28c-.11,3.35-2.82,5.36-6.91,6.43-2.27.59-5.84-.47-6.33,3.7-4.38.29-7.11,3.27-8.09,9.48l8-9.54c.57.86,1.81,2,1.6,2.53-1.15,2.9-2.64,5.65-4.38,9.19l22.54-10.89,1.06,1.53a57.64,57.64,0,0,1-5.87,5.73c-2.92,2.17-6.55,3.43-9.11,5.94-2.07,2-3,5.3-4.42,8.06a21.25,21.25,0,0,0-1,2.89L222.5,307.8l.91.43a47.45,47.45,0,0,1-2.8,6.33,59.83,59.83,0,0,1-17,18.35c-5,3.39-10.33,6.29-15.5,9.43-4.2,2.56-8.38,5.18-12.59,7.72a33.22,33.22,0,0,1-6,3.35c-4.17,1.44-5.59,5.55-7.89,8.66-1.5,2-1.69,5.11-2.45,7.73-.14.51-.19,1.06-.32,1.58-1.66,6.32-3.51,12.6-4.91,19-.53,2.4,0,5.05,0,7.58Zm18-178,1.21-.59c-.81-4.26-.49-9.4-2.73-12.54a15.78,15.78,0,0,0-11.39-6.07Zm12.07,41.32c2.12-6.51-.56-15.71-5.48-18.23l-.36,15.85.48,0q.51-2.72,1-5.41l1.76-.26C179.9,255.85,180.77,258.53,181.63,261.21Zm10.89,73.12c7.35-3.42,6.88-11.71,10.44-17.47-2.05.85-4.19,1.9-5,3.63C195.87,324.78,194.41,329.38,192.52,334.33Zm-45-66.65-1.13.3c1.64,6.91,3.27,13.82,5,20.7.05.2,1.1.13,2.45.26C150.07,282,153.35,273.41,147.56,267.68Zm-5.51,42.55,1.16-.28c-.31-4.22-.68-8.44-.9-12.66-.18-3.32-1.12-4.34-4.9-4.57C139,298.62,140.51,304.42,142.05,310.23Zm3.67,61c.62-9.1-1.09-16.16-6.94-21.46Zm21.22-73.06c2.94-8.2,2.38-10.92-2.87-14.51C165.09,288.88,166,293.54,166.94,298.2Zm16.71-54.06c1.81-6.45,2.71-12.89-1.43-18.6Q182.93,234.84,183.65,244.14Zm-19.07,70.7-.88.16-.24,10.3,1.44,0Z"/><path d="M76,302.92l-1.5,0v-.32l1.5,0Z"/><path class="cls-2" d="M169.56,219.89l-12.91-19.2A15.78,15.78,0,0,1,168,206.76c2.24,3.14,1.92,8.28,2.73,12.54Z"/><path class="cls-2" d="M181.63,261.21c-.86-2.68-1.73-5.36-2.59-8l-1.76.26q-.5,2.7-1,5.41l-.48,0,.36-15.85C181.07,245.5,183.75,254.7,181.63,261.21Z"/><path class="cls-2" d="M192.52,334.33c1.89-4.95,3.35-9.55,5.42-13.84.83-1.73,3-2.78,5-3.63C199.4,322.62,199.87,330.91,192.52,334.33Z"/><path class="cls-2" d="M147.56,267.68c5.79,5.73,2.51,14.31,6.3,21.26-1.35-.13-2.4-.06-2.45-.26-1.71-6.88-3.34-13.79-5-20.7Z"/><path class="cls-2" d="M142.05,310.23c-1.54-5.81-3.08-11.61-4.64-17.51,3.78.23,4.72,1.25,4.9,4.57.22,4.22.59,8.44.9,12.66Z"/><path class="cls-2" d="M145.72,371.26l-6.94-21.46C144.63,355.1,146.34,362.16,145.72,371.26Z"/><path class="cls-2" d="M166.94,298.2c-.93-4.66-1.85-9.32-2.87-14.51C169.32,287.28,169.88,290,166.94,298.2Z"/><path class="cls-2" d="M183.65,244.14q-.72-9.3-1.43-18.6C186.36,231.25,185.46,237.69,183.65,244.14Z"/><path class="cls-2" d="M205.61,298.45l-8,9.54c1-6.21,3.71-9.19,8.09-9.48Z"/><path class="cls-2" d="M164.58,314.84l.32,10.43-1.44,0,.24-10.3Z"/></svg>