<svg id="Layer_1" data-name="Layer 1" xmlns="http://www.w3.org/2000/svg" viewBox="0 0 822.35 457.13"><defs><style>.cls-1{fill:#90c33e;}.cls-2{fill:#cfd7e6;}.cls-3{fill:#688153;}.cls-4{fill:#c6cbd8;}</style></defs><title>chitalpa69</title><path class="cls-1" d="M504.64,424.85a10.6,10.6,0,0,0-1.31-5.8c-1.07-1.89-1.29-4.15-1.92-6.22-1.9-6.26-4.39-12.33-5.5-18.85-.68-4-3.56-7-5.67-10.27-6-9.41-12.64-18.4-18.14-28.13-2.7-4.78-3.74-10.12-5.45-15.25a188.09,188.09,0,0,0-6.8-18.65,75.88,75.88,0,0,1-6.31-24.43c-.46-4.76-1.26-9.51-2.19-14.21a101.19,101.19,0,0,1-1.34-11c-.51-6-1.43-12-2.48-18-1-5.72-.75-11.51-.68-17.28.08-6.2.4-12.39.53-18.59.07-3.68,0-7.36-.06-11,0-.54.27-1.16-.35-1.58l0-.06c.75-.73.13-1.73.5-2.54.38-4.58,1.1-9.17,1-13.75-.07-4,.68-8,.81-12a46,46,0,0,1,1.07-5.85c.66-4.07,1.66-8,1.89-12.22.32-6.16,2.72-11.91,4.72-17.72a150.14,150.14,0,0,0,5.11-17.63c.83-3.91,2.87-7.54,4.06-11.4,2-6.42,5.27-12.51,5.41-19.43.13-7.22.11-14.44.19-21.66a17.79,17.79,0,0,0-.64-5.13,15,15,0,0,1,0-6.76h0c2.1,4.87,5.62,9,7.18,14.18a51.63,51.63,0,0,0,1.92,6.42c3.9,8.64,4.86,18,7.27,27.06,1.36,5.11,2.32,10.37,5.37,15.11,2.94,4.58,4.56,10,6.82,15,.85,1.89,1.27,4,2.71,5.6a1.32,1.32,0,0,0,.38,1.1l0,.12h.12a1.22,1.22,0,0,0,1.19,1.1l-.06-.09a.75.75,0,0,0,.07,1v0a.48.48,0,0,0,.24.63l0,0a.72.72,0,0,0,.61.82l0-.07c-.17.3-.1.51.23.63l0-.06c-.25.35-.09.65.14.93a8.68,8.68,0,0,0,2.32,3.6,2.84,2.84,0,0,0,1,2.43l0,0c2.51,6.26,4.6,12.71,7.85,18.65,1.23,2.27,1.68,4.9,3.33,7l.14.62h0a4.47,4.47,0,0,0,1.11,2.54h0c.07.19.14.38.22.57l0,.05a2.83,2.83,0,0,0,.67,1.81c2.5,7.41,5.37,14.69,7,22.4.73,3.52,2.5,6.74,3.5,10.22,1.42,4.94,1.91,10,3.16,15,1.51,6,1.82,12.2,3,18.26,2,10,2.5,20.2,3.66,30.3.2,1.81-.71,3.74-.45,5.26.5,2.83.11,5.58.32,8.36q.5,6.27.73,12.56c.19,5.15-1,10.2-1.28,15.29s-1.46,9.95-2.33,14.9c-1.79,10.17-5.43,19.78-8.73,29.52-1.2,3.52-3,6.78-3.9,10.51-.61,2.63-2.26,5.23-3.36,7.88a187.36,187.36,0,0,0-8.36,25.72c-1.26,5-2.64,10-4,15a13.27,13.27,0,0,0-1.13,4.8l-.18,1.76c-3.17,10.66-6.67,21.2-10.36,31.68-1.58,4.5-3.88,8.73-4.91,13.42-.14.63-.27.83-1.12.67-4.52-.86-4.49-1.09-2.2-5.09a74.65,74.65,0,0,0,6.34-14.48c2.6-8.27,5.16-16.56,6.49-25.15C504.25,431.61,505,428.27,504.64,424.85Z" transform="translate(-110.47 -22.59)"/><path class="cls-2" d="M767.77,231.84a6.47,6.47,0,0,1,4.06-4.52C771.78,230,771.17,232.18,767.77,231.84Z" transform="translate(-110.47 -22.59)"/><path class="cls-2" d="M783.8,213a2.76,2.76,0,0,1,1.13-3.53C784.93,210.74,785,212.07,783.8,213Z" transform="translate(-110.47 -22.59)"/><path class="cls-2" d="M785,209a3,3,0,0,1,1.93-1.85A2,2,0,0,1,785,209Z" transform="translate(-110.47 -22.59)"/><path class="cls-3" d="M931,61a1.25,1.25,0,0,1,1.55-.75c.1,0,.17.24.26.36L931,61Z" transform="translate(-110.47 -22.59)"/><path class="cls-2" d="M779.79,216.94a1.64,1.64,0,0,1,1.12-2.06A2.19,2.19,0,0,1,779.79,216.94Z" transform="translate(-110.47 -22.59)"/><path class="cls-2" d="M777.11,219c.36-.76.82-1.38,1.81-1.2A2.09,2.09,0,0,1,777.11,219Z" transform="translate(-110.47 -22.59)"/><path class="cls-2" d="M781.86,213.9a1.74,1.74,0,0,1,2.07-1.13A2.08,2.08,0,0,1,781.86,213.9Z" transform="translate(-110.47 -22.59)"/><path class="cls-2" d="M778.84,217.93c-.08-.8.28-1.17,1.09-1.1Z" transform="translate(-110.47 -22.59)"/><path class="cls-2" d="M780.89,215a1.11,1.11,0,0,1,1.08-1.11Z" transform="translate(-110.47 -22.59)"/><path class="cls-4" d="M719.61,285.63a10.32,10.32,0,0,1,4.23-4.79C724.27,284.06,722.44,285.29,719.61,285.63Z" transform="translate(-110.47 -22.59)"/><path class="cls-4" d="M715.4,289.81a6.5,6.5,0,0,1,3.12-3.17C719,289.19,717.08,289.39,715.4,289.81Z" transform="translate(-110.47 -22.59)"/><path class="cls-4" d="M764.14,290.49c-.2-.14-.39-.29-.58-.44a3.87,3.87,0,0,1,.55-.45s.32.16.31.21A4,4,0,0,1,764.14,290.49Z" transform="translate(-110.47 -22.59)"/><path class="cls-4" d="M723.84,280.89,725,280Z" transform="translate(-110.47 -22.59)"/><path class="cls-4" d="M718.66,286.65l1-1Z" transform="translate(-110.47 -22.59)"/><path class="cls-2" d="M110.47,268.06l.55-.49a4,4,0,0,1,.4.61c0,.05-.21.3-.26.29A6.87,6.87,0,0,1,110.47,268.06Z" transform="translate(-110.47 -22.59)"/><path class="cls-4" d="M204.45,155.26l-.74.09a4.29,4.29,0,0,1,.08-.72s.35-.1.37-.06A4.19,4.19,0,0,1,204.45,155.26Z" transform="translate(-110.47 -22.59)"/><path class="cls-1" d="M538.14,23.49c-.2-.14-.39-.29-.58-.44a3.87,3.87,0,0,1,.55-.45s.32.16.31.21A4,4,0,0,1,538.14,23.49Z" transform="translate(-110.47 -22.59)"/><path class="cls-1" d="M602.33,152.25l-.42-.21.51.11A.81.81,0,0,1,602.33,152.25Z" transform="translate(-110.47 -22.59)"/></svg>