<svg id="Layer_1" data-name="Layer 1" xmlns="http://www.w3.org/2000/svg" viewBox="0 0 333.82 432"><defs><style>.cls-1{fill:#8dc63f;stroke:#8dc63f;stroke-width:2px;}.cls-1,.cls-2{stroke-miterlimit:10;}.cls-2{fill:none;stroke:#fff;stroke-width:3px;}</style></defs><title>cottonwood</title><path class="cls-1" d="M59.58,193.26,36.58,74.1l109,34,91.27-64,20,134.72,59.75,34.61s39.61-16.89-28.5,69.6-127.82,10.32-127.82,10.32C112.8,340,69.71,336.82,31,284.91L8,221.26Z"/><path class="cls-2" d="M81,227.77l22.13,4.51c1.33.27,2.64.57,4,.87v-1.42c.13,0,.27-.11.28-.09,1.65,3,4.43,2,6.76,2.47,3.59.79,7.19,1.46,11.18,2.25l-1-3.67c.07,0,.19-.05.2,0,2,5.15,6.39,5.51,10.4,6.6,2.38.65,4.77,1.33,7.62,2.12C137.92,231,133.46,221,129,210.94l.78-.91,1.23,1.64c1.11-1.85,2.09-3.48,3.06-5.11l.35.2c-.5,1.13-.77,2.56-1.55,3.34-2,2-1.42,3.93-.38,6,3.47,7,7.28,13.76,10.34,21,2.6,6.13,6.9,10.5,10.57,15.54a3.48,3.48,0,0,0,.74.73c0-5.79.12-11.79,0-17.78-.19-6.92-.62-13.82-1-20.73,0-.76-.23-1.52-.34-2.27,2.37.37,2,2.52,2,4.29a105.18,105.18,0,0,0,.57,12.45c3-5,6.07-9.91,8.86-15,.58-1.07.14-3,0-4.44a14.18,14.18,0,0,1-.52-3.66l2.12,5.64c3.69-5.34,8.59-9.26,10.8-15.39l3.91-4.47.71.09-4.12,7.41c3.95,0,7.79-.27,11.58.08a51,51,0,0,1,11.54,2.62,26,26,0,0,1-3.75-.31c-5.12-1.18-10.25-1.17-15.45-1.34s-7.17,2.57-9.58,6.45c-3.2,5.17-6.89,9.94-10.06,15.13a63.2,63.2,0,0,0-5.74,11.56c-.68,1.91.18,4.58.39,6.89.76,8.43,1.55,16.86,2.35,25.56,3.1-3.29,6-6.81,9.32-9.81,3.65-3.32,7.62-6.19,11.48-9.21a83.47,83.47,0,0,1,7.29-5.43c2.15-1.33,2-2.88,1.25-5-1-2.7-1.81-5.46-2.56-8.24a11.74,11.74,0,0,1,0-3c1.31,4.52,2.62,9.07,4.13,14.31,3.68-3.42,8.41-4.41,10.75-8.16a43.28,43.28,0,0,1,5.47-2.8c2.57-.88,2.86-2.91,2.69-5.47l.6,3c3.48-2.09,7.28-3.51,10-6.28,2.55-2.57,4-6.59,6.2-9.85,0,3.75-3.08,6.14-3.67,10,3.33-.26,6.67-.46,10-.79,4.68-.47,9.35-1.06,14-1.54a5.28,5.28,0,0,1,2.8.11c3.34,1.64,4.87-.8,6.35-3.45,1.23-2.22,2.41-4.48,3.61-6.73l-.07-.08c-.81,2.4-1.58,4.83-2.44,7.21-.36,1-.92,1.87-1.82,3.67,4.9-.49,9.33-.87,13.74-1.43.48-.06.83-1.15,1.31-1.68q4.89-5.41,9.81-10.81l.65.77q-4.91,5.19-9.83,10.37l.57,1c14.38-2.26,28.89-3.35,43.06-7.4-5.31,2.75-10.6,4.76-16.65,4.83-5.67.07-11.32,2.1-17,3.29.46,3.16,2.29,4.88,4.61,6.19q2.86,1.62,5.65,3.41a6.59,6.59,0,0,1,1.15,1.34c-.19.29-.39.57-.58.85l-11.13-8.21c-.07-.05-.17-.13-.18-.21-.95-5.19-4.1-3.21-6.8-2.77-4.11.67-8.23,1.29-12.35,1.93l6.38,9.84-.84.76-1.29-1.8c-2-2.86-4-5.74-6.1-8.55a2.08,2.08,0,0,0-1.54-.8c-10.37.66-20.73,1.39-31.1,2.11-.15,0-.29.18-.85.54,2.51,5.19,8.44,5.85,10.88,11.05-.32,0-.79.17-1,0-3.83-3.37-7.58-6.85-11.46-10.15-.58-.49-1.7-.33-2.53-.19-4.51.76-8.34,3.35-12.08,6.11-1,.74-2,1.43-3.84,2.71,6.47.68,10.45,4.91,14.39,9.2l-.45.75a48.17,48.17,0,0,1-5.5-4.89c-2.69-3.17-6.31-3.86-9.6-4-2.15-.08-4.37,2.63-6.74,4.21l5.43,4.13-.36.78c-1.77-1-3.5-2.15-5.34-3a3,3,0,0,0-2.64,0c-4.35,3.08-8.61,6.34-12.89,9.54l0-.06c-8.35,4.16-14.49,11.56-20.67,18.84a6.45,6.45,0,0,0-1.14,3.94c.2,5.16.64,10.31,1,16.11,5.83-4.6,11.85-6.56,18.06-7.77,5.12-1,10.28-1.76,15.44-2.48,2.33-.32,3.49-1.48,4.12-4.19.66-2.88,2.05-5.53,3.13-8.28l.73.38L198,275.8c5-1.47,9.15-2.59,13.27-3.93q9.47-3.08,18.85-6.44a3.06,3.06,0,0,0,1.47-1.92c1.29-4.92,3.5-9.54,3.54-14.89,0-1,.72-2,1.1-3l1,.43-5,18.58c2.87-.93,5.3-1.64,7.69-2.49,8.46-3,17.18-5.33,25.25-9.35,5.58-2.78,10.28-7.91,15.32-12.06a24.23,24.23,0,0,1,3.83-3.11c-4.63,5.68-9.39,11.18-15.81,14.4l0,.83,5.64,2.22-.21.68c-2.34-.76-4.7-2.21-7-2.1s-4.7,1.74-7.27,2.8c1.95,3.85,5.12,4,7.92,5.09a8.11,8.11,0,0,1-7.54-2.53c-1.4-1.43-2.43-1.65-4.25-.89-3.51,1.47-7.2,2.35-10.81,3.48-.62.2-1.21.48-2.08.82a7,7,0,0,0,1.22,1c6.81,3.08,13.59,6.06,21,7.05,6.15.83,12.21,2.61,18.3,4a3.91,3.91,0,0,1,.79.4l-.19.75c-2.14-.56-4.28-1.21-6.44-1.66-7.79-1.62-15.61-3.12-23.39-4.8a24.35,24.35,0,0,1-4.5-1.9c-2.93-1.32-5.84-2.68-8.78-4a1.88,1.88,0,0,0-1.26,0c-2.86,1-5.71,2-8.89,3.12a20.35,20.35,0,0,0,7.94,6.94q3.27,1.75,6.56,3.49l0-.06a33.52,33.52,0,0,1-15.26-8.28,3.16,3.16,0,0,0-2.64-.94c-5.68,1.84-11.31,3.88-17.05,5.9l3.81,6h0c-1.48-1.42-2.9-2.91-4.45-4.22a2.9,2.9,0,0,0-2.19-.8c-4.56,1.21-9.09,2.58-14.53,4.16l11,10.79-.12.43a8,8,0,0,1-2.3-1.09c-2.48-2.31-4.75-5-7.35-7.08-1.48-1.2-3.55-2.44-5.2-2.19-6.49,1-13,2.33-19.36,3.93-2.54.64-4.93,2.18-7.3,3.49a4.81,4.81,0,0,0-1.52,2.41c4.47-.87,8.11.78,11.77,3.27,5,3.43,10.37,6.28,15.49,9.56,4.39,2.8,8.59,6,13,8.77,4.85,3.05,10.11,4.12,15.68,4.28a111,111,0,0,0,31.52-3.89,5,5,0,0,0,2.15-1.4c6.08-6.45,11.92-13.21,18.21-19.37,5.78-5.66,11.41-11.7,18.32-15.25-4.47-6.63-4.89-14.13-3.23-22.15,2.32-11.21,8.28-19.54,15.73-26.74,1.76-1.71,3.54-3.39,5.3-5.09l.75.89c-2.66,2.6-5.38,5.14-8,7.82a47.88,47.88,0,0,0-10.89,17.74c-2.53,7.15-2.45,14.05-1.06,21.19.24,1.26,1.56,2.22,2.29,3.39s1.37,2.51,2.31,4.25c-5.49.66-8.67,4.4-12.17,7.37a157,157,0,0,0-12.58,11.66c-4.72,5-9,10.53-13.59,15.77a4.75,4.75,0,0,1-2.5,1.81c-10.5,1.07-20.83,3.47-31.45,3.88-8.58.33-15.63-2.86-22.63-7.41-8.46-5.5-16.81-11.23-25.31-16.65a14.6,14.6,0,0,0-6.49-2.28c-3.1-.25-3.59.68-3.55,4.28a64,64,0,0,1,.06,7.06c-.63,6.59-1.55,13.15-2.16,19.74-.58,6.21-.89,12.45-1.36,18.67-.17,2.32-.37,4.65-.69,7-1.7,12.33-3.26,24.7-5.27,37-.86,5.29-2.69,10.38-4.1,15.55-.1.35-.36.88-.58.91-4.25.58-7.88,4.65-12.68,2.62-1.42-.6-3.38,0-4.28-1.85a69.31,69.31,0,0,1-2.31-6.69c1.68.52,2.83.59,3.69,1.2,2.65,1.91,7.57,1.43,10-1,3.69-3.65,4.6-8.87,5.77-13.79a202.24,202.24,0,0,0,3.73-20.08c1.87-14,3.4-28,5.08-42,.69-5.72,1.45-11.43,2.14-17.14.19-1.55.27-3.12.34-4.68.22-4.78-3.49-7.83-7.13-5.34-4.13,2.83-7.81,6.51-11.69,9.83l-1.62,1.37-.58-.7c4.23-3.89,8.36-7.95,12.74-11.6,2.2-1.83,4.91-2.61,7.73-1-2.09-2.53-4.85-2.13-7.36-2.45-6.85-.85-13.44,1.25-19.93,3.13-2.76.8-5.56.2-8.24,1.43s-5.71,1.95-8.57,2.94c-4.4,1.54-8.73,3.38-13.2,4.58-2.3.62-4.83.13-7.25.13-4.16,0-8.32,0-12.48,0-.3,0-.6-.49-.9-.75a2.13,2.13,0,0,1,.3-.3c4.82-.07,9.65-.33,14.46-.15,5.63.22,10.72-2.1,16-3.66,7-2.07,14.1-3.87,21.15-5.79,2.82-.76,5.62-1.66,8.47-2.26a33.07,33.07,0,0,1,17.38.84c.89-2.05-.28-3.27-1.47-4.08a43.37,43.37,0,0,0-5.75-3.14c-3.52-1.68-7-3.41-10.64-4.81-3.12-1.22-6.38-2-9.57-3-4.1-1.3-8.23-2.52-12.28-4-2.8-1-5.16-1-7,2a4.73,4.73,0,0,1-1,.91l-.54-.57,3.82-2.7-.69-1.16c-22.41-5.64-44.42-12.69-65.21-23.91l.23-.75c4.58,2.16,9.13,4.44,13.76,6.47a293.41,293.41,0,0,0,45.32,15.5c8.94,2.29,17.82,5,26.59,8.05,7.34,2.53,14.49,5.76,21.71,8.73a27.6,27.6,0,0,1,3,1.78c-.23-5.34-.4-10.46-.7-15.56-.17-2.72-.81-5.42-.79-8.12,0-2.28-1-3.57-2.2-5-2.22-2.57-4.42-5.17-6.48-7.9-2.47-3.25-8.59-4.63-13-2.73a2.3,2.3,0,0,1-1.47.29l2.69-2.21c-6.58-3.56-18.51-5.8-21.44-4.36-.35-.53-.57-1.23-.91-1.32-5.15-1.41-10.31-2.75-15.47-4.08-2.66-.68-5.32-1.35-8-1.93-2-.43-4-.62-5.94-1.1a9.15,9.15,0,0,1-2.27-1.3Zm65.17,170.31c5.32-21.28,7.92-43.77,9.43-66.47-1.52,9.17-2.42,18.48-4.08,27.6-2,10.88-4.38,21.68-7.09,32.35-1,3.77-3.52,7.06-7.2,7.95-2.21.54-4.6.1-6.91.1a7.52,7.52,0,0,0,7.35,1.84C140.17,400.71,142.59,399.52,146.15,398.08Zm13.4-101.72-.93-.13-3.12,28.61,1,.14Q158,310.67,159.55,296.36Z"/><path class="cls-2" d="M152.85,212.67c-.36-4.07-.7-8.14-1.08-12.2-.31-3.4-.74-6.78-1-10.18-.33-5.16-.73-10.32-.71-15.48,0-4.17-2.33-6-4.71-8.27-5-4.79-9.68-10-14.49-15l.68-.87,17.31,18.07c1.45-5.27,1.13-10.11.6-14.64-1.11-9.45-.3-19.22-2.8-28.93a2.33,2.33,0,0,0,.59-1.32c0-6.93,0-13.87,0-20.8a4.31,4.31,0,0,1,.45-1.32c.24,4.43.58,8.87.7,13.31s0,8.81.4,13.31c6.52-5.68,11-13.14,15.95-20.14l.52.48c-1.89,2.9-3.66,5.92-5.7,8.67-3.1,4.15-6.4,8.1-9.58,12.16-.44.56-1.05,1.31-1,1.93.3,4.94.74,9.88,1.18,15.35l6.82-5.33.4.59c-1.75,1.47-3.43,3.06-5.26,4.37a4,4,0,0,0-1.9,4c.29,4.87.32,9.77.49,14.65,0,.92.2,1.83.38,3.45,1.8-1.94,3.18-3.34,4.47-4.83a181.33,181.33,0,0,0,27.14-42.15,1.5,1.5,0,0,1,.36-.4l.21.22c-.23.84-.42,1.69-.7,2.5s-.66,1.58-.92,2.19l9-2.32.59,1.2a3.33,3.33,0,0,1-.94.27c-3-.08-5.94.22-8.43,2.49-.88.8-2.05,1.36-2.64,2.38-2.58,4.47-4.66,9.38-7.57,13.55-5.25,7.53-10.87,14.73-16.54,21.87-2.2,2.77-3.83,5.33-3.52,9.42.53,7.1.58,14.25.85,21.38,0,.65.17,1.31.29,2.13l1.58-1.22.13.15c-2.33,3.13-1.13,6.62-.71,10C154,209.28,154.54,211.19,152.85,212.67Z"/><path class="cls-2" d="M129.79,210l-.78.91c-2-2.93-3.95-5.93-6-8.78-2.42-3.31-5.17-6.32-7.41-9.77a129.15,129.15,0,0,1-8.67-14.81c-3.36-7.09-8.78-8.42-15-8.84-4.71-.31-9.37-1.38-14-2.14-.08,0-.12-.31-.31-.86,3.22.74,6.22,1.64,9.26,2.08,5.15.74,10.32,1.19,15.47,1.76-2.42-4-5.13-8.51-7.8-13A49.06,49.06,0,0,1,92,152.11c-1.72-3.72-3.25-7.61-7.7-8.33l.53-.81,3.11,1.74C80.08,134.8,76,123.07,69.77,113S56.56,93.51,49.91,83.81l.64-.6,15.53,21.23v-6a16.62,16.62,0,0,0,3.43,12c2.66,3.66,4.81,7.8,7.24,11.82L79,114.13l.76.33a16,16,0,0,0-.87,1.88c-1.3,4.1-2.11,8,.68,12,2.68,3.79,5,7.88,7.43,11.92,2.06,3.46,4,7,6.24,11l1.57-6.57.3,0c0,1,.2,2.19-.18,3-2.38,4.75.38,8.1,2.38,11.52,3.23,5.53,6.68,10.9,10.06,16.31.63,1,1.37,1.9,2.17,3l3.42-14.2.8.26c-.53,1.81-1.17,3.59-1.57,5.44-.65,3-1.21,6-1.68,9.07-.08.52.42,1.23.76,1.75q8.11,12.67,16.26,25.31C128.29,207.42,129,208.74,129.79,210Z"/></svg>