<svg id="Layer_1" data-name="Layer 1" xmlns="http://www.w3.org/2000/svg" viewBox="0 0 333.82 432"><defs><style>.cls-1{fill:#8dc63f;stroke:#8dc63f;stroke-miterlimit:10;stroke-width:2px;}</style></defs><title>cypress</title><path class="cls-1" d="M171.49,237.25c.2.8.45,1.59.59,2.4.22,1.36.67,2.44,2,2.21.09,1.24.18,2.35.27,3.65l-.62.28c.51.89,1,1.76,1.53,2.64,1.81-.76,2.64-.35,3.12,1.66l-.39.39-.56-1.46-.56.3c.24,1,.49,2.05.75,3.15l-.88.71,2.24,3.29,1.48-.62c.21.88,1.27,1.18.51,2.59-.63,1.18-.13,3-.13,5,.77-1,1.2-1.56,1.62-2.12l.54,0,.24,2.37a8.68,8.68,0,0,1-2.23-.08,2.88,2.88,0,0,0-3.55,1.46,23,23,0,0,1-2,2.61c1.76-.25,2.89.06,3.09,1.88s-1.24,1.76-2.14,2.39c-1.38-2.11-2.67-2.16-4.24-.39l-1.91-1.38a12.89,12.89,0,0,0-1,2.31c-.3,1.23-.4,2.51-.58,3.76l-.76-.05c.1-2.08.2-4.16.3-6.33l-.51.2c-1.2-4.74-2.33-9.52-3.66-14.25a23.66,23.66,0,0,0-2.29-5,7.16,7.16,0,0,1-1.25-4.79c.13-.91-.73-1.95-1.15-3L155,246a.4.4,0,0,1,0,.18l-2.26,1.25-.54-.31c.7-1.47,1.44-2.91,2.08-4.4a8.41,8.41,0,0,0,1.06-3.14c-.05-2.65.94-5.47-.9-7.92-.44-.57-.92-1.1-1.46-1.75l.63-1.61c-.9-1.08-1.4-3-3.39-1.26-.64-1.5-.52-2.51.89-3.32a36.66,36.66,0,0,0,3.49-2.62,20.09,20.09,0,0,0,1.91,2.31c1.13,1.05,2.41,2,3.61,3,.58.47,1.51.89,1.63,1.48.49,2.26,2.44,3.34,3.64,5,.28.39,1.22.75,1.53.56,1.17-.71,1.61,0,1.7.88a3.12,3.12,0,0,0,2.92,3Zm-8.93,3.83c.53,1.64,2.11,2.37,3.52,3.4a9.15,9.15,0,0,1,3.13,3.54c1.39,3.34,2.37,6.85,3.53,10.29.18.52.46,1,.88,1.89.13-.72.24-.92.19-1.08-1.06-4-2-8-3.29-11.88a7.86,7.86,0,0,0-2.89-3.35A44.22,44.22,0,0,0,162.56,241.08Zm-1.36-.94c-.25-.54-.65-1.41-1-2.19-2,.64-3.6,1.35-2.74,3.69Zm-.9-5.76c-.76,1.89-.12,2.92,1.62,2.85Z"/><path class="cls-1" d="M182.27,265.48l2.09,2.43-.39.44-1.41-.51c-.71.76.12,2.81,1.17,3.48a5.44,5.44,0,0,1,2,2c.6,1.26.19,1.9-1.68,3a21.21,21.21,0,0,0,2.75,1.47c1.61.55,2.88,3.1,2.54,5.52l-1.38-.27c-.07.1-.14.18-.13.19.83,1,1.5,2.31,2.55,2.8,1.81.83,3.38,4.22,2.25,5.81-.22.32-.73.44-1,.56.49.77,1,1.58,1.49,2.37.23.34.44.79.78.94,2.82,1.28,3.43,2.94,2.1,6.24l-1.83-.81c.35,1.31.12,2.54,1.89,2.89,1.08.2,1.51,3.91.82,5.58a14.44,14.44,0,0,1-.93,1.62c-1.34,0-2.08-.13-1.95-1.92s-.53-3.54-.84-5.32a13.26,13.26,0,0,1-.52-3.37c.23-2.2-.74-4-1.47-5.9s-.89-3.94-1.7-5.74c-1.07-2.39-2.51-4.61-3.92-7.13-.44,1-.76,1.73-1.1,2.47-.15.34-.25.78-.52,1-1.69,1.21-1.75,1.25-2.34,3.22,2.67.72,2.87,1.07,1.58,2.86l-.53-.74c-.31.34-.58.68-.88,1s-.64.52-1.19,1c.59.25,1.12.31,1.26.59a7,7,0,0,1,.5,1.74c-2.22.34-.31,1.51-.43,2.26-1.61,1-1.58,1.27-.08,2.34.88.62,1.88,1.38.31,2.43-.19.13-.13.65-.19,1l1.07-.07-.28,1.74-2-.45a11.51,11.51,0,0,0,1.67,2.19c1.72,1.32,2.07,2.5,1.12,4.35-.26.5-.47,1-.75,1.6l-1.47-.29c.57.62.78,1,1.1,1.16,1.69.71,3.19,1.61,3.19,3.73a4.4,4.4,0,0,1-.64,2.38c-.21.31-1.21.05-1.95.05,1,1.05.31,2.94,2.13,3.85.88.44.26,5.81-.62,6.34a7.1,7.1,0,0,1-2.25.36c2.15,3.23.92,5.82-1.11,8.34-.27.33-.29,1.39-.06,1.54,1.4.91.34,1.55-.09,2.31s-.75,1.55-1.13,2.33c-.08.16-.19.37-.33.42-2.23.67-1.65,2-.92,3.07l-3,2.57c.09-1.73-.15-3.89.38-5.83.84-3,2.27-5.87,3.32-8.84.68-1.95,1.11-4,1.71-6,.35-1.17,1.12-2.29,1.16-3.46.06-1.91-.54-3.84-.47-5.75a32.07,32.07,0,0,0-1.32-9.4,21.61,21.61,0,0,1-.26-4.28l-.56,0-.78,5.4h-.22c-.2-1.54-.41-3.09-.62-4.63h-.75l-1.24,7.8-.2,0v-3.95c0-2,0-4,0-6,0-2.4-.4-4.86,0-7.19a15.79,15.79,0,0,1,2.42-5.74c1.44-2.2,1.44-4.64-.46-6.51a2,2,0,0,1-.42-1.31c0-2.85,0-5.72.24-8.56a11,11,0,0,1,1.39-3.31c.79-1.7,1.63-3.38,2.42-5.09C181.64,267.26,181.82,266.66,182.27,265.48Z"/><path class="cls-1" d="M130.3,270.1a26.41,26.41,0,0,0,4.42,3.08,5.15,5.15,0,0,1,3.19,3.45c.41,1.37,1.35,1.84,2.55,2.57,1.76,1.08,2.85,3.25,4.23,5l-.55.46L142.37,282c-1.24,1.58,0,2.49.45,3.53s.93,2.05,1.59,3.49v-2.42l.89.33c.74-2.11,1.5-4.25,2.26-6.39l.68.13c.09.37.38,1,.25,1.09-1.43,1.29-.74,2.23.38,3.19.18.16.11.6.11.57l2.55.68-1.12,1.68-1.33-.44-.17.62,3.78,1a23.73,23.73,0,0,0,1.05,4.4c.29.64,1.39.9,2.45,1.53,1.32-1.21,1.5-3.23,1.46-5.37,0-1.45.12-2.91.18-4.37l.79-.16c.48,1,1,2,1.49,3.1a14.55,14.55,0,0,1,2.37-2.34c.55-.34,2-.33,2.12-.08.33.78.59,2.07.17,2.6a21.6,21.6,0,0,1-3.47,3.05l-1.94-2.81-.52.12c.15,1.52,1.31,3.26-.8,4.38,2.16-.38,2.35,1.33,2.52,2.44.4,2.47-2,2.68-3.39,3.65l-1.88-2.76-.35.28,1.11,3.75-1.52,1.33c2.2-1.68,3.1.46,3.76,1.61.4.7-.16,2.23-.68,3.16a21.21,21.21,0,0,1-2.61,3.14,41,41,0,0,1-1.47-14.19,2.45,2.45,0,0,0-.46-1.46c-.69-1-1.48-2-2.59-3.47.92,3.21,1.7,6,2.49,8.74l-.15.07c-1.22-2.72-2.43-5.44-3.65-8.17l-.71.28,1.51,5.23-.53.23q-1.84-3.83-3.71-7.66l-.32.1-.12,2a8.8,8.8,0,0,1-1.72-1.27c-1.74-2.21-3.45-4.45-5.08-6.73a23.32,23.32,0,0,1-1.63-3c-.81-1.55-1.6-3.11-2.38-4.63-1.89.81-1.68.78-2-.92-.19-1.09-1.14-2-1.67-3.07a8.54,8.54,0,0,1-.48-1.7Z"/><path class="cls-1" d="M167,306.53c1.37-.36,2.59-.9,3.06,1,.31,1.29-1.25,4-2.48,4.06a1.31,1.31,0,0,1-1.45-1.84c1.33-4.5-.45-8.5-1.82-12.58a2.66,2.66,0,0,1-.14-1.39c.34-1.4-.15-1.94-2.08-1.65l1.71-2.28a38,38,0,0,0,3-4.19c1.23-2.22,1.12-2.28,3.23-3.19.57,1.81,1.15,3.63,1.72,5.46l.7-.12c-1.15-3.89-3.73-8.06,1.72-10.72.05,4.47.55,6.82,1.81,8.28l-1,1.81a5,5,0,0,1,1.64.17,1.54,1.54,0,0,1,.78,1.08,1.37,1.37,0,0,1-.86,1c-.85.2-1.8,0-2.61.3-.6.21-1,.9-1.53,1.38l.33.44c.33-.1.72-.35,1-.26a12.8,12.8,0,0,1,1.81.83,12.17,12.17,0,0,1-1.54,1.8,8.07,8.07,0,0,1-2.09.8,19,19,0,0,0,0-2.49,4.25,4.25,0,0,0-.68-1.62c-.07-.12-.54,0-.83,0a5.28,5.28,0,0,1,.14,1.46c-.3,1.59.77,3.54-1.19,4.71-.13.07-.17.33-.21.51s0,.23.12.61c.58-.24,1.13-.44,1.65-.69,1.23-.59,2,0,1.88,1.17a4.21,4.21,0,0,1-2.45,3.72l-1.88-3.63-.42.11c.07.65-.07,1.46.26,1.92,1,1.4.6,2.27-.72,3.05C167.26,305.72,167.15,306.19,167,306.53Z"/><path class="cls-1" d="M174.14,304.38v13.75l.47.06c.18-.95.37-1.89.59-3a50,50,0,0,1,1.18,5.15c.09.61-.48,1.34-.81,2s-1,1-.9,1.49c.48,3.47-1,6.46-1.87,9.66-.73,2.52-.29,5.37-.45,8.07-.09,1.45-.35,2.88-.58,4.63,1.42,3-.16,6.4.13,9.78l-.49,0c-.14-2.26-.12-4.55-.46-6.78-.91-5.94-.48-11.9-.66-17.85a5.52,5.52,0,0,0-1.4-3.53c-2-1.9-1.59-4-1-6.14,1.12-4.32,2.24-8.64,3.52-12.91a33.9,33.9,0,0,1,2.1-4.55Z"/><path class="cls-1" d="M190.77,251.27h-3c3.67,3.54,2.33,6.67.17,10l1.86-.1c1.53,3.79.81,7.4-1.93,9.38-.14-.43-.3-.8-.39-1.19-.95-3.88-1.43-7.95-2.95-11.58s-.87-6.61-.14-9.88c.42-1.86.15-2.61-1.56-3-1.46-.35-3-4.18-2-5.32.41-.48,1.27-.55,2-.83-1.7-2.8-4.72-5.08-3.16-9.44l3.93,8.21,2.31-1.45c-.8,2.55,1.32,4.3.2,6.62-.2.42,1.14,1.86,2,2.47a6.13,6.13,0,0,1,2.37,4.45,10.09,10.09,0,0,0,.23,1.79Z"/><path class="cls-1" d="M203.21,267.32c1.39,1,3.12,1.81,4.06,3.15.72,1,.44,2.75.63,4.37l-2.39-.32c1.12,1.6,2.54,2.83,2.87,4.31s-.54,3-.88,4.61l-1.71-.26c1.31,2.38,2.53,4.58,3.76,6.8,0,0,.2,0,.24-.09,1.47-3,3.1-5.89,4.33-9,.59-1.46.31-3.25.62-4.84a20.91,20.91,0,0,1,1.22-3.26c.15-1,.34-2.15.53-3.33h.64c.3,1.74,2.52,2.43,2.21,4.51-.11.71,0,1.81-.38,2.05-.61.4-1.57,1.08-2.42.11-.13-.15-.45-.12-.72-.19,0,.27-.07.5,0,.62,1.53,2.39,1.45,4.55-.67,6.61-.53.5-.68,1.12.1,2.06s.7,2.55.51,3.8a4.3,4.3,0,0,1-1.7,2.63,8.52,8.52,0,0,0-3.52,4.05c-.18.43-1,1-1.19.95-.5-.21-1.15-.85-1.15-1.3,0-2-1.16-2.83-2.77-3.37l.07.08c0-.42-.09-.85-.12-1.27a29.55,29.55,0,0,0-.35-4.23c-.5-2.21-.92-4.34.13-6.5a2.34,2.34,0,0,0,.12-1.41c-.3-1.43-.73-2.83-1-4.26-.16-.73-.51-1.73-.19-2.21,1.33-2,.07-3.38-.84-4.88Z"/><path class="cls-1" d="M99.57,140.62c1,.83,1.3.24,1-.65A33.44,33.44,0,0,1,99,136l2.65,3.11c.24.29.41.77.71.85,2.42.72,3.12,2.6,3.3,4.85,2.4.43,2.53,3.74,5.15,4.15v-2l3,2.36-1.35.86,1.44.73-4.85.9,1.65,6c-1.18-.78-2.51-1.22-3.13-2.15a10,10,0,0,0-7-4.72c-.77-.12-1.44-.93-2.39-1.58l6.23-.57,0-.46a8.13,8.13,0,0,0-2.75.06c-1.75.66-2.82-.28-4-1.23a38.74,38.74,0,0,0-4.3-3,5.51,5.51,0,0,0-2.51-.52,4.9,4.9,0,0,1-5-4.66l2.69,1.9-.28.41c2,0,4.11,0,6.16-.06.27,0,.5-.76.74-1.16.35.43.66,1.15,1.07,1.22,2.89.47,4.35,2.65,5.93,4.76.28.38,1,.38,2,.68Z"/><path class="cls-1" d="M163.53,349.24c2,2.67,4.22,4.89,5.6,7.54a13.44,13.44,0,0,1,1,6.42c-.14,3.38-.83,6.73-1.2,10.1-.22,2-.27,4.05-.38,6.07a11.16,11.16,0,0,0,0,1.53c.19,2.14,1.24,2.73,3.2,1.61v3.37c-.75.8-1.46,1.23-1.64,1.83-.71,2.27-1.25,4.59-1.86,6.89,0,.13,0,.3-.08.37-2.61,2.17-2,5.41-2.71,8.22a1.46,1.46,0,0,1-.91,1c.1-1,.21-2,.27-3,.16-2.46.2-4.93.45-7.38.25-2.61.77-5.19,1-7.8.52-5.3,1.13-10.6,1.29-15.91a45.26,45.26,0,0,0-1-9.76c-.4-2.07-1.67-4-2.29-6A40,40,0,0,1,163.53,349.24Z"/><path class="cls-1" d="M198.67,214.7a31.19,31.19,0,0,0,2.2,3.87,3.88,3.88,0,0,1,.6,4.23c-.39.9-.43,1.54.71,1.9.35.11.68.68.8,1.1.88,3.07-1.13,7.86-4,9-1.74.67-.71,1.87-1.36,2.95-1-2.73-2.06-5.46-3.07-8.2a1.2,1.2,0,0,1,0-.56c.49-2.51,1-5,1.47-7.55,2.13-.18,2.62-.89,2.19-3.2-.26-1.44-.47-2.88-.71-4.33l.54-.14.68,1Z"/><path class="cls-1" d="M130.16,172.27l.55-2.43.52-.21,2.09,3.83,2.16-.45-1.3-1.19c.7.08,1,0,1.17.16.33.39.87,1,.76,1.27a2.39,2.39,0,0,1-1.27,1c-1,.45-1.4,1-.47,2.13l-.45.35c-1.46-.7-2.93-1.39-4.38-2.12-2.16-1.08-4.27-2.28-6.47-3.28-1.26-.57-2.39-1-1.36-2.62a24.08,24.08,0,0,1-2.38-2c-1.82-2-4.4-1.55-6.62-2.26-1-.33-2.54.06-2.54-1.83,0-.14-.84-.41-1.29-.4a21,21,0,0,0-3.54.28c-2.89.55-4.41-.94-5-3.78l2.83,2.63,4.83-.35-.4-2.07,5.46,2.8c1.54-1.2,3.27.05,5.12,1,.56.28,1.38,0,2.09,0,1.16,1.53,2.43,3.07,3.54,4.73.26.4,0,1.17-.08,2.18,1.81.7,5-.78,5.86,2.9Z"/><path class="cls-1" d="M161.91,216c-2.12,1.74-2.55,1.58-.1,7.79l-2.7,1.36a16.83,16.83,0,0,1-1.88-2.94c-1.19-2.91-2-6-3.35-8.82a85.92,85.92,0,0,0-5-8c-.51,1.18-.9,2.06-1.3,3-4.51-4-4.74-7.15-.6-9.43-.84,3.75,1.48,5.73,4.05,7.44a20.67,20.67,0,0,1,4.6,4.64c1.57,2,.87,4,1.86,5.78a13.82,13.82,0,0,1,2.6-2C160.37,214.6,161.18,215.49,161.91,216Z"/><path class="cls-1" d="M125.19,252.43l-.09-1.85c3.3.62,6.4,1.43,7.87,4.95a1.64,1.64,0,0,0,.7.86c2.25,1,2.54,3.42,3.8,5.14l1.33,1.8,1.53,2.07L140,266l-2.76.19.36-.4c-1.57-2.6-3.1-5.21-4.73-7.77a4.45,4.45,0,0,0-1.55-1.33c-1.09-.61-2.09-.75-2.06,1.19l-2.62-4.28-.44.19,1.32,4.52c-2.82-3-5.62-5.88-8.35-8.85-1.49-1.62-1.61-3.48-.44-5.72a23.56,23.56,0,0,0,1.45,2.21c.84,1,1.84,1.91,2.66,3S124.31,251.1,125.19,252.43Z"/><path class="cls-1" d="M138.06,254.48c1.6,1.08,1.62-1.23,3-1.31.69,1.55,1.44,3.22,2.21,4.93l1.21-1.54c-.47,3.11,1.15,3.48,3.54,2.9l-.28.54-2.68,2.49c-.8,1.45,2.52,2.25.9,4.4,2.13,2.76,2.13,2.76,1.28,6.23a7.43,7.43,0,0,1,1.61-1.11,1.58,1.58,0,0,1,1.25.45c-3.48.56-.7,3.27-2,5-.79-2.53-1.49-4.78-2.26-7.27l-2.44,4.7-.47-.08a8.85,8.85,0,0,1-.21-1.9c.21-2.27.46-4.44-.59-6.68-.65-1.39-.52-3.14-.79-4.72-.06-.35-.32-.93-.55-1-2.37-.34-2.51-2-2.44-3.89a12.09,12.09,0,0,0-.29-2.14Zm2.06,4,.59-.2a15,15,0,0,0,.34-2c0-.21-.3-.62-.48-.62s-.83.26-.82.38A22.65,22.65,0,0,0,140.12,258.47Z"/><path class="cls-1" d="M193.4,311.63c3.09,1.67,1.33,6.71-1.74,8.79,1.77,1.58,1.6,4.71-.34,7-1,1.18-1.86,2.52-3,3.6a20.23,20.23,0,0,1-3.07,2.08c-.93-2.06.11-3.61.63-5.2a33.3,33.3,0,0,0,1.3-3.53,5.36,5.36,0,0,0-.53-2.21c-.18-.63-.39-1.25-.59-1.88l1.46-.38c.14.6.31,1.19.4,1.8a6.12,6.12,0,0,1-.18,1.26c1.15-2.13,2.18-3.89,3.09-5.72S192.53,313.56,193.4,311.63Z"/><path class="cls-1" d="M137.61,291.86c2,.27,4,.41,6,.86a4.3,4.3,0,0,1,2.13,1.6c1.15,1.47,1.44,3.36,3.73,4.25,1.34.53,2,3.25,2.63,5.1.85,2.54,1.35,5.19,2,7.8a4,4,0,0,1-4.05-2.7c-1.89-4-3.85-8-6-11.85-.62-1.1-2-1.78-3.15-2.54S138,293.36,137.61,291.86Z"/><path class="cls-1" d="M190.73,251.33c1.12-2.31.93-4.73.83-7.2-.13-3.57.16-7.11,3.48-9.51.89,1,1.59,2.16.76,3.86a3.91,3.91,0,0,0,.41,4.07c.66,1,1.49,2.28.47,3.69-.14.19.29.73.22,1a14.71,14.71,0,0,1-1,2.83c-.4.82-1.16,1.47-1.53,2.3-.54,1.2-1.63,1.49-3.53.71,0-.61-.08-1.24-.12-1.87A.43.43,0,0,1,190.73,251.33Z"/><path class="cls-1" d="M199.27,210.19l-2.69-1.43c-.18-1.3-.32-2.27-.45-3.24,0-.38-.26-.83-.12-1.12,1.45-3.22-1.39-5.11-2.25-7.62a18.35,18.35,0,0,0-1.2-3.41,27.43,27.43,0,0,0-3.1-4.24c-1.19-1.35-2.15-2.71-2-4.63,2.76-.75,3.46-.47,4,1.66l-1.58-.5-.29.52,2.23,2h-1.75l2.05,3.34c1.85-1.71,1.77-1.59,3.08.31.85,1.24,1.81,2.25,1.81,3.92,0,.34,1.2.69,1.86,1l-.17.58-4.18-1.63c.9,1.24,1.7,2.31,2.66,3.63,1.32-.21,2.82,1.65,2.64,4.22l-1.43-1-.23.21,2.36,2.81-.43.5-1.17-.2c.07,1.5.13,2.95.2,4.4Z"/><path class="cls-1" d="M205.51,292.09l-.07-.08a2.32,2.32,0,0,0,.05.38c1.23,5.11.81,6.48-3,9.92,2,.2,2.69,1.1,2.14,3.13s-1,4.19-3.46,5c-.47.16-.77.95-1.08,1.48-.54.94-1,1.92-1.51,2.84l-2.34-.9a25.67,25.67,0,0,1,.92-3c2.09-4.7,4.26-9.37,6.33-14.08a14.42,14.42,0,0,0,.57-2.75C204.21,293.18,204.1,292,205.51,292.09Z"/><path class="cls-1" d="M140.85,185.92c2.05.79,4.12,1.51,6.12,2.4a3.41,3.41,0,0,1,1.48,1.48,24.17,24.17,0,0,1,1.9,4.47l.4,3.25,3.06-3.4.91,1.5c-2.35,1.17-1.36,3.1-.95,4.64.37,1.37-.08,1.89-1,2.33l.91,3.41c-1.22-1.27-2.19-2.25-3.12-3.27a2.67,2.67,0,0,1-.4-.83c-1.22-3.1-2.29-6.28-3.72-9.27a16.55,16.55,0,0,0-3.12-3.72c-.88-.94-1.87-1.77-2.81-2.65Z"/><path class="cls-1" d="M144.64,161.6c-.44-2.07-.87-4.06-1.31-6.06a1.27,1.27,0,0,0-.28-.49c-1.38-1.5-3.75-2.48-2.13-5.53l-.54-.16c.74,0,1.67-.27,2.17.08s.24,1.32.4,2.55c4.18.54,3.05,4.85,4,8.1l2.34-.74-1.79,6-1.78-1.92-.5.27c.33.52.64,1,1,1.54.21.32.44.63.66,1-.4.14-.81.44-1.19.39a5.1,5.1,0,0,1-4.67-5.06c0-.55-.12-1.09-.2-1.86A4.74,4.74,0,0,0,144.64,161.6Z"/><path class="cls-1" d="M214.35,176.54c-.07,1.24-.14,2.34-.23,3.72H211.7c.2.65.21,1.44.61,1.84,1.74,1.71,2.8,3.48,1.49,6a2,2,0,0,0,.24,1.46c.36.75.87,1.42,1.58,2.55h-2.83q-.73,3.4-1.45,6.81l-.55.21c-.17-.57-.59-1.19-.48-1.68a3.23,3.23,0,0,0-.8-3.47,2.41,2.41,0,0,1,.11-3.89c1.48-1,1.62-2.3,1.54-3.77a33.92,33.92,0,0,0-.44-3.75C210.11,178.91,210.07,178.22,214.35,176.54Z"/><path class="cls-1" d="M159,330.92c.7.92,1.22,2.17,2.15,2.71a5.74,5.74,0,0,1,2.82,4.25c.28,1.49.22,3.11,2.4,3.24.33,0,.73.95.89,1.52.35,1.23.56,2.49.84,3.77l-.87-.38c.76,2,2.13,3.89.32,5.83-1.42,0-2.24-1.05-2.82-2.85-1.34-4.19-2.87-8.32-4.38-12.46-.49-1.36-1.21-2.64-1.67-4-.14-.41.23-1,.37-1.52Z"/><path class="cls-1" d="M93.89,137.28l.49,2.48a5.9,5.9,0,0,1-1.68-.64c-2.66-2.22-5.93-3.61-8.11-6.5a8.45,8.45,0,0,0-3.42-2.36c-1.2-.52-2.29-.93-2.73-2.45,2.31.4,4.56.39,6.27,2.24.38.42,1.28.45,1.94.46a4.84,4.84,0,0,1,4.54,2.62,17.78,17.78,0,0,0,2.21,2.64l1.72-1.59,1.44,3.35Z"/><path class="cls-1" d="M167.16,206.56c2.06-.63,2.44-.19,2.18,2.5-1.81-.38-1.81-.38-1.74,4.2l-2.42-3.21a48,48,0,0,1,1.61,6.87,6.46,6.46,0,0,1-1.13,4,3.54,3.54,0,0,0-.92,2.83,24.69,24.69,0,0,1,.36,4.56c-.14-.76-.27-1.53-.41-2.29l-.6,0c.06,1.42.13,2.84.19,4.26l-.6,0v-3.11c0-1.84.95-3.59,0-5.55-1-2.14-.48-4.54-.31-6.84.11-1.5.19-3,.22-4.5a2.55,2.55,0,0,1,2.12-2.71c.5-.12.9-.62,1.36-.94Z"/><path class="cls-1" d="M161,305.79l3.26,1.62c.26,2.26.51,4.46.68,6,1.19.78,2.17,1.14,2.7,1.84.88,1.18.24,2.35-.72,3.18a8,8,0,0,1-2.08.93l-1.11,3.09h1.54c-.21,3-.42,5.85-.62,8.73l-.63,0a71.1,71.1,0,0,1-1.51-7.3c-.24-2.21-.76-5,.24-6.61,1.94-3.19-.53-5.95.07-8.89C163,307.82,161.89,307,161,305.79Z"/><path class="cls-1" d="M227.73,262.38c-.2,1.27-.44,2.53-.58,3.8a2.56,2.56,0,0,0,.35,1.11c.34.84.31,1.43-.79,1.6s-1.27.49-.77,1.63c1.06,2.4-.65,6.17-3,7.36-1.66.84-3.23,1.88-4.93,2.88,1.47-3.46,2.92-7.05,4.53-10.56.34-.75,1.44-1.13,1.86-1.86,1.09-1.94,2-4,3-6Z"/><path class="cls-1" d="M159,330.92l0,.09c.06-.46.33-1,.16-1.37-2.13-4.59-4.23-9.19-6.56-13.68-.86-1.65-2.33-3-3.48-4.47-.5-.66-.9-1.4-1.49-2.34a41.11,41.11,0,0,1,5.48,3.78c1.17,1.13,1.79,2.84,2.71,4.25.59.9.56,2.27,2.16,2.46.42.05,1,1.55.93,2.32-.35,3,1.55,5.28,2.33,7.91.25.83.66,1.61,1,2.42l-.38.49Z"/><path class="cls-1" d="M130.35,270.14c.07-.64.44-1.55.16-1.88a30.49,30.49,0,0,0-4.21-4.14,25.26,25.26,0,0,0-3.93-2.06c-.25-.13-.44-.38-.52-1l5.9.91.06.61.74-1.1c2.44.43,1.31,3,2.34,4.32,1.37-1,0-3.35,2.2-3.69.12.23.37.5.36.76a18,18,0,0,0,2,8c.14.3-.17,1.18-.4,1.24a2.58,2.58,0,0,1-1.54-.29c-1.1-.52-2.15-1.15-3.23-1.73Z"/><path class="cls-1" d="M109.71,228.41l-1.7-6a14.15,14.15,0,0,1,2.5,0c.82.17,1.9-.67,2.45.62.07.18.33.3.52.39.47.22,1.35.42,1.34.58a8.34,8.34,0,0,1-.75,2.14l3,1-.34,1.69c2.82,1.51,1,3.91.81,6.21l2.08-.76-.22,1.9c-1.45.2-2.07-.54-2.67-1.72-1.09-2.14-2.43-4.14-3.68-6.2a1.25,1.25,0,0,0-.47-.58,5.69,5.69,0,0,0-2.22-.78C110.09,226.93,109.83,228.1,109.71,228.41Z"/><path class="cls-1" d="M147.5,184.46c-2.06-4.22-5-8-4.63-13.06.06-.79-.57-1.63-.88-2.45a25.89,25.89,0,0,1-1.34-4.36c2.07,2,5.06,3.35,4.6,7-.09.73.48,2.1,1,2.24,2,.54,1.72,2.63,2.76,3.78a1.67,1.67,0,0,1,.13,1.43l-1.18-1.84h-.44Z"/><path class="cls-1" d="M207.71,205.78c1.82,2.32.76,4.73.73,7.35-2.41-1-3.38.07-3.85,2-.32,1.33-.63,2.65-.94,4l-.52-.05c0-.46,0-.92.11-1.38.35-2.3.73-4.6,1.09-6.9.38-2.5.42-5.11,1.24-7.45.48-1.38,2.18-2.32,3.47-3.59C210.29,202.52,208.88,204.17,207.71,205.78Z"/><path class="cls-1" d="M133.86,286.88c.71.26,1.92,1.77,3.54.21.16-.15,1.1.27,1.42.64a31.19,31.19,0,0,1,2.1,3c-.68.12-1.41.49-1.95.3a34.92,34.92,0,0,1-5.38-2.38c-1.16-.66-2-1.91-3.14-2.6a13.62,13.62,0,0,0-4.34-1.81c-3.19-.57-4.79-2.59-5.78-5.39l.36-.41,4.6,4.11,4.49,1,.29-1.56.53-.08Z"/><path class="cls-1" d="M101.2,201.39a14.15,14.15,0,0,1,3-.22c.22,0,.28,1.35.49,2.56-1.49-.81-2.56-1.36-2.74.54l-1.16-.71a34.24,34.24,0,0,0-1,3.92c0,.19,1,.57,1.44.78l1,6.61c-1.54-3-3.12-6.37-5-9.58-1-1.61-.36-2.86.34-4,.23-.37,1.57-.06,2.8-.06.55-1.4,1.25-3.21,2-5C103.13,197.15,102.48,199.91,101.2,201.39Z"/><path class="cls-1" d="M114.64,238.34c-1.38,1-2.26.18-3.5-1.13a18.12,18.12,0,0,0-5.76-4.3c-2.08-.89-2.94-2.45-3.83-4.18-.07-.12.59-.91.88-.89,1.76.12,2.25,1.25,1,3.29a15.08,15.08,0,0,1,3.69-.09,6.64,6.64,0,0,1,2.84,1.59c.8.73,1.23,1.49,2.42.48.77-.67,1.35,0,1.51.91C114.09,235.41,114.36,236.8,114.64,238.34Z"/><path class="cls-1" d="M160.09,176.73l-1.35,3.9,1.71.34.28.5c-.53.43-1,.91-1.6,1.3-.83.57-2.21.82-1,2.31.15.17,0,.59,0,.89.16,1.72-.24,3.56,1.35,4.95.29.26.17,1.4-.14,1.88a27.42,27.42,0,0,1-2.52,2.9,9.88,9.88,0,0,1-.38-1.7c-.13-3.71-.32-7.42-.28-11.13a10.71,10.71,0,0,1,1.14-3.25,8.32,8.32,0,0,1,.65-1.46c.41-.67.9-1.28,1.36-1.91Z"/><path class="cls-1" d="M94.13,211.88c1.13-1.45,1.91-1.25,3.82,1l-2,1.68a16.44,16.44,0,0,1,2.37,1c1,.64,1.93,1.41,2.88,2.14.36.28.65.64,1,.88,1.06.68,2.12,1.32,2.1,2.83,0,2.22,2.28,3.16,2.77,5.12a7.27,7.27,0,0,0,1,1.71l-.38.28c-.45-.55-.87-1.14-1.37-1.64-1.09-1.1-2.29-2.1-3.34-3.24s-1.66-2.18-2.58-3.19c-1.28-1.43-2.64-2.79-4-4.13-.91-.89-2.29-1.46-1.53-3.22.12-.26-.49-.85-.77-1.28Z"/><path class="cls-1" d="M247.66,237.5c0,1.82.06,3.73,0,5.64a1.72,1.72,0,0,1-.93,1.13c-1.32.63-2.69,1.12-4,1.66l.14.58,2.23-.35c.13.85.26,1.7.4,2.56-1.32.16-.6,3.27-3,2.08-.28-.14-1.06.68-1.58,1.09a6.6,6.6,0,0,1-1.73,1.09c1.49-3.23,2-6.81,4.74-9.37,1.22-1.15,1.84-2.94,2.75-4.44C247,238.55,247.4,237.93,247.66,237.5Z"/><path class="cls-1" d="M131.5,176.55c2.94.87,6.76.1,7.82,4.38l1.59-1.51c.47.68,1,1.33,1.4,2.06.67,1.2,1.26,2.45,1.87,3.63-1,1.3-2,1.18-2.79,0-2.2-3-5.48-4.48-8.38-6.52-.67-.47-1.27-1.06-1.91-1.59Z"/><path class="cls-1" d="M210.85,217.61l-.85,1.25,2,.88c-.6.63-1,1.39-1.55,1.57-1.24.38-1.36.79-.59,1.83.49.67,1.16,1.75-.74,1.56-.41,0-.89.68-1.53,1.2a14.55,14.55,0,0,0,0,1.74c.23,2.2.1,2.33-2,1.75l-1-.3c.58-2,1.14-3.81,1.69-5.66l.75,1,1.32-2.73-.39-.29-1.43,1.12a14.48,14.48,0,0,1,0-1.65C206.91,218.6,208.8,218.42,210.85,217.61Z"/><path class="cls-1" d="M217.92,191.74c.94-1.59,1.83-3.17,4.21-2l-.7,2.12-1.23-.39c0,2.63-1.81,2.69-4,2.88a12.46,12.46,0,0,0,.62-1.71c.21-1.18,1.08-2.42-.69-3.34-.89-.46-.53-2.84.34-3.85s2.22-1,3.44-.56a1.55,1.55,0,0,1,0,1.28A8.44,8.44,0,0,0,217.92,191.74Z"/><path class="cls-1" d="M216.61,182.77c.48-5,.67-10,5-13.58.27,2.49-2.23,4.76-.24,7.17h-3.18l.06.27,2.17,1-2.13,2,2.12.81-2.12,2.42-.46-1.69Z"/><path class="cls-1" d="M173.25,211.74v3.62c.56-.31.82-.55,1.09-.57a5,5,0,0,1,1.13.19c-.1.39-.08.92-.32,1.13-1,.8-2,1.51-3.07,2.31l2.07,1-1.4,1.7c.85.52.53,2.26,2.29,2.27.3,0,.68,1.6.85,2.49a3,3,0,0,1-.6,2c-.24-.61-.45-1.23-.71-1.83a7.74,7.74,0,0,0-.67-1.39c-.9-1.3-1.89-2.53-2.74-3.85a2.67,2.67,0,0,1-.06-1.39c0-.29.28-.57.27-.85a15.2,15.2,0,0,1-.15-3.67,12.3,12.3,0,0,1,1.64-3.09Z"/><path class="cls-1" d="M94.17,211.84c-2.14-1.56-4.25-3.16-6.43-4.66-1.71-1.18-2-1.66-2-4.49,1.91.64,2.51,1.56,2.06,2.66a56.3,56.3,0,0,1,6.4,1.82c.74.3,1.08,1.62,1.61,2.47l-.75.07-.93,2.17Z"/><path class="cls-1" d="M218.28,261.38l-1.3-.58c.6,2.75,1.21,5.5,1.85,8.45a2.46,2.46,0,0,1-2.48-2.4,41.38,41.38,0,0,0-1-5.79c-.4-1.38.12-2.5.18-3.72.08-1.61-.83-3.26-1.27-4.91a2.59,2.59,0,0,1,.14-1.9c.6,2,1.21,4,1.85,6.07l1.6-.48C215.77,258.27,218.16,259.52,218.28,261.38Z"/><path class="cls-1" d="M167.16,206.56l-.08.06c-1.2.87-1.49.17-1.32-.88A25.82,25.82,0,0,1,167,200c1.07-2.6,2.58-5,4.07-7.81.51,1.38.51,1.38-1.84,5.69a13.68,13.68,0,0,1,1.76.3.83.83,0,0,1,.51.63c0,.19-.33.46-.57.56-.82.33-1.66.6-2.73,1C170.47,203.1,167.92,204.62,167.16,206.56Z"/><path class="cls-1" d="M233.4,261.47l-4,5.54a5.2,5.2,0,0,1,2.7-7.12,14.72,14.72,0,0,1,2.69-.79c.52-.06,1.4.18,1.58.55.34.69.8,1.72-.68,2-.26.05-.32.82-.61,1.14a4.75,4.75,0,0,1-2,1.39l1-2.25Z"/><path class="cls-1" d="M173.13,161.46l-.66,4.65,2.11.2c-1,1.24-1.5,2.83-3.41,1.77.44,1.39,1.45,2.9,1.09,3.9s-2.09,1.52-3.67,2.54c.56-3.14,1-5.63,1.48-8.35l1.35,1c.11-2.06-.9-4.19.9-5.78Z"/><path class="cls-1" d="M116.52,213.9l2.31-1.92c1.26,1.82,1.15,2.44-1,3.27l2.7,1.85c-.78.82-1.27,1.86.12,2.91a1.15,1.15,0,0,1,.33,1c-1.53,2.59-.56,5.35-.62,8,0,.09-.14.18-.58.7-.27-1-.71-1.73-.58-2.35a6.13,6.13,0,0,0-.41-4.7c-.58-1.06-.33-2.57-.63-3.83s-.86-2.4-1.27-3.6C116.7,214.71,116.58,214.12,116.52,213.9Z"/><path class="cls-1" d="M147,150.7a9.28,9.28,0,0,1-1-1.5,32.77,32.77,0,0,1-1.67-4.35,55.07,55.07,0,0,1-1.3-6.2c-.06-.43.61-1.38.88-1.36.57.05,1.47.51,1.56.94.3,1.46.26,3,.44,4.48.11.81.4,1.61.59,2.41a11.94,11.94,0,0,1,.47,2C147.05,148.24,147,149.36,147,150.7Z"/><path class="cls-1" d="M146.38,134.78c-1.24-5-2.68-9.86-1.18-15.06,1.41.9,1,2.37,1.09,3.64s-.79,2.88,1.39,3.29a2.84,2.84,0,0,1,0,1.76c-.58,1.2-1.19,2.24-.69,3.73C147.22,132.87,146.61,133.89,146.38,134.78Z"/><path class="cls-1" d="M223.46,156.85c2.54,1,2.36,2.43-.46,6.9,1.36.57,1.82,3.87.95,6.85-1-1.62-.2-4.5-3.48-4.85.76-1.42-.08-3.58,2.26-4.41.32-.12.49-1,.56-1.48C223.41,158.94,223.4,158,223.46,156.85Z"/><path class="cls-1" d="M76.48,119.88,80,125.63c-1.16.09-2,.43-2.65.16-2.58-1.14-5.08-2.46-7.75-3.78a27.59,27.59,0,0,1,3.83-.16c1.35.11,2.46.17,2.28-2Z"/><path class="cls-1" d="M198.09,194.36c-.62-2-1.2-3.79-1.9-6l1.41.33c1.08-1.23,2.06-2.37,3.05-3.51l.31.22-.72,1.59,2.51.76.18.55a10,10,0,0,0-2,1.18c-.53.52-1.29,1.45-1.13,1.91C200.31,192.91,199.67,193.55,198.09,194.36Z"/><path class="cls-1" d="M123.94,209c1.22,2,1.63,4-.33,6.11l2.46.25c.92,3.1-1.9,4-3.26,6.22-.3-1.16-.91-2.17-.64-2.67C123.92,215.77,123.08,212.23,123.94,209Z"/><path class="cls-1" d="M204.39,264c-1.58-1.48-1.26-3.45-1.55-5.27l.56-.4.49,1.13c.15-.18.27-.25.27-.33,0-.69.08-1.38.08-2.06a3.63,3.63,0,0,1,3.47-3.56c.38,0,1.08.64,1,.91a3,3,0,0,1-.84,1.77,5.19,5.19,0,0,1-1.89.59l-.72-1.34c-.12,1-.19,1.7-.25,2.32,1.84.61,2,.89,1.9,2.71l-1.06-.93c-1,1.38-2.51,2.53-1.58,4.55Z"/><path class="cls-1" d="M227.58,221.73c2.26-2.65,5-3.6,6.77-2.35a2,2,0,0,1,.53,1.78,3,3,0,0,1-3.45,2A20.06,20.06,0,0,1,227.58,221.73Z"/><path class="cls-1" d="M164.38,172.64l3.28-.49.22.32-3.32,2.43,2,1.72-3.07,1.13c0-2.36-2.18-4.6.36-6.91.47-.44.48-1.36.86-2,.18-.29.7-.37,1.07-.54.13.45.5,1,.36,1.31A27.78,27.78,0,0,1,164.38,172.64Z"/><path class="cls-1" d="M80.61,185.38a13.47,13.47,0,0,1,3.19,5.93l-.66.53c-1.57-1.37-3.12-2.76-4.73-4.09a6,6,0,0,0-1.59-.81c-1.11-.44-2.25-.83-3.37-1.24l.24-.8c1.25.33,2.49.72,3.76,1C78.54,186.07,79.81,187.34,80.61,185.38Z"/><path class="cls-1" d="M103.13,137.82c-2.95-2.74-3.3-6.29-4.86-9.18l.28-.5,3.29.81-1.13,2.8,3.73,1.38.25.57C101.86,134.13,103.57,135.94,103.13,137.82Z"/><path class="cls-1" d="M237.19,249.17l.33,2-2.49-.76c.17,2,2.79,4,.5,6.24a14,14,0,0,1-2.15,1.46l-.37-.39c.1-.47.21-.94.28-1.41a32.34,32.34,0,0,0,.65-4.44c.06-2.71.87-3.45,3.31-2.69Z"/><path class="cls-1" d="M211.51,171c.73,4.61.73,4.61-.47,5.85-.31-2-.95-4-.82-6,.08-1.19,1.29-2.36,2.14-3.41.17-.2,1.32,0,1.54.35a10.24,10.24,0,0,1,.87,2.44l-.63.21-.54-1.15-.4.09c.12.79.23,1.57.4,2.7Z"/><path class="cls-1" d="M110.54,251.73c2.21.65,3.85,2.51,3.47,4,1.79,1,5.29-1.21,5.62,2.84C114.79,258.31,111.59,256.44,110.54,251.73Z"/><path class="cls-1" d="M81.55,193c2.07.19,3.65.88,4.54,2.7.18.35,1,.4,1.1.44l4.5,7.51-.18.17c-.31-.24-.72-.42-.91-.73-1.48-2.43-4.86-3.27-5.29-6.66-.09-.7-1.52-1.18-2.27-1.84A18.68,18.68,0,0,1,81.55,193Z"/><path class="cls-1" d="M217.47,224.16c1.22-1.15,2.28-2.17,3.34-3.18l.14.74,4.06.76-2,1.93.54.65C223.07,226.07,219.82,225.68,217.47,224.16Z"/><path class="cls-1" d="M166.81,181.72c-.22-2.1-.26-4,1.44-5.39l.51,1.82.55-.13c.3-.84-1.15-2.2.62-2.58a1.84,1.84,0,0,1,1.36.09,1.38,1.38,0,0,1,.29,1.29C170.66,179,169.77,181.25,166.81,181.72Z"/><path class="cls-1" d="M263.87,213.7,261,215.55c.53.12,1.07.23,1.59.37.72.18,2,.05,1.42,1.28a3.34,3.34,0,0,1-2.4,1.55,12.62,12.62,0,0,1-3.57-.82c.33-3,3.49-3.18,5.25-4.92Z"/><path class="cls-1" d="M194.5,286.21l1.54,1-1.63,3.11-1.59-6.4.43-.15.72,1.49,2.26-2.8a9.31,9.31,0,0,0,1.34.72,9.58,9.58,0,0,0,1.42.25l-.7,2c-.74-.66-1.39,1.29-2.22.09A7.88,7.88,0,0,0,194.5,286.21Z"/><path class="cls-1" d="M199.47,291.24l3.26.18-.35,2.68h-2.6l-2.15,1.81,1.82,1c-.63,1-1.19,2-1.71,2.86C196.3,297.59,197.41,294.29,199.47,291.24Z"/><path class="cls-1" d="M132.4,206.6v-1.71l-1.79,1.59-2.31-.77.79-3.33c1,.12,1.85.19,2.64.32s2.07.14,2.2.53a5,5,0,0,1-.34,2.55,4.34,4.34,0,0,1-.71,1.11Z"/><path class="cls-1" d="M249.65,263.07c.57-.59,1-1.54,1.58-1.57a51,51,0,0,1,5.6.18C255.71,265.23,253.05,265.66,249.65,263.07Z"/><path class="cls-1" d="M188.33,313.6l-1.42,4.22-.4-.05v-7.44l.38-.39.39.93.45-.54a13.17,13.17,0,0,1,3.16.48c.31.13.5,1.62.28,1.75A12.87,12.87,0,0,1,188.33,313.6Z"/><path class="cls-1" d="M140.54,99.59c.47.16,1.2.35,1.89.64a3.29,3.29,0,0,1,1.22.84c.62.79.52,6.68-.08,7.52a.58.58,0,0,1-.28.17C142.37,105.7,141.44,102.62,140.54,99.59Z"/><path class="cls-1" d="M220.41,194.27c1.15-1.08,2-2.38,3-2.68s2.21.58,3.31.93C226.92,195.42,224.26,196,220.41,194.27Z"/><path class="cls-1" d="M99.57,140.62l4.61,6.08c-.93-.3-1.7-.3-2-.68-1.58-2.11-3-4.29-5.93-4.76-.41-.07-.72-.79-1.07-1.22.25-1.34,1.17-1.3,2.06-.89A18.75,18.75,0,0,1,99.57,140.62Z"/><path class="cls-1" d="M194.11,187.72a16.57,16.57,0,0,1-1.57-2.59c-.48-1.24-1.12-2.63-.95-3.84.11-.82,1.51-1.45,2.52-2.33Z"/><path class="cls-1" d="M238.22,220.46l-1.79-1a14.87,14.87,0,0,0,2.44-.34,2.41,2.41,0,0,0,1.43-1.29l-2.49.18c1.05-.93,1.69-1.93,2.44-2s1.88.55,2.82.87c-.47.95-.72,2.25-1.48,2.77-.91.61-2.26.55-3.42.78Z"/><path class="cls-1" d="M134.17,168.6a6.4,6.4,0,0,1-.66-1.72c0-1-.17-1.77-1.37-1.85a.74.74,0,0,1-.48-.44c-.71-2-1.39-4-2.13-6.07l1.52-.34a13.44,13.44,0,0,1,.76,3c0,1.26.32,2.1,1.7,2.06s1.44.5,1.14,1.65A29.17,29.17,0,0,0,134.17,168.6Z"/><path class="cls-1" d="M217.16,220.49c-.79,3.14-.79,3.14-2.55,2.08.86-1.32,1.49-2.91,2.63-3.91,1.56-1.36,2.83-.22,3.75,1.24C219.44,221.71,218.93,221.79,217.16,220.49Z"/><path class="cls-1" d="M177.63,169.38l.56-1.53c.49,3-.91,4.23-5.46,4.65a17.06,17.06,0,0,1,2.17-3.79C175.23,168.38,176.63,169.11,177.63,169.38Z"/><path class="cls-1" d="M127.4,207.57c.6.24,1.14.68,1.6.6,1.29-.22,2.07,0,2.14,1.52s-1.23,1.48-2,1.65c-1.58.32-1.61.18-2.16,1.7C124.93,211,127.39,209.38,127.4,207.57Z"/><path class="cls-1" d="M228.32,192.66c.45-3.5,1.78-4.43,4.18-3.52.42.16,1.12.62,1.07.76-.18.62-.45,1.5-.93,1.69A32.85,32.85,0,0,1,228.32,192.66Z"/><path class="cls-1" d="M201,235.2a5.66,5.66,0,0,1,3.82-4.06c.43-.14,1.55.61,1.74,1.17.43,1.23-.41,2.09-1.57,2.36S202.49,235,201,235.2Z"/><path class="cls-1" d="M191.43,261.81c-.52-1-1.38-2.05-1.17-2.42,1.26-2.14,2.4-4.6,6.06-4.44-1.36,1.46-2.57,2.62-3.6,3.92A14.08,14.08,0,0,0,191.43,261.81Z"/><path class="cls-1" d="M240.34,265.13A14.91,14.91,0,0,1,242.6,264a8.36,8.36,0,0,1,2.58-.34,6.3,6.3,0,0,1,1.78.62,5.88,5.88,0,0,1-.9,1.53C244.44,267.2,243.26,267.09,240.34,265.13Z"/><path class="cls-1" d="M233.39,188.48c.27-2.83,2.23-3.95,4.25-2.74.41.25,1,.89.89,1.21a2.4,2.4,0,0,1-1.12,1.59,6.48,6.48,0,0,1-2.27-.06C234.55,188.46,234,188.48,233.39,188.48Z"/><path class="cls-1" d="M259,261.51c1.12-2.55,2.49-3.56,4-2.89.53.22,1.24,1.13,1.13,1.49-.22.71-.89,1.71-1.49,1.79A14.27,14.27,0,0,1,259,261.51Z"/><path class="cls-1" d="M170.66,277.31c0-1.38-.3-2.54.1-3.37.31-.65,1.44-1,2.28-1.23a1.56,1.56,0,0,1,1.31.84c.14.76.17,2-.28,2.32A13.72,13.72,0,0,1,170.66,277.31Z"/><path class="cls-1" d="M245.25,217.06l1.93-1.71-2-.29a2.34,2.34,0,0,1,3.26-1.79,2.07,2.07,0,0,1,1.1,1.59C249.36,216.67,247.9,217.41,245.25,217.06Z"/><path class="cls-1" d="M125.84,272.52c-1-.11-2.66,2-2.78,3.59l-.46.09q-.69-3.57-1.39-7.14l.52-.15c.21.36.63.73.6,1.07-.12,1.62.77,1.28,1.79,1.21a5.28,5.28,0,0,1,2,.7Z"/><path class="cls-1" d="M110.25,254.83c-2-.26-4.06-.45-6.12-.83a3.47,3.47,0,0,1-2.25-3.58c.45.25.85.53,1.29.73s.92.31,1.41.47l-1.14,1.3C106,253.24,108.76,251.8,110.25,254.83Z"/><path class="cls-1" d="M166.89,280.92l.59,2.27c-.73,0-1.45.2-1.81-.07s-.17-1-.15-1.56a2.79,2.79,0,0,1,2.28-3,5.55,5.55,0,0,1,1.68.22,4.59,4.59,0,0,1-.34,1.89c-.3.41-1.06.5-1.63.68C167.4,281.34,167.22,281.14,166.89,280.92Z"/><path class="cls-1" d="M185.05,231.34c-2.6-2.12-2.82-4.1-.85-6.25.27-.29.91-.31,1.38-.32a15.29,15.29,0,0,1,2,.21l-1.29,2.14c-2.16-1.61-1.71,1-2.73,1.44.78.22,1.77.27,1.86.59A5.45,5.45,0,0,1,185.05,231.34Z"/><path class="cls-1" d="M199.55,317l-5.73,4.9A3.69,3.69,0,0,1,195,318C196.12,317.08,197.36,316.05,199.55,317Z"/><path class="cls-1" d="M138.07,254.48l-2.8-5.29,1.86-1.63c1,2.26,3.33,4.26.93,6.92Z"/><path class="cls-1" d="M267.29,258.84c0-.7.09-1.17.13-1.73l-1.89.27c.56-1.48.78-2.91,2.67-2.78a1.58,1.58,0,0,1,1.67,1.82C269.84,258,268.87,258.59,267.29,258.84Z"/><path class="cls-1" d="M267.62,220.38c.78-1-1.93-1.93,0-3.39a4.25,4.25,0,0,1,4.49-.69l-1.43,2.85c-.46-.63-.73-1-1-1.38Z"/><path class="cls-1" d="M219.17,216.72c.13-1.5,3.12-3.18,4.19-2.13a2.46,2.46,0,0,1-.05,2.31,2.68,2.68,0,0,1-2.08.7A6.46,6.46,0,0,1,219.17,216.72Z"/><path class="cls-1" d="M150.93,107q1.4-3.41,2.78-6.79l.48.14a11.94,11.94,0,0,1-1.37,6.72c-.15.32-1,.3-1.53.44Z"/><path class="cls-1" d="M256.39,222.46l-.84,1.48-.61-.19c.27-1.37.55-2.75.92-4.62l1.32,1.62c2.79.61,2.79.61,2.41,1.13l-.59-.81Z"/><path class="cls-1" d="M173,196.15c-1.41-2.65-1.3-3.23,1.74-6l-1.65,2.2a18.2,18.2,0,0,1,2.43,1c.29.16.34.78.49,1.19a3.92,3.92,0,0,0-1.15.24A22.15,22.15,0,0,0,173,196.15Z"/><path class="cls-1" d="M171.87,234.66c-.24-3.24.83-4.34,3.84-4.37.1.68.21,1.39.32,2.11l-2.36,1.34-.68-1.15C172.66,233.21,172.26,233.94,171.87,234.66Z"/><path class="cls-1" d="M238.54,228c.78-2.09,2.58-3.37,4.16-2.69a2.25,2.25,0,0,1,1,1.82c-.06.87-.64,1-1.64.62S239.74,227.88,238.54,228Z"/><path class="cls-1" d="M202.81,198.66l1.21-2.43c.76,1.46,3.16.12,3.21,2.33a2.26,2.26,0,0,1-1.11,1.53C204.42,201.05,204.08,199,202.81,198.66Z"/><path class="cls-1" d="M239,184.12c.68-1.54,2.35-2.56,3.65-2a1.76,1.76,0,0,1,.45,1.67,9.71,9.71,0,0,1-1.88,1.91Z"/><path class="cls-1" d="M152.42,253.91l-3-1.67,2.56-3.36C153.94,250.27,153,252,152.42,253.91Z"/><path class="cls-1" d="M142.67,134.1c-1.28,0-5.63-4-6.47-6.44a22.06,22.06,0,0,1,2.66,2.44c.88,1.09,1.65,2.09,3.33,1.13C142.36,132.27,142.51,133.11,142.67,134.1Z"/><path class="cls-1" d="M164.38,185c.32,1,.66,2,1,3-1.09-.87-1.83-2.06-3.47-.67.24,1,.53,2.26.83,3.52-2,.38-1.6-1.42-1.76-2.44C160.71,186.7,162.2,185.26,164.38,185Z"/><path class="cls-1" d="M199.27,210.19l-.09.07,2.26-.53.57,2.73c-.77.72-1.37,1.31-2,1.85-.37.31-.58,1.33-1.33.39l.05.05C198.9,213.23,199.08,211.71,199.27,210.19Z"/><path class="cls-1" d="M149.91,231.88l-2.35-.63-.16-.71,3.12-1.88c1.63,1.94,1.54,2.91-.32,4.22Z"/><path class="cls-1" d="M147.09,236.84l.94,1.93-1.69,1.06-.81-1.55-1.31,4C143.31,239,144.18,236.34,147.09,236.84Z"/><path class="cls-1" d="M120.91,255.23l2.88,3.3-1.37,1.87C120,259.84,120.19,259.2,120.91,255.23Z"/><path class="cls-1" d="M102.59,241.6l.79-1.37.59,0a8,8,0,0,1,.29,2.62c-.1.45-1.05.72-1.81,1.19l-.08,1.3c-2.24-1.55-.43-3.45-.68-5.11Z"/><path class="cls-1" d="M76.59,180.57c-.89,1.23-1.9,0-2.47-.46a2.62,2.62,0,0,1-.61-3.71l.52,1.33L74.8,176Z"/><path class="cls-1" d="M251.41,240.86l-1.58.85c-.11-.87-.24-1.78-.34-2.7,0-.37-.15-.94,0-1.07a26.91,26.91,0,0,1,2.4-1.51c0,.7-.07,1.39-.15,2.08S251.53,240.05,251.41,240.86Z"/><path class="cls-1" d="M120.26,156.54l3.09,3.37,1.39-1.19.42,3.17c-3.45.22-3.59-3.27-5.52-4.78Z"/><path class="cls-1" d="M252.31,233.61c.39-2.48.74-4.77,1.05-6.76.27.88.57,2,1,3C255.16,232.12,254.85,232.78,252.31,233.61Z"/><path class="cls-1" d="M144.19,246.07l-2.62,4.6c-1.82-1.47-.81-3-.32-4.27C141.39,246,142.89,246.19,144.19,246.07Z"/><path class="cls-1" d="M188.41,334l-4.5,4.25C183.66,335.83,186,333.09,188.41,334Z"/><path class="cls-1" d="M69.57,171.15l.78-1.46h.45l.72,4.11-.36.27-4.75-4.3.52-.65Z"/><path class="cls-1" d="M155,246.22a.4.4,0,0,0,0-.18,17.23,17.23,0,0,1,2.5.28,5.92,5.92,0,0,1,1.47.81c-.3.5-.49,1.18-.93,1.44a14.1,14.1,0,0,1-2.47,1Z"/><path class="cls-1" d="M266.59,237.49a5.52,5.52,0,0,1-1.47-1.09c-.25-.37-.08-1-.1-1.54,1.11.16,2.61-.07,3.22.57.78.83,0,2-1.05,2.57a2.15,2.15,0,0,1-.73.1Z"/><path class="cls-1" d="M145.28,85.54c1,2.62,2.17,5,0,8Z"/><path class="cls-1" d="M143.13,66.39l-3.38-5.08C143.29,62.51,144.26,64,143.13,66.39Z"/><path class="cls-1" d="M212.27,162.48c-.08-.49-.38-1.06-.22-1.45a3.13,3.13,0,0,1,1.27-1.59,1.88,1.88,0,0,1,1.81.17c.34.46.14,1.33.2,2.53-1.53-1.58-1.85-.74-2.12.36-.07.29-.41.51-.62.77-.13-.31-.25-.63-.38-.94Z"/><path class="cls-1" d="M162,183.67l1.6-5.27c.69,1.15,1.72,2.22,1.51,2.64a15.91,15.91,0,0,1-2.62,3.1Z"/><path class="cls-1" d="M238.49,234.77c-.18-1-.67-2.06-.45-3,.16-.59,1.32-.92,2-1.37a14.91,14.91,0,0,1,.84,1.64c.06.15-.22.62-.29.61C239,232.4,239.33,234,238.49,234.77Z"/><path class="cls-1" d="M146.94,69.67c.22,2.2.37,4.11-2,5.23C145,72.92,144.42,70.89,146.94,69.67Z"/><path class="cls-1" d="M156.41,310c.74,3,1.35,5.52,2,8l-.85.14C157.26,315.59,154.76,313.4,156.41,310Z"/><path class="cls-1" d="M86.14,187.54c-2.31-3-2.39-4.69-.42-6.69Z"/><path class="cls-1" d="M203.8,239c-1.14.35-2.31.63-3.42,1.06a7.29,7.29,0,0,0-1.55,1.25c-.08-.38-.45-1.1-.24-1.37a4.48,4.48,0,0,1,2-1.72,8.27,8.27,0,0,1,2.91.32Z"/><path class="cls-1" d="M242.17,163.23a15.31,15.31,0,0,1,2.79,0c.23,0,.6,1,.45,1.35-.2.5-1,1.25-1.23,1.15a12.21,12.21,0,0,1-2.29-1.56Z"/><path class="cls-1" d="M66.83,112.8l5,5.25C68.42,117.29,66.65,115.73,66.83,112.8Z"/><path class="cls-1" d="M113.28,242.17c.84,1.79.93,3.44-.81,4.86C111.33,244,111.48,243.14,113.28,242.17Z"/><path class="cls-1" d="M185.17,182.5l-1.63-2.6.31-.3.85.47,1.09-2.14,1.61,1.27Z"/><path class="cls-1" d="M184.59,175.61c-.11.52-.21,1-.39,1.95-.92-1.38-2.18-2.17-.64-3.71.49-.5.28-1.72.39-2.61l.69,0v4.32Z"/><path class="cls-1" d="M138.57,92.38l-2.88-6,.76-.36c.44,2.26,3.41,3.32,2.69,6.13Z"/><path class="cls-1" d="M202,198.32l.51,2,1-.07-.71,3.67-1-.05c-.21-1.79-.41-3.57-.62-5.36Z"/><path class="cls-1" d="M162.44,284.24c.53-2.34-1.24-5.11,2.37-6.7a7.22,7.22,0,0,1-.93,1.68,1.6,1.6,0,0,0-.24,2.28C164.48,283,164.32,283.29,162.44,284.24Z"/><path class="cls-1" d="M205.82,302.67c-.93-2.36-.87-2.45,3-3.66.19,1.49-.61,2.13-1.78,2.61C206.58,301.8,206.27,302.27,205.82,302.67Z"/><path class="cls-1" d="M182,163.69c.12-4.43.12-4.43,4.2-3.47-.44.47-1,1.21-1.1,1.15-2.12-1.08-2.2.71-2.71,1.89A2.1,2.1,0,0,1,182,163.69Z"/><path class="cls-1" d="M212.27,162.48l-.06-.15a15.28,15.28,0,0,0-.19,1.9c0,1.05.23,2.16-1.31,2.79v-6.67Z"/><path class="cls-1" d="M144.35,275.22c1.9,2.09,2.16,5.31.76,6.64C144.84,279.52,144.6,277.37,144.35,275.22Z"/><path class="cls-1" d="M171.54,237.3c0-1.79,1.34-1.9,2.51-1.93.47,0,1,.81,1.52,1.3l-2.8,1.36-1.28-.78Z"/><path class="cls-1" d="M204.39,264l-.08.09L206,263c.21,2.45-.48,3.42-2.81,4.32h0C202.55,265.83,203.75,265,204.39,264Z"/><path class="cls-1" d="M281.63,203.8c.89-.61,2-1.45,3.14-2.12.29-.16,1,.11,1.29.4a1.21,1.21,0,0,1-.13,1.16,2.07,2.07,0,0,1-1.26.54C283.71,203.85,282.75,203.8,281.63,203.8Z"/><path class="cls-1" d="M276.31,210c0-.55-.09-1.1-.18-2.24,1.36.33,3.43.52,3.46.89C279.83,211.38,277.3,208.85,276.31,210Z"/><path class="cls-1" d="M106.52,197.77l-3.26-1.26.15-1a15.67,15.67,0,0,1,3.29.09c.28.06.32,1.24.48,1.91Z"/><path class="cls-1" d="M189.66,154.22a2,2,0,0,1,3.11-1.33,1.52,1.52,0,0,1,.42,1.16,3.19,3.19,0,0,1-1.64.77A5.89,5.89,0,0,1,189.66,154.22Z"/><path class="cls-1" d="M238,238.59l.8,4.81c-1.14-1.14-2.28-1.81-2.57-2.75-.19-.62.84-1.63,1.32-2.46Z"/><path class="cls-1" d="M141,244.36q-.6-2.87-1.21-5.75l.53-.09C141.17,240.38,143.83,241.92,141,244.36Z"/><path class="cls-1" d="M213.25,225.14c.74.38,2.12.84,2.09,1.13a10.18,10.18,0,0,1-1.17,2.79l-.59-.2-1-3.14Z"/><path class="cls-1" d="M185,152.86c1.23,3,1,3.42-1.75,3.59.4-1.34.76-2.59,1.13-3.84Z"/><path class="cls-1" d="M145.15,56.06c-.12-1.4-.24-2.8-.37-4.29l2.27-.39-1.38,4.73Z"/><path class="cls-1" d="M253.77,258.94c-1,.76-1.56,1.41-2.19,1.52-.37.07-.89-.7-1.34-1.09.48-.54.89-1.27,1.49-1.54C252.05,257.68,252.72,258.34,253.77,258.94Z"/><path class="cls-1" d="M161.45,99.19c.77-3.43,1.18-3.74,4.61-3.87Z"/><path class="cls-1" d="M234.83,167a18.18,18.18,0,0,1,2.35-1.81c.32-.18.94.24,1.43.38-.21.49-.3,1.25-.66,1.42a14.88,14.88,0,0,1-2.75.75Z"/><path class="cls-1" d="M158.18,199.64c-.4-1-1.16-1.94-1-2.78.09-.61,1.38-1,2.14-1.52l.54.49c-.23.65-.42,1.32-.69,1.94S158.52,199,158.18,199.64Z"/><path class="cls-1" d="M210.58,227c.5.89,1,1.79,1.77,3.14l-3.13-.58.84-2.76Z"/><path class="cls-1" d="M142.1,92.29c1,2.23.86,2.49-1.35,3.56C139.87,94.61,140.13,93.88,142.1,92.29Z"/><path class="cls-1" d="M265.19,218.39c1.1,2,.06,4-2.23,4.47Z"/><path class="cls-1" d="M215.06,156.14c-.14-.66-.29-1.31-.48-2.14a5.93,5.93,0,0,1,2.17-.15c.45.15.71.92,1.05,1.42a7,7,0,0,1-1.22.62,10.08,10.08,0,0,1-1.56.2Z"/><path class="cls-1" d="M204.32,219.61c.91-1.51,1.5-2.51,2.16-3.61.29.7.24,2,1.55.27C208,219.11,205.89,218.56,204.32,219.61Z"/><path class="cls-1" d="M156,254.25l-.46,3.63-.63-.07.09-.72c0-.31.09-.61.15-1.09h-2.28l-.24-.56L155.2,254Z"/><path class="cls-1" d="M235.67,148l-2.91,3.12C232.13,148.73,232.13,148.73,235.67,148Z"/><path class="cls-1" d="M161.36,298.32c-.68,1.69-1.22,3.06-1.76,4.42h-.5c-.14-.88-.63-1.93-.32-2.61S160.2,299.08,161.36,298.32Z"/><path class="cls-1" d="M149.94,261.57c-.56-1.94-1.11-3.91-1.66-5.81C150.13,257,151.08,260.37,149.94,261.57Z"/><path class="cls-1" d="M134.74,159.55l1-5.24.52.08c-.07,1.79.8,3.72-.89,5.26Z"/><path class="cls-1" d="M84.93,126.09c-1.43-1.9-3.7-3.36-3.59-6.23Z"/><path class="cls-1" d="M120.54,155.19l1.27-3.16c2.07.59.47,2,.66,3Z"/><path class="cls-1" d="M70.68,182.58a21.69,21.69,0,0,1,2.42-.23,1.67,1.67,0,0,1,1.18.39c.25.33.19.9.26,1.37-.44,0-1,.23-1.31.06A25.8,25.8,0,0,1,70.68,182.58Z"/><path class="cls-1" d="M143.87,111.5c1.95.9.73,2.61,1.23,4C143.55,114.85,143.19,113.53,143.87,111.5Z"/><path class="cls-1" d="M120.06,281.15h-4.41l-.25-.25a11.4,11.4,0,0,1,2.09-1C118.62,279.63,119.78,279.59,120.06,281.15Z"/><path class="cls-1" d="M236.74,237.46v-5.72h.45l.36,5.7Z"/><path class="cls-1" d="M215,156.09l-1.83,2.38v-4.83c.74,1,1.31,1.74,1.87,2.5Z"/><path class="cls-1" d="M173.36,162.22l2.42-1.1.52.55-1.79,2.75Z"/><path class="cls-1" d="M261.76,241.09l-1-2.45.33-.44c.62.23,1.68.36,1.77.72a5.55,5.55,0,0,1-.43,2.21Z"/><path class="cls-1" d="M134.23,241.64l2,5.62C133.9,245.81,134.48,243.57,134.23,241.64Z"/><path class="cls-1" d="M237.25,249.22c-.28-.53-.55-1.07-.89-1.75l2.22-1.17c-.17,1.4.52,2.77-1.39,2.87Z"/><path class="cls-1" d="M139.14,272l1.87,4.42-1.23.52-1-4.87Z"/><path class="cls-1" d="M237.48,267.05l-1.9,1.33-.77-1.3,2.11-1.12Z"/><path class="cls-1" d="M243.29,223c.68-.59,1.35-1.19,2.08-1.72,0,0,.48.44.73.68l-2.1,1.87Z"/><path class="cls-1" d="M226,224.52c1.14-1.84,2.21-1.86,4.64-.21Z"/><path class="cls-1" d="M216.24,242.33A18.09,18.09,0,0,1,219,242c.11,0,.22,1,.27,1.32a7.37,7.37,0,0,1-1.74.24,5.46,5.46,0,0,1-1.34-.54Z"/><path class="cls-1" d="M118.51,153.84a10.5,10.5,0,0,1-2.07,1.13c-.21.06-.66-.69-1-1.06a4.28,4.28,0,0,1,1.22-.69,6.54,6.54,0,0,1,1.63.14Z"/><path class="cls-1" d="M243.41,220.83l-1.59,3.62-.83-.37,1.58-3.63Z"/><path class="cls-1" d="M238.17,220.42c.31.2.6.42.92.59s.65.3,1.45.65l-2.76.34a5.13,5.13,0,0,1-2.43-.16l2.88-1.37Z"/><path class="cls-1" d="M184.49,302.64c-.06-.62-.11-1.24-.18-2l2-.12C186.58,302.16,186.42,302.34,184.49,302.64Z"/><path class="cls-1" d="M235.89,246.1v-3.61C237.5,243.1,237.58,244,235.89,246.1Z"/><path class="cls-1" d="M150.75,263.76c-.12,1.34-.24,2.68-.38,4.15-1.35-1.37-1.35-1.61-.13-4.17Z"/><path class="cls-1" d="M119.6,151.18c-2.83-.36-3.4-1.06-2.76-3.16Z"/><path class="cls-1" d="M192.63,277.66,191,281.45c-.43-1-.71-1.62-1-2.25l.21-.22.5.39,1.28-2.12Z"/><path class="cls-1" d="M98.83,127.31c-2.1-.48-2.3-1-1-3.24Z"/><path class="cls-1" d="M159.54,306.4c-.08,1.41-.15,2.83-.22,4.25l-.84-.06.31-4.24Z"/><path class="cls-1" d="M161.11,102.51c.84,2.72-.86,2.1-2.27,1.92Z"/><path class="cls-1" d="M154,185.73c.93-1.19-1.8-2.51.64-4v4Z"/><path class="cls-1" d="M178.75,96.37c-.46-.55-1-.94-1-1.21.08-.45.55-1.13.89-1.15s.87.52,1.31.82Z"/><path class="cls-1" d="M220.35,283.05a5.26,5.26,0,0,0-1.57.91,10.73,10.73,0,0,0-1.09,2.29c.06-2.43.06-2.43,2.27-3.8Z"/><path class="cls-1" d="M269.44,213c.2-1.41.38-2.66.6-4.23A3.12,3.12,0,0,1,269.44,213Z"/><path class="cls-1" d="M254.32,226.12a16.9,16.9,0,0,1,2.12-1.26c.23-.11.68.27,1,.42-.28.33-.5.85-.84.95a10.31,10.31,0,0,1-2.1.25Z"/><path class="cls-1" d="M226.5,162.78v2.8h-.77l-.15-2.84Z"/><path class="cls-1" d="M95.61,227.14c1.13.76,3-.45,3.87,1.88l-4-1.36Z"/><path class="cls-1" d="M88.14,161.08l-2.65-2,.47-.65,2.68,2Z"/><path class="cls-1" d="M130.38,201.71l1.44-3.6.64.25c-.43,1.2-.85,2.4-1.28,3.61Z"/><path class="cls-1" d="M199.65,149.69c-.65.09-1.29.19-1.94.22a8.28,8.28,0,0,1-.14-1l2-.18Z"/><path class="cls-1" d="M213,200.28l1.6-3.23.46.24C214.37,198.23,215.34,200,213,200.28Z"/><path class="cls-1" d="M215.08,151.89l1.46-2.16c.23,1.26.65,2.63-1,2.65Z"/><path class="cls-1" d="M230,150.78l1.5-3,.62.3-1.32,3Z"/><path class="cls-1" d="M136.22,147.26c1,.61,3.2-.74,3.34,2Z"/><path class="cls-1" d="M143.32,44.21c.41.9.82,1.81,1.22,2.71l-.73.34-1.25-2.69Z"/><path class="cls-1" d="M77.71,141.27H74.46v-.5h3.33Z"/><path class="cls-1" d="M131.25,122.22l-1.59-2.68.68-.4,1.49,2.7Z"/><path class="cls-1" d="M184.59,175.61l0,0c.84-.42,1.69-1.22,2.62.28C186.23,176,185.34,177.49,184.59,175.61Z"/><path class="cls-1" d="M178,163.26l1.07-2.11c.27.27.83.69.79.78a16.12,16.12,0,0,1-1.22,1.75Z"/><path class="cls-1" d="M162.56,241.08a44.22,44.22,0,0,1,5.07,2.81,7.86,7.86,0,0,1,2.89,3.35c1.31,3.89,2.23,7.91,3.29,11.88.05.16-.06.36-.19,1.08-.42-.89-.7-1.37-.88-1.89-1.16-3.44-2.14-6.95-3.53-10.29a9.15,9.15,0,0,0-3.13-3.54C164.67,243.45,163.09,242.72,162.56,241.08Z"/><path class="cls-1" d="M161.2,240.14l-3.74,1.5c-.86-2.34.78-3,2.74-3.69C160.55,238.73,161,239.6,161.2,240.14Z"/><path class="cls-1" d="M160.3,234.38l1.62,2.85C160.18,237.3,159.54,236.27,160.3,234.38Z"/><path class="cls-1" d="M140.12,258.47a22.65,22.65,0,0,1-.37-2.43c0-.12.54-.39.82-.38s.5.41.48.62a15,15,0,0,1-.34,2Z"/></svg>