<svg id="Layer_1" data-name="Layer 1" xmlns="http://www.w3.org/2000/svg" viewBox="0 0 333.82 432"><defs><style>.cls-1{fill:#fff;}.cls-2{fill:#99c864;}</style></defs><title>dogwood</title><path class="cls-1" d="M210.87,43.68c-1.77,9-3.68,17.29-5,25.7-3.63,22.61-1.1,45,6,66.62,7.81,23.88,17.24,47.31,25.89,71,7.41,20.23,13,40.75,12,62.38-1,20.59-8.48,39.16-20.48,56.33a187.32,187.32,0,0,1-31.71,34.54c-2.54,2.18-2.92,4.06-1.87,6.93,3.81,10.37,7.41,20.81,11,31.24.62,1.78,2.22,4.08-.93,5.07-3.3,1-3.75-1.64-4.47-3.62-3.7-10.26-7.48-20.5-11-30.83-1-3.08-2.55-4.75-6.13-5.69-20.27-5.33-38.66-13.94-53.86-27.64-18.81-16.95-28.8-37.93-32.58-61.58-5.48-34.34,1.38-67.35,13.7-99.6A291.86,291.86,0,0,1,185,64.39c7.4-7,15.81-13,23.77-19.45A20.21,20.21,0,0,1,210.87,43.68ZM177.3,326.73c-1.8-8.48-4-16.38-5-24.4-1.06-8.62-4.26-15.87-11.47-21.56A21.33,21.33,0,0,1,158.3,278c-19.44-22-30.24-47.57-37-74.85-1.66-6.68-3.08-13.42-4.61-20.14a7.43,7.43,0,0,1,2,3.61c4.06,12.53,7.75,25.18,12.28,37.57,6.63,18.15,16.16,34.91,30.23,49.25,1.58,1.61,2.9,3.43,4.33,5.16l1.25-1c-.06-1.06-.08-2.12-.18-3.18-1.5-15.84-2.9-31.69-4.58-47.51-.56-5.25-1-10.71-2.95-15.6-8.37-21.23-14.59-42.82-15.29-65.53-.13-4.28-.07-8.57.12-12.84s.62-8.49,1-12.73c2.44,25.09,3.24,50.34,16.94,73.2,3.19-47,15.48-91.63,39.47-134-5.2,13.93-10.7,27.11-15,40.62s-7.48,27.49-11.15,41.26l1.84.69c2.94-4.35,6.16-8.57,8.76-13.09a149.6,149.6,0,0,0,6.91-14.25c2-4.66,3.8-9.44,5.69-14.16-5,19.75-11.11,39.05-24.09,55.82a9.08,9.08,0,0,0-1.57,4c-3.69,23.66-3.91,47.45-3.12,71.27.14,4.48.65,8.95,1,13.42a127.41,127.41,0,0,0,24.16-46.22c4.76-16.49,8.43-33.23,12.58-49.86-.52.37-.46.9-.53,1.42-1.72,12.59-2.91,25.26-5.29,37.74-4.39,23-12.72,44.67-28.59,63.4a6.9,6.9,0,0,0-1.15,4.77c2.16,24,6.84,47.65,12.55,71.14,1.11,4.58,2.52,9.11,4,14.36a145.29,145.29,0,0,0,23.94-32c6.31-11.51,11.44-23.49,13.79-36.18,2.32-12.48,4.28-25.12,4.83-37.74s-.87-25.26-1.42-37.89c1.13,6.44,2.28,12.89,3.09,19.38,3.34,26.54.95,52.58-8.59,77.92-7,18.63-17.5,35.49-30.75,51-1.14,1.32-2.35,3.19-2.21,4.71.23,2.67,1.48,5.27,2.43,8.31a25.25,25.25,0,0,0,2.76-2C203.25,350,210.8,343,217.4,335.42c24.73-28.58,34.3-60.69,26.3-96.94-4.08-18.55-11.43-36.09-18-53.89-6.4-17.16-13-34.3-18.22-51.79-7.26-24.4-8.6-49.26-3.2-74.25.43-2,.67-3.95,1.17-7-3.66,2.93-6.36,4.94-8.89,7.12-37,31.89-63.14,70.31-80.68,113.85-12.24,30.41-19.29,61.63-15.61,94.25,4.9,43.38,28.59,74,73.25,90.09,4.23,1.52,8.6,2.68,13.67,4.25-2-7.05-3.92-13.19-5.59-19.37a6.66,6.66,0,0,0-4.43-4.88c-18.33-7.61-34.09-18.32-46.14-33.3-12.72-15.82-19.45-33.93-23.64-53-1.47-6.7-2.58-13.47-3.86-20.21a7.16,7.16,0,0,1,2,3.64c4.63,13.34,8.55,26.93,14.1,39.94,7.31,17.14,18,32.38,34.86,43.19A67,67,0,0,0,177.3,326.73Z"/><path class="cls-2" d="M177.3,326.73a67,67,0,0,1-22.83-9.6c-16.83-10.81-27.55-26.05-34.86-43.19-5.55-13-9.47-26.6-14.1-39.94a7.16,7.16,0,0,0-2-3.64c1.28,6.74,2.39,13.51,3.86,20.21,4.19,19,10.92,37.14,23.64,53,12.05,15,27.81,25.69,46.14,33.3a6.66,6.66,0,0,1,4.43,4.88c1.67,6.18,3.54,12.32,5.59,19.37-5.07-1.57-9.44-2.73-13.67-4.25-44.66-16.09-68.35-46.71-73.25-90.09-3.68-32.62,3.37-63.84,15.61-94.25,17.54-43.54,43.69-82,80.68-113.85,2.53-2.18,5.23-4.19,8.89-7.12-.5,3.08-.74,5.07-1.17,7-5.4,25-4.06,49.85,3.2,74.25,5.2,17.49,11.82,34.63,18.22,51.79,6.62,17.8,14,35.34,18,53.89,8,36.25-1.57,68.36-26.3,96.94-6.6,7.62-14.15,14.53-21.29,21.75a25.25,25.25,0,0,1-2.76,2c-.95-3-2.2-5.64-2.43-8.31-.14-1.52,1.07-3.39,2.21-4.71,13.25-15.46,23.75-32.32,30.75-51,9.54-25.34,11.93-51.38,8.59-77.92-.81-6.49-2-12.94-3.09-19.38.55,12.63,2,25.3,1.42,37.89s-2.51,25.26-4.83,37.74c-2.35,12.69-7.48,24.67-13.79,36.18a145.29,145.29,0,0,1-23.94,32c-1.48-5.25-2.89-9.78-4-14.36-5.71-23.49-10.39-47.13-12.55-71.14a6.9,6.9,0,0,1,1.15-4.77c15.87-18.73,24.2-40.38,28.59-63.4,2.38-12.48,3.57-25.15,5.29-37.74.07-.52,0-1.05.53-1.42-4.15,16.63-7.82,33.37-12.58,49.86A127.41,127.41,0,0,1,170.51,245c-.34-4.47-.85-8.94-1-13.42-.79-23.82-.57-47.61,3.12-71.27a9.08,9.08,0,0,1,1.57-4c13-16.77,19.14-36.07,24.09-55.82-1.89,4.72-3.64,9.5-5.69,14.16a149.6,149.6,0,0,1-6.91,14.25c-2.6,4.52-5.82,8.74-8.76,13.09l-1.84-.69c3.67-13.77,6.82-27.67,11.15-41.26s9.81-26.69,15-40.62c-24,42.37-36.28,87-39.47,134-13.7-22.86-14.5-48.11-16.94-73.2-.34,4.24-.78,8.48-1,12.73s-.25,8.56-.12,12.84c.7,22.71,6.92,44.3,15.29,65.53,1.93,4.89,2.39,10.35,2.95,15.6,1.68,15.82,3.08,31.67,4.58,47.51.1,1.06.12,2.12.18,3.18l-1.25,1c-1.43-1.73-2.75-3.55-4.33-5.16-14.07-14.34-23.6-31.1-30.23-49.25-4.53-12.39-8.22-25-12.28-37.57a7.43,7.43,0,0,0-2-3.61c1.53,6.72,3,13.46,4.61,20.14,6.75,27.28,17.55,52.87,37,74.85a21.33,21.33,0,0,0,2.52,2.76c7.21,5.69,10.41,12.94,11.47,21.56C173.27,310.35,175.5,318.25,177.3,326.73Z"/></svg>