<svg id="Layer_1" data-name="Layer 1" xmlns="http://www.w3.org/2000/svg" viewBox="0 0 333.82 432"><defs><style>.cls-1{fill:#8dc63f;}</style></defs><title>epaulette</title><path class="cls-1" d="M160.49,366.7c-1.54-.56-2.24,0-2.05,2.15a6.28,6.28,0,0,1-.62,2.06,7.64,7.64,0,0,0-1.39-1.19c-1.06-.54-2.35-.64-3.21-1.46-2-1.93-3.81-4.15-5.66-6.3-.95-1.1-1.68-2.57-2.74-3.42a33.72,33.72,0,0,1-8.87-11A43,43,0,0,0,132.3,342c-1.13-1.52-1.48-2.64.17-3.13a21.33,21.33,0,0,0-.48-3.95,19.2,19.2,0,0,0-1.73-3.29c-1.72,1.9-2.13,1.61-2.76-.72-.88-3.25-2.11-6.36-3-9.61-.84-3-1.38-6.14-2.19-9.16-.72-2.71-1.66-5.32-2.46-8s-1.38-5.34-2.27-7.89c-1.57-4.48-3.49-8.79-4.91-13.33-1-3.29-1.49-6.86-2.21-10.3a30.66,30.66,0,0,1-1-5c-.13-5.09,0-10.19,0-15.75l2.07,1.54c.25-.55.63-1,.56-1.32-.22-.93-.47-2.42-1-2.59-1.48-.5-1.57-1.69-1.57-3.15,0-3,0-6.09,0-9.46l1.77,1.09a15.81,15.81,0,0,0,1.07,3.66c1.34,2.18,2.91,4.14,4.9,6.89l-.31-4.07,4.11-1.75-4-1.82v3.65l-.93-.13c-1.38-3.24-2.53-6-3.74-8.82L111.25,238c-.33-2-.76-4-.94-6-.32-3.44-.58-6.9-.67-10.35a24,24,0,0,1,.76-3.9c.65-4.16,1.2-8.35,1.9-12.49.6-3.6,1.41-7.14,2-10.73a33.41,33.41,0,0,0,.23-4.15c0-.47-.15-1.14,0-1.39,1.9-2.43,1.27-5.49,1.55-8.37s1.12-5.94,1.64-8.93c.73-4.12,1.46-8.25,2.07-12.4.33-2.29-.29-5.52.74-6.76,2.36-2.85,1.21-6.18,1.92-9.13s2.54-5.6,3.85-8.39a6.78,6.78,0,0,0,.72-1.94c.33-2.51,1-5.11.76-7.54-.54-5.15,2.63-8.62,3.39-13.21.53-3.2,2.87-5.89,4.22-8.93a49.92,49.92,0,0,0,2.43-6.94A123.64,123.64,0,0,0,142,73.07c.5-6.19,1.73-12.3,2.83-18.39.25-1.38,1.3-2.52,2.34-4.43a25.38,25.38,0,0,1,1.57,2.69c2.31,5.33,4.53,10.73,6.9,16,.58,1.31,1.68,2.25,2.35,3.52,1.71,3.18,3,6.83,5,9.6a50.35,50.35,0,0,0,7.57,7.53c2.34,2.06,5,3.54,7.24,5.76,1.84,1.84,3.22,4.38,4.8,6.61.16.22.23.71.38.74,3,.56,3.94,4,5.54,6.43.84,1.29,1.29,3,2.11,4a20.87,20.87,0,0,1,2.93,2.64c1,1.31,1.58,3.66,2.75,4.23,3.35,1.62,3.8,6.25,6.38,8.65,1.31,1.22,1.76,3.79,2.73,5.64,1.84,3.51,3.77,7,5.67,10.41a21.77,21.77,0,0,1,1.34,2.41c1.37,3.48,2.62,7,4,10.49s3,6.51,4.12,10a24.41,24.41,0,0,1,1,6.83c.14,5,0,10.08,0,15.35,3.52,1.72,1.44,5.64,1.79,8.74.28,2.47-.88,5.23.94,7.38a.51.51,0,0,1,.07.28c-.17,3.12-.37,6.25-.52,9.37s-.32,6.11-.31,9.16c0,2.5-.08,4.8-2.33,6.48l2.19.61c-.31,2.61-.55,5.34-1,8-.09.59-.87,1-1.37,1.48s-1.31,1.1-2,1.65l.3.8,2.1-.82c1.47,1.85.41,3.67-.41,5.31s-1.07,2.58.58,3.45a2.29,2.29,0,0,1,.69,1.79c-.69,4.25-1.36,8.54-2.34,12.7a26.4,26.4,0,0,1-2.54,6.49,30.22,30.22,0,0,0-3.5,15.24c0,3.82-.14,7.61.15,11.48.21,2.84-.52,5.81-.88,8.71-.29,2.26-.26,4.76-1.06,6.72-3,7.4-5.9,14.83-9.44,21.92-2.77,5.54-6.74,9.88-9,15.77a11.12,11.12,0,0,1-2.14,2.67l.66-3.19-.63-.29c-.89,1.18-1.86,2.29-2.66,3.56-.68,1.1-.93,2.23.8,1.94a4.13,4.13,0,0,0-.34.39c-2.21,2.8-2.21,2.8-4.16-.16l-2-1.06a12.12,12.12,0,0,0-.85-2.77,45.36,45.36,0,0,0-2.77-3.74c.14,2.43-1.57,1.82-3.06,1.78a8,8,0,0,0-2.13.16c-.38.1-.7.59-1.05.9a7.37,7.37,0,0,0,.8,1.2c.73.77,1.49,1.5,2.27,2.18.48.42,1,1.05,1.55,1,1.78-.13,3.54-.51,5.3-.79l-3.18,3.43c2.14,1.29,3.54-1.08,5.21-2.38a13.84,13.84,0,0,1-1.27,3.26,11.94,11.94,0,0,1-2.78,2.06l1.63,1.62-.15.92-3.83-.64c-1.82,2.63-3.53,5.89-5.85,8.21a24.43,24.43,0,0,0-5.68,8.57c-.78,2-2.08,1.81-3,.3a60.14,60.14,0,0,1-3.05-6.42,29.16,29.16,0,0,1-1.42-3.93,5.58,5.58,0,0,1,.09-2c.1-.87.25-1.73.37-2.6,2.09-3.39,0-5.24-2.07-8,.21,1.65.15,3,.44,3.18C160.88,362.7,160.26,364.91,160.49,366.7Zm-5.31-108.54,1.67-2.1-3.11-2-.35.86c.62,1.11,1.24,2.22,1.85,3.33-2.6.6-2.71,2.21-.24,6.5-.07-1.09-.51-2.12-.5-3.15A18,18,0,0,1,155.18,258.16Zm4.35,58.43-5.12-1.1-.23.9c2.93.57,5,4,8.68,3.4l-3.41-3.29,1.61-.49.07-.76-4.37-2.61-.42,1Zm-2.64,24.29,3.74.63.54-4.23-5.52-.66-.36.69c1.18.9-1.31,3.13,1.16,3.57L154,342.12c2.56,1.46,5.11,2,4.71,5.92,0,.31,1,.94,1.63,1.12.19.06.72-.82.84-1.36.61-2.79.94-5.43-2.4-5.75C158.12,342,157.52,341.28,156.89,340.88Zm5.14-33.3c.35-1.21,2.77-2.85-.54-4.47l2.66-2.18.08-.9-3.44-1.11c-.12,4.67-2.76,4.91-5.13,5.39Zm-3.32,19,2.57.8c0-1.73.06-3.2,0-4.65,0-.46-.42-1.17-.72-1.23s-.78.45-1,.86c-1,1.67-1.94,3.4-3,5.25l2.56,1.63Zm50.7-130.42c5,2,2.65,7.5,3.89,11.25a37.49,37.49,0,0,0,.15-8.05C213.15,197.15,212.5,194.48,209.41,196.15ZM153.59,328.68c.11,3.12.53,3.5,3.21,2.83a15.06,15.06,0,0,1,2.6,0,20.74,20.74,0,0,0,2.29-.4l-.08-.46Zm60-82.1-.59,1.08,2.21,2.51a10.89,10.89,0,0,0,.72-1.84A18.75,18.75,0,0,0,213.63,246.58Zm-49.91,44.59,0-.76L159.82,289l1.57,3.44Zm-9.45,56.11-.58.7,1,3.73,1.58-1.71Zm20.29-6v-.62h-5.33v.62Zm3.17-1.87v.49h4.66v-.49Zm-4.63,20.4-.2,1.06,4.21,1.42.25-1.21Z"/><path class="cls-1" d="M166.54,410.25c-.2-3.59-.43-7.23-.58-10.87a5.51,5.51,0,0,1,.51-1.7c.58.57,1.64,1.14,1.64,1.71a70,70,0,0,1-.47,8.45A7.31,7.31,0,0,1,166.54,410.25Z"/><path class="cls-1" d="M189.79,357.14c-1.73.29-1.48-.84-.8-1.94.8-1.27,1.77-2.38,2.66-3.56l.63.29-.66,3.19Z"/><path class="cls-1" d="M183.31,356.24c-1.76.28-3.52.66-5.3.79-.5,0-1.07-.59-1.55-1-.78-.68-1.54-1.41-2.27-2.18a7.37,7.37,0,0,1-.8-1.2c.35-.31.67-.8,1.05-.9a8,8,0,0,1,2.13-.16c1.49,0,3.2.65,3.06-1.78a45.36,45.36,0,0,1,2.77,3.74,12.12,12.12,0,0,1,.85,2.77Z"/><path class="cls-1" d="M156.89,340.88h-.45c-2.46-.44,0-2.67-1.15-3.57l.36-.69,5.52.66-.54,4.23Z"/><path class="cls-1" d="M153.59,328.68l8,2,.08.46a20.74,20.74,0,0,1-2.29.4,15.06,15.06,0,0,0-2.6,0C154.12,332.18,153.7,331.8,153.59,328.68Z"/><path class="cls-1" d="M159.45,316.51c1,1,2.08,2,3.41,3.28-3.69.6-5.75-2.83-8.68-3.4l.23-.9,5.12,1.1Z"/><path class="cls-1" d="M155.24,258.23c-.61-1.11-1.23-2.22-1.85-3.33l.35-.86,3.11,2-1.67,2.1Z"/><path class="cls-1" d="M160.49,366.7c-.23-1.79.39-4-1.69-4.92-.29-.13-.23-1.53-.44-3.18,2.08,2.78,4.16,4.63,2.07,8C160.44,366.62,160.49,366.7,160.49,366.7Z"/><path class="cls-1" d="M213.63,246.58a18.75,18.75,0,0,1,2.34,1.75,10.89,10.89,0,0,1-.72,1.84L213,247.66Z"/><path class="cls-1" d="M163.72,291.17l-2.33,1.3L159.82,289l3.94,1.38Z"/><path class="cls-1" d="M159.53,316.59l-3.19-2.95.42-1,4.37,2.61-.07.76-1.61.5Z"/><path class="cls-1" d="M185.34,357.29c-1.67,1.3-3.07,3.67-5.21,2.38l3.18-3.43-.06.07,2,1.06Z"/><path class="cls-1" d="M154.27,347.28l2,2.72-1.58,1.71-1-3.73Z"/><path class="cls-1" d="M174.56,341.24h-5.32v-.62h5.33Z"/><path class="cls-1" d="M177.73,339.37h4.67v.49h-4.66Z"/><path class="cls-1" d="M173.1,359.77l4.26,1.27-.25,1.21-4.21-1.42Z"/></svg>