<svg id="Layer_1" data-name="Layer 1" xmlns="http://www.w3.org/2000/svg" viewBox="0 0 333.82 432"><defs><style>.cls-1{fill:#8dc63f;stroke:#8dc63f;stroke-miterlimit:10;stroke-width:8px;}</style></defs><title>false cypress</title><path class="cls-1" d="M191.82,138.74l1,.66-.35.34c.23.64.33,1.49.72,1.87,1.24,1.22,2.58,2.25,3.93,3.4l1.88-3.63-1.58-1.84c2.85-.15,4.93-1.38,5.21-5.37l.91.56c.94-1.58,1.87-3,2.65-4.54a8.85,8.85,0,0,0,.39-2.33l.6.92c-.17,1.21-.31,2.24-.49,3.26a3.21,3.21,0,0,1-.4,1c-.49.81-1,1.58-1.54,2.36.68.35,1.35.71,2,1,.22.11.47.1.71.35h-2.18v.44l3.86.24-.94,2.92c.1-1.8-.74-2.36-2.18-2.12-1,.16-2.26-1.18-2.78.31-.29.85.47,2.28.75,3.45a.55.55,0,0,1,0,.18c-1.8,1.22-2.19,2.3-1.32,3.72l-1,.34c1.61.91,3.41,1.3,3.58,3.92l-1.16-.31c-.34-.65-.63-1.85-1.2-2.13s-1.55.18-2.12.28c.29,1.38.58,2.72.9,4.25,1.31,0,1.49,1.4,1.61,2.87.07.88.27,1.74.41,2.61l0-.14-.84,1-.53-1.16-.25.08v2.35l-.27.09-.76-1.73-.35,3.22c-.1-1.35-.19-2.7-.29-4-.62.67-.24,3.12-2.09,2.32.19-.63.66-1.38.52-1.84s-.88-.71-1.36-1l-.21.42,1.08,2.5-1.74-.88c-.14.77-.28,1.52-.45,2.48.43.91,2.24,1,1.72,3l0,0-1.29.94c.71,2.19-.22,2.93-1.78,3.06a3.53,3.53,0,0,0-.56.14c.34-.87.68-1.73,1.12-2.87-.52-.13-1-.41-1.48-.29-.24.07-.54.89-.48,1.29.11.68-.23,1.86.88,1.83-.22.65-.44,1.3-.65,1.95.46,2.45,1,2.76,2.4,1.29l1.9.21a5,5,0,0,1-.18-1.76c.11-.45.67-.73,1.09-1.13a4.17,4.17,0,0,1-1-.38,2,2,0,0,1-.16-2.74l-.09.66c1.8,1.09,2.44,2.14,2.06,3.15l5.36,4,2-2.71,1-1.7L207,167.18c2.5-.31,3.65-3.33,2.33-6,1.32.64,3.85-3.08,3.77-5.87.47.49.81.85,1.16,1.19-.06.34-.11.68-.17,1a4.42,4.42,0,0,0,4.17,3.08l-.13.52-3.89-1.09c-.41,1.12-.92,2.54-1.48,4.11l.69.51c-.71.76-1.41,1.49-2.08,2.26a6,6,0,0,0-.72,1.14c-.44.87-.85,1.76-1.27,2.65.84.57,1.66,1.18,2.51,1.7a18.56,18.56,0,0,1,2.51,1.59c-1.69-.45-3.63,0-4.83-2.5-.71,1.31-1.23,2.28-1.78,3.31l.83.6-1.92,1.35,2,1.28a2.26,2.26,0,0,0,.92,2.8c1.08.82.9,2.93-.2,4.12-.77-1.08-.77-1.08.61-2.95l-4.28-1.9-1.08,2.49,1.83,1.22,1.27-2.15v3.81l-.75-.6c0,2.13-.79,3.36-3.14,3l1.59,2.84-.49,3.22-1.63.49c-.12-.52-.23-1-.35-1.54l-1.51,1.17-1.55.56,2.08,2,1.16-2a1.58,1.58,0,0,0,.59,2.34,9.21,9.21,0,0,1,1.46,1.7c.12-.47.32-1.24.54-2.14.32.6.67,1.27,1.07,2l-.82.07c.19.58.37,1.11.61,1.87l-1-.53-.66,2.34c1.6,2,2,2.1,3.12.94.13,3.29.13,3.29,1.6,3.71a4.91,4.91,0,0,1,.11-3.88c.29-1-.11-1.17-.65-1.39l.56-.63,1.29.4c2.32,2.89,2.32,2.89,4-.71l1.1-1.94,1-1.3-.1-.11,1.12,1.56a27.42,27.42,0,0,0-3,4c-.24.46.51,1.82,1,2.64.21.4.78.5,1.18.74l-.12.45-2.38-.65,1.19,1.14-.39,1.65-1.25-2-1.92,1.48c.38,1.28,2.71,1.16,2,3.55l-2.73.41-.18-1.05c-.2.26-.34.37-.36.49-.17,1.48.54,2.47,2.45,2.76a3.1,3.1,0,0,1,2.44,2l-1.74-.94-.06.25,2.77,2.94-2.31,1.46-.61-1.28c0,.78.11,1.31,0,1.43a3,3,0,0,0-.65,4,2.35,2.35,0,0,1,0,.89l1.32,6,1.46,1.5c.56.64,1.12,1.3,1.69,1.93.94,1.07,1.83,1.22,2.69-.19,1.14-1.87,2.32-3.71,3.48-5.57l.77-.72c.7-.75,1.41-1.37,2-.58L222.81,234l2.75,1.88-2.21-.18c1.45.78,3.06,1.45,1.52,4.59-.08-.87-.11-1.28-.15-1.69s0-1.35-.16-1.41c-1.23-.49-2.49-.82-4-1.28,1,1.51,0,1.85-.55,2.44-.32.36-.69.66-1,1,.39.49.76,1,1.18,1.45.12.14.39,0,.55.15a12.1,12.1,0,0,1,1,.8l-.92,1,1.89,1.88-.19.45-3.13-1.42c-.25.86-.47,2.16-1.78.94l-.2.47c1.22,1.87,2.45,3.73,3.64,5.63.16.25.05.83.22,1,.32.31,1,.7,1.1.58.74-1.09,1-.06,1.29.43a11,11,0,0,1,.91,2.94l-6-6c2,2.32,2,2.69.5,4.67-.5.7-1.31,1.33-1.42,2.11-.15,1.13-.25,2.47,1,3.27,2.4,1.56,4.23,4,6,6.56L223.44,268,221,267l1.29,2.51-2.1,1.13-.23,1.64-1.57-1.66-.15.16c.4.63.8,1.26,1.13,1.8-.22.71-.4,1.3-.58,1.9-.25,0-.61-.06-.73.11-.69,1.06-1.27,2.34-3.07,1.48l1.08,1.13-1.9,2.57.38.45,4.21-5.79c.4-.45.76-.93,1.19-1.33.76-.7,1.56-1.35,2.34-2l-.05-.05,2.91,2.84c-1.78.6-2.06-1.81-3.5-2l-.93,1.3c.48,1.31.92,2.49,1.43,3.86h-1.31c.16,1.1.3,2.09.44,3.07l2,1.95.67,1.46.22-.39c.51.5,1.05.95,1.52,1.5.65.77.62.8,1.13.25-.84,2.79-2.92,2.7-4.8,3.29a5.71,5.71,0,0,1,.86,1.88c.07.77-.13,2.17-.47,2.3-1,.4-1,1.37-1.2,2.22-.13.41-.25.82-.38,1.23-.33-1.41-.67-2.82-1-4.23-.06-.27-.09-.55-.16-1l-1.3,1.07-.32-2.81-.42.14c.27,1,.29,2.4.85,3,1.9,2.07,1.93,3.51.19,4.72l2.6.8,1,1.61c.65,1.35.93,2.53-.21,3.87-.64.75-.85,2.06-1.33,3.05-.12.26-.55.3-1,.52,0,.92-.18,2-1.76,1.32l.81,1.31c-.58,1-1.19.93-1.86.25-.87-.94-1.19.27-1.58.75-1.34,1.63-2.6,3.36-3.89,5.05l-4.88,6.09c-.39.54-.77,1.09-1.16,1.62-.87,1.16-.81,1.93.25,2.8.76.62,1.54,1.22,2.31,1.82.79,1.69,2.24,2,3.53,2.58,1.09.46,1.55.92,1.4,2.54-.09,1,.44,2-.29,2.95-.54.69-.91,1.58-1.9.82a2,2,0,0,1-.8-2.65,1.14,1.14,0,0,0-.07-.81c-.11,2.33-1.42,2.81-2.7,2.85a26.92,26.92,0,0,1,3.3,1.3c.39.21.54,1,.87,1.5a6.92,6.92,0,0,0,1,1l-.05-.06.26,1.51-1.93,1.65-1.44-3.35-.25.25c.18.82.35,1.63.6,2.75l-1.58-.44.33,1.78c-.78-1.07-1.57-2.13-2.36-3.2l-.26-.38-2.44.65,0,.25a10.09,10.09,0,0,0,1.1,0c1.43-.17,2.25.73,2.34,2.53a1,1,0,0,0,.38.57,3,3,0,0,1,.44,4.3c-1.33,1.63-2.48,3.49-3.71,5.25l-.6.91c.31.44.82.85.89,1.35a4.42,4.42,0,0,1-1.44,3.74,5.45,5.45,0,0,1-1.51.7l.46.78-.76.24-1.83,3.88c0-2.15-1.25-1.32-2.08-1.4.46.38,1.36.78,1.36,1.19a6.55,6.55,0,0,1-.79,2.38c-.11.25-.38.39-.5.63-.86,1.65-1.18,1.68-2.36.22.29.77.56,1.56.9,2.29s.49,1.23-.38,1.36c-1.21.17-2.36.55-3.65-.21a2,2,0,0,0-2.65.69c-.26.37-1.15.06-1.85.06a9.65,9.65,0,0,1,.18,2.24,7.34,7.34,0,0,1-1,1.88l3.33-1.4c-.58,2.31-1,4.1-1.46,5.84h.78a3.53,3.53,0,0,1-3.51,2.34c-1.3.08-2.64-.83-4.19-1.38-.09-1.46-.27-3-.28-4.58,0-3.18,0-6.37.09-9.56.08-4.62.34-9.25.22-13.87-.09-3.89-.7-7.75-.91-11.65-.23-4.06-.27-8.14-.34-12.21a3.44,3.44,0,0,1,.34-1.24,7.87,7.87,0,0,1-.93-2.09q-.85-11.66-1.59-23.33a10.57,10.57,0,0,1,.19-2,6.92,6.92,0,0,1-.77-1.83q-.84-8.9-1.58-17.8c-.26-3.09-.36-6.2-.67-9.28-.35-3.49-1-6.94-1.28-10.44-.8-9.08-1.29-18.21-2.36-27.24-.35-3-.66-6-.85-9-.2-3.31-.68-6.58-1-9.88-.29-3.14-.52-6.28-.74-9.42-.08-1.15.57-2.17-.08-3.54-.34-.72.57-2.36.86-3.4l-1.32,1.17c-.12-1-.24-1.74-.29-2.48-.22-3-.35-6-.64-9-.33-3.5-.78-7-1.18-10.45-.26-2.29-.47-4.59-.79-6.87a5.37,5.37,0,0,1,1.29-4.86c2.91-2.95,4.51-7.13,6.53-10.92,2.39-4.52,4.83-9,7.23-13.52a19.55,19.55,0,0,0,.78-2.07,1.6,1.6,0,0,0,.78-.53c1.09-1.79,2.15-3.61,3.15-5.49a6.84,6.84,0,0,0,.21-1.71,12.46,12.46,0,0,1,.46-2c.31-.86.73-1.67,1.06-2.39-1.66-1.24-3-2-3.61-4a5.94,5.94,0,0,0-.95-1.5l1.56-.66c.29.63.76,1.17,1,1,1.52-.8.64-2.22.56-3.57-1.09.28-1.77,2.58-3.09.42V123l-1.07-.41c.34,3.45-2.77,6.27-1.31,10.42l-1.08,1.42.25-2.3-.44-.1a11.32,11.32,0,0,1-.33,1.6,2.57,2.57,0,0,1-.73,1.12c-.95.71-1.09,1.37-.49,2.74l1.12-.65c.08.26.27.69.21.75-.44.47-.94.86-1.73,1.54,0,0-.08.49-.19,1.16-.53-1.44-1-2.72-1.55-4.24l-1.25,2.23-1.13-1.95v4.18l1.17-2.29c-.08,1.86-.16,3.72-.24,5.66-.73-1.58-2.13-2.78-1.74-5a.87.87,0,0,0-.18-.66c-1.69-1.07-1.44-3.13-1.68-4.95l2.77.56.12-.57-.44-.8a42.24,42.24,0,0,0,1.44-4.08c.09-.36-.47-1-.72-1.48a4.74,4.74,0,0,0-.74,1.21,21.61,21.61,0,0,0-.44,2.32l-.26,0-.29-1c-1,1.05-2,2.06-1.4,3.94l-2.46.61,0,.44-1-.7q10-19.86,20.1-39.69l.16.1c-.55,1.25-1.11,2.5-1.74,3.9a7.33,7.33,0,0,0,1.17,1,8.19,8.19,0,0,0,1.77.5l.75-.66a9.34,9.34,0,0,0,.44,1.42,2,2,0,0,1-.32,2.69c-1,.79-1.13,1.6-.45,2.83a5.32,5.32,0,0,1,.16,1.85l.6-.27v2.31l-.9-.43,1.57,2.62-2.18-1.37.28,1.62c-1.86.75-2.09,1.37-1,2.65l2.62-1,1.21,1.94c1.43-.39,2.6-.43,3.54-1a17.72,17.72,0,0,0,2.8-2.81c1.11,1.74-1.17,1.74-.84,3.14l2.57,1.23-2.85,3.36-.29-.29c.29-.67.58-1.34,1.06-2.43-3.14,2.3-3.15,2.35-1,4.82l-1.13.12,1.88,1.48a5.82,5.82,0,0,1-1.11-.27c-1.54-.78-2.7-.51-3.4,1.6a4,4,0,0,1-1,1.26c-1.07,1.2-.91,2.28.41,3a4.25,4.25,0,0,1,2.54,3.41l-.8-.45.22,1.48-2.89-.29-.6,1.72.48.45.59-2c.89,2.19-.15,4.21,1.14,5.59-1.09,2.3-.23,4.33,2,4.77-1.76-1.3-1.75-1.3-1.92-4.15A2.47,2.47,0,0,0,191.82,138.74Zm23,98.3c1.25,1.34,2.09.66,2.88-1.23l-3-2.51c-.13.54-.13,1.24-.35,1.36-1.24.71-.36,1.26,0,1.87l-1.34-.8-1.08,1.56-2.5-1.56-.12-1-1.14,1-.3-2.23-.26,0,.18,3.27.29-.4,4.54,2.2-.94,1.89,2.78,1.08.14-.5-1.07-1.12.53-1.6,1.32.23Zm-44-63.55c.36-2.23.87-4.65,1.08-7.11a11.64,11.64,0,0,0-.8-3.4,19.88,19.88,0,0,0-3.72,9.9Zm28.15,3-.1.22,2.25,2.36a12.29,12.29,0,0,0,1.86-2.23,13.71,13.71,0,0,0,.79-2.77l-2.39-1.24c-1.08.69-2,1.86-1.05,4.19Zm8.25,32.78-2,.67-.19.53c.64.62,1.24,1.61,1.93,1.71.46.06,1.26-1,1.52-1.8.63-1.92-.58-2.81-2-4.08C206.75,207.59,207,208.46,207.18,209.24Zm-4.89-52.75c.78-1.6.63-2.41-.72-3.4-.25-.18-.33-.68-.55-.93-.44-.48-.92-1.19-1.4-1.23s-.84.8-1.08,1Zm.84,158a9.39,9.39,0,0,0,1.05,2,12.52,12.52,0,0,0,1.87,1.38v-2.59l.49-.32-.06-.43Zm-6.37-131.27c.67-.79.74-4.49.12-4.91-.2-.14-.8,0-.84.2a6.76,6.76,0,0,0-.22,2.35A11,11,0,0,0,196.76,183.22Zm-1.13-34.64c.06-2.59-1-3.7-2.65-3.15v1.87Zm16.81,163-1.34-1.33-1.28,2.07c-1.26-1.2-1.33-4.53-3.87-3,2.54-.57,2.55,2.54,3.45,3.63Zm-1.1,24.19c.38-1.33.74-2.62,1.15-4l-1.89-.27c-.1,1.44-.18,2.7-.27,4ZM218,304.63l-.23-1.31-1.15,1.09V302l-.27,0-.49,2.36-.91-.46-.13.24,1.9,2.49Zm-38.55-179c0-1.05-.08-2-.11-3h-.21l-.22,5.19-.72-1.2-.34.21.69,3c.71-1.88,1.19-3.19,1.86-5Zm31.24,104c.05,0,.28.34.53.37s.49-.22.66-.44a2.77,2.77,0,0,0,.66-1.16,5.49,5.49,0,0,0-.12-1.85c0-.1-.81-.16-.86,0C211.25,227.43,211,228.38,210.7,229.65Zm-22.65-106c-1.73,1-1.1-1.32-1.74-2-.46,2.69.13,4.11,1.62,3.94ZM207.51,227.9l.38.49,2.33-2.76-2.52-.18.71.72Zm-17.93-110c-1.06,1.54-1.6.48-2.14-.56-.19,2.24.58,3,2.14,2.68ZM193,182.37l-.41-2.15-1.85,1.37Zm-9.47-19.44-2.1.62,1.6,1.3Zm3.3-59.76.79.19c.1-.73.2-1.46.29-2.18a2.93,2.93,0,0,0-.74-.09C187,101.77,186.92,102.47,186.82,103.17Zm34.93,162-.07-.13c-.05.05-.11.09-.16.15s0,.08.06.13Z"/><path class="cls-1" d="M159,342.78c.94-2.67.93-2.74-.78-3.92l-.81,1.59-1.88-.81c2.4-.95.78-1.9.46-3.13l-.91,1.53c-.11-1.79-.45-3.43-1.76-4.38-.21-.15-.63.13-1.06.24v-3.23c-2.17.15-2.47-.46-2.52-5.31l-.42,1.84-4.83-4.14c.06-1.68.16-3.43.16-5.17a1.36,1.36,0,0,0-.67-1c-1-.44-2-.75-3-1.11l0,.05,1.17-.76-.12-.75.4-.42c.07.29.13.58.21.86.33,1.21,1.39,1.87,1.87,1.19s1.91-1.3,1-3.11-.54-2.57,1.6-3.31c0-1.06.07-2,0-3a4,4,0,0,0-.6-1.79c-.21-.27-.78-.12-1.19-.15h-.89c-.05-1.18,0-2.44-1.37-2.14V301l0,.06c1.77,1.34,3.55,2.66,5.3,4,1.21.95,2.22,2.5,3.92,1.72l-.17,1.53.29.15.81-1.22c-.2,2.33-.21,2.3,1.59,1.93.29-.06.62.23,1.14.44.38-1.25.75-2.51,1.13-3.76,0,2,0,4-1.51,5.57,1.3,1.14,2.61,2.27,3.9,3.41,4.21,3.71,8.6,7.1,12.37,11.54l-2.94-1.62-1,2c.65.11,1.29,0,1.54.3,1.27,1.67,1.86.64,2.41-.8-.25,1.43-.2,2.69.9,2.93,0,1.31-.42,2.72,0,3.53.5,1,0,1.35-.26,1.95a.76.76,0,0,0,0,.16l.11,0v0c-.07,1.87.14,3.83-1.44,5.44,2.61-.79,2.9-.35,3.42,4.54l1.28-.65c-.08,1.19-.13,2.09-.2,3.18,1.28,1.92,2.22-1.25,3.68-.6.07,1.68.2,3.47.2,5.26,0,.35-.56.66-.8,1.05a1.67,1.67,0,0,0-.24.92c0,.21.33.37.52.55l.47-1c.2,1.4.66,2.33-.8,3.31-1.29.86-2.12,2.79-3.21,4.34l2.51.7-1.55.3.44,1.13,2.69-1.54v3.05l-1.54-.19c2.3.6,1.71,2.78,1.65,4.67,0,1,0,1.95,0,2.92a3,3,0,0,1,0,.73c-1.18,3.56.13,7.06.2,10.59a2.36,2.36,0,0,1-.94,2.31c-2.51,1.78-3.28,1.92-5.69.59h1.15l.07-.27c-1.11-.67-2.6-1-3.23-2.12s-2.1-1-2.36-2.7c-.06-.39-1-.46-1.43-.89a6.83,6.83,0,0,1-.87-1.61l0,.05c.45.36.87.77,1.33,1.07s.87.6,1.14.45c1.22-.71,2.13,0,2.87,1s1.46.84,2.27.22a31.6,31.6,0,0,0-2.74-1.65,3.5,3.5,0,0,0-1.9-.42A2.09,2.09,0,0,1,167,378a2.23,2.23,0,0,1,.74-2.79c.37-.3.75-.57,1.09-.9a3.12,3.12,0,0,0-.26-4.57l.7-.57-.91-1.26.57-.39,0-.05v.06c.37-.91.71-1.83,1.11-2.71.48-1.08,1-2.12,1.42-3l-4.08-2.21c-.11-.22-.23-.43-.35-.65l-2.31,1.47c-.65-1-1.25-2-2.05-.15l.34-2.56c-.6,1.14-1,1.86-1.35,2.57l-.28-.09.91-5.87h1.84c-.38-1.22-.38-1.22-2-.64l1.26-1.7c-1.78-1.16-.87-3-.75-4.87-.44,3.55-2.37,5.25-4.85,6.61l1.67-3.63c.36-.8.76-1.55-.09-2.38-.2-.21,0-1.12.07-1.71H160l1.07,1.64c1-.59,2.55-3.53,2.08-4.37a8,8,0,0,0-2.47-2.35c-.14-.1-.74.85-1.13,1.29-.18.2-.38.35-.57.53Zm-12.5-23.44-.56.12c-.05.7-.34,1.67-.09,2s1.09.5,1.68.55a1.8,1.8,0,0,0,1.09-.41c.19-.13.25-.53.37-.8a1.93,1.93,0,0,0-.74-.11,14.55,14.55,0,0,0-1.56.45l.28-.66ZM149,307.66c-.38.7-.8,1.13-.81,1.58a9.69,9.69,0,0,0,.35,2.11l.63,0,.61-3.42Zm5.15,25.13c1.3,2.62,2.06,3.12,2.64,2.49Z"/><path class="cls-1" d="M124,218.05c.3-.09.85-.3.87-.23.52,1.58,1.39,1,2.32.78.32-.09,1.06.46,1.12.84.28,1.86,1.41-.31,1.81.67.05-.4.1-.8.14-1.2s.11-1,.16-1.56l.39.08.81,1.37c-.06.51-.35,1.32-.14,1.74s.92.61,1.42.87,1,.48,1.48.71v.5l1.87-1.34c-.29,1.64-.56,3.13-.86,4.8H138l.37,1.49-1.89,1.94.18.63,3.35-.39c-.1.81-.23,1.51-.27,2.22a9.69,9.69,0,0,0,.13,1.31c0,.58.06,1.16.08,1.74a13.59,13.59,0,0,1,1.8-.11c.13,0,.24.48.36.74,0,0,.05,0,.05,0,.3.31.59.62.89.92s.51.46,1.11,1l-1.27-.12-.22.34c2.91,3.42,5.32,7.52,8.54,9.64.58,1.15.94,1.84,1.27,2.54.4.86.77,1.73,1.15,2.6l0-.16.56,1.26-.3.45c-.9-.86-1.84-1.69-2.72-2.6s-1.8-2-2.63-2.89l-2.13,2.06c-.79-1.23,1.17-2.91-.39-4.45-1.11-1.09-1.65-3.06-3.66-2.44.75-2.31-.92-2.71-1.83-4.29v2.47l-.19,0-1.19-3.68c-1.69.11-1.67,2.87-3.63,2.33a19,19,0,0,0,1.12-2.36,5,5,0,0,0,.43-2.61c-.38-1.07-1.3-1.06-2.1-.33-.07.06-.27-.1,0,0a18.23,18.23,0,0,0-1-3.32c-.79-1.47-1.67-.08-2.38.2.17-.87.69-2.06.43-2.47-.49-.78-1.44-1.1-2.19-1.61l-.21.44-.68-3L127.15,227c.9-2.06,0-2.93-.93-3.94-1.33-1.47-2.56-3.1-3.84-4.66l.27-.49.84.27Zm6.65,3.2-.44.4,1.25,3.27,1.12-1.93Z"/><path class="cls-1" d="M128.57,253.37,128,255.3l-.3.43,4.08,3c.08.06.19.07.26.15,1.75,1.85,3.5,3.72,5.24,5.58a2.17,2.17,0,0,0,.47.4,5.15,5.15,0,0,1,2.58,2.23c.46.92,1.54,1.29,2.7-.26l-.8,2.48c.86.67,1.44,2.32,2.79,1,.5,2.61.95,3,3.68,3.38a9.75,9.75,0,0,0,3.13,4.82c1.28,1.31,3.09,1.37,4.48,2.85l-1,.29c.08.17.13.38.23.44.44.24.91.41,1.36.64.64.33,1.56.21,1.62,1.52,0,.05,0,.14.08.15,2.19.26,2.3,3.81,4.46,4.31l-.08,1a22.53,22.53,0,0,1,2.13,2.16,6.25,6.25,0,0,1,.6,1.71c-.46,0-1,.28-1.37,0-1-.7-2-1.59-3-2.41l-1-.79-1,2.36c.92-2.64-.2-3.86-1.89-4.95a9.25,9.25,0,0,1-1.65-2.18l-.93.89a20.51,20.51,0,0,0-2-3.48c-.71-.83-1.3-2.65-2.59-1.61l-1.15-4.1-.41.17.15,1.68c-1.48-2.54-3.78-3.48-6-6.1-.19-2.36-3.58-1.86-4.63-4.79l-.92,1.57c-.08-.07-.22-.17-.21-.2.87-2.77-1.42-3.05-2.28-4.44-.42-.69-1.52-.79-1.14-2.17,0-.08-.24-.31-.39-.45-1.37-1.32-2.72-2.69-4.13-4a15.13,15.13,0,0,0-1.94-1.17c-.94-.62-2.17-.77-2.26-2.69,0-.55-.83-1.14-1.36-1.55a21.94,21.94,0,0,1-3.82-3.49c-1.54-1.85-3.25-3.47-4.88-5.21a12.32,12.32,0,0,1-.79-1.07l.29-.39a15.53,15.53,0,0,1,2.72,2.53c.71,1,1.28,1.12,1.74.65a14.44,14.44,0,0,0,1.63,2.29c1.26,1.14,2.23,2.91,4,3,.13,0,.28.46.36.73C125.78,254.68,127,255,128.57,253.37Z"/><path class="cls-1" d="M153,226.11c0-.31-.16-.69-.07-.9.9-1.93-.23-3-1-4.29-.65-1.09-1.22-1.49-2.36-.62-.22-1.83-.35-3.69-2-3.83l-1,2.23-.39-.28c-.18-1.51-.28-3.06-.56-4.54-.17-.93-.78-1.19-1.25-.28-.72,1.4-1.32,2.89-2,4.46l1,1-.84,1.68c-.22-1.58-.66-2.8-.46-3.81a7.15,7.15,0,0,0,.25-3.42c-.11-.47.52-1.22.94-2.1-1.72,0-3-.88-3.16-3.55a4,4,0,0,0-1.32,3.43c.05,1.25-.19,1.54-1.43,1.44.4-2.54.8-5.08,1.26-8-1.29,1.25-2.27,2.43-3.8,1.46.71-1.15-1.27-3.31,1.48-3.79l-3.84-4.81c-.49,1.32-.94,2.51-1.42,3.79-.36-1.12-.64-1.85-.82-2.63a1.38,1.38,0,0,1,.2-1c1.12-1.33.91-2.65.07-4l0,.05a13.14,13.14,0,0,0,2.12,1.81c2,1,3.12,3.47,4.93,4.8a2.22,2.22,0,0,1,.85,1.42c.21,3.16,2.39,4.11,4,5.73a8.2,8.2,0,0,1,.91.86c1.19,1.61,2.35,3.26,3.53,4.89.09.14.24.35.34.33,2.06-.45,3,1.6,4.2,3a7.74,7.74,0,0,1,.75,2.39l1.13-.44c1.57,1.65,3.17,3.19,4.63,4.9a8.23,8.23,0,0,1,.86,2.38l1.27,1.59,1.21,1.78-.14.22c-.66-.42-1.29-1.11-2-1.19s-1.38.45-2,.68c.19-.73.71-1.83.5-2.14a11,11,0,0,0-2.49-2.43c-.18-.14-.72.37-1,.65a10.65,10.65,0,0,0-.91,1Z"/><path class="cls-1" d="M167.78,72.89l2.38-.3c-.28.63.35,2-1,2.33-.25,0-.54.71-.58,1.13A15.72,15.72,0,0,1,166,83c-.44.71-.28,2-.36,2.68a19.39,19.39,0,0,0-3.23,1.12c-.32.17-.37,1.14-.57,1.85h-2l.1-1c-1,.11-2.41,2.25-2.28,4.07a53.34,53.34,0,0,0,1,5.73l1-1.08c.06.06.21.12.2.17,0,.54.09,1.42-.12,1.56-1.61,1.09-1.35,2.51-.65,4.13a3.43,3.43,0,0,1,.21,1.4c-.09,2.3-.23,4.6-.55,7-.29-1.56-.66-3.11-.86-4.7-.52-4.15-1-8.32-1.44-12.48a30.27,30.27,0,0,1-.26-3.55A5.76,5.76,0,0,1,158,86c3.8-4.3,6.56-9.58,9-15.13a7.51,7.51,0,0,0,.35-1.62l.36,0Z"/><path class="cls-1" d="M143.69,180.78a3,3,0,0,0-1.79-3.46,3.79,3.79,0,0,1-1.22-1.43c-.47-.75-.76-1.7-1.28-2.38-1-1.36-2.18-2.59-3.28-3.86-.49-.56-.9-.81-1.45.06-.34.53-1,.75-1.72,1.26.13-2.21,2.15-3.43,1.42-5.92l5.88,6.83-1.1.19c.13.19.21.4.31.42,1.38.2,2.7.08,3.44,2.28.27.82,1.89,1,2.93,1.33.43.13.94-.14,1.48-.24l.62,2.22-.83-.28c.13,1.19.27,2,1.28,2.71a9.78,9.78,0,0,1,3.12,3.61,18.61,18.61,0,0,0,3.09,4c1.79,1.88,3.91,3.18,5.51,5.46,1.91,2.71,4.14,5.08,6.21,7.61a11.09,11.09,0,0,1,.8,1.48A6.21,6.21,0,0,1,166,202c-.73-.72-1.37-1.59-2.14-2.22-1.48-1.24-3.1-2.24-4.53-3.57a62.65,62.65,0,0,1-4.26-4.62c-2.3-2.62-4.54-5.3-6.86-7.87-.37-.41-1-.44-1.61-.67C146.48,180.88,145.53,180,143.69,180.78Z"/><path class="cls-1" d="M182.33,401.84c.54-.82,1.07-1.64,1.6-2.46,1.36,2,1.12,5.22-.71,7.4l-.63-1.71-1.12,1.8,1.59,1.14c-.58,1.65-.91,3.29.76,4.49a4,4,0,0,1-4.2-2.44,23,23,0,0,1-1.39-9.95c.1-2.22,0-4.46,0-6.69,0-1.68,0-3.36.18-5,0-.35.69-1,.8-.91a2,2,0,0,1,.93,1.22c.14,2.06-.06,4.17.21,6.19.32,2.33,1,4.58,1.51,6.86Z"/><path class="cls-1" d="M174.81,86.1c0,.4.07.8.12,1.2.13,1.07.25,2-.83,2.62s-1.25,1.52-.9,3.22c.3,1.41-.54,3.25-1,4.85a34.72,34.72,0,0,1-1.33,3.27c-.81-.13-1,.94-1,2,0,1.77,0,3.54-.2,5.34-.81-.72-.48-3.37-2.35-1.45v-2.47c-.78-.07-.78-.07-2.07,3.27l1.26-1.36c.14.88.28,1.75.36,2.29l-.95,2.3c-.09-.08-.44-.26-.56-.58-.9-2.5-2-2.73-3.55-.69-.41.54-.82,1.11-1.23,1.67l-.3-.26a8.1,8.1,0,0,1,.82-1.64c3.07-3.51,5-8.06,7.29-12.28,1.91-3.53,3.71-7.14,5.6-10.69.15-.29.54-.38.82-.57Z"/><path class="cls-1" d="M213.3,225.27a2.35,2.35,0,0,0,0-.89,3,3,0,0,1,.65-4c.13-.12,0-.65,0-1.43l.61,1.28,2.31-1.46-2.77-2.94.06-.25,1.74.94.61.71c1.09,2.08,1.58,4.76,3.74,5.78.23.1.32.6.54.83s.76.65,1.14,1l1.81,3.83c-1.39-1.45-.94,1-1.48,1.13a12.34,12.34,0,0,0-2.39-.29,8.06,8.06,0,0,0-2,.67c0,.58-.09,1.26-.13,2-1.6-.36-1.6-.36-1.69.73l-1.46-1.49.77,0a12.62,12.62,0,0,0-.14-2.77,11.74,11.74,0,0,0-1.21-2.4l1.62-1.64-.21-.42Zm4.42-.12.44-.29-.15-1.44.26-.08.49,1.49,2.69,1.46a13,13,0,0,0-2.27-3.56c-.74-.78-1.56-.31-1.89.72C217.15,223.87,217.56,224.57,217.72,225.15Z"/><path class="cls-1" d="M207.92,327.57c-.77-.6-1.55-1.2-2.31-1.82-1.06-.87-1.12-1.64-.25-2.8.39-.53.77-1.08,1.16-1.62,1.16-1.21,2.3-2.45,3.48-3.62a8.22,8.22,0,0,1,1.4-.95l.11.08,1.67,2.7-1.29-.71c-.19,1.32-.34,2.37-.49,3.43l-.87-.1c0,.34-.1.8,0,1,.47.66,1,1.22,1.54,1.82-.62-.28-1.24-.59-1.87-.83-.34-.13-.86-.35-1-.15a8.12,8.12,0,0,0-1.17,1.82,2,2,0,0,0,.52.64c1.1.77,2.2,1.51,3.72,2.55v-3.85c.75,1,1.56,1.93,2.23,3a5.29,5.29,0,0,1,.32,1.74c-.55.11-1.17.47-1.63.27C211.39,329.4,209.67,328.45,207.92,327.57Z"/><path class="cls-1" d="M156,71.51c-.19,1.79-.4,3.41-.51,5a10,10,0,0,0,.28,1.75c.13,1,.46,2-.73,2.85a24.5,24.5,0,0,1-.67-2.57c-.43-3-.82-6-1.15-9a2.34,2.34,0,0,1,.44-1.56c1.8-2,3.64-3.85,5.54-5.64a2.71,2.71,0,0,1,1.68-.42c.15,0,.32.46.48.71l-.75.26c.51,1.4-.42,5.24-1.52,6V66.32l-4.75,4.29.7,2.31Z"/><path class="cls-1" d="M147,151.3c-1.13,1.72-2.36-.23-3.09,0-.64-.93-1.08-1.53-1.48-2.17-.59-.91-1.19-1.81-1.71-2.78s-.8-2-1.55-1.37c-1.36-1.92-2.61-3.64-3.8-5.4-.85-1.25-1.67-2.53-2.43-3.86-.65-1.15.17-1.41.82-1.87,1.12,2,2.24,4,3.28,6,.46.9.83,1.69,1.9,1.57.44-.06.94.53,1.42.82a3.38,3.38,0,0,1,1.38,1.2Z"/><path class="cls-1" d="M205.08,173.75l-5.37-4c.38-1-.26-2.06-2.06-3.15.23,0,.5.11.66,0,.95-.73,1.87-1.51,2.8-2.27l-.27,1.77c.51-.07,1-.12,1.55-.22a3.27,3.27,0,0,0,.66-.31l1.58.51c0,.24,0,.64.1.68,1.56.79,1.83,2.64,2.33,4.29l-3,1.29Z"/><path class="cls-1" d="M162.84,143.29c.22,1.09.41,2.19.67,3.27.34,1.34.76,2.65,1.09,4a4.29,4.29,0,0,1,.27,1.95c-.41,1.38-.4,2.44.7,3.27a1,1,0,0,1,.21.83c-.91,2.58,1,4.83.52,7.34a10.62,10.62,0,0,1-.43,1.49c-.3.83-.64,1.64-1,2.6-.46-4.22-.94-8.27-1.33-12.34s-.69-8.2-1-12.3Z"/><path class="cls-1" d="M224.58,266.23c-1.73-2.55-3.56-5-6-6.56-1.23-.8-1.13-2.14-1-3.27.11-.78.92-1.41,1.42-2.11,1.31-1.17.92.94,1.23,1-.17.93-.32,1.7-.47,2.48.5.47,1,.95,1.51,1.44a5.31,5.31,0,0,1,3.25,7.08Z"/><path class="cls-1" d="M146.59,96.18c1.28,1,2.59,1.9,3.83,2.95a8.71,8.71,0,0,1,1.39,1.75c1.41,2,2.8,4,4.2,5.93l-.23.41c-1.62-1.24-3.28-2.4-4.82-3.77-.55-.48-.69-1.61-1.2-2.22-.76-.93-1.79-1.54-2.48-2.53a8.21,8.21,0,0,1-.65-2.56Z"/><path class="cls-1" d="M155.62,134.28a4,4,0,0,1-1.15-.63c-1.71-1.72-3.4-3.5-5.07-5.28-.13-.14-.12-.49-.16-.75s0-.67-.13-.85c-1.1-1.51-2-3.47-3.42-4.3-1.12-.68-1.07-2-1.81-2.72a38,38,0,0,1-2.73-3.47l.29-.35,14.45,17.9Z"/><path class="cls-1" d="M153.87,160.47l.41-1.45,9.48,11-.25.43c-1.2-1.12-2.4-2.26-3.62-3.35-.68-.62-1.41-1.17-2.11-1.75a30.48,30.48,0,0,1-2.61-2.21c-.29-.3-.2-1.1-.42-1.58a7.08,7.08,0,0,0-.92-1.2Z"/><path class="cls-1" d="M223.24,282.07l-2-1.95c.3-.47.57-1,.91-1.41.5-.66,1.05-1.27,1.68-2l.88,2.06.18-1.76c1.12.23.79,1.4.83,2.33l.21.4.18,2.21c-.18-.14-.37-.26-.56-.39C225.1,283.72,224.05,282.12,223.24,282.07Z"/><path class="cls-1" d="M198.3,159.79c1.85.79,1.47-1.66,2.09-2.33.1,1.28.19,2.63.29,4l-.14.19c-.49,1.09-1,2.19-1.48,3.36l-1.2-.58c.52-2-1.29-2.08-1.72-3,.17-1,.31-1.71.45-2.48l1.74.88Z"/><path class="cls-1" d="M203.72,157.78c-.14-.87-.34-1.73-.41-2.61-.12-1.47-.3-2.83-1.61-2.87-.32-1.53-.61-2.87-.9-4.25.57-.1,1.47-.61,2.12-.28s.86,1.48,1.2,2.13l1.16.31-.33.42c-2,1.79-1,4.22-.92,6.47l0-.06C204,157.29,203.84,157.54,203.72,157.78Z"/><path class="cls-1" d="M153.57,252.48l0,.16c.27-.94.72-.9,1.22-.33,2.32,2.64,4.61,5.3,6.94,7.93a2.67,2.67,0,0,0,1.06.72,1.46,1.46,0,0,1,1.14,1.6H164a5.8,5.8,0,0,1-1.61-.76c-1.35-1.23-2.64-2.58-3.95-3.88l-1.75-1.82Z"/><path class="cls-1" d="M159.83,227.5l-1.27-1.59c.26-.06.62-.28.75-.15,1.26,1.19,2.51,2.4,3.7,3.69,2.11,2.3,4.18,4.65,6.26,7a10.12,10.12,0,0,1,.74,1.2l-.31.38Z"/><path class="cls-1" d="M164,262.56H164l4.25,4.6c1.74,1.88,3.49,3.74,5.21,5.66a4,4,0,0,1,.39,1.26l-.33.3a11.25,11.25,0,0,1-1.35-1.15c-2.41-2.76-4.82-5.51-7.15-8.35A9.41,9.41,0,0,1,164,262.56Z"/><path class="cls-1" d="M212.25,325.15V329c-1.52-1-2.62-1.78-3.72-2.55a2,2,0,0,1-.52-.64,8.12,8.12,0,0,1,1.17-1.82c.19-.2.71,0,1,.15.63.24,1.25.55,1.87.83Z"/><path class="cls-1" d="M211.51,316.84l-.11-.08v-1.52c1.29-1.69,2.55-3.42,3.89-5.05.39-.48.71-1.69,1.58-.75.27.76.55,1.52.87,2.4-.5-.19-1-.57-1.16-.41a13.15,13.15,0,0,0-2.41,2.26c-.75.94-1.3,2.1-2,3.13C212.09,317,211.74,316.84,211.51,316.84Z"/><path class="cls-1" d="M141.82,307.92l.37,2,2.54.42L143,311.86l-2.24-.7a9.32,9.32,0,0,1-.72-1.48,13,13,0,0,1-.32-2l-1-.56,1.57-.95,1.62,1.86Z"/><path class="cls-1" d="M153.83,160.41l.31.92c-.28-.09-.62-.09-.81-.3-1.61-1.81-3.15-3.73-4.81-5.48-.43-.45-1.19-.41-1.8-.6l-.36.49.26-2.93c.95,1,1.73,1.78,2.49,2.6s1.52,2.16,2.93,2.19,1.44,1.89,1.83,3.16Z"/><path class="cls-1" d="M166.44,294.69c1.38-.82,2.07.34,2.8,1.11,1.83,1.94,3.61,4,5.4,5.95.57.63,1.13,1.27,1.69,1.91l-.37.56Z"/><path class="cls-1" d="M117.54,278.7c-.86-1.56-3.09-1.8-2.72-4.31l-2.47-.62-1.15-2.35c.24-.38.51-1,1.42.23a16.26,16.26,0,0,0,3.25,2.7C117.16,275.39,116.75,277.37,117.54,278.7Z"/><path class="cls-1" d="M211.4,322.26c.15-1.06.3-2.11.49-3.43l1.29.71,1.13.46a3.66,3.66,0,0,1,0,3.36c-.75.08-1.53-1.24-2.24.1Z"/><path class="cls-1" d="M169.14,321.77c1.94,1.82,3.89,3,5.11,5s3.24,1.88,4.12,3.86C176.66,330.57,169.77,324,169.14,321.77Z"/><path class="cls-1" d="M159.56,117.72c1.55,1,2.48,8.82,1.4,11C160.49,125,160,121.52,159.56,117.72Z"/><path class="cls-1" d="M141.82,307.92l.06.12a3,3,0,0,1,.08-3.39c1,1.08,1.6,2.91,3.48,2.83a8.67,8.67,0,0,1-2.11,2C143,309.6,142.33,308.47,141.82,307.92Z"/><path class="cls-1" d="M125.32,230.86l-2.48,1.34,1-3.38c.74-.06,1.9-.6,2.46-.1s.83,2.1,1.32,3.52Z"/><path class="cls-1" d="M224.58,266.23v.08c1.66-1.34,2.46-1.21,3.49.58.28.5.62,1.05-.32.88l.07.05a6.87,6.87,0,0,0-2.08-.94c-1.23-.1-1,1-.89,1.59-.67.67-1.17,1.2-1.69,1.71l-.94.88.05.05,1.17-3.15Z"/><path class="cls-1" d="M157.75,301.09c-.64.33-.23,2.14-1.55,1.56A8.92,8.92,0,0,0,156,304a6.19,6.19,0,0,1-.2,2.24l-.49-1.86-.79,2.2c-1.28-.58-.68-2.11-.72-3.05,0-.54,1.05-1.28,1.73-1.7A10.35,10.35,0,0,1,157.75,301.09Z"/><path class="cls-1" d="M148.1,206.65c1.24,1.11,3.3-1.5,3.86,1.82-1.47-.91-2,2.65-3.69,1Z"/><path class="cls-1" d="M208.19,343.7l-.33-1.78,1.58.44c-.25-1.12-.42-1.93-.6-2.75l.25-.25,1.44,3.35,0,0v.07c.06.78.11,1.56.17,2.34l-2.53-1.49Z"/><path class="cls-1" d="M222.69,294.92,224,293c.71,1,2.13,1.5,1.48,3.56l-2.27,0-.12-.48Z"/><path class="cls-1" d="M209.6,201l-.56.63-1.73-.29.62,1.77c-1.48-.67-1-2.21-1-3.49a12.92,12.92,0,0,1,1.67-.59,14.73,14.73,0,0,1,2.06-.14Z"/><path class="cls-1" d="M214.87,200.66c-1.66,3.6-1.66,3.6-4,.71,0-.31,0-.62,0-.93.26.09.52.18.77.29l1.47.7.21-.45-.45-1.21,1.91.86Z"/><path class="cls-1" d="M207.93,203.08l-.62-1.77,1.73.29c.54.22.94.4.65,1.39a4.91,4.91,0,0,0-.11,3.88c-1.47-.42-1.47-.42-1.6-3.71A.15.15,0,0,1,207.93,203.08Z"/><path class="cls-1" d="M214.05,157.55c.06-.34.11-.68.17-1s-.18-1-.16-1c1.88-.64,1.79-3.56,3.38-4.57-.5,2.63-2.39,4.62-2.13,7.83Z"/><path class="cls-1" d="M130.37,193.79c-1.36-1.4-1.35-1.39-2.25.52-.11.24-.42.34-.64.5a7.76,7.76,0,0,1-.4-2.12,21.23,21.23,0,0,1,.75-3.2c.82,1.43,1.66,2.89,2.51,4.35Z"/><path class="cls-1" d="M141,315.82c-.39,1.53-.42,2.74,1.13,3.43.79.35,1.36,1.44,2,2.29a5.76,5.76,0,0,1-4.21-6.31l1.17.64Z"/><path class="cls-1" d="M156.68,206.59a11.5,11.5,0,0,0,0-2.12,9.6,9.6,0,0,0-.79-1.85l1.45-1.24c1.37,1.14,1.41,2.31.21,3.69a5.61,5.61,0,0,0-.61,1.59Z"/><path class="cls-1" d="M227.94,227.6l-1.73-1.1c1.15-1.83,2.13-3.55,3.25-5.12.52-.73,1.12-.6,1.25.59A5.22,5.22,0,0,0,227.94,227.6Z"/><path class="cls-1" d="M214.87,200.66l-.08,0c-.43-1.83-.85-3.66-1.28-5.5l0,.05c.68.73,1.39,1.41,2,2.19a4.61,4.61,0,0,1,.49,1.34Z"/><path class="cls-1" d="M203.09,194.56l-1.16,2-2.08-2,1.55-.56,1.51-1.17c.12.51.23,1,.35,1.54A1.09,1.09,0,0,0,203.09,194.56Z"/><path class="cls-1" d="M226,279.71l-.21-.4,2.43-2.7c.38,1.7.49,2.82-.66,3.59C226.85,280.65,226.26,280.94,226,279.71Z"/><path class="cls-1" d="M124,218.05l-.46.09-3.28-4.72,0,.05c1.31,1.09,2.65,2.14,3.93,3.29C124.23,216.88,124,217.6,124,218.05Z"/><path class="cls-1" d="M146.63,96.14,144.23,94a7.43,7.43,0,0,1-1.45-1.35,28.3,28.3,0,0,1-1.44-2.86l.45-.41,4.8,6.82Z"/><path class="cls-1" d="M171.79,326.3c-.55,1.44-1.14,2.47-2.41.8-.25-.33-.89-.19-1.54-.3l1-2,2.94,1.62Z"/><path class="cls-1" d="M203.72,157.78c.12-.24.23-.49.34-.74l.77,1.67,1.16-.79.95,1.43-2.44,1.44-.82-3.15Z"/><path class="cls-1" d="M178.76,341.24l-.51-1.74.25-.18c.16.28.44.54.46.83.12,1.74.2,3.49.23,5.24,0,.25-.3.51-.47.76-.21-.27-.58-.53-.6-.83-.07-1.25-.05-2.51,0-3.77C178.11,341.45,178.47,341.37,178.76,341.24Z"/><path class="cls-1" d="M223.22,296.55h2.27a19.28,19.28,0,0,1-1.51,2.77c-.51.67-1.21.72-1.74-.19l-1-1.61-.38-1.25,2.24,2.38.36-.28Z"/><path class="cls-1" d="M221.92,224.76c-.38-.32-.79-.61-1.14-1s-.31-.73-.54-.83c-2.16-1-2.65-3.7-3.74-5.78.14.07.36.09.4.2.95,3.22,4,4.21,5,7.46Z"/><path class="cls-1" d="M197.86,164.41l1.2.58c.51-1.17,1-2.27,1.48-3.36l.51,2.74.06-.09c-.93.76-1.85,1.54-2.8,2.27-.16.13-.43,0-.66,0l.09-.66c.06-.51.11-1,.16-1.54Z"/><path class="cls-1" d="M209.8,193.86a2.76,2.76,0,0,1,3.67,1.32l0-.05c-.9.07-2-.62-2.4,1.05l-1.88-1.51.62-.85Z"/><path class="cls-1" d="M223.24,282.07c.81.05,1.86,1.65,2.33-.54.19.13.38.25.56.39.22,1,.44,2,.65,3-.51.54-.48.51-1.13-.26-.47-.55-1-1-1.52-1.5l-.22.39Z"/><path class="cls-1" d="M153,226.05l.13,1L151,228l.2-2.82,1.85.91Z"/><path class="cls-1" d="M213.71,185l-1.34-1.17-.3,1.9c-.17-.35-.31-.69-.47-1-.35-.65-1.52-1.29-.47-2.05.71-.51,1.81-.15,2.24,1.19C213.44,184.13,213.5,184.36,213.71,185Z"/><path class="cls-1" d="M108.92,165.34l3.12-.22-.78,2-.34-.16.33,1.15-.21.19Z"/><path class="cls-1" d="M221.33,259.23c-.5-.49-1-1-1.51-1.44.18-.29.35-.58.52-.87.51.7,1.87-.26,1.83,1.4C222.17,258.63,221.62,258.93,221.33,259.23Z"/><path class="cls-1" d="M156.69,256.1l1.75,1.82c0,.49,0,1-.07,1.68L154.82,255l.21-.33Z"/><path class="cls-1" d="M120.21,213.42l-.88,1.19a7.28,7.28,0,0,0-.31-1.37c-.16-.32-.47-.73-.72-.75-1.34-.08-1.5-.43-.74-2.12l2.61,3.11Z"/><path class="cls-1" d="M167.09,359c.12.22.24.43.35.65l.81,2.17-.33.28-.59-.84-1.41,1.3-.37-.35Z"/><path class="cls-1" d="M159,342.76l1.48,2.4c-3.24-1.07-2.19,2.24-3,3.92-.54-1.93.19-3.06.71-4.25.3-.68.6-1.36.89-2.05Z"/><path class="cls-1" d="M150.17,81.68,152.71,84c-.83.11-1.84-.7-2.08,1.21-.26-1.08-.53-2.16-.79-3.24Z"/><path class="cls-1" d="M204,157.1c-.12-2.25-1.06-4.68.92-6.47-.15,2-1.42,4,0,6.14Z"/><path class="cls-1" d="M129.16,160.87l.15,0c2-.59,2.23-.3,1.77,2.9-.7-1.08-1.29-2-1.89-2.91Z"/><path class="cls-1" d="M169,367.56v-.06l0,.05-2.47-2.38.09-.54,2.62.52C169.12,366,169.06,366.8,169,367.56Z"/><path class="cls-1" d="M190.62,98.5l-.21.84,1.52.6-1.48.32-.35,2.95C189.28,99.81,189.4,99,190.62,98.5Z"/><path class="cls-1" d="M207.06,171c-.5-1.65-.77-3.5-2.33-4.29-.09,0-.07-.44-.1-.68l3.41,3.31-1,1.7Z"/><path class="cls-1" d="M201.11,164.28l-.06.09c1.1-.81,1.66-.12,2,1.15a3.27,3.27,0,0,1-.66.31c-.52.1-1,.15-1.55.22Z"/><path class="cls-1" d="M131.66,234.42a12.82,12.82,0,0,0-1.09,2,21.2,21.2,0,0,0-.56,2.69c-.79-1.55-.79-1.55,1.3-5Z"/><path class="cls-1" d="M221.92,224.76l0,.08c.32.29.84.51.94.9.39,1.39,1,2,2.46,1.23l-.56,1.26-.77.73-.21-.37Z"/><path class="cls-1" d="M156.4,359.67l-2.75-3.9.26-.3,3,3.59Z"/><path class="cls-1" d="M145.66,52.53c1.67,1.56,1.59,2-.42,3.25C145.41,54.5,145.53,53.52,145.66,52.53Z"/><path class="cls-1" d="M143.07,301a2.81,2.81,0,0,1-.9-.3c-.64-.44-1.24-1-1.86-1.46l-.28.45-.74-2.3,0,.05,3.8,3.62Z"/><path class="cls-1" d="M127.82,237.91v-3.6c1.29,1.17,1.29,1.17.83,4.15l-.44-1.15Z"/><path class="cls-1" d="M142.12,235.7s0,0-.05,0c.69-2,.87-2.14,1.9-.92-.2.09-.36.15-.5.23s-.29.17-.83.51l2.28.32C143.8,236.82,143,236.1,142.12,235.7Z"/><path class="cls-1" d="M107.92,197,105,194.45c2.07-1.16,1.7,2.15,3.26,1.89Z"/><path class="cls-1" d="M155.72,87c-.21-1.75-.39-3.32-.58-4.92C156.76,83.67,156.76,83.7,155.72,87Z"/><path class="cls-1" d="M139.29,297.39l-2.09,1.22c-.06-1-.11-2-.2-3.4l2.25,2.23Z"/><path class="cls-1" d="M208.15,343.65l2.53,1.49-2,1Z"/><path class="cls-1" d="M174.83,86.13l1.35-5,.45.24c-.35,1.73-.4,3.63-1.83,4.77Z"/><path class="cls-1" d="M148.52,222.67l-.55,2.6c-.43-.42-.92-2.92-.43-3.3.29-.23.86.09,1.3.16Z"/><path class="cls-1" d="M145.46,236.51l1.4.6.33,1.21c-.39.13-1,.52-1.1.36a11.49,11.49,0,0,1-1-2Z"/><path class="cls-1" d="M209.85,193.82c-1.1-.65-1.06-1.17.15-1.47l-.88-2.11.47-.27,1.13,2.57c-.36.51-.63.91-.91,1.32Z"/><path class="cls-1" d="M214.31,323.36a3.66,3.66,0,0,0,0-3.36,4.77,4.77,0,0,1,1.17,1,4.18,4.18,0,0,1,.61,1.9c0,.33-.58.69-1.13.72l.72-1-.21-.34Z"/><path class="cls-1" d="M222.69,294.92c.14.38.27.77.41,1.15l-2.24.33-.07-.59c.13-.41.25-.82.38-1.23l.93-1.68Z"/><path class="cls-1" d="M152.08,64.61q-.57-3.49-1.16-7l.34-.09,1.24,7.07Z"/><path class="cls-1" d="M166.48,378.9l-1.74-3.44c1.84.41,1.83,1.91,1.71,3.49Z"/><path class="cls-1" d="M219.67,192.47l2.37-4.29.28.22-2.07,4.53Z"/><path class="cls-1" d="M216.85,197.31l.1.11c.55-1,1.1-2,1.64-3l.39.32-1,3.33Z"/><path class="cls-1" d="M125.66,187.79l-2.59-3,.2-.29Z"/><path class="cls-1" d="M129.19,160.82l-2.82-4.36c1.25.56,2,2.47,2.79,4.4Z"/><path class="cls-1" d="M135,81.18c1.08-.21,2.1-.27,1.87,2.08Z"/><path class="cls-1" d="M164.28,265.65l-3.64-4.14.3-.41,3.67,4.11Z"/><path class="cls-1" d="M156.38,72.4l2.32-1.22C158.12,73.57,158.12,73.57,156.38,72.4Z"/><path class="cls-1" d="M177.35,360.64l2-1.21v1.86l-2.06-.28Z"/><path class="cls-1" d="M104.64,231.48c2.3-.31,2.47-.14,1.87,1.75Z"/><path class="cls-1" d="M145.55,184.28c.24,1,.36,1.48.47,2l-1.81,1.09-.25-.13Z"/><path class="cls-1" d="M143.94,231.74c.49-1.94,1.77-1.54,3-1.24Z"/><path class="cls-1" d="M212.25,339.61l-.45-1.88.26-.45c.37.33.94.56,1.06,1,.22.8.08,1.63-.92,1.27Z"/><path class="cls-1" d="M191.82,138.74a2.47,2.47,0,0,1,.23.66c.17,2.85.16,2.85,1.92,4.15-2.26-.44-3.12-2.47-2-4.77Z"/><path class="cls-1" d="M212.4,180.22l1.15-.94.1,2.54-2.11-.67,1.48-.24Z"/><path class="cls-1" d="M154,294.1l-.6-3.55.59-.14.5,3.56Z"/><path class="cls-1" d="M172.49,334.9l3.51-2.37-2.81,3.28-.69-.92Z"/><path class="cls-1" d="M217.79,211.36l-.52-1.7.85-1,.35.11c-.11.92-.23,1.84-.34,2.75Z"/><path class="cls-1" d="M178.12,142.32l-.83-1.27c.17-.18.46-.54.5-.5a13,13,0,0,1,.91,1.12Z"/><path class="cls-1" d="M227.82,267.82l-.07-.05c0,.1,0,.19-.05.29Z"/><path class="cls-1" d="M210.51,342.8v0Z"/><path class="cls-1" d="M170.78,173.49l-3.44-.61a19.88,19.88,0,0,1,3.72-9.9,11.64,11.64,0,0,1,.8,3.4C171.65,168.84,171.14,171.26,170.78,173.49Z"/><path class="cls-1" d="M223.73,228.59l.21.37c-1.16,1.86-2.34,3.7-3.48,5.57-.86,1.41-1.75,1.26-2.69.19-.57-.63-1.13-1.29-1.69-1.93.1-1.09.1-1.09,1.7-.73,0-.7.09-1.38.13-2a8.06,8.06,0,0,1,2-.67,12.34,12.34,0,0,1,2.39.29C222.79,229.6,222.34,227.14,223.73,228.59Z"/><path class="cls-1" d="M214.81,237l.56,1.52-1.32-.23-.53,1.6,1.07,1.12-.14.5-2.78-1.08.94-1.89-4.54-2.2-.29.4-.18-3.27.26,0,.3,2.23,1.14-1,.12,1,2.5,1.56,1.08-1.56,1.33.79Z"/><path class="cls-1" d="M198.93,176.46l1.36.53c-.9-2.33,0-3.5,1.05-4.19l2.39,1.24a13.71,13.71,0,0,1-.79,2.77,12.29,12.29,0,0,1-1.86,2.23l-2.25-2.36Z"/><path class="cls-1" d="M169.77,133.32c-.58-1.88.36-2.89,1.4-3.94l.29,1,.26,0a21.61,21.61,0,0,1,.44-2.32,4.74,4.74,0,0,1,.74-1.21c.25.5.81,1.12.72,1.48a42.24,42.24,0,0,1-1.44,4.08l.44.8-.12.57-2.77-.56Z"/><path class="cls-1" d="M197.9,164.37c-.05.51-.1,1-.16,1.54a2,2,0,0,0,.16,2.74,4.17,4.17,0,0,0,1,.38c-.42.4-1,.68-1.09,1.13a5,5,0,0,0,.18,1.76l-1.9-.21c.76-.74.44-1.14-.26-1.43-.2-.08-.49-.06-.59-.23-.75-1.27-1.2-.85-1.55.37.21-.65.43-1.3.65-1.95l0,0a3.53,3.53,0,0,1,.56-.14c1.56-.13,2.49-.87,1.78-3.06Z"/><path class="cls-1" d="M207.18,209.24c-.21-.78-.43-1.65-.77-3,1.41,1.27,2.62,2.16,2,4.08-.26.77-1.06,1.86-1.52,1.8-.69-.1-1.29-1.09-1.93-1.71l.19-.53Z"/><path class="cls-1" d="M214.81,237l-.48-.52c-.38-.6-1.26-1.15,0-1.86.22-.12.22-.82.35-1.36l3,2.51C216.9,237.7,216.06,238.38,214.81,237Z"/><path class="cls-1" d="M202.29,156.49,198.54,152c.24-.25.67-1.07,1.08-1s1,.75,1.4,1.23c.22.25.3.75.55.93C202.92,154.08,203.07,154.89,202.29,156.49Z"/><path class="cls-1" d="M213.3,225.27l2.16-1.15.21.42-1.62,1.64a11.74,11.74,0,0,1,1.21,2.4,12.62,12.62,0,0,1,.14,2.77l-.77,0Q214,228.27,213.3,225.27Z"/><path class="cls-1" d="M223.44,268l-1.17,3.15c-.78.67-1.58,1.32-2.34,2-.43.4-.79.88-1.19,1.33l0,.05c.18-.6.36-1.19.58-1.9-.33-.54-.73-1.17-1.13-1.8l.15-.16,1.57,1.66.23-1.64,2.1-1.13L221,267Z"/><path class="cls-1" d="M203.13,314.49h3.35l.06.43-.49.32v2.59a12.52,12.52,0,0,1-1.87-1.38A9.39,9.39,0,0,1,203.13,314.49Z"/><path class="cls-1" d="M182.12,123v-2.81c1.32,2.16,2-.14,3.09-.42.08,1.35,1,2.77-.56,3.57-.25.13-.72-.41-1-1l-1.56.66Z"/><path class="cls-1" d="M196.76,183.22a11,11,0,0,1-.94-2.36,6.76,6.76,0,0,1,.22-2.35c0-.16.64-.34.84-.2C197.5,178.73,197.43,182.43,196.76,183.22Z"/><path class="cls-1" d="M193.66,170.42c.35-1.22.8-1.64,1.55-.37.1.17.39.15.59.23.7.29,1,.69.26,1.43C194.7,173.18,194.12,172.87,193.66,170.42Z"/><path class="cls-1" d="M195.63,148.58,193,147.3v-1.87C194.65,144.88,195.69,146,195.63,148.58Z"/><path class="cls-1" d="M220.86,296.26l.38,1.25-2.6-.8c1.74-1.21,1.71-2.65-.19-4.72-.56-.6-.58-2-.85-3l.42-.14.32,2.81,1.3-1.07c.07.44.1.72.16,1,.32,1.41.66,2.82,1,4.23l.07.59Z"/><path class="cls-1" d="M212.44,311.58l-3,1.41c-.9-1.09-.91-4.2-3.45-3.63,2.54-1.57,2.61,1.76,3.87,3l1.28-2.07Z"/><path class="cls-1" d="M211.34,335.77l-1-.29c.09-1.32.17-2.58.27-4l1.89.27C212.08,333.15,211.72,334.44,211.34,335.77Z"/><path class="cls-1" d="M218,304.63l-1.28,1.91-1.9-2.49.13-.24.91.46.49-2.36.27,0v2.46l1.15-1.09Z"/><path class="cls-1" d="M179.46,125.65l.95-.78c-.67,1.78-1.15,3.09-1.86,5l-.69-3,.34-.21.72,1.2.22-5.19h.21C179.38,123.61,179.42,124.6,179.46,125.65Z"/><path class="cls-1" d="M218.74,274.46l-4.21,5.79-.38-.45,1.9-2.57L215,276.1c1.8.86,2.38-.42,3.07-1.48.12-.17.48-.08.73-.11Z"/><path class="cls-1" d="M210.7,229.65c.34-1.27.55-2.22.87-3.1.05-.14.84-.08.86,0a5.49,5.49,0,0,1,.12,1.85,2.77,2.77,0,0,1-.66,1.16c-.17.22-.45.46-.66.44S210.75,229.69,210.7,229.65Z"/><path class="cls-1" d="M188.05,123.68l-.12,2c-1.49.17-2.08-1.25-1.62-3.94C187,122.36,186.32,124.7,188.05,123.68Z"/><path class="cls-1" d="M207.06,171l0,0-2,2.71-1-1.46Z"/><path class="cls-1" d="M194.31,168.47c-1.11,0-.77-1.15-.88-1.83-.06-.4.24-1.22.48-1.29.44-.12,1,.16,1.48.29-.44,1.14-.78,2-1.12,2.87Z"/><path class="cls-1" d="M207.51,227.9l.9-1.73-.71-.72,2.52.18-2.33,2.76Z"/><path class="cls-1" d="M189.58,117.89V120c-1.56.37-2.33-.44-2.14-2.68C188,118.37,188.52,119.43,189.58,117.89Z"/><path class="cls-1" d="M211.4,315.24v1.52a8.22,8.22,0,0,0-1.4.95c-1.18,1.17-2.32,2.41-3.48,3.62Z"/><path class="cls-1" d="M193,182.37l-2.26-.78,1.85-1.37Z"/><path class="cls-1" d="M198.33,159.82l-1.08-2.5.21-.42c.48.33,1.21.55,1.36,1s-.33,1.21-.52,1.84Z"/><path class="cls-1" d="M173.57,138.26l-1.17,2.29v-4.18l1.13,1.95Z"/><path class="cls-1" d="M183.52,162.93l-.5,1.92-1.6-1.3Z"/><path class="cls-1" d="M186.82,103.17c.1-.7.18-1.4.34-2.08a2.93,2.93,0,0,1,.74.09c-.09.72-.19,1.45-.29,2.18Z"/><path class="cls-1" d="M221.75,265.18l-.17.15c0-.05-.07-.12-.06-.13s.11-.1.16-.15Z"/><path class="cls-1" d="M146.49,319.34l.47,1.17-.28.66a14.55,14.55,0,0,1,1.56-.45,1.93,1.93,0,0,1,.74.11c-.12.27-.18.67-.37.8a1.8,1.8,0,0,1-1.09.41c-.59-.05-1.35-.1-1.68-.55s0-1.33.09-2Z"/><path class="cls-1" d="M149,307.66l.78.23-.61,3.42-.63,0a9.69,9.69,0,0,1-.35-2.11C148.16,308.79,148.58,308.36,149,307.66Z"/><path class="cls-1" d="M154.11,332.79l2.64,2.49C156.17,335.91,155.41,335.41,154.11,332.79Z"/><path class="cls-1" d="M130.6,221.25l1.93,1.74-1.12,1.93-1.25-3.27Z"/><path class="cls-1" d="M217.72,225.15c-.16-.58-.57-1.28-.43-1.7.33-1,1.15-1.5,1.89-.72a13,13,0,0,1,2.27,3.56l-2.69-1.46-.49-1.49-.26.08.15,1.44Z"/><path class="cls-1" d="M220.86,296.26v.14l2.24-.33.12.49.24,1.8-.36.28Z"/></svg>