<svg id="Layer_1" data-name="Layer 1" xmlns="http://www.w3.org/2000/svg" viewBox="0 0 333.82 432"><defs><style>.cls-1,.cls-3{fill:#8dc63f;}.cls-2{fill:#fff;}.cls-3{stroke:#8dc63f;stroke-miterlimit:10;stroke-width:2px;}</style></defs><title>hackberry</title><path class="cls-1" d="M159.65,393.68c-1.07,1.07-2.18,3.07-3.19,3-1.45-.07-2.89-1.54-4.2-2.6s-2.34-3.13-3.76-3.44c-9.54-2.09-17.76-6.39-24.12-14.16-2.36-2.88-5.12-5.5-7-8.68-1.59-2.68-1.78-6.21-3.27-9-2.78-5.22-5.91-10.27-9.14-15.22A95.8,95.8,0,0,1,89.21,295a5.56,5.56,0,0,1,.13-1.87c2.23-7.47.56-14.72-1.19-22-1.58-6.56-3.11-13.15-4.89-19.66-1.9-7-4.13-13.83-6.1-20.78-1.79-6.31-3.92-12.59-5-19-1.33-8.07-1.41-16.35-2.61-24.45-1.57-10.56-3.74-21-5.58-31.55-.27-1.52-.8-3.62-.09-4.57,4.34-5.79,4.08-12.73,4.64-19.33.91-10.85,5.92-18.08,15.68-22.23,1.63-.69,3.2-3,3.66-4.81a92.46,92.46,0,0,0,2.82-15.61c.8-10.82,5.27-18.55,16.14-20.26,4.83-.76,6.48-3.67,8.17-7.38,3.53-7.73,9.45-9.09,15.76-3.71,1.75,1.49,3.66,2.81,5.27,4.44a49.52,49.52,0,0,1,3.74,4.82l1.55-.38c0-2.93.12-5.87,0-8.79-.1-1.54-.9-3-1.06-4.56-.64-6.12.75-8.14,6.21-10.23a53.32,53.32,0,0,0,10-4.61c4-2.58,7.56-2.15,11.69-.41,3.54,1.49,7.69,1.49,11.18,3,4.07,1.83,7.76,4.59,11.52,7.08a7.84,7.84,0,0,1,2,2.59c2.76,4.51,4.83,8.44,11.55,9.35,7.59,1,12,8.62,15.49,15.6,4.52,9,11.74,14.86,20.23,19.44,4.46,2.4,6.73,6.63,8.18,11.39,1,3.36,2,6.74,2.92,10.14,1,3.85,1.82,7.75,2.88,11.58.56,2,.9,4.81,2.29,5.77,5.37,3.67,8,9.29,11.16,14.63,1.31,2.22,2.63,4.62,4.5,6.29,3.37,3,4.66,6.61,5.39,11a115.7,115.7,0,0,0,4.82,20c1.53,4.31-.13,7.73-1.86,10.48-2.16,3.42-2.55,6.59-1.22,9.78,1.51,3.65.33,6.65-2,8.45-12.22,9.43-13.49,22.6-12.62,36.68.24,3.8.42,7.61.49,11.41a32.2,32.2,0,0,1-6,19.39c-3,4.28-4.75,9.42-7,14.2-1.53,3.23-3.17,6.43-4.45,9.77-2.06,5.31-4.49,10.59-5.6,16.13a29.6,29.6,0,0,1-7.6,15.18c-9.66,10-19.37,19.95-29.72,29.14a198.9,198.9,0,0,1-24.37,18c-3.45,2.23-8,3.07-12.19,3.49-3.75.37-6.75.55-7,5.31,0,.18-.94.3-1.44.46.22-3.12.48-6.25.69-9.38.23-3.4.47-6.8.59-10.2.06-1.72-.34-3.47-.19-5.17.74-8.95,2.14-17.88,2.29-26.83.23-12.79-.48-25.59-.69-38.39-.3-17.58-.77-35.17-.69-52.75.11-25.59-1.44-51.17.46-76.78,1.28-17.16,1.61-34.41,1.82-51.63.11-9-1.3-17.91-1.41-26.88a101.27,101.27,0,0,0-5.65-31c3.12,17.75,5.46,35.52,4.07,54.61-7.68-4.06-10.66-11.31-15.91-16.4a11.88,11.88,0,0,0,1.66,4.78c3,4.82,5.59,10.16,9.46,14.14,2.87,2.94,4.43,5.62,4.37,9.59-.09,6.2,0,12.39-.19,18.58-.2,6.82-.6,13.63-1,20.44-.29,5.56-.55,11.13-1.07,16.67-.13,1.44-1.14,2.8-1.75,4.2-.52-2.84-.18-6.34-1.7-8.39-11.47-15.48-19-33.05-26.54-50.69q-3.27-7.73-6.51-15.45c-.85,1.28-1.15,2.43-.81,3.3,3.25,8.36,6.28,16.83,10,25q8.31,18.15,17.55,35.84c2,3.83,5.38,6.9,8.12,10.32-.21,8.85-.63,17.7-.59,26.55.09,17.51.39,35,.67,52.52.21,12.62.89,25.25.72,37.87-.29,22.31-1,44.61-1.73,66.92-.05,1.68-1.27,3.32-1.94,5-.31-3.13,0-6.48-1-9.35-4-11.22-8.71-22.16-12.43-33.45-3.89-11.78-7.1-23.81-10.27-35.82-3.22-12.24-5.53-24.75-9.17-36.84-3.32-11-7.63-21.69-12-32.3-2.14-5.16-5.45-9.8-8.23-14.68l-1.28.63c1.76,3.92,3.52,7.84,5.59,12.48l-9.06-.66-.38,1.25c2.27.72,4.54,2.08,6.81,2.05,4.72,0,6.15,3,7.36,6.74.44,1.33,1.15,2.57,1.6,3.89,1.61,4.73,3.17,9.48,5,15.06l-9.2-1-.26,1.08,10.75,3.24c1.44,6.35,2.94,12.95,4.56,20.07l-11.84.58.06,1.05,12.84,1.64c2.82,9.83,5.82,20.26,9,31.47-10.68-.36-16.32-7.77-23.22-13,5.91,7.32,11.78,14.61,21.67,16.47,1.1.21,2.67,1.08,3,2,1.88,5.84,3.46,11.78,5.48,18.86l-13.84-6.73-.71,1.44c3.37,1.84,6.58,4.27,10.17,5.37a9.73,9.73,0,0,1,7.19,7.39c.69,2.49,1.63,4.91,2.52,7.56-6.5,1.5-11.31-3.56-17.2-4.51a45.13,45.13,0,0,0,9.71,5.46c2.76,1.18,6.95,1.13,8.25,3.16,3.28,5.1,5.28,11.07,8.16,17.52L139,370.5c-.33.74-.67,1.47-1,2.2l15.77,7.3c-.28,3.28-.76,6.56-.77,9.85,0,1.63.47,4.33,1.39,4.68C155.86,395.07,157.87,394,159.65,393.68Zm80.1-122.15c7.74,2.5,14-2.6,21-4.11a3.53,3.53,0,0,0-2.6-.79c-5.07.88-10.15,1.77-15.17,2.88-1.19.27-2.19,1.42-3.27,2.16.81-11.24,12.17-9.67,17.43-15.59-6.47,2.67-14.89,1.53-18.25,10.28-1,2.47-1.78,5-3,7.37-5.82,11.58-12.12,22.93-17.51,34.72-6.44,14.1-13.88,27.39-25,38.1-9.75,9.36-19.84,18.36-29.63,27.68-1.19,1.13-1.45,3.29-2.13,5l1.51,1.1c3.8-3.43,7.72-6.73,11.36-10.33,5-4.91,9.63-9.94,17.61-8.37,2.68.53,5.61-.21,8.43-.37l0-.81-14.05-.86c3.09-3.94,5.22-7,7.69-9.74,6.9-7.68,13.29-15.66,18.44-24.82,2.27-4,4-9.73,10.71-9.77,2.88,0,5.75-2.66,8.62-4.11l-.28-.68-11.36,1.24c4.34-9.28,8.32-17.91,12.48-26.44.37-.74,1.95-1.1,3-1.19,4-.31,8.07-.43,12.11-.63V282.2L235,280.78C236.63,277.54,238.19,274.55,239.75,271.53Zm-144.36-124L93.11,139l-1.21.37.91,4.15-5.45.3-.22,1.24,8.36,2.39,6.06,15.64H91.39l0,1.21c3,.39,5.9.75,8.83,1.2,1,.15,2.57.21,2.85.81,3.16,6.82,6.11,13.74,9.59,21.71H96.84l-.07,1.52,17,1.14,2.52,5.12c3.9,7.84,8.24,15.48,11.62,23.56,5.23,12.51,9.48,25.46,14.78,37.94,3.08,7.25,7.41,13.93,11.18,20.86l2-.75c-.37-1.93-.4-4-1.19-5.76-1.21-2.67-3.25-4.94-4.38-7.63-4-9.42-7.33-19.11-11.58-28.38-7.42-16.18-15.37-32.11-23-48.18-5.15-10.79-10.09-21.69-15.3-32.45C99.07,152.34,97.06,150,95.39,147.56Zm142,48.25c-1,3.44,1.39,2.44,2.83,2.07,3.64-.95,7.25-2,10.8-3.25,2.54-.89,5-2.15,7.43-3.24l-.38-1.13L237.21,196q6-13.42,12-26.83a42.84,42.84,0,0,0-6.47,9.54c-6.24,12-12.34,24-18.62,36-4,7.6-8.37,15-12.31,22.63s-7.4,15.27-11.2,22.85c-5.73,11.43-11.59,22.79-17.34,34.21-6.19,12.28-12.37,24.56-18.41,36.92-.78,1.57-.74,3.57-1.08,5.37l2,.68q21.42-44.24,42.77-88.31c6.46,1.14,12.25,2.66,18.11,3.08,6.73.49,13.34-3.29,14.41-7.23-9.83,5-19.71,7.48-30.47.76l7.37-12c12,2,40.8-12.08,48.12-21.56-7.64,4.37-14.65,8.26-21.56,12.35-7.41,4.4-15.46,5.45-24.63,5.87C226,218.22,231.66,207,237.34,195.81Zm-15.66-77.62-1.35-.69c-.69,1.46-1.46,2.9-2,4.4-1.7,4.34-3.26,8.74-5,13.06-3.67,9.16-7.53,18.24-11.07,27.44-2.79,7.22-4.94,14.71-7.88,21.86Q187,202.11,179,219.67c-4.3,9.39-9.14,18.53-13.61,27.84-1.27,2.65-2.08,5.53-3.11,8.31l2.16.9c16.65-31.85,30-65.23,41.3-98.49C219,156,224.92,144.6,234.32,138.35l-.7-1.14-24.33,17-.85-.87Q215.07,135.79,221.68,118.19Zm-56.79,38.13,27.28-47-1.07-.71c-1.69,2.43-3.44,4.82-5.06,7.3-6.13,9.38-10.28,20-18,28.51C165.87,146.89,162.54,150.57,164.89,156.32Zm8.72-72.55c-3.13,6.26-9.4,10.64-10.2,18.11C170,97.66,171.42,90.43,173.61,83.77ZM169.17,46l-1.19-.5q-2.37,8.64-4.73,17.26l1.43.43Q166.93,54.59,169.17,46Z"/><path class="cls-2" d="M156.43,191.41c.61-1.4,1.62-2.76,1.75-4.2.52-5.54.78-11.11,1.07-16.67.36-6.81.76-13.62,1-20.44.19-6.19.1-12.38.19-18.58.06-4-1.5-6.65-4.37-9.59-3.87-4-6.43-9.32-9.46-14.14a11.88,11.88,0,0,1-1.66-4.78c5.25,5.09,8.23,12.34,15.91,16.4,1.39-19.09-.95-36.86-4.07-54.61a101.27,101.27,0,0,1,5.65,31.05c.11,9,1.52,17.93,1.41,26.88-.21,17.22-.54,34.47-1.82,51.63-1.9,25.61-.35,51.19-.46,76.78-.08,17.58.39,35.17.69,52.75.21,12.8.92,25.6.69,38.39-.15,9-1.55,17.88-2.29,26.83-.15,1.7.25,3.45.19,5.17-.12,3.4-.36,6.8-.59,10.2-.21,3.13-.47,6.26-.69,9.38l.11-.17c-1.77.35-3.78,1.38-5.23.84-.92-.35-1.4-3-1.39-4.68,0-3.29.49-6.57.77-9.85l-.12.14c.68-1.66,1.9-3.3,2-5,.7-22.31,1.44-44.61,1.73-66.92.17-12.62-.51-25.25-.72-37.87-.28-17.51-.58-35-.67-52.52,0-8.85.38-17.7.59-26.55Z"/><path class="cls-2" d="M237.35,195.8C231.66,207,226,218.22,219.89,230.22c9.17-.42,17.22-1.47,24.63-5.87,6.91-4.09,13.92-8,21.56-12.35-7.32,9.48-36.09,23.56-48.12,21.56l-7.37,12c10.76,6.72,20.64,4.22,30.47-.75-1.07,3.93-7.68,7.71-14.41,7.22-5.86-.42-11.65-1.94-18.11-3.08q-21.31,44-42.77,88.31l-2-.68c.34-1.8.3-3.8,1.08-5.37,6-12.36,12.22-24.64,18.41-36.92,5.75-11.42,11.61-22.78,17.34-34.21,3.8-7.58,7.3-15.32,11.2-22.85s8.31-15,12.31-22.63c6.28-11.95,12.38-24,18.62-36a42.84,42.84,0,0,1,6.47-9.54q-6,13.41-12,26.83Z"/><path class="cls-2" d="M153.79,380,138,372.7c.33-.73.67-1.46,1-2.2l14.26,7.77c-2.88-6.45-4.88-12.42-8.16-17.52-1.3-2-5.49-2-8.25-3.16a45.13,45.13,0,0,1-9.71-5.46c5.89.95,10.7,6,17.2,4.51-.89-2.65-1.83-5.07-2.52-7.56a9.73,9.73,0,0,0-7.19-7.39c-3.59-1.1-6.8-3.53-10.17-5.37l.71-1.44L139,341.61c-2-7.08-3.6-13-5.48-18.86-.3-.92-1.87-1.79-3-2-9.89-1.86-15.76-9.15-21.67-16.47,6.9,5.19,12.54,12.6,23.22,13-3.21-11.21-6.21-21.64-9-31.47l-12.84-1.64-.06-1.05L122,282.5c-1.62-7.12-3.12-13.72-4.56-20.07l-10.75-3.24.26-1.08,9.2,1c-1.86-5.58-3.42-10.33-5-15.06-.45-1.32-1.16-2.56-1.6-3.89-1.21-3.7-2.64-6.78-7.36-6.74-2.27,0-4.54-1.33-6.81-2.05l.38-1.25,9.06.66c-2.07-4.64-3.83-8.56-5.59-12.48l1.28-.63c2.78,4.88,6.09,9.52,8.23,14.68,4.39,10.61,8.7,21.31,12,32.3,3.64,12.09,6,24.6,9.17,36.84,3.17,12,6.38,24,10.27,35.82,3.72,11.29,8.47,22.23,12.43,33.45,1,2.87.73,6.22,1,9.35Z"/><path class="cls-2" d="M95.38,147.57c1.68,2.47,3.69,4.77,5,7.44,5.21,10.76,10.15,21.66,15.3,32.45,7.66,16.07,15.61,32,23,48.18,4.25,9.27,7.62,19,11.58,28.38,1.13,2.69,3.17,5,4.38,7.63.79,1.73.82,3.83,1.19,5.76l-2,.75c-3.77-6.93-8.1-13.61-11.18-20.86-5.3-12.48-9.55-25.43-14.78-37.94-3.38-8.08-7.72-15.72-11.62-23.56l-2.52-5.12-17-1.14.07-1.52h15.78c-3.48-8-6.43-14.89-9.59-21.71-.28-.6-1.85-.66-2.85-.81-2.93-.45-5.88-.81-8.83-1.2l0-1.21h10.17L95.5,147.45Z"/><path class="cls-2" d="M239.74,271.55c-1.55,3-3.11,6-4.79,9.23l12.92,1.42v1.23c-4,.2-8.08.32-12.11.63-1.06.09-2.64.45-3,1.19-4.16,8.53-8.14,17.16-12.48,26.44l11.36-1.24.28.68c-2.87,1.45-5.74,4.1-8.62,4.11-6.76,0-8.44,5.74-10.71,9.77-5.15,9.16-11.54,17.14-18.44,24.82-2.47,2.74-4.6,5.8-7.69,9.74l14.05.86,0,.81c-2.82.16-5.75.9-8.43.37-8-1.57-12.65,3.46-17.61,8.37-3.64,3.6-7.56,6.9-11.36,10.33l-1.51-1.1c.68-1.69.94-3.85,2.13-5,9.79-9.32,19.88-18.32,29.63-27.68,11.14-10.71,18.58-24,25-38.1,5.39-11.79,11.69-23.14,17.51-34.72,1.18-2.36,2-4.9,3-7.37,3.36-8.75,11.78-7.61,18.25-10.28-5.26,5.92-16.62,4.35-17.43,15.59Z"/><path class="cls-2" d="M221.68,118.19q-6.62,17.59-13.24,35.18l.85.87,24.33-17,.7,1.14c-9.4,6.25-15.36,17.62-28.59,19.88-11.31,33.26-24.65,66.64-41.3,98.49l-2.16-.9c1-2.78,1.84-5.66,3.11-8.31,4.47-9.31,9.31-18.45,13.61-27.84q8-17.55,15.36-35.41c2.94-7.15,5.09-14.64,7.88-21.86,3.54-9.2,7.4-18.28,11.07-27.44,1.73-4.32,3.29-8.72,5-13.06.58-1.5,1.35-2.94,2-4.4Z"/><path class="cls-2" d="M156.55,191.3c-2.74-3.42-6.11-6.49-8.12-10.32q-9.23-17.67-17.55-35.84c-3.73-8.13-6.76-16.6-10-25-.34-.87,0-2,.81-3.3q3.25,7.73,6.51,15.45c7.49,17.64,15.07,35.21,26.54,50.69,1.52,2,1.18,5.55,1.7,8.39Z"/><path class="cls-2" d="M164.89,156.32c-2.35-5.75,1-9.43,3.18-11.86,7.69-8.48,11.84-19.13,18-28.51,1.62-2.48,3.37-4.87,5.06-7.3l1.07.71Z"/><path class="cls-2" d="M173.61,83.77c-2.19,6.66-3.64,13.89-10.2,18.11C164.21,94.41,170.48,90,173.61,83.77Z"/><path class="cls-3" d="M237.21,196,258,190.26l.38,1.13c-2.47,1.09-4.89,2.35-7.43,3.24-3.55,1.25-7.16,2.3-10.8,3.25-1.44.37-3.8,1.37-2.83-2.07Z"/><path class="cls-3" d="M239.68,271.67c1.08-.74,2.08-1.89,3.27-2.16,5-1.11,10.1-2,15.17-2.88a3.53,3.53,0,0,1,2.6.79c-7,1.51-13.23,6.61-21,4.12Z"/><path class="cls-3" d="M95.5,147.45l-8.36-2.39.22-1.24,5.45-.3-.91-4.15,1.21-.37,2.28,8.56Z"/><path class="cls-2" d="M169.17,46q-2.25,8.59-4.49,17.19l-1.43-.43q2.37-8.62,4.73-17.26Z"/></svg>