<svg id="Layer_1" data-name="Layer 1" xmlns="http://www.w3.org/2000/svg" viewBox="0 0 239.5 426.59"><defs><style>.cls-1{fill:#90c33e;}</style></defs><title>heaven68</title><path class="cls-1" d="M495.84,208.27a.48.48,0,0,1-.22-.57Z" transform="translate(-431.28 -52)"/><path class="cls-1" d="M544.7,307.13c7.19.69,13.4,7.09,13.64,14.08.06,1.9,0,3.8.07,5.7.05,1.17.06,2.52,1.82,2.45s1.35-1.41,1.33-2.38c-.13-4.51,0-9.06-1-13.49a37.88,37.88,0,0,1-.78-8.14c-.08-5-1.85-9.62-2.29-14.51-.57.09-.94.07-1,.16-1.92,6.3-5.72,10.68-12.56,11.32-4.8.45-8.9,3.37-13.61,3.64-11.31.66-22.6,1.68-34,.77-5.26-.42-10.21-1.83-15.25-3.07,3-1.18,6.58.29,9.26-2.16l0,0c2.72,3.09,3.65,3.23,6.43.6.87-.83,1.7-1.4,2,.08.8,4.2,3.29,2.29,4.91,1.2,2.52-1.71,4.28-4.32,6-6.84.82-1.21,1.45-2.55,3.44-2.66a28.26,28.26,0,0,0-1.49,3.54c-.31,1.12-3.14,1.63-1.36,2.83,1.09.73,2.46-1.26,2.91-2.83.1-.33.15-.67.26-1.22,1.49,1.06,3.08,2.73,4.58.68a46,46,0,0,1,5.88-7,1.63,1.63,0,0,0,.34-2.26c-.51-.6-1.65-.69-2-.32-1,1.24-3.22,1.63-3.19,3.67.07,4.09-2.93,1.65-4.28,1.78-2.23.2-1.58-1.35-.73-2.57s0-1.77-.72-2.38-2.08-1-2.54-.16c-1.33,2.44-4.36,1.42-5.82,3.45.12-1.72,1.3-3,1-4.6.26-.17.95.34.77-.49l-.75.51c-5.42,1.56-11.48,1.54-15.38,6.82-.76,1-2.17,2.79-4.37,1.75s-4.42-1.81-4.65,2c-.05.79-.86,1.87-1.64,1s-2.4-.36-2.06-1.89c.12-.57,2.33-.8.27-1.68-.94-.4-1.53.17-2.29,1-2,2.16-2.29,4,.16,5.86-5.17-1.08-9.67-4.48-16-4.36,4.21-4.05,5.78-9.61,11-12.09a3.61,3.61,0,0,0,1.24-1.16,51.19,51.19,0,0,1,22.24-17.54c10.13-4.17,20.66-6.75,31.42-6.12,10.28.6,20.4,3,26.57,13.09a16.15,16.15,0,0,1,2,12.49c-1.8-.63-1.94-2.57-3-4.5-.34,1.17-.35,1.82-.68,2.19-2.46,2.77-.19,3.12,1.8,3.59a10,10,0,0,0,1.74.1c1.58,1.45,2.56,1.25,2.45-1s-.45-4.76-.37-7.2c2.18,2.3,1.72,5.29,2.07,8.05.49,3.88,1.36,4.44,4.94,3,2.62.23,4.74-1.86,7.37-1.58l.28.4a1.83,1.83,0,0,0,.31,3c2.15,1.48,2.9,4.9,6.43,4.24-.29,1.28-2.33,1.14-1.38,2.74a2.22,2.22,0,0,0,2.36,1.18c1.13-.11,2.63.57,3.29-.64.8-1.46,1.3-.45,1.76,0,1.24,1.26,2.41,2.59,3.57,3.93.58.66,1.06,1.53.09,2.12a1.35,1.35,0,0,1-2.22-.83c-.08-.24.1-1.68-.69-.57s-2.76,1-3.08,2.68a42,42,0,0,1-12.43-2.7c-4.88-2-7.3-6-8-11.33-1.29,2.34-1.29,2.61-.87,5.64a166.37,166.37,0,0,1,2,24c0,3.52,1.61,7,1.73,10.7.06,2.05,1.66.87,2.68.54,3.66.36,7.28-1.67,11.16-.28-3,2.21-3.1,2.3-2.28,3.57,2.35,3.63,4.11,7.62,6.85,11.07.74.93,4.17,2.4,1.49,4.89-7.13-.52-13.9-1.87-18.62-8.34.89,10.43.17,20.65,1.47,30.77.14,1,.24,2,1.54,1.87,1.88-.14.76-1.34.61-2.07-2.3-11.18,4.77-18.22,14.4-19.39,1.58-.2,3.26-.38,4.14-2.07,2.8-.06,5.61-.54,8.38.26,1.57,1.46,3.53.83,5.34,1a52.82,52.82,0,0,1,17.16,4.34l-7.28,5.1a14.77,14.77,0,0,1-1.84-4.89c-2,2.23-4.24,3.66-5.59,6.15-.5.92-2.13,4.23-4.26.8-.49-.78-.88.17-1.34.42-2.85,1.55-3.34,5.55-6.83,6.48-.56.15-.91,1.09.07,1.63,2.47,1.36,8.89-.69,10.55-2.88s3.22-4.59,4.79-6.91a3.3,3.3,0,0,1,4.47-.82c-2.43,2.56-4.9,5.08-7.26,7.69-.71.78-2.54,1.65-1.43,2.69s2.93.81,4.25-.27c.62-.51.93-1.38,1.52-2,1.38-1.35,2-3.59,4.3-3.9l.09.08c-.12,2.92-3.38,4-4.24,7.1,4.52-1.55,8.52.92,13.12-.21-1.28,2.43-3.18,3.43-5,2.89-1.62-.48-1.59-.15-2,1.12-.34,1-.93,2.42-2.25,2.49s-2.08-1-2.44-2.23c-.5-1.7-1.62-2.38-3.32-2.74-1.54-.32-3.44.21-4.42-.29-4.61-2.35-4.16.33-3.73,3.29h0c-2.52-.85-4.59-2.88-7.43-2.82-.79,0-1.76-.31-2.28.59s.21,1.52.71,2.18a69.37,69.37,0,0,0,7.36,8c.85.83,1.43,3.09,2.5,1.15.72-1.32,5.45-1.68,1.82-4.71a.74.74,0,0,1,.06-1.21c3.28,2.11,3.63,3.07,2.12,6-.89,1.71.61,2,1.46,2a21.48,21.48,0,0,0,4.88-.77c.62-.14,1.63-.47,1.34-1.34-.35-1.06-1-2.07.66-2.35a2,2,0,0,1,2.52,1.87c-.52.08-1.13.07-1.08.85a.34.34,0,0,0,.22.23c.79.05.77-.57.86-1.09,1.22-.15,2.89-1.82,3.28,1,0,.2,1,.26,1.55.39-2.85,3.61-7.08,3.73-11.09,4.39a104.57,104.57,0,0,1-30.08-.69c-3.15-2.75-7.13-4.35-9.89-8l0,13.89c1.8-.76,2.24-2.81,4.09-3,.26,2.42.82,4,4,3.68,1.76-.15,3.67-.21,5.47-.38,5.06-.47,6.92,1,6.92,5.86-3.5-1-3,2.59-4.85,3.9,3.81.3,4.15,0,4.84-3.92a3.39,3.39,0,0,0,1.9-2.43c1.26-3.78,4.52-2.64,6.62-2,3.11.87.23,3.31.4,5,0,.18-.26.39-.4.58-.42.59-.84,1.25-.32,1.91s1.25.21,1.94.12c2.1-.25,2.55-2.15,3.05-3.5,1.06-2.81,2.46-5.08,5.25-6.43,1.18-.58,2.87-.73,3-2.59,3.5.93,7.2,1.43,9.81,4.35-2.67.85-1.76,4.31-4.56,5.54,5.49-.58,6-1.06,6.12-4.75,1.95-.08,3.19,1.82,5.27,1.74,1.48-.06,1.08,1.11.46,2-8.26,12-19,20.41-33.7,23.11a27.09,27.09,0,0,1-12-.6c-4.1-1.08-9,.14-12.42-4.05-.12,1.83-.36,3.67-.34,5.5.11,14.83,1.89,29.57,2.87,44.35a25.29,25.29,0,0,0,1.38,5.05H568.5c.29-9.18-1.15-18.26-1.67-27.4-.92-16.28-1.11-32.55-1.11-48.85,0-8.08-.16-16.17-.93-24.23-.11-1.08.19-2.42-1.24-3-.93.39-.74,1.22-.71,1.86.34,6.09-3.67,9.55-8.21,11.89-2.86,1.48-6.65,1.51-10,1.53-3.78,0-7.57.44-11.39-.16a32.19,32.19,0,0,1-19.64-10.79,56.4,56.4,0,0,0-12.11-9.68c-1-.62-2.15-1.11-2-2.85l3.85.39c-.62,1.59.82,1.37,1.51,1.58,4,1.24,8.2-.61,12.18.88a8.21,8.21,0,0,0,.61-1.13c2.69.2,5.06,2,7.94,1.4a4.06,4.06,0,0,0,3.17-2.56c.42-1.25-.62-2.15-1.73-2.76-2-1.13-2.58-2.79-1.89-5.11a18.27,18.27,0,0,1,8.12,7.78c1.53,2.69,3.34,2.71,5.4.37a1.62,1.62,0,0,1,.84-.25c1.21,3.28,4.57,1.77,6.74,3-2.39-.12-4.46,1.44-6.87.92-4-.85-7.93.15-11.88,0-2.64-.12-2.3,2.76-4,3.61-.68.35,0,.73.35,1,1.64,1,1.7-1.28,2.83-1.34.19,0,.4.17.73.31-.84,1.68-1.86,4.3,1.11,3.95,3.66-.43,2.35,1.73,2.71,3.31.4,1.77-1.55,2.42-2,4.48,2.57-1.58,4.56-1.63,6.55.15,1,.86,2-.19,2.72-1,1.63-1.82,3.2-3.68,4.79-5.53,1.16.54.5,1.82,1.2,2.49s1.9,1.09,2,.19c.56-3.41,3.77-4.76,5.3-7.42,1.31-2.26,0-3-1.41-3.82-.62-.36-2.26.9-1.93-.89.28-1.48,1.63-.75,2.66-.57,5,.85,6.84-.95,5.63-5.43-.71-2.67-3.27-2.84-5.44-4.05a5,5,0,0,0,1.7,4.38c.38.35,1.65-1.3,1.61.55a1.51,1.51,0,0,1-.64,1.15c-.75.34-2.13.5-2.27-.14-.55-2.55-3.46-2.2-4.61-3.85.69-1.1,2.52.62,2.56-1.21.06-2.59,2.26-3.74,3.58-5.41a3.66,3.66,0,0,0,.76-3.53c4.52,1,7.73,3.12,8.68,8.14.64,3.32-.54,6.32-.68,9.48-.05,1.1-.34,2.37,1.22,2.4s1.05-1.29,1.07-2.16a171.82,171.82,0,0,0-1.22-25.27c-.52-3.95.86-8.23-1.73-12A15.87,15.87,0,0,1,552.94,345c-2.4,1.32-5,2.64-6.7,4.94-6.44,1.48-12.74,3.52-19.41,4-3.83.29-7.75.45-11.43,1.85-8.43.39-15.84-2.59-22.88-6.87a4.39,4.39,0,0,0-1.28-.48c-5.16-1.18-5.07-1.11-2-5.2a24.41,24.41,0,0,0,3.25-5.87,35.38,35.38,0,0,1,11.14-15.24c4.45-3.59,9.28-6.73,14-10a10.89,10.89,0,0,1,2.64-.94c0,1,.66,1.3,1.4,1.8,2.88,1.94,6.58,1.48,9.43,3.39.12.72.33,1.4,1.25,1.24.22,0,.58-.52.52-.65-.34-.81-1.13-.52-1.77-.59.47-1.42.31-3.71,1.87-3.92,3.07-.41,5.46-2.9,8.71-2.53C543.75,310.24,544.88,309.3,544.7,307.13Zm37.84-3.6.17-.29-.16.3-.16.29Zm-60.63,27.19c-.73-.77-1.43-1.57-2.2-2.29a1.16,1.16,0,0,0-1.61-.12c-.71.62-.33,1.29.16,1.85,1,1.14,2.11,2,3.59.63.25.16.49.33.75.47a1.65,1.65,0,0,0,.18-.23Zm-14.42-47.79c2.17,2.34,5.51,2,6.44-.74,1.67,2.59,4,2.38,6.56,1.69,1.21-.33,2.3-.89,3.75-.63,2.2.39,5.78,1.46,6.37-.65.7-2.46-2.61-3.6-5-4.49-.61-.22-1.08-.88-1.85-.89-1.47,0-3.19-.28-2,2.17.33.68,1.09,1.58-.24,2-.83.26-1.72,1-2.63.09a16.46,16.46,0,0,1-1.29-1.21,2.82,2.82,0,0,0-3.26-.79c-1.54.49,0,1.85-.46,2.73l-6.42.7-.32-.29Zm-30.7,3.6c2.81,4.3-2,2.15-3,3.25,2.21,1,10,.19,11.34-1.2.26-.27.15-.89.22-1.35,3.65,2.54,6.9-.16,10.34-.75-3.18-.32-6.15-1.68-9.39-1.39-1,.08-1.56.43-1.66,1.43a10.57,10.57,0,0,1-7.86,0c-.08-.52-.07-1.13-.86-1.08a.31.31,0,0,0-.22.22C475.66,286.46,476.27,286.44,476.79,286.53Zm102.28,77c.06,1.15-.37,2.74,1,3.14,1.59.47,1.5-1.45,2.19-2.27,1.4-1.7,1.17-4.35,3.28-5.69a.83.83,0,0,0,0-1.47c-.71-.5-1.06-.36-1.56.5-.73,1.25-1.93,3.27-2.8,3.2C578.65,360.76,579.12,362.19,579.07,363.54Zm-71.25-25c.79-.22,3.29.52,2.79-1.35s-3.21-2-5.19-2.1c-.84-.06-2-.27-1.75,1.36C504.06,338.71,505.62,338.82,507.82,338.57Zm24-56.86c.93,2.48,2.49,2.67,4.2,2.52.74-.06,1.92.35,1.88-.88s-.74-2.14-2-1.83A11.16,11.16,0,0,1,531.82,281.71Zm70.4,126.39c1.92.87,3.38,0,4.9-.57C605.46,406.14,603.8,404.6,602.22,408.1ZM543.45,284.84c-1.52-1.27-2.11-3.39-4.48-3.5C539.34,283.81,540.31,285.36,543.45,284.84Zm-45.85.52c2.83.66,5.55.21,9.11-1.27C502.89,283.55,500.41,285.47,497.6,285.36Zm29.27,78.07c.18-.12.47-.19.51-.33a.61.61,0,0,0-.22-.57.44.44,0,0,0-.67.42C526.49,363.11,526.73,363.26,526.87,363.43Zm-1.09-77.25-.15.49c.09,0,.25,0,.26-.08A1.81,1.81,0,0,0,525.78,286.18Z" transform="translate(-431.28 -52)"/><path class="cls-1" d="M530.33,114.92c5.37-5.65,10.14-11.9,16.7-16.34,4.85-3.28,10.19-5.47,15.55-7.7a16.5,16.5,0,0,0,7.79-6.54c.41-.63.92-1.55,1.9-1.21a1.48,1.48,0,0,1,.8,1.8c-1.41,8.48-.64,17-.35,25.48a2.61,2.61,0,0,1-.38,1c-2.2-.72-2.87,1.06-3.74,2.38-3,4.6-8.29,4.06-12.65,5.34-2.44.72-3.62,1.67-4.11,4,6.78.77,12.41-2.42,18.35-4.52-2.83,2.69-5.3,5.94-9,6.92-2.79.74-4.56,4.72-8.19,2.63,0,0-.41.28-.43.46-.28,2.27-2.62,2.16-3.89,3.41a15,15,0,0,0,4.92-.13,62.45,62.45,0,0,0,11.14-3.44c1-.39,1.89-.46,2.47.5.89,1.46-.88.88-1.2,1.44-1,1.69-2.58,3.09-2.29,5.32-.86.17-2.16-.39-2.2,1.26,1.18.32,1.77-.33,2.24-1.21,1.83.08,2.42-2.23,4.22-2.2-1,4.38-4.1,7.58-6.15,11.37A61.73,61.73,0,0,1,549,160.79c-4.8,4.36-10.46,8.36-17.76,7.61-2.9-.3-2.08,1.7-1.71,3,1,3.64,2.31,7.22,3.52,10.82.32,1,.91,1.88.1,3.4-1.58-4.7-3-9-4.47-13.28-1.4-4-1.91-8.5-6-11.39-.88,3.62-3.55,4.91-6.87,5.65-4.86,1.09-9.8,1.28-15.27,1.58a15,15,0,0,0,4.2,1.76c7.88,2.76,16,5.07,22,11.48a24.83,24.83,0,0,1,2,2.89c-1.84.63-3.08-2-4.51-1.28-3.49,1.69-4.2-.19-5-2.95s-3-2.74-5.2-2.34c-2.43.45.8,2.43-1.24,3.48-.8-1-3.57-.75-3.6-1.84-.09-4.48-3.6-5.59-6.27-7.81-.54,1.15,1,1.87.08,2.76h0c-1.15.07-1.51-.89-2-1.61a3.27,3.27,0,0,0-4.42-1.24l-.3-.28.29.3c.25,1.18.49,2.36.74,3.54l0,0c-.35,0-.83.11-1-.08-3.15-2.65-6.08-5.89-10.9-3.87-.12.06-.4-.21-.58-.36a1.69,1.69,0,0,0-2.74.49c-.61,1.19.8,1.46,1.52,2s1.84,1.61,2.36,1.41c2.64-1.05,2.45,1.71,3.66,2.49a.76.76,0,0,1,.12,1.22c-.41.4-.88.24-1.29,0-2.46-1.71-4.74-3.76-8.09-3.52-.93.06-.44-.81-.46-1.35,0-1.84-1.53-1.17-2.37-1.11-1.34.1-3.09.09-3.54,1.68-.31,1.1,1.1,1.37,1.91,1.78,2,1,4.05,2,3.73,4.93-.46-.08-1,0-1.09-.21-1.43-2.27-2.95-3.2-5.28-.93-.85.82-2.06.72-2.32-.88-.18-1.14-.78-1.37-1.76-.92-.61.28-1.52.18-1.65,1.11s.71,1,1.33,1.34a11.36,11.36,0,0,1,3.77,3.72c.44.63,1.69,1.22.86,2-1.09,1-1.49-.41-2-1.1s-1-1.27-1.74-1c-2.75,1-2.07-.65-1-3.34-4.59,4.19-6.78-1.37-10.43-.89,1.27,2.83,4.51,3.39,5.55,6,.91,2.26,2.55,3.1,5,3.14,6.58.09,13.18.17,19.74.71,5.28.44,10.6.68,15.84,1.77,1.87.39,5,2.06,5.19-2.66,1.26,1.86,1.57,3.69,4,4,7.06,1,13.71,3.65,20.38,6.09,2.7,1.07,3.29.07,2.44-2.44a13.65,13.65,0,0,1-1-5.61c1.11,3.07,2.2,6.15,3.33,9.21a14.74,14.74,0,0,0,1.67,3.91c1.33,1.68,2.52,1.46,2.87-.87,2.1,0,3.49-1.28,4.9-2.61,4.31-4.07,8.56-8.22,13.48-11.56.65-.44,1.77-.42,1.76-1.46s-1.07-.62-1.64-.9c-1.81-.89-1.32,1.06-2,1.62-1.77-3-1.69-6.19-1.17-9.47-1.52,2.67-5.63,2.09-6.11,5.5-1.63-.57-.22-2.5-1.75-2.89-1,3.39-1,3.39-2.13,3.08a3.56,3.56,0,0,0-4.55,2.72c-.22,1-.74,1.74-1.92,1.7-1.21-1.76-.49-3.52,0-5.28,2.12-7.37,6.71-13,12.81-17.36,6.59-4.73,13.18-9.48,21-12.09,8.73-2.91,17.39-4.91,26.83-4.24,9.19.65,18.31,1.72,27.48,2.87-8.41,8.37-13.85,19.1-22,27.75-7.23,7.64-15.64,13.51-24.57,18.91a76.82,76.82,0,0,1-27.71,10.36c-5.86.94-8.44.31-13.22-3.15-1.33.62,0,2.39-1.51,3.12l-4-8.87c-4.08,6.47-10.58,7.7-16.68,8.41-9.84,1.16-19.82,1.13-29.74,1.7-5.9.33-11.38-2.28-17.21-2.33.16-.86.78-1,1.54-1.16a26.19,26.19,0,0,0,14.24-8.54c1.47-.35,1.9-1.26,1.7-2.71-1.83.23-1.72,1.47-1.81,2.6-2.29.18-4.14,1.32-6,2.49-2.13,1.32-4.15,3-6.77,3.24a4.41,4.41,0,0,0-4.36,3.79c-5.23-.62-9.68-3.23-14.33-5.42-3.92-1.85-6.78-5.06-10.49-7.18-4.87-2.8-10.91-4.15-16.2-3.12,7.73-6,16.19-10.76,24.74-15.45s17.59-8.39,27.75-9.14c-13.77-2-26.09-6.52-35-17.69,1.84-.26,4.05.68,5.21-1.87l-5.93,1.13L446.49,148c1.13-.81,2.82-.62,4.29-2.57-2.64,1.05-4.58.52-6.52.41-3.26-2.53-7-4.06-11-5.79,4.58-1.13,8.69-3.4,13-4.82,4.83-1.59,9.16-4.3,14.09-5.61a32.33,32.33,0,0,1,10.46-1.47c4.9.32,9.83.07,14.79.06-.68-2.87-3.26-1.13-4.83-1.87a1.42,1.42,0,0,1,1.39-1.34c3.68-.38,6.63-2.36,9.56-4.39.73-.51,2-.65,1.79-1.91s-1.34-1.57-2.45-1.55c-1.51,0-1.75-.92-1.75-2.1l.09-.09c2.5.41,3.45-.74,2.63-3s-.47-5.67-4-6.45c-.63-.14-.38-.73-.09-1.15,1-1.44,0-2.15-1.11-2.1a4.1,4.1,0,0,1-3.71-2.51c-1.06-1.88-1.38-1.73-3-.44-2.9,2.34-5,1.5-6.05-1.85a2.12,2.12,0,0,0-2.36-1.71c-.95.07-1.59.2-1.35,1.46.31,1.64-1,1.61-1.66,1-1.81-1.88-4.16-1.11-5.74-.62-2.44.75-4-.21-5.78-1.21,11-3.19,22-3.33,32.88.5a22.57,22.57,0,0,1,6.08,3.59c2.61,2,4.74,1.33,5.32-1.9,1.72-9.47,6.21-17.72,11-25.9,2.29-3.93,5.76-6.91,8.28-10.65,2.21-3.29,4.26-6.69,6.71-10-.24,5.86,1.84,11.13,3.43,16.51-1.88.9-3.75,1.82-5.65,2.68-.78.35-1.59.61-1.58,1.65,0,4.47-1.41,8.76-1.81,12.72,2.47.24,4.72,1.5,7.15.58-2.14,2.76-5.8.72-7.9,3.16.13,1.17,1.53.29,2,1.23-2.17,1.4-2.85.9-3.16-1.72-.21-1.73,2.39-5.69-2.74-4.85-.14,0-.52-.5-.52-.77a.91.91,0,0,1,1.17-1c3.23,1.34,2.89-1.37,3.54-3,1.06-2.65-.18-5.7,1.49-8.25a1.74,1.74,0,0,0-.07-1.39c-.68-1.46-2.43-2.63-3.44-2.38-1.5.38-.42,2,.08,3s.54,2.13-.7,2.14c-3.91.06-1.74,1.69-1,3.14.54,1,1.65,1.78,1.6,3.11h0a2.77,2.77,0,0,1-3.3-1.91c-.52-1.28-2.11-1.27-3.13-.69s-.66,1.78-.13,2.81c1.21,2.35,2.32,4.75,3.62,7.45-3.9-1.06-2.2-7.2-7.21-6.86.79,3.05-1.27,7.21,3.9,8a.69.69,0,0,1,.31.56c-1.81,4.3,2.51,5,3.92,7.65,1-1.29.72-2.82,2.16-3.15,1.19.85-.08,2.13.55,2.93,1.32,1.65,1.38,1.6.47,3.2a15.84,15.84,0,0,0-.83,1.58c-.35.79-.59,1.72.16,2.29s1.37-.12,1.95-.48c1.51-.93,2.93-2,4.45-2.9.65-.38,1.44-1.89,2.2-.4.54,1.07-.78,1.16-1.49,1.49-3,1.41-5.07,4.2-8.24,5.47a2.45,2.45,0,0,0-1.05,3.4c1,1.64,2.1.44,3.3-.09,4-1.75,7.26-5,11.86-5.42,0,1.4.74,2.92-.75,4-.74-1-2.46-1.89-2.87-1.23-1.38,2.16-2.05,4.75-3.27,7-1,1.81,2,1.59,1.33,3a2.24,2.24,0,0,0-1.49,2.09,10,10,0,0,0-3.62,9.73c1.36-3.16,3.61-6,3.74-9.62,1.39-.14,1.4-1.16,1.38-2.19C528.57,116.47,529.23,115.24,530.33,114.92ZM459.5,187.25c-.31,1-1.78.22-2,1.18h5.84c-1.21-1.37-2.52-1.17-3.79-1.18a.66.66,0,0,0-.11-.24s-.12,0-.18-.05Zm31.4-27.2a1.31,1.31,0,0,0,1.44-1.42c2,.27,2.92-1.18,4-2.34.45-.46,1.15-1.08.29-1.71a1.37,1.37,0,0,0-1.9.23c-.9,1.2-1.64,2.53-2.44,3.81a1.28,1.28,0,0,0-1.42,1.44,5.43,5.43,0,0,0-5.13,3.27C487.86,162.82,489.92,162.27,490.9,160.05Zm59.88-40.73.14-.14c2.11-.88,2-2,1.25-4.12-1.39-3.76-5.17-4.37-7.52-6.77-1-1.06-2.12-.35-2.37,1.29a8.3,8.3,0,0,0,5,8.32c.84.36,1.54.86,1.15,1.87-.55,1.47.73,1.78,1.39,2.51A3.38,3.38,0,0,0,550.78,119.32Zm-16.32,29.23c2.66,1.46,2.46-1.23,3.25-2.33s1.4-2.67,0-3.46-2.85,0-4.14,1c-1.5,1.13-.48,1.92.14,2.89a9.88,9.88,0,0,1,.74,2c-4.39-2.25-6.2-1.75-6.47,2.15-1.25-1.7-2.23-1.72-3.3,0a20.08,20.08,0,0,0-2.58,5.41c-3.59-6.07-3.77-12.48-2.1-19.15,1.14-4.55,1.05-4.42-3.66-3.65-2.39.39-2.22,1.12-1.46,3,.6,1.51,1.9,2.9,1.65,5.44-2.25-4.57-4.19-8.53-6.13-12.49a7.87,7.87,0,0,0,4,.74,117.9,117.9,0,0,1,1-20.14c-1.44,1.6-.59,3.61-1.14,5.35-.42,1.31-.68,3.24-2.42,3a3.08,3.08,0,0,1-2.19-3.14c1.06-4.07-2.62-4.14-4.43-5.78-.1-.28-.18-.81-.29-.81-.6,0-.36.54-.49.85-1.58-1.62-4.93-1.14-5.1-4.56-.05-.87-1.54-1.56-2.57-1.6-1.23,0-.79,1.16-.91,1.9h0c-1.69-1-4.6-1.1-2.89-4.34.06-.12,0-.49-.13-.52-2.46-.64-4.24-3.25-8.08-2.59,6.19,4,8,9.73,8.82,15.85.37,2.92,1.7,4.52,4.43,5.17h0c1.09,1.89,3.06,2.83,4.53,4.28,2,2,5.62,2,6.21,5.51-1.44,3.06-5.11,1.88-7.17,3.77-.81,1.38-1.78.85-3,.46-3.71-1.19-7.22-3.24-11.7-3.12,1.71,1.57,4,2,4.42,4.37-1.27.76-1.91-.27-2.81-.76-2-1.09-3.47-3.37-6.15-3.06-.87.1-2.16-.5-2.5.69s1.06,1.38,1.78,1.88c4.68,3.26,7,8.09,9.57,13.55-3.07-.66-7.41-.5-6.4-3.48,1.42-4.19-1-4-3.15-5a4.12,4.12,0,0,1-2.42-2.24c-.55-1.27-2.85-1.69-4-.84-1.58,1.17.48,1.91,1.06,2.68,1.61,2.19,3.56,4.31,4,7,.72,4,3.59,4.49,6.66,5.11a139.94,139.94,0,0,1,15.8,3.59c5.81,1.86,11.61,3.76,17.42,5.65,1.53,1,2.55.95,2.52-1.24,3.29-.09,2.36,3.61,4.33,4.91,1,.64,1.21,2.75,2.89,2.53,1.5-.2.64-2.11,1.43-2.95,1.36-1.46-.15-5.93,4.35-4.16.43.17.58-.62.88-.92,1.71-1.7.26-2.75-.72-3.92l1.58-.26c-.06-.1-.09-.25-.17-.28a1.16,1.16,0,0,0-1.4.55C534.79,151.63,535,150,534.46,148.55Zm-54.9-1.43c-.08-.46,0-1.16-.27-1.36-3.17-2.23-5.07-5.65-7.74-8.24a19,19,0,0,0-8.4-5l2.66,3.59c.35.46.9,1,.26,1.5a4.47,4.47,0,0,1-2,.76c-.8.12-1-.43-.76-1.12.31-.92-.21-1.12-1-1.45-3.11-1.34-6.23.24-9.33-.14-.2,0-.65.4-.65.61,0,3.58-2.31,2.11-3.46,1.32-2.69-1.85-4.22.77-6.27,1.24a1.45,1.45,0,0,0-.72,1.13c0,.78.75.7,1.32.81,4.61.9,9.2,1.89,13.82,2.72,7.43,1.32,14.87,2.55,22.3,3.81l.42.24Zm96.7,27.8c-1.47-.28-2.49-.55-3.54-.67-1.35-.16-2,.79-2.2,1.87-.31,1.6-.89,3.49.27,4.75.75.81,1.81-.71,2.77-1,3.44-.95,5.21-4.28,8.74-5.45,4.41-1.46,8.33-4.38,12.48-6.63,1.25-.68,2.62-1.16,3.82-1.9s.86-2.1.82-3.26c0-.86-.75-1.51-1.4-1.18-3,1.54-7.34.78-8.92,5-1.71-3-2.81-3.54-6-3.17.5,1,2.21.5,2.61,2.39-2.29-1.07-3.6-1-4.48,1.49-.42,1.21-1.08,2.53-1.67,3.79-.15.34.47,1.33-.71.95C576.24,171.09,575.25,171.93,576.26,174.92Zm.1,8c7.67,1.47,13.77,6.11,21.26,5.07-2.68-1.45-5-3.77-8.38-3.19-.79.14-1.07-.83-1.6-1.27C585,181.33,579.54,180.7,576.36,182.9Zm14.84,8.71a27.62,27.62,0,0,1-9.39-1.18c-3.5-1.14-5.55.2-7.51,2.83C581.1,194.87,585.6,194.52,591.2,191.61Zm-46.94-50.76A70.89,70.89,0,0,0,557,138.93c.85-.18,2.56-.11,2.25-1.65-.27-1.33-2-1.66-2.91-1.39-3.81,1.14-7.53,2.41-11.63,2.08a2.33,2.33,0,0,0-2.22,2.38C542.41,141.08,543.06,141.26,544.26,140.85Zm-81.9,17.85c4.37,1.92,12.85-1.76,16.71-7a3.87,3.87,0,0,0-1.44.11c-2.58,1.45-6.09.78-7.77,4.54C468.79,158.71,464.75,156.35,462.36,158.7Zm2.76,45.24c6.89.07,11.7-3.84,16.21-8.33C475.09,196.73,470.94,201.94,465.12,203.94ZM599,182.11c.87-.3,2.26.45,2.35-1,.06-.95-1.09-1-1.89-1.25-1.56-.54-3.06-1.26-4.59-1.9a5.73,5.73,0,0,0-4.47-.21c-.55.21-1.29.19-1.18,1a1.56,1.56,0,0,0,.93,1A42.06,42.06,0,0,0,599,182.11Zm-54.09-50.56c1.65-3.8.69-4.82-4-4.42-.66.05-1.59-.25-1.79.67a1.65,1.65,0,0,0,1.36,1.82C542,130.08,543.66,130.26,544.86,131.55Zm3.43,15.34.33.87c2.12-.49,4.25-1,6.37-1.48.7-.17,1.47-.49,1.24-1.37s-1.13-.67-1.78-.66C552,144.29,550.14,145.6,548.29,146.89Zm-.7,13.33c-3.32-.46-5.64-.07-7.7,1.45a1.19,1.19,0,0,0,.19.85C542.6,162.89,544.81,162.16,547.59,160.22Zm-49.28-6.89-.48-.14c0,.08.05.24.08.24A2.25,2.25,0,0,0,498.31,153.33Z" transform="translate(-431.28 -52)"/><path class="cls-1" d="M573.23,254c-6.22,1.16-12.25,1.49-17.31-3.45a23.63,23.63,0,0,1-2.41-3.4c-1.18.12-1.22,1.82-2.62,1.73-.73-1.5-.94-3.34-2.74-5-2.15,6-7.14,8.75-12.5,10.7A73.59,73.59,0,0,1,516.5,259c-8.13.66-16.25,2-24.43,1-3.72-.47-7.54,0-11.19-1.14.62-.41,1.74.18,1.93-1,0-.13-.24-.4-.41-.44-1.14-.24-1.29.65-1.55,1.41-7.08-.22-13.58-2.5-20-5.4a55.86,55.86,0,0,1-10.22-5.53c-3-2.2-6.78-2.45-10.65-1.75,4.39-3.88,8.72-7.83,13.19-11.61,6.76-5.7,13.61-11.3,22.08-14.39,1.13,1.36,3.42,0,4.36,1.84-1.05.45-2.1.13-3.16.11-1.73,0-4,.36-4.43,1.8-.69,2.5-1.84,2.61-3.84,2.07a2,2,0,0,0-2.29.9c3,1.79,6.43,3.06,8.77,5.42,4.87,4.93,9.94,7.41,17.14,5.83,4.32-1,9-.23,13.53-.2,1.55,0,2.95,0,2.77-2.16a6.91,6.91,0,0,0,6.78,2,21.5,21.5,0,0,1,8.65.17c2.54.51,3.37-.14,3.09-2.93.83,1.53,1.3,3,2.8,3.36,3,.66,6.13,1.63,9.18,1.6,2.32,0,4.34,2,6.69.68,1,.15,1.3,2.14,2.56,1.32s.49-2.2.25-3.27c-1.67-7.18-3.43-14.35-5.15-21.52a7.38,7.38,0,0,1,0-4.6c1.23,4.46,2.33,8.2,3.3,12,1.61,6.32,3.14,12.66,4.67,19,.2.82.19,1.85,1.36,1.62s2.52-.39,2-2.19c1.44-.41,3.24.48,4.36-.89a17.87,17.87,0,0,1,7.11-4.9c1.05-.45,2.52-.7,2.72-2,.43-2.78,0-5.75,1.11-8.35.49-1.11-3.24-1-.37-2.14.94-.37,1.52-1.52.47-2.27s-2.07-.39-2.28,1.12h0c-.7.53-3.47-1.18-1.92,1.94.51,1-1.19,1.12-2,1.12a6,6,0,0,0-5.85,3.26c-.08.14-.4.16-.6.23-.69-.72.21-2.17-1.39-2.73-.63,2.59-.84,5.29-3.18,6.93.52-9.44,4.39-16.81,13.1-21.18l.49.53c1.42,2.5,0,5-.42,7.58,4.86-1,4.92-1,5.62-4.67.35-1.8.06-3.74,2-4.93a1.11,1.11,0,0,0,.14-1.81c-.36-.24-1.13.11-1.71.19l-.53-.49c4-2.78,8.47-3.84,13.17-4.75,3.12-.6,5.86-2.68,9.11-3.37a110.13,110.13,0,0,1,24.31-2.94,95.12,95.12,0,0,1,31.05,5.18c2,.69,4,.37,6,.47a2.35,2.35,0,0,1,1.56.48c.49.58-.14,1.06-.58,1.44-6.62,5.65-11.35,13.14-18,18.73-2.43,2-4.91,4-7.37,6-.5-.85-1-1.65-2.22-1.21-3,1.07-5.65,0-8.07-1.53-3.12-2-7-2.69-9.73-5.36a1.89,1.89,0,0,0-3.08.21c-.57,1,.38,1.56,1.25,2.12,6.25,4,12.8,7,20.47,6.46-6.12,4.76-13,8.19-20.09,11.21-5.87,2.51-12,4.41-18,6.66a10,10,0,0,1-4.17.65c-1.57-.41-4.32.4-2.94-3A1.33,1.33,0,0,0,582.8,245c-3.29-.27-5.68-2.62-8-4.28-3.32-2.38-4.63.23-5.86,1.6-1.52,1.71,1.4,1.78,2,2.85a4,4,0,0,1,.82,1.91c-1.72-.23-2.81-1.62-4.26-2.35s-3.73-.71-3.3,1.25c.48,2.17.64,5.35,4.48,5.61C570.14,251.72,572.75,251.31,573.23,254Zm19.22-29.06a5,5,0,0,1-2.71-.61c-.62-.31-1.42-.68-1.48.52,0,.74-.32,2.09.83,1.84s3.08.35,3.35-1.77c1.49-.25,1,1.28,1.65,1.87,4,3.84,9.4,5,14.19,7.32.63.3,1.92,1.29,2.49,0s-1-1.71-1.63-2.44c-.26-.28-.93-.16-1.32-.38-3.21-1.73-7.38-1.47-9.71-5.32C597.51,225,595.05,221.36,592.45,224.94ZM586,236.36c2.37,3.24,11.37,7.33,14,6.26-1.78-1.65-5-1-5.91-3.45-.62-1.74-1.51-2-3-2.21-1.84-.23-3.41-.8-3.66-3.21-.14-1.36-1-2.74-3-1.77-.78.37-2.32.11-1.86,1.46s.65,3.85,3.38,2.93Zm36.17-23.47c-2.35-3.37-5.13-.21-7.56-1.34-.69-.32-1.7.95-1.3,1.67,1.24,2.31-.08,3.65-1.44,5.24L639.53,210l-.11-1.19c-2.83.76-4.8-.51-6.47-2.38-1.38-1.54,1.8-1.27,1.06-2.73-1.41-.41-2.16.34-3.18,1.37-1.62,1.62-2.44,4.57-5.56,4.13C622.76,208.79,621.47,209.55,622.19,212.89Zm-37.32-5.52c-.22.06-.6.08-.63.18-.61,2.47-4.3,3.53-3.13,6.75.25.7.23,1-.35,1.45-4.63,3.45-3.35,9.25-5.39,13.75-.28.63.19,2.23,1,1.66,1.38-.91,3.63.18,4.26-1.72s1.1-4.28-.22-5.4c-1.83-1.56-1.15-1.7.37-2.32a2.85,2.85,0,0,0,1.25-1.23c1.93-3.58,2.3-7.68,3.77-11.43C586.13,208.35,585.59,207.71,584.87,207.37Zm-81.93,32.18c-2.88.57-6.05.41-6.54,1.49-.87,1.9-2.78,2.87-3.37,4.81-.2.67-1.61,1.05-.57,2,.7.64,1.79,1.23,2.58.52C497.76,245.91,501,243.86,502.94,239.55Zm-12.5,1.4a11.19,11.19,0,0,0-1.63.25c-4.79,2-5.82,7.86-10.34,10.22-.59.3-.57,1.67,0,2.29.89,1,1.88.09,2.43-.46A52,52,0,0,0,490.44,241Zm125.83-22a7.73,7.73,0,0,1,1.38,1c2.59,2.79,5.9,4.31,9.41,5.47,1.06.34,2.38.55,2.78-.71.52-1.61-1.19-.92-1.85-1.34-2-1.24-4.27-1.85-6.08-3.46A5.12,5.12,0,0,0,616.27,218.9Zm-39.61,17.51c-1.07.79-3.27,1.17-2.26,2.3a10.33,10.33,0,0,0,6.75,3.2c1.27.09,1-2.61,2.47-3.3-.22-.24-.44-.68-.68-.69C580.71,237.82,578.24,239,576.66,236.41Zm-92.33,20.21c3.65.08,5.4-2.92,7.9-4.69.69-.49,1.95-1.11,1.14-2.18-.65-.85-1.71-.16-2.63.08C487.21,250.74,486.62,254.43,484.33,256.62Zm86.1-28.74c-.26,1.67-.68,3.5-.8,5.35s1.09,2.15,2.24,1.18a10.52,10.52,0,0,0,2.59-3.58,1.65,1.65,0,0,0-1.26-2.18C572.43,228.41,571.65,228.22,570.43,227.88Zm-11.27-5.64c.66.85,1.8,2.08,2.66,1.76,2.32-.86.93-3.95,2.67-5.4.21-.18,0-.92-.58-1C563.49,217.45,559.11,221.65,559.16,222.24ZM471.1,239.15c-2.44-.75-4.41-.39-6.34-.45-.59,0-1.26.12-1.24.87a1.18,1.18,0,0,0,1.16,1.11C466.73,240.73,468.9,241.34,471.1,239.15Zm1.32-.08c2.21,1.37,3.89-.14,5.55.29.62.16,1.58-.08,1.24-1.14a1.11,1.11,0,0,0-1.73-.62C476.1,238.45,474.47,238.54,472.42,239.07Zm118,7.88c-2.41-2.61-2.41-2.61-5.26-2.06C587.22,245.35,588.09,246.91,590.43,247ZM579.8,235.21c-.2.08-.52.12-.58.26s.13.39.21.59c.2-.08.51-.11.58-.25S579.88,235.42,579.8,235.21Z" transform="translate(-431.28 -52)"/><path class="cls-1" d="M596,353.81c-2.77-.8-5.58-.32-8.38-.26l-3.54-.77c2.68-2.49-.75-4-1.49-4.89-2.74-3.45-4.5-7.44-6.85-11.07-.82-1.27-.68-1.36,2.28-3.57-3.88-1.39-7.5.64-11.16.28a29,29,0,0,1,1.3-12.9c2.1.79,3.82,1.1,4.08-2.05.17-2,1.34-3.26,3.64-2.63.54.15,1.11.57,1.42-.33.82-2.42,2.85-2.26,5.08-2.64-.81,2-3.74,2.93-2.93,4.1,1.29,1.84.37,1.36-.76,1.51s-1.07,1.41-1.45,2.21a.78.78,0,0,0,.46,1.15,2.24,2.24,0,0,0,2.57-.75c.7-.8,1.3-1.69,1.92-2.55a27,27,0,0,1,7.4-7.18c-1.68,3.51-3.87,6.64-5,10.4,2.76-2.56,4.84-6.22,9.48-4.79a7,7,0,0,1-.64,1.62c-.82,1.19-2.8,2.56-1.5,3.73s1.47-1.47,2.57-2.1A8.48,8.48,0,0,0,599,313.5c2.75,1.11,5.19.84,7.14-1.61l4.29,1.07,1.09.31a.23.23,0,0,1,.34.18,1.27,1.27,0,0,0,1.6.67c2.77.47,5.73.47,7.65,3.07-.55.87-.87,1.85-2.2,2a15.94,15.94,0,0,0-6.4,2.8c-1.48,1-3.17,2.32-4.18-.81-.34-1-2.35-2.27-2.71-.15-.71,4.16-2.67.95-4.06,1.29.62-1.2,1.85-1.75,1.75-3.12l7.31-3.06c-2.8.21-6.1-.65-7.33,3-4.12,1.13-6.47,4-7.83,7.89-.44.09-1,.06-1.06.66,0,.12.28.4.39.39.6-.1.59-.62.65-1.07,2.84-.68,5.28-2.82,8.47-2.18,1,.21,2.49,0,2.06,1.61-.73,2.75,1.28,2.14,2.42,1.92,2-.38,4.15-.78,5.48-2.84,1.06-1.62,3.1-2,4.61-3,1.79-1.14,5,.2,5.52-3l1.46-.18,1,.26a27.94,27.94,0,0,1,12.46,7.72c-.23,4.4-4.8,6.58-5.59,10.76-.07.36-1.9.38-3.62.69,1.38.2,2.18.1,2.71.43,1.66,1.05,4.25,1.2,4.93,3,.76,2-2.26,1.53-3,2.84-.23.41-.53.79-.72,1.22-1.16,2.63-3,4.2-6.14,3.79.88.51,2,.39,2.4,1.45-9.18,2.17-18.32,4.28-27.89,1.91C600.34,353.09,598.12,355.05,596,353.81Zm27.3-15.29.08-.08c1.58-.84,3.61,2.38,5.12-.72A202.4,202.4,0,0,0,599,333.54a3.76,3.76,0,0,0-1.06.07,1.18,1.18,0,0,0-1,1.6c.3,1.19.87.52,1.54.25,2.39-1,4.87-.45,7.33-.28A78.05,78.05,0,0,1,623.28,338.52Zm-37.67,9.27a2.63,2.63,0,0,0,2.41-2.67,1.81,1.81,0,0,0-2.28-2c-1,.22-2.58.3-2.35,2C583.56,346.49,583.94,347.76,585.61,347.79Zm40.31-23.44c-4.21,0-7.12,1.7-7.63,4.42ZM595,334c-3.58-1.07-6.24-1.82-9.35-.66C588.57,335.27,591.29,334.36,595,334Zm-20.91-16c-.23.17-.48.27-.51.41s.14.36.23.54l.63-.5Zm30.14,12c.19.05.41.19.52.13s.21-.33.31-.51c-.19-.05-.41-.19-.54-.13S604.3,329.83,604.2,330Z" transform="translate(-431.28 -52)"/><path class="cls-1" d="M563.24,280.71c1.33-9.82,4.36-14.72,14.08-17.4,7.5-2.06,15.19-2.06,22.87-2.34s15.44.25,22.84,2.76c1.85.62,4.53,0,5.25,2.84.05.22.57.47.86.45,8.24-.44,13.39,5.52,19.55,9.4,6.65,4.21,11.17,10.8,17.38,15.48a40.76,40.76,0,0,0,4.71,2.64,70.31,70.31,0,0,0-16.94,6.81c-12.59,7-26.19,7-40,6.12-5.41-.34-10.85.4-16.27-.32-.14-.63-1-1.53-.17-1.87,2.81-1.12,5-5.33,8.87-1.9.39.35,1.37,0,2.07,0,2.87.21,6.25-2.2,8.43,1.66a.71.71,0,0,0,1.21,0c2.19-3.76,4-1.42,6,.26.48.42,1,1.18,1.74.57.7-1.12-1.47-1.7-.17-3.14,1.65,2.07,3.38-1,4.56-.22,3.82,2.43,3.24-1.55,4.45-2.77.57-.57-.32-1.92.87-2.44,3.59,3.32,4.3,3.18,6.18-1.34a18.76,18.76,0,0,0,2.19,2.25c.42.32,1.61-.12,1.27-.52-1.63-1.87-1.43-3.53,0-5.32a4.56,4.56,0,0,0-1.24-1c-1-.39-2.06-.57-2.75-1.5h0c3.68-.07,7.54,2.06,10.46-2.85,1.54-2.58,0-4.11-.3-5.82s-2.53-.38-3.52.42a8.92,8.92,0,0,1-6.65,1.81h0a2,2,0,0,0-1.82-1.9c-3.51-.68-2.4-1.65-.24-2.79.73-.39,1.68-.9,1-1.87a1.55,1.55,0,0,0-2.5-.11c-2.51,3.52-5.48,2.84-8.78,1.21,1.69-1.23,3.4-2.32,4.89-3.64.54-.47,2-1,1-2.19a1.9,1.9,0,0,0-2.6-.28c-2.45,1.56-5.45,1.85-7.72,4.13-1.7,1.71-4.55,2-7.49,1.39a38,38,0,0,1,7.91-6.17c.93-.58,1.35-1.22.75-2.34-.71-1.34-1.41-.78-2.26-.18-3.1,2.18-6.62,3.76-9.3,6.54-2.21,2.29-5.22,2.84-8.42,4.32a12.87,12.87,0,0,1,3.05-4.75c.64-.66,1.57-1.53.52-2.38s-1.79-.07-2.61.84a25.91,25.91,0,0,1-8.25,5.94,7.5,7.5,0,0,0-4.68,5.87c9.59-.86,18.85.37,28.69,1.55-2.67,1.09-5,2-7.2,1.18A27.78,27.78,0,0,0,604,286.57c-2.63.15-5.08,1.26-7.67,1a25.05,25.05,0,0,1-4.44-1.27c.9-2.54,1.32-3.82-2.42-5.19-2.49-.9-2.09.33-2.62,1.06a3.87,3.87,0,0,0-.94,2.62c.63,2.66-2.25,3.08-2.85,3-4-.54-7.84.93-11.77.95l-.28-.4c2.52-1.84,5.53-1.75,8.4-1.91,5.22-.29,5.89-.82,6.22-6.4-3.55,2.1-7.57-.1-11.15,1.62-1,.47-1.14-.49-1.16-1.21,0-1.06,0-2.13,0-3.19,0-.72,1.05-1.62-.22-2.09-1-.34-1.38.58-2,1.12A17.62,17.62,0,0,1,563.24,280.71Zm33.27-8.8c3.3,2.65,4,.29,5.37-1.75C599.63,269.86,598.59,271.44,596.51,271.91Zm-21.93.11c0-.81-.39-1.32-1.28-1.2a1.25,1.25,0,0,0-1.19,1.06c-.05,1.06.91,1.29,1.65,1.37S574.58,272.63,574.58,272Zm-7.06,2.65c-.63.08-.66.56-.66,1s0,1,.63,1,.66-.55.66-1S568.14,274.75,567.52,274.67Z" transform="translate(-431.28 -52)"/><path class="cls-1" d="M571.24,288.74c3.93,0,7.73-1.49,11.77-.95.6.08,3.48-.34,2.85-3a3.87,3.87,0,0,1,.94-2.62c.53-.73.13-2,2.62-1.06,3.74,1.37,3.32,2.65,2.42,5.19a25.05,25.05,0,0,0,4.44,1.27c2.59.26,5-.85,7.67-1a27.78,27.78,0,0,1,11.13,1.25c2.21.78,4.53-.09,7.2-1.18-9.84-1.18-19.1-2.41-28.69-1.55a7.5,7.5,0,0,1,4.68-5.87,25.91,25.91,0,0,0,8.25-5.94c.82-.91,1.57-1.69,2.61-.84s.12,1.72-.52,2.38a12.87,12.87,0,0,0-3.05,4.75c3.2-1.48,6.21-2,8.42-4.32,2.68-2.78,6.2-4.36,9.3-6.54.85-.6,1.55-1.16,2.26.18.6,1.12.18,1.76-.75,2.34a38,38,0,0,0-7.91,6.17c2.94.64,5.79.32,7.49-1.39,2.27-2.28,5.27-2.57,7.72-4.13a1.9,1.9,0,0,1,2.6.28c1,1.18-.44,1.72-1,2.19-1.49,1.32-3.2,2.41-4.89,3.64,3.3,1.63,6.27,2.31,8.78-1.21a1.55,1.55,0,0,1,2.5.11c.64,1-.31,1.48-1,1.87-2.16,1.14-3.27,2.11.24,2.79a1.94,1.94,0,0,1,1.81,1.9l-.16.29.15-.3a8.92,8.92,0,0,0,6.65-1.81c1-.8,3.27-2,3.52-.42s1.84,3.24.3,5.82c-2.92,4.91-6.78,2.78-10.46,2.85-.87-.92-1.8-.87-3.63,0h3.64c.69.93,1.76,1.11,2.75,1.5a4.56,4.56,0,0,1,1.24,1c-1.44,1.79-1.64,3.45,0,5.32.34.4-.85.84-1.27.52a18.76,18.76,0,0,1-2.19-2.25c-1.88,4.52-2.59,4.66-6.18,1.34-1.19.52-.3,1.87-.87,2.44-1.21,1.22-.63,5.2-4.45,2.77-1.18-.75-2.91,2.29-4.56.22-1.3,1.44.87,2,.17,3.14-.77.61-1.26-.15-1.74-.57-2-1.68-3.81-4-6-.26a.71.71,0,0,1-1.21,0c-2.18-3.86-5.56-1.45-8.43-1.66-.7-.06-1.68.32-2.07,0-3.86-3.43-6.06.78-8.87,1.9-.84.34,0,1.24.17,1.87-5.31.07-10.66,1-15.92-.5.32-1.67,2.23-1.48,3.08-2.68s.61.33.69.57a1.35,1.35,0,0,0,2.22.83c1-.59.49-1.46-.09-2.12-1.16-1.34-2.33-2.67-3.57-3.93-.46-.47-1-1.48-1.76,0-.66,1.21-2.16.53-3.29.64a2.22,2.22,0,0,1-2.36-1.18c-1-1.6,1.09-1.46,1.38-2.74-3.53.66-4.28-2.76-6.43-4.24A1.83,1.83,0,0,1,571.24,288.74Zm33.44-8.09.29-.32-.31.3c-.53.08-1.13.08-1.09.86a.34.34,0,0,0,.22.23C604.57,281.77,604.58,281.17,604.68,280.65Zm22,7.6h5.44C630.11,287.22,628.44,286.63,626.65,288.25Zm7.9.68a5,5,0,0,0,1,.17,1.85,1.85,0,0,0,.6-.23,9.5,9.5,0,0,0-1.13-.31C634.93,288.55,634.78,288.76,634.55,288.93Z" transform="translate(-431.28 -52)"/><path class="cls-1" d="M503.07,174.33c.88-.89-.62-1.61-.08-2.76,2.67,2.22,6.18,3.33,6.27,7.81,0,1.09,2.8.83,3.6,1.84,2-1.05-1.19-3,1.24-3.48,2.15-.4,4.49-.27,5.2,2.34s1.46,4.64,5,2.95c1.43-.69,2.67,1.91,4.51,1.28A19.94,19.94,0,0,1,534,198.66c-6.67-2.44-13.32-5.06-20.38-6.09-2.44-.35-2.75-2.18-4-4-.15,4.72-3.32,3.05-5.19,2.66-5.24-1.09-10.56-1.33-15.84-1.77-6.56-.54-13.16-.62-19.74-.71-2.46,0-4.1-.88-5-3.14-1-2.61-4.28-3.17-5.55-6,3.65-.48,5.84,5.08,10.43.89-1,2.69-1.71,4.37,1,3.34.73-.27,1.29.41,1.74,1s.9,2.1,2,1.1c.83-.76-.42-1.35-.86-2a11.36,11.36,0,0,0-3.77-3.72c-.62-.32-1.46-.37-1.33-1.34s1-.83,1.65-1.11c1-.45,1.58-.22,1.76.92.26,1.6,1.47,1.7,2.32.88,2.33-2.27,3.85-1.34,5.28.93.12.19.63.13,1.09.21.32-2.94-1.7-3.91-3.73-4.93-.81-.41-2.22-.68-1.91-1.78.45-1.59,2.2-1.58,3.54-1.68.84-.06,2.33-.73,2.37,1.11,0,.54-.47,1.41.46,1.35,3.35-.24,5.63,1.81,8.09,3.52.41.28.88.44,1.29,0a.76.76,0,0,0-.12-1.22c-1.21-.78-1-3.54-3.66-2.49-.52.2-1.59-.87-2.36-1.41s-2.13-.77-1.52-2a1.69,1.69,0,0,1,2.74-.49c.18.15.46.42.58.36,4.82-2,7.75,1.22,10.9,3.87.22.19.7.06,1,.08a3,3,0,0,0,2.85,2.87c.29,1-1.36,1.36-.75,2.72,1.23-.8,2.89-.13,4.2-1.33a6.67,6.67,0,0,0-3.39-1.45,3.07,3.07,0,0,0-2.88-2.84l-.74-3.54v0a3.27,3.27,0,0,1,4.42,1.24c.5.72.86,1.68,2,1.61.08.54.07,1.14.86,1.1a.31.31,0,0,0,.22-.22C504.21,174.4,503.59,174.42,503.07,174.33Zm-8.56,9.29a4.73,4.73,0,0,0-3.56-3.87c-.86-.18-.95,1.56-1.25,3.13,2.32-2.24,3.11.86,4.81.75l.27.94.27-.18ZM475,181.12c.2.12.37.32.56.32s.38-.17.57-.27c-.18-.11-.36-.31-.54-.31S475.2,181,475,181.12Zm39.78,2c.08,0,.2,0,.23-.06a.59.59,0,0,0,0-.27l-.39.07Z" transform="translate(-431.28 -52)"/><path class="cls-1" d="M515.4,355.86c3.68-1.4,7.6-1.56,11.43-1.85,6.67-.51,13-2.55,19.41-4l7.83,2.8a3.66,3.66,0,0,1-.76,3.53c-1.32,1.67-3.52,2.82-3.58,5.41,0,1.83-1.87.11-2.56,1.21,1.15,1.65,4.06,1.3,4.61,3.85.14.64,1.52.48,2.27.14a1.51,1.51,0,0,0,.64-1.15c0-1.85-1.23-.2-1.61-.55a5,5,0,0,1-1.7-4.38c2.17,1.21,4.73,1.38,5.44,4.05,1.21,4.48-.67,6.28-5.63,5.43-1-.18-2.38-.91-2.66.57-.33,1.79,1.31.53,1.93.89,1.44.83,2.72,1.56,1.41,3.82-1.53,2.66-4.74,4-5.3,7.42-.14.9-1.37.44-2-.19s0-1.95-1.2-2.49c-1.59,1.85-3.16,3.71-4.79,5.53-.72.8-1.75,1.85-2.72,1-2-1.78-4-1.73-6.55-.15.43-2.06,2.38-2.71,2-4.48-.36-1.58,1-3.74-2.71-3.31-3,.35-1.95-2.27-1.11-3.95-.33-.14-.54-.31-.73-.31-1.13.06-1.19,2.38-2.83,1.34-.36-.23-1-.61-.35-1,1.66-.85,1.32-3.73,4-3.61,3.95.19,7.93-.81,11.88,0,2.41.52,4.48-1,6.87-.92-2.17-1.26-5.53.25-6.74-3a1.62,1.62,0,0,0-.84.25c-2.06,2.34-3.87,2.32-5.4-.37a18.27,18.27,0,0,0-8.12-7.78c-.69,2.32-.14,4,1.89,5.11,1.11.61,2.15,1.51,1.73,2.76a4.06,4.06,0,0,1-3.17,2.56c-2.88.64-5.25-1.2-7.94-1.4l0,0c-1-4-4.23-6.13-7.13-8.53C511.68,358.16,513.65,357.14,515.4,355.86Zm31.52,12.73c0-1,0-2.08-1.43-2.14,0-1,0-2.05-1.44-2.14-.22-.84.46-2-1-2.61a1.86,1.86,0,0,0,1,2.61c0,1,0,2.05,1.44,2.14,0,1,0,2.05,1.43,2.15l.28.14Z" transform="translate(-431.28 -52)"/><path class="cls-1" d="M457.24,96.37c1.79,1,3.34,2,5.78,1.21,1.58-.49,3.93-1.26,5.74.62.64.66,2,.69,1.66-1-.24-1.26.4-1.39,1.35-1.46a2.12,2.12,0,0,1,2.36,1.71c1,3.35,3.15,4.19,6.05,1.85,1.59-1.29,1.91-1.44,3,.44a4.1,4.1,0,0,0,3.71,2.51c1.1,0,2.12.66,1.11,2.1-.29.42-.54,1,.09,1.15,3.56.78,3.16,4,4,6.45s-.13,3.41-2.63,3l-.69-.73c-1.74-1.57-3.39-3.47-6-2,2.12.28,3.66,2.28,5.9,2.12l.74.68c0,1.18.24,2.11,1.75,2.1,1.11,0,2.24.2,2.45,1.55s-1.06,1.4-1.79,1.91c-2.93,2-5.88,4-9.56,4.39a1.42,1.42,0,0,0-1.39,1.34c-6.62-3.43-13.22-6.9-18.22-12.66a15.7,15.7,0,0,0,6.66-.76c-1.58-1.39-3.4-.2-5-1,1.24-2.76,3.28-4,6.31-3.57.81.11,1.78.48,2.15-.54.44-1.21-.53-1.62-1.46-2-2.39-1-4.77-2-7.15-3-.64-.27-1.3-.75-1.93,0-.48.55,0,1.11.08,1.66.18.88.64,1.19,1.52.86,1.43-.54,2.72-.43,4.45,1.81-2.79-.91-4.26,3-6.44.31s-1.85.07-2.51.82c-2.53-3.24-3.9-7.18-6.88-10.42C454.11,96.74,456,97.49,457.24,96.37Zm27.19,23c-.64.11-1.44-.21-1.77.62-.06.13.32.61.54.64.94.14,1.13-.54,1.21-1.28,1.53,0,3.12.15,4.56-2.48C486.83,117.85,485.47,118.25,484.43,119.35Zm-24.14-14.62c-.2-.1-.38-.26-.56-.25s-.34.17-.52.27c.18.09.36.25.53.25S460.09,104.83,460.29,104.73Zm21-2.75c-.07,0-.18,0-.21,0a.76.76,0,0,0-.06.27l.37-.07Z" transform="translate(-431.28 -52)"/><path class="cls-1" d="M598.37,380c-.43-3-.88-5.64,3.73-3.29,1,.5,2.88,0,4.42.29,1.7.36,2.82,1,3.32,2.74.36,1.2,1.12,2.31,2.44,2.23s1.91-1.49,2.25-2.49c.43-1.27.4-1.6,2-1.12,1.84.54,3.74-.46,5-2.89-4.6,1.13-8.6-1.34-13.12.21.86-3.08,4.12-4.18,4.24-7.1,2,.14,3-.82,2.84-2.87.85-.09,1.67-.27,1.85-1.29a.5.5,0,0,0-.62-.62c-1,.19-1.21,1-1.29,1.85a3,3,0,0,0-2.87,2.85c-2.33.31-2.92,2.55-4.3,3.9-.59.58-.9,1.45-1.52,2-1.32,1.08-3.29,1.17-4.25.27s.72-1.91,1.43-2.69c2.36-2.61,4.83-5.13,7.26-7.69l0,0,7.28-5.1c4.85,2.32,8.37,6.26,12.1,9.95-1.32.92-2.75,1.65-1.65,3.81a1.82,1.82,0,0,1-1.53,2.64c-2.15.34-2.57,1.8-2.57,3.57a8.14,8.14,0,0,1-2.38,5.95,20,20,0,0,0-3.41,4.74l-.11.09c-.54-.13-1.52-.19-1.55-.39-.39-2.81-2.06-1.14-3.28-1h0a2,2,0,0,0-2.52-1.87c-1.68.28-1,1.29-.66,2.35.29.87-.72,1.2-1.34,1.34a21.48,21.48,0,0,1-4.88.77c-.85,0-2.35-.31-1.46-2,1.51-2.91,1.16-3.87-2.12-6a.74.74,0,0,0-.06,1.21c3.63,3-1.1,3.39-1.82,4.71-1.07,1.94-1.65-.32-2.5-1.15a69.37,69.37,0,0,1-7.36-8c-.5-.66-1.24-1.26-.71-2.18s1.49-.58,2.28-.59c2.84-.06,4.91,2,7.43,2.82.07.53.06,1.14.85,1.1a.35.35,0,0,0,.23-.23C599.51,380,598.89,380,598.37,380Zm17.5-7.63c2.24-.57,3.32-2,3.9-4.72C617.36,368.82,616.68,370.62,615.87,372.33Z" transform="translate(-431.28 -52)"/><path class="cls-1" d="M519.38,78.57c0-1.33-1.06-2.08-1.6-3.11-.75-1.45-2.92-3.08,1-3.14,1.24,0,1.23-1.08.7-2.14s-1.58-2.6-.08-3c1-.25,2.76.92,3.44,2.38A1.74,1.74,0,0,1,522.9,71c-1.67,2.55-.43,5.6-1.49,8.25-.65,1.63-.31,4.34-3.54,3a.91.91,0,0,0-1.17,1c0,.27.38.79.52.77,5.13-.84,2.53,3.12,2.74,4.85.31,2.62,1,3.12,3.16,1.72-.46-.94-1.86-.06-2-1.23,2.1-2.44,5.76-.4,7.9-3.16-2.43.92-4.68-.34-7.15-.58.4-4,1.83-8.25,1.81-12.72,0-1,.8-1.3,1.58-1.65,1.9-.86,3.77-1.78,5.65-2.68l.15.14,0,.2A.94.94,0,0,0,531.5,70c3.48,8.29,3,17,2.46,25.64-.17,2.66-.74,5.28-1.12,7.92-4.6.39-7.88,3.67-11.86,5.42-1.2.53-2.29,1.73-3.3.09a2.45,2.45,0,0,1,1.05-3.4c3.17-1.27,5.24-4.06,8.24-5.47.71-.33,2-.42,1.49-1.49-.76-1.49-1.55,0-2.2.4-1.52.89-2.94,2-4.45,2.9-.58.36-1.32,1-1.95.48s-.51-1.5-.16-2.29a15.84,15.84,0,0,1,.83-1.58c.91-1.6.85-1.55-.47-3.2-.63-.8.64-2.08-.55-2.93-1.44.33-1.18,1.86-2.16,3.15-1.41-2.64-5.73-3.35-3.92-7.65a.69.69,0,0,0-.31-.56c-5.17-.82-3.11-5-3.9-8,5-.34,3.31,5.8,7.21,6.86-1.3-2.7-2.41-5.1-3.62-7.45-.53-1-1-2.16.13-2.81s2.61-.59,3.13.69a2.77,2.77,0,0,0,3.3,1.91.88.88,0,0,0,.11.24s.12,0,.19.06Zm6,15.41-.48-.15c0,.09.05.25.08.25A1.25,1.25,0,0,0,525.38,94Zm-.81-14.42a1.08,1.08,0,0,0-.29-.09s-.06.16-.09.24a.81.81,0,0,0,.29.09S524.54,79.65,524.57,79.56Z" transform="translate(-431.28 -52)"/><path class="cls-1" d="M545.34,240.67C543,242,541,240,538.65,240c-3,0-6.14-.94-9.18-1.6-1.5-.33-2-1.83-2.8-3.36.28,2.79-.55,3.44-3.09,2.93a21.5,21.5,0,0,0-8.65-.17,6.91,6.91,0,0,1-6.78-2l0,0a1.34,1.34,0,0,0-1.45-1.44h0c-.07-.35,0-.79-.22-1-5.49-6.48-11.7-12.08-19.74-15.21-1.17-.46-2.25-.65-2.48-2.06,4.95-1.67,9.88-3.46,15.26-2.57.95,2,3.83,1.61,4.57,3.9.42,1.32,1.13,2.39,2.74.92.6-.56,1.62-.8,1.48.78a2.73,2.73,0,0,0,1.29,2.41c4.72,3.58,7.58,8.57,10.46,13.62a17.34,17.34,0,0,0-2.44-7.91c-1.67-2.65-3.57-5.16-5.38-7.72-.43-.62-.76-1.24-.17-1.92.36-.41,1.1-.43,1.24-.09,1,2.4,3.71,3,4.92,5.36,1.81,3.49,3.22,7.54,6.71,9.69,2,1.24,4.62,1.6,6.66,3.09.42.3,1.22-.07,1.4-.75.67-2.45,1.66-1.06,2.65-.27,1.43,1.16,2.77,2.75,4.44.09.48-.75,1.68-.61,2.27.59s1-.31,1.47-.26C545.41,236.62,545.37,238.64,545.34,240.67ZM511.7,230.06c.1.52.1,1.13.89,1.08a.36.36,0,0,0,.22-.23c.06-.78-.54-.8-1.07-.89a1.26,1.26,0,0,0-1.46-1.4c0-1.05.05-2.08-1.41-2.16-.08-.54-.1-1.13-.88-1.08a.31.31,0,0,0-.22.22c-.06.79.54.8,1.07.89,0,1,0,2.06,1.46,2.12A1.29,1.29,0,0,0,511.7,230.06ZM497.81,216.8c1.4,2.55,4.27,3.64,5.53,6.24.24.5.83.37,1.23.05s.82-1.12.32-1.54C502.71,219.72,500.83,217.39,497.81,216.8Zm-8-.55h6.89C494,214.77,492.14,214.63,489.77,216.25Z" transform="translate(-431.28 -52)"/><path class="cls-1" d="M490.37,301.5c-2.68,2.45-6.28,1-9.26,2.16l-5-2.26c-2.45-1.89-2.12-3.7-.16-5.86.76-.82,1.35-1.39,2.29-1,2.06.88-.15,1.11-.27,1.68-.34,1.53,1.4,1.18,2.06,1.89s1.59-.24,1.64-1c.23-3.83,2.5-3,4.65-2s3.61-.72,4.37-1.75c3.9-5.28,10-5.26,15.38-6.82l0,0c.26,1.62-.92,2.88-1,4.6,1.46-2,4.49-1,5.82-3.45.46-.87,1.74-.48,2.54.16s1.49,1.3.72,2.38-1.5,2.77.73,2.57c1.35-.13,4.35,2.31,4.28-1.78,0-2,2.14-2.43,3.19-3.67.31-.37,1.45-.28,2,.32a1.63,1.63,0,0,1-.34,2.26,46,46,0,0,0-5.88,7c-1.5,2-3.09.38-4.58-.68-.11.55-.16.89-.26,1.22-.45,1.57-1.82,3.56-2.91,2.83-1.78-1.2,1.05-1.71,1.36-2.83a28.26,28.26,0,0,1,1.49-3.54c-2,.11-2.62,1.45-3.44,2.66-1.71,2.52-3.47,5.13-6,6.84-1.62,1.09-4.11,3-4.91-1.2-.28-1.48-1.11-.91-2-.08-2.78,2.63-3.71,2.49-6.43-.6.85-.08,1.62-.29,1.83-1.26a.47.47,0,0,0-.6-.6C490.67,299.88,490.42,300.63,490.37,301.5Zm13.78-8.14c.09-.2.29-.44.23-.59s-.37-.19-.57-.28c-.09.21-.28.45-.23.6S504,293.27,504.15,293.36Z" transform="translate(-431.28 -52)"/><path class="cls-1" d="M508.15,235.75c.18,2.15-1.22,2.16-2.77,2.16-4.52,0-9.21-.75-13.53.2-7.2,1.58-12.27-.9-17.14-5.83-2.34-2.36-5.78-3.63-8.77-5.42a2,2,0,0,1,2.29-.9c2,.54,3.15.43,3.84-2.07.4-1.44,2.7-1.84,4.43-1.8,1.06,0,2.11.34,3.16-.11-.94-1.88-3.23-.48-4.36-1.84l3.37-1.62c1.45,2.26,4-.47,5.18.88,1.88,2.12,4.9,2.59,6.52,4.71,2,2.59,5.32,3.36,7.26,5.95.48.64,1.74,2.45,2.89,0,.51-1.09.88.35,1.33.54,2,.81,2.46,3.55,4.88,3.71h0a1.32,1.32,0,0,0,1.45,1.44ZM481,222.1c.84,2.89,2.77,3.33,5.31,4.61C484.81,224.15,483.18,223.33,481,222.1Z" transform="translate(-431.28 -52)"/><path class="cls-1" d="M543.86,235c-.52,0-.81,1.61-1.47.26s-1.79-1.34-2.27-.59c-1.67,2.66-3,1.07-4.44-.09-1-.79-2-2.18-2.65.27-.18.68-1,1-1.4.75-2-1.49-4.64-1.85-6.66-3.09-3.49-2.15-4.9-6.2-6.71-9.69-1.21-2.33-3.94-3-4.92-5.36-.14-.34-.88-.32-1.24.09-.59.68-.26,1.3.17,1.92,1.81,2.56,3.71,5.07,5.38,7.72a17.34,17.34,0,0,1,2.44,7.91c-2.88-5.05-5.74-10-10.46-13.62a2.73,2.73,0,0,1-1.29-2.41c.14-1.58-.88-1.34-1.48-.78-1.61,1.47-2.32.4-2.74-.92-.74-2.29-3.62-1.94-4.57-3.9a5.42,5.42,0,0,1,3.57-.36c0,.47-1.08,1.14-.58,1,1.38-.27,3.3,2.55,4.16-.6,4.78-1.09,9,1,13.39,2.29,7.74,2.33,15.28,5,20.14,12.15C541.72,230.19,543.46,232.25,543.86,235Z" transform="translate(-431.28 -52)"/><path class="cls-1" d="M542.24,188.59c1.18,0,1.7-.68,1.92-1.7a3.56,3.56,0,0,1,4.55-2.72c1.17.31,1.17.31,2.13-3.08,1.53.39.12,2.32,1.75,2.89.48-3.41,4.59-2.83,6.11-5.5-.52,3.28-.6,6.48,1.17,9.47.66-.56.17-2.51,2-1.62.57.28,1.63-.14,1.64.9s-1.11,1-1.76,1.46c-4.92,3.34-9.17,7.49-13.48,11.56-1.41,1.33-2.8,2.63-4.9,2.61C541.38,198.23,540.24,193.53,542.24,188.59Zm7.13-.27c4.06-2.21,3.6.3,4.24,1.78-.1-1.43,1-3-.42-4C552.47,185.61,551.21,186.18,549.37,188.32Z" transform="translate(-431.28 -52)"/><path class="cls-1" d="M588.41,405.7c0-4.89-1.86-6.33-6.92-5.86-1.8.17-3.71.23-5.47.38-3.22.28-3.78-1.26-4-3.68l5.78-3a104.57,104.57,0,0,0,30.08.69c-.28,1.61,1.59,1.13,2,2.07-.14,1.86-1.83,2-3,2.59-2.79,1.35-4.19,3.62-5.25,6.43-.5,1.35-1,3.25-3.05,3.5-.69.09-1.4.58-1.94-.12s-.1-1.32.32-1.91c.14-.19.41-.4.4-.58-.17-1.73,2.71-4.17-.4-5-2.1-.6-5.36-1.74-6.62,2a3.39,3.39,0,0,1-1.9,2.43Z" transform="translate(-431.28 -52)"/><path class="cls-1" d="M629.93,351.6c-.4-1.06-1.52-.94-2.4-1.45,3.17.41,5-1.16,6.14-3.79.19-.43.49-.81.72-1.22.72-1.31,3.74-.84,3-2.84-.68-1.8-3.27-1.95-4.93-3-.53-.33-1.33-.23-2.71-.43,1.72-.31,3.55-.33,3.62-.69.79-4.18,5.36-6.36,5.59-10.76,3,2,4.42,5.42,7,7.78,2.27,2-.44,3.78-.59,5.69,2.14,1.84,5.26-2.47,7,1.26C645.64,346.94,637.67,349,629.93,351.6Zm5.59-12.92c-.22.16-.48.26-.5.4a.63.63,0,0,0,.23.54.44.44,0,0,0,.62-.49C635.86,339,635.64,338.83,635.52,338.68Z" transform="translate(-431.28 -52)"/><path class="cls-1" d="M563.72,135.64c-.29-2.23,1.33-3.63,2.29-5.32.32-.56,2.09,0,1.2-1.44-.58-1-1.42-.89-2.47-.5a62.45,62.45,0,0,1-11.14,3.44,15,15,0,0,1-4.92.13c1.27-1.25,3.61-1.14,3.89-3.41,0-.18.38-.49.43-.46,3.63,2.09,5.4-1.89,8.19-2.63,3.7-1,6.17-4.23,9-6.92-5.94,2.1-11.57,5.29-18.35,4.52.49-2.28,1.67-3.23,4.11-4,4.36-1.28,9.64-.74,12.65-5.34.87-1.32,1.54-3.1,3.74-2.38A49.68,49.68,0,0,1,571,127.25c-.49,1.85-2.78,2.67-2.34,4.84a1.2,1.2,0,0,0-.66,1.37v0c-1.8,0-2.39,2.28-4.22,2.2Z" transform="translate(-431.28 -52)"/><path class="cls-1" d="M567.43,223.54c.21-1.51,1.27-1.84,2.28-1.12s.47,1.9-.47,2.27c-2.87,1.16.86,1,.37,2.14-1.15,2.6-.68,5.57-1.11,8.35-.2,1.34-1.67,1.59-2.72,2a17.87,17.87,0,0,0-7.11,4.9c-1.12,1.37-2.92.48-4.36.89-1.9-2.64-1.24-5.81-1.82-8.73,2.34-1.64,2.55-4.34,3.18-6.93,1.6.56.7,2,1.39,2.73.2-.07.52-.09.6-.23a6,6,0,0,1,5.85-3.26c.82,0,2.52-.1,2-1.12-1.55-3.12,1.22-1.41,1.92-1.94l.29.17Zm-4.43,5-.17-.23-.2.19.28.29Z" transform="translate(-431.28 -52)"/><path class="cls-1" d="M563.24,280.71a17.62,17.62,0,0,0,7.85-4.43c.61-.54,1-1.46,2-1.12,1.27.47.24,1.37.22,2.09,0,1.06-.06,2.13,0,3.19,0,.72.19,1.68,1.16,1.21,3.58-1.72,7.6.48,11.15-1.62-.33,5.58-1,6.11-6.22,6.4-2.87.16-5.88.07-8.4,1.91-2.63-.28-4.75,1.81-7.37,1.58C561.42,286.93,562.38,283.82,563.24,280.71Z" transform="translate(-431.28 -52)"/><path class="cls-1" d="M594,317.08c-4.64-1.43-6.72,2.23-9.48,4.79,1.17-3.76,3.36-6.89,5-10.4a27,27,0,0,0-7.4,7.18c-.62.86-1.22,1.75-1.92,2.55a2.24,2.24,0,0,1-2.57.75.78.78,0,0,1-.46-1.15c.38-.8.19-2.05,1.45-2.21s2.05.33.76-1.51c-.81-1.17,2.12-2.09,2.93-4.1-2.23.38-4.26.22-5.08,2.64-.31.9-.88.48-1.42.33-2.3-.63-3.47.6-3.64,2.63-.26,3.15-2,2.84-4.08,2.05-.24-3.19,2.27-4.74,4.31-6A33,33,0,0,1,588,310.09c6.14-.31,12.23-.53,18.09,1.8-2,2.45-4.39,2.72-7.14,1.61v0l1.58-1.21c-4.49-3.34-6.24,2.68-10,2.41,1,1.53,3.31.2,3.38,2.38Z" transform="translate(-431.28 -52)"/><path class="cls-1" d="M619,389.79a20,20,0,0,1,3.41-4.74,8.14,8.14,0,0,0,2.38-5.95c0-1.77.42-3.23,2.57-3.57a1.82,1.82,0,0,0,1.53-2.64c-1.1-2.16.33-2.89,1.65-3.81,2.18,1.77,5.58,2.92,6,5.66.51,2.93-3.24,3.94-5,5.72C627.87,384.1,624.23,388.06,619,389.79Z" transform="translate(-431.28 -52)"/><path class="cls-1" d="M603.3,319.23c.1,1.37-1.13,1.92-1.75,3.12,1.39-.34,3.35,2.87,4.06-1.29.36-2.12,2.37-.89,2.71.15,1,3.13,2.7,1.77,4.18.81a15.94,15.94,0,0,1,6.4-2.8c1.33-.18,1.65-1.16,2.2-2,2.09-.53,2.61.79,2.89,2.43-.55,3.19-3.73,1.85-5.52,3-1.51,1-3.55,1.36-4.61,3-1.33,2.06-3.43,2.46-5.48,2.84-1.14.22-3.15.83-2.42-1.92.43-1.63-1-1.4-2.06-1.61-3.19-.64-5.63,1.5-8.47,2.18l0,0c1.36-3.87,3.71-6.76,7.83-7.89Z" transform="translate(-431.28 -52)"/><path class="cls-1" d="M544.7,307.13c.18,2.17-1,3.11-3,2.88-3.25-.37-5.64,2.12-8.71,2.53-1.56.21-1.4,2.5-1.87,3.92h0c-2.85-1.91-6.55-1.45-9.43-3.39-.74-.5-1.37-.85-1.4-1.8,3.78-2.66,7.92-4.12,12.56-3.41C536.89,308.48,540.68,306.09,544.7,307.13Z" transform="translate(-431.28 -52)"/><path class="cls-1" d="M506.73,234.34c-2.42-.16-2.89-2.9-4.88-3.71-.45-.19-.82-1.63-1.33-.54-1.15,2.42-2.41.61-2.89,0-1.94-2.59-5.28-3.36-7.26-5.95-1.62-2.12-4.64-2.59-6.52-4.71-1.2-1.35-3.73,1.38-5.18-.88a9,9,0,0,1,5.62-2.47c.23,1.41,1.31,1.6,2.48,2.06,8,3.13,14.25,8.73,19.74,15.21C506.71,233.55,506.66,234,506.73,234.34Z" transform="translate(-431.28 -52)"/><path class="cls-1" d="M571.76,247.11a4,4,0,0,0-.82-1.91c-.61-1.07-3.53-1.14-2-2.85,1.23-1.37,2.54-4,5.86-1.6,2.33,1.66,4.72,4,8,4.28a1.33,1.33,0,0,1,1.05,1.92c-1.38,3.4,1.37,2.59,2.94,3-.64,1.6-2.16,1.3-3.41,1.57-4.2-.63-7.48-3.67-11.64-4.42Z" transform="translate(-431.28 -52)"/><path class="cls-1" d="M459.27,108.32c.66-.75.37-3.44,2.51-.82s3.65-1.22,6.44-.31c-1.73-2.24-3-2.35-4.45-1.81-.88.33-1.34,0-1.52-.86-.11-.55-.56-1.11-.08-1.66.63-.72,1.29-.24,1.93,0,2.38,1,4.76,2,7.15,3,.93.38,1.9.79,1.46,2-.37,1-1.34.65-2.15.54-3-.44-5.07.81-6.31,3.57,1.62.77,3.44-.42,5,1a15.7,15.7,0,0,1-6.66.76A11,11,0,0,1,459.27,108.32Z" transform="translate(-431.28 -52)"/><path class="cls-1" d="M573.23,254c-.48-2.69-3.09-2.28-4.55-2.38-3.84-.26-4-3.44-4.48-5.61-.43-2,1.72-2,3.3-1.25s2.54,2.12,4.26,2.35h0c2.45,2.15,4.17,5.31,7.89,5.7a4.87,4.87,0,0,1-2.83.76l-2.07.14Z" transform="translate(-431.28 -52)"/><path class="cls-1" d="M629,231.43c-7.67.53-14.22-2.48-20.47-6.46-.87-.56-1.82-1.15-1.25-2.12a1.89,1.89,0,0,1,3.08-.21c2.78,2.67,6.61,3.34,9.73,5.36,2.42,1.56,5.08,2.6,8.07,1.53,1.2-.44,1.72.36,2.22,1.21C630.17,231.38,629.59,231.37,629,231.43Z" transform="translate(-431.28 -52)"/><path class="cls-1" d="M517.64,368.65a8.21,8.21,0,0,1-.61,1.13c-4-1.49-8.2.36-12.18-.88-.69-.21-2.13,0-1.51-1.58l1-.74c.8.08,1.24-.24,1.25-1.08a.42.42,0,0,1,.37-.43l.2-.15,1.33-.65c2.06.86,3.34,3.52,6.39,2.2,1.44-.63,1.91,2.36,3.75,2.14Z" transform="translate(-431.28 -52)"/><path class="cls-1" d="M472.3,208.1a4.41,4.41,0,0,1,4.36-3.79c2.62-.21,4.64-1.92,6.77-3.24,1.9-1.17,3.75-2.31,6-2.49l.11.11a26.19,26.19,0,0,1-14.24,8.54c-.76.16-1.38.3-1.54,1.16A1.3,1.3,0,0,1,472.3,208.1Z" transform="translate(-431.28 -52)"/><path class="cls-1" d="M517.61,368.61c-1.84.22-2.31-2.77-3.75-2.14-3.05,1.32-4.33-1.34-6.39-2.2a9.92,9.92,0,0,1,3-4.19C513.38,362.48,516.66,364.57,517.61,368.61Z" transform="translate(-431.28 -52)"/><path class="cls-1" d="M527.28,116.42c.63-1.45-2.3-1.23-1.33-3,1.22-2.28,1.89-4.87,3.27-7,.41-.66,2.13.21,2.87,1.23l-.06.24c-2.95,1.15-3.78,4-1.71,5.78v1.32c-1.1.32-1.76,1.55-3,1.51Z" transform="translate(-431.28 -52)"/><path class="cls-1" d="M579.63,252.8c-3.72-.39-5.44-3.55-7.89-5.7,4.16.75,7.44,3.79,11.64,4.42A6.57,6.57,0,0,1,579.63,252.8Z" transform="translate(-431.28 -52)"/><path class="cls-1" d="M621.22,401.48c-.07,3.69-.63,4.17-6.12,4.75,2.8-1.23,1.89-4.69,4.56-5.54Z" transform="translate(-431.28 -52)"/><path class="cls-1" d="M554.5,287.09a10,10,0,0,1-1.74-.1c-2-.47-4.26-.82-1.8-3.59.33-.37.34-1,.68-2.19,1,1.93,1.18,3.87,3,4.5Z" transform="translate(-431.28 -52)"/><path class="cls-1" d="M565.59,213.1c1.58-1.64,3.68-2.49,5.61-3.6l.53.49c-1.89,1.2-2,5.18-5.65,3.64Z" transform="translate(-431.28 -52)"/><path class="cls-1" d="M530.32,113.6c-2.07-1.82-1.24-4.63,1.71-5.78Z" transform="translate(-431.28 -52)"/><path class="cls-1" d="M555,261.83c.13,2,.25,3.95.39,6.23C553.79,265.75,553.67,264.8,555,261.83Z" transform="translate(-431.28 -52)"/><path class="cls-1" d="M448.05,149.36l5.93-1.13c-1.16,2.55-3.37,1.61-5.21,1.87Z" transform="translate(-431.28 -52)"/><path class="cls-1" d="M444.26,145.88c1.94.11,3.88.64,6.52-.41-1.47,1.95-3.16,1.76-4.29,2.57A3.75,3.75,0,0,1,444.26,145.88Z" transform="translate(-431.28 -52)"/><path class="cls-1" d="M506.7,213.56c-.86,3.15-2.78.33-4.16.6-.5.1.54-.57.58-1l1.44.07,1,.26Z" transform="translate(-431.28 -52)"/><path class="cls-1" d="M505.57,365.5c0,.84-.45,1.16-1.25,1.08Z" transform="translate(-431.28 -52)"/><path class="cls-1" d="M574.73,253.7l2.07-.14A2.12,2.12,0,0,1,574.73,253.7Z" transform="translate(-431.28 -52)"/><path class="cls-1" d="M568,133.46a1.2,1.2,0,0,1,.66-1.37A1.18,1.18,0,0,1,568,133.46Z" transform="translate(-431.28 -52)"/><path class="cls-1" d="M613.45,314.12a1.27,1.27,0,0,1-1.6-.67Z" transform="translate(-431.28 -52)"/><path class="cls-1" d="M611.51,313.27l-1.09-.31Z" transform="translate(-431.28 -52)"/><path class="cls-1" d="M505.57,213.45l-1-.26Z" transform="translate(-431.28 -52)"/><path class="cls-1" d="M626.48,319.7l-1-.26C625.9,319.1,626.22,319.3,626.48,319.7Z" transform="translate(-431.28 -52)"/><polygon class="cls-1" points="74.86 312.93 74.67 313.07 74.63 312.83 74.86 312.93"/><path class="cls-1" d="M554.07,352.78l-7.83-2.8c1.75-2.3,4.3-3.62,6.7-4.94a15.87,15.87,0,0,0,8.47-11.68c2.59,3.78,1.21,8.06,1.73,12a171.82,171.82,0,0,1,1.22,25.27c0,.87.35,2.19-1.07,2.16s-1.27-1.3-1.22-2.4c.14-3.16,1.32-6.16.68-9.48C561.8,355.9,558.59,353.75,554.07,352.78Z" transform="translate(-431.28 -52)"/><path class="cls-1" d="M584.06,352.78l3.54.77c-.88,1.69-2.56,1.87-4.14,2.07-9.63,1.17-16.7,8.21-14.4,19.39.15.73,1.27,1.93-.61,2.07-1.3.09-1.4-.83-1.54-1.87-1.3-10.12-.58-20.34-1.47-30.77C570.16,350.91,576.93,352.26,584.06,352.78Z" transform="translate(-431.28 -52)"/><path class="cls-1" d="M611.22,364.21a3.3,3.3,0,0,0-4.47.82c-1.57,2.32-3.09,4.66-4.79,6.91s-8.08,4.24-10.55,2.88c-1-.54-.63-1.48-.07-1.63,3.49-.93,4-4.93,6.83-6.48.46-.25.85-1.2,1.34-.42,2.13,3.43,3.76.12,4.26-.8,1.35-2.49,3.63-3.92,5.59-6.15a14.77,14.77,0,0,0,1.84,4.89Z" transform="translate(-431.28 -52)"/><path class="cls-1" d="M513.94,282.2c.46-.88-1.08-2.24.46-2.73a2.82,2.82,0,0,1,3.26.79,16.46,16.46,0,0,0,1.29,1.21c.91.94,1.8.17,2.63-.09,1.33-.41.57-1.31.24-2-1.22-2.45.5-2.17,2-2.17.77,0,1.24.67,1.85.89,2.36.89,5.67,2,5,4.49-.59,2.11-4.17,1-6.37.65-1.45-.26-2.54.3-3.75.63-2.53.69-4.89.9-6.56-1.69Z" transform="translate(-431.28 -52)"/><path class="cls-1" d="M577.76,393.58l-5.78,3c-1.85.16-2.29,2.21-4.09,3l0-13.89C570.63,389.23,574.61,390.83,577.76,393.58Z" transform="translate(-431.28 -52)"/><path class="cls-1" d="M579.07,363.54c0-1.35-.42-2.78,2.08-2.59.87.07,2.07-1.95,2.8-3.2.5-.86.85-1,1.56-.5a.83.83,0,0,1,0,1.47c-2.11,1.34-1.88,4-3.28,5.69-.69.82-.6,2.74-2.19,2.27C578.7,366.28,579.13,364.69,579.07,363.54Z" transform="translate(-431.28 -52)"/><path class="cls-1" d="M476.79,286.53a10.57,10.57,0,0,0,7.86,0h0l.73.73h0c-.07.46,0,1.08-.22,1.35-1.3,1.39-9.13,2.23-11.34,1.2,1-1.1,5.8,1.05,3-3.25Z" transform="translate(-431.28 -52)"/><path class="cls-1" d="M484.65,286.52c.1-1,.69-1.35,1.66-1.43,3.24-.29,6.21,1.07,9.39,1.39-3.44.59-6.69,3.29-10.34.75h0l-.73-.73Z" transform="translate(-431.28 -52)"/><path class="cls-1" d="M507.82,338.57c-2.2.25-3.76.14-4.15-2.09-.29-1.63.91-1.42,1.75-1.36,2,.14,4.69.25,5.19,2.1S508.61,338.35,507.82,338.57Z" transform="translate(-431.28 -52)"/><path class="cls-1" d="M531.82,281.71a11.16,11.16,0,0,0,4-.19c1.31-.31,2,.75,2,1.83s-1.14.82-1.88.88C534.31,284.38,532.75,284.19,531.82,281.71Z" transform="translate(-431.28 -52)"/><path class="cls-1" d="M588.4,405.68c-.69,3.91-1,4.22-4.84,3.92,1.89-1.31,1.35-4.87,4.85-3.9Z" transform="translate(-431.28 -52)"/><path class="cls-1" d="M513.93,282.19c-.93,2.7-4.27,3.08-6.44.74l0,0,6.42-.7Z" transform="translate(-431.28 -52)"/><path class="cls-1" d="M521.85,330.79c-1.48,1.38-2.58.51-3.59-.63-.49-.56-.87-1.23-.16-1.85a1.16,1.16,0,0,1,1.61.12c.77.72,1.47,1.52,2.2,2.29Z" transform="translate(-431.28 -52)"/><path class="cls-1" d="M602.22,408.1c1.58-3.5,3.24-2,4.9-.57C605.6,408.07,604.14,409,602.22,408.1Z" transform="translate(-431.28 -52)"/><path class="cls-1" d="M543.45,284.84c-3.14.52-4.11-1-4.48-3.5C541.34,281.45,541.93,283.57,543.45,284.84Z" transform="translate(-431.28 -52)"/><path class="cls-1" d="M497.6,285.36c2.81.11,5.29-1.81,9.11-1.27C503.15,285.57,500.43,286,497.6,285.36Z" transform="translate(-431.28 -52)"/><path class="cls-1" d="M531.13,316.46c.64.07,1.43-.22,1.77.59.06.13-.3.62-.52.65-.92.16-1.13-.52-1.25-1.24Z" transform="translate(-431.28 -52)"/><path class="cls-1" d="M614.1,388.5c-.09.52-.07,1.14-.86,1.09a.34.34,0,0,1-.22-.23c0-.78.56-.77,1.08-.85Z" transform="translate(-431.28 -52)"/><path class="cls-1" d="M526.87,363.43c-.14-.17-.38-.32-.38-.48a.44.44,0,0,1,.67-.42.61.61,0,0,1,.22.57C527.34,363.24,527.05,363.31,526.87,363.43Z" transform="translate(-431.28 -52)"/><path class="cls-1" d="M476.79,286.53c-.52-.09-1.13-.07-1.08-.86a.31.31,0,0,1,.22-.22c.79-.05.78.56.86,1.08Z" transform="translate(-431.28 -52)"/><path class="cls-1" d="M525.78,286.18a1.81,1.81,0,0,1,.11.41s-.17.06-.26.08Z" transform="translate(-431.28 -52)"/><path class="cls-1" d="M506.09,286.5l.75-.51c.18.83-.51.32-.77.49Z" transform="translate(-431.28 -52)"/><path class="cls-1" d="M521.91,330.72l.87.31a1.65,1.65,0,0,1-.18.23c-.26-.14-.5-.31-.75-.47Z" transform="translate(-431.28 -52)"/><path class="cls-1" d="M582.54,303.53l-.15.3.16-.29Z" transform="translate(-431.28 -52)"/><path class="cls-1" d="M507.49,282.93l-.29-.32.32.29Z" transform="translate(-431.28 -52)"/><path class="cls-1" d="M582.55,303.54l.16-.3-.17.29Z" transform="translate(-431.28 -52)"/><path class="cls-1" d="M520.22,158.59c-5.81-1.89-11.61-3.79-17.42-5.65a139.94,139.94,0,0,0-15.8-3.59c-3.07-.62-5.94-1.12-6.66-5.11-.48-2.64-2.43-4.76-4-7-.58-.77-2.64-1.51-1.06-2.68,1.15-.85,3.45-.43,4,.84a4.12,4.12,0,0,0,2.42,2.24c2.11,1,4.57.82,3.15,5-1,3,3.33,2.82,6.4,3.48-2.55-5.46-4.89-10.29-9.57-13.55-.72-.5-2.11-.68-1.78-1.88s1.63-.59,2.5-.69c2.68-.31,4.14,2,6.15,3.06.9.49,1.54,1.52,2.81.76-.44-2.36-2.71-2.8-4.42-4.37,4.48-.12,8,1.93,11.7,3.12,1.19.39,2.16.92,3-.46a1.69,1.69,0,0,0,1.21,1.93c2.32,1,4,2.92,6.05,4.34,3.19,2.25,6.74,5,8.15,8C518.65,150,520.25,154.25,520.22,158.59Z" transform="translate(-431.28 -52)"/><path class="cls-1" d="M495.82,105c.12-.74-.32-2,.91-1.9,1,0,2.52.73,2.57,1.6.17,3.42,3.52,2.94,5.1,4.56l0,0a1.41,1.41,0,0,0,.57,1.53c0,3.1,1.84,5.6,2.86,9.35a13.77,13.77,0,0,0-2.6-9.57l-.15-1.29.08-.08c1.81,1.64,5.49,1.71,4.43,5.78a3.08,3.08,0,0,0,2.19,3.14c1.74.29,2-1.64,2.42-3,.55-1.74-.3-3.75,1.14-5.35a117.9,117.9,0,0,0-1,20.14,7.87,7.87,0,0,1-4-.74l-1.69-.88c-.59-3.48-4.24-3.55-6.21-5.51-1.47-1.45-3.44-2.39-4.53-4.28,2.76-2.29,1.06-4.7,0-7.1v7.09c-2.73-.65-4.06-2.25-4.43-5.17-.78-6.12-2.63-11.85-8.82-15.85,3.84-.66,5.62,2,8.08,2.59.09,0,.19.4.13.52-1.71,3.24,1.2,3.38,2.89,4.34-.15,1.61.67,2.69,2,3.8C498.22,106.8,497.16,105.85,495.82,105Z" transform="translate(-431.28 -52)"/><path class="cls-1" d="M479.38,147.31c-7.43-1.27-14.87-2.5-22.3-3.82-4.62-.83-9.21-1.82-13.82-2.72-.57-.11-1.31,0-1.32-.81a1.45,1.45,0,0,1,.72-1.13c2-.47,3.58-3.09,6.27-1.24,1.15.79,3.5,2.26,3.46-1.32,0-.21.45-.64.65-.61,3.1.38,6.22-1.2,9.33.14.77.33,1.29.53,1,1.45-.22.69,0,1.24.76,1.12a4.47,4.47,0,0,0,2-.76c.64-.49.09-1-.26-1.5l-2.66-3.59a19,19,0,0,1,8.4,5c2.67,2.59,4.57,6,7.74,8.24.27.2.19.9.27,1.36Zm-21.17-10.53c-.21.08-.52.12-.58.26s.13.39.21.6c.2-.08.51-.12.57-.26S458.29,137,458.21,136.78Z" transform="translate(-431.28 -52)"/><path class="cls-1" d="M576.26,174.92c-1-3,0-3.83,2.6-3,1.18.38.56-.61.71-.95.59-1.26,1.25-2.58,1.67-3.79.88-2.48,2.19-2.56,4.48-1.49-.4-1.89-2.11-1.43-2.61-2.39,3.18-.37,4.28.2,6,3.17,1.58-4.21,5.88-3.45,8.92-5,.65-.33,1.37.32,1.4,1.18,0,1.16.42,2.51-.82,3.26s-2.57,1.22-3.82,1.9c-4.15,2.25-8.07,5.17-12.48,6.63-3.53,1.17-5.3,4.5-8.74,5.45-1,.27-2,1.79-2.77,1-1.16-1.26-.58-3.15-.27-4.75.2-1.08.85-2,2.2-1.87C573.77,174.37,574.79,174.64,576.26,174.92Z" transform="translate(-431.28 -52)"/><path class="cls-1" d="M508.74,128.4l1.69.88c1.94,4,3.88,7.92,6.13,12.49.25-2.54-1-3.93-1.65-5.44-.76-1.86-.93-2.59,1.46-3,4.71-.77,4.8-.9,3.66,3.65-1.67,6.67-1.49,13.08,2.1,19.15l.69.69,0,0a.37.37,0,0,0-.11.48c0,2.19-1,2.24-2.52,1.24,0-4.34-1.57-8.62-3.24-12.14-1.41-3-5-5.76-8.15-8-2-1.42-3.73-3.32-6.05-4.34a1.69,1.69,0,0,1-1.21-1.93C503.63,130.28,507.3,131.46,508.74,128.4Z" transform="translate(-431.28 -52)"/><path class="cls-1" d="M522.74,157.35a.37.37,0,0,1,.11-.48,4.22,4.22,0,0,0,.52-.85c.12-.34-.12-.46-.32-.14a2.94,2.94,0,0,0-.23,1l-.69-.69a20.08,20.08,0,0,1,2.58-5.41c1.07-1.74,2-1.72,3.3,0,.27-3.9,2.08-4.4,6.47-2.15l0,0c.52,1.43.33,3.08,1.45,4.3h0c1,1.17,2.43,2.22.72,3.92-.3.3-.45,1.09-.88.92-4.5-1.77-3,2.7-4.35,4.16-.79.84.07,2.75-1.43,2.95-1.68.22-1.92-1.89-2.89-2.53C525.1,161,526,157.26,522.74,157.35Z" transform="translate(-431.28 -52)"/><path class="cls-1" d="M550.78,119.32a3.38,3.38,0,0,1-1,3c-.66-.73-1.94-1-1.39-2.51.39-1-.31-1.51-1.15-1.87a8.3,8.3,0,0,1-5-8.32c.25-1.64,1.33-2.35,2.37-1.29,2.35,2.4,6.13,3,7.52,6.77.79,2.15.86,3.24-1.25,4.13l-.4-.28Zm-1.66-2.48c-.08,0-.21.08-.24.14s0,.2,0,.3l.38-.19Z" transform="translate(-431.28 -52)"/><path class="cls-1" d="M576.36,182.9c3.18-2.2,8.6-1.57,11.28.61.53.44.81,1.41,1.6,1.27,3.36-.58,5.7,1.74,8.38,3.19C590.13,189,584,184.37,576.36,182.9Z" transform="translate(-431.28 -52)"/><path class="cls-1" d="M591.2,191.61c-5.6,2.91-10.1,3.26-16.9,1.65,2-2.63,4-4,7.51-2.83A27.62,27.62,0,0,0,591.2,191.61Z" transform="translate(-431.28 -52)"/><path class="cls-1" d="M544.26,140.85c-1.2.41-1.85.23-1.8-.5a2.33,2.33,0,0,1,2.22-2.38c4.1.33,7.82-.94,11.63-2.08.88-.27,2.64.06,2.91,1.39.31,1.54-1.4,1.47-2.25,1.65A70.89,70.89,0,0,1,544.26,140.85Z" transform="translate(-431.28 -52)"/><path class="cls-1" d="M462.36,158.7c2.39-2.35,6.43,0,7.5-2.4,1.68-3.76,5.19-3.09,7.77-4.54a3.87,3.87,0,0,1,1.44-.11C475.21,156.94,466.73,160.62,462.36,158.7Z" transform="translate(-431.28 -52)"/><path class="cls-1" d="M465.12,203.94c5.82-2,10-7.21,16.21-8.33C476.82,200.1,472,204,465.12,203.94Z" transform="translate(-431.28 -52)"/><path class="cls-1" d="M599,182.11a42.06,42.06,0,0,1-8.85-2.4,1.56,1.56,0,0,1-.93-1c-.11-.77.63-.75,1.18-1a5.73,5.73,0,0,1,4.47.21c1.53.64,3,1.36,4.59,1.9.8.27,2,.3,1.89,1.25C601.21,182.56,599.82,181.81,599,182.11Z" transform="translate(-431.28 -52)"/><path class="cls-1" d="M534.48,148.57a9.88,9.88,0,0,0-.74-2c-.62-1-1.64-1.76-.14-2.89,1.29-1,2.83-1.7,4.14-1s.75,2.38,0,3.46-.59,3.79-3.25,2.33Z" transform="translate(-431.28 -52)"/><path class="cls-1" d="M544.86,131.55c-1.2-1.29-2.83-1.47-4.38-1.93a1.65,1.65,0,0,1-1.36-1.82c.2-.92,1.13-.62,1.79-.67C545.55,126.73,546.51,127.75,544.86,131.55Z" transform="translate(-431.28 -52)"/><path class="cls-1" d="M548.29,146.89c1.85-1.29,3.71-2.6,6.16-2.64.65,0,1.55-.23,1.78.66s-.54,1.2-1.24,1.37c-2.12.51-4.25,1-6.37,1.48Z" transform="translate(-431.28 -52)"/><path class="cls-1" d="M525.91,118.62c-.13,3.67-2.38,6.46-3.74,9.62a10,10,0,0,1,3.62-9.73Z" transform="translate(-431.28 -52)"/><path class="cls-1" d="M547.59,160.22c-2.78,1.94-5,2.67-7.51,2.3a1.19,1.19,0,0,1-.19-.85C542,160.15,544.27,159.76,547.59,160.22Z" transform="translate(-431.28 -52)"/><path class="cls-1" d="M492.33,158.62c.8-1.28,1.54-2.61,2.44-3.81a1.37,1.37,0,0,1,1.9-.23c.86.63.16,1.25-.29,1.71-1.12,1.16-2.09,2.61-4,2.34Z" transform="translate(-431.28 -52)"/><path class="cls-1" d="M490.9,160.05c-1,2.22-3,2.77-5.12,3.28a5.43,5.43,0,0,1,5.13-3.27Z" transform="translate(-431.28 -52)"/><path class="cls-1" d="M459.51,187.24c1.27,0,2.58-.19,3.79,1.18h-5.84c.26-1,1.73-.18,2-1.18Z" transform="translate(-431.28 -52)"/><path class="cls-1" d="M489.47,198.58c.09-1.13,0-2.37,1.81-2.6.2,1.45-.23,2.36-1.7,2.71Z" transform="translate(-431.28 -52)"/><path class="cls-1" d="M563.76,135.69c-.47.88-1.06,1.53-2.24,1.21,0-1.65,1.34-1.09,2.2-1.26Z" transform="translate(-431.28 -52)"/><path class="cls-1" d="M527.29,116.43c0,1,0,2-1.38,2.19l-.12-.11a2.24,2.24,0,0,1,1.49-2.09Z" transform="translate(-431.28 -52)"/><path class="cls-1" d="M492.34,158.63a1.31,1.31,0,0,1-1.44,1.42h0a1.28,1.28,0,0,1,1.42-1.44Z" transform="translate(-431.28 -52)"/><path class="cls-1" d="M535.91,152.85a1.16,1.16,0,0,1,1.4-.55c.08,0,.11.18.17.28l-1.58.26Z" transform="translate(-431.28 -52)"/><path class="cls-1" d="M498.31,153.33a2.25,2.25,0,0,1-.4.1s-.05-.16-.08-.24Z" transform="translate(-431.28 -52)"/><path class="cls-1" d="M504.4,109.3c.13-.31-.11-.88.49-.85.11,0,.19.53.29.81l-.08.08a3.1,3.1,0,0,0-.68,0Z" transform="translate(-431.28 -52)"/><path class="cls-1" d="M479.56,147.12l.24.42-.42-.23Z" transform="translate(-431.28 -52)"/><path class="cls-1" d="M496.63,171.49l-.29-.3.3.28Z" transform="translate(-431.28 -52)"/><path class="cls-1" d="M459.5,187.25l-.28-.3c.06,0,.15,0,.18.05a.66.66,0,0,1,.11.24Z" transform="translate(-431.28 -52)"/><path class="cls-1" d="M622.19,212.89c-.72-3.34.57-4.1,3.08-3.74,3.12.44,3.94-2.51,5.56-4.13,1-1,1.77-1.78,3.18-1.37.74,1.46-2.44,1.19-1.06,2.73,1.67,1.87,3.64,3.14,6.47,2.38l.11,1.19-27.64,8.51c1.36-1.59,2.68-2.93,1.44-5.24-.4-.72.61-2,1.3-1.67C617.06,212.68,619.84,209.52,622.19,212.89Z" transform="translate(-431.28 -52)"/><path class="cls-1" d="M584.87,207.37c.72.34,1.26,1,1,1.69-1.47,3.75-1.84,7.85-3.77,11.43a2.85,2.85,0,0,1-1.25,1.23c-1.52.62-2.2.76-.37,2.32,1.32,1.12.82,3.63.22,5.4s-2.88.81-4.26,1.72c-.86.57-1.33-1-1-1.66,2-4.5.76-10.3,5.39-13.75.58-.43.6-.75.35-1.45-1.17-3.22,2.52-4.28,3.13-6.75C584.27,207.45,584.65,207.43,584.87,207.37Z" transform="translate(-431.28 -52)"/><path class="cls-1" d="M586,236.37c-2.73.92-2.88-1.48-3.38-2.93s1.08-1.09,1.86-1.46c2-1,2.82.41,3,1.77.25,2.41,1.82,3,3.66,3.21,1.51.19,2.4.47,3,2.21.87,2.42,4.13,1.8,5.91,3.45-2.67,1.07-11.67-3-14-6.26l.16-.26Z" transform="translate(-431.28 -52)"/><path class="cls-1" d="M592.45,224.94c2.6-3.58,5.06.09,5.66,1.08,2.33,3.85,6.5,3.59,9.71,5.32.39.22,1.06.1,1.32.38.67.73,2.19,1.2,1.63,2.44s-1.86.25-2.49,0c-4.79-2.3-10.17-3.48-14.19-7.32-.62-.59-.16-2.12-1.65-1.87Z" transform="translate(-431.28 -52)"/><path class="cls-1" d="M566.08,213.63c3.66,1.54,3.76-2.44,5.65-3.64.58-.08,1.35-.43,1.71-.19a1.11,1.11,0,0,1-.14,1.81c-2,1.19-1.67,3.13-2,4.93-.7,3.64-.76,3.63-5.62,4.67C566.08,218.63,567.5,216.13,566.08,213.63Z" transform="translate(-431.28 -52)"/><path class="cls-1" d="M502.94,239.55c-2,4.31-5.18,6.36-7.9,8.8-.79.71-1.88.12-2.58-.52-1-.93.37-1.31.57-2,.59-1.94,2.5-2.91,3.37-4.81C496.89,240,500.06,240.12,502.94,239.55Z" transform="translate(-431.28 -52)"/><path class="cls-1" d="M490.44,241a52,52,0,0,1-9.56,12.3c-.55.55-1.54,1.47-2.43.46-.55-.62-.57-2,0-2.29,4.52-2.36,5.55-8.2,10.34-10.22A11.19,11.19,0,0,1,490.44,241Z" transform="translate(-431.28 -52)"/><path class="cls-1" d="M616.27,218.9a5.12,5.12,0,0,1,5.64.93c1.81,1.61,4.11,2.22,6.08,3.46.66.42,2.37-.27,1.85,1.34-.4,1.26-1.72,1.05-2.78.71-3.51-1.16-6.82-2.68-9.41-5.47A7.73,7.73,0,0,0,616.27,218.9Z" transform="translate(-431.28 -52)"/><path class="cls-1" d="M576.66,236.41c1.58,2.59,4.05,1.41,6.28,1.51.24,0,.46.45.68.69-1.47.69-1.2,3.39-2.47,3.3a10.33,10.33,0,0,1-6.75-3.2C573.39,237.58,575.59,237.2,576.66,236.41Z" transform="translate(-431.28 -52)"/><path class="cls-1" d="M484.33,256.62c2.29-2.19,2.88-5.88,6.41-6.79.92-.24,2-.93,2.63-.08.81,1.07-.45,1.69-1.14,2.18C489.73,253.7,488,256.7,484.33,256.62Z" transform="translate(-431.28 -52)"/><path class="cls-1" d="M570.43,227.88c1.22.34,2,.53,2.77.77a1.65,1.65,0,0,1,1.26,2.18,10.52,10.52,0,0,1-2.59,3.58c-1.15,1-2.36.58-2.24-1.18S570.17,229.55,570.43,227.88Z" transform="translate(-431.28 -52)"/><path class="cls-1" d="M559.16,222.24c0-.59,4.33-4.79,4.75-4.69.61.13.79.87.58,1-1.74,1.45-.35,4.54-2.67,5.4C561,224.32,559.82,223.09,559.16,222.24Z" transform="translate(-431.28 -52)"/><path class="cls-1" d="M471.1,239.15c-2.2,2.19-4.37,1.58-6.42,1.53a1.18,1.18,0,0,1-1.16-1.11c0-.75.65-.89,1.24-.87C466.69,238.76,468.66,238.4,471.1,239.15Z" transform="translate(-431.28 -52)"/><path class="cls-1" d="M472.42,239.07c2.05-.53,3.68-.62,5.06-1.47a1.11,1.11,0,0,1,1.73.62c.34,1.06-.62,1.3-1.24,1.14C476.31,238.93,474.63,240.44,472.42,239.07Z" transform="translate(-431.28 -52)"/><path class="cls-1" d="M592.44,224.92c-.27,2.12-2.19,1.52-3.35,1.77s-.87-1.1-.83-1.84c.06-1.2.86-.83,1.48-.52a5,5,0,0,0,2.71.61Z" transform="translate(-431.28 -52)"/><path class="cls-1" d="M590.43,247c-2.34,0-3.21-1.6-5.26-2.06C588,244.34,588,244.34,590.43,247Z" transform="translate(-431.28 -52)"/><path class="cls-1" d="M480.85,258.82c.26-.76.41-1.65,1.55-1.41.17,0,.43.31.41.44-.19,1.17-1.31.58-1.93,1l.09-.17Z" transform="translate(-431.28 -52)"/><path class="cls-1" d="M579.8,235.21c.08.21.27.46.21.6s-.38.17-.58.25c-.08-.2-.27-.45-.21-.59S579.6,235.29,579.8,235.21Z" transform="translate(-431.28 -52)"/><path class="cls-1" d="M623.28,338.52a78.05,78.05,0,0,0-17.39-3.34c-2.46-.17-4.94-.69-7.33.28-.67.27-1.24.94-1.54-.25a1.18,1.18,0,0,1,1-1.6,3.76,3.76,0,0,1,1.06-.07,202.4,202.4,0,0,1,29.44,4.18c-1.51,3.1-3.54-.12-5.12.72l-.35-.27Z" transform="translate(-431.28 -52)"/><path class="cls-1" d="M599,313.5a8.48,8.48,0,0,1-4.55,6.83c-1.1.63-1.23,3.3-2.57,2.1s.68-2.54,1.5-3.73a7,7,0,0,0,.64-1.62l0,0c2-.81,2.6-3.42,5-3.58Z" transform="translate(-431.28 -52)"/><path class="cls-1" d="M585.61,347.79c-1.67,0-2.05-1.3-2.22-2.61-.23-1.73,1.34-1.81,2.35-2a1.81,1.81,0,0,1,2.28,2A2.63,2.63,0,0,1,585.61,347.79Z" transform="translate(-431.28 -52)"/><path class="cls-1" d="M625.92,324.35l-7.63,4.42C618.8,326.05,621.71,324.4,625.92,324.35Z" transform="translate(-431.28 -52)"/><path class="cls-1" d="M595,334c-3.68.35-6.4,1.26-9.35-.66C588.73,332.19,591.39,332.94,595,334Z" transform="translate(-431.28 -52)"/><path class="cls-1" d="M603.28,319.21c1.23-3.69,4.53-2.83,7.33-3l-7.31,3.06Z" transform="translate(-431.28 -52)"/><path class="cls-1" d="M595.43,327.08c-.06.45,0,1-.65,1.07-.11,0-.41-.27-.39-.39.09-.6.62-.57,1.06-.66Z" transform="translate(-431.28 -52)"/><path class="cls-1" d="M574.06,318l.35.45-.63.5c-.09-.18-.26-.38-.23-.54S573.83,318.21,574.06,318Z" transform="translate(-431.28 -52)"/><path class="cls-1" d="M604.2,330c.1-.18.15-.44.29-.51s.35.08.54.13c-.1.18-.16.42-.31.51S604.39,330.06,604.2,330Z" transform="translate(-431.28 -52)"/><path class="cls-1" d="M596.51,271.91c2.08-.47,3.12-2.05,5.37-1.75C600.5,272.2,599.81,274.56,596.51,271.91Z" transform="translate(-431.28 -52)"/><path class="cls-1" d="M574.58,272c0,.61-.12,1.31-.82,1.23s-1.7-.31-1.65-1.37a1.25,1.25,0,0,1,1.19-1.06C574.19,270.7,574.54,271.21,574.58,272Z" transform="translate(-431.28 -52)"/><path class="cls-1" d="M567.52,274.67c.62.08.63.58.63,1s0,1-.66,1-.63-.56-.63-1S566.89,274.75,567.52,274.67Z" transform="translate(-431.28 -52)"/><path class="cls-1" d="M626.65,288.25c1.79-1.62,3.46-1,5.44,0Z" transform="translate(-431.28 -52)"/><path class="cls-1" d="M641.12,289.87h-3.64c1.83-.86,2.76-.91,3.63,0Z" transform="translate(-431.28 -52)"/><path class="cls-1" d="M604.68,280.65c-.1.52-.11,1.12-.89,1.07a.34.34,0,0,1-.22-.23c0-.78.56-.78,1.09-.86Z" transform="translate(-431.28 -52)"/><path class="cls-1" d="M634.55,288.93c.23-.17.38-.38.5-.37a9.5,9.5,0,0,1,1.13.31,1.85,1.85,0,0,1-.6.23A5,5,0,0,1,634.55,288.93Z" transform="translate(-431.28 -52)"/><path class="cls-1" d="M604.66,280.63l.31-.3c-.1.1-.2.21-.29.32Z" transform="translate(-431.28 -52)"/><path class="cls-1" d="M641.1,283.44l-.15.3.16-.29Z" transform="translate(-431.28 -52)"/><path class="cls-1" d="M494.51,183.63c-1.7.11-2.49-3-4.81-.75.3-1.57.39-3.31,1.25-3.13a4.73,4.73,0,0,1,3.56,3.87Z" transform="translate(-431.28 -52)"/><path class="cls-1" d="M500.25,177.87a6.67,6.67,0,0,1,3.39,1.45c-1.31,1.2-3,.53-4.2,1.33-.61-1.36,1-1.71.75-2.72Z" transform="translate(-431.28 -52)"/><path class="cls-1" d="M500.19,177.93a3,3,0,0,1-2.85-2.87l0,0a3.07,3.07,0,0,1,2.88,2.84Z" transform="translate(-431.28 -52)"/><path class="cls-1" d="M503.07,174.33c.52.09,1.14.07,1.08.87a.31.31,0,0,1-.22.22c-.79,0-.78-.56-.86-1.1Z" transform="translate(-431.28 -52)"/><path class="cls-1" d="M475,181.12c.2-.1.4-.27.59-.26s.36.2.54.31c-.19.1-.39.28-.57.27S475.2,181.24,475,181.12Z" transform="translate(-431.28 -52)"/><path class="cls-1" d="M494.51,183.62l.54.77-.27.18-.27-.94Z" transform="translate(-431.28 -52)"/><path class="cls-1" d="M514.78,183.1l-.11-.26.39-.07a.59.59,0,0,1,0,.27C515,183.09,514.86,183.08,514.78,183.1Z" transform="translate(-431.28 -52)"/><path class="cls-1" d="M544.05,364.31a1.86,1.86,0,0,1-1-2.61c1.5.57.82,1.77,1,2.61Z" transform="translate(-431.28 -52)"/><path class="cls-1" d="M544.05,364.31c1.42.09,1.45,1.1,1.44,2.14h0c-1.42-.09-1.43-1.11-1.44-2.14Z" transform="translate(-431.28 -52)"/><path class="cls-1" d="M545.49,366.45c1.44.06,1.41,1.12,1.43,2.14h0c-1.41-.1-1.42-1.12-1.43-2.15Z" transform="translate(-431.28 -52)"/><path class="cls-1" d="M546.92,368.59l.28.15-.28-.14Z" transform="translate(-431.28 -52)"/><path class="cls-1" d="M488.63,114.41c-2.24.16-3.78-1.84-5.9-2.12,2.65-1.49,4.3.41,6,2Z" transform="translate(-431.28 -52)"/><path class="cls-1" d="M484.43,119.35c1-1.1,2.4-1.5,4.54-2.5-1.44,2.63-3,2.49-4.56,2.48Z" transform="translate(-431.28 -52)"/><path class="cls-1" d="M484.41,119.33c-.08.74-.27,1.42-1.21,1.28-.22,0-.6-.51-.54-.64.33-.83,1.13-.51,1.77-.62Z" transform="translate(-431.28 -52)"/><path class="cls-1" d="M460.29,104.73c-.2.1-.37.27-.55.27s-.35-.16-.53-.25c.18-.1.35-.27.52-.27S460.09,104.63,460.29,104.73Z" transform="translate(-431.28 -52)"/><path class="cls-1" d="M481.26,102l.1.25-.37.07a.76.76,0,0,1,.06-.27S481.19,102,481.26,102Z" transform="translate(-431.28 -52)"/><path class="cls-1" d="M489.37,115.09l-.74-.68.14-.13.69.72Z" transform="translate(-431.28 -52)"/><path class="cls-1" d="M615.87,372.33c.81-1.71,1.49-3.51,3.9-4.72C619.19,370.29,618.11,371.76,615.87,372.33Z" transform="translate(-431.28 -52)"/><path class="cls-1" d="M615.53,365.67c.15,2.05-.79,3-2.84,2.87l-.09-.08a3,3,0,0,1,2.87-2.85Z" transform="translate(-431.28 -52)"/><path class="cls-1" d="M615.47,365.61c.08-.86.28-1.66,1.29-1.85a.5.5,0,0,1,.62.62c-.18,1-1,1.2-1.85,1.29Z" transform="translate(-431.28 -52)"/><path class="cls-1" d="M598.37,380c.52.08,1.14.06,1.09.86a.35.35,0,0,1-.23.23c-.79,0-.78-.57-.85-1.1Z" transform="translate(-431.28 -52)"/><path class="cls-1" d="M525.38,94a1.25,1.25,0,0,1-.4.1s-.05-.16-.08-.25Z" transform="translate(-431.28 -52)"/><path class="cls-1" d="M524.57,79.56c0,.09-.06.24-.09.24a.81.81,0,0,1-.29-.09c0-.08.06-.23.09-.24A1.08,1.08,0,0,1,524.57,79.56Z" transform="translate(-431.28 -52)"/><path class="cls-1" d="M519.38,78.57l.29.31c-.07,0-.15,0-.19-.06a.88.88,0,0,1-.11-.24Z" transform="translate(-431.28 -52)"/><path class="cls-1" d="M497.81,216.8c3,.59,4.9,2.92,7.08,4.75.5.42.18,1.13-.32,1.54s-1,.45-1.23-.05C502.08,220.44,499.21,219.35,497.81,216.8Z" transform="translate(-431.28 -52)"/><path class="cls-1" d="M489.77,216.25c2.37-1.62,4.25-1.48,6.89,0Z" transform="translate(-431.28 -52)"/><path class="cls-1" d="M508.87,226.46c1.46.08,1.45,1.11,1.41,2.16h0c-1.44-.06-1.47-1.07-1.46-2.12Z" transform="translate(-431.28 -52)"/><path class="cls-1" d="M508.84,226.49c-.53-.09-1.13-.1-1.07-.89a.31.31,0,0,1,.22-.22c.78,0,.8.54.88,1.08Z" transform="translate(-431.28 -52)"/><path class="cls-1" d="M508.17,235.77a1.32,1.32,0,0,1-1.45-1.44A1.34,1.34,0,0,1,508.17,235.77Z" transform="translate(-431.28 -52)"/><path class="cls-1" d="M511.74,230c.53.09,1.13.11,1.07.89a.36.36,0,0,1-.22.23c-.79.05-.79-.56-.89-1.08Z" transform="translate(-431.28 -52)"/><path class="cls-1" d="M511.7,230.06a1.29,1.29,0,0,1-1.4-1.45h0a1.26,1.26,0,0,1,1.46,1.4Z" transform="translate(-431.28 -52)"/><path class="cls-1" d="M490.37,301.5c.05-.87.3-1.62,1.26-1.83a.47.47,0,0,1,.6.6c-.21,1-1,1.18-1.83,1.26Z" transform="translate(-431.28 -52)"/><path class="cls-1" d="M504.15,293.36c-.2-.09-.51-.13-.57-.27s.14-.39.23-.6c.2.09.52.14.57.28S504.24,293.16,504.15,293.36Z" transform="translate(-431.28 -52)"/><path class="cls-1" d="M481,222.1c2.15,1.23,3.78,2.05,5.31,4.61C483.8,225.43,481.87,225,481,222.1Z" transform="translate(-431.28 -52)"/><path class="cls-1" d="M549.37,188.32c1.84-2.14,3.1-2.71,3.82-2.22,1.39,1,.32,2.57.42,4C553,188.62,553.43,186.11,549.37,188.32Z" transform="translate(-431.28 -52)"/><path class="cls-1" d="M635.52,338.68c.12.15.34.3.35.45a.44.44,0,0,1-.62.49.63.63,0,0,1-.23-.54C635,338.94,635.3,338.84,635.52,338.68Z" transform="translate(-431.28 -52)"/><path class="cls-1" d="M563,228.49l-.09.25-.28-.29.2-.19Z" transform="translate(-431.28 -52)"/><path class="cls-1" d="M567.43,223.54l.3.16-.29-.17Z" transform="translate(-431.28 -52)"/><path class="cls-1" d="M599,313.52c-2.41.16-3.06,2.77-5,3.58-.07-2.18-2.41-.85-3.38-2.38,3.73.27,5.48-5.75,10-2.41Z" transform="translate(-431.28 -52)"/><path class="cls-1" d="M484.64,286.51l.73.73Z" transform="translate(-431.28 -52)"/><path class="cls-1" d="M505.25,110.63a13.77,13.77,0,0,1,2.6,9.57c-1-3.75-2.84-6.25-2.86-9.35Z" transform="translate(-431.28 -52)"/><path class="cls-1" d="M498,118.6v-7.09c1.08,2.4,2.78,4.81,0,7.1Z" transform="translate(-431.28 -52)"/><path class="cls-1" d="M495.82,105c1.34.81,2.4,1.76,2,3.79-1.32-1.11-2.14-2.19-2-3.8Z" transform="translate(-431.28 -52)"/><path class="cls-1" d="M504.42,109.32a3.1,3.1,0,0,1,.68,0l.15,1.29-.26.22A1.41,1.41,0,0,1,504.42,109.32Z" transform="translate(-431.28 -52)"/><path class="cls-1" d="M458.21,136.78c.08.21.26.46.2.6s-.37.18-.57.26c-.08-.21-.27-.46-.21-.6S458,136.86,458.21,136.78Z" transform="translate(-431.28 -52)"/><path class="cls-1" d="M522.82,156.84a2.94,2.94,0,0,1,.23-1c.2-.32.44-.2.32.14a4.22,4.22,0,0,1-.52.85Z" transform="translate(-431.28 -52)"/><path class="cls-1" d="M549.12,116.84l.17.25-.38.19c0-.1-.06-.21,0-.3S549,116.89,549.12,116.84Z" transform="translate(-431.28 -52)"/><path class="cls-1" d="M550.78,119.32l-.26-.41.4.28Z" transform="translate(-431.28 -52)"/><path class="cls-1" d="M586,236.37l.15-.27-.16.26Z" transform="translate(-431.28 -52)"/><path class="cls-1" d="M623.28,338.52l-.27-.35.35.27Z" transform="translate(-431.28 -52)"/></svg>