<svg id="Layer_1" data-name="Layer 1" xmlns="http://www.w3.org/2000/svg" viewBox="0 0 333.82 432"><defs><style>.cls-1{fill:#99c864;}.cls-2{fill:#fff;}</style></defs><title>hemlock</title><path class="cls-1" d="M224.26,257c2-1,4.11-2,6-3.12,4.25-2.61,7.32-6.83,13.65-6.89l-3.22-.25,8.44-5.53,1.26.81c-1.62,2-2.91,4.23-4.95,5.84-6.09,4.8-12.24,9.59-18.82,13.93-5.11,3.38-5.76,7.77-6.28,12.79,5.26-.07,7.82-2.37,8.72-5.3,2.16-.29,3.87-.18,5.15-.74,9-3.86,17.81-7.9,26.75-11.79a44.15,44.15,0,0,1,5.53-1.58l.9,1.49-13.16,6.21-5.64,11.58,15-7,1.66,2-27.36,18.82,9.39,1.67c.16.6.33,1.2.49,1.79-9.37.31-15.59,3.74-17.83,11.27,6.82-1,11.92-4,14.88-9.68l.7,2c2,.15,4.17.71,6.07.37,6.07-1.08,12-2.5,18-3.78l.33,1.23-4.87,7.26-2-5.13-7.91,14,8.31,2.13L256.87,321l-.9-.28q.63-4.25,1.27-8.51l-1.52-.08c-1.94,14.62-8.24,28.24-14.27,41.91-1,2.2-3.15,4-4.27,6.2a8.74,8.74,0,0,0,.69,9.6c.44.64-.69,2.88-1.65,3.17-2.44.74-4.5,2.85-7.93,1.3-1.35-.61-4,.73-5.4,1,.3,1.9,1.18,3.55.65,4.77-3.2,7.27-6.7,14.45-10.15,21.64-.21.46-.79.79-2,1-2.13-6.91,2.76-13,4.19-20.05C198.7,389,184,398.05,166.54,402l-.59-1c2-.88,4-1.78,6-2.63,14.28-6,28.64-11.89,42.84-18,6.81-2.94,8.52-9.29,12.58-14,.68-.8-1.16-3.76-2.69-5-10-8.38-23.48-8.63-36.4-10.52-8.32-1.23-16,.6-24,1.34-1.82.17-3.68,0-5.52,0l-1-1.69,4.74-1.49-.93-1-10.44-3.22c12-2.53,23.84,3.24,36.29-.95-3.11-1.54-5.76-2.68-8.15-4.12-1-.57-1.34-1.79-2-2.72a14.86,14.86,0,0,1,4-.18,26.26,26.26,0,0,1,6,2.19c9.4,4.91,19.75,5.06,30.66,4.35-.36-2.78-1.12-4.78-4.67-6.44-5.08-2.37-9.29-6-14.11-8.78-15.9-9.24-32.06-18.11-51.26-22.23-2.65-.57-5.32-1.07-7.9-1.9,10.86-1,19.55,6,30.37,5.78-7.34-4.86-11.37-12.8-22.08-14-6.45-.72-12.77-2.26-19.12-3.51a9.46,9.46,0,0,1-4.72-2.45l50.83-8.56c-5.76-6.84-11.16-8.62-20.15-7-9.25,1.65-18.53,3.16-27.82,4.65a57.32,57.32,0,0,1-5.89.34L121,277.8c4.94-1.32,9.8-2.88,14.83-3.91,5.89-1.22,12-1.88,17.88-3,1.37-.26,2.36-1.76,3.75-2.15a38.08,38.08,0,0,1,5.84-.66c1.16-.12,2.31-.28,3.46-.42-.69-.91-1.15-2.33-2.11-2.6-1.82-.52-3.93-.33-5.91-.53-2.81-.29-5.94-.13-8.34-1.13-2.81-1.17-4.92-3.43-7.47-5.08a4.23,4.23,0,0,0-2.83-.55c-5.28,1.44-8.84-1.5-13-2.84l.29-1.3a83.26,83.26,0,0,1,8.29,1.34c12.88,3.33,25.58,7.16,38.61,10,5.63,1.24,11.87.68,17.84.75.52,0,1.68-1.62,1.47-2.24a7.69,7.69,0,0,0-2.56-4.08c-2.37-1.59-5.41-2.5-7.93-4-11.16-6.5-22-13.41-33.49-19.45-3.48-1.82-8.82-1.16-13.24-1.91a63.34,63.34,0,0,1-7.48-2.19l.43-1.22h10.78c-3.46-5.51-11-4.19-15.24-8.42l44.31,3c-.65-4.14-3.39-6-9.1-5.56-7.37.56-14.82.59-22.24.64a23.86,23.86,0,0,1-8.16-1.54c12.67-2.44,25.34-3.79,39-1.66-.69-1.44-.79-2.54-1.37-2.74-5.82-2-11.53-5-17.62-5.7-11.68-1.36-23.59-1.41-35.4-2.07a37.87,37.87,0,0,1-4.59-.76l.07-1.54H141c-4.47-3.9-7.42-7.35-11.38-9.56-1.86-1-5.7.21-8.61.61-3.52.49-7,1.17-11.77,2l2.15-3.63-3.82-2.38,48.91-3.69c-1.84-1.8-2.65-3.41-3.85-3.63-5.39-1-10.89-2.25-16.34-2.2-9.11.08-18.2,1.13-27.31,1.66-2.38.13-4.8-.19-7.2-.3l-.19-1.69,20.89-3-.08-.88-10.94-3.53.37-2.16c13.55,7.22,25.73,3,37.92-2.44-4.08-.24-8.15-.58-12.24-.72-8.45-.28-16.91-.6-25.37-.63-5.78,0-11.27-.4-16.08-4.87,2.89-.76,5.65-1.87,8.54-2.18,7.87-.84,15.85-1.12,23.7-2.07,7.22-.88,14.33-2.34,21.48-3.55l.29-1.61c-2.41-.53-4.89-1.69-7.21-1.49-12.27,1-24.5,2.4-36.76,3.61-3.3.32-6.64.47-10,.7l-.53-1.46a41.25,41.25,0,0,1,6.28-1.66c9.44-1,18.92-1.69,28.34-2.74,2.51-.28,4.86-1.46,7.28-2.22l-.1-1.44c-2.79-.46-5.6-1.31-8.39-1.31-8.8,0-17.59.38-26.38.54a40.76,40.76,0,0,1-4.66-.43l-.14-1.66,24-2.91c-3.46-2.77-6.3-5.43-12-4.3-4.55.91-9.39.87-14.11,1.19-1.53.1-3.07,0-4.61,0l-.27-1.83,28.49-4L104.23,127l.62-1.7c2.45.33,5,.5,7.35,1,8.65,1.86,17.21,4,25.92,5.64,2.87.53,6.11-.27,9.18-.45,1.09-.07,2.18-.1,3.27-.17,1.27-.08,2.55-.19,3.83-.29-.34-1.16-.24-2.67-1.1-3.39-1.22-1-3.15-1.44-4.78-2.11-2.54-1-5-2.2-7.65-3a19.44,19.44,0,0,0-6.11-1.15c-13.45.26-26.94,1.19-40.17-2.21,18-2.58,36-.64,54.29-.81-.35-2.06-.66-2.88-4.26-2.75-17.39.63-34.81.64-52.22.81A5.21,5.21,0,0,1,89,114.92c18.64-2.31,37.42-1.4,56.07-2-1.57-7.27-5.08-10.07-14-8.61-12.59,2.07-25.34,3.49-38,5.1a51.51,51.51,0,0,1-6.34,0l-.25-1.27,44.76-7.92.47-1.1c-3.25-1-6.4-2.5-9.75-2.87-9-1-18.13-1.54-27.91-2.31,2.43-7,10.68-4.76,16-7.9L94.79,81.3l.48-1.49c5.79,1.17,12,1.65,17.3,3.68,8.71,3.32,16.28-.16,24.65-.39-8.43-10.71-16.22-20.6-24-30.5l2.1-1.17c1.72,2.11,3.51,4.2,5.15,6.36,1.75,2.31,3.36,4.68,5,7l1.23-.32-2.81-21.7c4.69,9.48,2.19,20.14,7.91,29.47,1.73-6.55,5.67-12.64,4.27-19.63-.46-2.31.35-4.79,1.45-7.11.3,5.66.34,11.36,1,17,.26,2,2.21,3.94,3.24,6,.73,1.44,1.2,3,2.11,5.25,3.24-5.07,5.82-9.6,9-13.85A103.18,103.18,0,0,1,163.52,48c-6,9.71-12.88,19-18,29l1.55.7L162,57.47l1.43.65A20.06,20.06,0,0,1,162.07,61c-4.31,6.32-9,12.48-12.85,19-1.42,2.44-.77,5.73-.89,8.63,0,.23,1.39.5,2.13.75-3.22,2.92-2.64,5.82-.52,8.58l23.43-17.19-.71-.7-22.47,9.49c1-1.08,1.64-2.52,2.92-3.18,8.14-4.2,16.29-8.4,24.7-12.22,4.08-1.85,8.69-2.92,13.12-4.2.74-.21,1.78.31,2.77.5C190.07,76,180.52,81.18,177.48,80L161,107.18l5.66-.71c-2.1,1.06-4.13,2.23-6.31,3.15-4.22,1.78-5.33,4.62-3.12,7L172,105.21l-5.52,1.4c1.06-5.09,1.7-5.19,8.28-4.8,2.22.13,4.59-1.47,7.64-2.54l2.11,4.8c6.54-2.42,11.35-8,18.94-8.76l.79,1.16c-6.91,4.11-13.56,8.55-20.79,12.21-5.58,2.83-6.77,7.5-9.18,12l31.51-11.14,1.1,1.91-27.11,11.14c0,2.9-.1,5.3,0,7.68a11,11,0,0,0,1,2.88c1.14-.36,2.64-.46,3.35-1.12,4.68-4.38,9.13-8.93,13.82-13.3,1.13-1,2.89-1.65,4.36-2.45l1.3,1.35c-3.84,4-7.67,8-11.53,12-5.37,5.54-10.93,11-16,16.64-1.59,1.76-2,4.23-3.36,7.29l36.66-11.87c1.83,5.51-5.17,6.54-7.08,10.66l11.54-1,.61,1.26a39.63,39.63,0,0,1-5.1,2.1c-4.33,1.14-9,1.66-13,3.23-2.74,1.06-4.7,3.47-7,5.27l1.28,1.24,35.53-13.9,1.05,1.4a37.22,37.22,0,0,1-4.26,2.63c-11.72,5.22-23.53,10.32-35.21,15.61-1.77.8-3,2.39-4.5,3.61l1,1,29.1-8.89,8.09,2.76-12.72,11.31.3.68,20.45-4.92c-1.93,3.37-.86,4.39,3.22,3.31-8.61,9.83-23.24,12.14-32.06,21.78,13.06-.46,19.27-9.52,29.45-11.91L231,190c-3.93,2.59-7.85,5.2-11.82,7.76-7.17,4.64-16.36,7.36-20.75,14.64-.4.66-.36,1.51-.78,3.42l33.63-19.09c-2.35,5.37-10.75,6.61-10.87,13.27l6.72-6.37c-.23,4.52-11.43,15.13-21.82,21.47,1-1.2,1.27-1.55,1.54-1.89a37.82,37.82,0,0,1,2.11-3.36c2.7-3.51,5.47-7,8.21-10.45l-1-.71c-2.13,1.21-4.28,2.41-6.41,3.63-4.78,2.74-5.69,6.27-2.83,10.89-.62.64-1.7,1.24-1.78,1.91-1.1,9.86-2.07,19.73-3,29.29,3.76,1.33,7.43-2.51,9.56,1.49.11.49.21,1,.31,1.49-2.4,1.56-4.8,3.12-7.22,4.66-1,.62-3,1.36-2.86,1.77.76,3,1.93,6,3,9l1.28.17c3.26-6.56,13.63-7.58,16.17-14.76C222.51,257.72,223.59,257.41,224.26,257ZM161,121.49c-.21,2.53-.41,5.06-.62,7.59l1.85.44,6-10.7-7.4,2.81c3-2.84,5.84-5.74,8.91-8.5,1.81-1.61,3.93-3,5.91-4.47l-1-.91-16.4,11.67Zm38.08,56,5.88-6.23-20.6,8.27c1.54,1-1.7,4.7,3.51,3.71l-3.18,4.64,1.57,1c4.27-2.28,8.81-4.29,12.75-6.91s7.16-5.75,10.7-8.66l-.78-.68Zm-15.44,101.4c4.28,4,9.48,1.67,14.44,1.92-.46-4-15.58-9.86-21.08-8.32l6.51,6.29-8.84-5.58c3.57,7.07,13.82,16.49,18.45,17ZM180,239.2l4.25,4.26,1.29-.6a19.78,19.78,0,0,0-5.3-12.18c-1.08-1.15-3-1.74-5.16-2.89,2,4.42,3.61,7.85,5.19,11.29-5.47-4.88-12.31-1.63-18.7-2.2,9.8,3.9,14.52,13.3,26.27,15.55C185,247.76,182.5,243.48,180,239.2Zm11.75-38.91c-.81,2.57-1.63,5.13-2.44,7.7l1,.19,6.23-5.38c-2.73-.61-6.12,1.79-4.78-2.52a17.14,17.14,0,0,1,1.77-2.21c2.57-2.33,5.21-4.6,7.82-6.89l1.79,2.32,22.81-12.61a86.81,86.81,0,0,0-17,3.61c-5,1.51-10.56,1.9-14.12,5.9-2.37,2.67-5.48,4.91-8,7.52-1.08,1.14-1.44,2.75-2.62,5.13Zm33.17,91c2.13,4.65-1.4,6.42-5.47,8.18-5.32,2.29-6.85,6.64-4.15,11,1.69-.89,3.65-1.57,5-2.73s2.13-2.82,3.36-4.55l1.9,5.73,1.53-.08c.83-4,1.72-8.08,2.47-12.13.89-4.89-.8-9.77,5.73-13.95,5.25-3.36,7.73-9.65,11.73-15a8.35,8.35,0,0,0-2.18.15c-7.34,3.84-14.75,7.61-21.94,11.65a7.77,7.77,0,0,0-3.42,4.18c-1,3.31-1.39,6.75-2.19,11Zm-68.59,1.33-.32.49c.76.23,1.52.45,2.27.69,11.75,3.71,23.46,7.49,35.26,11.08,1.81.55,4,.23,7.33.36-3.28-4.52-5.77-8.06-8.43-11.52a3.61,3.61,0,0,0-2.44-1.06C178.74,292.59,167.51,292.62,156.29,292.62Zm36,28.66,15.14,10,1.15-.77-4.75-6.77L212,326.5l1.32-.94c-2.51-3.72-4-9.17-7.78-10.75-5.58-2.3-12.4-6.23-19.41-2.13C186.76,316.14,194.63,315.58,192.24,321.28ZM114.49,165.63v1.3h34.86l-2.56-1.07h11.35c-.94-1.76-2.24-3.16-3.69-3.27C140.9,161.58,127.62,163.06,114.49,165.63ZM122,135.52l-.24,1.93c4.84,1.48,9.55,3.53,14.56,4.28,6.33,1,12.89.9,19.36,1.13.89,0,1.82-.8,2.72-1.23-.75-.58-1.39-1.46-2.28-1.68-5.48-1.34-10.93-2.95-16.54-3.66C133.78,135.56,127.83,135.74,122,135.52ZM243.19,331.4c7.69-8.64,8.51-10.33,6.69-14.2l-8.07,9.28-1.56-2.74-.94.24q-1.65,12-3.31,24l1.83.21c1.13-6.2,2.26-12.4,3.5-19.16ZM148.83,227.85c1.53,2.75,2.83,4.35,7.12,4.07,4.94-.32,10,.71,15,1.14,1.16.1,2.33.18,3.5.26-1.24-2.41-2.86-5.11-4.77-5.26C162.94,227.52,156.08,227.85,148.83,227.85Zm50.41,16.28c.83-4.42,1.76-9.45,2.89-15.49-3.91,2.16-6.89,3.61-9.56,5.37-1.94,1.29-.93,4.85,1.2,6.09A65.26,65.26,0,0,1,199.24,244.13Zm-30.93-65.72.85-1.32c-2-1.4-4-4.07-5.92-4-6.83.33-13.59,1.59-20.38,2.5L143,177Zm34.76,38.51c-9.23,3.59-13.19,9.49-10.31,14.41,1.91-1.47,3.59-3.33,5.83-4.38C203.48,224.65,203.35,221.15,203.07,216.92Zm-7.91-61.15c0-.09.29-1.86-.4-2.19-1.94-.9-4.62-2-6.41-1.57a89.35,89.35,0,0,0-13.64,5.13c-1.25.56-1.77,2.24-3,4,6.4-2.05,11.43-3.82,16.62-5.24C190.09,155.36,192.23,155.77,195.16,155.77Zm-19.45-28.34-1.08-.55c-2.85,2-6,3.86-8.43,6.17-1.31,1.24-1.53,3.31-2,5-.07.26,1.37,1.19,1.72,1.07,2.28-.81,5.41-1.37,6.44-2.87C174.15,133.66,174.66,130.42,175.71,127.43Zm-20.87,75.93-.16,1.67,19.61,2.36.92-.94c-2.2-1.59-4.28-4.37-6.63-4.53C164.08,201.61,159.43,202.79,154.84,203.36ZM237.26,305.8c-5,1.63-10.12,2.29-9.77,7.48.08,1.29,1.1,2.53,1.68,3.8,1.78-1,4.31-1.62,5.18-3C235.79,311.84,236.17,309.12,237.26,305.8ZM162.62,194.22c-4-3.37-12.25-3.09-18.78,0a20.88,20.88,0,0,0,4,1.48c3.13.46,6.31.67,9.73,1l-1.05-2.52ZM117.85,92.8c-4.61-4.59-13.78-4.75-19.46-.92ZM154.5,111l9-14.55C153.32,103.11,151,103.86,154.5,111Zm88.56,197.92,14.09-9.41c-3.41,0-6.33.88-9.33,1.47C242.86,301.92,242.32,304.67,243.06,308.89ZM213.52,273.2c-10.6,3.83-10.73,4.22-5.37,11.74C209.94,281,211.58,277.46,213.52,273.2ZM148.35,145.55c2.67,4.39,8,2.75,12,4.76C160.48,144.37,158.81,143.81,148.35,145.55Zm83.51,180.37L230,324.41c-2.52,1.68-5.31,3.17-7.4,5.16-.72.7.32,2.63.55,4l1.85.2Zm-74.3-128.11-18.79-1.46C147.17,201.72,150,201.94,157.56,197.81Zm14.3-58.34c-7.65,2.14-8.05,3.73-3.12,10.41ZM140.5,94.76l.76-2.24L124.84,90l-.47,1.62ZM184,306.14l-13.38-3.73C175.39,309.19,177.54,309.8,184,306.14Zm36.32,46.72,1.61-.52c-.25-1.31-.13-3.58-.8-3.75a55.59,55.59,0,0,0-8.45-1L212.3,349Zm-11.17-58.28,3,.87q1.69-4.41,3.41-8.82l-2-.59Q211.32,290.31,209.11,294.58ZM200,291.67c1-6.23-.57-7.32-6-6.05Zm-29-107c-.81-4.66-2.61-5.27-8.88-2.65ZM195.13,273c-.22-2.09-.38-3.62-.59-5.68l-7,2.62Zm-15.48-110.4L171.56,164l2,4.24Zm-43-66.32-.33,1,6.73,4.07c0-1.95.43-4.15-.07-4.31A32.44,32.44,0,0,0,136.7,96.26Z"/><path class="cls-2" d="M212,257.39l6.9-3.43c.33,1,.68,2.15,1.18,3.7l4.19-5.05V257c-.67.41-1.75.72-1.94,1.25-2.54,7.18-12.91,8.2-16.17,14.76l-1.28-.17c-1-3-2.2-6-3-9-.1-.41,1.88-1.15,2.86-1.77C207.19,260.51,209.59,259,212,257.39Z"/><path class="cls-2" d="M150.19,89.54l22.47-9.49.71.7L149.94,97.94c-2.12-2.76-2.7-5.66.52-8.58Z"/><path class="cls-2" d="M224.88,291.29l-7.63,3.45c.8-4.23,1.17-7.67,2.19-11a7.77,7.77,0,0,1,3.42-4.18c7.19-4,14.6-7.81,21.94-11.65a8.35,8.35,0,0,1,2.18-.15c-4,5.38-6.48,11.67-11.73,15-6.53,4.18-4.84,9.06-5.73,13.95-.75,4.05-1.64,8.09-2.47,12.13l-1.53.08-1.9-5.73c-1.23,1.73-2,3.37-3.36,4.55s-3.31,1.84-5,2.73c-2.7-4.41-1.17-8.76,4.15-11C223.48,297.71,227,295.94,224.88,291.29Z"/><path class="cls-2" d="M156.29,292.62c11.22,0,22.45,0,33.67,0a3.61,3.61,0,0,1,2.44,1.06c2.66,3.46,5.15,7,8.43,11.52-3.3-.13-5.52.19-7.33-.36-11.8-3.59-23.51-7.37-35.26-11.08-.75-.24-1.51-.46-2.27-.69Z"/><path class="cls-2" d="M192.24,321.28c2.39-5.7-5.48-5.14-6.1-8.6,7-4.1,13.83-.17,19.41,2.13,3.82,1.58,5.27,7,7.78,10.75l-1.32.94-8.23-2.75,4.75,6.77-1.15.77Z"/><path class="cls-2" d="M191.73,200.28l-7.6,2.77c1.18-2.38,1.54-4,2.62-5.13,2.49-2.61,5.6-4.85,8-7.52,3.56-4,9.17-4.39,14.12-5.9a86.81,86.81,0,0,1,17-3.61L203.08,193.5l-1.79-2.32c-2.61,2.29-5.25,4.56-7.82,6.89a17.14,17.14,0,0,0-1.77,2.21Z"/><path class="cls-2" d="M114.49,165.63c13.13-2.57,26.41-4,40-3,1.45.11,2.75,1.51,3.69,3.27H146.78l2.56,1.07H114.48Z"/><path class="cls-2" d="M180,239.2c2.54,4.28,5.08,8.56,7.84,13.23-11.75-2.25-16.47-11.65-26.27-15.55,6.39.57,13.23-2.68,18.71,2.19Z"/><path class="cls-2" d="M122,135.52c5.86.22,11.81,0,17.58.77,5.61.71,11.06,2.32,16.54,3.66.89.22,1.53,1.1,2.28,1.68-.9.43-1.83,1.26-2.72,1.23-6.47-.23-13-.17-19.36-1.13-5-.75-9.72-2.8-14.56-4.28Z"/><path class="cls-2" d="M243.19,331.4,241.33,329c-1.24,6.76-2.37,13-3.5,19.16L236,348q1.65-12,3.31-24l.94-.24,1.56,2.74,8.07-9.28C251.7,321.07,250.88,322.76,243.19,331.4Z"/><path class="cls-2" d="M183.53,278.81,177,272.52c5.5-1.54,20.62,4.31,21.08,8.32-5-.25-10.16,2.11-14.44-1.92Z"/><path class="cls-2" d="M148.83,227.85c7.25,0,14.11-.33,20.88.21,1.91.15,3.53,2.85,4.77,5.26-1.17-.08-2.34-.16-3.5-.26-5-.43-10.09-1.46-15-1.14C151.66,232.2,150.36,230.6,148.83,227.85Z"/><path class="cls-2" d="M199.1,177.52l9.85-4.86.78.68c-3.54,2.91-6.82,6.09-10.7,8.66s-8.48,4.63-12.75,6.91l-1.57-1,3.18-4.64Z"/><path class="cls-2" d="M199.24,244.13a65.26,65.26,0,0,0-5.47-4c-2.13-1.24-3.14-4.8-1.2-6.09,2.67-1.76,5.65-3.21,9.56-5.37C201,234.68,200.07,239.71,199.24,244.13Z"/><path class="cls-2" d="M168.31,178.41,143,177l-.15-1.34c6.79-.91,13.55-2.17,20.38-2.5,1.87-.1,3.94,2.57,5.92,4Z"/><path class="cls-2" d="M203.07,216.92c.28,4.23.41,7.73-4.48,10-2.24,1.05-3.92,2.91-5.83,4.38C189.88,226.41,193.84,220.51,203.07,216.92Z"/><path class="cls-2" d="M195.16,155.77c-2.93,0-5.07-.41-6.85.08-5.19,1.42-10.22,3.19-16.62,5.24,1.25-1.71,1.77-3.39,3-4A89.35,89.35,0,0,1,188.35,152c1.79-.47,4.47.67,6.41,1.57C195.45,153.91,195.15,155.68,195.16,155.77Z"/><path class="cls-2" d="M175.71,127.43c-1.05,3-1.56,6.23-3.37,8.86-1,1.5-4.16,2.06-6.44,2.87-.35.12-1.79-.81-1.72-1.07.49-1.73.71-3.8,2-5,2.45-2.31,5.58-4.14,8.43-6.17Z"/><path class="cls-2" d="M199.1,177.52l-11.21,5.75c-5.21,1-2-2.71-3.51-3.71l20.6-8.27Z"/><path class="cls-2" d="M183.53,278.81l.13.11,9.48,11.35c-4.63-.55-14.88-10-18.45-17Z"/><path class="cls-2" d="M154.84,203.36c4.59-.57,9.24-1.75,13.74-1.44,2.35.16,4.43,2.94,6.63,4.53l-.92.94L154.68,205Z"/><path class="cls-2" d="M237.26,305.8c-1.09,3.32-1.47,6-2.91,8.3-.87,1.36-3.4,2-5.18,3-.58-1.27-1.6-2.51-1.68-3.8C227.14,308.09,232.21,307.43,237.26,305.8Z"/><path class="cls-2" d="M206.94,223.21c-2.86-4.62-1.95-8.15,2.83-10.89,2.13-1.22,4.28-2.42,6.41-3.63l1,.71c-2.74,3.48-5.51,6.94-8.21,10.45a37.82,37.82,0,0,0-2.11,3.36Z"/><path class="cls-2" d="M180,239.2l.28-.13c-1.59-3.43-3.16-6.86-5.2-11.28,2.12,1.15,4.08,1.74,5.16,2.89a19.78,19.78,0,0,1,5.3,12.18l-1.29.6Z"/><path class="cls-2" d="M162.62,194.22h-6.06l1.05,2.52c-3.42-.33-6.6-.54-9.73-1a20.88,20.88,0,0,1-4-1.48C150.37,191.13,158.63,190.85,162.62,194.22Z"/><path class="cls-2" d="M117.85,92.8l-19.46-.92C104.07,88.05,113.24,88.21,117.85,92.8Z"/><path class="cls-2" d="M154.5,111c-3.46-7.11-1.18-7.86,9-14.55Z"/><path class="cls-2" d="M243.06,308.89c-.74-4.22-.2-7,4.76-7.94,3-.59,5.92-1.46,9.33-1.47Z"/><path class="cls-2" d="M213.52,273.2c-1.94,4.26-3.58,7.83-5.37,11.74C202.79,277.42,202.92,277,213.52,273.2Z"/><path class="cls-2" d="M166.45,106.61l5.52-1.4-14.78,11.37c-2.21-2.34-1.1-5.18,3.12-7,2.18-.92,4.21-2.09,6.31-3.15Z"/><path class="cls-2" d="M148.35,145.55c10.46-1.74,12.13-1.18,12,4.76C156.37,148.3,151,149.94,148.35,145.55Z"/><path class="cls-2" d="M231.86,325.92,225,333.77l-1.85-.2c-.23-1.37-1.27-3.3-.55-4,2.09-2,4.88-3.48,7.4-5.16Z"/><path class="cls-2" d="M157.56,197.81c-7.61,4.13-10.39,3.91-18.79-1.46Z"/><path class="cls-2" d="M160.84,121.63l7.4-2.81-6,10.7-1.85-.44c.21-2.53.41-5.06.62-7.59Z"/><path class="cls-2" d="M171.86,139.47l-3.12,10.41C163.81,143.2,164.21,141.61,171.86,139.47Z"/><path class="cls-2" d="M140.5,94.76l-16.13-3.11.47-1.62,16.42,2.49Z"/><path class="cls-2" d="M184,306.14c-6.42,3.66-8.57,3.05-13.38-3.73Z"/><path class="cls-2" d="M220.28,352.86l-8-3.88.34-1.38a55.59,55.59,0,0,1,8.45,1c.67.17.55,2.44.8,3.75Z"/><path class="cls-2" d="M160.84,121.63l.18-.14-2.77-2.07,16.4-11.67,1,.91c-2,1.48-4.1,2.86-5.91,4.47C166.68,115.89,163.8,118.79,160.84,121.63Z"/><path class="cls-2" d="M209.11,294.58q2.22-4.26,4.43-8.54l2,.59q-1.71,4.41-3.41,8.82Z"/><path class="cls-2" d="M200,291.67l-6-6.05C199.43,284.35,201,285.44,200,291.67Z"/><path class="cls-2" d="M191.7,200.28c-1.34,4.31,2.05,1.91,4.78,2.52l-6.23,5.38-1-.19c.81-2.57,1.63-5.13,2.45-7.71Z"/><path class="cls-2" d="M171,184.66,162.16,182C168.43,179.39,170.23,180,171,184.66Z"/><path class="cls-2" d="M195.13,273l-7.56-3.06,7-2.62C194.75,269.36,194.91,270.89,195.13,273Z"/><path class="cls-2" d="M179.65,162.58l-6.07,5.68-2-4.24Z"/><path class="cls-2" d="M136.7,96.26A32.44,32.44,0,0,1,143,97c.5.16.07,2.36.07,4.31l-6.73-4.07Z"/></svg>