<svg id="Layer_1" data-name="Layer 1" xmlns="http://www.w3.org/2000/svg" viewBox="0 0 333.82 432"><defs><style>.cls-1{fill:#99c864;}</style></defs><title>holly</title><path class="cls-1" d="M189.08,62.66c-.88,6.11-2.38,12.42-2.59,18.78-.68,19.5,11.34,38.52,29.36,46,13.11,5.43,25.88,4.12,37.48-4.63l2.27-1.69c.07,0,.19,0-.38,0-2.34,6.75-5.47,13.54-7,20.67-4.56,21.1-.92,40.69,13,57.66,12.65,15.37,32.63,20.37,51.31,13.23.61-.23,1.23-.44,2.61-.93-41,38.7-61.4,85.51-61.06,142.14a1585.86,1585.86,0,0,1-81.11-166A1809.06,1809.06,0,0,0,242.3,360.2c-18-19.21-39-34-63.54-43.58a172.18,172.18,0,0,0-76.13-11.19c2.07-1,4.19-1.88,6.19-3,24.88-13.85,25.33-49.26.85-64.05C99,232,87.46,229.2,75.12,229.26l-2.36,0c23.24-12.85,35.44-31.89,31.79-58.4S84.05,129,57.8,122.94c20.27-2.5,36.19-11.53,46.4-29S115,58.14,107.29,39.36c2.46,2.81,4.85,5.69,7.4,8.41,8.64,9.22,18.36,17.08,29.77,22.62,15.62,7.6,31.59,4.9,44.08-7.25C188.81,62.88,189.11,62.64,189.08,62.66Z"/></svg>