<svg id="Layer_1" data-name="Layer 1" xmlns="http://www.w3.org/2000/svg" viewBox="0 0 333.82 432"><defs><style>.cls-1{fill:#8dc63f;}.cls-2{fill:#fff;}</style></defs><title>honeylocust</title><path class="cls-1" d="M231.41,84.43c7.29-2.12,15,3.67,16.34,12.2.15.92.1,2.33.64,2.65,6.84,4,8.08,11.86,12.33,17.63.68.93.51,2.53.64,3.83.39,4.07.55,7.93,3.41,11.59,1.57,2,.49,5.88,1.06,8.84,1.33,7,.75,13.4-3.68,19.36-2.26,3.05-1.87,6.18,2,8.19,1,.5,2.42,1.72,2.3,2.36-1.5,8.08,3.5,16.58-2.06,24.51-2,2.91-2.69,7-3.33,10.6-.44,2.48.66,4.41,3.69,5.56,2.33.89,3.68,4.14,6,5.39,4,2.14,1,5,1.41,7.41,1.77,10-4.69,16.46-10.24,22.9-4.39,5.09-10.16,9-16,14.05l21.94,13.83c-.63,1.35-1.38,2.94-2.13,4.53l1.3.2c0,2.09.67,4.49-.12,6.22-3,6.53-5,13.61-10.13,19-.76.81-1.28,1.87-2.07,2.64-4.21,4.11-8.66,8-12.69,12.29-7.75,8.22-17.09,14.14-26.94,19.39-1.31.7-2.67,1.31-4,1.94q6.58,3.94,12.75,7.62c-1.12,10.13-8.41,15.78-15.24,21.5-13.65,11.42-29.45,18.7-47.16,20.3-8.46.76-17.17-1.12-25.75-2-3.45-.34-6.86-1.11-10.53-1.73l.64-4.77L122,385.86l-1.58-.54,9.69-40.2-1.24-.32q-4.27,15.57-8.54,31.15l-1.23-.18q-.78-2.67-1.54-5.34l-.64.17c.39,4.93.77,9.87,1.24,15.94-2.55-1.8-3.52-2.73-4.68-3.26C91,372.91,74.57,356.44,62.34,334.84c-7.74-13.68-12.5-28.2-16.82-43-1-3.54,0-7.68.09-11.55l8.92,2.44c-5.35-29.76-5.05-59.87,1.2-91.35,10.46,7.41,17.35,15.85,24,24.73-.26-4.25-.67-8.5-.75-12.76-.26-13.53,4.41-26.18,7.69-39,1.2-4.72,5.36-8.7,8.22-13a2.67,2.67,0,0,1,1.48-1.06c3.51-.81,10,3.11,11.61,6.51,1.39,2.93,3.29,5.61,5.16,8.72.65-9.47-.31-18.26,2.22-25.9,2.41-7.26,4.83-15.61,12.66-20.12,2.62-1.51,4.65-4.08,7.24-6.43,7.24.14,12.29,4.85,16.5,10.67,3.08,4.24,6.21,7.85,12.37,5-.06-.26,0-1-.35-1.41-6.62-7.14-5.76-20.61,2.1-26.44,3.43-2.53,7.57-4.1,12.18-6.52l7.62,5c.76-1,1.87-1.88,2.28-3,3-8.43,12.07-7.33,17.75-11.51.29-.21,1.13.39,1.73.52a17.86,17.86,0,0,0,11.66-1.31c3.24-1.44,7.69-.18,11.59-.12l-7.1,5.12-9.68-1.2c-2.21,2.23-4,4-5.76,5.82-2.28,2.3,5.22,6.6-2.51,8.53L220,105c-.17,1.15-.36,2.52-.56,3.93,3.68.06,3.68.06,3.28-3.86,1.56-1,3.48-1.58,4.13-2.81a125.17,125.17,0,0,0,6.27-14C233.49,87.31,232,85.71,231.41,84.43ZM142.47,360.18c.81-1.6,1.51-3,2.39-4.77l-7.6,1.39.75-1.5-6.07-6.36L128.06,359l9.08.85c5.63,1.4,1.9,6.44,3.09,10.85l6.06-2.39c-7.37-1.08-3-5-2.33-7.81ZM246.25,103.32c-.22-.62-.43-1.24-.64-1.86-6.1-.19-12.17-.2-17.06,4.75,1.1,2.7,7.09,4.08,10.95,2.29-.46-1-.92-1.91-1-2.13ZM140.58,386.54c-2.34-1.35-4.31-2.17-1.41-5a8.32,8.32,0,0,0,1.77-4.18c.06-.25-2.19-1.58-2.76-1.27a16.23,16.23,0,0,0-4.26,3.55c-.89,1-1.18,3.08-2.11,3.33-1.22.32-2.79-.67-4.61-1.22C129.26,390.61,136.67,383.6,140.58,386.54Zm89.26-286,1.67,1.38,8.56-7.86c-.72-1.76-1.38-3.41-2.67-6.61Zm17.2,3c-.7,3.41-1.27,6.21-2,9.65C253.76,107.68,253.76,107.68,247,103.54Z"/><path class="cls-2" d="M231.41,84.43c.62,1.28,2.08,2.88,1.73,3.8a125.17,125.17,0,0,1-6.27,14c-.65,1.23-2.57,1.8-4.13,2.81.4,3.92.4,3.92-3.28,3.86.2-1.41.39-2.78.56-3.93l-14.4-2.76c7.73-1.93.23-6.23,2.51-8.53,1.77-1.8,3.55-3.59,5.76-5.82l9.68,1.2,7.1-5.12Z"/><path class="cls-2" d="M142.47,360.18l1.49.34c-.63,2.78-5,6.73,2.33,7.81l-6.06,2.39c-1.19-4.41,2.54-9.45-3.09-10.85l-9.08-.85,3.88-10.08L138,355.3l-.75,1.5,7.6-1.39C144,357.18,143.28,358.58,142.47,360.18Z"/><path class="cls-2" d="M246.25,103.32l-7.77,3.05c.1.22.56,1.18,1,2.13-3.86,1.79-9.85.41-10.95-2.29,4.89-4.95,11-4.94,17.06-4.75C245.82,102.08,246,102.7,246.25,103.32Z"/><path class="cls-2" d="M140.58,386.54c-3.91-2.94-11.32,4.07-13.38-4.81,1.82.55,3.39,1.54,4.61,1.22.93-.25,1.22-2.35,2.11-3.33a16.23,16.23,0,0,1,4.26-3.55c.57-.31,2.82,1,2.76,1.27a8.32,8.32,0,0,1-1.77,4.18C136.27,384.37,138.24,385.19,140.58,386.54Z"/><path class="cls-2" d="M229.84,100.59,237.4,87.5c1.29,3.2,1.95,4.85,2.67,6.61L231.51,102Z"/><path class="cls-2" d="M247,103.54c6.72,4.14,6.72,4.14-2,9.65C245.77,109.75,246.34,107,247,103.54Z"/></svg>