<svg id="Layer_1" data-name="Layer 1" xmlns="http://www.w3.org/2000/svg" viewBox="0 0 333.82 432"><defs><style>.cls-1{fill:#8dc63f;}.cls-2{fill:#fff;}</style></defs><title>ironwood</title><path class="cls-1" d="M90.82,256,76.43,244.88c-2.48-1.94-5.51-3.29-7.24-6-1-1.54-.46-7.16.61-7.9,4.85-3.35,3.47-6.45.73-10.36-5-7.2-4.9-9,1.07-14.71-.6-1.69-1.58-3.42-1.79-5.3s.17-5.12.71-5.27c5.78-1.68,4.87-5.85,3-11-2.39-6.51.26-9.08,5.31-9.2-.16-2.24,0-4.17-.48-5.71-1.62-4.88.57-7.11,3.49-7.87,6.27-1.63,7.68-7.07,7.32-14.24-.28-5.64,1.11-9.22,6-8,3.63.93,5.08-.8,5.52-5.54a10.08,10.08,0,0,1,3.39-6c-2.62,8.3-2,9.48,5,11.48,2.86.82,5.49,3.1,9.64,5.56l10.21-1.6c.71-2,1.06-5,2.09-5.46,4.51-2.05,4.12-6.79,4.4-11.37s.65-9.24,1-13.83c-2.19-1.43-4.39-2.9-6.58-4.37l-4.91,1.22c3.11-5.53,5.47-10.29,8.31-14.51,1.13-1.69,3.33-2.13,5-3.26,1.49-1,3.28-1.8,4.31-3.38,8.61-13.25,17.08-26.66,25.82-40.37,2.87,1.6,3.59,3.75,4.61,15.76.57,6.63,1.26,13.24,1.95,20.42l-2.63-1.37L171.11,94l-1.93-1.66c-.07.87-.15,1.74-.22,2.62l2.13-.24c.23,1.09.45,2.19.67,3.28l0,.31.09-.35,4.87,6.06v5.46a8.25,8.25,0,0,1-1.38,1c-4.53,2.11-6.22,6.83-4.44,12.38,1.89,5.89,3.76,11.78,5.78,18.12l6.61-5.08q-4.17,8.64-8.28,17.28l1.75,1.53c1.13-1.38,2.22-3.84,3.4-3.91,2.87-.17,5.78,1.14,8.67,1.08,1.16,0,3.35-2.18,3.27-3.14-.39-5.18,2.19-6.11,5-7l17.18,4.73c.14.57.28,1.14.43,1.71l-7.38,3.49c-.24.66-.49,1.32-.73,2l8.74,5L211.65,161c3.9,3.93,9.48,2.42,14.86-3.34,1.26-1.35,3.6-2.27,5.11-1.74,6,2.1,7.44.6,6.55-7.91l1.47-.1c.1,2.72.67,5.57.22,8.11-1.07,6-1.35,10.29,5.06,10.19,4.39-.06,6.35,5.48,3.81,11.29-2.15,4.92-3.9,7.93,2.22,9.79,2.87.88,4.12,4.78,1.34,8.66a56.12,56.12,0,0,0-3.26,6c3.29,3.18,9.65,4,7,11.75-1.54,4.57-4.81,8.14-6.93,11.56l5.74,9.37-12.92,11.77c1-4.68,1.43-6.77,1.87-8.86,4.16,3.53,6.57.35,9.68-4.38l-8.36-4c-.55,2.71-1.11,5.42-1.66,8.13-1.31-.57-2.65-1.73-3.92-1.62-7.67.68-15.35,1.49-23,2.84-.57.1-5.25,1-2.94,6.11.35.76-2.31,4.42-4,6-2.62,2.53-5.41,5.16-8.45,6.43a22.78,22.78,0,0,1-10.1,1.42c-4.79-.28-9.55-1.43-14.32-2.21a2.8,2.8,0,0,0-3.09.95l33.82,4.53c-15.11,5.22-29.28-3.64-44.09-3.6.46-3.63.73-5.79,1-8l-1.58-.21c-.2,4.3-.66,8.6-.58,12.89.83,42.22,17.25,75.4,37.45,105.62,7.76,11.62,18.24,20.17,27.64,29.86,3.84,4,1.36,6.48-.68,9.44-37-38.71-66.77-83-67.86-150.51q-16.92,1.19-33.86,2.35c-2.14.14-4.29.18-6.43.14-4.62-.09-9.24-.21-13.86-.39-3.89-.15-7.78-.39-11.67-.59,5.35-1,11.93,2.56,16.29-8.5l-15.83-3.68s-.22-2.13-.44-4.3c-1.13,3.17-1.26,6.3-1.51,9.42C91.4,253.2,91.06,254.61,90.82,256Zm0-90-1.86-6.44-1.82,1c.83,2.31,1.65,4.63,2.49,6.94l2.31.56Zm21.16,88.19c2.32.93,4.19,2.4,6,2.26,5.67-.45,5.48-3.89,1.24-6.94C116,247.24,113,248.76,111.93,254.19Z"/><path class="cls-1" d="M135.51,120.21c-4.11,1.52-7.88,3.07-7.3,11.66.1,1.59-3.09,5.18-4.79,5.22-4.21.09-8.45-2.08-12.64-1.8-1.72.12-3.31,4.2-5,6.48l-2.55-2.54q6-14.32,12.07-28.67c3.72.3,7.54,1.73,11,.71C131.89,109.66,134.45,112.74,135.51,120.21Z"/><path class="cls-1" d="M212,207.3c.15-.88.36-1.76.43-2.65a21.85,21.85,0,0,1,1-5.84c.13,1.34.26,2.68.26,2.67l9.82,2.28c-2.71,6.85-6.79,4.62-10.1,5.26Z"/><path class="cls-1" d="M196.08,133q1.38-6.73,2.75-13.48l13.87,6.65c-5.15,7.85-9.16,13.13-16.06,7.27Z"/><path class="cls-1" d="M190.09,98.34c7.37,5,14.74,9.9,22.12,14.72-6.73,2.28-13.48,4.67-21.46,7.5v21.21c-3.83-2.64-6.53-3.4-7.85-5.59C173,119.75,182.88,109.43,190.09,98.34Z"/><path class="cls-2" d="M203.85,228.19c-1.2,4-1.3,7.22,2.81,7.77.4,0,.65,2,.89,2.83-1.92-1.37-4.12-2.18-5.39-4C200.57,232.4,200.93,229.65,203.85,228.19Z"/><path class="cls-1" d="M261.71,107.31l-1.33.15.14-1.62,1.2,1C261.72,107,261.72,107.17,261.71,107.31Z"/><path class="cls-2" d="M197.73,227.67l.42-1.51,1.25,1.16-1.72.5Z"/><path class="cls-2" d="M199.4,227.19l-.31,1.63-1.36-1.15,0,.15Z"/><path class="cls-2" d="M195.68,226.69l-.21,0Z"/><path d="M199.4,227.19l-1.72.63,1.72-.5Z"/><path class="cls-1" d="M262.1,109.31l.11.1Z"/><polygon class="cls-1" points="262.15 109.32 262.1 109.54 262.12 109.35 262.1 109.31 262.21 109.41 262.15 109.32"/><path class="cls-1" d="M225.05,206.15c.66-3.36,2.52-4.3,4.47-2.9,2.63,1.89,2.75,4-.76,4.3C227.64,207.64,226.48,206.73,225.05,206.15Z"/><path class="cls-1" d="M211.19,152.45l-1.54-4.29,1.13-.64c.38,1.33.77,2.66,1.15,4l.12-.09-.89,1.16Z"/><path class="cls-1" d="M211.93,151.51l.69,1.29-1.43-.35,0,.13c.3-.39.59-.78.89-1.16Z"/><path class="cls-1" d="M212.05,151.42c-.3.38-.59.77-.89,1.16C211.46,152.19,211.75,151.8,212.05,151.42Z"/><path class="cls-1" d="M232,154.29c-2.07-4.88-4.09-9.32-10.35-6.62-1.16.5-4.56-2.74-5-4.89-1-5.34-.39-11.25-1.56-16.51-.48-2.16-3.89-3.25-6-4.83l1.3-3.84q12,4.38,24.11,8.8c.62,4.8.44,10,2,14.22C239,147.27,237.33,151.23,232,154.29Z"/></svg>