<svg id="Layer_1" data-name="Layer 1" xmlns="http://www.w3.org/2000/svg" viewBox="0 0 246.01 418.75"><defs><style>.cls-1{fill:#90c33e;}</style></defs><title>juniper67</title><path class="cls-1" d="M384.88,329.17l-7.47-4.82-2.65-2.15-5.05-5.87-1.31-2.62a24.26,24.26,0,0,1-1.15-10.92c.66-.41.43-1.62,1.51-1.64a22.29,22.29,0,0,0,6,5,8.46,8.46,0,0,0,3.36,2.49,22,22,0,0,0,7.59,4.42,5.42,5.42,0,0,0,3.43,1.55,38.58,38.58,0,0,0,9.32,3.35l3.27,1.23a44.31,44.31,0,0,0,9.42,3.25c.61.83,1.57.78,2.44,1l9.36,3.48,3.5,1.31a45.38,45.38,0,0,0,9.28,3.63l2.62,1.26,9.24,3.91,2.62,1.29,7.32,3.65,3.71,2.22q3.33,2.24,6.65,4.48l2.65,2.51,3.51,6.75c.46,4.42,3.72,5.27,7.42,5.91a41.86,41.86,0,0,0-.44-10.18c-.08-3.71-.16-7.43-.22-11.15,0-1.23-.53-1.77-1.78-1.53l-4.24-.79-7.39-2.74-3.48-1.86-7.71-5a5.69,5.69,0,0,0-2.63-2.19,20.66,20.66,0,0,0-6.52-4.53,8.63,8.63,0,0,0-3.65-2.34,31.27,31.27,0,0,0-7.57-4.49,4.13,4.13,0,0,0-2.57-1.56,28.7,28.7,0,0,0-7.31-4.37,9.2,9.2,0,0,0-3.75-2.31,35.52,35.52,0,0,0-7.54-4.55,4.19,4.19,0,0,0-2.55-1.6,26.9,26.9,0,0,0-6.58-4.21,8.84,8.84,0,0,0-3.68-2.42,28,28,0,0,0-6.42-4.39,9.66,9.66,0,0,0-3.64-2.61l-6.6-5.06-2.83-2.37-6.69-6.21-1.39-1.55-5.19-7.64c-.32-.8-.65-1.59-1-2.38,0-.82-.1-1.64-.08-2.46.12-4.66.82-5.09,4.83-3l2.49,1.64a36.74,36.74,0,0,0,7.75,4.93,4,4,0,0,0,2.51,1.67,25.17,25.17,0,0,0,6.49,4.2,9,9,0,0,0,3.77,2.42,41.63,41.63,0,0,0,8.41,5.42l1.19.76a43.3,43.3,0,0,0,9.07,5.74,4,4,0,0,0,2.52,1.68,27.68,27.68,0,0,0,6.72,4.23l3.51,2.3,17.53,10.5a9.09,9.09,0,0,0,3.62,2.49l5.85,4.22a9,9,0,0,0,3.44,2.62l6,5a9.43,9.43,0,0,0,3.22,2.93l5.4,5.52,8,11V320.59c.48-7.48.48-7.48-5.57-9.19l-4-.68-8.59-3.33-3.48-2.17-5-4.17a9.15,9.15,0,0,0-3.28-2.93,137.64,137.64,0,0,0-16.35-12.28l-3.39-2.49a36.16,36.16,0,0,0-7.57-5.36l-1.16-.9a42.09,42.09,0,0,0-8.16-5.86,4.46,4.46,0,0,0-2.42-1.87,32.56,32.56,0,0,0-6.67-4.88,4.34,4.34,0,0,0-2.33-1.77L395,257l-3.32-2.66-5.94-5a3.76,3.76,0,0,0-2.15-1.86l-6.32-6.63-1.38-1.76-5.31-7.61A4.3,4.3,0,0,0,369,229l-4.49-8.43-1.12-2.64c-.25-.93-.47-1.86-.75-2.79-.35-1.18-1.06-2.54,0-3.49s2.28.35,3.45.53l3.37,2.87,6,6.69a2.34,2.34,0,0,0,1.5,1.5,29.52,29.52,0,0,0,6.07,5.9,11.34,11.34,0,0,0,3.57,3.29,27.82,27.82,0,0,0,6.64,5.54l2.7,2a34.31,34.31,0,0,0,7.53,4.64,4.06,4.06,0,0,0,2.53,1.62,26,26,0,0,0,6.56,4.18,8.74,8.74,0,0,0,3.72,2.4,27.2,27.2,0,0,0,6.58,4.34,8.49,8.49,0,0,0,3.61,2.42,27.89,27.89,0,0,0,6.46,4.41,8.84,8.84,0,0,0,3.63,2.54l15.93,11.85,3.46,2.82c5.31,4.79,10.64,9.56,15.47,14.86,1.64,3.21,4,6.07,3.78,10.08-.1,2.41,2.43,2.89,4.21,3.47,1.16.37,1.07-1,1.05-1.76-.12-6.75-.28-13.5-.43-20.24.56-1.85-.28-2.62-2.06-2.68-5.05-.17-8.94-2.87-12.76-5.79-1.78-1.35-3.73-2.47-5.6-3.69L457.8,274,441,261a6.08,6.08,0,0,0-2.62-2.3l-5.76-5.16a6.48,6.48,0,0,0-2.74-2.42,27.89,27.89,0,0,0-6.58-5.22,3.85,3.85,0,0,0-2.36-1.76,37.07,37.07,0,0,0-7.95-6,5.45,5.45,0,0,0-2.64-2.12,42.86,42.86,0,0,0-7.53-5.59L401,229a33.55,33.55,0,0,0-6.57-5.18,4.11,4.11,0,0,0-2.23-1.81l-6.9-5.92-2.86-2.54-5.94-5.78L374,205.05q-2.89-3.59-5.78-7.18c-.27-.38-.53-.77-.79-1.16-1.29-3.08-3.09-5.94-3.84-9.24.48-.83-.75-2.91,1.68-2.32a30.84,30.84,0,0,0,6.89,4.88l3.41,2.46A28.84,28.84,0,0,0,382,197a4.47,4.47,0,0,0,2.45,1.72,30.68,30.68,0,0,0,6.94,5,9.17,9.17,0,0,0,3.61,2.6,30.32,30.32,0,0,0,6.79,4.95l3.46,2.56A24.63,24.63,0,0,0,411,218.1a9.17,9.17,0,0,0,3.51,2.61,30.51,30.51,0,0,0,6.62,5.06l2.25,1.8,6.82,6,3,2.42a27.17,27.17,0,0,0,6.52,5.12l2.3,1.78,16.64,13.35a6.28,6.28,0,0,0,2.65,2.43l6.76,6.82c4.93,4.91,5.23,13.17,12.73,17.65,0-9.93,0-18.9,0-27.86,0-1.87-.83-2.56-2.59-2.35l-10-2.35-1.81-.71a114.71,114.71,0,0,1-17.7-11.55l-3.53-3.2a30.24,30.24,0,0,0-6.64-5.61l-2.65-2.2a29.57,29.57,0,0,0-6.72-5.32,5.84,5.84,0,0,0-2.65-2.21,23.84,23.84,0,0,0-5.61-4.43l-3.72-3.09-5.65-4.53-3.68-3.11a35.32,35.32,0,0,0-6.68-5.5,5.89,5.89,0,0,0-2.61-2.33,29.91,29.91,0,0,0-5.82-5.13L390,189.16a38.12,38.12,0,0,0-6.67-6.27l-1.48-1.49a51.4,51.4,0,0,0-7.1-7.57,3,3,0,0,0-1.58-1.89l-5-6.65-1.57-2.53c-1.23-3-2.77-5.92-3.24-9.2l1.19-1a30.29,30.29,0,0,0,6.5,4.5,8.69,8.69,0,0,0,3.59,2.57,22.58,22.58,0,0,0,5.82,4.16,8.86,8.86,0,0,0,3.55,2.52,39.8,39.8,0,0,0,7.53,5.43l2.69,2,6.41,4.57a4.43,4.43,0,0,0,2.4,1.74A41.07,41.07,0,0,0,411.1,186a4.69,4.69,0,0,0,2.4,1.92l7.76,5.84,1.75,1.42c4.85,4.44,9.56,9.05,15,12.78,6.34,5.38,12.74,10.69,19,16.17,6.49,5.7,12.6,11.85,16.62,19.58,1.64,3.17,3.94,5.2,7.77,7.94,0-6.54-.05-12,0-17.46,0-1.71-.52-2.5-2.24-2.9-9.84-2.32-17.37-8.41-24.47-15.2-4.07-3.88-7.49-8.43-12.1-11.77a154.42,154.42,0,0,0-14.36-13.54,9.72,9.72,0,0,0-3.48-3.32,27,27,0,0,0-5.6-5.28,6.79,6.79,0,0,0-2.76-2.63,27.45,27.45,0,0,0-5.85-5.79,6.48,6.48,0,0,0-2.64-2.65,29.25,29.25,0,0,0-5.72-5.88,7.38,7.38,0,0,0-2.64-2.82,22.59,22.59,0,0,0-5.07-5.61,5.88,5.88,0,0,0-2.28-2.58,33.56,33.56,0,0,0-5.46-6.71,9,9,0,0,0-2.62-3.45l-4.35-6.64a3.8,3.8,0,0,0-1.57-2.56c-.58-3.58-3.53-6.38-3.3-10.22.26-.63.38-1.41,1.33-1.36a23.14,23.14,0,0,0,5.91,4.93,7.71,7.71,0,0,0,3.37,2.79,22.05,22.05,0,0,0,5.81,4.9,10.17,10.17,0,0,0,3.71,3.18,29.15,29.15,0,0,0,6.66,5.51,5.28,5.28,0,0,0,2.59,2.3,26.19,26.19,0,0,0,5.91,5.05,3.14,3.14,0,0,0,2.23,1.82,27.38,27.38,0,0,0,6.78,6,6.79,6.79,0,0,0,2.84,2.52l40,38.84c3.46,4.26,6.86,8.56,10.39,12.77s4.66,9.93,8.9,14.57c.31-6.27.55-11.62.87-17,.09-1.59-.22-2.78-1.93-3.24-6-1.63-10.55-5.81-15.45-9.32-5.16-5.4-9.61-11.38-14.22-17.24-6.87-8.74-14.09-17.19-21.16-25.77a8.53,8.53,0,0,0-2.85-3.5,27.15,27.15,0,0,0-5.1-6.57l-1.33-1.72a35.17,35.17,0,0,0-5.53-7.58,8.68,8.68,0,0,0-2.48-3.58,29.26,29.26,0,0,0-4.27-6.6,3.63,3.63,0,0,0-1.62-2.52l-5-9.9c0-.78-.08-1.55-.83-2l-2-9.23c.59-1.29-.38-3,1.13-4a32.51,32.51,0,0,0,6.05,6.83,7.74,7.74,0,0,0,2.92,3.29,29.79,29.79,0,0,0,5.77,6.35,3.24,3.24,0,0,0,1.86,2.11,27.43,27.43,0,0,0,5.2,5.82,9.41,9.41,0,0,0,3.27,3.56,272.48,272.48,0,0,0,21.66,23c2.44,2.92,4.92,5.81,7.32,8.76,10.63,13,21.14,26.14,25.77,42.8a5.53,5.53,0,0,0,2.94,3.72c.42-9.43.77-18.56,1.28-27.68.12-2.08-1-2.78-2.55-3.27-10.31-3.27-17.5-10.57-24.07-18.64-2.58-3.16-5-6.43-7.51-9.65L430.8,120.39a8,8,0,0,0-2.48-3.63,36.41,36.41,0,0,0-5-7.92l-.65-1.21-5.16-10.17-.64-1.73L414,85.61l-.27-3.3c.14-1.19.26-2.38.43-3.57.23-1.58,1.08-1.06,1.92-.54.48.56,1,1.13,1.42,1.69a35.24,35.24,0,0,0,6.25,7.62,6.88,6.88,0,0,0,2.47,2.92,29.27,29.27,0,0,0,5.93,6.91A3.55,3.55,0,0,0,434,99.47a24.78,24.78,0,0,0,5.17,5.78,9.1,9.1,0,0,0,3.36,3.44l4.89,5.13a5.84,5.84,0,0,0,2.29,2.58,31.69,31.69,0,0,0,5.43,6.72,8.68,8.68,0,0,0,2.63,3.42,31.19,31.19,0,0,0,4.95,6.79,8.66,8.66,0,0,0,2.59,3.72,24.76,24.76,0,0,0,4.11,6.49,4,4,0,0,0,1.5,2.53q2.26,4.23,4.55,8.44a3.19,3.19,0,0,0,1.1,2.42l3.38,10.19A7,7,0,0,0,484,172v-7.42a86.45,86.45,0,0,0,.83-13.55l.09-4.25c.19-1.25.44-2.5.57-3.75.52-5-.21-5.75-5.51-6l-2.5-1.56-4.32-6.56a4,4,0,0,0-1.32-2.62,41.93,41.93,0,0,0-4.49-9.35,6.17,6.17,0,0,0-1.69-3.64,35.83,35.83,0,0,0-4.05-9l-.75-1.81A39.07,39.07,0,0,0,457.29,94a9.12,9.12,0,0,0-1.77-4.53q-.7-4.86-1.42-9.72a7.07,7.07,0,0,0,.07-4.27c.28-1.73.56-3.46,1-6.26l2.28,2.81a4.69,4.69,0,0,0,1.88,3,22.27,22.27,0,0,0,4.11,6.55,4.16,4.16,0,0,0,1.6,2.5q2.37,4.17,4.72,8.35a3.94,3.94,0,0,0,1.43,2.62c.69,3,2.32,5.66,3.65,8.42a4,4,0,0,0,1.32,2.63,166.2,166.2,0,0,0,9.61,22.15,14.78,14.78,0,0,0,.86-4.55q.74-9.69,1.45-19.4c.13-1.69.66-3.25,2.67-3s2.39,1.72,2.38,3.44c0,1-.47,2.08.7,3.4,7.69-14.26,16.43-27.36,24.46-40.89h0c1.63,2.56.77,5.53,1.39,8.26,0,1.41,0,2.83,0,4.24-.77,5.15-1.26,10.36-3,15.32q-2.13,4.13-4.27,8.26a120.73,120.73,0,0,1-14.85,15.23c-5.1.18-5.69.82-5.67,6.16q-.36,6.77-.73,13.53c-.06,1.42-.11,2.85-.17,4.27q-.31,6.76-.64,13.52-.3,6.16-.58,12.32l1.43.52c5.38-8.55,9-18.19,15.05-26.29,17.6-23.67,41.58-41,61.72-62.15l.88,1c0,5.73-1.72,11.06-4,16.24l-5.59,10C547.7,124,533.49,138.08,520.16,153a67.5,67.5,0,0,1-22.47,16.86c-9.7,2.2-8.13,1.29-8.07,8.36a80.24,80.24,0,0,0-.36,12.69c-.14,2.83-.68,5.67,0,8.82,5.94-3.87,6.67-10.31,9.45-15.52,11.83-18.33,27.25-33.3,43.64-47.5,14.28-12.37,27.91-25.5,41.82-38.3l.64,1.78c-.72,6.82-3.78,12.74-7.16,18.52L564.3,136.43c-14.77,15.54-29.58,31-44.28,46.64a114.82,114.82,0,0,1-15.65,13.49c-2.28,1-4.51,2.17-6.86,3-9.42,3.24-9.43,3.2-8.95,13.39v15a4.94,4.94,0,0,0,3.11-3c3.84-9.49,10.34-17.13,17.33-24.32a876.71,876.71,0,0,1,80-73c1.31-1.06,2.52-2.24,3.78-3.36l2.63-1.19c.24,8-4.58,14-8.37,20.3-24.2,30.38-53.7,55.48-81.69,82.09-3.36,1.73-6.59,3.8-10.11,5.11-7.29,2.73-7.36,2.57-7.35,10.5a16,16,0,0,0,.16,1.67c-.16,3.15-.33,6.31-.48,9.37,1.26.35,1.65-.37,2.22-.71,4.86-2.87,6.82-8,9.84-12.37,6-8.65,14.21-15.15,21.91-22.14C536,206,549,193.27,563.79,182.91c5.54-3.87,10.86-8,16.29-12.09L595.32,160l11.33-7.7c1,2.49-.55,4.34-.67,6.32l-6,10c-8.84,10.82-19.23,20.1-29.48,29.53l-23.73,19.45c-5.93,4.72-12.1,9.19-17.75,14.22-8.55,7.6-17.28,14.83-27.93,19.32-1.23.24-2.45.52-3.68.73-10.38,1.79-10.38,1.79-9.62,12.74l-.06,12.68v5.85c5.89-3.77,6.26-4.26,10.88-14.28,5.76-7.77,13.17-13.87,20.34-20.22a255.77,255.77,0,0,0,21.27-16.57C556.64,218,574.72,206,592,193l14.25-10c2,2.78-.06,5.15-.87,7.59a34.24,34.24,0,0,1-2.19,4.42c-2.18,2.75-4.26,5.59-6.57,8.24-6.29,7.25-13.89,13.12-21,19.49-21.16,15.17-41,32-61,48.59L499.27,282c-.95.24-1.89.5-2.85.71-9.24,2-9.24,2-8.6,11.56l.12,4.29c0,2.11-.18,4.23-.09,6.33.06,1.5-.68,3.67.72,4.33s2.94-1.2,4.46-1.84a2.5,2.5,0,0,0,1.53-2.72c-.1-3.48,1.68-6.19,3.64-8.82a78.12,78.12,0,0,1,10.87-11.25c10.55-9.42,22.31-17.25,33.69-25.59l12.7-8.27c16.33-9.33,31.36-20.23,43.54-34.79,2.22-2.66,4.46-6,8.86-5.42.07.5.13,1,.2,1.51-2.68,9.82-8.53,17.93-14.12,26.19-3.67,4.63-8.22,8.4-12.38,12.54-3.34,2.59-6.62,5.24-10,7.76q-20,14.88-40,29.69c-7.79,4.67-14.28,11-21.25,16.7A41.72,41.72,0,0,1,495,310.53c-5.59.78-6.86,2.76-6.73,8.42.06,2.81.18,5.63.27,8.44v6.12c6.59-4.64,9.15-11.74,14.46-16.46s11.19-9.31,16.75-14c11.26-7.93,23.69-14,34.86-22.07a92.53,92.53,0,0,0,11.71-7.32c11.74-7.37,23.5-14.72,34.85-22.69l1.63.14c2.1,5.07.23,9.38-2.69,13.41-5.36,7.41-12.53,12.92-19.73,18.38-9.1,6.89-19,12.57-28.41,19a70,70,0,0,0-11,6.5l-3.71,2c-11.37,6-21.15,14.34-32,21a53.38,53.38,0,0,0-7.05,2.69c-3,1.63-8-.93-9.26,2.85-1.08,3.19.2,7.18.44,10.82a49.7,49.7,0,0,0,.65,11.87c0,1.17-.63,2.95.69,3.24a3.68,3.68,0,0,0,4.17-2c.78-1.76,1.26-3.64,1.87-5.47,2.36-5,7-7.71,11.17-10.91l9.27-5,22.06-9.65,7.49-2.72,19.66-7.38a21.4,21.4,0,0,0,6.77-2.32,62.23,62.23,0,0,0,24.9-13.37c1.25-1.07,2.25-2.51,4-3l.43,1c1.21,5.81-.18,11.06-3.48,15.9-1.56,1.65-3.11,3.31-4.67,5-8.2,6.39-17.82,10.18-27.07,14.65a22.41,22.41,0,0,0-6.78,2.62,150.23,150.23,0,0,0-22.91,10.07L530,353.21l-19.59,7.33c-6.39,1-12.2,4.44-18.84,4.38-2.08,0-1.51,1.72-1.44,2.84.25,4.08.63,8.16,1,12.24l.82,11a8.16,8.16,0,0,0,.69,4.25c-.07,1.05-.43,2.15.6,3.26,2.19-1.6,5.14-2.72,6.35-4.83,3.77-6.6,10-10.25,15.87-14.31,8.11-5.6,16.44-10.88,24.68-16.3,5.89-3,10.28-8.18,16-11.44l24.66-12.37,7.67-3c1.8,1.21.75,2.75.36,4.11-1.13,4-3.68,7.24-5.94,10.62-18,19-39,33.79-62.27,45.65a79,79,0,0,1-14.44,2,15.69,15.69,0,0,0-11.47.5c-1.35.59-2.26,1.1-1.86,2.67.79,3.12.16,6.45,1.36,9.51-.14,3.6.55,7.06,1.57,11.87,4.39-6.65,10-10.47,15.49-14.4.87-.43,1.75-.86,2.61-1.31,17.22-8.95,33-20.42,50.06-29.57l20.25-8.32c2.37-.09,4.32-2,6.81-1.59-.62,5.5-3.87,9.55-7.53,13.3-7.54,7.73-16.63,13.35-25.79,18.87-1.92,1.15-3.79,2.37-5.69,3.55l-10.3,5.46c-8.6,4.07-16.57,9.36-25.42,12.94-5.76,1.31-11.5,2.62-17.49,2.19-2-.14-3.23.8-2.73,3.08.92,4.23.87,8.65,2.4,12.76.11,1.64-.47,3.85,1.1,4.63,1.31.65,3-.85,3.68-2.11,2.37-4.25,6.34-6.68,10.19-9.18,6-3.87,12.12-7.46,18.2-11.17a56,56,0,0,0,10.16-5.7c3.12-1.88,6.46-3.47,9.3-5.69a52.11,52.11,0,0,1,17.84-9.17l5.88-1.07c5.11-.41,5.11-.41,3.37,6.37-4,7.76-10.8,12.67-17.83,17.33l-27.1,14.71-8.38,4.16a69.84,69.84,0,0,1-16.12,3.95c-.69,0-1.38-.09-2.07-.11-7.67-.17-7.76,0-5.38,7.46a41.14,41.14,0,0,0,2.47,9.31l1.38,4.31c.46,3.36,1.92,6.37,3.31,9.4.31.82.63,1.63.94,2.45-.48,3.06-1.41,5.8-5.17,5.9-3.58.09-4.5-2.7-5.49-5.36-.38-1-.78-2.07-1.17-3.11l-1.26-3.5a36,36,0,0,0-2.8-9.24,5.06,5.06,0,0,0-.92-3.39,56.35,56.35,0,0,0-2.35-11.11l-.63-3.41c-.82-5.88-.82-5.88-8-6.89-1.11-.89-2.3-.46-3.48-.18l-11.83-1.35c-.91-.88-2.13-.87-3.26-1.11l-8.47-3.59L452,432.43a27.35,27.35,0,0,0-7.58-4.17,6.7,6.7,0,0,0-3.43-1.79L432.49,422l-2.63-1.39-7.38-4.33-3.64-2.47q-3.34-2.68-6.68-5.38L410.69,407l-5.12-7.65c-.33-.82-.65-1.63-1-2.44-.68-2.71-.09-4.37,3.16-3.83l4.24.58,9.25,2.75c8.39,4.23,15.29,10.84,23.88,14.75a44.38,44.38,0,0,0,8.42,4.6,4.22,4.22,0,0,0,2.59,1.55,35.76,35.76,0,0,0,7.59,4.36,4.39,4.39,0,0,0,2.58,1.59l6.58,4.32c5.45,3.67,8.34,10.51,15.71,12.6-1.1-7.84-2.16-15.41-3.21-23q-1.19-13.5-2.36-27a7.82,7.82,0,0,0-.49-4.3l-.44-11.8a5,5,0,0,0-.4-3.45c.19-5.59.19-5.59-5.25-5.79-1.11,0-2.21-.14-3.32-.22-.92-.92-2.16-.8-3.29-1a52.32,52.32,0,0,0-10.31-3.1c-.9-.89-2.12-1-3.25-1.23l-9.43-3.23a6.22,6.22,0,0,0-3.44-1.41l-8.47-3.37a3.62,3.62,0,0,0-2.5-1.07,44.57,44.57,0,0,0-9.34-4.28l-2.6-1.34c-3-1.39-6-2.95-9.31-3.63-.59-.85-1.54-.89-2.43-1.05a38.15,38.15,0,0,0-8.31-3.35l-4.34-2-8.64-3.9A4.34,4.34,0,0,0,384.88,329.17Z" transform="translate(-362.05 -67.25)"/></svg>