<svg id="Layer_1" data-name="Layer 1" xmlns="http://www.w3.org/2000/svg" viewBox="0 0 333.82 432"><defs><style>.cls-1{fill:#8dc63f;}</style></defs><title>laburnum</title><path class="cls-1" d="M129.73,239.53c-.09-1.53-.23-3.05-.26-4.58,0-1.12.44-2.36.14-3.34-1.71-5.76.4-10.72,2-15.93.72-2.28.16-5.07.33-7.61.25-3.69.66-7.37.94-11a10.8,10.8,0,0,0-.26-2.39,25.88,25.88,0,0,1-.64-3.2c-.16-3.57,1.09-7.08.11-10.77-.31-1.19.9-2.81,1-4.26.17-2.66-.1-5.35,0-8,.13-2.33.62-4.62.87-6.94.43-4,.72-8,1.24-12a30.67,30.67,0,0,1,1.3-4.43c.63-2.28,1.3-4.54,1.81-6.86.8-3.66,1.74-7,3.94-10.19,1.55-2.21,1.24-6,2.65-8.46,2.87-4.93,1.57-11.05,4.13-16,.8-1.55.63-3.72,1.08-5.55,1.43-5.76,3-11.48,4.4-17.25Q156.9,71,159,61.19c1.47-6.85,2.77-13.75,4.22-20.6a39.82,39.82,0,0,1,1.6-4.59c1.67,3.1,3.27,5.68,4.51,8.46,3.35,7.49,6.53,15.07,9.79,22.6,3.14,7.23,6.22,14.49,9.5,21.63,1.34,2.93,3.23,5.52,4.71,8.38a66.38,66.38,0,0,1,2.74,6.41c.8,2,1.52,4.09,2.25,6.15,1.81,5.12,4.18,10.09,5.24,15.4s4.23,9.17,5.52,14.26c1.61,6.39,3.64,12.59,3.78,19.35a17.32,17.32,0,0,0,1.17,4.21,10.74,10.74,0,0,1,.77,2.52c.28,5.9.52,11.8.66,17.7,0,1.3-.6,2.62-.53,3.9.18,3.65.6,7.28.85,10.92.1,1.58,0,3.17,0,5.17,1.34,1.29,1.85,6.68.86,10.09-.33,1.11.15,2.52.17,3.8,0,3.36,0,6.73.07,10.09,0,1.62.07,3.25.06,4.87,0,2.76,0,5.53-.07,8.29,0,.38-.41.86-.3,1.14,2.52,6.35.32,12.76.21,19.14,0,.2-.14.43-.08.59,2.16,5.66-.22,11-1,16.41-.65,4.46-2.71,8.94-2.35,13.22.34,3.89-.94,6.85-1.66,10.18-.16.74-1,1.31-1.72,2.26,1.48,4.4-.92,8.37-2.66,12.5-.27.64-.91,1.22-.93,1.83-.12,6.28-4.58,10-6.73,15.11A40.16,40.16,0,0,1,197,338c-2.12,3.46-4.47,6.73-6.6,10.18a11,11,0,0,0-1.51,4c-.45,3-2.76,6.2-4.3,6.34a37.7,37.7,0,0,1-3.17,5.16c-4.73,5.43-9.57,10.73-14.4,16-.4.44-1.12.49-1.69.73a21.24,21.24,0,0,1,1.52-3.64,51.19,51.19,0,0,1,3.47-4.29l-.72-1-5.33,4-1.1-3.32c-2.9,2.82-1,4.32.9,5.69-3.2,3.61-3.21,3.66-1,6.82-.76-3.35.3-4.41,2.35-4.31-.93,2.74-1.72,5.56-2.87,8.17-.39.87-1.71,1.2-3,2.05-.1,1.25-.25,3.14-.43,5.42-1.44-3.24-.62-5.87.42-8.68.86-2.35.3-5.41.17-8.14,0-.37-1.27-.66-2.25-1.13a16.69,16.69,0,0,1,.19-2.65c.73-3.52-.14-5.84-3-7.64-.08-.05-.2-.07-.23-.14-2.26-4.88-5.25-9.52-6.53-14.71-1-4.19-3-7.59-4.87-11a69,69,0,0,1-6.94-19.76,102.52,102.52,0,0,0-3.75-14.61c-1.7-4.63-2.07-9.47-2.46-14.23-.33-4,.36-8-1.05-11.9a1.44,1.44,0,0,1-.06-.91c1.78-3.62-.77-7.25,0-10.81,1-4.65-.07-9-.73-13.55-.43-3,.37-6.19.62-9.3l-.08,0,1.85,2c.76-1.12.8-8.28,0-9.22-.15-.18-.51-.13-.77-.19Zm8.5,6.25c-.38-2.55-.73-5.11-1.2-7.64-.07-.36-.75-.57-1.14-.85-.19.5-.65,1.13-.52,1.47.91,2.35,1.94,4.64,2.93,7-.18,2.92.06,5.67,2.4,8C141.83,249.9,140.31,247.72,138.23,245.78Zm41.23,71.38c-4.37.76-7.37,4-10.35,7.34-.86-.78-2.44-1.54-2.46-2.34a73.12,73.12,0,0,1,.68-8.5l2.76-.9-3.77-2c-.15,1-.26,1.44-.3,1.93-.41,4.52-.74,9-1.23,13.55a14.87,14.87,0,0,1-1.16,3.25c-1.75-2.29-3.52-4.55-5.25-6.86-1.21-1.61-2.61-2.44-4.49-1.73.18-3.9-3-4.66-4.91-6.67.62,3.18,2.92,4.77,5,6.59a35.33,35.33,0,0,0,3.5,4c2,1.69,4.16,3.09,6.25,4.62,0,1.22.11,2.44.05,3.66-.37,7.37-.77,14.74-1.15,22.11l-1.71,10.21,1,.63,6.4-4.6c-1.91-3.7-3.39,1.14-5.32,0-.14-2-.28-4.18-.43-6.36.35-.41,1-.78,1-1.25.49-3.38.89-6.78,1.27-10.19.44-3.92.79-7.86,1.28-11.77.27-2.2,1.6-3.07,3.31-2.22,5.39,2.67,10.57-.16,15.82-.63,3-.27,5.86-1.37,8.78-2.15,1.74-.47,3.46-1.06,5.78-1.78-3.82-1.76-7.58,3.48-10.51-1.83-1,1.34-1.63,3.1-2.59,3.38A66,66,0,0,1,175.22,329c-2.31.24-4.71-.57-7-1.09-.24-.05-.47-1.42-.33-2.08s.77-1,1.19-1.44a16.83,16.83,0,0,0,10.33-7.34c2.64-.5,4-2.51,4.6-5.28C181.71,312.73,180.42,314.76,179.46,317.16Zm-2.24,35.63c-2.86,1.86-6.1,3-8.43,6,.87.52,1.76.9,2.31.56a30.93,30.93,0,0,0,5-3.77c.62-.59.69-1.93,1-2.93l5.88-1.15c-1.15-1-2.32-2.35-2.62-2.13A21,21,0,0,0,177.22,352.79Zm-8-70.7c-.85,2-2.31,4-2.42,6.1-.28,5.7,0,11.43.07,17.15,0,1,.19,2,.29,2.92l.81-.07c.07-1.07.18-2.13.19-3.2,0-3.49,0-7,0-10.46,0-2.62.92-3.84,3.32-4,2.8-.22,5.57-.87,8.54-1.36-3.68-3.66-7.13-1.15-10.33.18-.2-2.74-.36-5-.53-7.31a56.44,56.44,0,0,0,1.11-7.13c.07-1.9.63-3.08,2-3.89,1.77-1,3.53-2.06,5.3-3.1l-.29-1c-1.38.5-2.75,1-4.12,1.48-.73.28-1.45.62-2.17.93a10.47,10.47,0,0,1-.69-2.75c.1-2.35.42-4.69.7-7.4-.76.38-1.58.6-1.58.83C169.31,267.33,169.26,274.71,169.21,282.09Zm4.27-132.9-1.07,0v3.56c0,12.79,0,25.58-.14,38.38a22.26,22.26,0,0,1-1,4.53l.32-.16.75,13.32,1.12-.14ZM172.4,113l-1.16,0c.29,11.32-.39,22.67,1.28,34a19.26,19.26,0,0,0,.8-6.54c-.23-5.53-.68-11-.9-16.59C172.28,120.27,172.4,116.62,172.4,113Zm1.33,100.43c-1.9-.84-2.51.06-2.51,2.08,0,6,0,12.05,0,18.08a7.19,7.19,0,0,0,.37,1.54C173.3,228,170.94,220.55,173.73,213.42Zm-1.31,150.3-.67.74-3.63-.95-.81,6.2.91.38C169.88,368.21,173.09,368,172.42,363.72ZM152.1,346.1c.33,3.29,4.52,8.65,6.8,8.68l-.88-5.26C154.63,351.26,154.81,346,152.1,346.1Zm19-108.1-.7,0v14.56h.7Zm-23.07,29.87a6.82,6.82,0,0,0-5.26-7.39Zm24.47,75-.53-1.5c-1.46.48-2.94.89-4.35,1.51-.29.12-.56,1.12-.42,1.53s.93.87,1.23.73C169.85,344.52,171.17,343.67,172.52,342.9ZM171.24,97c-1.71,5-1.27,9.14,0,9.54ZM182,347.23l.49.69a50.71,50.71,0,0,0,4.14-3.61c.28-.29-.09-1.45-.27-2.17,0-.08-1-.1-1.14.16C184.07,343.89,183,345.58,182,347.23ZM170,79.91l-.5,0v7.89l.5,0Zm-10.14,202-.36.89c1.22.86,2.41,1.77,3.67,2.54a1.13,1.13,0,0,0,1.16-.27,1.48,1.48,0,0,0-.15-1.26C162.77,283.07,161.31,282.5,159.86,281.88Zm9-213.95h-.51v7.61h.51Zm17.75,192.59-4.51,1.54C183.23,264.28,184.28,264,186.58,260.52ZM133.86,230l-.78.24c0,1.8-.83,3.92,2.06,4.76Z"/><path class="cls-1" d="M128.64,246.86c-1.84-3-1.29-6.6,1.09-7.33l-.08-.08c-.36,2.49-.73,5-1.09,7.46Z"/><path class="cls-1" d="M168.29,432.69v-6.26l.37,0v6.26Z"/><path class="cls-1" d="M183.14,395.64c.66,3.75-2.55,3.94-4.21,5.59l-.9-.33.81-5.45,3.62.83Z"/><path class="cls-1" d="M128.56,246.91c.36-2.49.73-5,1.09-7.46.26.06.62,0,.77.19.79.94.75,8.1,0,9.22Z"/><path class="cls-1" d="M172.52,342.9c-1.35.77-2.67,1.62-4.07,2.27-.3.14-1.1-.34-1.23-.73s.13-1.41.42-1.53c1.41-.62,2.89-1,4.35-1.51Z"/><path class="cls-1" d="M138.23,245.79c2.08,1.93,3.6,4.11,2.47,8-2.34-2.36-2.58-5.11-2.4-8Z"/><path class="cls-1" d="M154,320.8c-2-1.82-4.35-3.41-5-6.59,1.86,2,5.09,2.77,4.91,6.67Z"/><path class="cls-1" d="M177.22,352.79a21,21,0,0,1,3.19-3.37c.3-.22,1.47,1.16,2.62,2.13l-5.88,1.15Z"/><path class="cls-1" d="M179.46,317.16c1-2.4,2.25-4.43,4.52-5.37-.65,2.77-2,4.78-4.6,5.28Z"/><path class="cls-1" d="M170,79.91v7.82l-.5,0V79.87Z"/><path class="cls-1" d="M168.83,67.93v7.61h-.51V67.94Z"/><path class="cls-1" d="M186.58,260.52c-2.3,3.44-3.35,3.76-4.51,1.54Z"/><path class="cls-1" d="M133.86,230l1.28,5c-2.89-.84-2-3-2.06-4.76Z"/></svg>