<svg id="Layer_1" data-name="Layer 1" xmlns="http://www.w3.org/2000/svg" viewBox="0 0 333.82 432"><defs><style>.cls-1{fill:#99c864;}.cls-2{fill:#fff;}</style></defs><title>lilac</title><path class="cls-1" d="M178.48,330.67C15.28,312,116.74,180.5,152.26,38.3c64.18,114.94,199.91,231.11,32.93,288.29C173.83,353.78,163.47,380,161,398.3l-9.69-5C161.59,378.4,170.32,355.9,178.48,330.67Z"/><line class="cls-1" x1="154.32" y1="50.62" x2="181.03" y2="328.21"/><path class="cls-2" d="M154.32,50.62c3.66,23,6.64,46.06,9.38,69.14,1.44,11.54,2.62,23.1,3.92,34.64l3.53,34.68,3.16,34.72c.92,11.59,2,23.16,2.76,34.76,1.71,23.18,3.18,46.38,4,69.65-3.68-23-6.66-46-9.4-69.13-1.44-11.54-2.61-23.1-3.92-34.64l-3.52-34.69L161,155c-.92-11.59-2-23.16-2.75-34.76C156.57,97.1,155.1,73.9,154.32,50.62Z"/><path class="cls-2" d="M250.82,244.85c-6.51,4.75-12.91,9.44-19.08,14.4s-12.11,10.13-17.84,15.55-11.25,11.06-16.66,16.86-10.6,11.83-16,17.81a134,134,0,0,1,13-20.32,147.65,147.65,0,0,1,16.21-18,137.65,137.65,0,0,1,19-15.06A113.89,113.89,0,0,1,250.82,244.85Z"/><path class="cls-2" d="M245.24,198.31c-6.5,4.75-12.9,9.44-19.07,14.4s-12.11,10.13-17.85,15.55-11.24,11.06-16.65,16.86-10.6,11.83-16,17.81a134.84,134.84,0,0,1,13-20.32,147.57,147.57,0,0,1,16.2-18,138.34,138.34,0,0,1,19-15.06A113.81,113.81,0,0,1,245.24,198.31Z"/><path class="cls-2" d="M225.57,166.51c-5,3.8-9.92,7.46-14.68,11.3s-9.38,7.79-13.85,11.91-8.81,8.41-13.07,12.81-8.44,8.93-12.84,13.4A91.88,91.88,0,0,1,181,200a107.07,107.07,0,0,1,12.67-13.92,101.43,101.43,0,0,1,15-11.44A80.86,80.86,0,0,1,225.57,166.51Z"/><path class="cls-2" d="M207,133.31c-3.72,3.41-7.44,6.59-11,9.88s-7.12,6.6-10.56,10-6.79,6.91-10.15,10.47-6.69,7.17-10.31,10.69a68.35,68.35,0,0,1,7.26-13.17,82.56,82.56,0,0,1,9.68-11.54,78.73,78.73,0,0,1,11.68-9.56A58.92,58.92,0,0,1,207,133.31Z"/><path class="cls-2" d="M190.9,109.49c-2.52,2.94-5.09,5.59-7.61,8.27s-5,5.31-7.48,8l-7.45,8.06c-2.53,2.69-5.07,5.4-8,8a45.28,45.28,0,0,1,4.84-10.35,59.11,59.11,0,0,1,6.91-9.08,56.12,56.12,0,0,1,8.59-7.55A39.55,39.55,0,0,1,190.9,109.49Z"/><path class="cls-2" d="M177.48,311.1c-5.95-5.3-11.78-10.57-17.84-15.55s-12.23-9.74-18.61-14.23-12.95-8.71-19.68-12.74-13.61-7.83-20.54-11.78a126.73,126.73,0,0,1,22.4,8.32,143.91,143.91,0,0,1,20.7,12.11,140.42,140.42,0,0,1,18.37,15.43A119.23,119.23,0,0,1,177.48,311.1Z"/><path class="cls-2" d="M175.48,267.19c-6.18-5-12.25-9.94-18.52-14.59s-12.65-9.09-19.23-13.23-13.32-8-20.22-11.67-14-7.1-21.05-10.67a126,126,0,0,1,22.72,7.11,142.2,142.2,0,0,1,21.22,11,138.68,138.68,0,0,1,19,14.44A117.83,117.83,0,0,1,175.48,267.19Z"/><path class="cls-2" d="M170.92,216.41c-4.8-3.94-9.42-7.9-14.16-11.67s-9.55-7.39-14.5-10.82-10-6.69-15.21-9.82-10.49-6.14-15.81-9.35a86.38,86.38,0,0,1,17.64,5.87,102.26,102.26,0,0,1,16.23,9.19,100.68,100.68,0,0,1,14.27,12A82.71,82.71,0,0,1,170.92,216.41Z"/><path class="cls-2" d="M170.25,168.47c-4.12-2.79-8-5.66-11.95-8.39s-7.89-5.4-11.92-7.94-8.11-5-12.27-7.41-8.38-4.79-12.59-7.43a63.6,63.6,0,0,1,14.3,3.89,78.44,78.44,0,0,1,13.24,6.72,76.23,76.23,0,0,1,11.72,9.14A59.31,59.31,0,0,1,170.25,168.47Z"/><path class="cls-2" d="M162.1,137.73c-2.73-2.17-5.15-4.43-7.57-6.64l-7.16-6.59-7.2-6.59c-2.4-2.24-4.84-4.5-7.16-7.1a36.3,36.3,0,0,1,9.49,3.93,46.93,46.93,0,0,1,8.24,6.07,46.38,46.38,0,0,1,6.76,7.72A34.19,34.19,0,0,1,162.1,137.73Z"/></svg>