<svg id="Layer_1" data-name="Layer 1" xmlns="http://www.w3.org/2000/svg" viewBox="0 0 333.82 432"><defs><style>.cls-1{fill:#fff;}.cls-2{fill:#99c864;}</style></defs><title>linden</title><path class="cls-1" d="M287,185.81l5.15-3.79c1.64,8.5,3.18,16.44,4.8,24.82l6.22-1.73v17.52l6.24-3.11c-.95,6.89-1.81,13.13-2.7,19.63l5.23-.86c-1.39,6.1-2.68,11.8-4.11,18.1l7.77-1-9.05,18.41,4.8,1.9-8,13.09,6.33.74-13.79,13.38,5.91,4.52-13.1,9.73,6.82,3.38L278,330.18l4.66,4.28L267.34,339c.4,1.35.77,2.55,1.24,4.13l-16.23,3.18c.61,1.65,1.11,3,1.76,4.76-14.05,3.36-27.75,3.18-41.3-1.66S188.67,335,178.9,323.52q1.28,41,2.56,82H166.94c.91-27.14,1.84-54.68,2.83-83.82C150.15,349,125,357.65,94.4,351.21L96,346.27l-16.2-3.16L81,339l-15.67-4.47,5.23-4.24-17.72-9.68L60,317.19c-4.6-3.35-8.78-6.38-13.34-9.68l4.89-3.73L37.66,289.66l7.55-.89c-2.84-4.53-5.39-8.57-8.11-12.9l4.7-2.21c-2.92-6-5.81-11.85-9-18.46l7.86,1.4c-1.43-6.3-2.75-12.11-4.16-18.35l5.23,1c-.82-6.49-1.63-12.8-2.49-19.53l5.94,2.82V204.75l6.3,2.27c1.59-8.33,3.13-16.34,4.76-24.79l5.36,3.45c1.72-7,3.36-13.75,5.16-21.14L73,169l9.27-24,5.25,6.13,9.36-21.33,4.61,6.91c2.39-3.78,4.22-7.51,6.81-10.51,2.16-2.52,1.85-8.45,7.73-6.92l9.24-18.46,3.31,5.09c1.64-3,2.81-5.84,4.57-8.19,1.43-1.9.9-6.82,5.57-4.62,1.77-4.12,3.54-8.24,5.45-12.71l3.75,2.38,6.32-16.49,3.54,2.65,5.33-13.58,3.79,2.58c2.37-4.06,4.63-7.91,7.26-12.4,2.61,4.34,5,8.25,7.45,12.39l3.65-2.66,5.38,13.43,3.57-2.38c2.08,5.43,4.13,10.77,6.29,16.39l3.74-2.27A40.57,40.57,0,0,0,207,86.55c1.49,2.23.49,6.92,5.48,6.14.73-.12,2,3.34,3,5.16,1.39,2.55,2.76,5.12,4.4,8.16l3.27-5.06,9.53,18.61.68-1c1.17.62,2.78.92,3.44,1.92,3.43,5.14,6.61,10.46,10.16,16.17l4.53-6.88c3.22,7.25,6.2,14,9.47,21.31,1.68-2,3.16-3.69,5.36-6.24,3.11,8.33,6,16.17,9.07,24.29l6.19-4.73C283.36,171.52,285.08,178.32,287,185.81ZM197.41,279a.86.86,0,0,1-.49.22c-1.75,1.66-3.26,3.88-5.31,4.85-3.73,1.78-7.83,2.67-11.66,4.26a3.17,3.17,0,0,0,.66,5.84,64,64,0,0,0,7.31,1.5c3.74.76,7.48,1.54,11.21,2.31l-.22,1.79c-6.58,2.83-13.17-2.09-20.55-.8,18.73,22.17,42.38,32.77,69,37.48A96.9,96.9,0,0,1,210,328.17c-12-5.33-22.17-13.47-31.6-23.27.08,4.37,0,8.78,1.84,12a67,67,0,0,0,24.18,24.65c13.83,8.12,28.58,9.5,44.2,6.9l-1.44-4.86,15-2.94c1.43-8,8.94-4.34,12.48-9l-3.3-2.06,15.44-8.44-5.05-2.94,13.34-10.58-4.82-4.1,12.3-10.68L297,291.77l8.53-13.54-4.28-2.08L309,260.59l-6.06.85c1.45-6.15,2.76-11.7,4.16-17.65l-4.61.66c.8-6.14,1.53-11.77,2.31-17.77l-5.51,1.7V210.67l-4.88,1.2c-1.54-7.84-3-15.32-4.58-23.28L284.81,192c-1.77-7.26-3.42-14.07-5.14-21.15l-5.77,4L265,151.61l-4.66,6.82-9.19-20.76-4,6.08c-4-6.44-7.7-12.39-11.52-18.52L233,128l-9.82-19.35-3.42,4.78C217,108.38,214.52,103.7,212,99l-2.66,2.25c-2.22-5.13-4.32-10-6.45-14.88l-4,2.25L193,73.08l-3.46,2.83-5.14-13c-7.18.45-6.27-7.81-9.88-9.27-4.66,1.88-3.27,10.21-10.61,9.2l-5.08,13.07-3.48-2.75c-2.06,5.38-4,10.36-6,15.57l-3.91-2.48-6.26,15L136.37,99l-7.86,14.58-3.29-5L115.65,128l-2.93-2.57c-3.91,6.27-7.61,12.18-11.49,18.41l-3.8-6.11-9.52,20.94L83,152.55c-2.88,7.67-5.6,14.89-8.41,22.39l-5.76-4.05c-1.82,7.23-3.53,14-5.27,21l-5-3c-1.54,8-3,15.52-4.44,23.13l-5.29-1.35V228.4l-5.08-1.64c.74,6.23,1.42,11.92,2.11,17.66l-4.48-.37,4.13,17.4-6-.77c2.71,5.51,5.13,10.45,7.7,15.65l-4.42,1.86c3,4.65,5.74,9,8.74,13.67l-5.59.88,11.84,11-4.34,3.91,13.25,10.58-5.06,2.92,15.31,8.39-2.36,3c3.36,4,11.26-.51,11.56,8l15.22,3c-.35,1.07-.56,1.7-.75,2.34s-.4,1.47-.63,2.32a27.23,27.23,0,0,0,3.33.85c28.22,3.22,50.13-7.82,65.59-32.85,2.72-4.41,2.49-9.59.21-14.45l.1.11V300c-17.8.79-35.68,2.43-53.53,2.14-18-.28-35.12-5.56-51.35-15.35.8-.26,1-.4,1.09-.35,32.91,16.41,67.07,15.18,101.62,7.92,1.17-.24,3-1.68,3-2.49-.06-1.31-1.21-2.79-2.27-3.76a47,47,0,0,0-5.19-3.72l.67-1.35,7.94,2.6c0-17-.15-33,.1-48.92.06-4.1-1-6.17-4.63-7.9-14-6.55-26.74-15.11-37.24-27-3.07-3.48-6-5.57-10.87-6-8.6-.75-16.35-4.66-22.92-10.7-3-2.74-5.66-5.84-8.47-8.78,15.41,12.14,25.61,17.15,33.92,15.49-2-3.66-4.12-7.22-5.93-10.93a115.56,115.56,0,0,1-4.7-11.05c-1.35-3.71-2.34-7.56-3.49-11.34,15.47,34.33,39.91,60.14,64.62,66.53,0-12.46.12-24.75-.16-37,0-1.44-2.08-3.12-3.52-4.18-8.41-6.2-17.68-11.37-25.23-18.56C132.4,155.53,127.81,139,130,126.11c1.83,28.67,18.83,44.3,42,55.41l1.78-109,1.21,0c.58,36.17,1.15,72.35,1.74,109,23.3-11.34,40.06-27.17,42-55.57.91,14.81-2.61,27.92-12.11,38.91-7.32,8.48-16.47,14.14-26.14,19.06-1.42.73-3.4,2.42-3.42,3.71-.26,12.4-.16,24.81-.16,38.72,8-4.64,14.9-8.09,21.22-12.5a123.7,123.7,0,0,0,18.45-15.21,106,106,0,0,0,14.3-18.87c4-6.7,6.83-14.24,10.17-21.41l1.31.62q-7.12,16.77-14.27,33.57c13-.59,23-8.49,32.88-16.67-8.48,11.74-19.42,18.87-33.46,20.41-1.83.2-4.16.77-5.26,2.1-11.4,13.84-25.64,23.41-41.23,30.92-2.94,1.42-3.72,3.22-3.63,6.44.41,14.11.59,28.23.82,42.34,0,1.45-.18,2.89-.28,4.34l-1.23.2a62.47,62.47,0,0,1-1.77-6.06c-.42-2.1-.48-4.28-.69-6.43l-1.75.19c.21,3.67-.06,7.47.74,11,1,4.2,4.93,5.64,8.69,3.63,2.94-1.57,5.64-3.73,8.68-5C192.59,279.09,195.09,279.28,197.41,279Z"/><path class="cls-2" d="M169.11,301.81c2.28,4.86,2.51,10-.21,14.45-15.46,25-37.37,36.07-65.59,32.85a27.23,27.23,0,0,1-3.33-.85c.23-.85.42-1.59.63-2.32s.4-1.27.75-2.34l-15.22-3c-.3-8.56-8.2-4.09-11.56-8l2.36-3-15.31-8.39,5.06-2.92L53.44,307.68l4.34-3.91-11.84-11,5.59-.88c-3-4.7-5.76-9-8.74-13.67l4.42-1.86c-2.57-5.2-5-10.14-7.7-15.65l6,.77-4.13-17.4,4.48.37c-.69-5.74-1.37-11.43-2.11-17.66l5.08,1.64V210.65L54.08,212c1.46-7.61,2.9-15.13,4.44-23.13l5,3c1.74-6.94,3.45-13.74,5.27-21l5.76,4.05c2.81-7.5,5.53-14.72,8.41-22.39l4.9,6.09,9.52-20.94,3.8,6.11c3.88-6.23,7.58-12.14,11.49-18.41l2.93,2.57,9.57-19.38,3.29,5L136.37,99l2.87,2.14,6.26-15,3.91,2.48c2-5.21,3.9-10.19,6-15.57l3.48,2.75,5.08-13.07c7.34,1,5.95-7.32,10.61-9.2,3.61,1.46,2.7,9.72,9.88,9.27l5.14,13L193,73.08l5.88,15.51,4-2.25c2.13,4.9,4.23,9.75,6.45,14.88L212,99c2.55,4.73,5.06,9.41,7.8,14.49l3.42-4.78L233,128l2.54-2.8c3.82,6.13,7.52,12.08,11.52,18.52l4-6.08,9.19,20.76,4.66-6.82,8.94,23.3,5.77-4c1.72,7.08,3.37,13.89,5.14,21.15l5.05-3.44c1.56,8,3,15.44,4.58,23.28l4.88-1.2v17.71l5.51-1.7c-.78,6-1.51,11.63-2.31,17.77l4.61-.66c-1.4,6-2.71,11.5-4.16,17.65l6.06-.85-7.79,15.56,4.28,2.08L297,291.77l5.58,1.08-12.3,10.68,4.82,4.1-13.34,10.58,5.05,2.94-15.44,8.44,3.3,2.06c-3.54,4.62-11.05.94-12.48,9l-15,2.94,1.44,4.86c-15.62,2.6-30.37,1.22-44.2-6.9a67,67,0,0,1-24.18-24.65c-1.83-3.18-1.76-7.59-1.84-12,9.43,9.8,19.61,17.94,31.6,23.27a96.9,96.9,0,0,0,37.34,8.27c-26.6-4.71-50.25-15.31-69-37.48,7.38-1.29,14,3.63,20.55.8l.22-1.79c-3.73-.77-7.47-1.55-11.21-2.31a64,64,0,0,1-7.31-1.5,3.17,3.17,0,0,1-.66-5.84c3.83-1.59,7.93-2.48,11.66-4.26,2-1,3.56-3.19,5.31-4.85,2.91,3.44,5.41.44,7.9-.7,3.26-1.5,1.86-4.5,1.64-7.07l3.65,4.78c3.91-2.3,7.74-4.59,11.61-6.8,2.21-1.26,2.6-2.48.18-3.92,5.36-.15,10.72-.36,16.08-.45,7-.11,14,.44,20.88-.32,12.58-1.4,28.11-10.82,34.18-20.34-17.91,13-36.55,20.17-59,15.68a109.15,109.15,0,0,0,25.87-33c6.21-12.35,12.11-32.34,11.71-40.16-.3.79-.59,1.42-.77,2.07-8.37,30.41-23.65,55.62-49.08,73.31-.87.6-1,2.4-1.44,3.65-3.5,1.35-7,2.68-10.51,4.05-1.14.45-2.24,1-3.36,1.47L197.41,279c-2.32.29-4.82.1-6.91,1-3,1.28-5.74,3.44-8.68,5-3.76,2-7.72.57-8.69-3.63-.8-3.52-.53-7.32-.74-11l1.75-.19c.21,2.15.27,4.33.69,6.43a62.47,62.47,0,0,0,1.77,6.06l1.23-.2c.1-1.45.3-2.89.28-4.34-.23-14.11-.41-28.23-.82-42.34-.09-3.22.69-5,3.63-6.44,15.59-7.51,29.83-17.08,41.23-30.92,1.1-1.33,3.43-1.9,5.26-2.1,14-1.54,25-8.67,33.46-20.41C251,184.09,241,192,228,192.58q7.15-16.8,14.27-33.57l-1.31-.62c-3.34,7.17-6.14,14.71-10.17,21.41a106,106,0,0,1-14.3,18.87A123.7,123.7,0,0,1,198,213.88c-6.32,4.41-13.24,7.86-21.22,12.5,0-13.91-.1-26.32.16-38.72,0-1.29,2-3,3.42-3.71,9.67-4.92,18.82-10.58,26.14-19.06,9.5-11,13-24.1,12.11-38.91-1.92,28.4-18.68,44.23-42,55.57-.59-36.66-1.16-72.84-1.74-109l-1.21,0-1.78,109c-23.13-11.11-40.13-26.74-42-55.41-2.16,12.92,2.43,29.42,12.68,39.17,7.55,7.19,16.82,12.36,25.23,18.56,1.44,1.06,3.49,2.74,3.52,4.18.28,12.27.16,24.56.16,37-24.71-6.39-49.15-32.2-64.62-66.53,1.15,3.78,2.14,7.63,3.49,11.34a115.56,115.56,0,0,0,4.7,11.05c1.81,3.71,3.92,7.27,5.93,10.93-8.31,1.66-18.51-3.35-33.92-15.49,2.81,2.94,5.49,6,8.47,8.78,6.57,6,14.32,9.95,22.92,10.7,4.83.42,7.8,2.51,10.87,6,10.5,11.87,23.28,20.43,37.24,27,3.66,1.73,4.69,3.8,4.63,7.9-.25,16-.1,31.95-.1,48.92l-7.94-2.6-.67,1.35a47,47,0,0,1,5.19,3.72c1.06,1,2.21,2.45,2.27,3.76,0,.81-1.81,2.25-3,2.49-34.55,7.26-68.71,8.49-101.62-7.92-.1-.05-.29.09-1.09.35,16.23,9.79,33.34,15.07,51.35,15.35,17.85.29,35.73-1.35,53.53-2.14v1.95c-.74.21-1.72.18-2.17.68a93.89,93.89,0,0,1-34.48,24.34c-10,4-20.49,6.67-30.9,10,3.64-.42,7.25-.73,10.84-1.27,20.9-3.13,39.29-11.75,54-28.15C167.77,306,168.24,303.73,169.11,301.81Zm-31.35-28.68c.92,3,8.5,8.12,10.72,6.95.73-.38,1.33-3,1.13-3.09-3.41-2.29-7-4.38-10.53-6.35-.15-.08-1.07,1.4-1.63,2.15-1.82-5.46-5.24-8-10.8-6.51,2.92-1.19,2-2.54.15-3.95-2.63-2-5.3-3.94-7.87-6-17.16-14-29.12-32.06-36.84-53.35-1.9-5.25-3.55-10.6-5.32-15.9,3.87,29,15.37,53.67,37.6,73.05-22.57,4.47-41.22-2.84-58.8-15.1a5,5,0,0,0,1.29,2.13c14.52,14.6,31.79,20.57,51.63,18.15,6.1-.75,12.12-2,18,1.1a10.78,10.78,0,0,0-.33,2.34C130,270.28,133.87,271.69,137.76,273.13Zm62.55,24.64-.81,1.47c1,.81,2,2.23,3.07,2.34,16.48,1.7,32.9,1.65,49.21-1.92,12.42-2.72,26.81-8.6,32.85-14C257.22,299.33,229.18,301.85,200.31,297.77Zm-48-21.53c-.74,6.55.77,7.81,8.22,6.9Z"/><path class="cls-1" d="M197.41,279l9.06-7.54h0c.22,2.57,1.62,5.57-1.64,7.07-2.49,1.14-5,4.14-7.9.7A.86.86,0,0,0,197.41,279Z"/><path class="cls-1" d="M220.33,265.93c.46-1.25.57-3.05,1.44-3.65,25.43-17.69,40.71-42.9,49.08-73.31.18-.65.47-1.28.77-2.07.4,7.82-5.5,27.81-11.71,40.16a109.15,109.15,0,0,1-25.87,33c22.45,4.49,41.09-2.67,59-15.68-6.07,9.52-21.6,18.94-34.18,20.34-6.9.76-13.92.21-20.88.32-5.36.09-10.72.3-16.07.45Z"/><path class="cls-1" d="M126.46,266.38c-5.85-3.08-11.87-1.85-18-1.1-19.84,2.42-37.11-3.55-51.63-18.15A5,5,0,0,1,55.57,245c17.58,12.26,36.23,19.57,58.8,15.1C92.14,240.72,80.64,216,76.77,187.05c1.77,5.3,3.42,10.65,5.32,15.9,7.72,21.29,19.68,39.34,36.84,53.35,2.57,2.09,5.24,4,7.87,6,1.86,1.41,2.77,2.76-.15,3.95Z"/><path class="cls-1" d="M200.31,297.77c28.87,4.08,56.91,1.56,84.32-12.07-6,5.36-20.43,11.24-32.85,14-16.31,3.57-32.73,3.62-49.21,1.92-1.08-.11-2-1.53-3.07-2.34Z"/><path class="cls-1" d="M169.11,301.81c-.87,1.92-1.34,4.22-2.65,5.69-14.67,16.4-33.06,25-54,28.15-3.59.54-7.2.85-10.84,1.27,10.41-3.31,20.89-6,30.9-10A93.89,93.89,0,0,0,167,302.6c.45-.5,1.43-.47,2.17-.68Z"/><path class="cls-1" d="M220.33,265.93l1.58-.43c2.41,1.44,2,2.66-.19,3.92-3.87,2.21-7.7,4.5-11.61,6.8l-3.65-4.78h0c1.11-.49,2.21-1,3.35-1.47C213.32,268.61,216.83,267.28,220.33,265.93Z"/><path class="cls-1" d="M137.45,272.79c.56-.75,1.48-2.23,1.63-2.15,3.58,2,7.12,4.06,10.53,6.35.2.13-.4,2.71-1.13,3.09-2.22,1.17-9.8-3.94-10.71-6.95C137.55,273,137.45,272.88,137.45,272.79Z"/><path class="cls-1" d="M137.45,272.79c0,.09.1.21.32.34-3.9-1.44-7.79-2.85-11.64-4.41a10.78,10.78,0,0,1,.33-2.34l.19-.1C132.21,264.81,135.63,267.33,137.45,272.79Z"/><path class="cls-1" d="M152.34,276.24l8.22,6.9C153.11,284.05,151.6,282.79,152.34,276.24Z"/></svg>