<svg id="Layer_1" data-name="Layer 1" xmlns="http://www.w3.org/2000/svg" viewBox="0 0 333.82 432"><defs><style>.cls-1{fill:#99c864;}.cls-2{fill:#fff;}</style></defs><title>maple</title><path class="cls-1" d="M156.45,280c-39.52,30.1-61.94,20-79.65-1.2,6.79-20.43-13.91-31.15-47.34-37.37,30.08-7.29,14-44.79-5.26-84.37,34.53,22.32,60.4,27.63,70.36,1.67,24.15,13.71,22.52-17.86,11.41-66.06,31.75,22,47.73-14.23,62.61-54.51,17.14,52.75,37.26,77.74,62.5,55.14-11.07,50.7-14,83.31,5.64,66.25,14,27.6,42.48,16.91,75.48-5.75-22.63,45.84-45.37,91.78-11.79,88.95-26.25,2-47.89,8.57-44.25,39.69-31.69,16.84-60.83,15.73-87.72-1.3-13.73,39.28-21.86,78.33-21.44,117l-16-2C145.9,358.31,153.84,319.53,156.45,280Z"/><path class="cls-2" d="M167.55,68.89c1.75,16.63,2.61,33.25,3.19,49.87s.74,33.24.63,49.86-.53,33.23-1.3,49.84-1.9,33.22-3.88,49.82c-1.76-16.63-2.62-33.25-3.2-49.87s-.74-33.24-.62-49.86.54-33.23,1.32-49.84S165.58,85.49,167.55,68.89Z"/><path class="cls-2" d="M228.53,195.6a195.47,195.47,0,0,1-13.32,20.64q-7.19,9.87-15.05,19.18t-16.37,18.07a194.69,194.69,0,0,1-18.12,16.59A194,194,0,0,1,179,249.43q7.19-9.88,15.07-19.17t16.37-18.07A195.84,195.84,0,0,1,228.53,195.6Z"/><path class="cls-2" d="M103.84,195.6A195.84,195.84,0,0,1,122,212.19q8.54,8.75,16.37,18.07t15.07,19.17a192.49,192.49,0,0,1,13.31,20.65,194.69,194.69,0,0,1-18.12-16.59q-8.54-8.75-16.37-18.07t-15.05-19.18A195.47,195.47,0,0,1,103.84,195.6Z"/></svg>