<svg id="Layer_1" data-name="Layer 1" xmlns="http://www.w3.org/2000/svg" viewBox="0 0 154.56 426.82"><defs><style>.cls-1{fill:#90c33e;}</style></defs><title>nannyberry81</title><path class="cls-1" d="M480.43,286.56c1.86,0,2.69-1,2.66-3.25,0-.77-.13-1.34,1-1.27a.92.92,0,0,0,1-.73c.22-1.45,1.4-2.66,1.17-4.23,0-.18.07-.54.14-.55,2.34-.24,1.72-2.18,1.61-3.26-.22-2,1.17-3.65,1.07-5.62-.06-1.08-.66-2.29.73-3.4.87-.69.11-2.3,0-3.49-.08-.58-.56-1.22.46-1.51.27-.07.27-.46.16-.7-.64-1.56-.14-3.25-.61-4.84-.2-.65-.66-1.42.7-1.76.68-.17.34-1.2.21-1.86-.09-.42-.63-1,.07-1.22,1.29-.5,1.24-1.56,1.13-2.52-.15-1.32.29-2.61,0-3.93-.16-.77,1-.64,1.15-1.42.19-1.18.66-2.32,1-3.49.1-.4-.06-.87.69-.58.45.18.65-.28.8-.61.5-1.1,1-2.22,1.44-3.33.3-.72-.13-1.84,1.2-2-.43-1.7,1.56-1.8,2-2.83.79-1.74,0-3.36-.86-4.91-.17-.31-.61-.46-.58-.9,1.49-.17,2-.94,1.53-2.49-.06-.24-.39-.56-.11-.71,2.07-1.19.43-2.58.34-3.91,2.13-.11,1.4-2,2-3.14.12-.22-.3-.57.11-.82,1.65-1,2-2,1.31-4,1.1.56,1.35-.13,1.49-.85.37-1.89,1.36-3.66,1.27-5.66,0-.14.06-.39.13-.4,2.1-.35,1.05-2.2.81-2.66-1.17-2.16-.05-4.06.35-6,.23-1.13.16-2.49,1.8-2.92.42-.11.55-.73.75-1.17a28.11,28.11,0,0,0,2.47-11.46,58.08,58.08,0,0,1,1.38-10.12A54.93,54.93,0,0,1,516,158a18.89,18.89,0,0,1,2.92-6.09c1.54-1.84,3.41-4,6.5-3.84l0,0c0,.43-.79.53-.47,1.06.44.72-.38.77-.56.71-1.95-.71-2.49,1.16-3.64,1.85a2.65,2.65,0,0,0-1.13,2.59c0,1.16-1.15,2.18-1.62,3.37a24.64,24.64,0,0,0-1.81,10,4,4,0,0,0,1.88,3.24,13.81,13.81,0,0,1,5,6.83c.25.75.34,1.61,1.5,1.54.22,0,.49.16.42.39-.55,2,1,3.35,1.52,5,.27,1,.58,2.08,1.94,2.29.21,0,.42.33.55.54,1.93,3.11,3.37,6.33,3.11,10.08-.08,1.18-.29,2.7,1.85,2.5.47,0,.5.49.69.79,1.05,1.66,2,3.49,3.69,4.55,1,.63,1.44,1.09,1.42,2.28a1.87,1.87,0,0,0,1.48,2.17c.38.08.55,1.15.81,1.77s.53,1.38.79,2.06c.4,1,1,1.55,2.17.46a7,7,0,0,0,2.74,6.13c1.82,1.22,1.17,3.07,2.38,4.22.53.49.56,1.54,1.81.69.6-.41.86.54.9,1.06.16,2.46,1.73,4.34,2.84,6.4.2.37.29.81,1.07.58s.78.69.84,1.14A15.93,15.93,0,0,0,559,240c.17.31.17.92.56.89,1.93-.15,1.42,1.28,1.6,2.23s.15,1.68.32,2.5.24,1.76,1.63,1.34c.66-.2.36.46.43.74.26,1-.65,2.6,1.64,2.48.51,0,.3.93.18,1.38a4.59,4.59,0,0,0,.39,3.37c.14.27.35.74.52.74,2.08-.07,1.55,1.38,1.58,2.47s.21,1.94,1.61.87a30.13,30.13,0,0,0,.41,3.9c.29,1.22.52,2.71,2.47,2.51a1,1,0,0,1,.3.06c-.26,1.46.78,2.49,1.25,3.71a6.55,6.55,0,0,1,.06,1.41c.14,1,.47,1.79,1.92.83V275c0,.49.1,1.18.65,1.07,1.51-.32,1.07.64,1.09,1.33,0,.42,0,.84,0,1.27,0,1.2.57,1.63,1.83,1.06,0,1,0,1.92,0,2.84.1,1.52.4,1.67,2,1.08.26.52-.07,1-.09,1.52a1.86,1.86,0,0,0,1.56,2.23c.32.06.82,0,.83.35,0,1.62,1.89,2.35,2,3.94.07,1.12.58,1.77,1.76.83.18-.14.34-.31.54-.17a.55.55,0,0,1,.15.72c-1,2.29-.28,4.56.09,6.82.12.72.23,1.53,1.31,1.5.62,0,.53.3.46.71-.17.93-.31,1.86-.41,2.79s-.34,2.17,1.19,2.51a.5.5,0,0,1,.31.29,5.38,5.38,0,0,1-.1,2.9c-.35,1.07,1.73,1.22.8,2.47-.25.34-1,1.34.46,1.69.41.1.06,1-.09,1.44a10.29,10.29,0,0,0-.7,3.55c.06,1.22.18,2.38,1.88,2.3-.12.72-.24,1.34-.31,2,0,.31-.07.84.06.9,1.78.77.64,2,.57,3.07-.12,1.73,0,1.86,1.81,1.34a10.07,10.07,0,0,0-1.24,6c.15,1.46.54,2.43,2.43,1.58a13,13,0,0,0-1.07,6.94c.17,1.14.56,1.85,2,1.75a7.26,7.26,0,0,0-1.18,3.68c0,.81-.56,1.85,1,2.06.45.06.2.54.14.8a9.23,9.23,0,0,1-.58,1.8c-.55,1.14-.09,1.66,1.07,1.84l0,0c-.23,1.17-.48,2.35-.68,3.53-.12.64.09,1.06.88.85s1,.08.55.73a5.59,5.59,0,0,0-.68,5c.74,1.75.44,3.23.34,4.89-.07,1.34.94.43,1.64.39-.52,1.34-1.1,2.6-1.49,3.92-.31,1.09-.53,2.28,1.43,2.08.73-.08.44.56.38.9-.27,1.39-.64,2.77-.86,4.17-.11.72-.85,1.9,1,1.74.52-.05.22.47.12.71-.41,1.08-.93,2.13-1.26,3.23s-.79,2.48.48,3.6c.58.51-.09,1.17-.27,1.74-.34,1.16-1.71,2.26-.1,3.5.12.09-.06.58-.15.87-.46,1.4-.92,2.81-1.39,4.21-.28.83-.79,1.66.12,2.46a.75.75,0,0,1,0,.73c-1.19,2.1-.69,4.46-1,6.68-.19,1.46-.9,3-.66,4.26.35,1.75-1.16,2.59-1.17,3.83,0,2.28-2.17,4-2,6,.24,2.22-.89,3.8-1.48,5.65-.12.39-.59,1.36.73.86.36-.13.48.06.21.7-.51,1.16-1.15,2.27-1.61,3.45-.23.58-1,1.33.19,1.86.2.09.19.38.06.56-1.5,1.95-1.12,4.63-2.75,6.53-.81,1,0,2.29-1,3.33a14.52,14.52,0,0,0-2.93,4.53c-.19.53-1.19,1.16,0,1.82.42.22-.17.47-.36.65-.81.78-1.7,1.49-2.43,2.33-.32.36-1.44.8-.23,1.51.34.2-.14.39-.26.56-1.13,1.55-2.31,3.06-3.4,4.63-.62.91-1.49,1.67-1.12,3.1.19.74-1,1.5-1.73,2.14s-1.6,1.42-2.43,2.1-.36,2-1.59,2.61a5.55,5.55,0,0,0-2.2,2c-.77,1.16-2.56,1.68-3.57,2.9-.1.12-.39.18-.39.26,0,2-1.92,1.75-3,2.46-.63.41-1.82.5-1.21,1.76.12.26-.27.39-.5.54-1.58,1-2.93,2.36-4.6,3.28-.31.17-1.4.25-.44,1.11.3.27-.35.32-.63.4-2.06.55-4.33,1.07-5.73,2.56-2.69,2.86-6.72,3.75-9.42,6.35-1.61,1.55-3.54,2-5.35,2.85-.29.14-.73.21-.84.43-.49,1-1.31,1.16-2.37,1.14-2.22,0-3.56,1.87-5.53,2.44a33.64,33.64,0,0,0-6.85,3.33,9.08,9.08,0,0,1-5.45,1.25c-.59-.06-1.2,0-1.8-.05-1.59,0-2.68.48-3,2.17-.73,3.38-3,6.1-4.34,9.26-.88,2.16-2.12,4.2-3,6.36-.31.75-1.05.66-1.45,1.24-1.05,1.48-1.07,3.25-1.81,4.79-.58,1.24-.57,2.6-1.34,3.87a9.53,9.53,0,0,0-1.05,3.52c-.24,2.06-.79,4.08-1,6.14-.13,1.11-.7,2.16,0,3.42.48.91-.24,2.14-.33,3.24-.27,3.15,1.34,5.65,2.4,8.36a19.86,19.86,0,0,0,4.49,6.42c.67.7.61,1.05,0,1.46-1.31.82-2.63,2.1-4,2.23-2,.17-3.59,1.68-5.78,1.1-1.29-.34-2.14-.43-2.2-2-.18-4.78-1.37-9.41-2.28-14.09a25.89,25.89,0,0,1,.07-8.78,63.05,63.05,0,0,1,2.31-9.77,59,59,0,0,0,2.11-6.54c1-5.45,4.32-9.87,6.3-14.87.45-1.15,1.37-2.08,1.09-3.46-.13-.66.7-.86,1-1.39,1.81-3.61,3.42-7.33,5.55-10.8a1.48,1.48,0,0,0-.68-2.27c-3.41-1.73-4.63-5-6.25-8a6.93,6.93,0,0,0-3.34-3.12,3.92,3.92,0,0,1-2.44-2.9,1.26,1.26,0,0,0-.37-.69c-2.86-2-3.31-5.34-4.65-8.17-1.17-2.49-2.28-5-4.68-6.73-.49-.35-1.43-.65-.25-1.44.3-.2-.06-1.15-.61-1.59-.79-.62-1.63-1.21-1.47-2.41,0-.24-.29-.54-.5-.79-.59-.71-1.8-1.1-1.18-2.44a1.22,1.22,0,0,0-.76-1.29c-2-.63-2.17-2.6-3.15-4-.15-.21-.33-.55-.25-.73,1.07-2.52-1.31-3.63-2.32-5.28-.28-.47-.4-.43.19-.85a.57.57,0,0,0,.2-.67c-1.24-.94-.35-2.41-1-3.49-.24-.41-.32-1-.67-1.23a4.71,4.71,0,0,1-2.18-4.12c-.14-2.37-1.85-3.47-2.94-5.08-.44-.66-1.05-1.12-.54-2.33.44-1-.3-2.7-.92-3.89-.72-1.36-.85-2.86-1.46-4.23-.1-.23-.21-.59-.1-.75,1.12-1.64.39-3.17-.09-4.8-.33-1.1-1.58-2.11-.25-3.55.51-.55-.6-1.78-1.09-2.66s-1.73-1.76-.61-3.24c.42-.55-.06-1.83-.64-2.66a7,7,0,0,1-1.25-2.89c-.1-.57-.79-1.23.55-1.54.62-.14.32-1.19.16-1.86-.37-1.68-1.81-2.87-2.17-4.54l.08-.08c.34-.17.78-.34.58-.8-.73-1.66-.69-3.66-2.7-5.16,1.89.53,1.83-.24,1.5-1.23-.76-2.31.37-4.72-.37-7a.37.37,0,0,1,0-.3c2.4-1.55,1.06-3.44.51-5.24-.17-.55-.72-1.27.54-.55.2.11.22-.38.23-.62,0-.89.05-1.79,0-2.68,0-1.59-1.07-3.17.15-4.81.35-.48.07-1.43,0-2.16-.17-1.31-1.13-2.57.49-3.83.66-.51.47-1.86-.06-2.82a4.27,4.27,0,0,1-.6-2.37c.69.26,1.07,1.18,1.82.71s.37-1.14.43-1.75a5.13,5.13,0,0,0-.83-3.06c2,.55,2.28.35,2.57-1.47a18.39,18.39,0,0,0,.08-4.51c2.11-.57,1.28-2.52,1.87-3.8.91-1.95.66-4.12,1-6.25,1.27.78,1.71.1,1.86-1.07a9.43,9.43,0,0,0-.6-3.56c-.11-.41-.73-.84.42-1.22.64-.21.28-1.81-.34-2.52s-.52-.78.27-1.28c1.16-.73.84-2.12.87-3.3,0-.61-.7-1.58.72-1.64.07,0,.19-.17.18-.24-.42-2.89,2.72-5.13,1.59-8.15-.08-.22-.09-.69,0-.73,2.21-.93.67-2.69,1.12-4.07,1,.25,1.57-.09,1.35-1.27a1.84,1.84,0,0,1,.65-1.78c1-1,.55-2.39.72-3.62l0,0a1.09,1.09,0,0,0,1.31-.9c.1-.4.13-.83.27-1.22.44-1.24-.1-2.52,1.58-3.71a5.71,5.71,0,0,0,2-6c2.08.25,2.6-.48,2-2.7Zm13.95,285.23a2.72,2.72,0,0,0,2.53-1.06,3.07,3.07,0,0,1,1.2-.79c1.8-.77,1.83-.92.39-2.17a6.18,6.18,0,0,1-.61-.52c-1.16-1.37-3.13-2.1-3.19-4.34,0-.54-1.36-.95-1.91-1.72-.2-.28-2,0-1.94.72.11,1.91-.85,3.71-.42,5.61a7.35,7.35,0,0,1-.06,3.58c-.1.39,0,.91.49.74C492.06,571.4,493.23,571.85,494.38,571.79Z" transform="translate(-455.11 -146.52)"/><path class="cls-1" d="M531.28,146.7c.18.64.83.81,1.32,1.06a1.18,1.18,0,0,1,.7,1.52c-.73-1.6-3.12-2.26-5.58-1.35a3.52,3.52,0,0,1-2.3.13l0,0C527.33,147.42,529,146,531.28,146.7Z" transform="translate(-455.11 -146.52)"/><path class="cls-1" d="M569.06,502.81c0,.32-.17.6-.56.62s-.32-.22-.31-.43a.6.6,0,0,1,.47-.55C568.9,502.4,569,502.58,569.06,502.81Z" transform="translate(-455.11 -146.52)"/><path class="cls-1" d="M480.46,286.53l-.24-.33.2,0c0,.13,0,.25,0,.38Z" transform="translate(-455.11 -146.52)"/><path class="cls-1" d="M457.15,395.26c-.26,0-.38-.11-.28-.37h0c.27-.07.36.06.35.3Z" transform="translate(-455.11 -146.52)"/><path class="cls-1" d="M597.48,412.37l.1.09-.1.1-.1-.1Z" transform="translate(-455.11 -146.52)"/><path class="cls-1" d="M456.87,394.89l-.2-.14.1-.11.11.24Z" transform="translate(-455.11 -146.52)"/><path class="cls-1" d="M473.33,301h-.15l.12,0Z" transform="translate(-455.11 -146.52)"/><path class="cls-1" d="M598,355.73l.05-.19s0,.08,0,.09-.07.05-.1.08Z" transform="translate(-455.11 -146.52)"/><path class="cls-1" d="M476.62,209.61a.54.54,0,0,1-.58-.44.48.48,0,0,1,.4-.58.51.51,0,0,1,.66.49C477.12,209.39,476.89,209.53,476.62,209.61Z" transform="translate(-455.11 -146.52)"/><path class="cls-1" d="M609.67,278.05c-.09,0-.2.11-.25.08s-.08-.15-.11-.23.19-.11.25-.08S609.63,278,609.67,278.05Z" transform="translate(-455.11 -146.52)"/><path class="cls-1" d="M494.38,571.79c-1.15.06-2.32-.39-3.52.05-.47.17-.59-.35-.49-.74a7.35,7.35,0,0,0,.06-3.58c-.43-1.9.53-3.7.42-5.61,0-.74,1.74-1,1.94-.72.55.77,1.89,1.18,1.91,1.72.06,2.24,2,3,3.19,4.34a6.18,6.18,0,0,0,.61.52c1.44,1.25,1.41,1.4-.39,2.17a3.07,3.07,0,0,0-1.2.79A2.72,2.72,0,0,1,494.38,571.79Z" transform="translate(-455.11 -146.52)"/></svg>