<svg id="Layer_1" data-name="Layer 1" xmlns="http://www.w3.org/2000/svg" viewBox="0 0 214.28 428.77"><defs><style>.cls-1{fill:#90c33e;}</style></defs><title>palm78</title><path class="cls-1" d="M407.39,370.44c.83-.63,1.59-.06,2.35.17,14.43,4.32,27.53,11.38,40.1,19.51a221.63,221.63,0,0,1,20.79,15.28l.55.09-.1-.6a1.76,1.76,0,0,0,.07-.45c-.24-2.42.25-5.36-1-7.13s-4.12-2.33-6.28-3.43c-19.94-10.1-38.55-22.06-54-38.44A26.62,26.62,0,0,1,407,352c24.45,9.66,44.51,25.62,62.82,43.5,0-3.83,0-7.88,0-11.93,0-.79-.66-.79-1.2-1.07-25-12.84-48.14-28.26-66.7-49.82,26.14,11.55,47.56,29.55,67.6,50,0-3.59,0-6.81,0-10,0-1.14-1.19-1.29-1.93-1.72a304.94,304.94,0,0,1-48.91-35,157.28,157.28,0,0,1-20.29-21.07l.33-.31c13.2,6.55,25.11,15.05,36.48,24.33a309.36,309.36,0,0,1,32.58,30.84c.45.5.86,1,1.28,1.54l.84-.18V354.49c0-1.13-1.07-1.21-1.74-1.55a327.3,327.3,0,0,1-38.33-22.78,210.88,210.88,0,0,1-31.72-26.63c1.05-.63,1.87.05,2.68.43,16.47,7.56,31.38,17.6,45.6,28.73,8.06,6.3,15.78,13,23.51,20.37.2-3.55.36-6.77.58-10,.07-1.11-.85-1.14-1.47-1.46a291.49,291.49,0,0,1-47-30.39,183.31,183.31,0,0,1-15.68-14.06c-2.19-2.22-4.31-4.5-6.8-7.11a8.91,8.91,0,0,1,4.69,1.35c15.54,7.72,29.56,17.71,42.83,28.81a273.69,273.69,0,0,1,22,20.41,8.27,8.27,0,0,1,.93,1.55l.65-.43c.33-3.7.65-7.39,1-11.09.11-1.18-.89-1.29-1.57-1.66a328.08,328.08,0,0,1-38-23.73,197.69,197.69,0,0,1-33-29.67,156,156,0,0,1,26.11,14.52,273.44,273.44,0,0,1,24.1,18.23c7.71,6.49,15.13,13.3,22.42,20.79.48-3.71.92-7.12,1.37-10.53.13-1-.72-1.25-1.34-1.61a357,357,0,0,1-34.56-22.83,240.91,240.91,0,0,1-37.85-34.49,9.58,9.58,0,0,1-1.38-1.89,183.32,183.32,0,0,1,27,16.47,313.44,313.44,0,0,1,25.09,20.31c8,7.11,15.6,14.56,23.15,22.65.67-4.27,1.25-8.16,1.89-12,.22-1.31-.84-1.48-1.57-1.91a374.48,374.48,0,0,1-34-22.5,241.86,241.86,0,0,1-38.36-35c-.45-.51-.84-1.07-1.25-1.61l0-.05a141.65,141.65,0,0,1,19.26,11.1c18.43,12.29,35,26.77,50.57,42.53,1.79,1.81,3.79,3.4,5.66,5.05.63-3.41,1.32-7.2,2.05-11,.19-1-.31-1.31-1-1.76a376.7,376.7,0,0,1-45.62-32.89,241.39,241.39,0,0,1-28-27.69,7.73,7.73,0,0,1-1.22-1.82c29.09,16,53.36,37.92,76.14,62.25.81-3.66,1.6-7,2.29-10.41.24-1.13-.94-1.27-1.58-1.67a351.89,351.89,0,0,1-38.92-28.19,227.08,227.08,0,0,1-31.92-32.21c5,1.28,25.9,15.94,38.67,27A368.15,368.15,0,0,1,480.25,278c.9-3.61,1.68-6.85,2.53-10.07.27-1-.12-1.45-.95-2A351.89,351.89,0,0,1,442,237.62,222.58,222.58,0,0,1,412.07,208a5,5,0,0,1-1.09-1.94c1.36.75,2.72,1.49,4.07,2.26,18,10.33,33.9,23.38,48.86,37.65,4.09,3.9,8,7.95,12,12q3.33,3.42,6.4,7.1c.59.7.87.93,1.15,0,.91-3.08,1.73-6.17,2.56-9.27.26-1-.67-1.1-1.19-1.42C464.61,242,445.58,228,428.6,211.35c-4.58-4.49-8.78-9.34-13.09-14.08a16.87,16.87,0,0,1-1.2-1.82A16.79,16.79,0,0,1,420,198c17.93,10.58,33.8,23.81,48.67,38.27,4.71,4.58,9.2,9.38,13.76,14.11,1,1.09,2,2.29,2.9,3.47.72.92,1.06.57,1.32-.3,1-3.21,1.92-6.43,2.93-9.63.4-1.25-.63-1.38-1.29-1.76a327.13,327.13,0,0,1-39.67-26.28,211.59,211.59,0,0,1-31.18-29.35c4.61.72,25.22,13.84,38.56,24.49a335.26,335.26,0,0,1,34,31.33c1.26-3.78,2.36-7.25,3.59-10.68.58-1.63-.85-1.61-1.55-2q-13.35-6.85-26-14.91a219.05,219.05,0,0,1-42.18-34.3l-1-1c3.06.36,5.2,1.72,7.37,2.77a190.52,190.52,0,0,1,29,17.87,289.7,289.7,0,0,1,33.58,28.7c.32.32.66.6,1.24,1.12.48-1.28.88-2.37,1.28-3.46,1.55-4.15,3-8.35,4.7-12.42.87-2,.59-2.89-1.45-3.92a281.66,281.66,0,0,1-42-26,185.46,185.46,0,0,1-26-23.38,1.41,1.41,0,0,1-.38-.89c27.14,11.95,49.74,30.23,71,50.94,1.21-2.94,2.39-5.79,3.56-8.65.46-1.13-.57-1.24-1.18-1.55q-13.59-6.86-26.45-15C462,176,448,165.15,435.84,152c-.48-.52-1.55-.87-1-2l0,0c26.37,11.9,48.62,29.53,69,49.69.37.37.79.7,1.35,1.19,1.2-2.79,2.31-5.44,3.5-8.07.65-1.43-.65-1.49-1.3-1.89a287.69,287.69,0,0,1-36.26-25.88A184.65,184.65,0,0,1,444.6,138c-.47-.6-1.35-1-1.16-2l0,.05a110.12,110.12,0,0,1,18.33,11.14c17,12.2,32.06,26.62,45.72,42.47l1.73,2c1.18-2.57,2.17-5,3.37-7.26.75-1.43.58-2.15-.84-3.07A271.18,271.18,0,0,1,482.07,159a191.37,191.37,0,0,1-30.86-33.1,1.28,1.28,0,0,1-.28-.92c12.52,6.78,23.48,15.64,33.83,25.32a280.08,280.08,0,0,1,28.66,31.37c.29-.24.43-.3.49-.41,2.83-5.24,2.83-5.25-1.73-8.9-17.06-13.66-32.79-28.63-45.72-46.35-1.93-2.65-3.72-5.4-5.56-8.12a14.44,14.44,0,0,1-1.52-2.86c23.24,16,41.15,37.08,57.36,60.23,1.08-2.14,2-4.11,3-6,.68-1.28-.45-1.62-1.07-2.14A290.67,290.67,0,0,1,492.4,142c-10.26-11.17-19.57-23-26.83-36.42a2.44,2.44,0,0,0,.29-.27c7.39,5.09,13.82,11.28,20,17.71a259.62,259.62,0,0,1,28.26,35.4c2.06,3.07,4,6.22,6.1,9.44,1.52-1.65,1.74-2.93.24-4.92C505.85,143.51,493.2,123,484.94,100c-.89-2.45-1.71-4.92-2.69-7.76,2.33,1.19,3.4,3,4.66,4.64,12.2,15.55,21.28,32.89,28.92,51,2,4.77,3.76,9.66,5.66,14.49.21.53.16,1.24.93,1.6,1.06-2,2.05-4,3.21-6,.71-1.19-.09-1.86-.6-2.64a292.08,292.08,0,0,1-20.56-37.24,188.36,188.36,0,0,1-12.31-35.6c-.17-.74-.28-1.49-.53-2.84,17,23.38,26.92,49.29,34.71,76.82,1.81-3.28,3.38-6.09,4.91-8.92.22-.4,0-.71-.44-.9l0,0c.18.13.46.4.54.35,1.48-.9,2.92-4.9,2.4-6.55-6.22-19.88-10.81-40.08-11.87-61a97.23,97.23,0,0,1,.37-15.42c.61,1.58,1.25,3.14,1.8,4.74,5.49,15.91,8.23,32.36,9.64,49.07.6,7.16.58,14.36,1.11,21.5.21,2.8-.82,4.56-1.89,6.63-.85,1.62-1.73,3.22-2.92,5.44,26.85-9.95,53.71-17.16,82.16-16.93-1.31.59-2.6,1.24-3.93,1.78-17.37,7.08-35.51,11.05-54,13.38a221.21,221.21,0,0,1-23.27,1.93,1.56,1.56,0,0,0-1.56,1c-1.17,2.23-2.32,4.45-3.75,7.21a295.08,295.08,0,0,1,41.33-8c13.93-1.59,27.86-2.17,42-.23-1.74.56-3.46,1.18-5.21,1.67a212.46,212.46,0,0,1-55.24,7.29c-7.1.07-14.21.14-21.3-.37a2.22,2.22,0,0,0-2.57,1.58c-.63,1.45-1.38,2.85-2.27,4.66,27.88-5.43,55.48-8.32,83.8-3.71a14.44,14.44,0,0,1-4.87,1.53,210.44,210.44,0,0,1-52.81,4.42c-8.33-.27-16.63-.8-24.9-1.81-1-.13-1.56.05-2,1-.54,1.24-1.17,2.45-1.89,4,28.35-2.94,56.26-3.13,83.79,4.12a118.32,118.32,0,0,1-18.72,2.2c-20.49.88-40.72-1.26-60.8-5.21-1.1-.21-2.28-.07-3.32-.7-.39-.23-.94-.34-1.19.2-1.13,2.4-2.58,4.67-3.36,7.4,28.24-2.26,56-1.86,83.17,5.89a107.41,107.41,0,0,1-16.37,1.69c-21.81.77-43.29-1.83-64.52-6.65-2-.46-2.92-.2-3.74,1.79-1.89,4.56-2,4.56,3,4.29a249.55,249.55,0,0,1,64.93,4.62,77.61,77.61,0,0,1,14.15,4.23c-2.55.25-5.1.6-7.66.72a224.6,224.6,0,0,1-50.86-3.34c-8-1.44-16-3.06-23.93-5.18-1.39-.37-2,0-2.53,1.3-.89,2.42-2,4.76-3,7.22,29.88-1.22,59.2.29,87.66,9.69a83.78,83.78,0,0,1-12.83,1c-24.72.55-48.81-3.56-72.57-10-1.85-.5-2.67-.32-3.28,1.55-.78,2.44-1.86,4.8-2.91,7.43,30.76-1.17,60.93.74,90.26,10.54-1.66.16-3.32.34-5,.46s-3.5.28-5.25.34c-22.83.81-45.22-2.35-67.39-7.45-3.72-.85-7.42-1.77-11.09-2.8-1.41-.4-2-.11-2.5,1.29-.89,2.65-2,5.24-3.05,8.07,30.5-2,60.44-1.61,89.72,7.11a111,111,0,0,1-16.65,1.65c-24.21.75-48-2.42-71.47-8-1.38-.33-1.88-.07-2.29,1.22-.95,3-2.05,5.89-3.2,9.15,30.7-3.32,61-3.45,90.92,4.3A80.41,80.41,0,0,1,574.56,234a229.07,229.07,0,0,1-33.65.28,303.05,303.05,0,0,1-41.26-5.48c-2.19-.44-3.74-.27-4,2.37a8.64,8.64,0,0,1-.46,1.53c-1.27,4.07-1.28,3.92,3,3.59,28.16-2.16,56.16-1.62,83.76,5.21,1.69.42,3.35.94,5.67,1.59A89.27,89.27,0,0,1,576,244.52a244.34,244.34,0,0,1-55-2.41c-8.45-1.26-16.87-2.75-25.18-4.75-1.59-.39-2.28-.05-2.69,1.61-.81,3.23-1.88,6.4-2.91,9.84,31.85-3.67,63.3-4.32,94.5,3.85-3.48.51-7,1.11-10.45,1.51-21.54,2.48-43,1.43-64.41-1.6-6.19-.88-12.37-1.88-18.53-3-1-.17-1.35-.08-1.59.82-.9,3.38-1.82,6.76-2.81,10.45,32.35-4.81,64.45-6.66,96.53,0a128,128,0,0,1-19.59,3.47c-24.76,2.73-49.41,1.34-74-2.15-3.16-.45-3.16-.44-3.95,2.77-.55,2.22-1,4.46-1.67,6.66-.51,1.78-.09,2.29,1.79,1.87,7.45-1.67,15-2.87,22.55-3.85,23.35-3,46.7-4,70.09-.11-.24.83-.95.69-1.5.83-21.35,5.4-43.08,6.79-65,6.11-9-.28-18-.82-27-2-1.08-.14-1.68.08-1.9,1.26q-.94,4.94-2,9.86c-.28,1.22,0,1.48,1.22,1.15a304.43,304.43,0,0,1,37-7.49c19.65-2.82,39.35-4,59.14-1.57a7.45,7.45,0,0,1,.87.39c-3.36,1-6.3,1.88-9.27,2.64-19.56,5-39.5,7.07-59.64,7.29a250.6,250.6,0,0,1-28.61-.89c-1.18-.13-1.05.52-1.18,1.12-.42,2.1-.71,4.22-1.23,6.29-.48,1.88.17,2.16,1.86,1.8,5.52-1.17,11-2.4,16.6-3.36,21.28-3.67,42.7-5.61,64.31-4.25a89.78,89.78,0,0,1,14,1.78A128.44,128.44,0,0,1,558.08,295c-25.52,4.52-51.2,4.74-76.94,2.47-1.56-.14-2.17.22-2.36,1.76-.37,2.95-.78,5.9-1.36,8.82-.34,1.73.32,2.06,1.73,1.61a182,182,0,0,1,20.22-4.74c18.56-3.6,37.27-5.77,56.22-5.18,4.51.14,9.08-.06,13.31,1.45A168.76,168.76,0,0,1,546.2,307a238.38,238.38,0,0,1-32.51,3.78q-17.15.84-34.31,0c-1.83-.09-2.52.33-2.64,2.25a97.64,97.64,0,0,1-1.15,9.78c-.34,2.11.19,2.18,2.06,1.6,25.33-7.89,51.18-12.83,77.81-13.14,1.14,0,2.29,0,3.43.06,2.75.12,5.49.27,8.24.41.15.92-.62.75-1,.9-17,6.15-34.53,9.48-52.43,11.33a307.36,307.36,0,0,1-36.15,1.48c-1.62,0-2.34.35-2.4,2.08-.09,2.72-.41,5.45-.64,8.28,29.85-8.93,59.9-14.75,91-12.8a113,113,0,0,1-16.6,5.53c-23.52,6.15-47.5,8.19-71.71,8.06-2.32,0-3.07.6-3.05,2.82,0,2.44-.16,4.89-.38,7.32-.16,1.7.4,1.73,1.8,1.23a309,309,0,0,1,43-11.74,208.35,208.35,0,0,1,44.13-4.31,4.27,4.27,0,0,1,2.09.39c-1.87.78-3.72,1.61-5.61,2.32-18.35,6.87-37.4,10.6-56.81,12.74-9,1-17.95,1.63-27,1.78-1.36,0-1.84.36-1.82,1.8,0,3.28,0,6.57-.2,9.85-.08,1.71.26,2.11,2,1.38a277.76,277.76,0,0,1,40.51-13.6c13.33-3.37,26.81-5.72,40.76-5.62-2.93,1.31-5.84,2.69-8.81,3.92-17.23,7.14-35.23,11.4-53.61,14.2-6.34,1-12.7,1.79-19.1,2.27-1.39.1-1.82.57-1.77,1.94q.19,4.69.14,9.39c0,1.6.38,1.79,1.8,1.1a261.57,261.57,0,0,1,41.87-15.9,171.3,171.3,0,0,1,28-5.54,7.9,7.9,0,0,1,3.12.23c-2.52,1.28-5,2.62-7.55,3.83-19.17,9.17-39.51,14.4-60.37,17.83-.9.15-1.8.33-2.71.45-4.17.58-4.18.58-4,4.69.1,2.21.32,4.42.34,6.64,0,1.69.3,2.15,2,1.17a226.41,226.41,0,0,1,23.51-11.8c14.31-6.24,29-11.32,44.48-13.76l1.79-.25a25.12,25.12,0,0,1-5.27,3.51c-18.92,11-39.43,17.77-60.64,22.63-5.91,1.36-5.91,1.33-5.19,7.4.24,2,.42,4.08.65,6.4a272.36,272.36,0,0,1,32.78-16.68,162.92,162.92,0,0,1,35-10.74c-.09.79-.75.92-1.18,1.2-19,12.59-40,20.4-61.91,26.15-4.69,1.23-4.71,1.22-4.09,6,1,7.49,2.12,15,3.45,22.4a336.24,336.24,0,0,0,10.43,42c.83,2.63-.77,2.42-2.16,3-1.69.73-2.45.48-3-1.45a372.27,372.27,0,0,1-12-57c-.36-2.87-.81-5.73-1-8.62-.11-1.94-.86-2.85-2.72-3.54a207.24,207.24,0,0,1-45.3-22.71,183.94,183.94,0,0,1-16.31-12.86Z" transform="translate(-397.83 -48.23)"/><path class="cls-1" d="M426.38,169.51c3.84.84,7.16,2.89,10.55,4.7,22,11.76,41.18,27.24,58.76,44.8a8.71,8.71,0,0,1,.7,1.13c-1.39-.68-2.28-1.1-3.16-1.55-22.27-11.5-43.18-25-61.07-42.72-2-2-4.23-3.9-5.74-6.4Z" transform="translate(-397.83 -48.23)"/><path class="cls-1" d="M538.14,135.9c.06,1.9,1,1,1.75.53a272,272,0,0,1,28.47-16.57,181.72,181.72,0,0,1,39.31-14.79,4.45,4.45,0,0,1,1.65-.11,70.55,70.55,0,0,1-9.55,6.86c-18.93,11.79-39.44,19.91-60.82,25.92-1.82.52-2.17,1.92-3.62,3.35a24,24,0,0,1,2.85-5.13Z" transform="translate(-397.83 -48.23)"/><path class="cls-1" d="M543.89,127.5c.8.57,1-.33,1.37-.63,15.63-13.07,32.15-24.8,50.59-33.64a135.82,135.82,0,0,1,15-6.17,125.05,125.05,0,0,1-15,12.84c-15.91,11.79-33.23,21-51.42,28.73-.69.29-1.51.33-2,1.05l0,0a2,2,0,0,1,1.37-2.21Z" transform="translate(-397.83 -48.23)"/><path class="cls-1" d="M530.81,146.66c-11.87-20.22-21.69-41.31-27.09-64.26-.55-2.37-1.12-4.74-1.64-7.11-.07-.34,0-.94.16-1.05.55-.33.66.23.93.61,5.53,7.66,9.5,16.16,13.21,24.78a250.51,250.51,0,0,1,14.29,44.84,3.23,3.23,0,0,1,.1,2.23Z" transform="translate(-397.83 -48.23)"/><path class="cls-1" d="M544.29,124.54C545,98.31,548.63,72.61,559,48.23,559.56,74.7,553.34,99.88,544.29,124.54Z" transform="translate(-397.83 -48.23)"/><path class="cls-1" d="M609.59,119.86c-23,13.24-48,20-73.93,24C559,131.78,583.23,122.55,609.59,119.86Z" transform="translate(-397.83 -48.23)"/><path class="cls-1" d="M541.56,131.09c-1.25,1.53-1.65,3.66-3.42,4.82l0,.05c2.13-2.19,1.19-4.71.77-7.15a251.13,251.13,0,0,1-3.82-53.36A176.1,176.1,0,0,1,537.35,55a7.2,7.2,0,0,1,.7-1.17c6,26.32,5.09,52.17,2.09,78.06.73.2.7-1,1.46-.72Z" transform="translate(-397.83 -48.23)"/><path class="cls-1" d="M586.7,57.87c-9.81,24.27-24.22,45.68-40.69,65.83C556.7,100,569.33,77.45,586.7,57.87Z" transform="translate(-397.83 -48.23)"/><path class="cls-1" d="M542.45,129.68l-.9,1.41.05,0c-.16-.76,0-1.33.89-1.42Z" transform="translate(-397.83 -48.23)"/><path class="cls-1" d="M398.39,314.84c-.33,0-.47-.22-.38-.56l.71.25Z" transform="translate(-397.83 -48.23)"/><path class="cls-1" d="M543.87,127.52l0-.43c0,.14,0,.27,0,.4Z" transform="translate(-397.83 -48.23)"/><path class="cls-1" d="M426.42,169.47l-.33-.17c.29-.19.35-.07.29.21Z" transform="translate(-397.83 -48.23)"/><path class="cls-1" d="M465.57,105.54c0-.18-.16-.47-.1-.51.24-.17.33,0,.39.24A2.44,2.44,0,0,1,465.57,105.54Z" transform="translate(-397.83 -48.23)"/><path class="cls-1" d="M407.39,370.41l.14-.24c0,.08-.09.17-.14.27Z" transform="translate(-397.83 -48.23)"/><path class="cls-1" d="M434.81,150l-.27.23.24-.18Z" transform="translate(-397.83 -48.23)"/><path class="cls-1" d="M399.83,244.19l-.08,0h.06S399.83,244.19,399.83,244.19Z" transform="translate(-397.83 -48.23)"/><path class="cls-1" d="M443.44,136l-.28-.07s.08,0,.1,0a1.85,1.85,0,0,1,.14.14Z" transform="translate(-397.83 -48.23)"/><path class="cls-1" d="M471.08,404.89l.1.6-.55-.09Z" transform="translate(-397.83 -48.23)"/></svg>