<svg id="Layer_1" data-name="Layer 1" xmlns="http://www.w3.org/2000/svg" viewBox="0 0 340.6 414.67"><defs><style>.cls-1{fill:#90c33e;}</style></defs><title>poplar76</title><path class="cls-1" d="M539,532c-4.61-11.56-9.4-23.06-13.8-34.7-9.82-25.93-18.66-52.2-26.32-78.85-2-7.05-1.93-7-9.45-6.77-8.85.3-17.32,3-26,4a126.79,126.79,0,0,1-45.92-3.41,84.11,84.11,0,0,1-40.43-22.81c-13-13.22-20.68-29.47-25.08-47.61-3.77-15.56-7.62-31.1-11.23-46.69-1.75-7.59-2.88-15.32-4.14-23a135.82,135.82,0,0,0-6.55-26.37c-1.53-4.06.47-4.22,3.2-4.1,7.32.34,14.69.39,21.93,1.35,8.41,1.12,16.88,1.71,25.3,2.6,14.93,1.58,19.15-6,19.16-19.78,0-8.16-4-15.67-6.62-23.33-7.75-22.58-9.37-45.42-3.52-68.67,1-3.93.76-8,.84-11.94.09-4.87,1.55-5.88,5.47-3,5.62,4.18,11.58,6.93,18.66,7.09a70.39,70.39,0,0,1,13.81,1.71c7.93,1.76,15.64,4.32,23.5,6.13,13.1,3,24.83,9.85,37.91,12.76.59.13,1.06.77,1.58,1.18-3.31.12-6.49,0-9.55,2.21-2.51,1.79-5.47,1.16-6.71-2.27-.8-2.23-1.84-1.54-3.42-.91-4.45,1.77-6.6.5-7.58-4.18-.22-1.05,0-3-1.73-2.05-4,2.19-6.48-.72-9.33-2.29-1.19-.65-2.15-1.68-3.59-1-2,1-2.64.12-3.74-1.64-2.18-3.5-4.49-3.18-6.19.81-2-3.53-4.8-5.16-8.74-4.59a3.25,3.25,0,0,1-2.3-.63c-5.91-5-13.18-1.68-19.66-3.28-2.5-.62-4.69,2.55-6.94,2.22-4-.59-8.36,3.08-8.06,3.69,2.13,4.37-3.94,5.54-2.92,8.78.56,1.79-1.85,2.89-.59,4.44,3.59,4.37.89,9.48,1.82,14.14.4,2-2.5,2.84-1.36,5,3,5.49,3.55,11.65,4.86,18.2a38.3,38.3,0,0,0,1.3-5.14c.43-4.13,2.9-6,6.72-4.94,1.74.51,3.87.74,5.07,1.89a149,149,0,0,1,11,11.73c.79.94,1,3.41-.95,3.67-1.54.21-3.31,2.84-4.54.64-2.23-4-2.72,0-3.85.63s1.45,3.1-1.25,2.74c-1.37-.18-2-1.81-1.66-3.19.66-2.42-1.22-4.13-2.48-3.83s-4.51.11-3.83,4.18c.3,1.78,1.88,4.44.64,6.1-2.29,3-.64,4.4,1.69,5.56,2.74,1.38,3.51,4,4.53,6.45l.1.08c0,.5,0,1,0,1.5,0,1.48-.35,3.35,1.41,3.91,2,.63,1.31-1.89,2.34-2.56,2.4-1.57,4.79-3.16,7.79-1.61,2.52,1.31,5.26,1.14,7-.75s2.77-1.15,4.42-.45c2.27,1,1.87,2.34,1.05,4-1,1.94.79,2.7,1.86,3.51a2.46,2.46,0,0,0,3.2-.41c1.24-1.13.84-2.37.19-3.63-1-1.92-1.94-3.85-2.91-5.78,1.45.2,2.68.77,2.79,1.51.92,5.79,8,8.7,7.07,15.32-.05.34.53,1.12.78,1.11,4.41-.26,3.29,2.68,3.07,5.16-.13,1.46,1.23,1.63,2.05,2.38,3.73,3.42,8.41,6.46,6.9,12.75l-.23.42L457,247c2.74,0,6.19.08,6.6,3.06s2.26,4.25,4.12,5.6c3.08,2.24,4.81,5,4.51,8.8-.13,1.71.16,2.75,2,2.31,2.17-.51,2.43,1.44,3.22,2.45,2.42,3.08,4.08,7.2,9.36,5.09,1-.4,1.71.76,2.18,1.68l0,0a39.42,39.42,0,0,0-4.36.34,1.59,1.59,0,0,0-1.26,1.84c.13.84.91,1.8,1.61,1.54,4.36-1.62,3.48,2.71,5,4.26-1.68-.05-3.17,1.07-4.53,1.28-5.38.84-3.71,5.59-5.36,8.43,3.75-.42,2.69,7.47,8.42,4.2-1.35,2.22-2,4.39.08,5.5,2.93,1.58,2.09-2.08,3.39-3,3.06-2.06,1.36-3.87-.48-5.6a4.35,4.35,0,0,0,2.09-6.17c-.79-1.74-2.38-3.13-3.61-4.68,3.81-.27,6.14,1.12,6,5.33-.06,1.83,0,3.66,0,5.5,0,1.64.19,3.27.17,4.91s-.74,3.41,1.89,5.72c-.47-7.72,1.34-14.46-1.49-20.67-1.24-2.73-.78-4.08,1.06-5.76.82,7,.82,7,7.37,6,.32.68.66.72,1,0l1-1c4.47.34,7.22-1.43,9.14-5.74.87-2,.72-5.72,4.39-5.71,3.16,0,4-1.58,4.08-4.47a6.36,6.36,0,0,1,2.1-4.38c3-2.91,6.28-5.61,5.55-10.66a3.53,3.53,0,0,1,2.76-3.69c1.66-.44,1.12-1.89.39-2.77a1.49,1.49,0,0,0-2.52.28c-1,3.78-5.86,5.68-5,10.4.18.95.56,3.19-1.9,1.73.24-.36.49-.72.71-1.09a3.56,3.56,0,0,0-.36-.26L526,259c-3.28.8-5.37,4.3-9.16,4.06-.5,0-1.48.63-1.51,1-.44,6.25-4.24,10.92-7.33,15.92l-1,1a1.85,1.85,0,0,0-2,2c-2.17-.21-5.78.42-4.47-3.21,1.67-4.62,2.86-8.86.21-13.37-1-1.74.33-2.18,1.4-3,2.61-2.09,5.06-4.37,7.54-6.53-2.22-2-4.05.82-6.82-.81,3.82-.79,4.29-2.28,1.77-4.56-.75-.68-.72-2.17-1.32-3.12-1.38-2.21.87-3.25,1.49-4.73.9-2.16,1.69.34,2.62.4,1.4.09,2.28.61,2.69-1.53.51-2.67,1.45-5.09,4.74-6.38,1.71-.67,4.38-2.67,5-4.13,1.95-4.8,5.64-7,9.85-9.06,1.36-.64,2.9-.77,2.18-3.41-.94-3.45-4-4.35-8.09-2.34-6.61,3.22-10.17,10.41-17.51,12.74-.11-.74-.19-1.68-.41-2.58-.53-2.2-5.95-5.52,1.43-5.87.6,0,.54-1.21.08-1.68-2-2-.35-5.31-2.9-7.16-2-1.48.54-2.51.93-3.66.5-1.5,1.82-.9,2.66.21,1.52,2,2.23,1.88,3.15-.66,1-2.72,1.95-3,6-3.54,1.67-.22.82-1.43,1.17-2.19.67-1.48.2-4.37,1.68-4.38,8,0,6.63-10.87,13.79-11.62.05,0,.12-.32.08-.46-.71-2.39.71-1.69,2.21-2.16,2-.62,3.42-2.81,5.09-4.32-3.29-3-.66-5.68.52-8.34,2.74-6.2,6-7.71,10.58-8,4-.28.19,3.29,2.15,3.1,2.61-.25,5.46,1.49,7.72-.14,1.94-1.39.46-3.65,0-5.54-.08-.34.28-.77.44-1.16-.25,6.57,4.73,9.81,9.23,14.26-5.46-2.92-2.13,1.82-3.48,2.63-3.7,2.2-2.87,6.3-1.75,8.9,2.71,6.35,2.74,11.3-3.44,15.59a6,6,0,0,0-2.45,6.36c.5,2.62-.07,7.71-1.08,8-4.31,1-6.71,6.34-12.2,5.13.6,1.14,2,1.56,2.1,2.25.55,2.58,2.75,5.22,4.28,4.68,2.3-.81,5.41-2.7,5.93-5.32.61-3.1,2.19-3.52,4.45-3.1s6.06-1.24,6,3.55c0,1.55,2.3,1.89,2.59,1.61,2-2,4.78.42,6.52-1.8.78,3.83-4.58,1.21-4,4.74,1.94.38,6.7-1.22,5.09,1.25-2,3.12,3,3.09.85,4.87-.89.76-1.64,2.05-.83,3.12,3.63,4.74.28,6-4.63,7,4.26.57,9.13,5.49,7.87,7.5-2.08,3.32-4.54,6-1.09,9.73.14.16-.49,1.55-.9,1.63-3.69.67-2.75,3.36-2.63,5.71h0c-3.69.73-1.39-3.47-3.7-4.2-1.89,4.08-5.93,5.24-9.74,7.05-4.73,2.24-6.1.69-6-3.89,0-.09-.53-.19-.93-.33-2.27,4.23,1.73,8.38.6,12.44-2.13.52.06-3.53-3.3-2.07-4.41,1.91-4.16,10.93-11.8,7.61-.17-.07-.72,1.11-1.25,1.41-1,.58-1.15-.86-1.89-1l-.42-.21.4.23c.25,3.2,1.74,6.83-3.28,8a2.75,2.75,0,0,0-1.65,2.83c.11,2.29-1,2.82-3.13,3.39-2.33.62-4.6,2.39-.95,4.76l0,0c.15,1.56,1,2.3,2.28,1.22,2-1.73,3.36-.93,5.77-.25,4.95,1.4-.81-3.05,1.74-4.57,5.78-3.47,7-3.75,12.32.71.5.42,1,.8,1.56,1.23,3.28,2.76,2.44-2.06,4.42-2.54,2.5-.61-.6-.94-.75-1.65-.69-3.41-2.28-5.74-6.28-5.41-.61.05-1-1-.55-1.59,1.6-2,2.08-5.35,4.76-5.89s6.29.3,7.48,2.85c2.3,5,6.48,9.17,6.68,15.08,0,.15.52.28.73.39,1.79-.1,1.35-2.09,2.44-2.78,2.92,5,2.32,6.84-2.72,9.39-2.19,1.11-5.79,2.77-6.17,3.6-2.65,5.9-6.05,2.57-9.1,1.21-1.74-.77-1.78-.18-2.79,1.09-3.24,4.13.57,7,1.75,10.44-5-.69-8.37,1.64-8.48,6.1-.08,3-3.62,2.87-3.9,5.35-5.61-3.41-3.35,6.28-7.85,4.72.86,2.75-1.43,3.76-3.06,4.21-5.66,1.54-6.85,9.55-13.67,9.22-.15,0-.41.52-.47.82-.82,4.27-3.88,3.53-6.56,2.81-1.12,2.42,5.87,6.51-2,7-.89.06-.49,1.34-.2,2.12.4,1.07,1.42,2.52,1.06,3.17-3.4,6,.95,3.34,3.37,3.26,5.1-.18,6.77-2.7,5.17-7.37,2.3-.74,4.48,1.82,6.49-.71l-3-2.41A29,29,0,0,1,532,360l.41.23L532,360c.17-.79.53-2.16,1.31-1.56,4.35,3.35,5.57-.45,7.19-3.53l3.68,4.51c3.67-2.41-1.2-4.25-.2-6.4l0,0c1.69.11,4.32,2.1,4-2l0,0a3.94,3.94,0,0,0,4.94,0l.08.07c1,4.49,7,1.93,8.39,5.84a1.85,1.85,0,0,0,.46-.07c-1.12-2.27,2.56-3.32,1.66-4.73s-.85-4.26-3.79-3.45c-1,.27-2,.56-2.47-.69s.67-1.52,1.48-2.1c2-1.39,1.37-2.35-.74-2.79L558,343c-.23-2,.82-3.46,2.68-3.14,2.15.37,4.4,1.47,4.16,4.32-.1,1.28.07,1.87,1.4,1.76s1.57-.82,1.24-2A27.12,27.12,0,0,1,567,341l.1-.09c1.81,0,2.66-1.16,3.25-2.62.77-2,1.9-2.45,3.82-1.32,3.4,2,3.83,0,4-2.86a11.23,11.23,0,0,0-1.52-5.37c1.15-.93,2-.54,3-.21,8.1,2.72,9.93,2,12.3-4.93-1.32-.25-2.35,2-4.13-.17-2.41-3-1.45,2-2.85,2-.66,0-1.29-.91-1.89-1.46-.89-.81-.74-1.28.49-1.51.95-.17,1.29-.89,1.22-1.85-.23-2.91-5.67-8.95-8.68-9.6l0,0c1.84-3.45,4.16-4.82,8.26-3.09,4.33,1.83,9,2.87,13.39,4.23-1.86,5.51-4,11-5.48,16.59-.64,2.36-.81,3.85-3.67,2.62-1.3-.56-2.35,0-2.38,1.54s.69,2.14,2.1,1c.48,2.67,5.6,1.1,4.64,4.27-1.36,4.42-.48,8.92-1.26,13.83-3.44-2.59-3.72-7-6.43-9-2.53-1.85-2-3.67-2.26-5.91-.19-1.89,1.51-5.35-1.34-5.34-2.49,0-1,3.66-1.62,5.55-1.9,5.5,7,9.84,1.57,15.61,3.19,5.59-2,8.18-4.31,11.77-.5.8-1.68,1.14-3.1.55-3.72-1.53-3.11,3.19-4.7,3.69-2,.64-4.81-2.13-6.91.77a4,4,0,0,0-.43,1.4c-1.61,6-6.68,9.45-12.21,6.6s-5.6,1-6.39,3.9c-.46,1.7-1.22,2.9-2.31,1.64-3.68-4.24-4.78-.79-6.1,1.79-.49.94-.8,1.66-1.95,1.92s-3-1.4-3,1.14,2.34,1.65,3.83,1.86l.06.08c-.72,1.39-3,1.21-3.43,2.94a4.68,4.68,0,0,0,.67.52c2.79,1.32,7.36-4,8.88,2.4.14.6,1.27.28,2.12-.19,2.9-1.57.55-3.5-.22-6.47,3.44,3.28,5.38,2.26,7.65.22,1.52-1.39,4-3.26,6.08-1.29,4,3.73,9.16,5.15,13.84,7.5,1,.51,3.38,1.41,2.37-1.67.9-.08,2.32.25,2.43-.77.17-1.72-1.5-1-2.43-1.23a3.75,3.75,0,0,0-1.56-3.39c-2.55-2.12-8.5-1.15-7.06-7,1.19-4.85,6.75-3.48,9.63-6,2.25-2,4.55-2.2,6.49.06,1.23,1.44,2.09,4.4,3.93,3.68,2.89-1.14-1.11-2.35-.68-3.77.12-.4.65-.66,1-1,1.16-1.18,2.1-2.49-.07-3.48-1.46-.66-1-1.52-.49-2.33a9.57,9.57,0,0,1,6.68-4.74c3.22-.53,3.72,2.4,4.83,4.11,2.29,3.56,3.76,4,6.16.62.87-1.22,1.38-1.63,2.67-1,1,.49,2.62.1,1.57,2.52-.52,1.2,1.12,4.81,2.19,5,6.46,1.11,6.58,1,6.87,5.57l4.65-3.8c-3.43-1.73-3.37-1.7-1.79-5.12.61-1.3,1.18-2.74.31-4.21s-1.9-2.5-3.17-.36c-.49.81,0,2.87-1.93,1.7-.88-.53-2.11-1.26-2.06-2.62a2,2,0,0,1,2.21-2.13c1.53.12,2-.69,1.16-1.68-3.2-4-1-9.14-2.8-13.49-.34-.81.87-4,2.93-3.56,4.05.86,6.47,4.59,9.9,6.66,1.84,1.11.43,2.49-.42,3.76-.73,1.08.42.8.93.87,3.37.46,6.8,1.52,9.93-.86l.41.23L634,356c5.57-11.14,9.59-22.68,8.23-35.54,2.38.46,1.12,2.87,3.32,3,.09-2,.92-4.46.11-6a14.17,14.17,0,0,1-1.35-6.64c-1.69,2-2.25,4.38-4.95,3.43-1.37-.48-2.38-1-2.37-2.66,0-2.45.28-4.78,2.81-5.87a14.41,14.41,0,0,1,3.86-.71c1-.13,2.6-.5,2.05-1.46-1.46-2.56.2-4.49,1.16-6.15,5-8.57-6.11-5.5-6.89-9.79-.13-.7-.52-1.29-1.31-1-.41.14-.65.72-1,1-2.52,2.17-4.24-2.38-6.69-.82-.52-1.19-1.63-2.21-1.3-3.65,1.22-5.37,3.76-6.3,8.49-3.16a3.12,3.12,0,0,0,3.28.38c.79-.38,1.93-.41,2.16.47.73,2.72,1.29,4.64,5,5.4,2.6.54,2.34,1.95,4-.22,3.36-4.44,4.65-9.64,5.44-15h0c3-.84,2.43-3.18,1.19-4.61-1.71-2-.9-3.5.17-4.89a33.45,33.45,0,0,0,5-9.56c.79-2.22,3.42-2.84-1-5.42-6.63-3.88-7.57-5.29-13.54-1.55-1.31.82-1.79.12-2.4-.59-2.59-3.05-5.74-2.83-9.06-1.6a17.23,17.23,0,0,1-9.78.95c-.8-.17-1.47-.54-2.32,0-1.83,1.23-4.48,1.17-7.28,1.53-5.82.74-11.37-3.84-17.51-.1-3.19,1.95-7.61,1.67-11.11,3.8-4,2.46-6.16,1.41-6.33-3.21-.25-6.55-.06-13.1-.06-19.87,1.86,1,.25,3.88,2.9,3.81-.28-2.33,6.8.25,3-4.48-.14-.17.22-1.08.4-1.1,4.58-.5,1.46-3.69,2.45-5.94-2.42.27-4,3.12-6.39.93,1.63-1.9,1.72-5.64,4.89-5.46,2.93.17,2.71-1.89,2.5-2.91-.66-3.18,1.13-5.39,2.36-7.86.41-.82,1.34-1.18,1.21-2.5a53.75,53.75,0,0,1,1.49-20.2c-1.59-.67-2.47,2-4.06.95-2.75-1.8-5-.7-7.79.25-2.06.69-6.93,2.27-7-3.39h0c4.23-.69,5.25-3.4,4.22-7.12-.29-1.06-1.6-2.09-.26-3,2-1.38,4.81-1.1,6.51-3.71.62-.95,3.91-.15,6.35-.15-1.26,1.64-3.58.24-4.87,2.67,2.64,0,5.17-.72,6.92.14,3.63,1.8,3-.52,3.13-2.5.29-3.88-1.89-7.45-1.13-11.48.4-2.12,1.45-3.94,1.48-6.42.09-7.35-2.62-14.14-3.09-21.31-.15-2.3-2.58-2.7-4-3.91-.91-.74-1.81-.52-2,.23-1.52,5.41-7.18.7-9.5,4-6.19-2.59-10.73,3.56-16.78,3.28-2.12-.1-4.62,3.86-8.18,2.69-1.58,4.43-4.12.19-6.13.69a5.6,5.6,0,0,0-1.87.64c-5.33,3.6-11.87,3.63-17.67,6-7.47,3.07-15.34,4.86-17.27,14.34a4.57,4.57,0,0,1-1.07,2.08c-4-1.13-2.31,2.13-2.8,3.63-.26.81-8.13,3.8-8.75,3.21-.3-.3-.33-.89-.48-1.35,3.78-1.11,1.29-4.08,1.74-6.15.29-1.31.88-3.63-.35-3.93a4.33,4.33,0,0,0-5,2.35c-.62,1.31-1,2.72-1.64,4.33l-1.4-7.35c7.07.15,13.2-3,19-6.34,11.22-6.41,23.55-9.57,35.73-12.94q16.25-4.5,32.39-9.33a74.11,74.11,0,0,1,17.48-3.47c1.46-.07,3.56-.49,2.84,2-2.89,9.86.61,19.51,1,29.22.81,21.24-.28,42.16-6.06,62.7-1,3.5-1.92,7-2.58,10.62-2.12,11.54,6.32,18.22,16.19,19.52,6.89.91,13.88.11,20.87-.93,11-1.64,22.26-.74,33.4-.47,4.76.12,4.17,3.67,3.21,6.54-1.94,5.79-4.62,11.34-6.42,17.17-4.12,13.27-8.09,26.59-11.18,40.15-4.81,21.09-8.07,42.92-20.17,61.35-13.43,20.45-31.61,36.08-55.22,43.68-17.09,5.5-34.92,6.27-52.76,3.21-6.39-1.09-13-.54-19.3-2.37-3-.87-3.27,1.31-3.07,3.54.68,7.34,3,14.3,5.22,21.27,8.07,25.69,17.06,51.06,27.35,76,2.91,7.06,6.05,14,9.09,21ZM390,162.05c.24-.37.49-.73.71-1.1a2.79,2.79,0,0,0-.35-.26c-.14.43-.29.85-.43,1.28l-.2.47ZM438,258c1-.15,2-.38,1.78-1.71,0-.31-.72-.83-.91-.76-1.18.45-.73,1.58-.87,2.47-.39.36-1.29.57-.36,1.3Zm82,54v-1c1.9,0,2.82-1.52,4.1-2.49,1.08-.82,3.17-1.14,1.91-3.19-.83-1.36-2-2.82-3.83-2.39-1.66.4-2.55,1.64-2.22,3.63a27.39,27.39,0,0,1,0,4.44c-.91.15-2-.36-2.63.86.84,1.07,1.78-.15,2.63.14l-1,3c-3.44-3.39-6.42-3-10.1.17-1.87,1.62-4.76,4.88-8,1.33,1-1.21,3.34.43,3.68-1.68.18-1.13-.78-2.89-1.77-2.54-4.6,1.62-4.73-2.16-6-4.82-.31,3.54-1.81,6.56,1.12,10,2,2.32,4.08,6.43,0,10.14-.48-2.76,1.13-6.25-3.47-7.85a90.17,90.17,0,0,1,1.94,18.14c.5-.59,1.05-1.36.86-1.72s.95-.68.51-.05c1.4,3.1-.75,5.57-1.71,8.26-1.45,4,2.14,7,2,10.76-.17,6.14-.06,12.29,0,18.44,0,1-.59,2.43,1.84,2.86-.27-4.95,0-9.2,4.75-12.78,4.52-3.41.28-7.88-1.64-11.65l.22-.43-.25.4c-.63,0-1.37,1.15-1.77-.43-1.5-6-1.21-12.08-1.21-18.16,0-6.56,1.2-8.44,7.7-10.18,1.2-.32,2.51-2.87,3.41-1,.82,1.65,1.78,2.3,2.83,1.49,1.88-1.48-.86-2.35-1-3.66l0,0c3.25-.17,5.09-2,6-5,1.74,1.1,3.11.79,3.51-1.3S521.09,312.21,520,312Zm-34,70,.41.23L486,382l-2-3c1.76-.42,2.62,2.06,4.53,1.41.92-1.33-.52-2.53-.24-3.77s.79-2.36-1.06-2.56a2.41,2.41,0,0,0-2.83,1.49A16.66,16.66,0,0,0,484,379c-1.77-.7-2.88-2.76-5.53-2.5C480.19,379.73,482.18,382.05,486,382Zm-17,18c2.77-.06,5.58-.1,8.11,1.15,1.46.71,3,1.55,3.56-.46s-1.78-2.14-2.68-2.08c-3.84.23-6.9-.9-9-4.5-1.76,2.33-.82,4.11,0,5.89-1.57,0-3.09.07-2.92,2.29.1,1.3.95.94,1.77.84C470.29,402.81,469.78,401.47,469,400Zm5-68a3.5,3.5,0,0,1,3.67,1.95,1.19,1.19,0,0,0,1.69.48,1.1,1.1,0,0,0,.24-1.72c-2.53-2.49-2.16-8.17-7.93-7.19-.65.12-1.33-1.77-2.34-.51a3,3,0,0,0-.6,2.32,2,2,0,0,0,2.39,1.32c4.58-1.88,2.76,1.53,2.88,3.35l-.22.41Zm6,75a24.13,24.13,0,0,1,2.86.58c.95.31,1.87,2.09,2.79.4.73-1.36-.74-2.05-1.78-2.44-3.91-1.46-7.68-3.52-12.05-3.46-.37,3.61,3.4,3.34,4.42,5.76,1.43,3.38,3,2.23,3.71-.79Zm68-174h0a13.38,13.38,0,0,1,.84-2.27c.57-1,1.77-2.07.59-3-1.36-1.1-1.79.7-2.59,1.36s-1.76.9-2.47,1.54c-2.33,2.09-2.26,4.35.25,6.09a31,31,0,0,0,6.18,3c1,.4,2.52-.65,1.55-1.27C550.16,237.05,550.88,233.59,548,233Zm-120-1-.43-.22.41.24c1.05,1.37-2.14,3.18-.11,3.81s6.5,5.51,6.21-2.06c-.07-1.79,1.89-1.58,2.85-2.38,1.34-1.12,3.4-1.72,3-4.11-.15-1-.71-2.61-1.57-1.6C435.58,229,431.49,230,428,232Zm36,166c5.1.47,1.81-4.2,3.57-6.05,1.39-1.45.47-4.11-2-4.46-1.89-.27-4.61-1.16-4.92,2.69A52.85,52.85,0,0,0,460,396c-3.15.32-2.1-1.11-1.3-2.77.56-1.17.75-2.77-.41-3.69s-2.22-.29-3.43.66c-2.27,1.78-4-.48-4.62-1.94s-1.84-2.79-2.09-4.39c-.6-3.84-2.4-2-3.89-.82-.65.53-.28,2-2,2.12-.19-2.54-.54-5.09-.51-7.63,0-3.28-2.91-2.43-4.27-2.7-2.47-.48-.94,2.05-1.46,3.16h0a2,2,0,0,0-2,1.85c-.33,2,1.31,5.38-3.29,4.85-.47-.06-1.74,3.3-1.86,5.13-.07,1.18,1.89,1.52,2.88,1,3.19-1.72,5.43-.84,8.78.63,4.13,1.8,7.45,2.45,5.46,8.14,4.49-2.57,8.89-1.84,8.93,1.66.06,4.88,4.24,2.72,4.38,2.5C460.65,401.63,466.43,403,464,398ZM430,258h0c.05-2.08-.09-3.39-2.83-4.24-3.58-1.09-6.18-3.76-5.26-8.44.46-2.28,2.83-4.24,1.37-6.89-6.49,2.47-7.83.86-9.59-6-1.16-4.54,3-10.9-4.2-13.65-.31,1.68-1.13,3-3.28,3-2.55,0-3.18,1.42-3.25,3.86-.25,9.55-2.23,18.17-13.1,21.25-.57.17-1.38.27-.79,1.54,2.5.13,4.3,1.67,5.6,3.89.43.73,1.08,1.78,1.83,1.39,5.65-2.94,3.22,2.33,4.32,4.06-1.2-1-2.3-2.66-3.91-1.39a5.18,5.18,0,0,0-1.48,3.51c-.09,1.7,1.46,1.92,2.84,2.07,1.09.12,2.51-.16,2.29,1.76-.39,3.39-2.16,6.62-1,10.21.19.59-.77,1-1.48.83-4.71-1.15-3.14,1-1.7,3.17a2.25,2.25,0,0,1-.21,3.17c-2.58,2.38-3.53-3.49-6.42-1.29-.66.5-.36-1,0-1.62,1.38-2.53-.45-4.58-1.84-5.71-.88-.71-3.77-.68-5.16,1.17-.67.89-1,2.24-2.59,1.23-1.23-.78-.91-2-1.1-3.09-.25-1.47,2.34-4.42-.41-4-1.8.26-3.64-2.14-5,0-.79,1.25-1.11.32-1.8,0-4.94-2-6-6.41-2.44-10.93.8-1,2.45-2,1-3.19-1.2-1-3,0-3.94,1.06s-1.32,2.79-2.09,4.56l-.64-3.59c-3.23,3-1.23,9.91-8,9.8-.68,0-.46,2,.07,1.91,4.88-1.18,6.11,5.12,10.62,5,1.3,0,3.07,2,3.85,3.44.53,1-.76,2.9-2.07,2.94-3.32.1-6.78,1.83-9.64,1.26-4.74-1-4.64.7-4,4.15.4,2.11,2.09,3.21,2.93,5.19.88-1.45.37-3.51,2.58-3.46l0,0c.26,1.67.86,1.94,2.24.78,2.26-1.92,4.81.21,4.69,1.42-.31,3.18.56,7.4-2.25,9.36s-5.49-.59-7.45-3c-.07-.09-.55.16-1.13.34.95,4.13,4.54,7.83,2.18,12.64-.55,1.12,1.1,1.25,2.08.8,5.3-2.44,11.22-.44,16.6-2.3l.46.2L377,306c-.11-3.42,4.66-.54,4.83-4.12-2.43.16-4.75,0-6.88-1.4-1.83-1.23-3.25-1.68-1.5-4.54,1-1.57,4.49-4.83-.12-7,1-2-1.16-4.7,1.24-6.45a2.85,2.85,0,0,1,3.64.57c1,1.3,1.25,3.19,1.8,4.84,1.43,4.3,5,5.79,7.94,2.78,3.7-3.75,7.07,0,8.59,1.25,2.28,1.93,5.37,5.46,3.26,9.4-1,1.95-4,1.65-5.57.94-2.05-.92-.47-1.89.82-2.59.73-.39.47-1.23-.28-1.45-1-.29-2.28-.27-2.5.91-.79,4.15-2.69,2.51-4.88,1.27-.87-.49-2.57-1.71-3.26.21a3,3,0,0,0,1.29,3.91,4.49,4.49,0,0,0,2.89.37c3-.85,6.15-.1,9.25-.71,2.25-.45,5.4-1.45,6.87,2.08.36.86,1.4.46,2.24.38,4-.34,9.16,4.2,9.28,8.09,0,1.11.29,2.81-1.14,2.93-2.76.24-3,2.3-3.67,4.68-.8-6.86-7.39-.27-9-4.61-1.53,3.15-4.68,3-7.41,3.9-1.19.4-1.24,3-3.72,1.82-2.91-1.4.2-3.48-.71-5.09-3.77.8-1.16,4.54-3.24,6.22-1.71-2.6-6.3-1.87-6.19-1.53,1.72,4.83-2.56,3-4.11,3.92-1.26.74-3.58.7-4,1.65-1.47,3.31.65,7-.6,10.49,5.57,2.52,3.93,12,11.82,12.31a1.06,1.06,0,0,1,.78.56c1.14,3.51,4.72,4.88,6.73,7.76,2.27,3.25,4.07,7.25,8.17,9.07,1,.47,1.61,1.16.06,2.75-3,3-5.63,5.77-10.23,5.82-2.63,0-4.28,3.25-7.26,2.67a15.26,15.26,0,0,0-.37,3.4,2.85,2.85,0,0,0,1.79,2.25c3.1,1.28,1.46-3.35,4.12-3.08,0,2.66-.57,5.5,1.76,7.79-.87-3.33,3.64-4.23,2.26-8.59,1.53,1.93,1,4.18,2.44,3.69,2.17-.76,5.64-2.19,5.77-3.59.44-4.88,5.49-3.67,7.21-6.46.71,1.29,5.52-2.53,3.23,2.62-.36.82.85,1.87,1.44,1.65,3.47-1.27,6.69,2.69,10.18.35.78-.52,2.39,1.16,2.8-.82a2.45,2.45,0,0,0-1.22-2.55c-1.24-.88-2.1-2.06-3.64-2.83-6.75-3.37-11-9.19-14.19-15.91-.84-1.77-2.29-3.18-.4-5.28.92-1-.47-1.67-1.35-2.08-1.25-.58-2,0-2,1.25.06,3.77-2.92,4-4.71,2.83-3.35-2.13-7.54-3.73-8.7-8.3-.48-1.89-.87-3.21-3.53-1.84-1.19.6-3.27-.23-2.15-3.3,1.78-4.88,6.72-7.05,8.73-11.61.52-1.17,2.45-.7,3.74-.48,1.54.26,1.37,1.58,1.57,2.72.67,3.83-1.55,5.77-5.25,7.69,3.47-1.68,3.89.77,5.13,2.19.56.65,1.94,2.71,2.52,1.22,1.08-2.75,6.83-3.89,2.4-8.55,4.84,1.33,5.21,1.28,5.05-.51-.41-4.83,1-7.27,6.35-5.81,3.11.85.78-2.72,2.51-3.23a21.72,21.72,0,0,0,.59,3.35,2.06,2.06,0,0,0,1.38,1.25,1.24,1.24,0,0,0,1.23-1.7c-1.13-3.93,2-5.35,4.17-7.35.66,2.28,3.09,4.59,5.74,5.71,1.21.51,3.84.92,2.43,2.7-2.58,3.25,1.56,2.78,2.21,4.08-8.14,4.91-13.74,4.79-17.2-.62-.09,4.3-4.24,3.36-6,5.4-.3.34-1.23,2-1.05,2.45a4.94,4.94,0,0,1-4.55,6.32c.7,2.74,4.08,3.61,4.4,6.46,1.49-.51,5.09,5.65,4.57-1.44,0-.49.75-1.52,1.08-1.5,4.58.38,6-5.79,10.71-5.1.37.05,1.17-.45,1.17-.7.16-5.94,5.22-4.05,8.32-5.1.85-.29,2.85-1.48,3.05.94.11,1.37.72,3.4-1.34,3.77-3,.53-1.7,2-1.07,3.83,3.11-2.78,6.23-5.27,10.47-2.64l0,0c.08,1.11-.19,2.26,1.28,2.88,4.75,2,9.88,3.61,10.56,10,.14,1.24.65,2.28,2.31,1.53s1.64-1.68.37-2.91c-.64-.61-.62-1.47.61-2.26,1.13,1.47,2.8,2.56,2.85,4.77l-.23.43L464,359c1.78.44,3.87.56,3.85,3.19-1.43.41-2.07-1.62-3.59-.32.69,1.9,2.43,3.3,3.26,5.05,1.69,3.58,6.32,4.18,7.46,8.06-1.89,1-3.2-.42-4.61-1.41-.74,2-.22,3.31,1.55,3.73s2.85-.46,3.08-2.3c1.44,0,2.89,0,3-2L478,373a32.65,32.65,0,0,0,3.29,2.1c2.11,1,1.58-1.47,2.55-2.05a2.14,2.14,0,0,0,.82-3c-.73-1.3-1.67-.39-2.41.18-2,1.53-2.85-.8-4.27-1.19l0,0c-.17-2.67.74-5.8-3-7l-.06,0c-.56-5.93-8.3-5.38-9.61-10.64-6.55-1-7.93-5.82-8.36-11.34.88-.15,2,.35,2.49-.85a.8.8,0,0,0-.37-.7c-1.23-.24-1.62.75-2.12,1.55l-5-2,0,0a17.33,17.33,0,0,1,.32-7.65c-2,3.5-4,2-6.07.85-1.38-.79-2.82-1.46-4.23-2.18l0,0c0-1.53,0-3.24-1.75-3.71-3.09-.84-3-5.32-7.33-5.38-2.5,0-4.9-3.41-7.44-5.14A8.54,8.54,0,0,1,422.7,304c.59-1.1,2.63-2,1.67-3.21-1.29-1.64-2.84-.13-4.35.54-2.45,1.09-5.58-1.18-5.65-3.89,0-.73.83-1.79-.52-1.85-.59,0-1.23.94-1.85,1.46h0c-.25-1.61,1.44-3.21,1.15-4.1-.92-2.75-2.26-.83-3.56.12-.56.4-.58-.56-.62-1-.25-2.6-2.31-2.24-3.78-2-3.47.68-3.63-1.29-3.79-3.85-.39-6.12,1.07-12.1,1.17-18.18.05-2.81,3.53-4.34,4.43-3.64,3.82,3,4-.62,5-2.34,2.14-3.67,7-4.26,9-.56,1.2,2.18,2.84,3.33,4.61,4.76,2.55,2.05,5.48,4.72,3.13,8.26-2.64,4,.25,3.61,2.3,3.32s3.64.25,4.59,1.94c1.29,2.31,3.7,2.93,5.74,4,1.87,1,6.68-3.23,6.6-5.46l4,1.69c.14.71.11,1.57,1.2,1.51.11,0,.31-.2.31-.31.06-1.09-.79-1.07-1.51-1.2-.06-.65.09-1.77-.2-1.89-5.13-2.19-5.89-9.56-12.28-10.29-1.82-.2-1.29-1.83-1.34-3.15C438,260.48,433.5,256.9,430,258Zm69.06,53.61,2.89-3.08c2.35,4.78,3.26,2.62,4.39-.75a5.4,5.4,0,0,1,3-3.12c2-.58,2.15-2.17,1.24-2.8-2.14-1.48-.06-3.68-1.18-5.29-1.66,1.08-2.35,3.53-4.52,2.88-1.42-.43-1-2-.5-3,1.14-2.43,0-3.36-2.17-3.82-2.85-.62-3,1.68-3.08,3.31C498.93,300.69,499.06,305.48,499.06,311.61ZM387.26,306h-2.49c-1.48,0-2.95.36-2.57,2.13.57,2.76,1.78.26,2.75.18a28.36,28.36,0,0,1,4.42,0c.91.06,2.07.92,2.33-.64.23-1.34-.9-1.57-1.95-1.62C388.92,306,388.09,306,387.26,306Zm68-18.35c1-1.27,2.7-2,3.25-3.9.31-1.05-.26-1.73-1.15-1.58-1.55.28-3.44.61-3.73,2.51A2.57,2.57,0,0,0,455.29,287.66Zm118.42,72.15a2.45,2.45,0,0,0-2.37-1.73c-1-.05-2.07.13-2.15,1.39a2.12,2.12,0,0,0,2,2.34C572.46,362,573.33,361.41,573.71,359.81ZM398.16,264.59c-2.56,2.32-1.92,4.91-.86,7.55C397.35,269.58,398.86,267.24,398.16,264.59ZM578.06,394c1.24,0,2.38-.39,2.55-1.78a1.52,1.52,0,0,0-1.78-1.8c-1.13.12-2.34.54-2.59,1.88S577,393.9,578.06,394Zm-85.2-10.42c.07-2.75-1.62-4.5-2.53-6.52C490.12,379.4,489.32,382,492.86,383.53Zm-3.34-16c-1.8-1.39-3.54-2.17-5.53,0ZM393.67,183.79c.16-2.2,1.14-3.95-1.87-4.89C391.72,180.78,391.83,182.2,393.67,183.79ZM572.85,398.48a1.26,1.26,0,0,0-.65,1.62c.17.62.57,1.27,1.32,1,.26-.09.39-.85.38-1.3C573.88,399.17,573.79,398.45,572.85,398.48Zm13.88-228.09c-.12.27-.4.61-.32.81a.85.85,0,0,0,.77.34.83.83,0,0,0,.34-.77C587.44,170.57,587,170.51,586.73,170.39ZM439.46,252.54l-.44-1.19a4.34,4.34,0,0,0-.89,1c-.1.21.17.59.27.89ZM521,200.75l.4-.21c-.12-.1-.23-.26-.35-.27s-.27.13-.4.2Z" transform="translate(-329.52 -117.33)"/><path class="cls-1" d="M490,284c-1.54-1.55-.66-5.88-5-4.26-.7.26-1.48-.7-1.61-1.54a1.59,1.59,0,0,1,1.26-1.84A39.42,39.42,0,0,1,489,276c.33.33.66.67,1,1l.45.22L490,277l-1-1c-.47-.92-1.18-2.08-2.18-1.68-5.28,2.11-6.94-2-9.36-5.09-.79-1-1.05-3-3.22-2.45-1.87.44-2.16-.6-2-2.31.3-3.79-1.43-6.56-4.51-8.8-1.86-1.35-3.71-2.55-4.12-5.6S459.74,247,457,247h0c1.51-6.29-3.17-9.33-6.9-12.75-.82-.75-2.18-.92-2.05-2.38.22-2.48,1.34-5.42-3.07-5.16-.25,0-.83-.77-.78-1.11,1-6.62-6.15-9.53-7.07-15.32-.11-.74-1.34-1.31-2.79-1.51,1,1.93,1.92,3.86,2.91,5.78.65,1.26,1.05,2.5-.19,3.63a2.46,2.46,0,0,1-3.2.41c-1.07-.81-2.82-1.57-1.86-3.51.82-1.67,1.22-3.06-1.05-4-1.65-.7-2.71-1.46-4.42.45s-4.44,2.06-7,.75c-3-1.55-5.39,0-7.79,1.61-1,.67-.34,3.19-2.34,2.56-1.76-.56-1.37-2.43-1.41-3.91,0-.5,0-1,0-1.5.23-.36.48-.72.69-1.1a3,3,0,0,0-.35-.26L408,211c-1-2.49-1.79-5.07-4.53-6.45-2.33-1.16-4-2.53-1.69-5.56,1.24-1.66-.34-4.32-.64-6.1-.68-4.07,2.46-3.86,3.83-4.18s3.14,1.41,2.48,3.83c-.38,1.38.29,3,1.66,3.19,2.7.36.22-2.2,1.25-2.74s1.62-4.61,3.85-.63c1.23,2.2,3-.43,4.54-.64,1.93-.26,1.74-2.73.95-3.67a149,149,0,0,0-11-11.73c-1.2-1.15-3.33-1.38-5.07-1.89-3.82-1.11-6.29.81-6.72,4.94a38.3,38.3,0,0,1-1.3,5.14c-1.31-6.55-1.88-12.71-4.86-18.2-1.14-2.12,1.76-2.95,1.36-5-.93-4.66,1.77-9.77-1.82-14.14-1.26-1.55,1.15-2.65.59-4.44-1-3.24,5.05-4.41,2.92-8.78-.3-.61,4.08-4.28,8.06-3.69,2.25.33,4.44-2.84,6.94-2.22,6.48,1.6,13.75-1.69,19.66,3.28a3.25,3.25,0,0,0,2.3.63c3.94-.57,6.76,1.06,8.74,4.59,1.7-4,4-4.31,6.19-.81,1.1,1.76,1.76,2.6,3.74,1.64,1.44-.7,2.4.33,3.59,1,2.85,1.57,5.35,4.48,9.33,2.29,1.7-.94,1.51,1,1.73,2.05,1,4.68,3.13,5.95,7.58,4.18,1.58-.63,2.62-1.32,3.42.91,1.24,3.43,4.2,4.06,6.71,2.27,3.06-2.17,6.24-2.09,9.55-2.21,1.81.21,3.86-.15,4.78,2.08l1.4,7.35c.6-1.61,1-3,1.64-4.33a4.33,4.33,0,0,1,5-2.35c1.23.3.64,2.62.35,3.93-.45,2.07,2,5-1.74,6.15.15.46.18,1.05.48,1.35.62.59,8.49-2.4,8.75-3.21.49-1.5-1.24-4.76,2.8-3.63a4.57,4.57,0,0,0,1.07-2.08c1.93-9.48,9.8-11.27,17.27-14.34,5.8-2.39,12.34-2.42,17.67-6a5.6,5.6,0,0,1,1.87-.64c2-.5,4.55,3.74,6.13-.69,3.56,1.17,6.06-2.79,8.18-2.69,6.05.28,10.59-5.87,16.78-3.28,2.32-3.3,8,1.41,9.5-4,.21-.75,1.11-1,2-.23,1.47,1.21,3.9,1.61,4,3.91.47,7.17,3.18,14,3.09,21.31,0,2.48-1.08,4.3-1.48,6.42-.76,4,1.42,7.6,1.13,11.48-.14,2,.5,4.3-3.13,2.5-1.75-.86-4.28-.14-6.92-.14,1.29-2.43,3.61-1,4.87-2.67-2.44,0-5.73-.8-6.35.15-1.7,2.61-4.49,2.33-6.51,3.71-1.34.92,0,1.95.26,3,1,3.72,0,6.43-4.22,7.12l-.41-.23.41.23c0,5.66,4.91,4.08,7,3.39,2.82-.95,5-2,7.79-.25,1.59,1.05,2.47-1.62,4.06-.95a53.75,53.75,0,0,0-1.49,20.2c.13,1.32-.8,1.68-1.21,2.5-1.23,2.47-3,4.68-2.36,7.86.21,1,.43,3.08-2.5,2.91-3.17-.18-3.26,3.56-4.89,5.46,2.39,2.19,4-.66,6.39-.93-1,2.25,2.13,5.44-2.45,5.94-.18,0-.54.93-.4,1.1,3.8,4.73-3.28,2.15-3,4.48-2.65.07-1-2.82-2.9-3.81,0,6.77-.19,13.32.06,19.87.17,4.62,2.3,5.67,6.33,3.21,3.5-2.13,7.92-1.85,11.11-3.8,6.14-3.74,11.69.84,17.51.1,2.8-.36,5.45-.3,7.28-1.53.85-.57,1.52-.2,2.32,0a17.23,17.23,0,0,0,9.78-.95c3.32-1.23,6.47-1.45,9.06,1.6.61.71,1.09,1.41,2.4.59,6-3.74,6.91-2.33,13.54,1.55,4.39,2.58,1.76,3.2,1,5.42a33.45,33.45,0,0,1-5,9.56c-1.07,1.39-1.88,2.92-.17,4.89,1.24,1.43,1.85,3.77-1.19,4.61-.22-1,.46-2.16-.59-3.08A2.16,2.16,0,0,0,658,271c-.79,5.38-2.08,10.58-5.44,15-1.66,2.17-1.4.76-4,.22-3.67-.76-4.23-2.68-5-5.4-.23-.88-1.37-.85-2.16-.47a3.12,3.12,0,0,1-3.28-.38c-4.73-3.14-7.27-2.21-8.49,3.16-.33,1.44.78,2.46,1.3,3.65,2.45-1.56,4.17,3,6.69.82.37-.32.61-.9,1-1,.79-.27,1.18.32,1.31,1,.78,4.29,11.89,1.22,6.89,9.79-1,1.66-2.62,3.59-1.16,6.15.55,1-1,1.33-2.05,1.46a14.41,14.41,0,0,0-3.86.71c-2.53,1.09-2.81,3.42-2.81,5.87,0,1.7,1,2.18,2.37,2.66,2.7.95,3.26-1.41,4.95-3.43a14.17,14.17,0,0,0,1.35,6.64c.81,1.58,0,4-.11,6-2.2-.16-.94-2.57-3.32-3,1.36,12.86-2.66,24.4-8.23,35.54h0c-3.13,2.38-6.56,1.32-9.93.86-.51-.07-1.66.21-.93-.87.85-1.27,2.26-2.65.42-3.76-3.43-2.07-5.85-5.8-9.9-6.66-2.06-.43-3.27,2.75-2.93,3.56,1.81,4.35-.4,9.47,2.8,13.49.79,1,.37,1.8-1.16,1.68a2,2,0,0,0-2.21,2.13c0,1.36,1.18,2.09,2.06,2.62,1.94,1.17,1.44-.89,1.93-1.7,1.27-2.14,2.26-1.18,3.17.36s.3,2.91-.31,4.21c-1.58,3.42-1.64,3.39,1.79,5.12l-4.65,3.8c-.29-4.62-.41-4.46-6.87-5.57-1.07-.19-2.71-3.8-2.19-5,1-2.42-.53-2-1.57-2.52-1.29-.61-1.8-.2-2.67,1-2.4,3.36-3.87,2.94-6.16-.62-1.11-1.71-1.61-4.64-4.83-4.11a9.57,9.57,0,0,0-6.68,4.74c-.51.81-1,1.67.49,2.33,2.17,1,1.23,2.3.07,3.48-.34.34-.87.6-1,1-.43,1.42,3.57,2.63.68,3.77-1.84.72-2.7-2.24-3.93-3.68-1.94-2.26-4.24-2.05-6.49-.06-2.88,2.55-8.44,1.18-9.63,6-1.44,5.81,4.51,4.84,7.06,7A3.75,3.75,0,0,1,572,392h0c-1.08.17-2.29-.39-3.27.57.54,1.77,2,1.29,3.27,1.43h0c1,3.08-1.35,2.18-2.37,1.67-4.68-2.35-9.83-3.77-13.84-7.5-2.12-2-4.56-.1-6.08,1.29-2.27,2-4.21,3.06-7.65-.22.77,3,3.12,4.9.22,6.47-.85.47-2,.79-2.12.19-1.52-6.43-6.09-1.08-8.88-2.4a4.68,4.68,0,0,1-.67-.52c.42-1.73,2.71-1.55,3.43-2.94,1.93,0,4,.25,5-2l2.16-.45c-.09-.13-.14-.34-.26-.37A1.58,1.58,0,0,0,539,388c-2.38-1.14-3.5.91-5,2-1.49-.21-3.74.79-3.83-1.86s1.92-.91,3-1.14,1.46-1,1.95-1.92c1.32-2.58,2.42-6,6.1-1.79,1.09,1.26,1.85.06,2.31-1.64.79-2.89.75-6.82,6.39-3.9s10.6-.57,12.21-6.6a4,4,0,0,1,.43-1.4c2.1-2.9,4.86-.13,6.91-.77,1.59-.5,1-5.22,4.7-3.69,1.42.59,2.6.25,3.1-.55,2.26-3.59,7.5-6.18,4.31-11.77,5.4-5.77-3.47-10.11-1.57-15.61.65-1.89-.87-5.54,1.62-5.55,2.85,0,1.15,3.45,1.34,5.34.22,2.24-.27,4.06,2.26,5.91,2.71,2,3,6.41,6.43,9,.78-4.91-.1-9.41,1.26-13.83,1-3.17-4.16-1.6-4.64-4.27-1.41,1.1-2.14.67-2.1-1s1.08-2.1,2.38-1.54c2.86,1.23,3-.26,3.67-2.62,1.51-5.62,3.62-11.08,5.48-16.59-4.4-1.36-9.06-2.4-13.39-4.23-4.1-1.73-6.42-.36-8.26,3.09-.34.33-.67.66-1,1-3.39.61-5.46,2.54-6,6l-1.31.37.24.38L569,318a15.32,15.32,0,0,0,6-6l1-1c3,.65,8.45,6.69,8.68,9.6.07,1-.27,1.68-1.22,1.85-1.23.23-1.38.7-.49,1.51.6.55,1.23,1.42,1.89,1.46,1.4.08.44-4.92,2.85-2,1.78,2.18,2.81-.08,4.13.17-2.37,6.94-4.2,7.65-12.3,4.93-1-.33-1.85-.72-3,.21a11.23,11.23,0,0,1,1.52,5.37c-.12,2.9-.55,4.88-4,2.86-1.92-1.13-3-.64-3.82,1.32-.59,1.46-1.44,2.65-3.25,2.62-.19-.88.31-2-.94-2.48a.85.85,0,0,0-.7.4c-.24,1.23.72,1.66,1.54,2.17a27.12,27.12,0,0,0,.5,2.86c.33,1.19.08,1.91-1.24,2s-1.5-.48-1.4-1.76c.24-2.85-2-3.95-4.16-4.32-1.86-.32-2.91,1.13-2.68,3.14l-.39.46L558,343c2.11.44,2.69,1.4.74,2.79-.81.58-1.93.84-1.48,2.1s1.49,1,2.47.69c2.94-.81,3,2.18,3.79,3.45s-2.78,2.46-1.66,4.73a1.85,1.85,0,0,1-.46.07C560,353,554.06,355.52,553,351l.38-.45L553,351a3.94,3.94,0,0,1-4.94,0l-1-1c-.14-.73-.12-1.59-1.23-1.5a.47.47,0,0,0-.32.32c-.07,1.12.8,1.07,1.53,1.2l1,1c.36,4.06-2.27,2.07-4,2-.11-.56.05-1.42-.87-1.27a1,1,0,0,0-.8,1.39c.43.75,1.08,0,1.63-.08-1,2.15,3.87,4,.2,6.4l-3.68-4.51c-1.62,3.08-2.84,6.88-7.19,3.53-.78-.6-1.14.77-1.31,1.56h0a29,29,0,0,0-9.46,4.82l3,2.41c-2,2.53-4.19,0-6.49.71,1.6,4.67-.07,7.19-5.17,7.37-2.42.08-6.77,2.72-3.37-3.26.36-.65-.66-2.1-1.06-3.17-.29-.78-.69-2.06.2-2.12,7.82-.48.83-4.57,2-7,2.68.72,5.74,1.46,6.56-2.81.06-.3.32-.83.47-.82,6.82.33,8-7.68,13.67-9.22,1.63-.45,3.92-1.46,3.06-4.21,4.5,1.56,2.24-8.13,7.85-4.72.28-2.48,3.82-2.33,3.9-5.35.11-4.46,3.52-6.79,8.48-6.1-1.18-3.45-5-6.31-1.75-10.44,1-1.27,1-1.86,2.79-1.09,3,1.36,6.45,4.69,9.1-1.21.38-.83,4-2.49,6.17-3.6,5-2.55,5.64-4.39,2.72-9.39-1.09.69-.65,2.68-2.44,2.78-.21-.11-.73-.24-.73-.39-.2-5.91-4.38-10.11-6.68-15.08-1.19-2.55-4.75-3.39-7.48-2.85s-3.16,3.9-4.76,5.89c-.46.58-.06,1.64.55,1.59,4-.33,5.59,2,6.28,5.41.15.71,3.25,1,.75,1.65-2,.48-1.14,5.3-4.42,2.54-.51-.43-1.06-.81-1.56-1.23-5.31-4.46-6.54-4.18-12.32-.71-2.55,1.52,3.21,6-1.74,4.57-2.41-.68-3.75-1.48-5.77.25-1.27,1.08-2.13.34-2.28-1.22l.39-.43-.43.4c-3.65-2.37-1.38-4.14.95-4.76,2.12-.57,3.24-1.1,3.13-3.39a2.75,2.75,0,0,1,1.65-2.83c5-1.16,3.53-4.79,3.28-8l0,0c.74.17.87,1.61,1.89,1,.53-.3,1.08-1.48,1.25-1.41,7.64,3.32,7.39-5.7,11.8-7.61,3.36-1.46,1.17,2.59,3.3,2.07,1.13-4.06-2.87-8.21-.6-12.44.4.14.93.24.93.33-.12,4.58,1.25,6.13,6,3.89,3.81-1.81,7.85-3,9.74-7.05,2.31.73,0,4.93,3.7,4.2l1,1c0,1.54-.06,3.47-2.34,2.65-3.36-1.22-4.85,1.79-5,3.28-.42,3.41-.29,4.65-2.9,1-1.19-1.68-3.55-.43-5.24-1.17.94,2.13-3.4,2.9-1.48,4.89,1,1,2.34,3.53,4.57.68,0,3.31-2.82,6.77,3,7.64,2.17.33,2.77,5.84,7.17,3.94a3.15,3.15,0,0,1,.94,2.6c-.3,1.14.35,1.44,1.3,1.51l.45.21L580,296c0-1.81-.21-4.65,2.12-4.22,5,.93,7.41.42,10.07-5.14,2.52-5.27.87-9.34,1.7-15.22-2.87,3-1.14,5.58-2.75,8.37,0-3.46-1-4.54-4.19-4.38-3.8.19-4.36-4.5-7-6.41l-1-1c-.12-2.35-1.06-5,2.63-5.71.41-.08,1-1.47.9-1.63-3.45-3.75-1-6.41,1.09-9.73,1.26-2-3.61-6.93-7.87-7.5,4.91-1,8.26-2.28,4.63-7-.81-1.07-.06-2.36.83-3.12,2.12-1.78-2.89-1.75-.85-4.87,1.61-2.47-3.15-.87-5.09-1.25-.54-3.53,4.82-.91,4-4.74-1.74,2.22-4.49-.16-6.52,1.8-.29.28-2.62-.06-2.59-1.61.07-4.79-3.67-3.12-6-3.55s-3.84,0-4.45,3.1c-.52,2.62-3.63,4.51-5.93,5.32-1.53.54-3.73-2.1-4.28-4.68-.14-.69-1.5-1.11-2.1-2.25,5.49,1.21,7.89-4.08,12.2-5.13,1-.24,1.58-5.33,1.08-8a6,6,0,0,1,2.45-6.36c6.18-4.29,6.15-9.24,3.44-15.59-1.12-2.6-2-6.7,1.75-8.9,1.35-.81-2-5.55,3.48-2.63-4.5-4.45-9.48-7.69-9.23-14.26-.16.39-.52.82-.44,1.16.43,1.89,1.91,4.15,0,5.54-2.26,1.63-5.11-.11-7.72.14-2,.19,1.86-3.38-2.15-3.1-4.6.33-7.84,1.84-10.58,8-1.18,2.66-3.81,5.35-.52,8.34-1.67,1.51-3.13,3.7-5.09,4.32-1.5.47-2.92-.23-2.21,2.16,0,.14,0,.46-.08.46-7.16.75-5.75,11.62-13.79,11.62-1.48,0-1,2.9-1.68,4.38-.35.76.5,2-1.17,2.19-4,.52-5,.82-6,3.54-.92,2.54-1.63,2.65-3.15.66-.84-1.11-2.16-1.71-2.66-.21-.39,1.15-3,2.18-.93,3.66,2.55,1.85.95,5.17,2.9,7.16.46.47.52,1.65-.08,1.68-7.38.35-2,3.67-1.43,5.87.22.9.3,1.84.41,2.58,7.34-2.33,10.9-9.52,17.51-12.74,4.14-2,7.15-1.11,8.09,2.34.72,2.64-.82,2.77-2.18,3.41-4.21,2-7.9,4.26-9.85,9.06-.59,1.46-3.26,3.46-5,4.13-3.29,1.29-4.23,3.71-4.74,6.38-.41,2.14-1.29,1.62-2.69,1.53-.93-.06-1.72-2.56-2.62-.4-.62,1.48-2.87,2.52-1.49,4.73.6.95.57,2.44,1.32,3.12,2.52,2.28,2.05,3.77-1.77,4.56,2.77,1.63,4.6-1.22,6.82.81-2.48,2.16-4.93,4.44-7.54,6.53-1.07.85-2.42,1.29-1.4,3,2.65,4.51,1.46,8.75-.21,13.37-1.31,3.63,2.3,3,4.47,3.21h0v2h0c-6.55,1-6.55,1-7.37-6-1.84,1.68-2.3,3-1.06,5.76,2.83,6.21,1,12.95,1.49,20.67-2.63-2.31-1.91-4.08-1.89-5.72s-.14-3.27-.17-4.91c0-1.84-.06-3.67,0-5.5.14-4.21-2.19-5.6-6-5.33Zm-7-14.95,1,1c.21.62.24,1.41.65,1.82,1.08,1.07,1.19-.07,1.53-.78,1-2.14,1.8-2.48,3.2,0,.92,1.6,2.79,3.43,4.86,2.77s1.22-3.32,1.75-5.05c1.44-4.74-2.15-8.83-1.95-13.46.08-1.95.44-4.18-2.55-4.45a1.27,1.27,0,0,1-1.17-1.37c0-1,.75-1.34,1.67-1.44,1.25-.14,3,.18,2.83-1.84a4.3,4.3,0,0,0-2.16-3.73c-1.84-.85-3.5-2.32-5.92-1.59-1.08.32-3.15.25-1.89-2,1.08-1.94,2.93-3.35,3.14-5.9.08-1,1.63-.81,2.05.51a2.44,2.44,0,0,0,3.18,1.64c1.6-.53.71-2.29.8-3.48a6.59,6.59,0,0,0-1.26-5.12c-1.3-1.6-1.46-4.37-.24-5.6,3-3.07-1.39-3.41-1.64-5.29-.21-1.51-2.23-1.9-4.13-.86s-4.81-.83-5.47-3.37a2.06,2.06,0,0,0-.82-1.09c-3.88-2.62-7.22-2.07-10.41,1.69h0c-1.39-.22-2.7,1.59-4.15.17a1.71,1.71,0,0,1,0-2.63c2.76-2.32.88-4.44-.49-6.08A2.62,2.62,0,0,1,465,200l1-1,1-1c.9-.15,2,.29,2.57-.84,0-.08-.11-.39-.19-.4A2.47,2.47,0,0,0,467,198c-.33.34-.67.67-1,1l-1,1c-2.53-.13-5.83,1.36-6.07-4.37-1.75,4.31-4.43,4.51-7.26,4.38-1.11-.06-2.51-.51-3.3,0-3.58,2.22-3.7,10.5-.37,14h0a24.83,24.83,0,0,0-.84,4.29c-.09,2.86,1.06,6.13,4.17,5,4.45-1.65,2,1.74,2.67,2.74h0c-.56,3.47,1.18,5.33,4.33,6.19,1.56.43,3.44.41,2.16,3-.81,1.66-1.18,3.93.65,5,2.25,1.29,3.47-1.16,4.82-2.4,1-.92,1.86-2.37,3.25-1.39s.13,2.27-.43,3.44c-1.75,3.71,0,7.26,2.21,9.56,2,2.11,3.9-1.21,5.72-2.46.22-.15.59-.09.9-.12-.1,3.6.09,4.07,2.86,8.22A6.23,6.23,0,0,1,481,257c-.69.35-.68.7,0,1,.09,1.41-.49,3.55.88,4,4.34,1.43,2.09,4.47,2.13,7l-.95-.05-.48-.37ZM538,347l.22-.44L538,347l-.4.42Zm69-8,.43.24L607,339l-.43-.23Zm-7-24,.45.23L600,315l-.42-.4Zm-86-85,1.3-.4-.25-.38L514,230l-.22.44Zm67-63,.73-1.07-.37-.25L581,167c-.36.37-1.26.59-.36,1.3Zm-27,57c.65-.08,1.37-.1,1.48-.95,0-.17-.38-.58-.55-.56-.84.12-.86.85-1,1.49l-.22.45ZM528,356a1.85,1.85,0,0,0-2,2c-.89.15-2-.35-2.5.86a.79.79,0,0,0,.38.7c1.23.24,1.63-.73,2.12-1.56a1.84,1.84,0,0,0,2-2l2.15-.42c-.08-.13-.14-.33-.25-.37A1.52,1.52,0,0,0,528,356ZM478,154c-.12-.73-.08-1.6-1.21-1.52a.47.47,0,0,0-.31.32c-.1,1.13.78,1.08,1.5,1.22.28,1.13-.6,2.59.9,3.35.15.08.82-.42.9-.74C480.19,155.12,479.66,154.15,478,154Zm88,220c1.16-.22,2.76.64,3.39-.85.44-1.06-.88-1-1.54-1.25-2.33-.83-1.67,1-1.85,2.1-.72.13-1.58.12-1.51,1.22,0,.11.2.3.31.31C565.89,375.57,565.89,374.74,566,374Zm17-216c-3,1.65-3,1.65,0,5.11V158c1.42-1.53,1-3.16,0-4.81Zm-26-11c-.1-.54.11-1.29-.77-1.32a.83.83,0,0,0-.56.56c0,.89.77.68,1.31.78a18.91,18.91,0,0,1-.24,2c-.3,1.39-4.29,1.36-2,3.3,1.63,1.37,2.88-1.09,3.63-2.83a12.48,12.48,0,0,1,2.1-2.46Zm17,5c2.19-.08,1.69,2,2.42,3.09,3.21-4-1.57-6-2.42-9V152c-2.25.34-2.13,1.64-1.52,3.55C574.1,154.53,574,153.24,574,152Zm-4,14,.42.23L570,166a4.69,4.69,0,0,1,.07-1.46c.76-1.94-.24-2.55-1.91-3-1.2-.3-1.95-.13-2.07,1.17-.14,1.51-.22,3.07,1.95,3.21C568.69,166,569.34,166,570,166Zm27,97c2.66-.32,1.27-2,1.12-3.27-.28-2.37-.66-4.87,3.07-5.58-2.13.95-4.66-2.54-5.15-.17-.35,1.65-3.78,4.94.6,6.69.37.14.25,1.52.36,2.33a1.52,1.52,0,0,0-.78,1.93c0,.11.24.17.37.25Zm32,74-.42-.22.41.24a8.12,8.12,0,0,0,.13,2.43c.67,1.79,2.23,3.22,4,3,1.11-.16,2-2.05,2.95-3.17-1.61-.95-2.19-4-5.07-2.43A5.15,5.15,0,0,1,629,337Zm-27-9c-.13,1.67,1.47,2.56,1.81,4,.53,2.23-2.17,1.58-3.14,2.76,4.91,1.63,5.21,1.49,5.31-2.6.09-3.36,0-6.71,0-10.37-2.54,1.76-.63,5.54-4,6.19,1.16-2-2.26-4.77,1.22-6.4.75-.36.19-1.38-.48-1.43-2.11-.17-2.41-2.72-4.26-3.12-2.5,2.62-.13,6.38-2.36,9.19-.82,1,0,2.75,2,1.68C599.51,327.16,600.71,328.05,602,328ZM480,172l-.43-.22.41.24c-.61,1.28-3.28.71-2.55,3.44a4.39,4.39,0,0,0,3.3,3c4.14-.29,6.19,3,9.11,4.73,1.63,1,4.68,1,4.81.43.52-2.29,1.19-5-.42-7.12-1.14-1.48-2.94-3.09-4.63-.2-.1.17-.95.15-1.22-.06C485.88,174.22,482.3,174.38,480,172ZM617,320c-.13,3.49-3,1.74-4.56,2.57-3.79,2.1,4.1,1.57,1.11,3.92-.25.2-.62.5-.61.74a1.5,1.5,0,0,0,2,1.3c1.51-1.67,1.29-4.43,3.65-5.77.34-.19-.54-2.08-1.58-2.78.54-.29,1.49-.93,1.58-.83,4.82,5.51,6.24,2.64,6.76-2.67.07-.73,1.28-1.14.57-2.41-2.74.82-5.81,3.61-8.32.54-.55-.67-1.31-3.78-.25-5.59,1.23-2.11,3.88-.31,6-1.7-5-1.74-9.54-.49-14.06.28a6.47,6.47,0,0,0,2.47.38c1.89.1,4.11-.56,4.29,2.64s-1.64,3.48-4.08,3.43a1.86,1.86,0,0,0-2,.9c-1.95,2.58,1.73,2.74,1.38,4.71-.22,1.25,2.51.49,2.71.05C615.46,316.59,616,319.9,617,320ZM473,158c-4.88.89-8.44,4.3-6.67,6.6s2.87,5.06,4.31,6.95c1.92,2.53,3.56,4.63,3.67,8,1-4,1.44-8.31,4.43-11,2.14-1.9,2.73-4.78,1.76-5.73-2-2-3.52-5.58-7.46-4.81Zm44,8c-2.63-1.92-2.56-1.9-3.46,1-.2.65-1,1.19-1.71,1.58-1.88,1.08-2.06,1.83-.46,3.71a7.92,7.92,0,0,1-1.48,11.49c1.46-3.93-1.43-4.18-3.89-4.79l-.41-.23.41.23a5.93,5.93,0,0,0,1.05,3.16c2.13,3.67.68,7.38-3.06,8.58,1.78,2,5.45,1.53,6.44,5,.06-2.3,2.22-2.66,3.45-3.79a10.59,10.59,0,0,0,3-4.94c.88-2.84,2.68-4.63,5.51-4.6s2.65-1.59,2.57-3.42l0,0c1.37-.18,3.2-.7,2.39-2.21s-3.51-.7-4.47-.19c-2,1.06-3.33,1.12-3.42-1.09-.06-1.56-.77-4.57,3.1-3.88s3.77-1.84,3-4.66c-2.23,4.33-4.69,4-8.66-1,2.48.17,4.68-.27,6-2.59C519.43,160.84,517,160.73,517,166Zm92,97-.44-.22.42.24v3h0c-3.85,2.27-8.1,4.26-7,10h0c-1.4.17-3.16.68-2.36,2.24.58,1.15,1.49,3.84,3.35,2.84,2.79-1.48,6.44-.84,8.59-3.47,2.85-3.48,3.09-.38,3.91,1.62.86-1.42,0-3.29,2.77-3.88,4.51-1,5.19-5.09,1.52-8.37-2.73-2.45-.89-2.67,1-3.41a7,7,0,0,1,5.31,0c1.28.5,2.55,2.05,4,.53s-.21-2.79-.34-4.19c-.23-2.48-1.82-3.59-4.22-3.38-2.61.23-4.32-1.12-5.55-3.09-.72-1.15-2.25-.89-2.07-.56,1.12,2.18-2.11,4.2-.42,5.82,6.11,5.82-.67,3.7-2.58,4.11A32.77,32.77,0,0,1,609,263ZM441.08,178.92c-.28-.79.46-2.13-1.07-2.24-.39,0-.82.43-1.24.67l2.15,1.71c-1.61,2.54-4.32,2.58-6.86,3a7.2,7.2,0,0,0-5.69,4.86c-.78,2.15,1.87,3.55,3,5.22.95,1.42,1.38-.2,1.63-1.09l0,0c1.69.43,6.35-.9,1.89,3.18-1,.94-.27,1.7.24,2.55,2.18,3.57,4.64,3.17,8.14-1.47,1,1.14.62,2.49.7,3.74-1,.13-1.93.38-1.82,1.68,0,.22.39.62.52.59,1.2-.26,1.2-1.3,1.34-2.23,3.11-.94.82-4.87,3.33-6.09,2.94-1.44,7-1,8.37-5.14.06-.17,3.72,1.12,1.43-1.44-1.59-1.77,1.74-3.9-.37-4-5.17-.29-3.19-3.91-3.18-6.23,0-3,.38-3-3.4-3.24,1.87,2.11,2.44,4.25.94,6.93-.78-.66-1.42-1-1.72-1.48-2.34-4-4.63-3.4-7-.06C442.14,178.6,441.53,178.7,441.08,178.92Zm139,5.38.21.55c1.14.09,2.28.1,3.4.29s2.09.67,1.77,1.9-1.58,1-2.51.75c-1.56-.35-3.37-1.68-4.53.13-1.3,2,.32,3.62,1.52,5.26,1,1.31,1.93,3.81-.79,3.58-3.68-.3-4.82,2.14-7.09,3.88-3.66,2.81-1.71,4.23.45,6,.86.69,2.6.41,2.93,1.63,1.09,4,2.52,1.18,3.78,0,1.52,2.74-1.41,6.11,1.89,8.48,1.6-2.75,2.49-5.7,5.24-7.54a8,8,0,0,0,3.7-6c.07-1.2.28-2.39,1.69-2.68,1.8-.37.52,2.37,2.42,2.32-.79-2.88,1.33-6.17-1.38-8.51-4.08-3.51-4.34-6.5-.12-10Zm28.5,119.41a2.16,2.16,0,0,0,2.91-1c.52-1.23,1.78-2.63,0-3.95s-1.23-3,.56-3.07c2.62,0,3.42-2.09,4.88-3.32,1.61-1.35,4.56-2.8,2.11-5.52-2.16-2.41-4.66-1.57-7.07.18-1.05.77-1.56,3-3.44,1.93s-3.53-1.16-4.37,1.12c-.75,2-3.88,3.83-.73,6.41.86.71,1.7,1.93,1.16,3.09C602.28,304.42,606.74,302.74,608.56,303.71ZM495.05,193.11c-.51-3.77-3.14-5.73-6.68-6.71-2.33-.64-3.18,2-5,2.52,1.05,2.17-.56,5.56,1.91,6.69s2.64,2,2.46,4.37a3.8,3.8,0,0,0,3.74,4.16c2.56-.08,3.79-1.87,2.86-4.51C493.56,197.41,494.45,195.41,495.05,193.11ZM595.84,307.5c1.86-2.86,2.87-6.14,5.48-8.36.62-.53,1.11-.75.1-1.17-1.54-.64-2.78-3.12-4.67-1.49-1.47,1.27-3.82,3-2.12,5.34C596,303.67,595.77,305.37,595.84,307.5ZM461.42,193.13c2.38-3.13,1.32-5.66-1.19-8.6C459.71,188,460,190.62,461.42,193.13Zm110.9,16.51c-.26,2.62-.78,4.27.49,6.2C575.21,213.81,575.17,212.16,572.32,209.64Zm-64.75-13c-1.79.15-3.63-.06-4.77,1.57-.12.17.66,1.4,1,1.4C505.74,199.6,506.26,197.67,507.57,196.64Zm31.84-54.78c1.93-.09,3.6,1,4.19-1.12a2.16,2.16,0,0,0-.74-1.64C541.43,139.21,540.44,140.11,539.41,141.86Zm-59,10.19c1.27,2.76,1.13,4.62,3,5.59C484.74,155,483,154,480.36,152.05ZM602.75,315.6c1.94-1.88.93-3.39-.12-4.81-.13-.18-1.25,0-1.29.17C600.86,312.75,603.61,313.55,602.75,315.6ZM543.9,145.31c-.13-.86-.55-1.76-1.43-1.72a2.53,2.53,0,0,0-2,1.18c-.3,1.07.88,1.1,1.63,1.34S543.75,146.61,543.9,145.31Zm50.28,192.41c-.06,2.33,1.33,2.68,2.79,2.86.17,0,.68-.78.58-1C597,338.27,595.9,337.74,594.18,337.72Zm3.7-5c-2-.83-3.33-1.16-4.6.57C594.94,334.07,596.24,334.48,597.88,332.72Zm40.58,8.2c.43-1.43,1.49-2.81.63-5C637.66,337.75,638,339.31,638.46,340.92ZM606.7,316.81c.18-2.21.87-3.53-.4-4.77A6.33,6.33,0,0,0,606.7,316.81Zm-32.4,15.5c-.37,2.21-.44,3.52,1.94,3.58C575.61,334.74,575.13,333.85,574.3,332.31ZM444,140.22c1.17.77,2.18,1.14,3.31,0ZM569.46,333.36c-.36,1.08-.55,1.51-.64,2s-.61,1.58.54,1.1C570.32,336,570.15,334.84,569.46,333.36Zm20.14,27.17c-.63-.17-1.07-.44-1.39-.34s-.55.59-.82.91c.36.16.77.52,1.07.45S589.1,361,589.6,360.53Zm34.9-109.1c.27-.77-.11-1.1-.59-1.05a1.62,1.62,0,0,0-1.09.64c-.37.61.19.83.64.81A3.18,3.18,0,0,0,624.5,251.43Zm-48.58,44.38c-.06-.71-.15-1.24-.85-1-.27.09-.64.47-.61.68a3.59,3.59,0,0,0,.53,1.1ZM613,329.89l-1.12.69c.28.13.57.38.84.37a7.05,7.05,0,0,0,1.33-.35Zm-93.4-136.63-.32-.84c-.28.11-.7.15-.8.35s.17.55.28.83Zm5.63-5.64c.12-.27.39-.6.31-.8a.59.59,0,1,0-1.09.43C524.55,187.45,525,187.5,525.25,187.62ZM544.35,341c.14.24.24.61.43.66s.51-.17.77-.27l-.58-.91Zm77.39-15.87c-.12-.26-.18-.62-.38-.73s-.5.11-.76.17c.13.25.2.59.41.73S621.48,325.15,621.74,325.08ZM568,331.5l-.47-.74c-.13.25-.38.51-.38.76s.27.49.41.74Zm-4.62-8c-.05-.1-.09-.26-.17-.3s-.25,0-.38.05l.25.46Zm9,48-.74-.07c.11.1.22.25.35.26S572.23,371.6,572.36,371.53Zm20.26-165.84c-.11,0-.26,0-.31.08a.84.84,0,0,0-.08.37l.53-.1Zm-55,179c-.11,0-.26,0-.31.08a.84.84,0,0,0-.08.37l.52-.1Zm53.66-125.32-.35-.14,0,.52a1,1,0,0,0,.36-.08C591.3,259.62,591.27,259.47,591.28,259.37Zm10-1.83c-.06-.1-.09-.26-.18-.3s-.24,0-.37.05l.25.46Zm-74-73c-.06-.1-.09-.26-.18-.29s-.24,0-.37,0l.24.46Zm119,65.18-.13.34.51.05c0-.12,0-.26-.09-.35S646.47,249.73,646.37,249.72Z" transform="translate(-329.52 -117.33)"/><path class="cls-1" d="M457,340c.43,5.52,1.81,10.34,8.36,11.34,1.31,5.26,9.05,4.71,9.61,10.64-2,.27-2.21,1.47-1.67,3.18,1.42-.64,1.55-1.9,1.73-3.13,3.7,1.16,2.79,4.29,3,7-.08.15-.15.29-.22.44L478,369c1.42.39,2.29,2.72,4.27,1.19.74-.57,1.68-1.48,2.41-.18a2.14,2.14,0,0,1-.82,3c-1,.58-.44,3.09-2.55,2.05A32.65,32.65,0,0,1,478,373c-.11-.64-.12-1.37-1-1.47-.18,0-.58.38-.56.55.1.85.83.87,1.47,1-.07,2-1.52,2-3,2l0,0c-1.14-3.88-5.77-4.48-7.46-8.06-.83-1.75-2.57-3.15-3.26-5.05,1.52-1.3,2.16.73,3.59.32,0-2.63-2.07-2.75-3.85-3.19l0,0c-.05-2.21-1.72-3.3-2.85-4.77-1.23.79-1.25,1.65-.61,2.26,1.27,1.23,1.41,2.1-.37,2.91s-2.17-.29-2.31-1.53c-.68-6.36-5.81-8-10.56-10-1.47-.62-1.2-1.77-1.28-2.88l.22-.44L446,345c-4.24-2.63-7.36-.14-10.47,2.64-.63-1.8-1.93-3.3,1.07-3.83,2.06-.37,1.45-2.4,1.34-3.77-.2-2.42-2.2-1.23-3.05-.94-3.1,1.05-8.16-.84-8.32,5.1,0,.25-.8.75-1.17.7-4.7-.69-6.13,5.48-10.71,5.1-.33,0-1.12,1-1.08,1.5.52,7.09-3.08.93-4.57,1.44-.32-2.85-3.7-3.72-4.4-6.46a4.94,4.94,0,0,0,4.55-6.32c-.18-.49.75-2.11,1.05-2.45,1.81-2,6-1.1,6-5.4,3.46,5.41,9.06,5.53,17.2.62-.65-1.3-4.79-.83-2.21-4.08,1.41-1.78-1.22-2.19-2.43-2.7-2.65-1.12-5.08-3.43-5.74-5.71-2.18,2-5.3,3.42-4.17,7.35a1.24,1.24,0,0,1-1.23,1.7,2.06,2.06,0,0,1-1.38-1.25,21.72,21.72,0,0,1-.59-3.35c-1.73.51.6,4.08-2.51,3.23-5.35-1.46-6.76,1-6.35,5.81.16,1.79-.21,1.84-5.05.51,4.43,4.66-1.32,5.8-2.4,8.55-.58,1.49-2-.57-2.52-1.22-1.24-1.42-1.66-3.87-5.13-2.19,3.7-1.92,5.92-3.86,5.25-7.69-.2-1.14,0-2.46-1.57-2.72-1.29-.22-3.22-.69-3.74.48-2,4.56-6.95,6.73-8.73,11.61-1.12,3.07,1,3.9,2.15,3.3,2.66-1.37,3.05-.05,3.53,1.84,1.16,4.57,5.35,6.17,8.7,8.3,1.79,1.13,4.77.94,4.71-2.83,0-1.24.74-1.83,2-1.25.88.41,2.27,1.06,1.35,2.08-1.89,2.1-.44,3.51.4,5.28,3.19,6.72,7.44,12.54,14.19,15.91,1.54.77,2.4,1.95,3.64,2.83a2.45,2.45,0,0,1,1.22,2.55c-.41,2-2,.3-2.8.82-3.49,2.34-6.71-1.62-10.18-.35-.59.22-1.8-.83-1.44-1.65,2.29-5.15-2.52-1.33-3.23-2.62-1.72,2.79-6.77,1.58-7.21,6.46-.13,1.4-3.6,2.83-5.77,3.59-1.42.49-.91-1.76-2.44-3.69,1.38,4.36-3.13,5.26-2.26,8.59-2.33-2.29-1.74-5.13-1.76-7.79-2.66-.27-1,4.36-4.12,3.08a2.85,2.85,0,0,1-1.79-2.25,15.26,15.26,0,0,1,.37-3.4c3,.58,4.63-2.65,7.26-2.67,4.6-.05,7.28-2.78,10.23-5.82,1.55-1.59,1-2.28-.06-2.75-4.1-1.82-5.9-5.82-8.17-9.07-2-2.88-5.59-4.25-6.73-7.76a1.06,1.06,0,0,0-.78-.56c-7.89-.33-6.25-9.79-11.82-12.31,1.25-3.47-.87-7.18.6-10.49.42-.95,2.74-.91,4-1.65,1.55-.9,5.83.91,4.11-3.92-.11-.34,4.48-1.07,6.19,1.53,2.08-1.68-.53-5.42,3.24-6.22.91,1.61-2.2,3.69.71,5.09,2.48,1.2,2.53-1.42,3.72-1.82,2.73-.92,5.88-.75,7.41-3.9,1.64,4.34,8.23-2.25,9,4.61.66-2.38.91-4.44,3.67-4.68,1.43-.12,1.17-1.82,1.14-2.93-.12-3.89-5.31-8.43-9.28-8.09-.84.08-1.88.48-2.24-.38-1.47-3.53-4.62-2.53-6.87-2.08-3.1.61-6.21-.14-9.25.71a4.49,4.49,0,0,1-2.89-.37,3,3,0,0,1-1.29-3.91c.69-1.92,2.39-.7,3.26-.21,2.19,1.24,4.09,2.88,4.88-1.27.22-1.18,1.52-1.2,2.5-.91.75.22,1,1.06.28,1.45-1.29.7-2.87,1.67-.82,2.59,1.58.71,4.53,1,5.57-.94,2.11-3.94-1-7.47-3.26-9.4-1.52-1.28-4.89-5-8.59-1.25-3,3-6.51,1.52-7.94-2.78-.55-1.65-.8-3.54-1.8-4.84a2.85,2.85,0,0,0-3.64-.57c-2.4,1.75-.26,4.41-1.24,6.45,4.61,2.15,1.08,5.41.12,7-1.75,2.86-.33,3.31,1.5,4.54,2.13,1.44,4.45,1.56,6.88,1.4-.17,3.58-4.94.7-4.83,4.12l0,.06c-5.38,1.86-11.3-.14-16.6,2.3-1,.45-2.63.32-2.08-.8,2.36-4.81-1.23-8.51-2.18-12.64.58-.18,1.06-.43,1.13-.34,2,2.43,4.57,5,7.45,3s1.94-6.18,2.25-9.36c.12-1.21-2.43-3.34-4.69-1.42-1.38,1.16-2,.89-2.24-.78l.22-.44L360,286c-2.21-.05-1.7,2-2.58,3.46-.84-2-2.53-3.08-2.93-5.19-.66-3.45-.76-5.1,4-4.15,2.86.57,6.32-1.16,9.64-1.26,1.31,0,2.6-1.93,2.07-2.94-.78-1.48-2.55-3.47-3.85-3.44-4.51.12-5.74-6.18-10.62-5-.53.12-.75-1.92-.07-1.91,6.81.11,4.81-6.8,8-9.8l.64,3.59c.77-1.77,1.11-3.44,2.09-4.56s2.74-2,3.94-1.06c1.44,1.17-.21,2.16-1,3.19-3.55,4.52-2.5,8.88,2.44,10.93.69.29,1,1.22,1.8,0,1.38-2.13,3.22.27,5,0,2.75-.4.16,2.55.41,4,.19,1.12-.13,2.31,1.1,3.09,1.6,1,1.92-.34,2.59-1.23,1.39-1.85,4.28-1.88,5.16-1.17,1.39,1.13,3.22,3.18,1.84,5.71-.32.59-.62,2.12,0,1.62,2.89-2.2,3.84,3.67,6.42,1.29a2.25,2.25,0,0,0,.21-3.17c-1.44-2.15-3-4.32,1.7-3.17.71.17,1.67-.24,1.48-.83-1.14-3.59.63-6.82,1-10.21.22-1.92-1.2-1.64-2.29-1.76-1.38-.15-2.93-.37-2.84-2.07a5.18,5.18,0,0,1,1.48-3.51c1.61-1.27,2.71.43,3.91,1.39-1.1-1.73,1.33-7-4.32-4.06-.75.39-1.4-.66-1.83-1.39-1.3-2.22-3.1-3.76-5.6-3.89-.59-1.27.22-1.37.79-1.54,10.87-3.08,12.85-11.7,13.1-21.25.07-2.44.7-3.86,3.25-3.86,2.15,0,3-1.36,3.28-3,7.24,2.75,3,9.11,4.2,13.65,1.76,6.85,3.1,8.46,9.59,6,1.46,2.65-.91,4.61-1.37,6.89-.92,4.68,1.68,7.35,5.26,8.44,2.74.85,2.88,2.16,2.83,4.24-.72.13-1.57.1-1.51,1.2a.48.48,0,0,0,.31.31c1.1.06,1.07-.79,1.2-1.51,3.5-1.1,8,2.48,8.18,6.67.05,1.32-.48,2.95,1.34,3.15,6.39.73,7.15,8.1,12.28,10.29.29.12.14,1.24.2,1.89h0l-4-1.69c.08,2.23-4.73,6.41-6.6,5.46-2-1-4.45-1.66-5.74-4-1-1.69-2.45-2.24-4.59-1.94s-4.94.65-2.3-3.32c2.35-3.54-.58-6.21-3.13-8.26-1.77-1.43-3.41-2.58-4.61-4.76-2-3.7-6.85-3.11-9,.56-1,1.72-1.22,5.33-5,2.34-.9-.7-4.38.83-4.43,3.64-.1,6.08-1.56,12.06-1.17,18.18.16,2.56.32,4.53,3.79,3.85,1.47-.29,3.53-.65,3.78,2,0,.42.06,1.38.62,1,1.3-.95,2.64-2.87,3.56-.12.29.89-1.4,2.49-1.15,4.1l-.23.42L412,297c.62-.52,1.26-1.49,1.85-1.46,1.35.06.5,1.12.52,1.85.07,2.71,3.2,5,5.65,3.89,1.51-.67,3.06-2.18,4.35-.54,1,1.21-1.08,2.11-1.67,3.21a8.54,8.54,0,0,0,2.77,10.81c2.54,1.73,4.94,5.11,7.44,5.14,4.32.06,4.24,4.54,7.33,5.38,1.75.47,1.78,2.18,1.75,3.71a2.53,2.53,0,0,0-.33.16c-.06.05-.05.17-.07.26l.42-.4c1.41.72,2.85,1.39,4.23,2.18,2.06,1.19,4.09,2.65,6.07-.85A17.33,17.33,0,0,0,452,338c-.08.15-.15.3-.23.44L452,338l5,2Zm-6.94,2.93-1-1-1-1c0-2.36-1.07-3.61-3.7-3.45.18,2.41,1.64,3.22,3.53,3.62l1,1,1,1,1,1c.77.87.69,2.62,2.46,2.4.17,0,.41-.49.41-.76,0-2-1.57-1.56-2.74-1.76ZM439,332l.45.21L439,332l-1-1-1-1-.43-.41.4.44,1,1Zm-10-10,1,1a7,7,0,0,0,3,3c.52.81,1,1.78,2.17,1.57a.85.85,0,0,0,.4-.7c-.43-1.25-1.59-.78-2.48-.95a2.9,2.9,0,0,0-3-3l-1-1-1-1-.44-.4.39.44Zm-26-67-.45-.22.41.26c1.76,2.23.71,4.42-1.27,7.57L409,259C406.4,258,406.68,253.64,403,255Zm-2-12.5c3.64,2.6,3.76,7.24,7.28,9.65,1.25.86,1.56.78,2.61.13s3.12-.75,2.66-2.32c-1-3.32-1.1-7.14-5.07-9C405.52,239.59,403.67,241.56,401,242.48Zm-26.68,87.39a6.81,6.81,0,0,1,.27,1.42c0,2,5.47,3.82.22,6.25-.53.25,1.71,3.1,2.54,2.73,2.16-1,3.93-2.78,5.85-4.26-2-1.76.44-5.69-3.28-6.66-.7-.18-1.56-1.23-1.84.13C377,335.06,375.86,328.54,374.36,329.87Zm38.82-72.69,7.49-2C416.77,253.23,415,255.21,413.18,257.18Zm-19.05,68.31c3.21,1,6.06.15,9.38-1.17C399.83,323.39,397,325.13,394.13,325.49Zm22.65-79.39c-1.18,2.29-.63,3.71,1.36,5.67C417.69,249.51,418.58,247.91,416.78,246.1Zm-14,84.42c.95.07,1-.68,1.07-1.3s0-1.42-.74-1.6c-.95-.23-1,.64-1.06,1.26A1.41,1.41,0,0,0,402.82,330.52Zm-4.35-46.76c.62-2.14.88-3.47-.05-4.9C397.78,280.26,397.92,281.51,398.47,283.76Zm8.8,8.72c-.28-.14-.54-.37-.78-.37s-.49.26-.73.4c.25.13.49.37.74.37S407,292.63,407.27,292.48Z" transform="translate(-329.52 -117.33)"/><path class="cls-1" d="M503,352c1.92,3.77,6.16,8.24,1.64,11.65-4.74,3.58-5,7.83-4.75,12.78-2.43-.43-1.83-1.88-1.84-2.86-.07-6.15-.18-12.3,0-18.44.1-3.78-3.49-6.74-2-10.76,1-2.69,3.11-5.16,1.71-8.26.44-.63-.77-.44-.51.05s-.36,1.13-.86,1.72a90.17,90.17,0,0,0-1.94-18.14c4.6,1.6,3,5.09,3.47,7.85,4.06-3.71,2-7.82,0-10.14-2.93-3.44-1.43-6.46-1.12-10,1.28,2.66,1.41,6.44,6,4.82,1-.35,1.95,1.41,1.77,2.54-.34,2.11-2.69.47-3.68,1.68,3.29,3.55,6.18.29,8-1.33,3.68-3.19,6.66-3.56,10.1-.17h0c-.9,3-2.74,4.82-6,5-.12-.43-.25-.86-.38-1.29l-.37.24L513,320c.1,1.31,2.84,2.18,1,3.66-1.05.81-2,.16-2.83-1.49-.9-1.84-2.21.71-3.41,1-6.5,1.74-7.7,3.62-7.7,10.18,0,6.08-.29,12.17,1.21,18.16.4,1.58,1.14.47,1.77.43Z" transform="translate(-329.52 -117.33)"/><path class="cls-1" d="M436,378c.52-1.11-1-3.64,1.46-3.16,1.36.27,4.29-.58,4.27,2.7,0,2.54.32,5.09.51,7.63,1.74-.09,1.37-1.59,2-2.12,1.49-1.21,3.29-3,3.89.82.25,1.6,1.44,2.9,2.09,4.39s2.35,3.72,4.62,1.94c1.21-.95,2.26-1.59,3.43-.66s1,2.52.41,3.69c-.8,1.66-1.85,3.09,1.3,2.77h0c.32,2.7,2.43,1.81,4,2h0c2.43,5-3.35,3.63-4.69,5.76-.14.22-4.32,2.38-4.38-2.5,0-3.5-4.44-4.23-8.93-1.66,2-5.69-1.33-6.34-5.46-8.14-3.35-1.47-5.59-2.35-8.78-.63-1,.52-2.95.18-2.88-1,.12-1.83,1.39-5.19,1.86-5.13,4.6.53,3-2.81,3.29-4.85a2,2,0,0,1,2-1.85v7.4C435.84,382.94,440.61,380.25,436,378Zm13,14,.46.22L449,392c0-4.5-2.6-1.32-5.09-2C446.05,391.73,447.44,392.12,449,392Zm10.07,9.89c.38-.57.78-.9.8-1.25s-.41-.61-.64-.91c-.3.32-.75.6-.84,1S458.72,401.36,459.05,401.91Zm-6.75-8.29c0-.11,0-.26-.08-.31a.87.87,0,0,0-.37-.08l.1.53Z" transform="translate(-329.52 -117.33)"/><path class="cls-1" d="M508,280c3.09-5,6.89-9.67,7.33-15.92,0-.39,1-1.05,1.51-1,3.79.24,5.88-3.26,9.16-4.06l.07.06c2.46,1.46,2.08-.78,1.9-1.73-.88-4.72,4-6.62,5-10.4a1.49,1.49,0,0,1,2.52-.28c.73.88,1.27,2.33-.39,2.77a3.53,3.53,0,0,0-2.76,3.69c.73,5.05-2.57,7.75-5.55,10.66a6.36,6.36,0,0,0-2.1,4.38c-.06,2.89-.92,4.47-4.08,4.47-3.67,0-3.52,3.75-4.39,5.71-1.92,4.31-4.67,6.08-9.14,5.74l0,0c-.39-1.51,4-1.76,1-3.94Z" transform="translate(-329.52 -117.33)"/><path class="cls-1" d="M490,284c1.23,1.55,2.82,2.94,3.61,4.68a4.35,4.35,0,0,1-2.09,6.17c1.84,1.73,3.54,3.54.48,5.6-1.3.88-.46,4.54-3.39,3-2.06-1.11-1.43-3.28-.08-5.5-5.73,3.27-4.67-4.62-8.42-4.2,1.65-2.84,0-7.59,5.36-8.43,1.36-.21,2.85-1.33,4.53-1.28Z" transform="translate(-329.52 -117.33)"/><path class="cls-1" d="M499.06,311.61c0-6.13-.13-10.92.07-15.69.07-1.63.23-3.93,3.08-3.31,2.14.46,3.31,1.39,2.17,3.82-.46,1-.92,2.59.5,3,2.17.65,2.86-1.8,4.52-2.88,1.12,1.61-1,3.81,1.18,5.29.91.63.77,2.22-1.24,2.8a5.4,5.4,0,0,0-3,3.12c-1.13,3.37-2,5.53-4.39.75Zm3.31-14.08-.73-.07c.12.1.22.25.34.26S502.24,297.6,502.37,297.53Z" transform="translate(-329.52 -117.33)"/><path class="cls-1" d="M460,396a52.85,52.85,0,0,1,.66-5.82c.31-3.85,3-3,4.92-2.69,2.46.35,3.38,3,2,4.46-1.76,1.85,1.53,6.52-3.57,6.05h0a5.47,5.47,0,0,0-4-2Z" transform="translate(-329.52 -117.33)"/><path class="cls-1" d="M428,232c3.48-2,7.57-3,10.39-6.32.86-1,1.42.61,1.57,1.6.37,2.39-1.69,3-3,4.11-1,.8-2.92.59-2.85,2.38.29,7.57-4.15,2.69-6.21,2.06s1.16-2.44.11-3.81Zm3.28,2.37-.36-.13-.05.53a1.06,1.06,0,0,0,.37-.09C431.3,234.62,431.28,234.47,431.29,234.36Z" transform="translate(-329.52 -117.33)"/><path class="cls-1" d="M548,233c2.88.59,2.16,4.05,4.35,5.45,1,.62-.56,1.67-1.55,1.27a31,31,0,0,1-6.18-3c-2.51-1.74-2.58-4-.25-6.09.71-.64,1.73-.93,2.47-1.54s1.23-2.46,2.59-1.36c1.18.94,0,2-.59,3A13.38,13.38,0,0,0,548,233l-1,1c-.25.36-.5.71-.74,1.07l.38.25c.12-.43.25-.87.38-1.3Z" transform="translate(-329.52 -117.33)"/><path class="cls-1" d="M480,407c-.68,3-2.28,4.17-3.71.79-1-2.42-4.79-2.15-4.42-5.76,4.37-.06,8.14,2,12.05,3.46,1,.39,2.51,1.08,1.78,2.44-.92,1.69-1.84-.09-2.79-.4A24.13,24.13,0,0,0,480,407l-.46-.21Z" transform="translate(-329.52 -117.33)"/><path class="cls-1" d="M474,332c-.12-1.82,1.7-5.23-2.88-3.35a2,2,0,0,1-2.39-1.32,3,3,0,0,1,.6-2.32c1-1.26,1.69.63,2.34.51,5.77-1,5.4,4.7,7.93,7.19a1.1,1.1,0,0,1-.24,1.72,1.19,1.19,0,0,1-1.69-.48A3.5,3.5,0,0,0,474,332Z" transform="translate(-329.52 -117.33)"/><path class="cls-1" d="M469,400c-.79-1.78-1.73-3.56,0-5.89,2.06,3.6,5.12,4.73,9,4.5.9-.06,3.23.2,2.68,2.08s-2.1,1.17-3.56.46c-2.53-1.25-5.34-1.21-8.11-1.15Z" transform="translate(-329.52 -117.33)"/><path class="cls-1" d="M520,311a27.39,27.39,0,0,0,0-4.44c-.33-2,.56-3.23,2.22-3.63,1.82-.43,3,1,3.83,2.39,1.26,2.05-.83,2.37-1.91,3.19-1.28,1-2.2,2.53-4.1,2.49Z" transform="translate(-329.52 -117.33)"/><path class="cls-1" d="M484,379a16.66,16.66,0,0,1,.42-3.41,2.41,2.41,0,0,1,2.83-1.49c1.85.2,1.32,1.39,1.06,2.56s1.16,2.44.24,3.77c-1.91.65-2.77-1.83-4.53-1.41Z" transform="translate(-329.52 -117.33)"/><path class="cls-1" d="M387.26,306c.83,0,1.66,0,2.49,0,1.05.05,2.18.28,1.95,1.62-.26,1.56-1.42.7-2.33.64a28.36,28.36,0,0,0-4.42,0c-1,.08-2.18,2.58-2.75-.18-.38-1.77,1.09-2.14,2.57-2.13Z" transform="translate(-329.52 -117.33)"/><path class="cls-1" d="M455.29,287.66a2.57,2.57,0,0,1-1.63-3c.29-1.9,2.18-2.23,3.73-2.51.89-.15,1.46.53,1.15,1.58C458,285.62,456.31,286.39,455.29,287.66Z" transform="translate(-329.52 -117.33)"/><path class="cls-1" d="M486,382c-3.82.05-5.81-2.27-7.54-5.51,2.65-.26,3.76,1.8,5.53,2.5l0,0,2,3Z" transform="translate(-329.52 -117.33)"/><path class="cls-1" d="M573.71,359.81c-.38,1.6-1.25,2.19-2.54,2a2.12,2.12,0,0,1-2-2.34c.08-1.26,1.13-1.44,2.15-1.39A2.45,2.45,0,0,1,573.71,359.81Z" transform="translate(-329.52 -117.33)"/><path class="cls-1" d="M398.16,264.59c.7,2.65-.81,5-.86,7.55C396.24,269.5,395.6,266.91,398.16,264.59Z" transform="translate(-329.52 -117.33)"/><path class="cls-1" d="M578.05,394c-1.09-.05-2.06-.36-1.81-1.7s1.46-1.76,2.59-1.88a1.52,1.52,0,0,1,1.78,1.8C580.44,393.56,579.3,393.91,578.05,394Z" transform="translate(-329.52 -117.33)"/><path class="cls-1" d="M492.86,383.53c-3.54-1.55-2.74-4.13-2.53-6.52C491.24,379,492.93,380.78,492.86,383.53Z" transform="translate(-329.52 -117.33)"/><path class="cls-1" d="M475,375c-.23,1.84-1.35,2.71-3.08,2.3s-2.29-1.73-1.55-3.73c1.41,1,2.72,2.42,4.61,1.41Z" transform="translate(-329.52 -117.33)"/><path class="cls-1" d="M519,315l1-3h0c1.09.21,2.91-.43,2.51,1.7s-1.77,2.4-3.51,1.3Z" transform="translate(-329.52 -117.33)"/><path class="cls-1" d="M469,400c.78,1.47,1.29,2.81-1.15,3.13-.82.1-1.67.46-1.77-.84-.17-2.22,1.35-2.28,2.92-2.29Z" transform="translate(-329.52 -117.33)"/><path class="cls-1" d="M489.52,367.48H484C486,365.31,487.72,366.09,489.52,367.48Z" transform="translate(-329.52 -117.33)"/><path class="cls-1" d="M393.67,183.79c-1.84-1.59-1.95-3-1.87-4.89C394.81,179.84,393.83,181.59,393.67,183.79Z" transform="translate(-329.52 -117.33)"/><path class="cls-1" d="M572.85,398.48c.94,0,1,.69,1,1.32,0,.45-.12,1.21-.38,1.3-.75.27-1.15-.38-1.32-1A1.26,1.26,0,0,1,572.85,398.48Z" transform="translate(-329.52 -117.33)"/><path class="cls-1" d="M572,392c.93.23,2.6-.49,2.43,1.23-.11,1-1.53.69-2.43.77h0v-2Z" transform="translate(-329.52 -117.33)"/><path class="cls-1" d="M438,258c.14-.89-.31-2,.87-2.47.19-.07.86.45.91.76.21,1.33-.77,1.56-1.78,1.71Z" transform="translate(-329.52 -117.33)"/><path class="cls-1" d="M457,340c.5-.8.89-1.79,2.12-1.55a.8.8,0,0,1,.37.7c-.49,1.2-1.61.7-2.49.85Z" transform="translate(-329.52 -117.33)"/><path class="cls-1" d="M452,280c.72.13,1.57.11,1.51,1.2,0,.11-.2.3-.31.31-1.09.06-1.06-.8-1.2-1.51Z" transform="translate(-329.52 -117.33)"/><path class="cls-1" d="M586.73,170.39c.28.12.71.18.79.38a.83.83,0,0,1-.34.77.85.85,0,0,1-.77-.34C586.33,171,586.61,170.66,586.73,170.39Z" transform="translate(-329.52 -117.33)"/><path class="cls-1" d="M439.46,252.54l-1.06.69c-.1-.3-.37-.68-.27-.89a4.34,4.34,0,0,1,.89-1Z" transform="translate(-329.52 -117.33)"/><path class="cls-1" d="M520,311v1h0c-.85-.29-1.79.93-2.63-.14.6-1.22,1.72-.71,2.63-.86Z" transform="translate(-329.52 -117.33)"/><path class="cls-1" d="M505,283a1.85,1.85,0,0,1,2-2l0,.06-2,2Z" transform="translate(-329.52 -117.33)"/><path class="cls-1" d="M438,258l-.36,1.3c-.93-.73,0-.94.36-1.3Z" transform="translate(-329.52 -117.33)"/><path class="cls-1" d="M521,200.75l-.35-.28c.13-.07.27-.21.4-.2s.23.17.35.27Z" transform="translate(-329.52 -117.33)"/><path class="cls-1" d="M526,259l.42-1.29a3.56,3.56,0,0,1,.36.26c-.22.37-.47.73-.71,1.09Z" transform="translate(-329.52 -117.33)"/><path class="cls-1" d="M390,162l.43-1.28a2.79,2.79,0,0,1,.35.26c-.22.37-.47.73-.71,1.1Z" transform="translate(-329.52 -117.33)"/><path class="cls-1" d="M474,332l-.22.41L474,332Z" transform="translate(-329.52 -117.33)"/><path class="cls-1" d="M428,232l-.41-.24.43.22Z" transform="translate(-329.52 -117.33)"/><path class="cls-1" d="M457,247l-.23.42L457,247Z" transform="translate(-329.52 -117.33)"/><path class="cls-1" d="M503,352l.25-.4c-.08.14-.15.29-.22.43Z" transform="translate(-329.52 -117.33)"/><path class="cls-1" d="M634,356l.41.23L634,356Z" transform="translate(-329.52 -117.33)"/><path class="cls-1" d="M464,359l-.25.41L464,359Z" transform="translate(-329.52 -117.33)"/><path class="cls-1" d="M532,360l.41.23L532,360Z" transform="translate(-329.52 -117.33)"/><path class="cls-1" d="M507,281l1-1,.07.08-1,1Z" transform="translate(-329.52 -117.33)"/><path class="cls-1" d="M507,284l-1,1,0,0,1-1Z" transform="translate(-329.52 -117.33)"/><path class="cls-1" d="M541,285l-.4-.23.42.21Z" transform="translate(-329.52 -117.33)"/><path class="cls-1" d="M506,285c-.36.7-.7.66-1,0h0l1,0Z" transform="translate(-329.52 -117.33)"/><path class="cls-1" d="M486,382l.41.23L486,382Z" transform="translate(-329.52 -117.33)"/><path class="cls-1" d="M390,162.05l-.27.39.2-.47Z" transform="translate(-329.52 -117.33)"/><path class="cls-1" d="M377,306l.41.26L377,306Z" transform="translate(-329.52 -117.33)"/><path class="cls-1" d="M448,214c-3.33-3.51-3.21-11.79.37-14,.79-.5,2.19-.05,3.3,0,2.83.13,5.51-.07,7.26-4.38.24,5.73,3.54,4.24,6.07,4.37h0a2.62,2.62,0,0,0,.32,3.46c1.37,1.64,3.25,3.76.49,6.08a1.71,1.71,0,0,0,0,2.63c1.45,1.42,2.76-.39,4.15-.17-.36,2,.89,4-.68,6.06-1,1.27,1,2.25,1.89,3,1.49,1.27,1.87-.56,2.51-1.29.93-1.06,2.45-1.84,2.07-3.66-3.6,1-3.27-3.58-5.79-4.13,3.19-3.76,6.53-4.31,10.41-1.69a2.06,2.06,0,0,1,.82,1.09c.66,2.54,3.45,4.47,5.47,3.37s3.92-.65,4.13.86c.25,1.88,4.68,2.22,1.64,5.29-1.22,1.23-1.06,4,.24,5.6a6.59,6.59,0,0,1,1.26,5.12c-.09,1.19.8,3-.8,3.48a2.44,2.44,0,0,1-3.18-1.64c-.42-1.32-2-1.47-2.05-.51-.21,2.55-2.06,4-3.14,5.9-1.26,2.27.81,2.34,1.89,2,2.42-.73,4.08.74,5.92,1.59a4.3,4.3,0,0,1,2.16,3.73c.15,2-1.58,1.7-2.83,1.84-.92.1-1.65.44-1.67,1.44a1.27,1.27,0,0,0,1.17,1.37c3,.27,2.63,2.5,2.55,4.45-.2,4.63,3.39,8.72,1.95,13.46-.53,1.73.41,4.37-1.75,5.05s-3.94-1.17-4.86-2.77c-1.4-2.45-2.17-2.11-3.2,0-.34.71-.45,1.85-1.53.78-.41-.41-.44-1.2-.65-1.82l.1-.1c.12-.09.37-.23.35-.26a5.25,5.25,0,0,0-.4-.68h0c0-2.51,2.21-5.55-2.13-7-1.37-.46-.79-2.6-.88-4l0,0c.13-.09.38-.22.36-.26A4.9,4.9,0,0,0,481,257L481,257a6.24,6.24,0,0,0-.5-1.9c-2.77-4.15-3-4.62-2.87-8.23-.3,0-.67,0-.89.13-1.82,1.25-3.74,4.57-5.72,2.46-2.17-2.3-4-5.85-2.21-9.56.56-1.17,1.94-2.37.43-3.44s-2.25.47-3.25,1.39c-1.35,1.24-2.57,3.69-4.82,2.4-1.83-1.06-1.46-3.33-.65-5,1.28-2.63-.6-2.61-2.16-3-3.15-.86-4.89-2.72-4.33-6.19l.42.23L454,226c-.71-1,1.78-4.39-2.67-2.74-3.11,1.16-4.26-2.11-4.17-5A24.83,24.83,0,0,1,448,214l2.24-.42c-.2-.37-.3-1-.59-1.07C448.22,212,448.2,213.1,448,214Zm12.39.86c2.95,3.56,5.28-.05,7.77.46C465.76,213.56,463.35,213.68,460.39,214.86ZM459,213.77c-2.15,1.24-4.39.46-4.75,3-.14,1,.89,1.55,1.64,1.55C458.38,218.29,458.19,216.27,459,213.77Zm-1.36,15.94c-.1,0-.26,0-.3.07a.84.84,0,0,0-.08.37l.52-.1Z" transform="translate(-329.52 -117.33)"/><path class="cls-1" d="M580,269c2.6,1.91,3.16,6.6,7,6.41,3.16-.16,4.16.92,4.19,4.38,1.61-2.79-.12-5.33,2.75-8.37-.83,5.88.82,9.95-1.7,15.22-2.66,5.56-5,6.07-10.07,5.14-2.33-.43-2.1,2.41-2.12,4.22l0,0c-1-.07-1.6-.37-1.3-1.51a3.15,3.15,0,0,0-.94-2.6c-4.4,1.9-5-3.61-7.17-3.94-5.84-.87-3-4.33-3-7.64-2.23,2.85-3.62.31-4.57-.68-1.92-2,2.42-2.76,1.48-4.89,1.69.74,4-.51,5.24,1.17,2.61,3.66,2.48,2.42,2.9-1,.19-1.49,1.68-4.5,5-3.28,2.28.82,2.29-1.11,2.34-2.65Zm12.91,13.68c-.12-.29-.18-.81-.47-1.05s-.7.14-1.08.24a3.66,3.66,0,0,0,.46,1.2C592.16,283.43,592.61,283.35,592.92,282.67Z" transform="translate(-329.52 -117.33)"/><path class="cls-1" d="M444,199c-.08-1.25.34-2.6-.7-3.74-3.5,4.64-6,5-8.14,1.47-.51-.85-1.25-1.61-.24-2.55,4.46-4.08-.2-2.75-1.89-3.18l-.44-.22.41.25c-.25.89-.68,2.51-1.63,1.09-1.11-1.67-3.76-3.07-3-5.22a7.2,7.2,0,0,1,5.69-4.86c2.54-.38,5.25-.42,6.86-3l.16-.14c.45-.22,1.06-.32,1.31-.67,2.4-3.34,4.69-3.94,7,.06.3.51.94.82,1.72,1.48,1.5-2.68.93-4.82-.94-6.93,3.78.27,3.43.27,3.4,3.24,0,2.32-2,5.94,3.18,6.23,2.11.12-1.22,2.25.37,4,2.29,2.56-1.37,1.27-1.43,1.44-1.39,4.11-5.43,3.7-8.37,5.14-2.51,1.22-.22,5.15-3.33,6.09Z" transform="translate(-329.52 -117.33)"/><path class="cls-1" d="M580.06,184.3h12.58c-4.22,3.48-4,6.47.12,10,2.71,2.34.59,5.63,1.38,8.51-1.9.05-.62-2.69-2.42-2.32-1.41.29-1.62,1.48-1.69,2.68a8,8,0,0,1-3.7,6c-2.75,1.84-3.64,4.79-5.24,7.54-3.3-2.37-.37-5.74-1.89-8.48-1.26,1.16-2.69,4-3.78,0-.33-1.22-2.07-.94-2.93-1.63-2.16-1.74-4.11-3.16-.45-6,2.27-1.74,3.41-4.18,7.09-3.88,2.72.23,1.74-2.27.79-3.58-1.2-1.64-2.82-3.23-1.52-5.26,1.16-1.81,3-.48,4.53-.13.93.22,2.17.52,2.51-.75s-.76-1.73-1.77-1.9-2.26-.2-3.4-.29Z" transform="translate(-329.52 -117.33)"/><path class="cls-1" d="M602,276c-1.11-5.74,3.14-7.73,7-10l.42.23L609,266v-3l0,0a32.77,32.77,0,0,0,6-.2c1.91-.41,8.69,1.71,2.58-4.11-1.69-1.62,1.54-3.64.42-5.82-.18-.33,1.35-.59,2.07.56,1.23,2,2.94,3.32,5.55,3.09,2.4-.21,4,.9,4.22,3.38.13,1.4,1.74,2.75.34,4.19s-2.76,0-4-.53a7,7,0,0,0-5.31,0c-1.91.74-3.75,1-1,3.41,3.67,3.28,3,7.4-1.52,8.37-2.77.59-1.91,2.46-2.77,3.88-.82-2-1.06-5.1-3.91-1.62-2.15,2.63-5.8,2-8.59,3.47-1.86,1-2.77-1.69-3.35-2.84-.8-1.56,1-2.07,2.36-2.24l.42.22Z" transform="translate(-329.52 -117.33)"/><path class="cls-1" d="M506,179c2.46.61,5.35.86,3.89,4.79a7.92,7.92,0,0,0,1.48-11.49c-1.6-1.88-1.42-2.63.46-3.71.66-.39,1.51-.93,1.71-1.58.9-2.91.83-2.93,3.46-1h0c4,5,6.43,5.29,8.66,1,.72,2.82.73,5.33-3,4.66s-3.16,2.32-3.1,3.88c.09,2.21,1.43,2.15,3.42,1.09,1-.51,3.6-1.43,4.47.19s-1,2-2.39,2.21l-.43-.22.41.24c.08,1.83.32,3.46-2.57,3.42s-4.63,1.76-5.51,4.6a10.59,10.59,0,0,1-3,4.94c-1.23,1.13-3.39,1.49-3.45,3.79-1-3.49-4.66-3-6.44-5,3.74-1.2,5.19-4.91,3.06-8.58A5.93,5.93,0,0,1,506,179Z" transform="translate(-329.52 -117.33)"/><path class="cls-1" d="M608.56,303.71c-1.82-1-6.28.71-4-4.16.54-1.16-.3-2.38-1.16-3.09-3.15-2.58,0-4.39.73-6.41.84-2.28,2.36-2.31,4.37-1.12s2.39-1.16,3.44-1.93c2.41-1.75,4.91-2.59,7.07-.18,2.45,2.72-.5,4.17-2.11,5.52-1.46,1.23-2.26,3.28-4.88,3.32-1.79,0-2.43,1.66-.56,3.07s.5,2.72,0,3.95A2.16,2.16,0,0,1,608.56,303.71Z" transform="translate(-329.52 -117.33)"/><path class="cls-1" d="M473,158c3.94-.77,5.45,2.8,7.46,4.81,1,.95.38,3.83-1.76,5.73-3,2.68-3.46,7-4.43,11-.11-3.32-1.75-5.42-3.67-8-1.44-1.89-2.54-4.66-4.31-6.95s1.79-5.71,6.67-6.6c.15.72.29,1.44.44,2.16.13-.08.34-.14.37-.25A1.55,1.55,0,0,0,473,158Z" transform="translate(-329.52 -117.33)"/><path class="cls-1" d="M495.05,193.11c-.6,2.3-1.49,4.3-.71,6.52.93,2.64-.3,4.43-2.86,4.51a3.8,3.8,0,0,1-3.74-4.16c.18-2.38-.1-3.29-2.46-4.37s-.86-4.52-1.91-6.69c1.82-.54,2.67-3.16,5-2.52C491.91,187.38,494.54,189.34,495.05,193.11Z" transform="translate(-329.52 -117.33)"/><path class="cls-1" d="M617,320c-1-.11-1.53-3.42-3-.29-.2.44-2.93,1.2-2.71-.05.35-2-3.33-2.13-1.38-4.71a1.86,1.86,0,0,1,2-.9c2.44.05,4.26-.21,4.08-3.43s-2.4-2.54-4.29-2.64a6.47,6.47,0,0,1-2.47-.38c4.52-.77,9-2,14.06-.28-2.09,1.39-4.74-.41-6,1.7-1.06,1.81-.3,4.92.25,5.59,2.51,3.07,5.58.28,8.32-.54.71,1.27-.5,1.68-.57,2.41-.52,5.31-1.94,8.18-6.76,2.67-.09-.1-1,.54-1.58.83Z" transform="translate(-329.52 -117.33)"/><path class="cls-1" d="M480,172c2.29,2.39,5.87,2.23,8.38,4.21.27.21,1.12.23,1.22.06,1.69-2.89,3.49-1.28,4.63.2,1.61,2.09.94,4.83.42,7.12-.13.58-3.18.54-4.81-.43-2.92-1.73-5-5-9.11-4.73a4.39,4.39,0,0,1-3.3-3c-.73-2.73,1.94-2.16,2.55-3.44Z" transform="translate(-329.52 -117.33)"/><path class="cls-1" d="M602,328c-1.28,0-2.48-.85-3.86-.1-2,1.07-2.82-.65-2-1.68,2.23-2.81-.14-6.57,2.36-9.19,1.85.4,2.15,2.95,4.26,3.12.67,0,1.23,1.07.48,1.43-3.48,1.63-.06,4.43-1.22,6.4Z" transform="translate(-329.52 -117.33)"/><path class="cls-1" d="M595.84,307.5c-.07-2.13.14-3.83-1.21-5.68-1.7-2.33.65-4.07,2.12-5.34,1.89-1.63,3.13.85,4.67,1.49,1,.42.52.64-.1,1.17C598.71,301.36,597.7,304.64,595.84,307.5Z" transform="translate(-329.52 -117.33)"/><path class="cls-1" d="M602,328c3.35-.65,1.44-4.43,4-6.19,0,3.66.07,7,0,10.37-.1,4.09-.4,4.23-5.31,2.6,1-1.18,3.67-.53,3.14-2.76-.34-1.44-1.94-2.33-1.81-4Z" transform="translate(-329.52 -117.33)"/><path class="cls-1" d="M629,337a5.15,5.15,0,0,0,2-.16c2.88-1.58,3.46,1.48,5.07,2.43-1,1.12-1.84,3-2.95,3.17-1.72.23-3.28-1.2-4-3A8.12,8.12,0,0,1,629,337Z" transform="translate(-329.52 -117.33)"/><path class="cls-1" d="M617,320c1,.7,1.92,2.59,1.58,2.78-2.36,1.34-2.14,4.1-3.65,5.77a1.5,1.5,0,0,1-2-1.3c0-.24.36-.54.61-.74,3-2.35-4.9-1.82-1.11-3.92,1.51-.83,4.43.92,4.56-2.57Z" transform="translate(-329.52 -117.33)"/><path class="cls-1" d="M597,263c-.11-.81,0-2.19-.36-2.33-4.38-1.75-.95-5-.6-6.69.49-2.37,3,1.12,5.15.17-3.73.71-3.35,3.21-3.07,5.58.15,1.31,1.54,2.95-1.12,3.27Z" transform="translate(-329.52 -117.33)"/><path class="cls-1" d="M517,166c0-5.27,2.43-5.16,6-2.59-1.32,2.32-3.52,2.76-6,2.59Z" transform="translate(-329.52 -117.33)"/><path class="cls-1" d="M570,166c-.66,0-1.31,0-2-.05-2.17-.14-2.09-1.7-1.95-3.21.12-1.3.87-1.47,2.07-1.17,1.67.42,2.67,1,1.91,3A4.69,4.69,0,0,0,570,166Z" transform="translate(-329.52 -117.33)"/><path class="cls-1" d="M461.42,193.13c-1.46-2.51-1.71-5.17-1.19-8.6C462.74,187.47,463.8,190,461.42,193.13Z" transform="translate(-329.52 -117.33)"/><path class="cls-1" d="M574,152v-5.88c.85,3,5.63,5,2.42,9-.73-1.07-.23-3.17-2.42-3.09Z" transform="translate(-329.52 -117.33)"/><path class="cls-1" d="M557,147h3.5a12.48,12.48,0,0,0-2.1,2.46c-.75,1.74-2,4.2-3.63,2.83-2.32-1.94,1.67-1.91,2-3.3a18.91,18.91,0,0,0,.24-2Z" transform="translate(-329.52 -117.33)"/><path class="cls-1" d="M569,318c.53-3.47,2.6-5.4,6-6l0,0a15.32,15.32,0,0,1-6,6Z" transform="translate(-329.52 -117.33)"/><path class="cls-1" d="M572.32,209.64c2.85,2.52,2.89,4.17.49,6.2C571.54,213.91,572.06,212.26,572.32,209.64Z" transform="translate(-329.52 -117.33)"/><path class="cls-1" d="M507.57,196.64c-1.31,1-1.83,3-3.74,3-.37,0-1.15-1.23-1-1.4C503.94,196.58,505.78,196.79,507.57,196.64Z" transform="translate(-329.52 -117.33)"/><path class="cls-1" d="M539.41,141.86c1-1.75,2-2.65,3.45-2.76a2.16,2.16,0,0,1,.74,1.64C543,142.88,541.34,141.77,539.41,141.86Z" transform="translate(-329.52 -117.33)"/><path class="cls-1" d="M480.36,152.05c2.68,1.94,4.38,2.94,3,5.59C481.49,156.67,481.63,154.81,480.36,152.05Z" transform="translate(-329.52 -117.33)"/><path class="cls-1" d="M602.75,315.6c.86-2.05-1.89-2.85-1.41-4.64,0-.17,1.16-.35,1.29-.17C603.68,312.21,604.69,313.72,602.75,315.6Z" transform="translate(-329.52 -117.33)"/><path class="cls-1" d="M583,158v5.08c-3-3.46-3-3.46,0-5.11Z" transform="translate(-329.52 -117.33)"/><path class="cls-1" d="M543.9,145.31c-.15,1.3-.95,1.06-1.78.8s-1.93-.27-1.63-1.34a2.53,2.53,0,0,1,2-1.18C543.35,143.55,543.77,144.45,543.9,145.31Z" transform="translate(-329.52 -117.33)"/><path class="cls-1" d="M594.18,337.72c1.72,0,2.82.55,3.37,1.84.1.24-.41,1-.58,1C595.51,340.4,594.12,340.05,594.18,337.72Z" transform="translate(-329.52 -117.33)"/><path class="cls-1" d="M597.88,332.72c-1.64,1.76-2.94,1.35-4.6.57C594.55,331.56,595.91,331.89,597.88,332.72Z" transform="translate(-329.52 -117.33)"/><path class="cls-1" d="M566,374c.18-1.08-.48-2.93,1.85-2.1.66.23,2,.19,1.54,1.25-.63,1.49-2.23.63-3.39.85Z" transform="translate(-329.52 -117.33)"/><path class="cls-1" d="M506,285l-1,0v-2l2-2,1-1c2.92,2.18-1.44,2.43-1,3.94Z" transform="translate(-329.52 -117.33)"/><path class="cls-1" d="M478,154c1.65.16,2.18,1.13,1.78,2.63-.08.32-.75.82-.9.74-1.5-.76-.62-2.22-.9-3.35Z" transform="translate(-329.52 -117.33)"/><path class="cls-1" d="M638.46,340.92c-.5-1.61-.8-3.17.63-5C640,338.11,638.89,339.49,638.46,340.92Z" transform="translate(-329.52 -117.33)"/><path class="cls-1" d="M534,390c1.5-1.07,2.62-3.12,5-2l0,0c-1,2.26-3.06,2-5,2Z" transform="translate(-329.52 -117.33)"/><path class="cls-1" d="M574,152c0,1.24.1,2.53-1.52,3.55-.61-1.91-.73-3.21,1.52-3.55Z" transform="translate(-329.52 -117.33)"/><path class="cls-1" d="M572,392v2c-1.23-.14-2.73.34-3.27-1.43C569.71,391.61,570.92,392.17,572,392Z" transform="translate(-329.52 -117.33)"/><path class="cls-1" d="M606.7,316.81a6.33,6.33,0,0,1-.4-4.77C607.57,313.28,606.88,314.6,606.7,316.81Z" transform="translate(-329.52 -117.33)"/><path class="cls-1" d="M583,158V153.2c1.08,1.65,1.46,3.28,0,4.81Z" transform="translate(-329.52 -117.33)"/><path class="cls-1" d="M574.3,332.31c.83,1.54,1.31,2.43,1.94,3.58C573.86,335.83,573.93,334.52,574.3,332.31Z" transform="translate(-329.52 -117.33)"/><path class="cls-1" d="M444,140.22h3.31C446.16,141.36,445.15,141,444,140.22Z" transform="translate(-329.52 -117.33)"/><path class="cls-1" d="M526,358c-.49.83-.89,1.8-2.12,1.56a.79.79,0,0,1-.38-.7c.48-1.21,1.61-.71,2.5-.86Z" transform="translate(-329.52 -117.33)"/><path class="cls-1" d="M569.46,333.36c.69,1.48.86,2.66-.1,3.06-1.15.48-.63-.6-.54-1.1S569.1,334.44,569.46,333.36Z" transform="translate(-329.52 -117.33)"/><path class="cls-1" d="M589.6,360.53c-.5.47-.78.93-1.14,1s-.71-.29-1.07-.45c.27-.32.49-.79.82-.91S589,360.36,589.6,360.53Z" transform="translate(-329.52 -117.33)"/><path class="cls-1" d="M444,199c-.14.93-.14,2-1.34,2.23-.13,0-.5-.37-.52-.59-.11-1.3.82-1.55,1.82-1.68Z" transform="translate(-329.52 -117.33)"/><path class="cls-1" d="M440.92,179.06l-2.15-1.71c.42-.24.85-.7,1.24-.67,1.53.11.79,1.45,1.07,2.24Z" transform="translate(-329.52 -117.33)"/><path class="cls-1" d="M624.5,251.43a3.18,3.18,0,0,1-1,.4c-.45,0-1-.2-.64-.81a1.62,1.62,0,0,1,1.09-.64C624.39,250.33,624.77,250.66,624.5,251.43Z" transform="translate(-329.52 -117.33)"/><path class="cls-1" d="M567,341c-.82-.51-1.78-.94-1.54-2.17a.85.85,0,0,1,.7-.4c1.25.44.75,1.6.94,2.48Z" transform="translate(-329.52 -117.33)"/><path class="cls-1" d="M575.92,295.81l-.93.77a3.59,3.59,0,0,1-.53-1.1c0-.21.34-.59.61-.68C575.77,294.57,575.86,295.1,575.92,295.81Z" transform="translate(-329.52 -117.33)"/><path class="cls-1" d="M467,198a2.47,2.47,0,0,1,2.4-1.22c.08,0,.23.32.19.4-.57,1.13-1.67.69-2.57.84Z" transform="translate(-329.52 -117.33)"/><path class="cls-1" d="M613,329.89l1.05.71a7.05,7.05,0,0,1-1.33.35c-.27,0-.56-.24-.84-.37Z" transform="translate(-329.52 -117.33)"/><path class="cls-1" d="M478,154c-.72-.14-1.6-.09-1.5-1.22a.47.47,0,0,1,.31-.32c1.13-.08,1.09.79,1.21,1.52Z" transform="translate(-329.52 -117.33)"/><path class="cls-1" d="M519.62,193.26l-.84.34c-.11-.28-.37-.64-.28-.83s.52-.24.8-.35C519.41,192.7,519.52,193,519.62,193.26Z" transform="translate(-329.52 -117.33)"/><path class="cls-1" d="M658,271a2.16,2.16,0,0,1-.57-3.09c1.05.92.37,2.09.59,3.08Z" transform="translate(-329.52 -117.33)"/><path class="cls-1" d="M525.25,187.62c-.28-.12-.7-.17-.78-.37a.59.59,0,1,1,1.09-.43C525.64,187,525.37,187.35,525.25,187.62Z" transform="translate(-329.52 -117.33)"/><path class="cls-1" d="M544,353c-.55.07-1.2.83-1.63.08a1,1,0,0,1,.8-1.39c.92-.15.76.71.87,1.27Z" transform="translate(-329.52 -117.33)"/><path class="cls-1" d="M544.35,341l.62-.52.58.91c-.26.1-.55.33-.77.27S544.49,341.19,544.35,341Z" transform="translate(-329.52 -117.33)"/><path class="cls-1" d="M547,350c-.73-.13-1.6-.08-1.53-1.2a.47.47,0,0,1,.32-.32c1.11-.09,1.09.77,1.23,1.5Z" transform="translate(-329.52 -117.33)"/><path class="cls-1" d="M528,356a1.84,1.84,0,0,1-2,2h0a1.85,1.85,0,0,1,2-2Z" transform="translate(-329.52 -117.33)"/><path class="cls-1" d="M554,224c.09-.64.11-1.37,1-1.49.17,0,.58.39.55.56-.11.85-.83.87-1.48.95Z" transform="translate(-329.52 -117.33)"/><path class="cls-1" d="M566,374c-.11.74-.11,1.57-1.2,1.53-.11,0-.31-.2-.31-.31-.07-1.1.79-1.09,1.51-1.22Z" transform="translate(-329.52 -117.33)"/><path class="cls-1" d="M557,147c-.54-.1-1.29.11-1.31-.78a.83.83,0,0,1,.56-.56c.88,0,.67.78.77,1.32Z" transform="translate(-329.52 -117.33)"/><path class="cls-1" d="M621.74,325.08c-.26.07-.59.26-.73.17s-.28-.48-.41-.73c.26-.06.58-.26.76-.17S621.62,324.82,621.74,325.08Z" transform="translate(-329.52 -117.33)"/><path class="cls-1" d="M539,388a1.58,1.58,0,0,1,1.95-.77c.12,0,.17.24.26.37L539,388Z" transform="translate(-329.52 -117.33)"/><path class="cls-1" d="M528,356a1.52,1.52,0,0,1,1.91-.77c.11,0,.17.24.25.37L528,356Z" transform="translate(-329.52 -117.33)"/><path class="cls-1" d="M597,263l-.41,2.18c-.13-.08-.34-.14-.37-.25A1.52,1.52,0,0,1,597,263Z" transform="translate(-329.52 -117.33)"/><path class="cls-1" d="M568,331.5l-.44.76c-.14-.25-.4-.49-.41-.74s.25-.51.38-.76Z" transform="translate(-329.52 -117.33)"/><path class="cls-1" d="M581,167l.39-1.29.37.25L581,167Z" transform="translate(-329.52 -117.33)"/><path class="cls-1" d="M563.33,323.54l-.3.21-.25-.46c.13,0,.27-.09.38-.05S563.28,323.44,563.33,323.54Z" transform="translate(-329.52 -117.33)"/><path class="cls-1" d="M572.36,371.53c-.13.07-.27.2-.39.19s-.24-.16-.35-.26Z" transform="translate(-329.52 -117.33)"/><path class="cls-1" d="M592.62,205.69l.14.35-.53.1a.84.84,0,0,1,.08-.37C592.36,205.7,592.51,205.72,592.62,205.69Z" transform="translate(-329.52 -117.33)"/><path class="cls-1" d="M408,211l.44-1.28a3,3,0,0,1,.35.26c-.21.38-.46.74-.69,1.1Z" transform="translate(-329.52 -117.33)"/><path class="cls-1" d="M514,230l1.08-.75.25.38-1.3.4Z" transform="translate(-329.52 -117.33)"/><path class="cls-1" d="M537.62,384.69l.13.35-.52.1a.84.84,0,0,1,.08-.37C537.36,384.7,537.51,384.71,537.62,384.69Z" transform="translate(-329.52 -117.33)"/><path class="cls-1" d="M591.28,259.37c0,.1,0,.25,0,.3a1,1,0,0,1-.36.08l0-.52Z" transform="translate(-329.52 -117.33)"/><path class="cls-1" d="M569,318l-1.07.75-.24-.38L569,318Z" transform="translate(-329.52 -117.33)"/><path class="cls-1" d="M601.32,257.54l-.3.21-.25-.46c.13,0,.27-.09.37-.05S601.26,257.44,601.32,257.54Z" transform="translate(-329.52 -117.33)"/><path class="cls-1" d="M581,167l-.39,1.27c-.9-.71,0-.93.36-1.3Z" transform="translate(-329.52 -117.33)"/><path class="cls-1" d="M527.33,184.54l-.31.21-.24-.46c.13,0,.27-.08.37,0S527.27,184.44,527.33,184.54Z" transform="translate(-329.52 -117.33)"/><path class="cls-1" d="M646.37,249.72c.1,0,.25,0,.29,0s.06.23.09.35l-.51-.05Z" transform="translate(-329.52 -117.33)"/><path class="cls-1" d="M576,311l-1,1,0,0c.33-.34.66-.67,1-1Z" transform="translate(-329.52 -117.33)"/><path class="cls-1" d="M580,178l-.41-.23.41.23Z" transform="translate(-329.52 -117.33)"/><path class="cls-1" d="M506,179l-.41-.23.41.23Z" transform="translate(-329.52 -117.33)"/><path class="cls-1" d="M600,315l-.4-.42.42.4Z" transform="translate(-329.52 -117.33)"/><path class="cls-1" d="M600,315l.43.25L600,315Z" transform="translate(-329.52 -117.33)"/><path class="cls-1" d="M467,198l-1,1,0,0c.33-.33.67-.66,1-1Z" transform="translate(-329.52 -117.33)"/><path class="cls-1" d="M466,199l-1,1h0l1-1Z" transform="translate(-329.52 -117.33)"/><path class="cls-1" d="M554,224l-.24.43L554,224Z" transform="translate(-329.52 -117.33)"/><path class="cls-1" d="M514,230l-.24.41L514,230Z" transform="translate(-329.52 -117.33)"/><path class="cls-1" d="M629,337l-.41-.24.42.22Z" transform="translate(-329.52 -117.33)"/><path class="cls-1" d="M481,258c-.7-.33-.71-.68,0-1l.06.07c0,.31,0,.63,0,.95Z" transform="translate(-329.52 -117.33)"/><path class="cls-1" d="M607,339l-.43-.23.43.23Z" transform="translate(-329.52 -117.33)"/><path class="cls-1" d="M607,339l.43.24L607,339Z" transform="translate(-329.52 -117.33)"/><path class="cls-1" d="M558,343l-.45.39L558,343Z" transform="translate(-329.52 -117.33)"/><path class="cls-1" d="M609,263l-.42-.24.44.22Z" transform="translate(-329.52 -117.33)"/><path class="cls-1" d="M538,347l.24-.42L538,347Z" transform="translate(-329.52 -117.33)"/><path class="cls-1" d="M538,347l-.42.4.4-.42Z" transform="translate(-329.52 -117.33)"/><path class="cls-1" d="M547,350l1,1,0,0-1-1Z" transform="translate(-329.52 -117.33)"/><path class="cls-1" d="M553,351l.46-.38L553,351Z" transform="translate(-329.52 -117.33)"/><path class="cls-1" d="M483,269.05l-.39-.47.48.37Z" transform="translate(-329.52 -117.33)"/><path class="cls-1" d="M580,269l-1-1h0l1,1Z" transform="translate(-329.52 -117.33)"/><path class="cls-1" d="M483.05,269l.95.05h0c0,.32,0,.63.05.94l-.1.1-1-1Z" transform="translate(-329.52 -117.33)"/><path class="cls-1" d="M490,277c-.34-.33-.67-.67-1-1l0,0,1,1Z" transform="translate(-329.52 -117.33)"/><path class="cls-1" d="M490,277l.42.25L490,277Z" transform="translate(-329.52 -117.33)"/><path class="cls-1" d="M580,296l.42.24L580,296Z" transform="translate(-329.52 -117.33)"/><path class="cls-1" d="M532,304l.43-.4L532,304Z" transform="translate(-329.52 -117.33)"/><path class="cls-1" d="M570,166l.42.23L570,166Z" transform="translate(-329.52 -117.33)"/><path class="cls-1" d="M480,172l-.41-.24.43.22Z" transform="translate(-329.52 -117.33)"/><path class="cls-1" d="M401,242.48c2.63-.92,4.48-2.89,7.48-1.51,4,1.83,4.11,5.65,5.07,9,.46,1.57-1.59,1.66-2.66,2.32s-1.36.73-2.61-.13C404.8,249.72,404.68,245.08,401,242.48Z" transform="translate(-329.52 -117.33)"/><path class="cls-1" d="M374.36,329.87c1.5-1.33,2.63,5.19,3.76-.39.28-1.36,1.14-.31,1.84-.13,3.72,1,1.28,4.9,3.28,6.66-1.92,1.48-3.69,3.3-5.85,4.26-.83.37-3.07-2.48-2.54-2.73,5.25-2.43-.24-4.23-.22-6.25A6.81,6.81,0,0,0,374.36,329.87Z" transform="translate(-329.52 -117.33)"/><path class="cls-1" d="M403,255c3.66-1.34,3.38,3,6,4l-7.27,3.59c2-3.15,3-5.34,1.27-7.57Z" transform="translate(-329.52 -117.33)"/><path class="cls-1" d="M413.18,257.18c1.82-2,3.59-4,7.49-2Z" transform="translate(-329.52 -117.33)"/><path class="cls-1" d="M394.13,325.49c2.89-.36,5.7-2.1,9.38-1.17C400.19,325.64,397.34,326.45,394.13,325.49Z" transform="translate(-329.52 -117.33)"/><path class="cls-1" d="M447.92,341.09c-1.88-.4-3.34-1.21-3.52-3.62,2.63-.16,3.66,1.09,3.7,3.45Z" transform="translate(-329.52 -117.33)"/><path class="cls-1" d="M416.78,246.1c1.8,1.81.91,3.41,1.36,5.67C416.15,249.81,415.6,248.39,416.78,246.1Z" transform="translate(-329.52 -117.33)"/><path class="cls-1" d="M402.82,330.51a1.4,1.4,0,0,1-.73-1.63c.08-.62.11-1.49,1.06-1.26.75.18.83.94.74,1.6S403.77,330.59,402.82,330.51Z" transform="translate(-329.52 -117.33)"/><path class="cls-1" d="M451.06,343.93c1.17.2,2.75-.22,2.74,1.76,0,.27-.24.74-.41.76-1.77.22-1.69-1.53-2.46-2.4Z" transform="translate(-329.52 -117.33)"/><path class="cls-1" d="M475,362c-.18,1.23-.31,2.49-1.73,3.13-.54-1.71-.31-2.91,1.67-3.18Z" transform="translate(-329.52 -117.33)"/><path class="cls-1" d="M398.47,283.76c-.55-2.25-.69-3.5-.05-4.9C399.35,280.29,399.09,281.62,398.47,283.76Z" transform="translate(-329.52 -117.33)"/><path class="cls-1" d="M433.05,326c.89.17,2.05-.3,2.48.95a.85.85,0,0,1-.4.7c-1.22.21-1.65-.76-2.17-1.57Z" transform="translate(-329.52 -117.33)"/><path class="cls-1" d="M433,326a7,7,0,0,1-3-3l0,0a2.9,2.9,0,0,1,3,3Z" transform="translate(-329.52 -117.33)"/><path class="cls-1" d="M478,373c-.64-.11-1.37-.13-1.47-1,0-.17.38-.57.56-.55.85.1.86.83,1,1.47Z" transform="translate(-329.52 -117.33)"/><path class="cls-1" d="M430,258c-.13.72-.1,1.57-1.2,1.51a.48.48,0,0,1-.31-.31c-.06-1.1.79-1.07,1.51-1.2Z" transform="translate(-329.52 -117.33)"/><path class="cls-1" d="M407.27,292.48c-.28.15-.52.4-.77.4s-.49-.24-.74-.37c.24-.14.48-.39.73-.4S407,292.34,407.27,292.48Z" transform="translate(-329.52 -117.33)"/><path class="cls-1" d="M428,321l-.39-.44.44.4Z" transform="translate(-329.52 -117.33)"/><path class="cls-1" d="M428,321l1,1,0,0-1-1Z" transform="translate(-329.52 -117.33)"/><path class="cls-1" d="M429,322l1,1,0,0-1-1Z" transform="translate(-329.52 -117.33)"/><path class="cls-1" d="M437,330l-.4-.44.43.41Z" transform="translate(-329.52 -117.33)"/><path class="cls-1" d="M442,329l-.42.4c0-.09,0-.21.07-.26A2.53,2.53,0,0,1,442,329Z" transform="translate(-329.52 -117.33)"/><path class="cls-1" d="M438,331l-1-1,0,0c.33.33.67.66,1,1Z" transform="translate(-329.52 -117.33)"/><path class="cls-1" d="M438,331l1,1,0,0-1-1Z" transform="translate(-329.52 -117.33)"/><path class="cls-1" d="M439,332l.42.25L439,332Z" transform="translate(-329.52 -117.33)"/><path class="cls-1" d="M403,255l-.41-.26.45.22Z" transform="translate(-329.52 -117.33)"/><path class="cls-1" d="M452,338l-.25.42c.08-.14.15-.29.23-.44Z" transform="translate(-329.52 -117.33)"/><path class="cls-1" d="M448.94,342.07l-1-1,.17-.17,1,1Z" transform="translate(-329.52 -117.33)"/><path class="cls-1" d="M450.93,344.05l-1-1,.13-.14,1,1Z" transform="translate(-329.52 -117.33)"/><path class="cls-1" d="M446,345l.24-.42L446,345Z" transform="translate(-329.52 -117.33)"/><path class="cls-1" d="M478,369l-.24.42c.07-.15.14-.29.22-.44Z" transform="translate(-329.52 -117.33)"/><path class="cls-1" d="M449.07,341.94l1,1-.13.14-1-1Z" transform="translate(-329.52 -117.33)"/><path class="cls-1" d="M360,286l.25-.41L360,286Z" transform="translate(-329.52 -117.33)"/><path class="cls-1" d="M412,297l-.23.42L412,297Z" transform="translate(-329.52 -117.33)"/><path class="cls-1" d="M513,320l-.73-1.07.37-.24c.13.43.26.86.38,1.29Z" transform="translate(-329.52 -117.33)"/><path class="cls-1" d="M436,378c4.61,2.25-.16,4.94,0,7.4V378Z" transform="translate(-329.52 -117.33)"/><path class="cls-1" d="M449,392c-1.54.1-2.93-.29-5.05-2,2.49.68,5-2.5,5.09,2Z" transform="translate(-329.52 -117.33)"/><path class="cls-1" d="M460,396a5.47,5.47,0,0,1,4,2C462.43,397.81,460.32,398.7,460,396Z" transform="translate(-329.52 -117.33)"/><path class="cls-1" d="M459.05,401.91c-.33-.55-.74-.93-.68-1.2s.54-.64.84-1c.23.3.65.62.64.91S459.43,401.34,459.05,401.91Z" transform="translate(-329.52 -117.33)"/><path class="cls-1" d="M452.3,393.62l-.35.14-.1-.53a.87.87,0,0,1,.37.08C452.29,393.36,452.28,393.51,452.3,393.62Z" transform="translate(-329.52 -117.33)"/><path class="cls-1" d="M449,392l.42.26L449,392Z" transform="translate(-329.52 -117.33)"/><path class="cls-1" d="M502.37,297.53c-.13.07-.26.2-.39.19s-.22-.16-.34-.26Z" transform="translate(-329.52 -117.33)"/><path class="cls-1" d="M431.29,234.36c0,.11,0,.26,0,.31a1.06,1.06,0,0,1-.37.09l.05-.53Z" transform="translate(-329.52 -117.33)"/><path class="cls-1" d="M547,234c-.13.43-.26.87-.38,1.3l-.38-.25c.24-.36.49-.71.74-1.07Z" transform="translate(-329.52 -117.33)"/><path class="cls-1" d="M548,233l-1,1,0,0,1-1Z" transform="translate(-329.52 -117.33)"/><path class="cls-1" d="M480,407l-.41-.26.46.21Z" transform="translate(-329.52 -117.33)"/><path class="cls-1" d="M470,212c2.52.55,2.19,5.1,5.79,4.13.38,1.82-1.14,2.6-2.07,3.66-.64.73-1,2.56-2.51,1.29-.9-.77-2.85-1.75-1.89-3,1.57-2.06.32-4.08.68-6.06Z" transform="translate(-329.52 -117.33)"/><path class="cls-1" d="M460.39,214.86c3-1.18,5.37-1.3,7.77.46C465.67,214.81,463.34,218.42,460.39,214.86Z" transform="translate(-329.52 -117.33)"/><path class="cls-1" d="M459,213.77c-.79,2.5-.6,4.52-3.11,4.51-.75,0-1.78-.6-1.64-1.55C454.59,214.23,456.83,215,459,213.77Z" transform="translate(-329.52 -117.33)"/><path class="cls-1" d="M448,214c.2-.9.22-2,1.65-1.49.29.11.39.7.59,1.07L448,214Z" transform="translate(-329.52 -117.33)"/><path class="cls-1" d="M457.62,229.71l.14.34-.52.1a.84.84,0,0,1,.08-.37C457.36,229.72,457.52,229.73,457.62,229.71Z" transform="translate(-329.52 -117.33)"/><path class="cls-1" d="M454,226l.42.23L454,226Z" transform="translate(-329.52 -117.33)"/><path class="cls-1" d="M481,258c0-.32,0-.64,0-.95a4.9,4.9,0,0,1,.34.69S481.14,257.9,481,258Z" transform="translate(-329.52 -117.33)"/><path class="cls-1" d="M484.05,269.94c0-.31,0-.62-.05-.94a5.25,5.25,0,0,1,.4.68S484.17,269.85,484.05,269.94Z" transform="translate(-329.52 -117.33)"/><path class="cls-1" d="M592.92,282.67c-.31.68-.76.76-1.09.39a3.66,3.66,0,0,1-.46-1.2c.38-.1.91-.39,1.08-.24S592.8,282.38,592.92,282.67Z" transform="translate(-329.52 -117.33)"/><path class="cls-1" d="M433,191l-.41-.25.44.22Z" transform="translate(-329.52 -117.33)"/><path class="cls-1" d="M609,266l.42.23L609,266Z" transform="translate(-329.52 -117.33)"/><path class="cls-1" d="M602,276l.41.23L602,276Z" transform="translate(-329.52 -117.33)"/><path class="cls-1" d="M525,179l-.41-.24.43.22Z" transform="translate(-329.52 -117.33)"/><path class="cls-1" d="M473,158a1.55,1.55,0,0,1,.77,1.94c0,.11-.24.17-.37.25-.15-.72-.29-1.44-.44-2.16Z" transform="translate(-329.52 -117.33)"/></svg>