<svg id="Layer_1" data-name="Layer 1" xmlns="http://www.w3.org/2000/svg" viewBox="0 0 454.17 533.03"><defs><style>.cls-1{fill:#90c33e;}</style></defs><title>redbud64</title><path class="cls-1" d="M487.17,428.88c-10.54,1.16-14.07,9.69-16.67,17.68-4.35,13.4-10.53,25.79-17.61,37.81-5.73,9.71-15.17,14.63-25.5,16.95-14.79,3.31-29.86,4.64-44.94.9a51.43,51.43,0,0,1-9.39-3.19c-.75-2.21-1.85-3.58-4.29-1.83l.14-.06-1.49-.51.1.14c-.57-2.63-2.06-2.87-4.14-1.6A201.93,201.93,0,0,1,335,480.36,165.89,165.89,0,0,1,311.36,462a87.9,87.9,0,0,1-19.11-25.37c-8.92-17.46-18-34.9-24.54-53.56A119.18,119.18,0,0,1,261,334c2.82-34.73,12.73-67.51,31.16-97.28,11.95-19.29,23.07-39.18,37.84-56.57,5.68-6.68,11.7-13.06,17.65-19.5,9.22-10,17-21.28,27.56-30a235.18,235.18,0,0,1,28-19.81c13.24-8,26.49-15.82,37.78-26.72,12.21-11.8,18.61-26.58,24.26-42,1.14-3.09.28-8,4.59-8.59s4.51,4.34,5.95,7c4.68,8.61,9.2,17.21,15.26,25.06,8.61,11.15,19.71,19.41,31.06,27,8.16,5.46,17.5,9.43,25.73,14.92,11.24,7.49,23.77,12.55,35.07,19.84,6.12,3.94,12.15,8,17.32,13.22-1.11-.31-2.54-.28-3.3-1-5.37-4.91-10.57-5.34-15.37.6-1.7-1.57.88-4.5-2.81-4.72-6.73-.41-9.77-7.18-15.43-9.67-1.15-.51-1.2-3.35-3.52-1.31-.86.74-1.12-.39-1-1,.89-4.77-2.86-5.89-5.92-7.17-2.28-1-3.88-4.68-5.92-3.48s-1.2,4.83-1.33,7.44c0,.23-.39.44-.64.7-2.51-1.5-5.31-2.55-6.72-5.51a2.34,2.34,0,0,0-3-1.24c-2.31,1.09-3.7.45-4.72-1.81a2.05,2.05,0,0,0-2.62-.86c-1.26.37-1,1.51-.88,2.48.55,3.27,1.1,6.54,1.72,9.79,1,5.21,1.62,5.43,6.53,3.4,4.34-1.79,8.33-5.3,13.56-3.44,12.09,4.28,20,11.59,23.08,24.11.45,1.83.71,3.43-2.52,3.25-2.36-.13-5.58-1.16-7.46,2,1.89,1.16,3.68.17,5.43.12,2.84-.07,2.23,1.9,2.17,3.44-.06,1.77-.62,3-2.78,1.78-3.17-1.78-4.44,1.49-6.23,2.75-2.1,1.48,0,3.05.75,4.64,1.27,2.49,2,4.43-2.6,4.56-3.44.09-5.33-3-8.41-2.66-3.24.41-5.42,0-6.53-3.78-.46-1.56-3.56-3.61-5-3.31-2.09.43-.92,3-.33,4.67s.29,3.25.14,4.91c-.75,8.36-.44,8.67,7.15,11.16,3.76,1.23,7.58,2.5,10.37,5.58l-.06.16a16.21,16.21,0,0,1-2.75,1.92c-2,.88-5-1.91-6.22.65s2.79,3.66,3.14,6.14a5.57,5.57,0,0,0,.57,1.34v0c-1.3.26-1.64-2.27-3.27-1.16-.35,2,1.33,3.32,1.54,5.21l-4.23-.21h0c-.71-2.63-1.43-5.16-4.51-1.75-.63.7-1.5.4-2.33.31-1.39-.15-3.42-1.14-4,.54-.74,2.19,1.8,2.22,3.08,3.07a15.24,15.24,0,0,1,1.78,1.64h0c-4.72,1.91-11.45.85-12.34,8.38-8.1,3.13-2,5.17.51,7.63,1,1,2.3,2.84-.11,3.42-5.73,1.36-6.37,5.17-4.77,10.74a45.41,45.41,0,0,0-5-3c-1.78-.77-3.78-.87-5.12-2.68-2.31-3.09,3.32-2.34,2.18-4.75-5.13-.3-5.15-.29-4.2,4.1a2.33,2.33,0,0,1-.78,2.22c-1.19,1.34-1.32,2.46.12,3.81a1.85,1.85,0,0,1-.2,3c-1.23.77-1.69-.53-2.12-1.35-.75-1.43-2.17-2.31-3.13-1-3.8,5.1-11.05,7-12.67,14.1-2.66-3-2.81-6.36-3.5-9.84-2.63-13.15-2.09-26.44-3-39.66-.31-4.46.45-9.66-1.61-13.15-2-3.33-.1-3.14,1.28-4.56,2.26-2.33,5.91-2.78,7.9-5.86-6.13.43-7.54-.39-8.74-5.81-2.12-9.55-4.66-19-3.23-29.07.33-2.39,1.5-5.45.58-7.37-1.39-2.9-2.41-5.93-3.74-8.83L481.5,123c-2.51.3-3.81.68-4.33,2.3-1.59,2.6-1.11,5.53-1,8.27.56,11.7,1.34,23.4,2.09,35.1,1.46,22.62,3.15,45.24,4.32,67.88.33,6.35,2.31,12.74.32,19.15-2.59-6.49-7.74-10.14-14.18-12.38,4.65,4.21,8.75,9,14.17,12.41,1.18,1.55,1,3.39,1.29,5.18,1.53,10,0,20.37,2.77,30.29-.47.65-.23.92.5.92a116.85,116.85,0,0,0,.13,18.33c.11,1.1.27,2.47-1.28,2.88a1.88,1.88,0,0,1-2.49-1.07c-1.18-3.78-4-5.51-7.58-6.29-2.12-.47-.37-3.47-2.6-3.63-3.24-.23-3.3-.16-5.22-3.2a3.07,3.07,0,0,0-1.79-1.55c-2.59-.66-5.32-1.27-6.88-3.61a14.2,14.2,0,0,0-4.35-3.78c-5.28-2.92-9.87-7.09-16.75-10.07,7,9,13.73,16.26,21.47,22.52,6,4.83,11.93,9.55,20,11.31,2.66.58,7.77,1.83,8,6.95.27,6.3,1.51,12.55,1.85,18.8,1,18.65,1.47,37.34,2,56,.24,8.21.12,16.43.16,25.05-3.2-1.22-3.77-3.41-3.9-5.75-.2-3.51.43-7-3.16-9.77a8.68,8.68,0,0,1-3.21-4.8A45.84,45.84,0,0,0,475.24,384a14.41,14.41,0,0,1-2.35-8.19l0-.11,8.49-.51.57.2-.55-.25c1.45-3.55-2.06-4.21-3.23-6.2-1.17.6,1.68,3.88-1.45,2.15-4.54-2.52-8.57-5.93-8.19-12h0c1.54-.29,4,1,4.5-.71.72-2.65-2.48-1.84-3.72-2.87a7.3,7.3,0,0,0-5.49-1.58c-5,.29-7.57-3.41-10.2-6.77-.86-1.09,2.45-7.12,3.3-6.57,3.14,2.05,7.35,1.34,10.13,3.81,3.41,3,7.74,3.63,11.75,5.08,1,.35,2.63.82,3.48-.86,2.08-4.08-2.48-11.15-6.89-12.07-2.13-.44-1.11,2.95-2.33,1.33-2.11-2.79-5.5-2.18-7.77-3.4-5.27-2.85-9.59-7.47-14.3-11.36l.29-.39-.25-.09,0,.48c-4.25,1-.21,3.69-1.32,7.46-1.7-7.31-5.07-5.92-8.57-4a2.78,2.78,0,0,1-2.8.25l.05-.2L448.44,322c-3.05-1.69-7.18-1.73-3.88-5.83l.49,0-.49,0c-2.92-2.6-7.37-1.69-10.21-6.1,0,3.53,2.63,3.53,2.69,5.44-1.4.85-3.05.73-3.69,3.23-1,3.75-8.48,6.09-12.53,5-3.51-1-6.55,1.27-9.8,2.08a2.08,2.08,0,0,0-1.42,2.8c1.19,3.07-1.87,2.78-3.08,3.22-.88.32-3.58.14-2.81-2.68a2.89,2.89,0,0,0-.77-2.21c-3.82-4.24-4.91-10.4-9.82-13.85-.4-.27-1.18-.69-1.14-.81,1.83-4.91-3.45-5.31-5.12-8-.51-.81-1.75-1.92-2.93-.7s-.09,2.22.52,3.13q5.76,8.7,11.64,17.32c4.29,6.32,8.62,12.61,13.47,19.7a39.94,39.94,0,0,0-19.75,2.82c5.49.22,11.44.71,16.24-.17,5.17-.95,7.58,1,10.41,3.26,4.93,3.92,9.29,8.54,14.1,12.63A419.12,419.12,0,0,1,478,409.92c3.54,4.15,7.65,8,10.48,13.55-11.18-3.86-21.08-8.84-31.9-11.32-4.4-1-8.62-2.82-12.92-4.26.05-.2.11-.39.17-.59l-.25.56c-5,.32-7.8-5.51-13.09-4.65-1.06.18-1-1.14-1-2.26.13-2.48-2.8-4.89-3.6-4.11-3.58,3.47-6.1-.41-9-.68a17.83,17.83,0,0,1-10.75-5.25c.19-.39,1.42-.15.65-1.1l-.65,1.1c-3.66.85-6.87-.78-10.24-1.73-1.56-.44-4.51-1.9-2.75,2.18h0c-1.29,0-2.32,2.29-3.55.59-.19-.26,1.08-2-.93-1.79-1.23.12-2.83-.36-3.59,1-.64,1.15.2,2.14,1,3s1.35,1.82,2,2.74l-.05.11c-4.18-1.59-8.44,2.92-12.41-.81-.69,2,.94,3.51-.5,5-1.43-.46-3.25-.59-4.41-1.53-2.11-1.69-3.61-1.82-5.77,0-3.44,2.93-6.94,2.38-10.08-.79a1.13,1.13,0,0,0,.25-.29c0-.07,0-.18,0-.27l-.2.57c-1.79,3.65-1.43,7.76-2.48,11.57-.49,1.79.54,2.39,1.88,2.89,6.21,2.33,12.26,5.31,18.66,6.87a184.17,184.17,0,0,0,53.28,4.63c18.59-1,37.11-.9,55.67-.14C484.92,424.91,486.47,426.13,487.17,428.88ZM331,404.31l-.64-.15.57.33.67.15Zm-34.24-19.49-.58-.23.55.29.62.19Zm60.37-89.15c.49.18,1.09.87,1.33-.26l-1.33.27a1.13,1.13,0,0,0-.29-.25c-.06,0-.17,0-.26,0ZM349,347.74a2,2,0,0,0-2.24-.05c-1.81-1.34-3.46-4.06-5.8-.66-3.7-3.09-8.48-2.5-12.75-3.55-2.74-.67-5.75-1.37-8.59.07-1.53-.87-3.14-1.94-2.73,1.29l0,.4,0-.41,2.72-1.19c2.34,2.36,5.7,2.21,8.55,3.2,4.07,1.42,8.53,2.45,12.83.17,1.72,2.13,3.83.71,5.79.65a2.11,2.11,0,0,0,2.24.09c.49.19,1.07.89,1.33-.23Zm3.61-52.22-1.34-1.7-.9,1.64c-2.39-1-4.79-.06-7.19-.17,2.4,2.07,4.8,1.19,7.2.14.72.65,1.47.39,2.23.08l1.29.26.08-.46ZM290.42,335c-1-1.57-1.17-3.66-3.44-5.05-.17,3.11,1.49,4.19,3.43,5.08l1.39,1.13.36-.6Zm-5,39.65a22.86,22.86,0,0,0-6.57-8.57c1.2,4.69,2.83,7.49,6.56,8.6.56.92.79,2.25,2.34,2,.52-.09.9-.48.57-1A2.18,2.18,0,0,0,285.46,374.6Zm101.31,7.58-1,.9.39.24.64-1.14c1.67-.75,3.33-1.61,5.23-.71,3.47,1.64,6.68.88,10-.76a87.78,87.78,0,0,1,25.28-8.59c1.78-.29,3.77-.88,4.6-2.38-7-3.61-13.69,1.72-20.9-.27.56,1.64,1,3,1.48,4.39-1.37-1.69-2.78-2.36-4.81-1.27-.66.36-1.5.62-1.88-.67-.53-1.79-1.64-2.21-2.2-1-2,4.36-3.51.73-5.19-.27-.83,1.54-.63,5-3.62,1.39-.79-.95-3.91-1.85-6.27.91s-5.1,7.43-10.71,4.72c-1.31-.64-1.85,1.61-1.34,2.72.58,1.27,1.77,2.26,3,3.75.4-2.26.89-4,3.5-2.59C384,382.13,385.48,382,386.77,382.18Zm-22.3-117.29c.16,1.95,0,3,.35,3.83,4.17,9.46,8.23,19,13.22,28a36.89,36.89,0,0,0,3,4.54,2.19,2.19,0,0,0,1.69.76,1,1,0,0,0,.66-1.53c-1.69-2.48-.86-6-3.33-8.1a25.8,25.8,0,0,1-7.65-11.39A61.85,61.85,0,0,0,364.47,264.89ZM475.93,123.12c4.78-6.9.59-12.84-.09-18.79s3.13-12.2-1.65-17.77A283.8,283.8,0,0,0,475.93,123.12ZM461.67,323c1.11,2.88,2.37,5.45,5.36,5.45a119.79,119.79,0,0,0,12.25-.94c1.35-.14,2.69-.78,2.13-2.6-.39-1.29-.94-2.52-2.71-2.3-2,.24-4.06.07-5.88.71C469.1,324.59,465.52,326.56,461.67,323Zm74.69-164.57c-3.18-.6-5.88-2.31-9.06-2.64s-7.8,2.19-9.38-3.31c-3.11,3.58-3.36,4.24-1.89,4.87A30.67,30.67,0,0,0,536.36,158.39ZM440.42,301c-5.37,3.58-9.35.92-13.51-2.54,2.92,7.83,2.93,7.94,11.81,7.06C441,305.28,439.89,302.78,440.42,301Zm18.44-66c-3.27-3.74-6.33-7.64-11.11-9.43C450.63,229.67,453.16,234.2,458.86,235Zm-160,99.56c-1.21,2.36-2.17,3.93.06,4.59,3.38,1,6.93,2.93,10.68-.27C305.83,336.82,300.85,340.64,298.87,334.52Zm26.36,67.88c-2.11-4.45-4.64-6.11-11-7.2C317.74,398.39,320.87,400.93,325.23,402.4ZM468.7,288c3.1,6,7.16,3.11,10.81,2.38ZM409.88,180.55a35.49,35.49,0,0,0,9.84,13.5ZM440,218.17c-2.21-4.39-6.13-7.18-9.74-10.29C432.39,212.3,436.33,215.07,440,218.17ZM473.94,83a22.21,22.21,0,0,0-.3-10.71C471.52,76.3,472.07,79.69,473.94,83ZM302.56,389.7c2.51,3.11,6.05,3.63,9.61,4.11A15.51,15.51,0,0,0,302.56,389.7Zm40,19.87c-2.88-1.85-5.71-3.88-10.14-2.68C335.67,409.71,339.3,408.91,342.52,409.57ZM472.69,51.84c-1.19,6-1.06,7.39,1.33,10.42C473.29,58.43,474.3,55.19,472.69,51.84Zm-39,223.39a7.58,7.58,0,0,0,4.54,4C437.73,276.44,436.37,275.57,433.68,275.23ZM274.19,359c.87,2.12.79,3.9,2.91,3.75.25,0,.48-.38.81-.68Zm148-37.38c.34.3.71.7.78.65.37-.25.85-.56,1-.95.19-.61-.32-.88-.82-.65S422.48,321.33,422.17,321.66ZM299.69,386.51c-.8.22-.7.71-.42,1.07a1.55,1.55,0,0,0,1.05.64.6.6,0,0,0,.39-1A3.64,3.64,0,0,0,299.69,386.51Zm131.55-115c0,.35-.05.73.1,1,.24.41.36,1.55,1,.86C432.77,272.88,432.1,271.87,431.24,271.5Zm-6.16-68.36c.27,0,.68,0,.75-.09a2.56,2.56,0,0,0,.11-.9c-.29,0-.71,0-.83.11S425.08,202.83,425.08,203.14Zm2.25,1.77c0,.31-.15.64-.05.87s.42.4.65.59c0-.29.16-.62.06-.85S427.57,205.11,427.33,204.91ZM290.22,378.71c-.09.06-.23.12-.24.19a.88.88,0,0,0,.09.38l.42-.3Zm4,4.35c.09-.06.24-.12.25-.2a1,1,0,0,0-.1-.4l-.44.32Zm67.65,15.24a1.51,1.51,0,0,0-.06-.44c0-.05-.24,0-.37,0a1,1,0,0,0,.06.44S361.7,398.31,361.83,398.3ZM473.52,69.76l-.35-.2a1.63,1.63,0,0,0-.14.36,3,3,0,0,0,.52.23Zm85.14,82.35c-.07.11-.2.23-.19.33s.18.15.29.22l.29-.55ZM464.85,285.35a1.35,1.35,0,0,0-.41.06s0,.22,0,.35a1.35,1.35,0,0,0,.41-.06S464.86,285.48,464.85,285.35ZM478,303.5c.07.1.12.26.21.27a.9.9,0,0,0,.41-.09l-.35-.47Z" transform="translate(-260.65 -33.54)"/><path class="cls-1" d="M482.92,255.74c2-6.41,0-12.8-.32-19.15-1.17-22.64-2.86-45.26-4.32-67.88-.75-11.7-1.53-23.4-2.09-35.1-.13-2.74-.61-5.67,1-8.27h0c1.33,2.9,2.35,5.93,3.74,8.83.92,1.92-.25,5-.58,7.37-1.43,10.06,1.11,19.52,3.23,29.07,1.2,5.42,2.61,6.24,8.74,5.81-2,3.08-5.64,3.53-7.9,5.86-1.38,1.42-3.24,1.23-1.28,4.56,2.06,3.49,1.3,8.69,1.61,13.15.91,13.22.37,26.51,3,39.66.69,3.48.84,6.81,3.5,9.84,1.62-7.14,8.87-9,12.67-14.1,1-1.29,2.38-.41,3.13,1,.43.82.89,2.12,2.12,1.35a1.85,1.85,0,0,0,.2-3c-1.44-1.35-1.31-2.47-.12-3.81a2.33,2.33,0,0,0,.78-2.22c-.95-4.39-.93-4.4,4.2-4.1,1.14,2.41-4.49,1.66-2.18,4.75,1.34,1.81,3.34,1.91,5.12,2.68a45.41,45.41,0,0,1,5,3c-1.6-5.57-1-9.38,4.77-10.74,2.41-.58,1.16-2.4.11-3.42-2.52-2.46-8.61-4.5-.51-7.63.89-7.53,7.62-6.47,12.34-8.38a1.13,1.13,0,0,0,.3.24c.07,0,.18,0,.27-.05l-.57-.19a15.24,15.24,0,0,0-1.78-1.64c-1.28-.85-3.82-.88-3.08-3.07.56-1.68,2.59-.69,4-.54.83.09,1.7.39,2.33-.31,3.08-3.41,3.8-.88,4.51,1.75-.16.38-1.31.15-.64,1l.62-1,4.23.21c-.21-1.89-1.89-3.22-1.54-5.21,1.63-1.11,2,1.42,3.27,1.17l.48,0h-.49a5.57,5.57,0,0,1-.57-1.34c-.35-2.48-4.31-3.63-3.14-6.14s4.19.23,6.22-.65a16.21,16.21,0,0,0,2.75-1.92l.66.14-.6-.3c-2.79-3.08-6.61-4.35-10.37-5.58-7.59-2.49-7.9-2.8-7.15-11.16.15-1.66.45-3.26-.14-4.91s-1.76-4.24.33-4.67c1.47-.3,4.57,1.75,5,3.31,1.11,3.82,3.29,4.19,6.53,3.78,3.08-.39,5,2.75,8.41,2.66,4.57-.13,3.87-2.07,2.6-4.56-.8-1.59-2.85-3.16-.75-4.64,1.79-1.26,3.06-4.53,6.23-2.75,2.16,1.22,2.72,0,2.78-1.78.06-1.54.67-3.51-2.17-3.44-1.75,0-3.54,1-5.43-.12,1.88-3.13,5.1-2.1,7.46-2,3.23.18,3-1.42,2.52-3.25-3-12.52-11-19.83-23.08-24.11-5.23-1.86-9.22,1.65-13.56,3.44-4.91,2-5.54,1.81-6.53-3.4-.62-3.25-1.17-6.52-1.72-9.79-.16-1-.38-2.11.88-2.48a2.05,2.05,0,0,1,2.62.86c1,2.26,2.41,2.9,4.72,1.81a2.34,2.34,0,0,1,3,1.24c1.41,3,4.21,4,6.72,5.51.25-.26.63-.47.64-.7.13-2.61-.75-6.22,1.33-7.44s3.64,2.53,5.92,3.48c3.06,1.28,6.81,2.4,5.92,7.17-.1.56.16,1.69,1,1,2.32-2,2.37.8,3.52,1.31,5.66,2.49,8.7,9.26,15.43,9.67,3.69.22,1.11,3.15,2.81,4.72,4.8-5.94,10-5.51,15.37-.6.76.7,2.19.67,3.3,1,.27.3.53.61.79.92,4.5,9.58,13.69,15,20.35,22.62,2.32,2.67,6.86,2,9,3.8a167.5,167.5,0,0,1,14.74,13.77c6.92,7.45,13.91,14.81,20.35,22.68.91,1.11,1.63,2.21,1.43,3.55-.5,3.2,2,4.48,3.92,5.74,4,2.7,6.51,6.52,8.91,10.51s3.67,8.18,5.64,12.07c1.68,3.29,3.94,6.38,5.13,10,.89,2.73,1,6.63,2.88,7.9,3.25,2.2,4,5.5,6,8.26,1.58,1.94,1.36,4.4,1.88,6.63,1.85,7.95,3.8,15.84,7.12,23.36,4.43,10,6,20.65,6.24,31.6.27,13.25,1.05,26.45-2.48,39.52a209.75,209.75,0,0,1-30.18,65.77c-3.69,5.3-6.64,11.13-11.21,15.81-7.54-5.32-12.82-13.12-20.53-18.35l.8,1.76h0c-4.27,1.64-7.2-1.73-10.61-3.05-2.41-.93-3.86-.86-5.59,1.8,3.65-.52,5.45,2.35,8.3,2.68a1.56,1.56,0,0,1,1.15,2.32c-2.55,4.21,0,7.74,1.2,11.52.4,1.24,2.32,2.51.7,4s-3.28.33-4.64-.29c-3.38-1.54-6-4.35-9.05-6.31-9.91-6.41-19-13.57-26.77-22.52-1-1.16-1.63-2.08-.33-3.33,8-.28,15.2-3.86,22.66-6.18,4.19-1.3,7.47-3.26,8.91,3,1.43-2.49-3.14-5.26,0-6.2,4.52-1.32,9.59-6.51,14.32,0,.14.18.93-.12,1.41-.19a1.16,1.16,0,0,0,.26.28c.06,0,.17,0,.26,0l-.53-.25c-2.7-5.43-6.43-4.81-11.41-2.84-11.75,4.67-24.21,7.37-35.89,12.33l-18.28,3c-4.83.8-9.85.2-14.55,2-13.09-.22-26.16.58-39.22,1.39-6.25.39-12.63-.28-18.65,2.13-1.15-.77-2.14-.08-3.15.34-1.87-.66-3.67-.86-5.51.75,2.19,1,3.83-.07,5.52-.78,1.14.76,2.13.05,3.15-.35,2.26.39,4.63.47,6.76,1.23,7.06,2.51,12.84,7,18.71,11.61,4.33,3.37,8.59,8,14.54,7.89s9.55,2.65,13,7c.82,1.05,3.5,5.51,6.8,1.51,2.69-3.26,4.73-1.47,6.13,1.21,2.14-.24,2.46-4.2,5-2.11,3.57,2.9,3.49,3,7.66,3.48.43.05.92.88,1.09,1.43.27.91,0,2.26,1.52,2,3.31-.55,4.78,1.43,6.16,3.92.49.89,2,2.37,2.67,1.41.85-1.26,3.16-1.27,2.83-3.6a7.27,7.27,0,0,0-2.07-4.34c-4-4.09-8-8.29-12.65-11.72-8.1-5.93-14.72-13.36-20.81-21.29-.86-1.12-1-2.07.4-2.83a47.57,47.57,0,0,0,4.86,2.15c8.7,2.83,13.28,9.76,17.34,17.24-.21.38-1.42.17-.65,1.11l.64-1.11c3.5.26,6,2.07,7,5.37.85,2.91,2.76,4.16,5.37,4.14,4.43,0,7.21,2.56,9.88,5.49,1.24,1.35,2,3.87,4.56,1.73.57-.46,1.38-.41,1.54.44.71,3.82,2.12,1.57,3.5.48,1-.8,2.08-1.64,3.86-1.12-.13,2.24-1.61,5.92.88,6.49,5.27,1.21,4.24,2.52,1.1,5.09-1.49,1.21-2,2.55.46,3.67.89.41,1.3,1.84,1.92,2.8-4.32,3.66-9.74,5-14.94,6.38-12.12,3.29-24,7.53-36.5,9.37a26.92,26.92,0,0,1-9.72.09c.37-4.75-2.81-8-5.85-10.38a112.33,112.33,0,0,1-14.88-14.21c-4-4.53-8.87-7.52-13.33-10.58s-9.65-6.34-13.24-10.19a96.44,96.44,0,0,0-17.5-14.37c-2.88-1.92-6.27-4.13-10.18-1.86-3.61,2.05-2.38,5.36-1.63,8.06,4,14.22,8.19,28.39,12.41,42.55,2.18,7.31,4.56,14.57,6.85,21.85a37.34,37.34,0,0,0,5.35,14.79c.54,1.35,1.09,2.7,1.63,4-.17,2.52,1.23,4.44,2.46,6.42,3,5.94,5.08,12.41,9.31,17.72,0,.66,0,1.31.94,1.31,4.08-.13,4.34-3.51,5.26-6.26.51-1.53.47-3.73,2.81-3.19,1.85.42,2.12,2.23,2.07,4.06a34,34,0,0,1-1.67,8.79c-1.24,4.18-2.28,8.41-1.34,12.76.7,3.2-1.2,4.4-3.57,4.79-2.88.46-2-2.34-2.45-3.77-.53-1.87-1.59-3.71-1.14-5.79.57-.76.2-1.53.11-2.35-.72-6.16-4.78-10.8-7.5-16-3.92-7.49-5.12-16-9.43-23.31-3.26-4.14-2.49-9.82-5.37-14.1-1-1.71-.43-4-2.19-5.44l-.72-2.19c-.11-.37-.21-.74-.31-1.11-6.88-18.31-11.52-37.33-17.86-55.81-1-3-.95-7-5.41-7.77-.7-2.75-2.25-4-5.3-4.09-18.56-.76-37.08-.83-55.67.14a184.17,184.17,0,0,1-53.28-4.63c-6.4-1.56-12.45-4.54-18.66-6.87-1.34-.5-2.37-1.1-1.88-2.89,1.05-3.81.69-7.92,2.48-11.57h0c3.14,3.17,6.64,3.72,10.08.79,2.16-1.84,3.66-1.71,5.77,0,1.16.94,3,1.07,4.41,1.53,1.44-1.51-.19-3,.5-5,4,3.73,8.23-.78,12.41.81l.62.18-.57-.29c-.67-.92-1.3-1.87-2-2.74s-1.6-1.89-1-3c.76-1.37,2.36-.89,3.59-1,2-.19.74,1.53.93,1.79,1.23,1.7,2.26-.63,3.55-.59l.48,0-.48,0c-1.76-4.08,1.19-2.62,2.75-2.18,3.37.95,6.58,2.58,10.24,1.73h0a17.83,17.83,0,0,0,10.75,5.25c2.9.27,5.42,4.15,9,.68.8-.78,3.73,1.63,3.6,4.11-.05,1.12-.09,2.44,1,2.26,5.29-.86,8.09,5,13.09,4.65l.08,0c4.3,1.44,8.52,3.24,12.92,4.26,10.82,2.48,20.72,7.46,31.9,11.32-2.83-5.58-6.94-9.4-10.48-13.55a419.12,419.12,0,0,0-47.42-47.64c-4.81-4.09-9.17-8.71-14.1-12.63-2.83-2.24-5.24-4.21-10.41-3.26-4.8.88-10.75.39-16.24.17a39.94,39.94,0,0,1,19.75-2.82c-4.85-7.09-9.18-13.38-13.47-19.7q-5.86-8.62-11.64-17.32c-.61-.91-1.58-2-.52-3.13s2.42-.11,2.93.7c1.67,2.67,6.95,3.07,5.12,8,0,.12.74.54,1.14.81,4.91,3.45,6,9.61,9.82,13.85a2.89,2.89,0,0,1,.77,2.21c-.77,2.82,1.93,3,2.81,2.68,1.21-.44,4.27-.15,3.08-3.22a2.08,2.08,0,0,1,1.42-2.8c3.25-.81,6.29-3.05,9.8-2.08,4.05,1.12,11.56-1.22,12.53-5,.64-2.5,2.29-2.38,3.69-3.23-.06-1.91-2.72-1.91-2.69-5.44,2.84,4.41,7.29,3.5,10.21,6.1h0c-3.3,4.1.83,4.14,3.88,5.83l-10.05,4.59c-1.16-.71-2.15-.06-3.15.42-6.66-2.29-9,5-14,6.22,5.68.17,8.47-6,14-6.19,1.11.8,2.1.12,3.11-.25a2.78,2.78,0,0,0,2.8-.25c3.5-1.89,6.87-3.28,8.57,4,1.11-3.77-2.93-6.47,1.32-7.46,4.71,3.89,9,8.51,14.3,11.36,2.27,1.22,5.66.61,7.77,3.4,1.22,1.62.2-1.77,2.33-1.33,4.41.92,9,8,6.89,12.07-.85,1.68-2.49,1.21-3.48.86-4-1.45-8.34-2.05-11.75-5.08-2.78-2.47-7-1.76-10.13-3.81-.85-.55-4.16,5.48-3.3,6.57,2.63,3.36,5.23,7.06,10.2,6.77a7.3,7.3,0,0,1,5.49,1.58c1.24,1,4.44.22,3.72,2.87-.48,1.75-3,.42-4.5.71a1.8,1.8,0,0,0-.3-.26c-.07,0-.18,0-.27.05l.57.2c-.38,6.11,3.65,9.52,8.19,12,3.13,1.73.28-1.55,1.45-2.15,1.17,2,4.68,2.65,3.23,6.2l0,.05-8.49.51c-.52-.82-1-1.72-2.2-1.46-.13,0-.28.56-.2.78.42,1.25,1.37,1.13,2.36.79a14.41,14.41,0,0,0,2.35,8.19,45.84,45.84,0,0,1,6.61,16.47,8.68,8.68,0,0,0,3.21,4.8c3.59,2.78,3,6.26,3.16,9.77.13,2.34.7,4.53,3.9,5.75,0-8.62.08-16.84-.16-25.05-.53-18.68-1-37.37-2-56-.34-6.25-1.58-12.5-1.85-18.8-.23-5.12-5.34-6.37-8-6.95-8.05-1.76-14-6.48-20-11.31-7.74-6.26-14.47-13.56-21.47-22.52,6.88,3,11.47,7.15,16.75,10.07a14.2,14.2,0,0,1,4.35,3.78c1.56,2.34,4.29,3,6.88,3.61a3.07,3.07,0,0,1,1.79,1.55c1.92,3,2,3,5.22,3.2,2.23.16.48,3.16,2.6,3.63,3.55.78,6.4,2.51,7.58,6.29a1.88,1.88,0,0,0,2.49,1.07c1.55-.41,1.39-1.78,1.28-2.88a116.85,116.85,0,0,1-.13-18.33l0,0a1.91,1.91,0,0,0,1.43-1.75c.74-.36,1.38-.81,1.39-1.75,2.74-1.22,5.75-2.14,6.36-6.13-3.09,1.34-4.62,3.85-6.37,6.12-.74.37-1.39.8-1.41,1.74l-1.75.86-.13,0c-2.81-9.92-1.24-20.25-2.77-30.29-.27-1.79-.11-3.63-1.29-5.18Zm189.57-20.68-.58-.21.56.25.58.18Zm-3.09-1.86h0l.46.09ZM527,260.92l1.3.55.67.2-.61-.35-1.34-.46-1.31-.52-.63-.14.59.26ZM682.23,391.16l-1.32-.49-1.33-.49-1.32-.5-.48,0h.49l1.32.49,1.33.49,1.33.5.43.08ZM610.26,236l-.64-.16.61.23.57.2Zm-36.14-74.56c.18-.33.55-.71-.15-.85a4,4,0,0,0-.26.7l0,.75Zm-30,84,1.35.43,1.34.46,1.3,1.28.46-.58-1.77-.66-1.32-.52-1.31-.54-1.31-.5-.7-.14.64.29Zm.94-39-1.33-.5-1.32-.5-.48,0,.49,0,1.32.49,1.33.48.48.07Zm43,113.35.54-1.31.6-1.27c1.68-2.6,1.68-2.6-1.87-4.28l1.61,4.18-.39,1.35-.44,1.35-.09.42C588,320.13,588,320,588.05,319.84Zm-33.32-70.5.54.24-.53-.27-1.31-.51c-.5-.59-.94-1.34-1.9-.81a.49.49,0,0,0-.15.43c.48,1,1.25.72,2,.46ZM531.2,361.14l-1.37-.4-1-1a4,4,0,0,0-.22.4c.37.25.76.48,1.15.7l1.28.64.7.12Zm79.29-79,.56-1.28c.76-.49,1.78-.73,1.86-1.85,0-.21-.35-.67-.5-.65-1.39.18-1.52,1.29-1.63,2.4l-.45,1.32-.21.68Zm-64.42,51.23-.76-.06.61.46.74.06Zm18.3-140.1.49-1.31c.36-.45,1.11-1,1-1.33-.27-1-1.19-.59-1.92-.51l-1.69-.67-.06.7,1.76-.06.77,1.82-.49,1.32-.51,1.31-.51,1.32-.14.68.33-.61.48-1.33C564.06,194.18,564.21,193.74,564.37,193.29Zm-5.22,58.38-1.31-.52-.64-.19.59.31,1.33.48.62.2Zm-16.28,80.11.67.16-.6-.35-.68-.15Zm92,30.42.07-.46,0,.47-.05.46C634.89,362.51,634.9,362.35,634.9,362.2Zm-116-87.69.64.22-.62-.29-.6-.18Zm52,48.72-1.33-.47c-.61-1.63-1.56-2.82-3.49-2.8-.45-.78-.6-1.85-1.73-2-.58-.07-.85.39-.63.89.44,1,1.39,1.1,2.35,1.11.6,1.62,1.54,2.83,3.48,2.81l1.32.52.6.19Zm-3.28,146.54-1.32-.51L565,468.8l-1.73-.56-.15.71,1.75.2,1.31.54,1.33.5,1.3.5c1.87,5.58,7.15,8.09,10.95,11.89,2,2,4.8,4.94,8,.6.72-1,3.28-.75,5-.72.68,0,1.91,1.7,1.54-.39-.72-4.09,2.14-3.31,4.39-4,3.71-1.07,8.25.6,11.38-3-1.21-1.26-2.11-.42-2.92-.07a28.63,28.63,0,0,1-18,1.46c-6.65-1.81-13.81-3-20.17-6.19Zm25.25-237.92a1.94,1.94,0,0,0,2.23.09l1.33.49c1.68,1.07,3.38,2.12,6,1.35-2.07-2.21-4.07-1.73-6.06-1.35l-1.32-.49a2,2,0,0,0-2.24-.07l-1.31-.52-5.35-4.17c1.86,2.47.92,6.84,5.34,4.2Zm-53.1,136.44.9,1,.24-.4-1.13-.67c-.34-.76-.78-1.4-1.73-1.41l-.78-1-.34.5,1.1.55C538.47,367.62,538.92,368.26,539.84,368.29ZM574,325.19l.92,1.08a3.81,3.81,0,0,0,.24-.39c-.37-.26-.76-.49-1.15-.73l-.59-.19ZM575.71,187A2.13,2.13,0,0,0,578,187c1.23.9,2.45,1.49,3.66-.1-1.32-1-2.48-.26-3.67.11a2.2,2.2,0,0,0-2.23-.07c-.5-.27-1.06-.92-1.35.2Zm31,48.54-1.32-1.18-.4.59,1.74.55a1.28,1.28,0,0,0,.29.23c.06,0,.17,0,.25,0Zm80,158.07-1.3-1.14-.38.57,1.7.53.44,0ZM582.88,339.87c1.11.73,2.1.11,3.12-.26a11.77,11.77,0,0,0,7.62-.21c6.64.38,14.38-1.36,16.15,8.4,0,.07.41.08,1,.19-.59-1.29-1.07-2.32-1.54-3.37-2.74-6.13-2.72-6,4-6.53,5.93-.47,11.84-1.31,17.76-2-.06-.54-.12-1.09-.19-1.64-12.34,1.92-24.86,2-37.13,4.69-2.57-1.29-5.1-.53-7.62.2-1.15-.69-2.14,0-3.15.39-.46-.06-.91-.12-1.36-.15a2.61,2.61,0,0,0-.11.45Zm-57-59.79,1.29,1.88c.09-.13.26-.28.25-.4a1.56,1.56,0,0,0-1.54-1.47l-1.32-.5c-.71-1.4-1.28-2.94-3.38-3.08.63,1.72.66,3.84,3.37,3.09Zm27.3,11.81c1.57.86,2.73-.39,4.06-.79a5.36,5.36,0,0,0,5.79-.85c-2.47-.82-4.1,0-5.75.72-1.54-.84-2.73.29-4.05.72a1.63,1.63,0,0,0-2.13.16c-.09.08-.07.29-.1.45Zm63.63,11.48c.51.89,1.13,1.58,2.26,1,.19-.1.41-.6.34-.68-.77-.91-1.7-.52-2.61-.28l-1.69-.71-.07.73ZM577.5,328c.74.9.36,2.89,2.51,2.59-.6-1.2-1.09-2.34-2.51-2.59a1.58,1.58,0,0,0-.31-.27c-.07,0-.19,0-.28.05Zm-46.25,4.63c1.65.73,2.84.21,4.21-1.89l-4.22,1.93-.45,0Zm-15-69,1-1c-.15-.07-.41-.22-.42-.21-.25.37-.47.76-.7,1.15-1,.8-2.92.59-2.76,2.87C515.12,266.15,515.76,265,516.24,263.65ZM547,304.5c-.48-.77-.59-2-1.87-1.85-.22,0-.59.78-.51,1.08.35,1.29,1.34,1.15,2.34.87l1,1a4.64,4.64,0,0,0,.23-.41C547.79,305,547.4,304.74,547,304.5Zm-149.8,88.35.14-.64-.3.58c-.62.95-1.42,2-.19,2.91a2.26,2.26,0,0,0,2.1-.6C399.47,393.73,397.27,394.06,397.21,392.85ZM637,277.68a7.58,7.58,0,0,0-6.3.69,18,18,0,0,0-10.06.37c4.1,1.06,7.12,1.22,10.06-.37,2.23,1.06,4.27.39,6.28-.65.44.09.87.18,1.3.25a3.09,3.09,0,0,0,.12-.45Zm-93.32,96.55c-.23.38-1.43.18-.66,1.14l.65-1.14c1.7-.77,3.49-1.44,4.09-3.78C545.59,371.11,543.71,371.69,543.67,374.23ZM506.43,273.58l-1.08.94c.14.08.39.24.4.23.26-.37.49-.76.72-1.15,1.88-1.11,4.29-1.43,6-3.79C509.2,270.53,509.2,270.53,506.43,273.58Zm13.19,84.16c-3-1.8-5.69.23-8.52.6-5.28-.57-9.89,1.28-14.27,4l14.28-4c3,1.77,5.7-.12,8.52-.6a2.26,2.26,0,0,0,.29.25c.07,0,.18,0,.27,0Zm17.92,26.88c-4.66-5-4.44,1.8-6.75,2.51,2.48-.1,3.78-3.24,6.66-2.25l.69.11Zm120.29,25.44c1.56,3.14,4.42,4.56,7.32,5.92-1.92-2.67-4-5.13-7.27-6.05l-.64-.17ZM581.36,281.12a1.33,1.33,0,0,0,.26-.27c0-.06,0-.18,0-.27l-.21.55a35.83,35.83,0,0,0-11.09,7.45C574,286.12,578.79,285.25,581.36,281.12ZM518.62,398.86c-2.11.82-3.87,2-4.59,4.33a31.82,31.82,0,0,0-10.26,11.15c3-4.08,8.49-5.87,10.22-11.17,2.06-.88,4-1.93,4.66-4.3a36,36,0,0,1,5.54-3.06c-4.48,1.81-5.93-2.63-9.25-4.08C515.74,394.84,519.38,395.7,518.62,398.86Zm44.37-38-7.37-5.68c4,5.37-2.43,6.2-2.28,10.19,3-2.27,5.45-5.33,9.52-4.16l.73.07ZM570.52,296c2.05,5.57,6.24,8.94,11.73,11l-11.66-11.15-2-4.46C568.23,293.54,568.4,295.39,570.52,296Zm97,29.28c-7.22,1.05-13,5.67-20.08,7,.24.6.49,1.21.74,1.81l19.35-8.84c6.1-1.45,12.25-2.82,15.58-9.22C678.89,320.89,672.84,322.42,667.53,325.31ZM591.28,151.24c-1.33-.76-2.25-2.17-4.28-.59s-5,2.64-7.49,3.85-5,3.07-7.69-2c.82,5.4,2.09,6.76,6.09,4.93,4.45-2,8.3-5.45,13.36-6.14l.44,0Zm-74.7,154,.2.64a5.88,5.88,0,0,1,1.39,0c4.05,1,7.87-5.18,12-.4.13-.2.38-.41.36-.59-.52-5.06,4.45-3.78,6.61-5.74,2.79-2.53,4.91-1.8,5.78.55-1.11-.63,1.33-3.79-1.6-4.88-3.12-1.16-4.23,1.75-6.17,3-2.74,1.76-5.19,3.79-8.76,4.26C523.06,302.51,519.85,304.14,516.58,305.25Zm104.73-61.84c11.54-1.28,23-3.06,33.46-8.24C643.79,238.57,632.48,240.75,621.31,243.41ZM491.94,338a183.45,183.45,0,0,0,27.8-6.39C509.12,331.75,500.6,335.18,491.94,338Zm67.77-22.06c-1.14-2.49-3.57-4-3.19-6.78.14-1.07-.83-1.72-1.89-1.93s-1.51.45-1.86,1.23-1,2.27-.1,2.71C555.15,312.33,556.2,315.51,559.71,315.93Zm-60-6.32c6.25,1.39,10-1.16,13.85-3.57C509.46,307.76,504.91,307.66,499.68,309.61ZM666.19,232.4c-2.86.79-6.11.46-8.38,2.77C660.64,234.27,664.1,235.46,666.19,232.4Zm-48-47.33c2.08,3.15,1,7.4,4.26,11.32C622.3,191.38,620,188.32,618.21,185.07Zm4.11,185.34.31.32L634,365.52l-.19-.36Zm58.62-100c-2.87.8-6.11.48-9.06,2.89C675.79,273.81,678.22,271.66,680.94,270.39ZM534.5,282.87c4,0,5.15,3,7.85,3.25C540.49,284.34,539.8,280.41,534.5,282.87Zm-19.88,88.05c.4-2.35,1-4.75-2.35-5.91Zm115.7-58.14c-2.38-3.06-3.91-5-5.45-7C626.11,308,626.18,311.09,630.32,312.78ZM573.05,345c2.15-2.73,4.71-3.11,5.57-5.49,0-.13-.51-.68-.67-.63C575.46,339.54,574.42,341.56,573.05,345ZM497.7,282.13c3-2.13,4.95-3.34,6.28-6.2C501,277.07,499.42,278.65,497.7,282.13ZM617.83,388.24c-.5,2.27-1.08,4.51,1.69,7.32C618.75,392.2,618.29,390.22,617.83,388.24Zm-1-31.27c-3.64.37-2.66-4-5-4.93C613.3,353.91,612.37,357.91,616.82,357Zm1.28,41c.72,1.71-.28,3.79,1.39,6.49C619.44,401.45,620.27,399.48,618.1,398ZM583.8,187.1c1.93.62,3.3.94,5.37-.72C586.92,186.25,585.58,185.6,583.8,187.1Zm35.07,91.72c-1.13-.19-2.43-.95-3.49.46C616.63,280.6,617.73,279.88,618.87,278.82Zm-199.1,56.7c-1.45.49-2.57.94-2.45,2.71C418.66,338,419.78,337.5,419.77,335.52Zm107,56.47c-.3-.92-.86-.8-1.16-.51a2.8,2.8,0,0,0-1,1.54c-.05.66.69.54,1,.27A8.56,8.56,0,0,0,526.73,392Zm6.67-109.07a8.59,8.59,0,0,0-1.83-.3c-.66.05-2-.16-1.23,1.09C531,284.67,532,283.91,533.4,282.92ZM500.79,416.05l-1,1.75a3.1,3.1,0,0,0,1.13,0c.58-.24,1.21-.61,1-1.37C501.84,416.25,501.22,416.2,500.79,416.05ZM586,311.51c-.11-.47-.08-1-.34-1.31-.52-.53-1.37-1.87-1.83-.18C583.54,310.88,584.7,311.58,586,311.51Zm105.4,83.25c-.22,1.5.18,2.72,1.95,4.28ZM535.19,363.25c-.26-.21-.58-.67-1-.73a.6.6,0,0,0-.64.89,1.81,1.81,0,0,0,1,.84C535.27,364.42,535.32,363.91,535.19,363.25Zm59.74,99.35c.17-.24.48-.49.45-.7s-.37-.41-.58-.61l-.61.95ZM561.54,253a3.84,3.84,0,0,0,0,1.3c.11.36.43,1.09.92.32a2.23,2.23,0,0,0,0-1.38C562.41,253.13,562,253.1,561.54,253ZM439.4,319.6l1.12.75c0-.31.11-.69,0-.93a6.53,6.53,0,0,0-.9-1.08Zm99.47,11.27a2.75,2.75,0,0,0,1,0c.36-.18.93-.48.2-.89-.18-.1-.59.08-.81.24S539,330.6,538.87,330.87Zm83.26-132.54a2.3,2.3,0,0,0,0,.9c.11.23.43.36.66.54a2.11,2.11,0,0,0,0-.86C622.69,198.68,622.38,198.54,622.13,198.33Zm-157.31,160c.18-.22.5-.44.51-.66s-.31-.44-.49-.65c-.18.23-.46.44-.5.69S464.64,358.11,464.82,358.33Zm96.84-41.49-.43.09.37.5c.1-.1.24-.19.27-.3S561.74,316.93,561.66,316.84Zm-50.31-84.67c.07.1.13.26.22.28a.93.93,0,0,0,.41-.09l-.35-.48Zm29.09,145.37c.14,0,.31,0,.39-.05.37-.29.3-.49-.16-.49-.11,0-.25.13-.32.24S540.41,377.43,540.44,377.54Zm33.32-213.19c-.1.08-.27.14-.28.23a1.12,1.12,0,0,0,.1.43l.48-.35ZM393.39,403l0,.39.51-.18c-.08-.11-.13-.25-.23-.3S393.5,403,393.39,403ZM528.26,389.4c.07.08.13.22.2.23a.92.92,0,0,0,.38-.09l-.3-.41ZM414.54,340.3c.14,0,.3.12.41.08s.18-.21.28-.32c-.14,0-.3-.11-.41-.07S414.63,340.19,414.54,340.3Zm53.35,30.87c0,.13,0,.3,0,.38.28.34.48.27.48-.17a.46.46,0,0,0-.22-.3C468.12,371,468,371.14,467.89,371.17Zm83.19-4c.13,0,.31,0,.4-.05.38-.3.31-.5-.17-.5a.51.51,0,0,0-.33.24C550.94,366.91,551,367.05,551.08,367.16Zm2.78-168.8c.09-.06.23-.12.25-.19s-.06-.24-.09-.37l-.42.3ZM655,408.07c.11.07.22.19.33.19s.15-.18.22-.28l-.55-.29ZM559,187.65c-.07.1-.21.2-.2.29s.13.22.2.33l.32-.42ZM670.15,423l-.36-.21c0,.13-.17.36-.14.37a4.27,4.27,0,0,0,.53.24Zm-2.74-5.58c-.09.07-.25.13-.26.21a1.16,1.16,0,0,0,.09.4l.46-.33Zm2.38,3.08c.07-.12.22-.31.19-.36a5.62,5.62,0,0,0-.55-.54c-.07.13-.22.32-.19.36A4.69,4.69,0,0,0,669.79,420.48Z" transform="translate(-260.65 -33.54)"/><path class="cls-1" d="M572.51,420.28c4.7-1.82,9.72-1.22,14.55-2l18.28-3,0,.06c-1.3,1.25-.68,2.17.33,3.33,7.73,8.95,16.86,16.11,26.77,22.52,3,2,5.67,4.77,9.05,6.31,1.36.62,3.16,1.63,4.64.29s-.3-2.74-.7-4c-1.24-3.78-3.75-7.31-1.2-11.52a1.56,1.56,0,0,0-1.15-2.32c-2.85-.33-4.65-3.2-8.3-2.68,1.73-2.66,3.18-2.73,5.59-1.8,3.41,1.32,6.34,4.69,10.61,3.05l1.24,1.83c.08-.13.25-.26.24-.38a1.57,1.57,0,0,0-1.49-1.44l-.8-1.76c7.71,5.23,13,13,20.53,18.35-3.43,8-10.2,13-16.77,17.92a91.31,91.31,0,0,1-19.21,11.52c-.62-1-1-2.39-1.92-2.8-2.41-1.12-1.95-2.46-.46-3.67,3.14-2.57,4.17-3.88-1.1-5.09-2.49-.57-1-4.25-.88-6.49-1.78-.52-2.84.32-3.86,1.12-1.38,1.09-2.79,3.34-3.5-.48-.16-.85-1-.9-1.54-.44-2.59,2.14-3.32-.38-4.56-1.73-2.67-2.93-5.45-5.51-9.88-5.49-2.61,0-4.52-1.23-5.37-4.14-1-3.3-3.51-5.11-7-5.37h0c-4.06-7.48-8.64-14.41-17.34-17.24a47.57,47.57,0,0,1-4.86-2.15Z" transform="translate(-260.65 -33.54)"/><path class="cls-1" d="M498.56,428.83c3.91-2.27,7.3-.06,10.18,1.86a96.44,96.44,0,0,1,17.5,14.37c3.59,3.85,8.63,7,13.24,10.19s9.37,6.05,13.33,10.58A112.33,112.33,0,0,0,567.69,480c3,2.4,6.22,5.63,5.85,10.38-18.72,1.93-32.14-7.49-42.75-21.25-6.13-8-10.92-17.05-15.56-26C511.49,435.92,506.65,430.66,498.56,428.83Z" transform="translate(-260.65 -33.54)"/><path class="cls-1" d="M699.31,262.45c-1.94-2.76-2.74-6.06-6-8.26-1.88-1.27-2-5.17-2.88-7.9-1.19-3.63-3.45-6.72-5.13-10-2-3.89-3.33-8.21-5.64-12.07s-4.88-7.81-8.91-10.51c-1.89-1.26-4.42-2.54-3.92-5.74.2-1.34-.52-2.44-1.43-3.55-6.44-7.87-13.43-15.23-20.35-22.68A167.5,167.5,0,0,0,630.32,168c-2.1-1.77-6.64-1.13-9-3.8-6.66-7.65-15.85-13-20.35-22.62,7.79,5.07,13.5,12.64,21.46,17.56,14.86,9.21,25.47,23.05,37.64,35.19A188,188,0,0,1,685,225.86c3.82,5.94,5.7,12.72,8.21,19.21C695.42,250.8,697.29,256.65,699.31,262.45Z" transform="translate(-260.65 -33.54)"/><path class="cls-1" d="M519,515.3c4.31,7.29,5.51,15.82,9.43,23.31,2.72,5.2,6.78,9.84,7.5,16,.09.82.46,1.59-.11,2.35-6.26-11.87-11-24.36-15.73-36.88C519.53,518.53,518.81,517,519,515.3Z" transform="translate(-260.65 -33.54)"/><path class="cls-1" d="M521.54,516.08a37.34,37.34,0,0,1-5.35-14.79A94.6,94.6,0,0,1,521.54,516.08Z" transform="translate(-260.65 -33.54)"/><path class="cls-1" d="M511.47,495.76c1.76,1.4,1.2,3.73,2.19,5.44C511.74,499.87,511.67,497.78,511.47,495.76Z" transform="translate(-260.65 -33.54)"/><path class="cls-1" d="M525.63,526.54c-1.23-2-2.63-3.9-2.46-6.42C524.33,522.14,525.55,524.12,525.63,526.54Z" transform="translate(-260.65 -33.54)"/><path class="cls-1" d="M363.38,495.17c2.08-1.27,3.57-1,4.14,1.6C365.9,496.87,364.72,495.82,363.38,495.17Z" transform="translate(-260.65 -33.54)"/><path class="cls-1" d="M368.77,497.2c2.44-1.75,3.54-.38,4.29,1.83Z" transform="translate(-260.65 -33.54)"/><path class="cls-1" d="M535.88,545.57c-.92,0-.94-.65-.94-1.31A1.13,1.13,0,0,1,535.88,545.57Z" transform="translate(-260.65 -33.54)"/><path class="cls-1" d="M367.42,496.63l1.49.51A1,1,0,0,1,367.42,496.63Z" transform="translate(-260.65 -33.54)"/><path class="cls-1" d="M510.44,492.46c.1.37.2.74.31,1.11A.7.7,0,0,1,510.44,492.46Z" transform="translate(-260.65 -33.54)"/><path class="cls-1" d="M386.77,382.18c-1.29-.19-2.75-.05-3.84-.62-2.61-1.41-3.1.33-3.5,2.59-1.24-1.49-2.43-2.48-3-3.75-.51-1.11,0-3.36,1.34-2.72,5.61,2.71,8.23-1.83,10.71-4.72s5.48-1.86,6.27-.91c3,3.58,2.79.15,3.62-1.39,1.68,1,3.18,4.63,5.19.27.56-1.22,1.67-.8,2.2,1,.38,1.29,1.22,1,1.88.67,2-1.09,3.44-.42,4.81,1.27-.46-1.38-.92-2.75-1.48-4.39,7.21,2,13.93-3.34,20.9.27-.83,1.5-2.82,2.09-4.6,2.38A87.78,87.78,0,0,0,402,380.71c-3.31,1.64-6.52,2.4-10,.76-1.9-.9-3.56,0-5.23.71Z" transform="translate(-260.65 -33.54)"/><path class="cls-1" d="M364.47,264.89a61.85,61.85,0,0,1,8,16.16,25.8,25.8,0,0,0,7.65,11.39c2.47,2.1,1.64,5.62,3.33,8.1a1,1,0,0,1-.66,1.53,2.19,2.19,0,0,1-1.69-.76,36.89,36.89,0,0,1-3-4.54c-5-9.07-9.05-18.59-13.22-28C364.46,267.9,364.63,266.84,364.47,264.89Z" transform="translate(-260.65 -33.54)"/><path class="cls-1" d="M475.93,123.12a283.8,283.8,0,0,1-1.74-36.56c4.78,5.57,1,11.84,1.65,17.77S480.71,116.22,475.93,123.12Z" transform="translate(-260.65 -33.54)"/><path class="cls-1" d="M461.67,323c3.85,3.6,7.43,1.63,11.15.32,1.82-.64,3.92-.47,5.88-.71,1.77-.22,2.32,1,2.71,2.3.56,1.82-.78,2.46-2.13,2.6a119.79,119.79,0,0,1-12.25.94C464,328.41,462.78,325.84,461.67,323Z" transform="translate(-260.65 -33.54)"/><path class="cls-1" d="M536.36,158.39A30.67,30.67,0,0,1,516,157.31c-1.47-.63-1.22-1.29,1.89-4.87,1.58,5.5,6.11,3,9.38,3.31S533.18,157.79,536.36,158.39Z" transform="translate(-260.65 -33.54)"/><path class="cls-1" d="M319.66,343.55c2.84-1.44,5.85-.74,8.59-.07,4.27,1,9.05.46,12.75,3.55v0c-4.3,2.28-8.76,1.25-12.83-.17-2.85-1-6.21-.84-8.55-3.2Z" transform="translate(-260.65 -33.54)"/><path class="cls-1" d="M440.42,301c-.53,1.79.62,4.29-1.7,4.52-8.88.88-8.89.77-11.81-7.06C431.07,301.91,435.05,304.57,440.42,301Z" transform="translate(-260.65 -33.54)"/><path class="cls-1" d="M482.91,255.77c-5.42-3.37-9.52-8.2-14.17-12.41,6.44,2.24,11.59,5.89,14.18,12.38Z" transform="translate(-260.65 -33.54)"/><path class="cls-1" d="M458.86,235c-5.7-.76-8.23-5.29-11.11-9.43C452.53,227.32,455.59,231.22,458.86,235Z" transform="translate(-260.65 -33.54)"/><path class="cls-1" d="M298.87,334.52c2,6.12,7,2.3,10.74,4.32-3.75,3.2-7.3,1.28-10.68.27C296.7,338.45,297.66,336.88,298.87,334.52Z" transform="translate(-260.65 -33.54)"/><path class="cls-1" d="M325.23,402.4c-4.36-1.47-7.49-4-11-7.2C320.59,396.29,323.12,398,325.23,402.4Z" transform="translate(-260.65 -33.54)"/><path class="cls-1" d="M468.7,288l10.81,2.38C475.86,291.14,471.8,294,468.7,288Z" transform="translate(-260.65 -33.54)"/><path class="cls-1" d="M409.88,180.55l9.84,13.5A35.49,35.49,0,0,1,409.88,180.55Z" transform="translate(-260.65 -33.54)"/><path class="cls-1" d="M440,218.17c-3.64-3.1-7.58-5.87-9.74-10.29C433.84,211,437.76,213.78,440,218.17Z" transform="translate(-260.65 -33.54)"/><path class="cls-1" d="M473.94,83c-1.87-3.35-2.42-6.74-.3-10.71A22.21,22.21,0,0,1,473.94,83Z" transform="translate(-260.65 -33.54)"/><path class="cls-1" d="M302.56,389.7a15.51,15.51,0,0,1,9.61,4.11C308.61,393.33,305.07,392.81,302.56,389.7Z" transform="translate(-260.65 -33.54)"/><path class="cls-1" d="M285.45,374.63c-3.73-1.11-5.36-3.91-6.56-8.6a22.86,22.86,0,0,1,6.57,8.57Z" transform="translate(-260.65 -33.54)"/><path class="cls-1" d="M342.52,409.57c-3.22-.66-6.85.14-10.14-2.68C336.81,405.69,339.64,407.72,342.52,409.57Z" transform="translate(-260.65 -33.54)"/><path class="cls-1" d="M472.69,51.84c1.61,3.35.6,6.59,1.33,10.42C471.63,59.23,471.5,57.82,472.69,51.84Z" transform="translate(-260.65 -33.54)"/><path class="cls-1" d="M346.8,347.66c-2,.06-4.07,1.48-5.79-.65v0c2.34-3.4,4-.68,5.8.65Z" transform="translate(-260.65 -33.54)"/><path class="cls-1" d="M350.42,295.43c-2.4,1.05-4.8,1.93-7.2-.14,2.4.11,4.8-.86,7.19.17Z" transform="translate(-260.65 -33.54)"/><path class="cls-1" d="M433.68,275.23c2.69.34,4.05,1.21,4.54,4A7.58,7.58,0,0,1,433.68,275.23Z" transform="translate(-260.65 -33.54)"/><path class="cls-1" d="M290.41,335c-1.94-.89-3.6-2-3.43-5.08,2.27,1.39,2.48,3.48,3.44,5.05Z" transform="translate(-260.65 -33.54)"/><path class="cls-1" d="M274.19,359l3.72,3.07c-.33.3-.56.66-.81.68C275,362.94,275.06,361.16,274.19,359Z" transform="translate(-260.65 -33.54)"/><path class="cls-1" d="M285.46,374.6a2.18,2.18,0,0,1,2.9,1c.33.53-.05.92-.57,1-1.55.29-1.78-1-2.34-2Z" transform="translate(-260.65 -33.54)"/><path class="cls-1" d="M422.17,321.66c.31-.33.56-.78.94-1s1,0,.82.65c-.13.39-.61.7-1,.95C422.88,322.36,422.51,322,422.17,321.66Z" transform="translate(-260.65 -33.54)"/><path class="cls-1" d="M319.63,343.64l-2.72,1.19h0c-.41-3.23,1.2-2.16,2.73-1.29Z" transform="translate(-260.65 -33.54)"/><path class="cls-1" d="M299.69,386.51a3.64,3.64,0,0,1,1,.68.6.6,0,0,1-.39,1,1.55,1.55,0,0,1-1.05-.64C299,387.22,298.89,386.73,299.69,386.51Z" transform="translate(-260.65 -33.54)"/><path class="cls-1" d="M477.17,125.34c.52-1.62,1.82-2,4.33-2.3l-4.32,2.31Z" transform="translate(-260.65 -33.54)"/><path class="cls-1" d="M431.24,271.5c.86.37,1.53,1.38,1.1,1.83-.64.69-.76-.45-1-.86C431.19,272.23,431.27,271.85,431.24,271.5Z" transform="translate(-260.65 -33.54)"/><path class="cls-1" d="M350.41,295.46l.9-1.64,1.34,1.7h0c-.76.31-1.51.57-2.23-.08Z" transform="translate(-260.65 -33.54)"/><path class="cls-1" d="M290.42,335l1.74.56-.36.6L290.41,335Z" transform="translate(-260.65 -33.54)"/><path class="cls-1" d="M425.08,203.14c0-.31-.11-.69,0-.88s.54-.08.83-.11a2.56,2.56,0,0,1-.11.9C425.76,203.17,425.35,203.11,425.08,203.14Z" transform="translate(-260.65 -33.54)"/><path class="cls-1" d="M427.33,204.91c.24.2.56.36.66.61s0,.56-.06.85c-.23-.19-.55-.34-.65-.59S427.31,205.22,427.33,204.91Z" transform="translate(-260.65 -33.54)"/><path class="cls-1" d="M290.22,378.71l.27.27-.42.3a.88.88,0,0,1-.09-.38C290,378.83,290.13,378.77,290.22,378.71Z" transform="translate(-260.65 -33.54)"/><path class="cls-1" d="M294.18,383.06l-.29-.28.44-.32a1,1,0,0,1,.1.4C294.42,382.94,294.27,383,294.18,383.06Z" transform="translate(-260.65 -33.54)"/><path class="cls-1" d="M361.83,398.3c-.13,0-.35.06-.37,0a1,1,0,0,1-.06-.44c.13,0,.35-.07.37,0A1.51,1.51,0,0,1,361.83,398.3Z" transform="translate(-260.65 -33.54)"/><path class="cls-1" d="M349,347.75a2.11,2.11,0,0,1-2.24-.09v0a2,2,0,0,1,2.24.06Z" transform="translate(-260.65 -33.54)"/><path class="cls-1" d="M349,347.74l1.33-.22c-.26,1.12-.84.42-1.33.23Z" transform="translate(-260.65 -33.54)"/><path class="cls-1" d="M473.52,69.76l0,.39a3,3,0,0,1-.52-.23,1.63,1.63,0,0,1,.14-.36Z" transform="translate(-260.65 -33.54)"/><path class="cls-1" d="M386.76,382.18l-.64,1.14-.39-.24,1-.9Z" transform="translate(-260.65 -33.54)"/><path class="cls-1" d="M352.65,295.52l1.37-.21-.08.46-1.29-.26Z" transform="translate(-260.65 -33.54)"/><path class="cls-1" d="M357.12,295.68l1.33-.27c-.24,1.13-.84.44-1.33.26Z" transform="translate(-260.65 -33.54)"/><path class="cls-1" d="M406.15,390.91l.65-1.1c.77.95-.46.71-.65,1.1Z" transform="translate(-260.65 -33.54)"/><path class="cls-1" d="M558.66,152.11h.39l-.29.55c-.11-.07-.29-.14-.29-.22S558.59,152.22,558.66,152.11Z" transform="translate(-260.65 -33.54)"/><path class="cls-1" d="M464.85,285.35c0,.13.06.33,0,.35a1.35,1.35,0,0,1-.41.06c0-.13-.06-.33,0-.35A1.35,1.35,0,0,1,464.85,285.35Z" transform="translate(-260.65 -33.54)"/><path class="cls-1" d="M478,303.5l.27-.29.35.47a.9.9,0,0,1-.41.09C478.11,303.76,478.06,303.6,478,303.5Z" transform="translate(-260.65 -33.54)"/><path class="cls-1" d="M296.72,384.88l-.55-.29.58.23Z" transform="translate(-260.65 -33.54)"/><path class="cls-1" d="M296.75,384.82l.59.25-.62-.19Z" transform="translate(-260.65 -33.54)"/><path class="cls-1" d="M330.92,404.49l-.57-.33.64.15Z" transform="translate(-260.65 -33.54)"/><path class="cls-1" d="M331,404.31l.6.33-.67-.15Z" transform="translate(-260.65 -33.54)"/><path class="cls-1" d="M316.91,344.83l0,.41,0-.4Z" transform="translate(-260.65 -33.54)"/><path class="cls-1" d="M354.86,399l.2-.57c0,.09.08.2,0,.27a1.13,1.13,0,0,1-.25.29Z" transform="translate(-260.65 -33.54)"/><path class="cls-1" d="M443.56,407.86l.25-.56c-.06.2-.12.39-.17.59Z" transform="translate(-260.65 -33.54)"/><path class="cls-1" d="M444.56,316.18l.49,0-.49,0Z" transform="translate(-260.65 -33.54)"/><polygon class="cls-1" points="190.38 289.58 190.42 289.1 190.68 289.2 190.38 289.58"/><path class="cls-1" d="M481.44,375.17l.55.25-.57-.2Z" transform="translate(-260.65 -33.54)"/><path class="cls-1" d="M357.12,295.67l-.55-.2c.09,0,.2-.07.26,0a1.13,1.13,0,0,1,.29.25Z" transform="translate(-260.65 -33.54)"/><path class="cls-1" d="M487.47,292.16c-.73,0-1-.27-.5-.92l.12,0a4.79,4.79,0,0,0,.36.91Z" transform="translate(-260.65 -33.54)"/><path class="cls-1" d="M514.64,423.8c6-2.41,12.4-1.74,18.65-2.13,13.06-.81,26.13-1.61,39.22-1.39l-.08.33c-1.42.76-1.26,1.71-.4,2.83,6.09,7.93,12.71,15.36,20.81,21.29,4.69,3.43,8.6,7.63,12.65,11.72a7.27,7.27,0,0,1,2.07,4.34c.33,2.33-2,2.34-2.83,3.6-.65,1-2.18-.52-2.67-1.41-1.38-2.49-2.85-4.47-6.16-3.92-1.51.25-1.25-1.1-1.52-2-.17-.55-.66-1.38-1.09-1.43-4.17-.51-4.09-.58-7.66-3.48-2.59-2.09-2.91,1.87-5,2.11-1.4-2.68-3.44-4.47-6.13-1.21-3.3,4-6-.46-6.8-1.51-3.44-4.39-6.9-7.19-13-7s-10.21-4.52-14.54-7.89c-5.87-4.58-11.65-9.1-18.71-11.61-2.13-.76-4.5-.84-6.76-1.23Z" transform="translate(-260.65 -33.54)"/><path class="cls-1" d="M569,470.26c6.35,3.19,13.51,4.39,20.16,6.2a28.63,28.63,0,0,0,18-1.46c.81-.35,1.71-1.19,2.92.07-3.13,3.64-7.67,2-11.38,3-2.25.65-5.11-.13-4.39,4,.37,2.09-.86.4-1.54.39-1.71,0-4.27-.25-5,.72-3.23,4.34-6,1.41-8-.6-3.8-3.8-9.08-6.31-10.95-11.89Z" transform="translate(-260.65 -33.54)"/><path class="cls-1" d="M652.65,405.76c-.48.07-1.27.37-1.41.19-4.73-6.47-9.8-1.28-14.32,0-3.17.94,1.4,3.71,0,6.2-1.44-6.29-4.72-4.33-8.91-3-7.46,2.32-14.63,5.9-22.66,6.18l0-.06c11.68-5,24.14-7.66,35.89-12.33,5-2,8.71-2.59,11.41,2.84Z" transform="translate(-260.65 -33.54)"/><path class="cls-1" d="M593.69,339.15c12.27-2.72,24.79-2.77,37.13-4.69.07.55.13,1.1.19,1.64-5.92.68-11.83,1.52-17.76,2-6.71.54-6.73.4-4,6.53.47,1.05,1,2.08,1.54,3.37-.62-.11-1-.12-1-.19-1.77-9.76-9.51-8-16.15-8.4Z" transform="translate(-260.65 -33.54)"/><path class="cls-1" d="M516.58,305.25c3.27-1.11,6.48-2.74,9.85-3.18,3.57-.47,6-2.5,8.76-4.26,1.94-1.24,3-4.15,6.17-3,2.93,1.09.49,4.25,1.6,4.88-.87-2.35-3-3.08-5.78-.55-2.16,2-7.13.68-6.61,5.74,0,.18-.23.39-.36.59-4.17-4.78-8,1.37-12,.4a5.88,5.88,0,0,0-1.39,0Z" transform="translate(-260.65 -33.54)"/><path class="cls-1" d="M621.31,243.41c11.17-2.66,22.48-4.84,33.46-8.24C644.26,240.35,632.85,242.13,621.31,243.41Z" transform="translate(-260.65 -33.54)"/><path class="cls-1" d="M491.94,338c8.66-2.81,17.18-6.24,27.8-6.39A183.45,183.45,0,0,1,491.94,338Z" transform="translate(-260.65 -33.54)"/><path class="cls-1" d="M591.27,151.27c-5.06.69-8.91,4.1-13.36,6.14-4,1.83-5.27.47-6.09-4.93,2.69,5.09,5.22,3.2,7.69,2s5.32-2.15,7.49-3.85,3-.17,4.28.59Z" transform="translate(-260.65 -33.54)"/><path class="cls-1" d="M667.54,325.3l-19.35,8.84c-.25-.6-.5-1.21-.74-1.81,7.1-1.35,12.86-6,20.08-7Z" transform="translate(-260.65 -33.54)"/><path class="cls-1" d="M559.71,315.93c-3.51-.42-4.56-3.6-7-4.77-.94-.44-.31-1.8.1-2.71s.85-1.43,1.86-1.23,2,.86,1.89,1.93C556.14,312,558.57,313.44,559.71,315.93Z" transform="translate(-260.65 -33.54)"/><path class="cls-1" d="M570.59,295.89,582.25,307c-5.49-2.07-9.68-5.44-11.73-11Z" transform="translate(-260.65 -33.54)"/><path class="cls-1" d="M562.86,361.24c-4.07-1.17-6.5,1.89-9.52,4.16-.15-4,6.33-4.82,2.28-10.19l7.37,5.68Z" transform="translate(-260.65 -33.54)"/><path class="cls-1" d="M667.53,325.31c5.31-2.89,11.36-4.42,15.59-9.23-3.33,6.4-9.48,7.77-15.58,9.22Z" transform="translate(-260.65 -33.54)"/><path class="cls-1" d="M435.23,327.05c-5.54.15-8.33,6.36-14,6.19,5.06-1.21,7.36-8.51,14-6.22Z" transform="translate(-260.65 -33.54)"/><path class="cls-1" d="M514,403.17c-1.73,5.3-7.19,7.09-10.22,11.17A31.82,31.82,0,0,1,514,403.19Z" transform="translate(-260.65 -33.54)"/><path class="cls-1" d="M499.68,309.61c5.23-1.95,9.78-1.85,13.85-3.57C509.7,308.45,505.93,311,499.68,309.61Z" transform="translate(-260.65 -33.54)"/><path class="cls-1" d="M518.62,398.86c.76-3.16-2.88-4-3.68-7.13,3.32,1.45,4.77,5.89,9.25,4.08a36,36,0,0,0-5.54,3.06Z" transform="translate(-260.65 -33.54)"/><path class="cls-1" d="M511.11,358.32l-14.28,4c4.38-2.72,9-4.57,14.27-4Z" transform="translate(-260.65 -33.54)"/><path class="cls-1" d="M666.19,232.4c-2.09,3.06-5.55,1.87-8.38,2.77C660.08,232.86,663.33,233.19,666.19,232.4Z" transform="translate(-260.65 -33.54)"/><path class="cls-1" d="M581.36,281.12c-2.57,4.13-7.37,5-11.07,7.46a35.83,35.83,0,0,1,11.09-7.45Z" transform="translate(-260.65 -33.54)"/><path class="cls-1" d="M657.89,409.92c3.27.93,5.34,3.39,7.26,6.06-2.9-1.36-5.76-2.78-7.32-5.92Z" transform="translate(-260.65 -33.54)"/><path class="cls-1" d="M618.21,185.07c1.78,3.25,4.09,6.31,4.26,11.32C619.19,192.47,620.29,188.22,618.21,185.07Z" transform="translate(-260.65 -33.54)"/><path class="cls-1" d="M537.44,384.88c-2.87-1-4.17,2.15-6.65,2.25,2.31-.71,2.09-7.47,6.75-2.51Z" transform="translate(-260.65 -33.54)"/><path class="cls-1" d="M622.32,370.41l11.5-5.25.19.36-11.38,5.21Z" transform="translate(-260.65 -33.54)"/><path class="cls-1" d="M630.69,278.37c-2.94,1.59-6,1.43-10.06.37a18,18,0,0,1,10.06-.37Z" transform="translate(-260.65 -33.54)"/><path class="cls-1" d="M680.94,270.39c-2.72,1.27-5.15,3.42-9.06,2.89C674.83,270.87,678.07,271.19,680.94,270.39Z" transform="translate(-260.65 -33.54)"/><path class="cls-1" d="M534.5,282.87c5.3-2.46,6,1.47,7.85,3.25C539.65,285.86,538.46,282.85,534.5,282.87Z" transform="translate(-260.65 -33.54)"/><path class="cls-1" d="M490.26,288.68c1.75-2.27,3.28-4.78,6.37-6.12-.61,4-3.62,4.91-6.36,6.13Z" transform="translate(-260.65 -33.54)"/><path class="cls-1" d="M514.62,370.92,512.27,365C515.62,366.17,515,368.57,514.62,370.92Z" transform="translate(-260.65 -33.54)"/><path class="cls-1" d="M630.32,312.78c-4.14-1.69-4.21-4.77-5.45-7C626.41,307.75,627.94,309.72,630.32,312.78Z" transform="translate(-260.65 -33.54)"/><path class="cls-1" d="M573.05,345c1.37-3.43,2.41-5.45,4.9-6.12.16-.05.71.5.67.63C577.76,341.88,575.2,342.26,573.05,345Z" transform="translate(-260.65 -33.54)"/><path class="cls-1" d="M497.7,282.13c1.72-3.48,3.33-5.06,6.28-6.2C502.65,278.79,500.69,280,497.7,282.13Z" transform="translate(-260.65 -33.54)"/><path class="cls-1" d="M519.63,357.72c-2.82.48-5.54,2.37-8.52.6v0c2.83-.37,5.54-2.4,8.52-.6Z" transform="translate(-260.65 -33.54)"/><path class="cls-1" d="M617.83,388.24c.46,2,.92,4,1.69,7.32C616.75,392.75,617.33,390.51,617.83,388.24Z" transform="translate(-260.65 -33.54)"/><path class="cls-1" d="M616.82,357c-4.45.94-3.52-3.06-5-4.93C614.16,353,613.18,357.34,616.82,357Z" transform="translate(-260.65 -33.54)"/><path class="cls-1" d="M591.61,231.39c-4.42,2.63-3.48-1.74-5.34-4.21l5.35,4.17Z" transform="translate(-260.65 -33.54)"/><path class="cls-1" d="M618.1,398c2.17,1.46,1.34,3.43,1.39,6.49C617.82,401.81,618.82,399.73,618.1,398Z" transform="translate(-260.65 -33.54)"/><path class="cls-1" d="M506.43,273.58c2.77-3.05,2.77-3.05,6.09-3.77-1.76,2.36-4.17,2.68-6,3.79Z" transform="translate(-260.65 -33.54)"/><path class="cls-1" d="M588.93,317.16,587.32,313c3.55,1.68,3.55,1.68,1.87,4.28Z" transform="translate(-260.65 -33.54)"/><path class="cls-1" d="M596.49,232.43c2-.38,4-.86,6.06,1.35-2.67.77-4.37-.28-6-1.35Z" transform="translate(-260.65 -33.54)"/><path class="cls-1" d="M593.62,339.4a11.77,11.77,0,0,1-7.62.21l.07-.26c2.52-.73,5-1.49,7.62-.2Z" transform="translate(-260.65 -33.54)"/><path class="cls-1" d="M583.8,187.1c1.78-1.5,3.12-.85,5.37-.72C587.1,188,585.73,187.72,583.8,187.1Z" transform="translate(-260.65 -33.54)"/><path class="cls-1" d="M543.67,374.23c0-2.54,1.92-3.12,4.08-3.78-.6,2.34-2.39,3-4.09,3.78Z" transform="translate(-260.65 -33.54)"/><path class="cls-1" d="M637,277.72c-2,1-4.05,1.71-6.28.65h0a7.58,7.58,0,0,1,6.3-.69Z" transform="translate(-260.65 -33.54)"/><path class="cls-1" d="M511.5,424.11c-1.69.71-3.33,1.75-5.52.78,1.84-1.61,3.64-1.41,5.51-.75Z" transform="translate(-260.65 -33.54)"/><path class="cls-1" d="M524.59,279.6c-2.71.75-2.74-1.37-3.37-3.09,2.1.14,2.67,1.68,3.38,3.08Z" transform="translate(-260.65 -33.54)"/><path class="cls-1" d="M518.65,398.87c-.69,2.37-2.6,3.42-4.66,4.3l0,0c.72-2.3,2.48-3.51,4.59-4.33Z" transform="translate(-260.65 -33.54)"/><path class="cls-1" d="M557.32,291c1.65-.74,3.28-1.54,5.75-.72a5.36,5.36,0,0,1-5.79.85Z" transform="translate(-260.65 -33.54)"/><path class="cls-1" d="M618.87,278.82c-1.14,1.06-2.24,1.78-3.49.46C616.44,277.87,617.74,278.63,618.87,278.82Z" transform="translate(-260.65 -33.54)"/><path class="cls-1" d="M419.77,335.52c0,2-1.11,2.44-2.45,2.71C417.2,336.46,418.32,336,419.77,335.52Z" transform="translate(-260.65 -33.54)"/><path class="cls-1" d="M397.21,392.85c.06,1.21,2.26.88,1.75,2.25a2.26,2.26,0,0,1-2.1.6c-1.23-.88-.43-2,.19-2.91Z" transform="translate(-260.65 -33.54)"/><path class="cls-1" d="M526.73,392a8.56,8.56,0,0,1-1.12,1.3c-.34.27-1.08.39-1-.27a2.8,2.8,0,0,1,1-1.54C525.87,391.19,526.43,391.07,526.73,392Z" transform="translate(-260.65 -33.54)"/><path class="cls-1" d="M533.4,282.92c-1.37,1-2.43,1.75-3.06.79-.8-1.25.57-1,1.23-1.09A8.59,8.59,0,0,1,533.4,282.92Z" transform="translate(-260.65 -33.54)"/><path class="cls-1" d="M500.79,416.05c.43.15,1,.2,1.1.41.22.76-.41,1.13-1,1.37a3.1,3.1,0,0,1-1.13,0Z" transform="translate(-260.65 -33.54)"/><path class="cls-1" d="M547,304.6c-1,.28-2,.42-2.34-.87-.08-.3.29-1.05.51-1.08,1.28-.13,1.39,1.08,1.87,1.85Z" transform="translate(-260.65 -33.54)"/><path class="cls-1" d="M569.62,322.8c-1.94,0-2.88-1.19-3.48-2.81v0c1.93,0,2.88,1.17,3.49,2.8Z" transform="translate(-260.65 -33.54)"/><path class="cls-1" d="M570.52,296c-2.12-.64-2.29-2.49-2-4.6l2,4.46Z" transform="translate(-260.65 -33.54)"/><path class="cls-1" d="M586,311.51c-1.25.07-2.41-.63-2.17-1.49.46-1.69,1.31-.35,1.83.18C585.87,310.47,585.84,311,586,311.51Z" transform="translate(-260.65 -33.54)"/><path class="cls-1" d="M577.94,187c1.19-.37,2.35-1.15,3.67-.11-1.21,1.59-2.43,1-3.66.1Z" transform="translate(-260.65 -33.54)"/><path class="cls-1" d="M691.35,394.76,693.3,399C691.53,397.48,691.13,396.26,691.35,394.76Z" transform="translate(-260.65 -33.54)"/><path class="cls-1" d="M516.24,263.65c-.48,1.34-1.12,2.5-2.84,2.84-.16-2.28,1.8-2.07,2.76-2.87Z" transform="translate(-260.65 -33.54)"/><path class="cls-1" d="M531.24,332.65l4.22-1.93c-1.37,2.1-2.56,2.62-4.21,1.89Z" transform="translate(-260.65 -33.54)"/><path class="cls-1" d="M566.14,320c-1,0-1.91-.1-2.35-1.11-.22-.5.05-1,.63-.89,1.13.12,1.28,1.19,1.73,2Z" transform="translate(-260.65 -33.54)"/><path class="cls-1" d="M610.78,280.77c.11-1.1.24-2.21,1.63-2.39.15,0,.51.44.5.65-.08,1.12-1.1,1.36-1.86,1.84Z" transform="translate(-260.65 -33.54)"/><path class="cls-1" d="M535.19,363.25c.13.66.08,1.17-.57,1a1.81,1.81,0,0,1-1-.84.6.6,0,0,1,.64-.89C534.61,362.58,534.93,363,535.19,363.25Z" transform="translate(-260.65 -33.54)"/><path class="cls-1" d="M472.89,375.84c-1,.34-1.94.46-2.36-.79-.08-.22.07-.75.2-.78,1.2-.26,1.68.64,2.2,1.46Z" transform="translate(-260.65 -33.54)"/><path class="cls-1" d="M577.5,328c1.42.25,1.91,1.39,2.51,2.59-2.15.3-1.77-1.69-2.51-2.59Z" transform="translate(-260.65 -33.54)"/><path class="cls-1" d="M616.84,303.42c.91-.24,1.84-.63,2.61.28.07.08-.15.58-.34.68-1.13.57-1.75-.12-2.26-1Z" transform="translate(-260.65 -33.54)"/><path class="cls-1" d="M557.28,291.1c-1.33.4-2.49,1.65-4.06.79l0-.21c1.32-.42,2.51-1.55,4.05-.71Z" transform="translate(-260.65 -33.54)"/><path class="cls-1" d="M564.74,191.93l-.77-1.82v0c.73-.08,1.65-.51,1.92.51.09.33-.66.88-1,1.33Z" transform="translate(-260.65 -33.54)"/><path class="cls-1" d="M594.93,462.6l-.74-.36.61-.95c.21.2.55.39.58.61S595.1,462.36,594.93,462.6Z" transform="translate(-260.65 -33.54)"/><path class="cls-1" d="M561.54,253c.41.1.87.13.89.24a2.23,2.23,0,0,1,0,1.38c-.49.77-.81,0-.92-.32A3.84,3.84,0,0,1,561.54,253Z" transform="translate(-260.65 -33.54)"/><path class="cls-1" d="M553.4,248.88c-.77.26-1.54.49-2-.46a.49.49,0,0,1,.15-.43c1-.53,1.4.22,1.9.81Z" transform="translate(-260.65 -33.54)"/><path class="cls-1" d="M439.4,319.6l.2-1.26a6.53,6.53,0,0,1,.9,1.08c.13.24,0,.62,0,.93Z" transform="translate(-260.65 -33.54)"/><path class="cls-1" d="M511.49,424.14c1-.42,2-1.11,3.15-.34v0c-1,.4-2,1.11-3.15.35Z" transform="translate(-260.65 -33.54)"/><path class="cls-1" d="M546.78,246.38l1.77.66-.46.58-1.3-1.28Z" transform="translate(-260.65 -33.54)"/><path class="cls-1" d="M564.9,469.16l-1.75-.21.15-.71,1.73.56Z" transform="translate(-260.65 -33.54)"/><path class="cls-1" d="M616.85,303.37l-1.77.07.07-.73,1.69.71Z" transform="translate(-260.65 -33.54)"/><path class="cls-1" d="M564,190.11l-1.76.06.06-.7,1.69.67Z" transform="translate(-260.65 -33.54)"/><path class="cls-1" d="M525.92,280.09a1.56,1.56,0,0,1,1.54,1.47c0,.12-.16.27-.25.4l-1.29-1.88Z" transform="translate(-260.65 -33.54)"/><path class="cls-1" d="M582.92,339.74c1-.43,2-1.08,3.15-.39l-.07.26c-1,.37-2,1-3.12.26Z" transform="translate(-260.65 -33.54)"/><path class="cls-1" d="M538.87,330.87c.14-.27.19-.56.37-.68s.63-.34.81-.24c.73.41.16.71-.2.89A2.75,2.75,0,0,1,538.87,330.87Z" transform="translate(-260.65 -33.54)"/><path class="cls-1" d="M622.13,198.33c.25.21.56.35.67.58a2.11,2.11,0,0,1,0,.86c-.23-.18-.55-.31-.66-.54A2.3,2.3,0,0,1,622.13,198.33Z" transform="translate(-260.65 -33.54)"/><path class="cls-1" d="M686.64,393.52l-1.7-.53.38-.57,1.3,1.14Z" transform="translate(-260.65 -33.54)"/><path class="cls-1" d="M606.69,235.45,605,234.9l.4-.59,1.32,1.18Z" transform="translate(-260.65 -33.54)"/><path class="cls-1" d="M438.34,326.8c-1,.37-2,1.05-3.11.25v0c1-.48,2-1.13,3.15-.42Z" transform="translate(-260.65 -33.54)"/><path class="cls-1" d="M553.22,291.89l-2.18.41c0-.16,0-.37.1-.45a1.63,1.63,0,0,1,2.13-.16Z" transform="translate(-260.65 -33.54)"/><path class="cls-1" d="M464.82,358.33c-.18-.22-.5-.44-.48-.62s.32-.46.5-.69c.18.21.5.44.49.65S465,358.11,464.82,358.33Z" transform="translate(-260.65 -33.54)"/><path class="cls-1" d="M538.1,366.9l-1.1-.55.34-.5.78,1Z" transform="translate(-260.65 -33.54)"/><path class="cls-1" d="M561.66,316.84c.08.09.23.21.21.29s-.17.2-.27.3l-.37-.5Z" transform="translate(-260.65 -33.54)"/><path class="cls-1" d="M578,187a2.13,2.13,0,0,1-2.24-.08v0a2.2,2.2,0,0,1,2.23.07Z" transform="translate(-260.65 -33.54)"/><path class="cls-1" d="M511.35,232.17l.28-.29.35.48a.93.93,0,0,1-.41.09C511.48,232.43,511.42,232.27,511.35,232.17Z" transform="translate(-260.65 -33.54)"/><path class="cls-1" d="M516.16,263.62c.23-.39.45-.78.7-1.15,0,0,.27.14.42.21l-1,1Z" transform="translate(-260.65 -33.54)"/><path class="cls-1" d="M547,304.5c.39.24.78.47,1.15.73a4.64,4.64,0,0,1-.23.41l-1-1Z" transform="translate(-260.65 -33.54)"/><path class="cls-1" d="M540.44,377.54c0-.11-.12-.24-.09-.3s.21-.24.32-.24c.46,0,.53.2.16.49C540.75,377.56,540.58,377.52,540.44,377.54Z" transform="translate(-260.65 -33.54)"/><path class="cls-1" d="M573.76,164.35l.3.31-.49.35a1.32,1.32,0,0,1-.09-.43C573.49,164.49,573.66,164.43,573.76,164.35Z" transform="translate(-260.65 -33.54)"/><path class="cls-1" d="M529.81,360.8c-.39-.22-.78-.45-1.15-.7a4,4,0,0,1,.22-.4l1,1Z" transform="translate(-260.65 -33.54)"/><path class="cls-1" d="M393.39,403c.11,0,.24-.13.31-.09s.15.19.23.3l-.51.18Z" transform="translate(-260.65 -33.54)"/><path class="cls-1" d="M582.88,339.87l-1.43.17a2.61,2.61,0,0,1,.11-.45c.45,0,.9.09,1.36.15Z" transform="translate(-260.65 -33.54)"/><path class="cls-1" d="M574,325.15c.39.24.78.47,1.15.73a3.81,3.81,0,0,1-.24.39l-.92-1.08Z" transform="translate(-260.65 -33.54)"/><path class="cls-1" d="M637,277.68l1.4-.16a3.09,3.09,0,0,1-.12.45c-.43-.07-.86-.16-1.3-.25Z" transform="translate(-260.65 -33.54)"/><path class="cls-1" d="M528.26,389.4l.28-.27.3.41a.92.92,0,0,1-.38.09C528.39,389.62,528.33,389.48,528.26,389.4Z" transform="translate(-260.65 -33.54)"/><path class="cls-1" d="M490.27,288.69c0,.94-.65,1.39-1.39,1.75l0,0c0-.94.67-1.37,1.41-1.74Z" transform="translate(-260.65 -33.54)"/><path class="cls-1" d="M414.54,340.3c.09-.11.17-.27.28-.31s.27,0,.41.07c-.1.11-.17.27-.28.32S414.68,340.33,414.54,340.3Z" transform="translate(-260.65 -33.54)"/><path class="cls-1" d="M487.45,292.19a4.79,4.79,0,0,1-.36-.91l1.76-.86,0,0A1.91,1.91,0,0,1,487.45,292.19Z" transform="translate(-260.65 -33.54)"/><path class="cls-1" d="M467.89,371.17c.1,0,.23-.13.3-.09a.46.46,0,0,1,.22.3c0,.44-.2.51-.48.17C467.86,371.47,467.9,371.3,467.89,371.17Z" transform="translate(-260.65 -33.54)"/><path class="cls-1" d="M594.62,440l-.64,1.11c-.77-.94.44-.73.65-1.11Z" transform="translate(-260.65 -33.54)"/><path class="cls-1" d="M551.08,367.16c0-.11-.14-.25-.1-.31a.51.51,0,0,1,.33-.24c.48,0,.55.2.17.5C551.39,367.18,551.21,367.14,551.08,367.16Z" transform="translate(-260.65 -33.54)"/><path class="cls-1" d="M544.78,201.09l-.62,1c-.67-.89.48-.66.64-1Z" transform="translate(-260.65 -33.54)"/><path class="cls-1" d="M506.47,273.6c-.23.39-.46.78-.72,1.15,0,0-.26-.15-.4-.23l1.08-.94Z" transform="translate(-260.65 -33.54)"/><path class="cls-1" d="M553.86,198.36l-.26-.26.42-.3c0,.13.11.25.09.37S554,198.3,553.86,198.36Z" transform="translate(-260.65 -33.54)"/><path class="cls-1" d="M655,408.07v-.38l.55.29c-.07.1-.14.28-.22.28S655.11,408.14,655,408.07Z" transform="translate(-260.65 -33.54)"/><path class="cls-1" d="M559,187.65l.32.2-.32.42c-.07-.11-.19-.21-.2-.33S558.92,187.75,559,187.65Z" transform="translate(-260.65 -33.54)"/><path class="cls-1" d="M670.15,423l0,.4a4.27,4.27,0,0,1-.53-.24s.09-.24.14-.37Z" transform="translate(-260.65 -33.54)"/><path class="cls-1" d="M667.41,417.4l.29.28-.46.33a1.16,1.16,0,0,1-.09-.4C667.16,417.53,667.32,417.47,667.41,417.4Z" transform="translate(-260.65 -33.54)"/><path class="cls-1" d="M669.79,420.48a4.69,4.69,0,0,1-.55-.54s.12-.23.19-.36a5.62,5.62,0,0,1,.55.54C670,420.17,669.86,420.36,669.79,420.48Z" transform="translate(-260.65 -33.54)"/><path class="cls-1" d="M539.85,368.27l1.13.67-.24.4-.9-1Z" transform="translate(-260.65 -33.54)"/><path class="cls-1" d="M539.84,368.29c-.92,0-1.37-.67-1.74-1.39l0,0c1,0,1.39.65,1.73,1.41Z" transform="translate(-260.65 -33.54)"/><path class="cls-1" d="M543.66,374.23l-.65,1.14c-.77-1,.43-.76.66-1.14Z" transform="translate(-260.65 -33.54)"/><path class="cls-1" d="M592.93,231.87a2,2,0,0,1,2.24.07h0a1.94,1.94,0,0,1-2.23-.09Z" transform="translate(-260.65 -33.54)"/><path class="cls-1" d="M575.71,187l-1.35.22c.29-1.12.85-.47,1.35-.2Z" transform="translate(-260.65 -33.54)"/><path class="cls-1" d="M388.07,396.94l.57.29-.62-.18Z" transform="translate(-260.65 -33.54)"/><path class="cls-1" d="M393.16,391.36l.48,0-.48,0Z" transform="translate(-260.65 -33.54)"/><path class="cls-1" d="M397.05,392.79l.3-.58c-.05.21-.09.43-.14.64Z" transform="translate(-260.65 -33.54)"/><path class="cls-1" d="M468.57,359.08l-.57-.2c.09,0,.2-.08.27-.05a1.8,1.8,0,0,1,.3.26Z" transform="translate(-260.65 -33.54)"/><path class="cls-1" d="M566.21,469.7l-1.31-.55.13-.35,1.34.46Z" transform="translate(-260.65 -33.54)"/><path class="cls-1" d="M566.37,469.26l1.32.52-.16.42-1.32-.51Z" transform="translate(-260.65 -33.54)"/><path class="cls-1" d="M568.84,470.69l-1.31-.49.16-.42,1.3.48Z" transform="translate(-260.65 -33.54)"/><path class="cls-1" d="M528.38,261.32l.61.35-.67-.2Z" transform="translate(-260.65 -33.54)"/><path class="cls-1" d="M563,360.89l.6.42-.73-.07Z" transform="translate(-260.65 -33.54)"/><path class="cls-1" d="M524.6,279.59l1.32.5h0l-1.33-.48Z" transform="translate(-260.65 -33.54)"/><path class="cls-1" d="M569.64,322.76l1.33.47,0,.09-1.32-.52Z" transform="translate(-260.65 -33.54)"/><path class="cls-1" d="M571,323.23l.57.28-.6-.19Z" transform="translate(-260.65 -33.54)"/><path class="cls-1" d="M574,325.19l-.58-.23.59.19Z" transform="translate(-260.65 -33.54)"/><path class="cls-1" d="M577.5,328l-.59-.22c.09,0,.21-.08.28-.05a1.58,1.58,0,0,1,.31.27Z" transform="translate(-260.65 -33.54)"/><path class="cls-1" d="M542.78,245l-.64-.29.7.14Z" transform="translate(-260.65 -33.54)"/><path class="cls-1" d="M519,274.44l.62.29-.64-.22Z" transform="translate(-260.65 -33.54)"/><path class="cls-1" d="M557.79,251.28l-.59-.32.63.19Z" transform="translate(-260.65 -33.54)"/><path class="cls-1" d="M550.73,197.29h.49l-.48,0Z" transform="translate(-260.65 -33.54)"/><path class="cls-1" d="M652.64,405.79l.53.25c-.09,0-.2,0-.26,0a1.16,1.16,0,0,1-.26-.28Z" transform="translate(-260.65 -33.54)"/><path class="cls-1" d="M589.19,317.26l-.6,1.27-.05,0,.39-1.35Z" transform="translate(-260.65 -33.54)"/><path class="cls-1" d="M634.9,362.2v.47l.05-.46Z" transform="translate(-260.65 -33.54)"/><path class="cls-1" d="M657.83,410.06l-.59-.3.64.16Z" transform="translate(-260.65 -33.54)"/><path class="cls-1" d="M634.94,362.21l0-.47c0,.15,0,.31-.07.46Z" transform="translate(-260.65 -33.54)"/><path class="cls-1" d="M542.94,331.59l.6.35-.67-.16Z" transform="translate(-260.65 -33.54)"/><path class="cls-1" d="M556.05,187.08l.6.3-.66-.14Z" transform="translate(-260.65 -33.54)"/><path class="cls-1" d="M531.25,332.61h-.46l.45,0Z" transform="translate(-260.65 -33.54)"/><path class="cls-1" d="M563.42,196l-.33.61c0-.22.09-.45.14-.68Z" transform="translate(-260.65 -33.54)"/><path class="cls-1" d="M559.12,251.75l-1.33-.47,0-.13,1.32.52Z" transform="translate(-260.65 -33.54)"/><path class="cls-1" d="M563.9,194.62l-.48,1.33-.19-.07.51-1.31Z" transform="translate(-260.65 -33.54)"/><path class="cls-1" d="M564.37,193.29c-.16.45-.31.89-.47,1.33l-.16-.05.51-1.32Z" transform="translate(-260.65 -33.54)"/><path class="cls-1" d="M542.87,331.78l-.61-.34.68.15Z" transform="translate(-260.65 -33.54)"/><path class="cls-1" d="M545.92,333.79l-.61-.46.76.06Z" transform="translate(-260.65 -33.54)"/><path class="cls-1" d="M564.86,192c-.17.43-.33.87-.49,1.31l-.12,0,.49-1.32Z" transform="translate(-260.65 -33.54)"/><path class="cls-1" d="M518.94,274.51l-.58-.25.6.18Z" transform="translate(-260.65 -33.54)"/><path class="cls-1" d="M525.69,260.47l-.59-.27.63.14Z" transform="translate(-260.65 -33.54)"/><path class="cls-1" d="M610.5,282.16l-.38.62.21-.68Z" transform="translate(-260.65 -33.54)"/><path class="cls-1" d="M610.33,282.1l.45-1.33.27.1c-.18.43-.37.86-.56,1.29Z" transform="translate(-260.65 -33.54)"/><path class="cls-1" d="M529.83,360.74l1.37.4-.11.3-1.28-.64Z" transform="translate(-260.65 -33.54)"/><path class="cls-1" d="M559.15,251.67l.59.28-.62-.2Z" transform="translate(-260.65 -33.54)"/><path class="cls-1" d="M592.94,231.85l-1.33-.46v0l1.31.52Z" transform="translate(-260.65 -33.54)"/><path class="cls-1" d="M554.74,249.3l.53.28-.54-.24Z" transform="translate(-260.65 -33.54)"/><path class="cls-1" d="M588.05,319.84l0,.44.09-.42Z" transform="translate(-260.65 -33.54)"/><path class="cls-1" d="M538.84,204.91l.57.19c-.09,0-.2.08-.27.05a1.13,1.13,0,0,1-.3-.24Z" transform="translate(-260.65 -33.54)"/><path class="cls-1" d="M581.38,281.13l.21-.55c0,.09.07.21,0,.27a1.33,1.33,0,0,1-.26.27Z" transform="translate(-260.65 -33.54)"/><path class="cls-1" d="M596.5,232.43l-1.33-.49h0l1.32.49Z" transform="translate(-260.65 -33.54)"/><path class="cls-1" d="M542.4,205.48l-.49,0,.48,0Z" transform="translate(-260.65 -33.54)"/><path class="cls-1" d="M542.39,205.49l1.32.5v0l-1.32-.48Z" transform="translate(-260.65 -33.54)"/><path class="cls-1" d="M543.71,206l1.33.5v0l-1.33-.48Z" transform="translate(-260.65 -33.54)"/><path class="cls-1" d="M545.46,245.86l1.32.52v0l-1.34-.46Z" transform="translate(-260.65 -33.54)"/><path class="cls-1" d="M544.15,245.32l1.31.54v0l-1.35-.43Z" transform="translate(-260.65 -33.54)"/><path class="cls-1" d="M531.2,361.14l.59.42-.7-.12Z" transform="translate(-260.65 -33.54)"/><path class="cls-1" d="M588.1,319.86c.15-.45.29-.9.44-1.35l.05,0-.54,1.31Z" transform="translate(-260.65 -33.54)"/><path class="cls-1" d="M678.27,389.66h-.49l.48,0Z" transform="translate(-260.65 -33.54)"/><path class="cls-1" d="M606.67,235.49l.56.15c-.08,0-.19.07-.25,0a1.28,1.28,0,0,1-.29-.23Z" transform="translate(-260.65 -33.54)"/><path class="cls-1" d="M574.13,161.45l-.44.6,0-.75Z" transform="translate(-260.65 -33.54)"/><path class="cls-1" d="M678.26,389.68l1.32.5v0l-1.32-.49Z" transform="translate(-260.65 -33.54)"/><path class="cls-1" d="M573.71,161.3a4,4,0,0,1,.26-.7c.7.14.33.52.16.85Z" transform="translate(-260.65 -33.54)"/><path class="cls-1" d="M680.92,390.64l-1.33-.49v0l1.33.49Z" transform="translate(-260.65 -33.54)"/><path class="cls-1" d="M610.23,236.08l-.61-.23.64.16Z" transform="translate(-260.65 -33.54)"/><path class="cls-1" d="M682.25,391.14l-1.33-.5v0l1.32.49Z" transform="translate(-260.65 -33.54)"/><path class="cls-1" d="M610.26,236l.54.27-.57-.2Z" transform="translate(-260.65 -33.54)"/><path class="cls-1" d="M682.23,391.16l.45.06-.43-.08Z" transform="translate(-260.65 -33.54)"/><path class="cls-1" d="M545,206.49l.49,0-.48-.07Z" transform="translate(-260.65 -33.54)"/><path class="cls-1" d="M542.84,244.82l1.31.5,0,.13-1.32-.48Z" transform="translate(-260.65 -33.54)"/><path class="cls-1" d="M686.62,393.56h.46l-.44,0Z" transform="translate(-260.65 -33.54)"/><path class="cls-1" d="M537.54,384.62l.6.37-.7-.11Z" transform="translate(-260.65 -33.54)"/><path class="cls-1" d="M527,260.86l1.34.46-.06.15-1.3-.55Z" transform="translate(-260.65 -33.54)"/><path class="cls-1" d="M525.73,260.34l1.31.52,0,.06-1.33-.45Z" transform="translate(-260.65 -33.54)"/><path class="cls-1" d="M591.28,151.24l.43.06-.44,0Z" transform="translate(-260.65 -33.54)"/><path class="cls-1" d="M546.07,333.39l.59.46-.74-.06Z" transform="translate(-260.65 -33.54)"/><path class="cls-1" d="M554.73,249.34l-1.33-.46,0-.08,1.31.5Z" transform="translate(-260.65 -33.54)"/><path class="cls-1" d="M519.62,357.74l.57.19c-.09,0-.2.07-.27,0a2.26,2.26,0,0,1-.29-.25Z" transform="translate(-260.65 -33.54)"/><path class="cls-1" d="M669.41,233.18h0Z" transform="translate(-260.65 -33.54)"/><path class="cls-1" d="M669.4,233.2l.47.07-.46-.09Z" transform="translate(-260.65 -33.54)"/><path class="cls-1" d="M672.47,235.1l-.56-.25.58.21Z" transform="translate(-260.65 -33.54)"/><path class="cls-1" d="M672.49,235.06l.56.22-.58-.18Z" transform="translate(-260.65 -33.54)"/><path class="cls-1" d="M651,428.55a1.57,1.57,0,0,1,1.49,1.44c0,.12-.16.25-.24.38L651,428.54Z" transform="translate(-260.65 -33.54)"/></svg>