<svg id="Layer_1" data-name="Layer 1" xmlns="http://www.w3.org/2000/svg" viewBox="0 0 333.82 432"><defs><style>.cls-1{fill:#8dc63f;}</style></defs><title>rubber</title><path class="cls-1" d="M173.22,45.78c2,3.25,3.79,6.67,5.91,9.69,1.38,2,1.45,4.05,1.37,6.46q-1.73,49.51-3.38,99c-.18,5.56.09,11.14,0,16.7-.46,23.31-.85,46.63-1.51,69.93q-1.07,38-2.61,76c-.74,18.79-1.94,37.55-2.55,56.35-.21,6.62.75,13.31,1.13,20a38.2,38.2,0,0,1-.17,3.84l-3.67-2.56c.45-7.49.62-14.79-6.13-17.41-7.13-9.51-16.08-15.07-24.57-21.6a35,35,0,0,1-10.12-12.73c-1.54-3.11-3.27-6-5.38-9.9l5.91-1.15,0-1.5a29.67,29.67,0,0,0-1.9-3.44c-3.69-4.91-7.55-9.59-11.12-14.66a40.71,40.71,0,0,1-3.75-7.82,3.94,3.94,0,0,1,.31-2.87,3.09,3.09,0,0,1,2.84-.77,8.62,8.62,0,0,1,3.12,2.95C122.3,318,128,325,134.87,330.15c2.55,1.93,5,3.74,7.93,3.29,4-.62,7.32,1.76,10.47,4.72,2.47,2.33,4.84,4.87,7.31,7.19a7.23,7.23,0,0,0,2.26,1,22.51,22.51,0,0,0,0-3.28,37.38,37.38,0,0,0-6.38-16.29c-.61-.93-1.06-2.05-1.59-3.07l.57-.81c1.5,1.86,3,3.7,4.48,5.58.51.63.89,1.71,1.46,1.92a20,20,0,0,0,3.86.7c-.14-1.53,0-3.25-.45-4.56-3.8-10.9-8.2-21.26-14.05-30.38-6.12-9.52-12.27-19-18.05-28.93-4-6.87-7.27-14.56-11.12-21.61-2.88-5.28-4.82-11.29-8.32-16.24-3-4.2-3.81-11.31-5.59-17.13l.82-1.18,8.76,3.92-2.4,1a18.48,18.48,0,0,0,.48,3.95c5.25,14.76,10.5,29.45,18.49,42,6.38,10,12.42,20.43,18.19,31.11,4.44,8.21,8.22,17.1,12.3,25.68.41.85.88,1.64,1.49,2.76,1.23-3,1.86-5.63,1-8.66q-4.2-14.11-8.35-28.25c-.19-.63-.38-1.27-.58-1.9l.78-.58q4.25,11.13,8.48,22.25a34.12,34.12,0,0,0,.26-14.74c-1.16-6.65-2.2-13.35-3.16-20.07a16.66,16.66,0,0,1,.44-4,18.57,18.57,0,0,1,2.29,1.61c1.4,1.33,2,.3,2.45-1.41a23.88,23.88,0,0,0-.05-11.15c-1.34-6.45-2.58-13-3.6-18.09.92,2.49,2.36,6.39,4.11,11.16a13.38,13.38,0,0,0,.66-3q-.77-7.2-1.66-14.36c-.41-3.24-.85-5.65,1.89-8.33,2.37-2.31,2.54-7.73,1.35-11.89-3-10.44-5.89-21-11.41-29.61-.38-.6-.66-1.32-1.35-2.69,6.73,6.77,9.08,16.94,13,25.51l.83-.51a21.38,21.38,0,0,0-.21-3.23c-1.29-6.14-2.56-12.29-4-18.36-1.07-4.46-.91-4.93,2.1-6.93a6,6,0,0,0,2.14-3.78c1.32-11.37,2-22.79.57-34.26a28.14,28.14,0,0,0-.88-4.44c-1.2-4-2.56-5.27-5.6-4.22a18.13,18.13,0,0,0-6.68,4c-1.91,1.86-3.14,1.52-4.32-.72a44,44,0,0,1-4.77-23.73,9.45,9.45,0,0,1,.38-1.45,30.78,30.78,0,0,0,4.21,2.19c.83.29,2.1.36,2.61-.3s.38-2.4.17-3.54c-.4-2.16-1.06-4.22-1.64-6.43C163.43,94,164.55,86.32,165,78.5c.47-8.56.43-17.17.65-25.75a33.46,33.46,0,0,1,.48-3.85c.49-3.27,1.42-5.83,4.36-5ZM154.29,355a14.22,14.22,0,0,0,2.56,1.35c.52.11,1.44,0,1.55-.39a3.76,3.76,0,0,0-.12-2.47c-3.1-3.66-6.27-7.2-9.48-10.66-.31-.34-1.12-.11-1.54.23a2.72,2.72,0,0,0,.09,1.87C149.77,348.51,152.27,352.05,154.29,355Z"/><path class="cls-1" d="M112.52,302.34l5,0a58.5,58.5,0,0,0-2.9-5.31,46.1,46.1,0,0,1-7.2-16.43c-.58-2.52-.31-3.37,1.75-3.38,3.18,0,4.84,3.23,6.85,5.61,3.53,4.2,6.73,9,10.33,13,3,3.35,6.28,6.06,9.45,9,2,1.88,1.88,2.46.22,4.89-.75,1.1-.75,3.3-.89,5-.16,2-.1,4.05-.14,6.08-1.35-.66-2.91-.94-4-2.06a79.35,79.35,0,0,1-7-8.22C120.77,306.25,116.78,304.2,112.52,302.34Z"/><path class="cls-1" d="M155.28,238c-2.11-3.29-4.29-6.49-6.31-9.88-5.35-9-8.57-19.55-11.91-30.08-1.13-3.54-2.27-7.94-4.38-9.84-5.15-4.64-3.77-11.27-3.52-17.31.23-5.35,1.52-10.64,2.49-15.9.14-.78,1.07-1.3,1.63-1.93.11,1,.59,2.51.27,3-2.43,3.87-1.76,8.13-.67,12.1,3.08,11.29,6,22.69,9.76,33.58,2.91,8.51,7,16.26,10.33,24.48,1.4,3.4,2.34,7.15,3.49,10.74Z"/><path class="cls-1" d="M119.08,187.8c3.12,2.18,6.2,4.5,9.4,6.43.78.47,2-.36,3.09-.62.33,11,4.54,21.35,8.29,31.71,3.66,10.15,8.34,19.61,12.57,29.36l-.56.71a6,6,0,0,1-1.52-1.35c-7.21-12.19-13.78-24.9-18.6-39.33-2.49-7.45-5.88-14.34-9-21.32-.92-2-2.48-3.49-3.74-5.21Z"/><path class="cls-1" d="M104.76,244.91c.77,2.33,1.21,5,2.36,6.92,5.55,9.12,11.09,18.27,17,26.92,4.15,6.07,8.9,11.34,13.38,17l3.69,4.66-.43,1.15c-1.26-.61-2.74-.8-3.73-1.88-5.08-5.53-10.17-11.09-15-17-2.84-3.51-5.17-7.82-7.79-11.7a23.59,23.59,0,0,0-3.41-4.27c-.94-.85-2.18-1.05-3.29-1.55l-.85.88c-1-6.44-2-12.88-2.85-19.34-.06-.41.6-1,.93-1.52Z"/><path class="cls-1" d="M104.76,244.91l0,.19c2.86.25,5.81,0,8.55,1,1.24.43,2.17,3.08,3.08,4.87C123.28,264.31,129.83,278,138.8,289a3.77,3.77,0,0,1,.78,2.1,11.61,11.61,0,0,1-1.53-1.21,138,138,0,0,1-18.89-26.76C115.19,256,111,248.84,104.76,244.91Z"/><path class="cls-1" d="M137.16,157.84c6.12,5.1,6.32,5,7.15-3.68l.75.08c-.26,2.77-.44,5.57-.87,8.28-.06.41-1.56.95-2,.57C140.43,161.52,138.83,159.62,137.16,157.84Z"/><path class="cls-1" d="M141.22,134.23c.2-1.1.18-2.92.82-3.72.41-.5,1.89.25,2.72.88a28.69,28.69,0,0,1,5.34,5.29c-1.31-1.06-2.55-2.61-4-3S143.13,134,141.22,134.23Z"/><path class="cls-1" d="M227.89,292.94,225,297.27c1.22.34,1.83.58,2.45.68,1,.16,2.12-.07,3,.41,1.46.79,3.56,1.64,4,3.18s-.93,4-1.87,5.68a44.83,44.83,0,0,1-4.2,5.7,9.43,9.43,0,0,1-3.09,2.68c.69-1.05,1.39-2.08,2.07-3.14,1.6-2.51,3.25-5,4.74-7.59a9.19,9.19,0,0,0,.4-2.88c-.71-.13-1.58-.68-2.09-.29a37.44,37.44,0,0,0-5.84,5.07c-10.23,11.65-20.27,23.63-30.62,35.08-3.34,3.7-7.39,6.18-11.15,9.12a2.9,2.9,0,0,1-2.21.77,31.07,31.07,0,0,1-4.45-1.71c.51-1.76.7-4,1.59-5.22,5.57-7.84,11.32-15.43,16.94-23.19a61.76,61.76,0,0,0,5.78-8.95c3.37-6.87,7.85-12.09,12.39-17.28,6.76-7.74,13.53-15.46,20.22-23.3A33.86,33.86,0,0,0,236,267c1.67.43,3.58.82,5.46,1.44,2.29.76,2.62,2,1,4.27-4.83,6.85-9.76,13.56-14.67,20.33.13-1.31.26-2.62.4-3.95-5.06-.58-28.76,28.69-29.58,36.53a6.89,6.89,0,0,0,1.64-1c3-3.15,6-6.18,8.87-9.58,5.44-6.55,10.73-13.34,16.12-20A15,15,0,0,1,227.89,292.94Z"/><path class="cls-1" d="M214.55,150.42l5.31-4a77.37,77.37,0,0,1-1.65,42l.73.93,8.17-3.48.45.77c-1.38,2.09-2.84,4.09-4.11,6.29-3.53,6.07-7.35,11.89-10.39,18.4-6.57,14.09-12.62,28.65-19.12,42.8-2.06,4.49-4.89,8.3-7.34,12.46a30.16,30.16,0,0,0-1.86,3.78c-1.88,4.51-3.66,9.1-5.58,13.57-.31.71-1.15,1-1.74,1.45a9,9,0,0,1-.34-2.9c2.43-8.82,4.95-17.57,7.43-26.36a21.42,21.42,0,0,0,.87-4.06c.66-7.66,2.92-14.55,5.18-21.45,3.53-10.78,6.71-21.82,10.71-32.25,3.71-9.69,8.33-18.7,12.49-28,1.87-4.21,3.76-8.43,5.34-12.86S218.3,150,214.55,150.42ZM184.77,265.24l.91.24c.4-.84.86-1.64,1.2-2.53,3.81-10,7.47-20.11,11.44-30,3.31-8.25,6.7-16.49,10.55-24.26,3.57-7.19,7.88-13.69,9.27-22.54a25.94,25.94,0,0,0,0-4c-.9.45-2,.61-2.65,1.41a83.09,83.09,0,0,0-13.32,23.17c-4.11,10.37-8,21-11.47,31.74-2.36,7.25-4,15-5.83,22.53A20.78,20.78,0,0,0,184.77,265.24Z"/><path class="cls-1" d="M204.44,97.19l-3.74,24.47-.55-.1a7.49,7.49,0,0,0,0-1.49c-.13-.83-.36-1.62-.55-2.42-.68.38-1.61.51-2,1.21-.69,1.31-.86,3.17-1.61,4.38-.59,1-1.82,2-2.58,1.75-4.37-1.3-7.25.28-9.67,5.53a30.41,30.41,0,0,1-2.57,4c-.43-1.9-1.29-3.82-1.24-5.7.46-18.79,1.08-37.57,1.64-56.36.08-3,0-5.91.1-8.86a30.2,30.2,0,0,1,.5-3.65l1-.22c.93,4.69,2,9.32,2.76,14.06.8,5.07,1.09,10.29,1.95,15.34.69,4.1,1.27,4.33,4.21,2.82,2-1,4-2.33,6.64-3.89-.76,2.37-1.38,3.88-1.71,5.5s-.38,3.36-.56,5a20.12,20.12,0,0,0,3.87.18C201.45,98.63,202.48,98,204.44,97.19Z"/><path class="cls-1" d="M177.69,324.61c1.59-3.67,3-7.51,4.81-11,10.77-20.88,21.74-41.55,32.4-62.53,5.88-11.58,11.31-23.6,16.81-35.53.49-1.07,0-3,0-5l8.63-3c-.49,2.4-.67,3.89-1.1,5.21a69.59,69.59,0,0,1-3,8.22,51.29,51.29,0,0,1-3.95,6.16c-.92,1.38-2,2.59-2.82,4.08q-17,31.12-34,62.32c-5.13,9.45-10.18,19-15.27,28.48-.58,1.08-1.21,2.11-1.82,3.16Z"/><path class="cls-1" d="M217.67,324.16c-1.18,1.32-2.41,2.56-3.54,4-1.9,2.37-1.72,3.6.69,5,.92.53,1.88.9,3.28,1.56C215.9,338,214,341.17,212,344q-7,9.63-14.07,19c-1.81,2.4-2.37,2.15-3.09-.95-.55-2.38-1.89-5.32-1.34-7.09a32.66,32.66,0,0,1,5.1-9.92c4.75-6.25,9.79-12.07,14.78-17.95a37.66,37.66,0,0,1,4-3.6Z"/><path class="cls-1" d="M241.51,243.31c-.42,3.61-.73,7.26-1.29,10.83a36,36,0,0,1-1.6,5.61c-.19.6-.64,1.54-.92,1.51-4.34-.55-6.44,4.45-9.06,7.52-5.19,6.1-9.91,13-14.79,19.62-5.28,7.18-10.5,14.44-15.79,21.62a10.77,10.77,0,0,1-2.1,1.78l-.66-.77a46.32,46.32,0,0,1,2.85-5.68c7.19-10.44,14.41-20.85,21.73-31.12,6.29-8.82,12.76-17.41,19.09-26.18a42.83,42.83,0,0,0,2.63-4.79Z"/><path class="cls-1" d="M241.6,243.26c-4.08-.48-6.63,3.54-9.19,6.71-4.81,6-9.25,12.55-13.78,19s-8.88,12.76-13.33,19.13a3.06,3.06,0,0,1-2,1.45,23.35,23.35,0,0,1,1.28-2.86q12.08-19.54,24.22-39c2.22-3.57,2.28-3.5.17-5.89,3.69,0,7.68,0,11.67,0,1.19,0,1.19.1.85,1.57Z"/><path class="cls-1" d="M178.37,191.64a43.78,43.78,0,0,1,3.8-18.08,2,2,0,0,1,1.68-1.08c.3,0,.89,1.28.83,1.88a41.85,41.85,0,0,1-5,16.77C179.57,191.41,179.11,191.37,178.37,191.64Z"/><path class="cls-1" d="M192.64,273.23,176.1,312.89C176.51,307.13,188.93,277.09,192.64,273.23Z"/><path class="cls-1" d="M188.58,179.45c-2.37,9.6-5,19.22-9.87,27.23Z"/><path class="cls-1" d="M178,251.71l8-22.06.29.21-8,22Z"/><path class="cls-1" d="M192.93,319.19l-7.8,10.7-.74-1,7.52-11.09Z"/><path class="cls-1" d="M210.07,155.85c-1.07,0-2.71.56-3.08-.16a9.9,9.9,0,0,1-.46-4.79,19.4,19.4,0,0,1,1.42-4.11c.18,3.18-.65,6.65,2.33,7.89Z"/><path class="cls-1" d="M209.43,127.76l-1.15-4.44c1.46.24,3.58,0,3.81.75C213.1,127.53,210.11,126.14,209.43,127.76Z"/><path class="cls-1" d="M154.29,355c-2-2.91-4.52-6.45-6.94-10.07a2.72,2.72,0,0,1-.09-1.87c.42-.34,1.23-.57,1.54-.23,3.21,3.46,6.38,7,9.48,10.66a3.76,3.76,0,0,1,.12,2.47c-.11.38-1,.5-1.55.39A14.22,14.22,0,0,1,154.29,355Z"/><path class="cls-1" d="M227.89,292.94a15,15,0,0,0-2.62,2.1c-5.39,6.63-10.68,13.42-16.12,20-2.83,3.4-5.89,6.43-8.87,9.58a6.89,6.89,0,0,1-1.64,1c.82-7.84,24.52-37.11,29.58-36.53-.14,1.33-.27,2.64-.4,3.95Z"/><path class="cls-1" d="M184.77,265.24a20.78,20.78,0,0,1,.1-4.27c1.85-7.56,3.47-15.28,5.83-22.53,3.51-10.78,7.36-21.37,11.47-31.74a83.09,83.09,0,0,1,13.32-23.17c.68-.8,1.75-1,2.65-1.41a25.94,25.94,0,0,1,0,4c-1.39,8.85-5.7,15.35-9.27,22.54-3.85,7.77-7.24,16-10.55,24.26-4,9.88-7.63,20-11.44,30-.34.89-.8,1.69-1.2,2.53Z"/><path class="cls-1" d="M204.94,116.7l3.47-2.73a54.42,54.42,0,0,1-1.08,28.53l.48.63,5.33-2.36.29.53c-.9,1.42-1.85,2.77-2.68,4.27-2.3,4.11-4.8,8.06-6.78,12.49-4.29,9.56-8.24,19.44-12.48,29.05a96.72,96.72,0,0,1-4.79,8.46,21.59,21.59,0,0,0-1.22,2.56c-1.22,3.06-2.38,6.18-3.64,9.21-.2.49-.75.67-1.14,1a6.4,6.4,0,0,1-.21-2c1.58-6,3.23-11.93,4.84-17.89a16.12,16.12,0,0,0,.58-2.76c.42-5.2,1.9-9.88,3.37-14.56,2.31-7.32,4.38-14.81,7-21.89,2.42-6.58,5.44-12.69,8.15-19,1.23-2.85,2.46-5.72,3.49-8.72S207.39,116.39,204.94,116.7Zm-19.43,77.94.59.17c.26-.57.56-1.12.78-1.72,2.49-6.79,4.88-13.65,7.47-20.36,2.16-5.6,4.37-11.19,6.89-16.47,2.32-4.88,5.14-9.29,6-15.3a17.92,17.92,0,0,0,0-2.74c-.58.31-1.28.41-1.72,1a56.64,56.64,0,0,0-8.7,15.73c-2.68,7-5.19,14.23-7.48,21.54-1.55,4.92-2.6,10.16-3.81,15.3A14.53,14.53,0,0,0,185.51,194.64Z"/><path class="cls-1" d="M164.83,188.13c-1.88-3-3.83-6-5.64-9.15-4.78-8.3-7.66-18.1-10.64-27.84-1-3.28-2-7.35-3.91-9.11-4.6-4.3-3.37-10.44-3.14-16,.2-5,1.35-9.85,2.21-14.72.13-.73,1-1.2,1.47-1.79.09,1,.52,2.32.24,2.79-2.18,3.58-1.58,7.52-.61,11.2,2.76,10.45,5.41,21,8.73,31.09,2.6,7.88,6.22,15.05,9.23,22.67,1.24,3.14,2.09,6.62,3.12,9.94Z"/><path class="cls-1" d="M132.49,141.65c2.79,2,5.53,4.17,8.39,5.95.7.44,1.77-.34,2.77-.58.29,10.2,4,19.77,7.4,29.37,3.28,9.4,7.45,18.15,11.23,27.18l-.5.66a5.39,5.39,0,0,1-1.35-1.26c-6.45-11.28-12.32-23.05-16.62-36.41-2.23-6.9-5.26-13.27-8.09-19.73-.83-1.88-2.21-3.24-3.34-4.83Z"/><path class="cls-1" d="M200.54,357c-1.19,1.31-2.41,2.56-3.54,4-1.91,2.37-1.73,3.6.69,5,.92.52,1.88.9,3.28,1.55-2.2,3.38-4.08,6.51-6.14,9.38-4.64,6.42-9.34,12.74-14.07,19-1.81,2.39-2.37,2.14-3.09-1-.55-2.38-1.9-5.32-1.35-7.08a32.84,32.84,0,0,1,5.11-9.93c4.74-6.25,9.79-12.07,14.78-17.95a35.61,35.61,0,0,1,4-3.59Z"/></svg>