<svg id="Layer_1" data-name="Layer 1" xmlns="http://www.w3.org/2000/svg" viewBox="0 0 333.82 432"><defs><style>.cls-1{fill:#8dc63f;}</style></defs><title>serviceberry</title><path class="cls-1" d="M206.42,53.82c8.13,3.27,13.55,9.74,17.17,17.11,3.77,7.7,7,15.87,6.52,25-.61,10.71-5.29,19.51-12.12,27.27-2.74,3.1-6,5.61-5.35,10.37.06.48-.58,1-1.4,1.73,2.15-5.14-1.15-7.5-4.35-10-19.3-15.21-22.81-34.38-13.21-55.58,2.79-6.15,6.27-11.86,11.95-15.85Z"/><path class="cls-1" d="M202.68,327.49c-1-12-1.92-23.73-3.07-35.41-.09-.93-1.62-2.12-2.72-2.49-3.84-1.32-7.23-1-10,2.67-1.17,1.52-3.48,2.42-5.45,3-9,2.66-17.88,5.57-27.41.71-6.86-3.5-14.53-5.34-21.68-8.31a41.75,41.75,0,0,1-18.43-15.13c-7.56-11-3.93-14.37,6.85-19.19,4-1.79,8.55-2.37,13.09-3.57-8.75-5.43-17.81-10.16-23.74-18.75a74.77,74.77,0,0,1-6-10.14c-1.39-2.92-.46-5.51,2.39-7.51,13.13-9.24,27.39-11.84,42.76-7.22a212.68,212.68,0,0,1,21.92,7.62c9.6,4.08,15.78,11.62,18.87,21.57a18.23,18.23,0,0,1,.53,5.86c-.1,2.8,1.68,2.78,3.62,2.92,2.1.15,2.79-.77,2.73-2.79-.39-12.68-.66-25.36-1.09-38-.1-3.13-5.88-5.86-9.24-4.55-10.42,4.08-20.46,3.69-30.77-1.13-10.5-4.9-20.71-10.14-27.91-19.39-4.39-5.63-7.75-12.13-11.11-18.49-1.08-2-1.09-4.89-.88-7.31.31-3.54,2.14-5.81,6.11-6.64,10.48-2.18,21.07-2.35,30.49,2.51a140.92,140.92,0,0,1,27.44,18.3c7.83,6.77,12.07,16.21,10.75,27.27-.36,2.93,0,3.1,5.05,3.17.46-4.87.92-9.78,1.37-14.7l.67,0c-.28,4.89-.55,9.77-.83,14.58,5.81,1.15,5.67,1,7.74-4,2.86-7,8.61-11,15.49-13.1a192.14,192.14,0,0,1,22.59-5.37c12.29-2.13,24,.66,35.37,5.37a16.64,16.64,0,0,1,2.74,1.58c6.31,4.28,6.75,7.93,1.66,13.48-6,6.56-13.48,10.88-21.57,14.29-.8.34-1.57.74-3.34,1.57,3.32.57,5.8.54,7.86,1.45,6.94,3.09,13.91,6.19,20.53,9.91,4.25,2.38,3.81,6.57.23,11.18-6.19,8-14.64,12.64-23.45,16.89-10.55,5.1-22,6.13-33.39,7.1-7.54.63-13.91-3.38-19.71-8-.93-.74-1.72-2.06-2.71-2.22a19.87,19.87,0,0,0-7.21,0c-.65.15-1.05,3-1,4.54.62,11.58,1.38,23.15,2.09,34.62,6.15.92,6.43.73,7.65-4.41a27.54,27.54,0,0,1,13.59-18.17c4.11-2.32,8.94-4.26,13.54-4.5,3.56-.19,6.7-1.3,10-1.84,10.11-1.63,20-1.1,29,4.28A48,48,0,0,1,285,270.14c2.41,2.62,2.21,6.23,0,9.14a51,51,0,0,1-27.19,18.66c-5.79,1.71-11.82,2.59-17.64,4.22-6.7,1.87-12.5-.33-18.1-3.47a84.93,84.93,0,0,1-9.51-6.39c-4-3-5.44-3.37-11-1.71.36,6.18.68,12.49,1.12,18.78.36,5.14.75,10.29,1.4,15.4.18,1.43,1.17,3.79,2,3.9,2.29.31,5.18.76,6.36-2.42,1-2.6,2.32-5.12,2.81-7.8,1.6-8.82,8.23-12.05,15.62-13.52a62.1,62.1,0,0,1,30.43,1.36c6.56,2,10.71,6.52,13.73,12.13.81,1.51-.06,4.44-1,6.29-3.37,6.57-9.7,10.32-15.84,13.22-8.92,4.21-18.62,6.63-28.77,5.54a22.21,22.21,0,0,1-15.64-9,7.21,7.21,0,0,0-3.63-2.62c-4-.89-5.14.37-4.84,4.45.92,12.91,1.73,25.84,2.7,38.75.21,2.73,1.08,5.42,1.34,8.16.34,3.39-1.4,5.08-5.27,5.13,0-1.16-.06-2.16,0-3.15.5-7.06,1.61-14.13,1.41-21.16-.28-9.5-1.45-19-2.49-28.42-.15-1.44-1.5-3.76-2.53-3.9-2.5-.34-5.48-1.1-7,2.51-4.2,9.76-12.87,13.22-22.42,14.44-4.17.53-8.68-.56-12.88-1.54-12-2.78-23.78-6.06-34.09-13.17l-1.31-.9c-7-4.91-7-7.78-.15-12.77,5.57-4.07,12-6.31,18.16-9.12a66.47,66.47,0,0,1,20.77-5.32c6.73-.74,12.67,1,19,3,6.19,2,9.33,6,12.14,10.95a10.31,10.31,0,0,1,1.46,4.48c.19,4.34,2.36,5.05,6,3.76A22.18,22.18,0,0,1,202.68,327.49Zm39.89-115.28-.11-.64a10.84,10.84,0,0,0-2.28,0,34,34,0,0,1-23.71-3.28c-3.94-2-7.48-4.85-11.45-6.81a11.31,11.31,0,0,0-6.63-.77c-.77.14-1.5,3-1.47,4.62.21,11.35.61,22.69,1,34,.05,1.4.38,2.79.61,4.47,2.59-.83,6.17,1,6.37-3.24.54-11.33,7.55-17.64,17-21.59C228.57,216.23,235.67,214.44,242.57,212.21Zm-69.25,44.17c1.67,1,3.93,2.3,6.15,3.67,8,5,13.64,11.46,13.54,21.61,0,5.13.36,5.32,6.13,4a28.84,28.84,0,0,0,.14-3.38c-.65-10.14-1.3-20.28-2.1-30.41-.12-1.54-.88-4.19-1.63-4.29-2.74-.38-5.36-2.32-8.52.26C183,251.19,178.09,253.49,173.32,256.38Z"/><path class="cls-1" d="M200.19,166.75c.14-.76.24-1.52.41-2.28,1.17-5.21-1.6-10-6.78-9.91-9.58.2-15.9-5.47-22.47-10.95a75.65,75.65,0,0,1-17.94-22.44c-4-7.34-4.39-18.56,1.34-25.93a9.35,9.35,0,0,1,5.58-3,22.65,22.65,0,0,1,19.87,6.86c8.18,8.35,15.65,17.38,19.89,28.66,3.11,8.26,3.08,16.28-.51,24.22-1.32,2.92.28,4.14,2.34,4.71,2.37.66,6.11,2.37,6.77-1.47,2.08-12,10.9-17,20.55-21.52a73.65,73.65,0,0,1,31-6.75,33.51,33.51,0,0,1,18.1,4.75c3.83,2.36,5.13,6.06,3.33,10.21a24.37,24.37,0,0,1-4.1,6.69,54,54,0,0,1-35.88,17.86c-10.71,1-20.61-.25-30.1-5.59C206.12,157.76,203.13,159.67,200.19,166.75Z"/></svg>