<svg id="Layer_1" data-name="Layer 1" xmlns="http://www.w3.org/2000/svg" viewBox="0 0 333.82 432"><defs><style>.cls-1,.cls-2{fill:#8dc63f;}.cls-2{stroke:#8dc63f;stroke-miterlimit:10;stroke-width:3px;}.cls-3{fill:#fff;}</style></defs><title>snowbell</title><path class="cls-1" d="M199.69,387.75l-12-4.26c-2.66,4.86-4.63,5.83-6.88,4.21l-9.94,5.84V394l7.15-.59.15.75c-3.22.57-6.57.77-9.61,1.83a31.52,31.52,0,0,0-8.59,5.16l3.81-1.1.34.71c-3.58,2-8.83,1.42-10.64,6.24l3.84,2.21c-1.73,1.35-3.65,2.95-5.68,4.4-1.3.93-2.73,1.5-4.11-.05a2.92,2.92,0,0,0-1.41-.82c-3.51-.91-4-1.37-4.35-5-.26-2.59-.13-5.23-.58-7.78-.39-2.21-1.33-4.33-1.73-6.68l3.57,4.22c.19-2.81.61-5.38-2-7.35-.76-.59-2.35-1.57-.39-3,.32-.24-.78-2.64-1.49-3.9s-1.62-2-2.1-3.38l1.46.88.35-.24a11.21,11.21,0,0,0-1.32-2.29c-1.5-1.61-3.32-3-4.61-4.72-.59-.79-.13-2.3-.31-3.46a4.58,4.58,0,0,0-.85-2.57c-1.84-1.64-3.9-3-5.85-4.55-.68-.53-1.28-1.18-2.21-2.05-1,.09-2.78,1.19-3.55-1.29l2.35-.4c-.45-.54-.71-1.15-1.15-1.34-3.22-1.41-6.47-2.76-9.73-4.08a40.88,40.88,0,0,1-5.08-2,4,4,0,0,1-1.42-2.95l-4.52-1.54.31-.85c9-.67,15.69,5,23.8,9-.68-1.26-.93-2.36-1.61-2.87-4.59-3.4-9.15-6.89-14-9.94s-10-5.77-15-8.49c-1.83-1-4.32-.78-5.53-3.47l2.66-.87.24-.56L79,325.69c3.06-3,6.24-2.11,9.3-1.46s6,1.61,9,2.43l.23-.58c-4.22-1.89-8.4-3.87-12.66-5.67-4.58-1.92-9.25-3.62-13.83-5.54-.75-.32-1.22-1.29-1.83-2,.73-.37,1.48-1.1,2.17-1.05a28.18,28.18,0,0,1,6.49,1A110.67,110.67,0,0,1,88.6,317c6.51,2.89,12.86,6.07,18.49,10.52a5.44,5.44,0,0,0,2.65,1c-9.81-9.17-21-16.39-33.27-22.79,4.82-.83,8.66.81,11.86,3.07,6.12,4.34,11.81,9.27,17.66,14a8.86,8.86,0,0,0,1.62,1.35,6.27,6.27,0,0,0-2.54-5A101.44,101.44,0,0,0,85.93,306c-5.82-3-11.64-5.91-17.44-8.9a10.06,10.06,0,0,1-1.72-1.49,8.13,8.13,0,0,1,7.23-.09,118.62,118.62,0,0,1,14,7c4.78,2.9,9.57,5.93,13.2,10.36.18.21.6.22,1.23.44-1-3.66-2.37-6.68-5.5-8.73-3.55-2.33-6.91-5-10.6-7.06-4.14-2.33-8.54-4.22-12.86-6.21-3.2-1.48-6.5-2.75-9.67-4.27-.72-.35-1.13-1.34-1.69-2l.42-.83a27.35,27.35,0,0,1,5.25.77c3.84,1.34,7.59,2.94,11.36,4.49,1.88.77,3.71,1.68,5.56,2.53l.42-.8-26.86-15,.31-1c1.67.1,3.45-.11,5,.38a48.94,48.94,0,0,1,6.74,2.94c2.13,1,4.23,2.14,6.29,3.31,6.08,3.42,11.94,7.16,16.58,12.5.08.1.29.08.79.19-2.79-5.37-6.09-9.77-11.68-12.17-7.38-3.15-14.7-6.47-22-9.77a5.56,5.56,0,0,1-2-1.82c6.06-1.14,11.06,2.28,16.65,3.64L55.52,262.92l.09-.81c.92-.06,2-.44,2.73-.12,3.56,1.49,7.12,3,10.51,4.83s6.45,4,9.63,6A26.91,26.91,0,0,0,82,275c-6.85-7.58-16.17-11.86-24.14-18,4.79-.28,8.46,2.16,11.94,4.7s6.74,5.56,10.12,8.39c.22-2.18-1.55-3.15-2.9-4.23-6.17-4.93-12.42-9.76-18.61-14.66a4,4,0,0,1-1.29-2.2c7.87,2.14,13.4,7.7,19.46,13.43a7.81,7.81,0,0,0-3.16-6.24C69.35,253,65.21,250,61.11,247A14.7,14.7,0,0,1,59.43,245l3.41.39,9.16,7c-.29-2.84-5.39-6.62-9.2-6.94l-2.9-2.7.51-.8,9.91,5.09c-1-3.23-3.37-4.94-6-6.45l.27-.57,2.43.77.4-.33-4-3.89.87-.84.66,2.53,1.07-.7c-.12-.48-.1-1.1-.4-1.43-1.27-1.38-2.61-2.71-4-4-2.29-2.16-3.1-7.82-1.44-10.34,1.07-1.62,4.74-1,5.74,1,.54,1.08.95,2.22,1.53,3.56l.65-1.44.63.1a16.72,16.72,0,0,1-.6,3.51c-.49,1.3-.21,4.77.83,5.52.27.2.85,0,1.52-.11l-1.53,5.25.81.26,1.72-3.27.9.14c-2.58,4.43-1.69,8.54.68,12.58.77-3.93,1.33-7.91,3.37-11.33l1,.29c-.5,2.48-1.09,5-1.5,7.46a50.53,50.53,0,0,0-.84,7.23c0,1.12.75,2.26,1.31,3.78,2.38-6.11,3.53-12.28,8.31-16.53l.83.32-4,10.06c3.53-2.31,3.83-8.93,10.43-6.52l-1.27,5.27c.59,0,2-.3,2.16.06a5.24,5.24,0,0,1,.46,3q-1,9.53-2.23,19c-.41,3.28-1.15,6.53-1.35,9.82a7.6,7.6,0,0,0,1.58,4.39c.74-4.7,1.09-9.51,2.33-14.09,1.46-5.4,3.65-10.6,5.6-15.86a4,4,0,0,1,1.38-1.58c.39-.3,1.27-.58,1.42-.42.41.47.89,1.26.76,1.76-1.41,5.17-3,10.29-4.43,15.45-.67,2.4-1.24,4.84-1.78,7.27a6.41,6.41,0,0,0,0,1.77c2.82-3.75,5.48-7.46,8.35-11a36.12,36.12,0,0,1,5.6-5.66c1.15-.91,2.92-1,4.41-1.5l.38.59c-.8,1.4-1.61,2.79-2.38,4.2a1.91,1.91,0,0,0-.33,1.14c.62,2.24-.27,2.88-2.92,1.78l.29.87,1.65,1.49-3.57-.36c4.18,3.52-.25,5.72-.67,8.43-.46,3-2.54,5.64-3.48,8.58-1.23,3.88-1.92,7.92-3,11.84-.66,2.28-.08,4.06,1.62,6,.35-1.26.61-2.31.93-3.34,1.35-4.4,2.61-8.83,4.12-13.17a87.76,87.76,0,0,1,4-9.78,47.49,47.49,0,0,1,4.62-7.43c.52-.69,2-.68,3-1a6.7,6.7,0,0,1,0,2.41c-1.88,4.4-4,8.69-5.8,13.11-1.49,3.64-2.66,7.4-4,11.11-.54,1.5-1.1,3-1.52,4.16,4.61-6.46,9.39-13.16,13.55-19,4.55-2.45,7,.49,9.75,1.79,7.49,3.56,12.81,9.73,17.5,16.32,2.36,3.32,3.82,7.3,6.25,10.94a74.5,74.5,0,0,0-1.89-8.3,54.31,54.31,0,0,0-3.76-8.17,67.78,67.78,0,0,0-4.84-7.67c-1.75-2.38-3.84-4.52-5.78-6.76l.63-.61,8.4,8.27c-1.33-2.43-2.19-4.64-3.6-6.41-4.56-5.7-9.36-11.21-14-16.87a27.38,27.38,0,0,1-2.28-4.08,14,14,0,0,1,11,4.67c3.77,4,7.23,8.21,10.85,12.32.23.27.66.36,1.56.81-5.32-11-13-19.91-19.52-29.56l.76-.73,6,2.15c-3.53-6.69-9.62-11-12-18.07l4.09.2c-.29-1.3-.56-2.5-.76-3.72,0,0,.85-.2,1.26-.3-2.47-4.44-7.9-7-8.59-12.85,2.61-.83,4.2.54,5.75,1.72,8.82,6.75,16.2,14.94,22.88,23.72,4.68,6.15,9.09,12.54,12,19.8a15.64,15.64,0,0,0,2.36,4.06,18.85,18.85,0,0,0-.06-4.32,75.29,75.29,0,0,0-2.78-9.45c-1.76-4.61-3.66-9.18-5.8-13.63-1.57-3.29-3.6-6.35-5.31-9.31l1.36-1.7-.06.07c1.85,2.85,3.71,5.69,5.55,8.55a6.6,6.6,0,0,1,.91,1.69,21.39,21.39,0,0,1,.32,2.85c2.37.5,1.86,3.49,2.75,5.4,1.53,3.29,2.36,6.92,3.82,10.37a56.33,56.33,0,0,0-.68-6.1c-.73-3.43-1.67-6.82-2.59-10.22a63.73,63.73,0,0,0-6.78-15.44c-3.86-6.63-8.87-12.26-13.74-18.05a35.75,35.75,0,0,1-2.81-4.67c5.43-1.09,7.51,3.4,11.49,5.63-2.91-4.42-5.84-8.13-8-12.26s-6.9-6.64-6.88-11.92c3.1-1.15,5.14.92,6.67,2.49,6.68,6.87,13.33,13.8,19.42,21.18,4.58,5.56,8.43,11.76,10.22,18.95a5.68,5.68,0,0,0,1.55,2.57c-.22-1.65-.1-3.43-.7-4.93-2.3-5.74-4.89-11.35-7.24-17.07-3-7.21-8.53-12-14.51-16.59-3.63-2.75-7.14-5.65-10.6-8.59a6.66,6.66,0,0,1-1.83-3.23c9.66.46,16,7,23.28,12-5.11-7.93-12.33-14.49-16-23.46,3.21.41,5.54,2.09,7.66,4.1,8.48,8.06,14.95,17.75,21.94,27,1.7,2.25,2.77,5,4.44,8a7.25,7.25,0,0,0,.19-2.44c-2.2-6.31-4.41-12.65-8.15-18.27-3.51-5.28-7.11-10.5-10.65-15.76a5,5,0,0,1-.29-1.45c4.16.25,6.48,3.13,8.76,5.69s4.2,5.72,6.46,8.5c-2.6-9.61-9.39-17.26-13.11-26.82,4,.23,6.24,2.55,8,5,4.14,5.54,8,11.23,10,18.05,1.42,5,3.26,9.8,4.91,14.7.6-1.7,1.29-3.57,1.92-5.47.49-1.45.91-2.92,1.32-4.39a2.65,2.65,0,0,0,.08-1.44c-1.06-2.86-2.2-5.69-3.39-8.74,1.91-1.78-.91-3-1.36-4.61-.2-.71-1-1.31-1-2-.13-4.22-3.14-6.34-6-8.56-1.05-.79-2.18-1.47-3.27-2.21l.39-.77,4.71,2,.41-.26-3.26-3.28v0l2.19-.6c-1.62-1.62-2.76-3.18-4.28-4.14a8.75,8.75,0,0,1-3.69-5.87c-.43-2.1-1.73-2.68-3-3.59-2.23-1.64-3-3.79-1.77-5.75.85-1.42,1.91-2.19,3.3-1.44.72,1.55,1.33,2.88,2,4.32a14.58,14.58,0,0,0,1.2-1.37,6.45,6.45,0,0,0,.46-1.19l2,7.86,1-2.06.58-.05c.11,2,.22,4.05.32,6.07l.41-.1,2.79-7.66,1,.16c.51,6.23,1,12.46,1.55,18.74.29-1.29.56-2.65.91-4s.72-2.44,1.09-3.66l1.27.15q.48,9.1.95,18.2l.59,0,3-4.38.88.3c-1.6,4.76-2.74,9.5,0,14.57.47-1,1.08-1.64,1.08-2.32,0-5.75.39-11.57-.33-17.23-.6-4.69-2.55-9.2-3.89-13.79-.08-.3-.08-.62-.21-1.62,1.31,1.49,2.47,2.4,3.07,3.58,2.16,4.3,4.25,8.61,3.64,13.73-.25,2,.35,4.13.59,6.42,3.45-6,3-12.22,1.95-18.39-.35-2.09-1.62-4-2-6.1-.21-1.13.51-2.43.86-3.84l2.52,1.36c-.36,1.24-.67,2.29-1.15,3.92l2.35-1,.72.15c-3.2,3.54-1.49,7.5-1.52,11.32.22-2.57.43-5.14.65-7.71l.49-.12c.24,1.49.48,3,.71,4.47l.59.07c.11-.6.27-1.2.32-1.81.27-3.54.6-7.08.71-10.63,0-.83-.69-1.69-1.09-2.53a2.35,2.35,0,0,1-.39-1.46L203.7,136c1.75-4,2.33-7.73-.22-11.43l1,0a5.17,5.17,0,0,0,.27-1.93c-.73-2.67-1.71-5.28-2.37-8-.29-1.21.27-2.12,1.89-2,.59,0,1.24-.57,2.48-1.19l4.61,11.37.56-.15c0-1,.11-2,.16-3l.51-.08.81,4.69.91,0c.57-3.49,1.13-7,1.82-11.25l1.55,3.45c1.51-3,4.29-5.59,1.57-9.23-.25-.34-.41-1.11-.21-1.36,2.54-3.2-.82-5-1.86-7.18-1.12-2.36-1.4-4.32.41-5.92.27-.24,1.11-.31,1.28-.11a17.43,17.43,0,0,1,3.09,4.2,18.15,18.15,0,0,1,1,5.61c.1,1.42-.26,2.87.12,4.62,1.21-2.38,2.58-4.71,3.6-7.18.91-2.2.76-5.35,2.29-6.65,1.86-1.57,2.37-3.48,3.35-5.29,1.15-2.14.07-8.06-2-9.31-2.27-1.36-2.49-2.92-1.52-5.1,1.36-1.69,3.55,3.77,4.57-.78,2.86,2.58,1.47,5.91,2.15,8.78,2.72-2.23,3.22-5.16,1.32-9.49-.7-1.58-1.59-2.77.38-4,.47-.29.61-1.11.9-1.69,3.68,1.26,4.34,4.85,6.07,7.79l2-.54a3.8,3.8,0,0,1-2.75,4.48c-1.94.56-3.8,1.28-4.73,3.61l1.45.2c-.45.63-.89,1.17-1.24,1.75-.95,1.56-4.27,1.93-2.46,5,.15.25-.82,1.16-1.41,2l2.94,1c-.2.54-.6,1.1-.45,1.35,1.84,3.28-1.28,3.31-2.81,4.36s-3.12,2.1-4.81,3.24l.88.94L227.37,104h2c-5.26,3.53-5.3,3.57-5.19,6.4l3.63.33-2,2.53-.52-1.59c-2.9.35-8.58,9.35-8.42,13.12,4.94-2.15,9.54-4.43,13.62-8.16l1,1.54,2.53-.56a15.23,15.23,0,0,0-.78,1.88,23.73,23.73,0,0,0-.45,2.43,37.78,37.78,0,0,1-4.12.61c-2,.08-3.71-.09-5.47,1.6-1.07,1-3.17,1.59-4.74,2.14-3.12,1.1-3.92,3.75-5.5,5.92a3.94,3.94,0,0,0-.71,2.36l4.21-2.9.67.65c-2.43,3.68-7.3,5.47-8.77,10.18a14.4,14.4,0,0,1,3.69-.94c.41,0,.81,1.38,1.17,2.06a70.62,70.62,0,0,0-6.11,3.79,7.3,7.3,0,0,0-1.94,3,60.2,60.2,0,0,0-3.31,10.16c1.6-1.14,3.19-2.3,4.81-3.42,3.48-2.4,7-4.72,10.42-7.2a12.51,12.51,0,0,0,2.08-2.56l1.1-1.41.49.19c-.17,1-.34,2.07-.5,3.09l2.94.39L235,139.77l.32.27-4.55,5.28.56.53,11.62-10.22.61.32c-.11,1.74-.58,3.77,2.22,3.19A10.2,10.2,0,0,1,246,141c-2.28.72-3.63,3.69-6.59,2.79a.84.84,0,0,0-.61.24,12.92,12.92,0,0,1-2.5,2.26c-.92.46-2.1.38-3.18,1l7.42,2.07,0,.45h-4.28l1.32,1.58c-3.48-.36-7-.78-10.47-1a6.69,6.69,0,0,0-2.29.7,12.42,12.42,0,0,0,2.33,1.06c2.61.56,5.24,1,7.87,1.48l-.12,1a47.82,47.82,0,0,1-4.79,0c-3.26-.34-6.5-.85-9.76-1.22a3.45,3.45,0,0,0-1.65.34,7.19,7.19,0,0,0-1.29.85l1.19,1.27-8,1.38c2.24,7.4-4.76,10.09-7.67,15.1,2.34-1,4.48-2,6.71-2.76a33.22,33.22,0,0,1,4.85-1.15,1.42,1.42,0,0,1,1.24.5,5.08,5.08,0,0,0,5.52,3.12c-2.81.07-3.38,1.67-3.76,3.87-.32,1.83-1.37,3.53-1.77,5.73a46.05,46.05,0,0,0,4.1-4.17c1.22-1.6,2.09-3.46,3.58-5.17-.08.85-.17,1.7-.25,2.48l2.26.17c5.4-1.38,7.45-6.62,10.58-10.77l.51.38c-.18,1.25-.36,2.49-.55,3.73l.63.23c1.66-1.76,3.74-3.19,3.74-6.12,0-2,2.71-4.34,5.74-4.89a17.86,17.86,0,0,1-.14,2.13,21.24,21.24,0,0,1-.67,2.33l3.55.39c-.94,1-1.53,2.19-2.33,2.35-2.53.5-3.92,2.64-6,3.69-1.36.68-2.71,1.37-4.05,2.1-.23.13-.36.45-.58.74,2.59,1.8,5.52-2,7.93.7-3.1,1.28-3.1,1.28-1.38,2.75-5.92,4.06-13,4.15-19.85,5.2a68.88,68.88,0,0,1,12.05.38l0,1.34a43.35,43.35,0,0,1-5.68,1c-3.5.15-7-.15-10.49.09-1.21.09-2.35,1.2-4.08,2.15,3.87.57,7.12-1.59,10.64,1a47.47,47.47,0,0,1-5.13,1.07c-1.79.17-3.45,0-4.09,2.41-.19.76-2.06,1.09-3.69,1.86.91.27,1.55.68,2.1.58,2.28-.41,4.5-1.11,6.79-1.43,1.72-.23,3.83-1,4.74,1.8L210,201.38l.32.66c1.23-.51,2.43-1.09,3.68-1.52a16.48,16.48,0,0,1,3.67-.93c.5,0,1.48.66,1.51,1.09a3.21,3.21,0,0,1-.66,2.45c-2.31,1.83-4.83,3.39-7.21,5.13-4.68,3.41-9.4,6.76-13.94,10.35a87.41,87.41,0,0,0-9.53,8.49c-4.74,5.05-9.52,10.14-12.3,16.66a2.57,2.57,0,0,0,.1,1.93,62.82,62.82,0,0,1,3.65-5.93c3.26-4.18,6.3-8.67,10.17-12.22a177.29,177.29,0,0,1,17.92-14.14c4.13-2.9,8.84-5,13.37-7.27,1-.52,2.36-.45,2.49,1.38,0,.36.58.69.94,1.1l-28.14,21.58.47.79c7.83-4,15.52-8.55,24.73-7.61l.38.66c-.53.51-1,1.05-1.58,1.55s-1.08.87-1.4,1.12l5.2,1.26-3.35,2,.21.54,1.8-.14c0,.12,0,.31-.08.35-2.49,1.29-5.09,2.41-7.47,3.89-1.8,1.13-4,2.4-4.83,4.17-1.55,3.23-4,5.51-6.38,7.93a65.82,65.82,0,0,0-5.56,6.34c4-1,7.72-2.82,12.51-1.16-1.42.51-2.36.78-3.24,1.19a16.8,16.8,0,0,0-1.94,1.19l1.35,1.6-3.6,2.1.28.51,2.57-1,.39.53c-10.65,7.12-21.52,14-29.4,24.42,2.88-2.38,5.64-4.91,8.66-7.08s5.76-4.87,10.24-4.2l-3.73,2.15.4.91,2.48-.88.38.38L189,280.25l.29.41c1.68-1,3.34-2,5.07-2.81a4.78,4.78,0,0,1,1.87-.11L193.34,281c-.41,1.42-.83,2.85-1.28,4.37l3.26-2.78.49.68c-2.25,2.47-4.51,4.93-7.17,7.83,1.19-.33,2.11-.68,3.07-.84,2.55-.43,5.12-.76,7.68-1.17a31.51,31.51,0,0,0,4.44-.92,41.43,41.43,0,0,0,4.34-2h9.9c-.13-2.08-.23-3.74-.34-5.39l.8-.37a34.45,34.45,0,0,0,2.43,3.72,35.19,35.19,0,0,0,3.45,3.11c.33-2.83.55-4.81.78-6.79L226,280c.63.83,1.68,1.59,1.83,2.49.84,5.21.31,10.45-.05,15.67,0,.08-.25.16-.45.28-.1-1-.19-2-.33-3.45l-2.3,2.5v-8.46l-.91-.22a8.41,8.41,0,0,0-.69,2.19c-.06,4,0,8,0,11.16l2.84,1.75c.26-.59.59-1.37.92-2.14l.62.14q-1.3,6-2.6,12.08c2.42-3.1,7.52-3.14,8.1-8.62.55-5.24,2.94-10.27,4.3-15.45.69-2.63.86-5.4,1.34-8.09a20,20,0,0,1,.83-2.59l.74-.11c.46.83,1.36,1.7,1.31,2.5a81.31,81.31,0,0,1-1.08,8.8,30.76,30.76,0,0,1-1.53,5.76c-1.29,3.44-2.78,6.8-4,10.35,2.79-1.72,5.56-3.34,6.52-6.81.21-.76,1.06-1.88,1.66-1.91,4.14-.2,4.22-3.46,4.6-6.19.81-5.74,1.25-11.52,1.95-17.28a9.51,9.51,0,0,1,1.22-2.64l1,.27c0,3.49.36,7-.11,10.44S250,289.45,249,293l.56.26,2.76-5.11.31,0-.31,2.1c2.73-.75,2.68-3.56,3.69-4.73,1,.16,1.81.53,2,.3,2.66-2.73,5.86-5,6.55-9.25.23-1.41,1.45-2.67,2.46-4.41l1,2.41c1.39-4.16,1.09-8.86,5-11.92.43,1.07.61,2.72,1.32,3,.87.33,2.18-.5,3.45-.87a3.59,3.59,0,0,1-1.09,3.94c-1.56,1.64-3.05,3.34-4.65,4.92-1.25,1.24-2.67,2.31-3.91,3.56-.31.32-.2,1-.29,1.58l.7.18-4.39,2.33.24.8a33.64,33.64,0,0,1,4.4-.73,13.37,13.37,0,0,1,4.5.68c-3.37.56-6.81.32-10.41,2.47l7.05-.34,0,.25c-2.86.57-5.69,1.47-8.57,1.61-2.65.13-3.9,2.15-5.8,3.26-.17.1-.12.57-.2,1,3-.75,5.73-1.67,8.57-2.1s5.78-.37,8.67-.52l.11,1c-2.73.41-5.51.62-8.18,1.28-4.34,1.08-8.64,2.36-12.87,3.79-1.23.42-2.18,1.65-3.25,2.5l.32.51c2.09-.66,4.17-1.37,6.27-2,3.21-.94,6.42-1.94,9.68-2.65,1-.22,2.23.4,3.35.63v.92a15.88,15.88,0,0,1-2.46,1.11c-6.56,1.64-13.15,3.14-19.67,4.9-1.2.32-2.13,1.62-3.18,2.46l.4.71a82.66,82.66,0,0,1,9.15-2.39c5-.75,10.11-1.1,15.17-1.49.44,0,.95.91,1.81,1.79L248.54,304v.74a41.94,41.94,0,0,1,4.76,0c1.74.2,3.76-.89,5.21,1,.11.14.67.1.91-.05,2.85-1.74,4.41,1.27,6.65,1.77l-16-1.06-.12.89a27,27,0,0,0,2.8.52c3.94.32,8-.39,11.68,1.72a14.72,14.72,0,0,1,2.06,1.75c-5.86,0-11.46-.16-17,.05a136,136,0,0,0-16,1.29c-2.48.38-4.74,2.12-7.1,3.24l.41,1.13A33.77,33.77,0,0,1,242,313.45c5.29.06,10.72-.5,15.81,2.7-.42.3-.63.47-.86.6a4.19,4.19,0,0,1-.68.22l1.06.45,0,.7c-12.72-2.81-24.94-.83-36.94,3.29a25.18,25.18,0,0,0-2.77,1.34l.87.56c5.35-1.16,10.66-2.59,16.07-3.37,4.16-.6,8.47-.14,12.67-.59,3.59-.38,6.77,1.08,10.15,1.57.43.07.75.79,1.15,1.17.19.19.57.5.67.44a3.6,3.6,0,0,0,1.21-1c.66-1.06,1.19-2.2,1.72-3.19-2.28-.24-2.35-.41-.67-3.2,4.35,4.15,1.48,9.41,2.43,13.56.42-.62,1-1.41,1.49-2.24a2.12,2.12,0,0,0,.34-1.1c-.2-3.29-.44-6.58-.7-10.17,2.77,3,1.66,6.28,1.53,9.31s-.79,6.19-.8,9.53l2.6-4.33c-.47,2.07-.93,4.14-1.4,6.2l-1.43,2.78,1.06.74c1.47-1.5,2.92-3,4.44-4.49a14.7,14.7,0,0,1,1.94-1.32l0-.09c.07.56.14,1.11.22,1.8l1.29.09-.06-.06c3,.36,6.07.66,9.09,1.12a64.91,64.91,0,0,1,7.31,1.51c.82.22,1.45,1.11,1.79,1.4a8.26,8.26,0,0,1,2-.45,3.09,3.09,0,0,1,1.78.63,10.87,10.87,0,0,1,1.41,2,5.72,5.72,0,0,1-2.17.6c-3.26-.46-6.5-1.07-9.85-1.22l5.12,2.49-3.19.45,2.43,3.7-21.26-1.15,0,.36c4,1.16,7.94,2.29,11.88,3.5a3.16,3.16,0,0,1,1.62,1.25,2.67,2.67,0,0,1,.27,2c-.09.26-1.23.46-1.74.28-8-2.9-16.35-3.71-24.8-3.84-.84,0-1.67-.5-2.51-.54a3.69,3.69,0,0,0-1.46.47c5.42,1.17,11.1,1.63,16.1,3.71,4.69,1.95,10.52,2.5,13.63,7.4l-.42,1-11.73-4.35c1.52,2.72,6.43,2.13,5.52,7l-6.48-2.43c-.18,3-1.26,3.58-4.11,2.42a58.16,58.16,0,0,0-7.78-2.87c-5.62-1.39-11.3-2.56-17-3.66a15.83,15.83,0,0,0-4,.23l0,.69c2.34.31,4.77.31,7,1q8.73,2.68,17.29,5.91c1.79.67,1.53,3,1.67,4.48.27,2.71-.05,2.77-3.09,2-1.07-.25-2.12-.58-3.44-1,.48,1,.87,1.78,1.37,2.8L232.78,369l-.12.54c3.14,1.07,6.32,2,9.41,3.23a25.13,25.13,0,0,1,5,2.65c.58.39.71,1.46,1.16,2.48l2,.17c0,2.15-.43,2.59-2.54,2.08-3.2-.77-6.36-1.73-9.56-2.55-2.28-.59-4.59-1.1-7.56-1.8.88,2.32,3.93,4,.69,6-1.13-.9-2.51-2.74-3.92.5-5.72-4.42-12.2-4.18-18.55-3.86l2.22,2.12a4.11,4.11,0,0,1,5.64,1.09c.27.33,1,.33,1.43.49a40.55,40.55,0,0,1,4.5,1.57c.31.14.19,1.2.31,2.11l-13.63-4.15c3.45,3.38,9.12,2.78,12.24,6.95,2.39-1.79,1.47,2,2.94,2l-.25.63-22-7L202,385c2.2,2.29,6.74,2.2,6.72,7.33l-4-1.85H207a7.76,7.76,0,0,0-3.39-2.55C202.41,387.57,201,385.75,199.69,387.75Zm2.47-25-2.9-1.35-.33.69,1.58,1.39H195a34.57,34.57,0,0,0,4.85,1.38c1.38.17,2.95,0,2.31-2.17l1.39,2.23c-.49.69.51,2.3-1.34,2.16l-.11-1.36-.5-.16q-2.15,4.35-4.28,8.71c1,.06,1.79-.15,2-.64,1.06-2.17,2-4.41,2.91-6.63.3,1.25.75,2.28,2.37,1.63l-.49,2.25c3.38-.52,9.61-9.52,10-14.58a83.67,83.67,0,0,1-4.87,7.88c-1.31,1.71-1.79,4.51-4.76,4.52,1-1.82,1.53-4.22,3-5.31a5.33,5.33,0,0,0,2.14-3.71,22.93,22.93,0,0,1,1.29-3.17c-4.91-.79-5.41-.33-6,4.45a18.88,18.88,0,0,1-1.46,4c-.12-2.82-.23-5.64-.35-8.46l-1,.08Zm17.2-2.13c1-3.67,2-7.34,3.21-11.47-.69.37-.8.39-.83.45a66.67,66.67,0,0,1-3.59,7.7,20.7,20.7,0,0,1-5.07,5.85c-1.7,1.25-1.7,2.45-1.54,4.68,1.18-.84,2-1.42,2.86-2,1.27-.94,1.88-2.85,3.92-2.67,1.91.72,2.79-.44,3.52-1.9s1.07-3.63,3.59-3.4c.29,0,.68-.38.91-.67,1.06-1.39,2.08-2.81,3.12-4.21l-4.2,7.53c2.79-.94,6-1.92,7.37-5.45,0-.07.56.07.85.11l-.11-.11.38,1.5c3.34-.51,5-3.15,6.6-5.61a99.83,99.83,0,0,0,6.34-11.57c.77-1.67,2.05-3.69.41-5.7h2.53l-.68-.41c.34-1.63.79-3.24,1-4.89a12.5,12.5,0,0,0,0-4.23c-.1-.43-1.66-.45-2.48-.8a9.34,9.34,0,0,1-1.58-1,40.55,40.55,0,0,1-6.13,1.75c-4.34.52-8.71.71-13.07,1.07a6.61,6.61,0,0,0-1.33.42,3.17,3.17,0,0,0,1.95.5c3.78-.29,7.56-.63,11.34-.92a1.93,1.93,0,0,1,1.15.18c1.8,1.16,3.56,2.39,5.33,3.6a21.33,21.33,0,0,0,1.77,2.8,6.08,6.08,0,0,1,.35,1.93l-2.5,1c-1.14,3.17-2.21,6.55-3.58,9.81-.77,1.82-.81,4.36-3.54,4.79l-.46.67-.31-3.47c-1-.2-1.7-.73-2.36,1.09a7.94,7.94,0,0,1-5,5.2l1.5-2.9-4.34.32.75,2c-3.81.27-4.46.78-5.13,4.87C221.94,358.88,221.32,360.19,219.36,360.59Zm-7.39-39v3.17c1.63-.43,6.23-5.94,6.36-8.25.4-7.2.71-14.41,1-21.62a30.88,30.88,0,0,0-.28-3.43l-5.42,1.8c1.68,4.15,4.36,7.82,3.44,12.44l-1.38-1.28c.21,1.7.24,3.61.49,3.64,1.51.18,1.12,1.18,1,1.93-.26,2.15-.07,4.24-2.34,5.95-1.54,1.16-2,3.76-2.92,5.72.67-2.15,1.49-4.26,2-6.45a41.77,41.77,0,0,0,1.27-8.33A41,41,0,0,0,214,299a14.44,14.44,0,0,0-1.29-2.88c-1.07,3,1.19,6.28-2.35,8.07,2.56,1.39.83,3.39.91,5a34,34,0,0,1-.6,5.66l-.47,0-.67-1.66c-.28,1.21-1,2.65-.64,3.06,2,2.1.51,4.08,0,6s-1.29,3.76-1.95,5.64l.75.32Zm32.86,28c.36.24.87.77,1.07.68a46.71,46.71,0,0,0,6-3.26,9,9,0,0,0,3.7-6c.54-2.76,1.92-5.35,2.82-8.06.64-1.95,1.09-4,1.65-6l2.32,1.19.45-.45-.87-2.54-1.78.79c-1.18-2.72-3.34-1.14-5.18-1.4l1.49,5.2c-1.47-.72-2.32-1.3-2.63.64-.11.71-.32,1.41-.48,2.12.79-5.84.63-7.65-1-8.34-.14,1.15-.23,2.26-.41,3.35-.39,2.43-.78,4.87-1.26,7.29-.9,4.54-3.11,8.49-5.54,12.36A6.66,6.66,0,0,0,244.83,349.52Zm-63.67-.91-.06-.06.37,2.21c7.48-5.46,8.12-13.87,10.79-21.24,2.83-7.81,2.89-16,3-24.31,2,2.25,4.94,4,2.93,7.52-.14.24.13.71.2,1.08a12,12,0,0,1,.52,3.24,54.33,54.33,0,0,1-1.56,10c-1.4,4.53-3.43,8.85-5.19,13.26l-1.11,2.77c4-2.66,7.46-5.37,6.78-10.11a3.89,3.89,0,0,1,.16-1.2c.77-3.84,2.14-7.67,2.18-11.52.06-6.2-.67-12.42-1.23-18.61a25.32,25.32,0,0,0-1.26-4.72c-3.05-.87-4.53.9-6.07,2.52-.2-.21-.53-.64-.57-.61-1.32.88-2.62,1.8-3.92,2.72l.29.63,2.72-1a86.43,86.43,0,0,1-7.26,6.32,4.72,4.72,0,0,0-2.13,5.72c2.81.06,3.53.52,3.34,3.54-.54,8.39-1.28,16.77-2.17,25.13-.17,1.59-1.41,3.06-2.31,4.91l-.95,4.85Zm-48.92-2.52a2.17,2.17,0,0,1,.51-.45c1-.53,2-1,3-1.54.37,1.13.76,2.26,1.13,3.4,0,.06,0,.15,0,.23-.87,4.09-1.74,8.18-2.57,12.27a3.66,3.66,0,0,0,.3,1.3l3.16-2.11c.86,2.15.92,3.75-.12,5.63-.6,1.09-.72,3.4,0,4.1,2.54,2.51,3.29,5.55,3.74,8.83.18,1.28.49,2.53.74,3.8l.76-.14.61-2.52.45.07.6,8.34c1-.24,1.38-.49,1.42-.79.51-3.66,1.08-7.31,1.37-11,.11-1.34-.78-2.75-.67-4.09.13-1.59,1.25-3.13,1.21-4.68,0-1.71-.9-3.41-1.59-5.77l2.94,2.18v-9c0-.55-.11-1.55,0-1.58,2.26-.62.84-1.84.62-2.94a4.38,4.38,0,0,1,.09-2.3c.67-1.88,2-3.65,2.2-5.56a90.89,90.89,0,0,0,.1-10c1.84-.74,2.13-2.84,2.06-4.16-.3-5.12-1.48-10.08-5.16-14-1.36-1.45-2.78-2.85-4.21-4.24s-3.14-2.93-4.71-4.39l.26-.35q3.95,2.75,7.88,5.5l.68-1-9.24-6.67c2.58.12,2.16-.79,1.13-1.73-1.86-1.69-3.75-3.34-5.69-4.94-3.36-2.77-6.76-5.49-10.14-8.23a15.59,15.59,0,0,0-1.52,2.08c-3.76,7.66-7.31,15.4-9.33,23.74a64.44,64.44,0,0,1-1.87,7.2,8.78,8.78,0,0,0,2,9.88c.4-3.63.72-7.47,1.28-11.27s1.22-7.82,2.12-11.67a41.83,41.83,0,0,1,2.71-7.92c.47-1,1.93-1.56,2.94-2.33a20.62,20.62,0,0,1,1.17,3.3,6.93,6.93,0,0,1-.31,2.65c-1.25,5.07-2.68,10.09-3.75,15.19-.8,3.79-1.09,7.69-1.7,11.52a39.41,39.41,0,0,1-1.14,4.65,4.91,4.91,0,0,0,2.7,5.61c.11-1.48-.09-3,.37-4.35,2.36-6.74,4.63-13.54,7.46-20.1,1.38-3.18,3.82-5.94,6-8.73.49-.62,1.86-.55,2.82-.79a14,14,0,0,1,.14,2.41,5.9,5.9,0,0,1-.65,2.06c-2.53,4.94-5.29,9.78-7.6,14.83-1.42,3.11-2.18,6.52-3.23,9.8l.78.32a28.55,28.55,0,0,1,2.21-3.8,89.82,89.82,0,0,1,7.22-8.33,9.06,9.06,0,0,1,8-2.48c-.62.83-.93,1.31-1.31,1.75a20.07,20.07,0,0,0-2.84,3.32,105.26,105.26,0,0,0-5.28,11.23c-1.07,2.81-1.43,5.9-2.11,8.86a5.3,5.3,0,0,0-1,1.32c-.74,2.08-1.3,4.22-2.07,6.29-.93,2.52-.65,3.83,1.53,5.76.21-3,.36-5.91.65-8.84C131.53,349.13,131.94,347.62,132.24,346.09Zm36.47,22.08.14.33A19.14,19.14,0,0,0,166,369a32.45,32.45,0,0,0-4.06,1.63,24.21,24.21,0,0,0-3.52,2,23.16,23.16,0,0,0-3.14,2.63c-.58.57-.77,1.71-1.41,2-1.82.85-2,2.21-2,4a17.73,17.73,0,0,1-.93,4.29c-.5,1.76-1.09,3.5-1.78,5.7l2.9-1.36.65.37c-2.89,4.67-6.43,9.17-4.26,15.83l7.3-7.9.3.17-.67,2.23c4.71-2.6,5.2-8.08,8.93-11.11l.42,3.74c3.68-2.65,4.67-7.92,9.9-8,0,.63-.07,1.27-.11,2.2a10.54,10.54,0,0,0,1.34-1.08,16.44,16.44,0,0,1,7.18-5.36c1.85-.6,2.12-1.65,2.48-2.91.53-1.84.67-3.79,1.25-5.6a19.22,19.22,0,0,1,1.92-3.44l.28.25-1.71,11c1.32.57,1.35-3.81,3.19-.73a17.06,17.06,0,0,0,2.59-1.7,10,10,0,0,0,2.73-3.25c.67-1.81.55-3.95,3-4.87l-1.2-.38c.11-1.09.22-2.19.34-3.43h-3.12l-1,4.09-.66-.13V365.6c-1.47,0-2.75,0-4,0-6.16-.1-12.34-.43-18.49-.21-2.19.08-4.33,1.48-6.48,2.32-.14.05-.13.5-.2.78Zm9.47-41.75-.82-.39a68,68,0,0,1-5.73,3.69c-4.32,2.28-8.61,4.6-12.12,8a10.09,10.09,0,0,0-1.44,2.88l.62.39,3.55-2.83a18.94,18.94,0,0,1-1.77,3.58c-1,1.94-1.78,3.95-2.61,6-.57,1.37-.75,3-1.66,4.09-1.31,1.51-1.56,2.69-.07,4-1.64,1.84-4.21,14.89-3.29,16.83.25-.43.42-.76.61-1.07,1.16-1.93,1.7-4.15,4.28-5.2,1.52-.62,3.65-1,4.38-3.33.31-1,1.86-1.62,2.84-2.41l.32.39L164.7,363l.59.34c1.19-1.39,2.69-2.63,3.51-4.22,1.56-3,2.87-6.14,2.94-9.76.06-3.37,1-6.71,1.33-10.08.25-2.34.13-4.71.27-7.07a11,11,0,0,1,.62-2.25l.86,8.47h.52v-7.27h.76c.17,3.5.33,7,.5,10.49a46.61,46.61,0,0,0,.1-8.83,1.63,1.63,0,0,1,.05-.49Q177.47,329.37,178.18,326.42Zm37.43-152.85a18.8,18.8,0,0,0-4.16,1.15c-3.88,2.12-7.64,4.46-11.47,6.68-6.24,3.61-9.83,9.1-11.42,16a12.61,12.61,0,0,0,0,2.25l4.69-5.24.48.85,7.54-6.84c-.13.64-.27,1.35-.43,2.2,5.56-2.4,8.49-6.85,11.18-11.7-.64,1.95-1.27,3.91-2,6.05C212.53,183.62,215.6,177.28,215.61,173.57ZM161.86,286.51c.22-.77.53-1.53.67-2.31.79-4.28-.87-8.09-2.38-11.89-3-7.43-6.17-14.72-11.24-21-1.23-1.54-2.66-2.92-4-4.37l-.6.38C152.92,259.06,159.16,271.81,161.86,286.51Zm43.57,30.3c2.07-7.21,1.3-14.61,1.66-22.32l-6.82,1.09C204.32,302.39,204.93,309.57,205.43,316.81Zm-12.71,40.82c-8.32-.66-19.7,2.05-21.38,5.29,1.08-.06,2-.07,3-.18,5.19-.62,10.37-1.43,15.57-1.85C192.14,360.71,193.29,360.21,192.72,357.63ZM85.78,277.07l.86-.23c-1.37-7.9,1-15.43,1.91-23.17a112.29,112.29,0,0,0-4.44,10.46c-.61,1.63-1.77,3.47-1.46,5C83.22,271.85,84.69,274.42,85.78,277.07Zm113.87,62.7a3.07,3.07,0,0,0,.77-.1c4-1.54,7.61-3.95,12-4.47a39.66,39.66,0,0,0,7.9-1.87c1.32-.45,4,0,3.25-3.06a19.52,19.52,0,0,0-2.58.32c-3.69,1-7.34,2.16-11,3.14C206,334.78,202.09,335.83,199.65,339.77Zm30.67,1.49,4.49,1.13c.76-2.2,1.55-4.46,2.36-6.83C231,334.83,230.55,335.19,230.32,341.26Zm13,25.07c-.51-.4-.71-.68-1-.73-4.8-1-9.59-2-14.43-2.72a5.89,5.89,0,0,0-5.64,2Zm18.07-22.39,16.39-1C266.89,340.5,263.1,340.81,261.35,343.94Zm-153.89-7.87c4.14,3.61,8.08,7.07,12,10.52C117.74,341.71,111.28,336.23,107.46,336.07Zm90.25,15.23-.18-.83c-5.26-.54-15.23,1.72-16.86,4.9,2.89-.92,5.59-2,8.39-2.64S194.82,351.76,197.71,351.3Zm42.81-16.77c-2.16,1.51-4.55,7.74-3.9,10a1.29,1.29,0,0,1,0,.23,7.28,7.28,0,0,0,1.46.2c1-3.32,2-6.67,2.94-10C241,334.88,240.78,334.75,240.52,334.53ZM184.85,209.8l8.59-8.18C187.91,200.36,185.23,205.75,184.85,209.8ZM97.43,295.64l3.1-14C96.58,286,95.08,293.08,97.43,295.64Zm62,35.11.66.58,9.14-10.08-.82-.74C165.74,324.2,160.92,326,159.44,330.75Zm-48.76-23c-3.49,4.4-4.17,9.86-1.36,11.09C109.77,315.14,110.23,311.43,110.68,307.74Zm105.39,31.48-.61-.78c-3.48.76-7.18.57-10.44,2.36,3.19,0,6.27.08,9.33-.07C215,340.7,215.5,339.75,216.07,339.22Zm14.84-7.8c5.52.1,7.44-.64,7.35-2.94l-7.75.61Zm-32.23,25.17-5,1c1.3,3.55,1.3,3.55,5.17,3C198.81,359.32,198.75,358,198.68,356.59ZM128,342.48c-3.28,2.07-4,6.2-1.44,9.6C127.07,348.65,127.52,345.68,128,342.48ZM82.93,255.34l-.39-.26c-1.31,2.4-2.62,4.79-3.91,7.17l1.88,2.49Zm152.73,54.32,12.27-2.23C242.91,306.13,236.7,307.25,235.66,309.66Zm-29.72,39.61c1.9,2.2,4.36,1.33,6.57,1.54.45.05,1-.79,1.85-1.54Zm15.67-11.52c.64,1.06,1.22,2,1.92,3.16.3-.93.76-1.63.67-2.25s-.79-1.72-1.15-1.69a43,43,0,0,0-5.23,1l1.18,2.8C219.8,339.82,220.61,338.9,221.61,337.75Zm-69.53-62.3-.69.36,3,6.55C155.65,278.57,155.09,277.18,152.08,275.45ZM198,195.74c3,.93,5.37.84,7.51-1.8C202.74,194.13,200.21,193.41,198,195.74ZM160.54,322.93l4.67-7.91A7.27,7.27,0,0,0,160.54,322.93Zm30.41-123,.24.66c3.84.09,6.23-.84,8.22-3.64ZM220,327c-5.3-.15-7.84.81-9.87,3.49Zm58.18,12.07v-.68c-2.5-.18-5.05-1.51-7.49-.09l0,.77Zm-20.54,4c4.23-1.61,5.17-3.1,3.68-5.79ZM178.68,216c1.06-4,.26-5.79-3-8.07Zm-4.16,53c-3.2,1.94-5.78,6.15-5.13,8.3ZM204,163.15c-3.25-.09-4.67,1.66-4.5,5.35ZM167.29,303.58l-1.11-.55-3.64,6.56.91.51Zm39.45,7c.58.78,1,1.35,1.43,1.93.59-.63,1.63-1.23,1.66-1.87s-.9-1.43-1.4-2.15Zm-31.55-6.42.45.66,6.12-4.46C178.27,299.93,176.91,302.29,175.19,304.12ZM205,144.76l1,.25c.33-2.46.67-4.92,1-7.38l-1.08-.16ZM157.21,294l1.23,10.45C159.11,297.61,159,296,157.21,294ZM182.56,195l-.93.07c.36,2.3.72,4.61,1.1,7C185.41,199.53,182.34,197.39,182.56,195Zm-8.29,130.88c3.29,0,4.17-1.25,3.62-4.35Zm33.53,48.87c-3.08-1.25-4.62-.92-6,1.5Zm18.69-33.59c.9-.62,1.59-.84,1.73-1.24a32,32,0,0,0,.84-3.67l-.95-.2Zm-23.55,39.86v-.5h-6v.5Zm-123-103.41,5.49,3.94C84.66,278.8,82.27,278.26,79.93,277.65Zm142.71,35.41-1-.44-2,5.62.85.32ZM181.75,219l.61.31,3.33-4.77-.76-.49Zm8.6,128.37.29.76L196.4,346,196,345Zm21.58,6.89v.09h6.16l0-.75Z"/><path class="cls-2" d="M274.47,335.37c1.17-1,2.27-2.09,3.52-3,1.77-1.23,3.64-2.31,5.5-3.42a1.55,1.55,0,0,1,1.15-.28c3.57,1.58,7.24,0,10.83.46a6.49,6.49,0,0,1,2,1.12,8.3,8.3,0,0,1-2.1.6c-4,.08-8-.08-11.93.17-1.38.08-2.7,1.08-4,2.18,5.67-.7,11.25-1.55,17,1.27-.7.38-1.17.86-1.65.86-6.81,0-13.63,0-20.44-.05Z"/><path class="cls-2" d="M233.79,290.17c-2.58,1.3-.72,3.33-.76,5l.53-1.33.71.17q-1.65,6.54-3.29,13.08l-1.27-.13a34.25,34.25,0,0,1,0-4.18c.35-2.77,1.13-5.52,1.26-8.29.21-4.62.05-9.25.05-13.95.17.06.8.16.82.32.23,2.2,2.77,3.94,1.18,6.57C232.73,288,233.5,289.19,233.79,290.17Z"/><path class="cls-2" d="M243.23,294.28c0-5.46,0-11.14.05-16.82,0-.79.57-2.15,1-2.23,1.54-.23,1.73,1,1.73,2.27,0,3.73,0,7.47,0,11.2C246.08,291.24,245.33,293.29,243.23,294.28Z"/><path class="cls-2" d="M273,333.48l0,.09c-.1-.48-.45-1.06-.29-1.43,1.29-3,2.77-5.89,4-8.9a55.61,55.61,0,0,0,1.67-5.6l1.31.83c1.3,2.61,0,5.31-1.33,7.74C276.9,328.84,274.77,331.08,273,333.48Z"/><path class="cls-2" d="M152.81,227.33c-1.89.24-2.93-.59-4-2.24a89.84,89.84,0,0,0-6.19-7.64,6.73,6.73,0,0,1-.56-1c3.37-.18,9.86,6.58,10.69,11Z"/><path class="cls-1" d="M255.79,276.14c2.14-.75,1.72-3,3-4.53-.75,3.57-1.51,7.14-2.31,10.92-2.67.17-2.33,2.87-3.14,4.73l-.56-.2c.15-.44.32-.89.44-1.34.17-.62.23-1.27.45-1.86.67-1.74,1.47-3.44,2.06-5.2A9,9,0,0,0,255.79,276.14Z"/><path class="cls-2" d="M193.34,281l2.92-3.24c.4-.39.74-.92,1.22-1.13a1.61,1.61,0,0,1,1.32.2c.19.12.2.76.08,1.09C198.15,279.9,196,281.08,193.34,281Z"/><path class="cls-3" d="M266.92,335.86c.47-2.06.93-4.13,1.4-6.2a2.64,2.64,0,0,1,.28-.36c1.25-.86,1.67-.07,2,1Z"/><path class="cls-3" d="M199.69,387.75c1.34-2,2.72-.18,3.94.13a7.76,7.76,0,0,1,3.39,2.55h-2.35Z"/><path class="cls-1" d="M270.57,330.28c-.3-1-.72-1.84-2-1,.25-1.23.49-2.46.73-3.66l2.78,1.93Z"/><path class="cls-2" d="M265.53,369.42c.52,1.05,1.05,2.12,1.94,3.89l-4.42-1.48Z"/><path class="cls-2" d="M234.31,386.76c-.86-1.38-3.44-1.26-3.38-3.44l.66-.58,3.21,3.59Z"/><path class="cls-2" d="M285.91,317.32q-.69,2.39-1.39,4.79l-.83-.24q.69-2.44,1.39-4.9Z"/><path class="cls-3" d="M132.3,346.15c.68-3,1-6,2.11-8.86a105.26,105.26,0,0,1,5.28-11.23,20.07,20.07,0,0,1,2.84-3.32c.38-.44.69-.92,1.31-1.75a9.06,9.06,0,0,0-8,2.48,89.82,89.82,0,0,0-7.22,8.33,28.55,28.55,0,0,0-2.21,3.8l-.78-.32c1-3.28,1.81-6.69,3.23-9.8,2.31-5.05,5.07-9.89,7.6-14.83a5.9,5.9,0,0,0,.65-2.06,14,14,0,0,0-.14-2.41c-1,.24-2.33.17-2.82.79-2.17,2.79-4.61,5.55-6,8.73-2.83,6.56-5.1,13.36-7.46,20.1-.46,1.32-.26,2.87-.37,4.35a4.91,4.91,0,0,1-2.7-5.61,39.41,39.41,0,0,0,1.14-4.65c.61-3.83.9-7.73,1.7-11.52,1.07-5.1,2.5-10.12,3.75-15.19a6.93,6.93,0,0,0,.31-2.65,20.62,20.62,0,0,0-1.17-3.3c-1,.77-2.47,1.32-2.94,2.33a41.83,41.83,0,0,0-2.71,7.92c-.9,3.85-1.55,7.76-2.12,11.67s-.88,7.64-1.28,11.27a8.78,8.78,0,0,1-2-9.88,64.44,64.44,0,0,0,1.87-7.2c2-8.34,5.57-16.08,9.33-23.74a15.59,15.59,0,0,1,1.52-2.08c3.38,2.74,6.78,5.46,10.14,8.23,1.94,1.6,3.83,3.25,5.69,4.94,1,.94,1.45,1.85-1.13,1.73l9.24,6.67-.68,1q-3.93-2.76-7.88-5.5l-.26.35c1.57,1.46,3.16,2.9,4.71,4.39s2.85,2.79,4.21,4.24c3.68,3.94,4.86,8.9,5.16,14,.07,1.32-.22,3.42-2.06,4.16a90.89,90.89,0,0,1-.1,10c-.21,1.91-1.53,3.68-2.2,5.56a4.38,4.38,0,0,0-.09,2.3c.22,1.1,1.64,2.32-.62,2.94-.14,0,0,1,0,1.58v9L146.2,361c.69,2.36,1.55,4.06,1.59,5.77,0,1.55-1.08,3.09-1.21,4.68-.11,1.34.78,2.75.67,4.09-.29,3.68-.86,7.33-1.37,11,0,.3-.45.55-1.42.79l-.6-8.34-.45-.07-.61,2.52-.76.14c-.25-1.27-.56-2.52-.74-3.8-.45-3.28-1.2-6.32-3.74-8.83-.71-.7-.59-3,0-4.1,1-1.88,1-3.48.12-5.63l-3.16,2.11a3.66,3.66,0,0,1-.3-1.3c.83-4.09,1.7-8.18,2.57-12.27,0-.08.07-.17,0-.23-.37-1.14-.76-2.27-1.13-3.4-1,.51-2,1-3,1.54a2.17,2.17,0,0,0-.51.45Z"/><path class="cls-3" d="M168.71,368.17l-4.81.32c.07-.28.06-.73.2-.78,2.15-.84,4.29-2.24,6.48-2.32,6.15-.22,12.33.11,18.49.21,1.28,0,2.56,0,4,0v4.14l.66.13,1-4.09h3.12c-.12,1.24-.23,2.34-.34,3.43l1.2.38c-2.43.92-2.31,3.06-3,4.87a10,10,0,0,1-2.73,3.25,17.06,17.06,0,0,1-2.59,1.7c-1.84-3.08-1.87,1.3-3.19.73l1.71-11-.28-.25a19.22,19.22,0,0,0-1.92,3.44c-.58,1.81-.72,3.76-1.25,5.6-.36,1.26-.63,2.31-2.48,2.91a16.44,16.44,0,0,0-7.18,5.36,10.54,10.54,0,0,1-1.34,1.08c0-.93.08-1.57.11-2.2-5.23.12-6.22,5.39-9.9,8l-.42-3.74c-3.73,3-4.22,8.51-8.93,11.11l.67-2.23-.3-.17-7.3,7.9c-2.17-6.66,1.37-11.16,4.26-15.83l-.65-.37-2.9,1.36c.69-2.2,1.28-3.94,1.78-5.7a17.73,17.73,0,0,0,.93-4.29c0-1.76.22-3.12,2-4,.64-.3.83-1.44,1.41-2a23.16,23.16,0,0,1,3.14-2.63,24.21,24.21,0,0,1,3.52-2A32.45,32.45,0,0,1,166,369a19.14,19.14,0,0,1,2.84-.48Z"/><path class="cls-3" d="M191.64,299.42c1.54-1.62,3-3.39,6.07-2.52a25.32,25.32,0,0,1,1.26,4.72c.56,6.19,1.29,12.41,1.23,18.61,0,3.85-1.41,7.68-2.18,11.52a3.89,3.89,0,0,0-.16,1.2c.68,4.74-2.73,7.45-6.78,10.11l1.11-2.77c1.76-4.41,3.79-8.73,5.19-13.26a54.33,54.33,0,0,0,1.56-10,12,12,0,0,0-.52-3.24c-.07-.37-.34-.84-.2-1.08,2-3.57-1-5.27-2.93-7.52-.14,8.27-.2,16.5-3,24.31-2.67,7.37-3.31,15.78-10.79,21.24-.16-.95-.27-1.58-.37-2.21.44-.29,1-.48,1.3-.88a39.31,39.31,0,0,0,6.28-22.2c-.06-2.88-1.4-5.73-2.15-8.59l-.69.12a8.73,8.73,0,0,0-.09,1.76c.25,1.72.94,3.45.82,5.14a103.59,103.59,0,0,1-1.42,11.49A66.2,66.2,0,0,1,183,343c-.57,1.88-1.22,3.75-1.83,5.62l-2.48,3.06.95-4.85c.9-1.85,2.14-3.32,2.31-4.91.89-8.36,1.63-16.74,2.17-25.13.19-3-.53-3.48-3.34-3.54a4.72,4.72,0,0,1,2.13-5.72,86.41,86.41,0,0,0,7.25-6.31Z"/><path class="cls-3" d="M178.18,326.42q-.7,3-1.43,5.89a1.63,1.63,0,0,0-.05.49,46.61,46.61,0,0,1-.1,8.83c-.17-3.5-.33-7-.5-10.49h-.76v7.27h-.52l-.86-8.47a11,11,0,0,0-.62,2.25c-.14,2.36,0,4.73-.27,7.07-.35,3.37-1.27,6.71-1.33,10.08-.07,3.62-1.38,6.72-2.94,9.76-.82,1.59-2.32,2.83-3.51,4.22l-.59-.34.57-1.93-.32-.39c-1,.79-2.53,1.41-2.84,2.41-.73,2.29-2.86,2.71-4.38,3.33-2.58,1.05-3.12,3.27-4.28,5.2-.19.31-.36.64-.61,1.07-.92-1.94,1.65-15,3.29-16.83-1.49-1.31-1.24-2.49.07-4,.91-1,1.09-2.72,1.66-4.09.83-2,1.65-4,2.61-6a18.94,18.94,0,0,0,1.77-3.58L158.69,341l-.62-.39a10.09,10.09,0,0,1,1.44-2.88c3.51-3.45,7.8-5.77,12.12-8a68,68,0,0,0,5.73-3.69Z"/><path class="cls-3" d="M215.61,173.57c0,3.71-3.08,10.05-5.58,11.42.7-2.14,1.33-4.1,2-6.05-2.69,4.85-5.62,9.3-11.18,11.7.16-.85.3-1.56.43-2.2l-7.54,6.84-.48-.85-4.69,5.24a12.61,12.61,0,0,1,0-2.25c1.59-6.92,5.18-12.41,11.42-16,3.83-2.22,7.59-4.56,11.47-6.68A18.8,18.8,0,0,1,215.61,173.57Z"/><path class="cls-3" d="M253.43,332.47c.16-.71.37-1.41.48-2.12.31-1.94,1.16-1.36,2.63-.64l-1.49-5.2c1.84.26,4-1.32,5.18,1.4l1.78-.79.87,2.54-.45.45-2.32-1.19c-.56,2-1,4.05-1.65,6-.9,2.71-2.28,5.3-2.82,8.06a9,9,0,0,1-3.7,6,46.71,46.71,0,0,1-6,3.26c-.2.09-.71-.44-1.07-.68l3.47-4.34,2.82-1.1q1.2-5.86,2.38-11.68Z"/><path class="cls-3" d="M212,321.61c.94-2,1.38-4.56,2.92-5.72,2.27-1.71,2.08-3.8,2.34-5.95.1-.75.49-1.75-1-1.93-.25,0-.28-1.94-.49-3.64l1.38,1.28c.92-4.62-1.76-8.29-3.44-12.44l5.42-1.8a30.88,30.88,0,0,1,.28,3.43c-.3,7.21-.61,14.42-1,21.62-.13,2.31-4.73,7.82-6.36,8.25v-3.16Z"/><path class="cls-3" d="M212,321.61l0-.06-4.22,6.7-.75-.32c.66-1.88,1.48-3.72,1.95-5.64s1.91-3.93,0-6c-.38-.41.36-1.85.64-3.06l.67,1.66.47,0a34,34,0,0,0,.6-5.66c-.08-1.64,1.65-3.64-.91-5,3.54-1.79,1.28-5.07,2.35-8.07A14.44,14.44,0,0,1,214,299a41,41,0,0,1,1.16,7.87,41.77,41.77,0,0,1-1.27,8.33C213.44,317.35,212.62,319.46,212,321.61Z"/><path class="cls-3" d="M161.86,286.51c-2.7-14.7-8.94-27.45-17.56-39.19l.6-.38c1.35,1.45,2.78,2.83,4,4.37,5.07,6.28,8.29,13.57,11.24,21,1.51,3.8,3.17,7.61,2.38,11.89C162.39,285,162.08,285.74,161.86,286.51Z"/><path class="cls-3" d="M247.17,333.62a5.34,5.34,0,0,0-.32-1.92,21.33,21.33,0,0,1-1.77-2.8c-1.77-1.21-3.53-2.44-5.33-3.6a1.93,1.93,0,0,0-1.15-.18c-3.78.29-7.56.63-11.34.92a3.17,3.17,0,0,1-1.95-.5,6.61,6.61,0,0,1,1.33-.42c4.36-.36,8.73-.55,13.07-1.07a40.55,40.55,0,0,0,6.13-1.75,9.34,9.34,0,0,0,1.58,1c.82.35,2.38.37,2.48.8a12.5,12.5,0,0,1,0,4.23c-.2,1.65-.65,3.26-1,4.89l.68.41h-2.46Z"/><path class="cls-3" d="M237.57,349.23c2.74-.44,2.78-3,3.55-4.8,1.37-3.26,2.44-6.64,3.58-9.81l2.48-1-.07,0c1.63,2,.35,4-.42,5.7a99.83,99.83,0,0,1-6.34,11.57c-1.56,2.46-3.26,5.1-6.6,5.61-.13-.5-.25-1-.38-1.5,1.1-.19,4.85-4.47,4.74-5.44C238.1,349.42,237.76,349.33,237.57,349.23Z"/><path class="cls-3" d="M205.43,316.81c-.5-7.24-1.11-14.42-5.16-21.23l6.82-1.09C206.73,302.2,207.5,309.6,205.43,316.81Z"/><path class="cls-3" d="M192.72,357.63c.57,2.58-.58,3.08-2.84,3.26-5.2.42-10.38,1.23-15.57,1.85-.94.11-1.89.12-3,.18C173,359.68,184.4,357,192.72,357.63Z"/><path class="cls-3" d="M85.78,277.07c-1.09-2.65-2.56-5.22-3.13-8-.31-1.49.85-3.33,1.46-5a112.29,112.29,0,0,1,4.44-10.46c-.87,7.74-3.28,15.27-1.91,23.17Z"/><path class="cls-3" d="M199.65,339.77c2.44-3.94,6.36-5,10.32-6,3.7-1,7.35-2.12,11-3.14a19.52,19.52,0,0,1,2.58-.32c.73,3-1.93,2.61-3.25,3.06a39.66,39.66,0,0,1-7.9,1.87c-4.41.52-8,2.93-12,4.47A3.07,3.07,0,0,1,199.65,339.77Z"/><path class="cls-3" d="M229.46,352.71a7.94,7.94,0,0,0,5-5.2c.66-1.82,1.33-1.29,2.36-1.09.11,1.23.21,2.35.3,3.48-2.44.88-3.48,2.73-3.63,5.2-.29,0-.82-.18-.85-.11-1.42,3.53-4.58,4.51-7.37,5.45l4.2-7.53Z"/><path class="cls-3" d="M204.58,368.6c-1.62.65-2.07-.38-2.37-1.63l0,.08c1.84.14.84-1.47,1.33-2.16l0,.05a18.65,18.65,0,0,0,1.47-4c.62-4.78,1.12-5.24,6-4.45a22.93,22.93,0,0,0-1.29,3.17,5.33,5.33,0,0,1-2.14,3.71c-1.5,1.09-2.06,3.49-3,5.31Z"/><path class="cls-3" d="M229.46,352.71v.2c-1,1.4-2.06,2.82-3.12,4.21-.23.29-.62.7-.91.67-2.52-.23-2.81,1.84-3.59,3.4s-1.61,2.62-3.52,1.9c.35-.83.7-1.66,1-2.5,2-.4,2.58-1.71,2.88-3.59.67-4.09,1.32-4.6,5.13-4.87l-.75-2,4.34-.32Z"/><path class="cls-3" d="M219.36,360.59c-.34.84-.69,1.67-1,2.5-2-.18-2.65,1.73-3.92,2.67-.83.62-1.68,1.2-2.86,2-.16-2.23-.16-3.43,1.54-4.68a20.7,20.7,0,0,0,5.07-5.85,66.67,66.67,0,0,0,3.59-7.7c0-.06.14-.08.83-.45C221.41,353.25,220.39,356.92,219.36,360.59Z"/><path class="cls-3" d="M248.3,345.18l-3.47,4.34a6.66,6.66,0,0,1,.39-2.39c2.43-3.87,4.64-7.82,5.54-12.36.48-2.42.87-4.86,1.26-7.29.18-1.09.27-2.2.41-3.35,1.63.69,1.79,2.5,1,8.34l.07-.07c-.3.52-.81,1-.88,1.55A28.81,28.81,0,0,1,248.3,345.18Z"/><path class="cls-3" d="M230.32,341.26c.23-6.07.65-6.43,6.85-5.7-.81,2.37-1.6,4.63-2.36,6.83Z"/><path class="cls-3" d="M243.28,366.33l-21-1.41a5.89,5.89,0,0,1,5.64-2c4.84.69,9.63,1.77,14.43,2.72C242.57,365.65,242.77,365.93,243.28,366.33Z"/><path class="cls-3" d="M261.35,343.94c1.75-3.13,5.54-3.44,16.39-1Z"/><path class="cls-3" d="M107.46,336.07c3.82.16,10.28,5.64,12,10.52C115.54,343.14,111.6,339.68,107.46,336.07Z"/><path class="cls-3" d="M197.71,351.3c-2.89.46-5.81.76-8.65,1.43s-5.5,1.72-8.39,2.64c1.63-3.18,11.6-5.44,16.86-4.9Z"/><path class="cls-3" d="M240.52,334.53c.26.22.5.35.49.41-.95,3.35-1.9,6.7-2.94,10a7.28,7.28,0,0,1-1.46-.2,1.29,1.29,0,0,0,0-.23C236,342.27,238.36,336,240.52,334.53Z"/><path class="cls-3" d="M184.85,209.8c.38-4.05,3.06-9.44,8.59-8.18Z"/><path class="cls-3" d="M97.43,295.64c-2.35-2.56-.85-9.64,3.1-14Z"/><path class="cls-3" d="M204.51,368.67c3,0,3.45-2.81,4.76-4.52a83.67,83.67,0,0,0,4.87-7.88c-.44,5.06-6.67,14.06-10,14.58l.49-2.25Z"/><path class="cls-3" d="M132.24,346.09c-.3,1.53-.71,3-.87,4.59-.29,2.93-.44,5.87-.65,8.84-2.18-1.93-2.46-3.24-1.53-5.76.77-2.07,1.33-4.21,2.07-6.29a5.3,5.3,0,0,1,1-1.32Z"/><path class="cls-3" d="M159.44,330.75c1.48-4.75,6.3-6.55,9-10.24l.82.74-9.14,10.08Z"/><path class="cls-3" d="M110.68,307.74c-.45,3.69-.91,7.4-1.36,11.09C106.51,317.6,107.19,312.14,110.68,307.74Z"/><path class="cls-3" d="M216.07,339.22c-.57.53-1.12,1.48-1.72,1.51-3.06.15-6.14.07-9.33.07,3.26-1.79,7-1.6,10.44-2.36Z"/><path class="cls-3" d="M230.91,331.42l-.4-2.33,7.75-.61C238.35,330.78,236.43,331.52,230.91,331.42Z"/><path class="cls-3" d="M198.68,356.59c.07,1.42.13,2.73.19,4-3.87.51-3.87.51-5.17-3Z"/><path class="cls-3" d="M128,342.48c-.48,3.2-.93,6.17-1.44,9.6C124,348.68,124.72,344.55,128,342.48Z"/><path class="cls-3" d="M82.93,255.34l-2.42,9.4-1.88-2.49c1.29-2.38,2.6-4.77,3.91-7.17Z"/><path class="cls-3" d="M235.66,309.66c1-2.41,7.25-3.53,12.27-2.23Z"/><path class="cls-3" d="M202.21,367c-1,2.22-1.85,4.46-2.91,6.63-.24.49-1.06.7-2,.64q2.13-4.37,4.28-8.71l.5.16c0,.45.08.91.11,1.36Z"/><path class="cls-3" d="M62.8,245.48c3.81.32,8.91,4.1,9.2,6.94l-9.16-7Z"/><path class="cls-3" d="M205.94,349.27h8.42c-.86.75-1.4,1.59-1.85,1.54C210.3,350.6,207.84,351.47,205.94,349.27Z"/><path class="cls-3" d="M221.61,337.75c-1,1.15-1.81,2.07-2.61,3l-1.18-2.8a43,43,0,0,1,5.23-1c.36,0,1,1,1.15,1.69s-.37,1.32-.67,2.25C222.83,339.77,222.25,338.81,221.61,337.75Z"/><path class="cls-3" d="M152.08,275.45c3,1.73,3.57,3.12,2.3,6.91l-3-6.55Z"/><path class="cls-3" d="M202.11,362.65c.64,2.21-.93,2.35-2.31,2.18a34.57,34.57,0,0,1-4.85-1.38h5.56l-1.58-1.39.33-.69,2.9,1.35Z"/><path class="cls-1" d="M233.48,355.1c.15-2.47,1.19-4.32,3.63-5.2l.46-.67c.19.1.53.19.54.32.11,1-3.64,5.25-4.74,5.44Z"/><path class="cls-3" d="M198,195.74c2.26-2.33,4.79-1.61,7.51-1.8C203.32,196.58,201,196.67,198,195.74Z"/><path class="cls-3" d="M160.54,322.93a7.27,7.27,0,0,1,4.67-7.91Z"/><path class="cls-3" d="M191,199.94l8.46-3c-2,2.8-4.38,3.73-8.22,3.64Z"/><path class="cls-3" d="M220,327l-9.87,3.49C212.13,327.82,214.67,326.86,220,327Z"/><path class="cls-3" d="M278.15,339.08h-7.47l0-.77c2.44-1.42,5-.09,7.49.09Z"/><path class="cls-3" d="M257.61,343.05l3.68-5.79C262.78,340,261.84,341.44,257.61,343.05Z"/><path class="cls-3" d="M178.68,216l-3-8.07C178.94,210.25,179.74,212.08,178.68,216Z"/><path class="cls-3" d="M174.52,269l-5.13,8.3C168.74,275.15,171.32,270.94,174.52,269Z"/><path class="cls-3" d="M204,163.15l-4.5,5.35C199.34,164.81,200.76,163.06,204,163.15Z"/><path class="cls-3" d="M167.29,303.58l-3.84,6.52-.91-.51,3.64-6.56Z"/><path class="cls-3" d="M206.74,310.54l1.69-2.09c.5.72,1.42,1.45,1.4,2.15s-1.07,1.24-1.66,1.87C207.75,311.89,207.32,311.32,206.74,310.54Z"/><path class="cls-3" d="M175.19,304.12c1.72-1.83,3.08-4.19,6.57-3.8l-6.12,4.46Z"/><path class="cls-3" d="M205,144.76l1-7.29,1.08.16c-.33,2.46-.67,4.92-1,7.38Z"/><path class="cls-3" d="M157.21,294c1.76,2,1.9,3.66,1.23,10.45Z"/><path class="cls-3" d="M182.56,195c-.22,2.35,2.85,4.49.17,7.08-.38-2.4-.74-4.71-1.1-7Z"/><path class="cls-3" d="M203.5,364.89l-1.39-2.24,0,.07v-6.17l1-.08c.12,2.82.23,5.64.35,8.47C203.47,364.94,203.5,364.89,203.5,364.89Z"/><path class="cls-3" d="M174.27,325.92l3.62-4.35C178.44,324.67,177.56,325.88,174.27,325.92Z"/><path class="cls-3" d="M207.8,374.79l-6,1.5C203.18,373.87,204.72,373.54,207.8,374.79Z"/><path class="cls-3" d="M226.49,341.2l1.62-5.11.95.2a32,32,0,0,1-.84,3.67C228.08,340.36,227.39,340.58,226.49,341.2Z"/><path class="cls-3" d="M191.64,299.42l-1.49,1.79-2.71,1-.29-.63c1.3-.92,2.6-1.84,3.92-2.72C191.11,298.78,191.44,299.21,191.64,299.42Z"/><path class="cls-3" d="M202.94,381.06h-6v-.5h6Z"/><path class="cls-3" d="M79.93,277.65c2.34.61,4.73,1.15,5.49,3.94Z"/><path class="cls-3" d="M222.64,313.06l-2.13,5.5-.85-.32,2-5.62Z"/><path class="cls-3" d="M181.75,219l3.18-4.95.76.49-3.33,4.77Z"/><path class="cls-3" d="M190.35,347.37,196,345l.37.95-5.76,2.14Z"/><path class="cls-3" d="M211.93,354.26l6.13-.66,0,.75h-6.16Z"/><path class="cls-2" d="M181.16,348.61c.61-1.87,1.26-3.74,1.83-5.62a66.2,66.2,0,0,0,2.16-7.6,103.59,103.59,0,0,0,1.42-11.49c.12-1.69-.57-3.42-.82-5.14a8.73,8.73,0,0,1,.09-1.76l.69-.12c.75,2.86,2.09,5.71,2.15,8.59a39.31,39.31,0,0,1-6.28,22.2c-.26.4-.86.59-1.3.88Z"/><path class="cls-1" d="M248.3,345.18A28.81,28.81,0,0,0,252.62,334c.07-.55.58-1,.88-1.55q-1.19,5.82-2.38,11.68Z"/></svg>