<svg id="Layer_1" data-name="Layer 1" xmlns="http://www.w3.org/2000/svg" viewBox="0 0 333.82 432"><defs><style>.cls-1{fill:#8dc63f;}.cls-2{fill:#99c864;}.cls-3{fill:#fff;}</style></defs><title>spindle</title><path class="cls-1" d="M159.06,240.15l4,.89a18.54,18.54,0,0,1-1.46-3.38c-.59-3.1-2.81-6.06-.72-9.46.46-.75,0-2.07,0-3.13a31,31,0,0,0-.13-4.09,43.22,43.22,0,0,0-1.31-4.63l2.81.4c0-.42.11-.74,0-.9-1.76-2.29-5.23-4.11-2-7.76.19-.22-.29-1.27-.68-1.76-2.44-3.18.82-5.86.67-8.62-.16-2.94-2.34-5.76,1.33-8.11.63-.4.38-2,.75-3,.66-1.77-1.66-4.84,2.23-5.19l-1.22-4.47,4.43-1.6c-2.79-3.14-1.93-5.54.5-8,1.17-1.17,1.69-3,2.58-4.45,1.73-2.87.85-6.66,3.67-9.29,1.11-1,1-3.47,1.47-5.72,3.55.09,4.3-1.63,4.09-5.91-.2-4.08,1-10,3.77-12.07,5.09-3.78,3.08-9.63,6.18-13.53,1.23-1.54,2.77-2.83,4-4.37a11.6,11.6,0,0,0,2.11-3.6c.84-2.65,1.06-5.55,2.18-8.06.88-2,3.07-3.38,4.07-5.34,2.8-5.47,4.27-12,8.13-16.47,6.24-7.29,5.34-15.94,7.1-24.13,1.84-8.56,3.77-17.09,5.66-25.63l1.11.06c.34,4.61.84,9.22,1,13.83.18,5.41-.18,10.85.15,16.25.24,4,1.43,8,1.74,12,.15,1.91-.65,4-1.25,5.86-.74,2.39-1.71,4.71-2.58,7.06l1.37.58,2.45-3.37c1.24,4.15,1,7.65-2.91,11.12,6.27.66,4.26-6.7,9.19-6.37a32.56,32.56,0,0,0,3,5.73c1.25,1.6,1.57,3.84,5.05,4,2.28.12,4.68,4.6,6.35,7.51a9.07,9.07,0,0,0,5.06,4.33c2.31.94,4.23,3.72,5.51,6.13,1.46,2.73,2,6,3,9l1-.52c.86,1.33,2.16,2.55,2.48,4,.52,2.34.67,4.56,3.68,5,.53.08,1.17,1.07,1.33,1.74,1.06,4.67,2,9.37,3,14,.22,1,.73,2.4,1.45,2.66,4.83,1.74,3.45,5.92,3.84,9.34,3.83,1.57,5.11,4.48,4.88,8.79-.1,2,1.2,4.07,1.74,6.14.78,2.91,1.63,5.82,2.12,8.79.82,5,1.39,10.11,2.07,15.17,0,.13.1.25.12.39.56,3.91,1.3,7.81,1.6,11.75.14,1.78-.82,3.62-.88,5.44a43.64,43.64,0,0,0,.48,6.13c.15,1.44.82,3,.51,4.28-1.17,4.93-2.82,9.76-3.92,14.7-.28,1.3.75,2.89,1.31,4.79-.58,2.26-1,5.54-2.27,8.44-1.41,3.21-3.58,6.1-5.44,9.12-2.13,3.46-5.56,6.7-6.14,10.4-.75,4.77-3.43,7.61-6.37,10.48-3.65,3.57-7.76,6.66-11.52,10.12-1,.95-1.5,2.51-2.27,3.77-.33.55-.65,1.3-1.16,1.52-3.51,1.49-7.06,2.88-10.62,4.25-1.09.42-2.25.66-4,1.15,1.14,1,1.77,1.53,2.52,2.16a3,3,0,0,1-1,.5,56.11,56.11,0,0,0-7.25.46c-6.11,1.22-10.49-2.14-13.19-6.44-2.48-4-3.68-1.87-5.73-.45-3.1,2.15-6,4.63-9.42,6.2s-7.25,2.87-10.5-1c-.28-.33-2.1.73-3.24,1a17.74,17.74,0,0,1-2.64.21c.48-.67.82-1.56,1.46-2,1.48-.95,3.11-1.68,5.61-3l-7.34-4.27-.34,5.24c-9-2.74-12.91-10.64-18.5-16.77.4-5.58-5.59-8.89-5-14.81a15.28,15.28,0,0,0-2.36-8.9C157.15,255.43,160.46,247.8,159.06,240.15Zm59.5,39.69-.65.1v11.82l3.06-3.95C220.14,285,219.35,282.44,218.56,279.84Zm-53.79-94c1.22,3.83,1.74,7.11,6.4,7.24l-3.54-4,2.35-2.47Z"/><line class="cls-2" x1="230.13" y1="87.04" x2="219.72" y2="291.86"/><path class="cls-3" d="M230.13,87c.58,17.15.47,34.25.11,51.35s-1,34.17-1.82,51.24-1.95,34.12-3.37,51.16-3,34.07-5.33,51.07c-.59-17.14-.48-34.25-.12-51.34s1-34.18,1.83-51.25,2-34.12,3.38-51.16S227.82,104,230.13,87Z"/><path class="cls-3" d="M284.22,239.94c-5.53,2.87-11,5.58-16.33,8.48s-10.58,5.91-15.71,9.12S242,264.1,237.05,267.6s-9.9,7.13-15,10.67a90.52,90.52,0,0,1,12.58-13.74,107.29,107.29,0,0,1,14.94-11.24,102.46,102.46,0,0,1,16.7-8.42A82.06,82.06,0,0,1,284.22,239.94Z"/><path class="cls-3" d="M285.11,205.46c-5.53,2.88-11,5.59-16.34,8.49s-10.58,5.91-15.71,9.11-10.15,6.57-15.13,10.07-9.9,7.13-15,10.67a91,91,0,0,1,12.58-13.74,106.32,106.32,0,0,1,14.94-11.24,102.86,102.86,0,0,1,16.7-8.42A82.73,82.73,0,0,1,285.11,205.46Z"/><path class="cls-3" d="M273.19,180c-4.25,2.39-8.46,4.54-12.58,6.8s-8.16,4.57-12.15,7-7.91,4.94-11.83,7.55-7.83,5.28-12,7.83a61.11,61.11,0,0,1,9.56-10.93,74.25,74.25,0,0,1,11.66-8.72A72.38,72.38,0,0,1,259,183.18,56.56,56.56,0,0,1,273.19,180Z"/><path class="cls-3" d="M262.29,153.56c-3.22,2.25-6.43,4.21-9.58,6.22s-6.27,4-9.35,6L234.11,172c-3.12,2.09-6.24,4.22-9.66,6.16A44.4,44.4,0,0,1,231.6,169a56.45,56.45,0,0,1,9-7.36A54.79,54.79,0,0,1,251,156.28,40.33,40.33,0,0,1,262.29,153.56Z"/><path class="cls-3" d="M252.31,134.29c-2.23,2.06-4.48,3.77-6.72,5.48s-4.46,3.32-6.7,4.94-4.5,3.22-6.83,4.79a63.81,63.81,0,0,1-7.47,4.46,29,29,0,0,1,4.86-7.4,39.36,39.36,0,0,1,6.52-5.91,37.89,37.89,0,0,1,7.7-4.29A26.35,26.35,0,0,1,252.31,134.29Z"/><path class="cls-3" d="M218.86,279c-4.31-4.5-8.45-9-12.74-13.28s-8.66-8.48-13.18-12.5-9.16-7.89-13.92-11.68-9.64-7.49-14.48-11.41a91.39,91.39,0,0,1,16.74,8.19,107.65,107.65,0,0,1,15,11.17,103.15,103.15,0,0,1,12.79,13.64A81.84,81.84,0,0,1,218.86,279Z"/><path class="cls-3" d="M222.27,246.87c-4.53-4.27-8.89-8.55-13.39-12.64s-9-8-13.76-11.83-9.54-7.44-14.48-11-10-7-15-10.69a91.22,91.22,0,0,1,17.12,7.36,107.53,107.53,0,0,1,15.51,10.42,102.12,102.12,0,0,1,13.45,13A82.68,82.68,0,0,1,222.27,246.87Z"/><path class="cls-3" d="M224.43,209.45c-3.55-3.34-6.86-6.72-10.25-10s-6.8-6.43-10.3-9.51-7.09-6.06-10.74-9-7.39-5.89-11.07-9.09a61.21,61.21,0,0,1,13.3,5.86,74.64,74.64,0,0,1,11.81,8.51,73.13,73.13,0,0,1,9.93,10.66A57,57,0,0,1,224.43,209.45Z"/><path class="cls-3" d="M229.33,174.56c-3.12-2.39-6-4.86-8.83-7.26s-5.69-4.76-8.57-7.09l-8.71-6.94c-2.93-2.34-5.9-4.67-8.79-7.34a44.38,44.38,0,0,1,10.91,4,56.86,56.86,0,0,1,9.74,6.37,54.8,54.8,0,0,1,8.23,8.24A40.89,40.89,0,0,1,229.33,174.56Z"/><path class="cls-3" d="M226.39,151.24a69.18,69.18,0,0,1-5.58-5.48c-1.7-1.84-3.35-3.68-5-5.54s-3.23-3.74-4.81-5.71a52.34,52.34,0,0,1-4.53-6.4,24.37,24.37,0,0,1,7.2,3.52,32.4,32.4,0,0,1,5.91,5.31,31.48,31.48,0,0,1,4.44,6.61A22.48,22.48,0,0,1,226.39,151.24Z"/></svg>