<svg id="Layer_1" data-name="Layer 1" xmlns="http://www.w3.org/2000/svg" viewBox="0 0 333.82 432"><defs><style>.cls-1{fill:#8dc63f;stroke:#8dc63f;stroke-miterlimit:10;stroke-width:2px;}</style></defs><title>spruce</title><path class="cls-1" d="M144.91,393.67c2.08-5.85.21-9.56-2.94-12.52a3.44,3.44,0,0,0-1.81-1.11c-9.36-.62-18.73-.84-28.07-1.82-7.65-.81-15.27-2.35-22.87-3.86-5.18-1-10.31-2.58-15.46-3.89l.15-2.69,45.73,3.43,1.32-3.78-4.35-4.5,1.62-7.69c3,3.84,5.38,7.84,8.3,10.36s6.39,3.55,10,5.44c.61-4.22.92-6.38,1.54-10.74,2.4,1.95,4.77,3.12,6.46,5.45,2.23,3.06,3.54,8,6,10.28,1.47,1.41,5,.64,6.4-1.26,2.76-3.82,5.7-3.68,7.4,1.79,1.1,3.53,2.31,7,3.52,10.63.86-.72,1.59-1,1.64-1.42,1.91-16,4.5-31.9,5.39-48,.87-15.88-4.44-24.06-13.87-28.79-1.26-.63-2.57-1-3.85-1.58-9.67-4.09-10.85-3.56-17.32,7.84l-4.61-5.47,4.56-9c-25.66-8.52-49.52,2.24-73.74,9.35,7-10,16.63-9.92,25.35-16.29-2.67-4.44-5.2-8.65-7.72-12.86l.73-2.47c9.41,8.18,18.63,18,30.54,10.65-4.91-7.36-11.81-10.29-15.51-21.8,12.15,4,18.4,24.58,32.76,19.44-4.62-6.42-8.56-11.91-12.51-17.39l.15-1.94c1.64.2,3.7-.51,4.83.75a126.29,126.29,0,0,1,10.17,13.21c3.68,5.38,6.46,12.59,12.88,10.76,1.38-.39,3.14,2.21,4.72,3.44l.92-1.41-3.86-7.39c4.22-6.93,6.37-5.1,12.7,10l-.61-7.33,6.17-1.53c1.91,7.48,3.76,14.71,5.94,23.29,1.19-2.33,2-3.18,2-4.07.18-9.7.11-19.41.4-29.09.15-5.11,1.31-10.18,1.24-15.24-.06-4.11-1.36-8.15-2-12.28-2.07-14.3-7.72-22.36-17.34-23.64-4.3-.58-8.92-1.2-12.95.56-3.16,1.37-5.48,6.76-8.45,9.67-4,3.94-8.32,7.22-12.5,10.78l-1.44-3.27,16.64-18.68c-9.06-4.51-15.44-1.89-21.24,7.78-4.44,7.4-10,13.29-15.22,19.51-1.27,1.51-3.23,1.66-5.4,1.31,5.26-11.56,13-19,19-29.22-3.61-6.09-13.5-5.7-19.23,1.08-4.47,5.29-8.76,10.93-13.26,16.17-1.5,1.75-3.38,2.76-5.09,4.11l-.78-1.88c2-3.29,3.88-6.62,5.87-9.87,1.85-3,3.76-6,6.31-10-11.93-5.31-20.83.69-29.53,12.48l1.47-8.78c-1.7-.36-3.46-1.33-5.09-1-10.71,2.26-21.39,4.8-32.08,7.26l-.41-2.75a21.18,21.18,0,0,1,4.38-1.91c4.42-.83,8.89-1.21,13.3-2.16,1.24-.26,2.35-1.87,3.52-2.86l-1.77-4.63c9.17,1.73,19.71,4.18,30.52-4L61.69,198.16l.89-1.81c2.88,2.6,6.19,4.53,8.59,7.94,8,11.38,17.58,12.91,27.74,11.34a4.84,4.84,0,0,0,2.75-2.41c.21-.34-.61-2.57-1.22-3.53-7.43-11.64-15-23.14-22.31-34.87-.95-1.52-1.14-4.16-1.67-6.28,1.31.39,2.85.24,3.88,1.28,2.57,2.6,4.8,6,7.37,8.57,1.28,1.28,3.48,2.75,4.49,1.92,4.72-3.88,9.17-8.54,14.2-13.38-12.41-10.6-24.39-5-36.28-2l-.33-2.26,10.65-9.3c-10.26-10.73-20.78-9.47-31.81-8.05l3.94-7.12-29-9.08.23-3.09,17.84,2.15v-8.36c4.69,4.67,8.65,9.7,13.18,12.81s9.48,4.19,14.9,6.43c-2-6-3.68-10.9-5.34-15.83l1.14-1.85a26.89,26.89,0,0,1,3.53,4c2.85,4.65,5.37,9.82,8.36,14.23,3.65,5.38,8.14,7.86,13.24,9.43,6.54,2,12.75,6.44,19.22,9.23,2.8,1.2,5.87,1,8.82,1,.27,0,1.15-3.91.7-4.85-3-6.26-6.28-12.13-9.35-18.28-2.41-4.85-5-9.73-5-18.38,1.92,2.14,3,3,3.81,4.31,5.31,9.2,10.94,18.06,15.72,27.88,5.6,11.48,13.2,13.81,22.13,14.16-2.4-11.63-9.94-19-10.4-31.28l1.21-1.54c1.71,2.64,3.68,5,5.09,8,3.86,8.14,7.43,16.6,11.27,24.76.62,1.31,2,1.75,4.41,3.68-2.41-10.27-7.09-16.91-5.67-26.86,5.32,1.4,5.67,8,6.85,13,1.67,7.06,3.7,13.24,8.17,16.63l1.47-1.31c-2.91-8-5.79-16-8.75-24-1.32-3.52-2.81-6.88-4.23-10.3-6.27-15.15-13.32-26.62-26.21-30.86-10.65-3.5-20.28,1.12-30.35.93-3.71-.06-7.46,4.84-11.53,7.72-3.88-10.44-9.68-4.31-14.91-3-6.87,1.77-13.67,4.2-20.5,6.34l-.55-2.63c2.54-1.33,5.06-2.84,7.65-3.94a20.74,20.74,0,0,1,5.4-1.34c3.62-.5,5.59-2.33,2.72-8.15H95.36l.46-2.41-4.49-9.6c2.63.56,4.34.32,5.66,1.31,5.28,4,10.31,4.23,16,1.31,3-1.55,7,.88,10.31,1.48a24,24,0,0,0-10.2-17.1c-3.78-2.76-3.93-5.27-.53-8.57L96.81,36.64c5.53-3.86,4.66-2,10.76,7.87,1.59,2.56,2,7.51,5.56,4.73.25-.19,2.17,2.68,2.22,4.2.35,11.32,6.6,17.07,10.24,25.1,3.17,7,8,12.27,12.19,18.15.66.93,1.81,1,3.8.5-6.84-20.34-13.68-40.68-20.84-61.95H132c2.5,14.55,2.59,30.37,9.76,43.07,2.75,4.87,2.8,13.09,5.1,18.82,4,9.88,8.81,18.9,13.12,28.46,2.1,4.64,3.72,9.77,5.76,14.46.61,1.42,1.93,2.13,3.57,3.83,1.32-11.18-.83-19.92-3.88-28.19-2.35-6.35-5.27-12.21-7.65-18.54-.64-1.69-.24-4.3-.32-6.48,1.43.83,3.47,1,4.19,2.61,3.68,8.1,7,16.58,10.48,24.91.61,1.45,1.31,2.81,2.39,5.1,3.12-12.17,7.81-23.12,4.13-35.82-2.55-8.81-6.2-16.87-9.34-25.29-1.39-3.73-2.72-7.5-4.08-11.26l.61-2.22c1.41.72,3.39.77,4.16,2.27,4.13,8.07,8,16.51,11.92,24.79a27.78,27.78,0,0,0,1.69,2.75c6-12.7,6.92-31.47,2.09-43.37h11.18l-1.58,21.62c8.11-2,10.61-12.81,15.8-19.13q1.53,2.19,2.72,3.92L225,33.67l1.17,2.8c-4.68,5.29-9.26,10.79-14.05,15.82-7.14,7.52-15.53,13.24-20,24.94-3.11,8.12-4.23,18-6.24,27.13l1.62,1.69,38.62-18.3.76,2.46c-2.9,2.62-5.64,5.9-8.74,7.75-10.06,6-20.32,11.33-30.39,17.33-6.13,3.65-8.93,11.6-10.19,21a20.8,20.8,0,0,1-.87,4.32c-4.41,11.77-2.55,23.49-.05,35.27.5,2.35.8,4.82,1.1,7.26.54,4.35,1,8.73,1.51,13.1l1.72.49c1-3.39,2.92-7,2.66-10.14-.52-6.2.56-9.29,4.44-9.78,1.12,1.41,2.27,2.83,3.41,4.26,1.08-2,2.72-3.85,3.13-6.17,1-5.33,1.07-11,2-16.34.51-2.87,2-5.31,3.09-8l2.22,1.33c-.87,8.4-1.75,16.8-2.64,25.3,8.73-4.35,11-8.51,11.16-21.63.13-12.34-.27-24.69-.26-37,0-3.9.58-7.81.9-11.71l1.79-.9c.95,2.69,2.58,5.29,2.72,8.07.48,9.23.37,18.52.6,27.78.11,4.67.44,9.32.69,14.19,7.09-3.63,13-19.09,12.65-29.1-.29-8.12.79-16.34,1.19-24.53.28-5.66.37-11.35.71-17a20,20,0,0,1,1.88-7.49A73.59,73.59,0,0,1,236,102.16c-.29,8.11.36,16.3.64,25.9,7.3-8.23,13.79-14.85,14.37-29,.37-8.93,1.81-17.76,3-28.78,5.36,11.14,1.33,21.92,3.57,32.84,3.75-4.37,7.57-8,10.71-12.7s4.23-12.14,10-13.18l-3.2-4.1c1.39-3.47,2.81-7,4.23-10.52l1.05.64V79.3c3.89-7.72,10.07-7.21,12-16.09.63-2.83,2.5-6.93,5.88-4.33.67.52,2.11-1.18,3.16-2s2.06-1.71,3.09-2.58c.31.71.63,1.42,1,2.13-2.11,2.44-4.26,4.8-6.33,7.33-2.65,3.27-6.67,4.82-6.3,12,.06,1-1.31,2.48-2.2,3.25-5.07,4.44-10.24,8.6-15.25,13.16-1,1-1.58,3.24-2.35,4.91a25.66,25.66,0,0,0,4,1.56c1.26.26,2.56,0,4,1.14-8.67,7.9-19.87,5.55-27.26,18.1-6.69,11.38-16.68,17.53-23.19,31.88l28.79,2.87c.11,1,.21,2,.31,3-3.88,1.47-7.75,4-11.66,4.15-6.19.31-12.44-1.74-18.62-1.3-8.15.58-13.38,9.06-18.21,17.86,0,.89.11,1.77.16,2.65l28.81,2.3C240,201,230.11,214.07,227,232.87c5.49-4.92,11.87-2.44,15.87-10.58.88-1.79,4.54.07,6-1.64,3.6-4.3,6.69-9.62,9.93-14.62,3.7-5.72,7.3-11.57,11-17.24.47-.71,1.42-.69,3.05-1.39-3.35,14.42-10.33,22.86-17,32.7l8.8,7.22c-6.55,5.87-14.4-7.26-19.23,6.38,3.66,2.15,7.32,4.41,11,6.42,1.17.64,2.54.37,3.73.95,5.22,2.57,6.45,1.59,8.21-6.82.2-1,.5-1.88.76-2.81l1.64.73c.4,3.52,1.05,7,1.15,10.56.16,6.36,1.77,6.93,5,3.83,5.84-5.61,11.75-11,17.69-16.41.71-.64,1.75-.46,3.33.86-2.25,3.22-4.31,6.84-6.79,9.58-4.26,4.7-9,8.37-13.11,13.34a198.11,198.11,0,0,0-13.74,19.23c-2.51,3.94,0,5.49,2.18,6.73s4.3,2.69,6.44,4.05c-.16,1.19-.32,2.37-.49,3.56-2.05-.4-4.31-.09-6.12-1.33-8.21-5.64-17.23-2.39-21.92,8.77-.33.79,1.23,4.94,2.21,5.24,2.9.89,6,.32,8.92.93,2,.4,3.83,1.85,5.74,2.83,0,.74,0,1.48,0,2.22-1.07.69-2.21,2.15-3.21,1.95-5.56-1.17-11.07-3.46-16.65-3.9-3.64-.29-7.41,1.68-11,3.12-1.92.77-3.68,2.56-6.45,4.57,3,2.56,5.41,4.13,7.43,6.47,1.07,1.25,1.49,3.81,2.21,5.78-1.74.43-3.63,1.74-5.17,1.1-3.87-1.6-7.61-5.9-11.34-5.76-4.25.17-8.44,4-13.57,6.72l13,12.77-4.84,6.41c-2.48-2.83-4.64-6.27-7.28-8.13-6-4.24-10.83-2.35-15.22,4.78a95.79,95.79,0,0,1-6.73,10.3c-3.75,4.61-3.25,11-3.88,17.14-.53,5.14-1.58,10.15-2.19,15.27-.34,2.92-.28,5.95-.4,8.92ZM250.74,247.1c-10.33-11.49-20.57-9.53-31.51-2.2,5.78,10.28,14.64,9.93,21.26,16.15-7.69,2.6-14.73.75-21-5.91s-12.85-5.1-18.92-1.53c-4.83,2.84-8.87,8.86-13.22,13.56-.31.33-.32,1.4-.4,2.14-1.73,15.83-3.63,31.61-5.07,47.49-.56,6.15-.09,12.52-.09,20,5.3-7.82,5.3-7.82,3.27-24.06l4.45-3.26c1.13,5.77,2.19,11.21,3.24,16.62,10.17-4.48,17.4-13.86,14.56-31.29-.19-1.16.35-3.64.82-3.81,1-.36,2.75-.11,3.09.83a27.43,27.43,0,0,1,1.65,8.23c.1,3.51-.5,7.07-1,13,5.5-5.09,9.75-9,14-13,.93-.87,1.63-2.43,2.61-3,3.23-2,6.84-2.93,9.75-5.67,4.77-4.48,10-8.64,10.37-19.27C248.88,263.59,250,255.12,250.74,247.1ZM234.61,190a16.86,16.86,0,0,0-3.15-1.16c-4.88-.61-9.88-.3-14.63-1.84-10-3.24-18.56.08-26.5,9.9A38.28,38.28,0,0,0,182,219c-.59,10.71.5,21.65,1,32.48.06,1.39,1,2.68,1.54,4.07,5.62-6,4.11-13.92,3.26-20.78,6.68-3,7.32,5,8.65,11.67l1.56-.1,6.79-19.74,4.66,3.53c-.38,2.83-.79,5.92-1.29,9.72,7-1.55,13.27-2.88,15.58-14.65a112.19,112.19,0,0,1,3.27-11.53C229.48,205.92,232,198.24,234.61,190Zm-97,.16,1.66-2.33c8.93,6.74,11.91,24.7,23.17,30.78l-2.83-8.14,5.21-5.47L174,228.19l1.86-1.37c-.31-2.57-.59-5.15-.95-7.71-.41-2.94-1.82-6.54-1.17-8.68,2.37-7.73-1.51-12.62-3.11-18.28s-3.35-12.07-8.37-13.73c-4-1.31-8.05-2.81-11.62-5.6-5.21-4.07-9-.76-12.5,4.17a180.77,180.77,0,0,0-10.88,17.53c-.82,1.49-1,5.65-.21,7,5.94,11,13.27,17.56,23.87,14.39Zm-43.8-4.36c5.44,8.73,9.65,16.44,14.51,23,5.49,7.41,12.29,8.31,19.84,6.86a21,21,0,0,0-1.09-3.39Q117.59,196.58,108,181c-.74-1.21-2-3.27-2.5-3C101.67,180.27,98,183,93.85,185.75ZM121.77,193c3.33-5.4,6-9.49,8.48-13.87a69.19,69.19,0,0,0,3.05-7.3c-1.9-1.07-3.78-2.26-5.72-3.16a27.59,27.59,0,0,0-4.35-1.34c-5-1.39-10.91,2.64-12.09,7.6Zm131.34,81.69,1.69,1.19c3.83-6.2,7.89-12.14,11.31-18.83.79-1.54,0-7.52-1.06-8.32-6-4.56-10.53-.47-11.5,9.56-.28,3-1,5.94-1.08,8.94A59.14,59.14,0,0,0,253.11,274.73Z"/><path class="cls-1" d="M253.11,274.73a59.14,59.14,0,0,1-.64-7.46c.11-3,.8-5.94,1.08-8.94,1-10,5.46-14.12,11.5-9.56,1.07.8,1.85,6.78,1.06,8.32-3.42,6.69-7.48,12.63-11.31,18.83Z"/></svg>