<svg id="Layer_1" data-name="Layer 1" xmlns="http://www.w3.org/2000/svg" viewBox="0 0 333.82 432"><defs><style>.cls-1{fill:#8dc63f;}</style></defs><title>willow</title><path class="cls-1" d="M238,138.62l.79.62a53.44,53.44,0,0,1,4.24-3.69c1.43-1,1.56-4.33,3.91-3l8.4-7c-.2-2.15,1-1.74,2.38-.92-.25-2.92,1.71-4.07,3.44-5.44.85-.68,1.62-1.47,2.43-2.19.44-.39.86-1,1.35-1.07,3.74-.66,4.92-4.93,7.83-6.76a17.26,17.26,0,0,0,2.71-2.75l4,.83c.62,2.1,1.37,4.54,2,7a3.46,3.46,0,0,1-.17,1.79,9.07,9.07,0,0,0-.24,5.44c.48,2-1.15,4.65-1.9,7.2,1,.9-.93,8.8-3.25,11.23,1.58,1,1.91,3.35.8,6.33-.71,1.92-1.55,3.79-2.33,5.68l.65.11c0,1.15.22,2.49-.22,3.41-1.24,2.54-2.78,4.9-4.09,7.14,2,.61,2.26,1.38,1,4-1,2-1.86,4.16-2.82,6.23a6,6,0,0,1-1,1.7c-2.15,2.25-2.16,2.52.41,4.47l-9.16,16.75c1.51,1.67,1.65,3.63-.32,5.72-1.32,1.4-2.29,3.25-3.71,4.48-.8.69-2.21.51-3.35.73.63.89,1.72,1.76,1.78,2.69a7.08,7.08,0,0,1-1,4.06,21.86,21.86,0,0,1-4.78,5.28c-1.6,1.17-3.71,1.47-5.71,2.19l1.49,1.2c1.53,1.21,1.8,3.22.49,4.44-2.56,2.38-5.06,4.85-7.8,6.94-2,1.53-4.4,1.71-7.09.93l2,4.19c-4.48,3.64-8.29,9.21-15.12,6.68.63,3.75.55,4-4.54,5.32-5.75,1.45-11.55,2.64-17.35,3.82A23.88,23.88,0,0,1,180.64,253c-3.19-1.24-6.62-3.22-6.49-8.22,0-.45-.83-1.27-1.33-1.33a41.82,41.82,0,0,0-4.83-.07l1.19,2.78c-3.72,1.3-3.42,4.85-3.74,8.08-.07.79-.23,1.57-.37,2.35-.43,2.33-.79,4.68-1.32,7a15.61,15.61,0,0,1-1.23,2.78c2.59,2.45,1.22,6.07,1.77,9.23.71,4,1.3,8,2.05,12.74l1.7-2.07,1.44,2.78c-2.07,5-4.4,9.41-3.15,15a2.64,2.64,0,0,1-.61.23,10.23,10.23,0,0,1-1.1,0c-.14-.31-.27-.47-.26-.62.75-10.46-.52-20.71-2.72-30.85-.77-3.59-4.2-2.8-6.25-4.88a8.84,8.84,0,0,0-.34-1.53c0-.1-1,0-1,.16a3.77,3.77,0,0,0-.25,1.92c.29,1.27.89,2.45,1.14,3.72.56,2.89-.72,5.3-2.06,7.52A23,23,0,0,1,145,287.3c-1.63,1-3.13,2.25-5.1,3.7l4.82,1.26c.51-2,1.37-2.33,3.08-.86,2.54,2.19,5.49,3.81,8,6.06,1.26,1.14,2,3.08,2.78,4.74a2,2,0,0,1-.17,1.7c-1.51,2-1.08,3.87,0,5.82a6.23,6.23,0,0,1-.2,6.44c-2,3.51-4,7-6,10.46-.9,1.56-2,2.15-2.88,1.22l-8.21,5.55-.78-2.72-8.53,2.22-.34-4.29c-5,1.89-9.78,2.54-14.43-1.77a32.29,32.29,0,0,1-4.82.47c-1.65,0-4,1.13-4.28-1.86-2.09,0-4.08.11-6-.06-.69-.06-1.33-.81-2-1.22-.42-.26-.86-.66-1.3-.67-2-.08-4.1,0-6.15-.1-.47,0-.91-.69-.79-.59l-10.69.6.08-1.75c-1.81-.13-3.63-.13-5.4-.42-4.32-.72-8.78-1.07-12.87-2.61-2.07-.78-4.2-.39-6.23-1.47s-4.64-1-6.77-1.94-3.68-2.55-6.09-4.3c2.16-.92,3.56-1.45,4.91-2.11,5.94-2.9,12.45-1.3,18.44-2.88,3.26-.86,6.68-.36,9.85-2,1.47-.74,3.45-.24,5.19-.35,1.26-.08,2.57.89,3.66-1.19.38-.72,3.08,0,4.7.18.49,0,.94.54,1.57.92l.59-2.22,8.29.62c.63-2.2,4-2.77,7.11-1.22a19.45,19.45,0,0,1,3.55-2,18.74,18.74,0,0,1,3.87-.31l-2.59-4.23h-9.94l1.57-3.28c-2.78-.49-5.45-.76-8-1.48-3.09-.87-3.14-1.23-2.33-3.83-1.06-1.11-1.89-2.09-2.82-2.94a17.43,17.43,0,0,0-2.83-2.21c-1.78-1-3.82-1.64-5.4-2.95-1.2-1-1.86-2.79-2.76-4.22a4.07,4.07,0,0,0-.84-1.2c-1.53-1-3.19-1.84-4.63-3-.65-.51-.92-1.62-1.66-3a24.29,24.29,0,0,1-2.56-2.4c-.1-.12.82-1.34,1.08-1.74-1.53-1.14-3.19-2.3-4.76-3.61a2.5,2.5,0,0,1-.86-1.78c.28-3-2.18-3.92-3.28-5.85a14.36,14.36,0,0,1-1.12-2.34A16.48,16.48,0,0,0,61,246c-1.18-2.14-2.58-4.14-3.7-6.31a5.26,5.26,0,0,1-.11-2.94c-1.82-3.54-4.56-6.76-3.73-11.57,0-.08,0-.22,0-.25-3.37-2.55-2.18-7.12-3.74-10.53-1.14-2.48-.7-5.87-1.88-8.3-1.65-3.4-1.87-6.86-1.87-10.45,0-1.09.6-3.11.93-3.11a7,7,0,0,1,3.77,1.08c5.12,3.36,7.81,9,10.66,14.45.69,1.33,1.9,2.32,2.64,3.63,2.2,3.88,5,7.19,7.68,10.66a7.66,7.66,0,0,1,.76,2.41c1.71-.78,1.71-.78,2.45,3l1.85-.66c.21,3.39.29,6.59.67,9.75a6.7,6.7,0,0,0,1.75,3.05c-.42-1.6-2-3.37,1-3.81.3,0,.46-1.27.68-1.92,1.85-1.11,4.87.76,5.6-2.41,1.91-.46,3.57-.89,5.24-1.26a2.08,2.08,0,0,1,1.26.07c1.43.67,2.56.94,3-1.34.08-.4,1.15-.82,1.75-.81,3.1.1,6.2.33,9.53.53.86-2.23,4.24-3.09,6.78-1.08,1.06.85,1.79,1.34,3.37.65,3.49-1.52,8.21.86,10.11,4.48.74,1.4.88,1.38,2.67-.19.69.28,1.38.5,2,.83a28.2,28.2,0,0,1,4.64,2.55,42,42,0,0,1,10.45,11c1.13,1.86,2.33,3.68,3.32,5.62,1.26,2.51,2.61,3.3,5,2.11,2.82-1.42,4.74,0,6.62,2.23a5.65,5.65,0,0,0,.79-1.07c1.4-3.35-.08-11.28-2.3-14.35a7.52,7.52,0,0,1-.88-4.21c0-2-.23-3.35-1.81-4.74a21.6,21.6,0,0,1-4-5.75c-.31-.55.27-1.71.44-2.58l2.6.34-2.35-5c-1.2,1.72-2.43,3.38-3.55,5.14-1.51,2.36-4.94,3.65-7.34,2.5-5.68-2.73-11.36-5.5-17-8.37a13.2,13.2,0,0,1-3.85-2.89c-.8-.9-2.08-2.16-.52-3.69-4.49-2.08-7.67-5.58-10.22-9.81a3.65,3.65,0,0,1,.1-2.36,9.73,9.73,0,0,1,1.31-2.13c-4.08.84-6.13-1.9-8.13-4.54a50.77,50.77,0,0,1-3.73-5.94c-.82-1.43-1-2.93.44-4.18a10.62,10.62,0,0,0,1.09-1.36c-5.78-2-11.68-10.14-11.72-16.52,0-1.48,1.54-3,2.32-4.35-3.54-2.56-5.32-6.8-6.23-11.67-.62-3.37-.65-3.39,1.67-4.77-1.17-1.93-2.74-3.72-3.45-5.87-1.21-3.65-1.83-7.53-2.81-11.29-.74-2.86,1.88-2.47,2.81-3.7-3.28-3.76-3.66-8.57-3.83-13.31,0-.87,1.81-1.83,2.83-2.79-1.69-1.55-2-4.25-2-7a17.9,17.9,0,0,1,.26-4.21,13.17,13.17,0,0,1,1.52-3l.71.39a4.72,4.72,0,0,0,0-1c-.7-4.29.28-8.25,1.75-12.17a24.22,24.22,0,0,0,1.1-4.83c.23-1.58.24-3.21,2.26-2.46.7-2.83.68-6.06,2.13-7.81,2.3-2.78,1.33-6,2.31-8.88.81-2.32,2-4.46,2.84-6.78C99,46.71,100,43.09,101.32,39l4.5-2.92-2.08,4,1.54-.75L113.83,62c3-.78,5,2.27,6.87,10.2,3-1.21,3.07,2.06,4.15,3.62a16.08,16.08,0,0,1,2,4.68c.47,1.64.63,3.39,1,5.43l1.59-1.34c2.72.74,6.64,13,5.17,16.9,3.58-1.35,3.36,1.69,4,3.9s1.66,4.29,2.1,6.53c.48,2.51.5,5.13.74,7.91,1.53.35,4.72,5,4.09,7.36-.47,1.81,0,2.43.94,3.79a14.71,14.71,0,0,1,2.17,6.45c.5,3.61.51,7.31.75,11.26,2.21.68,2.25,3.23,3,5.74a27.13,27.13,0,0,1,.76,11.63,20.15,20.15,0,0,1-.7,2.58c.64.93,1.87,1.91,2,3.06.46,3.9.5,7.86.77,11.79.14,1.88.67,3.76.63,5.62-.19,7.84-.53,15.68-.79,23.52,0,.86.06,1.72.12,3.26a28,28,0,0,0,2.37-2.21c1.79-2.12,3.62-2,4.92.45,1.87,3.5,3.74,7,5.55,10.54.73,1.43-.82,3.68-2.72,4.06-3.67.74-3.73.82-3.38,5.7.52-.92,1.09-1.49,1.16-2.14.37-3.08,2.23-2.93,4.24-2.6,4.41.73,4.44.46,5.69-4.14,1.63-6,3.67-11.9,5.53-17.86l3,.47c-.94-4.1.72-7.26,2.31-10.52a78.66,78.66,0,0,0,3.71-8.7c1.4-4,1.35-4.08,4.94-3,1.34-6.52,5.13-11.32,9.2-15.89.3-.34,1.25-.1,1.86.05a9.13,9.13,0,0,1,1.81,1.12,10.84,10.84,0,0,1,4.62-10c1.26-1,2.28-2.33,3.45-3.46s2.33-1.65,3.53.51c.61-1.41,1.06-2.57,1.61-3.67,1.09-2.2,1.81-4.78,4.56-5.28a1.86,1.86,0,0,0,1.16-1.12c.6-1.86,1.62-1.73,2.75-.79s1.39.53,2-.58c.48-.92,1.73-1.43,2.05-2.36,1.08-3.2,4.53-2.23,6.06-4.51ZM124.34,306.49c-.42-4.25-1.79-5.61-4.9-5.32-.49,0-.91.92-1.36,1.42a15.23,15.23,0,0,0,1.72,1.33c.68.37,1.46.5,2.13.87S123.28,305.73,124.34,306.49Zm4.41,12.79c-2.1,3-2.25,4.93-.75,5.57C128.25,323,128.5,321.12,128.75,319.28Zm-12-15-.21,1.38,3.62.55.16-1.19Z"/><path class="cls-1" d="M210.86,304.74c.56,3-1,3.77-3.16,4a33.83,33.83,0,0,1-5.65.52c-1.3-.08-2.55-.95-4.06-1.56.16,1,.35,2.15.55,3.35,1.77-.16,3.72-1,5-.32,3,1.64,5.85-.35,8.56.43,2.32.66,4.41-.52,6.51-.15,2.59.46,4.59-1.09,6.88-1.6a56.8,56.8,0,0,1,7.74-.7,4.12,4.12,0,0,0,.7,0c2.87-.69,5.72-1.5,8.61-2.06a21.86,21.86,0,0,1,4.13,0c-.25,3.43-3.83,7.22-6.5,7.56a5.36,5.36,0,0,0-2.39,1.52c-.65.58-1,1.55-1.74,2-2.75,1.87-6,3.13-8.25,5.54-2.1,2.25-5,2-6.68,3.53a39.43,39.43,0,0,1-3.71,2.82c-1.34.93-3,1.24-4.8,1.9-.51,2.31-5.19,4-8.18,2.56,0,2.43-2.7,3.65-7.55,3.41l-.29,2.41-7.3-.78-.12-.84c-.3.75-.61,1.49-1,2.53-5.83-.72-11.08-2.84-14.6-8.4-.7-1.09-.49-3.27-.05-4.71.2-.67,2-1.09,3-1.05a41.62,41.62,0,0,1,5.5.95l.16-1c-2.32-.31-4.66-1-7-.84s-4.07-.44-4.88-2.4a6.27,6.27,0,0,1,1.37-6.52c1.38-1.59,2.42-3.83,5-3.37.3.06.67-.88,1.12-1.15.87-.52,1.93-1.43,2.7-1.23a9.79,9.79,0,0,0,7.86-1.35c.58-.34,1.79.65,2.71,1l0,.78c.46-.48.91-1,1.38-1.44L186,306.68l-1.24,2.56c-2.67-2.95-5.22-5.64-7.62-8.49a18.58,18.58,0,0,1-2.57-4.25c-.87-1.93-2.11-3.75-.78-6.3.47-.91-.38-2.86-.9-4.2-1.85-4.81.4-8.57,2.66-12.12a105.81,105.81,0,0,1,7.2-9.47c2.08-2.56,3-2.55,4.93-.84,1.61-1.53,3-3.27,4.68-4.35s3.54-1.31,5.63-2l.92,2.1c3.21-1.16,6.4-2.43,9.66-3.38.53-.16,1.41,1.09,2.24,1.79l6.74-2.26c1.45,3,2.35,3.18,4.76,1.1.36-.31,1-.77,1.23-.62,2.31,1.52,4.4.34,6.59-.84,1.1,4.9,3.4.79,5.22,1.2.52,1.6,1.15,3.23,2.77.84,1.48,1.29,3.35-1,4.8.64a.55.55,0,0,0,.44.17c3-.53,6.05-1.08,9.08-1.59.85-.15,1.74-.07,2.58-.25,1.32-.28,2.62-.7,4.41-1.19,1.15,1,2.76.7,4.78.06,3.53-1.11,7.27-1.39,10.92-2.08a32.91,32.91,0,0,0,3.32-.95,7.7,7.7,0,0,1,1.59-.55c3.61-.24,7.22-.44,10.84-.57a4.6,4.6,0,0,1,1.72.62c.68.3,1.36.64,2.26,1.05l-1.4,1.41c1.84.16,1.5,1.61.8,2.45-2.76,3.29-6,5.85-9.34,6.5-1.16,1.18-1.73,2.11-2.51,2.47-2.59,1.21-5.35,2-7.88,3.33-2.8,1.47-5.39,3.42-8.13,5.05a23.3,23.3,0,0,1-3.24,1.38c-.11.4-.16,1.29-.39,1.35-3.12.8-5.68,4.33-9.55,2.3,1.06,2,.57,2.83-1.43,3.32-1.75.43-3.33,1.75-5.06,2.73v1.61l-8.44,2.34c.14.62.33,1.44.63,2.78l-6.29,1.94c1.41,1.66.95,2.5-1.05,2.82-2.5.4-5,1-7.39,1.46,1,3.39-.15,5.38-4.27,6.3a32.68,32.68,0,0,1-4.49.68C214,304.83,212.51,304.74,210.86,304.74Z"/><path class="cls-1" d="M128.89,364c-.75-2.74,1.49-3.13,2.75-4.17,1-.79,2.49-.87,2-2.88-.06-.26.21-.69.43-.92,1.48-1.6,2.76-3.82,4.54-4.57,2.31-1,3-3.47,4.92-4.74a103.67,103.67,0,0,0,9.34-7.27,5.41,5.41,0,0,1,6-.83c1.73.83,1.82,3.07,2.22,5.22a19.54,19.54,0,0,1,0,8.2c-1.37,5.77-4.07,10.92-8.25,14.47-1.7,1.44-3,3.17-4.65,4.6a16.62,16.62,0,0,1-3,1.54,4.57,4.57,0,0,0-1.16,1c-1.31,1.48-2.42,3.23-4.66,3.1-.49,0-1,.64-1.51,1s-.75,1.13-1.16,1.16c-2.67.26-4.21,2.77-6.44,3.81-2.74,1.28-5.58,2.3-8.42,3.32-3.9,1.41-7.84,2.75-11.77,4.08-2.52.85-4,.05-4.68-2.67a2.27,2.27,0,0,1,.59-1.77c1.57-1.52,3.31-2.82,4.86-4.36,1.86-1.83,3.58-3.83,5.37-5.74a9.59,9.59,0,0,1,1-.87c2.52-1.95,5.66-3.4,7.35-6A19.54,19.54,0,0,1,128.89,364Z"/><path class="cls-1" d="M170.18,328.42l-2.87,1.76c-.16,2.83-.32,5.94-.49,9.06h-.46c-.17-2.81-.35-5.62-.52-8.43-.29-4.84-.23-9.76-1-14.5-.41-2.46.22-5.8-2.67-7.37-.32-.18-.3-1.12-.43-1.71,1.14-.27,2.34-.9,3.38-.67.49.11.86,1.86,1,2.9.35,3.42,1.27,7,.63,10.23C165.86,323.93,168.41,325.72,170.18,328.42Z"/><path class="cls-1" d="M170.86,362.33c-3.64.91-4.15.36-4.2-3-.06-3.51-.35-7-.65-10.53a2.89,2.89,0,0,0-1.1-1.76c-1.52-1.15-1-1.83.31-2.51,2.66-1.41,3-1.09,2.95,2.13-.1,3.77-.09,7.54,0,11.3,0,.64.63,1.29,1,1.9S170.17,361.33,170.86,362.33Z"/><path class="cls-1" d="M103.15,31c0,1.5,0,3,0,4.5,0,.22-.6.62-.86.57a1.16,1.16,0,0,1-.73-.84c0-1.41.21-2.82.33-4.23Z"/><path class="cls-1" d="M101.77,389.69a6.87,6.87,0,0,1,1.75-1.26c.23-.07.66.67,1,1.05a16.83,16.83,0,0,1-1.71,1.47A9.81,9.81,0,0,1,101.77,389.69Z"/><path class="cls-1" d="M124.34,306.49c-1.06-.76-1.7-1.3-2.41-1.7s-1.45-.5-2.13-.87a15.23,15.23,0,0,1-1.72-1.33c.45-.5.87-1.38,1.36-1.42C122.55,300.88,123.92,302.24,124.34,306.49Z"/><path class="cls-1" d="M128.75,319.28c-.25,1.84-.5,3.69-.75,5.57C126.5,324.21,126.65,322.27,128.75,319.28Z"/><path class="cls-1" d="M116.74,304.27l3.57.74-.16,1.19-3.62-.55Z"/></svg>