<svg id="Layer_1" data-name="Layer 1" xmlns="http://www.w3.org/2000/svg" viewBox="0 0 232.03 429.72"><defs><style>.cls-1{fill:#90c33e;}</style></defs><title>wingnut</title><path class="cls-1" d="M403.67,120.82c20.45-5.28,39.56-1.74,57.61,8.74,1.17,2.55,4.38,2.92,5.71,5.4.52,1,1.65,2.43,2.91,1.7s.53-2.24.22-3.43c0-.6,0-1.19-.05-1.79l.12-2.83.31-3.84,1.62-5.68.39-2.57c1.5-1.42,1.58-3.83,3.47-5a1.78,1.78,0,0,1,2,1.88c-1.42,2-1.19,4,.08,6.81,1.41-2.68.67-4.81.87-6.82.63-.63,1.25-1.27,1.87-1.9,1.61.09,3.09,1,2.71,2.52-1,4.19,1.19,8.74-1.28,12.78-1.64-.61-1.06-2.35-2.07-3.14-.53-.4-1.29-.81-1.58-.15-.88,2,2,4,.27,6.31-.17.22,1.88.39,2.92.54l.16,1.84,0,0a19.71,19.71,0,0,0-5.52,11.31l0,.05c-1.87,1.34-1.76,3.51-2.13,5.41-.51,2.65-1.93,3.08-4.17,2.13-.37-.67-.42-2-1.64-1.27-.53.31,0,1,.44,1.37.92,1.56,3.7,1.17,3.79,3.61a1.6,1.6,0,0,0-.06.69c-2.23,3.06-3.06,7.23-7.1,8.83l-2.95.08c-3-6-8.56-7.64-14.57-8.38-3.23-.4-6.5-.56-9.24-2.64-.63-3.08-1.94-5.67-5.22-6.62-.88-.25-2-.1-2.12-1.31s1-1.32,1.81-1.72,2.19-.56,2.15-2c-2.1-1.75-4.3-1.25-6.51-.34-1.69.71-3.24,1.88-5.22,1.67v-1.87c3.24-.44,5.9-1.81,7.5-4.81l7.64,1.73c3.77.79,7.19,2.91,11.17,2.89.46,2.37,2.34,1.67,3.84,1.8a10.28,10.28,0,0,0,7.47,3.66c1.35,1.67,2.59,3.33,5.37,2.36a6.58,6.58,0,0,0-5.37-2.36c-1.38-3.31-4.62-3.09-7.47-3.66-.75-1.61-2.17-1.9-3.73-1.9-3.36-2.61-7.34-3.28-11.4-3.7-2.26-1.72-4.87-1.9-7.56-1.72h0c-4.27-1.36-8.38-4-13.14-1.81l-14.3-1.83c-1-3.17-3.63-1.25-5.49-1.71-1.08-.27-2.24-.34-2.53-1.59s.8-1.89,1.79-2.33c2.11-.94,4.23-1.87,6.39-2.68C406.9,122.44,404,121.72,403.67,120.82Z" transform="translate(-360.09 -61.61)"/><path class="cls-1" d="M410,201.75l11.67-2.93c1.13,0,2.19-1.79,3.38-.12a24.61,24.61,0,0,0,13,5.44c6.19.49,12.48.06,18.59,1,4.58.66,9.06,1.25,13.66.73,3.37,1.71,7.13,2.94,10,5.28,1.78,1.47,5.71,2,4.67,5.89-2.56,1.87-3.64-3.07-5.37-2,2,7.71,4.88,14.8,4.27,22.68l-.88.09c-1.5-.22-3.52.61-3.88-1.92-.67-2.91-3-1.62-4.69-1.81l0,0c.07-1.45-1-1.67-2.07-2.09a173.24,173.24,0,0,0-50.79-11.69c-7.92-1.13-15.86-2.19-23.77-3.44-4.29-.68-9.08-.13-12.9-4.32,3.06-.27,5.7.17,7.63-.8C398.47,208.68,404.2,205.11,410,201.75Zm60.47,13.13c.32,4.09-.68,8.42,2.49,13C473.66,222.57,471.47,218.84,470.5,214.88Z" transform="translate(-360.09 -61.61)"/><path class="cls-1" d="M438.23,302l2-.09a12.75,12.75,0,0,0,5.5,0,.94.94,0,0,0,.5,0l1.43-.11,1.91.06,4.21.06c4.29.55,8.09,4.18,12.8,2,3.15,1.53,2.58-1.8,3.75-2.86,1.6-3,6-4.22,5.58-8.53,1,0,1.56,1,2.34,1.23,3.84,1.19,3.85,1.11,1.71,4.92a26.89,26.89,0,0,0-1.08,2.52c-2.12,1.79-5.82-.08-7.33,3.14-3.75,1.75-1.54,5.88-4.18,8.69,6.13-2.05,9.39-.88,10.21,3.06,1-.79-.38-2.92,1.9-3.28,1.17,4.87-.16,9.65.28,14.39.17,1.81,1.42,4.39-1.83,4.79-2.56.32-5.29.87-5.91-3.2-.31-2-.29-4-.73-6.16-1.34,1.2-2.08,3.17-4.47,2.52s-1.66-3.43-3.62-4.41c-.44,2,.68,3.91-.27,5.7-.62,1.18-1.41,2.66-2.62,1-2.14-3-5.64-.67-7.49-2.05-2.15-1.61-1.15-5.71-3.86-7.61-.09-.06-.28,0-.85.09a13.52,13.52,0,0,0,.85,2.47c2.16,3.75.86,4.63-3.1,4.67-2.05,0-4.62-2-6.4.77-11.74-3.44-24.2-1.16-35.93-4.62a2.17,2.17,0,0,0,.24-.77c-.19-3.4,5.67-4.36,3.44-8.55,9-5.57,18.9-8.33,29.24-9.84Z" transform="translate(-360.09 -61.61)"/><path class="cls-1" d="M493,316.77c2.62-6.34,8.22-9.12,14-11.68.18,1-.07,2.14,1.11,2.89a10.69,10.69,0,0,0,12.79-1c1.23-1.14,2.72-2.39,4.11-1.6,2.71,1.54,6,1.06,8.35,2.18a59.13,59.13,0,0,0,14.5,4.93c.73.14,2.07.49,2.06.69-.27,5.89,2.75.81,4.08,1.18,1.56.44,2.22-1.67,3.66-1.76,1-.07,3.05-.31,2.61.81-1.07,2.77,1,2.33,2.2,2.76.72.26,2,.31,1.65,1.16-1.9,4.31,1.37,5.21,4.07,6.52,1.72.83,1.45,2.48.31,2.87-3.44,1.18.45,1.83,0,2.69l-9.41,0c-11.63-1.27-23.29-.68-34.94-.55-1.59,0-4-1.09-4.55,1.82l-1,.06c-3.27-1.39-8.33-2.34-10-1.33-4.29,2.67-9.46,2.15-13.39,4.95-1.86,1.32-2.18.09-2.38-1.12-.84-5-2.72-9.86-1.53-15.05C492.13,318,492.9,317.77,493,316.77Z" transform="translate(-360.09 -61.61)"/><path class="cls-1" d="M466.54,303.87c-4.71,2.15-8.51-1.48-12.8-2-.44-2.59-2.58-1.94-4.23-2.23a4.2,4.2,0,0,0-2.87-1c-2.63-1.48-5.61-1.39-8.46-1.92-5.19-1.86-10.69-2.33-16-4-8.78-2.82-16.2-7.73-23.68-12.73l0-.44,0-.44,0,0a28.56,28.56,0,0,0,5.34,1.59c2.63.26,4.84-1.62,3.52-3.83-1.94-3.22-.74-4.16,1.82-5.47,1-.52,1.6-1.84,2.38-2.8l5.78,0c.37,4.06,2.73,4,5.69,2.8a5.82,5.82,0,0,1,1.83-.09c5.7,1.33,11.43,2.56,17.12,3.95,6.58,1.61,12.68,5,19.62,5.19h0c1.1,3.57,4.1,2.6,6.63,2.78h0c2.43,2.18,5.42,3.07,8.52,3.7h0a4.73,4.73,0,0,0,0,.92,18.35,18.35,0,0,0-2.08,1.73c-.68.75-2.36,1-2,2.16.44,1.55,2.08.6,3.18.85.38,4.31-4,5.51-5.58,8.53C468.27,301,466.23,300.87,466.54,303.87Zm-.86-7.17c2.15.82,3.23,0,4.43-1.84C468.11,294.88,466.77,295.08,465.68,296.7Z" transform="translate(-360.09 -61.61)"/><path class="cls-1" d="M423.76,365.53a11,11,0,0,1,4.92-2.79c1,0,2,.06,2.57-1l1.23-.48a1.2,1.2,0,0,0,1.55-.59c3.11-2.35,7-2.43,10.5-3.72,3.26-1.34,6.93-.7,11.58-2l-9.85-1.77c.87-3.49,4.51-1.56,6.47-3.31s1.81-.82,4.2.9c1.11.79.06,3,2.08,2.5-.33,3.09,2.41,3.2,4,3.29,9.28.56,16.69,5.22,23.93,10.37a5.89,5.89,0,0,0,0,.84c0,3.48-.1,7,.13,10.45.21,3.14-1,6.45,1,9.41,0,1.86,1,4.82-2.85,2.81h0c0-1.28-.64-1.87-1.89-1.85l0,0a12.13,12.13,0,0,0-8-4.77c-6.6-1-13-3.28-19.59-4.31-10-1.57-20-2.41-30-3.78-5.68-.79-5.62-1-4-6.59a6.85,6.85,0,0,0-.18-2.31l.9-.43Z" transform="translate(-360.09 -61.61)"/><path class="cls-1" d="M481.81,130.37c-1-.15-3.09-.32-2.92-.54,1.69-2.3-1.15-4.27-.27-6.31.29-.66,1.05-.25,1.58.15,1,.79.43,2.53,2.07,3.14,2.47-4,.25-8.59,1.28-12.78.38-1.54-1.1-2.43-2.71-2.52.63-1.43,3-2.36,1-4.54-.53-.59,0-2,.82-2.49,3.89-2.41,6.31-6.8,10.89-8.2,3-.91,4.18-2.52,3.09-5.55a.38.38,0,0,1,.48-.31l1.35-.74c.69-.64.94-1.81,2.15-1.84a.93.93,0,0,0,.66-.51l.91-.55c3,.27,5.63,0,5.59-4l2.94-2.65c2,.28,1.25,1.49.54,2.21-1.9,1.94-2.7,3.59.19,5.41.45.29.16,1.76.22,2.69-2.16.38-2.49,2.08-2.76,3.82-1.12.11-2.17.37-2.43,1.68a.63.63,0,0,0,.81.79c1.31-.28,1.53-1.34,1.63-2.46,2.42-.14,2.88-1.75,2.83-3.75.84-.39,1.7-.73,2.49-1.18,1.58-.9,3.26-2.64,4.84-.37,1.37,2,3.12,5,1.2,6.71-3.47,3.14-.66,3.93,1.17,5.38-1.77,5.67-4.77,10.71-7.92,15.68a1.67,1.67,0,0,0-1.38,2.25,1,1,0,0,1-.44.61,4.47,4.47,0,0,0-3.54,4.7l-.06.06a9.12,9.12,0,0,0-4.95,2.49c-3.85,3.62-7.52,7.42-11.31,11.11-4.43,4.3-8.52,9.19-15.41,9.53l-.09-3.91,0-.05c2.85-3.28,5.43-6.69,5.52-11.31l0,0c2.27-1.78,3.5-4.18,4.85-7.35C483.81,126.23,483.37,128.78,481.81,130.37Zm17-23.64.32-.54-.54.32-.94,1.91a1.86,1.86,0,0,0-1.82,2l-.34.49.48-.35a1.89,1.89,0,0,0,1.9-1.91C498.18,108,498.5,107.36,498.81,106.73Zm-4.71,6.59.36-.48-.46.38c-3.14.63-3.47,3.13-3.77,5.65-.67.19-1.46.27-1.34,1.28a.44.44,0,0,0,.29.3c1,.08,1.05-.73,1.24-1.4A11,11,0,0,0,494.1,113.32Zm-6.5,8.8c-.24.15-.6.26-.66.45s.16.5.26.76l.9-.61Z" transform="translate(-360.09 -61.61)"/><path class="cls-1" d="M412.25,237.5c-6.18-3.1-12.4-6.13-18-10.18-.1-1.45-.8-2-2.25-1.54l-.09-.06c1.3-1.34.72-2.33-.34-3.59s-2.79-2.38-1.1-4.33l31.12,3.48c8.54,1.23,17.12,2.24,25.44,4.63.32,2,1.7,3.64,2.25,5.48.86,2.93.66,3.15,3.27,1.45,3.11-2,5.6-1.61,7.75,1.35-1.11.11-2.16.35-2.41,1.66a.64.64,0,0,0,.81.79c1.3-.28,1.52-1.33,1.61-2.44a5.86,5.86,0,0,1,2.28,0c1.17.5,2.34-2.91,3.46.15.7,1.93,2.35,3.64-.34,5.36a29.36,29.36,0,0,0-3.44,3c-.24,3.12-2.57,2.82-4.69,2.86-.78-.11-2-1.31-2.23-.16-.34,1.62,1.39.85,2.24,1.1l.95.94c-1.18,3.37,1.48,3.1,3,2.66,5.2-1.49,10.49-.56,15.71-1-3,2.91-7.36,1.08-10.87,2.81,1.39,2.6,4.58,2.35,5.87,4.57-1.54.22-3.37.77-4.43-.55-2.92-3.64-7-2.68-10.74-3.07.51-1.14,1.22-2-.83-2.74-9.66-3.47-19.91-4-29.8-6.32l-2.89-.77-1-.78,0-.12C419.22,240.35,416.26,237.74,412.25,237.5Z" transform="translate(-360.09 -61.61)"/><path class="cls-1" d="M462.57,164.46l2.95-.08c.57.6,1.15,1.19,1.73,1.79-2.52,4-1.48,8.25-.68,12.41.32,1.63.61,2.77-1.58,2.79-1.62,0-3.15.1-3.34-2.2a52.24,52.24,0,0,0-.95-5.95c-.33-1.65.67-4.66-2-4.29-2,.28.22,2.56.07,4s.15,3-1.64,3.42c-1.6.34-1.9-1.28-2.53-2.3-.89-1.44-.46-3.77-3.4-4.53,1,3.34,2.73,6.31,1,9.42-6.81-2-13.53-4.32-20.7-4.74a113.76,113.76,0,0,0-30.22-5.44c-2.34-1.84-5-.49-7.55-.84h0c-3-1.38-6.21-1.55-9.42-1.78-2.27.53-3.59-1.81-5.67-1.86l0,0c0-1.88,0-3.76,0-5.64,1.53-1.51,3.57-1.77,5.53-2.24,1.13,1.67,1.67,1,2-.51,3.13-1.79,7-1.6,10-3.7,1.55-.41,2.58.36,3.45,1.5,4.62,2.39,1.14-2.35,2.5-2.83,1.59-.18,3.29.14,4.72-.91,2.12,0,4.29.62,6.35-.4a5.44,5.44,0,0,0,.89,1.06c6.45,4.64,13.8,7.38,21.39,9.21,3.15.76,5.93,2.75,9.28,2.67A56.42,56.42,0,0,1,462.57,164.46Zm-12.9,3.18c.26.11.58.37.76.29s.24-.48.36-.74c-.26-.11-.58-.37-.77-.29S449.78,167.38,449.67,167.64Z" transform="translate(-360.09 -61.61)"/><path class="cls-1" d="M425.08,198.7c-1.19-1.67-2.25.15-3.38.12-.77-3.79-4.52-3.14-6.79-3.9-9-3-16.59-8.59-24.88-12.85a6.44,6.44,0,0,0-3.72-2.06l-2.2-1.63c-.43-1.25-1.5-1.44-2.61-1.56a.62.62,0,0,0-.68-.44,13.35,13.35,0,0,0-6.61-3.9l-.23.25.25-.23c-.84-1.82-3.1-1.71-4.24-3.13,1.08-1.3,1-4.86,2.89-3.84,2.87,1.55,3.84-1,5.71-1.3l0,0c-.38,5.48,3.89,1.6,5.64,2.8,3,1.84,6.3.48,9.45.84h0a12.77,12.77,0,0,0,7.62,1.72,111.85,111.85,0,0,1,23.55,4.57c-.41,1.94-1.42,4,2.22,3.88,2.11-.08,3.79,1.35,4.9,3.19,2.37,3.92,4.64,4.72,7.78.49,1.35-1.81,4-.32,6-.16,1,.08.69,1.78-.13,2.24-2.87,1.63-4.32,5-7.49,6.16-1,.38-2.4.52-2.27,1.9.14,1.56,1.76.83,2.67,1.25,2.25,1,3-.1,3.5-2.18.56-2.57,3-2.36,4.85-2.76.88-.18,2-.16,2.34,1,.61,2.05-1.77,2.32-2.31,3.7a5.25,5.25,0,0,0-.21.91c-3.27,0-6,2.36-9.38,2.22-1.6-.06-1.95,1.73-1.82,3.25C432,200.36,428.67,196.8,425.08,198.7Zm1.73-17-.21.4.22-.39c.68-.13,1.48-.11,1.41-1.15a.46.46,0,0,0-.3-.29C426.9,180.24,426.93,181,426.81,181.72Z" transform="translate(-360.09 -61.61)"/><path class="cls-1" d="M573.48,262.35c-1,2.15-3.12,2.87-4.78,4.22-3.17,2.6-6.78,4.27-9.55,7.93-6.31,8.31-14.27,15.17-25.83,15.17a13,13,0,0,1,8.32-4.78c-1.43-.77-2.12-1.1-2.77-1.49-1.18-.69-3.08-.87-3.25-2.37-.21-1.91,2.07-1.36,3.07-2.19s3-1.49,2.42-3c-.66-1.78-2.72-.63-4.15-.9-2.87-2.83-5.36-6.52-10.33-4.78-1.91.66-2.8-.86-4-1.77.12-1.32-.61-1.8-1.8-1.83v-1.84c.76-3.15,2.41-6.5-2-8.47l-1-.93c0-.95,0-1.9,0-2.85h2.82c1,2.83,2.25,2.35,2.89-.07.81-3.06,1.18-6.25,1.74-9.38l2.81-1a10.74,10.74,0,0,0-.23,1.38c-.3,5.73-5.58,12.34,2.92,16.6.45.22.23,1.76.33,2.68l-1.07.85-1.84,1c-1.41.25-3.13-.33-4.89,1.62,2.47-.07,3.92-.27,5.09-1.4l1.86-1c2.06-.14,4.16-.17,5.56-2.06h0c4.37.19,8.26-1.63,12.27-2.92a5.88,5.88,0,0,0,4.77-1.94l.79,0c4.27-.35,8.53-.84,12.81-1,2.86-.11,6-.15,5.31,4.39C571.69,261.21,572.59,261.93,573.48,262.35Z" transform="translate(-360.09 -61.61)"/><path class="cls-1" d="M527.23,414.76a2.14,2.14,0,0,1-2.3-.75,1.12,1.12,0,0,0-.57-.46l-.28-.16-1-.65a42.1,42.1,0,0,0-14.74-4.23c-7.69-.58-12.83-5.1-16.47-11.6a6,6,0,0,1-.84-4.67l.84-.95c1.27,0,2.59,0,2.79-1.73a102,102,0,0,1,35.81,3.26,5.14,5.14,0,0,0,1.38,4.35c3.63,3,2.39,8.78,6.75,11.26a1,1,0,0,1,0,1.63c-4.51,2.19.23,3.33.55,5.12C535.12,416.15,531.22,413.56,527.23,414.76Z" transform="translate(-360.09 -61.61)"/><path class="cls-1" d="M491.87,391.29l-.84.95c-.09-3.86-.21-7.72-.26-11.58,0-2.88-.57-5.9,2-8.18.91-1.26.83-3.16,2.5-3.94,3.19,2.76,6-.45,8.54-1.18s5.65-.43,6.36.88c1.89,3.52,3.72,1.79,5.69.8a5.3,5.3,0,0,1,6.14.83c1.51,1.47-1.45,2.32-1.64,3.79,0,.26.16.56.38,1.23,2.89-1.76,5.94-4.89,8.74-.05.16.28,1.19.05,1.82.06h0c-1.41,3.64-6.16,4.81-7.34,10,3.41-2.8,6-4.93,8.59-7,.86-.7,1.83-1.53,2.89-.65a3.33,3.33,0,0,1,1.26,3.72c-.29.94-1.77,1.5-1,2.72,1.79,1.12,3.44-2.54,4.92-.11.89,1.47,1.92,3.37,0,5.1a3.9,3.9,0,0,0-1.62,3.21c-3.79.3-7.43-.57-11.12-1.23-10.08-1.79-20.08-4.35-30.47-3.36,2-5.64-3.25-7.54-5.69-11.08l.11,12.25Z" transform="translate(-360.09 -61.61)"/><path class="cls-1" d="M489.28,421.61l2.75-1.24c2.09,1.68,3.6-.15,5.25-.92s3.39-2.18,5,.46c.34.56,2,.34,3,.48.59,4.6,6.71,7.45,4.19,13.09-.09.19.75.9,1.24,1.22,3.61,2.34.76,7.06,3.6,9.66l-1.3.45c-.69.26-2-.5-2,.81,0,1,1.24,1,2.1,1.07,2.63.59,4.58,2.27,6.41,4.07,1.56,1.54,2.08,4.23,4.92,4.31h0c.33.67.65.63,1,0h.91l1,.92c0,1.55,1.46,1.89,2.18,2.85.82,1.11,1,2.32,0,3.39-3.1,3.1-10.52,4.52-14.55,2.42-1.83-1-3.58-.87-5.42-1-.09-2.62-3.75-2.26-3.95-5.29-.4-6.11-1-12.33-7.23-16.07a4.92,4.92,0,0,1-2.26-4.88c2.34-.14,3.61,3.09,6.27,2.15,0-1.54-1.21-1.77-2-2.45-4-3.39-9.43-1.83-13.66-4.25a35.1,35.1,0,0,0,1.72-9.41A1.9,1.9,0,0,0,489.28,421.61Zm14.29,18.8c1.23,2.79,3.06,3.54,5.4,4.08C508.6,441,506.34,440.87,503.57,440.41Z" transform="translate(-360.09 -61.61)"/><path class="cls-1" d="M537.05,274.93c1.34.31,3.4-.84,4.06.94.54,1.48-1.37,2.11-2.42,3s-3.28.28-3.07,2.19c.17,1.5,2.07,1.68,3.25,2.37.65.39,1.34.72,2.77,1.49a13,13,0,0,0-8.32,4.78c-8.64-1.39-16.55,2.22-24.76,3.72-7.68,1.4-11.35.05-15.82-6.65-1.52-2.24,0-3,1.62-4.29,5.5-4.6,12.51-6.62,18.08-11h1.83l2.86-.08c4,4.87,9.59,6.7,15.93,8.46-.75-2.42-2.33-2-3.31-2.65-4-2.45-8.44-4.11-11.69-7.65l4.59-1.08c1.18.91,2.07,2.43,4,1.77,5-1.74,7.46,1.95,10.42,4.74-1.17.34-2.63-.53-3.49,1.34C535,276.91,536.15,277.31,537.05,274.93Z" transform="translate(-360.09 -61.61)"/><path class="cls-1" d="M483.93,174.59c.17-1.38.33-2.76.5-4.14,2-4.81,3.93-9.62,7.08-13.82a.32.32,0,0,0,.31-.43,5.21,5.21,0,0,0,2-3.07l-.23-.21.2.24c2.85-.26,2.89-3.64,5.11-4.61,1.52,3.51,3.65-1.57,5.36.42,2,2.31,2.89,1.26,3.59-1.18.37-1.26,1.94-2.23,2.17-3.47.62-3.45,2.94-2.51,4.86-2,2.4.61,3.77,2.06,2.57,4.84-1.06,2.48,0,4.4,2.33,5.23,1.25.45,1.69,1.52,2.58,2.13,1.63-4.17,1.68-8.89,5-12.31-.35,3.93,1.17,7.55,1.88,11.3a3.05,3.05,0,0,1,0,.8,9.28,9.28,0,0,0-7.37,4,2,2,0,0,0-1.87,1l-1,.92c-1.83,0-3.7-.12-4.69,1.92-1.68.37-3.37.74-3.8,2.81a2,2,0,0,0-1.82,1c-1.26-.34-2.46,1.72-3.77.12-.35-3.55,2.41-7.23-.44-10.7.42,3.6-2.45,7-.39,10.68-.06.89-.13,1.79-.19,2.68-6.73,2.61-12.6,6.4-16.81,12.43a2.05,2.05,0,0,0-1.8,1.06l-1,0Q484.08,178.38,483.93,174.59Z" transform="translate(-360.09 -61.61)"/><path class="cls-1" d="M553.71,256.91l-.79,0a7.63,7.63,0,0,0-4.81,1c-4.14,1.09-8.84.42-12.23,3.87h0a7.52,7.52,0,0,0-4.71,1c-.1-.92.12-2.46-.33-2.68-8.5-4.26-3.22-10.87-2.92-16.6a10.74,10.74,0,0,1,.23-1.38c.91.21,2,.88,2.68.57a20.36,20.36,0,0,1,9.66-2.25c1.38,0,5.57-.61,5.63-4.36l3.44.34a7.39,7.39,0,0,1,4.33,1.38c-.69.16-1.46.23-1.67,1.06,0,.13.3.35.46.52l1.28-1.56a4.32,4.32,0,0,1,.62-.29c.09,0,.22.1.32.16l1.2.52.18.15c.43,1.85,1.5,2.73,3.45,2.29a.36.36,0,0,1,.45.29c.88,2.12,1.59,4.47,4.73,3.69-.8,2.83-5.51,5.72.11,8.48C561.63,255.41,556.84,253.73,553.71,256.91Z" transform="translate(-360.09 -61.61)"/><path class="cls-1" d="M531.25,374.9c-.63,0-1.66.22-1.82-.06-2.8-4.84-5.85-1.71-8.74.05-.22-.67-.42-1-.38-1.23.19-1.47,3.15-2.32,1.64-3.79a5.3,5.3,0,0,0-6.14-.83c-2,1-3.8,2.72-5.69-.8-.71-1.31-3.65-1.65-6.36-.88s-5.35,3.94-8.54,1.18c2.56-4,6.31-5.85,10.86-6.6a58.83,58.83,0,0,1,20.46.26l2.49.58.19.07,1.33.64.85.76,1.6.3h0c-1.81,2-4.94-.05-6.66,2.28.64,1.08,2.4.16,2.94,1.5l-.21.39.21-.39c1.17.25,3-1.55,3.32-.11.72,2.93,1.9,2.08,3.8,1.45,1-.33,3.18.26,3.39.9,1,3.13,4.14,3.12,6.21,4.61,2.35,1.69,4.26,3.25,5.57,6.36,2.31,5.46,5.18,9.29,10.88,8.16h0c.9,4.84-.69,6.52-5.45,5.72-3.48-.59-6.95-1.24-10.51-.85h0l0-1a9.09,9.09,0,0,1,2.8-5.3c1.3-1.42.49-2.72-.61-3.64s-1.85.15-2.59,1c-1.93,2.25-3.79,4.61-6.39,6.16a4.22,4.22,0,0,1-.71,0,3.9,3.9,0,0,1,1.62-3.21c1.87-1.73.84-3.63,0-5.1-1.48-2.43-3.13,1.23-4.92.11-.76-1.22.72-1.78,1-2.72a3.33,3.33,0,0,0-1.26-3.72c-1.06-.88-2-.05-2.89.65-2.59,2.11-5.18,4.24-8.59,7,1.18-5.2,5.93-6.37,7.34-10l.21-.4Z" transform="translate(-360.09 -61.61)"/><path class="cls-1" d="M556.38,223.1a1.35,1.35,0,0,1-.4.68c-2.61,0-4.32,2.75-7.08,2.28-2-2.82-5-3.73-8.23-3.86a16.67,16.67,0,0,1-8.46-2.95c3-.91,5.49,1.39,8.36,1.05,1.48-.18,2.82-.36,3.25-2.06s-.68-2.33-2.1-3c-1.84-.85-4.25-1.11-5.14-3.74,3-.83,5.16,2,8.08,1.55-2.39-3.4-2.39-3.4.91-4.3-2.7-2.78-6.75-.34-9.37-2.69.06-.59.11-1.19.17-1.8l.77,0c3.35.45,5.93-1.47,8.52-3.05.75-.47-.47-.64-.9-.83a15.88,15.88,0,0,1,.68-4.58c.34-1.38,2.1-3.6.41-4.13-2.51-.8-1.64,2.26-2.4,3.55a1.6,1.6,0,0,1-1.88.94c.75-2.07-.53-4.41,1.44-6.33.77-.75.84-1.8-.26-2.3a1.84,1.84,0,0,0-2.7,1c-.61,1.42-.68,3.44-3.44,3.21l4.14-11.18a1.93,1.93,0,0,1,1-1.78c1.3,0,1.85-.77,1.88-2l3.74.14c-2.09,3.86-.36,5.48,3.45,5.82,1.28.12,2.33.63,1.72,2-1.66,3.69,1.49,7.37-.16,11.09-.42.94.75,1.56,1.78,1.67l5.65.87c-.86,1.54-.79,3.7-3.19,4.19a1.42,1.42,0,0,0-.93,2.23c3.06,4.11-.21,7.15-1.54,10.59-.7,1.83-1.43,4-1.07,5.77.29,1.43,2.11-.44,3.27-.08Zm-7.5-26.37c-.25.17-.72.32-.89.63-.25.49.14.88.62.83a1.58,1.58,0,0,0,1-.63C550,197,549.45,196.87,548.88,196.73Z" transform="translate(-360.09 -61.61)"/><path class="cls-1" d="M527.29,142.18c-3.29,3.42-3.34,8.14-5,12.31-.89-.61-1.33-1.68-2.58-2.13-2.36-.83-3.39-2.75-2.33-5.23,1.2-2.78-.17-4.23-2.57-4.84-1.92-.48-4.24-1.42-4.86,2-.23,1.24-1.8,2.21-2.17,3.47-.7,2.44-1.58,3.49-3.59,1.18-1.71-2-3.84,3.09-5.36-.41,1.85-4.07,6.63-5.1,9-8.66l-.19-.36.2.36,7.35-4.1,1.68-1a12.85,12.85,0,0,0,7-2.73c4.45.37,8.25-2.95,12.76-2.22,0,.95,0,1.91,0,2.87l-4.63,0c1.65,1,3.26,1.41,4.64,0,2.26-.45,4.7-2,6.79-.54,3.37,2.38,6.07,1.89,8.28-.8,4.49,2,.25,7.34,4.29,9.47.41.22-.41,1-1,1.32-1.08.6-2.16,1.16-3.24,1.73a2,2,0,0,0-1.88.95h0a2,2,0,0,0-1.88,1h0a6.71,6.71,0,0,0-3.78,1c.53-2.62-4.42-1.73-3.08-4.79.47-1.08,1.95-2.38.36-3.1s-2.3,1.16-3,2.36c-.53.94-.9,2-1.52,3.35-.94-2.57-3.31-3.09-4.81-4.29C528.4,137.2,528,139.1,527.29,142.18Z" transform="translate(-360.09 -61.61)"/><path class="cls-1" d="M485.4,397.6c-4,.61-7.45,2.64-11.42,3.45a20.32,20.32,0,0,1-10.38-.54l-1.32-.2-8.07.47c-.09-.11-.21-.32-.26-.31a4.62,4.62,0,0,0-.67.33l-1.85-.07c-2.36-2.46-6.32-.72-8.64-3.28,4.87-3.63,10.06-6.94,13.18-12.44l.21-.41-.23.4a9.27,9.27,0,0,1-.92.14c-1.7.13-2.58,3.5-4.13,1.95-1.91-1.93.69-3.52,1.79-5.09a8,8,0,0,0,.43-.82c3.49-.16,6.74,2,10.31,1-3.62,5.93-11.07,8.21-13.91,14.92,5.58-4.34,11.63-8.11,15.86-14,6.25.85,11.74,4.26,17.92,5.38l0,0c0,1.29.67,1.83,1.89,1.85h0C486.58,392.76,487.66,395.13,485.4,397.6Z" transform="translate(-360.09 -61.61)"/><path class="cls-1" d="M568.54,329.39c.41-.86-3.48-1.51,0-2.69,1.14-.39,1.41-2-.31-2.87-2.7-1.31-6-2.21-4.07-6.52.37-.85-.93-.9-1.65-1.16-1.21-.43-3.27,0-2.2-2.76.44-1.12-1.63-.88-2.61-.81-1.44.09-2.1,2.2-3.66,1.76-1.33-.37-4.35,4.71-4.08-1.18,0-.2-1.33-.55-2.06-.69a59.13,59.13,0,0,1-14.5-4.93c-2.33-1.12-5.64-.64-8.35-2.18-1.39-.79-2.88.46-4.11,1.6a10.69,10.69,0,0,1-12.79,1c-1.18-.75-.93-1.86-1.11-2.89,5.58-3.16,11.39-5.64,18-5.28,3.09.18,5.91.7,8.54,3,4,3.53,9.66,3,14.57,4,11,2.16,20.9,6.21,29.16,13.91l-.14-.13c1.57,1.6,5.16,1.26,4.68,4.85-1.72.08-3.37.1-4.42-1.7a1.38,1.38,0,0,0-2-.52,1.48,1.48,0,0,0-.74,1.53C575.25,330.68,574.36,331.35,568.54,329.39Z" transform="translate(-360.09 -61.61)"/><path class="cls-1" d="M485.4,397.6c2.26-2.47,1.18-4.84-.2-7.21,3.85,2,2.81-.95,2.85-2.81,1.65-6.13.53-12.36.61-18.55,0-.86-1-1.1-1.73-1.31a5.89,5.89,0,0,1,0-.84c2-.36,1.64-1.95,1.64-3.28,0-4,.07-8.06-.07-12.09-.07-2,.82-4.49-1.88-5.69a4.26,4.26,0,0,0-2.19-4.6c-3.32-2.19-7.36-3.23-10.09-6.32,3-.54,5.31,1.05,7.74,2.48,2,1.16,3.62,3.56,6.47,2.24,1.78-8.3,1.15-16.59-.15-24.88a2.06,2.06,0,0,0-.11-.65,4.58,4.58,0,0,0,.09-.83l.08-.13a16.16,16.16,0,0,0-.28-11.34,7.61,7.61,0,0,0-1.17-4.38l.12-6.9c0-1.78,1.43-1.8,2.61-2.13q.22,12.5.46,25c0,1.67-.3,3.46,1.13,4.81-1.19,5.19.69,10.07,1.53,15.05.2,1.21.52,2.44,2.38,1.12,3.93-2.8,9.1-2.28,13.39-4.95,1.63-1,6.69-.06,10,1.33a7.38,7.38,0,0,0,0,.82l-1.83.13c-6.91-.07-13.35,1.91-19.73,4.34-3.06,1.16-4.59,2.91-3.72,6.26-1.77.37-1.34,1.88-1.51,3-1.1,7.79-.16,15.64-.69,23.46a3.9,3.9,0,0,0,1.64,3.71c-2.52,2.28-2,5.3-2,8.18.05,3.86.17,7.72.26,11.58a6,6,0,0,0,.84,4.67c-1.36.27-1.59,1.32-1.61,2.45-.08,7.43-1.66,14.79-1,22.25a1.87,1.87,0,0,1-1,1.84c-1.72-1.14-2.55-3.37-4.79-3.85C486.67,412.48,485.57,405,485.4,397.6Z" transform="translate(-360.09 -61.61)"/><path class="cls-1" d="M527.23,414.76c4-1.2,7.89,1.39,11.91.42-.32-1.79-5.06-2.93-.55-5.12a1,1,0,0,0,0-1.63c-4.36-2.48-3.12-8.28-6.75-11.26a5.14,5.14,0,0,1-1.38-4.35c5.44-.26,10.56,2.44,16,1.76h0c.49.71,1.36.62,2,.95,3.29,1.72,8.43-.38,10.17,3.49,1.36,3,3.34,3.83,5.79,4.79A136,136,0,0,1,541,416.55,13.4,13.4,0,0,1,527.23,414.76Zm15.61-2.44c-.16-.55-.13-1.37-1-1.17-.69.16-.79.86-.71,1.48s.11,1.38,1,1.18C542.81,413.66,542.85,413,542.84,412.32Zm-7.45-15.76c-.25.4-.68.79-.6,1a1.2,1.2,0,0,0,.92.67c.64,0,1.15-.38.88-1.07C536.48,396.9,535.9,396.8,535.39,396.56Z" transform="translate(-360.09 -61.61)"/><path class="cls-1" d="M493.28,342.29c-.87-3.35.66-5.1,3.72-6.26,6.38-2.43,12.82-4.41,19.73-4.34-1.81,2.75,1,4.65,1.74,7.24a6.55,6.55,0,0,1-1.74-.39c-1.93-1.25-3.39-5.45-5.65-3.22-1.57,1.55,2.36,3.65,3.95,5.33,2.07,2.16,2.46,4.26-.07,5.82-1.81,1.12-1.91,2.21-.67,3.18,1.91,1.46,1.41-1.27,2.32-1.71,1.14-.56,1.7-2.86,3.37-1.6,1.22.91,1,2.73.19,3.9-2.42,3.43.31,3.48,2.45,4a2,2,0,0,1,1,1.83c-7-1.22-14.05-2.23-20.84-4.49C498,350,494.53,347.31,493.28,342.29Zm17.37,2,.78.33c.11-.26.36-.58.29-.76s-.48-.24-.74-.35Zm-4.47-7.41c-.11.26-.36.58-.29.77s.48.24.74.35c.11-.26.37-.58.29-.77S506.44,337,506.18,336.84Z" transform="translate(-360.09 -61.61)"/><path class="cls-1" d="M463.43,382.21c-3.57,1-6.82-1.19-10.31-1-.11-.11-.21-.27-.34-.32-10.06-3.15-20.6-2.78-30.91-3.74-7.13-.67,1.44,4.68-1.49,6.5-.52.32.24,1.61,1.12,1.5A10.64,10.64,0,0,0,424,384c1.32-.55,2.44-2.12,4.65-.57-2.29.91-4,2.11-2.8,4.67l-.37.41.42-.37c2.17.07,4.5-.73,4.9,3,.3,2.71,7,5.74,10.23,5.32h0l1.81,1c2.32,2.56,6.28.82,8.64,3.28-5.63,2.14-10.73.23-15.62-2.31-10-5.2-19.61-10.94-25.77-20.95-1.81-2.93-2.2-4.83,1.82-6.16,3.36-1.11,6.46-3,9.68-4.54a6.85,6.85,0,0,1,.18,2.31c-1.65,5.6-1.71,5.8,4,6.59,10,1.37,20.05,2.21,30,3.78,6.59,1,13,3.32,19.59,4.31a12.13,12.13,0,0,1,8,4.77c-6.18-1.12-11.67-4.53-17.92-5.38Z" transform="translate(-360.09 -61.61)"/><path class="cls-1" d="M536.62,132.68c0-1,0-1.92,0-2.87l.2-.19.26.11c3.37,0,6.75.05,10.13,0,1.47,0,3.23.38,3.55-1.88l4.78.35c.09.08.19.23.26.21a3.15,3.15,0,0,0,.56-.26l2.06,0c.9.75,1.93.5,3,.38a.67.67,0,0,1,.73.18c1.7,1.58,3.78.57,5.67.81.7.13,1.32.36,1.47,1.17-.59.33-1.71.36-1.41,1.29a2,2,0,0,0,1.84.77c1.19-.45.64-1.4.2-2.19l.9-.56c.92.14,1.84.35,2.77.4,5.36.31,5.34.31,2.76,4.75-.59,1-2.41,2.35-1.41,3.13,2.67,2.09.21,4.1.45,6.09-.09,2.33-2.63,2.54-3.6,4.12-.2-.66-.21-1.89-1.3-1.15-2.6,1.76-4.7,0-5.44-1.65-1.85-4.24-4.42-3.8-7.77-2.36a34.38,34.38,0,0,1-5.39,1.4v-.92c1.08-.57,2.16-1.13,3.24-1.73.54-.3,1.36-1.1,1-1.32-4-2.13.2-7.51-4.29-9.47-2.21,2.69-4.91,3.18-8.28.8-2.09-1.47-4.53.09-6.79.54Z" transform="translate(-360.09 -61.61)"/><path class="cls-1" d="M483.53,419.6c2.24.48,3.07,2.71,4.79,3.85a35.11,35.11,0,0,1-1.72,9.42c-.31,2.19-1.37,3-3.56,2.05-3.1-1.36-6.4-1.21-9.68-1.07-1,0-2.1-.17-2.77.91a1.29,1.29,0,0,0-.1.64l-2.76.36c-3.59-4.56-3.83,1-5.64,1.86a.82.82,0,0,1-.83.19c-1.48-1.18-2.57-3.11-5.11-2.63.45,1.58.88,3.11,1.31,4.64l-1.22.74-.74.53c-.47.42-.93.85-1.39,1.28l-4.19.2c-.13-1.54.13-2.78,2.06-2.93.85-.07,1.75-.82,1.08-1.49-3.23-3.26.37-3.32,1.89-4.48s4.1-1.65,2.36-4.46c5.76-2.66,11.6-5.16,17.25-8A13.9,13.9,0,0,1,483.53,419.6Z" transform="translate(-360.09 -61.61)"/><path class="cls-1" d="M564.49,403.81c-2.45-1-4.43-1.8-5.79-4.79-1.74-3.87-6.88-1.77-10.17-3.49-.64-.33-1.51-.24-2-.95,3.56-.39,7,.26,10.51.85,4.76.8,6.35-.88,5.45-5.72l.21-.4-.22.39c-5.7,1.13-8.57-2.7-10.88-8.16-1.31-3.11-3.22-4.67-5.57-6.36-2.07-1.49-5.17-1.48-6.21-4.61-.21-.64-2.41-1.23-3.39-.9-1.9.63-3.08,1.48-3.8-1.45-.35-1.44-2.15.36-3.32.11h0c-.54-1.34-2.3-.42-2.94-1.5,1.72-2.33,4.85-.31,6.66-2.28,5.18-.06,8.94,4.11,13.91,4.7,1.75,1.53,3.28,3.41,5.8,3.78v0l1.1.85c.95,1.84,2,3.61,3.92,4.6a3.89,3.89,0,0,0,2,3.45c4,2.79,6.51,6.89,9.3,10.73a10.19,10.19,0,0,0,.82,2.59c2.95,4.61,2.91,4.83-2.43,7.37C566.46,403,565.47,403.4,564.49,403.81Z" transform="translate(-360.09 -61.61)"/><path class="cls-1" d="M407.17,311.78c2.23,4.19-3.63,5.15-3.44,8.55a2.17,2.17,0,0,1-.24.77c11.73,3.46,24.19,1.18,35.93,4.62l1,0c-1.75,1.71-3.73,1-5.7.57-7.94-1.68-16-1.77-24.1-2.2-2.52-.14-2.91.41-2.36,3.2,1,4.87,4.1,5.77,8,5.63.27,1.8-2.26,1.26-1.56,2.76.47,1,1.67.46,2.53.67,1.33.33,4.43-.58,3.74,1.09-2.24,5.38,2.06,4.25,4.34,5.74,1.39.9,6.14.14,3.71,4.48l-5.67-.8h0c.2-3.51-2.41-2.86-4.46-3l-1.08-.76a1,1,0,0,0-1.14-.86.84.84,0,0,1-.56-.46,1.71,1.71,0,0,0-2.14-1.53,1.25,1.25,0,0,1-.69-.38,1.62,1.62,0,0,0-2.18-1.46.86.86,0,0,1-.67-.35,1.7,1.7,0,0,0-2-1.63c-6.32-3.83-10.12-10.41-16.05-14.68-1.34-1-.62-2,.46-2.52C397.59,316.77,401.87,313.29,407.17,311.78Z" transform="translate(-360.09 -61.61)"/><path class="cls-1" d="M511.71,90.47c-.06-.93.23-2.4-.22-2.69-2.89-1.82-2.09-3.47-.19-5.41.71-.72,1.48-1.93-.54-2.21l2.73-3,6.92-5.42a.55.55,0,0,0,.58-.35,1.81,1.81,0,0,0,1.88-1.7l1-.55c.51.22.68,0,.69-.49l.14-.14c2.68-.15,2.66-4.75,6.07-3.7-.65,10-2.22,19.77-6,29.09-1,2.43-1.39,5.13-3.21,7.18-1.83-1.45-4.64-2.24-1.17-5.38,1.92-1.72.17-4.72-1.2-6.71-1.58-2.27-3.26-.53-4.84.37-.79.45-1.65.79-2.49,1.18Z" transform="translate(-360.09 -61.61)"/><path class="cls-1" d="M423.64,141.24c0,.63,0,1.25,0,1.88-1.18,1-3.62.43-3.75,2.86a2.65,2.65,0,0,0-2.8,2.86h-3.85c-1.9-2.84-4.87-4.4-7.54-6.33a.71.71,0,0,0-.74-.25,21,21,0,0,0-8.64-3.85l-1.45-.67-.08-.3-.26.14-5-2.48c4.12-3.64,8.73-5.17,14.13-3.21l14.3,1.83c3.27-.1,6.24,1.31,9.38,1.85C425.31,136.94,421.56,137.19,423.64,141.24Zm-1-5.28c-2,.64-3.41,1-3.33,3C421.22,139,421.91,137.93,422.61,136Z" transform="translate(-360.09 -61.61)"/><path class="cls-1" d="M568.54,329.39c5.82,2,6.71,1.29,6.08-4.62a1.48,1.48,0,0,1,.74-1.53,1.38,1.38,0,0,1,2,.52c1,1.8,2.7,1.78,4.42,1.7l.22.27-.15.32-.77,1,.45.29.36-1.26a10,10,0,0,1,6.44,3,1,1,0,0,0,.82.08l.05,0c.27,2.05-2.22,1.45-3.09,2.74,1.93.63,3.86-.91,5.14.95h0a2.75,2.75,0,0,0-2.89,1.46c-5.63,3.89-12.36,5.85-17.37,11-3.46,3.54-8.7,4.56-13.56,5.69l-.39-.22.38.22a3.33,3.33,0,0,1-2.81.85V350.2c-2.54-3.84,2.17-2.29,2.81-3.77a2,2,0,0,0,.93-1.91c2.2.05,4.93,2.72,6.3-1.42.21-.62,1.33.23,2,.62,1,.63,2.13,1.18,3.4,0-1.16-1.47-1.78-2.68-1.14-4.9,1.82-6.35.8-7.53-5-7.55-.31,0-.62,0-.94,0H562c-.7-1.07-1.81-.87-2.84-.9v-1Zm4.24,2c-.53,3,.25,5.25,4.43,5.1Z" transform="translate(-360.09 -61.61)"/><path class="cls-1" d="M551.8,144.79a34.38,34.38,0,0,0,5.39-1.4c3.35-1.44,5.92-1.88,7.77,2.36.74,1.69,2.84,3.41,5.44,1.65,1.09-.74,1.1.49,1.3,1.15a.57.57,0,0,1-.32.69c-.87.07-1.48.38-1.35,1.41l-1.9,2.32a2,2,0,0,0-1.27,1.86l-.09.1-.83.82-.1.11c-2.91-.19-3.18,3-5.2,4-1.15.13-2.67-.64-3.35.69-.52,1,.75,1,1.4,1.23-1.31,1.63-2.44,3.47-4.77,3.83-3.12-3.92,1.68-5.06,2.55-7.31-1.94-2.92-6.29.63-8.39-3.72,3.95.52,7.79,1.66,10.09-2.88-4.51-.47-8.78-.86-12-4.07l1.9-1.86h0a1.91,1.91,0,0,0,1.88-1h0Z" transform="translate(-360.09 -61.61)"/><path class="cls-1" d="M556.36,221.11c-1.16-.36-3,1.51-3.27.08-.36-1.79.37-3.94,1.07-5.77,1.33-3.44,4.6-6.48,1.54-10.59a1.42,1.42,0,0,1,.93-2.23c2.4-.49,2.33-2.65,3.19-4.19,0-.93,0-1.86,0-2.8h0c4.89-1.06,8,1.54,9.24,5.68.63,2.08,1.17,3.56,3.05,4.5L567,211.6a.85.85,0,0,0-.49.7l-.11.15c-3.8-.17-4.75,2-4.29,5.26l-1.71,1.76a.9.9,0,0,0-1.12.84l-.12-.21.14.2Z" transform="translate(-360.09 -61.61)"/><path class="cls-1" d="M473.36,433.85c3.28-.14,6.58-.29,9.68,1.07,2.19,1,3.25.14,3.56-2.05,4.23,2.42,9.7.86,13.66,4.25.8.68,2,.91,2,2.45-2.66.94-3.93-2.29-6.27-2.15l-1.88,0h-1.89a4.53,4.53,0,0,0-3.64,3.95c-1.73,8.5-1.58,17.18-2.63,25.75l-.33-5.92c-1.07,4.49-.09,9-1.14,13.86-2.3-1.77,0-4.89-3-5.48l.63-7.56c.31,1.54-.42,3.22,1,5.35-.18-2.87.69-5.11-.85-7.16q.36-7.64.73-15.25c.15-7.63-1.39-9.29-8.6-9.25l-3.83-.32a1.29,1.29,0,0,1,.1-.64C471.61,434.77,472.69,434.92,473.36,433.85Z" transform="translate(-360.09 -61.61)"/><path class="cls-1" d="M572.1,205.79c-1.88-.94-2.42-2.42-3.05-4.5-1.27-4.14-4.35-6.74-9.24-5.68,2-1.12,3.75-2.53,6.08-3,3-.56,2.47-3.32,1.23-4.11-3.75-2.37-3.87-7.75-8.26-9.35,8,.92,15.92,2.22,22.67,7.16.61,1.14,2.56-.18,3,1.8-2.84.81-5.64,1.6-8.42,2.42-1.91.56-3.89,1-1.68,3.65,1.12,1.36.4,3.33.51,5-1.37.25-3.29-.56-3.64,1.72-.21,1.41-.15,2.82,1.8,3l-.05,1.25Z" transform="translate(-360.09 -61.61)"/><path class="cls-1" d="M558.86,179.19c4.39,1.6,4.51,7,8.26,9.35,1.24.79,1.74,3.55-1.23,4.11-2.33.43-4.12,1.84-6.08,3h0a9,9,0,0,0-5.63,1.93c-1-.11-2.2-.73-1.78-1.67,1.65-3.72-1.5-7.4.16-11.09.61-1.38-.44-1.89-1.72-2-3.81-.34-5.54-2-3.45-5.82l3.74-.09,4.82,1.25,1.16.46Z" transform="translate(-360.09 -61.61)"/><path class="cls-1" d="M553.71,256.91c3.13-3.18,7.92-1.5,11.34-3.85,2.7.09,5.18-.89,7.69-1.64,1.43-.43,1.69-1.7,2-2.94a.9.9,0,0,0-1-1.17c-3.43.66-5.56-2.67-8.72-2.73-3.14.78-3.85-1.57-4.73-3.69,7.43.82,14.91,1.48,20.63,7.23a3.87,3.87,0,0,0,2,1c1.46.21,3.71-.67,3.88,1.41.15,1.78-2.33,1.71-3.62,2.34-4.32,2.08-6,6.76-9.62,9.44-.89-.42-1.79-1.14-1.65-2,.69-4.54-2.45-4.5-5.31-4.39C562.24,256.07,558,256.56,553.71,256.91Z" transform="translate(-360.09 -61.61)"/><path class="cls-1" d="M411.58,268.49c-.78,1-1.37,2.28-2.38,2.8-2.56,1.31-3.76,2.25-1.82,5.47,1.32,2.21-.89,4.09-3.52,3.83a28.56,28.56,0,0,1-5.34-1.59c-.14-.83.14-2-.92-2.26-.87-.24-1.13.68-1.42,1.34l-1.51-.86c-.19-2,.75-4.38-2.55-5-1.81-.32-1.11-2.23-1.31-3.5,1.41-1.14,3.66-1.75,2.28-4.46-.45-.88.73-1.1,1.47-1.26.94.23,1.9,1.48,2.83,0l2.8.91C403.23,267.34,408.39,265.45,411.58,268.49Z" transform="translate(-360.09 -61.61)"/><path class="cls-1" d="M421.55,221.28l-31.12-3.48c-4.38-2.33-4.3,1-4.69,3.71-3.9-.94-5.27-4.66-7.78-7.13-.66-.64-.74-1.53.63-2.07,10.3-4.05,20.48-8.46,31.44-10.56-5.83,3.36-11.56,6.93-17.55,10-1.93,1-4.57.53-7.63.8,3.82,4.19,8.61,3.64,12.9,4.32,7.91,1.25,15.85,2.31,23.77,3.45Zm-32.44-11.45c.25.15.47.4.71.41s.49-.22.73-.35c-.23-.14-.45-.39-.69-.4S389.37,209.7,389.11,209.83Zm10.17-4.18-.74.36c.23.13.46.36.69.37s.48-.21.72-.32Z" transform="translate(-360.09 -61.61)"/><path class="cls-1" d="M483.93,174.59q.15,3.79.31,7.6c-3.06,2.73-3.21-2.64-5.52-2-2.39-5.85-5.8-10.87-11.47-14-.58-.6-1.16-1.19-1.73-1.79,4-1.6,4.87-5.77,7.1-8.83,1.28,0,3.13,1.22,3-1.52l.85-1.11c.29,8.23,3.29,15.94,4,24C482.82,177.18,482.17,174.37,483.93,174.59Z" transform="translate(-360.09 -61.61)"/><path class="cls-1" d="M524.43,455.07c-2.84-.08-3.36-2.77-4.92-4.31-1.83-1.8-3.78-3.48-6.41-4.07,0-.63-.07-1.26-.11-1.88l1.3-.45c-2.84-2.6,0-7.32-3.6-9.66-.49-.32-1.33-1-1.24-1.22,2.52-5.64-3.6-8.49-4.19-13.09l.05-.05,2.24-.52.1.12c-.73,2.35.93,2.17,2.37,2.24l0,0,.63.94a.67.67,0,0,1,.43.67c-.3,3,.59,5.2,3.95,5.66l-.21.26.2-.27c-.31,1.26.17,2,1.47,2.13a.62.62,0,0,1,.3.7c-.82,4,3,7.1,2,11.1,1.47.24,1.62,4.22,4.15,1.47l.69,1.65c-1.7,1.62-.4,1.74.93,1.84l0,0C524.48,450.57,524.45,452.82,524.43,455.07Z" transform="translate(-360.09 -61.61)"/><path class="cls-1" d="M403.66,131.89c-5.4-2-10-.43-14.13,3.21-2.47-.92-5-1.77-7.39-2.77-2.59-1.07-2.63-2.41-.14-3.7,6.87-3.58,13.87-6.81,21.67-7.82.37.91,3.23,1.63.15,2.77-2.16.81-4.28,1.74-6.39,2.68-1,.44-2.11,1-1.79,2.33s1.45,1.32,2.53,1.59C400,130.64,402.66,128.72,403.66,131.89Z" transform="translate(-360.09 -61.61)"/><path class="cls-1" d="M494.12,437.44l1.88,0a4.92,4.92,0,0,0,2.26,4.88c6.23,3.74,6.83,10,7.23,16.07.2,3,3.86,2.67,3.95,5.29,0,.57,0,1.14,0,1.71-3.43,2.31-4.41-1.25-5.64-2.8-2.11-2.67-2.59-6.23-3.71-9.45-2-5.69-5.39-10-11.47-11.74a4.56,4.56,0,0,1,3.65-3.95c.15.69.13,1.64,1.16,1.42C493.72,438.78,493.88,437.93,494.12,437.44Z" transform="translate(-360.09 -61.61)"/><path class="cls-1" d="M554.6,350.2V352a3.71,3.71,0,0,1-2.94.77c-1.39-1-1.56,0-1.75,1-8.73,1.43-17.37,3.73-26.34,2.29a2,2,0,0,0-1-1.83c.82-1.15,1.35-2.69,2.9-.4a4.07,4.07,0,0,0,5.81,1.34c-.54-2-3.28.05-3.46-2.88,5.84.95,11.06-1.31,16.49-2.47-1.23-4-5-6.61-5.89-10.79,4.56,1.5,5.43,6,7.63,9.41.24.38-.41,1.67.94.89l2.83,0A7.77,7.77,0,0,0,554.6,350.2Z" transform="translate(-360.09 -61.61)"/><path class="cls-1" d="M457.31,429.21c1.74,2.81-.93,3.37-2.36,4.46s-5.12,1.22-1.89,4.48c.67.67-.23,1.42-1.08,1.49-1.93.15-2.19,1.39-2.06,2.93v0c-.87.41-.94,1.19-.92,2l.78,4.07a.43.43,0,0,1-.3.52c-.13.35-.25.71-.38,1.06l-1.65,2.87c-4.87-.8.36-3.86-1.09-5.47a10.56,10.56,0,0,0-5.82,3.5c0-1.21,0-2.42,0-3.62,2.69-6.51,6.37-12.31,12.23-16.42C454.11,430.15,455.32,428.62,457.31,429.21Zm-9.74,13c-.1.05-.25.09-.28.17s0,.23,0,.35l.43-.24Z" transform="translate(-360.09 -61.61)"/><path class="cls-1" d="M481.46,469.59c3,.59.73,3.71,3,5.48,1.05-4.82.07-9.37,1.14-13.86l.33,5.92c.36,6.7-.17,13.47,1.69,20.07a3.36,3.36,0,0,1-1.81,4c-1.78.74-1.48-1.91-2.35-2.15-7-1.93-3.19-6.76-2.94-10.59C480.74,475.5,481.15,472.55,481.46,469.59Z" transform="translate(-360.09 -61.61)"/><path class="cls-1" d="M476.48,147.52c6.89-.34,11-5.23,15.41-9.53,3.79-3.69,7.46-7.49,11.31-11.11a9.12,9.12,0,0,1,4.95-2.49c-3.14,6.6-8.91,10.91-13.93,15.87-1.43,1.42-3.17,2.52-4.56,4C486,148.1,481.2,150,476.46,152Z" transform="translate(-360.09 -61.61)"/><path class="cls-1" d="M426.45,243.79c9.89,2.28,20.14,2.85,29.8,6.32,2.05.74,1.34,1.6.83,2.74-8.19,2.12-14.78-3-22.1-4.85a3.82,3.82,0,0,0-2.89-.24l-1.83,0-2,0a.88.88,0,0,0-.86,0l-1-1C426.44,245.83,426.44,244.81,426.45,243.79Z" transform="translate(-360.09 -61.61)"/><path class="cls-1" d="M377.45,257.57c-1.38-.11-3.25.1-2-2.24.8-1.51,2.05-3.43,3.66-3.23,4.8.6,8.84-2.62,13.52-2.22a11.42,11.42,0,0,0,9.43-3.56c1.84-1.84,4.06-.23,6.05-.27,5.16-.11,10.43-1.08,15.53.71l-1.94.91h0l-4.64,0-3.79-.2-1,.1-25.56,5.81C383.18,253.79,378.87,252.45,377.45,257.57Z" transform="translate(-360.09 -61.61)"/><path class="cls-1" d="M509.4,465.37c0-.57,0-1.14,0-1.71,1.84.1,3.59,0,5.42,1,4,2.1,11.45.68,14.55-2.42,1.07-1.07.86-2.28,0-3.39-.72-1-2.23-1.3-2.18-2.85l-1-.92h-1.87c0-2.25.05-4.5.07-6.75,4.55,5.1,8.58,10.49,9.67,17.9C526,464.74,517.61,469.15,509.4,465.37Z" transform="translate(-360.09 -61.61)"/><path class="cls-1" d="M575.3,144.43c-.24-2,2.22-4-.45-6.09-1-.78.82-2.12,1.41-3.13,2.58-4.44,2.6-4.44-2.76-4.75-.93-.05-1.85-.26-2.76-.39,5.66-.3,11.26-.92,17-.09,3.29.48,2,1.52,1.31,3-1.68-.23-2.19,1.49-3.41,2-3.2.94-5.09,3.5-7.18,5.82C577.21,141.86,577.05,143.84,575.3,144.43Z" transform="translate(-360.09 -61.61)"/><path class="cls-1" d="M512.44,271.42c-5.57,4.41-12.58,6.43-18.08,11-1.59,1.33-3.14,2.05-1.62,4.29l-1.82.06c-.43-.79-.78-.47-1.12.07a3.88,3.88,0,0,0-.82-.18c-.06-1.59-.12-3.18-.19-4.77q-.5-7.69-1-15.41a5,5,0,0,1,.22-3.32,5.63,5.63,0,0,0,.92-.1c.61,4.74,1.2,9.49,1.83,14.22.18,1.31-.68,3.15.76,3.8s2.49-.93,3.59-1.75C500.3,275.44,505.76,272.11,512.44,271.42Z" transform="translate(-360.09 -61.61)"/><path class="cls-1" d="M574.91,199.24c-.11-1.69.61-3.66-.51-5-2.21-2.68-.23-3.09,1.68-3.65,2.78-.82,5.58-1.61,8.42-2.42-.41-2-2.36-.66-3-1.8,2.27-.54,4.94-.47,5.84,1.6s-1.39,3.08-3.16,4.27c-2.21,1.48-2.62,4.88-5.31,6.21l-.5-.42.45.49-.68.83-3.25-.08Z" transform="translate(-360.09 -61.61)"/><path class="cls-1" d="M384.08,156.36c-2,.47-4,.73-5.53,2.24a119.7,119.7,0,0,0-13.07,3.68c-3.65,1.36-3.61,2.71-.83,4.84-1.65-.28-4.54,1.2-4.56-1.5a5.66,5.66,0,0,1,5.08-5.76c5.57-.26,9.78-3.84,14.72-5.14,5.21-1.37,10.46-3.94,16.19-2.57-3,2.1-6.88,1.91-10,3.7A1.86,1.86,0,0,0,384.08,156.36Z" transform="translate(-360.09 -61.61)"/><path class="cls-1" d="M364.65,167.12c-2.78-2.13-2.82-3.48.83-4.84a119.7,119.7,0,0,1,13.07-3.68c0,1.88,0,3.76,0,5.64-1.87.27-2.84,2.84-5.71,1.29-1.88-1-1.81,2.54-2.89,3.84l-2.49-.75A4.52,4.52,0,0,0,364.65,167.12Z" transform="translate(-360.09 -61.61)"/><path class="cls-1" d="M496.68,90.73c1.09,3-.14,4.64-3.09,5.55-4.58,1.4-7,5.79-10.89,8.2-.81.51-1.35,1.9-.82,2.49,2,2.18-.41,3.11-1,4.54-.62.63-1.24,1.27-1.87,1.9h-1a1.78,1.78,0,0,0-2-1.88l0-1.89a.62.62,0,0,0,.3-.61c1.6-.43,1.7-1.78,1.88-3.08A113.84,113.84,0,0,1,496.68,90.73Z" transform="translate(-360.09 -61.61)"/><path class="cls-1" d="M423.33,346.91l5.67.8c5.29,3.28,11.37,4.05,17.26,5.42l9.85,1.77c-4.65,1.31-8.32.67-11.58,2-2.16-4-6.61-3.38-10-4.77C430.67,350.58,426.16,350.57,423.33,346.91Z" transform="translate(-360.09 -61.61)"/><path class="cls-1" d="M390.81,268.77c.2,1.27-.5,3.18,1.31,3.5,3.3.57,2.36,3,2.55,5-6.35-4.06-11-9.71-15.11-15.94h1.76a2,2,0,0,0,1.92.94h0A14.19,14.19,0,0,0,390.81,268.77Z" transform="translate(-360.09 -61.61)"/><path class="cls-1" d="M381.32,261.27h-1.76a3.36,3.36,0,0,1-.71-.08l-1.29-2.7c0-.31-.07-.62-.11-.93,1.42-5.12,5.73-3.78,9.27-4.16,1.13,1.3.28,2.69.21,4s1.4,1.82,1.94,2.84l0,0a11.79,11.79,0,0,1-4.54-.7C382.9,259.06,381.53,259.29,381.32,261.27Z" transform="translate(-360.09 -61.61)"/><path class="cls-1" d="M569,392.61c-2.79-3.84-5.26-7.94-9.3-10.73a3.89,3.89,0,0,1-2-3.45C565.25,380.93,569,385.69,569,392.61Z" transform="translate(-360.09 -61.61)"/><path class="cls-1" d="M474.32,435.72c7.21,0,8.75,1.62,8.6,9.25C479,442.83,475.76,440.13,474.32,435.72Z" transform="translate(-360.09 -61.61)"/><path class="cls-1" d="M507.82,139.9c-2.33,3.56-7.11,4.59-9,8.66-2.22,1-2.26,4.34-5.11,4.6.64-3.88,1.73-7.33,6.34-8.29a3.46,3.46,0,0,0,2.2-2.21C503,139.23,505.17,139.18,507.82,139.9Z" transform="translate(-360.09 -61.61)"/><path class="cls-1" d="M421.69,247.67l1.94-.91,2.8.09,1,1c-.18,1.46.33,3.75-2,3.44-2.79-.36-6.27,2.24-8.35-1.66l0-1.92,4.64,0a2.4,2.4,0,0,0,.17.32c0,.06.15.07.22.1Z" transform="translate(-360.09 -61.61)"/><path class="cls-1" d="M405.71,142.51c2.67,1.93,5.64,3.49,7.54,6.33a.74.74,0,0,0-.15.67c-2.06,1-4.23.39-6.35.4A17.3,17.3,0,0,0,405.71,142.51Z" transform="translate(-360.09 -61.61)"/><path class="cls-1" d="M385.74,221.51c.39-2.72.31-6,4.69-3.71-1.69,1.95.14,3.18,1.1,4.33s1.64,2.25.34,3.59A22.46,22.46,0,0,1,385.74,221.51Z" transform="translate(-360.09 -61.61)"/><path class="cls-1" d="M489.8,286.87c.34-.54.69-.86,1.12-.07.05,8.9.06,17.8.2,26.7,0,1.26-.9,3.45,1.89,3.27-.11,1-.88,1.22-1.67,1.42-1.43-1.35-1.1-3.14-1.13-4.81q-.25-12.5-.46-25C489.77,287.88,489.78,287.37,489.8,286.87Z" transform="translate(-360.09 -61.61)"/><path class="cls-1" d="M440.53,451.11a10.56,10.56,0,0,1,5.82-3.5c1.45,1.61-3.78,4.67,1.09,5.47-2.42,1.77-5.14.85-7.72.72-1.75-.08-1.5-1.2-.47-2.2,1,1.27,1.18.51,1.29-.5Z" transform="translate(-360.09 -61.61)"/><path class="cls-1" d="M522.92,444.86c-2.53,2.75-2.68-1.23-4.15-1.47,1-4-2.78-7.14-2-11.1C518.54,436.63,521.71,440.27,522.92,444.86Z" transform="translate(-360.09 -61.61)"/><path class="cls-1" d="M412.25,237.5c4,.24,7,2.85,10.29,4.62a24.62,24.62,0,0,0-4.12,0C414.64,242.78,412.64,241.26,412.25,237.5Z" transform="translate(-360.09 -61.61)"/><path class="cls-1" d="M491.51,156.63c-3.15,4.2-5.12,9-7.08,13.82-1.26-4.08,1.69-7.4,2.15-11.2C486.81,157.41,489.18,156.26,491.51,156.63Z" transform="translate(-360.09 -61.61)"/><path class="cls-1" d="M470.12,133.23c.31,1.19.93,2.77-.22,3.43s-2.39-.73-2.91-1.7c-1.33-2.48-4.54-2.85-5.71-5.4,2.86-.78,5.42-1.36,5.74,3.05C467.21,135.25,469,133.21,470.12,133.23Z" transform="translate(-360.09 -61.61)"/><path class="cls-1" d="M505.26,420.39c-1-.14-2.67.08-3-.48-1.58-2.64-3.21-1.28-5-.46s-3.16,2.6-5.25.92c4.17-2.29,8.37-4.4,13.23-1.86,0,.61,0,1.22.05,1.83Z" transform="translate(-360.09 -61.61)"/><path class="cls-1" d="M476.48,147.52l0,4.45c0,.31,0,.63,0,.95L475.6,154c-1.37-1.1-2,.4-2.92.83-.09-2.44-2.87-2.05-3.79-3.61l1.2-.1c2.24.95,3.66.52,4.17-2.13.37-1.9.26-4.07,2.13-5.41Z" transform="translate(-360.09 -61.61)"/><path class="cls-1" d="M438.18,296.67c2.85.53,5.83.44,8.46,1.92-.32,1.09-.63,2.18-.95,3.27a12.91,12.91,0,0,1-5.5,0c.63-1,2.72-.3,2.56-2s-1.75-1.25-2.84-1.41A1.82,1.82,0,0,1,438.18,296.67Z" transform="translate(-360.09 -61.61)"/><path class="cls-1" d="M550.72,127.87c-.32,2.26-2.08,1.86-3.55,1.88-3.38,0-6.76,0-10.13,0a10.45,10.45,0,0,1,7.9-1.89l2.14,0Z" transform="translate(-360.09 -61.61)"/><path class="cls-1" d="M573,205.22l.05-1.25.38-.22-.18-.17-.2.39c-2-.19-2-1.6-1.8-3,.35-2.28,2.27-1.47,3.64-1.72h0a2.13,2.13,0,0,0,1.28,2.07C575.1,202.59,574.82,204.52,573,205.22Z" transform="translate(-360.09 -61.61)"/><path class="cls-1" d="M396.33,138.41a21,21,0,0,1,8.64,3.85C401.35,142.63,397.37,143.82,396.33,138.41Z" transform="translate(-360.09 -61.61)"/><path class="cls-1" d="M367.5,168.62l2.49.75c1.14,1.42,3.4,1.31,4.24,3.13C369.1,173.75,367.89,173.05,367.5,168.62Z" transform="translate(-360.09 -61.61)"/><path class="cls-1" d="M578.46,140.84c2.09-2.32,4-4.88,7.18-5.82C585.79,140.1,581.6,139.82,578.46,140.84Z" transform="translate(-360.09 -61.61)"/><path class="cls-1" d="M530.74,64.82c-3.41-1-3.39,3.55-6.07,3.7-.09-2.56,2.39-3.72,3.21-5.82a1.75,1.75,0,0,1,2.31-.92C531.46,62.47,531.69,63.6,530.74,64.82Z" transform="translate(-360.09 -61.61)"/><path class="cls-1" d="M449.77,448.63l-.78-4.07a2.18,2.18,0,0,0,.92-2v0l4.19-.2Z" transform="translate(-360.09 -61.61)"/><path class="cls-1" d="M457.46,439.82c-.43-1.53-.86-3.06-1.31-4.64,2.54-.48,3.63,1.45,5.11,2.63A5.66,5.66,0,0,1,457.46,439.82Z" transform="translate(-360.09 -61.61)"/><path class="cls-1" d="M523.82,132a12.85,12.85,0,0,1-7,2.73c-.9-1.7-.92-2.92,1.52-2.84C520.2,132,522,132,523.82,132Z" transform="translate(-360.09 -61.61)"/><path class="cls-1" d="M520.41,71.75l-6.92,5.42C513.82,72.84,516.05,70.94,520.41,71.75Z" transform="translate(-360.09 -61.61)"/><path class="cls-1" d="M374.21,172.48a13.35,13.35,0,0,1,6.61,3.9C377.62,176.77,375.38,175.53,374.21,172.48Z" transform="translate(-360.09 -61.61)"/><path class="cls-1" d="M515.18,135.8l-7.35,4.1C508.85,136,511.79,135.47,515.18,135.8Z" transform="translate(-360.09 -61.61)"/><path class="cls-1" d="M562.1,217.71c-.46-3.29.49-5.43,4.29-5.26A14.89,14.89,0,0,1,562.1,217.71Z" transform="translate(-360.09 -61.61)"/><path class="cls-1" d="M591.25,333c-1.28-1.86-3.21-.32-5.14-.95.87-1.29,3.36-.69,3.09-2.74C590.47,330.17,593.63,330,591.25,333Z" transform="translate(-360.09 -61.61)"/><path class="cls-1" d="M507.82,82.81c0,4-2.6,4.24-5.59,4A11.76,11.76,0,0,1,507.82,82.81Z" transform="translate(-360.09 -61.61)"/><path class="cls-1" d="M476,109.65l0,1.89c-1.89,1.15-2,3.56-3.47,5A5.88,5.88,0,0,1,476,109.65Z" transform="translate(-360.09 -61.61)"/><path class="cls-1" d="M552.74,373c-2.52-.37-4-2.25-5.8-3.78C549.92,368.9,552.52,369.15,552.74,373Z" transform="translate(-360.09 -61.61)"/><path class="cls-1" d="M462.09,437.62c1.81-.84,2.05-6.42,5.64-1.86C465.92,436.62,464.19,437.68,462.09,437.62Z" transform="translate(-360.09 -61.61)"/><path class="cls-1" d="M515.05,429.47c-3.36-.46-4.25-2.65-3.95-5.66C512.58,425.58,514.3,427.18,515.05,429.47Z" transform="translate(-360.09 -61.61)"/><path class="cls-1" d="M508.21,124.33a4.47,4.47,0,0,1,3.54-4.7C511.45,121.86,510.77,123.81,508.21,124.33Z" transform="translate(-360.09 -61.61)"/><path class="cls-1" d="M418.84,343.89c2.05.17,4.66-.48,4.46,3C421.53,346.33,419.55,346,418.84,343.89Z" transform="translate(-360.09 -61.61)"/><path class="cls-1" d="M472.12,119.09l-1.62,5.68C469.91,122.56,469.78,120.48,472.12,119.09Z" transform="translate(-360.09 -61.61)"/><path class="cls-1" d="M482.19,460.22c1.54,2,.67,4.29.85,7.16-1.37-2.13-.64-3.81-1-5.35Z" transform="translate(-360.09 -61.61)"/><path class="cls-1" d="M402,150.82c-1.36.48,2.12,5.22-2.5,2.83C401.72,153.9,399.55,150.31,402,150.82Z" transform="translate(-360.09 -61.61)"/><path class="cls-1" d="M556.36,221.11l2.93-.81c-.11,1.83-1.19,2.65-2.91,2.8C556.37,222.44,556.37,221.78,556.36,221.11Z" transform="translate(-360.09 -61.61)"/><path class="cls-1" d="M559.76,240.6c-2,.44-3-.44-3.45-2.29A4.79,4.79,0,0,1,559.76,240.6Z" transform="translate(-360.09 -61.61)"/><path class="cls-1" d="M386.31,180a6.44,6.44,0,0,1,3.72,2.06C388.48,181.94,386.46,182.67,386.31,180Z" transform="translate(-360.09 -61.61)"/><path class="cls-1" d="M510,422.18c-1.44-.07-3.1.11-2.37-2.24A3.29,3.29,0,0,1,510,422.18Z" transform="translate(-360.09 -61.61)"/><path class="cls-1" d="M576.2,201.32a2.13,2.13,0,0,1-1.28-2.07l3.25.08A3.51,3.51,0,0,1,576.2,201.32Z" transform="translate(-360.09 -61.61)"/><path class="cls-1" d="M396.18,278.08c.29-.66.55-1.58,1.42-1.34,1.06.3.78,1.43.92,2.26l0,0-1.42-.08Z" transform="translate(-360.09 -61.61)"/><path class="cls-1" d="M478.13,106c-.18,1.3-.28,2.65-1.88,3.08C476.08,107.52,475.89,106,478.13,106Z" transform="translate(-360.09 -61.61)"/><path class="cls-1" d="M493.78,153.13a5.21,5.21,0,0,1-2,3.07C491.65,154.65,491.16,152.9,493.78,153.13Z" transform="translate(-360.09 -61.61)"/><path class="cls-1" d="M381.5,176.82c1.11.12,2.18.31,2.61,1.56C382.91,178.42,381.73,178.41,381.5,176.82Z" transform="translate(-360.09 -61.61)"/><path class="cls-1" d="M588.35,334.42a2.75,2.75,0,0,1,2.89-1.46C590.88,334.66,589.61,334.52,588.35,334.42Z" transform="translate(-360.09 -61.61)"/><path class="cls-1" d="M470.19,128.61l-.12,2.83C467.83,130.4,469.36,129.52,470.19,128.61Z" transform="translate(-360.09 -61.61)"/><path class="cls-1" d="M549.91,353.77c.19-1,.36-2,1.75-1A1.77,1.77,0,0,1,549.91,353.77Z" transform="translate(-360.09 -61.61)"/><path class="cls-1" d="M522.87,69.7A1.81,1.81,0,0,1,521,71.4,1.6,1.6,0,0,1,522.87,69.7Z" transform="translate(-360.09 -61.61)"/><path class="cls-1" d="M512.19,119a1.67,1.67,0,0,1,1.38-2.25A2,2,0,0,1,512.19,119Z" transform="translate(-360.09 -61.61)"/><path class="cls-1" d="M554,237.77l-1.28,1.56c-.16-.17-.5-.39-.46-.52.21-.83,1-.9,1.67-1.06Z" transform="translate(-360.09 -61.61)"/><path class="cls-1" d="M516.51,431.59c-1.3-.15-1.78-.87-1.47-2.13A2.31,2.31,0,0,1,516.51,431.59Z" transform="translate(-360.09 -61.61)"/><path class="cls-1" d="M392,225.78c1.45-.5,2.15.09,2.25,1.54A2.42,2.42,0,0,1,392,225.78Z" transform="translate(-360.09 -61.61)"/><path class="cls-1" d="M440.57,447.49c0,1.2,0,2.41,0,3.62h-1C439.61,449.82,439.58,448.5,440.57,447.49Z" transform="translate(-360.09 -61.61)"/><path class="cls-1" d="M505.31,420.34c0-.61,0-1.22-.05-1.83a2.58,2.58,0,0,1,2.29,1.31Z" transform="translate(-360.09 -61.61)"/><path class="cls-1" d="M524.54,448.35c-1.33-.1-2.63-.22-.93-1.84A1.89,1.89,0,0,1,524.54,448.35Z" transform="translate(-360.09 -61.61)"/><path class="cls-1" d="M413.92,340.28a1.71,1.71,0,0,1,2.14,1.53A2.06,2.06,0,0,1,413.92,340.28Z" transform="translate(-360.09 -61.61)"/><path class="cls-1" d="M411.05,338.44a1.62,1.62,0,0,1,2.18,1.46A2,2,0,0,1,411.05,338.44Z" transform="translate(-360.09 -61.61)"/><path class="cls-1" d="M566.86,154.83a2,2,0,0,1,1.27-1.86C568.38,154.05,567.88,154.62,566.86,154.83Z" transform="translate(-360.09 -61.61)"/><path class="cls-1" d="M560.94,127.84q.18.38.39.75c-1,.12-2.05.37-3-.38Z" transform="translate(-360.09 -61.61)"/><path class="cls-1" d="M377.56,258.5l1.29,2.7C377.37,260.8,377.55,259.61,377.56,258.5Z" transform="translate(-360.09 -61.61)"/><path class="cls-1" d="M431.25,361.7c-.55,1.1-1.57,1-2.57,1A3.24,3.24,0,0,1,431.25,361.7Z" transform="translate(-360.09 -61.61)"/><path class="cls-1" d="M529,362.78l-2.49-.58A2.66,2.66,0,0,1,529,362.78Z" transform="translate(-360.09 -61.61)"/><path class="cls-1" d="M408.38,336.46a1.7,1.7,0,0,1,2,1.63A2.46,2.46,0,0,1,408.38,336.46Z" transform="translate(-360.09 -61.61)"/><path class="cls-1" d="M439.5,451.1h1c-.11,1-.3,1.77-1.29.5A.41.41,0,0,1,439.5,451.1Z" transform="translate(-360.09 -61.61)"/><path class="cls-1" d="M438.23,302h-1.82C437,301.17,437.62,301.18,438.23,302Z" transform="translate(-360.09 -61.61)"/><path class="cls-1" d="M533,364.55l-1.6-.3Z" transform="translate(-360.09 -61.61)"/><path class="cls-1" d="M547.08,127.81l-2.14,0A1.4,1.4,0,0,1,547.08,127.81Z" transform="translate(-360.09 -61.61)"/><path class="cls-1" d="M397.06,279l1.42.08,0,.44,0,.44A1.43,1.43,0,0,1,397.06,279Z" transform="translate(-360.09 -61.61)"/><path class="cls-1" d="M570,150.65c-.13-1,.48-1.34,1.35-1.41Z" transform="translate(-360.09 -61.61)"/><path class="cls-1" d="M524.53,68.66c0,.47-.18.71-.69.49A1.06,1.06,0,0,1,524.53,68.66Z" transform="translate(-360.09 -61.61)"/><path class="cls-1" d="M557.1,178.57l-1.16-.46Z" transform="translate(-360.09 -61.61)"/><path class="cls-1" d="M556.32,128.17a3.15,3.15,0,0,1-.56.26c-.07,0-.17-.13-.26-.21A.65.65,0,0,1,556.32,128.17Z" transform="translate(-360.09 -61.61)"/><path class="cls-1" d="M559.27,220.31a.9.9,0,0,1,1.12-.84Z" transform="translate(-360.09 -61.61)"/><path class="cls-1" d="M524.36,413.55a1.12,1.12,0,0,1,.57.46C524.48,414.17,524.31,414,524.36,413.55Z" transform="translate(-360.09 -61.61)"/><path class="cls-1" d="M523.08,412.74l1,.65Z" transform="translate(-360.09 -61.61)"/><path class="cls-1" d="M566.5,212.3a.85.85,0,0,1,.49-.7Z" transform="translate(-360.09 -61.61)"/><path class="cls-1" d="M565.94,155.75l.83-.82C566.79,155.51,566.55,155.82,565.94,155.75Z" transform="translate(-360.09 -61.61)"/><path class="cls-1" d="M462.28,400.31l1.32.2Z" transform="translate(-360.09 -61.61)"/><path class="cls-1" d="M449.09,450.21c.13-.35.25-.71.38-1.06C449.34,449.51,449.22,449.86,449.09,450.21Z" transform="translate(-360.09 -61.61)"/><path class="cls-1" d="M498.51,89.68l-1.35.74A1.15,1.15,0,0,1,498.51,89.68Z" transform="translate(-360.09 -61.61)"/><path class="cls-1" d="M577.1,320.61l.14.13Z" transform="translate(-360.09 -61.61)"/><path class="cls-1" d="M510.67,423.14l-.63-.94Z" transform="translate(-360.09 -61.61)"/><path class="cls-1" d="M589.15,329.24a1,1,0,0,1-.82-.08,5.53,5.53,0,0,1,.65-.22S589.09,329.14,589.15,329.24Z" transform="translate(-360.09 -61.61)"/><path class="cls-1" d="M530.55,363.49l-1.33-.64Z" transform="translate(-360.09 -61.61)"/><path class="cls-1" d="M434,360.63a1.2,1.2,0,0,1-1.55.59Z" transform="translate(-360.09 -61.61)"/><path class="cls-1" d="M501.32,87.33a.93.93,0,0,1-.66.51C500.65,87.37,500.84,87.16,501.32,87.33Z" transform="translate(-360.09 -61.61)"/><path class="cls-1" d="M455.5,441.09l.74-.53C456.2,441,456,441.24,455.5,441.09Z" transform="translate(-360.09 -61.61)"/><path class="cls-1" d="M422.59,242.24l1,.78Z" transform="translate(-360.09 -61.61)"/><path class="cls-1" d="M423.76,365.53l-1.32.81Z" transform="translate(-360.09 -61.61)"/><path class="cls-1" d="M553.83,373.83l-1.1-.85C553.09,373.27,553.46,373.55,553.83,373.83Z" transform="translate(-360.09 -61.61)"/><path class="cls-1" d="M416.62,342.27a1,1,0,0,1,1.14.86Z" transform="translate(-360.09 -61.61)"/><polygon class="cls-1" points="34.46 75.96 34.71 75.83 34.8 76.13 34.46 75.96"/><path class="cls-1" d="M556.13,238.16l-1.2-.52C555.55,237.3,556,237.43,556.13,238.16Z" transform="translate(-360.09 -61.61)"/><path class="cls-1" d="M453.28,400.8a4.62,4.62,0,0,1,.67-.33c.05,0,.17.2.26.31Z" transform="translate(-360.09 -61.61)"/><path class="cls-1" d="M413.1,149.51a.74.74,0,0,1,.15-.67h3.85l8.56,3.62,13.1,1c2.74,2.08,6,2.24,9.24,2.64,6,.74,11.55,2.39,14.57,8.38a56.42,56.42,0,0,0-17.91-2c-3.35.08-6.13-1.91-9.28-2.67-7.59-1.83-14.94-4.57-21.39-9.21A5.44,5.44,0,0,1,413.1,149.51Z" transform="translate(-360.09 -61.61)"/><path class="cls-1" d="M438.76,153.44l-13.1-1c1.06-1.33,2.59-.75,3.92-1a1.7,1.7,0,0,0,1.56-2c0-.62-.32-1.58-.95-1.31-4,1.79-6.54-3-10.29-2.25.13-2.43,2.57-1.82,3.75-2.86,2,.2,3.53-1,5.22-1.68,2.21-.91,4.41-1.41,6.51.34,0,1.45-1.25,1.58-2.15,2s-1.94.5-1.81,1.72,1.24,1.06,2.12,1.31C436.82,147.77,438.13,150.36,438.76,153.44Z" transform="translate(-360.09 -61.61)"/><path class="cls-1" d="M423.64,141.24c-2.08-4.05,1.67-4.3,3.7-5.67l3.76,0h0a3.4,3.4,0,0,0,0,.9C429.54,139.43,426.88,140.8,423.64,141.24Z" transform="translate(-360.09 -61.61)"/><path class="cls-1" d="M482,132.25c-.09,4.62-2.67,8-5.52,11.31A19.71,19.71,0,0,1,482,132.25Z" transform="translate(-360.09 -61.61)"/><path class="cls-1" d="M438.66,137.25c4.06.42,8,1.09,11.4,3.7l-.11.11c-4,0-7.4-2.11-11.17-2.9A7.09,7.09,0,0,1,438.66,137.25Z" transform="translate(-360.09 -61.61)"/><path class="cls-1" d="M431.1,135.53l-3.76,0c-3.14-.54-6.11-1.95-9.38-1.85C422.72,131.54,426.83,134.17,431.1,135.53Z" transform="translate(-360.09 -61.61)"/><path class="cls-1" d="M461.37,146.55a10.5,10.5,0,0,1-7.58-3.7h0C456.64,143.42,459.88,143.2,461.37,146.55Z" transform="translate(-360.09 -61.61)"/><path class="cls-1" d="M481.81,130.37c1.56-1.59,2-4.14,5-5.51-1.35,3.17-2.58,5.57-4.85,7.35Z" transform="translate(-360.09 -61.61)"/><path class="cls-1" d="M478,113.42h1c-.2,2,.54,4.14-.87,6.82C476.83,117.43,476.6,115.45,478,113.42Z" transform="translate(-360.09 -61.61)"/><path class="cls-1" d="M438.66,137.25a7.09,7.09,0,0,0,.12.91l-7.64-1.73a3.4,3.4,0,0,1,0-.9C433.79,135.35,436.4,135.53,438.66,137.25Z" transform="translate(-360.09 -61.61)"/><path class="cls-1" d="M461.15,146.46c2.45.15,4,.68,5.48,2.41C463.85,149.84,462.61,148.18,461.15,146.46Z" transform="translate(-360.09 -61.61)"/><path class="cls-1" d="M450.06,141c1.56,0,3,.29,3.73,1.9h0c-1.5-.13-3.38.57-3.84-1.8Z" transform="translate(-360.09 -61.61)"/><path class="cls-1" d="M472.68,154.86c.93-.43,1.55-1.93,2.92-.83.15,2.74-1.7,1.57-3,1.52A1.6,1.6,0,0,1,472.68,154.86Z" transform="translate(-360.09 -61.61)"/><path class="cls-1" d="M470.09,151.15l-1.2.1c-.44-.38-1-1.06-.44-1.37C469.67,149.18,469.72,150.48,470.09,151.15Z" transform="translate(-360.09 -61.61)"/><path class="cls-1" d="M462.23,242.67a29.36,29.36,0,0,1,3.44-3c2.69-1.72,1-3.43.34-5.36-1.12-3.06-2.29.35-3.46-.15a5.86,5.86,0,0,0-2.28,0h0c-2.15-3-4.64-3.38-7.75-1.35-2.61,1.7-2.41,1.48-3.27-1.45-.55-1.84-1.93-3.46-2.25-5.48,9.41,1.78,18.24,5.5,27.39,8.15l0,0c.6,3.09,3.08,1.31,4.69,1.81.36,2.53,2.38,1.7,3.88,1.92-.59,2.61,2.28,3,3,4.78,0,.31-.07.62-.11.93-1.06,4.68-5.61,3.94-8.64,5.57-5.22.42-10.51-.51-15.71,1-1.56.44-4.22.71-3-2.66,1.88,0,3.77.06,5.63-.11,2.2-.2,4-1,3.76-3.75a1.94,1.94,0,0,0,.92-1.89c.78,0,1.56,0,2.34,0,1,0,2-.08,2.17-1.28a1.83,1.83,0,0,0-1-2c-1.06-.6-1.74.14-2.42.77a3.39,3.39,0,0,0-1.1,2.5c-1.3.14-2.78-.41-3.76,1Z" transform="translate(-360.09 -61.61)"/><path class="cls-1" d="M468.28,203.06a3.89,3.89,0,0,1,2,2.76c-4.6.52-9.08-.07-13.66-.73-6.11-.89-12.4-.46-18.59-1a24.61,24.61,0,0,1-13-5.44c3.59-1.9,6.88,1.66,10.43.57l3.68.09,13.25.94,8.46.82,1.9,1C464.42,203.67,466.41,203,468.28,203.06Z" transform="translate(-360.09 -61.61)"/><path class="cls-1" d="M485.11,217.34c1,1.51,1.81,3.12,3.35,4.16a.58.58,0,0,1,0,.53c-1.85,1.6-.72,3.69-.88,5.55-.37,4.21,1.5,3.46,3.77,1.61a18.71,18.71,0,0,0,7.74-6.21c1.58-2.16,2.39-.34,3.51-.47-2.21,3.59-5.89,5.6-8.94,8.27-.91.8-2.69,1.21-2.47,2.47s1.88,1.86,3.13,2.44c4.27,2,9,1.82,13.48,2.83a4.12,4.12,0,0,1-4,2.8c-3.32-1.79-7.31-1.56-10.58-3.17-4.24-2.09-4.83-.18-4.69,3.33L486,242.59c-.75-1.76-3.62-2.17-3-4.78l.88-.09c4.92,1.08,2.71-2.74,2.6-4.31C486.09,228.05,484.19,222.82,485.11,217.34Z" transform="translate(-360.09 -61.61)"/><path class="cls-1" d="M474.38,234.06c-9.15-2.65-18-6.37-27.39-8.15-8.32-2.39-16.9-3.4-25.44-4.63l0-1A172.9,172.9,0,0,1,472.31,232C473.37,232.39,474.45,232.61,474.38,234.06Z" transform="translate(-360.09 -61.61)"/><path class="cls-1" d="M485.11,217.34c-.92,5.48,1,10.71,1.35,16.07.11,1.57,2.32,5.39-2.6,4.31.61-7.88-2.25-15-4.27-22.68,1.73-1.12,2.81,3.82,5.37,2Z" transform="translate(-360.09 -61.61)"/><path class="cls-1" d="M470.5,214.88c1,4,3.16,7.69,2.49,13C469.82,223.3,470.82,219,470.5,214.88Z" transform="translate(-360.09 -61.61)"/><path class="cls-1" d="M479.1,235.89c-1.61-.5-4.09,1.28-4.69-1.81C476.13,234.27,478.43,233,479.1,235.89Z" transform="translate(-360.09 -61.61)"/><path class="cls-1" d="M440.42,325.77l-1,0c1.78-2.78,4.35-.75,6.4-.77,4,0,5.26-.92,3.1-4.67a13.52,13.52,0,0,1-.85-2.47c.57-.06.76-.15.85-.09,2.71,1.9,1.71,6,3.86,7.61,1.85,1.38,5.35-.91,7.49,2.05,1.21,1.67,2,.19,2.62-1,.95-1.79-.17-3.66.27-5.7,2,1,1.37,3.79,3.62,4.41s3.13-1.32,4.47-2.52c.44,2.13.42,4.16.73,6.16.62,4.07,3.35,3.52,5.91,3.2,3.25-.4,2-3,1.83-4.79-.44-4.74.89-9.52-.28-14.39-2.28.36-.89,2.49-1.9,3.28-.82-3.94-4.08-5.11-10.21-3.06,2.64-2.81.43-6.94,4.18-8.69,4.88,3.79,11,5.53,15.78,9.47l1,.33a2.06,2.06,0,0,1,.11.65c-1.7,1.52-1.14,3.54-.88,5.28a78,78,0,0,1,.85,11.92c-1.2.07-2.56,0-2.61,1.69,0,.51.22,1.35.58,1.5,1.12.5,1.27-1,2.07-1.27,0,1.92.09,3.85.14,5.77-2.85,1.31-4.51-1.09-6.47-2.25-2.43-1.43-4.71-3-7.74-2.48h0c-2.1-2.08-4.81-2.5-7.58-2.78l0,0c-1-1.48-2.47-.89-3.81-.92h0c-6.11-3.72-13.17-3.49-19.86-4.78C442.41,325.62,441.39,325.8,440.42,325.77Zm41.75,5.55.95,0L483,317.55l-.95,0Z" transform="translate(-360.09 -61.61)"/><path class="cls-1" d="M487.29,313.76c-4.79-3.94-10.9-5.68-15.78-9.47,1.51-3.22,5.21-1.35,7.33-3.14,3-.5,4.73-3.18,7.25-4.52l.93.78a7.61,7.61,0,0,1,1.17,4.38q.13,5.67.28,11.34l-.08.13Z" transform="translate(-360.09 -61.61)"/><path class="cls-1" d="M486.09,296.63c-2.52,1.34-4.21,4-7.25,4.52a26.89,26.89,0,0,1,1.08-2.52c2.14-3.81,2.13-3.73-1.71-4.92-.78-.24-1.32-1.24-2.34-1.23-1.1-.25-2.74.7-3.18-.85-.35-1.18,1.33-1.41,2-2.16a19.16,19.16,0,0,1,2.07-1.73h1.89c1.72,2.27,4.19,3.45,6.68,4.58A5.1,5.1,0,0,1,486.09,296.63Z" transform="translate(-360.09 -61.61)"/><path class="cls-1" d="M449.51,299.61c1.65.29,3.79-.36,4.23,2.23l-4.21-.06C449.52,301.06,449.51,300.33,449.51,299.61Z" transform="translate(-360.09 -61.61)"/><path class="cls-1" d="M466.54,303.87c-.31-3,1.73-2.91,3.75-2.86C469.12,302.07,469.69,305.4,466.54,303.87Z" transform="translate(-360.09 -61.61)"/><path class="cls-1" d="M449.51,299.61c0,.72,0,1.45,0,2.17l-1.91-.06a1,1,0,0,0-1.43.11.94.94,0,0,1-.5,0c.32-1.08.63-2.17.95-3.26A4.2,4.2,0,0,1,449.51,299.61Z" transform="translate(-360.09 -61.61)"/><path class="cls-1" d="M446.19,301.83a1,1,0,0,1,1.43-.11Z" transform="translate(-360.09 -61.61)"/><path class="cls-1" d="M559.13,329.41v1l-1,.22-1,0-3.7-.09-17.92.12-3.77.06-9.42.08-2.74,0c.58-2.91,3-1.8,4.55-1.82C535.84,328.73,547.5,328.14,559.13,329.41Z" transform="translate(-360.09 -61.61)"/><path class="cls-1" d="M519.64,330.68l2.74,0a9.19,9.19,0,0,1,1,2.06c.32,1.43,2.84,3,.62,4.22-1.92,1.07-3.42-.74-4.35-2.44a20.28,20.28,0,0,1-1.11-3,7.38,7.38,0,0,1,0-.82Z" transform="translate(-360.09 -61.61)"/><path class="cls-1" d="M489.8,286.87c0,.5,0,1-.05,1.51-1.18.33-2.61.35-2.61,2.13l-1.77.21c-2.07-1.37-3.89-3.31-6.71-3h0c-.33-.93-1.09-1-1.9-.92h0c-2-3.19-5-4-8.52-3.7h0c-1.5-2.64-4.16-2.47-6.63-2.78h0c-.81-1.31-2.27-1.72-3.55-2.12-8.76-2.76-17.53-5.53-26.61-7.05-2.13-.36-4.41-2.25-6.58,0a5.82,5.82,0,0,0-1.83.09c-3,1.17-5.32,1.26-5.69-2.8a52.29,52.29,0,0,0-17.17-4.58l-2.8-.91a2,2,0,0,0-1.88-1c-.32-1.56-.65-3.13-1-4.69h1.86a1.49,1.49,0,0,0,1.84.75c.09,0,.15-.18.22-.28l-1.11-.48,0-1.88c4.85-.15,8.22-4.84,13.5-4.15,2.07.26,1.3-2.32,1.46-3.74l1-.1c.57,2,2.06,2.27,3.81,2.12,2.08,3.9,5.56,1.3,8.35,1.66,2.32.31,1.81-2,2-3.44a.9.9,0,0,1,.87,0c.09.64.32,1.38,1,1.29.38,0,.65-.85,1-1.32l1.83,0c.24,1.5-.42,3.81,2.23,3.43,2.4-.34.54-2.08.66-3.19,7.32,1.82,13.91,7,22.1,4.85,3.75.39,7.82-.57,10.74,3.07,1.06,1.32,2.89.77,4.43.55a23.49,23.49,0,0,1,12.82,9.41,62.72,62.72,0,0,1,2,16.13c.41,1.65-1.14,4.09,1.89,4.67A4.64,4.64,0,0,1,489.8,286.87Z" transform="translate(-360.09 -61.61)"/><path class="cls-1" d="M424.88,271.23c2.17-2.28,4.45-.39,6.58,0,9.08,1.52,17.85,4.29,26.61,7.05,1.28.4,2.74.81,3.55,2.12-6.94-.16-13-3.58-19.62-5.19C436.31,273.79,430.58,272.56,424.88,271.23Z" transform="translate(-360.09 -61.61)"/><path class="cls-1" d="M400.19,263.94a52.29,52.29,0,0,1,17.17,4.58l-5.78,0C408.39,265.45,403.23,267.34,400.19,263.94Z" transform="translate(-360.09 -61.61)"/><path class="cls-1" d="M468.23,283.13c3.52-.31,6.54.51,8.52,3.7C473.65,286.2,470.66,285.31,468.23,283.13Z" transform="translate(-360.09 -61.61)"/><path class="cls-1" d="M461.61,280.36c2.47.31,5.13.14,6.63,2.78C465.71,283,462.71,283.93,461.61,280.36Z" transform="translate(-360.09 -61.61)"/><path class="cls-1" d="M465.68,296.7c1.09-1.62,2.43-1.82,4.43-1.84C468.91,296.73,467.83,297.52,465.68,296.7Z" transform="translate(-360.09 -61.61)"/><path class="cls-1" d="M476.74,286.82c.81-.05,1.57,0,1.9.92h-1.87A5.66,5.66,0,0,1,476.74,286.82Z" transform="translate(-360.09 -61.61)"/><path class="cls-1" d="M440.42,325.77c1,0,2-.15,2.75.69-.52.72-.19,1.08.54,1.22L463,331.24h0c1,1.49,2.47.9,3.81.92l0,0c1.92,2.6,4.74,2.71,7.58,2.78h0c2.73,3.09,6.77,4.13,10.09,6.32a4.26,4.26,0,0,1,2.19,4.6c-4.65,4.67-10,7.79-16.82,7.81-.18-.81.32-2.22-1-2.13s-.72,1.44-.86,2.28l-1,.34a.59.59,0,0,0-.83-.07l-2,0-.91-.07.08-.35c-.25-1-.47-2.53-1.48-2.58s-1.14,1.52-1.58,2.42l-1.22-.22c-2,.51-1-1.71-2.08-2.5-2.39-1.72-2.31-2.59-4.2-.9s-5.6-.18-6.47,3.31c-5.89-1.37-12-2.14-17.26-5.42,2.43-4.34-2.32-3.58-3.71-4.48-2.28-1.49-6.58-.36-4.34-5.74.69-1.67-2.41-.76-3.74-1.09-.86-.21-2.06.33-2.53-.67-.7-1.5,1.83-1,1.56-2.76-3.88.14-7-.76-8-5.63-.55-2.79-.16-3.34,2.36-3.2,8.06.43,16.16.52,24.1,2.2C436.69,326.75,438.67,327.48,440.42,325.77Z" transform="translate(-360.09 -61.61)"/><path class="cls-1" d="M486.93,367.72c.76.21,1.75.45,1.73,1.31-.08,6.19,1,12.42-.61,18.55-2-3-.78-6.27-1-9.41C486.83,374.7,487,371.2,486.93,367.72Z" transform="translate(-360.09 -61.61)"/><path class="cls-1" d="M485.21,390.4c-1.22,0-1.92-.56-1.89-1.85C484.57,388.53,485.23,389.12,485.21,390.4Z" transform="translate(-360.09 -61.61)"/><path class="cls-1" d="M490.23,118.87c.3-2.52.63-5,3.77-5.65l.1.1a11,11,0,0,1-3.68,5.73Z" transform="translate(-360.09 -61.61)"/><path class="cls-1" d="M511.79,90.55c0,2-.41,3.61-2.83,3.75h0c.27-1.74.6-3.44,2.76-3.82Z" transform="translate(-360.09 -61.61)"/><path class="cls-1" d="M509,94.3c-.1,1.12-.32,2.18-1.63,2.46a.63.63,0,0,1-.81-.79c.26-1.31,1.31-1.57,2.43-1.68Z" transform="translate(-360.09 -61.61)"/><path class="cls-1" d="M490.42,119.05c-.19.67-.22,1.48-1.24,1.4a.44.44,0,0,1-.29-.3c-.12-1,.67-1.09,1.34-1.28Z" transform="translate(-360.09 -61.61)"/><path class="cls-1" d="M495.83,110.37a1.86,1.86,0,0,1,1.82-2l.22.18a1.89,1.89,0,0,1-1.9,1.91Z" transform="translate(-360.09 -61.61)"/><path class="cls-1" d="M487.6,122.12l.5.6-.9.61c-.1-.26-.32-.55-.26-.76S487.36,122.27,487.6,122.12Z" transform="translate(-360.09 -61.61)"/><path class="cls-1" d="M497.65,108.42l.94-1.91.23.22-.95,1.87Z" transform="translate(-360.09 -61.61)"/><path class="cls-1" d="M498.59,106.51l.54-.32c-.1.18-.21.36-.32.54Z" transform="translate(-360.09 -61.61)"/><path class="cls-1" d="M496,110.51l-.48.35c.12-.16.23-.32.34-.49Z" transform="translate(-360.09 -61.61)"/><path class="cls-1" d="M494,113.22l.46-.38-.36.48Z" transform="translate(-360.09 -61.61)"/><path class="cls-1" d="M485.07,265.88a23.49,23.49,0,0,0-12.82-9.41c-1.29-2.22-4.48-2-5.87-4.57,3.51-1.73,7.86.1,10.87-2.81,3-1.63,7.58-.89,8.64-5.57,1.11.43,1,1.45,1.13,2.35,1,5.73.65,11.55,1,17.32a5,5,0,0,0-.22,3.32Z" transform="translate(-360.09 -61.61)"/><path class="cls-1" d="M462.23,242.67l2.82,0c.69,1.09,1.8.89,2.84.91.24,2.74-1.56,3.55-3.76,3.75-1.86.17-3.75.08-5.63.11l-.95-.94c0-.31,0-.63,0-.94C459.66,245.49,462,245.79,462.23,242.67Z" transform="translate(-360.09 -61.61)"/><path class="cls-1" d="M460.27,234.2c-.09,1.11-.31,2.16-1.61,2.44a.64.64,0,0,1-.81-.79c.25-1.31,1.3-1.55,2.41-1.66Z" transform="translate(-360.09 -61.61)"/><path class="cls-1" d="M457.54,245.53c0,.31,0,.63,0,.94-.85-.25-2.58.52-2.24-1.1C455.55,244.22,456.76,245.42,457.54,245.53Z" transform="translate(-360.09 -61.61)"/><path class="cls-1" d="M467.25,166.17c5.67,3.16,9.08,8.18,11.47,14a11.14,11.14,0,0,1,.13,6.37c-.41,1.19,2.5,2.06.31,3.49-1.86,1.22-2.86-.45-4.17-1.07-5.9-2.8-11.56-6.16-18.05-7.54l0,0-4.8-2.55c1.77-3.11.06-6.08-1-9.42,2.94.76,2.51,3.09,3.4,4.53.63,1,.93,2.64,2.53,2.3,1.79-.38,1.49-2,1.64-3.42s-2.08-3.7-.07-4c2.66-.37,1.66,2.64,2,4.29a52.24,52.24,0,0,1,.95,5.95c.19,2.3,1.72,2.21,3.34,2.2,2.19,0,1.9-1.16,1.58-2.79C465.77,174.42,464.73,170.17,467.25,166.17Z" transform="translate(-360.09 -61.61)"/><path class="cls-1" d="M424.87,174.19a111.85,111.85,0,0,0-23.55-4.57c0-.29-.05-.59-.07-.88a113.76,113.76,0,0,1,30.22,5.44c0,.24.07.48.1.72l-3.82.06C427,174.08,425.88,174.25,424.87,174.19Z" transform="translate(-360.09 -61.61)"/><path class="cls-1" d="M431.57,174.9c0-.24-.06-.48-.1-.72,7.17.42,13.89,2.77,20.7,4.74l4.8,2.55a12.57,12.57,0,0,1-5.8-1c-3.51-1.47-7.11-2.84-11-2.87C437.57,175.8,434.33,176.11,431.57,174.9Z" transform="translate(-360.09 -61.61)"/><path class="cls-1" d="M393.71,167.9c-3.15-.36-6.44,1-9.45-.84l0-.94C387.5,166.35,390.72,166.52,393.71,167.9Z" transform="translate(-360.09 -61.61)"/><path class="cls-1" d="M401.25,168.74c0,.29,0,.59.07.88a12.77,12.77,0,0,1-7.62-1.72C396.21,168.25,398.91,166.9,401.25,168.74Z" transform="translate(-360.09 -61.61)"/><path class="cls-1" d="M384.29,166.12l0,.94c-1.75-1.2-6,2.68-5.64-2.8C380.7,164.31,382,166.65,384.29,166.12Z" transform="translate(-360.09 -61.61)"/><path class="cls-1" d="M449.67,167.64c.11-.26.16-.66.35-.74s.51.18.77.29c-.12.26-.17.67-.36.74S449.93,167.75,449.67,167.64Z" transform="translate(-360.09 -61.61)"/><path class="cls-1" d="M384.08,156.36a1.86,1.86,0,0,1,2-.51C385.75,157.35,385.21,158,384.08,156.36Z" transform="translate(-360.09 -61.61)"/><path class="cls-1" d="M440.15,177.6c3.91,0,7.51,1.4,11,2.87a12.57,12.57,0,0,0,5.8,1l0,0c1,2.28,3.3,2.57,5.3,3.43,6.23,2.68,12.7,5,17.71,9.86-1.77,3.92-4.64,6.29-9.06,6.64a2.75,2.75,0,0,0-2.6,1.68c-1.88,0-3.87.61-5.49-.94-.36-2.39,3.05-1.18,3.21-3.78l-5.12,0c-.65-3.41,3.6-3.43,4.36-6.38-3-.46-4.89,3-7.72,2-.18-1.78,1.36-2,2.22-2.76a2.56,2.56,0,0,0,.84-2.94c-.64-1.68-1.8-.37-2.74-.39a6.7,6.7,0,0,0-5.66,2.65,8.29,8.29,0,0,1-5.48,3.23h0a5.25,5.25,0,0,1,.21-.91c.54-1.38,2.92-1.65,2.31-3.7-.34-1.15-1.46-1.17-2.34-1-1.89.4-4.29.19-4.85,2.76-.45,2.08-1.25,3.21-3.5,2.18-.91-.42-2.53.31-2.67-1.25-.13-1.38,1.25-1.52,2.27-1.9,3.17-1.2,4.62-4.53,7.49-6.16.82-.46,1.14-2.16.13-2.24-2-.16-4.64-1.65-6,.16-3.14,4.23-5.41,3.43-7.78-.49-1.11-1.84-2.79-3.27-4.9-3.19-3.64.14-2.63-1.94-2.22-3.88,1,.06,2.08-.11,2.88.77C430.8,178.92,435.41,179.9,440.15,177.6Z" transform="translate(-360.09 -61.61)"/><path class="cls-1" d="M439.19,199.36l-3.68-.09c-.13-1.52.22-3.31,1.82-3.25,3.41.14,6.11-2.17,9.38-2.22h0c-.36,2.33-2.19,2.7-4,2.82S439.42,197.25,439.19,199.36Z" transform="translate(-360.09 -61.61)"/><path class="cls-1" d="M426.81,181.72c.12-.68.09-1.48,1.12-1.43a.46.46,0,0,1,.3.29c.07,1-.73,1-1.41,1.15Z" transform="translate(-360.09 -61.61)"/><path class="cls-1" d="M426.82,181.73l-.22.39.21-.4Z" transform="translate(-360.09 -61.61)"/><path class="cls-1" d="M512.44,271.42c-6.68.69-12.14,4-17.33,7.94-1.1.82-2.22,2.36-3.59,1.75s-.58-2.49-.76-3.8c-.63-4.73-1.22-9.48-1.83-14.21,0-1.83,0-3.65-.05-5.47l1.72-1.54c3-5.44,6.52-10.37,12.5-12.92,5,1.34,9.8-.84,14.72-1-.71,6.31-2.26,12.54-2.2,19.3,2.51-1.79.31-4.66,2.32-6.13l1,.93a45.61,45.61,0,0,1-.14,6.52c-.35,2.11.81,1.94,2.09,1.95v1.84c-1.88-.06-3.7,3.6-5.63.09.85-.76,1.46-1.75.09-2.32-.92-.38-.89.8-1,1.47l0,5.59h-.79c-.36-.68-.71-.91-1.06,0Z" transform="translate(-360.09 -61.61)"/><path class="cls-1" d="M537.85,234.25c2.6,1.36,5.9-.51,8.3,1.78-.06,3.75-4.25,4.38-5.63,4.36a20.36,20.36,0,0,0-9.66,2.25c-.65.31-1.77-.36-2.68-.57l-2.81,1c-3.1.36-4.42,2.87-5.94,5.52-1.16-2.82,1.48-4.35,1.2-6.51.34-2.3,2.19-1.56,3.59-1.85,2.71-.56,5.52-.91,7.71-2.89C534.43,237.32,535.34,234.23,537.85,234.25Z" transform="translate(-360.09 -61.61)"/><path class="cls-1" d="M520.63,242.05c.28,2.16-2.36,3.69-1.2,6.51,1.52-2.65,2.84-5.16,5.94-5.52-.56,3.13-.93,6.32-1.74,9.38-.64,2.42-1.86,2.9-2.89.07-.17-1,.33-2.46-1.24-2.4-1.19,0-1.53,1.28-1.58,2.41,0,.95,0,1.9,0,2.85-2,1.47.19,4.34-2.32,6.13-.06-6.76,1.49-13,2.2-19.3Z" transform="translate(-360.09 -61.61)"/><path class="cls-1" d="M515.22,266.68c1.93,3.51,3.75-.15,5.63-.09,1.19,0,1.92.51,1.8,1.83l-4.59,1.08a1.8,1.8,0,0,0-.93,1.84l-2.86.08,0-5.6Z" transform="translate(-360.09 -61.61)"/><path class="cls-1" d="M520.85,264.75c-1.28,0-2.44.16-2.09-1.95a45.61,45.61,0,0,0,.14-6.52C523.26,258.25,521.61,261.6,520.85,264.75Z" transform="translate(-360.09 -61.61)"/><path class="cls-1" d="M535.88,261.79c3.39-3.45,8.09-2.78,12.23-3.87,0,.31,0,.63,0,.95C544.14,260.16,540.25,262,535.88,261.79Z" transform="translate(-360.09 -61.61)"/><path class="cls-1" d="M531.2,262.73a7.52,7.52,0,0,1,4.71-1c-1.4,1.89-3.5,1.92-5.56,2.06l-.22-.26Z" transform="translate(-360.09 -61.61)"/><path class="cls-1" d="M517.92,252.5c.05-1.13.39-2.36,1.58-2.41,1.57-.06,1.07,1.45,1.24,2.4Z" transform="translate(-360.09 -61.61)"/><path class="cls-1" d="M528.49,264.79c-1.17,1.13-2.62,1.33-5.09,1.4,1.76-1.95,3.48-1.37,4.9-1.62Z" transform="translate(-360.09 -61.61)"/><path class="cls-1" d="M548.15,258.87c0-.32,0-.64,0-.95a7.63,7.63,0,0,1,4.81-1A5.88,5.88,0,0,1,548.15,258.87Z" transform="translate(-360.09 -61.61)"/><path class="cls-1" d="M530.35,263.84l-1.86,1-.19-.22,1.83-1Z" transform="translate(-360.09 -61.61)"/><path class="cls-1" d="M546.52,394.58c-5.49.68-10.61-2-16-1.76a102,102,0,0,0-35.81-3.26c-1.13-.66-.26-1.31,0-2l2.75-.31c10.39-1,20.39,1.57,30.47,3.36,3.69.66,7.33,1.53,11.12,1.23a4.22,4.22,0,0,0,.71,0,10.61,10.61,0,0,0,6.79,1.76Z" transform="translate(-360.09 -61.61)"/><path class="cls-1" d="M494.66,387.59c-.26.66-1.13,1.31,0,2-.2,1.76-1.52,1.7-2.79,1.73,0-1,0-1.89,0-2.84,1.38-.59.26-2.74,1.56-3C494.48,385.28,494.48,386.7,494.66,387.59Z" transform="translate(-360.09 -61.61)"/><path class="cls-1" d="M494.66,387.59c-.18-.89-.18-2.31-1.27-2.11-1.3.23-.18,2.38-1.56,3,0-4-.07-8.07-.11-12.25,2.44,3.54,7.73,5.44,5.69,11.08Z" transform="translate(-360.09 -61.61)"/><path class="cls-1" d="M503.57,440.41c2.77.46,5,.57,5.4,4.08C506.63,444,504.8,443.2,503.57,440.41Z" transform="translate(-360.09 -61.61)"/><path class="cls-1" d="M513,444.81c0,.62.07,1.25.11,1.88-.86-.08-2.07-.08-2.1-1.07C511,444.31,512.3,445.07,513,444.81Z" transform="translate(-360.09 -61.61)"/><path class="cls-1" d="M526.3,455.05l1,.92Z" transform="translate(-360.09 -61.61)"/><path class="cls-1" d="M524.43,455.07h1C525.08,455.7,524.76,455.74,524.43,455.07Z" transform="translate(-360.09 -61.61)"/><path class="cls-1" d="M517.13,271.34a1.8,1.8,0,0,1,.93-1.84c3.25,3.54,7.73,5.2,11.69,7.65,1,.61,2.56.23,3.31,2.65C526.72,278,521.18,276.21,517.13,271.34Z" transform="translate(-360.09 -61.61)"/><path class="cls-1" d="M537.14,274.88c-1,2.43-2.14,2-3.58,1.39C534.42,274.4,535.88,275.27,537.14,274.88Z" transform="translate(-360.09 -61.61)"/><path class="cls-1" d="M512.42,271.43c.35-.91.7-.68,1.06,0Z" transform="translate(-360.09 -61.61)"/><path class="cls-1" d="M480,194.74c-5-4.89-11.48-7.18-17.71-9.86-2-.86-4.26-1.15-5.3-3.43,6.49,1.38,12.15,4.74,18.05,7.54,1.31.62,2.31,2.29,4.17,1.07,2.19-1.43-.72-2.3-.31-3.49a11.14,11.14,0,0,0-.13-6.37c2.31-.65,2.46,4.72,5.52,2l1,0c.3.31.61.61.92.92-2.72,2.31-1.06,3.6,1.27,3.72,4.91.23,9.67,2.21,14.67,1.15,2-.41,1.88,1.06,1.92,2.33a1.68,1.68,0,0,0-.26.78l-1.6,1.06c-1.71.9-1.69,3.33-3.59,4-3.23-5.69-9.09-4.5-14.16-5.39-2.19.15-1.64,1.82-1.6,3.07C482.92,197.69,481.15,195.24,480,194.74Z" transform="translate(-360.09 -61.61)"/><path class="cls-1" d="M527.29,142.18c.71-3.08,1.11-5,5-1.91,1.5,1.2,3.87,1.72,4.81,4.29.62-1.39,1-2.41,1.52-3.35.66-1.2,1.48-3,3-2.36s.11,2-.36,3.1c-1.34,3.06,3.61,2.17,3.08,4.79-3.2,1.45-7,1.67-9.39,4.78-2.19-.19-3.84,1.24-5.72,2C528.46,149.73,526.94,146.11,527.29,142.18Z" transform="translate(-360.09 -61.61)"/><path class="cls-1" d="M487,181.09c4.21-6,10.08-9.82,16.82-12.43l.26.27c-5.21,4.68-10.37,9.43-16.88,12.35Z" transform="translate(-360.09 -61.61)"/><path class="cls-1" d="M504,166c-2.06-3.63.81-7.08.39-10.68,2.85,3.47.09,7.15.44,10.7Z" transform="translate(-360.09 -61.61)"/><path class="cls-1" d="M521.76,158.24a9.28,9.28,0,0,1,7.37-4l.28.27c-1.8,2.76-4.74,3.18-7.62,3.73Z" transform="translate(-360.09 -61.61)"/><path class="cls-1" d="M504,166l.83,0c1.31,1.6,2.51-.46,3.77-.12l.07.07c-.49,2.59-2.65,2.62-4.59,3l-.26-.27C503.89,167.77,504,166.87,504,166Z" transform="translate(-360.09 -61.61)"/><path class="cls-1" d="M529.17,153.48c1.88-.72,3.53-2.15,5.72-2l0,.06c-1.22,2.14-3.32,2.65-5.52,3l-.28-.27A3.05,3.05,0,0,0,529.17,153.48Z" transform="translate(-360.09 -61.61)"/><path class="cls-1" d="M510.44,164.86c.43-2.07,2.12-2.44,3.8-2.81l.09.1c-.18,2.36-1.81,2.82-3.75,2.88Z" transform="translate(-360.09 -61.61)"/><path class="cls-1" d="M514.24,162.05c1-2,2.86-1.92,4.69-1.92l.07.07,0,1.86,0,0-4.66.11Z" transform="translate(-360.09 -61.61)"/><path class="cls-1" d="M486.15,183.07c-.31-.31-.62-.61-.92-.92a2,2,0,0,1,1.79-1.06l.2.19A2,2,0,0,1,486.15,183.07Z" transform="translate(-360.09 -61.61)"/><path class="cls-1" d="M519.89,159.21a2,2,0,0,1,1.87-1l0,0a1.82,1.82,0,0,1-1.88.95Z" transform="translate(-360.09 -61.61)"/><path class="cls-1" d="M508.62,165.88a2,2,0,0,1,1.82-1l.14.17a2,2,0,0,1-1.89.92Z" transform="translate(-360.09 -61.61)"/><path class="cls-1" d="M518.93,160.13l1-.92,0,0-.9,1Z" transform="translate(-360.09 -61.61)"/><path class="cls-1" d="M564.94,244.58c3.16.06,5.29,3.39,8.72,2.73a.9.9,0,0,1,1,1.17c-.26,1.24-.52,2.51-2,2.94-2.51.75-5,1.73-7.69,1.64C559.43,250.3,564.14,247.41,564.94,244.58Z" transform="translate(-360.09 -61.61)"/><path class="cls-1" d="M546.5,393.62a10.61,10.61,0,0,1-6.79-1.76c2.6-1.55,4.46-3.91,6.39-6.16.74-.87,1.38-2,2.59-1s1.91,2.22.61,3.64A9.09,9.09,0,0,0,546.5,393.62Z" transform="translate(-360.09 -61.61)"/><path class="cls-1" d="M531.25,374.9l.22-.39-.21.4Z" transform="translate(-360.09 -61.61)"/><path class="cls-1" d="M529.31,368.33l-.21.39.21-.39Z" transform="translate(-360.09 -61.61)"/><path class="cls-1" d="M537.85,234.25c-2.51,0-3.42,3.07-5.92,3.06L530,234.6c.47-1.95,1.44-3.42,3.67-3.41.8,0,1.61.33,1.76-.81.12-1-.65-1.21-1.36-1.6-3.88-2.14-8.44-2.11-12.38-3.75s-9.2-.46-11.6-5.36l.92-2h0l.94-1h0c2.48.21,4.05-1.34,5.63-2.87l0,0,3.73,0,1,1,.42.21-.4-.23-1-.95c1.65-2.94,4.65-3.23,7.49-3.82,1.69.62,3.29,1.71,6,1.13-1.47-1.25-3.31-1.3-3.18-3,1.26-1.24,3-1.48,4.55-2,2.62,2.35,6.67-.09,9.37,2.69-3.3.9-3.3.9-.91,4.3-2.92.44-5.09-2.38-8.08-1.55.89,2.63,3.3,2.89,5.14,3.74,1.42.65,2.55,1.16,2.1,3s-1.77,1.88-3.25,2.06c-2.87.34-5.38-2-8.36-1.05a16.67,16.67,0,0,0,8.46,2.95c3.23.13,6.21,1,8.23,3.86-2.22,3.09-5.06,5.24-8.93,5.61C538.24,231.83,537.35,232.39,537.85,234.25Zm-8.55-16.11c-.45-1.26-1.07-2.06-2.27-2-.21,0-.65.71-.57.92C526.9,218.08,527.68,218.67,529.3,218.14Z" transform="translate(-360.09 -61.61)"/><path class="cls-1" d="M540.75,180.59l-4.14,11.18c2.76.23,2.83-1.79,3.44-3.21a1.84,1.84,0,0,1,2.7-1c1.1.5,1,1.55.26,2.3-2,1.92-.69,4.26-1.44,6.33a1.6,1.6,0,0,0,1.88-.94c.76-1.29-.11-4.35,2.4-3.55,1.69.53-.07,2.75-.41,4.13a15.88,15.88,0,0,0-.68,4.58,15.28,15.28,0,0,0-7.62,3.88c-.26,0-.52,0-.77,0l-1.92.06c-.83-2.54,3-4.18,1.37-6.92-2.41,2.82-2.53,3.11-3.26,7.83-1.21,1.55-3,.83-4.53,1.19-.7-3.67-2.68-5.16-6.42-3.93a8.09,8.09,0,0,1-2.26,0c.6-2.08-1.85-2.9-1.93-4.7,3.08-.69,4.39-2.53,3.72-5.67a5.17,5.17,0,0,0,1.85-3.8c1.34-.16,2.58-.1,3.87-1.05C531.05,184.27,535.94,182.48,540.75,180.59Zm-5,14.56.78.33c.11-.26.37-.58.29-.77s-.48-.24-.74-.35Zm-8.27,1.46c-.26-.11-.58-.36-.77-.29s-.23.48-.34.74c.26.11.57.36.76.29S527.32,196.87,527.43,196.61Z" transform="translate(-360.09 -61.61)"/><path class="cls-1" d="M540.75,180.59c-4.81,1.89-9.7,3.68-13.89,6.76-1.29,1-2.53.89-3.87,1.05-3.15.57-6.23,1.5-9.32,2.17s-6.51,3.49-9.93.48a1.82,1.82,0,0,1,.27-.78c11.39-7.77,24.15-11.41,37.76-12.46v1A1.93,1.93,0,0,0,540.75,180.59Z" transform="translate(-360.09 -61.61)"/><path class="cls-1" d="M534.45,204.35l1.92-.06c-.06.6-.11,1.2-.17,1.79-1.57.55-3.29.79-4.55,2a3.06,3.06,0,0,0-2.84,1.9c-2.84.59-5.84.88-7.49,3.82l0,0-3.73,0c.3-1.56,2.11-1.64,2.78-2.84a2,2,0,0,0,1.91-.91c2-1,5.09-.5,5.77-3.68,1.52-.36,3.32.36,4.53-1.19A2,2,0,0,0,534.45,204.35Z" transform="translate(-360.09 -61.61)"/><path class="cls-1" d="M537.14,204.3a15.28,15.28,0,0,1,7.62-3.88c.43.19,1.65.36.9.83C543.07,202.83,540.49,204.75,537.14,204.3Z" transform="translate(-360.09 -61.61)"/><path class="cls-1" d="M554.17,197.54a9,9,0,0,1,5.63-1.93c0,.94,0,1.87,0,2.8Z" transform="translate(-360.09 -61.61)"/><path class="cls-1" d="M548.88,196.73c.57.14,1.1.26.75.83a1.58,1.58,0,0,1-1,.63c-.48.05-.87-.34-.62-.83C548.16,197.05,548.63,196.9,548.88,196.73Z" transform="translate(-360.09 -61.61)"/><path class="cls-1" d="M541.76,178.81c0-.33,0-.66,0-1l1.18-1.07a2.32,2.32,0,0,1,.69.07C543.61,178,543.06,178.77,541.76,178.81Z" transform="translate(-360.09 -61.61)"/><path class="cls-1" d="M534.89,151.52c2.36-3.11,6.19-3.33,9.39-4.78a6.71,6.71,0,0,1,3.78-1l-1.9,1.86c-4,.5-6.8,4.56-11.23,4Z" transform="translate(-360.09 -61.61)"/><path class="cls-1" d="M536.63,132.69c-1.38,1.44-3,1-4.64,0l4.63,0Z" transform="translate(-360.09 -61.61)"/><path class="cls-1" d="M549.93,144.81a1.91,1.91,0,0,1-1.88,1A2,2,0,0,1,549.93,144.81Z" transform="translate(-360.09 -61.61)"/><path class="cls-1" d="M551.8,144.79l-1.88,0a2,2,0,0,1,1.88-.95v.92Z" transform="translate(-360.09 -61.61)"/><path class="cls-1" d="M442.79,397.45l-1.81-1-.37-.21.38.2c-3.26.42-9.93-2.61-10.23-5.32-.4-3.73-2.73-2.93-4.9-3l-.05,0c-1.2-2.56.51-3.76,2.8-4.67-2.21-1.55-3.33,0-4.65.57a10.64,10.64,0,0,1-2.46,1.14c-.88.11-1.64-1.18-1.12-1.5,2.93-1.82-5.64-7.17,1.49-6.5,10.31,1,20.85.59,30.91,3.74.13.05.23.21.34.32a8,8,0,0,1-.43.82c-1.1,1.57-3.7,3.16-1.79,5.09,1.55,1.55,2.43-1.82,4.13-1.95A9.27,9.27,0,0,0,456,385h0C452.85,390.51,447.66,393.82,442.79,397.45Zm-6.13-8.9a1.71,1.71,0,0,0-2.1.75c-.5.63-1.61,1.31-.1,2.18C435.71,390.9,436.88,390.29,436.66,388.55Z" transform="translate(-360.09 -61.61)"/><path class="cls-1" d="M463.43,382.21l1.95.94c-4.23,5.87-10.28,9.64-15.86,14C452.36,390.42,459.81,388.14,463.43,382.21Z" transform="translate(-360.09 -61.61)"/><path class="cls-1" d="M456,385l.23-.4L456,385Z" transform="translate(-360.09 -61.61)"/><path class="cls-1" d="M518.56,331.56a20.28,20.28,0,0,0,1.11,3c.93,1.7,2.43,3.51,4.35,2.44,2.22-1.25-.3-2.79-.62-4.22a9.19,9.19,0,0,0-1-2.06l9.42-.08c3,2.2,2.52,7.13,6.67,8.39h0c.9,4.18,4.66,6.8,5.89,10.79-5.43,1.16-10.65,3.42-16.49,2.47.18,2.93,2.92.92,3.46,2.88a4.07,4.07,0,0,1-5.81-1.34c-1.55-2.29-2.08-.75-2.9.4-2.14-.51-4.87-.56-2.45-4,.82-1.17,1-3-.19-3.9-1.67-1.26-2.23,1-3.37,1.6-.91.44-.41,3.17-2.32,1.71-1.24-1-1.14-2.06.67-3.18,2.53-1.56,2.14-3.66.07-5.82-1.59-1.68-5.52-3.78-3.95-5.33,2.26-2.23,3.72,2,5.65,3.22a6.55,6.55,0,0,0,1.74.39c-.74-2.59-3.55-4.49-1.74-7.24Z" transform="translate(-360.09 -61.61)"/><path class="cls-1" d="M488.38,331.94a78,78,0,0,0-.85-11.92c-.26-1.74-.82-3.76.88-5.28,1.3,8.29,1.93,16.58.15,24.88-.05-1.91-.1-3.84-.14-5.76C488.4,333.22,488.39,332.58,488.38,331.94Z" transform="translate(-360.09 -61.61)"/><path class="cls-1" d="M488.47,313.13q-.15-5.67-.28-11.34A16.16,16.16,0,0,1,488.47,313.13Z" transform="translate(-360.09 -61.61)"/><path class="cls-1" d="M485.37,290.72l1.77-.21-.12,6.9-.93-.78a5.1,5.1,0,0,0-.75-4.3Z" transform="translate(-360.09 -61.61)"/><path class="cls-1" d="M487.29,313.76l1.1-.5a4.58,4.58,0,0,1-.09.83Z" transform="translate(-360.09 -61.61)"/><path class="cls-1" d="M542.84,412.33c0,.63,0,1.33-.73,1.48-.89.2-.92-.6-1-1.18s0-1.32.71-1.48C542.71,411,542.68,411.77,542.84,412.33Z" transform="translate(-360.09 -61.61)"/><path class="cls-1" d="M535.39,396.56c.51.24,1.09.34,1.2.62.27.69-.24,1.1-.88,1.07a1.2,1.2,0,0,1-.92-.67C534.71,397.35,535.14,397,535.39,396.56Z" transform="translate(-360.09 -61.61)"/><path class="cls-1" d="M510.65,344.25l.33-.78c.26.11.66.16.74.35s-.18.5-.29.76Z" transform="translate(-360.09 -61.61)"/><path class="cls-1" d="M506.18,336.84c.26.11.67.16.74.35s-.18.51-.29.77c-.26-.11-.66-.16-.74-.35S506.07,337.1,506.18,336.84Z" transform="translate(-360.09 -61.61)"/><path class="cls-1" d="M425.86,388.12l-.42.37.37-.41Z" transform="translate(-360.09 -61.61)"/><path class="cls-1" d="M562.06,128.77c1.94-.1,3.94-.59,5.67.81C565.84,129.34,563.76,130.35,562.06,128.77Z" transform="translate(-360.09 -61.61)"/><path class="cls-1" d="M569.2,130.75l.64-.13c.43.79,1,1.74-.21,2.19a2,2,0,0,1-1.84-.77C567.49,131.11,568.61,131.08,569.2,130.75Z" transform="translate(-360.09 -61.61)"/><path class="cls-1" d="M473.36,433.85c-.67,1.07-1.75.92-2.77.91C471.26,433.68,472.35,433.9,473.36,433.85Z" transform="translate(-360.09 -61.61)"/><path class="cls-1" d="M562.48,389.7l.22-.39-.21.4Z" transform="translate(-360.09 -61.61)"/><path class="cls-1" d="M419.9,146c3.75-.79,6.26,4,10.29,2.25.63-.27.92.69.95,1.31a1.7,1.7,0,0,1-1.56,2c-1.33.22-2.86-.36-3.92,1l-8.56-3.62A2.65,2.65,0,0,1,419.9,146Z" transform="translate(-360.09 -61.61)"/><path class="cls-1" d="M422.61,136c-.7,2-1.39,3-3.33,3C419.2,136.94,420.62,136.6,422.61,136Z" transform="translate(-360.09 -61.61)"/><path class="cls-1" d="M535.57,330.58l17.92-.13a2.38,2.38,0,0,0,3.7.1l1,0c.42,1.59-1,4,2,4.48l1,1.86c-.38,2.28,3,6.81-3.65,5.39-1.47-.32.2,1.53.92,2.2a2,2,0,0,1-.94,1.91c-1.59-.55-3.23-1-4.77-1.68-1.19-.53-1.29-3.21-2.91-2.39-1.94,1,.34,2.69.13,4.14a18.72,18.72,0,0,0,0,2.8l-2.83,0-.94-.89c-2.2-3.42-3.07-7.91-7.63-9.41h0C538.37,335.92,535.52,333.75,535.57,330.58Z" transform="translate(-360.09 -61.61)"/><path class="cls-1" d="M558.34,344.52c-.72-.67-2.39-2.52-.92-2.2,6.69,1.42,3.27-3.11,3.65-5.39,5.57-.27.76-3.92,1.83-5.65.32,0,.63,0,.94,0,5.83,0,6.85,1.2,5,7.55-.64,2.22,0,3.43,1.14,4.9-1.27,1.18-2.35.63-3.4,0-.64-.39-1.76-1.24-2-.62C563.27,347.24,560.54,344.57,558.34,344.52Z" transform="translate(-360.09 -61.61)"/><path class="cls-1" d="M549.87,349.3a18.72,18.72,0,0,1,0-2.8c.21-1.45-2.07-3.17-.13-4.14,1.62-.82,1.72,1.86,2.91,2.39,1.54.69,3.18,1.13,4.77,1.68-.63,1.48-5.34-.07-2.8,3.77A7.77,7.77,0,0,1,549.87,349.3Z" transform="translate(-360.09 -61.61)"/><path class="cls-1" d="M562.9,331.28c-1.07,1.73,3.74,5.38-1.83,5.65l-1-1.86c.15-1.49-.65-3.46,1.86-3.8Z" transform="translate(-360.09 -61.61)"/><path class="cls-1" d="M572.78,331.38l4.43,5.1C573,336.63,572.25,334.4,572.78,331.38Z" transform="translate(-360.09 -61.61)"/><path class="cls-1" d="M562,331.27c-2.51.34-1.71,2.31-1.86,3.8-2.94-.5-1.53-2.89-2-4.48l1-.22C560.16,330.4,561.27,330.2,562,331.27Z" transform="translate(-360.09 -61.61)"/><path class="cls-1" d="M581.89,326.12l-.36,1.26-.45-.29.77-1Z" transform="translate(-360.09 -61.61)"/><path class="cls-1" d="M557.41,351.1l-.38-.22.39.22Z" transform="translate(-360.09 -61.61)"/><path class="cls-1" d="M534.93,151.58c4.43.61,7.2-3.45,11.23-4,3.23,3.21,7.5,3.6,12,4.07-2.3,4.54-6.14,3.4-10.09,2.88,2.1,4.35,6.45.8,8.39,3.72-.87,2.25-5.67,3.39-2.55,7.31-1.94,3.55-5.7,4.9-8.72,7.14-1.43,1.07-2.88,1.87-2.26,4l-1.17,1.07c-13.61,1.05-26.37,4.69-37.76,12.46,0-1.27.05-2.74-1.92-2.33-5,1.06-9.76-.92-14.67-1.15-2.33-.12-4-1.41-1.27-3.72a2,2,0,0,0,1.07-1.79c6.51-2.92,11.67-7.67,16.88-12.35,1.94-.36,4.1-.39,4.59-3a2,2,0,0,0,1.89-.92c1.94-.06,3.57-.52,3.75-2.88L519,162l.37.23-.39-.21,0-1.86.91-1a1.82,1.82,0,0,0,1.88-.95c2.88-.55,5.82-1,7.62-3.73C531.61,154.23,533.71,153.72,534.93,151.58Zm3.1,22.67a5.78,5.78,0,0,0-.6.93c0,.06.47.52.61.47.39-.14.93-.38,1-.71C539.27,174.34,538.72,174.26,538,174.25Z" transform="translate(-360.09 -61.61)"/><path class="cls-1" d="M560.64,159.86a2.1,2.1,0,0,1-1.95,1.92c-.65-.24-1.92-.21-1.4-1.23C558,159.22,559.49,160,560.64,159.86Z" transform="translate(-360.09 -61.61)"/><path class="cls-1" d="M494.12,437.44c-.24.49-.4,1.34-.73,1.41-1,.22-1-.73-1.16-1.42Z" transform="translate(-360.09 -61.61)"/><path class="cls-1" d="M394.53,257.37c.33,1.56.66,3.13,1,4.69l-.95,1c-.74.16-1.92.38-1.47,1.26,1.38,2.71-.87,3.32-2.28,4.46a14.19,14.19,0,0,1-7.56-6.56l.21-.4-.22.4a2,2,0,0,1-1.92-.94c.21-2,1.58-2.21,3-1.71a11.79,11.79,0,0,0,4.54.7l1.57.79.26-.57-1.85-.19c-.54-1-2.07-1.36-1.94-2.84,2.56,0,4.8-2.38,7.55-1l0,.06C394.52,256.78,394.52,257.07,394.53,257.37Z" transform="translate(-360.09 -61.61)"/><path class="cls-1" d="M394.56,263.05l.95-1a2,2,0,0,1,1.88,1C396.46,264.53,395.5,263.28,394.56,263.05Z" transform="translate(-360.09 -61.61)"/><path class="cls-1" d="M389.11,209.83c.26-.13.51-.35.75-.34s.46.26.69.4c-.24.13-.49.36-.73.35S389.36,210,389.11,209.83Z" transform="translate(-360.09 -61.61)"/><path class="cls-1" d="M399.28,205.65l.67.41c-.24.11-.48.33-.72.32s-.46-.24-.69-.37Z" transform="translate(-360.09 -61.61)"/><path class="cls-1" d="M546.1,348.44l.94.89C545.69,350.11,546.34,348.82,546.1,348.44Z" transform="translate(-360.09 -61.61)"/><path class="cls-1" d="M449.91,442.55a2.18,2.18,0,0,1-.92,2C449,443.74,449,443,449.91,442.55Z" transform="translate(-360.09 -61.61)"/><path class="cls-1" d="M447.57,442.25l.19.28-.43.24c0-.12-.08-.26,0-.35S447.47,442.3,447.57,442.25Z" transform="translate(-360.09 -61.61)"/><path class="cls-1" d="M435,248c-.12,1.11,1.74,2.85-.66,3.19-2.65.38-2-1.93-2.23-3.43A3.82,3.82,0,0,1,435,248Z" transform="translate(-360.09 -61.61)"/><path class="cls-1" d="M430.26,247.78c-.33.47-.6,1.28-1,1.32-.68.09-.91-.65-1-1.29Z" transform="translate(-360.09 -61.61)"/><path class="cls-1" d="M394.48,256.43c-2.75-1.36-5,1-7.55,1,.07-1.35.92-2.74-.21-4l25.56-5.81c-.16,1.42.61,4-1.46,3.74-5.28-.69-8.65,4-13.5,4.15C395.76,254,394.88,254.47,394.48,256.43Z" transform="translate(-360.09 -61.61)"/><path class="cls-1" d="M417.07,249.62c-1.75.15-3.24-.14-3.81-2.12l3.79.2C417.06,248.34,417.07,249,417.07,249.62Z" transform="translate(-360.09 -61.61)"/><path class="cls-1" d="M485.07,265.88l2.72.63q.51,7.71,1,15.41l-1.7.09A62.72,62.72,0,0,0,485.07,265.88Z" transform="translate(-360.09 -61.61)"/><path class="cls-1" d="M488.88,257.63c0,1.82,0,3.64.05,5.47a7,7,0,0,1-.92.09c-.34-5.77.05-11.59-1-17.32-.16-.9,0-1.92-1.13-2.35,0-.31.07-.62.11-.93l2.5-1.11q.12,7.05.23,14.09Z" transform="translate(-360.09 -61.61)"/><path class="cls-1" d="M487.09,282l1.7-.09c.07,1.59.13,3.18.19,4.77C486,286.1,487.5,283.66,487.09,282Z" transform="translate(-360.09 -61.61)"/><path class="cls-1" d="M578.85,198.5l-.45-.49.5.42Z" transform="translate(-360.09 -61.61)"/><path class="cls-1" d="M421.69,247.67l.39.42c-.07,0-.18,0-.22-.1a2.4,2.4,0,0,1-.17-.32Z" transform="translate(-360.09 -61.61)"/><polygon class="cls-1" points="212.99 142.36 213.19 141.97 213.36 142.14 212.99 142.36"/><path class="cls-1" d="M468.81,241.66a3.39,3.39,0,0,1,1.1-2.5c.68-.63,1.36-1.37,2.42-.77a1.83,1.83,0,0,1,1,2c-.2,1.2-1.22,1.24-2.17,1.28-.78,0-1.56,0-2.34,0Z" transform="translate(-360.09 -61.61)"/><path class="cls-1" d="M467.89,243.55c-1,0-2.15.18-2.84-.91,1-1.39,2.46-.84,3.76-1h0A1.94,1.94,0,0,1,467.89,243.55Z" transform="translate(-360.09 -61.61)"/><path class="cls-1" d="M520.35,211c-.67,1.2-2.48,1.28-2.78,2.84l0,0c-2.51-.29-4.55.35-5.63,2.87h0l-.94,1h0l-2.82,0c-2-3.49.05-7.62-2-12.55l.12,13.48c-.81,1.68-3.7,1.35-3.71,3.81h0c-1.12.13-1.93-1.69-3.51.47a18.71,18.71,0,0,1-7.74,6.21,7.34,7.34,0,0,1-2.89-7.16.58.58,0,0,0,0-.53c1.14-.61,1.11-1.59.85-2.65.33-8.68,5-15.61,9.25-22.69,1.9-.72,1.88-3.15,3.59-4,.55,2.6,2.69,6,4.5,4.42,3.1-2.69,7.13-.75,9.77-3.36a7.94,7.94,0,0,0,1,4.7c.08,1.8,2.53,2.62,1.93,4.7C516.35,205.35,516.72,208.48,520.35,211Z" transform="translate(-360.09 -61.61)"/><path class="cls-1" d="M498.56,196.16c-4.29,7.08-8.92,14-9.25,22.69-2.19-.3-2.33-2.08-2.83-3.73-2.42-8-2.09-16.17-2.08-24.35C489.47,191.66,495.33,190.47,498.56,196.16Z" transform="translate(-360.09 -61.61)"/><path class="cls-1" d="M439.19,199.36c.23-2.11,1.62-2.62,3.49-2.74s3.67-.49,4-2.82a8.29,8.29,0,0,0,5.48-3.23,6.7,6.7,0,0,1,5.66-2.65c.94,0,2.1-1.29,2.74.39a2.56,2.56,0,0,1-.84,2.94c-.86.78-2.4,1-2.22,2.76,2.83,1,4.74-2.47,7.72-2-.76,2.95-5,3-4.36,6.38-2.77.84-6.32-1.74-8.45,1.92Z" transform="translate(-360.09 -61.61)"/><path class="cls-1" d="M452.44,200.3c2.13-3.66,5.68-1.08,8.45-1.92,0,.92,0,1.83,0,2.74Z" transform="translate(-360.09 -61.61)"/><path class="cls-1" d="M460.9,201.12c0-.91,0-1.82,0-2.74l5.12,0c-.16,2.6-3.57,1.39-3.21,3.78Z" transform="translate(-360.09 -61.61)"/><path class="cls-1" d="M510.08,219.67c2.4,4.9,7.69,3.73,11.6,5.36s8.5,1.61,12.38,3.75c.71.39,1.48.62,1.36,1.6-.15,1.14-1,.82-1.76.81-2.23,0-3.2,1.46-3.67,3.41a70.12,70.12,0,0,1-22.23,3.92c-4.48-1-9.21-.83-13.48-2.83-1.25-.58-2.9-1.15-3.13-2.44s1.56-1.67,2.47-2.47c3.05-2.67,6.73-4.68,8.94-8.27h0C505.63,223,507.3,219.87,510.08,219.67Z" transform="translate(-360.09 -61.61)"/><path class="cls-1" d="M488.73,255.57q-.11-7-.23-14.09c-.14-3.51.45-5.42,4.69-3.33,3.27,1.61,7.26,1.38,10.58,3.17l-.67,1.85c-6,2.55-9.5,7.48-12.5,12.92Z" transform="translate(-360.09 -61.61)"/><path class="cls-1" d="M503.1,243.17l.67-1.85a4.12,4.12,0,0,0,4-2.8A70.12,70.12,0,0,0,530,234.6l1.94,2.71c-2.19,2-5,2.33-7.71,2.89-1.4.29-3.25-.45-3.59,1.85l-2.81.13C512.9,242.33,508.12,244.51,503.1,243.17Z" transform="translate(-360.09 -61.61)"/><path class="cls-1" d="M488.42,222a7.34,7.34,0,0,0,2.89,7.16c-2.27,1.85-4.14,2.6-3.77-1.61C487.7,225.72,486.57,223.63,488.42,222Z" transform="translate(-360.09 -61.61)"/><path class="cls-1" d="M463,331.24l-19.32-3.56c-.73-.14-1.06-.5-.54-1.22C449.86,327.75,456.92,327.52,463,331.24Z" transform="translate(-360.09 -61.61)"/><path class="cls-1" d="M482.17,331.32l-.12-13.73.95,0,.12,13.75Z" transform="translate(-360.09 -61.61)"/><path class="cls-1" d="M474.36,334.91c-2.84-.07-5.66-.18-7.58-2.78C469.55,332.41,472.26,332.83,474.36,334.91Z" transform="translate(-360.09 -61.61)"/><path class="cls-1" d="M488.38,331.94c0,.64,0,1.28,0,1.92-.8.28-.95,1.77-2.07,1.27-.36-.15-.59-1-.58-1.5C485.82,331.9,487.18,332,488.38,331.94Z" transform="translate(-360.09 -61.61)"/><path class="cls-1" d="M466.81,332.15c-1.34,0-2.83.57-3.81-.92C464.34,331.26,465.82,330.67,466.81,332.15Z" transform="translate(-360.09 -61.61)"/><path class="cls-1" d="M485.37,290.72l0,1.61c-2.49-1.13-5-2.31-6.68-4.58C481.48,287.41,483.3,289.35,485.37,290.72Z" transform="translate(-360.09 -61.61)"/><path class="cls-1" d="M535.57,330.58c-.05,3.17,2.8,5.34,2.9,8.45-4.15-1.26-3.7-6.19-6.67-8.39Z" transform="translate(-360.09 -61.61)"/><path class="cls-1" d="M557.19,330.55a2.38,2.38,0,0,1-3.7-.1Z" transform="translate(-360.09 -61.61)"/><path class="cls-1" d="M394.48,256.43c.4-2,1.28-2.48,2.84-.94,0,.63,0,1.26,0,1.88h-1.91l-.9-.88Z" transform="translate(-360.09 -61.61)"/><path class="cls-1" d="M396.39,257.38h.95l1.11.48c-.07.1-.13.25-.22.28A1.49,1.49,0,0,1,396.39,257.38Z" transform="translate(-360.09 -61.61)"/><path class="cls-1" d="M394.53,256.49l.9.88h-.9C394.52,257.07,394.52,256.78,394.53,256.49Z" transform="translate(-360.09 -61.61)"/><path class="cls-1" d="M463.29,353.6a4.15,4.15,0,0,1-3.06-.16c.44-.9.53-2.48,1.58-2.42S463,352.57,463.29,353.6Z" transform="translate(-360.09 -61.61)"/><path class="cls-1" d="M469.81,353.63l-1.88.15c.14-.84-.36-2.2.86-2.28S469.63,352.82,469.81,353.63Z" transform="translate(-360.09 -61.61)"/><path class="cls-1" d="M464.12,354a3.27,3.27,0,0,1-.66.24c-.06,0-.16-.2-.25-.31Z" transform="translate(-360.09 -61.61)"/><path class="cls-1" d="M466.93,354.12a2.72,2.72,0,0,1-.61.2c-.06,0-.15-.17-.22-.27A.59.59,0,0,1,466.93,354.12Z" transform="translate(-360.09 -61.61)"/><path class="cls-1" d="M440.15,177.6c-4.74,2.3-9.35,1.32-12.4-2.64l3.82-.06C434.33,176.11,437.57,175.8,440.15,177.6Z" transform="translate(-360.09 -61.61)"/><path class="cls-1" d="M515.22,266.68l-.92-.86c.12-.66.09-1.84,1-1.46C516.68,264.93,516.07,265.92,515.22,266.68Z" transform="translate(-360.09 -61.61)"/><path class="cls-1" d="M488.73,255.57l1.87.52-1.72,1.54Z" transform="translate(-360.09 -61.61)"/><path class="cls-1" d="M516.42,193.17c-2.64,2.61-6.67.67-9.77,3.36-1.81,1.57-3.95-1.82-4.5-4.42l1.6-1.06c3.41,3,6.77.2,9.92-.48s6.17-1.6,9.32-2.17a5.17,5.17,0,0,1-1.85,3.8c-1.28-3.86-2.5,1.18-3.77,0l-.93.94Z" transform="translate(-360.09 -61.61)"/><path class="cls-1" d="M510.08,219.67c-2.78.2-4.45,3.36-7.51,2.83,0-2.46,2.9-2.13,3.71-3.81a2.05,2.05,0,0,0,1.9-.93l2.82,0Z" transform="translate(-360.09 -61.61)"/><path class="cls-1" d="M528.81,210a3.06,3.06,0,0,1,2.84-1.9c-.13,1.73,1.71,1.78,3.18,3C532.1,211.72,530.5,210.63,528.81,210Z" transform="translate(-360.09 -61.61)"/><path class="cls-1" d="M511.92,216.77c1.08-2.52,3.12-3.16,5.63-2.87C516,215.43,514.4,217,511.92,216.77Z" transform="translate(-360.09 -61.61)"/><path class="cls-1" d="M529.3,218.14c-1.62.53-2.4-.06-2.84-1.12-.08-.21.36-.91.57-.92C528.23,216.08,528.85,216.88,529.3,218.14Z" transform="translate(-360.09 -61.61)"/><path class="cls-1" d="M522.29,214.78l.4.23-.42-.21Z" transform="translate(-360.09 -61.61)"/><path class="cls-1" d="M522.27,214.8l-1-1,0,0,1,.95Z" transform="translate(-360.09 -61.61)"/><path class="cls-1" d="M511,217.72l.94-1Z" transform="translate(-360.09 -61.61)"/><path class="cls-1" d="M528,206.45c-.68,3.18-3.73,2.64-5.77,3.68a26.93,26.93,0,0,0-2.91-7.56,8.09,8.09,0,0,0,2.26,0C525.35,201.29,527.33,202.78,528,206.45Z" transform="translate(-360.09 -61.61)"/><path class="cls-1" d="M517.37,192.22c1.27,1.16,2.49-3.88,3.77,0,.67,3.14-.64,5-3.72,5.67a7.94,7.94,0,0,1-1-4.7h0Z" transform="translate(-360.09 -61.61)"/><path class="cls-1" d="M534.45,204.35a2,2,0,0,1-1.89.91c.73-4.72.85-5,3.26-7.83C537.41,200.17,533.62,201.81,534.45,204.35Z" transform="translate(-360.09 -61.61)"/><path class="cls-1" d="M535.7,195.15l.33-.79c.26.11.67.16.74.35s-.18.51-.29.77Z" transform="translate(-360.09 -61.61)"/><path class="cls-1" d="M527.43,196.61c-.11.26-.16.66-.35.74s-.5-.18-.76-.29c.11-.26.16-.66.34-.74S527.17,196.5,527.43,196.61Z" transform="translate(-360.09 -61.61)"/><path class="cls-1" d="M519.35,202.57a26.93,26.93,0,0,1,2.91,7.56,2,2,0,0,1-1.91.91C516.72,208.48,516.35,205.35,519.35,202.57Z" transform="translate(-360.09 -61.61)"/><path class="cls-1" d="M436.66,388.55c.22,1.74-1,2.35-2.2,2.93-1.51-.87-.4-1.55.1-2.18A1.71,1.71,0,0,1,436.66,388.55Z" transform="translate(-360.09 -61.61)"/><path class="cls-1" d="M441,396.44l-.38-.2.37.21Z" transform="translate(-360.09 -61.61)"/><path class="cls-1" d="M538,174.25c.69,0,1.24.09,1,.69-.1.33-.64.57-1,.71-.14,0-.64-.41-.61-.47A5.78,5.78,0,0,1,538,174.25Z" transform="translate(-360.09 -61.61)"/><path class="cls-1" d="M519,162.06l.39.21L519,162Z" transform="translate(-360.09 -61.61)"/><path class="cls-1" d="M388.87,260.29l1.85.19-.26.57-1.57-.79Z" transform="translate(-360.09 -61.61)"/><path class="cls-1" d="M383.24,262.21l.22-.4-.21.4Z" transform="translate(-360.09 -61.61)"/><path class="cls-1" d="M508.18,217.76a2.05,2.05,0,0,1-1.9.93c0-4-.07-8.05-.12-13.48C508.23,210.14,506.18,214.27,508.18,217.76Z" transform="translate(-360.09 -61.61)"/><path class="cls-1" d="M517.37,192.22l-.93.94Z" transform="translate(-360.09 -61.61)"/></svg>