<svg id="Layer_1" data-name="Layer 1" xmlns="http://www.w3.org/2000/svg" viewBox="0 0 249.4 424.52"><defs><style>.cls-1{fill:#90c33e;}</style></defs><title>yew</title><path class="cls-1" d="M376.74,312.24l-7.57-4.89-2.69-2.18-5.12-5.94L360,296.56a24.3,24.3,0,0,1-1.16-11.06c.66-.42.43-1.65,1.52-1.67a22.68,22.68,0,0,0,6.07,5.1,8.5,8.5,0,0,0,3.41,2.52,22,22,0,0,0,7.7,4.49,5.47,5.47,0,0,0,3.47,1.57,38.79,38.79,0,0,0,9.45,3.39l3.32,1.25a44.22,44.22,0,0,0,9.55,3.29c.61.85,1.59.8,2.47,1l9.49,3.52,3.55,1.33a45.45,45.45,0,0,0,9.4,3.69l2.66,1.27,9.36,4,2.66,1.31,7.43,3.7,3.76,2.24,6.74,4.55,2.68,2.54,3.56,6.84c.47,4.49,3.78,5.35,7.53,6a42.49,42.49,0,0,0-.45-10.32c-.08-3.77-.17-7.54-.22-11.3,0-1.25-.54-1.8-1.81-1.55l-4.29-.81-7.49-2.78-3.53-1.88L449,313.68a5.72,5.72,0,0,0-2.66-2.22,20.78,20.78,0,0,0-6.61-4.59,8.72,8.72,0,0,0-3.7-2.38A31.41,31.41,0,0,0,428.4,300a4.25,4.25,0,0,0-2.61-1.59,29.31,29.31,0,0,0-7.41-4.43,9.39,9.39,0,0,0-3.8-2.35,36,36,0,0,0-7.65-4.6,4.23,4.23,0,0,0-2.58-1.63,27.31,27.31,0,0,0-6.67-4.26,8.88,8.88,0,0,0-3.73-2.45,28.17,28.17,0,0,0-6.51-4.46,9.93,9.93,0,0,0-3.69-2.65l-6.69-5.12L374.18,264l-6.78-6.3-1.4-1.57-5.27-7.74c-.32-.81-.65-1.61-1-2.41,0-.83-.11-1.67-.09-2.5.13-4.72.84-5.16,4.9-3.08l2.52,1.67a37.52,37.52,0,0,0,7.86,5,4.11,4.11,0,0,0,2.55,1.68,25,25,0,0,0,6.58,4.26,9.16,9.16,0,0,0,3.81,2.46,42.79,42.79,0,0,0,8.53,5.49l1.21.77a43.79,43.79,0,0,0,9.19,5.82,4.13,4.13,0,0,0,2.56,1.71,27.9,27.9,0,0,0,6.81,4.28l3.56,2.33,17.77,10.65a9.18,9.18,0,0,0,3.67,2.53l5.93,4.27a9,9,0,0,0,3.49,2.65l6.06,5a9.51,9.51,0,0,0,3.27,3l5.47,5.59,8.13,11.13V303.55c.49-7.59.49-7.59-5.65-9.32l-4-.7-8.71-3.37-3.53-2.2-5.09-4.23a9.23,9.23,0,0,0-3.34-3,138.49,138.49,0,0,0-16.57-12.46l-3.43-2.52a37.23,37.23,0,0,0-7.68-5.44l-1.18-.9a41.84,41.84,0,0,0-8.27-5.95,4.58,4.58,0,0,0-2.45-1.9,33.41,33.41,0,0,0-6.76-4.94,4.38,4.38,0,0,0-2.37-1.79L387,239.09l-3.36-2.69-6-5.08a3.83,3.83,0,0,0-2.18-1.89l-6.41-6.71c-.47-.6-.93-1.2-1.4-1.79l-5.38-7.71a4.41,4.41,0,0,0-1.67-2.56q-2.26-4.28-4.55-8.54l-1.13-2.68c-.25-.94-.48-1.89-.76-2.83-.36-1.2-1.08-2.58,0-3.54s2.31.35,3.5.54l3.41,2.91,6.11,6.78a2.37,2.37,0,0,0,1.52,1.52,30.1,30.1,0,0,0,6.16,6,11.31,11.31,0,0,0,3.62,3.33,28.13,28.13,0,0,0,6.73,5.62l2.73,2a35.28,35.28,0,0,0,7.64,4.7,4.1,4.1,0,0,0,2.56,1.65,26.94,26.94,0,0,0,6.65,4.24,9,9,0,0,0,3.77,2.43,28,28,0,0,0,6.67,4.4,8.59,8.59,0,0,0,3.66,2.45,28.19,28.19,0,0,0,6.56,4.47,8.82,8.82,0,0,0,3.68,2.57q8.07,6,16.15,12l3.5,2.86c5.38,4.85,10.79,9.69,15.68,15.06,1.66,3.25,4,6.16,3.84,10.22-.11,2.44,2.46,2.93,4.26,3.51,1.18.39,1.09-1,1.08-1.78-.13-6.84-.29-13.68-.44-20.52.56-1.87-.29-2.65-2.09-2.71-5.13-.17-9.06-2.92-12.94-5.87-1.8-1.37-3.78-2.5-5.67-3.74l-1.82-1.4L433.6,243.1a6.13,6.13,0,0,0-2.66-2.33l-5.84-5.24a6.59,6.59,0,0,0-2.78-2.45,28.24,28.24,0,0,0-6.67-5.29,4,4,0,0,0-2.39-1.79A37.79,37.79,0,0,0,405.2,220a5.5,5.5,0,0,0-2.67-2.16,44.63,44.63,0,0,0-7.64-5.67l-1.78-1.44a34.52,34.52,0,0,0-6.66-5.26,4.24,4.24,0,0,0-2.27-1.83l-7-6-2.9-2.57-6-5.86-2.56-2.76q-2.93-3.63-5.86-7.27L359,178c-1.31-3.12-3.13-6-3.89-9.36.48-.85-.76-3,1.71-2.36a31.28,31.28,0,0,0,7,5l3.46,2.5a29.26,29.26,0,0,0,6.48,4.56,4.59,4.59,0,0,0,2.48,1.75,31.47,31.47,0,0,0,7,5.08,9.26,9.26,0,0,0,3.66,2.64,30.78,30.78,0,0,0,6.88,5l3.51,2.6a24.82,24.82,0,0,0,5.85,4.32,9.2,9.2,0,0,0,3.56,2.64,31,31,0,0,0,6.71,5.13l2.28,1.83,6.91,6.06,3,2.45a27.24,27.24,0,0,0,6.61,5.18l2.33,1.81,16.87,13.53a6.37,6.37,0,0,0,2.68,2.46l6.86,6.92c5,5,5.3,13.35,12.9,17.89,0-10.07,0-19.15,0-28.24,0-1.9-.84-2.59-2.62-2.38l-10.18-2.39-1.83-.71a117.45,117.45,0,0,1-17.95-11.71l-3.58-3.25a30.29,30.29,0,0,0-6.73-5.68c-.89-.75-1.79-1.49-2.69-2.23a30.07,30.07,0,0,0-6.8-5.4,6,6,0,0,0-2.69-2.24,24,24,0,0,0-5.69-4.49l-3.77-3.13-5.73-4.6L400,186a35.59,35.59,0,0,0-6.77-5.59,6.06,6.06,0,0,0-2.65-2.36,30.11,30.11,0,0,0-5.9-5.2l-2.71-2.5a39.55,39.55,0,0,0-6.76-6.36l-1.51-1.5a50.84,50.84,0,0,0-7.2-7.68,3.06,3.06,0,0,0-1.6-1.92c-1.68-2.25-3.37-4.49-5.06-6.74l-1.59-2.57c-1.24-3.05-2.81-6-3.28-9.32l1.2-1a31.13,31.13,0,0,0,6.59,4.56,9,9,0,0,0,3.64,2.61,23.05,23.05,0,0,0,5.91,4.21,8.8,8.8,0,0,0,3.59,2.55,39.42,39.42,0,0,0,7.64,5.5l2.73,2,6.49,4.63a4.49,4.49,0,0,0,2.43,1.76,41.6,41.6,0,0,0,8.19,6,4.83,4.83,0,0,0,2.42,1.94l7.87,5.92,1.77,1.45c4.93,4.49,9.7,9.17,15.24,12.95,6.42,5.46,12.91,10.84,19.25,16.39,6.58,5.78,12.77,12,16.84,19.86,1.67,3.21,4,5.26,7.88,8,0-6.63-.05-12.17,0-17.7,0-1.73-.53-2.53-2.28-2.94-10-2.36-17.61-8.53-24.81-15.4-4.12-3.95-7.59-8.56-12.26-11.94a156.15,156.15,0,0,0-14.56-13.73,10,10,0,0,0-3.52-3.37,27.41,27.41,0,0,0-5.68-5.34,6.92,6.92,0,0,0-2.8-2.67,27.74,27.74,0,0,0-5.93-5.87,6.67,6.67,0,0,0-2.68-2.69,29.47,29.47,0,0,0-5.79-6,7.54,7.54,0,0,0-2.69-2.86,22.81,22.81,0,0,0-5.13-5.69,6,6,0,0,0-2.32-2.61,33.53,33.53,0,0,0-5.53-6.81,9.12,9.12,0,0,0-2.66-3.49l-4.4-6.73a3.88,3.88,0,0,0-1.6-2.6c-.59-3.62-3.58-6.47-3.35-10.36.27-.63.39-1.43,1.35-1.38a23.83,23.83,0,0,0,6,5,7.84,7.84,0,0,0,3.41,2.83,22.44,22.44,0,0,0,5.89,5,10.19,10.19,0,0,0,3.76,3.23,29.66,29.66,0,0,0,6.75,5.58,5.4,5.4,0,0,0,2.63,2.34,26.69,26.69,0,0,0,6,5.11,3.15,3.15,0,0,0,2.25,1.85,27.77,27.77,0,0,0,6.88,6,6.86,6.86,0,0,0,2.88,2.56L455,182.37c3.51,4.32,7,8.68,10.54,12.94s4.72,10.08,9,14.78c.32-6.36.56-11.78.88-17.2.1-1.61-.21-2.82-1.95-3.29-6.12-1.65-10.69-5.88-15.67-9.44-5.22-5.48-9.74-11.54-14.41-17.48-7-8.86-14.28-17.43-21.45-26.13a8.63,8.63,0,0,0-2.89-3.55,27.65,27.65,0,0,0-5.17-6.66l-1.35-1.74a35.84,35.84,0,0,0-5.6-7.68,8.8,8.8,0,0,0-2.52-3.64,29.71,29.71,0,0,0-4.33-6.69,3.66,3.66,0,0,0-1.64-2.55q-2.54-5-5.06-10c0-.79-.08-1.57-.84-2l-2.07-9.36c.6-1.3-.39-3,1.15-4.08a32.59,32.59,0,0,0,6.13,6.92,7.84,7.84,0,0,0,3,3.34,30.36,30.36,0,0,0,5.85,6.44,3.31,3.31,0,0,0,1.89,2.14,28.13,28.13,0,0,0,5.26,5.9,9.84,9.84,0,0,0,3.32,3.61,275.27,275.27,0,0,0,22,23.34c2.47,3,5,5.89,7.41,8.88,10.78,13.22,21.43,26.51,26.13,43.39a5.55,5.55,0,0,0,3,3.77c.43-9.56.78-18.81,1.3-28.06.12-2.1-1-2.82-2.59-3.31-10.45-3.32-17.74-10.72-24.41-18.9-2.6-3.2-5.07-6.52-7.6-9.78L423.3,100.58a8.1,8.1,0,0,0-2.52-3.68,36.43,36.43,0,0,0-5-8l-.65-1.23q-2.62-5.15-5.23-10.31l-.65-1.74q-1.5-5.13-3-10.26L405.94,62c.14-1.2.27-2.41.44-3.61.23-1.6,1.1-1.08,1.95-.55l1.43,1.72a35.62,35.62,0,0,0,6.34,7.72,7.05,7.05,0,0,0,2.5,3,29.85,29.85,0,0,0,6,7,3.56,3.56,0,0,0,1.87,2.17,25.25,25.25,0,0,0,5.25,5.86,9.23,9.23,0,0,0,3.4,3.48l5,5.2a5.84,5.84,0,0,0,2.32,2.62,31.91,31.91,0,0,0,5.5,6.81,8.81,8.81,0,0,0,2.67,3.46,31.52,31.52,0,0,0,5,6.89,8.65,8.65,0,0,0,2.62,3.77,25,25,0,0,0,4.17,6.58,4,4,0,0,0,1.52,2.57q2.29,4.27,4.61,8.55a3.26,3.26,0,0,0,1.12,2.46L473.07,148a7.13,7.13,0,0,0,4.16,4.94v-7.53a87.66,87.66,0,0,0,.85-13.74l.08-4.31c.2-1.27.45-2.53.58-3.8.52-5-.22-5.82-5.58-6l-2.54-1.59-4.38-6.66a4.08,4.08,0,0,0-1.34-2.65,42.42,42.42,0,0,0-4.55-9.48,6.17,6.17,0,0,0-1.72-3.68,35.62,35.62,0,0,0-4.1-9.12l-.76-1.84a39.36,39.36,0,0,0-3.61-8.6,9.41,9.41,0,0,0-1.8-4.6l-1.44-9.85a7.19,7.19,0,0,0,.07-4.33c.28-1.75.57-3.5,1-6.34l2.31,2.85a4.77,4.77,0,0,0,1.91,3,22.6,22.6,0,0,0,4.17,6.65A4.27,4.27,0,0,0,458,63.82q2.4,4.21,4.78,8.45a4,4,0,0,0,1.45,2.66c.7,3.08,2.36,5.74,3.71,8.54a4,4,0,0,0,1.33,2.67,168.16,168.16,0,0,0,9.75,22.45,15.17,15.17,0,0,0,.87-4.61l1.47-19.67c.13-1.71.67-3.29,2.7-3.08s2.43,1.74,2.41,3.48c0,1-.47,2.11.71,3.46C495,73.7,503.88,60.43,512,46.71h0c1.66,2.59.78,5.61,1.42,8.37l0,4.3c-.78,5.22-1.27,10.5-3,15.53q-2.18,4.18-4.33,8.38a122.81,122.81,0,0,1-15.07,15.44c-5.16.18-5.76.83-5.74,6.24q-.36,6.85-.74,13.71c-.06,1.45-.11,2.89-.17,4.34l-.66,13.71q-.28,6.24-.58,12.49l1.46.52c5.44-8.66,9.07-18.44,15.25-26.66,17.84-24,42.15-41.56,62.57-63l.89,1c0,5.81-1.75,11.22-4.06,16.47q-2.82,5-5.66,10.08c-11.82,16.55-26.23,30.86-39.74,45.93a68.66,68.66,0,0,1-22.78,17.1c-9.83,2.23-8.24,1.3-8.18,8.47a81.19,81.19,0,0,0-.37,12.86c-.14,2.87-.69,5.75,0,8.94,6-3.92,6.77-10.45,9.58-15.73,12-18.58,27.63-33.76,44.25-48.16,14.47-12.54,28.29-25.85,42.4-38.82l.65,1.81c-.74,6.91-3.84,12.9-7.27,18.77q-6.78,9-13.57,18c-15,15.76-30,31.46-44.88,47.28a115.36,115.36,0,0,1-15.87,13.68c-2.31,1-4.57,2.2-6.95,3-9.55,3.29-9.56,3.25-9.08,13.57v15.17a5,5,0,0,0,3.15-3.05c3.9-9.63,10.49-17.37,17.57-24.67a889.8,889.8,0,0,1,81.12-74c1.33-1.07,2.55-2.27,3.83-3.4l2.66-1.21c.25,8.13-4.64,14.13-8.48,20.57C557.17,154.56,527.26,180,498.88,207c-3.4,1.75-6.68,3.85-10.24,5.18-7.4,2.77-7.46,2.6-7.46,10.64,0,.56.11,1.13.16,1.69-.16,3.2-.33,6.41-.49,9.51,1.29.35,1.68-.38,2.26-.72,4.93-2.92,6.92-8.14,10-12.55,6.08-8.76,14.4-15.36,22.2-22.44,14.66-11,27.79-23.83,42.83-34.34,5.62-3.92,11-8.16,16.51-12.25l15.46-10.94L601.57,133c1,2.53-.56,4.4-.68,6.41l-6.08,10.17c-9,11-19.5,20.38-29.88,29.93l-24.06,19.72c-6,4.79-12.27,9.32-18,14.42-8.66,7.71-17.51,15-28.32,19.58-1.24.25-2.48.53-3.72.74-10.52,1.82-10.53,1.82-9.75,12.92L481,259.7v5.93c6-3.81,6.35-4.31,11-14.47,5.84-7.87,13.35-14.07,20.62-20.5a255.29,255.29,0,0,0,21.56-16.8c16.65-14.34,35-26.45,52.5-39.64l14.45-10.17c2,2.81-.07,5.21-.89,7.69a35.18,35.18,0,0,1-2.22,4.48c-2.21,2.79-4.32,5.67-6.65,8.36-6.39,7.35-14.09,13.3-21.31,19.75-21.45,15.38-41.51,32.49-61.85,49.26l-15.54,10.87c-1,.24-1.92.51-2.89.72-9.37,2-9.37,2-8.72,11.72,0,1.45.09,2.9.13,4.35-.05,2.14-.19,4.28-.1,6.42.06,1.52-.69,3.72.74,4.38s3-1.21,4.52-1.86a2.55,2.55,0,0,0,1.55-2.76c-.11-3.52,1.7-6.28,3.69-8.93a78.74,78.74,0,0,1,11-11.42c10.7-9.55,22.62-17.49,34.16-25.93l12.88-8.39c16.55-9.46,31.79-20.51,44.13-35.27,2.25-2.69,4.53-6.1,9-5.5.07.51.13,1,.2,1.54-2.72,9.95-8.65,18.17-14.31,26.54-3.72,4.7-8.33,8.52-12.56,12.72-3.38,2.62-6.71,5.31-10.14,7.86q-20.25,15.09-40.55,30.11c-7.9,4.73-14.49,11.13-21.55,16.92a42.45,42.45,0,0,1-15.54,5.67c-5.67.78-7,2.79-6.82,8.53.06,2.85.18,5.7.27,8.56v6.2c6.69-4.7,9.27-11.9,14.66-16.68s11.35-9.44,17-14.21c11.41-8,24-14.2,35.35-22.38A94.57,94.57,0,0,0,560.66,256c11.9-7.47,23.82-14.93,35.33-23l1.64.13c2.13,5.14.24,9.51-2.72,13.59-5.44,7.52-12.7,13.11-20,18.64-9.22,7-19.27,12.75-28.8,19.29A71,71,0,0,0,535,291.2l-3.77,2c-11.53,6-21.44,14.54-32.49,21.31a55.63,55.63,0,0,0-7.14,2.72c-3.06,1.66-8.09-.93-9.39,2.9-1.1,3.23.2,7.28.45,11a50.51,50.51,0,0,0,.65,12c0,1.19-.63,3,.7,3.28a3.72,3.72,0,0,0,4.23-2.06c.79-1.77,1.27-3.68,1.89-5.54,2.4-5.1,7.12-7.81,11.32-11.06l9.41-5,22.36-9.79,7.6-2.76,19.92-7.48a21.69,21.69,0,0,0,6.87-2.35,63.21,63.21,0,0,0,25.25-13.56c1.26-1.08,2.27-2.55,4-3l.45,1c1.22,5.9-.19,11.22-3.53,16.12l-4.74,5c-8.32,6.49-18.06,10.32-27.44,14.85a22.47,22.47,0,0,0-6.88,2.67,151.31,151.31,0,0,0-23.22,10.2l-7.64,3L504,344c-6.47,1-12.36,4.5-19.1,4.45-2.1,0-1.53,1.73-1.46,2.87.26,4.14.65,8.27,1,12.41l.83,11.15a8.29,8.29,0,0,0,.7,4.31c-.07,1.07-.43,2.18.61,3.3,2.22-1.62,5.2-2.75,6.43-4.89,3.83-6.69,10.14-10.4,16.09-14.51,8.22-5.68,16.67-11,25-16.52,6-3.08,10.43-8.3,16.25-11.6l25-12.54,7.77-3c1.82,1.24.76,2.79.37,4.18-1.15,4.06-3.73,7.34-6,10.77-18.24,19.24-39.59,34.24-63.12,46.27a79.54,79.54,0,0,1-14.64,2.05,15.91,15.91,0,0,0-11.63.52c-1.37.59-2.3,1.11-1.89,2.7.81,3.17.16,6.54,1.38,9.65-.14,3.64.56,7.15,1.59,12,4.45-6.73,10.12-10.61,15.71-14.59.88-.44,1.77-.87,2.64-1.33,17.46-9.08,33.41-20.7,50.75-30l20.53-8.43c2.41-.09,4.38-2,6.91-1.62-.63,5.58-3.93,9.68-7.64,13.49-7.64,7.83-16.85,13.54-26.15,19.13-1.94,1.16-3.84,2.4-5.76,3.6l-10.45,5.54c-8.71,4.12-16.8,9.48-25.77,13.11-5.83,1.33-11.65,2.65-17.72,2.22-2-.14-3.28.81-2.78,3.13.94,4.28.89,8.76,2.44,12.93.12,1.66-.48,3.9,1.11,4.69,1.34.66,3-.85,3.73-2.13,2.41-4.31,6.43-6.78,10.33-9.31,6.05-3.92,12.29-7.56,18.45-11.32a56.32,56.32,0,0,0,10.3-5.79c3.16-1.9,6.56-3.51,9.44-5.77a53,53,0,0,1,18.08-9.29l6-1.08c5.18-.42,5.18-.42,3.42,6.45-4.08,7.87-11,12.85-18.07,17.58l-27.48,14.9-8.5,4.22a70.73,70.73,0,0,1-16.34,4c-.7,0-1.4-.09-2.09-.11-7.79-.17-7.88-.05-5.46,7.56a41.63,41.63,0,0,0,2.51,9.44c.46,1.45.92,2.91,1.39,4.37.47,3.4,2,6.45,3.36,9.53.31.82.63,1.65.95,2.48-.49,3.11-1.43,5.88-5.25,6-3.62.09-4.56-2.74-5.55-5.43-.39-1.05-.8-2.1-1.19-3.16s-.86-2.36-1.28-3.54a36.51,36.51,0,0,0-2.84-9.37,5.16,5.16,0,0,0-.93-3.44A57.87,57.87,0,0,0,483.54,435c-.22-1.15-.43-2.3-.65-3.46-.82-6-.82-6-8.08-7-1.13-.9-2.33-.47-3.53-.18l-12-1.37c-.93-.9-2.16-.88-3.31-1.13l-8.58-3.64-2.66-1.35a27.8,27.8,0,0,0-7.68-4.22,6.75,6.75,0,0,0-3.48-1.82l-8.57-4.5L422.34,405l-7.48-4.39-3.69-2.5-6.77-5.45-1.49-1.49-5.19-7.77-1-2.47c-.7-2.74-.1-4.43,3.2-3.88l4.3.59,9.37,2.79c8.51,4.28,15.51,11,24.21,15a45.67,45.67,0,0,0,8.54,4.67,4.32,4.32,0,0,0,2.62,1.57,36.31,36.31,0,0,0,7.7,4.41,4.51,4.51,0,0,0,2.61,1.62L466,412c5.54,3.72,8.47,10.65,15.93,12.77l-3.25-23.29q-1.2-13.69-2.39-27.39a7.9,7.9,0,0,0-.5-4.35l-.44-12a5,5,0,0,0-.42-3.49c.2-5.67.2-5.66-5.31-5.86-1.13,0-2.25-.15-3.37-.23-.93-.93-2.19-.81-3.34-1A52.86,52.86,0,0,0,452.41,344c-.91-.9-2.14-1-3.29-1.25l-9.56-3.27a6.4,6.4,0,0,0-3.49-1.43l-8.59-3.41a3.64,3.64,0,0,0-2.53-1.09,45.82,45.82,0,0,0-9.47-4.34l-2.64-1.36c-3.07-1.4-6.08-3-9.43-3.67-.6-.87-1.56-.91-2.47-1.07a38.19,38.19,0,0,0-8.42-3.4l-4.4-2-8.76-3.95A4.39,4.39,0,0,0,376.74,312.24Z" transform="translate(-353.6 -46.71)"/><path class="cls-1" d="M406.82,368.26l-6.86-4.5-3.45-2.46-7.6-5.75-1.76-1.42-6.8-6.33-1.89-2.08-4.87-7-1.14-2.44c.28-1.58-1.88-5,2.58-3.43l3.45,1.51,9.44,3.54a3.5,3.5,0,0,0,2.56,1,33.91,33.91,0,0,0,8.49,3.46,9.88,9.88,0,0,0,4.34,1.85,30.72,30.72,0,0,0,7.67,3.32,7,7,0,0,0,3.58,1.67l7.62,4.33,3.59,2.34a38.84,38.84,0,0,0,7.67,4.63,4.31,4.31,0,0,0,2.58,1.66,29.9,29.9,0,0,0,6.71,4.29,9.5,9.5,0,0,0,3.68,2.44l6.53,4.48A10,10,0,0,0,456.6,376l6.07,5,3.47,3.46c1.64,4.65,5.82,6.93,9.55,9.73-1.77,1.11-3-.48-4.36-.19-1.25-.79-2.55-1.39-4.08-.79-4,.75-8.12.54-12.2.46-1.32-.84-2.84-.69-4.29-.82l-9.5-3.37c-7.86-5.14-15.79-10.17-24.08-14.6a30.28,30.28,0,0,0-6.85-4.25Z" transform="translate(-353.6 -46.71)"/></svg>