<svg id="Layer_1" data-name="Layer 1" xmlns="http://www.w3.org/2000/svg" viewBox="0 0 333.82 432"><defs><style>.cls-1{fill:#8dc63f;}</style></defs><title>zelkova</title><path class="cls-1" d="M140.84,414.56c-1.76-.94-3.46-2.34-5.28-2.72-3.66-.75-7.39-.94-11-2.13,2.87,0,5.77.33,8.6-.12,1.94-.3,3.74-1.71,5.7.17.21.19,2.19-1.8,2.09-2.33A82,82,0,0,0,137.85,396c-.24-.65-2.68-.8-3.49,0-1.73,1.66-3.05,4.07-4.55,6.17l-.85-1,6.25-9.64c-1.55-2.51-3.26-5.14-4.83-7.9s-2.58-6.11-4.49-8.15-4.54-3-7-4c-1.11-.44-2.48.27-3.89-.35l6.74-2.88c-.77-1.76-1.35-3.44-2.17-4.89-2.11-3.74-4.23-7.49-6.54-11a17.26,17.26,0,0,0-3.86-3.95,48.05,48.05,0,0,0-4.76-3.06l.27-1.1,3.51-1.22c-1.4-2.28-2.42-4.22-3.64-5.89-4.17-5.66-8.37-11.28-12.64-16.79-1.65-2.13-3.65-3.77-5.26-5.93a119.12,119.12,0,0,1-10-15.33q5,6.33,10.08,12.68c.24.3.37.81.64,1,1.72,1.19,3.46,2.32,5.19,3.47a56.62,56.62,0,0,0-2.55-5.81Q81.62,295.93,73,281.63a35.89,35.89,0,0,0-3.78-4.74c-3.52-4.13-7.07-8.2-10.58-12.34a4.85,4.85,0,0,1-1-2.72l7.89,8.66.87-1.06-7.35-11.27c-1-1.45-1.93-2.87-2.81-4.38-.46-.79-.66-1.83-1.12-2.61-2.76-4.72-5.4-9.58-8.4-14-2.73-4.06-6-7.46-8.76-11.52-1.65-2.45-5.89-4.33-2.14-9.23a3,3,0,0,0-.14-2c-6.13-13-12.3-26-19.14-38.73l3.19,1.12L9.8,158.42l.85-.9,11.09,18.91,1-5.32A10.13,10.13,0,0,1,27,181a18.52,18.52,0,0,0-1.55-3.49c-.4-.56-1.23-.57-1.87-.83a8,8,0,0,0-.35,2.68c.65,2.4,1.5,4.71,2.34,7,.14.38.65.5.94.81,1.53,1.64,3.06,3.28,4.55,5,.77.86,1.48,1.83,2.21,2.75l1-2.95,5.43-5.65c1.19-.42,2.61-1,4.07-1.39,1-.26,2.55-.79,2.86-.22a6.07,6.07,0,0,1,.44,4.16c-1.84,4.86-4,9.51-6,14.28-1.18,2.84.42,7.23,2.63,6.62,3.3-.91,4.35,1.43,5.32,4.62A35.89,35.89,0,0,0,50.66,218c1-3.59,1.52-6.17,2.41-8.5.79-2.08.57-6,4.2-4.72-1.86,3.1-1,5.51.56,8a9.34,9.34,0,0,1,1.28,4.84,6.85,6.85,0,0,1-1.8,3.26c-4.11-3.44-5.06.9-6.26,4.14l3.68,8.59c-.29,1.61-1.13,3.59-.78,5.07.57,2.35,1.86,4,4.33,3.42.78-.18,2.77,2.36,2.76,3.61-.09,5.62,2.64,8.91,4.76,12.76l1.08-.09.63-8.68c4.4-2,4.4-2,8.49,3.64,2.7-3.6,4.84-9.16,10-5.94,0,1.25-.08,2.53,0,3.79.19,2.55-.51,5.61,2.39,6.64.55.19.93,1.91,1.14,3,1.07,5.72,2.06,11.47,3.1,17.21a3.43,3.43,0,0,0,.54,1.55c2.59,2.83,5.22,5.6,7.83,8.38l-.92,1.76-2.7,1.44c.46,1.33.9,2.57,1.43,4.08,3.51-.76,5.45-11,9.61-3.89.45,2.61.74,4.32,1,6l3-1.69c-1.57,1.59-3.13,3.2-4.7,4.78-.5.51-1.32.82-1.51,1.46q-2.53,8.69-4.85,17.47a4.75,4.75,0,0,0,.37,2.48,69.74,69.74,0,0,0,2.84,7c1.83,3.62,3.31,8.25,5.91,10.3,3.56,2.82,4.07,7.8,6.41,11.35s4.1,8.2,6.33,12.13c.6,1.06,2.67,1,3,2,2.06,7,6,11.68,10.54,15.63,1.15-4.28.92-5.8-1.21-8.34s-4.26-5.16-6.38-7.74l.57-1.12,7.31,4.58c-.45-3.07-.4-5.55-1.2-7.36s-2.41-2.76-3.62-4c4.19.76,4.26.76,3.86-5.55-.17-2.7-.79-5.35-1.06-8.05-.24-2.26-.75-4.74-.3-6.8,1.69-7.67.81-13.89-5.63-18.66l5.75,2.08c-.28-4.21-.47-7.66-.75-11.11-.39-4.91-2.19-8.45-5.74-10.31-4.89-2.55-9.8-4.51-15-1.86l4.74-5.35c4,5.79,8.87,4.06,13.2,5.6-.71-1.89-1.41-3.78-2.3-6.16,3.56.65,3.44-1.78,2.69-4.83-.83-3.36-2.45-5.64-5.12-6-3.48-.51-7-.7-10.48-1.64l14.87,1.06c-1.21-6.36-2.21-12.95-3.82-19.28-.43-1.73-2.58-3-4.13-3.86-4.3-2.5-8.69-4.7-13-7l.35-1.2,16,8,.8-.93c-2.4-8.2-.19-18.09-5.22-24.16.62-2.07,1.54-3.57,1.39-4.86-.6-5.2-1.55-10.32-2.32-15.48-.8-5.35-3.13-8.85-7-10.73A70.69,70.69,0,0,1,101,191.44l18.57,8.7c-1.51-9.06-2.55-17.36-4.41-25.33-.54-2.35-3.39-3.76-5.18-5.61l-.58,1,3.86-2.46c-3.33-3-5.82-5.73-8.66-7.52-3.86-2.43-8-4-12-6.16a29.4,29.4,0,0,1-4.09-3.28l.33-1L103,155.64l.74-1.73-7.34-7.43c-.33-1.34-.37-3.57-1.23-4.61-3.63-4.41-7.5-8.46-11.3-12.63-.5-.54-1.41-.85-1.55-1.49-1.78-8.34-8.3-10.59-12.1-16.39a7.36,7.36,0,0,0-8.61-3c-5,1.66-10.31,2.14-15.51,2.89-1.38.2-2.83-.48-4.49-.8,3.39-7.61,7.22-10,13.08-8.93.92-4.81.92-4.81,5.82-3.08.9-5.09.19-8.87-3.5-12-3.89-3.29-7.12-8-10.91-11.51-3.38-3.16-7.12-5.63-10.71-8.37a6.46,6.46,0,0,1-2.49-2.76,24.28,24.28,0,0,1,2.91-.42c1.56,0,3.23-.38,4.66.23A6.9,6.9,0,0,1,43.83,67c1.46,3.53,3.53,5.4,6.64,6l-1.37-7,.59-.71a14.74,14.74,0,0,1,2.67,3C55.77,75,59,82,62.43,88.7c1,2,2.76,3.34,3.86,5.28,3.41,6,6.45,12.46,10.07,18.26,2.15,3.45,5.11,6,7.7,9,.47.54,1.27,1,1.33,1.66.51,5.33,4,7.48,6.46,10.62,3.87,5,8,9.67,12.23,14.15,3.68,3.9,7.64,7.34,11.79,11.28.88-7.94,1.29-15.59-3.57-22.8l3.55,1.79-1.16-13.25,3.25.88c-.37-4.66-.71-8.82-1-12.9,2.32-5.81-2.35-10.16-2.37-16l3,4.22c5.43-6.44,4.9-11.87-2.19-22.52.51-1,1-2,1.61-3.27l2.9,2.36.52-.66-3.6-6L121,73.9c-.64-4.73-1.16-8.49-1.77-13L123,62.27V54.56h6Q127,65.32,125,76.07l1,.85,7-7,.29.47-4.56,6.46c6.74-3.84,12.8-7.5,19-10.77a54,54,0,0,1,18.5-5.41l.28,1.93-26.94,9.93.12,1.29L142.09,76c-4,2-7.74,3.66-11.35,5.69-1.18.67-3.16,2-.71,4.06-4.24,1.51-5.27,3.71-5.33,12.42l4.45-1.84c-5.14,4.3-6.56,10-6.39,17.11l3.32-.5c-.81,3-1.53,5.66-2.6,9.6,6.35-4.77,7.59-13.79,12.57-19.6A75.13,75.13,0,0,1,123,127.36c-3.35,4.09-3.8,12-1.31,15.18-.65,2.15-1.45,4.25-1.89,6.48a13.08,13.08,0,0,0,.38,3.71,20.63,20.63,0,0,0,2.9-1.16,12,12,0,0,0,1.93-2l-.13,3.65,2.59-.48c-2.34,3.67-6.67,5.26-6,11.36.48,4.24-1.9,9,1,13-1.82,8.44-.27,16.82,1.28,25.23l17.07-21.25.36.45c-2.44,3.43-4.86,6.88-7.32,10.29-1.45,2-2.91,4-4.44,5.89-2.58,3.23-3.69,6.43-2.27,11.51,1.1,3.92.63,8.63.84,13,.07,1.53.11,3.05.21,5.82l5.86-9,1.16.69c-10.45,10.3-4.8,22.67-3.58,35.9l16-20.63.57.78c-3.42,4.44-6.91,8.78-10.24,13.33-5.76,7.87-6.87,18.4-3,28.07a1.92,1.92,0,0,0,2,.91c.87-.41,1.55-1.51,2.53-2.24-2,4.14-4.62,8.13-1.82,13.45,6.79-9.34,8.25-14.65,4.44-17.52l3.49-3.26,1.62,2.75c3.56-5.37,5.17-11.4,5.79-18.78l1.51,4.1c1.22-2.06,2.26-3.64,3.16-5.35,1.65-3.11,3.23-6.28,4.81-9.44,2.93-5.86,2.78-8.4-.78-13.54-.85-1.23-1.72-2.46-2.58-3.69l.83-1.09c.68,1.28,1.28,2.65,2,3.82a6.76,6.76,0,0,0,3.32,2.64c0-2.67.14-5.36-.05-8-.14-2.05-1.18-3.93.72-5.83.39-.38-.86-3.89-1.53-5.85-.61-1.78-1.46-3.41-2.4-5.54-3.64-5.36-7.68-11.17-11.56-17.15-.55-.85-.33-2.57-.46-3.88,1.09.16,2.53-.21,3.22.57,4.7,5.33,9.25,10.91,13.68,16.21-.56-2.24-1.3-5.18-2-8.19l2.58.19a15.69,15.69,0,0,0-.67-2.6c-2.45-5.24-5.07-10.35-7.39-15.69-.68-1.57-.57-3.74-.82-5.63l1.22-1.14,7.11,7.7c1.79-4.23.83-7.9-.36-11.53-2.12-6.5-2.14-6.49,3.19-6.11.31-2.66.32-5.51,1-8,.45-1.6,1.94-2.68,3-4a38.64,38.64,0,0,1,2.46,3.64,10.64,10.64,0,0,1,.93,3.08,32.47,32.47,0,0,1,.7,5.79,44.72,44.72,0,0,1-1,6.15l2-.71,3.48-1.25c-.09,1.44-.25,2.89-.25,4.34,0,2.67.73,5.67,0,7.95-2.38,8-5.35,15.58-7.86,23.47a77.33,77.33,0,0,0-2.93,14.18c.58-.71,1.2-1.37,1.72-2.15,2.15-3.27,4.19-6.67,6.42-9.84a15.16,15.16,0,0,1,3-2.62l1.37,4.79c5.91-1.9,8.84-6.19,9.87-14.82.1-.81.31-2.12.68-2.27,3.52-1.38,2.08-4.66,1.75-7.52a29.27,29.27,0,0,1-.23-7.81l1.3,3c2.41-5.35-3.4-10.91,1.09-15.53-1-1.75-2.45-3.28-2.6-5-.43-5.13-3.25-8.62-4.47-13.13a11.55,11.55,0,0,1,.09-3.14,6.28,6.28,0,0,1,2.42.58,51.79,51.79,0,0,1,4,3.6c.56-3.67,1.57-6.68.08-10.07a5.07,5.07,0,0,1,1.36-6.37c.66-.54.9-1.94,1.43-2.83.78-1.31,1.66-2.53,2.49-3.79,1,1.51,2.59,2.89,2.78,4.56.35,3-.14,6.21-.29,9.51.55.18.94.31,1.34.42l3.59,1c-.45,1.53-.89,3.06-1.34,4.58-1.27,4.27-5.16,7.45-3.41,12.69,1.92-2,3.6-4.37,5.63-5.81,1.86-1.32,3.35.38,2.5,2.91-1.31,3.89-3.27,7.4-5,11.06-.78,1.67-1.6,3.32-2.39,5l1,1.1c2.47-3,5-6,7.48-9.07,4.06,3.82-1.28,6.15-.54,9.78.68-.53,1.5-.79,1.77-1.45,2-4.81,4.8-9.33,3.63-15.46-.08-.42-.24-1-.1-1.28,2.86-4.73-.11-9.38-.14-14.06a8.48,8.48,0,0,0-1.34-3.76c-1.6-2.78-2.21-5.36.09-8a9,9,0,0,0,.86-2.15c.73-1.69,1.48-3.36,2.21-5,1.35,1.73,3,3.2,3.91,5.29.74,1.77.51,4.26.7,6.38,4.14.93,4.1.91,2.93,6.43a5.59,5.59,0,0,0,.09,3.27c.34.58,1.54.33,2.36.32,4,0,4.91-3.06,4.62-7.77-.09-1.4.9-2.89,1.3-4.38a6.87,6.87,0,0,0,.25-2.3c-.41-5.19-.92-10.36-1.28-15.55A8.27,8.27,0,0,1,237,102a21.57,21.57,0,0,1,1.87-3.28c.88.93,2.11,1.63,2.56,2.85,1,2.57,1.51,5.4,2.49,9.12,3.49,2.74,6.3.81,7-5.87a74.93,74.93,0,0,1,1.57-9.4c.32-1.37,1.33-2.46,2-3.67L256.61,95c.27.42.54.86.72,1.15,2.55-2.86,5-5.65,7.51-8.25.16-.16,1.15,1.1,1.76,1.69-1.11,9.68-8.75,12.38-11.72,20.51a26.17,26.17,0,0,1,3.83,2.33,4.64,4.64,0,0,1,1.57,2.86,3.34,3.34,0,0,1-1.62,2.36c-1.52.74-3.21.9-4.77,1.55-2.33,1-5.18,1.36-6.8,3.41-2.78,3.51-4.77,8.1-7.09,12.24l.75,1.13,3.47-3.26a26.57,26.57,0,0,1,4.08,3.22,7.39,7.39,0,0,1,2,4.09,4.27,4.27,0,0,1-2.36,3.08c-3.53,1-7.22,1.19-10.7,2.46-1.19.43-2,3-2.8,4.83-.71,1.61-.76,4-1.71,5.09-4.33,4.9-8.82,9.56-13.37,14.1-2.18,2.18-4.84,3.57-6.89,5.92a94.41,94.41,0,0,0-6.41,9.17c-4.91,7.27-7.41,17-14,22.68-4.45,3.83-9.53,7.83-12.22,13.51C174.43,232.35,166.49,241,161,252.26c-.64,1.29-1.21,2.65-2.07,4.55l3.42.63c-.28.25-.46.55-.68.61-2.78.71-3.93,2.79-4.86,6.56-1,4.06-3.57,7.48-5.58,11.06-3.07,5.47-6.26,10.84-9.36,16.28a12.78,12.78,0,0,0-.68,2.4h5.69c-3.07,2-7.31,1.73-7.62,8-.21,4.44,0,8.92,0,14.1l4.12-2.32c-5.42,6.84-2.75,15.23-3.13,24.31l11.59-7.9.42.94c-1.68,1.31-3.32,2.72-5.06,3.92-6.65,4.59-6.39,6.36-6.12,15.89.13,4.54,3,3.57,5.4,4.36-4.7-.94-4.54,3.12-4.46,6.91.07,3.38.33,6.76.58,11.46l22.17-15.81.3.57c-3.91,3.43-7.79,6.92-11.74,10.26-1.76,1.49-3.74,2.52-5.49,4-3.42,3-4.37,7-3,13l4.09-2.18.48.58-3.87,3.89.7,1.15L157,384.13l.18.37a40.65,40.65,0,0,1-5.43,3.69c-6.27,2.91-7.25,4.93-6,13.65.34,2.38.81,4.72,1.43,8.31L168,389.67l.24.21c-3,3.66-5.93,7.48-9.09,10.92-2.37,2.59-5.23,4.4-7.52,7.09-1.48,1.73-2.33,4.41-3.47,6.67ZM88.06,291.46c1.66-2.26,4.65-4.61,4.49-6.45-.5-5.47-1.44-11.45-3.71-15.88A10.93,10.93,0,0,0,78.32,263c1,3.86,1.81,7.54,2.81,11.15.23.83,1,2,1.48,2,3.78-.21,3.23,3.18,3.11,6.26S85.21,288.91,88.06,291.46Zm91.46-76.35-.84-1.34c-2.08.3-4.55-.57-4.91,4.11-.08,1-1.44,1.94-2.33,2.65-2,1.61-2.52,3.66-1.38,7.08ZM94.39,303.6l1.76-.84-1.83-5.59-1.47.78Z"/><path class="cls-1" d="M179.85,414.56c3.65-8.69,5.14-18.27,6.35-27.93.24-1.9-.56-4-.62-6-.07-2.3.14-4.63.23-6.94l.89-.13c-2.18-3.42-4.63-6.59-6.48-10.3-2.85-5.73-7.73-8.95-10.21-15-.74-1.82-1.43-3.67-2.27-5.84,5.73-.13,12.49,5.51,15.65,12.52,2.34-.22,3.31-1.85,3.09-5a34.66,34.66,0,0,1,0-6.11c.13-1.27.9-2.42,1.59-4.16-3-7.38,0-23,6-26.46.46,3.71.89,7.24,1.3,10.56l8-6.28L202,325.83c4.53-4.36,5.13-9.55,5.71-15.33,1.08-10.75.64-22.11,5.59-31.65.78-1.51,2.09-2.53,3.15-3.77l.65.71q-1,9.27-2,18.54l.83.41,1.24-1.22v17.91c1.46-9.73,2.61-19.77,5.34-28.42.71-6.38,1.3-12.18,2-17.94a83.67,83.67,0,0,1,1.48-8.42c.18-.77,1.12-1.85,1.58-1.75a2.8,2.8,0,0,1,1.83,1.91c.26,3.58.25,7.2.3,10.81,0,2.32,0,4.63,0,6.94l1.55.85c.68-1.82,1.35-3.64,2.23-6,1.75,5-3.92,8,.2,11.6-.88,4.53-5.33,7.59-2.62,13.84.7-2,1.32-4,2.13-5.91.94-2.17.6-5.64,3.66-5.88.46,0,.75-3.84,1.13-5.89a49.33,49.33,0,0,1,1.3-6.38,103.17,103.17,0,0,1,4.56-12c2.78-5.79,5.84-11.35,9-16.81.72-1.25,2.22-1.71,3.8-2-2.24,9.25-7.71,16.4-8.89,27.52l5.76-5.13.32.43-6.34,8.91c3.36-2,6.9-3.07,9-7.89,1.41-3.27,3.5-5.58,4.73-9.64,2.3-7.63,6.7-14.16,10.37-21,.48-.9,1.79-1,2.72-1.49a16.61,16.61,0,0,1,.09,4c-1,4.19-2.16,8.27-3.22,12.42-.26,1-.35,2.13-.54,3.32,3.43-.44,8-5.58,9.2-8.91a147.06,147.06,0,0,1,6-13.47c.43-.91,1.52-1.28,2.61-2.13.89,7.13-4.48,10.38-4,17.13a34.7,34.7,0,0,0,3.95-3.73c2.55-3.21,4.87-6.74,7.46-9.89.71-.87,1.83-3.15,3.19-.45.14.28,1.65-.45,2.42-1,2.08-1.42,4.1-3,6.14-4.5l1,2.08c-3.57,3.15-7.07,6.42-10.72,9.4-4.94,4-10.06,7.7-15,11.78-4.37,3.62-8.6,7.55-12.86,11.42-6.24,5.68-12.57,11.23-18.65,17.21-5.62,5.52-11,11.5-16.42,17.35a29.81,29.81,0,0,0-2.42,3.73L244,295.3l.37,1.2c-1.65.81-3.29,2.26-5,2.32-4.67.17-8.57,2.59-11.87,6.6-1.89,2.29-3.25,5.36-4.81,8.12-2.56,4.5-5.34,8.83-7.57,13.61-3,6.37-5.53,13.08-8.18,19.69a12.18,12.18,0,0,0-.79,5.08c2.71-4.24,5.39-8.53,8.15-12.72,2.66-4,5.09-8.65,9.79-8.78-8.19,12.68-17.19,24.25-24,37.79a228.16,228.16,0,0,0-16.22,44c1.64-.63,2.4-.69,3-1.18a47.8,47.8,0,0,0,10.93-13.69c2.75-5.14,6.59-9.3,10.16-13.58a74.88,74.88,0,0,1,7.77-7.76c2.41-2.17,5.12-2.7,8.81-2.07-2.57,5.13-5.67,7.6-8.81,10.22-2.91,2.44-5.88,5.11-7.34,9.74,6-.57,9.48-7.08,14.75-9.72q-4.92,5.55-9.82,11.11c10.79,0,21,1.62,30.32,8.44l-.16,1.33c-2.44-.45-4.9-.73-7.3-1.4-4.48-1.24-8.85-3.59-13.57-1.82a2.74,2.74,0,0,1-1.93-.23c-7.91-3.34-15.21.17-22.26,4.08-3.82,2.12-7.11,5.9-10.64,8.93Zm11.93-44.82c.84-1.7,1.75-3.36,2.5-5.14,1-2.48,1.82-5.16,2.94-7.58a91.38,91.38,0,0,0,8.07-25.76,22.93,22.93,0,0,0,0-3C198.64,332.67,189.43,359.33,191.78,369.74Zm9.42-45.65-1.16-1-3.23,7.53,1.35,1Z"/><path class="cls-1" d="M88.06,291.46c-2.85-2.55-2.46-5.84-2.34-9s.67-6.47-3.11-6.26c-.49,0-1.25-1.17-1.48-2-1-3.61-1.85-7.29-2.81-11.15a10.93,10.93,0,0,1,10.52,6.11c2.27,4.43,3.21,10.41,3.71,15.88C92.71,286.85,89.72,289.2,88.06,291.46Z"/><path class="cls-1" d="M179.52,215.11l-9.46,12.5c-1.14-3.42-.63-5.47,1.38-7.08.89-.71,2.25-1.66,2.33-2.65.36-4.68,2.83-3.81,4.91-4.11Z"/><path class="cls-1" d="M94.39,303.6,92.85,298l1.47-.78,1.83,5.59Z"/><path class="cls-1" d="M191.78,369.74c-2.35-10.41,6.86-37.07,13.53-41.49a22.93,22.93,0,0,1,0,3A91.38,91.38,0,0,1,197.22,357c-1.12,2.42-1.9,5.1-2.94,7.58C193.53,366.38,192.62,368,191.78,369.74Z"/><path class="cls-1" d="M201.2,324.09l-3,7.48-1.35-1,3.23-7.53Z"/></svg>