<svg id="Layer_1" data-name="Layer 1" xmlns="http://www.w3.org/2000/svg" viewBox="0 0 333.82 432"><defs><style>.cls-1,.cls-3{fill:#fff;}.cls-1{stroke:#fff;stroke-miterlimit:10;stroke-width:5px;}.cls-2{fill:#99c864;}</style></defs><title>apple</title><path class="cls-1" d="M220.39,111.1c5.84-2.7,5.17,3,7.16,5.19.75.81.78,2.3,1.39,3.32.48.79,1.34,1.87,2.05,1.88,2.39,0,3,1.72,3.47,3.58.69,2.81,1.15,5.7,1.93,8.48.2.72,1.25,1.15,1.87,1.76.81.79,2.1,1.53,2.27,2.47.74,4.23,1.27,8.52,1.67,12.81.36,3.84,1.59,6.87,5.33,8.18,6.6,2.32,7.17,8.84,2.89,13.88-.94,1.11-2.65,1.63-4.11,2.07-1.1.34-3.86,2.79-3.57,3.92a28.92,28.92,0,0,0,1.8,4.57,6.55,6.55,0,0,0,1.85,2.45,23.2,23.2,0,0,1,3,3.33c1.32,2.09,2.41,4.13,5.35,3.68,1.42-.22,2.52.64,2.08,2.39-.69,2.76-1.54,5.48-2.33,8.21a.88.88,0,0,1-.06.28c-3.13,4.61-1.93,9.65-1,14.69,4.35.84,4.42,8.63,1.82,13.55a9.66,9.66,0,0,1,3,.84,3.46,3.46,0,0,1,1.32,2.31,24.7,24.7,0,0,1-.19,5.83,53.55,53.55,0,0,1-1.69,5.36c-.54,1.94-.94,3.93-1.42,6,1.93,1.11,3.24,1.84,1.47,4.56-2,3-2.87,6.82-4.18,10.3-.13.37.15.9.17,1.36a9,9,0,0,1-1.48,5.61c-2.28,3.66-3.84,7.7-2.9,12.63s-.81,10-3,14.58c-3.11,6.57-6.37,13-7.23,20.52-.22,2-2.31,3.8-3.64,5.61-1.93,2.65-4,5.22-5.92,7.85-1.14,1.54-2.21,3.13-3.36,4.76,1.32,3.1.95,3.23-2.05,5-3.92,2.26-8.28,3.77-11.25,7.83-1.27,1.73-3.81,2.5-5.87,3.5-1.47.72-3.19.71-3.6,3.09-.14.78-1.83,1.64-2.9,1.82a64.75,64.75,0,0,1-26.73-1.51c.32,4.56.48,8.92,1,13.24a40.58,40.58,0,0,1-.23,12.82c-.77,4-.35,8.19-.5,12.3-.08,2.24-.14,4.49-.43,6.7-.09.74-.87,1.37-1.34,2.05-.59-.71-1.61-1.36-1.7-2.13-.42-3.69-1.05-7.45-.77-11.11,1.07-13.6,0-27.12-.7-40.67a2.46,2.46,0,0,0-1.43-1.83,70.41,70.41,0,0,0-9.48-1c-4.43-.09-8.87.13-13.29.33-3.16.14-5.59-1.14-7.91-3.34-1.39-1.31-3.42-1.83-5.09-2.85q-5.89-3.56-11.69-7.29a12.42,12.42,0,0,1-2.09-2.13c-2.76-3-5.54-6-8.28-9-1-1.14-1.92-2.47-3-3.56a93,93,0,0,0-7.26-6.8,31.77,31.77,0,0,1-8-9.64C89,301,85.76,296.7,83,292.11c-.49-.81,0-2.25,0-3.4l1-.43c-1.93-2.16-3.76-4.43-5.82-6.44-1.34-1.31-1.22-2.2-.42-3.84.59-1.23.33-3.09.08-4.6-.37-2.28-2.21-4.61.56-6.31-1.1-3.44-2.17-6.66-3.17-9.91-.58-1.9-.18-3.33,2-3.53.07-3.69-5.29-6.65-1.7-10.94a23.76,23.76,0,0,0,1.52-4.36,62.67,62.67,0,0,0,.49-7c0-.89-.51-2.15-.11-2.65,2.62-3.36,2.46-7.08,1.76-11-.54-3.07.33-4.29,3.68-5.3-.58-3.29-1-6.62-1.79-9.89-.52-2.28.15-3.23,2.43-3,.27-2.1-.35-4.56,2.35-5.46.31-.1.3-1.51.31-2.31,0-2,0-3.92,0-5.88,0-1.49.73-2.23,1.87-3.26,1.75-1.59,2.83-4.1,3.91-6.37s1.88-5.31,4.91-5.22,3.63,3.22,4.43,5.64c1.06,3.28,1.85,6.66,2.88,10a4.45,4.45,0,0,0,1.84,2.12c1.32-3.1.37-6-.26-8.79-.58-2.62-1.48-5.16-2.06-7.78-1.06-4.73,2.07-9.79,6.34-10.22,0-4.19,0-8.4.08-12.6s.8-4.66,4-3.26c-.06-3.9-.25-7.9-.13-11.88.09-2.94-.19-6.07,3.25-7.78.94-.47,1-2.83,1.51-4.33.17-.53.23-1.5.44-1.54,2.86-.47,4.65-2.9,7.07-4,.86-.4,2.39.55,3.51,1.1a16.08,16.08,0,0,1,2.58,2.23c-.09-1.83-.06-2.79-.19-3.73s-.51-1.82-.61-2.74c-.38-3.48.42-4.26,3.29-3.56.26-3.66.5-7.35.78-11,.24-3,1.15-5.51,4.47-6.29A4.34,4.34,0,0,0,142.32,90c1-2.27,2.11-3.28,4.47-1.11.28-3.86.29-7.48.89-11,.34-2,1.65-3.81,2.53-5.69a23,23,0,0,1,1.24-2.42c.4-.64.91-1.63,1.42-1.66s1.35.7,1.8,1.3c1.3,1.74,2.48,3.57,4.14,6a56.28,56.28,0,0,0,.26-5.78,4.57,4.57,0,0,1,2.11-4.49c.75-.51,1.16-1.57,1.77-2.34s1.09-1.27,1.64-1.9a13.71,13.71,0,0,1,1.76,2,34,34,0,0,1,1.48,3.31l.68-.13c.2-.55.37-1.11.6-1.65.47-1.13,1-2.26,1.45-3.39l3.13,1.56c1.29-2.22,2.57-5,5.17-6.09.42-1.27.74-2.56,1.26-3.76.66-1.53,1.47-3,2.22-4.47.95-1.88,2.66-2.23,3.31-.4,1.49,4.15,5.54,7.42,4.13,12.61,0,.18-.07.45,0,.55,2.36,2.56,3.63,6.37,6.67,8a73,73,0,0,1,9.25,5.72c4.64,3.44,5,7.69,4.92,12.63a3.79,3.79,0,0,0,.27,1.93c2.18,3.42,2.41,7.23,2.6,11.2.14,3,2.78,2.25,4.53,2.13,2.22-.15,2.75.37,2.44,2.76A50.85,50.85,0,0,0,220.39,111.1Zm-75.34,12.76,1-1.06a17.26,17.26,0,0,1,2.61,2.88c1.7,3,2.88,6.32,4.83,9.06,5.5,7.73,11.33,15.19,16.94,22.83,2.58,3.53,5,7.23,7.42,10.86l.88-.4c.07-1.17.12-2.34.2-3.51.5-7.68.92-15.36,1.53-23,.3-3.75-.54-5.7-4-7.75a37.35,37.35,0,0,1-.21,5.3,9.81,9.81,0,0,1-1.56,2.91c-.83-.7-2-1.23-2.43-2.14-1.12-2.15-2.32-3.75-5-3.37a2.08,2.08,0,0,1-1.77-.95c-1-2.45-2.81-2.72-5-2.73a4.87,4.87,0,0,1-2.95-1.09,2.93,2.93,0,0,1-.91-2.45c1.44-3,3.32-5.75,4.7-8.76s3-6,1.3-9.65a94.26,94.26,0,0,1-7.35-25.22,30.05,30.05,0,0,1-.12-3.15l1.28-.29c1.86,5,1.72,10.58,3.51,15.59,1.86,5.19,3.62,10.43,5.25,15.15,2.62-.4,4.47-.57,6.28-1,2.48-.58,4.83,2.16,4.53,4.86a37.58,37.58,0,0,0,.37,7.08c.13,1.63.57,3.26.55,4.88a7.3,7.3,0,0,0,3.79,6.18c.34-7.24.78-14.43.93-21.63a11.64,11.64,0,0,0-1.39-5.77A121.27,121.27,0,0,1,169.59,83a18,18,0,0,1-.35-3.92l1-.2c3.21,9.17,6.05,18.54,11.79,27.33.09-1.47.18-2.11.16-2.73-.4-9.36-.88-18.71-1.21-28.06-.15-4.4-.06-8.82,0-13.22a16.36,16.36,0,0,1,.78-3.38l1.34.07c.58,21.23,2.65,42.43,0,64.46,3.45-2,6.07-3.56,8.73-5s2.45-5.78,6-6.29c-1.37,2.85-2.73,5.79-4.83,7.92-1.63,1.66-4.23,2.2-6.28,3.45-1.17.71-2.84,1.73-3,2.81-.62,4.28-.82,8.63-1,13-.19,3.91,0,7.85-.28,11.76-.64,10.27-1.42,20.54-2.12,30.81a19.14,19.14,0,0,0,.16,2.26c2.23-1.69,4.07-3.13,5.94-4.5,7.86-5.75,16.05-11.07,23.5-17.37,5.63-4.75,10.39-10.66,15.37-16.22,1.68-1.87,3.32-2.59,6.11-1.29a20.19,20.19,0,0,1-2,2.52c-4.1,3.82-8.25,7.58-12.39,11.36-4.57,4.16-8.92,8.64-13.78,12.38-6.8,5.23-14,9.85-21,14.88a5,5,0,0,0-1.88,3.29c-.42,7.85-.64,15.71-.86,23.57-.11,3.65,0,7.31-.16,11-.2,4.39-.63,8.77-.9,13.16-.14,2.1-.16,4.2-.25,6.92,2.74-2.08,5-3.65,7.15-5.47,3.1-2.66,5.86-5.85,9.15-8.21,9.51-6.81,19-13.6,27-22.41,3.32-3.65,6.62-7.3,9.86-11,2.24-2.58,4.35-5.28,6.53-7.92l.79.49a15.69,15.69,0,0,1-1,2.39A69.7,69.7,0,0,1,224,208.18c-5.32,4.7-10.38,9.71-15.82,14.25-4.94,4.13-10.44,7.54-15.3,11.76-4.6,4-8.77,8.49-14.15,11.4a2.64,2.64,0,0,0-.84,1.9c-.17,5,0,10.11-.39,15.14-.53,7.57-1.41,15.1-2.07,22.65-.22,2.53-.2,5.07-.3,7.81a5.89,5.89,0,0,0,1.22-.47c9.83-7.27,19.65-14.57,28.15-23.59q13.65-14.49,27.17-29.09c1.55-1.67,2.79-3.67,4.4-5.26.56-.54,1.8-.3,2.74-.41a7.34,7.34,0,0,1-.6,2.5,33.55,33.55,0,0,1-3.31,3.64c-4.58,4.62-9.22,9.19-13.77,13.84-1.53,1.56-2.76,3.45-4.33,4.95-8.43,8.07-16.82,16.19-25.44,24-4,3.65-8.63,6.53-12.71,10.1-1.37,1.19-3.7,1.36-3.77,4.48-.12,6.07-1,12.12-1.54,18.19-.34,3.74-.61,7.48-.9,11.22l.83.37c6.84-4.54,13.87-8.78,20.46-13.68,9.66-7.18,19.39-14.34,28.35-22.42,8.23-7.41,15.46-16,23.19-24.08a8.3,8.3,0,0,1,2.49-1.24c-.27.88-.29,2-.83,2.6-4.9,5.43-9.58,11.14-14.91,16.05-7.41,6.81-15.27,13.09-23.06,19.43-10.28,8.39-20.52,16.9-32.11,23.22-3.63,2-4.47,4.33-4.1,8.38a142.16,142.16,0,0,1,.39,17.64c-.07,2.33.36,3.59,2.44,4.09a28.94,28.94,0,0,0,3.68.65c4.78.54,9.55,1.31,14.34,1.43,2.49.06,5.31.29,7.06-2.95.84-1.56,3-2.56,4.76-3.29,3.07-1.26,6.64-1.31,8.4-5.15.45-1,2-1.51,3.09-2.07,2.14-1.07,4.33-2,6.8-3.14-1.84-2.47-1.2-3.86.66-5a5.84,5.84,0,0,0,1.21-1.49c2.35-3.07,3.46-7.2,7.24-9.06,1.46-.72,2.38-1.94,1.27-3.91-.16-.29.94-1.4,1.48-2.11s1.46-1.32,1.67-2.14c.82-3.05,1.24-6.22,2.14-9.23,1-3.47,1.86-7.21,3.76-10.11,2.58-3.92,2.87-7.91,2.43-12.27a23.57,23.57,0,0,1,3.52-14.83c.6-1,.54-2.46.7-3.72a19.14,19.14,0,0,1,.28-3.34c.55-1.71,1.48-3.27,2.09-5,.67-1.85,1.15-3.78,1.68-5.55-.36-1.24-1.22-2.69-1.06-4a36.36,36.36,0,0,1,1.9-7.14c1.06-3,1.92-6,1.44-9.1-1.29,0-2.79.34-2.95,0a6.48,6.48,0,0,1-.43-3.42c.32-2.46.89-4.89,1.45-7.78-2.19.93-3,.26-3.14-1.57-.29-3.06-.64-6.12-1.08-9.17a12.77,12.77,0,0,1,1-7.63,30.91,30.91,0,0,0,1.89-7.25,3.26,3.26,0,0,0-.78-2.14c-1.38-1.77-2.88-3.42-4.31-5.15-.52-.62-.84-1.5-1.46-1.95a14.33,14.33,0,0,1-5.77-8.42c-1.06-4.41,1.23-7.65,5.67-8.45a2.66,2.66,0,0,0,1.51-.92c2.69-3.56,1.73-7.9-2.29-9.54-3.59-1.47-5.27-4.14-5.67-8-.47-4.56-1.1-9.09-1.66-13.64l-.65.46c-1.06-1.31-2.51-2.46-3.08-4-1-2.67-1.45-5.57-2.21-8.36-.28-1-.75-2.76-1.22-2.79-2.69-.17-3.11-2.46-4.08-4.28-1.38-2.59-2.79-5.16-4.3-7.94-2.22,1.69-3.41,1-3.85-1.33-.34-1.8-.68-3.6-1-5.37-1.63-.56-3.21-1.19-4.83-1.63s-2-1.38-1.79-3.11a12.32,12.32,0,0,0-.28-4.4c-1-4.07-2.56-8-3.06-12.16-.42-3.49-.16-6.51-4.24-8-3.07-1.14-5.74-3.51-8.55-5.39-3.62-2.42-5-6.8-7.61-10.07-.3-.37,0-1.27,0-1.92.16-2.73-1-4.82-2.94-6.77-1,1.82-1.88,3.53-2.9,5.13-1.22,1.91-2.62,3.69-3.87,5.58-1.39,2.1-4.26,3.09-5.8,1.91-.33,1.06-.61,2.14-1,3.17-1,2.58-1.46,2.65-3.23.68-.91-1-1.84-2-2.69-2.87-3.09,1.5-4.47,3.84-3.57,7.44.74,2.94-1.08,4.14-2.23,6.35l-5.27-7.75c-1.36,2.23-3.16,4-3.55,6-.83,4.38-.85,8.93-1.39,13.38-.11.91-1.08,1.72-1.65,2.57-.56-.73-1.13-1.45-1.68-2.18a6.62,6.62,0,0,1-.45-.65,51.65,51.65,0,0,0-3.94,3.63c-1.14,1.26-2.62,2.64-2.91,4.19a54.73,54.73,0,0,0-.69,9.76c0,3.89-.15,4.13-3.82,4.1a23.27,23.27,0,0,1,.58,4.15,24.67,24.67,0,0,1-.87,4.18c-1.44-.45-2.88-.89-4.31-1.37-.87-.29-2.29-1.16-2.51-.89-2.11,2.55-6.61,2.71-6.25,7.89.26,3.67-.62,4-4.17,3.73.23,4.68.4,9.32.69,14,.25,4-.84,5.12-4.53,4.22,0,4.25-.25,8.48,0,12.66.16,2.37-.24,3.4-2.57,3.84-3.32.62-3.76,1.6-3.15,5.1s1.28,6.79,1.69,10.22a42.32,42.32,0,0,1,.27,7.55c-.13,2.18-1.8,3.14-3.84,2.64s-2.55-2.13-3-4.1c-1-4-2.36-8-3.68-12-.45-1.36-2.22-2.15-2.49-.72-.61,3.13-2.9,5.16-3.78,7.85-.69,2.1-.93,3.7-3.6,3.36.16,2.55.3,4.87.46,7.19s0,4.35-2.89,4.66c.85,2.69,0,4.41-2.34,5.4.66,2.71,1.32,5.24,1.88,7.8,1,4.44.34,5.25-3.89,5a3.67,3.67,0,0,0,.2,1.34c2.22,3.75-.85,7.58.19,11.35.07.25-.37.62-.46,1a22.53,22.53,0,0,0-.6,2.68c-.11.8,0,1.65-.14,2.44-.37,1.92-.75,3.84-1.28,5.72s-1.73,3.49-1.61,5.15c.2,2.53,1.23,5,2,7.45,1,3.22,1,3.37-2.45,4.13,1.06,2.93,2.12,5.78,3.11,8.66.5,1.45,2,3.06-.55,4.2-.32.15-.27,1.58-.13,2.37.34,1.9,1.48,3.93,1.11,5.62-.5,2.3.4,3.55,1.56,5,.88,1.06,1.88,2,2.7,3.13a6.1,6.1,0,0,1,1,2.23c.32,1.46.22,3.11.82,4.42a45,45,0,0,0,3.42,5.57c2.53,3.91,4.66,8.24,7.71,11.63,5.24,5.81,11.25,10.83,16.57,16.56,5.11,5.49,10.23,10.86,16.72,14.53,3.56,2,7.12,4.05,10.72,6a5.13,5.13,0,0,0,2.29.52c5.5.15,11,.19,16.49.38,2.95.1,5.88.44,9,.69-.38-2.31-.73-4.62-1.13-6.92-.31-1.81-.17-3.25,2.26-2.88-.16-.87-.12-2-.41-2.07-3.27-1.18-1.48-3.9-1.65-5.95a12.07,12.07,0,0,1,.44-3.61c.39-1.66-.12-2.42-1.73-2.7-2.72-.46-5.6-.64-8.09-1.74a217.87,217.87,0,0,1-20.48-10,145.09,145.09,0,0,1-29.07-22.26q-6.82-6.72-13.42-13.67c-2.19-2.3-4.17-4.82-6.14-7.33-.31-.4-.05-1.29-.05-1.95.6.22,1.37.26,1.78.68,4.09,4.16,8.12,8.37,12.15,12.58,5.41,5.65,10.28,11.89,16.8,16.32,3.73,2.53,7,5.8,10.8,8.24,6.52,4.19,13.06,8.46,20,11.81,5.4,2.62,11.39,3.89,17.73,6,.05-4,0-7.07.14-10.12.42-7.87,1-15.74,1.39-23.62a3.44,3.44,0,0,0-.8-2.24c-2.78-3-5.58-6.05-8.51-8.92s-6.18-5.6-9.19-8.5c-2.09-2-4-4.3-6-6.35-3.5-3.46-7.37-6.56-10.58-10.3-5.3-6.2-10.28-12.7-15.23-19.21s-9.7-13.15-14.47-19.78a18.08,18.08,0,0,1-1.52-3.27l.88-.66c1.22,1.37,2.55,2.65,3.65,4.12,6.07,8.2,11.87,16.65,18.2,24.62,5.07,6.39,10.68,12.31,16.22,18.26,4.49,4.81,9.22,9.38,13.87,14,4.07,4,8.18,8.06,12.27,12.09l1.91,1.88a11.47,11.47,0,0,0,.55-1.9c.57-6.71,1.18-13.41,1.64-20.13.74-10.75,1.38-21.51,2-32.27a3.58,3.58,0,0,0-.51-2.24c-1.55-2-3.46-3.71-4.85-5.81-3.91-5.94-7.32-12.27-11.5-18a264.06,264.06,0,0,1-23.85-39.45c-1-2-1.81-4.14-2.69-6.23s-1.77-4.1-2.5-6.22a16.12,16.12,0,0,1-.44-3.22l.9-.3a16.65,16.65,0,0,1,1.37,2.38c1.35,3.65,2.34,7.48,4,11,2.33,5,5.07,9.73,7.72,14.52,2.29,4.14,4.53,8.32,7.11,12.25,4.21,6.4,8.77,12.56,13,18.94,3.42,5.14,6.58,10.48,9.94,15.67a13.38,13.38,0,0,0,2.45,2.29,42.51,42.51,0,0,0,.26-6.95c.53-14.06.87-28.14,1.85-42.17.31-4.36-1.09-7.37-3.37-10.45-7.14-9.61-14.36-19.15-21.3-28.92C150.35,133.35,147.84,128.5,145.05,123.86Zm13.31,5.92a22.15,22.15,0,0,0,3.55.47c2.18-.08,3.39.86,4.69,2.82.85,1.3,3.38,1.24,5,2.17.82.48,1.2,1.81,1.79,2.75.3.47.63.93,1.05,1.54.35-.56.65-.83.61-1-1.36-5.59,2.12-11.68-1.58-17-.2-.3,0-.91,0-1.38.26-5.86.25-6-5-5.48-1.2.12-3.1,1.3-3.29,2.29C164.25,121.82,160.65,125,158.36,129.78Z"/><path class="cls-2" d="M145.05,123.86c2.79,4.64,5.3,9.49,8.41,13.87,6.94,9.77,14.16,19.31,21.3,28.92,2.28,3.08,3.68,6.09,3.37,10.45-1,14-1.32,28.11-1.85,42.17a42.51,42.51,0,0,1-.26,6.95,13.38,13.38,0,0,1-2.45-2.29c-3.36-5.19-6.52-10.53-9.94-15.67-4.26-6.38-8.82-12.54-13-18.94-2.58-3.93-4.82-8.11-7.11-12.25-2.65-4.79-5.39-9.55-7.72-14.52-1.64-3.49-2.63-7.32-4-11a16.65,16.65,0,0,0-1.37-2.38l-.9.3a16.12,16.12,0,0,0,.44,3.22c.73,2.12,1.64,4.16,2.5,6.22s1.69,4.21,2.69,6.23A264.06,264.06,0,0,0,159,204.62c4.18,5.71,7.59,12,11.5,18,1.39,2.1,3.3,3.81,4.85,5.81a3.58,3.58,0,0,1,.51,2.24c-.63,10.76-1.27,21.52-2,32.27-.46,6.72-1.07,13.42-1.64,20.13a11.47,11.47,0,0,1-.55,1.9l-1.91-1.88c-4.09-4-8.2-8-12.27-12.09-4.65-4.65-9.38-9.22-13.87-14-5.54-5.95-11.15-11.87-16.22-18.26-6.33-8-12.13-16.42-18.2-24.62-1.1-1.47-2.43-2.75-3.65-4.12l-.88.66a18.08,18.08,0,0,0,1.52,3.27c4.77,6.63,9.53,13.28,14.47,19.78s9.93,13,15.23,19.21c3.21,3.74,7.08,6.84,10.58,10.3,2.08,2.05,3.95,4.33,6,6.35,3,2.9,6.2,5.58,9.19,8.5s5.73,5.89,8.51,8.92a3.44,3.44,0,0,1,.8,2.24c-.42,7.88-1,15.75-1.39,23.62-.17,3.05-.09,6.11-.14,10.12-6.34-2.07-12.33-3.34-17.73-6-6.91-3.35-13.45-7.62-20-11.81-3.78-2.44-7.07-5.71-10.8-8.24-6.52-4.43-11.39-10.67-16.8-16.32-4-4.21-8.06-8.42-12.15-12.58-.41-.42-1.18-.46-1.78-.68,0,.66-.26,1.55.05,1.95,2,2.51,3.95,5,6.14,7.33q6.6,6.94,13.42,13.67a145.09,145.09,0,0,0,29.07,22.26,217.87,217.87,0,0,0,20.48,10c2.49,1.1,5.37,1.28,8.09,1.74,1.61.28,2.12,1,1.73,2.7a12.07,12.07,0,0,0-.44,3.61c.17,2.05-1.62,4.77,1.65,5.95.29.11.25,1.2.41,2.07-2.43-.37-2.57,1.07-2.26,2.88.4,2.3.75,4.61,1.13,6.92-3.09-.25-6-.59-9-.69-5.5-.19-11-.23-16.49-.38a5.13,5.13,0,0,1-2.29-.52c-3.6-1.94-7.16-4-10.72-6-6.49-3.67-11.61-9-16.72-14.53-5.32-5.73-11.33-10.75-16.57-16.56-3-3.39-5.18-7.72-7.71-11.63a45,45,0,0,1-3.42-5.57c-.6-1.31-.5-3-.82-4.42a6.1,6.1,0,0,0-1-2.23c-.82-1.12-1.82-2.07-2.7-3.13-1.16-1.4-2.06-2.65-1.56-5,.37-1.69-.77-3.72-1.11-5.62-.14-.79-.19-2.22.13-2.37,2.51-1.14,1-2.75.55-4.2-1-2.88-2-5.73-3.11-8.66,3.42-.76,3.46-.91,2.45-4.13-.77-2.46-1.8-4.92-2-7.45-.12-1.66,1.13-3.4,1.61-5.15s.91-3.8,1.28-5.72c.15-.79,0-1.64.14-2.44a22.53,22.53,0,0,1,.6-2.68c.09-.34.53-.71.46-1-1-3.77,2-7.6-.19-11.35a3.67,3.67,0,0,1-.2-1.34c4.23.3,4.86-.51,3.89-5-.56-2.56-1.22-5.09-1.88-7.8,2.31-1,3.19-2.71,2.34-5.4,2.87-.31,3-2.38,2.89-4.66s-.3-4.64-.46-7.19c2.67.34,2.91-1.26,3.6-3.36.88-2.69,3.17-4.72,3.78-7.85.27-1.43,2-.64,2.49.72,1.32,4,2.65,7.92,3.68,12,.49,2,1,3.59,3,4.1s3.71-.46,3.84-2.64a42.32,42.32,0,0,0-.27-7.55c-.41-3.43-1.1-6.82-1.69-10.22s-.17-4.48,3.15-5.1c2.33-.44,2.73-1.47,2.57-3.84-.28-4.18-.05-8.41,0-12.66,3.69.9,4.78-.23,4.53-4.22-.29-4.63-.46-9.27-.69-14,3.55.26,4.43-.06,4.17-3.73-.36-5.18,4.14-5.34,6.25-7.89.22-.27,1.64.6,2.51.89,1.43.48,2.87.92,4.31,1.37a24.67,24.67,0,0,0,.87-4.18,23.27,23.27,0,0,0-.58-4.15c3.67,0,3.78-.21,3.82-4.1a54.73,54.73,0,0,1,.69-9.76c.29-1.55,1.77-2.93,2.91-4.19a51.65,51.65,0,0,1,3.94-3.63,6.62,6.62,0,0,0,.45.65c.55.73,1.12,1.45,1.68,2.18.57-.85,1.54-1.66,1.65-2.57.54-4.45.56-9,1.39-13.38.39-2.06,2.19-3.82,3.55-6l5.27,7.75c1.15-2.21,3-3.41,2.23-6.35-.9-3.6.48-5.94,3.57-7.44.85.91,1.78,1.87,2.69,2.87,1.77,2,2.21,1.9,3.23-.68.41-1,.69-2.11,1-3.17,1.54,1.18,4.41.19,5.8-1.91,1.25-1.89,2.65-3.67,3.87-5.58,1-1.6,1.88-3.31,2.9-5.13,2,2,3.1,4,2.94,6.77,0,.65-.29,1.55,0,1.92,2.65,3.27,4,7.65,7.61,10.07,2.81,1.88,5.48,4.25,8.55,5.39,4.08,1.51,3.82,4.53,4.24,8,.5,4.12,2.09,8.09,3.06,12.16a12.32,12.32,0,0,1,.28,4.4c-.24,1.73.14,2.67,1.79,3.11s3.2,1.07,4.83,1.63c.33,1.77.67,3.57,1,5.37.44,2.37,1.63,3,3.85,1.33,1.51,2.78,2.92,5.35,4.3,7.94,1,1.82,1.39,4.11,4.08,4.28.47,0,.94,1.78,1.22,2.79.76,2.79,1.2,5.69,2.21,8.36.57,1.52,2,2.67,3.08,4l.65-.46c.56,4.55,1.19,9.08,1.66,13.64.4,3.91,2.08,6.58,5.67,8,4,1.64,5,6,2.29,9.54a2.66,2.66,0,0,1-1.51.92c-4.44.8-6.73,4-5.67,8.45a14.33,14.33,0,0,0,5.77,8.42c.62.45.94,1.33,1.46,1.95,1.43,1.73,2.93,3.38,4.31,5.15a3.26,3.26,0,0,1,.78,2.14,30.91,30.91,0,0,1-1.89,7.25,12.77,12.77,0,0,0-1,7.63c.44,3,.79,6.11,1.08,9.17.18,1.83.95,2.5,3.14,1.57-.56,2.89-1.13,5.32-1.45,7.78a6.48,6.48,0,0,0,.43,3.42c.16.36,1.66,0,2.95,0,.48,3.06-.38,6.07-1.44,9.1a36.36,36.36,0,0,0-1.9,7.14c-.16,1.29.7,2.74,1.06,4-.53,1.77-1,3.7-1.68,5.55-.61,1.69-1.54,3.25-2.09,5a19.14,19.14,0,0,0-.28,3.34c-.16,1.26-.1,2.72-.7,3.72a23.57,23.57,0,0,0-3.52,14.83c.44,4.36.15,8.35-2.43,12.27-1.9,2.9-2.73,6.64-3.76,10.11-.9,3-1.32,6.18-2.14,9.23-.21.82-1.11,1.42-1.67,2.14s-1.64,1.82-1.48,2.11c1.11,2,.19,3.19-1.27,3.91-3.78,1.86-4.89,6-7.24,9.06a5.84,5.84,0,0,1-1.21,1.49c-1.86,1.11-2.5,2.5-.66,5-2.47,1.13-4.66,2.07-6.8,3.14-1.11.56-2.64,1.08-3.09,2.07-1.76,3.84-5.33,3.89-8.4,5.15-1.76.73-3.92,1.73-4.76,3.29-1.75,3.24-4.57,3-7.06,2.95-4.79-.12-9.56-.89-14.34-1.43a28.94,28.94,0,0,1-3.68-.65c-2.08-.5-2.51-1.76-2.44-4.09a142.16,142.16,0,0,0-.39-17.64c-.37-4,.47-6.4,4.1-8.38,11.59-6.32,21.83-14.83,32.11-23.22,7.79-6.34,15.65-12.62,23.06-19.43,5.33-4.91,10-10.62,14.91-16.05.54-.6.56-1.72.83-2.6a8.3,8.3,0,0,0-2.49,1.24c-7.73,8-15,16.67-23.19,24.08-9,8.08-18.69,15.24-28.35,22.42-6.59,4.9-13.62,9.14-20.46,13.68l-.83-.37c.29-3.74.56-7.48.9-11.22.53-6.07,1.42-12.12,1.54-18.19.07-3.12,2.4-3.29,3.77-4.48,4.08-3.57,8.7-6.45,12.71-10.1,8.62-7.83,17-16,25.44-24,1.57-1.5,2.8-3.39,4.33-4.95,4.55-4.65,9.19-9.22,13.77-13.84a33.55,33.55,0,0,0,3.31-3.64,7.34,7.34,0,0,0,.6-2.5c-.94.11-2.18-.13-2.74.41-1.61,1.59-2.85,3.59-4.4,5.26Q218.1,254.52,204.47,269c-8.5,9-18.32,16.32-28.15,23.59a5.89,5.89,0,0,1-1.22.47c.1-2.74.08-5.28.3-7.81.66-7.55,1.54-15.08,2.07-22.65.35-5,.22-10.09.39-15.14a2.64,2.64,0,0,1,.84-1.9c5.38-2.91,9.55-7.42,14.15-11.4,4.86-4.22,10.36-7.63,15.3-11.76,5.44-4.54,10.5-9.55,15.82-14.25a69.7,69.7,0,0,0,13.87-16.62,15.69,15.69,0,0,0,1-2.39l-.79-.49c-2.18,2.64-4.29,5.34-6.53,7.92-3.24,3.72-6.54,7.37-9.86,11-8,8.81-17.5,15.6-27,22.41-3.29,2.36-6.05,5.55-9.15,8.21-2.11,1.82-4.41,3.39-7.15,5.47.09-2.72.11-4.82.25-6.92.27-4.39.7-8.77.9-13.16.17-3.65,0-7.31.16-11,.22-7.86.44-15.72.86-23.57a5,5,0,0,1,1.88-3.29c6.95-5,14.17-9.65,21-14.88,4.86-3.74,9.21-8.22,13.78-12.38,4.14-3.78,8.29-7.54,12.39-11.36a20.19,20.19,0,0,0,2-2.52c-2.79-1.3-4.43-.58-6.11,1.29-5,5.56-9.74,11.47-15.37,16.22-7.45,6.3-15.64,11.62-23.5,17.37-1.87,1.37-3.71,2.81-5.94,4.5a19.14,19.14,0,0,1-.16-2.26c.7-10.27,1.48-20.54,2.12-30.81.24-3.91.09-7.85.28-11.76.2-4.34.4-8.69,1-13,.16-1.08,1.83-2.1,3-2.81,2-1.25,4.65-1.79,6.28-3.45,2.1-2.13,3.46-5.07,4.83-7.92-3.56.51-3.39,4.84-6,6.29s-5.28,3-8.73,5c2.66-22,.59-43.23,0-64.46l-1.34-.07a16.36,16.36,0,0,0-.78,3.38c-.1,4.4-.19,8.82,0,13.22.33,9.35.81,18.7,1.21,28.06,0,.62-.07,1.26-.16,2.73-5.74-8.79-8.58-18.16-11.79-27.33l-1,.2a18,18,0,0,0,.35,3.92A121.27,121.27,0,0,0,180.4,107.5a11.64,11.64,0,0,1,1.39,5.77c-.15,7.2-.59,14.39-.93,21.63a7.3,7.3,0,0,1-3.79-6.18c0-1.62-.42-3.25-.55-4.88a37.58,37.58,0,0,1-.37-7.08c.3-2.7-2.05-5.44-4.53-4.86-1.81.42-3.66.59-6.28,1-1.63-4.72-3.39-10-5.25-15.15-1.79-5-1.65-10.62-3.51-15.59l-1.28.29a30.05,30.05,0,0,0,.12,3.15,94.26,94.26,0,0,0,7.35,25.22c1.67,3.67.08,6.65-1.3,9.65s-3.26,5.77-4.7,8.76a2.93,2.93,0,0,0,.91,2.45,4.87,4.87,0,0,0,2.95,1.09c2.17,0,4,.28,5,2.73a2.08,2.08,0,0,0,1.77.95c2.64-.38,3.84,1.22,5,3.37.47.91,1.6,1.44,2.43,2.14a9.81,9.81,0,0,0,1.56-2.91,37.35,37.35,0,0,0,.21-5.3c3.43,2,4.27,4,4,7.75-.61,7.67-1,15.35-1.53,23-.08,1.17-.13,2.34-.2,3.51l-.88.4c-2.47-3.63-4.84-7.33-7.42-10.86-5.61-7.64-11.44-15.1-16.94-22.83-1.95-2.74-3.13-6.09-4.83-9.06a17.26,17.26,0,0,0-2.61-2.88ZM96.32,187.42l-1,.24c0,1.09,0,2.19,0,3.28.25,5.4,2.64,10,4.88,14.68.44.92,1.78,1.35,2.71,2a12.8,12.8,0,0,0-.61-3.28c-2.07-4.44-4.28-8.79-4.86-13.82A12.94,12.94,0,0,0,96.32,187.42Z"/><path class="cls-3" d="M158.36,129.78c2.29-4.79,5.89-8,6.82-12.87.19-1,2.09-2.17,3.29-2.29,5.23-.51,5.24-.38,5,5.48,0,.47-.22,1.08,0,1.38,3.7,5.36.22,11.45,1.58,17,0,.18-.26.45-.61,1-.42-.61-.75-1.07-1.05-1.54-.59-.94-1-2.27-1.79-2.75-1.58-.93-4.11-.87-5-2.17-1.3-2-2.51-2.9-4.69-2.82A22.15,22.15,0,0,1,158.36,129.78Z"/></svg>