<svg id="Layer_1" data-name="Layer 1" xmlns="http://www.w3.org/2000/svg" viewBox="0 0 333.82 432"><defs><style>.cls-1{fill:#8dc63f;}</style></defs><title>arborvitae</title><path class="cls-1" d="M92.14,296.72c3.14-.07,3.91,1.21,2.4,4.67-2.18,5-4.6,9.91-7.28,15.61,5-4.32,6.71-10.24,8.32-15.69,1.79-6.06,5.06-9.06,10.56-10.44.86,9.77-3,17.8-7,25.78l.86.47c1.4-2.78,3.16-5.41,4.12-8.37,1.72-5.29,2.73-10.88,4.5-16.14a10.11,10.11,0,0,1,4.06-5.22c2.91-1.63,6.22-2.34,10.73-3.92-2.72,9.66-5.18,18.42-7.64,27.18l1,.39c2.31-8,4.92-15.87,6.8-24,.71-3.1,1.69-4.52,4.31-4.89s5.2-.92,8.39-1.49l-1.86,7.7c2-10.07,8.67-9.09,15.55-8.91-1.51,4.61-2.87,8.73-4.23,12.85l.84.39c.93-2.51,2.23-4.94,2.72-7.57.95-5.09,3.86-6.65,7.94-6.68h5c-3.91,10.23-7.5,19.61-11.09,29,.37,1.33.74,2.68,1.12,4,1.46,1.71,1.7,3-.61,4.23-12.33,6.74-25.14,11.32-38.94,11.75-9.77.31-19.54.74-29.31.94-1.58,0-3.17-.8-4.75-1.26-.61-.18-1.3-.79-1.77-.61-4.88,1.82-9.12-1.58-13.71-2.09s-9.25-1.6-13.88-2.34a31,31,0,0,0-4.39,0,64.92,64.92,0,0,1,3.63-5.95c8.22-10.54,12.63-23.47,16.86-36.27,1.66-5,4.78-8,7.5-11.35,4.72-5.86,10.24-10.91,15.63-16,1.43-1.36,3.54-2,5.43-2.55,11.21-3.26,22-8.77,33.8-8.79a40.46,40.46,0,0,1,13.88,2.57c9.37,3.48,16.74,10.46,22.31,19.55,3.59,5.85,2.64,10.93-3.84,12.28a175,175,0,0,1-18.2,2.66c-1.87.18-3.83-.92-5.86-1.46-1.19,2.48-9.06,4.35-12.16,3.32-2.91,1.8-4.87,3.2-7,4.27-5.88,3-9.69-.86-13.81-4.85,1,1.21,1.92,2.49,3,3.6s2.37,2.18,3.81,3.48c-5.32,2.83-10.43,5.52-15.5,8.29a13,13,0,0,0-2.16,2c-2.6.91-5.47,1.32-7.75,2.85-4.1,2.76-8.15,5.18-13.07,5-.16,0-.33.31-.52.5l1.62,2.19,7.37-2.09c1.93-1.45,4.28-3.32,6.72-5C88.38,298.93,90.29,297.87,92.14,296.72Z"/><path class="cls-1" d="M216.93,215.63l-4.49-3.33v6l-1.42.51c-1.83-5-3.84-9.86-5.47-14.91-3.08-9.6-1.25-19.05,2.36-27.73,2.42-5.84,6.41-10.91,10.07-16,2.62-3.62,5.82-6.69,8.81-10,.6-.66,1.36-1.47,2.11-1.56,5.77-.67,8.68-6.42,13.17-9.34,2.89-1.88,5.76-3.8,8.64-5.71a44.34,44.34,0,0,1,5.43-3.51c3.41-1.57,6.91-2.89,10.41-4.16,6.71-2.43,13.44-4.83,20.2-7.07,1.24-.42,2.68-.06,4.64-.06-5.38,11.29-6.06,22.17-4.45,33.48.39,2.81,0,5.75,0,8.64-.14,12.46-4.42,23.07-10.82,33a114.34,114.34,0,0,1-24.16,26.86c-10.55,8.63-21.95,9.83-33.91,4-1-.51-2.11-1-3.78-1.72.85-2.47,1.71-5,2.56-7.46,2.34-2.17,4.69-4.33,6-5.51,2.06-3.6,3.07-6.93,5.13-8.57s5.28-1.73,8-2.49l0-.46h-7.4c3.44-4.15,6.09-7.36,8.76-10.55.47-.55,1.47-1,1.46-1.49-.11-4.33,2.82-6.31,5.08-8.82.66-.74,1.63-1.45,1.83-2.34,1.44-6.53,6.44-10.81,12.52-10.53.82,0,1.65,0,2.48,0v-.36l-6.76-.79,2.81-6.62,7.24-4.15-1.91-1c4.76-6.64,11-11.36,14-19.08-4.33,4.64-8.13,9.89-12.59,14.3-2.93,2.9-5.7,5.55-6.66,10a22.85,22.85,0,0,0-3.43,3.23Q242.43,176,231.71,191.71c-2.32,3.43-5.29,6.24-7,10.31-.87,2.06-2.28,5.11-4.45,3.14-.57,1.75-1.18,3.5-1.7,5.29S215.05,212.93,216.93,215.63Z"/><path class="cls-1" d="M160.87,196.54c-.16-.38-.31-.75-.46-1.14-.1,0-.24-.05-.28,0-1,1.57.83,5.77-3.25,4.53-3.71-1.13-2.12-4.67-2.59-7.26a11.48,11.48,0,0,0-1.4-4.51c.18,3.09.36,6.17.57,9.69-1.47-.36-2.62-.25-3.09-.83-3.22-4-7.9-3.57-11.89-5.2a8.26,8.26,0,0,1-5.41-6.57,40.09,40.09,0,0,0-3.69-10l3.45,13.82c-4.83-1.78-8.65-3-12.34-4.69-.78-.34-1.2-2-1.56-3.23a125.6,125.6,0,0,0-4-12.12l3.12,14.5-1,1.21c-3.17-1.61-6.3-3.35-9.54-4.75-1.1-.48-2.54.15-3.74-.16-7.46-1.92-14.9-4-22.37-5.93-.52-.14-1.16.37-1.75.42-3.74.29-7.51,1.42-11.08-1.18-.79-.58-2.2-.08-3.32-.08l-.07,1.32,16.65,2.85c4,.69,8,1.15,11.94,2.2,5.52,1.5,10.92,3.57,16.43,5.17,4.3,1.25,8.74,1.94,13,3.26s8.21,3,12.53,4.68c-.86,1.49-1.44,2.49-2,3.49,4.17-3.52,7.54-1.78,11,1.71l-5.2,6.46.39.57c1.58-1.43,3-3.23,4.79-4.2s4.15-2,5.71-1.29c3.12,1.33,5.86,3.8,9.59,6.37-3.86,4.76-7,9.8-11.09,13.27-3.43,2.9-8,4.11-12.19,5.75-2,.77-4.52,1.74-6.24,1-6.33-2.83-13.18,1.43-19.59-2.88-4.76-3.21-10.86-3.75-16-6.44-6.45-3.39-13-6.81-18.39-12.31-.86-.88-1.14-2.45-1.91-3.49q-10.81-14.64-21.76-29.17a51.39,51.39,0,0,0-4.46-4.48c4-.54,7.28-.93,10.5-1.42C65.92,164.37,70.94,158.52,77,155c8.05-4.67,16.3-8.81,25.54-7.11a175.55,175.55,0,0,1,21.56,5.87A47.7,47.7,0,0,1,143.52,165,60.76,60.76,0,0,1,160.87,196.54Zm-39.76.36-.6-.89L106.63,208.3l.58.85Z"/><path class="cls-1" d="M189.05,45.39c4.06,7.36,7.71,14.11,11.48,20.77,1.33,2.34,3.18,4.32,4.39,6.72,2,4,3.79,8.12,5.5,12.28,3.26,8,4.39,16.45,4.81,25.15.48,10.14-.08,20-3.3,29.68-2.62,7.87-6.75,14.07-13,18.42-3.51,2.42-7.33,3.72-11.46,2.73-.67-.16-1.72-1.37-1.64-1.92a23,23,0,0,1,1.59-5.82c.28-.65,1.53-.77,2.23-1.72l-7.8,1.75c.42,1,1.16,2,1.1,2.87s-1,1.46-1.62,2.19c-2.29-3.47-8.37-2-8.46-8.67,0-1.75-2.21-3.38-3.16-5.22-3.91-7.52-6.61-15.48-6-24.42a86.58,86.58,0,0,1,1.47-12.83,163.07,163.07,0,0,1,5.71-20.45c3.33-9,7.41-17.63,11.16-26.42,1.05-2.48,2-5,3.16-7.43S187.73,48,189.05,45.39ZM189.66,81c0,8.09.19,16-.06,23.86s-.78,15.79-1.47,23.66c-.63,7.27-1.62,14.51-2.44,21.63l8.75-6.49h-5.55c.61-3,.91-5.64,1.67-8.09,1.72-5.55-3.65-13.59,4.34-16.21-1.32-.81-3.77-2.09-3.7-2.29,1.08-3.19,2.48-6.25,3.51-8.64l-2.1.78C189.9,100,194.39,89.93,189.66,81Z"/><path class="cls-1" d="M141.71,141.41c-3.72-2.8-3.78-3-3-8.87l-3.08,1.56c-.72-1.82-1.45-3.65-2.37-5.95-3-.47-5.23-4.57-3.79-8.14a14.84,14.84,0,0,0,1.16-6c-.8,1.91-1.6,3.82-2.51,6l-2.7-1c5.35,10.32,10.26,20.83,18.45,29-6.57-.84-13-.9-19-2.69a32.6,32.6,0,0,1-12-6.58c-4.36-3.71-6.14-8.82-9.09-13.07s-4.33-10.44-5.65-16c-1.77-7.46-3.85-15.12-3.9-22.71,0-6.78-2.94-12.4-3.6-18.62,4,1.11,8,2.17,11.93,3.27,3.62,1,7.36,1.68,10.8,3.22a35,35,0,0,1,9,5.85c5.48,4.93,11.1,9.83,15.78,15.65,3.06,3.82,4.43,9.32,6.78,13.92,4.37,8.54,4.14,17.12.36,25.71C144.52,137.91,143,139.48,141.71,141.41Zm-32.48-48.8a61.79,61.79,0,0,0,3.08,7.24c1.23,2.08,3,3.74,4.41,5.69s2.38,4.23,4,5.83c1.43,1.44-.35,5.7,4.22,5L111.82,93.17Z"/><path class="cls-1" d="M232.58,288.78c.67-3.12.9-6.44,2.07-9.26,3.52-8.5,7.44-16.79,11.13-25.21,1.52-3.49,2.78-7.14,4.27-10.66,1.75-4.12,5-5.55,8.77-6.21a31.06,31.06,0,0,0,8.1-2.46h-8.65a15.54,15.54,0,0,1,2-1.82,67,67,0,0,1,6-3.21,8.42,8.42,0,0,1,4-1.08c5.69.55,8.91-3.33,11.77-8,.28-.46.37-1.25.74-1.47,3.32-2,5.14-4.77,3.75-9.54l1.25.33c0,5.1.24,10.22-.07,15.3-.32,5.31-.51,10.83-2,15.8-2.26,7.79-3.45,16.28-8.85,22.54-6.19,7.19-12.27,14.5-18.64,21.49a12.73,12.73,0,0,1-6.47,3.94C245.54,290.44,239.22,292.53,232.58,288.78Z"/><path class="cls-1" d="M168.88,182c2.93,4.47,6.16,8.74,8.72,13.47a81.11,81.11,0,0,1,4.92,12.37c1.15,3.34,1,8.66,3,9.94,4.76,3,3.63,8.36,5.42,12.42,1.07,2.44,1.24,5.4,1.81,8.13l1.21-.22,1.34-3.36a13.43,13.43,0,0,0,.65,1.74c1,1.67,2.19,3.27,3.15,5a5.67,5.67,0,0,1,.42,2.4c.1,3.25-.29,6.6.25,9.75,1.75,10.25,3.81,20.44,5.79,30.64,1.66,8.53,3.26,17.07,5.12,25.55a53.73,53.73,0,0,0,2.7,7.59l4.63,2.21c-.82,2.19-1.57,4.42-2.48,6.56a14.22,14.22,0,0,1-1.67,2.46l1.68,1.2c2.26-5.26,4.51-10.52,7-16.25-1.34,6.58-2.16,12.82-3.94,18.68-1.72,5.7-.29,11,.15,16.5.27,3.35.55,6.71.83,10.06l-1.12.5,4.55,1.31c.75,7.31,1.14,15,2.43,22.55s2.05,14.7.24,22l-1.19.14c-.77-5.38-1.5-10.78-2.33-16.15-.72-4.71-1.71-9.37-2.34-14.1-1.5-11.41-8-17.4-16.85-21.57l11,3.88c2.58-5.45.46-11.7-.61-17.6-3.05-16.73-6.88-33.27-10.12-50-1.33-6.85-4.41-11.1-10.6-12.38a35.65,35.65,0,0,1-7.63-2.65l12.3,1.5c-.14-3.07-3-6.12,1.58-7.15-3.92-12-7.78-23.81-11.64-35.61a3.29,3.29,0,0,1-.17-.39c-2.58-10-6.32-19-15.85-22.92l6.6,2.54c-.39-1.65-1.43-3.55-1.05-5,1.29-4.76-1.09-8.22-2.64-12-1.87-4.54-3.84-9-5.77-13.55a4.41,4.41,0,0,0,.58-.28Z"/><path class="cls-1" d="M214.87,239.68l3.72-2.66c.87,1.36,1.66,3.26,3,4.45,1.61,1.47,3.68,2.29,5.5,3.5,2.56,1.71,3.51-.59,5-2.17.55-.59,2.2-.51,3,0a73,73,0,0,1,6,4.36l4-1.76.51.88a21.62,21.62,0,0,0-1.68,2.59c-.72,1.49-1.27,3.08-1.92,4.61-1.16,2.75-2.29,5.52-3.56,8.2-.17.36-1,.3-1.61.43,1.15,5.56-5.07,20.63-9,20.79l1.13,4.07c-3.69-.35-6.55-1.23-8.16-4.81-1.47-3.29-2.68-6.74-4.22-10-2.77-5.81-2.8-12.1-2.83-18.41,0-4.79,0-9.59,0-14.38Z"/><path class="cls-1" d="M200.76,343.87c-2.85-.74-6.16-.68-8.48-2.37-7.19-5.25-12.36-12.41-13.84-22.38-1-7,1.14-13.34,2.9-19.79.74-2.69,1.55-5.37,2.6-9,1.5,3.53,2.27,6.38,3.76,8.61a69.3,69.3,0,0,0,8.46,10.8c8.4,8.33,8.38,18.64,6.59,29.83-.44,2.75.93,5.86,1.47,8.83l-3.58-4.61c-.38-2.38-.77-4.76-1.15-7.14l-2.06.41c.14,1.16,0,2.51.49,3.42A20.34,20.34,0,0,0,200.76,343.87Zm-7.16-17.18c-3.59,1.44-3.59,1.44-2.61-5.11l-5.28-1c1.38,3.79,1.63,8.5,6.55,9.63Z"/><path class="cls-1" d="M167,277.87c0,3.71-.65,7.07.15,9.91,1.38,4.93-1.61,7.6-2.95,10.93l-4.7-7.35C160.6,283.68,162.51,279.69,167,277.87Z"/><path class="cls-1" d="M152.23,311.46c-.38-1.35-.75-2.7-1.12-4,3.53-1.54,3-6.54,6.35-9.05-.46,2.35-.84,4.29-1.21,6.24l1.09.29,1.42-3.53.86.15c-.49,2.68-.35,5.89-1.67,7.84C157,310.76,155,314.11,152.23,311.46Z"/><path class="cls-1" d="M168.88,182l.08,0a2.61,2.61,0,0,0,0-.79l6.4.67,2.42-6.67.76.33c-1.24,4-2.48,8-3.92,12.59Z"/><path class="cls-1" d="M168.92,181.27a2.61,2.61,0,0,1,0,.79,6.11,6.11,0,0,1-.58.27c-3.08-3.76-6.15-7.55-7.26-12.64l1.11-.79Z"/><path class="cls-1" d="M161.73,166a1.3,1.3,0,0,1-.26-.14c0-.2.11-.4.17-.6.08,0,.24.1.23.12C161.84,165.58,161.78,165.78,161.73,166Z"/><path class="cls-1" d="M92.14,296.72c-1.85,1.15-3.76,2.21-5.56,3.47-2.44,1.72-4.79,3.59-6.72,5l-7.37,2.09-1.62-2.19c.19-.19.36-.5.52-.5,4.92.21,9-2.21,13.07-5,2.28-1.53,5.15-1.94,7.75-2.85Z"/><path class="cls-1" d="M256.73,157.14c1-4.43,3.73-7.08,6.66-10,4.46-4.41,8.26-9.66,12.59-14.3-3,7.72-9.25,12.44-14,19.08l1.91,1-7.24,4.15Z"/><path class="cls-1" d="M121.11,196.9l-13.9,12.25-.58-.85L120.51,196Z"/><path class="cls-1" d="M109.23,92.61l2.59.56,13.09,23.21c-4.57.69-2.79-3.57-4.22-5-1.59-1.6-2.59-3.93-4-5.83s-3.18-3.61-4.41-5.69A61.79,61.79,0,0,1,109.23,92.61Z"/><path class="cls-1" d="M193.6,326.69l-1.34,3.54c-4.92-1.13-5.17-5.84-6.55-9.63l5.28,1C190,328.13,190,328.13,193.6,326.69Z"/><path class="cls-1" d="M200.76,343.87a20.34,20.34,0,0,1-2.84-3.4c-.49-.91-.35-2.26-.49-3.42l2.06-.41c.38,2.38.77,4.76,1.15,7.14Z"/></svg>