<svg id="Layer_1" data-name="Layer 1" xmlns="http://www.w3.org/2000/svg" viewBox="0 0 333.82 432"><defs><style>.cls-1{fill:#fff;}.cls-2{fill:#99c864;}</style></defs><title>Artboard 84</title><path class="cls-1" d="M152.05,351.7c-1.9.86-3.2,1.49-4.54,2.06-3.58,1.52-4.5,7.55-2,10,5.43,5.28,11.27,10.12,18.8,12.93,11.47,4.29,22.62,5.54,32.29-3.57,1.73-1.63,6.1-.46,6.77,1.65,1.81,5.68,3.63,11.35,5.4,17,1.48,4.8,3.33,9.58,1.29,14.64,2.44,1,2.8-3.77,5.68-1.06,1.21-2.82.42-5-1.21-7.08a23.25,23.25,0,0,1-3-4.85,81.66,81.66,0,0,1-3-8.76c-1.53-5.36-2.9-10.76-4.43-16.51,2-.2,3.91-1,5-.42,8,4,15.8,2.92,23.12-.9,9.63-5,15.89-12.74,19.79-21.87.94-2.21,2-4.69.37-7.23-.28-.43.4-1.75,1.06-2.19,3.79-2.56,6.27-5.94,8.51-9.58,1.88-3.07,1.25-5.83-.67-8.6s-5.12-3.36-8.43-3.23c-5.14.2-10.27.66-15.62,1,2-1.16,4.19-2,5.77-3.34,5.14-4.38,10.2-8.84,15-13.49a27.19,27.19,0,0,0,4.94-6.75c1.56-2.91-.07-5.64-3.42-7.09-4.69-2-9.55-2-14.54-1.34a33.11,33.11,0,0,1-4.35,0c.14-.6.12-.78.21-.85a15.45,15.45,0,0,1,1.79-1.34,61.1,61.1,0,0,0,16-13.36,27.26,27.26,0,0,0,3.42-4.94c1.64-3.23-.07-6.69-3.6-8.4-4.23-2.05-8.77-1.5-13.19-1.26-4.62.26-9.2,1.05-14.18,1.65,3.82-2.74,7.54-5.17,10.94-7.9,6-4.8,11-10.27,14-17,1.19-2.66,2.12-5.18-.41-7.91-1.49-1.6-2.84-2.73-5.18-2.62s-4.55.38-6.83.46c-1.65,0-3.32-.1-5.53-.18a12,12,0,0,1,1.36-1.37c7.13-4.42,11.64-10.59,15.19-17.44a5.12,5.12,0,0,0-4.17-7.23,65.57,65.57,0,0,0-8.87-.48c-6.09.07-12.11.64-17.65,3.16-.79.36-1.62.64-2.43,1l-.24-.52c.46-.36.89-.73,1.37-1.06,3.84-2.74,8-5.2,11.48-8.28a48.22,48.22,0,0,0,11.1-14.11,21.55,21.55,0,0,0,1.93-4.66c.84-3.65-2.27-7.14-6.47-7.38-6.53-.38-12.62,1.23-18.54,3.44-2.7,1-5.33,2.13-8.54,3.42,3.74-3.37,7.07-6.25,10.23-9.26a77,77,0,0,0,6-6.4c3-3.63,5.95-7.33,6.48-12a5.64,5.64,0,0,0-5.11-6.18,19.72,19.72,0,0,0-5.15-.08,65.83,65.83,0,0,0-20.4,6.21c-.92.44-1.87.84-2.81,1.26a1,1,0,0,1,.43-1.07,48.39,48.39,0,0,0,10.51-8.86A29.41,29.41,0,0,0,222,111.05a4.1,4.1,0,0,0-5.42-4,88.51,88.51,0,0,0-13.52,4.7c-4.53,2.08-8.66,4.82-13.06,7.33,3.92-4.61,7.93-9,11.47-13.6,3.4-4.46,5.23-9.47,4.31-15a4.52,4.52,0,0,0-5.6-3.79,48.36,48.36,0,0,0-9.73,2.93,93.49,93.49,0,0,0-8.74,4.71c2.79-4.94,5.93-9.9,8.43-15.11a18,18,0,0,0,1.28-11.83c-.72-3.27-5.21-6-8.78-4.35-1.67.76-3.37,1.48-5,2.34s-3,1.83-5,3c.08-2.84.16-5.23.2-7.62a16.47,16.47,0,0,0-5.15-12.17,5.33,5.33,0,0,0-2.64-1.55,38.75,38.75,0,0,0-6.72-.48,6.12,6.12,0,0,0-3.48,1c-2,1.63-4.14,3.32-5.4,5.38a27.52,27.52,0,0,0-3.83,17.27c.66,7.07,2.32,13.83,7.66,19.48.4.41.41,1.11.59,1.68l-.68.19a12.39,12.39,0,0,0-.94-1.12c-4.19-3.92-8-8.23-12.69-11.62a24.07,24.07,0,0,0-18.95-4.58c-4.05.75-6,3.5-4.9,7a21.52,21.52,0,0,0,5.5,9.55c2.83,2.7,5.57,5.47,8.33,8.2-3.34.06-6.69.18-10,.16-6.48,0-9.59,4.34-6.34,9.2,2,3,4.33,5.72,6.5,8.57a1.73,1.73,0,0,1,.28.46c-1.3.52-2.53,1-3.73,1.49-2.67,1.15-4.25,5-3,7.34a40.47,40.47,0,0,0,16.38,16.51,7.75,7.75,0,0,1,1.19,1l-.27.54c-2.54-.32-5.1-.56-7.63-1a19.46,19.46,0,0,0-10.62.92c-3.55,1.45-5.28,5.69-3.38,8.6a78.89,78.89,0,0,0,5.51,7.47c4.06,4.87,9.45,8.39,15.46,11.31a3,3,0,0,1-1.36.08,33.44,33.44,0,0,0-17.17,1.1,6.26,6.26,0,0,0-2.91,1.92c-2.07,2.63-2.2,5.43,0,8.08,2.78,3.33,5.5,6.73,8.56,9.85a43.67,43.67,0,0,0,16.61,10.29c2,.72,3.89,1.68,5.83,2.53l-.34.57c-.7-.1-1.38-.23-2.08-.32-7.88-.94-15.7-1-23.27,1.53a6.17,6.17,0,0,0-3.23,2.16,6.46,6.46,0,0,0,.79,8c5.51,6.45,12,11.87,20.43,15.28.8.32,1.57.68,2.72,1.18-5.06,1.12-9.54,2.14-14,3.09-5.81,1.23-8.4,7.94-4,11.76,2.91,2.51,6,4.9,9.07,7.23,2,1.5,4.18,2.78,6.53,4.32a48,48,0,0,0-5.56,1.53A28.27,28.27,0,0,0,122,264.2c-2.89,1.82-4,6-2.21,8.66a26.55,26.55,0,0,0,3.07,3.67c3.69,3.88,8.67,6.28,13.35,9.08a77,77,0,0,0,25.35,9.17c6.76,1.27,13.72,1.26,19.8-2.42a11.18,11.18,0,0,1,7-1.8c2,.14,2.71.65,2.82,2.38.47,7.62,1.06,15.23,1.59,22.85a3.5,3.5,0,0,1-.2.95c-3.36,0-4.21-.71-5-3.3-2.36-7.42-7.07-13.14-16-14.92-8-1.6-16.21-2.65-24.35-3.85-6.59-1-13,0-19.27,1.83-5.41,1.57-8.07,8.2-3.14,12a17,17,0,0,0,1.57,1.26c4.65,2.69,9.15,5.62,14,8,5.83,2.83,11.74,5.66,18.38,6.9.08,0,.13.19.26.4-.52.05-1,.11-1.42.13-8,.52-15.34,2.59-21.55,7.42-3.2,2.49-4,8.32.36,10.81s8.63,4.77,13,7.13C150.05,350.89,150.84,351.17,152.05,351.7Z"/><path class="cls-2" d="M152.05,351.7c-1.21-.53-2-.81-2.71-1.2-4.33-2.36-8.69-4.69-13-7.13s-3.56-8.32-.36-10.81c6.21-4.83,13.5-6.9,21.55-7.42.45,0,.9-.08,1.42-.13-.13-.21-.18-.38-.26-.4-6.64-1.24-12.55-4.07-18.38-6.9-4.87-2.35-9.37-5.28-14-8a17,17,0,0,1-1.57-1.26c-4.93-3.78-2.27-10.41,3.14-12,6.27-1.82,12.68-2.8,19.27-1.83,8.14,1.2,16.31,2.25,24.35,3.85,8.92,1.78,13.63,7.5,16,14.92.83,2.59,1.68,3.27,5,3.3a3.5,3.5,0,0,0,.2-.95c-.53-7.62-1.12-15.23-1.59-22.85-.11-1.73-.78-2.24-2.82-2.38a11.18,11.18,0,0,0-7,1.8c-6.08,3.68-13,3.69-19.8,2.42a77,77,0,0,1-25.35-9.17c-4.68-2.8-9.66-5.2-13.35-9.08a26.55,26.55,0,0,1-3.07-3.67c-1.77-2.7-.68-6.84,2.21-8.66a28.27,28.27,0,0,1,4.57-2.53,48,48,0,0,1,5.56-1.53c-2.35-1.54-4.54-2.82-6.53-4.32-3.1-2.33-6.16-4.72-9.07-7.23-4.44-3.82-1.85-10.53,4-11.76,4.49-1,9-2,14-3.09-1.15-.5-1.92-.86-2.72-1.18-8.43-3.41-14.92-8.83-20.43-15.28a6.46,6.46,0,0,1-.79-8,6.17,6.17,0,0,1,3.23-2.16c7.57-2.53,15.39-2.47,23.27-1.53.7.09,1.38.22,2.08.32l.34-.57c-1.94-.85-3.83-1.81-5.83-2.53a43.67,43.67,0,0,1-16.61-10.29c-3.06-3.12-5.78-6.52-8.56-9.85-2.22-2.65-2.09-5.45,0-8.08a6.26,6.26,0,0,1,2.91-1.92,33.44,33.44,0,0,1,17.17-1.1,3,3,0,0,0,1.36-.08c-6-2.92-11.4-6.44-15.46-11.31a78.89,78.89,0,0,1-5.51-7.47c-1.9-2.91-.17-7.15,3.38-8.6a19.46,19.46,0,0,1,10.62-.92c2.53.4,5.09.64,7.63,1l.27-.54a7.75,7.75,0,0,0-1.19-1,40.47,40.47,0,0,1-16.38-16.51c-1.27-2.33.31-6.19,3-7.34,1.2-.51,2.43-1,3.73-1.49a1.73,1.73,0,0,0-.28-.46c-2.17-2.85-4.53-5.62-6.5-8.57-3.25-4.86-.14-9.23,6.34-9.2,3.35,0,6.7-.1,10-.16-2.76-2.73-5.5-5.5-8.33-8.2a21.52,21.52,0,0,1-5.5-9.55c-1.09-3.47.85-6.22,4.9-7a24.07,24.07,0,0,1,18.95,4.58c4.68,3.39,8.5,7.7,12.69,11.62a12.39,12.39,0,0,1,.94,1.12l.68-.19c-.18-.57-.19-1.27-.59-1.68-5.34-5.65-7-12.41-7.66-19.48A27.52,27.52,0,0,1,149.52,53c1.26-2.06,3.41-3.75,5.4-5.38a6.12,6.12,0,0,1,3.48-1,38.75,38.75,0,0,1,6.72.48,5.33,5.33,0,0,1,2.64,1.55,16.47,16.47,0,0,1,5.15,12.17c0,2.39-.12,4.78-.2,7.62,1.95-1.19,3.41-2.18,5-3s3.31-1.58,5-2.34c3.57-1.61,8.06,1.08,8.78,4.35a18,18,0,0,1-1.28,11.83c-2.5,5.21-5.64,10.17-8.43,15.11a93.49,93.49,0,0,1,8.74-4.71,48.36,48.36,0,0,1,9.73-2.93,4.52,4.52,0,0,1,5.6,3.79c.92,5.5-.91,10.51-4.31,15-3.54,4.63-7.55,9-11.47,13.6,4.4-2.51,8.53-5.25,13.06-7.33a88.51,88.51,0,0,1,13.52-4.7,4.1,4.1,0,0,1,5.42,4,29.41,29.41,0,0,1-8.15,20.54,48.39,48.39,0,0,1-10.51,8.86,1,1,0,0,0-.43,1.07c.94-.42,1.89-.82,2.81-1.26a65.83,65.83,0,0,1,20.4-6.21,19.72,19.72,0,0,1,5.15.08,5.64,5.64,0,0,1,5.11,6.18c-.53,4.71-3.46,8.41-6.48,12a77,77,0,0,1-6,6.4c-3.16,3-6.49,5.89-10.23,9.26,3.21-1.29,5.84-2.42,8.54-3.42,5.92-2.21,12-3.82,18.54-3.44,4.2.24,7.31,3.73,6.47,7.38a21.55,21.55,0,0,1-1.93,4.66,48.22,48.22,0,0,1-11.1,14.11c-3.47,3.08-7.64,5.54-11.48,8.28-.48.33-.91.7-1.37,1.06l.24.52c.81-.32,1.64-.6,2.43-1,5.54-2.52,11.56-3.09,17.65-3.16a65.57,65.57,0,0,1,8.87.48,5.12,5.12,0,0,1,4.17,7.23c-3.55,6.85-8.06,13-15.19,17.44a12,12,0,0,0-1.36,1.37c2.21.08,3.88.23,5.53.18,2.28-.08,4.55-.36,6.83-.46s3.69,1,5.18,2.62c2.53,2.73,1.6,5.25.41,7.91-3,6.74-8.05,12.21-14,17-3.4,2.73-7.12,5.16-10.94,7.9,5-.6,9.56-1.39,14.18-1.65,4.42-.24,9-.79,13.19,1.26,3.53,1.71,5.24,5.17,3.6,8.4a27.26,27.26,0,0,1-3.42,4.94,61.1,61.1,0,0,1-16,13.36,15.45,15.45,0,0,0-1.79,1.34c-.09.07-.07.25-.21.85a33.11,33.11,0,0,0,4.35,0c5-.64,9.85-.69,14.54,1.34,3.35,1.45,5,4.18,3.42,7.09a27.19,27.19,0,0,1-4.94,6.75c-4.82,4.65-9.88,9.11-15,13.49-1.58,1.35-3.72,2.18-5.77,3.34,5.35-.36,10.48-.82,15.62-1,3.31-.13,6.47.42,8.43,3.23s2.55,5.53.67,8.6c-2.24,3.64-4.72,7-8.51,9.58-.66.44-1.34,1.76-1.06,2.19,1.67,2.54.57,5-.37,7.23-3.9,9.13-10.16,16.85-19.79,21.87-7.32,3.82-15.13,4.88-23.12.9-1.1-.54-3,.22-5,.42,1.53,5.75,2.9,11.15,4.43,16.51a81.66,81.66,0,0,0,3,8.76,23.25,23.25,0,0,0,3,4.85c1.63,2.12,2.42,4.26,1.21,7.08-2.88-2.71-3.24,2-5.68,1.06,2-5.06.19-9.84-1.29-14.64-1.77-5.69-3.59-11.36-5.4-17-.67-2.11-5-3.28-6.77-1.65-9.67,9.11-20.82,7.86-32.29,3.57-7.53-2.81-13.37-7.65-18.8-12.93-2.53-2.47-1.61-8.5,2-10C148.85,353.19,150.15,352.56,152.05,351.7Zm12.53-223.81a14.06,14.06,0,0,1,.74,1.92c1.38,5.75,2.68,11.52,4.1,17.27.65,2.62,1.81,3,4.62,1.58a22,22,0,0,1-.81-2.94,20.42,20.42,0,0,1-.37-5.32c.77-5.57,4.42-9.76,8.79-13.59,2.25-2,4.34-4.08,6.5-6.12a2,2,0,0,0-1.62.18c-5.37,3-10.91,5.5-17.6,4.65a4.25,4.25,0,0,0-1.15.16c-.57-2.2-1.58-4.39-1.64-6.6-.16-6,2.85-11.11,6.85-15.8,1-1.23,2.07-2.47,3.1-3.7l-.41-.36a23,23,0,0,1-2.12,1.18c-3.08,1.29-6.17,2.58-9.31,3.79-1.25.48-2.42.48-3-1-1.62-4.35-3.44-8.67-1.86-13.37a13.94,13.94,0,0,0,.39-2.5c-5.27,2.07-5.74,3-4.43,7.4.76,2.52,1.16,5.11,1.72,7.68l-1.34-4-.64.08a37.76,37.76,0,0,0,0,5.63c.08.59,1.33,1.08,2.1,1.54a6.77,6.77,0,0,0,.84-.79l2.87.75-2,1.21c-1.07-.17-2.13-.39-3.21-.49-2.84-.26-5.69-.46-8.54-.69l-.09.63c.24.16.47.34.72.48,7.36,4.11,11.87,9.74,12.09,17.63.06,2.17,1.74,2,3.48,2.2L163,123c2.16,3.44,2.16,3.44,4.9,2.69L164.61,128a20.76,20.76,0,0,0-11.09.41c2.33,2.23,4.73,4.32,6.87,6.61,3.39,3.6,5.92,7.67,5.42,12.49-.25,2.41.89,2.83,3.23,3.06a22.77,22.77,0,0,0-.32-2.37c-1.47-6.25-3-12.48-4.42-18.73A4,4,0,0,1,164.58,127.89Zm19.48,103c.6,3.47,1.18,7,1.83,10.58q1.38,7.5,2.83,15a3.38,3.38,0,0,0,3.91,3c1.74-.23,2.25-1.41,1.9-3.84-.22-1.49-.65-3.13-.21-4.51,1.26-4,2.72-8,6-11.15,2.2-2.12,4.31-4.3,6.26-6.25-4.46-.78-8.87-1.19-13-2.4C190.48,230.35,187.59,229.54,184.06,230.85Zm4.93-2.12c-1.08-12.59,8-19.56,18.34-25.92a12.69,12.69,0,0,0-2.7.44c-4.29,1-8.61,1.67-13,.57-3.93-1-7.84-1.67-12,.25,1.19,7.16,2.37,14.55,3.66,21.93C183.76,228.81,185.46,229.63,189,228.73Zm-10.23-22.55c-3.46-.62-6.36-.77-9.33.43A31.3,31.3,0,0,1,156.87,209c-1.61,0-3.23,0-4.85.06l-.15.59c4.5,2,8.91,4.1,13.51,5.86a14.46,14.46,0,0,1,7.05,5.28,65.7,65.7,0,0,1,4.67,8.34c1.17,2.44,2.47,3.26,6.06,2.84Q181,219,178.76,206.18ZM152,179c1.52.91,3.35,1.82,4.94,3,7.18,5.27,14.09,10.72,15.95,19.42.53,2.51,2.39,3.37,6.1,2.89-1.28-9.1-2.57-18.2-3.89-27.57-2.91.25-5.58.44-8.24.71C161.84,177.9,156.87,178.44,152,179Zm37.08,82c.19.89.43,1.69.53,2.5.51,4.48,1,9,1.48,13.45.35,3,.71,6.07,1.24,9.08a3,3,0,0,0,3.51,2.67c2.49-.19,1.64-1.91,1.54-3-.37-4.12-.09-8.24,2.79-11.54a74.17,74.17,0,0,1,9.49-8.57,68.8,68.8,0,0,1,7-4.4c-.16-.12-.22-.2-.27-.19-.53.1-1.06.19-1.57.32-5.37,1.41-10.85,2.18-16.22.46C195.36,260.68,192.37,259.93,189,260.93Zm13.78-87.55c-.51-.12-.68-.21-.78-.17a40.45,40.45,0,0,1-21,1.84c-2.15-.37-4.77,1.9-4.53,3.8.83,6.62,1.74,13.23,2.51,19.85.4,3.36,1.47,4.09,5.38,3.15,0-.57-.06-1.18-.06-1.79,0-4.84.29-9.66,4.08-13.54,3.37-3.44,7-6.68,10.54-10C200.11,175.47,201.42,174.51,202.82,173.38Zm-38.6,65.82c2.43,1.46,5.31,3,7.92,4.81,5,3.5,9.27,7.51,10.42,13.37.51,2.56,1.79,3.37,5.38,2.86q-2.38-13.28-4.77-26.52c-2-.07-4-.6-5.42-.09C173.09,235.3,168.62,237.35,164.22,239.2Zm54,83a26.77,26.77,0,0,1-4.31-.32c-3.87-1-7.89-1.86-11.47-3.45a9.12,9.12,0,0,0-6.12-.91c-1.17.25-1.6.66-1.42,1.7.21,1.23.29,2.48.49,3.71.83,5.28,1.65,10.57,2.58,15.84a5.1,5.1,0,0,0,1.41,2.74,4,4,0,0,0,2.75.81c.45,0,1.12-1.17,1.13-1.82.09-5.83,1.9-10.95,7.62-14.43C213,324.77,215.39,323.69,218.19,322.22Zm-19-6.05a20.51,20.51,0,0,1,2.68-13.37,25.08,25.08,0,0,1,10.86-9.44c-4.25-1-8.39-1.63-12.13-3.05-2.9-1.1-5.36-.74-8-.11.09,1.34.16,2.58.26,3.82.49,6.37.93,12.73,1.52,19.09C194.58,315.88,195.9,316.69,199.15,316.17ZM179.8,352.28l0,.55c1.34.52,2.65,1.15,4,1.55a15.37,15.37,0,0,1,9.3,6.9,26.72,26.72,0,0,1,3,6.08c.6,2,2,2.81,4,3.33,1.48.38,2.14,0,1.93-1.35-.17-1.1-.38-2.19-.61-3.28-1.36-6.18-2.69-12.36-4.14-18.53-.25-1.06-.82-2.75-1.59-2.91-1.77-.39-4-.76-5.45.86A22.23,22.23,0,0,1,179.8,352.28Zm16.34-9.83a17.12,17.12,0,0,0,0-2.16c-.86-6.33-1.71-12.65-2.68-19-.14-.92-.79-2.47-1.35-2.53-1.79-.18-3.82-1-5.39.86-2.71,3.19-6.58,4.82-10.89,5.74a19.65,19.65,0,0,0-2,.73c1.61.6,2.66,1.06,3.76,1.4A18.87,18.87,0,0,1,190.18,339C191.23,341.64,192.39,342.32,196.14,342.45ZM191,288.82c-1-9-2-17.81-2.95-26.65-2.21,0-4.12-.52-5.43.05-3.6,1.55-7,3.55-10.46,5.39,1.87,1.5,3.85,3,5.66,4.56,4.18,3.7,7.53,7.78,7.85,13.3C185.79,288.36,186.83,289,191,288.82ZM192.07,148l-.29-.47c-5.51,2.2-11.25,2.17-17.07,1.83a3.53,3.53,0,0,0-3.72,4.07c1.36,6.47,2.76,12.93,4.15,19.4.58,2.72,1.71,3.12,4.39,1.71-.21-2.54-.8-5-.56-7.46.66-6.68,4.42-12,10-16.41C190.07,149.85,191.05,148.91,192.07,148Zm-39.94,4.21c.63.37,1,.58,1.39.81,8,5.2,14.75,11.21,16.42,20.41.36,1.93,1.72,2.45,5,1.93-1.65-7-3.23-14.08-5-21.1-.6-2.4-2.78-3.65-5.65-3.39C160.35,151.25,156.41,151.75,152.13,152.23ZM211.6,349c-2.09-1.38-4.43-2.75-6.54-4.37-1.92-1.47-4-1.74-6.62-.29l5.69,22.87c3.82,0,3.8-.18,3.71-3a31.91,31.91,0,0,1,.57-8.4C209,353.49,210.49,351.3,211.6,349Z"/><path class="cls-1" d="M184.06,230.85c3.53-1.31,6.42-.5,9.57.43,4.11,1.21,8.52,1.62,13,2.4-2,1.95-4.06,4.13-6.26,6.25-3.31,3.18-4.77,7.15-6,11.15-.44,1.38,0,3,.21,4.51.35,2.43-.16,3.61-1.9,3.84a3.38,3.38,0,0,1-3.91-3q-1.44-7.49-2.83-15C185.24,237.88,184.66,234.32,184.06,230.85Z"/><path class="cls-1" d="M189,228.73c-3.53.9-5.23.08-5.72-2.73-1.29-7.38-2.47-14.77-3.66-21.93,4.18-1.92,8.09-1.23,12-.25,4.39,1.1,8.71.47,13-.57a12.69,12.69,0,0,1,2.7-.44C197,209.17,187.91,216.14,189,228.73Z"/><path class="cls-1" d="M178.76,206.18q2.19,12.84,4.4,25.76c-3.59.42-4.89-.4-6.06-2.84a65.7,65.7,0,0,0-4.67-8.34,14.46,14.46,0,0,0-7.05-5.28c-4.6-1.76-9-3.89-13.51-5.86L152,209c1.62,0,3.24-.1,4.85-.06a31.3,31.3,0,0,0,12.56-2.36C172.4,205.41,175.3,205.56,178.76,206.18Z"/><path class="cls-1" d="M152,179c4.91-.52,9.88-1.06,14.86-1.56,2.66-.27,5.33-.46,8.24-.71,1.32,9.37,2.61,18.47,3.89,27.57-3.71.48-5.57-.38-6.1-2.89-1.86-8.7-8.77-14.15-15.95-19.42C155.31,180.78,153.48,179.87,152,179Z"/><path class="cls-1" d="M189,260.93c3.33-1,6.32-.25,9.5.77,5.37,1.72,10.85.95,16.22-.46.51-.13,1-.22,1.57-.32,0,0,.11.07.27.19a68.8,68.8,0,0,0-7,4.4,74.17,74.17,0,0,0-9.49,8.57c-2.88,3.3-3.16,7.42-2.79,11.54.1,1.1.95,2.82-1.54,3a3,3,0,0,1-3.51-2.67c-.53-3-.89-6-1.24-9.08-.53-4.48-1-9-1.48-13.45C189.47,262.62,189.23,261.82,189,260.93Z"/><path class="cls-1" d="M202.82,173.38c-1.4,1.13-2.71,2.09-3.88,3.17-3.55,3.29-7.17,6.53-10.54,10-3.79,3.88-4.1,8.7-4.08,13.54,0,.61,0,1.22.06,1.79-3.91.94-5,.21-5.38-3.15-.77-6.62-1.68-13.23-2.51-19.85-.24-1.9,2.38-4.17,4.53-3.8a40.45,40.45,0,0,0,21-1.84C202.14,173.17,202.31,173.26,202.82,173.38Z"/><path class="cls-1" d="M164.22,239.2c4.4-1.85,8.87-3.9,13.53-5.57,1.44-.51,3.37,0,5.42.09q2.39,13.25,4.77,26.52c-3.59.51-4.87-.3-5.38-2.86-1.15-5.86-5.42-9.87-10.42-13.37C169.53,242.18,166.65,240.66,164.22,239.2Z"/><path class="cls-1" d="M218.19,322.22c-2.8,1.47-5.17,2.55-7.34,3.87-5.72,3.48-7.53,8.6-7.62,14.43,0,.65-.68,1.79-1.13,1.82a4,4,0,0,1-2.75-.81,5.1,5.1,0,0,1-1.41-2.74c-.93-5.27-1.75-10.56-2.58-15.84-.2-1.23-.28-2.48-.49-3.71-.18-1,.25-1.45,1.42-1.7a9.12,9.12,0,0,1,6.12.91c3.58,1.59,7.6,2.42,11.47,3.45A26.77,26.77,0,0,0,218.19,322.22Z"/><path class="cls-1" d="M199.15,316.17c-3.25.52-4.57-.29-4.82-3.06-.59-6.36-1-12.72-1.52-19.09-.1-1.24-.17-2.48-.26-3.82,2.65-.63,5.11-1,8,.11,3.74,1.42,7.88,2,12.13,3.05a25.08,25.08,0,0,0-10.86,9.44A20.51,20.51,0,0,0,199.15,316.17Z"/><path class="cls-1" d="M179.8,352.28a22.23,22.23,0,0,0,10.47-6.8c1.42-1.62,3.68-1.25,5.45-.86.77.16,1.34,1.85,1.59,2.91,1.45,6.17,2.78,12.35,4.14,18.53.23,1.09.44,2.18.61,3.28.21,1.37-.45,1.73-1.93,1.35-2-.52-3.38-1.32-4-3.33a26.72,26.72,0,0,0-3-6.08,15.37,15.37,0,0,0-9.3-6.9c-1.39-.4-2.7-1-4-1.55Z"/><path class="cls-1" d="M196.14,342.45c-3.75-.13-4.91-.81-6-3.41a18.87,18.87,0,0,0-12.64-11.51c-1.1-.34-2.15-.8-3.76-1.4a19.65,19.65,0,0,1,2-.73c4.31-.92,8.18-2.55,10.89-5.74,1.57-1.84,3.6-1,5.39-.86.56.06,1.21,1.61,1.35,2.53,1,6.31,1.82,12.63,2.68,19A17.12,17.12,0,0,1,196.14,342.45Z"/><path class="cls-1" d="M191,288.82c-4.12.18-5.16-.46-5.33-3.35-.32-5.52-3.67-9.6-7.85-13.3-1.81-1.6-3.79-3.06-5.66-4.56,3.5-1.84,6.86-3.84,10.46-5.39,1.31-.57,3.22-.07,5.43-.05C189,271,190,279.85,191,288.82Z"/><path class="cls-1" d="M192.07,148c-1,.89-2,1.83-3.07,2.67-5.61,4.4-9.37,9.73-10,16.41-.24,2.43.35,4.92.56,7.46-2.68,1.41-3.81,1-4.39-1.71-1.39-6.47-2.79-12.93-4.15-19.4a3.53,3.53,0,0,1,3.72-4.07c5.82.34,11.56.37,17.07-1.83Z"/><path class="cls-1" d="M167.88,125.64c-2.74.75-2.74.75-4.9-2.69l0,.1-1.49-7.73,0,.09L159,106.76l.05.07,2-1.21-2.87-.75-1-2.49c-.56-2.57-1-5.16-1.72-7.68-1.31-4.37-.84-5.33,4.43-7.4a13.94,13.94,0,0,1-.39,2.5c-1.58,4.7.24,9,1.86,13.37.55,1.5,1.72,1.5,3,1,3.14-1.21,6.23-2.5,9.31-3.79a23,23,0,0,0,2.12-1.18l.41.36c-1,1.23-2.06,2.47-3.1,3.7-4,4.69-7,9.78-6.85,15.8.06,2.21,1.07,4.4,1.64,6.6Z"/><path class="cls-1" d="M164.61,128l3.27-2.32-.1,0a4.25,4.25,0,0,1,1.15-.16c6.69.85,12.23-1.65,17.6-4.65a2,2,0,0,1,1.62-.18c-2.16,2-4.25,4.15-6.5,6.12-4.37,3.83-8,8-8.79,13.59a20.42,20.42,0,0,0,.37,5.32,22,22,0,0,0,.81,2.94c-2.81,1.42-4,1-4.62-1.58-1.42-5.75-2.72-11.52-4.1-17.27a14.06,14.06,0,0,0-.74-1.92Z"/><path class="cls-1" d="M152.13,152.23c4.28-.48,8.22-1,12.17-1.34,2.87-.26,5,1,5.65,3.39,1.74,7,3.32,14.06,5,21.1-3.26.52-4.62,0-5-1.93-1.67-9.2-8.37-15.21-16.42-20.41C153.15,152.81,152.76,152.6,152.13,152.23Z"/><path class="cls-1" d="M211.6,349c-1.11,2.27-2.63,4.46-3.19,6.81a31.91,31.91,0,0,0-.57,8.4c.09,2.82.11,3-3.71,3l-5.69-22.87c2.63-1.45,4.7-1.18,6.62.29C207.17,346.28,209.51,347.65,211.6,349Z"/><path class="cls-1" d="M164.58,127.89a4,4,0,0,0-.28,1.53c1.45,6.25,2.95,12.48,4.42,18.73a22.77,22.77,0,0,1,.32,2.37c-2.34-.23-3.48-.65-3.23-3.06.5-4.82-2-8.89-5.42-12.49-2.14-2.29-4.54-4.38-6.87-6.61a20.76,20.76,0,0,1,11.09-.41Z"/><path class="cls-1" d="M163,123l.49,3.64c-1.74-.21-3.42,0-3.48-2.2-.22-7.89-4.73-13.52-12.09-17.63-.25-.14-.48-.32-.72-.48l.09-.63c2.85.23,5.7.43,8.54.69,1.08.1,2.14.32,3.21.49l-.05-.07,2.58,8.65,0-.09q.75,3.86,1.49,7.73Z"/><path class="cls-1" d="M157.1,102.38l1,2.49a6.77,6.77,0,0,1-.84.79c-.77-.46-2-1-2.1-1.54a37.76,37.76,0,0,1,0-5.63l.64-.08Z"/><path d="M161.55,115.41,159,106.76Z"/><path d="M163,123.05q-.74-3.87-1.49-7.73Q162.28,119.18,163,123.05Z"/></svg>