<svg id="Layer_1" data-name="Layer 1" xmlns="http://www.w3.org/2000/svg" viewBox="0 0 333.82 432"><defs><style>.cls-1{fill:#8dc63f;}.cls-2{fill:#fff;}</style></defs><title>Artboard 63</title><path class="cls-1" d="M86.17,400.45H76.72V253.71l4.19,41.45,2.35.54c.88-5.88,3-12,2.43-17.58-3.17-28.77,1.39-55.83,11-81.66A69,69,0,0,1,116,169c2.46,7.94,4.49,14.46,6.8,21.91,4.39-19.84,7.59-37.82,12.41-55.11,5.24-18.79,18.26-28,32-36.07,1.18,8,2.23,15,3.54,23.91,11.84-23.52,27.44-38,46.39-51.44-1.54,8.86-2.64,15.21-3.74,21.55,3.86-2,5.92-5.21,8.31-8,8.54-10,16.64-20.75,26-29.41,7.22-6.69,16.06-10.66,24.18-15.84h22c-4,10.12-9.53,19.77-11.68,30.47-4.2,20.88-5.83,42.41-1.79,63.85,4.59,24.3,5.35,48.29-2.87,71.77-1.46,4.17-2.81,8.41-4.64,13.9l13.83-6.56c-.87,28-3.64,53.07-20,73.7L278,283.07c-2.26,13.12-7.31,23.18-15.18,29.62-7.46,6.11-16.29,9.64-26.7,15.54l15.34,4.21c-11.4,15.41-25.3,18.57-41.15,19.77l11.5,18.06c-10,2.93-19.43,6.5-29.07,8.33-22.47,4.28-43.59,2.44-57.73-24.36-.18-.34-.91-.23-2-.46-8.22,15.41-16.56,31-24.89,46.67H95.61c12.13-18.1,24.25-36.19,37.56-56l-29.1-15C101.57,371.41,101.57,371.41,86.17,400.45Z"/><path class="cls-2" d="M86.17,400.45c15.4-29,15.4-29,17.9-71.07l29.1,15c-13.31,19.84-25.43,37.93-37.56,56Z"/></svg>