<svg id="Layer_1" data-name="Layer 1" xmlns="http://www.w3.org/2000/svg" viewBox="0 0 333.82 432"><defs><style>.cls-1{fill:#99c864;}</style></defs><title>ash</title><path class="cls-1" d="M160.76,208.54c-78.56-31.11-51.42-99.34-20.23-169C184.65,105.4,213.19,167.3,160.76,208.54Z"/><path class="cls-1" d="M161.58,203q-3.06,26.21-7.38,52.2c-1.4,8.68-3,17.32-4.73,26s-3.68,17.22-5.78,25.78-4.57,17.05-7.31,25.45a240.57,240.57,0,0,1-9.57,24.76,148.05,148.05,0,0,1-13,23.18,83.93,83.93,0,0,1-18.13,19.23L98,397.2c.38-.39.78-.77,1.15-1.17l1.08-1.24c.72-.82,1.46-1.62,2.17-2.46l2-2.57c.69-.84,1.32-1.72,2-2.61l1.9-2.66,1.76-2.74c.59-.91,1.18-1.83,1.71-2.78a171.72,171.72,0,0,0,11.47-23.39q4.86-12.1,8.64-24.64t7-25.24c2.18-8.46,4.12-17,6-25.54s3.68-17.13,5.53-25.7C154,237.3,157.5,220.09,161.58,203Z"/><path class="cls-1" d="M157.65,247.34c.57-63.46,91.72-56.49,159-76.54C272.72,221.67,225,262,157.65,247.34Z"/><path class="cls-1" d="M145.5,308.92c1.24-61.46,82.78-47.61,143.29-61.81C248.82,293,205.6,328.34,145.5,308.92Z"/><path class="cls-1" d="M154.39,258c26.3-61-64.08-71.54-120.17-103.52C54.88,211.58,83.63,259.27,154.39,258Z"/><path class="cls-1" d="M140,319.35C164.8,260.17,80.74,258,28.7,232.94,47.63,284.51,74.13,326.59,140,319.35Z"/></svg>