<svg id="Layer_1" data-name="Layer 1" xmlns="http://www.w3.org/2000/svg" viewBox="0 0 333.82 432"><defs><style>.cls-1{fill:#8dc63f;}.cls-2{fill:#fff;}</style></defs><title>boxelder</title><path class="cls-1" d="M154.69,76.52C74,197.57,36.3,314.84,158.81,308.34V431.47l8.1-123.82C286.87,322.83,305.64,176.37,154.69,76.52Z"/><line class="cls-2" x1="156.06" y1="82.71" x2="162.25" y2="306.96"/><path class="cls-2" d="M156.06,82.71c1.55,18.66,2.61,37.33,3.49,56,.49,9.33.8,18.68,1.19,28l.92,28,.64,28c.12,9.35.33,18.69.36,28,.15,18.7.12,37.41-.41,56.12-1.55-18.66-2.61-37.33-3.49-56-.5-9.34-.8-18.68-1.19-28l-.91-28-.64-28c-.12-9.35-.33-18.7-.35-28.05C155.52,120.13,155.54,101.42,156.06,82.71Z"/><path class="cls-2" d="M163.63,130.17a33.51,33.51,0,0,1,4.11-5.81,56.89,56.89,0,0,1,10.31-9.29,33.18,33.18,0,0,1,6.22-3.47,33.67,33.67,0,0,1-4.11,5.81,53.17,53.17,0,0,1-4.88,5,55.44,55.44,0,0,1-5.44,4.32A33.44,33.44,0,0,1,163.63,130.17Z"/><path class="cls-2" d="M166.91,163.19A103.45,103.45,0,0,1,174.23,153c2.6-3.24,5.33-6.37,8.15-9.41s5.74-6,8.78-8.82a99.74,99.74,0,0,1,9.62-8,102.42,102.42,0,0,1-7.32,10.19q-3.92,4.86-8.15,9.4c-2.83,3-5.75,6-8.79,8.82A102.34,102.34,0,0,1,166.91,163.19Z"/><path class="cls-2" d="M171.23,194.83c3.47-4.73,7.23-9.19,11.09-13.55s7.82-8.62,11.88-12.78,8.23-8.23,12.52-12.16,8.65-7.8,13.32-11.38c-3.48,4.74-7.23,9.2-11.09,13.56s-7.82,8.62-11.89,12.78-8.22,8.22-12.52,12.15S175.89,191.26,171.23,194.83Z"/><path class="cls-2" d="M171.23,227.85c4.92-5.11,10.08-9.91,15.34-14.61s10.6-9.29,16.05-13.76,11-8.83,16.61-13.07,11.34-8.38,17.32-12.21c-4.92,5.11-10.09,9.92-15.34,14.62s-10.6,9.29-16.05,13.75-11,8.83-16.62,13.07S177.2,224,171.23,227.85Z"/><path class="cls-2" d="M171.23,258c6-4.71,12.17-9.09,18.43-13.35,3.11-2.17,6.3-4.21,9.45-6.3l9.56-6.12,9.69-5.93c3.26-1.91,6.49-3.89,9.8-5.73,6.57-3.77,13.22-7.41,20.08-10.72-6,4.72-12.16,9.1-18.43,13.36-3.11,2.17-6.3,4.2-9.45,6.3l-9.57,6.11-9.68,5.93c-3.27,1.91-6.5,3.88-9.8,5.73C184.73,251,178.08,254.68,171.23,258Z"/><path class="cls-2" d="M171.23,278.63c6.32-3,12.77-5.66,19.27-8.18s13-4.89,19.62-7.13S223.35,259,230,257s13.42-3.78,20.27-5.23c-6.32,3-12.77,5.67-19.26,8.19s-13,4.89-19.63,7.12-13.23,4.33-19.91,6.29S178.08,277.18,171.23,278.63Z"/><path class="cls-2" d="M146.43,140.49a21.35,21.35,0,0,1-4.6-1.59,35.45,35.45,0,0,1-4.13-2.31,34.63,34.63,0,0,1-3.78-2.85,20.58,20.58,0,0,1-3.31-3.57,21.35,21.35,0,0,1,4.6,1.59,35.31,35.31,0,0,1,7.91,5.17A20.88,20.88,0,0,1,146.43,140.49Z"/><path class="cls-2" d="M149.87,166.63a66.66,66.66,0,0,1-8.15-3.28q-3.94-1.86-7.72-4t-7.41-4.58a66.87,66.87,0,0,1-7-5.33,66,66,0,0,1,8.15,3.28q3.94,1.86,7.73,4c2.52,1.43,5,3,7.4,4.58A65.74,65.74,0,0,1,149.87,166.63Z"/><path class="cls-2" d="M146.43,201c-3.49-2.12-6.8-4.47-10-6.89-1.64-1.19-3.21-2.47-4.81-3.7l-4.69-3.83c-3.11-2.59-6.12-5.27-9.08-8S112,173,109.28,169.9a121,121,0,0,1,10,6.88c3.24,2.43,6.41,4.93,9.5,7.53l4.59,4c1.5,1.36,3,2.68,4.48,4.08C140.85,195.11,143.73,198,146.43,201Z"/><path class="cls-2" d="M145.74,229.92c-4.33-1.88-8.51-4-12.63-6.23-2.08-1.08-4.1-2.26-6.15-3.39l-6.06-3.54-6-3.68c-2-1.28-4-2.5-5.89-3.83-3.9-2.59-7.75-5.28-11.44-8.22,4.33,1.87,8.52,4,12.64,6.21,2.08,1.09,4.1,2.27,6.15,3.4l6.06,3.55,6,3.68c2,1.27,4,2.5,5.9,3.82C138.2,224.29,142.05,227,145.74,229.92Z"/><path class="cls-2" d="M145.74,254c-5.11-1.43-10.1-3.13-15.06-4.94-2.49-.87-4.94-1.85-7.4-2.78l-7.34-2.93-7.28-3.08c-2.41-1.08-4.83-2.11-7.22-3.24-4.78-2.21-9.53-4.52-14.17-7.1,5.11,1.43,10.11,3.13,15.07,4.93,2.49.88,4.93,1.86,7.4,2.78l7.34,2.94,7.28,3.09c2.4,1.07,4.83,2.11,7.21,3.24C136.36,249.11,141.11,251.41,145.74,254Z"/><path class="cls-2" d="M147.81,281.51c-5.19-1.1-10.28-2.49-15.34-4-2.54-.71-5-1.53-7.56-2.3l-7.51-2.46L110,270.17c-2.47-.92-5-1.79-7.4-2.77-4.92-1.9-9.8-3.9-14.59-6.18,5.19,1.1,10.28,2.48,15.34,4,2.54.71,5,1.53,7.56,2.3l7.51,2.46,7.45,2.62c2.47.92,5,1.8,7.4,2.77C138.14,277.23,143,279.23,147.81,281.51Z"/></svg>