<svg id="Layer_1" data-name="Layer 1" xmlns="http://www.w3.org/2000/svg" viewBox="0 0 311.83 367.48"><defs><style>.cls-1{fill:#90c33e;}</style></defs><title>buckeye71</title><path class="cls-1" d="M439.88,263.66c1.45-.27,2.68.51,4,.79,1,.21,2.43.54,3.13-.63a2.19,2.19,0,0,0-1-3c-2.68-1.53-4.63-3.93-7.76-5.05-6.68-2.41-13.06-5.63-19.58-8.48-5.26-2.3-10.46-4.79-15.85-6.75-4.86-1.77-8.81-5-13.31-7.34-6.41-3.3-11.68-8.49-18.87-10.64a16.34,16.34,0,0,1-8.72-6.91,4.37,4.37,0,0,1,2.8.76c1.63.83,3.58,1.59,5.4.35,4.89-3.33,10.41-2.5,15.53-1.6,6.24,1.09,12.54.61,18.8,1.62-1.71-.29-2.78-1.86-4.42-2.06-1.94-.25-4.74.33-4.61-2.57.12-2.52,3-.57,4.48-1.74-.93-.84-2.76-1.87-2.62-2.44,1.09-4.65-5.21-3.26-5.28-6.75-2.17.06-3.9-2.75-5.4-2.12-5,2.1-9.74.45-14.59.2-.73,0-2.49.09-1.49-1.18,1.53-1.94-1.47-1.69-1-3.13,5.77-.05,11.58,2.16,17.46.31-3.65,0-6.92-2.1-10.4-2s-5.64-1.26-7.27-4.4c4.74-.74,9.27,2.14,14.66.61l-10.43-6.18c1.71-1.62,4,0,5.26-1.91L373,177.84c2.28-1.81,3.87-1.28,5.39.65,10.2,12.95,21.58,25,30.85,38.66a27.75,27.75,0,0,0,6.07,6.83c1,.74,1.65,1.37,3,.36,1.88-1.45,3.79-2.77,3-5.55-.41-1.41-1.09-2.69-2.95-2.22-1.26.32-2.53-.28-1.88-1.35,1.95-3.19-2.13-5.69.47-8.94-2.23.51-2.27,1.4-2.49,2.29-.52,2.05-1,4.28-3.67,4.53-2.87.27-3.58-2.16-4.37-4a7.31,7.31,0,0,0-2.49-3.5c-3-2.22-2.59-5.53.62-7.46a6,6,0,0,0,1.52-1.61c2.85-3.5,3.34-7.51,3-11.82-.13-1.85,2.27-4.24-.95-5.32-2.16-.73-4.24-3.6-4.9-3.42-3.22.88-3.55-1.07-3.89-3.37-2.14,2.16-2.14,2.16-3.62.28-3.06-3.88-3.06-7.25.15-11.61.87-1.19,1-2.13-.41-2.76a6,6,0,0,1-3.41-3.89c-.56-1.7-1.35-1.12-2.07,0-.54.8.15,2.83-1.76,2.21-1.34-.44-.59-2-.78-3.09-.37-2.06,1.1-4.81-1.12-6.09-4.22-2.43-6.75-7.65-12.49-7.59-2.83,0-3.74-3.18-6.2-3.84-.93-.25-2.43-1-2.12.73.8,4.47-3,6-5.32,8-1.66,1.38-4.95,2.28-7.09.41-.86-.74-1.68-1.44-2.63-2.15-3.44-2.56-4.91-7.09-8.88-9.24-.16-.08-.17-.46-.23-.71-1-4.44-4.48-6.36-8.23-7.78a4,4,0,0,0-3.53.83c-1,1.15.83,1.79,1.33,2.71.37.68,1.09,1,1.62,1.52,3,2.75,6.66,4.59,9.06,8.05,3.59,5.17,9.75,8.11,12.5,14.07.49,1.06,3.18.53,2.2,2.37-.66,1.25-2.28-.34-3.53-.07-.86.18-1.82-.12-2.68.06-4.33.93-7.63-.34-9.84-4.28a2,2,0,0,0-2.67-.87c-1.26.53-.86,1.72-.76,2.68.28,2.79,1.77,5.89,1.68,8-.19,4.74.78,9.68-.78,14.36-1.64-5.21-1.77-10.74-3.06-16-1.47-6-2.76-12-4.41-17.94-2.43-8.71-5.54-16.85-13-23.6,3.28.14,4.89,1.76,6.72,2.75,7.86,4.24,16.6,5.46,25.09,7.5,8.16,2,15.94,5,23.83,7.8,7.36,2.62,13,7.35,18.62,12.31,4.28,3.79,7.46,8.53,10.5,13.34,5.78,9.16,12,18.11,16.21,28.16,3.88,9.29,7.24,18.79,11.18,28a171.87,171.87,0,0,1,6.13,17.59,41.22,41.22,0,0,0,3.48,8.17A65.74,65.74,0,0,1,444.22,255a6.69,6.69,0,0,0,2,3.55c1.41,1.11,1.91,4.13,4,3.22,1-.42,1.26-3.43,1.18-5.24a44.87,44.87,0,0,0-1.26-8.69c-3.27-13.6-6.88-27.12-9.92-40.76-2.1-9.43-3.21-19.07-5.24-28.52a184.59,184.59,0,0,1-4.26-29.47,8.07,8.07,0,0,1,.24-2.6c2-7.07,4.11-14,8.12-20.41,4.53-7.19,8.41-14.79,12.27-22.36,1.07-2.08,2.88-3.16,4.26-4.78,6.71-7.89,13.89-15.42,19-24.56A11.17,11.17,0,0,1,478,70.52c1.33,1.52.75,3.38.37,4.67-2,6.7.82,12.46,3,18.41s6,11.64,7.68,17.73c2.73,9.8,6.46,19.27,7.16,29.84a72.57,72.57,0,0,1-4.87,32.76,4.73,4.73,0,0,1-.68.9c-1.06-4.94,1.23-9.48,2.13-14.09,1-5.11,3.22-10.3,1.81-15.27-1.09-3.85,1.25-9.95-5.4-11.3a.72.72,0,0,1-.35-.62c.85-2.88-2.36-4.3-2.48-7.26-.09-2.35.14-2.31,1.87-2.55,1.22-.17,2.16-.64,1.13-2.3-1.95-3.15-7.23-3.53-7-8.56,0-.62-1.56-.55-2.45-.56-1.41,0-2.83.1-4.22,0-1.82-.17-5.36-4.46-4.45-5.32,1.72-1.63,3.07-3.89,5.54-4.52,6.13-1.56,6.07-1.53,3.25-7.18-2.21-4.44-5.14-8.75-3.79-14.2.23-.93.21-2.2-1.21-2.41a2,2,0,0,0-2.41,2.3c1.62,5.27-5.11,5.6-5.42,9.61-3.34,0-3.71,3.46-5.64,5.13-2.45,2.13-2.44,4.85.19,7.11,2.29,2,3.56,4.69,5.06,7.14,1.25,2.06,3.2,4.79-.79,6.94-.93.5-2.78,1.65-3.06,3.53a.94.94,0,0,1-1.73.43c-.92-1-.74-7,.24-8.08,2.29-2.46,2-3.52-1.72-5.51-.06.56-.3,1.12-.13,1.49.82,1.72,0,2.8-1.45,3.36-2,.77-1.81-1.33-2.38-2.23a42.19,42.19,0,0,1-2.23-4.7c-2.89,6.9-2.87,6.89-.91,12.78.51,1.53,2,3.44-1.65,3.25a2.75,2.75,0,0,0-2.66,3.44c.28,1.32-.36,2.5-1.31,2.14-3.48-1.32-3.13,2.15-4.2,3.39-1.38,1.59-3.07,3.86-2.31,6.07,1,2.88-.85,4.37-2.4,5.36-2.71,1.74-1.71,3-.57,5.05,1.68,3.07,4.3,5.34,6.19,8.14,2,3,4.06,4.43,7.48,2.76,1.71-.83,2.6.07,3.49,1.3,2,2.83,3.44,6.25,7.14,7.56.75.27.32,1,.27,1.66a139.55,139.55,0,0,1-1.56,15.54c-.14.76-.37,1.67.36,2.12,1.1.69,1.38-.39,2-1.06,1.3-1.49,3.78-1.4,4.41-.4,1.1,1.71-1.29,1.85-2.34,2.5-.52.32-1.32.37-1.14,1.22a1.57,1.57,0,0,0,1.41,1.12c2.22.4,4.26-.34,6.37-.9,1.88-.5,4-2.2,5.74-.66,2.33,2.12,2.78.75,4.12-1,.92-1.18,1.48-4.9,4.57-2.2-1.32,5.48-4.67,10.07-6.6,15.32-3,8.12-7.54,15.52-11.67,23.12-4.66,8.57-8.29,17.69-12.43,26.55-1.61,3.46-3.69,6.75-3.36,10.8.05.61,0,1.46.4,1.75.83.64,1.25-.43,1.88-.75,5.77-3,7.37-9.21,10.32-14.13,7.75-12.94,13-27.32,21.8-39.68,2.07-2.91,2.83-6.53,5.43-9.08,0,5-.85,9.55-5.58,12.44a3.48,3.48,0,0,0-1.46,2.18c-.49,3.39-2.63,6-4.12,8.87a4.22,4.22,0,0,0,.14,4.86c1.45,2.32,3.85,4.38,3.2,8,4.48-3.31,7.7-7,11.24-10.31,6.26-5.89,12.28-12,18.15-18.23.61-.65,1.37-2,2-1.45,2.87,2.53,5.86.25,8.76.46,1.41.1,3.78.84,4.14-.66.44-1.9-1.87-2.65-3.43-3.45-.13-.07-.12-.43-.18-.72,1.75-1.21,3.75-1.32,5.8-1.31a2.34,2.34,0,0,0,1.7-.51c.55-.79-.39-1.33-.73-2a2.64,2.64,0,0,0-2.55-1.33c-.84,0-2.47.46-1.88-1.36.33-1,1-1.39,2.36-.54,1.65,1.08,3.78.33,5-.82,1.67-1.6-1-2.44-1.33-3.79a4.19,4.19,0,0,1,.09-1.09c3.09,1,6.38,0,9.35.91,2.26.66,5.65-.81,6.62,1.75.92,2.4,2.57,3,4.34,3.69,3.57,1.4,6,5.55,10.65,4.45.55-.13.87.8.92,1.48-4,6.2-7.24,12.56-14.06,17-9.55,6.18-19.33,12-28.92,18.13-5.1,3.24-11.05,5.14-16.49,7.89-8.45,4.26-17.29,7.6-26,11.12-5.59,2.25-11.61,2.91-17.42,4.33a14.52,14.52,0,0,0-1.48.36c-2.39.88-5.06,2.44-4.42,4.93.57,2.24,3.53,1,5.48.81a78.14,78.14,0,0,0,16.49-3c13.13-4.37,26.8-5,40.22-6.89a126,126,0,0,1,35.17.11c6.35.88,11.84,4.34,16.82,7.79,10.81,7.48,21,15.85,34.76,17.81-6.66.2-12.79,2.07-18.94,3.83a55,55,0,0,0-16.71,8.07c-3.4,2.4-7.63,2.81-11.29,4.61-12.15,5.94-25,9.05-38.41,6.75-7.28-1.25-14.65-.91-21.86-2.43C488,299,481,292.43,473.58,286.4c-6.11-5-10.95-11.18-15.9-17.23-1.75-2.13-2.73-1.47-4.19.08-3.19,3.39-2.32,7.72-2.58,11.64-1.86,27.77.31,55.5,1.16,83.24.58,19.05,2.15,38,4.6,56.94.48,3.67,1.31,7.3,1.94,10.95.83,4.76-.33,6.11-4.69,6-.73-7.3.73-14.5-.14-21.87-1.38-11.78-2.07-23.65-2.89-35.49-1-15.1-1-30.27-1.86-45.36q-1.11-19.15-1.12-38.29c0-8.77.5-17.55.85-26.32a7.09,7.09,0,0,0-1.71-5c-7.55,5.89-13.29,13.94-21.79,18.74-.27-4.6,2-7.28,5.9-6.87,0-1.55-2.8-2.53-.46-4.8,1.15-1.11-.84-3.46-2.54-3.07-3.32.74-4.49-2.47-7.07-3.09,4-.48,7.89-.34,11.78-.55C435.35,265.88,438.21,266.39,439.88,263.66ZM457.6,212.9c-.81,2.58-1.78,4.9-1.72,7.54.06,2.43.89,3,3,1.84a5.13,5.13,0,0,1,4.37-.32c1.85.57,3.76.21,4.06-2.1.25-1.89.71-4-2.41-4.65-2-.4-3.64-3.31-6.11-.51C458.36,215.18,458.51,213.44,457.6,212.9Zm20.18,19.61c-.27.29-.79.62-.87,1-.27,1.54-.59,2.75-2.62,1.92-.66-.26-1.22.23-1.4.94a28.35,28.35,0,0,1-3.44,7.48c-.65,1.11.17,2.22.76,3.15.27.44.88.12,1.29-.25,2.55-2.27,5.13-4.49,7.65-6.79.49-.44,1.51-1.57.87-1.69-3.35-.64-1.24-2.57-1.17-4C478.89,233.54,479.06,232.71,477.78,232.51Zm63.84-23.95c2.4,1.42,4.85,1.11,7.16,2,5.29,2,6.31,1.52,8.64-3.75.29-.65.16-1.94.5-2,3.7-1.17.23-2.09-.23-2.29-1.63-.68-3.34.59-5.17.07-.58-.17-.67,1.24.16,1.65s1.61.73,1,1.94a2.59,2.59,0,0,1-2.49,1.37C548,207.78,544.81,208.19,541.62,208.56ZM538.43,193a4.81,4.81,0,0,0,4.35-.82.84.84,0,0,0-.21-.67C540.79,190.5,539.91,192.64,538.43,193Zm8.17-2.2a1.21,1.21,0,0,0-1.31,1c-.11.56.35.89.89.92s1.34.13,1.47-.7S547.24,191,546.6,190.8Z" transform="translate(-293.25 -70.52)"/><path class="cls-1" d="M565,199.86c-.05-.68-.37-1.61-.92-1.48-4.66,1.1-7.08-3-10.65-4.45-1.77-.69-3.42-1.29-4.34-3.69-1-2.56-4.36-1.09-6.62-1.75-3-.86-6.26.11-9.35-.91a4.19,4.19,0,0,0-.09,1.09c.3,1.35,3,2.19,1.33,3.79-1.2,1.15-3.33,1.9-5,.82-1.31-.85-2-.47-2.36.54-.59,1.82,1,1.32,1.88,1.36a2.64,2.64,0,0,1,2.55,1.33c.34.64,1.28,1.18.73,2a2.34,2.34,0,0,1-1.7.51c-2.05,0-4.05.1-5.8,1.31.06.29.05.65.18.72,1.56.8,3.87,1.55,3.43,3.45-.36,1.5-2.73.76-4.14.66-2.9-.21-5.89,2.07-8.76-.46-.58-.52-1.34.8-2,1.45-5.87,6.25-11.89,12.34-18.15,18.23-3.54,3.33-6.76,7-11.24,10.31.65-3.67-1.75-5.73-3.2-8a4.22,4.22,0,0,1-.14-4.86c1.49-2.9,3.63-5.48,4.12-8.87a3.48,3.48,0,0,1,1.46-2.18c4.73-2.89,5.6-7.45,5.58-12.44h0c3.32.27,6.31.15,5.71-4.55-.05-.4.37-.93.68-1.3,4-4.69,3.43-12.36,10.07-15.32.15-.07.16-.7.07-1-.72-2.61,1.13-4,2.71-5.36,2.65-2.29,6.39-3.91,7.92-6.76a15.48,15.48,0,0,1,7.45-7c6.28-2.58,11.6-7,18.14-8.92,2.39-.7,4.93-.88,7.19-2.13,1.18-.66.71-1,0-1.5l1.26-.19c1.28,1.42,2,.48,2.57-.68a4.83,4.83,0,0,1,.5-.16,1,1,0,0,1,.27.07c1.14,1.4,2.79,1.19,4.62-.56l8.49-1.54c.73.86,1.48,1,2.24,0l1.6,0c.64.89,1.13.67,1.54-.19,1.23-.73,2.57-.46,3.88-.46.5.68,1,.6,1.42-.07H584c.05,1.05.43,2.61,1.52,2,5.48-3.26,5.16-.1,4.47,3.75a3.22,3.22,0,0,0,.22,1.11h0c-1.59,0-1.67,1.09-1.53,2.29l0,0c-1.65-.2-2.77.11-3.48,2-.86,2.29-1,4.89-2.66,6.88-3,3.68-1,8.22-2.08,12.23-.18.37-.35.75-.53,1.12-1.58.63-1.91,1.91-1.78,3.43-4.51,6.5-6.47,14.23-10.11,21.16A7.34,7.34,0,0,1,565,199.86ZM542.13,185c-1.5-.47-3-1-5.21.5C539.2,186,540.67,186.34,542.13,185Z" transform="translate(-293.25 -70.52)"/><path class="cls-1" d="M337.65,174.8c1.56-4.68.59-9.62.78-14.36.09-2.13-1.4-5.23-1.68-8-.1-1-.5-2.15.76-2.68a2,2,0,0,1,2.67.87c2.21,3.94,5.51,5.21,9.84,4.28.86-.18,1.82.12,2.68-.06,1.25-.27,2.87,1.32,3.53.07,1-1.84-1.71-1.31-2.2-2.37-2.75-6-8.91-8.9-12.5-14.07-2.4-3.46-6.1-5.3-9.06-8.05-.53-.49-1.25-.84-1.62-1.52-.5-.92-2.35-1.56-1.33-2.71a4,4,0,0,1,3.53-.83c3.75,1.42,7.24,3.34,8.23,7.78.06.25.07.63.23.71,4,2.15,5.44,6.68,8.88,9.24.95.71,1.77,1.41,2.63,2.15,2.14,1.87,5.43,1,7.09-.41,2.36-1.95,6.12-3.5,5.32-8-.31-1.71,1.19-1,2.12-.73,2.46.66,3.37,3.88,6.2,3.84,5.74-.06,8.27,5.16,12.49,7.59,2.22,1.28.75,4,1.12,6.09.19,1.07-.56,2.65.78,3.09,1.91.62,1.22-1.41,1.76-2.21.72-1.07,1.51-1.65,2.07,0a6,6,0,0,0,3.41,3.89c1.43.63,1.28,1.57.41,2.76-3.21,4.36-3.21,7.73-.15,11.61,1.48,1.88,1.48,1.88,3.62-.28.34,2.3.67,4.25,3.89,3.37.66-.18,2.74,2.69,4.9,3.42,3.22,1.08.82,3.47.95,5.32.3,4.31-.19,8.32-3,11.82a6,6,0,0,1-1.52,1.61c-3.21,1.93-3.61,5.24-.62,7.46a7.31,7.31,0,0,1,2.49,3.5c.79,1.89,1.5,4.32,4.37,4,2.71-.25,3.15-2.48,3.67-4.53.22-.89.26-1.78,2.49-2.29-2.6,3.25,1.48,5.75-.47,8.94-.65,1.07.62,1.67,1.88,1.35,1.86-.47,2.54.81,2.95,2.22.81,2.78-1.1,4.1-3,5.55-1.3,1-2,.38-3-.36a27.75,27.75,0,0,1-6.07-6.83c-9.27-13.7-20.65-25.71-30.85-38.66-1.52-1.93-3.11-2.46-5.39-.65l5.85,3.62c-1.3,1.87-3.55.29-5.26,1.91L384,189.55c-5.39,1.53-9.92-1.35-14.66-.61,1.63,3.14,3.73,4.5,7.27,4.4s6.75,2,10.4,2c-5.88,1.85-11.69-.36-17.46-.31-.51,1.44,2.49,1.19,1,3.13-1,1.27.76,1.14,1.49,1.18,4.85.25,9.63,1.9,14.59-.2,1.5-.63,3.23,2.18,5.4,2.12.07,3.49,6.37,2.1,5.28,6.75-.14.57,1.69,1.6,2.62,2.44-1.44,1.17-4.36-.78-4.48,1.74-.13,2.9,2.67,2.32,4.61,2.57,1.64.2,2.71,1.77,4.42,2.06-6.26-1-12.56-.53-18.8-1.62-5.12-.9-10.64-1.73-15.53,1.6-1.82,1.24-3.77.48-5.4-.35a4.37,4.37,0,0,0-2.8-.76.48.48,0,0,1-.52-.2c.86-2.17-.85-1.25-1.68-1.4-4.2-2.36-6.8-6.41-9.11-10.23-3.64-6-6.23-12.66-9.27-19-1.15-2.81-1.26-6-3.4-8.45Z" transform="translate(-293.25 -70.52)"/><path class="cls-1" d="M486.07,184.36c-3.09-2.7-3.65,1-4.57,2.2-1.34,1.74-1.79,3.11-4.12,1-1.7-1.54-3.86.16-5.74.66-2.11.56-4.15,1.3-6.37.9a1.57,1.57,0,0,1-1.41-1.12c-.18-.85.62-.9,1.14-1.22,1.05-.65,3.44-.79,2.34-2.5-.63-1-3.11-1.09-4.41.4-.58.67-.86,1.75-2,1.06-.73-.45-.5-1.36-.36-2.12a139.55,139.55,0,0,0,1.56-15.54c.05-.62.48-1.39-.27-1.66-3.7-1.31-5.1-4.73-7.14-7.56-.89-1.23-1.78-2.13-3.49-1.3-3.42,1.67-5.49.21-7.48-2.76-1.89-2.8-4.51-5.07-6.19-8.14-1.14-2.08-2.14-3.31.57-5.05,1.55-1,3.4-2.48,2.4-5.36-.76-2.21.93-4.48,2.31-6.07,1.07-1.24.72-4.71,4.2-3.39.95.36,1.59-.82,1.31-2.14a2.75,2.75,0,0,1,2.66-3.44c3.66.19,2.16-1.72,1.65-3.25-2-5.89-2-5.88.91-12.78a42.19,42.19,0,0,0,2.23,4.7c.57.9.38,3,2.38,2.23,1.42-.56,2.27-1.64,1.45-3.36-.17-.37.07-.93.13-1.49,3.71,2,4,3,1.72,5.51-1,1-1.16,7.09-.24,8.08a.94.94,0,0,0,1.73-.43c.28-1.88,2.13-3,3.06-3.53,4-2.15,2-4.88.79-6.94-1.5-2.45-2.77-5.17-5.06-7.14-2.63-2.26-2.64-5-.19-7.11,1.93-1.67,2.3-5.08,5.64-5.13.31-4,7-4.34,5.42-9.61a2,2,0,0,1,2.41-2.3c1.42.21,1.44,1.48,1.21,2.41-1.35,5.45,1.58,9.76,3.79,14.2,2.82,5.65,2.88,5.62-3.25,7.18-2.47.63-3.82,2.89-5.54,4.52-.91.86,2.63,5.15,4.45,5.32,1.39.14,2.81,0,4.22,0,.89,0,2.47-.06,2.45.56-.22,5,5.06,5.41,7,8.56,1,1.66.09,2.13-1.13,2.3-1.73.24-2,.2-1.87,2.55.12,3,3.33,4.38,2.48,7.26a.72.72,0,0,0,.35.62c6.65,1.35,4.31,7.45,5.4,11.3,1.41,5-.81,10.16-1.81,15.27-.9,4.61-3.19,9.15-2.13,14.09l0,0c-.82-.16-1.86-.79-2.25.42-.27.85.63,1.25,1.32,1.58C488.72,179.47,487.91,182.17,486.07,184.36Z" transform="translate(-293.25 -70.52)"/><path class="cls-1" d="M359.9,239.24l3.8.37c.28,1.17.74,1.59,1.59.38a15.34,15.34,0,0,1,5.37,1.58c-3.07,4,3.15,4.85,2.73,8.26-1.82-.34-3.86-.93-4.61,1.27-.65,1.88,1.43,2.45,2.28,3.6,1.22,1.66,3.31,2.64,4.23,5.34-2.51-.71-3.42-2.51-4.83-3.63-.5-.4-1-1-1.65-.48s-.4,1.15-.05,1.72c1.47,2.37,2.69,4.94,6.15,5a35.25,35.25,0,0,1,5.29.91c-.14,1-.76,1.13-1.18,1-6.15-1.34-12.47,0-18.64-1.14-1.06-.2-2.67-.89-3,.47-.36,1.52,1.32,1.64,2.41,1.53,3.58-.36,4.22,4.12,7.46,4.44.54.05.25,1.4-.37,1.94s-1.51,1-2.14,1.6-1.74,1.13-1.29,2.12c.53,1.17,1.52.29,2.32.11s1.84-.5,2.37.52a1.32,1.32,0,0,1-.73,1.92c-4.34,1.23-4.75,4.48-4.34,8.16.25,2.36-.77,3.35-3.08,3-5.95-.79-11.88-1.9-16.94-5.25-1.81-1.19-3.13-2.82-5.57-2.45-.68.1-1.08-.49-1.38-1.12-.77-1.63-2.21-2-3.84-1.86a4.89,4.89,0,0,1-3.16-3.06c1.82-.84,3.19-1.69,3.07-4.25-.18-4.07-1.82-5-5.39-3.54-.35.15-1-.07-.94-1.13,2.64.49,3.45-2.65,5.84-3,.17,0,.39-.66.33-.95s-.62-.69-.72-.63c-2.95,1.7-5.36-.66-7.94-1.19-5.44-1.12-8.36,3.66-12.76,4.82-1.23.05-2.07-.82-3.08-1.3.72-1.59-1.61-3.79.62-4.9,4.23-2.1,7.18-6.05,12.08-7.34a21.5,21.5,0,0,0,12-8c5.43-2.12,10.77-4.33,16.65-5.23,3.25-.49,6.3-.11,9.44.05C358.66,240,359.16,240.34,359.9,239.24Zm6.9,14.89-.24.16.44.21c0-.09.09-.2.06-.24S366.89,254.17,366.8,254.13Z" transform="translate(-293.25 -70.52)"/><path class="cls-1" d="M332.27,278.63c1.63-.1,3.07.23,3.84,1.86.3.63.7,1.22,1.38,1.12,2.44-.37,3.76,1.26,5.57,2.45,5.06,3.35,11,4.46,16.94,5.25,2.31.31,3.33-.68,3.08-3-.41-3.68,0-6.93,4.34-8.16a1.32,1.32,0,0,0,.73-1.92c-.53-1-1.5-.72-2.37-.52s-1.79,1.06-2.32-.11c-.45-1,.69-1.54,1.29-2.12s1.47-1,2.14-1.6.91-1.89.37-1.94c-3.24-.32-3.88-4.8-7.46-4.44-1.09.11-2.77,0-2.41-1.53.32-1.36,1.93-.67,3-.47,6.17,1.14,12.49-.2,18.64,1.14.42.1,1,0,1.18-1a35.25,35.25,0,0,0-5.29-.91c-3.46-.07-4.68-2.64-6.15-5-.35-.57-.56-1.27.05-1.72s1.15.08,1.65.48c1.41,1.12,2.32,2.92,4.83,3.63-.92-2.7-3-3.68-4.23-5.34-.85-1.15-2.93-1.72-2.28-3.6.75-2.2,2.79-1.61,4.61-1.27.42-3.41-5.8-4.31-2.73-8.26a2.11,2.11,0,0,1,2.22.62c.21.79-.22,1.86.82,2.26s1.8-.36,2.32-1.25c13,2.1,25.36,6.35,37.69,10.74.68,2.44,3.53,3.21,4.32,5.58.25.75.51,1.55,0,2.16-.76.81-1.33-.08-1.94-.43-1.22-.69-2.7-1.92-3.86-1-2.54,2.08-5.71-1.56-8.06,1.16a4.26,4.26,0,0,1-1.88-1,32.66,32.66,0,0,1-2.48-2.88c-.63-.76-1.19-2.17-2.24-1.66-1.54.74,0,2,.06,3,0,.37.29.72.34,1.09.15,1,1.87,2,.34,2.92s-1.13-1.83-2.74-1.57c.25,1.66-1.38,2.43-2.2,3.66,8,1.93,16,.79,24.73,1.47-2.6,2.23-5-.65-6.76,1.69-2.42,3.17-6.12,5.23-8.22,8.73a3,3,0,0,1-3.16,1.63h0c.46-4,4.66-5.1,6.4-8.14.43-.74,1.52-1.14.46-2.08-.81-.71-1.57-.57-2.27.3A52.07,52.07,0,0,1,391,280.69c-1.62,1-1.68,3.38-.16,3.57,3.69.47,2.82,2.84,2.92,5-2.33-.07-2.95,1.23-2.85,3.58,1.88-.76,2.95-1.71,2.83-3.6.39,0,.77,0,1.15,0,1.07,0,2.29-1.43,3.13-.09s-1,1.38-1.46,2.12c-.86,1.41.33,2.17,1.28,1.73,2.6-1.18,5-2.21,7.65-.15.08.07.44-.19.66-.3,3.21-1.69,6.84-2.5,9.77-4.77a3.29,3.29,0,0,1,4.24.11c-8.28,5.76-17.22,9.24-27.54,7.8-7-1-14.09.22-21-1.6-6.53-1.75-13.45-1.07-19.86-3.44C344.53,287.89,337.51,284.73,332.27,278.63Zm56.29,14.65a.81.81,0,0,0-.32.11s0,.17.07.27a1.1,1.1,0,0,0,.32-.11S388.58,293.37,388.56,293.28Z" transform="translate(-293.25 -70.52)"/><path class="cls-1" d="M420.2,287.83a3.29,3.29,0,0,0-4.24-.11c-2.93,2.27-6.56,3.08-9.77,4.77-.22.11-.58.37-.66.3-2.62-2.06-5-1-7.65.15-.95.44-2.14-.32-1.28-1.73.45-.74,2.32-.76,1.46-2.12s-2.06.07-3.13.09c-.38,0-.76,0-1.15,0l0,0c-.1-2.14.77-4.51-2.92-5-1.52-.19-1.46-2.6.16-3.57a52.07,52.07,0,0,0,13.47-12.15c.7-.87,1.46-1,2.27-.3,1.06.94,0,1.34-.46,2.08-1.74,3-5.94,4.13-6.4,8.14-1.59.05-3.42-.32-3.77,2-.09.59,0,1.6.68,1.44,1.74-.38,3.26-1.22,3.08-3.44a3,3,0,0,0,3.16-1.63c2.1-3.5,5.8-5.56,8.22-8.73,1.78-2.34,4.16.54,6.76-1.69-8.72-.68-16.7.46-24.73-1.47.82-1.23,2.45-2,2.2-3.66,1.61-.26,1.31,2.43,2.74,1.57s-.19-1.93-.34-2.92c-.05-.37-.32-.72-.34-1.09,0-1-1.6-2.24-.06-3,1.05-.51,1.61.9,2.24,1.66a32.66,32.66,0,0,0,2.48,2.88,4.26,4.26,0,0,0,1.88,1c2.35-2.72,5.52.92,8.06-1.16,1.16-.94,2.64.29,3.86,1,.61.35,1.18,1.24,1.94.43.56-.61.3-1.41,0-2.16-.79-2.37-3.64-3.14-4.32-5.58,2.34-.56,4.26.72,6.1,1.68,6.43,3.38,13.57,4.9,20.07,8-1.67,2.73-4.53,2.22-7,2.36-3.89.21-7.8.07-11.78.55,2.58.62,3.75,3.83,7.07,3.09,1.7-.39,3.69,2,2.54,3.07-2.34,2.27.43,3.25.46,4.8-3.88-.41-6.17,2.27-5.9,6.87Z" transform="translate(-293.25 -70.52)"/><path class="cls-1" d="M551.74,144.43c.75.48,1.22.84,0,1.5-2.26,1.25-4.8,1.43-7.19,2.13-6.54,1.91-11.86,6.34-18.14,8.92a15.48,15.48,0,0,0-7.45,7c-1.53,2.85-5.27,4.47-7.92,6.76-1.58,1.38-3.43,2.75-2.71,5.36.09.33.08,1-.07,1-6.64,3-6.09,10.63-10.07,15.32-.31.37-.73.9-.68,1.3.6,4.7-2.39,4.82-5.71,4.55,5.35-10.09,10.06-20.69,17.69-29.25,10.4-11.69,23.05-20.32,38.48-24.26A22,22,0,0,1,551.74,144.43Z" transform="translate(-293.25 -70.52)"/><path class="cls-1" d="M310.6,265.69c4.4-1.16,7.32-5.94,12.76-4.82,2.58.53,5,2.89,7.94,1.19.1-.06.66.36.72.63s-.16.92-.33.95c-2.39.36-3.2,3.5-5.84,3-.1,1.06.59,1.28.94,1.13,3.57-1.46,5.21-.53,5.39,3.54.12,2.56-1.25,3.41-3.07,4.25-5.09-3.68-11.57-4.52-16.68-8.22C311.73,266.84,310.86,266.64,310.6,265.69Zm13.28,2.45c-.19.11-.47.18-.51.33s.12.38.2.58l.7-.44Z" transform="translate(-293.25 -70.52)"/><path class="cls-1" d="M332.21,244.14a21.5,21.5,0,0,1-12,8c-4.9,1.29-7.85,5.24-12.08,7.34-2.23,1.11.1,3.31-.62,4.9a114,114,0,0,0-14.27-4.32c3.59-1.44,7.43-1.77,11-3.13,8.44-3.25,16.73-6.79,24.42-11.63A6.77,6.77,0,0,1,332.21,244.14Z" transform="translate(-293.25 -70.52)"/><path class="cls-1" d="M590.23,147.48a3.22,3.22,0,0,1-.22-1.11c.69-3.85,1-7-4.47-3.75-1.09.65-1.47-.91-1.52-2,5.19-.89,10.42-1.59,15.12-4.38l.58.83Z" transform="translate(-293.25 -70.52)"/><path class="cls-1" d="M580.46,170.89c1.07-4-.94-8.55,2.08-12.23,1.63-2,1.8-4.59,2.66-6.88.71-1.88,1.83-2.19,3.48-2C585.78,156.76,584.08,164.2,580.46,170.89Z" transform="translate(-293.25 -70.52)"/><path class="cls-1" d="M337.91,176.37c2.14,2.41,2.25,5.64,3.4,8.45C338.31,182.76,337.92,179.64,337.91,176.37Z" transform="translate(-293.25 -70.52)"/><path class="cls-1" d="M561,142.91c-1.83,1.75-3.48,2-4.62.56Z" transform="translate(-293.25 -70.52)"/><path class="cls-1" d="M376,243.2c-.52.89-1.15,1.71-2.32,1.25s-.61-1.47-.82-2.26Z" transform="translate(-293.25 -70.52)"/><path class="cls-1" d="M578.15,175.44c-.13-1.52.2-2.8,1.78-3.43A6,6,0,0,1,578.15,175.44Z" transform="translate(-293.25 -70.52)"/><path class="cls-1" d="M489.75,176.88c-.69-.33-1.59-.73-1.32-1.58.39-1.21,1.43-.58,2.25-.42A2.22,2.22,0,0,1,489.75,176.88Z" transform="translate(-293.25 -70.52)"/><path class="cls-1" d="M571.69,141.41c-.76.93-1.51.82-2.24,0A2.19,2.19,0,0,1,571.69,141.41Z" transform="translate(-293.25 -70.52)"/><path class="cls-1" d="M588.7,149.76c-.14-1.2-.06-2.26,1.53-2.29C590.38,148.68,589.66,149.3,588.7,149.76Z" transform="translate(-293.25 -70.52)"/><path class="cls-1" d="M555.57,143.56c-.61,1.16-1.29,2.1-2.57.68A2.88,2.88,0,0,1,555.57,143.56Z" transform="translate(-293.25 -70.52)"/><path class="cls-1" d="M359.69,214.08c.83.15,2.54-.77,1.68,1.4C360.47,215.43,360.07,214.77,359.69,214.08Z" transform="translate(-293.25 -70.52)"/><path class="cls-1" d="M365.29,240c-.85,1.21-1.31.79-1.59-.38A1.21,1.21,0,0,1,365.29,240Z" transform="translate(-293.25 -70.52)"/><path class="cls-1" d="M574.83,141.18c-.41.86-.9,1.08-1.54.19Z" transform="translate(-293.25 -70.52)"/><path class="cls-1" d="M580.13,140.65c-.45.67-.92.75-1.42.07A.9.9,0,0,1,580.13,140.65Z" transform="translate(-293.25 -70.52)"/><path class="cls-1" d="M359.9,239.24c-.74,1.1-1.24.8-1.6-.28A1.37,1.37,0,0,1,359.9,239.24Z" transform="translate(-293.25 -70.52)"/><path class="cls-1" d="M457.6,212.9c.91.54.76,2.28,1.18,1.8,2.47-2.8,4.07.11,6.11.51,3.12.62,2.66,2.76,2.41,4.65-.3,2.31-2.21,2.67-4.06,2.1a5.13,5.13,0,0,0-4.37.32c-2.1,1.17-2.93.59-3-1.84C455.82,217.8,456.79,215.48,457.6,212.9Z" transform="translate(-293.25 -70.52)"/><path class="cls-1" d="M477.78,232.51c1.28.2,1.11,1,1.07,1.77-.07,1.45-2.18,3.38,1.17,4,.64.12-.38,1.25-.87,1.69-2.52,2.3-5.1,4.52-7.65,6.79-.41.37-1,.69-1.29.25-.59-.93-1.41-2-.76-3.15a28.35,28.35,0,0,0,3.44-7.48c.18-.71.74-1.2,1.4-.94,2,.83,2.35-.38,2.62-1.92C477,233.13,477.51,232.8,477.78,232.51Z" transform="translate(-293.25 -70.52)"/><path class="cls-1" d="M541.62,208.56c3.19-.37,6.38-.78,9.58-1.08a2.59,2.59,0,0,0,2.49-1.37c.6-1.21-.12-1.5-1-1.94s-.74-1.82-.16-1.65c1.83.52,3.54-.75,5.17-.07.46.2,3.93,1.12.23,2.29-.34.11-.21,1.4-.5,2-2.33,5.27-3.35,5.77-8.64,3.75C546.47,209.67,544,210,541.62,208.56Z" transform="translate(-293.25 -70.52)"/><path class="cls-1" d="M538.43,193c1.48-.36,2.36-2.5,4.14-1.49a.84.84,0,0,1,.21.67A4.81,4.81,0,0,1,538.43,193Z" transform="translate(-293.25 -70.52)"/><path class="cls-1" d="M546.6,190.8c.64.19,1.17.54,1,1.26s-.87.72-1.47.7-1-.36-.89-.92A1.21,1.21,0,0,1,546.6,190.8Z" transform="translate(-293.25 -70.52)"/><path class="cls-1" d="M542.13,185c-1.46,1.35-2.93,1-5.21.5C539.11,184,540.63,184.52,542.13,185Z" transform="translate(-293.25 -70.52)"/><path class="cls-1" d="M366.8,254.13c.09,0,.21.06.26.13s0,.15-.06.24l-.44-.21Z" transform="translate(-293.25 -70.52)"/><path class="cls-1" d="M393.78,289.22c.12,1.89-.95,2.84-2.83,3.6-.1-2.35.52-3.65,2.85-3.58Z" transform="translate(-293.25 -70.52)"/><path class="cls-1" d="M388.56,293.28c0,.09.1.25.07.27a1.1,1.1,0,0,1-.32.11c0-.1-.1-.25-.07-.27A.81.81,0,0,1,388.56,293.28Z" transform="translate(-293.25 -70.52)"/><path class="cls-1" d="M399.91,278.46c.18,2.22-1.34,3.06-3.08,3.44-.71.16-.77-.85-.68-1.44.35-2.32,2.18-1.95,3.77-2Z" transform="translate(-293.25 -70.52)"/><path class="cls-1" d="M323.88,268.14l.39.47-.7.44c-.08-.2-.25-.42-.2-.58S323.69,268.25,323.88,268.14Z" transform="translate(-293.25 -70.52)"/></svg>