<svg id="Layer_1" data-name="Layer 1" xmlns="http://www.w3.org/2000/svg" viewBox="0 0 333.82 432"><defs><style>.cls-1{fill:#8dc63f;stroke:#8dc63f;stroke-miterlimit:10;stroke-width:3px;}</style></defs><title>butternut</title><path class="cls-1" d="M114.26,204.49c-.58-1.83-.3-4.13-3.72-4.69l3.07,3.84-8.37-2.81.05-.71,2.39-.72a10.14,10.14,0,0,1,.18-7.8c.13-.32,1.28-.27,1.9-.52a3.58,3.58,0,0,0,1.66-1,3.22,3.22,0,0,0,.42-2.17,21.5,21.5,0,0,0-1.46-3.38l-1.74.12.83.43c-.9,2.36-1.81,4.71-2.73,7.08l-5.28-1.46c2.1,2.92,4.66,4.89,3,7.56-1.55-.87-3.43-1.51-4.58-2.7s-1.65-3-2.7-5l4.51-.23L100,186l.81-.23,2.53,1.73c.28-1.89,0-3.81.9-4.94s3.24-1.82,4.84-3.1l-3.37.31a34.22,34.22,0,0,1,1-6.54c.26-.77,2.14-1.11,3.63-1.82a11.56,11.56,0,0,1-1.66-.53c-.64-.3-1.82-.83-1.76-1,.9-3.17-2.8-4.35-3.72-6.73-1.41-3.66-3.15-7.23-4.75-10.85a6.75,6.75,0,0,0-.87-2c-1.86-2.06-4-4-.33-6.33.6-.39.45-1.67.65-2.53v0l.82-1.09a21,21,0,0,1,3.69,1.58,17.67,17.67,0,0,1,2.51,2.6l-.32,1,4.33-2.54q1.17-5,2.33-9.86l-.49-.16-2.37,6-1,.92c-.66-1-1.25-2.06-2-3-1.54-2-3.41-3.82-4.64-5.94-.56-1,0-2.45.25-3.68a6.17,6.17,0,0,1,.84-1.63l-.76-.41-1.84,1.91-2.35-1.69.24-.52,2.47.17-.82-3.75c2.56-.21,4.71.79,5,2.31.47,3,3,3.85,5.46,5l-1.65,1.69.35.44,2.16-.9.53-2.91,2.49,1c-2,3.73-1.63,4.16,2.87,4.62a10.11,10.11,0,0,1,2.72,1.18c.48-.4,1.08-1.29,1.57-1.24,2.51.2,1.66-.95,1.28-2-.86-2.46-1.73-4.92-2.45-7.4-.17-.56.31-1.25.45-1.89.24-1.05.44-2.1.66-3.15l-1-.21-.51,3.07a4.39,4.39,0,0,1-4.79-2.85c-.32-.69.83-1.89,1.31-2.86l-.08.07,7.24,1.38c-.09.12.28-.17.22-.3-1.72-3.41.67-7.5-2.73-10.81-1.06-1-.16-3.6-.16-5.43-4.77,2.17-4.2-2.88-6.32-4.11h2.9l-2-2,.3-.35,4.2,3.14,5.45-7.28c-.94.06-1.2,0-1.33.09-.9.62-1.76,1.28-2.63,1.92-.66-1.1-2-2.29-1.81-3.29.26-1.62-1.34-5,3.5-4,.79.17,2-1.25,3.08-1.93l2.62-1.7.71.58a10.25,10.25,0,0,0-.62,2c-.14,1.12-.1,2.26-.2,3.39a16.26,16.26,0,0,1-.37,1.79L126.76,90H129l-.29,2.6.83.19L130.77,89c.92.72,2.17,1.25,2.33,2s-.67,1.67-1.31,2.36A35.67,35.67,0,0,1,128.68,96l1.92.49c-1.46,2.59-2.85,5.06-4.44,7.9l2.5-1.26c0,.31.19.59.1.8a11.68,11.68,0,0,0-1.17,2.49A8.85,8.85,0,0,0,128,109a13.45,13.45,0,0,0,3.47-1.12c.73-.48.79-1.68,1.44-2.33a5.42,5.42,0,0,1,2.65-1.5c.62-.1,2,.66,2,1.15a3.81,3.81,0,0,1-.69,2.92c-1.41,1.57-3.67,2.66-4.69,4.35a35.36,35.36,0,0,0-3.12,7.93c-.15.49.91,1.26,1.42,1.91-.72,2-1.45,4-2.33,6.4l6.12-3.69-.34-.48-2.32.55-1.14-2.8c1.19.32,2.37.67,3.57.94a2.59,2.59,0,0,0,1.49,0c2.75-1.27,5.44-2.64,8.18-3.92a24.63,24.63,0,0,1,2.87-.92c.12,2.42-.68,4.15-4.35,3.81.37.53.8.94.72,1-.81,1-1.7,2-2.57,3l.47.53L144,125c-.14.14-.29.27-.42.41-2.52,2.81-2.61,2.82-5.53.72.15,1.39.64,2.85.32,4.16-.22.9-1.44,1.77-2.44,2.33-1.55.85-3.36,1.17-2.87,3.5.2,1-.82,2.56-1.84,3.24-2.68,1.8-4.38,3.8-3.95,6.89,0,.35-.47.77-.87,1.37l2.71-.4c-.37,2.83-5,4.91-1.42,8.26,1.46-1.6,4-2.25,3.34-5-.17-.73,1.49-2,2.56-2.66.32-.21,1.5.56,2.8,1.09,1-.5,2.41-1.17,1.48-3.4-.77-1.83.78-2.63,3.18-2.43.9.07,1.93-.93,3.17-1.58l1,1c2.69-.85,4.8-4.07,8.5-1.53.23,1.44,0,2.9-2.17,3.53-.1,0-.23.09-.25.16-1.37,4.36-6.64,6.21-8.42,9.93,1.5,1.36,3.86,2.53,4.07,3.94.24,1.62-1.42,3.46-2.27,5.24l-3.36-1.83,4.2-2.87-1.28-1c-5.2,1-3,5.4-5,7.89.77,1.58,3.13,3,1,5.13-.1.09.43.66.67,1l1.55-1,3.42,2.83c-1-1,1.44-3.44-2.05-3.5-.54,0-1-2.13-1.47-3.11,1.69-2.12,3.22-4.21,4.94-6.18s3.46-.09,5.16.31c.64,3.33-3.53,1.37-5,3.2l3.27.19-1.24,2.32.44.4,4.36-4.08-1.84-2-1.31-2.26,2.95-2.44-.66-.68-2.21,1.19-.76-.69,4.26-3.82.42,2.55,4-1.41c.59-1-.25-3.59,3.54-3.39,1.24.07,2.56-2.37,4-3.48s3.18-2,4.79-3l.69.78-3.44,2.5,1,.54a22.53,22.53,0,0,0-2.74,4c-.5,1.18-.27,2.59-.39,4.19l3.33-.51-12.55,6.71,2.86.25L150.46,169l2.6.46c-1.48,1.22-2.71,2.31-4,3.31-1.58,1.19-2.95,2.29-2.75,4.47.12,1.32-.73,2.42-2.69,3.13-2.29.83-4.08,2.72-6.32,4.32-.67-1-1.17-1.78-2-3l-2.76,2.46,5.89,2.28c.21,2.45.51,5.82.83,9.37.38-.3,1.26-.66,1.4-1.17.69-2.48,1.11-5,1.76-7.5.36-1.4,1.1-2.58,3.22-2.23.43.07.95-.36,2-.8-1.78-.58-4.26.22-3.65-2,.15-.54,1.78-.78,3.08-1.29.22-1.33,3.06-3.87,4.05-3.08a6.25,6.25,0,0,1,2,4c.19,1.89-.33,3.84-.59,6.17a15.8,15.8,0,0,0,2.31-.51,21.87,21.87,0,0,0,3.38-1.51,16.91,16.91,0,0,0,2.08-1.6l-3.13-1c-2-2.89,3.29-2.64,4.49-5.18l-4.07,1.43,1.9-4.68,3.23.34c.75,1.43-.41,4.07,2.68,4.56l2.35-9.67c1.4.87,2.22,1.67,3.21,1.91a12.33,12.33,0,0,0,3.31-.12c1.61-3,3.1-5.81,7.83-5.47,1.32.09,2.75-1.09,4.26-1.74,2,2.67,4,5,3,8.49-.33,1.17-.58,3.71,2.32,4.54.62.18,1.16,2.2.8,3.07a3.12,3.12,0,0,0,.88,3.91c1.5,1.48,1.82,3.15.33,4.89s-1,2.48,1.4,2.91c1.24.22,3.1,1.16,3.23,1.94.18,1.2.74,3-1.69,3.84-.62.21-.63,1.86-.93,2.88,2.49.67,3.45.2,3.71-1.66.51-3.59,4.8-5,8.33-2.86a32.67,32.67,0,0,0-2.15,3.3c-1.09,2.12-1,3.85,1.29,5.71a3.26,3.26,0,0,1-.21,5.1c-1.62,1.28-1.14,2.24-.15,3.48,2.06,2.57,1.65,5.15-.07,8a23,23,0,0,0-2.53,7.4c-.18.94,1,2.09,1.56,3.2,4-2.51,1.06-5.23,1.17-8.34l3.3,2.06c5.2-.83,8.42-3.54,9.54-8.39.41-1.78,1.73-3.39,2.64-5.07l-1.54-1,1.91-2.64-5.28,1.51v-3.28c-1,2.63-1.66,4.48-2.35,6.33l.08-.08-1.69,1,.08,0-4.26.42,3.72-3.72-.53-.34,2.33-.83a9.09,9.09,0,0,1-1-1.82,5.17,5.17,0,0,1-.38-2.62c.53-2.05,1.35-4,2-6.06l1.12.08c0,.63.23,1.35,0,1.89-1.59,3.28-.62,4.62,3.38,4.78a36.31,36.31,0,0,1,4.66.82l-2.46-4.06c-.5,1.19-.71,1.71-1,2.33-1.2-1.56,1.56-5.26,4.71-6.41l1.18,2,.35,0c-.53-3.5,3.86-2.28,5.21-4.07.29-.38,1.53-.21,2.34-.3.08.81.59,1.86.19,2.4-1.73,2.33-.78,4,1.25,5.63,2.12-1.15,1.84-2.88,2.06-4.73.19-1.67,1.45-3.95,3-4.63,3-1.32,1.94-1.9.11-3a6,6,0,0,1-1.26-1.15l1.56-3.34-3.06.9c.67-1.53,1.18-2.68,1.67-3.81,3.9.22,3.9.22,4.52,5.46l3.78-1.71c.18-1.23.48-3.42.87-5.6a11.16,11.16,0,0,1,1.62,0c-.34-1.15-.69-2.32-1.06-3.6,2.14-2,2.14-2,5.73-.53l7.91-6.69c1-.82,1.72-2.15,2.84-2.43,2.88-.73,3.52-.28,5.71,2.56-2.39,2.09-5.09,4-7.07,6.32s-3.25,5.22-4.89,7.83a14.31,14.31,0,0,1-1.87,1.81c1.35-.19,2-.31,2.59-.34a15.33,15.33,0,0,1,4.11,0c.45.1.94,2.16.69,2.3-2,1-4.08,1.82-6.14,2.7a39,39,0,0,0-3.83,1.74c-1.37.77-2.61,1.74-3.95,2.57-1,.62-2.12,1-1.21,2.5.32.54-.69,1.94-1.46,2.63a13.66,13.66,0,0,1-3.12,1.6l.42.8c2.91-1.19,5.94-2.2,8.69-3.63,2-1,4-1.34,5.15.32s.35,3-1.94,4.1c-3.7,1.75-7.74,3.14-11.12,5s-7.86,2.92-10.05,5.37c-3.39,3.78-8.07,5.22-12.27,7.55-1.34.74-3.21.8-4.86,1.07-1.35.23-2.74.29-4.12.43l.08.75,7.9-.7.32.9a24.74,24.74,0,0,1-3.92,1.39c-4.21.78-5,1.87-4.9,5.51a89.83,89.83,0,0,1-.74,11.22c-.09.81-.87,1.56-2,2.29L212,243.3c-.53,1.51-.86,2.47-1.2,3.43l-.7.12c-.47-1.51-1-3-1.38-4.53s-.5-3.06-1-4.54c-.12-.41-1-.63-1.6-.94-.21.51-.78,1.17-.59,1.5,2,3.44,1.7,6.29-1.81,9-.86.67-.13,2.9-.13,4.75l-1.06-1.49c-.79,1.54-1.61,3.12-2.44,4.72,3.18-.13,3.93.56,3,3.14-.87,2.39-2.1,4.68-3.12,7-.29.66-.79,1.5-.55,2.05,1.43,3.38.41,6.63-.38,9.91a4.54,4.54,0,0,0,.1,1.35c3.73-1,4.37-.57,3.62,2.73S203,288,205,290.88l-.07-.06c-1.33.6-1.91,1.34-.83,2.57,1.59,1.81,1.19,3.17-1,4.46-.83.48-1.13,1.73-1.53,2.68-.89,2.11-1.7,4.26-2.63,6.64l2.95,1.91-.18.36c-1.47-.28-3.86-1.18-4.26-.73a14.22,14.22,0,0,0-2.75,5.75l3.53-4.3a4.59,4.59,0,0,1-.85,5.95c-.49.48-2.46-.18-4.28-.37-.56.06-2.14.65-2.83.19s-.76-1.95-.4-3.26l2.86,1.58a37.28,37.28,0,0,0,1.76-6c.36-3,.27-6.07.35-9.11a1.47,1.47,0,0,0-.26-1c-2.61-2.64-1.45-5.14.36-7.93.61.79,1.07,1.4,1.71,2.22,1.22-2.82,2.56-5.44,3.43-8.18a3.27,3.27,0,0,0-1.23-3c-.61-.43-2.21.15-3.33.41a7.1,7.1,0,0,1-2.57.46c4.83-1.9,1.79-5.35,2-7.85.19-2.11-1.51-4.16,1.4-6.08.92-.6.15-3.17.15-4.94L193.7,263c2.25-2.48-.27-4.45-.24-6.29,0-2.21-2.06-4.07-.72-6.38l2.18,1.55c-.32-3.06-.61-5.71-.89-8.36l-.3,0a20.35,20.35,0,0,1-.28,3.13c-.41,1.74-1.09,3.12-3.49,1.42a11.07,11.07,0,0,0-2.77-1l-.83.44c.42,1.14.54,2.47,1.31,3.38,1.49,1.75,2.14,3.31.21,5.08a1.47,1.47,0,0,0-.49,1c.1,2.51.27,5,.46,8.11l1.55-3.47c4.79,3,3.51,7.16,3.36,11.51l-2.08-3.25-.5.78v-5.12c-3.24,3.74-5.73,4.15-7.37,1.58-1.09-1.7-1.49-3.73-2.18-5.63-.1-.25,0-.57-.1-.81-.49-.94-1-1.86-1.57-2.79-.44.71-.87,1.42-1.34,2.12a7.83,7.83,0,0,1-.72.82c-1.31-.42-2.46-.82-3.64-1.17-4.49-1.33-5.65-4-3.63-8,.47-.93.3-2.11.44-3.36l2.2.44-.64-2.69c-3,1.53-3.74,1.3-6.51-1.91l-3.32-1.76-.28-3.74-2.2,3.1-7.74-3.34c.36,1.29,1.46,2.92.93,3.68a26.61,26.61,0,0,1-5.78,5.93c-2.17,1.61-5.16,2.4-7.25,4.07-1.26,1-1.63,3-2.16,4.57a30.76,30.76,0,0,0-1,4.74,6.38,6.38,0,0,0,.28,1.8l2.7-1.1.09,1.64c.27,0,.56.08.66,0,2.61-2.21,4.74-4.73,8.88-5.4,2.45-.4,4.68-2.3,6.75-3.81,1.64-1.19,3.06-2.75,5.16-1,1.42,1.16.26,3.76-1.89,5.36-3.31,2.47-6.52,5-10.16,7.87l3.08,1.33c.26,4.45-4.25,5.78-7.13,8.07a72.64,72.64,0,0,1-8.55,5.38,24.6,24.6,0,0,1-5.09,2.45c-2.65.79-3.22,1.71-2.5,4.16,1,3.34,1.7,6.75,2.58,10.35,2.18-1.15,5.45-1.33,6.36-4.83.58-2.27,2-4.65,5.67-4.37.36,0,1.1-.46,1.12-.75.3-3.12,2-5.58,4.32-7.88,1.28-1.24,2-2.93,3.06-4.58a7.3,7.3,0,0,1,1.1.86c.77,1.18,1.5,2.37,2.25,3.55,1.62-1.36,4.12-1.33,5.47-3.55,1.17-1.91,3.94-3.31,6.34-4.32a2,2,0,0,1,2.59,2.72,26.72,26.72,0,0,1-3.66,5.33,23.38,23.38,0,0,1-7.49,6.1c-2.72,1.34-2.47,2.78.23,4.25,1.91,1.05,1.69,3.33-.6,4.29s-4.86,1.68-7.29,2.5a2.33,2.33,0,0,0-.56.22,22.33,22.33,0,0,1-3.65,2.81,24,24,0,0,1-4.56,1.24l-1.53,4.73c4.76-.12,10-2,15.26-1.08l-.07,1-2.66-.69c.07,1,.12,1.83.22,3.39-3.16.9-6.87,1.75-10.39,3-1.64.58-2.92,1.94-4.34,3a11.76,11.76,0,0,0-1.16,1.07,2.57,2.57,0,0,0-2.82-3.15c-1.1.06-2.38,1.41-3.1,2.43a8.4,8.4,0,0,0-1.23,3.61,8,8,0,0,0,.51,2.61,11,11,0,0,0,3-1.35,48.32,48.32,0,0,0,3.74-4.23c.3,3,.47,5.94,1,8.87.34,2.08,1.33,2.26,3.32.79,4.06-3,8.44-5.7,12.66-8.55a72.23,72.23,0,0,1,6.42-4.41c1.1-.58,2.82-.27,4.26-.36-.13,1.28.27,3-.51,3.78-2.84,3.05-6.09,5.8-9.14,8.7-1.85,1.76-3.58,3.6-5.4,5.39-2.22,2.2-4.47,4.38-6.7,6.56l.47.53,9.07-1.31c.83,5.42-4.47,5.92-7.52,7.85-2.22,1.4-5.27,1.91-8,2.47-2.09.42-4-.08-4.18-3-1.11,5.52-5.62,4.77-9.93,4.68l.38,3.65,6,.61-1,1.62,2.53.27.08.54-2.41.64a15.21,15.21,0,0,1-1.53,3.24c-1.23,1.54-2.25,2.74,1.14,2.8.36,0,.71.7,1.55,1.59-8,.67-12.1,4.74-14.08,10.85l-1.08-.37.95-3.75L114,370l11.85-10.82c-1.91-2-6.44.72-5.8-3.56l-.45,3.08c-1.69-3.19-4-1.48-6.3-.72l4,1.65-.13.3-5.16-.61c.79,2,1,3.59-2.68,2.79l3.52-5.16c-3.44,1.23-5.26,2.66-5.23,5.65l4.29.51-7.71,6.5,2.93,2.07c-2.7,3.2,1.91,4.31,2.62,6.8-.56.29-1.28,1-1.74.87-3.74-.92-4.79,1.88-6.71,3.51a15.71,15.71,0,0,1-4.23,2.76A21.28,21.28,0,0,0,99.38,383a8.75,8.75,0,0,0,.72-2.46l2.67-3.5-1.2-.76-6.85,7,.38.24,5.09-3.09L93.8,386.8c-.41-.62-.9-1.37-1.44-2.17,5-5.46,6-5.16,5-11.47l2.41,3.7c.77-.64,2.06-1.63,3.21-2.73.46-.44,1-1.3.83-1.68-1.63-3.08.24-5.53,1.66-8.09.69-1.24-.29-1.85-2.9-1.84,1.06,1.71.56,2.77-1.23,2.54a14.66,14.66,0,0,1-2.42-.76l1.08-3.38,4.81-.23v-5.76l2.6,2c-3.35-3.77.48-7.19.87-11.58l-1.69,2.76-.59,0,2-11.58-.61-.17-1.17,1.07c-.56-1.19-1.15-2.46-1.74-3.74l-.72.15v2.09l-.62,0-.74-3.9.58-.47a37.75,37.75,0,0,0,3.56,2.86,3.87,3.87,0,0,0,2.66.53,27.51,27.51,0,0,0,4.16-2.1l-.41-4.28c2.7.89,4.62,3.36,7.95.82l-6-2c.17-.45.47-1.2.78-2-4.15-.41-3.29,3.17-5.15,4.77a17.16,17.16,0,0,0-1.23-2.15c-1.25-1.54-1-1.22.54-2.47,1-.87,1.06-2.69.84-4.28l-1.37,3.08-.65,0c-.19-1.49-.43-3-.57-4.48s-.19-3-.3-4.66h1l.36-.87-4.92-1.65,6.35-1.79-1,2.81,4.16.48c-.2,3-.39,5.86-.56,8.44l3.3-1v2.86l.56.16,3.84-6.35-3-.38,2.53-4.6c2.37-.32,5.52-.5,6.85-3.37l-2.07-2.74c.69-.11,1.06-.13,1.41-.23s.9-.31,1.41-.5c-1.51-1.48-3.2-1-4.69,1.23-1.3-1.44-1.3-1.44,1.38-3.2-1.16-2.79-1.12-2.78,0-6.77.16-.55-.29-1.22-.34-1.84a19.53,19.53,0,0,1,0-2.65c.09-1.75.24-3.49.41-5.82l-8.24,1.4-.86,4.26c-3.26-1.31-3.52-1.25-4.89.89l-4.72-3.59-.84.71,3.13,7,1.46-2.58,2,1.11.34-.34L110.68,294c2.89,1.06,3.27,2.22,1.19,4.42-1.21,1.29-2,2.3,0,3.6a1.64,1.64,0,0,1,.11,1.79c-1.38,1.37-3,2.57-5.1,4.32.82-3.48,1.46-6.22,2.11-9l-1.14-.21c-.6,2.95-1.2,5.89-1.78,8.78l-2.25-1.64L101.67,309c.91,1.33,1.76,2.56,2.61,3.78l-2.2.26c-.74-2.55-1.47-5-2.29-7.86l5.12-.24c-.75-1-1.13-2.13-2-2.6-1.37-.75-3.22-.86-4.52-1.66-.93-.58-1.31-1.85-2.34-3.43l4.11,2.35.87-.23c-2.66-2.1-2.74-3.55.27-3.95,1.41-3.08,1.71-6.05,4.48-8.53,1.65-1.47,1.74-4.29,2.46-6.51,0-.15-.55-.64-.82-.62s-.59.44-.93.62-1,.42-1.48.62l.12.1c-2.56-3.51-2.37-4.12,1.65-5.19l.72-3.69-4.2,2.45-1.72-5.3,1.89.39c-.16-8.85,2.07-17.29,5.21-26.54l1.47-8.77-1.76.46L108,239l-1.35.36-3.1-4.37,2.2-1.56L103,229.58l-1.52,4.24c-.77-1.13-3.32-.75-2.53-3a4.37,4.37,0,0,0-2-.93c-2.3-.27-3.41-1.12-2.81-3.26a25.62,25.62,0,0,0,.73-3.67,3.6,3.6,0,0,0-.73-2.8l-2,4.56c-2-2-4.24-3.37-5.07-5.25-.51-1.17-2.42-3,0-4.78,1-.75,1.13-2.45,1.66-3.71l-.83-.29-1.7,3c-6.94-1.53-8.24-3.49-4.67-7.49a9.54,9.54,0,0,0-2.53-1.78c-2.11-.6-3.2-1.54-2.78-3.56.08-.38-.17-1.13-.44-1.19-4.58-1.09-3.8-5-5.28-7.72-.41-.73.61-2.05.94-3.12.15-.48.21-1,.32-1.5-2.06-.09-1.93,3.83-4.33,1.42a12.1,12.1,0,0,1,.75-1.87c.41-.67,1.15-1.87,1.4-1.8a7.44,7.44,0,0,1,3.37,1.54c3.24,3.32,6.29,6.79,9.75,10.6l1.29-3.4.76,0,.36,5.5,1.6-1.61.83,7c3.44-.39,2.54,2.63,3.52,4.36l1,.06A40.76,40.76,0,0,1,93.27,203c.33-.93,1.66-1.59,2.54-2.38.59.82,1.65,1.63,1.68,2.46.09,3.13-.34,6.28-.15,9.41.07,1.06,1.4,2.07,2.36,3.4,2.79-3.24-.65-7.34,3-9.85l2,4.51h-.32l1,4.14c.27-.51.23-.32.1-.22-1,.86-.68,5.78.45,7.29s2.21,1.49,3.58.4l0-.08c-.22.41-.33.94-.69,1.21-3.35,2.44-3.33,4.9.14,7.51l4.77-6.82,2.77,1.48c-4,2.53-5.39,3.47-1.24,8.33,2.74,3.22,1.64,6.8,2.15,10.24a17.19,17.19,0,0,0,1,3.79c.63-7.47,3.59-15-.84-22.37l4.06-.22c-2.74,1.89-1.51,3,.12,4.15,1.69-4.8,1.06-7.62-1.81-8.69,5.68-2.56,1-7.6,3.26-11.14l-1.43,1c-1.68-3.34-1.37-4,2.75-6.7l-5.92.66c.69,2.52,1.37,4.72,1.9,6.95.47,2,.78,4,1.16,6l-1.15.17L119,214.26l-1.73.83c-1-2.15-2.32-4.17-2.82-6.33-.29-1.25.72-2.73,1.37-4.79l1.09,2.54.46-.16-1.63-6-.49-.07-1,4.13ZM130.94,212c-1.73,3-1.73,3,.15,5.3.51-3.64.91-6.56,1.32-9.49l-1.06-.08a18.2,18.2,0,0,1,0,2.09,22.59,22.59,0,0,1-.49,2.28l-2.49-5.25-1.15.14c-.48,3.36-1,6.72-1.43,9.91Zm48.79,32.77L177.06,242c.44,2.61-.15,6.28,1.52,7.42,3.06,2.08.67,5.43,3.32,7.24.24-1.75.47-3.35.69-4.95l.66.09.83,7.38.74-.1,1.85-5-1.26.38-3.9-12.09h-1l-.87,2.35ZM124.15,191V187.2h-4.5c1.46,1.47.08,5.48,4.59,3.74-.85,1.94-2.23,3-5.2,1.81,3.25,2.35,3.13,6.57.13,8.09a23.46,23.46,0,0,0,.34-4.88c-.1-.81-1.26-1.52-1.94-2.27-.71.86-2.08,1.77-2,2.58a13.69,13.69,0,0,0,1.75,5.16,3.74,3.74,0,0,0,2.74,1.55,3.87,3.87,0,0,0,2.46-1.68c1.09-1.48,1.78-3.2,2.88-4.69.38-.52,1.45-.66,2.33-1l-.47,2.07.65.23,1.88-2.78c-1.09-2-1.93-3.45-2.76-5l1.07-.64,2.39,2.73a4.26,4.26,0,0,0,1.18,1.21c.2.09.94-.46,1.24-.83.82-1,1.53-2.1,2.32-3.14.59-.78,1.23-1.53,2.31-2.86l-5.52.44.48-1.3c-.52.11-1.33.08-1.51.36a13.63,13.63,0,0,0-1,2.44l-.64-.11-1-2.79c-1.06,1.55-1.65,2.51-2.34,3.41C125.46,189.76,124.78,190.37,124.15,191Zm60.47,37,0-.57-4.69-.66,3.34-1.37-1.27-3.8,5.8-3.29L184.73,217l1.18-4.32-.74-.16c-.48,1.08-1,2.14-1.44,3.24-.26.71-.65,1.58-.4,2.2.54,1.34.69,1.3-.6,1.7l-3.94-4.07c0-1.19,0-2.36,0-3.53,0-.7-.46-1.51-.21-2.1,1.14-2.64.49-4.42-2.94-5,2.06-2.38,2-2.54-1.15-3.11-2.19-.4-4.32-1-5.18-3.61,2.46,1.68,4.67,1.86,6.76.28.31-.24,0-1,0-1.59l-.93-.47-1,2.58-2.48-5,.45-.28,3.45,2.44c2.54-2.88-3-3-2.14-4.61l3.34-1.23-.18-.46h-1.88l2-2.15,2.71,3.89-1.63,1.73,3.43-.46c-1.08,2-2.32,3.48-2.72,5.15-.44,1.83-.1,3.81-.1,5.77,2.66-1.41,3.36-3.58,2.26-5.87.63-.39,1.62-.7,1.64-1.06.1-1.66-.08-3.32-.14-5,0-1.13-.6-2.82,0-3.29,1.9-1.41,1.64-3,1.32-4.69-.68-3.56-1.43-7.11-2.1-10.36-2.58,3.19-5,6.16-7.41,9.16-1.26,1.57-2.52,3.14-3.62,4.78-1.31,1.95-2.13,4.21-3.73,5.93-2.48,2.68-6.37,4-7.83,7.87-1.81,4.89-5.15,9.35-7.83,14l1.23-.44c1,1.29,2,2.6,3,3.85.48.57,1.35,1.57,1.65,1.47,3.1-1,6.61-1.7,9-3.5,1.9-1.44,3.37-3,6-3.24,1.83,2.75,1.78,7-.32,8.9-2.7,2.38-6.82,3.55-8.09,7.19a.6.6,0,0,1-.46.32c-2.2.07-2.13,1.18-1.72,2.61a11.63,11.63,0,0,1,0,2.75c1-1.94,1.85-3.76,4-1.19.19-.25.54-.5.5-.68-.48-2.19,1.28-2.92,3.05-2.85s2.75,1.31,2.26,3.15c-.12.47.51,1.33,1.07,1.68,1.7,1.07,3.55,2,5.32,3,.2.11.23.46.43.9l-2.54.11L179,242l1-.51-1.77-4.64,2-.41c-.36-2.89-.71-5.62-1.06-8.42ZM129,179.3l-.87-.45c.8-1.55,1.64-3.08,2.41-4.64s1.43-3,2.4-5.08l2.28,4.88c.71-.78,1.41-1.48,2-2.23.81-1,1.55-2,2.32-3.05l-.76-.38-2.58,2.92c-.65-1.19-1.49-2-1.43-2.81s1.07-1.4,1.69-2.07,1.2-1.21,1.8-1.81l-.64-.46-2.33,1.42c-.15-.84.39-1.19.64-1.66.66-1.22,1.95-2.74,1.56-3.69-.49-1.2-5.39.59-6.09,1.93-1.7,3.24-3.71,6.35-5.59,9.51,0,.07-.15.2-.2.19-2.78-.47-1.42,1.61-1.82,2.64l.84-.8c1.92,2,2.36,4,.07,6.15a2.65,2.65,0,0,0,.08,2.93c.77.73,2.38.79,3.63,1.14l-.38-1,3.44-4.3-.57-.39Zm12.4,32.22-.63-.11c-.2,2.06-.37,4.12-.6,6.17,0,.48-.14,1.12-.5,1.37-1.76,1.26-3.45,2.83-5.5,3.5-2.53.83-3.24,2.18-3.35,4.25-.11,1.88-.43,3.75-.65,5.62l1,.24,3.86-3c1.1-.86,2.24-1.69,3.29-2.61s2.33-1.61,2.46-2.53c.47-3.25.48-6.54.67-10l1.38-.22ZM116.08,326.59l.32.64a26.25,26.25,0,0,1,4,.06c.78.12,1.86.65,2.06,1.21s-.6,1.32-1.06,1.93a12.16,12.16,0,0,1-1.36,1.32l.9.82c1.2-1.05,2.42-2.07,3.59-3.14.39-.37.6-1.2,1-1.23,4.16-.33,2.19-2.88,2.2-4.76l-2.24,2.06.23-4.53-3.43,1-.24-.38,3.88-3.31L121.49,315l-.94,9.68Zm89.58-91.53,6.36,2.22-.66,2.81-.77-.08-.24-1.7-1,.07c.19,1.63.37,3.25.59,5.12l2.75-1c.56-5.17,1.11-10.14,1.6-14.6L209,229.4l-1.77,5c-1.91-.91-3.36-.71-3.91,1.4-.1.38-.8.79-1.31.93-2.8.72-2.38,2.33-1.55,4.8Zm-76.94,46.67c-2.75-2.56-3-3.53-1-5,.88-.63,1.71-1.31,2.56-2a29,29,0,0,1-3.43-1.42c-1.59-.9-2.4-.16-3.39.82a8.42,8.42,0,0,1-2.18,1.14l-.34,3.19ZM122,255.34l1.16.2c.16-.59.32-1.18.47-1.77.31-1.22.56-2.46.94-3.67s1.24-2.27,1.2-3.38c-.09-2.29-.94-4.56-.92-6.84,0-2.79.76-5.56.94-8.35.18-2.58,0-5.18,0-8.19a8.35,8.35,0,0,0-1,2.16c-.19,2.3-.15,4.61-.37,6.9-.29,3.07-.75,6.12-1.1,9.18,0,.44-.09,1.08.2,1.32,2.83,2.31.72,4.38-.18,6.62A41.2,41.2,0,0,0,122,255.34Zm-1.23-120.61c-3,.49-3.74,1.38-2.91,3.38a18,18,0,0,1,.71,4l-.94.15-1-1.41-.42,3.38a19.48,19.48,0,0,1,2.85.15c1.7.37,2.75,0,2.62-1.63C121.5,140.14,121.12,137.57,120.78,134.73Zm-5.62,13.36-.58-2.79c-1.21-.22-3.1-.93-3.45-.55a18.43,18.43,0,0,0-2.72,4.53c-.9,1.78.55,2.65,1.36,3.29Zm-2.44,194.54c-2,.79-2,.79-3.67,6.49,4.61.52,3.5-2.56,3.69-5.2,1.08,2.89,5.2,3.9,7.37,2.06Zm5.92-187c-.32-.62-.76-1.4-1.13-2.2-.71-1.55-2-1.55-3.14-.63-1.44,1.1-1.72,6.29-.2,8.59Zm78.83,102.73c.14-.91.28-1.81.43-2.72.25-1.5-.07-3.42.89-4.39,1.68-1.7,2-3.14,1-4.39,1.13-1.77,2-3.14,2.88-4.52-5.6,3-5.6,3-3.65,6.22C195.94,250,195.23,253.33,197.47,258.35Zm-76,74.63c-4.62,0-7.42,1.81-8.21,5.69,3.22-3.13,6.51-2.42,10,0a12.32,12.32,0,0,0-.06-3.26A10.81,10.81,0,0,0,121.42,333Zm73.85-99.24c.53-.75,1.35-1.42,1.2-1.78a33.38,33.38,0,0,0-2.78-5.33,2.66,2.66,0,0,0-2.09-.52,2,2,0,0,0-1.21,1.29,19.52,19.52,0,0,0-.23,3.14C191.91,230.33,191.91,230.33,195.27,233.74Zm-63.54-37.21-1.32-.56-4.72,9.57,1.21.74c1.13-2.47,5.33-1.43,5.75-4.72l-3.09,2c0-1.71-.28-2.89.07-3.91A15.1,15.1,0,0,1,131.73,196.53Zm-21.45,79.54c1.47-2,2.69-3.74,4.07-5.42,2-2.38,2-2.35-.18-4.65-1.59,3.57-3.29,7.38-5.21,11.67l4.55-1.12Zm37.3-45.2c-.5,2-1.16,4.32,1.67,5.47,2.52,1,2.59-1.35,3.52-2.25Zm58.18-14.34-1-.44c-.63.7-1.62,1.33-1.8,2.1a8.92,8.92,0,0,0,.21,3.51c.07.42.63.77,1,1.15.42-.34,1.15-.64,1.2-1C205.57,220.08,205.63,218.3,205.76,216.53Zm-67.6,55.14c-3.5-1.18-4.7-.13-6.85,5.6Zm-18-14.51c-4.3,3.42-5.44,7.51-3.26,9.28C117.85,263.6,118.88,260.65,120.11,257.16Zm25.55-69.6-1.18.05c-1.63,2.31-1,5.1,1.91,6.83C146.13,192,145.89,189.77,145.66,187.56ZM188.1,232.4a51.23,51.23,0,0,0-2.77,5.68c-.23.67.46,1.64.9,2.39.12.21.92.27,1.32.16a1.11,1.11,0,0,0,.53-.9C188.12,237.41,188.1,235.08,188.1,232.4Zm-75.24,52.11-.62-.73c-1.2,1-2.79,1.91-3.44,3.16-.36.7.85,2,1.26,2.86C111.09,287.87,112,286.19,112.86,284.51Zm8.09-3.65-.66-.68-3.89,2.63,3.42,2.93.56-.45-1.62-2.18a9.14,9.14,0,0,0,1.22-.94A13.85,13.85,0,0,0,121,280.86Zm15.47-74.79c-.38,2.53-.73,4.92-1.09,7.3C138.21,209.94,138.39,207.89,136.42,206.07Zm2.74,22.78-.9-.31c-1.9,2.82-4.09,5.54-3.52,9C136.2,234.71,137.68,231.78,139.16,228.85ZM121.73,342.71l-.18-1.11-6.11.71.16,1C117.59,342.69,120,345.48,121.73,342.71Zm-6.93,6.42c-1.2,1.77-2.28,3.38-3.61,5.33,1.59-.76,2.64-1.3,3.72-1.78C117.37,351.58,116.7,350.5,114.8,349.13Zm19.34-111.77-1.58-.18-1.16,7,.89.13C132.91,242,133.52,239.66,134.14,237.36Zm-27-53c-1.91,2-3,4-1.78,6.28l.91.09Zm7.74,67.32,1.83.05v-4.84l-1.59,0Zm22.69-47.25h1.11v-6.94h-1.11Zm-21-16.75v4.7C119.28,188,119.28,188,116.54,187.67Zm25.75,8.15c-2.33.92-1.32,2.46-1.27,3.71,0,.5.36,1,.41,1.5s-.13.9-.11,1.35a1.61,1.61,0,0,0,.81.16,2.8,2.8,0,0,0,.62-1.38C142.69,199.55,142.49,197.94,142.29,195.82ZM107.83,257.2h-.91c0,1.14.53,2.91-.09,3.3-2.75,1.73-.12,2.08,1,2.9Zm11.89-85.3,1.15.29.33-1.93,1.88.2-.51-4.44ZM125,108.68v2.5l.58,0V105L123,108.59Zm-17.49,54.65c-.81-4.36-1.46-5-3.43-4ZM90.83,218.92l1.15-.67a40,40,0,0,0-2.39-3.4,11.8,11.8,0,0,0-2,.8Zm58.57-13.13,1,.25q1.73-3.14,3.44-6.27l-.66-.22Zm-5.09,33.79-.7-.77-5.53,4,.57.61Z"/><path class="cls-1" d="M227,169c-1.16,2.08-2.36,4.14-3.43,6.25a1.33,1.33,0,0,0,.41,1.37,1.8,1.8,0,0,0,1.56-.31,23,23,0,0,0,1.65-3c1.71,3,1.38,3.58-2.14,4.14a5.14,5.14,0,0,0-2.82,1.33l2.21.82c0,.16-.07.44-.16.46-2.1.45-3.25,1-2.51,3.45.51,1.71-.74,3.83-1.39,6.52l-2.66-4a3.87,3.87,0,0,0-3.11,3.83c-.17,2.79-.51,5.59-.93,8.37a10.87,10.87,0,0,1-1.12,2.6l-1.06-.13c0-.84.35-1.87-.09-2.45a9.82,9.82,0,0,0-2.69-1.81l.64-.54,2.46.44a17.24,17.24,0,0,0,.58-2.71c.18-3.23-2.59-5.17-4.43-7.52-.85-1.1-1.6-2.26-2.67-3.76-.24-1.06-.52-2.7-1-4.29a27.61,27.61,0,0,0-1.9-4.54c-.25-.47-1.11-.71-1.68-1.05-.16.55-.64,1.22-.43,1.63a14.64,14.64,0,0,0,2.45,3.74c1.81,1.83,1.38,3.41-.49,5.39-.91-1.53-1.68-3-2.56-4.31s-1.83-2.6-3.05-4.31l2,.75c-.82-2.23-1.52-4.61-2.58-6.87-1.5-3.23-3.31-6.36-4.88-9.56-.64-1.29-.93-2.71-1.5-4a5.59,5.59,0,0,0-1.39-2c-2.48-2.08-4.49-4.21-1.88-7.75h-5.44c1-2.56,2.63-2.84,4.94-2.2l-2.09-1.28,5.29-8,.87,3.17L194,135.4l1.69,1.92H195c-.55,3-1.1,6-1.73,9.45a32.52,32.52,0,0,0,4.19,0c2.47-.33,4.24,1.24,3.57,3.3-.74,2.27-1.44,4.56-2,6.51l.81-.33,2.66,1.75a8.35,8.35,0,0,1,.83-2.34,12.2,12.2,0,0,1,2.72-2.79c.3-.21,2,.38,2.06.72.22,1.55.63,3.35,0,4.68-1.19,2.4-3.06,4.51-2.69,7.39.12.92-.58,1.93-1.15,3.62,2.1-1.5,4.14-1.82,3.9-4.27-.14-1.4.68-3,1.47-4.28a3,3,0,0,1,2.6-.4c.84.5,1.79,1.65,1.7,2.43a53.72,53.72,0,0,1-1.6,7.23,3.09,3.09,0,0,1-.85,1.44c-1.27,1.2-2.63,2.33-4,3.49l.46.63,1.78-.26c.11.76.21,1.52.43,3.11,1.19-.9,2.49-1.41,2.61-2.07.67-3.82,3.11-4.82,6.9-2.65,2.59,1.47,3.36,1.32,3.7-1.31a19.59,19.59,0,0,0-.65-7.84c-.55.6-1.11,1.19-1.63,1.8s-1,1.3-1.53,2l-1.21-.68,1.69-4.88-2.23-1.55,1.1-1.74c-3-2.46-2.92-3.51.58-5.82-.18-1-.36-2.05-.63-3.53l2,.94,3.06-6.36-4.57-.47,2.46-2.86L220,138.78c.72-1,1.36-2,2-2.9,1.8-2.45,2.08-4.93-.75-7.88l5.05,1.6c-1.32-1.21-3.09-2.12-3.1-3s1.63-2,2.88-3.36l-.73-1.84c1.85-.13,3.64-2.63,3.31-4.38-.39-2.14-2-.72-3.15-.86-.39-.86-.77-1.73-1.22-2.75l-2,2,1.68,3.45,1.63-2.77c.39,3.31-1.11,5.23-4.19,5,.85,1.22,3.63,2.23,0,4.08L217,119h4.26l.13-.51-2.48-1.26.54-2.7-.83-.23-2.29,3.55c-1.56-2.54-2.9-4.74-4.25-6.92a12.73,12.73,0,0,0-1.52-2.3c-3.25-3.37-3.27-3.36-.23-7.08l-5.44-2.86c.65-2,1.21-3.63,1.77-5.3v.21c.57,0,1.54-.21,1.64,0a20.27,20.27,0,0,0,3.43,5.19c1.32.46,3.72.86,3.75,1.37.1,1.81-.6,3.66-1,5.39l2.32-1.68,2.7,2.68c.05.37.09.75.14,1.13,2.51,1.48,1.14,3,.26,4.75l2-1.5,1.44,1.37c2.43-.15,3.31-3.93,6.9-1.46-.3-3.1-.57-5.83-.84-8.51l1.23,0-2.37-2.3c1.45-1,3.39-1.92,1.84-4.36l-2,3.78c-1.42-2.28-2.58-4-3.51-5.72a2.1,2.1,0,0,1,.42-1.83c1.48-1.95.68-2.77-1.41-3v3.23c-3.89-.93-2.88-3.93-4.11-5.52l1.85-2.78-.69-.4-2.16,1.79-2-2.38,1.31-2.6,2.88-.33c.25.86.47,1.6.78,2.65l1.6-2.35c0,2.74.34,4.61,3.22,4.91.2,0,.46.63.47,1,0,3.15,3.71,4.66,4.45,7.5a6.08,6.08,0,0,0,.91,1.44c3.77-2.55.29-5.12,1.07-7.62l3,2.16c-.7-3.67-1.41-7.44-2.17-11.45l1.34-.41c-2.06-1.51-2.74-3,.14-4.19.26-.11.14-.88.2-1.35a10.41,10.41,0,0,1-1.55.19c-1.25-.05-3.18.22-3.57-.33-.71-1-.5-2.48-.67-3.77a45.44,45.44,0,0,1,5,.74c.85.21,1.53,1,2.9,1.88a34.2,34.2,0,0,0,0-3.61c-.32-2.62,0-4.76,3.68-5.39.63-.11,1-1.55,1.43-2.38l-.71-.32-3.35,2.2-.94-.23A53.57,53.57,0,0,1,239,53.81c.14-.49,2.28-.83,3.45-.76.75.05,1.43,1,2.14,1.51h-.1l1.17-.9c2.8,2.81,2.77,3.73.15,6.14-.5.47-.48,1.35-.74,2.16l4.25.47L246.54,65h4.12l.14.45a30.11,30.11,0,0,1-4,2c-1.35.48-2.87.6-4.25,1.12l4.59.29c-1.6,1.82-3,3.31-4.3,4.91-1.16,1.43-2.14,3-3.26,4.56l2.7-.72-1.94,6.1.72.23,11.59-7.14a10.34,10.34,0,0,1,1.2,2c.45,1.29,1.09,2.73.79,4-.15.65-2.09,1-3.64,1.63-.06,2.18-2,3.27-4.83,3.24-.65,0-1.86-.56-1.85-.83a24.37,24.37,0,0,1,.76-3.86c-1.47-.2-3.27,1.87-4.13,6.79l1.81-2.3,2.06,1.21L241.63,92l.76.47L238,100.89c-1.24,1-2.8,1.72-3.63,2.89A29.41,29.41,0,0,0,231.9,109l3.78-.23a6.87,6.87,0,0,1,2.29-8c1.7,1,3.38,1.94,5.13,2.82a2.15,2.15,0,0,0,1.68.06,19.79,19.79,0,0,0,2.66-3.07c.18-.25-.22-.82-.56-1.91l4.53.87-.24-.44,5.58-1.7c.2-.06.42-.07.6-.14,3.56-1.53,3.56-1.53,7.09-.59,0,2.08-.39,3.43-2.59,5.2s-5.15,1.85-6.29,3.58c-1.69,2.57-5.15,2.3-6.6,3.71-2.72,2.66-5.85.36-8.94,2.16,0-1.82,0-3.22,0-4.61,0-.92.24-2.37-.27-2.64-.84-.45-2.21-.12-3.44-.12.86,4.76.86,4.76,3.1,4-.27,1.8-.51,3.4-.7,4.63l6.38-.81.16.74-4.65,2.32,5.39,1.89c.18-.11,1-.35,1.29-.83,1.16-1.89,2.52-2,4.45-.82a3.4,3.4,0,0,0,2.35-.33c1.84-.79,3.59-1.72,5.37-2.6l.63.7c1.09-1.72,2.17-3.45,3.55-5.66h7.64l-2,2.69-2.91-1.42c-1.07,3.32-2.11,6.57-3.15,9.82l.07-.07c-1.31,1.12-2.73,2.16-3.91,3.37a44.71,44.71,0,0,0-3,3.86c-3.13-.72-4.49,1.08-5.08,4.07-.22,1.07-1.44,2-2.44,3.27.19,1.11.58,2.81.73,4.53s0,3.26,0,5.12c1.56-.86,3.86-.08,5-2.19.26-.45,2.92-.51,3.75.06a8.58,8.58,0,0,1,3.2,3.95c.37,1.08-2.53,1.39-4.6.24l-1.32,2,5,.25L255,150.31c-.39-1.73-.68-3-1-4.48l-3.69,1.27,4.43,3.81L251,152.5l.14.48,1.75.08-4.63,5.17-1.42-5.54-1.72,2.05c-.64-1.41-1.28-2.83-1.91-4.24l-.86.29c.33,1.7.66,3.4,1.08,5.58l1.74-1.73-2.87,5.25,3.71-2.14c1.26,1.33,1.26,1.33-3.34,3.71L247,161c-.91,1.37-5.24,3.23-6.42,2.4-.79-.55-.64-2.11-1-3.49l-2.93,3a27,27,0,0,1-.42-3.56c0-.45.64-.91,1.2-1.32l3.64-4.38-.55-.42-2.21,1.44-.9-.24c.68-2.29,1.37-4.58,2-6.87l-.67-.13-.78,1.85-1.05-.15c.23-1.42.45-2.85.67-4.26-2.81-.32-4.49.87-4.58,3.52s0,5.05,0,7.2l-4.35,1.27.29.73c4.26-.17,5.22.74,4.65,4.57-.17,1.17-.37,2.2,1.58,2.28.56,0,1.41.33,1.59.71a11.51,11.51,0,0,1,.8,2.95,6.3,6.3,0,0,1-1,.33l-.68-2.73A7.47,7.47,0,0,0,229.6,171l-2.71-2.08c.37-.4.72-1.09,1.14-1.13,3.23-.29,3.61-.63,3.15-3.28l-2.33,1.06-.42-.73c1.11-.47,2.53-.71,3.24-1.47s.91-2.11,1.4-3.44c-2.26,1-2.22.9-4.31,0-.37-.17-1.8.5-1.81.81C226.83,163.44,226.92,166.2,227,169Zm6.62-31.81v-2.48l3.75-.24L235.1,133c3.59-1.22,5.3-4.72,4-8.62-3.17,1.24-6.31,2.4-9.35,3.72a3.12,3.12,0,0,0-1.6,1.81c-.55,2-.84,4.06-1.23,6.1,2.51.23,3.07-.35,2.55-3.07a4.61,4.61,0,0,1,5.72-5.43l1.14,3.93-3.12-2.53C233.32,131.9,230.57,134.24,233.57,137.14Zm-2.31,7.11c3.17,1.91,5.48-3.1,7.54-.23,1.58-.23,2.82-.5,4.07-.56,1.51-.07,2.78-1.69,2.07-3a7.59,7.59,0,0,0-1.3-1.53l-8.26,2.1C235.64,143.08,234.39,144.22,231.26,144.25ZM216.07,182.4c3.06.09,4.76-.77,4.7-3.34l-2.94-1.29.95-.8h2.93l.1-.51-5.5-2.2c-.66,1.37-1.39,2.5.91,3.49,1,.42,1.33,1.9,2,2.9l-1.6,1-.46-2.23-.67.43C216.34,180.65,216.22,181.42,216.07,182.4Zm24.23-65.75a30.58,30.58,0,0,0-3.81,2.94,2.14,2.14,0,0,0-.26,2.21,3,3,0,0,0,2.31.74C241.63,122.3,242.45,120,240.3,116.65Zm-8.22,4.67c.83-3.17,1.58-6.07-1.56-8.38,2.85,3.14,1.44,5.64-1.92,7.9Zm-5.49,24.93-3.88,4.44C226.55,151.36,226.61,151.29,226.59,146.25Zm-1.25-7,.49,1h4.31l-2.07-3.15Z"/><path class="cls-1" d="M232.5,264.29l-1.69.16a10.24,10.24,0,0,1,0-3.17,22.76,22.76,0,0,1,1.88-3.76c.62-1.23,1.21-2.46,2-4l-2.18,1.43c.64-1.31.75-2.28,1.32-2.57,2.24-1.13,2.53-3.08,3.29-4.94,1.15-2.83,2.8-5.5,4-8.31.57-1.35.44-2.91.89-4.32a11.75,11.75,0,0,1,1.57-2.49c3.48,2,3.53,2,5.23-1.23a10.75,10.75,0,0,1,3-3.9,4.41,4.41,0,0,1,3.82.05,3.7,3.7,0,0,1,1.11,3.45,37.69,37.69,0,0,1-3.25,6.79A31.54,31.54,0,0,1,250.9,241c-.57.78-1.22,1.52-1.76,2.31-.93,1.35-1.82,2.72-2.7,4.1a5.29,5.29,0,0,0-.62,1.37c-.33,1.15-.61,2.31-1,3.71.91-.43,1.9-1,3-1.39a19.52,19.52,0,0,1,3.94-1.15c.26,0,1.25,1.29,1.07,1.72-.55,1.27-1.2,2.9-2.38,3.47-2.19,1-3.11,4-6.44,3.41a7.65,7.65,0,0,0-.62,1.42c-1.17,2.79-3.16,3.72-6.57,3-1.84-.38-3.48-.38-4.41,1.38Z"/><path class="cls-1" d="M110.76,294.06c1.38-2.14,1.64-2.2,4.9-.89l.86-4.26,8.24-1.4c-.17,2.33-.32,4.07-.41,5.82a19.53,19.53,0,0,0,0,2.65c0,.62.5,1.29.34,1.84-1.13,4-1.17,4,0,6.77-2.68,1.76-2.68,1.76-1.38,3.2,1.49-2.2,3.18-2.71,4.69-1.23-.51.19-.95.37-1.41.5s-.72.12-1.41.23l2.07,2.74c-1.33,2.87-4.48,3.05-6.85,3.37l-2.53,4.6,3,.38L117,324.73l-.56-.16v-2.86l-3.3,1c.17-2.58.36-5.42.56-8.44l-4.16-.48,1-2.81-6.35,1.79h.1c-.85-1.22-1.7-2.45-2.61-3.78l2.12-2.87,2.25,1.64c.58-2.89,1.18-5.83,1.78-8.78l1.14.21c-.65,2.74-1.29,5.48-2.11,9,2.12-1.75,3.72-2.95,5.1-4.32a1.64,1.64,0,0,0-.11-1.79c-2-1.3-1.18-2.31,0-3.6,2.08-2.2,1.7-3.36-1.19-4.42Z"/><path class="cls-1" d="M205,290.88c.1-3.11-2.82-6.32.4-9.33.09-.08,0-.37-.07-.51-4.36-6.28,2.63-12.37-.44-18.63h.83l1.61,1.28c.3-3.42-1.38-6.83,1.52-10.15-.07-1.39-.17-3.45-.28-5.5l.6-.11,1.47,6,.91,0,1.43-6.12,5.19-4.82c1.66,1.61,1.73,2.64.67,4.31a21.33,21.33,0,0,0-2.43,6.75c-.3,1.32-.26,2.85,1.87,3.52.67.21,1,1.22,1.6,1.13h3.46c-.07,1.44.48,3.25-.31,4.24a31.87,31.87,0,0,0-5.22,9.68,20.51,20.51,0,0,1-2.36,3.75l-3.07-.29c.65,4-3.73,2.5-5.79,4.12,3.14-.65,3.84-.31,3.11,1.21a20.61,20.61,0,0,0-.92,2.6c-.57,1.75-1.12,3.5-1.84,5.78l-2,1Zm4.36-28.66,1.31.29,1.32-5.36-.88-.21-2,2.13,1.25.38Z"/><path class="cls-1" d="M85.73,244.69l.36-2.73-3,2.1-1.85-4,2.4,1,.61-.35-2.54-5.34.73-.48c1.12,1.14,2.25,2.26,3.35,3.41a52.63,52.63,0,0,0,3.76,3.86,42.32,42.32,0,0,0,4.25,2.8l4.14-3.95c1.65,8.83,3.65,17.09,3.28,25.9-1.7-2.37-7.28-1.37-6.24-6.3l4.58,2.53.43-.37c-.85-1.13-1.73-2.25-2.56-3.4-3.33-4.62-6.64-9.26-10-13.85-.34-.46-1.15-.64-1.75-.95Z"/><path class="cls-1" d="M203.53,121.23l-4.93-3.32,2.75-2.24c-2.61-1.7-2.74-3.63-1.17-5.76,3.63,3.37,4.42,5.61,2.69,8H205l.79,2.84a15.92,15.92,0,0,1,2.81-1.49c.88-.25,2.31-.49,2.78-.09,1.12,1,1.28,2.14-.38,3.17s-3.22,2.38-4.83,3.58l.57.62,3.06-2.45.83.31q-2.21,6.77-4.43,13.55c-4.54-1.35-5.29-2.46-5-6.15.05-.74-.7-1.53-1.08-2.29l-3.37,1.08-.33-1,6.35-1.05-2.38-2.73C201.34,124.44,202.36,122.94,203.53,121.23Z"/><path class="cls-1" d="M222,135.88c-.63.93-1.27,1.86-2,2.9l1.69,2.52a33.08,33.08,0,0,0-3.63,1.45,8.69,8.69,0,0,0-1.77,1.61l1.9.95,1.33.64-.18.71-2.58-.38c.22,1.31.46,2.67.7,4.05-3,.19-1.63-6-6.38-2.72-.73-3.29-6-4.47-4.81-8.82l2.92,1.5c-.37-3.38-2.1-6.66,1.78-9.73v4.63l4.37-2.94c-.07-.56-.39-1.54-.16-1.65a3.7,3.7,0,0,1,2.48-.45c.64.24,1.49,1.51,1.28,1.82C216.58,135.38,219.65,135.4,222,135.88Z"/><path class="cls-1" d="M268,125.44l-.53,3.11,1.61-.15.46.5L260,137.15l4.58-1.85.54.54c-1.51,1.42-3,2.85-4.88,4.57l-2.16-2.7-3,1.18c-1.89-3.51-1.78-4,1.56-8l-4.72-.58-.35-.86c1.09-1,2.07-2.57,3.3-2.72s2.95,1,4.48,1.54a50.17,50.17,0,0,1,4.2-3.79c1.84-1.35,3.18,0,4.47,1Z"/><path class="cls-1" d="M263.18,118.28c1.42.33,2.79-.89,2-2.27-1.41-2.6,1-4,2.42-4.87,1.17-.72,3.68.22,5.6.43l.35,1.13-2.19.9.37.43,2.79-.24L270.32,118l6-.72.16.45-3.5.75.2.76h3.91L271.35,122l1.44,1.45c-1.11,1.56-2.48,2.57-4.79,2l.09.08c-.34-2.23-1.88-2.84-4.85-2.1,0-1.91,0-3.56,0-5.2C263.25,118.21,263.18,118.28,263.18,118.28Z"/><path class="cls-1" d="M186.62,308.19l.75-3.05-3.09,1.45,1.38-3.92.72.5c.57-.5,1.51-.94,1.66-1.54,1.53-5.75,2.93-11.52,4.37-17.29l1.27,0,2.39,4.42-1.09.4-1.2-3.12c-2.29,8.66-4.44,16.81-6.6,25-1.22,0-.78-4.56-3.55-1C183.22,307.83,184.28,307.37,186.62,308.19Z"/><path class="cls-1" d="M98.92,181.45c.77-3,1.51-5.79,2.19-8.37L97.84,172c.75-.7,1.48-1.42,2.25-2.11.53-.47,1.11-.88,1.79-1.42a11.16,11.16,0,0,1-.38,9.57c-.36.69.24,1.75.41,2.7l-2.84,2c-2.22-.59-5-1.17-5.12-3.93-.07-1.44,1.08-2.91,2.27-4.27C96.86,177,94.67,179.94,98.92,181.45Z"/><path class="cls-1" d="M109.46,222.11c-.33-2.45-.25-5-1.12-7.33-1-2.65-1.83-5.19-1.35-8,.06-.35-.3-.76-.45-1.11,2.76.77,5.14,8.25,4,12.52.7.1,1.79,0,2,.33,1,1.49-.18,5.64-2,7.44L109.42,222Z"/><path class="cls-1" d="M98,141.4v0l-3,3.18c-.56-.43-1.2-.7-1.42-1.13a41.28,41.28,0,0,1-2.33-5.18,3,3,0,0,1,.49-2c3.1.24,2.08-2.21,3.17-3.78l.8,4L98,134.91Z"/><path class="cls-1" d="M213.17,215.1a6.25,6.25,0,0,1-1,8.25,12.86,12.86,0,0,0-1.59,2.26c-2.6-2.53-2.52-5.74.11-8.2.85-.79,1.72-1.56,2.59-2.35Z"/><path class="cls-1" d="M161.8,242.3l3.32,1.76c1.08,1.78,2.17,3.56,3.56,5.86-1.59-.73-2.69-1.25-3.8-1.74-.91-.41-1.66-2.06-2.94-.34a3.63,3.63,0,0,1-.91-.43C159.48,246.27,159.94,243.29,161.8,242.3Z"/><path class="cls-1" d="M115.17,115.18l-1.7-.85-1.07,2.49a18.41,18.41,0,0,1-3.15-1.77c-1-.82-1.73-1.79-.24-3,.68-.53.84-1.56,1.46-2.84,1.61,2.09,3.11,4.06,4.62,6Z"/><path class="cls-1" d="M184.74,129.73c3.76,2.37,3.7,2.68-.87,8.88l-2.7-1.91C181.74,134,187,134,184.74,129.73Z"/><path class="cls-1" d="M120.58,78.86c1.77.2,1.77.2,5.15-3.68L124.66,79l2.11-.49.46.59c-1.93,1.3-3.84,2.64-5.85,3.86-.19.11-1.13-.51-1.5-.94-.14-.17.38-.72.47-1.12A18.88,18.88,0,0,0,120.58,78.86Z"/><path class="cls-1" d="M105.41,324.58c-.57-1.82-1.09-3.52-1.62-5.22l-1.16.22.75,4.09-.8.11c-.64-2.7-1.28-5.4-2-8.51a19.61,19.61,0,0,1,2.53,2.19,34.71,34.71,0,0,1,3.59,5.17C106.91,323.09,105.74,324.1,105.41,324.58Z"/><path class="cls-1" d="M244.5,54.56h.1l-5.67-10.78,1.08-.45A39.06,39.06,0,0,0,242.7,48c.44.6,1.66.74,2.28,1C244.82,50.93,244.66,52.74,244.5,54.56Z"/><path class="cls-1" d="M214.88,286.11c2.38.52,1.32,2,.75,2.89-1.07,1.61-.79,2.59,1.1,3.32l.08-.07-6,1.6,4.12-7.75Z"/><path class="cls-1" d="M214.93,286.1,212,280l2.37.24.33-1.81h.63c.1,1.65.2,3.29.31,5.15l2.15-.85v2.17l-2.91,1.19Z"/><path class="cls-1" d="M220.5,212.25l1.54,1c-.72.88-1.43,1.78-2.55,3.19l-.56-2.36-.81-.12-.94,3.53-2.32-3.36-.08.08Z"/><path class="cls-1" d="M114.18,204.44l-1.39,2.18c-1.9-.69-3.91-1.34-5.81-2.16-.61-.26-1-1-1.41-1.49.79-.19,1.68-.68,2.36-.51,2.15.54,4.21,1.32,6.32,2Z"/><path class="cls-1" d="M223.23,275.9c.8,4.77.46,5.78-2,6.38C220,279.57,220.69,277.2,223.23,275.9Z"/><path class="cls-1" d="M144,125l-3.18,1.82-.47-.53c.87-1,1.76-2,2.57-3,.08-.11-.35-.52-.72-1,3.67.34,4.47-1.39,4.35-3.81l-.09.08,2.33.68a20.81,20.81,0,0,0-1.37,1.61c-.87,1.22-1.69,2.48-2.52,3.73Z"/><path class="cls-1" d="M229.85,173.46l2-3.55,6-.39c-1,1.6-1.28,2.64-3.57,2.34-1.24-.17-2.76,1.33-4.16,2.08Z"/><path class="cls-1" d="M206.67,93.63v-.21l-2.63,1.52c0,.29.1.78.24,1.85l-3.15-1.73,4.19-4Z"/><path class="cls-1" d="M144.94,124.46c.83-1.25,1.65-2.51,2.52-3.73a20.81,20.81,0,0,1,1.37-1.61l-2.33-.68.24-1.56.89-.35c.75,1.2,2.47,2.86,2.06,3.5C148.61,121.75,148.46,124.64,144.94,124.46Z"/><path class="cls-1" d="M219.67,107.69c0-.38-.09-.76-.14-1.13,0-.81.07-1.63.1-2.45.72.14,1.87.08,2.07.43a14.23,14.23,0,0,1,1,3.17Z"/><path class="cls-1" d="M93.94,257.49l-5.69-3v-2l6.18,4.6Z"/><path class="cls-1" d="M85.65,244.62c.82,1.77,1.64,3.54,2.54,5.46-2.62.77-3.49-1.32-4.85-2.86l2.39-2.52Z"/><path class="cls-1" d="M275.41,136l-4.91,2.37H273l.33.6a21.73,21.73,0,0,1-2.89,1.05c-.2.05-1-.89-.92-1.1a5.05,5.05,0,0,1,1.75-2.05,25.15,25.15,0,0,1,3.85-1.41Z"/><path class="cls-1" d="M228.76,67.5c-2.31-1.32-2.31-1.32.73-4.13l2.91,2.74-.55.49-1.6-1.28Z"/><path class="cls-1" d="M189.93,308.36v-4.69l.66-.36a15.3,15.3,0,0,1,2.19,3.54c.15.47-1.19,1.29-1.85,1.94Z"/><path class="cls-1" d="M266.82,143.55l-3.58-.89c.8-.8,1.44-1.92,2.44-2.28.76-.27,3.14-1.25,2.65,1.28h-3.28l-.13.4,2.14.45Z"/><path class="cls-1" d="M105.16,281.05,105,281a2.59,2.59,0,0,0,.31.77c1,1.26.94,2.43-.65,3.14-.32.15-1.73-.7-1.88-1.25C102.4,282.1,102.94,280.9,105.16,281.05Z"/><path class="cls-1" d="M191.56,303.83c0-1.76,0-3.53.06-5.29,0-.22,1.06-.61,1.1-.56.47.52,1.26,1.18,1.16,1.69a27.54,27.54,0,0,1-1.38,4.14Z"/><path class="cls-1" d="M208.26,206.29l3.38-4.25,1.39.87c-1.19,1.38-2.39,2.75-3.58,4.12Z"/><path class="cls-1" d="M132.25,365.7l-9,1.33-.21-1,8.91-1.12Z"/><path class="cls-1" d="M73.54,400.87l5.31-4.95c.12,2.79-4.82,3.44-2.44,6.48l-1.24.93Z"/><path class="cls-1" d="M216.73,292.32l2.22,2.12-6.58,3.87,4.44-6.06Z"/><path class="cls-1" d="M211.82,149.53l5.86,3C214.88,153.36,214,153,211.82,149.53Z"/><path class="cls-1" d="M216.94,196.38c.19-1.71.37-3.43.56-5.14h.93v5.21Z"/><path class="cls-1" d="M238.28,47.74a22.06,22.06,0,0,1,2.23,2.44c.15.21-.48.84-.75,1.27L237,48.81Z"/><path class="cls-1" d="M183.09,311.38q1.08,2,2.15,4l-.83.35C184.71,313.9,179.69,314.55,183.09,311.38Z"/><path class="cls-1" d="M206,190.85c-.87-1.68-1.51-2.91-2.14-4.15l.76-.36,2.75,1.7Z"/><path class="cls-1" d="M129,179.3l1.91-1.11.57.39-3.44,4.3.38,1c-1.25-.35-2.86-.41-3.63-1.14a2.65,2.65,0,0,1-.08-2.93c2.29-2.19,1.85-4.12-.07-6.15l-.84.8c.4-1-1-3.11,1.82-2.64,0,0,.15-.12.2-.19,1.88-3.16,3.89-6.27,5.59-9.51.7-1.34,5.6-3.13,6.09-1.93.39.95-.9,2.47-1.56,3.69-.25.47-.79.82-.64,1.66l2.33-1.42.64.46c-.6.6-1.22,1.19-1.8,1.81s-1.63,1.35-1.69,2.07.78,1.62,1.43,2.81l2.58-2.92.76.38c-.77,1-1.51,2.06-2.32,3.05-.6.75-1.3,1.45-2,2.23l-2.28-4.88c-1,2.07-1.65,3.59-2.4,5.08s-1.61,3.09-2.41,4.64Z"/><path class="cls-1" d="M124.17,191c.61-.64,1.29-1.25,1.83-1.93.69-.9,1.28-1.86,2.34-3.41l1,2.79.64.11a13.63,13.63,0,0,1,1-2.44c.18-.28,1-.25,1.51-.36l-.48,1.3,5.52-.44c-1.08,1.33-1.72,2.08-2.31,2.86-.79,1-1.5,2.12-2.32,3.14-.3.37-1,.92-1.24.83a4.26,4.26,0,0,1-1.18-1.21l-2.39-2.73-1.07.64c.83,1.5,1.67,3,2.76,5l-1.88,2.78-.65-.23.47-2.07c-.88.36-2,.5-2.33,1-1.1,1.49-1.79,3.21-2.88,4.69a3.87,3.87,0,0,1-2.46,1.68,3.74,3.74,0,0,1-2.74-1.55,13.69,13.69,0,0,1-1.75-5.16c-.08-.81,1.29-1.72,2-2.58.68.75,1.84,1.46,1.94,2.27a23.46,23.46,0,0,1-.34,4.88c3-1.52,3.12-5.74-.13-8.09,3,1.17,4.35.13,5.2-1.81Z"/><path class="cls-1" d="M141.4,211.52l1.46,2.69-1.38.22c-.19,3.47-.2,6.76-.67,10-.13.92-1.55,1.74-2.46,2.53s-2.19,1.75-3.29,2.61l-3.86,3-1-.24c.22-1.87.54-3.74.65-5.62.11-2.07.82-3.42,3.35-4.25,2.05-.67,3.74-2.24,5.5-3.5.36-.25.45-.89.5-1.37.23-2.05.4-4.11.6-6.17Z"/><path class="cls-1" d="M116.08,326.59l4.47-1.89.94-9.68,4.37,3.26L122,321.59l.24.38,3.43-1-.23,4.53,2.24-2.06c0,1.88,2,4.43-2.2,4.76-.36,0-.57.86-1,1.23-1.17,1.07-2.39,2.09-3.59,3.14l-.9-.82a12.16,12.16,0,0,0,1.36-1.32c.46-.61,1.24-1.43,1.06-1.93s-1.28-1.09-2.06-1.21a26.25,26.25,0,0,0-4-.06Z"/><path class="cls-1" d="M205.66,235.06l-5.19,6.51c-.83-2.47-1.25-4.08,1.55-4.8.51-.14,1.21-.55,1.31-.93.55-2.11,2-2.31,3.91-1.4l1.77-5,5.3-1.52c-.49,4.46-1,9.43-1.6,14.6l-2.75,1c-.22-1.87-.4-3.49-.59-5.12l1-.07.24,1.7.77.08.66-2.81Zm4.21.3,3.69-4.17C209,230.53,208.58,231,209.87,235.36Z"/><path class="cls-1" d="M179.63,244.8l.87-2.35h1l3.9,12.09,1.26-.38-1.85,5-.74.1-.83-7.38-.66-.09c-.22,1.6-.45,3.2-.69,4.95-2.65-1.81-.26-5.16-3.32-7.24-1.67-1.14-1.08-4.81-1.52-7.42l2.67,2.69c.27,1.78.53,3.57.8,5.36l1-.05,1.26-1.34c-.69-1.1-1.17-2-1.8-2.81A6.54,6.54,0,0,0,179.63,244.8Z"/><path class="cls-1" d="M128.72,281.73l-7.73-3.2.34-3.19a8.42,8.42,0,0,0,2.18-1.14c1-1,1.8-1.72,3.39-.82a29,29,0,0,0,3.43,1.42c-.85.65-1.68,1.33-2.56,2C125.76,278.2,126,279.17,128.72,281.73Z"/><path class="cls-1" d="M122,255.34a41.2,41.2,0,0,1,1.43-5.82c.9-2.24,3-4.31.18-6.62-.29-.24-.25-.88-.2-1.32.35-3.06.81-6.11,1.1-9.18.22-2.29.18-4.6.37-6.9a8.35,8.35,0,0,1,1-2.16c0,3,.14,5.61,0,8.19-.18,2.79-.91,5.56-.94,8.35,0,2.28.83,4.55.92,6.84,0,1.11-.84,2.24-1.2,3.38s-.63,2.45-.94,3.67c-.15.59-.31,1.18-.47,1.77Z"/><path class="cls-1" d="M137.28,316.25a48.32,48.32,0,0,1-3.74,4.23,11,11,0,0,1-3,1.35,8,8,0,0,1-.51-2.61,8.4,8.4,0,0,1,1.23-3.61c.72-1,2-2.37,3.1-2.43a2.57,2.57,0,0,1,2.82,3.15Z"/><path class="cls-1" d="M120.78,134.73c.34,2.84.72,5.41.93,8,.13,1.63-.92,2-2.62,1.63a19.48,19.48,0,0,0-2.85-.15l.42-3.38,1,1.41.94-.15a18,18,0,0,0-.71-4C117,136.11,117.82,135.22,120.78,134.73Z"/><path class="cls-1" d="M115.16,148.09l-5.39,4.48c-.81-.64-2.26-1.51-1.36-3.29a18.43,18.43,0,0,1,2.72-4.53c.35-.38,2.24.33,3.45.55Z"/><path class="cls-1" d="M112.72,342.63l7.39,3.35c-2.17,1.84-6.29.83-7.37-2.06-.19,2.64.92,5.72-3.69,5.2C110.67,343.42,110.67,343.42,112.72,342.63Z"/><path class="cls-1" d="M118.64,155.62l-4.47,5.76c-1.52-2.3-1.24-7.49.2-8.59,1.18-.92,2.43-.92,3.14.63C117.88,154.22,118.32,155,118.64,155.62Z"/><path class="cls-1" d="M197.47,258.35c-2.24-5-1.53-8.4,1.58-9.8-2-3.21-2-3.21,3.65-6.22-.87,1.38-1.75,2.75-2.88,4.52,1,1.25.65,2.69-1,4.39-1,1-.64,2.89-.89,4.39C197.75,256.54,197.61,257.44,197.47,258.35Z"/><path class="cls-1" d="M121.42,333a10.81,10.81,0,0,1,1.7,2.45,12.32,12.32,0,0,1,.06,3.26c-3.46-2.44-6.75-3.15-10,0C114,334.79,116.8,333,121.42,333Z"/><path class="cls-1" d="M195.27,233.74c-3.36-3.41-3.36-3.41-5.11-3.2a19.52,19.52,0,0,1,.23-3.14,2,2,0,0,1,1.21-1.29,2.66,2.66,0,0,1,2.09.52,33.38,33.38,0,0,1,2.78,5.33C196.62,232.32,195.8,233,195.27,233.74Z"/><path class="cls-1" d="M130.94,212l-5.16,4.9c.46-3.19,1-6.55,1.43-9.91l1.15-.14,2.49,5.25Z"/><path class="cls-1" d="M131.73,196.53a15.1,15.1,0,0,0-2.1,3.14c-.35,1-.07,2.2-.07,3.91l3.09-2c-.42,3.29-4.62,2.25-5.75,4.72l-1.21-.74,4.72-9.57Z"/><path class="cls-1" d="M110.68,294l1.42,2.35-.34.34-2-1.11-1.46,2.58-3.13-7,.84-.71,4.72,3.59Z"/><path class="cls-1" d="M110.28,276.07l3.23.48L109,277.67c1.92-4.29,3.62-8.1,5.21-11.67,2.18,2.3,2.13,2.27.18,4.65C113,272.33,111.75,274.1,110.28,276.07Z"/><path class="cls-1" d="M147.58,230.87l5.19,3.22c-.93.9-1,3.27-3.52,2.25C146.42,235.19,147.08,232.9,147.58,230.87Z"/><path class="cls-1" d="M205.76,216.53c-.13,1.77-.19,3.55-.44,5.3,0,.38-.78.68-1.2,1-.33-.38-.89-.73-1-1.15a8.92,8.92,0,0,1-.21-3.51c.18-.77,1.17-1.4,1.8-2.1Z"/><path class="cls-1" d="M138.16,271.67l-6.85,5.6C133.46,271.54,134.66,270.49,138.16,271.67Z"/><path class="cls-1" d="M120.11,257.16c-1.23,3.49-2.26,6.44-3.26,9.28C114.67,264.67,115.81,260.58,120.11,257.16Z"/><path class="cls-1" d="M145.66,187.56c.23,2.21.47,4.42.73,6.88-2.87-1.73-3.54-4.52-1.91-6.83Z"/><path class="cls-1" d="M220.5,212.25l-5.72,1.92c.69-1.85,1.38-3.7,2.35-6.33v3.28l5.28-1.51Z"/><path class="cls-1" d="M124.24,190.94c-4.51,1.74-3.13-2.27-4.59-3.74h4.5c0,1,0,2.39,0,3.81Z"/><path class="cls-1" d="M188.1,232.4c0,2.68,0,5,0,7.33a1.11,1.11,0,0,1-.53.9c-.4.11-1.2.05-1.32-.16-.44-.75-1.13-1.72-.9-2.39A51.23,51.23,0,0,1,188.1,232.4Z"/><path class="cls-1" d="M100.19,380.45l-5.09,3.09-.38-.24,6.85-7,1.2.76-2.67,3.5Z"/><path class="cls-1" d="M112.86,284.51c-.88,1.68-1.77,3.36-2.8,5.29-.41-.85-1.62-2.16-1.26-2.86.65-1.25,2.24-2.13,3.44-3.16Z"/><path class="cls-1" d="M121,280.86a13.85,13.85,0,0,1-1,1.31,9.14,9.14,0,0,1-1.22.94l1.62,2.18-.56.45-3.42-2.93,3.89-2.63Z"/><path class="cls-1" d="M130.85,212.05a22.59,22.59,0,0,0,.49-2.28,18.2,18.2,0,0,0,0-2.09l1.06.08c-.41,2.93-.81,5.85-1.32,9.49-1.88-2.32-1.88-2.32-.15-5.3Z"/><path class="cls-1" d="M136.42,206.07c2,1.82,1.79,3.87-1.09,7.3C135.69,211,136,208.6,136.42,206.07Z"/><path class="cls-1" d="M139.16,228.85c-1.48,2.93-3,5.86-4.42,8.73-.57-3.5,1.62-6.22,3.52-9Z"/><path class="cls-1" d="M152.37,161.42l1.84,2-4.36,4.08-.44-.4,1.24-2.32-3.27-.19c1.5-1.83,5.67.13,5-3.2C152.42,161.37,152.37,161.42,152.37,161.42Z"/><path class="cls-1" d="M130.48,122.3l1.14,2.8,2.32-.55.34.48-6.12,3.69c.88-2.4,1.61-4.39,2.33-6.4Z"/><path class="cls-1" d="M121.73,342.71c-1.73,2.77-4.14,0-6.13.6l-.16-1,6.11-.71Z"/><path class="cls-1" d="M114.8,349.13c1.9,1.37,2.57,2.45.11,3.55-1.08.48-2.13,1-3.72,1.78C112.52,352.51,113.6,350.9,114.8,349.13Z"/><path class="cls-1" d="M134.14,237.36c-.62,2.3-1.23,4.6-1.85,6.91l-.89-.13,1.16-7Z"/><path class="cls-1" d="M107.14,184.35l-.87,6.37-.91-.09C104.11,188.37,105.23,186.31,107.14,184.35Z"/><path class="cls-1" d="M114.88,251.67l.24-4.82,1.59,0v4.84Z"/><path class="cls-1" d="M137.57,204.42v-6.94h1.11v6.94Z"/><path class="cls-1" d="M116.54,187.67c2.74.34,2.74.34,0,4.7Z"/><path class="cls-1" d="M142.29,195.82c.2,2.12.4,3.73.46,5.34a2.8,2.8,0,0,1-.62,1.38,1.61,1.61,0,0,1-.81-.16c0-.45.16-.91.11-1.35s-.39-1-.41-1.5C141,198.28,140,196.74,142.29,195.82Z"/><path class="cls-1" d="M107.83,257.2v6.2c-1.12-.82-3.75-1.17-1-2.9.62-.39.09-2.16.09-3.3Z"/><path class="cls-1" d="M119.72,171.9l2.85-5.88.51,4.44-1.88-.2-.33,1.93Z"/><path class="cls-1" d="M125,108.68l-2-.09,2.56-3.59v6.16l-.58,0Z"/><path class="cls-1" d="M107.46,163.33l-3.43-4C106,158.3,106.65,159,107.46,163.33Z"/><path class="cls-1" d="M90.83,218.92l-3.21-3.27a11.8,11.8,0,0,1,2-.8,40,40,0,0,1,2.39,3.4Z"/><path class="cls-1" d="M149.4,205.79l3.83-6.24.66.22q-1.71,3.14-3.44,6.27Z"/><path class="cls-1" d="M144.31,239.58l-5.66,3.84-.57-.61,5.53-4Z"/><path class="cls-1" d="M233.57,137.14c-3-2.9-.25-5.24-.37-8.22l3.12,2.53-1.14-3.93a4.61,4.61,0,0,0-5.72,5.43c.52,2.72,0,3.3-2.55,3.07.39-2,.68-4.1,1.23-6.1a3.12,3.12,0,0,1,1.6-1.81c3-1.32,6.18-2.48,9.35-3.72,1.31,3.9-.4,7.4-4,8.62l2.22,1.41-3.75.24Z"/><path class="cls-1" d="M231.26,144.25c3.13,0,4.38-1.17,4.12-3.17l8.26-2.1a7.59,7.59,0,0,1,1.3,1.53c.71,1.26-.56,2.88-2.07,3-1.25.06-2.49.33-4.07.56C236.74,141.15,234.43,146.16,231.26,144.25Z"/><path class="cls-1" d="M227,169c0-2.75-.12-5.51,0-8.26,0-.31,1.44-1,1.81-.81,2.09.92,2.05,1,4.31,0-.49,1.33-.62,2.62-1.4,3.44s-2.13,1-3.24,1.47l.42.73,2.33-1.06c.46,2.65.08,3-3.15,3.28-.42,0-.77.73-1.14,1.13C226.9,168.89,227,169,227,169Z"/><path class="cls-1" d="M216.07,182.4c.15-1,.27-1.75.39-2.52l.67-.43.46,2.23,1.6-1c-.64-1-1-2.48-2-2.9-2.3-1-1.57-2.12-.91-3.49l5.5,2.2-.1.51h-2.93l-.95.8,2.94,1.29C220.83,181.63,219.13,182.49,216.07,182.4Z"/><path class="cls-1" d="M240.3,116.65c2.15,3.35,1.33,5.65-1.76,5.89a3,3,0,0,1-2.31-.74,2.14,2.14,0,0,1,.26-2.21A30.58,30.58,0,0,1,240.3,116.65Z"/><path class="cls-1" d="M238,100.82a6.87,6.87,0,0,0-2.29,8l-3.78.23a29.41,29.41,0,0,1,2.51-5.22c.83-1.17,2.39-1.94,3.63-2.89Z"/><path class="cls-1" d="M232.08,121.32l-3.48-.48c3.36-2.26,4.77-4.76,1.92-7.9C233.66,115.25,232.91,118.15,232.08,121.32Z"/><path class="cls-1" d="M226.59,146.25c0,5,0,5.11-3.88,4.44Z"/><path class="cls-1" d="M225.34,139.28l2.73-2.12,2.07,3.15h-4.31Z"/><path class="cls-1" d="M225.59,116,224,118.81l-1.68-3.45,2-2c.45,1,.83,1.89,1.22,2.75Z"/><path class="cls-1" d="M245.13,154.64l-1.74,1.73c-.42-2.18-.75-3.88-1.08-5.58l.86-.29c.63,1.41,1.27,2.83,1.91,4.24Z"/><path class="cls-1" d="M209.32,262.22l1-2.77-1.25-.38,2-2.13.88.21-1.32,5.36Z"/><path class="cls-1" d="M176.17,215.45l4,5.77c-3.38-.95-4.51-3-5.47-4.94a29.25,29.25,0,0,1-2.53-7.39c-.2-1.08.91-2.35,1.5-3.72C176.79,208.48,179,212.48,176.17,215.45Z"/><path class="cls-1" d="M209.87,235.36c-1.29-4.33-.91-4.83,3.69-4.17Z"/><path class="cls-1" d="M179.63,244.8a6.54,6.54,0,0,1,1.38,1.08c.63.81,1.11,1.71,1.8,2.81L181.55,250l-1,.05c-.27-1.79-.53-3.58-.8-5.36Z"/></svg>