<svg id="Layer_1" data-name="Layer 1" xmlns="http://www.w3.org/2000/svg" viewBox="0 0 333.82 432"><defs><style>.cls-1{fill:#99c864;}</style></defs><title>cherry</title><path class="cls-1" d="M169.58,224.26q-85.32-93.06-16-186.1l16,25.92,14.68-25.92Q256.41,131.2,169.58,224.26Z"/><path class="cls-1" d="M162.63,228.92q-93.78,79.46-148.79-27.4L38,188.76,21.53,164.58Q112,101,162.63,228.92Z"/><path class="cls-1" d="M167.36,243.13q16.94,139.59-84.28,155l1.23-32.65-24.66,8Q52.78,244.52,167.36,243.13Z"/><path class="cls-1" d="M172.71,243.22Q286.11,247,280.57,373.66L255,366.44l2,31.61Q153.7,383.83,172.71,243.22Z"/><path class="cls-1" d="M178.52,234.07Q215,100.39,310.59,144.51L297.46,172.8l24.86,7Q280.81,298.3,178.52,234.07Z"/><ellipse class="cls-1" cx="170.57" cy="233.7" rx="5.64" ry="7.02"/></svg>