<svg id="Layer_1" data-name="Layer 1" xmlns="http://www.w3.org/2000/svg" viewBox="0 0 333.82 432"><defs><style>.cls-1{fill:#8dc63f;}</style></defs><title>chokecherry</title><path class="cls-1" d="M258.78,199.46a8.17,8.17,0,0,1-.77,10.39c-4.59,5.21-9.2,10.71-14.86,14.61-13.83,9.51-28.28,18.14-42.43,27.2-6.34,4.06-12.66,8.19-18.82,12.52-6.73,4.73-11.75,6.87-22.87,8.91.37,7.56.74,15.21,1.12,23.06,2.48.2,4.17-.53,4.73-3,1.38-6,5.69-9.89,10.94-12.27,14-6.34,28.14-12.28,42.32-18.17,5.25-2.19,10.72-3.87,16.15-5.62a65.23,65.23,0,0,0,24-14.33c1.92,5.93,1,11.09-3,15s-8.47,7.9-13.53,10.09c-24.77,10.75-49.09,22.66-75.36,29.78-1.65.44-3.38.59-5.86,1,.76,9.13,1.53,18.34,2.29,27.54l1.3.52c2.07-2,4.13-4.1,6.22-6.12s3.8-4.1,6.06-5.63c9.54-6.44,19.16-12.78,28.88-18.94,8.8-5.58,17.65-11.12,26.75-16.22,4.89-2.74,10.35-4.52,15.55-6.74l1.16.79c-1.65,3.28-2.89,6.84-5,9.79-6.56,9.09-15.57,15.7-24.67,22.11-7,5-14.31,9.55-21.55,14.2A40.27,40.27,0,0,1,171.26,326a18.51,18.51,0,0,0-6.53,1.06,2.82,2.82,0,0,0-1.44,2.27c.57,5.83,1.34,11.64,2.09,17.78,1.05-.45,1.86-.54,2.16-1,4.85-6.82,12.42-10.1,19.27-14.29,9.6-5.86,19-12.17,29-17.23,10.23-5.18,21.14-9.09,31.76-13.52a12.34,12.34,0,0,1,2.76,0c-2.45,3.75-4.11,7.14-6.54,9.87-7.31,8.18-16.86,13.54-26.3,18.91-8.39,4.79-17,9.22-25.55,13.74-7.25,3.85-14.92,6.21-23.29,5.78a6.07,6.07,0,0,0-1.58.17,12.28,12.28,0,0,0-1.58.58c.87,5.52,1.75,11.1,2.73,17.27,1.56-.92,3-1.31,3.67-2.25,4.3-6.23,11.09-9.23,17.25-13,10-6.15,20.19-12.13,30.32-18.14,5.91-3.5,12.38-5.12,20.55-5.48-1.79,3.68-2.64,7.12-4.76,9.43-3.52,3.84-7.45,7.65-11.94,10.22-10.79,6.18-21.8,12.06-33.13,17.17-4.89,2.2-10.8,2.24-16.26,3.19-1.53.27-3.09.33-5.59.59,2.39,7.79,4.59,15.08,6.84,22.35.54,1.74,1.3,3.42,1.81,5.16.77,2.66,0,4.73-2.86,5.52s-4.81-.13-5.62-2.92c-2.58-8.88-5.1-17.79-7.62-26.69-.28-1-.39-2-.61-3.06-1.26-5.78-3-7.42-8.92-7.26a45.87,45.87,0,0,1-23.64-6c-10.67-5.86-21.46-11.53-31.84-17.85-5.72-3.48-10-8.59-10.75-16a35.89,35.89,0,0,1,19.14,5q18.92,10.92,37.46,22.45c3.75,2.34,6.76,5.79,10.3,8.48a54.81,54.81,0,0,0,6.47,3.76q-3-31.8-5.87-63C123.36,293,97,279.58,69.92,268c-5-2.18-9.51-6.19-13.52-10.08s-5.11-9-3.28-14.51c.28,0,.65-.11.78,0C65.09,254.17,80,257.43,94,262.76q19.11,7.32,37.8,15.66c6.95,3.09,13.33,7.19,15.56,15.26.3,1.11,2.08,1.82,4.09,3.48-.36-7.51-.66-13.73-.92-19.12-6.39-3-12.64-5.2-18.17-8.57-16.39-10-32.67-20.14-48.64-30.74A287.29,287.29,0,0,1,59.19,220a26.3,26.3,0,0,1-6.34-8.85c-1-2.05-.49-4.78-.65-7.21l1.25-.41c4.9,3.1,9.76,6.24,14.69,9.27,15.68,9.64,31.41,19.18,47.06,28.86,13.45,8.32,26.21,17.45,35.86,30.72,0-6.15.24-12.32-.21-18.44-.08-1.11-2.84-2.7-4.52-2.92-6.91-.92-12.29-4.39-17.68-8.43-14-10.47-28.26-20.5-42.28-30.91C76.2,204.08,65.44,197,58.16,186.41c-3.61-5.29-6.66-11-9.78-16.55-.77-1.39-.85-3.15-1.25-4.73l1-.89a32.11,32.11,0,0,1,4.47,3c6.27,5.85,12,12.35,18.74,17.58,7.59,5.88,16.19,10.49,24.14,16,12.3,8.48,24.6,17,36.53,26,4.8,3.61,8.74,8.38,12.76,12.88,1.3,1.45,1.55,3.77,2.42,5.63.7,1.5,1.61,2.91,2.43,4.36l1.24-.53V229c-8.15.29-13.43-5.18-19.09-9.48q-30.48-23.14-60.5-46.88c-7.9-6.22-15.45-12.93-20.45-21.79-1.37-2.43-2.08-5.21-3.42-8.68a16.08,16.08,0,0,1,2.7.92q43.44,29.41,83.77,62.8c5.51,4.57,10.31,9.8,12.74,16.76.55,1.58,2.17,2.79,3.29,4.16l1.09-.72v-24.5c-2.31-.44-5.07-.48-7.36-1.51-5.28-2.4-10.92-4.56-15.38-8.08-18.68-14.74-37.3-29.59-55.27-45.15-8.09-7-14.74-15.68-21.71-23.87-1.83-2.16-2.41-5.34-3.56-8l.87-.66c.93.54,1.89,1,2.78,1.62a905.24,905.24,0,0,1,74.6,55.85c7.9,6.64,15.74,13.34,20.43,22.78a32.79,32.79,0,0,0,3.41,4.65l1.53-1V183c-10.1-2.32-17.82-8.78-25.17-15.93-14.85-14.44-30.24-28.38-44.64-43.24-7.64-7.88-13.82-17.15-20.3-26-1.65-2.25-1.93-5.45-2.83-8.22l1-.6,6,4.84c24.7,20,48.73,40.65,70.9,63.3,6,6.11,10.54,13.56,15.68,20.31.19-4.12.48-8.93.55-13.74,0-.51-1.24-1.24-2-1.52a40.23,40.23,0,0,1-18-13.21c-14-17.44-28.14-34.8-41.49-52.71C86.21,89.81,83.39,82,80,74.66c-.87-1.87-.58-4.26-.9-7,1.11.52,1.64.61,1.93.92,16.51,17.77,33.27,35.32,49.42,53.41,9.12,10.22,17.06,21.41,20.79,34.87.15.55.74,1,1.86,2.39.26-6.19.07-11.4.8-16.48.86-5.89.25-9.64-6.7-11.85-4.6-1.47-8.84-5.49-12.12-9.29-13-15-25.58-30.48-35.31-47.83-3-5.27-4.58-11.32-6.42-17.14-.65-2.06-.1-4.47-.1-6.72l1-.22c2.44,2.89,4.82,5.84,7.35,8.67,9.82,11,20.09,21.66,29.44,33,8.76,10.66,16.68,22,20.39,35.58.37,1.38,1.64,2.52,3.39,3.57.44-8.71.94-17.41,1.23-26.12,0-.82-1.34-2.43-2-2.41-4.19.12-6-2.82-7.38-5.69q-8-16.6-15.58-33.43c-2.79-6.24-2.92-12.79-1.14-19.85C142,58.7,149,76.38,156.75,93.79c.5-6.08.95-12.16,1.52-18.23.18-1.92-.43-4.91,2.78-4.42,1.06.16,1.67,3.07,2.57,4.9l21-33.6c2.75,13.51.83,25.63-9,35.69-2.12,2.16-4.26,4.31-6.45,6.4-.65.62-1.54,1.49-2.26,1.44-4.54-.28-4.67,2.54-4.81,5.82-.51,12.25-1.18,24.5-1.85,37.82,1.73-2.06,3.36-3.31,4.06-4.94C170.72,109.76,181.46,98,193.05,87,204.89,75.69,217.31,65,230.34,53.32c-.44,3.27-.22,6.09-1.23,8.39-2.34,5.36-4.42,11.17-8.12,15.56-12.38,14.69-25.3,28.94-38.31,43.1-2.78,3-6.61,5.29-10.3,7.31-3.53,1.94-7.51,3.1-11.91,4.84v23.42c1.55-1.79,3.48-3.11,4.12-4.88,5.18-14.24,15.17-25.14,25.9-35.31,13.5-12.8,27.65-25,41.5-37.4A89.79,89.79,0,0,1,243.59,69c-.45,2.5-.25,5.36-1.47,7.42-4.31,7.31-8.29,15-13.88,21.33-12.14,13.7-25.11,26.7-37.91,39.82a119.2,119.2,0,0,1-14.91,13.52c-4,2.86-9,4.23-13.54,6.39-1,.49-2.49,1.49-2.51,2.3-.2,6.58-.12,13.18-.12,20.69,1.26-1.43,2.15-2.06,2.52-2.91,4.35-10,12-17.54,19.51-25.08a742.17,742.17,0,0,1,69.17-61.08,4.84,4.84,0,0,1,3-1.07c-.66,2.44-.79,5.21-2.08,7.27-3.89,6.2-7.57,12.72-12.53,18-11,11.77-22.57,22.93-34,34.24-6.86,6.76-13.9,13.35-20.9,20-6.47,6.13-13.42,11.5-22.41,13.75a3.94,3.94,0,0,0-2.41,2.81c-.26,4.68-.12,9.38-.12,14.92,2.13-2.26,4.6-4,5.78-6.29,4.35-8.56,11.24-14.88,18.4-20.94a882.38,882.38,0,0,1,77.63-58.41,3.75,3.75,0,0,1,2.61-.63c-1,2.63-1.4,5.71-3.08,7.82-5.53,7-10.8,14.41-17.47,20.25-15.68,13.75-32.15,26.63-48.22,40-7.41,6.16-14.36,13-23.73,16.3-4,1.4-8.16,2.12-12.37,3.18V227l1.06.63c2-2.58,3.87-5.19,5.87-7.73,3.72-4.72,6.82-10.16,11.33-14A995,995,0,0,1,261,142.38a10.27,10.27,0,0,1,1.72-.75l1.1.65c-1.8,3.64-3,7.79-5.54,10.83-5,5.92-10.17,11.87-16.22,16.67C219,188.08,195.45,205.9,172.16,224a18.11,18.11,0,0,1-10.5,4.13c-2.71.13-3.56,1.37-3.48,4,.17,6.09,0,12.19,0,18.84,3.4-1.55,5.77-2.29,6.16-6.32.28-2.89,2.58-6.17,5-8.19,9.93-8.47,19.9-16.94,30.47-24.61,9.94-7.21,20.55-13.54,31-20a113,113,0,0,0,24.58-21.05c2.12-2.35,4.66-4.34,7-6.49l1.31.79c-.19,1.4-.07,2.93-.62,4.18-4.71,10.63-10.43,20.8-19.83,28C226.22,210.42,208.7,223,191.4,235.86c-3.6,2.68-7.05,5.56-10.55,8.38-4.4,3.54-9.23,6.15-15,6.89a30.3,30.3,0,0,0-3.1.73c-3.34.77-4.74,2.53-4.22,6.12.56,3.84.45,7.78.66,12.51,1.54-1.35,2.82-2.08,3.54-3.17,8.56-13,21.07-21.63,34-29.72,19.44-12.1,39-24,58.47-36.07C256.38,200.85,257.51,200.21,258.78,199.46Z"/><path class="cls-1" d="M152.65,335.64c-5.17,0-10.87.52-16.42-.17a34.3,34.3,0,0,1-13.12-4.09q-21.61-12.92-42.57-26.86c-4.75-3.17-8.71-7.63-12.54-11.91-2-2.2-2.87-5.31-3.85-8.29C98,295,128.37,311,152.65,335.64Z"/></svg>