<svg id="Layer_1" data-name="Layer 1" xmlns="http://www.w3.org/2000/svg" viewBox="0 0 245.47 432.17"><defs><style>.cls-1{fill:#90c33e;}</style></defs><title>corktree85</title><path class="cls-1" d="M546.93,138.88c-.12.92-.23,1.83-.35,2.75-2.34,2.18-2.22,4.37-.06,6.58.35,6.93.61,13.78-5.23,19.16-3.68,3.39-5.08,8.24-7.84,12.23-4.23-3-5.84-2.76-9.18,1.43-.85,1.07-1.85,2.39-3.06,2.78a16.82,16.82,0,0,0-7.48,5,5.18,5.18,0,0,1-8-1c.83-3.18,3.7-5.35,4.66-8.33,1.21-3.8,1.26-8.07,6.33-9.29.61-.14.64-.51.15-.81-3.3-2,.66-4.43-.44-6.54,2.74-1.35,3.1-4,3.78-6.47a11.2,11.2,0,0,0,2.91-5.54c2.84-1.3,2.66-4.66,4.71-6.5,2.75-5.31,6.91-9.89,8.71-15.71,3.27-1.16,3.88-4.52,5.89-6.73.51-.57.94-1.32,1.84-1.1s1,1.17.87,1.88c-.63,3.89,1.3,7.71.13,11.69C544.9,135.79,544.08,138.2,546.93,138.88Zm-35.79,46.9c-.26-.11-.57-.36-.76-.29s-.25.47-.36.72c.26.11.57.35.76.28S511,186,511.14,185.78Zm22-9.31-.2.63c.12,0,.34-.06.34-.1A1.8,1.8,0,0,0,533.1,176.47Z" transform="translate(-384.9 -71.88)"/><path class="cls-1" d="M411.38,199.72a11.31,11.31,0,0,0,9.16.59c7-2.5,12.64-.3,18.89,3.34,7.08,4.11,14.85,7.89,23.66,7.65,1.74-.05,2.82,1.26,4.36,1.48,1.81,3,6,3.83,9.53,1.86,2.51.11,5.17-.26,7,2.09-.6,6.37,1.06,7.41,4,13.07s12.47,7.28,10.05,15.87c0,.11.07.38.15.4,4.24,1,2,4.28,2.57,6.59l-1.88.08a40.32,40.32,0,0,0-14.3-9.4h0a13.53,13.53,0,0,0-7.63-5.58c-5.18-3.47-9.77-7.89-16.17-9.37a6.48,6.48,0,0,0-3-2.73c-7-3.39-13.86-6.87-20.78-10.32a19.09,19.09,0,0,1-8.61-5.56c-.39-1.3,1-4-1.61-3.55C422.15,207,413.81,203.89,411.38,199.72Zm55.42,27.85c.1-3,2-6.41-1.37-8.89C466,221.63,464.73,224.81,466.8,227.57Z" transform="translate(-384.9 -71.88)"/><path class="cls-1" d="M440.21,138.75c8.63-1.09,13.86,5.15,20.09,9.05,1.52-1.22.23-2.42.4-3.52a.75.75,0,0,0,.45-.18c8.54,4.37,8.39,4.48,14.6,12.13,1.45,1.79,2.69,3.24,2.43,5.55h0c-4.39,1.74-5.48-4-9.11-4.05-.78,1.93,1,2.5,1.52,3.65,1.32,3.08,5.59,3.62,6.39,6.85s2.78,4.52,5.93,4.69c-1.71,4.24,4,4.44,4.39,7.64.26,2.24,1.88,3.32,4.15,3.52a13.49,13.49,0,0,1-2.31,10.1c-5.88-2.22-9.11-7.51-13.69-11.28-2.94-2.42-7-3.61-8.84-7.24,1.93-3.79,2.31-7.75,1.62-13.23-1.08,5.09-1.83,8.83-3.48,12.31-8-6-17.11-10.37-24.77-16.79,1.09-3.85,1.59-7.7.33-11.88-2,1.35-.28,4.73-3.36,4.23-2.8-.46-1.28-3-1.66-4.55a7.39,7.39,0,0,1-.16-1.82c.09-4.39.1-4.39,4.93-3.59l.42.19-.39-.23Z" transform="translate(-384.9 -71.88)"/><path class="cls-1" d="M449,287.65c12.84,1.6,25.11,4.58,37,10.21,8.49,4,11.59,10.09,12.84,18.15-2.3,4.09-.91,8.53-1.29,12.8-2,.48-3-1.64-4.72-1.87a46.2,46.2,0,0,0-16.24-8.57c-2-3.16-5.13-3.85-8.62-3.8a1.84,1.84,0,0,0-1.83-.87c-.33-3-2.64-2.81-4.83-2.82h0l-3.82-2.81c-.2-1.38.55-3-.79-4.22-1.66.9-.88,2.27-1.13,3.36a2.12,2.12,0,0,1-1.91-1,1.68,1.68,0,0,0-2-1.86l-2.8-.06c.5-1.45-1.57-3.33-.1-4.19,4.12-2.4,1.35-4.88,0-6.7a8.42,8.42,0,0,1-1.75-5.82Zm5.64,11.17a3.6,3.6,0,0,0-2.54-3.51c.12,2.06.62,3.27,2.53,3.51.12.82-.29,1.86.83,2.28.18.07.81-.41.86-.69C456.56,299.18,455.62,299,454.67,298.82Z" transform="translate(-384.9 -71.88)"/><path class="cls-1" d="M495.77,118.21c5.24,9,8.6,18.33,3.52,28.55-3,6-3.26,12.72-5.86,18.8l-1.71.41c-1.28-3.28-2.8-6.49-3.79-9.85q-5.13-17.38-9.92-34.86c-2.48-9-4.78-18.09-7.16-27.14,2.33-.21,2-3,3.82-3.69h0c1.67-.14,2.49,1.33,3.78,1.9.62,1.38,1.93,2.88,1.73,4.14-.78,4.88,5.93,7.07,4.34,12.09,0,.16.33.61.57.68,4.16,1.1,4.7,5.25,6.9,7.94C493.29,118.74,494.12,119.17,495.77,118.21Zm.56,5.54c-1.41-1.1-2.35-.72-3.06.29-.18.26-.06,1.1.11,1.15C494.59,125.59,495.42,124.93,496.33,123.75Z" transform="translate(-384.9 -71.88)"/><path class="cls-1" d="M504.89,372.2c12.81-13.87,29.52-15.24,47-13.37,4.74.51,9.24,2.85,13.26,5.63-.07,2.67,3,3.05,4,4.57-8.29,2.56-16.94,1.78-25,4.28a149.08,149.08,0,0,0-21,4.56c-1.66-.17-2.51,1.28-3.82,1.81a2,2,0,0,0-1.93.92c-4.9-.31-8.72,3.12-13.38,3.66l-.3-4A29.6,29.6,0,0,1,504.89,372.2Z" transform="translate(-384.9 -71.88)"/><path class="cls-1" d="M595.28,297.59c-.28.65-.55,1.3-.83,2a119.71,119.71,0,0,1-14.75,2.17c-2.8.26-6.07.22-8.21,1.64-2.81,1.87-4.84,1.2-7.41-.37-.56,2.1-1,3.84-1.49,5.58l-2,1.79c-5.87,0-9,4.19-12.34,7.83-3.66,3.92-6.31,4.14-10.9,1.74-2.7-1.41-5.48-2.79-9.3-1.89-2.52.6-7.13,1.43-8.49-3.19,1.47-.52,3.23-.7,4.36-1.62,5.24-4.24,11.74-6.2,17.65-9.12,9.35-4.62,19.57-7.35,29.65-10.25,8.22-2.38,17.08-2.49,24.85-6.52l.92-.92c2.88-.56,5.73-1.26,8.64-1.63,4.14-.52,2.62-2.16,1-3.93,2,.31,4.94-.87,5.48,2.16.36,2-1.13,3.82-3,4.85a8.15,8.15,0,0,1-3.21.47,25.21,25.21,0,0,0-8.67,2C593.74,291.92,592.82,295.86,595.28,297.59Z" transform="translate(-384.9 -71.88)"/><path class="cls-1" d="M532.39,253.12l-1.47.49a.25.25,0,0,0-.39.11c-2.86,1.71-5.29-.28-7.9-.84-.81-3.14-3.1-1.74-5-1.52l-.17-.06c.17-1.06.33-2.11.49-3.17,4.13-1.6,6.57-5.19,9.85-7.76,9.75-7.64,19.72-15,30.18-21.8,3.38-2.19,8-3.08,9.76-7.33a2,2,0,0,1,1.89-.9c2,0,4,0,5.88-1.25,5.73-3.68,11.49-7.36,17.54-10.49,2.63-1.36,5-4.09,8.68-3.44-.05,1.74-2.28,1.24-2.18,2.44.35,4.17-2.53,6-5.59,7.86-.3.18-.28.84-.41,1.28-1,.56-1.4,2-2.86,1.89-.67-1.15-1.81-1-2.89-1-.12-.66-.09-1.45-1.13-1.4a.44.44,0,0,0-.3.29c-.06,1,.75,1,1.44,1.11l-1,3.74c-3.61.72-3.06,5-5.78,6.42l-4.76,0-.41-.21.39.22c-.5,2.24-2.51,2.77-4.27,3.65-2.77,1.37-5.55,2.79-7.22,5.53-8.23,4.16-15.08,10.21-22.6,15.35-2.31,1.57-3.47,5.08-7.32,4.1-.42-.1-1.17.3-.85.74,2,2.86-.84,2.74-2.19,3.6C529.93,252,532.62,252.23,532.39,253.12Z" transform="translate(-384.9 -71.88)"/><path class="cls-1" d="M597,286.42l-.92.92-5.77,0c-.18-.64-.12-1.69-1.17-1.34s-.64,1.44-.74,2.25h-4.77c.14-3.14-3.44-4.14-4.21-6.78,0-.14-.88-.25-1.22-.1-.57.26-1.21,1-.72,1.44,2.61,2.35.19,4.88.42,7.28-7.48,2.05-15.22,3.21-22.41,6.32-2.24,1-4.51,2.37-7.21,1.91-1.3-.83-.59-2.32-1.13-3.32-1-1.83-1.48-.75-1.76.49-6.25,0-6.25,0-4.79,5.56-4.81,2.2-9.55,4.54-14.34,6.75-2.94,1.36-6.89,1.74-8.64,5.17l-2.75,0c-.26-5-2.62-9.78-1.24-14.88l.32.12a24.12,24.12,0,0,0,3.64-.86c3.27-1.33,7.27-.88,9.91-3.67,1.59-1.68,2.28-5.46,5.68-1.7.61.69,1.23-.54,1.74-1.07,5.21-5.49,11.94-5,18.56-4,1.34.2,2,.68,3-.45,1.33-1.41,3.35-1.6,5.19-2q2.37,4.41,4.77,0c2.84-4.55,9.2-2.62,12.57-6.34.26-.28,1.79.54,2.73.85-.06,4,2.47,4.78,5.92,4.68,3.75-.1,2.34-2.83,2.7-4.68,2.57.2,5.37,2.82,7.6-.66a9.2,9.2,0,0,1,4.8.76,1.8,1.8,0,0,1-1.72,1.82C597.58,281.24,596.84,283.52,597,286.42Zm-52.8,3.85c-.11.26-.38.57-.3.76s.48.24.74.35c.12-.25.39-.57.31-.75S544.48,290.39,544.21,290.27ZM573.74,288c-.27-.11-.59-.36-.78-.29s-.25.47-.36.73c.26.11.58.36.77.29S573.62,288.21,573.74,288Z" transform="translate(-384.9 -71.88)"/><path class="cls-1" d="M463,379.3c3.9-2.13,7.87-.76,11.47.41,7.82,2.52,16.29,4.55,19.07,13.78-.3,5.1.9,10.46-2.66,15l-1.34-.22c-1.21-3-3.17-5.13-6.64-5.6.2-2.05-.75-3-2.86-2.79-.29-2-1.29-3.36-3.5-3.52-.27,0-.89.59-.84.79.45,2,2.3,2.15,3.86,2.69a2.32,2.32,0,0,0,.46.06c-.21,2,.75,3,2.85,2.79-.09,1.92.55,4.69-3,2a15.61,15.61,0,0,0-7.78-3c-.91-.11-2.51-.09-2.17-1.12.9-2.7-1.43-2.68-2.69-3.4-2.51-1.44-5.66-1.71-7.34-4.63-.65-1.12-1.21.89-2.06,1h-.05c-.88-4.62-2.31-9.28,1.24-13.53.24-.28.07-.89.08-1.34l1.81.57C461.61,380.52,462.29,380.53,463,379.3Zm4.66,10.37c0,1.58,1.09,2.51,2.13,3.44a5.08,5.08,0,0,0,3.72,1.73c.25,0,.68-.72.63-1-.22-1.48-1.68-1.69-2.74-2.27-1.22-.66-2.13-1.92-3.74-1.84-.12-.67-.09-1.46-1.14-1.4a.42.42,0,0,0-.3.28C466.14,389.57,467,389.55,467.64,389.67Z" transform="translate(-384.9 -71.88)"/><path class="cls-1" d="M428.29,209.78a19.09,19.09,0,0,0,8.61,5.56c-1.46,2.8,1.63,2.79,2.7,3.53,3.67,2.51,8,3.95,11.57,6.72-2.41,3.13-1.58,5.57,2.27,6.62a1.65,1.65,0,0,1,1.23,1.13,8.67,8.67,0,0,0,12.62,3.55c1.63-1.16,1.69-1.61.11-3-2.08-1.79-5.46-1.7-6.7-4.54l0-1c6.39,1.48,11,5.9,16.16,9.37l-1,1.84H475a3,3,0,0,0-4.18-2.43c-2,.69-3.78,2.08-2.83,4.8l4.14-.53v1.85c-1.56.24-2.7,1.59-1.16,2.22,2.05.85,3.12,4.21,6.32,2.58.73-.38,2.43-.36,1.58,1.43-.3.6-2.24.45-1.14,1.7.43.49,1.76.41,2.66.32a22.08,22.08,0,0,0,3.16-.78h1c.69,1.17,1,2.75,2.85,2.78,1.17,1.74,4.39,1.91,3.94,4.88l.14.07c-2.69-.05-5.49-1.24-8,.77h-2.76c-1.91-.75-3.67-3.07-5.91-.55L473,258c.94-5.32-2.66-2.75-4.85-2.63h0c-1.42-5.11-5.42-7.9-9.39-11.2-6.52-5.41-12-12-20.68-14.47-1-.28-1.22-1.34-1.28-2.31a1.22,1.22,0,0,0,.33-.14s0-.15.07-.24l-.4.38c-3.66-.42-3-3.3-3.76-5.62-.71-2.06-11.7-4.31-14.53-3.49l.19-.2-.2.18.15-4.8a10.41,10.41,0,0,1,3.19.23C426,215.38,426.48,211.57,428.29,209.78Z" transform="translate(-384.9 -71.88)"/><path class="cls-1" d="M546.93,138.88c-2.85-.68-2-3.09-1.62-4.48,1.17-4-.76-7.8-.13-11.69.11-.71.09-1.64-.87-1.88s-1.33.53-1.84,1.1c-2,2.21-2.62,5.57-5.89,6.73h0c-1-4.11-3.24-5.29-5.86-2.42-4,4.32-7.87,8.87-9.52,15-1.65-2.95-2.43-2.4-4.28.34-1.66,2.47-.92,4.24-.5,6.4a4.92,4.92,0,0,0-4.11,1.62c-1,1-2.09,1.35-2.77-.39,1.3-2.42,2.69-4.74,2.79-7.64a7,7,0,0,1,3-5.06c8.21-6.35,14.64-14.36,21.79-21.69,5.62-5.76,12.14-10.25,20.65-11.08l2-.16,4.57-.17c0,.42,0,.85,0,1.27l-1.59.76.11.08c-9.62,3-11.72,11.41-14.15,19.23C547.39,129.26,547.5,134.17,546.93,138.88Z" transform="translate(-384.9 -71.88)"/><path class="cls-1" d="M593.55,206.74c.13-.44.11-1.1.41-1.28,3.06-1.84,5.94-3.69,5.59-7.86-.1-1.2,2.13-.7,2.18-2.44-3.66-.65-6.05,2.08-8.68,3.44-6,3.13-11.81,6.81-17.54,10.49-1.92,1.24-3.83,1.27-5.88,1.25,0-.62,0-1.23,0-1.85l1,0,26.65-15.13c-6.34-1.2-12.31.31-17.89-2.47-1-.51-2.5-1.35-3,.68-.71,3-3.25,3.42-5.74,3.95.87-1.45,2.34-2.67,1.92-4.63,2.68-2.77,5.86-4.17,9.83-3.42,7.65,1.46,15.08,2.53,22.57-1.53,4-2.19,9-2.76,13.55-4.07,1.07.75.88,1.9,1,3a65,65,0,0,0-12.26,14.82c-.89,1.46-2.88,2.29-4.37,3.41Z" transform="translate(-384.9 -71.88)"/><path class="cls-1" d="M457.49,308.08l3.82,2.81-2.86,0a7.82,7.82,0,0,0-4.79-1c-3.16-2.59-3.27-2.56-5.25,1.31,2,.57,3.37-1.49,5.25-1.31.22,3.05-3.24,6.53,1.31,9.14.68.39-1.06,1.17-1.36,2h-1c-.12-1.29-.63-2-2.06-1.26-.7.35-1.47.67-.48,1.54.79.68.57,1.63.63,2.5h-.95a2,2,0,0,1-1.92-.93A1.92,1.92,0,0,0,446,322a7,7,0,0,1-1.69-6.77c.22-.77.93-2.36-.4-2.05-3.06.72-2.89-1.85-4.24-2.91-2.27-1.76-5.42-2.25-8-3.9-1-.66-1.83.71-2,1.89-3.17-.49-5.79-1.76-7.21-4.75.84-.18,2.36-.22,1.92-1.25-.69-1.6-2-3-4.27-2.52v0c1.32-2.65-.8-1.81-2-1.88l-4.59-2.71.07-2h3.83c.27,1.93,1.78,1.91,3.22,1.84a14.82,14.82,0,0,1,6,1l22.24,8.37,2.8.06a1.82,1.82,0,0,0,2,1.86,2.12,2.12,0,0,0,1.91,1A2,2,0,0,0,457.49,308.08Z" transform="translate(-384.9 -71.88)"/><path class="cls-1" d="M518,248.13c-.16,1.06-.32,2.11-.49,3.17-6.72.06-7.45.59-7.3,7.09.2,8.62.72,17.24,1.1,25.86.13,3.33.27,6.66.4,10,0,.73,0,1.46,0,2.18a146.9,146.9,0,0,0-.49,20.12l-1.2.1c-.08-1-.46-1.66-1.56-1.78.27-11.23.49-22.46,0-33.7-.21-4.94-.79-9.83-1.13-14.75s-1.73-9-7.61-9.85c-.25-1.17-1.94-1.52-1.76-2.93l.88-.89,1.88-.08a7.85,7.85,0,0,0,.84,0,3.6,3.6,0,0,0,4,3.13c2.13-.45,1.08-2.85.94-4.34-.71-7.16-2.54-14.12-4.45-21.05-.34-1.85-.69-3.7-1-5.55a8,8,0,0,0-1-5.54l-.22-1.84a2.09,2.09,0,0,0-.62-2.2c-.05-4.41-2.94-8.2-2.95-12.63.62-.34,1.33,3,1.88,0a3.4,3.4,0,0,0,.76.32c.09.95-.16,2,.88,2.66,2,9.22,3.27,18.58,6,27.65l.42,2.75a8.35,8.35,0,0,0,1.28,6l0,.38.17.34c.2,2.68-.09,6,3.18,6.85,3,.79,3.85-1.89,4.41-4.23Z" transform="translate(-384.9 -71.88)"/><path class="cls-1" d="M544.11,373.31c8.1-2.5,16.75-1.72,25-4.28-1.06-1.52-4.09-1.9-4-4.57l16.69,4.37c-7.86-.1-12.67,6.23-19.37,8.37l-4.05.19.91,1.4-2.24.63c-1.8-1.84-3.89-.88-5.79-.41-8.28,2.05-16.48,4.53-25.16,3.38-.26,1.56,1.91.46,1.53,1.93-3.31.25-7-.84-9.57,2.44-.11.14-1.12-.38-1.72-.6,0-.93,0-1.87,0-2.8l1-1.82a1.74,1.74,0,0,0,1.94-1.86c1.31-.53,2.16-2,3.82-1.81.17,1.68,1.1,1.89,2.64,1.5,5.1-1.29,10.24-2.42,15.33-3.74C542.31,375.3,544.05,375.25,544.11,373.31Z" transform="translate(-384.9 -71.88)"/><path class="cls-1" d="M498.1,202.58c-.55,3-1.26-.3-1.88,0-2.24-2.78-5.27-3.39-8.67-2.92-.07-4.18-3.91-5.61-6.29-8.11-4-4.16-9.47-6.51-13.23-11.06-2-2.44-5-4.85-9-4,.2-4.54-4.27-3.94-6.63-5.66a6.79,6.79,0,0,0-2.88-2.71c-.7-1.06-1.83-.89-2.88-.94-2.22-4-6.95-5-10.05-7.9-2.58-2.37-4.62-2.17-7.13-.49-1.67-.11-3.14-1.32-4.91-.82l0,0c-.15-1.85-.28-3.73-2.95-3.68l.13-.21-.1.22.27-4.89h2.85a23.5,23.5,0,0,1,4.33,2.24c3.26,2.53,7.2,4.23,10.87,6.26,7.66,6.42,16.79,10.8,24.77,16.79l1.86.92c1.87,3.63,5.9,4.82,8.84,7.24,4.58,3.77,7.81,9.06,13.69,11.28a13.49,13.49,0,0,0,2.31-10.1l2,0c.7,2.93,1.23,5.93,2.18,8.78.44,1.31-.26,3.57,1.67,3.81,1.59.19,2.17-1.95,3.37-2.87l.27,1.39.18,1.56C499.13,198.23,497.12,199.67,498.1,202.58Zm-5.26-11.07c-.72,2.13-3.41,2.9-1.37,5.13.59.64,1.63,1.63,2.32.71C495.08,195.6,493.49,194,492.84,191.51Z" transform="translate(-384.9 -71.88)"/><path class="cls-1" d="M497.61,167.6c1.74-4.34,2.8-9,6.19-12.58,2.84,2.44,5.83,4.75,7,8.51.4,1.34,1.66,1.1,2.7,1.18a6.33,6.33,0,0,1-.76,3c-4.07,8.12-9.14,15.77-12.06,24.42-3.43-2.69-5.18-6-4.57-10.42C496.74,177.06,497.11,172.32,497.61,167.6Z" transform="translate(-384.9 -71.88)"/><path class="cls-1" d="M489.52,408.3l1.34.22a1.85,1.85,0,0,0,1.55,2.41c1.35.21,1.23-1.14,1.55-1.9a19.69,19.69,0,0,0,.73-2.66c1.2-.11,1.5,2.19,3.07,1.07q-6,39.66-9.61,79.59c-3.82-.42-.75,2.86-2.26,3.69l-1.48-1.83c1-16.1,3.54-32,5.46-48,.85-7,1.41-14.07,2.58-21,.87-5.22-1.25-8.43-5.77-10.67C487.38,408.05,488.5,408.34,489.52,408.3Z" transform="translate(-384.9 -71.88)"/><path class="cls-1" d="M459,176.51c4-.83,7,1.58,9,4,3.76,4.55,9.26,6.9,13.23,11.06,2.38,2.5,6.22,3.93,6.29,8.11l-5.8,1.7c-4.85-2.42-11-2.39-14.86-6.5-3.06-3.24-5.6-7-8.88-10.05,1-.12,1.93-.32,1.72-1.57-.05-.3-.58-.52-.88-.78L458,184c-1-.06-2.18.12-2.87-1a18.76,18.76,0,0,0,3.87-6.47Z" transform="translate(-384.9 -71.88)"/><path class="cls-1" d="M581.76,278.94c-.94-.31-2.47-1.13-2.73-.85-3.37,3.72-9.73,1.79-12.57,6.35l-4.77,0c-1.84.39-3.86.58-5.19,2-1.06,1.13-1.67.65-3,.45-6.62-1-13.35-1.48-18.56,4-.51.53-1.13,1.76-1.74,1.07-3.4-3.76-4.09,0-5.68,1.7-2.64,2.79-6.64,2.34-9.91,3.67a24.12,24.12,0,0,1-3.64.86c.25-2.39,2.3-3.11,4-4.12,11.37-6.61,23.32-11.51,36.63-13.39,8.12-1.15,16-3.62,24.05-5.42,2.3-.51,4.62-1.19,7-.66-.56.77,2.71,2.49-.73,2.62A4.33,4.33,0,0,0,581.76,278.94Z" transform="translate(-384.9 -71.88)"/><path class="cls-1" d="M440,158c-3.67-2-7.61-3.73-10.87-6.26a23.5,23.5,0,0,0-4.33-2.24c-.07-1.36-.55-2.7-.71-4-.54-4.07-5.25-5.24-6.08-9-.55-2.46-2.35-3-4.66-2.8l.14-1.38c9.65-.74,17.92,3.94,26.74,6.42l-.12,1.55,0,0c-4.83-.8-4.84-.8-4.93,3.59a7.39,7.39,0,0,0,.16,1.82c.38,1.59-1.14,4.09,1.66,4.55,3.08.5,1.4-2.88,3.36-4.23C441.57,150.25,441.07,154.1,440,158Z" transform="translate(-384.9 -71.88)"/><path class="cls-1" d="M429.71,308.22c.16-1.18,1-2.55,2-1.89,2.54,1.65,5.69,2.14,8,3.9,1.35,1.06,1.18,3.63,4.24,2.91,1.33-.31.62,1.28.4,2.05A7,7,0,0,0,446,322a2,2,0,0,0,1.88.93,2,2,0,0,0,1.92.93c-.85,3.05,2.11,5.93,5.71,5.56a16,16,0,0,0,11.71-1c1.34-.63,2.4-.88,2.6,1.05l-1.25.35.24.35,1-.69c3.27,1.48,7.91-.26,10,4,.16.33,1.22.55,1.69.38,2.84-1.08,5.55.11,8.31.3l1.25.18c-2.49,3-6,2.59-9.2,2.2-9.59-1.18-18.94-3.64-28.64-4.51-5.13-.46-8.55-5.38-11-9.54C438.86,317,434.16,312.74,429.71,308.22Z" transform="translate(-384.9 -71.88)"/><path class="cls-1" d="M491.09,334.36l-1.25-.18c-1.13-3.08-5.35-2.69-6.64-5.59l.21-.4-.23.39c-2.89-1-8.09,2.49-8.12-4,0-.11-.61-.4-.74-.31-4.18,2.75-4-1.56-5.42-3.16l.21-.4-.22.39c-4.85,1.32-6.89-3.05-10.15-4.86-2.26-1.25.47-3.55-.29-5.33l2.86,0h0c.55,2.64,3,2.18,4.83,2.82a1.84,1.84,0,0,1,1.83.87c2.61,1.83,5,4.12,8.62,3.8a46.2,46.2,0,0,1,16.24,8.57c.56,3.07,3.78,3,5.66,4.52l0,0v1.24Z" transform="translate(-384.9 -71.88)"/><path class="cls-1" d="M498.44,332.65c0-.41,0-.82,0-1.23,1.59.22,1.9-1.42,3-1.94.41,1.29,1.2,2.28,2.69,2.12s1.42-1.54,1.65-2.5c.92-3.87,1.71-7.78,2.55-11.67l1.62.27c.18,1.22-3.25,3.3.9,3.57-2.55,13.51-5.64,27-6.34,40.74-.16,3.05-.38,6.11-.56,9.16-1.33,2.82-.93,5.92-1.51,8.86-.2,1.06.78.33,1.25.27l.3,4,0,2.93-1,.73a5.63,5.63,0,0,1-2-3.67c-.21-2.43-1.17.29-1.8,0-.15-12.46,2.87-24.62,3.67-37a38.53,38.53,0,0,1,.86-7.3C504.93,335.33,503.31,333,498.44,332.65Z" transform="translate(-384.9 -71.88)"/><path class="cls-1" d="M448.91,304.34,426.67,296a14.82,14.82,0,0,0-6-1c-1.44.07-3,.09-3.22-1.84,1.88-1.23,5.62.44,5.77-3.48l7.66,0c.93,2,2.45.92,3.95,1,4.42.12,7.81-3.42,12.24-2.92a8.42,8.42,0,0,0,1.75,5.82c1.35,1.82,4.12,4.3,0,6.7C447.34,301,449.41,302.89,448.91,304.34Z" transform="translate(-384.9 -71.88)"/><path class="cls-1" d="M418.54,218.29c2.83-.82,13.82,1.43,14.53,3.49.79,2.32.1,5.2,3.76,5.62h0c.06,1,.31,2,1.28,2.31,8.69,2.47,14.16,9.06,20.68,14.47,4,3.3,8,6.09,9.39,11.2-6.34-3.57-11.47-8.63-17.14-13-8.58-6.63-17-13.48-26.58-18.86A15.91,15.91,0,0,1,418.54,218.29Z" transform="translate(-384.9 -71.88)"/><path class="cls-1" d="M459.18,135.75l-.21-2.84c.8-.08,1.77-.17,1.91-1,1.4-8.11,5.6-15.55,6.07-23.88,2,.61,4-6.27,5.39-.53,1.35,5.44,3.51,10.72,4.08,16.34-3.49.47-9-2.15-8.18,5-5.84,2-1.53,4.22.39,6.25-6.79,1.65-7.6,2.69-7.48,9.09a.75.75,0,0,1-.45.18,12,12,0,0,1-1.47-6.66c.47-.25,1.3-.43,1.36-.76C460.79,135.89,459.86,135.89,459.18,135.75Z" transform="translate(-384.9 -71.88)"/><path class="cls-1" d="M413.47,132.33c0,.46-.09.92-.14,1.38-1.93.43-4.65-1.29-5.63,1.75-.89,2.76,1.94,3.08,3.13,4.56,3.13,3.91,9,4.56,11.1,9.44l-.27,4.89c-4.16-3.29-7.13-7.7-11.32-11-6.68-5.32-14.18-6.94-22.52-6.09-1,.1-2.46.68-2.85-.66-.44-1.51,1.26-1.72,2.15-1.79C395.92,134.09,404.56,131.83,413.47,132.33Z" transform="translate(-384.9 -71.88)"/><path class="cls-1" d="M510.82,321.27c-4.15-.27-.72-2.35-.9-3.57,0-.36,0-.71.07-1.06l1.2-.1c3.26.76,3.36-1.54,3.69-3.61l2.75,0a1.76,1.76,0,0,0,2,1.89c1.36,4.62,6,3.79,8.49,3.19,3.82-.9,6.6.48,9.3,1.89,4.59,2.4,7.24,2.18,10.9-1.74,3.38-3.64,6.47-7.83,12.34-7.83-.19,2.32-1.75,3.35-3.86,3.84-2.41.56-3.11,2.18-2.89,4.37-2.84,1.84-4.94,4.81-8.61,5.41a1.13,1.13,0,0,0-1.53-.15c-3.48,1-6.46-1.06-9.69-1.53-5.77-.83-11.59-1.39-17.06-3.6C514.13,317.55,512.06,318.57,510.82,321.27Z" transform="translate(-384.9 -71.88)"/><path class="cls-1" d="M504,387.19l0-2.93c4.66-.54,8.48-4,13.38-3.66v.94c-.33.6-.65,1.21-1,1.82-1.14.15-2.82-.27-2.61,1.63.16,1.48,1.6,1.06,2.62,1.17.6.22,1.61.74,1.72.6,2.54-3.28,6.26-2.19,9.57-2.44.38-1.47-1.79-.37-1.53-1.93,8.68,1.15,16.88-1.33,25.16-3.38,1.9-.47,4-1.43,5.79.41-10.49,1.33-19.83,7.23-30.68,7.19a6.08,6.08,0,0,0-3.13,1c-5.07,3.23-9.87,2.69-14.42-.87C506.93,385.24,505.6,387.12,504,387.19Z" transform="translate(-384.9 -71.88)"/><path class="cls-1" d="M467,108c-.47,8.33-4.67,15.77-6.07,23.88-.14.87-1.11,1-1.91,1a17.72,17.72,0,0,1,.55-8.13c4.47-15.58,8-31.22,3.68-47.43-.07-.26.12-.59.19-.89,1.41.17,1.51,1.17,1.83,2.29,1.47,5.14,3.11,10.24,4.69,15.35a39,39,0,0,1-2.11,4.48C465.85,101.62,465.19,104.68,467,108Z" transform="translate(-384.9 -71.88)"/><path class="cls-1" d="M514.57,243.54c0-4.51-.92-9.3,4.07-12.25,3.39,1.57,6.61,2.28,8.89-1.67a4.19,4.19,0,0,0,3.1.42c5.08-1.47,3.3-5.48,3.64-8.72l1.88,0v8.32c-4,4.49-9.28,7.34-14,10.94-2.23,1.71-3.89,3.9-7,3.83Z" transform="translate(-384.9 -71.88)"/><path class="cls-1" d="M593.55,206.74l9.36-3.71c-2.23,4.42-7.47,5.5-10.59,9-.92,1-2.57,1.55-3.22,2.68-5.62,9.73-16.6,12.26-25.24,17.92,0-1.6,2.1-2.82.94-4.66,6.08-2.39,12-5,16.27-10.14,2.72-1.46,2.17-5.7,5.78-6.42,2.83,1.12,3.36-.77,3.84-2.74C592.15,208.72,592.55,207.3,593.55,206.74Z" transform="translate(-384.9 -71.88)"/><path class="cls-1" d="M572.58,190.87c.42,2-1.05,3.18-1.92,4.63-.07,1.76-1.53,2.5-2.59,3.63-2.31,2.44-5.82,3.13-8.06,5.5-1.58,1.67-2.28,3.86-5.71,3.12-2-.45-3.78,1.8-3.8,4.32h-1.84c-4-1.74-2.64,3.13-4.81,3.65-3.21-2.76-6.31-.05-9.46.19l-1.13-.2c3.62-3.62,8.68-5,13-7.3A121.11,121.11,0,0,0,571,191.81,9.64,9.64,0,0,1,572.58,190.87Z" transform="translate(-384.9 -71.88)"/><path class="cls-1" d="M501.13,196.78l-.18-1.56c2.72-.38,3.78-2.11,3.32-4.5a2.24,2.24,0,0,1,1.5-2.87,5.18,5.18,0,0,0,8,1,16.82,16.82,0,0,1,7.48-5c1.21-.39,2.21-1.71,3.06-2.78,3.34-4.19,5-4.47,9.18-1.43-1.46,2.64-4.52,3.09-6.78,4.64-6,4.09-12,8.1-18,12.15Z" transform="translate(-384.9 -71.88)"/><path class="cls-1" d="M564.8,227.93c1.16,1.84-.9,3.06-.94,4.66h0c-1.78.55-4.12.12-4.84,2.56-9,5.88-16.93,13.13-26.63,18,.23-.89-2.46-1.17-.55-2.37,1.35-.86,4.22-.74,2.19-3.6-.32-.44.43-.84.85-.74,3.85,1,5-2.53,7.32-4.1,7.52-5.14,14.37-11.19,22.6-15.35Z" transform="translate(-384.9 -71.88)"/><path class="cls-1" d="M595.28,297.59c-2.46-1.73-1.54-5.67,2-7.23a25.21,25.21,0,0,1,8.67-2,8.15,8.15,0,0,0,3.21-.47c1.86-1,3.35-2.82,3-4.85-.54-3-3.45-1.85-5.48-2.16v0a.82.82,0,0,0-.38-.76.78.78,0,0,1,.2-.58c2.35.39,4.93,0,6.89,1.81.14.52.15,1.35.95.4,5.43,1.06,11.63.34,16.08,6.87-7.47-3.47-13.51-2.59-19.46.69a19,19,0,0,1-6.23,2.13A12.17,12.17,0,0,0,595.28,297.59Z" transform="translate(-384.9 -71.88)"/><path class="cls-1" d="M428.29,209.78c-1.81,1.79-2.26,5.6-6.42,3.92a10.41,10.41,0,0,0-3.19-.23l-1.84-.05c-.27-4.53-4-3.17-6.67-3.72l-1,0-.57-1.05c1.1-1.33.08-1.61-1-1.87l-.11-.26a14.62,14.62,0,0,1,.8-7h2.94l.17.22c2.43,4.17,10.77,7.31,15.3,6.51C429.26,205.77,427.9,208.48,428.29,209.78Z" transform="translate(-384.9 -71.88)"/><path class="cls-1" d="M489.52,408.3c-1,0-2.14-.25-2.84.84h-4.8c-.08-.12-.18-.35-.24-.34a3.84,3.84,0,0,0-.72.25c-6.1-1.18-12-3-17.13-6.48.66-4.11-2.12-5.89-5.29-7.42-.22-.52-.43-1.05-.65-1.57.85-.1,1.41-2.11,2.06-1,1.68,2.92,4.83,3.19,7.34,4.63,1.26.72,3.59.7,2.69,3.4-.34,1,1.26,1,2.17,1.12a15.61,15.61,0,0,1,7.78,3c3.51,2.7,2.87-.07,3-2l0,0C486.35,403.17,488.31,405.32,489.52,408.3Z" transform="translate(-384.9 -71.88)"/><path class="cls-1" d="M513.47,164.71c-1-.08-2.3.16-2.7-1.18-1.14-3.76-4.13-6.07-7-8.51,1.67-2.15,3.15-4.48,5.74-5.77.68,1.74,1.74,1.43,2.77.39a4.92,4.92,0,0,1,4.11-1.62l1.92,3.75c0,1.54,0,3.08,0,4.61-.94,2.18-2.6,4.05-2.89,6.49A3.32,3.32,0,0,1,513.47,164.71Z" transform="translate(-384.9 -71.88)"/><path class="cls-1" d="M501.54,252.64a7.85,7.85,0,0,1-.84,0c-.54-2.31,1.67-5.63-2.57-6.59-.08,0-.18-.29-.15-.4,2.42-8.59-7.12-10.23-10.05-15.87s-4.59-6.7-4-13.07c4.49,4.69,6.5,11.07,11.33,15.52a2.79,2.79,0,0,0,1.69,2.34.66.66,0,0,0,.47.46C502.72,240.05,505.68,245.57,501.54,252.64Z" transform="translate(-384.9 -71.88)"/><path class="cls-1" d="M469.91,94.1c-1.58-5.11-3.22-10.21-4.69-15.35-.32-1.12-.42-2.12-1.83-2.29-.95-1.27-2-3-.76-4.1,1.76-1.49,2.57.9,3.57,1.76,5.55,4.75,8.66,11.35,13.41,16.72l-1.15,1.48c-1.29-.57-2.11-2-3.78-1.9-.12-.68-.1-1.47-1.15-1.41a.44.44,0,0,0-.3.29c-.08,1,.74,1,1.44,1.13-1.8.72-1.49,3.48-3.82,3.69Z" transform="translate(-384.9 -71.88)"/><path class="cls-1" d="M497.94,253.63c-.18,1.41,1.51,1.76,1.76,2.93l-8.43,1.87c.45-3-2.77-3.14-3.94-4.88-.31-1.55,1-4.66-2.85-2.78h-1c-3.36-3.12-5.43-8.12-11.42-7.47,0-.61,0-1.23,0-1.85,1.48.16,1.88-1.28,2.87-1.84h.95c3.19.53,4.88,4.31,8.59,3.74h0C488.09,247.88,493,250.82,497.94,253.63Z" transform="translate(-384.9 -71.88)"/><path class="cls-1" d="M455.15,183c.69,1.09,1.82.91,2.87,1,0,.29,0,.59,0,.88,3.28,3.1,5.82,6.81,8.88,10.05,3.87,4.11,10,4.08,14.86,6.5-3.3,1.92-6.49,1.64-9.75-.25a82.74,82.74,0,0,1-17.91-14.36l0,0c-1.74-1.14-3.56-2.2-4.6-4.08,0-.84-.07-1.67-.11-2.51l0-.07,1.9,0h1.91A2.77,2.77,0,0,0,455.15,183Z" transform="translate(-384.9 -71.88)"/><path class="cls-1" d="M478.46,92.32l1.15-1.48c1,1,2.32,1.87,2.79,3.06,3.41,8.66,9.38,16,13.37,24.31-1.65,1-2.48.53-3.77-1-2.2-2.69-2.74-6.84-6.9-7.94-.24-.07-.62-.52-.57-.68,1.59-5-5.12-7.21-4.34-12.09C480.39,95.2,479.08,93.7,478.46,92.32Z" transform="translate(-384.9 -71.88)"/><path class="cls-1" d="M553.86,318.57c-.22-2.19.48-3.81,2.89-4.37,2.11-.49,3.67-1.52,3.86-3.84l2-1.79c4.21-2.23,9.11-2.08,13.61-3.16,3.75-.91,7.77-4,12.12-1.47-4,2.52-8.82,2.09-13.17,3.55C567.37,310.09,560.94,314.86,553.86,318.57Z" transform="translate(-384.9 -71.88)"/><path class="cls-1" d="M533.26,215.71l1.13.2a4.64,4.64,0,0,0,1.76,3.56v1.83l-1.88,0c-.95-.17-1.67-2.51-2.37-1.1-1.54,3.08-5.64,5.12-4.37,9.4-2.28,3.95-5.5,3.24-8.89,1.67a39.4,39.4,0,0,0,8.78-11.72C528.62,217.21,530.36,215.65,533.26,215.71Z" transform="translate(-384.9 -71.88)"/><path class="cls-1" d="M408.27,199.51a14.62,14.62,0,0,0-.8,7q-8.37-9.48-16.75-18.94l.56-.75,13.19,8-2.88,0c-.69.35-.6.66.06.93,2.46-.09,3.49,2.51,5.72,2.86a4.57,4.57,0,0,1,.83.07A4.88,4.88,0,0,0,408.27,199.51Z" transform="translate(-384.9 -71.88)"/><path class="cls-1" d="M588.32,303.94c-4.35-2.51-8.37.56-12.12,1.47-4.5,1.08-9.4.93-13.61,3.16.47-1.74.93-3.48,1.49-5.58,2.57,1.57,4.6,2.24,7.41.37,2.14-1.42,5.41-1.38,8.21-1.64a119.71,119.71,0,0,0,14.75-2.17C593.05,301.86,591.32,303.73,588.32,303.94Z" transform="translate(-384.9 -71.88)"/><path class="cls-1" d="M424.55,158c1.77-.5,3.24.71,4.91.82l8.54,9.26c-2.62,3.66,2.21,5.81,1.95,9a4.2,4.2,0,0,1-3.25-1.7C432.62,169.59,428.59,163.78,424.55,158Z" transform="translate(-384.9 -71.88)"/><path class="cls-1" d="M484.41,488.89l1.48,1.83c1.51-.83-1.56-4.11,2.26-3.69a70.48,70.48,0,0,1-.12,13.7c-.49,3.72-3.2,3.59-5.51,3-3-.73-.51-2.51-.18-3.82.63-2.44,1.34-4.86,2-7.3l-.12-1.15C484.29,490.61,484.35,489.75,484.41,488.89Z" transform="translate(-384.9 -71.88)"/><path class="cls-1" d="M499.17,384.23c.63.31,1.59-2.41,1.8,0a5.63,5.63,0,0,0,2,3.67c-3.74,5.22-3.07,11.56-4.67,17.32-.2.73-.35,1.47-.53,2.2-1.57,1.12-1.87-1.18-3.07-1.07,1.29-4.21,2.91-8.36,2.39-12.88-.8-3.16,2.27-5.39,2.13-8.4v-.42l-.05-.42Z" transform="translate(-384.9 -71.88)"/><path class="cls-1" d="M440,177.06c.26-3.18-4.57-5.33-1.95-9,1.78,2.16,4.28,1.92,6.72,1.91l-1,1.85-1,.93c-.55.37-1.06,1-.28,1.34,1.07.42,1.09-.63,1.24-1.33v-.93a1.72,1.72,0,0,1,1.9,1.86c-.66.3-.67.61,0,.91l2.84,1c.32,1.53.63,3.07.95,4.6l0,.07-3.85,0C443.84,178.92,442.74,176.58,440,177.06Z" transform="translate(-384.9 -71.88)"/><path class="cls-1" d="M459.12,378.72c0,.45.16,1.06-.08,1.34-3.55,4.25-2.12,8.91-1.24,13.53-4.48-3.43-3.4-9.25-6.09-13.51-.66-1.05,1.46-1.11,2.41-1.37C455.77,378.27,457.46,377.7,459.12,378.72Z" transform="translate(-384.9 -71.88)"/><path class="cls-1" d="M581.76,278.94A4.33,4.33,0,0,1,585,277.2c3.44-.13.17-1.85.73-2.62a7.09,7.09,0,0,1,4.63.84l0,3.52c-.36,1.85,1,4.58-2.7,4.68C584.23,283.72,581.7,282.93,581.76,278.94Z" transform="translate(-384.9 -71.88)"/><path class="cls-1" d="M447.06,287.63c-4.43-.5-7.82,3-12.24,2.92-1.5,0-3,1-3.95-1,4.06-2.44,8.33-4.3,13.25-4.13a6.28,6.28,0,0,1,4.91,2.19Z" transform="translate(-384.9 -71.88)"/><path class="cls-1" d="M497.08,393.49c.52,4.52-1.1,8.67-2.39,12.88A19.69,19.69,0,0,1,494,409c-.32.76-.2,2.11-1.55,1.9a1.85,1.85,0,0,1-1.55-2.41c3.56-4.57,2.36-9.93,2.66-15Z" transform="translate(-384.9 -71.88)"/><path class="cls-1" d="M606.44,279.55a.73.73,0,0,0-.19.58c-.34.47,0,.63.37.76v0c1.64,1.77,3.16,3.41-1,3.93-2.91.37-5.76,1.07-8.64,1.63-.17-2.9.57-5.18,4-5.56a1.8,1.8,0,0,0,1.72-1.82Z" transform="translate(-384.9 -71.88)"/><path class="cls-1" d="M423.21,289.63c-.15,3.92-3.89,2.25-5.77,3.48h-3.83c-1.05,0-1.79.38-1.92,1.49l-2.22-.56a1.15,1.15,0,0,0-.55-.07l-4.16.2C410.4,290.48,416.64,289.39,423.21,289.63Z" transform="translate(-384.9 -71.88)"/><path class="cls-1" d="M501.41,329.48c-1.08.52-1.39,2.16-3,1.94l0,0c0-1,0-2-.94-2.65.38-4.27-1-8.71,1.29-12.8C499.6,320.51,502.91,324.56,501.41,329.48Z" transform="translate(-384.9 -71.88)"/><path class="cls-1" d="M619.54,184.8c-.13-1.05.06-2.2-1-3,2.76-1.14,5.39-3.08,9.72-1C624.61,182.06,622.66,184.43,619.54,184.8Z" transform="translate(-384.9 -71.88)"/><path class="cls-1" d="M409.13,209.72l1,0c1.66,2.19,3.31,4.4,6.67,3.73l1.84.05-.15,4.8C415.36,215.46,410.46,214.44,409.13,209.72Z" transform="translate(-384.9 -71.88)"/><path class="cls-1" d="M590.38,278.94l0-3.52a25,25,0,0,1,7.62,2.86C595.75,281.76,593,279.14,590.38,278.94Z" transform="translate(-384.9 -71.88)"/><path class="cls-1" d="M477,214.64c-3.56,2-7.72,1.15-9.53-1.86C471,211.73,473.79,214.08,477,214.64Z" transform="translate(-384.9 -71.88)"/><path class="cls-1" d="M458.5,395.16c3.17,1.53,5.95,3.31,5.29,7.42C461.39,400.53,459.15,398.38,458.5,395.16Z" transform="translate(-384.9 -71.88)"/><path class="cls-1" d="M503.66,380.3c-.47.06-1.45.79-1.25-.27.58-2.94.18-6,1.51-8.86l1,1A29.6,29.6,0,0,0,503.66,380.3Z" transform="translate(-384.9 -71.88)"/><path class="cls-1" d="M483.44,259.27c2.48-2,5.28-.82,8-.77C488.94,260.54,486.18,259.84,483.44,259.27Z" transform="translate(-384.9 -71.88)"/><path class="cls-1" d="M401.59,194.8l2.88,0c1.68.57,3.56.76,4.77,2.26l-.95.55-.92.93c-2.23-.35-3.26-3-5.72-2.86Q401.64,195.27,401.59,194.8Z" transform="translate(-384.9 -71.88)"/><path class="cls-1" d="M507.4,242a8.35,8.35,0,0,1-1.28-6C510.11,237.26,508.39,239.7,507.4,242Z" transform="translate(-384.9 -71.88)"/><path class="cls-1" d="M546.52,148.21c-2.16-2.21-2.28-4.4.06-6.58Z" transform="translate(-384.9 -71.88)"/><path class="cls-1" d="M420.15,299.7c2.24-.47,3.58.92,4.27,2.52.44,1-1.08,1.07-1.92,1.25Z" transform="translate(-384.9 -71.88)"/><path class="cls-1" d="M474.77,258.72c2.24-2.52,4-.2,5.91.55A6.48,6.48,0,0,1,474.77,258.72Z" transform="translate(-384.9 -71.88)"/><path class="cls-1" d="M468.17,255.37c2.19-.12,5.79-2.69,4.85,2.63A7.14,7.14,0,0,1,468.17,255.37Z" transform="translate(-384.9 -71.88)"/><path class="cls-1" d="M500,219.29a8,8,0,0,1,1,5.54C497.7,223.49,498.59,221.44,500,219.29Z" transform="translate(-384.9 -71.88)"/><path class="cls-1" d="M511.66,294.24c-.13-3.33-.27-6.66-.4-10C512.66,287.54,512.16,290.89,511.66,294.24Z" transform="translate(-384.9 -71.88)"/><path class="cls-1" d="M559,235.14c.72-2.44,3.06-2,4.84-2.56C562.83,234.47,560.73,234.46,559,235.14Z" transform="translate(-384.9 -71.88)"/><path class="cls-1" d="M517.63,251.36c1.9-.22,4.19-1.62,5,1.52C520.72,253.13,519.23,252.09,517.63,251.36Z" transform="translate(-384.9 -71.88)"/><path class="cls-1" d="M445.57,180.22l3.85,0c0,.84.07,1.67.11,2.51A7.77,7.77,0,0,1,445.57,180.22Z" transform="translate(-384.9 -71.88)"/><path class="cls-1" d="M421.63,154.34c2.67-.05,2.8,1.83,2.95,3.68C422.91,157.31,422.46,155.68,421.63,154.34Z" transform="translate(-384.9 -71.88)"/><path class="cls-1" d="M559.31,378.79l-.91-1.4,4.05-.19A4.19,4.19,0,0,1,559.31,378.79Z" transform="translate(-384.9 -71.88)"/><path class="cls-1" d="M459.18,135.75c.68.14,1.61.14,1.41,1.11-.06.33-.89.51-1.36.76A1.58,1.58,0,0,1,459.18,135.75Z" transform="translate(-384.9 -71.88)"/><path class="cls-1" d="M497,234.59a2.79,2.79,0,0,1-1.69-2.34c.82.18,2-.91,2.42.32C497.88,233.09,497.23,233.91,497,234.59Z" transform="translate(-384.9 -71.88)"/><path class="cls-1" d="M418.13,297.84c1.22.07,3.34-.77,2,1.88A2.82,2.82,0,0,1,418.13,297.84Z" transform="translate(-384.9 -71.88)"/><path class="cls-1" d="M408.27,199.51a4.88,4.88,0,0,1-.07-.85l.09-1,.95-.55a3.93,3.93,0,0,1,2,2.39Z" transform="translate(-384.9 -71.88)"/><path class="cls-1" d="M411.69,294.6c.13-1.11.87-1.49,1.92-1.49,0,.68-.05,1.35-.07,2Z" transform="translate(-384.9 -71.88)"/><path class="cls-1" d="M463,379.3c-.69,1.23-1.37,1.22-2.05,0Z" transform="translate(-384.9 -71.88)"/><path class="cls-1" d="M407.58,206.8c1.06.26,2.08.54,1,1.87A2,2,0,0,1,407.58,206.8Z" transform="translate(-384.9 -71.88)"/><path class="cls-1" d="M564.4,104.72c0-.42,0-.85,0-1.27.67-.52,1.49-.8,1.66.26S565.18,104.73,564.4,104.72Z" transform="translate(-384.9 -71.88)"/><path class="cls-1" d="M510,316.64c0,.35-.05.7-.07,1.06l-1.62-.27c0-.86.09-1.71.13-2.57C509.53,315,509.91,315.68,510,316.64Z" transform="translate(-384.9 -71.88)"/><path class="cls-1" d="M559.79,103.62l-2,.16A1.8,1.8,0,0,1,559.79,103.62Z" transform="translate(-384.9 -71.88)"/><path class="cls-1" d="M499.17,215.25a2.09,2.09,0,0,1,.62,2.2A1.86,1.86,0,0,1,499.17,215.25Z" transform="translate(-384.9 -71.88)"/><path class="cls-1" d="M408.92,294a1.15,1.15,0,0,1,.55.07l-.28.15Z" transform="translate(-384.9 -71.88)"/><path class="cls-1" d="M543.72,323.83a1.13,1.13,0,0,1,1.53.15Z" transform="translate(-384.9 -71.88)"/><path class="cls-1" d="M499.17,384.25l.05.42v.42C498.86,384.83,498.68,384.55,499.17,384.25Z" transform="translate(-384.9 -71.88)"/><path class="cls-1" d="M530.53,253.72a.25.25,0,0,1,.39-.11l-.16.28Z" transform="translate(-384.9 -71.88)"/><path class="cls-1" d="M484.24,491.47l.12,1.15C483.83,492.29,483.72,491.91,484.24,491.47Z" transform="translate(-384.9 -71.88)"/><polygon class="cls-1" points="69.23 114.95 69.2 114.91 69.11 115.01 69.23 114.95"/><path class="cls-1" d="M480.92,409.06a3.84,3.84,0,0,1,.72-.25c.06,0,.16.22.24.34Z" transform="translate(-384.9 -71.88)"/><polygon class="cls-1" points="178.02 33.67 177.92 33.6 177.91 33.7 178.02 33.67"/><path class="cls-1" d="M614.28,281.76c-.8.95-.81.12-.95-.4Z" transform="translate(-384.9 -71.88)"/><path class="cls-1" d="M500.68,193.83l0-1.65c2.92-8.65,8-16.3,12.06-24.42a6.33,6.33,0,0,0,.76-3,3.32,3.32,0,0,0,2-1.84h1c1.1,2.11-2.86,4.55.44,6.54.49.3.46.67-.15.81-5.07,1.22-5.12,5.49-6.33,9.29-1,3-3.83,5.15-4.66,8.33a2.24,2.24,0,0,0-1.5,2.87c.46,2.39-.6,4.12-3.32,4.5Z" transform="translate(-384.9 -71.88)"/><path class="cls-1" d="M536.58,128.66c-1.8,5.82-6,10.4-8.71,15.71H526a26.17,26.17,0,0,1,10.57-15.7Z" transform="translate(-384.9 -71.88)"/><path class="cls-1" d="M518.33,156.38c0-1.53,0-3.07,0-4.61a6.13,6.13,0,0,0,3.8-.94l1,0a11.2,11.2,0,0,1-2.91,5.54Z" transform="translate(-384.9 -71.88)"/><path class="cls-1" d="M523.16,150.87l-1,0c-.52-2.49,2.5-4,2-6.47h3.77C525.82,146.21,526,149.57,523.16,150.87Z" transform="translate(-384.9 -71.88)"/><path class="cls-1" d="M518.33,156.38l1.92,0c-.68,2.47-1,5.12-3.78,6.47h-1C515.73,160.43,517.39,158.56,518.33,156.38Z" transform="translate(-384.9 -71.88)"/><path class="cls-1" d="M511.14,185.78c-.11.25-.17.64-.36.71s-.5-.17-.76-.28c.11-.25.17-.65.36-.72S510.88,185.67,511.14,185.78Z" transform="translate(-384.9 -71.88)"/><path class="cls-1" d="M533.1,176.47a1.8,1.8,0,0,1,.14.53s-.22.07-.34.1Z" transform="translate(-384.9 -71.88)"/><path class="cls-1" d="M451.17,225.59c-3.54-2.77-7.9-4.21-11.57-6.72-1.07-.74-4.16-.73-2.7-3.53,6.92,3.45,13.82,6.93,20.78,10.32a6.48,6.48,0,0,1,3,2.73c0,.32,0,.65,0,1C457,229.27,454.58,226.3,451.17,225.59Z" transform="translate(-384.9 -71.88)"/><path class="cls-1" d="M497.94,253.63c-5-2.81-9.85-5.75-13.42-10.29a40.32,40.32,0,0,1,14.3,9.4Z" transform="translate(-384.9 -71.88)"/><path class="cls-1" d="M466.8,227.57c-2.07-2.76-.8-5.94-1.37-8.89C468.79,221.16,466.9,224.53,466.8,227.57Z" transform="translate(-384.9 -71.88)"/><path class="cls-1" d="M484.52,243.34c-3.71.57-5.4-3.21-8.59-3.74l1-1.84A13.53,13.53,0,0,1,484.52,243.34Z" transform="translate(-384.9 -71.88)"/><path class="cls-1" d="M461.15,144.1c-.12-6.4.69-7.44,7.48-9.09-1.92-2-6.23-4.23-.39-6.25-.79-7.11,4.69-4.49,8.18-5,.94,5.43,1,11,3.93,16,.68,1.17,1.38,2.49-.61,3.46-1.82.89-.79,1.17.4,1.87,3.76,2.2,4.61,9.15,1.53,11.4,1.06,1.26,3.78-.3,4.08,2.26.25,2.13-1.76,1.76-3.22,2.66,3.14.35,5.64,1,4.1,4.67-.18.42.67,1.26,1.05,1.9-2.19.48-4.35-1.2-6.92-.37l2.82,4.56c-.22.22-.45.44-.67.67-3.15-.17-5.12-1.44-5.93-4.69s-5.07-3.77-6.39-6.85c-.48-1.15-2.3-1.72-1.52-3.65,3.63.09,4.72,5.79,9.11,4.05.11.68.09,1.47,1.14,1.41a.44.44,0,0,0,.3-.29c.07-1-.75-1-1.44-1.12.26-2.31-1-3.76-2.43-5.55C469.54,148.58,469.69,148.47,461.15,144.1Z" transform="translate(-384.9 -71.88)"/><path class="cls-1" d="M493.22,180.4l.24,3.71-2,0c-2.27-.2-3.89-1.28-4.15-3.52-.36-3.2-6.1-3.4-4.39-7.64.22-.23.45-.45.67-.67,3.4,2.18,4.29,6.92,8.72,8.05A5.63,5.63,0,0,0,493.22,180.4Z" transform="translate(-384.9 -71.88)"/><path class="cls-1" d="M466.61,175.66l-1.86-.92c1.65-3.48,2.4-7.22,3.48-12.31C468.92,167.91,468.54,171.87,466.61,175.66Z" transform="translate(-384.9 -71.88)"/><path class="cls-1" d="M440.09,140.3l.39.23-.42-.19Z" transform="translate(-384.9 -71.88)"/><path class="cls-1" d="M476.57,318.37c-3.61.32-6-2-8.62-3.8C471.44,314.52,474.59,315.21,476.57,318.37Z" transform="translate(-384.9 -71.88)"/><path class="cls-1" d="M497.53,328.81c1,.66.91,1.67.94,2.65-1.88-1.51-5.1-1.45-5.66-4.52C494.55,327.17,495.49,329.29,497.53,328.81Z" transform="translate(-384.9 -71.88)"/><path class="cls-1" d="M466.12,313.7c-1.79-.64-4.28-.18-4.83-2.82C463.48,310.89,465.79,310.7,466.12,313.7Z" transform="translate(-384.9 -71.88)"/><path class="cls-1" d="M457.49,308.08a2,2,0,0,1-1.92-.86c.25-1.09-.53-2.46,1.13-3.36C458,305.1,457.29,306.7,457.49,308.08Z" transform="translate(-384.9 -71.88)"/><path class="cls-1" d="M454.66,298.82c-1.91-.24-2.41-1.45-2.53-3.51a3.6,3.6,0,0,1,2.54,3.51Z" transform="translate(-384.9 -71.88)"/><path class="cls-1" d="M454.67,298.82c.95.14,1.89.36,1.68,1.59-.05.28-.68.76-.86.69-1.12-.42-.71-1.46-.83-2.28Z" transform="translate(-384.9 -71.88)"/><path class="cls-1" d="M453.66,306.26a1.82,1.82,0,0,1-2-1.86A1.68,1.68,0,0,1,453.66,306.26Z" transform="translate(-384.9 -71.88)"/><path class="cls-1" d="M487.68,168.06c-.38-.64-1.23-1.48-1.05-1.9,1.54-3.68-1-4.32-4.1-4.67,1.46-.9,3.47-.53,3.22-2.66-.3-2.56-3-1-4.08-2.26,3.08-2.25,2.23-9.2-1.53-11.4-1.19-.7-2.22-1-.4-1.87,2-1,1.29-2.29.61-3.46-2.92-5-3-10.61-3.93-16-.57-5.62-2.73-10.9-4.08-16.34-1.43-5.74-3.42,1.14-5.39.53-1.76-3.31-1.1-6.37.85-9.41a39,39,0,0,0,2.11-4.48l.94,0c2.38,9,4.68,18.12,7.16,27.14q4.82,17.47,9.92,34.86c1,3.36,2.51,6.57,3.79,9.85.07,1.71.13,3.43.19,5.14l-1.17-.07A3.41,3.41,0,0,0,487.68,168.06Z" transform="translate(-384.9 -71.88)"/><path class="cls-1" d="M496.33,123.75c-.91,1.18-1.74,1.84-2.95,1.44-.17,0-.29-.89-.11-1.15C494,123,494.92,122.65,496.33,123.75Z" transform="translate(-384.9 -71.88)"/><path class="cls-1" d="M544.11,373.31c-.06,1.94-1.8,2-3.05,2.32-5.09,1.32-10.23,2.45-15.33,3.74-1.54.39-2.47.18-2.64-1.5A149.08,149.08,0,0,1,544.11,373.31Z" transform="translate(-384.9 -71.88)"/><path class="cls-1" d="M517.33,381.54v-.94a2,2,0,0,1,1.93-.92A1.74,1.74,0,0,1,517.33,381.54Z" transform="translate(-384.9 -71.88)"/><path class="cls-1" d="M519.58,314.85a1.76,1.76,0,0,1-2-1.89c1.75-3.43,5.7-3.81,8.64-5.17,4.79-2.21,9.53-4.55,14.34-6.75,1.68-.4,3.44-.6,4.8-1.81,1-.07,2.17.13,2.88-.92,2.7.46,5-.94,7.21-1.91,7.19-3.11,14.93-4.27,22.41-6.32,2.14.06,4.22-.05,5.73-1.84h4.77a1.92,1.92,0,0,0,1.91-.91l5.77,0c-7.77,4-16.63,4.14-24.85,6.52-10.08,2.9-20.3,5.63-29.65,10.25-5.91,2.92-12.41,4.88-17.65,9.12C522.81,314.15,521.05,314.33,519.58,314.85Z" transform="translate(-384.9 -71.88)"/><path class="cls-1" d="M550.5,212.07c0-2.52,1.75-4.77,3.8-4.32,3.43.74,4.13-1.45,5.71-3.12,2.24-2.37,5.75-3.06,8.06-5.5,1.06-1.13,2.52-1.87,2.59-3.63,2.49-.53,5-.93,5.74-3.95.48-2,2-1.19,3-.68,5.58,2.78,11.55,1.27,17.89,2.47l-26.65,15.13c-.16-.82.35-1.9-.89-2.29a.84.84,0,0,0-.73.37,1.43,1.43,0,0,0,.67,1.94c0,.62,0,1.23,0,1.85a2,2,0,0,0-1.89.9,7,7,0,0,0-3.9,1.28c-3.73,2.16-7.6,4.1-11.41,6.12Q551.45,215.36,550.5,212.07Z" transform="translate(-384.9 -71.88)"/><path class="cls-1" d="M552.43,218.64c3.81-2,7.68-4,11.41-6.12a7,7,0,0,1,3.9-1.28c-1.78,4.25-6.38,5.14-9.76,7.33-10.46,6.76-20.43,14.16-30.18,21.8-3.28,2.57-5.72,6.16-9.85,7.76l-2.82-2.79v-1c3.15.07,4.81-2.12,7-3.83,4.7-3.6,10-6.45,14-10.94l.94,0c.32.63.64.65,1,0,1-2.11,4-2.31,4.81-4.61a1.77,1.77,0,0,0,1.95-1.8c2.88.19,4.32-1.73,5.74-3.69A2.11,2.11,0,0,0,552.43,218.64Z" transform="translate(-384.9 -71.88)"/><path class="cls-1" d="M564.8,227.93v-1c1.67-2.74,4.45-4.16,7.22-5.53,1.76-.88,3.77-1.41,4.27-3.65h0l4.76,0C576.83,223,570.88,225.54,564.8,227.93Z" transform="translate(-384.9 -71.88)"/><path class="cls-1" d="M590.69,208.63c-.48,2-1,3.86-3.84,2.74l1-3.74h0C588.88,207.67,590,207.48,590.69,208.63Z" transform="translate(-384.9 -71.88)"/><path class="cls-1" d="M587.81,207.63c-.69-.12-1.5-.1-1.44-1.11a.44.44,0,0,1,.3-.29c1,0,1,.74,1.13,1.4Z" transform="translate(-384.9 -71.88)"/><path class="cls-1" d="M576.29,217.78l-.39-.22.41.21Z" transform="translate(-384.9 -71.88)"/><path class="cls-1" d="M583.64,288.24c-1.51,1.79-3.59,1.9-5.73,1.84-.23-2.4,2.19-4.93-.42-7.28-.49-.44.15-1.18.72-1.44.34-.15,1.18,0,1.22.1C580.2,284.1,583.78,285.1,583.64,288.24Z" transform="translate(-384.9 -71.88)"/><path class="cls-1" d="M545.41,299.23c-1.36,1.21-3.12,1.41-4.8,1.81-1.46-5.55-1.46-5.55,4.79-5.56C545.4,296.73,545.41,298,545.41,299.23Z" transform="translate(-384.9 -71.88)"/><path class="cls-1" d="M545.41,299.23c0-1.25,0-2.5,0-3.75.28-1.24.77-2.32,1.76-.49.54,1-.17,2.49,1.13,3.32C547.58,299.36,546.45,299.16,545.41,299.23Z" transform="translate(-384.9 -71.88)"/><path class="cls-1" d="M561.69,284.42l4.77,0Q564.06,288.82,561.69,284.42Z" transform="translate(-384.9 -71.88)"/><path class="cls-1" d="M590.32,287.32a1.92,1.92,0,0,1-1.91.91c.1-.81-.27-1.91.74-2.25S590.14,286.68,590.32,287.32Z" transform="translate(-384.9 -71.88)"/><path class="cls-1" d="M544.21,290.27c.27.12.68.18.75.36s-.19.5-.31.75c-.26-.11-.67-.17-.74-.35S544.1,290.53,544.21,290.27Z" transform="translate(-384.9 -71.88)"/><path class="cls-1" d="M573.74,288c-.12.26-.18.66-.37.73s-.51-.18-.77-.29c.11-.26.17-.66.36-.73S573.47,287.84,573.74,288Z" transform="translate(-384.9 -71.88)"/><path class="cls-1" d="M467.64,389.68c1.61-.08,2.52,1.18,3.74,1.84,1.06.58,2.52.79,2.74,2.27.05.33-.38,1-.63,1a5.08,5.08,0,0,1-3.72-1.73c-1-.93-2.17-1.86-2.13-3.44Z" transform="translate(-384.9 -71.88)"/><path class="cls-1" d="M480,399.93a2.32,2.32,0,0,1-.46-.06c-1.56-.54-3.41-.71-3.86-2.69-.05-.2.57-.81.84-.79,2.21.16,3.21,1.52,3.5,3.52Z" transform="translate(-384.9 -71.88)"/><path class="cls-1" d="M482.85,402.72c-2.1.18-3.06-.75-2.85-2.79l0,0c2.11-.18,3.06.74,2.86,2.79Z" transform="translate(-384.9 -71.88)"/><path class="cls-1" d="M467.64,389.67c-.68-.12-1.5-.1-1.44-1.11a.42.42,0,0,1,.3-.28c1.05-.06,1,.73,1.14,1.4Z" transform="translate(-384.9 -71.88)"/><path class="cls-1" d="M451.17,225.59c3.41.71,5.86,3.68,9.53,3.78,1.24,2.84,4.62,2.75,6.7,4.54,1.58,1.37,1.52,1.82-.11,3a8.67,8.67,0,0,1-12.62-3.55,1.65,1.65,0,0,0-1.23-1.13C449.59,231.16,448.76,228.72,451.17,225.59Z" transform="translate(-384.9 -71.88)"/><path class="cls-1" d="M472.1,243.29c6-.65,8.06,4.35,11.42,7.47a22.08,22.08,0,0,1-3.16.78c-.9.09-2.23.17-2.66-.32-1.1-1.25.84-1.1,1.14-1.7.85-1.79-.85-1.81-1.58-1.43-3.2,1.63-4.27-1.73-6.32-2.58C469.4,244.88,470.54,243.53,472.1,243.29Z" transform="translate(-384.9 -71.88)"/><path class="cls-1" d="M475,239.6c-1,.56-1.39,2-2.87,1.84L468,242c-1-2.72.8-4.11,2.83-4.8A3,3,0,0,1,475,239.6Z" transform="translate(-384.9 -71.88)"/><path class="cls-1" d="M484.48,250.77c3.85-1.88,2.54,1.23,2.85,2.78C485.45,253.52,485.17,251.94,484.48,250.77Z" transform="translate(-384.9 -71.88)"/><path class="cls-1" d="M436.83,227.4l.4-.38c0,.09,0,.2-.07.24a1.22,1.22,0,0,1-.33.14Z" transform="translate(-384.9 -71.88)"/><path class="cls-1" d="M524.1,144.36c.54,2.5-2.48,4-2,6.47a6.13,6.13,0,0,1-3.8.94L516.42,148c-.42-2.16-1.16-3.93.5-6.4,1.85-2.74,2.63-3.29,4.28-.34,1.65-6.16,5.57-10.71,9.52-15,2.62-2.87,4.91-1.69,5.86,2.42A26.17,26.17,0,0,0,526,144.37h-1.92c-.09-.59-.08-1.28-.89-1.39-.15,0-.54.35-.52.51C522.79,144.27,523.49,144.27,524.1,144.36Z" transform="translate(-384.9 -71.88)"/><path class="cls-1" d="M569.67,208.49a1.43,1.43,0,0,1-.67-1.94.84.84,0,0,1,.73-.37c1.24.39.73,1.47.89,2.29Z" transform="translate(-384.9 -71.88)"/><path class="cls-1" d="M468.9,321.12c1.46,1.6,1.24,5.91,5.42,3.16.13-.09.74.2.74.31,0,6.48,5.23,3,8.12,4h0c1.29,2.9,5.51,2.51,6.64,5.59-2.76-.19-5.47-1.38-8.31-.3-.47.17-1.53-.05-1.69-.38-2.11-4.3-6.75-2.56-10-4h0c-.2-1.93-1.26-1.68-2.6-1.05a16,16,0,0,1-11.71,1c.69-2.07,2.88-4.45-1.42-5.42-.37-.08-.32-1.9-.47-2.91.3-.81,2-1.59,1.36-2-4.55-2.61-1.09-6.09-1.31-9.14h0a7.82,7.82,0,0,1,4.79,1c.76,1.78-2,4.08.29,5.33,3.26,1.81,5.3,6.18,10.15,4.86Z" transform="translate(-384.9 -71.88)"/><path class="cls-1" d="M453.61,321.05c.15,1,.1,2.83.47,2.91,4.3,1,2.11,3.35,1.42,5.42-3.6.37-6.56-2.51-5.71-5.56h.95l1.91-2.78Z" transform="translate(-384.9 -71.88)"/><path class="cls-1" d="M453.66,309.93c-1.88-.18-3.2,1.88-5.25,1.31,2-3.87,2.09-3.9,5.25-1.31Z" transform="translate(-384.9 -71.88)"/><path class="cls-1" d="M452.65,321l-1.91,2.78c-.06-.87.16-1.82-.63-2.5-1-.87-.22-1.19.48-1.54C452,319,452.53,319.75,452.65,321Z" transform="translate(-384.9 -71.88)"/><path class="cls-1" d="M447.87,322.89A2,2,0,0,1,446,322,1.92,1.92,0,0,1,447.87,322.89Z" transform="translate(-384.9 -71.88)"/><path class="cls-1" d="M516.36,386.16c-1-.11-2.46.31-2.62-1.17-.21-1.9,1.47-1.48,2.61-1.63C516.35,384.29,516.36,385.23,516.36,386.16Z" transform="translate(-384.9 -71.88)"/><path class="cls-1" d="M421.93,149.46c-2.07-4.88-8-5.53-11.1-9.44-1.19-1.48-4-1.8-3.13-4.56,1-3,3.7-1.32,5.63-1.75,2.31-.25,4.11.34,4.66,2.8.83,3.72,5.54,4.89,6.08,9,.16,1.28.64,2.62.71,4Z" transform="translate(-384.9 -71.88)"/><path class="cls-1" d="M444.72,170c-2.44,0-4.94.25-6.72-1.91l-8.54-9.26c2.51-1.68,4.55-1.88,7.13.49,3.1,2.86,7.83,3.87,10.05,7.9C446.65,168.55,446.66,169.91,444.72,170Z" transform="translate(-384.9 -71.88)"/><path class="cls-1" d="M444.72,170c1.94-.07,1.93-1.43,1.92-2.78,1.05.05,2.18-.12,2.88.94.42,1.64-3,2.18-1.25,4.27,1.42-.43,2.44-1.88,4.13-1.56,2.36,1.72,6.83,1.12,6.63,5.66v0c-2.21.33-4.79-.05-5.75,2.75h-1.9c.07-2,.2-4-2.86-3.7l-2.84-1c0-.3,0-.61,0-.91a1.72,1.72,0,0,0-1.9-1.86h0Z" transform="translate(-384.9 -71.88)"/><path class="cls-1" d="M492.84,191.51c.65,2.45,2.24,4.09,1,5.84-.69.92-1.73-.07-2.32-.71C489.43,194.41,492.12,193.64,492.84,191.51Z" transform="translate(-384.9 -71.88)"/><path class="cls-1" d="M452.4,170.85c-1.69-.32-2.71,1.13-4.13,1.56-1.71-2.09,1.67-2.63,1.25-4.27A6.79,6.79,0,0,1,452.4,170.85Z" transform="translate(-384.9 -71.88)"/><path class="cls-1" d="M453.27,179.28c1-2.8,3.54-2.42,5.75-2.75a18.76,18.76,0,0,1-3.87,6.47,2.77,2.77,0,0,1-1.88-2.79Z" transform="translate(-384.9 -71.88)"/><path class="cls-1" d="M458,184.85c0-.29,0-.59,0-.88l.83-1.47c.3.26.83.48.88.78C459.94,184.53,459,184.73,458,184.85Z" transform="translate(-384.9 -71.88)"/><path class="cls-1" d="M469.82,329.46l-1,.69-.24-.35,1.25-.35Z" transform="translate(-384.9 -71.88)"/><path class="cls-1" d="M468.89,321.11l.22-.39-.21.4Z" transform="translate(-384.9 -71.88)"/><path class="cls-1" d="M483.18,328.58l.23-.39-.21.4Z" transform="translate(-384.9 -71.88)"/><path class="cls-1" d="M537.09,229.67l-.94,0V219.47c2,.53,3.56-1,5.56-1.27.39,2.51-.22,4.87,1.15,6.86-.84,2.3-3.79,2.5-4.81,4.61Z" transform="translate(-384.9 -71.88)"/><path class="cls-1" d="M527.53,229.62c-1.27-4.28,2.83-6.32,4.37-9.4.7-1.41,1.42.93,2.37,1.1-.34,3.24,1.44,7.25-3.64,8.72A4.19,4.19,0,0,1,527.53,229.62Z" transform="translate(-384.9 -71.88)"/><path class="cls-1" d="M550.55,219.57c-1.42,2-2.86,3.88-5.74,3.68-2-2.31-.56-5-1-7.53,2.17-.52.83-5.39,4.81-3.64Z" transform="translate(-384.9 -71.88)"/><path class="cls-1" d="M543.85,215.72c.4,2.5-1,5.22,1,7.53a1.78,1.78,0,0,1-1.95,1.81c-1.37-2-.76-4.35-1.15-6.86-2,.25-3.6,1.8-5.56,1.27a4.64,4.64,0,0,1-1.76-3.56C537.54,215.67,540.64,213,543.85,215.72Z" transform="translate(-384.9 -71.88)"/><path class="cls-1" d="M550.55,219.57l-1.89-7.49h1.84q1,3.28,1.93,6.57A2.11,2.11,0,0,1,550.55,219.57Z" transform="translate(-384.9 -71.88)"/><path class="cls-1" d="M606.62,280.89c-.39-.13-.71-.29-.37-.76A.83.83,0,0,1,606.62,280.89Z" transform="translate(-384.9 -71.88)"/><path class="cls-1" d="M416.84,213.42c-3.36.67-5-1.54-6.67-3.73C412.8,210.25,416.57,208.89,416.84,213.42Z" transform="translate(-384.9 -71.88)"/><path class="cls-1" d="M474.67,90.43c-.7-.13-1.52-.11-1.44-1.13a.44.44,0,0,1,.3-.29c1.05-.06,1,.73,1.15,1.41Z" transform="translate(-384.9 -71.88)"/><path class="cls-1" d="M448.51,175.57c3.06-.29,2.93,1.72,2.86,3.7,0,.31,0,.62,0,.93l-1.9,0C449.14,178.64,448.83,177.1,448.51,175.57Z" transform="translate(-384.9 -71.88)"/><path class="cls-1" d="M451.36,180.2c0-.31,0-.62,0-.93h1.9v.93Z" transform="translate(-384.9 -71.88)"/><path class="cls-1" d="M490.74,171l1.17.07,1.35,6.52h-1C491.74,175.43,491.24,173.23,490.74,171Z" transform="translate(-384.9 -71.88)"/><path class="cls-1" d="M492.23,177.62h1c0,.92,0,1.85,0,2.77a5.63,5.63,0,0,1-.92-.1C492.28,179.4,492.26,178.51,492.23,177.62Z" transform="translate(-384.9 -71.88)"/><path class="cls-1" d="M408.29,197.66l-.09,1a4.57,4.57,0,0,0-.83-.07Z" transform="translate(-384.9 -71.88)"/><path class="cls-1" d="M401.59,194.8q0,.47.06.93C401,195.46,400.9,195.15,401.59,194.8Z" transform="translate(-384.9 -71.88)"/><path class="cls-1" d="M443.76,172.77c-.15.7-.17,1.75-1.24,1.33-.78-.31-.27-1,.28-1.34Z" transform="translate(-384.9 -71.88)"/><path class="cls-1" d="M443.76,172.77h-1l1-.93h0Z" transform="translate(-384.9 -71.88)"/><path class="cls-1" d="M445.66,173.7c0,.3,0,.61,0,.91C445,174.31,445,174,445.66,173.7Z" transform="translate(-384.9 -71.88)"/><path class="cls-1" d="M478.18,161.78c.69.13,1.51.1,1.44,1.12a.44.44,0,0,1-.3.29c-1.05.06-1-.73-1.14-1.41Z" transform="translate(-384.9 -71.88)"/><path class="cls-1" d="M537.09,229.67h1C537.73,230.32,537.41,230.3,537.09,229.67Z" transform="translate(-384.9 -71.88)"/><path class="cls-1" d="M524.1,144.36c-.61-.09-1.31-.09-1.42-.87,0-.16.37-.53.52-.51.81.11.8.8.89,1.39Z" transform="translate(-384.9 -71.88)"/></svg>