<svg id="Layer_1" data-name="Layer 1" xmlns="http://www.w3.org/2000/svg" viewBox="0 0 333.82 432"><defs><style>.cls-1{fill:#8dc63f;}</style></defs><title>empress</title><path class="cls-1" d="M179.6,47.85c-.28,2.26-.56,4.53-1,7.85,1,3.08,2.55,7.67,4.14,12.46,6.81-.88,18.86,9,21,17.3.53,2.08,2.65,4.64,4.37,5.06,8.93,2.19,9.29,2.72,5.83,13.1-.41,1.24-.48,2.64.63,5.79l8.06-6.76c20.94,14.13,37.57,35,51,60.71-8.32.64-8.32.64-13.78,12.88L244.2,173.1c-2,4.57-4.25,9.63-6.58,14.92-1.51-1.41-1.9-1.7-2.22-2.09-2-2.42-4-4.87-6-7.31-1,4-2.81,8.07-2.49,11.9.13,1.65,5.38,4.71,7.19,3.84,12.19-5.87,27.1-3.63,36.75-17.16.88-1.23,2.63-1.58,5.1-3l-6.41,12.09c2.87-.29,4.15-.46,5.44-.54,3-.19,8.43-1.34,8.73-.33,1.76,5.78,3.22,12.13,3,18.2-.21,5.78-6,11.06-1.9,18.84q-4.41-4.61-8.81-9.23l-1.69,2.11,3.51,7.66-20.73,6.17c3.45,4.72,8.59,5.51,13.41,3.91,9.17-3,15,3,20,9.93,3,4.17,4.38,10.25,5.72,15.74.56,2.28-.71,5.32-1.47,7.88a114.36,114.36,0,0,0-3.16,11c-2.55,5.59-10.88,6.16-9.3,15l-9.27,4.18c2,1.68,3.95,3.35,6.1,5.19l-15.51,18.84,13.7-5.71.5.56c-4.48,3.92-8.57,8.83-13.5,11.58-12.62,7-25.2,15.21-39.71,14.63-6.5-.27-13-2.32-19.41-3.94-5.14-1.3-10.16-3.26-15.27-4.74-1.08-.31-2.78-.39-3.4.35-8.42,10.17-20.13,11.87-30.35,17.46-11.3,6.17-21.33,15.53-32.28,22.72C106.58,385.16,89,396.21,71.24,406.61c-2.83,1.65-7.45-.58-11.07-1.73-.78-.25-1.61-4.14-1-5.44s2.94-1.77,4.55-1.86c4.31-.25,9.47,1.74,12.81-.41,24.17-15.56,48-31.93,71.88-48a8.41,8.41,0,0,0,3.66-4.14c-11.5,5.62-19.89-2.06-28.21-7.84-8.88-6.18-13.49-16.74-18.1-27.52-3.93-9.19-10.1-17-15-25.62-2.47-4.3-4.18-9.22-6.66-13.52-.9-1.57-3.74-3.5-4.45-3-3.06,2.34-6.29,5.05-8.25,8.57-1.76,3.16-.91,9.37-3,11-3.94,3.14-9.46,6.15-13.83,5.37-14.83-2.66-28.19,1.47-41.27,8.95-.91.52-2.22.07-3.35.07L9,299.42c3.64-2.5,7.21-5.15,10.93-7.46,5.66-3.51,11.71-6.24,17-10.34,3.25-2.5,5.43-6.95,7.76-10.07l-2.94-5.8,13.2-7.09L47.23,247l10.4-9.79c1.74,1.29,4.07,2.87,1.35,8-1.25,2.34-1.47,7.91-.21,9.11,2.06,1.95,5.69,1.7,8.69,2,1.92.2,3.88-.25,7.55-.55,0-3.92.55-8.53-.13-12.88-1-6.24.23-9.81,5.86-10.13C82.39,240,77.31,250,85.4,254.4l2.2-1.13L83.91,247,96,240.41l-12.39-4.82,4.54-2.73c-.37-5.37-1.66-9.75-.75-13.34,3.24-12.85,6.79-25.66,11.16-38,1.81-5.11,5.74-9.33,9.19-13.38,4.87-5.71,10.19-10.89,15.55-16.53-8.41-6.77-8.48-17.78-1.23-25.9,4.93-5.52,9.73-11.21,14.85-16.46,2.42-2.48,5.43-4.16,8.22-6.1.77-.54,2.07-.43,2.53-1.15,6.33-10,11.84-20.94,19-30,5.77-7.23,8.38-15.48,9.95-24.84Zm-4.92,276c.93-4.08,1.85-8.16,2.52-11.14l-19.65,1.09c2.22,3.23,5.11,3.71,5.82,5.45,2.81,6.88,6.8,6.66,11.63,3.94l-2.59,10.47c13.5-4.73,20.16-14.76,19.89-28.66l3.36-2.24-1.89-6.17-8.6,9.31c1-6.16,1.61-10.07,2-12.27-11.31-6.3-20.92-16-32.67-11.11l17.73,18.05c.43-.64.86-1.28,1.28-1.93l-3.41-6,7.83,1.71c1.12,5.83,2,10.41,2.92,15.18,4.35-1.71,7.93-3.12,11.5-4.51Zm11.59-50.17c2.16,4.63,4.31,9.25,6.5,13.93-.67-10-1.35-20.19-1.86-27.89-1.14,3.42-2.92,8.81-4.71,14.19l-8.08-14.67c-.33.93-.65,1.86-1,2.78L158,264.21c-6.95.79-8.06,2.82-6.1,12.22,11.76-12.25,21.36,1.89,31.56,3.75C185.89,278.39,177.94,271.79,186.27,273.71ZM84.17,257.8c6.81,12,15.85,9.52,27.3-5.55Zm112.28-15c4.75,5.73,8.52,5.85,12.93-.09,1.58-2.13,2-5.52,2.89-8.34-3.89-1.49-7.89-4.83-11,1.75C200.15,238.49,198.31,240.31,196.45,242.85Zm-71.49,30-31.23-2C101,279.83,117.45,280.45,125,272.82Zm-58.1.17c-1.54-6.23-3.54-10.73-8.49-6.56-1.82,1.53-3.5,7.32-2.59,8.69C59.91,281.39,62.92,274.76,66.86,273Zm160.53-71.87-1.09-3.24c-5.07,1.73-10.18,3.31-15.17,5.31-1,.39-1.48,2.41-2.21,3.67,1.12.7,2.53,2.31,3.31,1.95C217.36,206.48,222.35,203.73,227.39,201.12Zm-25,105.54-2.16-.48c-.91,1.95-3,4.43-2.53,5.75,1.65,5,4.11,9.63,6.58,15.07C211.62,316.76,197.39,314.78,202.39,306.66Zm-35.92-94.88,2.42-3c-3.35-9.9-6.59-12.81-8.76-12.05ZM40.77,285.17l.45,3.23,13.26-4-.67-3.18Zm147.89-41.45,1.56-.12q-.79-14-1.58-28l-1.81.14Zm-76.28-16.65-1.62,3.4,6.45,5.13c.56-1.61,1.81-4.45,1.57-4.64A47.48,47.48,0,0,0,112.38,227.07Z"/><path class="cls-1" d="M100.57,305c2.8,9.31.8,15.08-5.22,16.84a10,10,0,0,1-12.64-6.41C92,318.33,95,310.09,100.57,305Z"/><path class="cls-1" d="M111.9,273l27.3-4.67C127.75,281,118.71,283,111.9,273Z"/><path class="cls-1" d="M224.18,260.38c1.86-2.13,3.7-3.67,4.81-5.62,3.13-5.53,7.12-2.72,11-1.47-.93,2.37-1.31,5.23-2.89,7C232.7,265.3,228.94,265.2,224.18,260.38Z"/><path class="cls-1" d="M202.42,328.49l.31-.55c-4.83,2.28-8.82,2.47-11.62-3.32-.71-1.46-3.61-1.86-5.83-4.57l19.65-.92Z"/><path class="cls-1" d="M152.69,285.57c-7.51,6.42-23.92,5.89-31.23-1.71Z"/><path class="cls-1" d="M94.59,285.71c-3.94,1.49-7,7.07-11.08,1.8-.91-1.15.77-6,2.59-7.31C91.05,276.69,93.05,280.48,94.59,285.71Z"/><path class="cls-1" d="M255.12,225.3c-5,2.2-10,4.51-15.16,6.47-.78.3-2.19-1.05-3.31-1.64.73-1.06,1.24-2.76,2.22-3.09,5-1.68,10.1-3,15.16-4.46Z"/><path class="cls-1" d="M230.12,314c-5,6.82,9.23,8.49,1.89,17.1-2.46-4.58-4.93-8.46-6.58-12.67-.44-1.11,1.62-3.2,2.53-4.84Z"/><path class="cls-1" d="M194.2,234.26q-3.16-6.34-6.34-12.68c2.17-.64,5.41,1.81,8.77,10.12Z"/><path class="cls-1" d="M213.93,286.52l4.71-11.94c.52,6.48,1.19,15.05,1.86,23.45q-3.27-5.91-6.51-11.67A1.16,1.16,0,0,0,213.93,286.52Z"/><path class="cls-1" d="M216.39,261.11l-1.83-23.55,1.82-.11q.78,11.79,1.57,23.56Z"/><path class="cls-1" d="M140.12,247.11a50.07,50.07,0,0,1,6.4,3.28c.23.16-1,2.54-1.57,3.9L138.49,250C139,249,139.58,248.07,140.12,247.11Z"/></svg>