<svg id="Layer_1" data-name="Layer 1" xmlns="http://www.w3.org/2000/svg" viewBox="0 0 333.82 432"><defs><style>.cls-1{fill:#8dc63f;}</style></defs><title>filbert</title><path class="cls-1" d="M211,362.28l-7.76-2.66c.55,1.76,1,3.27,1.5,4.79l-.8.34c-1.31-2.46-3.2-4.79-3.78-7.41-.83-3.76-2.84-5.7-6.55-6.55l5.7,7.1-1.71,1.55-6-7.48-1.28.72a45.61,45.61,0,0,0,2.76,6.35,95.44,95.44,0,0,0,26,27.89c3.07,2.17,5.52,5.22,8,7.65l4.48-5.85,2.58,1.42c-.13,1.88,0,5.31-.44,5.39-3.16.6-5.5,6.39-9.34,2.16-11.12-12.24-26.39-20.11-35.79-34.17-2.19-3.28-5.06-6.1-7.33-9.33-.66-.93-.51-2.59-.38-3.89a34,34,0,0,1,1.4-5c-6.12,5.54-8.87,11.29-9.28,19.18-2.76-16.67-.68-32,2.34-47.27,4.42-22.3,3.78-44.85,3.66-67.39,0-7,.72-13.91.53-20.84-.29-9.94-1.26-19.85-1.68-29.78-.63-14.87-1.07-29.75-1.52-44.63-.13-4.29,0-8.59,0-12.89h-1.74V188.1l-2.17.19c-.44-3.88-.82-7.77-1.33-11.64-.23-1.77-.29-3.77-1.17-5.2-9.21-15-18.62-29.79-27.86-44.73-1.57-2.54-2.48-5.47-3.9-8.12-1.67-3.11.25-3.71,1.43-4.08,1,3.88,1.87,7.52,2.94,11.84l7.66-3.17c-.19,1.74-.34,3.18-.55,5.1l5.14-3.44.35,3.2c4.07-1.57,6.21-8,4-11.65-1.4-2.27-2.84-4.52-4.61-7.31a69.66,69.66,0,0,1,6.79,1.92c4.17,1.65,5.65-2,6.67-4.2.72-1.54-1.17-4.33-1.94-6.54a9.65,9.65,0,0,0-.83-1.55c-1.37-2.38-2.73-4.77-4.62-8.07L166,93.93l4.25-5.45c-9.61.2-2.75-8.1-7.26-10.3l-1.11.4c-.1-2-.19-3.74-.28-5.49.7-.74,2.53-2,2.33-2.57-2.47-6.75,2.29-13,1.14-19.68-.39-2.28,1-4.85,1.78-8.32,5.68,7.88,10.6,15.07,15.9,22,3.64,4.72,8.17,8.75,11.65,13.56,4.09,5.66,7.36,11.9,11.24,17.72,1,1.57,3,2.5,4.48,3.81a36,36,0,0,1,3.3,3.35c3.1,3.58,5.56,7,11.33,7.94,3.68.58,6.67,6,9.78,9.47.87,1,1.05,2.54,1.43,3.54l12.43-6c6.43,11.22,12.67,22.14,19,33.21h7.9c2,3,3.69,5.89,5.8,8.44,4.43,5.36,5.6,11.2,4.61,18.08-.4,2.8,1.8,6,2.77,9s1.37,5.8,5.78,6.14c2.05.16,4.69,2.9,5.64,5.09a40.25,40.25,0,0,1,3.41,15.36c.15,5.95-2.19,12.73,2.44,18.25a4.22,4.22,0,0,1,.53,1.79c1.33,6.36,3.79,8.46,9.94,9.52a7.21,7.21,0,0,1,4.34,3.25c3.47,5.94,4,12.6,2.65,19.12-.5,2.48-3.33,4.45-4.94,6.77a15.41,15.41,0,0,0-1.9,4c-.58,1.77-.62,3.75-1.39,5.4-2.34,5.05-5.68,9.7-4.06,15.87.35,1.33-1,3.1-1.57,4.69-1.26,3.75-3.65,6.8-2.72,11.59,1,5-3.73,8.81-6.45,12.89-.59.88-1.7,2.06-1.47,2.74,3,9.18-2.77,16.09-5.83,23.71-1,2.46-1.65,5.07-2.84,7.43-.72,1.44-2.17,2.51-3.27,3.77-.57.66-1.45,1.28-1.6,2-1.07,5.3-4.45,7.33-9.53,6.83-1,5.95-3.65,7.88-11,8.49a4.7,4.7,0,0,0-2.83,1.48c-5.16,5.71-10.86,10-18.79,8.09-.31-2.59-.58-4.91-.86-7.22l-1.88.05c-.11,2.23-.23,4.47-.38,7.64-2-1-4-1.51-5.32-2.76-3.25-3.08-6.07-6.6-9.28-9.73-2.32-2.27-5.21-4-7.44-6.35a99.63,99.63,0,0,1-6.9-8.74c-.16-.22.23-.85.36-1.29A.27.27,0,0,1,211,362.28Zm-24.3-141.23-5.52-10.83v16.85l1.85.5,3.49-6.8c1.18-.49,2.72-.66,3.46-1.53,2.4-2.78,4.5-5.81,6.71-8.75L196,210Zm45-35.74c-1.58-2.63.24-2.09,1.55-1.53,3.2,1.37,6.32,2.92,10.64,4.94-1.36-3.89-2.36-6.76-3.56-10.22-.4,2-.69,3.42-1.15,5.67l-2.4-5.54c-1.26,1.37-2.21,2.4-3.53,3.85-.55-1.45-.88-2.33-1.23-3.27l-4.21,1.61,4,4.39-3.63,6.2,3.17-1.37a36.78,36.78,0,0,0,4,4.45,18.36,18.36,0,0,0,4.1,1.92,35.6,35.6,0,0,0,.52-6.14c-.05-.76-1.39-1.6-2.3-2.1C235.71,187.11,233.67,186.24,231.66,185.31Zm26.58,80.25c-.25,2.48-1.3,5.23-.56,7.37,1.49,4.32,5.14,5.14,9.71,3.71-1.6-2.62-2.1-4.9,1.78-5.7l-6.35-10-.65,4.57-2-3.86-1.41,1-.57,3.14a26.76,26.76,0,0,0-.86-5.49c-.36-1-1.77-1.54-2.7-2.3-.62.91-1.72,1.79-1.76,2.71C252.73,264.3,255.7,264.75,258.24,265.56Zm-75.51,1.84,13-13.77c-4.38-.92-6.31-2.84-3.54-7.07.39-.6-.95-2.44-1.66-3.61-1-1.59-2.37-3-3.14-4.65a48,48,0,0,1-2-6.13c4.57-1.27,1.25-4.6,2.3-7.13-4.95,2.64-7.45,5.64-6.59,11.24.82,5.41.56,11,.65,16.5.09,5,0,10.1,0,15l1.1-.57c-.27,5.52-.12,11.09-.91,16.53-1.26,8.69.74,17.81-3.56,26.47l10.08-7.75c-2.92,4-7.07,7.21-9,11.41s-1.64,9.56-2.33,14.4l1.52.66c3.61-9.8,13.52-11.76,20.52-16.75l1.88,1.44,1.69-3.11,13.14,2.92-10.36,8.32.47.71,6.63-1.48L205,326.7l3.4,6.26c3-2.37,5.45-2.81,7,1.36.3.81,1.37,1.31,1.79,2.11,2.78,5.19,11.19,5.46,10.73,11.88,1.9-.22,3.23-.65,4.45-.46,5.38.87,8.18,5.9,12.74,8.19,1.08.54,1.42,2.55,2.1,3.89l-1.1.82-4.69-3.24c-9.57,8.34-9.84,9.17-4,16.08,1.48,1.74,3,3.87,6.33,2.19s5.76-.3,6.67,3.56c.54,2.32,1.48,4.55,2.51,7.64,1-6.87-2-13.74-6-14.68L252.5,357l5.74,1.34c1.69-6.59,2.91-12.86-1.17-19.06-1.1-1.68-1.05-4.12-1.55-6.2-.6-2.53-.52-5.61-2-7.46-3.43-4.34-4.38-9.17-4.9-14.39-.19-1.93-1.38-3.75-2.44-6.46-.33.63-.13.23.09-.17,1.26-2.26,1.05-3.44-.57-3.2-4.15.61-4.21.55-3.42-3.86l2.72,1.54c-4.34-5.15-6-11.06-7.58-17.24-.92-3.7.36-4.06,3.15-3.47.91-3.95-.44-6.16-3.84-7.41a53.5,53.5,0,0,1-5.43-2.67c6.52.78,8-3.83,9.42-8.93l-5.11,2.55c5.73-5.58,11.54-11.08,17.13-16.8,1.2-1.24,1.61-3.25,2.38-4.9a18.45,18.45,0,0,1,2.56-5.07c1.21-1.75,1.26-4.4,4.78-4.19,2.09.12,3.2-2.34,1-4.07-2.69-2.13-3-4.32-1.44-6.9l3.08,1a11.26,11.26,0,0,1-.85-2.51c-.24-2.47-1.23-5.38-.3-7.34,2.55-5.4-1.29-13-7.27-13.4-3.79-.24-7.58-.57-11.7-.88l5.07-9.3c-1.88.69-2.51,2.38-3.71,3.11-3.82,2.35-2.84,12.21-11.31,7.36-.08,0-.66,1-.89.93a28.07,28.07,0,0,1-3.16-1l.38-1.29-4.26,1.05,5.07,7c-1,1.14-2.58,2.08-2.63,3.11a69.38,69.38,0,0,0,.56,8.94c3.9-5.21,7.85-10.49,11.81-15.76l1,.67c-1.61,3.08-2.74,6.58-4.93,9.18-5.75,6.8-13.11,12.4-15.7,21.48-1,3.7-3.95,6-6,8.89-3.28,4.73-5,10.56-8.36,15.23-3.61,5-4.18,12-10.52,15.37-2.38,1.28-4.05,4.55-5.2,7.28-1.47,3.47-2.43,4-5.89,1.66,4.84-1.11,5.64-4.28,2.92-9.09,1.24-3.93,2.32-7.32,3.4-10.71l-1.13-.64c-2.1,2.24-4.13,4.56-6.34,6.69C184.72,267.48,183.57,267.28,182.73,267.4Zm66.52,1.44c-2.78,1.86-6.28,3.75-6.12,4.17a62.66,62.66,0,0,0,4.94,8.77C248.43,277.82,248.76,274.22,249.25,268.84Zm-44,84.85c5,2.33,11.63-.48,14.84,6.14.22-2.75.35-4.55.48-6.14ZM174.56,138.5l1.38-.1-1.4-20-.88.07ZM183.32,346l5.91,8.76C190.48,349.75,189.56,346.79,183.32,346Zm64.1-150.73c5.61.22,6.53-1.16,4.13-5.85C250.2,191.34,249,193,247.42,195.27Z"/><path class="cls-1" d="M114.88,130.38l-.17-.38,3.73,9.82-6,4.32,1.72,3.22-11.29-5.63c.18-2.33.4-5.21.67-8.71a52.34,52.34,0,0,0,6.74-3.77C112.62,127.57,113.68,128.73,114.88,130.38Z"/><path class="cls-1" d="M161.7,366.85c-3.81,3.07-5.14,2.72-5.92-2.33a64.88,64.88,0,0,1-.73-13.64c.22-3.66,2.57-2.79,4.8-.94l1.67-5.4c3.93,2.17,4.58,6.33,2.72,11.33-1.31,3.54-1.78,7.4-2.62,11.11Z"/><path class="cls-1" d="M160,205.59l8.83,10.06c.79-2.64,1.34-4.51,1.9-6.4,1.64.76,3.27,1.51,4.58,2.13.27,4.65.52,9.19.78,13.73l-1.44.7-15.61-19.46Z"/><path class="cls-1" d="M175.91,388.9c-.41,7.37,3.07,15.15-2.68,22-2.46,2.92-4.52,6.18-6.76,9.29l-1.16-.86c2.67-5.54,5.4-11.06,8-16.64a12.63,12.63,0,0,0,1.23-4.48c.19-3.09.06-6.19.06-9.29Z"/><path class="cls-1" d="M58.49,228.71c-3.36,2.28-6.27,4.33-9.3,6.19-.22.14-2-1.4-1.85-1.67a73.85,73.85,0,0,1,4.36-8.83,3.07,3.07,0,0,1,3-.43C56,225,56.81,226.53,58.49,228.71Z"/><path class="cls-1" d="M161.62,367c1.34-3.41,2.65-6.85,4-10.24.65-1.58,1.49-3.08,2.32-4.77,3.29,7.76,2,12.32-4.42,15.42-.43.2-1.22-.36-1.86-.55Z"/><path class="cls-1" d="M173.47,204.24c-1.42-.4-3-.5-4.19-1.27s-1.71-2.13-2.53-3.24l1.18-1.13,6,3.72Z"/><path class="cls-1" d="M117.71,124.36c.17,1,.34,2.06.56,3.34H122c-.21,1.79-.4,3.3-.58,4.8-2-2.61-7.15-3.66-3.69-8l.06,0Z"/><path class="cls-1" d="M231.31,268.29a53.5,53.5,0,0,0,5.43,2.67c3.4,1.25,4.75,3.46,3.84,7.41-2.79-.59-4.07-.23-3.15,3.47,1.54,6.18,3.24,12.09,7.58,17.24l-2.72-1.54c-.79,4.41-.73,4.47,3.42,3.86,1.62-.24,1.83.94.57,3.2-.22.4-.42.8-.09.17,1.06,2.71,2.25,4.53,2.44,6.46.52,5.22,1.47,10,4.9,14.39,1.47,1.85,1.39,4.93,2,7.46.5,2.08.45,4.52,1.55,6.2,4.08,6.2,2.86,12.47,1.17,19.06L252.5,357,247,372.3c4,.94,7,7.81,6,14.68-1-3.09-2-5.32-2.51-7.64-.91-3.86-3.43-5.2-6.67-3.56s-4.85-.45-6.33-2.19c-5.87-6.91-5.6-7.74,4-16.08l4.69,3.24,1.1-.82c-.68-1.34-1-3.35-2.1-3.89-4.56-2.29-7.36-7.32-12.74-8.19-1.22-.19-2.55.24-4.45.46.46-6.42-8-6.69-10.73-11.88-.42-.8-1.49-1.3-1.79-2.11-1.53-4.17-4-3.73-7-1.36L205,326.7l7.68-5.69-6.63,1.48-.47-.71,10.36-8.32-13.14-2.92-1.69,3.11-1.88-1.44c-7,5-16.91,7-20.52,16.75l-1.52-.66c.69-4.84.4-10.12,2.33-14.4s6-7.38,9-11.41l-10.08,7.75c4.3-8.66,2.3-17.78,3.56-26.47.79-5.44.64-11,.91-16.53l-.15.15c.84-.11,2,.09,2.49-.38,2.21-2.13,4.24-4.45,6.34-6.69l1.13.64c-1.08,3.39-2.16,6.78-3.4,10.71,2.72,4.81,1.92,8-2.92,9.09,3.46,2.36,4.42,1.81,5.89-1.66,1.15-2.73,2.82-6,5.2-7.28,6.34-3.41,6.91-10.36,10.52-15.37,3.36-4.67,5.08-10.5,8.36-15.23,2-2.93,4.93-5.19,6-8.89,2.59-9.08,10-14.68,15.7-21.48,2.19-2.6,3.32-6.1,4.93-9.18l-1-.67c-4,5.27-7.91,10.55-11.81,15.76a69.38,69.38,0,0,1-.56-8.94c0-1,1.62-2,2.63-3.11l-5.07-7,4.26-1.05L231,198a28.07,28.07,0,0,0,3.16,1c.23.05.81-1,.89-.93,8.47,4.85,7.49-5,11.31-7.36,1.2-.73,1.83-2.42,3.71-3.11l-5.07,9.3c4.12.31,7.91.64,11.7.88,6,.38,9.82,8,7.27,13.4-.93,2,.06,4.87.3,7.34a11.26,11.26,0,0,0,.85,2.51l-3.08-1c-1.58,2.58-1.25,4.77,1.44,6.9,2.16,1.73,1.05,4.19-1,4.07-3.52-.21-3.57,2.44-4.78,4.19a18.45,18.45,0,0,0-2.56,5.07c-.77,1.65-1.18,3.66-2.38,4.9-5.59,5.72-11.4,11.22-17.13,16.8l-.33.18c-5.64,5-11.37,10-16.89,15.17-2.44,2.28-2.26,2.47.61,4.62-.13-3.48.46-6.14,4.84-4.1.62-5.45,2.64-7.12,6.2-5.74.48-1.22,1-2.42,1.43-3.63Zm7.74,31.87.57-.93-4-2.82c-.63-.45-1.72-.84-1.81-1.39-.93-5.29-4.3-5.63-8.38-4.11-1.16.43-2.94,1.88-2.81,2.56.32,1.76,1.27,4.52,2.46,4.8C229.65,299.34,234.39,299.6,239.05,300.16Zm-27.79-5.05.52,1.35c4.31-4.92,6.75,1.26,10.23,1.27l1-1.2-7.72-6.65Zm28,67.17c-1.06,1.59-2,2.43-1.87,2.93a19.51,19.51,0,0,0,2,3.69c.65-.58,1.9-1.26,1.82-1.72A28,28,0,0,0,239.29,362.28Z"/><path class="cls-1" d="M182.88,267.24l-1.1.57c0-4.93.07-10,0-15-.09-5.51.17-11.09-.65-16.5-.86-5.6,1.64-8.6,6.59-11.24-1,2.53,2.27,5.86-2.3,7.13a48,48,0,0,0,2,6.13c.77,1.68,2.16,3.06,3.14,4.65.71,1.17,2.05,3,1.66,3.61-2.77,4.23-.84,6.15,3.54,7.07l-13,13.77Z"/><path class="cls-1" d="M258.17,265.81l.57-3.14,1.41-1,2,3.86.65-4.57,6.35,10c-3.88.8-3.38,3.08-1.78,5.7-4.57,1.43-8.22.61-9.71-3.71-.74-2.14.31-4.89.55-7.37Z"/><path class="cls-1" d="M231.68,185.29c2,1,4,1.82,6,2.88.91.5,2.25,1.34,2.3,2.1a35.6,35.6,0,0,1-.52,6.14,18.36,18.36,0,0,1-4.1-1.92,36.78,36.78,0,0,1-4-4.45l-3.17,1.37,3.63-6.2Z"/><path class="cls-1" d="M186.48,220.77l-3.49,6.8-1.85-.5V210.22l5.52,10.83Z"/><path class="cls-1" d="M231.8,185.21l-4-4.39,4.21-1.61c.35.94.68,1.82,1.23,3.27,1.32-1.45,2.27-2.48,3.53-3.85l2.4,5.54c.46-2.25.75-3.68,1.15-5.67,1.2,3.46,2.2,6.33,3.56,10.22-4.32-2-7.44-3.57-10.64-4.94-1.31-.56-3.13-1.1-1.54,1.52Z"/><path class="cls-1" d="M249.25,268.84c-.49,5.38-.82,9-1.18,12.94a62.66,62.66,0,0,1-4.94-8.77C243,272.59,246.47,270.7,249.25,268.84Z"/><path class="cls-1" d="M235.29,262.09l.33-.18,5.11-2.55c-1.38,5.1-2.9,9.71-9.42,8.93l.17.12Z"/><path class="cls-1" d="M205.21,353.69h15.32c-.13,1.59-.26,3.39-.48,6.14C216.84,353.21,210.25,356,205.21,353.69Z"/><path class="cls-1" d="M258.17,265.81l.06-.25c-2.53-.81-5.5-1.26-5.38-4.83,0-.92,1.14-1.8,1.76-2.71.93.76,2.34,1.34,2.7,2.3A26.76,26.76,0,0,1,258.17,265.81Z"/><path class="cls-1" d="M174.56,138.5l-.9-20,.88-.07,1.4,20Z"/><path class="cls-1" d="M183.32,346c6.24.79,7.16,3.75,5.91,8.76Z"/><path class="cls-1" d="M186.48,220.77l.18.28L196,210l.69.54c-2.21,2.94-4.31,6-6.71,8.75C189.2,220.11,187.66,220.28,186.48,220.77Z"/><path class="cls-1" d="M247.42,195.27c1.61-2.27,2.78-3.93,4.13-5.85C254,194.11,253,195.49,247.42,195.27Z"/><path class="cls-1" d="M211,362.28a.27.27,0,0,0,.35.21l-.3.11Z"/><path class="cls-1" d="M136.42,152.08c-4.82,3-7.79,1.2-9.8-3.29-1.67-3.71-3.4-7.4-5.36-11.68l7.15-1.19,2.3,6,.68-.85,8.41,5.68-5.74,2.67Z"/><path class="cls-1" d="M143.34,276.52l-20.1-22.27.87-.84c2.43,2.66,4.88,5.31,7.3,8,3.4,3.74,6.85,7.42,10.11,11.26.89,1.05,1.2,2.59,1.76,3.93Z"/><path class="cls-1" d="M134.7,158.51l.34.14-.35-.17Z"/><path class="cls-1" d="M134.69,158.48c0-.4.05-.8,0,.08.23-.84.13-.45,0-.06Z"/><path class="cls-1" d="M239.05,300.16c-4.66-.56-9.4-.82-14-1.89-1.19-.28-2.14-3-2.46-4.8-.13-.68,1.65-2.13,2.81-2.56,4.08-1.52,7.45-1.18,8.38,4.11.09.55,1.18.94,1.81,1.39l4,2.82Z"/><path class="cls-1" d="M235.29,262.09l-3.81,6.32c-.47,1.21-.95,2.41-1.43,3.63-3.56-1.38-5.58.29-6.2,5.74-4.38-2-5,.62-4.84,4.1-2.87-2.15-3-2.34-.61-4.62C223.92,272.09,229.65,267.13,235.29,262.09Z"/><path class="cls-1" d="M211.26,295.11l4-5.23,7.72,6.65-1,1.2c-3.48,0-5.92-6.19-10.23-1.27Z"/><path class="cls-1" d="M239.29,362.28a28,28,0,0,1,1.9,4.9c.08.46-1.17,1.14-1.82,1.72a19.51,19.51,0,0,1-2-3.69C237.27,364.71,238.23,363.87,239.29,362.28Z"/><path class="cls-1" d="M140.31,365c.15.44.59,1.07.41,1.29a99.74,99.74,0,0,1-7.85,8.74c-2.53,2.36-5.81,4.08-8.46,6.35-3.64,3.13-6.85,6.66-10.54,9.73-1.5,1.25-3.78,1.77-6,2.76-.18-3.17-.31-5.4-.43-7.64l-2.14-.05c-.32,2.32-.63,4.63-1,7.22-9,1.88-15.49-2.38-21.35-8.09a5.75,5.75,0,0,0-3.23-1.48c-8.35-.61-11.36-2.54-12.5-8.48-5.78.5-9.62-1.53-10.84-6.84-.17-.76-1.16-1.38-1.81-2-1.26-1.25-2.9-2.33-3.73-3.77-1.34-2.36-2.1-5-3.22-7.43-3.48-7.62-10.07-14.53-6.62-23.71.25-.68-1-1.86-1.68-2.74-3.08-4.08-8.41-7.92-7.32-12.88,1.05-4.8-1.66-7.85-3.1-11.6-.61-1.58-2.18-3.36-1.78-4.69,1.84-6.17-2-10.82-4.62-15.86-.87-1.66-.91-3.64-1.57-5.4a14.67,14.67,0,0,0-2.17-4c-1.82-2.31-5-4.28-5.61-6.77-1.49-6.52-.93-13.18,3-19.12a8.22,8.22,0,0,1,4.94-3.25c7-1.06,9.78-3.16,11.29-9.52a3.89,3.89,0,0,1,.6-1.79c5.26-5.52,2.61-12.3,2.78-18.25a36.21,36.21,0,0,1,3.88-15.36c1.08-2.19,4.08-4.93,6.41-5.09,5-.34,5.48-3.2,6.56-6.14s3.6-6.16,3.15-8.95C54.62,173.23,56,167.39,61,162c2.39-2.55,4.29-5.46,6.59-8.44h9l21.6-33.21,14.13,6c.44-1,.64-2.58,1.63-3.54,3.53-3.44,6.93-8.89,11.12-9.47,6.55-.91,9.34-4.36,12.87-7.93a38.72,38.72,0,0,1,3.75-3.36c1.67-1.31,3.91-2.24,5.1-3.81,4.4-5.82,8.12-12.06,12.77-17.72,3.95-4.81,9.1-8.84,13.23-13.56,6-6.89,11.62-14.08,18.07-22,.92,3.47,2.47,6,2,8.32C191.55,60,197,66.26,194.16,73c-.23.54,1.85,1.83,2.64,2.57-.1,1.75-.2,3.52-.32,5.49l-1.26-.4C190.1,82.87,197.9,91.16,187,91c2,2.24,3.57,4,4.83,5.45L198,93.14l-5.26,8.06a9.56,9.56,0,0,0-.94,1.55c-.87,2.21-3,5-2.21,6.54,1.16,2.17,2.85,5.85,7.58,4.2,2.24-.78,4.65-1.17,7.72-1.92-2,2.8-3.65,5-5.24,7.31-2.54,3.64-.11,10.08,4.51,11.65l.4-3.2,5.85,3.44c-.24-1.92-.42-3.36-.63-5.1l8.7,3.17c1.22-4.32,2.24-8,3.34-11.84,1.34.37,3.53,1,1.63,4.08-1.61,2.65-2.65,5.58-4.44,8.13-10.5,14.93-21.19,29.77-31.65,44.72-1,1.43-1.07,3.43-1.34,5.2-.58,3.87-1,7.76-1.5,11.64l-2.48-.18V144.16h-2c0,4.3.12,8.6,0,12.89-.51,14.88-1,29.76-1.72,44.63-.48,9.93-1.58,19.84-1.91,29.78-.22,6.93.65,13.89.6,20.84-.14,22.54-.87,45.1,4.16,67.39,3.43,15.27,5.8,30.6,2.66,47.27-.47-7.89-3.59-13.64-10.55-19.18.82,2.45,1.45,3.7,1.59,5s.32,2.95-.43,3.88c-2.58,3.23-5.84,6.05-8.33,9.33-10.68,14.06-28,21.93-40.67,34.17-4.37,4.23-7-1.56-10.62-2.15-.53-.09-.35-3.51-.5-5.39l2.94-1.42,5.08,5.84c2.85-2.43,5.63-5.48,9.12-7.65a101.54,101.54,0,0,0,29.56-27.88c1.38-1.94,2.11-4.23,3.13-6.36l-1.45-.72-6.8,7.48L154,360.37c2.13-2.34,4.26-4.68,6.47-7.09-4.21.84-6.5,2.78-7.44,6.54-.66,2.62-2.82,4.95-4.3,7.41l-.91-.34,1.71-4.79-8.83,2.66A.3.3,0,0,1,140.31,365Zm17.44-152.54L157,213c2.51,2.93,4.9,6,7.63,8.74.84.87,2.59,1,3.93,1.53l4,6.8,2.1-.5V212.7c-2.08,3.58-4.17,7.21-6.27,10.83Zm-47.37-21.78c-1,.5-2.55,1.34-2.62,2.1a32.17,32.17,0,0,0,.6,6.14c1.57-.62,3.37-1,4.66-1.92a40.1,40.1,0,0,0,4.52-4.45l3.61,1.38L117,187.69l4.58-4.39-4.78-1.61c-.41.94-.78,1.82-1.4,3.27l-4-3.85-2.73,5.54L107.37,181c-1.37,3.46-2.5,6.33-4.05,10.23,4.91-2,8.46-3.57,12.1-5,1.49-.56,3.56-1.1,1.76,1.53C114.89,188.72,112.58,189.59,110.38,190.65ZM93.09,263.22c0-.93-1.29-1.81-2-2.72-1.06.76-2.66,1.34-3.07,2.3-.71,1.71-.69,3.65-1,5.49l-.65-3.14-1.6-1c-.68,1.14-1.35,2.28-2.3,3.86-.21-1.33-.35-2.18-.74-4.57l-7.21,10c4.4.8,3.84,3.08,2,5.7,5.2,1.43,9.34.61,11-3.71.84-2.13-.36-4.89-.63-7.37C89.85,267.24,93.23,266.78,93.09,263.22ZM170,269.49c-2.51-2.13-4.82-4.44-7.21-6.69l-1.27.64,3.86,10.71c-3.1,4.82-2.19,8,3.31,9.09-3.93,2.36-5,1.81-6.69-1.66-1.31-2.72-3.21-6-5.92-7.28-7.2-3.41-7.84-10.36-11.95-15.37-3.81-4.66-5.77-10.49-9.5-15.23-2.3-2.93-5.6-5.19-6.8-8.88-2.93-9.09-11.3-14.68-17.84-21.49-2.49-2.6-3.77-6.1-5.6-9.18l1.13-.67,13.41,15.76c.29-3.22.83-6.09.65-8.93-.07-1-1.85-2-3-3.11l5.77-7-4.85-1,.44,1.29a32.48,32.48,0,0,1-3.6,1c-.26.05-.91-1-1-.93-9.62,4.85-8.51-5-12.85-7.35-1.37-.74-2.08-2.43-4.21-3.12,1.78,2.88,3.56,5.77,5.75,9.3-4.68.32-9,.64-13.29.88-6.8.38-11.16,8-8.26,13.4,1,2-.07,4.88-.35,7.34a10.29,10.29,0,0,1-1,2.51l3.5-1c1.8,2.58,1.41,4.77-1.64,6.91-2.46,1.72-1.19,4.18,1.18,4.06,4-.2,4.06,2.44,5.44,4.19a17.65,17.65,0,0,1,2.91,5.07c.87,1.65,1.33,3.67,2.7,4.9,6.35,5.72,13,11.22,19.47,16.8l-5.81-2.55c1.57,5.1,3.3,9.72,10.71,8.93a64.69,64.69,0,0,1-6.18,2.67c-3.86,1.25-5.39,3.46-4.36,7.41,3.17-.59,4.63-.22,3.58,3.47-1.75,6.18-3.68,12.09-8.61,17.25L105.1,300c.89,4.41.82,4.48-3.89,3.86-1.84-.24-2.07.94-.65,3.2.25.4.48.81.11.18-1.21,2.7-2.57,4.53-2.78,6.45-.58,5.22-1.66,10.05-5.57,14.39-1.66,1.85-1.57,4.94-2.26,7.46-.57,2.09-.51,4.52-1.76,6.2-4.63,6.2-3.25,12.47-1.33,19.06l6.52-1.34c2.23,5.41,4.27,10.34,6.31,15.3-4.54,1-7.93,7.82-6.8,14.68,1.17-3.09,2.23-5.32,2.85-7.64,1-3.86,3.9-5.2,7.58-3.55s5.51-.46,7.19-2.2c6.68-6.9,6.37-7.74-4.51-16.08l-5.34,3.24-1.24-.82c.77-1.34,1.16-3.35,2.38-3.89,5.19-2.29,8.37-7.32,14.49-8.19,1.39-.19,2.89.24,5,.46-.52-6.42,9-6.69,12.2-11.88.48-.8,1.7-1.3,2-2.11,1.74-4.17,4.5-3.73,7.94-1.36l3.86-6.26-8.73-5.69,7.54,1.49.53-.72L135.05,316,150,313l1.92,3.11,2.14-1.44c8,5,19.22,6.95,23.32,16.75l1.72-.66c-.77-4.84-.44-10.12-2.64-14.4S169.56,309,166.24,305l11.46,7.75c-4.89-8.66-2.61-17.78-4-26.47-.89-5.44-.73-11-1-16.53l1.26.57c0-4.93-.08-10,0-15,.11-5.51-.2-11.09.74-16.5,1-5.59-1.87-8.6-7.49-11.24,1.19,2.53-2.58,5.86,2.62,7.13a45.45,45.45,0,0,1-2.25,6.14c-.87,1.67-2.45,3.05-3.56,4.65-.81,1.16-2.33,3-1.89,3.6,3.14,4.24,1,6.15-4,7.08l14.75,13.76C171.83,269.76,170.53,270,170,269.49ZM98.53,284.26c2-2.86,4.2-5.67,5.61-8.77.19-.42-3.79-2.3-7-4.17C97.75,276.71,98.12,280.3,98.53,284.26Zm31.3,71.92c.14,1.59.3,3.38.54,6.13,3.65-6.61,11.14-3.81,16.87-6.13ZM183.1,121l-1-.07-1.6,20,1.57.09Q182.58,131,183.1,121ZM165.41,357.24l6.7-8.75C165,349.27,164,352.23,165.41,357.24ZM94.57,191.91c-2.72,4.68-1.68,6.06,4.69,5.85C97.44,195.48,96.11,193.82,94.57,191.91Z"/><path class="cls-1" d="M249.9,132.86l.2-.38-4.24,9.82,6.77,4.32-2,3.23,12.84-5.64c-.2-2.33-.46-5.2-.76-8.71a60.54,60.54,0,0,1-7.66-3.77C252.48,130.05,251.26,131.21,249.9,132.86Z"/><path class="cls-1" d="M196.68,369.34c4.34,3.07,5.85,2.72,6.74-2.33a57.85,57.85,0,0,0,.83-13.64c-.25-3.67-2.92-2.8-5.46-.94l-1.9-5.41c-4.46,2.17-5.2,6.33-3.09,11.33,1.5,3.54,2,7.4,3,11.12Z"/><path class="cls-1" d="M198.61,208.07l-10,10.07-2.16-6.41-5.2,2.13c-.3,4.66-.6,9.19-.89,13.73l1.64.7q8.88-9.72,17.74-19.46Z"/><path class="cls-1" d="M180.54,391.38c.47,7.37-3.49,15.15,3,22,2.8,2.92,5.14,6.18,7.69,9.29l1.32-.86c-3-5.54-6.14-11.06-9.09-16.64a11.76,11.76,0,0,1-1.4-4.48c-.21-3.08-.06-6.19-.06-9.29Z"/><path class="cls-1" d="M196.78,369.47c-1.53-3.42-3-6.86-4.6-10.25-.74-1.58-1.69-3.08-2.64-4.77-3.73,7.77-2.22,12.32,5,15.42.48.2,1.39-.36,2.1-.55Z"/><path class="cls-1" d="M183.31,206.72c1.61-.39,3.44-.5,4.77-1.27s1.93-2.13,2.87-3.24l-1.34-1.13-6.77,3.72Z"/><path class="cls-1" d="M246.68,126.85c-.19,1-.39,2.06-.63,3.33h-4.2l.67,4.81c2.29-2.62,8.12-3.67,4.19-8,0,0-.07,0-.07,0Z"/><path class="cls-1" d="M117.38,270.89c.54,1.21,1.08,2.42,1.63,3.63,4-1.37,6.34.29,7,5.74,5-2,5.64.62,5.49,4.1,3.27-2.15,3.48-2.34.7-4.62-6.28-5.17-12.78-10.12-19.2-15.16l-.38-.19c-6.51-5.58-13.11-11.08-19.46-16.8-1.37-1.23-1.83-3.25-2.7-4.9a17.65,17.65,0,0,0-2.91-5.07c-1.38-1.75-1.43-4.39-5.44-4.19-2.37.12-3.64-2.34-1.18-4.06,3-2.14,3.44-4.33,1.64-6.91l-3.5,1a10.29,10.29,0,0,0,1-2.51c.28-2.46,1.4-5.37.35-7.34-2.9-5.4,1.46-13,8.26-13.4,4.31-.24,8.61-.56,13.29-.88-2.19-3.53-4-6.42-5.75-9.3,2.13.69,2.84,2.38,4.21,3.12,4.34,2.34,3.23,12.2,12.85,7.35.1-.05.75,1,1,.93a32.48,32.48,0,0,0,3.6-1l-.44-1.29,4.85,1-5.77,7c1.15,1.13,2.93,2.07,3,3.11.18,2.84-.36,5.71-.65,8.93l-13.41-15.76-1.13.67c1.83,3.08,3.11,6.58,5.6,9.18,6.54,6.81,14.91,12.4,17.84,21.49,1.2,3.69,4.5,6,6.8,8.88,3.73,4.74,5.69,10.57,9.5,15.23,4.11,5,4.75,12,11.95,15.37,2.71,1.28,4.61,4.56,5.92,7.28,1.67,3.47,2.76,4,6.69,1.66-5.5-1.11-6.41-4.27-3.31-9.09l-3.86-10.71,1.27-.64c2.39,2.25,4.7,4.56,7.21,6.69.57.47,1.87.27,2.83.39l-.18-.16c.31,5.52.15,11.09,1,16.53,1.44,8.69-.84,17.81,4,26.47L166.24,305c3.32,4,8,7.21,10.2,11.41s1.87,9.56,2.64,14.4l-1.72.66c-4.1-9.8-15.37-11.76-23.32-16.75l-2.14,1.44L150,313,135.05,316l11.77,8.31-.53.72-7.54-1.49,8.73,5.69-3.86,6.26c-3.44-2.37-6.2-2.81-7.94,1.36-.33.81-1.55,1.31-2,2.11-3.16,5.19-12.72,5.46-12.2,11.88-2.16-.22-3.66-.65-5-.46-6.12.87-9.3,5.9-14.49,8.19-1.22.54-1.61,2.55-2.38,3.89l1.24.82,5.34-3.24c10.88,8.34,11.19,9.18,4.51,16.08-1.68,1.74-3.44,3.87-7.19,2.2s-6.55-.31-7.58,3.55c-.62,2.32-1.68,4.55-2.85,7.64-1.13-6.86,2.26-13.73,6.8-14.68-2-5-4.08-9.89-6.31-15.3L87,360.82c-1.92-6.59-3.3-12.86,1.33-19.06,1.25-1.68,1.19-4.11,1.76-6.2.69-2.52.6-5.61,2.26-7.46,3.91-4.34,5-9.17,5.57-14.39.21-1.92,1.57-3.75,2.78-6.45.37.63.14.22-.11-.18-1.42-2.26-1.19-3.44.65-3.2,4.71.62,4.78.55,3.89-3.86L102,301.57c4.93-5.16,6.86-11.07,8.61-17.25,1-3.69-.41-4.06-3.58-3.47-1-4,.5-6.16,4.36-7.41a64.69,64.69,0,0,0,6.18-2.67Zm7.25,29.86c1.36-.28,2.44-3,2.81-4.8.14-.68-1.89-2.12-3.2-2.56-4.64-1.51-8.46-1.18-9.52,4.11-.11.55-1.34.94-2.06,1.39l-4.53,2.82.65.93C114.08,302.08,119.47,301.82,124.63,300.75Zm11.2-8.39L127.05,299l1.1,1.2c3.95,0,6.73-6.19,11.63-1.27l.59-1.35Zm-29.48,77.31c-.09.45,1.33,1.13,2.06,1.71a19.12,19.12,0,0,0,2.23-3.68c.17-.51-.92-1.35-2.13-2.94C107.48,367,106.63,368.27,106.35,369.67Z"/><path class="cls-1" d="M172.61,269.72l1.26.57c0-4.93-.08-10,0-15,.11-5.51-.2-11.09.74-16.5,1-5.59-1.87-8.6-7.49-11.24,1.19,2.53-2.58,5.86,2.62,7.13a45.45,45.45,0,0,1-2.25,6.14c-.87,1.67-2.45,3.05-3.56,4.65-.81,1.16-2.33,3-1.89,3.6,3.14,4.24,1,6.15-4,7.08l14.75,13.76Z"/><path class="cls-1" d="M87.05,268.29c-.22-1-.43-2.09-.65-3.14l-1.6-1c-.68,1.14-1.35,2.28-2.3,3.86-.21-1.33-.35-2.18-.74-4.57l-7.21,10c4.4.8,3.84,3.08,2,5.7,5.2,1.43,9.34.61,11-3.71.84-2.13-.36-4.89-.63-7.37Z"/><path class="cls-1" d="M117.16,187.77c-2.27.95-4.58,1.82-6.78,2.88-1,.5-2.55,1.34-2.62,2.1a32.17,32.17,0,0,0,.6,6.14c1.57-.62,3.37-1,4.66-1.92a40.1,40.1,0,0,0,4.52-4.45l3.61,1.38L117,187.69Z"/><path class="cls-1" d="M168.53,223.25l4,6.8,2.1-.5V212.7c-2.08,3.58-4.17,7.21-6.27,10.83Z"/><path class="cls-1" d="M117,187.69l4.58-4.39-4.78-1.61c-.41.94-.78,1.82-1.4,3.27l-4-3.85-2.73,5.54L107.37,181c-1.37,3.46-2.5,6.33-4.05,10.23,4.91-2,8.46-3.57,12.1-5,1.49-.56,3.56-1.1,1.75,1.52Z"/><path class="cls-1" d="M97.19,271.32c.56,5.39.93,9,1.34,12.94,2-2.86,4.2-5.67,5.61-8.77C104.33,275.07,100.35,273.19,97.19,271.32Z"/><path class="cls-1" d="M113.05,264.58l-.38-.19-5.8-2.55c1.57,5.1,3.3,9.72,10.71,8.93l-.2.12C115.94,268.79,114.5,266.68,113.05,264.58Z"/><path class="cls-1" d="M147.24,356.18H129.83c.14,1.59.3,3.38.54,6.13C134,355.7,141.51,358.5,147.24,356.18Z"/><path class="cls-1" d="M87.05,268.29,87,268c2.87-.8,6.25-1.26,6.11-4.82,0-.93-1.29-1.81-2-2.72-1.06.76-2.66,1.34-3.07,2.3C87.32,264.51,87.34,266.45,87.05,268.29Z"/><path class="cls-1" d="M182.07,141q.51-10,1-20l-1-.07-1.6,20Z"/><path class="cls-1" d="M172.11,348.49c-7.08.78-8.13,3.74-6.7,8.75Z"/><path class="cls-1" d="M168.53,223.25l-.2.28-10.58-11.1L157,213c2.51,2.93,4.9,6,7.63,8.74C165.44,222.59,167.19,222.76,168.53,223.25Z"/><path class="cls-1" d="M99.26,197.76c-1.82-2.28-3.15-3.94-4.69-5.85C91.85,196.59,92.89,198,99.26,197.76Z"/><path class="cls-1" d="M140.7,364.76a.3.3,0,0,1-.39.21l.34.11Z"/><path class="cls-1" d="M225.42,154.56c5.48,3,8.85,1.2,11.14-3.29,1.9-3.71,3.86-7.4,6.1-11.68l-8.14-1.18c-.81,1.84-1.71,3.9-2.61,6l-.77-.85-9.56,5.67,6.52,2.67Z"/><path class="cls-1" d="M217.56,279l22.84-22.27-1-.84c-2.76,2.66-5.54,5.31-8.3,8-3.85,3.74-7.78,7.42-11.49,11.26-1,1.05-1.36,2.59-2,3.93Z"/><path class="cls-1" d="M227.38,161l-.39.14.4-.16Z"/><path class="cls-1" d="M227.39,161c0-.4-.06-.8,0,.07-.27-.84-.14-.45,0,0Z"/><path class="cls-1" d="M108.78,302.64c5.3-.56,10.69-.82,15.85-1.89,1.36-.28,2.44-3,2.81-4.8.14-.68-1.89-2.12-3.2-2.56-4.64-1.51-8.46-1.18-9.52,4.11-.11.55-1.34.94-2.06,1.39l-4.53,2.82Z"/><path class="cls-1" d="M113.05,264.58c1.45,2.1,2.89,4.21,4.33,6.31.54,1.21,1.08,2.42,1.63,3.63,4-1.37,6.34.29,7,5.74,5-2,5.64.62,5.49,4.1,3.27-2.15,3.48-2.34.7-4.62C126,274.57,119.47,269.62,113.05,264.58Z"/><path class="cls-1" d="M140.37,297.59l-4.54-5.23L127.05,299l1.1,1.2c3.95,0,6.73-6.19,11.63-1.27Z"/><path class="cls-1" d="M108.51,364.76c-1,2.2-1.88,3.51-2.16,4.91-.09.45,1.33,1.13,2.06,1.71a19.12,19.12,0,0,0,2.23-3.68C110.81,367.19,109.72,366.35,108.51,364.76Z"/></svg>