<svg id="Layer_1" data-name="Layer 1" xmlns="http://www.w3.org/2000/svg" viewBox="0 0 333.82 432"><defs><style>.cls-1{fill:#99c864;}</style></defs><title>fir</title><path class="cls-1" d="M186.68,70.1l-2.75,0c-.12-.33-.4-.68-.36-1A70.3,70.3,0,0,1,194.11,41c.1-.14.26-.25.53-.53-1.19,3.22-2.37,6.21-3.4,9.24a93.7,93.7,0,0,0-4.2,19A10.05,10.05,0,0,1,186.68,70.1Z"/><path class="cls-1" d="M200.33,55.38c-.22,3.9,1.59,7.88-.84,11.7q.19-5.85.4-11.71Z"/><path class="cls-1" d="M208.63,69.68h-.85c-.16-.12-.43-.23-.45-.36-.36-2.52-.7-5-.83-7.62C207.44,64.32,208.58,66.86,208.63,69.68Z"/><path class="cls-1" d="M189.86,183.15c.33-.5-1.23-1.54.92-1.56l-1.17-.56c-.26-1-.48-1.75-.73-2.66l1.4.26c.43-3.36.87-6.69,1.25-10a1.21,1.21,0,0,0-.4-1c-1.1-.69-2.27-1.27-3.5-1.94l-.56,1.56-.39-.12c.35-1,.71-2,1.16-3.28l3.44,3.19c1.18-2,1.06-2.61-.56-3.71-.86-.58-1.78-1.06-2.59-1.68-.24-.18-.22-.68-.15-1.19,2.4,1.15,4.17,3,6.19,5.25a6.82,6.82,0,0,0-.48-1.23c-1.85-2.53-1-5.3-.74-8,.19-2.12.59-4.23.63-6.35,0-.79-.77-1.6-1.16-2.41-.16-.33-.26-.69-.39-1l.36-.15,1.31,1.22c.2-1.38.79-2.54-.19-3.85s.16-2.6.56-3.84a25.18,25.18,0,0,1,1.57-3.43,18.37,18.37,0,0,1,1.39-2.29c1.24-1.7.69-3.31-.17-4.93v.06a17.7,17.7,0,0,0,.13-2.9c-.62-5.51.51-10.94.64-16.42.08-3.26.36-6.52.55-9.78a4,4,0,0,1,.28-1.35c2.18,8.34,1.31,16.63-.36,24.86a2.91,2.91,0,0,0,.49.16l1.47-.15.3-1.35.49-.12c-1.1,2.35.63,3.9,1.74,5.63l-.46.13-1.6-1.29.05,1.59-.85.33.69,1.4c0,2.17-.1,4.21-.07,6.26,0,.31.44.63.67.94-.46,1.43-.92,2.85-1.35,4.29,0,.1.25.41.36.39s.56-.19.58-.33c.15-1.45.24-2.9.35-4.35.14-.21.37-.4.4-.62a35.79,35.79,0,0,1,3.51-9.94c1.78-3.8,2.31-7.82,2.7-11.83.71-7.33,1.46-14.7,1.47-22,0-7.2-.92-14.4-1.41-21.61a9.18,9.18,0,0,1,.15-1.64h.85c.45,1.66,1,3.29,1.33,5a111.22,111.22,0,0,1,1.11,32.12,23.63,23.63,0,0,0-.26,3.47c6.36-18.62,8.5-37.8,8-57.32h.47c.49,3.44,1.08,6.86,1.45,10.31a101.55,101.55,0,0,1-.17,22.25,91.15,91.15,0,0,1-6.27,25.2c-2.08,5-4.7,9.77-6.89,14.72-1.07,2.4-1.69,5-2.54,7.47a4.47,4.47,0,0,1-.94,1.68c.29-1.37.57-2.74.86-4.1l-.48-.19A11.25,11.25,0,0,0,203.2,133c-.31,2.75-.3,5.53-.63,8.28a5.91,5.91,0,0,1-2.42,4.38c0-1,0-1.7.06-2.41l-.36,0c-.38,2.35-.76,4.7-1.11,6.89l3-3.72.31.09c-.18,2.17-.35,4.35-.53,6.52l.37.18c.69-.75,1.34-1.53,2.06-2.26s1.51-1.4,2.28-2.1l2.9-.07c1.1.25.4.63,0,.87-2.28,1.52-4.6,3-6.84,4.55a2.64,2.64,0,0,0-1.12,1.57c-.66,5.26-1.2,10.53-1.83,15.8a3.39,3.39,0,0,1-.78,1.67c-.85,1-1.82,1.85-2.73,2.77l.29.3,2.73-1.78c-.18,1.81-.32,3.25-.46,4.69l.41.35,5.44-3.77-3.47,3.93.36.32c1.31-2,4.12-2.65,4.71-5.12,3.66-1,6.15-3.88,9.67-5.43-.78,1.49-1.47,2.85-2.22,4.17a1.82,1.82,0,0,1-.79.65c-2.53,1.22-5.11,2.34-7.58,3.64-1.5.8-2.83,1.9-4.28,2.8a12.14,12.14,0,0,1-1.84.79l1.34-1c-2.11-.1-2.24.07-2.08,2.21l.56-1c.42.12.89.4,1.25.32,2.74-.65,5.46-1.36,8.18-2.07.56-.15,1.11-.37,1.94-.65-.5,1.49-.93,2.54-2.51,2.74-2.8.35-5.57.86-8.37,1.17-1,.11-1.45.38-1.6,1.36-.88,5.81-1.87,11.62-2.69,17.45-.15,1.08,0,2.12-1.42,2.59-.07-1.32-.07-2.62-.25-3.89-.06-.42-.56-.78-.86-1.17l.78-2.34-.39-.33c-.41.3-1.14.56-1.17.89-.06.63-.62,1.63.7,1.85-.27.42-.79.86-.77,1.26.11,1.46,0,3,1,4.28a.45.45,0,0,1,.09.39c-.71,1.36-1.41,2.73-2.17,4.06a5.85,5.85,0,0,0-.79,1.39l1.9-1.49c-.13,1.69-.23,3.06-.33,4.43-.14,1.94-.24,3.87-.42,5.8-.07.73-.43,1.43-.44,2.15,0,1.21.12,2.43.19,3.65v-.08l-.56.48-.09.08c-.46,1.77-.93,3.54-1.39,5.31-.08.31-.1.64-.15,1v-.06L186,236.13l1.24-.66c.2,2.12-1,3.77-1.29,5.67l1-.32c-.31,1.46-.59,2.83-.93,4.5,2.07-.89,4-1.61,5.78-2.51,3.14-1.57,6.21-3.25,9.3-4.89.57-.31,1.13-.91,1.56.12l-.34.45c-.29.95-.57,1.89-.86,2.83-.06-.81-.47-.8-1.15-.54-4.59,1.73-9.19,3.43-13.78,5.16a1.45,1.45,0,0,0-.85.73c-.45,1.61-.8,3.25-1.26,5.23l14.26-4c-.69,1.94-1.37,3.38-3.79,3.54-3,.19-6,.9-9,1.24a2.19,2.19,0,0,0-2.24,1.91c-1.3,5.35-2.72,10.66-4.13,16.1a2.72,2.72,0,0,0,.85.15c2.65-.39,5.31-.72,7.91-1.3.83-.18,1.51-1.05,2.29-1.63-1,1.67-1.73,3.54-3.79,4.46-2.61,1.16-5.24,2.29-7.81,3.53a2.69,2.69,0,0,0-1.33,1.43c-1,3.07-1.87,6.17-2.76,9.27-.49,1.7-.47,1.71-2,1.85l.85,3.12,3.41-1.2c.21,1.17-.25,1.62-1.46,1.66a3.2,3.2,0,0,0-3.4,2.73,23.29,23.29,0,0,1-4,8.9c-.51.69-.7,1.35.56,1.59l-.43,1.93a16.92,16.92,0,0,0,13.6-1.55c-1.06,2.11-.17,4.51-1.51,6.44l-.49-.08.41-2.23a27.46,27.46,0,0,0-5,0,74.26,74.26,0,0,0-7.62,1.87,2.32,2.32,0,0,0-1.43,1.07c-1.74,4.79-3.39,9.62-5.06,14.43-.06.18-.09.38-.19.81l8.34-.83-4,2.83c-2.33-1.77-4.89-1.21-5.5,1.46h1.39c-3.55,1.64-3,5.27-4.8,8.09,3.19-.83,6-1.16,7.7-4a57.26,57.26,0,0,1,4.49-6.1c.32-.41,1-.55,1.7-.91-.14.36-.15.52-.24.61-3.08,3.09-5.32,6.89-8.73,9.7a2.44,2.44,0,0,1-1.12.59c-4.25.51-4.39.61-5.34,4.77l1.41.47-2.79,1.63-.27,2.33c3.11.09,6.22.27,9.34.26,3.34,0,6.69-.21,10-.33.6,0,1.32-.23,1.28.75s.09,2,.13,3c-.32.25-.61.63-1,.74a80.54,80.54,0,0,1-22,3.55,1.81,1.81,0,0,0-1.94,1.27c-.8,2-1.69,3.92-2.64,6.12,1.75.41,3.26.83,4.8,1.12a77.25,77.25,0,0,0,22.1,1c.31,0,.65.26,1,.4,0,.69,0,1.38,0,2.07s-.36,1.07-1.22,1.13a56.69,56.69,0,0,1-25.49-4c-.47-.19-1-.34-1.56-.55-1.56,3.5-3,7-4.63,10.37Q136.29,387,130.88,398.3a4.23,4.23,0,0,1-5.28,1.86,3.78,3.78,0,0,1-2-5.13c2.06-4.42,4.21-8.8,6.28-13.22s4.11-9,6.21-13.42c.53-1.13.77-2.05-1.12-2.56,4.11-.28,3-3.82,4.76-5.55l-1.9-1,0-.19,1.82.4c1.35-1.72,1.26-1.82-.56-3-2.79-1.74-5.61-3.49-8.22-5.47-1-.77-1.52-2.18-2.25-3.3-.24-.37-.47-.75-.71-1.13v.05l-.48-2.43a72.51,72.51,0,0,0,16.28,6.07L148,340l-6.39-6.51.4-.36,6,6.45,3.22-8.32c-2.44-.32-4.76-.59-7.07-.95a40.46,40.46,0,0,1-4.21-.91,2.4,2.4,0,0,1-1-.83c-.65-.74-1.27-1.51-2-2.34l14.43,4.43c1.05-2.83,1.89-5.43,3-7.91.77-1.73.74-3-1-4.19a11.42,11.42,0,0,1-2.89-3.1l4.69,4.35c.45-1,.75-1.69,1-2.34-2.55-2.43-6.59-3.05-7.68-6.87l7.88,6.48c.08-.85.13-1.36.18-1.87l2.45-5.58-4.93-.52,2.53,6.1c-1.21-1.87-2.4-3.75-3.65-5.58a2.82,2.82,0,0,0-1.3-1.07c-1.4-.47-2.86-.79-4.29-1.19a2.69,2.69,0,0,1-2-3.2l5.73,2.36-5-13.81.49-.25c1.22,1.11,2.74,1.85,3.25,3.74.95,3.5,2.16,6.92,3.31,10.36a1.68,1.68,0,0,0,.83.94c1.62.6,3.28,1.09,5,1.65l2.18-6.37,1.22.37c0-.19.08-.32.05-.35a1.71,1.71,0,0,1-.43-2.11c1-3.3,2-6.63,2.95-10-1.85-.39-3.54-.75-5.24-1.09-1.37-.28-2.66-.58-3.3-2.05a5.8,5.8,0,0,0-1.24-1.49l7.11,3.11.26-.3c-.32-.52-.63-1.05-1-1.55a78.33,78.33,0,0,1-8.82-17.77c-.76-2.11-2.86-2.14-4.55-3.58l.29,2c-1.15.52-1.49-.49-2-1.1l1.09-.2-.58-1.88v.05c-.07-.28-.29-.73-.18-.83,1-.89.44-1.65-.09-2.48a.82.82,0,0,1-.07-.63c.7.67,1.54,1.48,2.4,2.26,2.1,1.9,4.22,3.78,6.33,5.67.56.51,1.1,1,1.81,1.69l-2.29-.86c.8,2.34,1.38,4.48,2.27,6.5,1.81,4.09,3.75,8.13,5.75,12.14.35.72,1.24,1.19,2.21,2.08,1.18-4,2.17-7.39,3.21-10.79a12.32,12.32,0,0,1,.93-1.85c.06-.8.14-1.73.23-2.82-2.38-.88-5.35-.92-6.94-3.65,2.15,1,4.16,1.94,6.21,2.82.31.14.78,0,1.18-.07-.17-.32-.24-.75-.5-.94A86.92,86.92,0,0,1,153,257.9c-.16-.19-.37-.34-.89-.83.23,1.56.4,2.76.58,3.95-1.46-1.53-3.3-2.78-3.46-5a10.54,10.54,0,0,0-2.48-6.25,10.78,10.78,0,0,1-1.18-1.46c-.88-1.47.92-2.9-.1-4.39l.39-.11,1.59,2.3c.08-1.55.18-3.35.26-5.15,0-.14,0-.38-.12-.42-1.93-.89-1.14-3.13-2.73-4.55l1.62.21-.15-1.92,1.34.85.23-1.52c.83,1.32,2.56,2.12,2.37,4a1.75,1.75,0,0,0,.59,1.14c2.35,2.29,4.68,4.61,7.12,6.81,1.76,1.59,3.69,3,5.51,4.53a2.58,2.58,0,0,1,.61,1.13c.3.93.54,1.87.94,3.27l-14.42-10.84a1.71,1.71,0,0,0-.17.63c.14,1.82.45,3.65.44,5.48,0,2.83,2.09,4.55,3.58,6.54A106.87,106.87,0,0,0,169,271.87c.36.32.77.59,1.47,1.11,1.28-4.71,2.5-9.17,3.7-13.57L172.06,258l.34-.43,1.79,1.19c.45-1.51.86-2.86,1.27-4.21l1.15.08c-.22.29-.64.59-.61.86.09,1.15-.89,2.3.07,3.5.2.25-.27,1-.44,1.52-.41,1.24-.83,2.48-1.37,4.09l1.72-.42a11.78,11.78,0,0,1,0-1.94c.75-3.49,1.6-7,2.28-10.45.43-2.22.63-4.48.89-6.73a5.48,5.48,0,0,0-.16-1.32l-1.61.46c-.25-1.2.47-1.9,1.86-2.1l.19-.36c.08-1.1-.15-2.36.31-3.29,1-1.94-.29-1.57-1.4-1.52l1.78-.3c.12-1,.3-2.25.4-3.49a8.05,8.05,0,0,0-.17-1.53l-1.69.34.12-1.51c1.54.51,2.08-.06,2.2-1.48a13.42,13.42,0,0,1,1-3c.31-.92.49-1.75-.84-2.08-.14,0-.2-.37-.42-.84l1.74.61c.4-1.95.84-3.86,1.18-5.8.16-.92-.93-1.5-2.44-1.38l-.57-.27,0,.06.88-1.54c.72.41,1.41.8,2.21,1.27,1-1.59.37-3.78,1.68-5.23l0-4.49c1.6-1.79.45-4.66,1.94-6.44-.26-1.17-1-2.84-.65-3.13,1.79-1.38.93-3.34,1.58-4.91.52-1.25,0-1.88-1.27-2.24s-1.7-1.37-1-2.39l2.1,2.57.49-.21.51-2.14,1.49.81,0-.07c.13,1.22.21,2.43.41,3.64a6.67,6.67,0,0,0,.59,1.42c-.85,1-.53,2.05-.05,3.16,1.61-1.74,1.58-2.51,0-3.15a4.73,4.73,0,0,0-.05-5.08v.06c-.23-1.52-.44-3.05-.73-4.56C190.65,183.38,190.15,183.29,189.86,183.15Zm-19.58,168.7c-5.54-.84-11.15-1.7-16.76-2.54-.24,0-.68.12-.75.3-.9,2.11-1.75,4.25-2.72,6.65A107,107,0,0,0,170.28,351.85ZM131.6,349l-.27.31,9.56,7.82,2.49-6Zm52.68-76.82c-4.34-1-5.66-.29-5.91,3.25Zm-11.82,37.22,0-.39-4.49-.73-.9,3Zm.28-35.08.67.17.85-2.75-.51-.16Z"/><path class="cls-1" d="M243.4,148.14c1,.29.51.81.16,1.22-1.49,1.76-2.94,3.57-4.55,5.24a111.77,111.77,0,0,1-16.89,14.05,5.77,5.77,0,0,0-1.7,2.3,29.68,29.68,0,0,0-1.17,3.8,82.63,82.63,0,0,0,16.88-13.2c5-5,10-10,15-15l.43.37c-2.4,2.93-4.76,5.89-7.19,8.79-2,2.35-4.09,4.59-6,7a11.89,11.89,0,0,0-1.29,2.51q-5.22,10.59-10.42,21.18c-.07.12-.07.27.17.71l12-9.46c-2.43,3.6-4.38,7.11-7,10.11a20,20,0,0,1-6.44,4.48c-3.13,1.5-5,4-6.84,6.6a70.52,70.52,0,0,1-13.26,14c-3.15,2.52-6.61,4.68-9.89,7.06a17.42,17.42,0,0,0-2,2l-1.74,1.73.75-3.29a14.34,14.34,0,0,0,2.45-2.27c2.72-4.42,5.34-8.9,8-13.37.37-.62.72-1.26,1.27-2.2l-8.12,2.36-.27-.43a28.52,28.52,0,0,1,3.09-2c2-1,4.12-1.77,6.15-2.74a3.07,3.07,0,0,0,1.34-1.33c2.62-5.53,5.52-11,7.66-16.67,1.55-4.12,3.88-7.78,5.87-11.63.77-1.51,1.65-3,2.3-4.54.79-1.91,2.52-2.91,4-4.23,4.26-3.88,8.43-7.85,12.7-11.73a10.07,10.07,0,0,1,2.46-1.21Zm-7.76,17.55A82.53,82.53,0,0,1,218.5,178a2.32,2.32,0,0,0-.82,1.16c-1.48,3.52-2.88,7.08-4.4,10.6-1,2.39-2.22,4.71-3.49,7.38a16,16,0,0,0,1.52-.63c2.22-1.23,4.46-2.43,6.62-3.75,1.49-.91,3-1.7,4-3.35,3.28-5.71,6.71-11.33,10-17C233.26,170.23,234.42,167.94,235.64,165.69Zm-19.73,31.93c-2.13.93-4.23,2-6.43,2.74a5.33,5.33,0,0,0-3.28,3,29.69,29.69,0,0,1-2,3.32q-3.13,4.77-6.28,9.52C205.14,211.15,210.81,204.69,215.91,197.62Z"/><path class="cls-1" d="M197.81,301l1.43-2.46c-4.54,2.5-8.85,5.35-13.79,7.29.24-1.61.46-3,.67-4.45l.33,0-.13,1.42c3.46-.59,16.24-9.74,17-12.3l-12.86.59c0-2.57.21-2.68,2.44-3,5-.65,10-1.4,15-2.08a5.11,5.11,0,0,0,3.11-1.7,95.24,95.24,0,0,0,15.44-21.57c.17-.33.29-.68.52-1.24-3.58,1.46-6.95,2.76-10.24,4.21-.68.3-1.12,1.13-1.64,1.74a73.78,73.78,0,0,1-22.52,18c-.21.11-.43.19-.65.28l-.4-.31c.44-.61.74-1.45,1.35-1.8,9.52-5.42,17.06-12.8,23.54-21.36a113.43,113.43,0,0,0,9.79-14.7c.44-.82.83-1.66,1.25-2.49l.53.24c-2.29,4.81-4.57,9.62-6.89,14.48.78-.28,1.69-.54,2.53-.93a171.24,171.24,0,0,0,23.9-13.44c1.09-.74,2.08-1.64,3.3-2.42.52,1,.65,1.77-.29,2.52-2.78,2.22-5.52,4.47-8.48,6.52l1.53-2.81-.28-.2a17.94,17.94,0,0,0-2.28,2.77c-1.28,2.4-3.56,3.63-5.76,5a15.13,15.13,0,0,1-3.32,1.85c-4.47,1.31-5,5.32-6.59,8.61a77.37,77.37,0,0,1-9.59,15.18c-.46.57-.88,1.17-1.48,2l1.53-.17.27.34L212,288.79c-.07.07-.16.17-.24.18-3.13.47-4.6,3.13-6.83,4.78-.95.7-1.66,1.76-3.22,1.74-.52,0-1.14,1.44-1.58,2.29-.59,1.15-1.06,2.37-1.58,3.56Z"/><path class="cls-1" d="M210.13,307.77l-16.4,2.36,2.9-4.33a5.28,5.28,0,0,0,1.55.26c4.09-.79,8.13-1.92,12.25-2.36s6.4-3,8.47-6c1.9-2.76,3.88-5.46,5.83-8.19l.34.19c-2.21,3.79-4.43,7.59-6.76,11.6,12.52-3.82,23.87-9.65,34.71-16.5a90.74,90.74,0,0,1-26.73,17.33l.35-1.29-2.77,1.7.17.06c-.25.26-.43.66-.74.77-2.75,1-5.52,1.88-8.28,2.83a2.74,2.74,0,0,0-1.3.71A85.93,85.93,0,0,1,201,319.66c-.06,0-.05.16-.16.53l4.59-1.48.15.22c-1.38.93-2.76,1.87-4.15,2.78s-2.78,1.91-4.27,2.69-3,1.24-4.48,1.88a26.91,26.91,0,0,0-3.18,1.45,89.62,89.62,0,0,1-25.31,10.67,7.16,7.16,0,0,0-1.43.73c.61-1.69,2-2.24,3.36-2.7a86.43,86.43,0,0,0,17.5-8.34l-11.21,1.05-.22-.4a13.12,13.12,0,0,1,1-1.13c1.41-1.35,3.14-1.71,5.09-2,4.71-.76,9.36-1.88,14-3a7,7,0,0,0,2.73-1.55c4.75-4,9.45-8.09,14.16-12.15A11.74,11.74,0,0,0,210.13,307.77Z"/><path class="cls-1" d="M202.32,238.49l.34-.45c.42-2.08.83-4.16,1.25-6.24l.35.06c-.24,1.4-.47,2.8-.74,4.37,7-3.59,11.89-8.65,13.67-15.76l-12.41,4.11-.36,0c.15-.43.18-1,.47-1.25,2.55-2.38,5.74-3.77,8.84-5.31,2-1,3.86-2.08,5.75-3.17a1.88,1.88,0,0,0,.64-.93c.9-2.3,1.76-4.62,2.85-6.89-.44,2.07-.88,4.14-1.4,6.62,1.73-1.05,3.16-1.92,4.58-2.8a11.93,11.93,0,0,1,1.4-.91c4.12-1.81,6-5.39,7.68-9.07a12.36,12.36,0,0,1,1.66-2.81c-.75,2.17-1.49,4.34-2.26,6.6,3.79-2.11,15.54-11.52,29.05-27.49a97.6,97.6,0,0,1-23.8,28.05l1.62-3.87-.19-.15a2.58,2.58,0,0,0-.57.45,29.28,29.28,0,0,0-2.41,3.63c-1.3,2.69-3.7,4.26-6,6a9.85,9.85,0,0,0-2.42,2.57,78.32,78.32,0,0,1-14.45,16.94,13.52,13.52,0,0,0-2.14,3.21c-2.19,3.63-4.34,7.29-6.54,10.91a3.49,3.49,0,0,1-1.13,1c-1.67,1.07-3.4,2.06-5,3.2-.62.44-1,1.2-1.72,1.7.49-1.47,1-2.93,1.49-4.39,1.09,1.1,1.79.22,2.31-.54,2.2-3.16,4.32-6.36,6.46-9.56a3.05,3.05,0,0,0,.21-.87c-1.88,1.18-3.59,2.27-5.31,3.34C203.41,239.2,202.75,239.42,202.32,238.49Zm23.8-22.69c-3.52,1.33-7,2.56-7.56,6.74a8.89,8.89,0,0,1-.85,2.16l.43.23Z"/><path class="cls-1" d="M209.13,148.8l-2.9.07a4,4,0,0,1,.39-1.22c4.29-5.93,8.72-11.75,12.83-17.79,1.16-1.7,1.53-4,2-6,1.63-7.51,3.13-15,4.68-22.57a1.26,1.26,0,0,1,.3-.68,117.9,117.9,0,0,1-1.82,20.77,197.24,197.24,0,0,0,18.93-43.28c.39,3.9-6.29,25.21-9.91,31.75l-.42-1.09a30.53,30.53,0,0,0-1.17,3.83c-.54,3.18-2.57,5.68-4,8.42-1.58,2.93-3.62,5.63-5.26,8.53a23.33,23.33,0,0,0-1.45,4.27l.4.19,4.9-6.14.26.11c-1.45,3.29-2.78,6.62-4.4,9.83-.64,1.26-2,2.19-2.87,3.35a30.69,30.69,0,0,0-2.12,3.17c-.87,1.46-1.66,3-2.48,4.45l-1.79,0,.38-1.77Zm7.68-11-6.74,8,.32.24C212.59,143.38,216,141.62,216.81,137.8Z"/><path class="cls-1" d="M146.35,309.59c-.62-.29-1.28-.4-1.6-.77-3.41-4.09-8.48-5.79-12.86-8.48-1.28-.79-2.81-1.53-3.57-2.69s-1-3.06-1.44-4.62l.52-.24L133,297l.3-.29c-2.45-2.76-3.91-6.22-6.59-8.83a20.91,20.91,0,0,0-1.1-2.81,96.27,96.27,0,0,1-8-19.71c-.42-1.49-1.72-2.72-2.49-4.14a11.46,11.46,0,0,1-1.2-3.08,35.45,35.45,0,0,1-.39-4.06l1.93,2.19-.71-15.8.63,0a24.07,24.07,0,0,0,.15,2.55q1.25,8,2.6,16a2.69,2.69,0,0,0,.84,1.36c3.83,3.59,7.74,7.11,11.51,10.76a19.76,19.76,0,0,1,2.63,3.76c.79,1.25,1.48,2.57,2.45,4.26a86.92,86.92,0,0,1-14.37-11.25l-.4.24c1.15,2.77,2.23,5.56,3.45,8.3A109.35,109.35,0,0,0,139,300.23c.25.31.49.78.82.86,2.77.69,3.09,3.23,4.3,5.11C144.8,307.28,145.52,308.34,146.35,309.59Z"/><path class="cls-1" d="M138.48,171.78c.34,2.95.55,5.63,1,8.29a98.74,98.74,0,0,0,11,32c.37.68,0,1.82-.26,2.7-.38,1.56-.89,3.08-1.35,4.62l-1,3.37-.58-.19A24.35,24.35,0,0,1,148,220a2.18,2.18,0,0,0-.6-2.56q-2.91-3.25-5.71-6.62a4.56,4.56,0,0,1-.81-1.58c-.87-3-1.7-6-2.54-9l.39-.15,7.41,10.27.28-.17c-1.17-2.78-2.43-5.53-3.5-8.34a69.5,69.5,0,0,1-4.71-29.3,11.63,11.63,0,0,0-1.41-5.49A79.1,79.1,0,0,1,132,151.29c0-.13,0-.28.36-.6a6.38,6.38,0,0,1,.71,1.12,126.48,126.48,0,0,0,9.83,20.75,35.32,35.32,0,0,0,2.67,4.32c1.9,2.33,2.4,5.07,2.93,7.84.23,1.24.61,2.45.93,3.67l-.58.27C145.48,183.13,142.08,177.61,138.48,171.78Z"/><path class="cls-1" d="M231.79,232.81c-3.06,4.76-6,9.59-9.24,14.24a28.55,28.55,0,0,1-4.56,4.42,128,128,0,0,1-21.73,15.8c-.12.07-.19.22-.22.51,4.59-.6,9-2.1,13.75-3.48-1.07,1.31-1.87,2.26-2.63,3.23a5.33,5.33,0,0,1-3.75,2,37.07,37.07,0,0,0-7.26,1.34c-1.73.6-3.43,0-5.38.82,1.46-2.5,1.75-5.29,4.78-6.16.21-.06.38-.47.45-.74a28.42,28.42,0,0,1,1.24-4.1l-.66,3.52.31.24a154.06,154.06,0,0,0,28-23.46l-14.79,6.42c6-6.62,13.95-10.44,21.54-14.81C231.61,232.63,231.7,232.73,231.79,232.81Z"/><path class="cls-1" d="M107.55,304.86c.5.29,1.28.47,1.45.89a46.64,46.64,0,0,1,1.45,4.52c1,3.63,1.93,7.31,3.11,10.9a62.14,62.14,0,0,0,8.18,16.22,17.34,17.34,0,0,1,2.32,4.58,20.6,20.6,0,0,0,2,4.25c.23.37,1.23.31,1.87.44v-.05l-1.07.83c-3.13-1.68-6.38-3.11-9.26-5-3.58-2.39-6.88-5.18-10.28-7.81a2,2,0,0,1-.64-.82c-1-2.54-1.93-5.09-3-7.91,2.76,2.7,5.14,5.27,7.77,7.55a67.15,67.15,0,0,0,8.48,6.11c-1.39-2.33-2.85-4.62-4.17-7A58.32,58.32,0,0,1,109,312.92a7,7,0,0,0-2-4,19.64,19.64,0,0,1-2.19-2.48c-.27-.39-1.21-.95-.18-1.57Z"/><path class="cls-1" d="M174.18,352.39c0-1-.09-2-.13-3,.44-.35.83-.94,1.33-1,1.31-.25,2.66-.28,4-.42,3.62-.37,6.45-2.5,9.46-4.14A96.08,96.08,0,0,0,212,326.13c2.73-2.82,5.14-5.93,7.67-8.93a8.57,8.57,0,0,0,.68-1.13l-11.38,5.19-.11-.21a83.38,83.38,0,0,1,6.9-6.14c1.72-1.24,4-1.78,6-2.73,4.73-2.29,9.42-4.63,14.13-6.95a2.68,2.68,0,0,1,1.33-.36c-1.48,1.16-2.89,2.44-4.47,3.46-3.58,2.32-7.24,4.49-10.85,6.77a3.62,3.62,0,0,0-1.2,1.26,70.53,70.53,0,0,1-15.2,18.8c-4.8,4.16-10.33,7.53-15.55,11.23-1.2.85-2.45,1.65-3.72,2.4-2.1,1.23-4.2,2.38-6.83,2.45-1.22,0-2.41.77-3.64,1.11A6.32,6.32,0,0,1,174.18,352.39Z"/><path class="cls-1" d="M136.19,122.05c1.06,2.67,2,5.16,3,7.61A123.82,123.82,0,0,0,154.8,157a3.81,3.81,0,0,1,.55,1.35c.69,2.74,1.41,5.48,2,8.24.31,1.43.41,2.92.65,4.37.89,5.17,1.44,10.44,2.85,15.48.72,2.58.45,5,.68,7.51.06.71.19,1.43.28,2.14l-.41.12c-.25-.56-.53-1.1-.75-1.67a83.78,83.78,0,0,1-5.42-28.07c-.05-2.67-1.49-4.4-2.82-6.35s-3-3.72-3.92-5.82c-.69-1.64-.38-3.66-.51-5.51a5.78,5.78,0,0,1,.05-.83l-.41-.07-.72,3.48C143.52,148.41,136.34,128.88,136.19,122.05Z"/><path class="cls-1" d="M146.63,266.71l-1.11-2.45-.41.09c.11,2.19.13,4.39.35,6.56.34,3.3.76,6.6,1.28,9.87a2.73,2.73,0,0,0,1.25,1.78c2,1.05,4.12,1.76,6,2.89.94.57,1.45,1.78,2.15,2.7l-.38.37-8.21-2.94c.26,1.47.5,2.76.74,4.11-2.46-1.42-8.5-10.74-8.21-12.17l3.42,2.78.85-.23c-.16-.36-.47-.72-.48-1.08-.12-4.9-.19-9.8-.31-14.7,0-.53-.15-1.38-.5-1.53-1.73-.79-1.46-2.14-1.34-3.52a12.58,12.58,0,0,0,0-1.5l-.58-.09c-.26,1-.53,2-.86,3.3-3.54-3.05-7-6-10.41-9-2-1.76-1.72-3.17-2.14-7.65,1.07,1.14,1.9,2.11,2.82,3,3.19,3,6.39,6.05,9.65,9,.27.25,1,0,1.74,0a2.84,2.84,0,0,0,2.12,2.92l.73-1.59c.2,1.87.46,3.42.5,5,0,1.31,1,1.75,1.9,2.25v-.05C145.77,265.16,146.85,266.1,146.63,266.71Z"/><path class="cls-1" d="M186.68,70.1c-.07,2.2-.13,4.41-.2,6.61a98.47,98.47,0,0,0,4.29,33.14c.86,2.74,2.07,5.37,2.92,8.11a22.16,22.16,0,0,1,.68,4.85,72,72,0,0,1-9.27-21l-1,1-.16-.1a12.12,12.12,0,0,1,.55-1.15,8.58,8.58,0,0,1,.77-.93c-2.78-5.22-1.19-10.6-.17-16l-.43-.08L183.24,88H183a27.41,27.41,0,0,1-.32-3.38c.1-4.1.25-8.21.49-12.31a8.48,8.48,0,0,1,.81-2.27Z"/><path class="cls-1" d="M95.25,336.27a5.6,5.6,0,0,1,1.14,1.14c3.83,7.06,8.41,13.59,14.68,18.88a37.75,37.75,0,0,0,20.61,9.25,22.23,22.23,0,0,1,3.34.88v.52a38.17,38.17,0,0,1-4.1.4,34.59,34.59,0,0,1-22-8.07,48.37,48.37,0,0,1-12.49-15.43,17.87,17.87,0,0,1-.95-2.63Z"/><path class="cls-1" d="M120.51,312.43c-.35.18-.7.38-1.06.56,0,0-.09,0-.14,0-.27-3.67-2.74-6.49-4.12-9.72a76.55,76.55,0,0,1-6.09-22c-.26-2.42-.27-4.87-.4-7.56l-.85,2.22A50.32,50.32,0,0,1,101.57,259c2.31,4.42,4.43,8.49,6.56,12.55l.43-.11.36-3.89.25,0a12.44,12.44,0,0,1,.13,2.19,9,9,0,0,0,3,7.49c3.69,3.72,4.7,8.68,6.82,13.19-.94-1-1.91-1.94-2.82-2.95s-1.86-2.1-2.74-3.19a26.39,26.39,0,0,0-2.87-3.2c.59,2.47,1.09,5,1.79,7.4a85.37,85.37,0,0,0,7.12,17.77,4,4,0,0,1,.12,1.37l1.07.07c0,.33,0,.67,0,1h.06c-1.64.87-1.79,1.25-1,2.63C120.07,311.68,120.29,312.05,120.51,312.43Z"/><path class="cls-1" d="M169.53,100.57l1.06,2.52a5.1,5.1,0,0,0,.78,1.52c-.37-3.37-.87-6.73-1.08-10.11a94.36,94.36,0,0,1-.14-10.09,78.32,78.32,0,0,1,1.28-10.07A115.69,115.69,0,0,0,178.25,119l.86-1.3c.09.64.33,1.2.17,1.33-1.85,1.49-1.32,3.6-1.6,5.48a3.81,3.81,0,0,0,.38,1.41l-.79.13c-3-5-6.26-9.93-7.7-15.69,0-.38.05-.77.05-1.15Z"/><path class="cls-1" d="M158.29,134.92c-.31,4.62-.63,9.25-1,14-.94-2.85-1.14-8.75-.42-12.83.35-2,.9-3.94-.7-5.74-.29-.34,0-1.14,0-1.72v-2.49l-.38-.07-.68,2.1c-5.39-11.15-8.69-22.53-8.81-34.67a127.75,127.75,0,0,0,12.19,33.19c.26-1.23.43-2,.61-2.88.12.16.22.25.2.29-1.21,3.68,1.32,6.27,2.88,9.14a18.48,18.48,0,0,0,1.37,2.14,1.22,1.22,0,0,1-.54,2.07c-.84.32-1.85,1.49-2.74,0-.52-.89-1.1-1.74-1.65-2.61Z"/><path class="cls-1" d="M103.12,201.14c1.36,3.65,2.59,7.35,4.09,11A107.31,107.31,0,0,0,122.57,238c.75.94,1.48,1.89,2.21,2.84a1,1,0,0,1,.26.51,34.1,34.1,0,0,1-.14,5C113.16,233.28,105.43,218.41,103.12,201.14Z"/><path class="cls-1" d="M180.67,216.21l0-.06.6.24-.3.42-.81.13c.1-2.38-1.89-2.7-3.91-3.66,1.15,2.67,1.27,5.29,2.89,7.34l.4-.1c.13-1,.27-2,.4-3l.36.37h-.05l.55.21c-.62.61-.93,1.1,0,1.8.42.3.44,1.12.68,1.83l-1.54-.54c-.15.59-.3,1.17-.46,1.83,0,0-.18,0-.25-.06-2.44-2.78-5-5.48-7.27-8.38-2-2.59-3.82-5.37-5.64-8.1-.73-1.1-.63-1.36.32-3.66l4.62,4.28.76-.45c-1-3.31-2-6.59-3.1-10.14-.46.85-.79,1.47-1.12,2.1l-.51-.22a8,8,0,0,1,1-1.73c.76-.82,1.17-1.62.5-2.65l-.07,0a3.79,3.79,0,0,1,3.14,2.84c1,4.17,2.13,8.32,3.23,12.48a1.43,1.43,0,0,0,.47.73c1.52,1.14,3.07,2.25,4.3,3.14C180.14,214.38,180.4,215.29,180.67,216.21Zm-10.53-6.75,5.62,7.69C174.76,214.16,174.38,210.79,170.14,209.46Z"/><path class="cls-1" d="M174.5,368.67c0-.69,0-1.38,0-2.07a5.58,5.58,0,0,1,1.46-.74,70.12,70.12,0,0,0,28.52-11.32c1.94-1.29,3.78-2.71,5.68-4.06a2,2,0,0,1,.81-.35,52.2,52.2,0,0,1-25.4,17.2c-3.16,1-6.48,1.5-9.73,2.22C175.1,369.72,174.52,369.59,174.5,368.67Z"/><path class="cls-1" d="M137.15,329.16c.61.7,1.24,1.39,1.84,2.1,1.59,1.85,3.16,3.72,4.71,5.53a61.27,61.27,0,0,1-11.13-8.68,16.61,16.61,0,0,0-4.47-3c-1.82-.91-3.63-1.85-5.41-2.84-.82-.46-1.68-.92-1.6-2.13,0-.41-.44-.86-.42-1.3,0-.6.21-1.31-.06-1.77s-1-.51-1.75-.85l.14,2.59-.5.16-2.85-6.05.41-.29c.65.6,1.26,1.25,2,1.79a1.54,1.54,0,0,0,2.56-.41c.22,1,.17,2.14.72,2.91a9.08,9.08,0,0,0,2.55,1.76l.29-.33q-1.8-2.15-3.59-4.31c0-.53-.09-1.05-.13-1.57.15-1.25.31-2.51.46-3.76h-.06c2.69,4.07,5.28,8.19,8.1,12.17a9.85,9.85,0,0,0,3.55,2.89,5.34,5.34,0,0,1,2.28,2.15c.72,1.16,1.6,2.23,2.41,3.35l-1.49-1.1-.29.34,2.79,2.88.25-.21Z"/><path class="cls-1" d="M233.33,326.08c-10.81,11.42-24.17,18.67-39.48,22.73l-.24-.33a50.48,50.48,0,0,0,4.21-3.29c3-2.85,7-3.63,10.62-5.18a119.47,119.47,0,0,0,17.18-8.92C228.21,329.46,230.76,327.75,233.33,326.08Z"/><path class="cls-1" d="M246,87.33c-.91,13.64-5.75,26.08-13,37.73l-.41-.09c.21-1.22.43-2.43.64-3.65l-.46-.12c-.33.68-.66,1.36-1,2l-.5-.14a47.24,47.24,0,0,1,1.86-5.53c2.12-4.45,4.67-8.72,6.58-13.24C242.06,98.76,243.94,93,246,87.33Z"/><path class="cls-1" d="M169.53,100.57l.09,8.66c0,.38,0,.77-.05,1.15a4.75,4.75,0,0,1-.83-1.1,82.41,82.41,0,0,1-5.38-25.8c-.12-4,.23-7.91.42-11.86a4.6,4.6,0,0,1,.54-1.37l.5.12c.16,2.34.3,4.68.47,7A105.45,105.45,0,0,0,169,97.84C169.22,98.73,169.34,99.66,169.53,100.57Z"/><path class="cls-1" d="M253.7,267.8A88.58,88.58,0,0,1,219,287c2.08-2.34,3.55-4.95,7.06-6.11a115.3,115.3,0,0,0,26.3-12.84,6.06,6.06,0,0,1,.66-.36c.17-.09.35-.16.52-.24Z"/><path class="cls-1" d="M135.38,201.26c-6.13-8.51-13.42-29.21-13-37.1,1.06,3.15,2,6.16,3.08,9.12a120.92,120.92,0,0,0,9.08,19.61,3.32,3.32,0,0,1,.43,1.39C135.1,196.54,135.22,198.81,135.38,201.26Z"/><path class="cls-1" d="M137.71,225.6c2.21.05,2.91,1.94,4.14,3.17.29.29.47.66.74.95a9,9,0,0,0,4,2.83l-2.16.23,1.22,2.5-1.84-.42.71,2.3-3.2-3-.24.14,1.38,2.7c.66,1.32,1.32,2.65,2,4a1.09,1.09,0,0,1,.06.44l-.2,3c-.64.29-1.12-.34-1.46-1.09q-3.56-7.79-7.09-15.6a4.1,4.1,0,0,1-.47-1.24c0-.23.37-.49.57-.74Z"/><path class="cls-1" d="M178.09,59c-.14,3.41-.36,6.59-.38,9.77A123.93,123.93,0,0,0,180.48,97a2.38,2.38,0,0,1,.12.87c-.33,1.9-.7,3.79-1.06,5.72C175.74,98,174.69,67,178.09,59Z"/><path class="cls-1" d="M248.19,221a3.69,3.69,0,0,1-1,3.61A114.53,114.53,0,0,1,233,235.9a31.55,31.55,0,0,0-2.6,2.32,40.77,40.77,0,0,1,2.21-4.52c1.81-2.79,3.78-5.5,5.7-8.23l7.1-10.05c.2-.28.43-.54.65-.82l.35.2q-3.71,6.34-7.43,12.69l.13.19Z"/><path class="cls-1" d="M153.87,207.94c.13.35.44.74.37,1.05-.42,1.93-1,3.84-1.35,5.78a2.75,2.75,0,0,0,.33,1.91c1.83,2.66,3.78,5.26,5.65,7.9.09.12-.11.43-.17.66l-1.95.15c-2.45.12-3.47-1.95-5.32-3.37-.33,2.76-.63,5.27-1,8.23-1.1-1.61-2-2.78-1.85-4.48a44.22,44.22,0,0,1,3.27-12.83c-.93-1.7.8-2.71,1.17-4.07.09-.32.48-.55.72-.82l.06-.06Z"/><path class="cls-1" d="M137.71,225.6l-1.91.15c-.47-.16-1.14-.18-1.39-.5-1.33-1.73-2.9-3.41-3.72-5.36-1-2.31-1.24-4.88-1.81-7.34a3.69,3.69,0,0,1,.11-.89l3.26,4.72c-.54-5.84-1.07-11.56-1.6-17.27l.51-.05c.42,2.75.69,5.53,1.28,8.25,1,4.54,2.06,9.08,3.4,13.53.46,1.54,1.81,2.82,2.83,4.33Z"/><path class="cls-1" d="M196.86,129.38a22.84,22.84,0,0,0-.06,3c.19,1.83-1.44,2.53-2.43,4.11a90.66,90.66,0,0,1-12.51-24.64l-.27,1c.46-.83-2.44-2.4.61-2.66l.4-2.41c3.3,9.52,6.88,18.88,12.26,27.57.2-2.63.41-5.27.61-7.91l.3-.06c.36.7.73,1.39,1.09,2.08Z"/><path class="cls-1" d="M107.55,304.86h-2.94c-.62-.38-1.43-.62-1.82-1.16a58.13,58.13,0,0,1-8-15.61,18,18,0,0,1-.48-3.47l.06-1.52a5.66,5.66,0,0,1,1,1.3,72.32,72.32,0,0,0,8.9,15.82c.92,1.3,2,2.5,3,3.77A2.39,2.39,0,0,1,107.55,304.86Z"/><path class="cls-1" d="M111.74,256.39a62.59,62.59,0,0,1-12-25.27c1.33,2.65,2.53,5.37,4,7.94,2.18,3.75,4.46,7.45,6.92,11,1,1.43,1.76,2.7,1.27,4.45A11.27,11.27,0,0,0,111.74,256.39Z"/><path class="cls-1" d="M200.6,101.41a17.54,17.54,0,0,1-.29-1.74c-.14-2.37-.16-4.72-1.16-7a10.56,10.56,0,0,1-.85-4.89c.32-3.79,1-7.55,1.57-11.31A20,20,0,0,1,201,72.37C201.68,82.05,201.16,91.7,200.6,101.41Z"/><path class="cls-1" d="M251.62,167.69a22.94,22.94,0,0,1-2.49,4.15c-2.94,3.16-6.08,6.14-9.27,9.32,1.39-2.93,2.68-5.73,4-8.5a8.23,8.23,0,0,1,1.39-1.75c1.69-1.87,3.4-3.71,5.1-5.56.68-.74,1.19-.87,1.23.36C251.63,166.37,251.62,167,251.62,167.69Z"/><path class="cls-1" d="M168.88,131.66c2,3.76,4.07,7.53,6.14,11.28a29.09,29.09,0,0,0,1.63,2.51c1.67,2.41,1.8,2.74,2,6.23-4.5-5-7.74-10.89-11.16-16.38a8.68,8.68,0,0,0,1.16-1.25c.05-.07-.66-.62-.87-.82l1.17-1.57Z"/><path class="cls-1" d="M251.62,167.69c0-.66,0-1.32,0-2-.22-1.86,1.06-3.1,2-4.47,2.84-4,5.65-8,8.54-12a9,9,0,0,1,1.89-1.44H264c-1.5,3-2.82,6.14-4.55,9-2.16,3.63-4.63,7.08-7,10.59C252.36,167.65,251.92,167.62,251.62,167.69Z"/><path class="cls-1" d="M117.37,190.77c1.62,3.14,3,5.94,4.48,8.67,1.63,3,3.26,5.95,5.12,8.78,1.12,1.72.79,3.5.93,5.29,0,.58,0,1.17,0,1.74C125.45,213.17,118.64,197.45,117.37,190.77Z"/><path class="cls-1" d="M243.4,148.14l-2.2.21c-.87-.14-.82-.56-.35-1.11,1.21-1.4,2.45-2.78,3.61-4.22,1.94-2.4,3.82-4.85,5.76-7.26.15-.18.6-.13.91-.19l-.15,2.26a15.14,15.14,0,0,1-1.2,3.39c-1.29,2-2.9,3.82-4.25,5.8A2.16,2.16,0,0,1,243.4,148.14Z"/><path class="cls-1" d="M183.33,163.07c-.85-.72-.84-1.42-.52-2.53a7.57,7.57,0,0,0-.07-4.22c-.86-2.67-.52-5.37-.65-8.06-.08-1.76.08-3.53.14-5.6.46.5.87.74,1,1.05.55,2.23,1.79,4.31,1.32,6.77a28.42,28.42,0,0,0-.08,3.7,4.84,4.84,0,0,0,1.23,3.07A15.48,15.48,0,0,1,187,160.9l-.46.24c-.5-.94-1-1.87-1.51-2.8l-.46.16a3,3,0,0,0,.47,3,4.56,4.56,0,0,1,.44,1.56l-.54.16a11,11,0,0,0-.73-1.35,3.83,3.83,0,0,0-.85-.69,8.24,8.24,0,0,0-.22,1.1,4.87,4.87,0,0,0,.08.84Z"/><path class="cls-1" d="M185.61,128.12a9.59,9.59,0,0,1-.12,1.87,5,5,0,0,0,1.37,4.75c1.68,2,3.27,4,4.85,6.11a1.83,1.83,0,0,1-.17,2.74c-.14-2-1.88-2.57-3.22-3.52.78,1.2,1.61,2.37,2.32,3.6a3.5,3.5,0,0,1,.16,1.43c-.4-.2-.94-.29-1.18-.61-1.39-1.82-2.76-3.67-4-5.57a5.31,5.31,0,0,1-.65-1.93,29.8,29.8,0,0,0-.62-3.8C183.67,131.21,184.79,129.74,185.61,128.12Z"/><path class="cls-1" d="M184.3,188.27c-2.27-1.39-4.58-2.75-6.82-4.18-1.45-.93-2.79-2-4.24-2.93a9,9,0,0,0-2.07-.67c.49-1.92-.41-3.75-1.19-5.59a10.54,10.54,0,0,1-.85-2.4c1.26,3.77,4.86,5.52,7.5,8,2.43,2.29,5.24,4.22,7.83,6.36.26.2.23.73.33,1.1Z"/><path class="cls-1" d="M171.61,239.13c-1.79-1.27-3.61-2.52-5.36-3.83-.89-.67-1.63-1.52-2.52-2.19a6.13,6.13,0,0,0-1.63-.6,8.23,8.23,0,0,0-1-7.06l1.53.05c-.88,3.15,1.89,4.09,3.56,5.65,1.33,1.23,2.89,2.22,4.27,3.4a8,8,0,0,1,1.18,1.68v-.07l-1.36,1,1.29,1.66Z"/><path class="cls-1" d="M153.93,188.52c1.92,2.25,3.73,4.59,5.79,6.71a6.54,6.54,0,0,1,2.13,5.3,10,10,0,0,0,.54,2.32c-1-1-1.75-1.71-2.56-2.34s-1.61-.84-2.24-1.43a4.78,4.78,0,0,1-.9-1.82c-1.05-2.87-2.07-5.76-3.09-8.64Z"/><path class="cls-1" d="M160.79,101.05c.89,4.81,1.77,9.72,2.69,14.62a11.35,11.35,0,0,0,.81,3c1.19,2.39.59,4.84.47,7.28a3.79,3.79,0,0,1-.34.77A65.52,65.52,0,0,1,160.79,101.05Z"/><path class="cls-1" d="M202.32,238.49c.43.93,1.09.71,1.75.3,1.72-1.07,3.43-2.16,5.31-3.34a3.05,3.05,0,0,1-.21.87c-2.14,3.2-4.26,6.4-6.46,9.56-.52.76-1.22,1.64-2.31.54v.05a6.26,6.26,0,0,0,.72-1.44c.15-.72,1.07-1.49,0-2.22l0-.5.19-.17.23-.69c0-.08,0-.12,0-.13C201.75,240.38,202,239.44,202.32,238.49Z"/><path class="cls-1" d="M251,137.83l.15-2.26a27.54,27.54,0,0,1,1.44-3q3.88-6.1,7.93-12.11a88.82,88.82,0,0,1-9.13,18.4Z"/><path class="cls-1" d="M166.65,169.85c.37,1.67.68,3.36,1.13,5a16.76,16.76,0,0,0,1,2.24c.37.84.68,1.69,1,2.54l-.43.18-1.08-2.63-.52.12,1.32,8-.31.08c-.8-1.63-1.69-3.23-2.39-4.9s-1.09-3.12-1.7-4.93c.41-1.62.94-3.67,1.46-5.72Z"/><path class="cls-1" d="M180.89,160.58,173,153.22l2.25-1.9c1.11,1.21,2.15,2.41,3.28,3.54.74.73,1.61,1.34,2.41,2,1.25,1.07.34,2.3.59,3.45Z"/><path class="cls-1" d="M95,313.87c.15,0,.39,0,.43,0,1.39,2.12,2.9,4.19,4.06,6.42.57,1.09.49,2.49.68,3.75.12.87.19,1.74.34,3.07-2.2-3.36-4.71-6-5.41-9.71C95,316.25,95,315.06,95,313.87Z"/><path class="cls-1" d="M213.17,148.76l1.79,0a3.29,3.29,0,0,1-.07,1.18,63.83,63.83,0,0,1-8.12,13.54,6.9,6.9,0,0,1-1,.74C208.36,158.83,210.77,153.8,213.17,148.76Z"/><path class="cls-1" d="M95.25,336.27c.09,1.64.18,3.29.26,4.94a12.27,12.27,0,0,1-1.19-1.81A58.42,58.42,0,0,1,90,324.86c.33.59.67,1.18,1,1.8s.52,1.28.83,1.9c1,2.05,2.08,4.08,3.08,6.15A7.12,7.12,0,0,1,95.25,336.27Z"/><path class="cls-1" d="M194.61,260.43c-.89-.58-1.52-.25-2.28.4-3.13,2.69-6.34,5.3-9.52,7.94l-.37-.37,13.48-13.46.24,0c-.32.64-.66,1.29-1,2s-.69,1.6-1.16,2.71l1.62-.71.15.18-1.25,1.39Z"/><path class="cls-1" d="M189.93,285.25c-.3,1.88-.62,4-1,6.06,0,.26-.34.49-.52.73l-.7-1.09c-1-.05-2.25.13-2.67-1.49-.14-.5-1.14-.8-2-1.33Z"/><path class="cls-1" d="M163.43,172.52l-2.51-7.17.25-.13,3.47,3.84v-8.18l.51-.06c.2.91.37,1.84.63,2.74a13,13,0,0,0,.65,1.54c-.88,2.48-1.75,4.9-2.61,7.33Z"/><path class="cls-1" d="M95,313.87c0,1.19.06,2.38.1,3.57-.22-.08-.56-.1-.62-.24a35.18,35.18,0,0,1-3.53-11.73C92.35,308.25,94.08,310.87,95,313.87Z"/><path class="cls-1" d="M165.37,144.7l-3.79-5.28,3.31-1.31c.07.58.14,1.09.2,1.61a2.28,2.28,0,0,0,1.4,2.18C168.06,142.6,167.75,143.46,165.37,144.7Z"/><path class="cls-1" d="M156.75,225.39l1.95-.15c1.47.12,1.8.86,1.49,2.19a7.85,7.85,0,0,0,.23,2.37c-1.55-1.25-2.94-2.28-4.22-3.43C155.43,225.68,155.89,225.36,156.75,225.39Z"/><path class="cls-1" d="M171.67,236.16v.07c.23-.1.55-.35.68-.28,1.32.75,2.65,1.5,3.92,2.34,1.53,1,1.5,1.07,2.07-.85,0-.14.07-.29.1-.43-.08,1.07.59,2.28-.64,3.12l0,0c-.44,0-1,.23-1.3.06-1.27-.61-2.47-1.38-3.74-2A1.76,1.76,0,0,1,171.67,236.16Z"/><path class="cls-1" d="M165.44,252.17l6.45,5.18-.4.52a24.44,24.44,0,0,0-3.1-1.67,15.89,15.89,0,0,0-3-.48C167.55,254.41,165.9,253.4,165.44,252.17Z"/><path class="cls-1" d="M190.68,228.53c2.06-1.83,4.87-2.1,7.27-3.22A8.09,8.09,0,0,1,190.68,228.53Z"/><path class="cls-1" d="M177.15,294.4c.13-1.65,1.2-2.83,2.14-4.12a2.83,2.83,0,0,1,3.39-1,3.11,3.11,0,0,1,1.43,1.31c-3.81-.95-5.73.9-7,3.84Z"/><path class="cls-1" d="M163.53,195.58c.54,1.29,1.07,2.59,1.64,3.87s0,2.18-1.1,2.22c-.25-2.07-.5-4.11-.75-6.15Z"/><path class="cls-1" d="M94.41,283.1l-.06,1.52c-.18-.14-.5-.26-.54-.43-.42-2.27-.81-4.55-1.21-6.82l.51-.11C93.54,279.21,94,281.15,94.41,283.1Z"/><path class="cls-1" d="M177.8,240.13c1.23-.84.56-2,.64-3.12,0,0,0-.06-.06-.1,1.11,0,2.37-.41,1.4,1.53-.46.93-.23,2.19-.31,3.29C179.68,240.46,178.32,240.7,177.8,240.13Z"/><path class="cls-1" d="M193.13,311.09l-7.32,7.31-.1-.08L193,311Z"/><path class="cls-1" d="M189.86,183.15c.29.14.79.23.83.41.29,1.51.5,3,.73,4.56-1.68-1.16-1-3-1.51-4.57Z"/><path class="cls-1" d="M120.55,314l3.59,4.31-.29.33a9.08,9.08,0,0,1-2.55-1.76c-.55-.77-.5-1.93-.72-2.91Z"/><path class="cls-1" d="M201.12,242.81c1.07.73.15,1.5,0,2.22a6.26,6.26,0,0,1-.72,1.44l-1.62.63c.93-1.67,1.66-3,2.38-4.32Z"/><path class="cls-1" d="M153.87,207.94l-.05.05-.06.06c-.1-.22-.34-.49-.28-.66.43-1.14.92-2.27,1.4-3.44C155.92,204.89,155.38,206.84,153.87,207.94Z"/><path class="cls-1" d="M168.94,131.66c-2-.31-1.4-1.81-1.57-3.37l1.1,1.62.74-1.44.43.07c-.25,1-.5,2.08-.76,3.12Z"/><path class="cls-1" d="M161.38,221.08c-.84-1.4-.85-1.51-.15-2.82.48.53,1,1.32,1.45,0a12.2,12.2,0,0,0,.26-1.39l.39,0c-.12,1.42-.25,2.84-.37,4.26-.27-.6-.55-1.19-.85-1.83C161.12,219.68,160.68,220.16,161.38,221.08Z"/><path class="cls-1" d="M135.8,358.46,130,353.05l.21-.21,5.84,5.41Z"/><path class="cls-1" d="M217,159.4l-3.35,3.34-.24-.18,1.69-2.73C215.64,159,216.28,158.81,217,159.4Z"/><path class="cls-1" d="M189.64,174.08c-1.85-1-2.2-2.71-2.38-4.53Z"/><path class="cls-1" d="M257.1,239.1c-1.17.75-1.55,2.53-3.29,2.51l-.32-.41,3.3-2.53Z"/><path class="cls-1" d="M192.24,199.69c-1.32-.22-.76-1.22-.7-1.85,0-.33.76-.59,1.17-.89l.39.33-.78,2.34Z"/><path class="cls-1" d="M125.78,233.36c.31-2,.61-4.07.91-6.11l.57.08-.91,6.11Z"/><path class="cls-1" d="M123.45,289.78c1.46.72,2.7,1.64,2.43,3.87Z"/><path class="cls-1" d="M150.72,279.21l1.76.71.32-.86,0,2.05Z"/><path class="cls-1" d="M197.37,255l2.64-3,.49.4-2.85,2.84Z"/><path class="cls-1" d="M177.14,294.4a12.81,12.81,0,0,0-1.58,1.81,1.66,1.66,0,0,1-2.31.72l1.49-1.92.25.16-.62,1,.19.2,2.59-2Z"/><path class="cls-1" d="M177,195.58l1.18.51-.68-1.29.32-.18,1.63,2.62-.27.27-2.37-1.69Z"/><path class="cls-1" d="M120.88,308.67c-.15,1.25-.31,2.51-.46,3.76h.09c-.22-.37-.44-.74-.65-1.12C119.09,309.92,119.24,309.54,120.88,308.67Z"/><path class="cls-1" d="M134.93,325.2l-3.12-4.35c1.15,0,1.83-.13,1.53,1-.11.4.29,1,.57,1.39a21,21,0,0,0,1.42,1.7Z"/><path class="cls-1" d="M184.39,319.93,180,323.12l-.22-.27,4.46-3.29Z"/><path class="cls-1" d="M222.91,150.9l-2.54,4.75-.38-.19,2.52-4.72Z"/><path class="cls-1" d="M189.91,183.55c.46,1.54-.17,3.41,1.51,4.57v-.06h-.89l0,.07c-.13-.26-.18-.59-.38-.77C188.87,186.16,189.11,184.88,189.91,183.55Z"/><path class="cls-1" d="M251.66,217.75l2.42-1.38C253.52,218.29,253,218.6,251.66,217.75Z"/><path class="cls-1" d="M175.48,323.42l1.79-3.4.45.22-1.62,3.47Z"/><path class="cls-1" d="M264.1,147.85c-.13-.35-.48-.8-.36-1a10.87,10.87,0,0,1,2-2.94l-1.74,4Z"/><path class="cls-1" d="M177.8,240.13c.52.57,1.88.33,1.67,1.6l-.19.36c-1.74.18-1.6-.89-1.44-2Z"/><path class="cls-1" d="M163.71,189.62l0,4.61h-.14l-.42-4.6Z"/><path class="cls-1" d="M183.33,163.07h-.08a24.65,24.65,0,0,1,2.2,4.27l-.55.21Z"/><path class="cls-1" d="M161.38,221.08c-.7-.92-.26-1.4.73-1.74.3.64.58,1.23.85,1.83Z"/><path class="cls-1" d="M168.67,194l.07,0-1.18-3.09.38-.12C168.35,191.82,170.26,192.51,168.67,194Z"/><path class="cls-1" d="M140,293.81l-1.24-5.25.66-.1c.17,1.79.35,3.57.52,5.35Z"/><path class="cls-1" d="M140.13,262l.91,1-1.6,3.16Z"/><path class="cls-1" d="M180.39,287l1.26.54,0,.25-2.4-.24,1.67-2.1.27.18Z"/><path class="cls-1" d="M194.56,260.43l.76,1.34-2.13.63,1.42-2Z"/><path class="cls-1" d="M177.63,136.17c.11,1,.23,2,.35,3l-.7.06c-.06-1-.12-2-.17-3Z"/><path class="cls-1" d="M140.86,286.74l.68,4.27-.43.07-.71-4.31Z"/><path class="cls-1" d="M164,247.27c-.31-1.57-.63-3.14-.94-4.7l.38-.08,1,4.73Z"/><path class="cls-1" d="M198.65,181.77l-.56,1c-.16-2.14,0-2.31,2.08-2.21l-1.34,1-.1.09Z"/><path class="cls-1" d="M157.86,343.55l.13-1.09-.36,0L160,340l-1.95,3.62Z"/><path class="cls-1" d="M186.09,175.55l-1.75-.86c.26-.19.57-.56.77-.52a6.2,6.2,0,0,1,1.38.65Z"/><path class="cls-1" d="M132.31,316.24l1.42,3.27-.46.19-1.4-3.25Z"/><path class="cls-1" d="M146.63,266.71c.22-.61-.86-1.55.52-1.87.19.62.38,1.25.58,1.88l-1.09.2Z"/><path class="cls-1" d="M183.12,282.12l-1.68,2.94-.42-.22,1.66-3Z"/><path class="cls-1" d="M201.73,112.67l-.27-4.08.41,0,.36,4Z"/><path class="cls-1" d="M171.61,239.13v-.35l3.93,2.73-.31.39Z"/><path class="cls-1" d="M189.61,153.3l.76-3.43C190.85,150.57,190.57,152.08,189.61,153.3Z"/><path class="cls-1" d="M125.76,340.26l.9,2.4C125.09,341.92,124.75,341,125.76,340.26Z"/><path class="cls-1" d="M251.54,220.1l-1.64,1.63C249.5,220.08,249.9,219.63,251.54,220.1Z"/><path class="cls-1" d="M123.61,333.62l.9,3.16-.26.09-1.35-3Z"/><path class="cls-1" d="M204.42,224.61l.36,0c0,.18,0,.49-.08.52-.89.32-1.8.6-2.71.89l-.16-.42Z"/><path class="cls-1" d="M168.83,171.3l-.8-3.11.45-.1c.27,1,.53,2.1.8,3.15Z"/><path class="cls-1" d="M183.94,205l-2.13-2.44.32-.26,2.1,2.47Z"/><path class="cls-1" d="M224.75,145.84l1.63-3.36.26.08L225.36,146Z"/><path class="cls-1" d="M188.3,232.36l1.66-2h.21l-.7,2.33-1.17-.38Z"/><path class="cls-1" d="M168.87,261.15l1.71,3.63-.22.1c-.67-1.19-1.33-2.38-2-3.57Z"/><path class="cls-1" d="M139.89,293.81l1.39,4.12-.59.13c-.25-1.41-.49-2.83-.74-4.25Z"/><path class="cls-1" d="M187.11,295.23l-1,3.46-.47-.12,1-3.4Z"/><path class="cls-1" d="M217.32,157.32c.38-.76.76-1.52,1.13-2.29l.57.28-1.11,2.31Z"/><path class="cls-1" d="M186.73,157.18c.25-1,.51-2.08.76-3.12l.32.05-.49,3.23Z"/><path class="cls-1" d="M180.13,216.94l.81-.13,0-.05-.31.6-.45-.48Z"/><path class="cls-1" d="M180.59,217.36c.11-.2.21-.4.31-.6.09.3.18.6.28.9l-.41-.12h.07l-.25-.23Z"/><path class="cls-1" d="M201.12,242.81l0,0c0-.16,0-.31-.07-.47Z"/><path class="cls-1" d="M169.28,226.21l-.05.13-.22-.1s0-.07,0-.11Z"/><path class="cls-1" d="M189.84,226.09l.09-.08Z"/><path class="cls-1" d="M180.77,217.54l.41.12,0,0Z"/><path class="cls-1" d="M180.77,217.54l.39.08-.42.49c-.05-.13-.09-.26-.13-.39v.05l.24-.24Z"/><path class="cls-1" d="M180.61,217.72c0,.13.08.26.13.39l0,0-.55-.21Z"/><path class="cls-1" d="M190.49,225.53v0Z"/><path class="cls-1" d="M201.51,241.45l-.23.69C201.36,241.91,201.43,241.68,201.51,241.45Z"/><path class="cls-1" d="M181.24,216.39l-.6-.24.57.27Z"/><path class="cls-1" d="M170.28,351.85a107,107,0,0,1-20.23,4.41c1-2.4,1.82-4.54,2.72-6.65.07-.18.51-.33.75-.3C159.13,350.15,164.74,351,170.28,351.85Z"/><path class="cls-1" d="M131.6,349l11.78,2.17-2.49,6-9.56-7.82Z"/><path class="cls-1" d="M156.78,315.22l-2.53-6.1,4.93.52-2.45,5.58Z"/><path class="cls-1" d="M184.28,272.19l-5.91,3.25C178.62,271.9,179.94,271.19,184.28,272.19Z"/><path class="cls-1" d="M172.46,309.41l-5.36,1.86.9-3,4.49.73Z"/><path class="cls-1" d="M190.52,188.07h.89a4.73,4.73,0,0,1,.05,5.08h.06a6.67,6.67,0,0,1-.59-1.42C190.73,190.5,190.65,189.29,190.52,188.07Z"/><path class="cls-1" d="M201,137.38c-.11,1.45-.2,2.9-.35,4.35,0,.14-.37.3-.58.33s-.39-.29-.36-.39c.43-1.44.89-2.86,1.35-4.29Z"/><path class="cls-1" d="M191.46,193.14c1.59.64,1.62,1.41,0,3.15-.48-1.11-.8-2.13.05-3.16Z"/><path class="cls-1" d="M172.74,274.33l1-2.74.51.16-.85,2.75Z"/><path class="cls-1" d="M235.64,165.69c-1.22,2.25-2.38,4.54-3.68,6.75-3.32,5.68-6.75,11.3-10,17-1,1.65-2.51,2.44-4,3.35-2.16,1.32-4.4,2.52-6.62,3.75a16,16,0,0,1-1.52.63c1.27-2.67,2.45-5,3.49-7.38,1.52-3.52,2.92-7.08,4.4-10.6a2.32,2.32,0,0,1,.82-1.16A82.53,82.53,0,0,0,235.64,165.69Z"/><path class="cls-1" d="M215.91,197.62c-5.1,7.07-10.77,13.53-18,18.57q3.14-4.75,6.28-9.52a29.69,29.69,0,0,0,2-3.32,5.33,5.33,0,0,1,3.28-3C211.68,199.6,213.78,198.55,215.91,197.62Z"/><path class="cls-1" d="M226.12,215.8l-8,9.13-.43-.23a8.89,8.89,0,0,0,.85-2.16C219.09,218.36,222.6,217.13,226.12,215.8Z"/><path class="cls-1" d="M216.81,137.8c-.81,3.82-4.22,5.58-6.42,8.29l-.32-.24Z"/><path class="cls-1" d="M179.91,217.51c-.13,1-.27,2-.4,3l-.4.1c-1.62-2.05-1.74-4.67-2.89-7.34,2,1,4,1.28,3.91,3.66v-.06c-.08.23-.15.46-.23.69Z"/><path class="cls-1" d="M170.14,209.46c4.24,1.33,4.62,4.7,5.62,7.69Z"/><path class="cls-1" d="M180.61,217.72l-.39.15h.05l.15-.36-.08,0,.26.23Z"/><path class="cls-1" d="M180.42,217.52l-.15.36-.36-.37v.06Z"/><path class="cls-1" d="M137.15,329.16l1.27,2-.25.21-2.79-2.88.29-.34,1.49,1.1Z"/><path class="cls-1" d="M180.42,217.52l-.51,0c.08-.23.15-.46.23-.69l.45.48v-.06l-.25.24Z"/><path class="cls-1" d="M180.34,217.54l.25-.24.25.23-.24.24Z"/></svg>