<svg id="Layer_1" data-name="Layer 1" xmlns="http://www.w3.org/2000/svg" viewBox="0 0 169.6 428.35"><defs><style>.cls-1{fill:#90c33e;}</style></defs><title>glorybower97</title><path class="cls-1" d="M509.81,357.61c-4.68,5.56-3.16,12.44-3.4,18.68-.51,13.15.33,26.35,0,39.52-.56,24,1.41,47.95,2.81,71.89.28,4.75.48,9.59,2.7,14,.35.7,1.18,1.75.33,2.55s-1.5,0-2.37-.33c-3.54-1.26-2.27,1.4-2.2,3l-1.84-.31c.82-.88,1.42-2.2,0-2.59-2-.55-2.26-1.84-2.25-3.39.06-7.11-.58-14.29-.3-21.29.82-20.67-1.33-41.24-1.25-61.87.05-16.27-1-32.51-2-48.75-.32-5.73-3.56-8.91-7.53-11.68-4.57-3.18-9.72-5.54-14.26-8.75-7.5-5.29-15.87-9.7-20.36-18.35,2-.13,3,1.23,4.1,2.58.38.49.89.94,1.54.54s.52-1,.28-1.63c-1.09-2.65-4.4-3.78-7.76-2.68a16.49,16.49,0,0,1-8.27-4.29c-2.86-2.88-6.48-5-9.63-7.63-2.11-1.77-4.27-3.65-4.58-6.71,2.86-.76,2.69,3.34,5.58,3.42-.5-2.91-2.16-5.71.47-8.25.44-.42-1-1.31-1.86-1.58.73-1.27-1.68-2.47-.13-3.65.55-.42,1.67-.31,1.09-1.37-.21-.38-1.08-.52-1.65-.54a1.39,1.39,0,0,0-1.45,1.46c-.12,1.75.05,3.42,2,4.2-3,2.5-3.8,3.72-4.21,6.1-4.56-5.66-11.26-10-9.66-19.08.79-4.51-1.66-8.95-4.42-12.46-4.48-5.71-4.7-11.57-2.16-17.92,2.68-6.68,3.65-13.45,1.49-20.48a8.36,8.36,0,0,1,.42-5.87c2.11-5.16,3.94-10.43,5.88-15.65.68,1.08.18,2.09-.21,3.11-3.06,8-5.26,16-3.49,24.9.83,4.19-.49,8.72-2,12.78-2.5,6.78-1.6,12.69,2,19,3.37,5.86,8.35,11.72,5.21,19.55-.27.66.38,1.7.69,2.9,1-1.49,1.46-2.95,3.54-2.08.84.36,2.19-.51,3.3-.82-1.92-4.53,1.28-1.8,2.5-1.72s2.58,2.17,3.59.25a4.34,4.34,0,0,0-.2-4.44c-2.52-3.12-2.33-8.37-7.38-9.53-.24-.06-.36-.64-.59-1.06,3.2-.48,5.63,3.16,9.37,1.11-1.7-1.05-1-3-2.33-4.05-3.12-2.51-1.43-4,1.07-5.44a1.29,1.29,0,0,0,.1.35c0,.06.15.07.24.11l-.33-.47c1.09-2.3.9-4.08-3-4.58,2.2-.44,2.83-1.12,3.46-2.11,1.75-2.76,3.31-3.55,5.12.29,1.37,2.93,2.4,6.21,5.49,9,.12-2.11.07-3.6,1.05-5.14s-2.32-2-2.88-3.62c-.36-1-1-2.34-.6-3.07,2.85-5.47-.15-12.5,5.31-16.94-2-1.46-3.7.88-5.45-.92,4.78-2.75,9.27-5.5,10.8-11,1.23.45,1.28,1.28,1.6,2,.49,1.06-1.63,3.34.87,3.15,1.84-.13.39-2.31.58-3.55a18.6,18.6,0,0,0-.26-4.94c-.19-1.85-.71-2.45-2.31-2.61v0c.69-2.67-1-3.24-3-3.24-2.39,0-4.09-2-2.64-3.18,2.81-2.22,1.65-5,2.35-7.41l0,0c3.7.07,7.49-1.09,10.66,1.19,1.53-1.56-1.81-3.09.29-3.76,1.77-.58,2,1.63,2.12,2.9.22,2.23,2.64,3,3,5.12.42,2.64,2.23,4.22,4.52,2.9,1.79-1,7.16.65,4.69-4.79-.29-.64.4-2.06,1-1.5a18.11,18.11,0,0,1,3.53,4.94c.51,1-.7,1.51-1.59,1.85-2.57,1-6.93,1.48-7.32,3-.63,2.51,2.08,5.18,4.14,7.34.78.81.28,2.52,3.57,3.15-2.88-2,1.31-4.35-2.64-6-1.91-.81.24-3,.79-4.36.84-2,3.25-1.75,5-1.64,1.89.12,1.42,1.36.49,2.61s.54,1,1.06,1.15c1.88.61,3.56.19,4.12-1.8.45-1.63-.17-3.27-2.14-3.43-2.51-.2-2.9-2-3.13-3.8-.25-2,1.62-2.37,3-2.86a6.28,6.28,0,0,0,3.81-3.27c-2.94.79-3.4.38-2.62-2.29,1.18-4.07,2.24-8.93-1.38-12.15a32.53,32.53,0,0,1-5.63-6.92c-.93-1.46-3.39-5.08-.44-7.77l.33.27-.34-.26c0-3.89,1.85-7.46,2.26-11.1.31-2.81,3.7-5.44.94-8.73-.94-1.12.95-1.83,1.74-2.2,1.64-.78,1.73.87,1.91,1.78,1.08,5.31,1.42,10.73,2.17,16.08,1,7.08.79,14.32,1.22,21.49.26,4.17,0,8.56,1.33,12.42,1.17,3.47-1.57,8.84,4.3,10.38a2.37,2.37,0,0,1-.18.87c-3.78,7-.55,14.28-1.18,21.37-.51,5.8,3.22,11.91-1.24,17.43a1.21,1.21,0,0,0,.63,1.92c3.36,1.05,2.33,3.82,2.58,6.16.51,4.81-1.31,10.07,2.82,14.87.77-4.42,3.29-7.44,1.44-12.31-1.14-3-3.25-7.41-1.74-10.94,2.16-5,2.3-10.06,2.38-15.25,1.1.08,2.19.05,2.66-1.2a.65.65,0,0,0-.66-.93c-1.34,0-1.72,1.05-2,2.12-3.37.56-4.39-.75-3.38-4,.59-1.89.85-3.89,1.26-5.83h0c1.92,2-1.32,5,1,7.07,1.59-1-.29-2.55,1.16-3.53,1.69,3.24,3,3.21,4.11-.41,1.24-4.18,1.19-8.63,2.92-12.69a2.54,2.54,0,0,0-.06-1.36c-.84-4-.12-4.88,3.76-3.35,3.16,1.25,2-.95,2.21-2.14l.28-.36-.28.36c-1.38-.21-2.83-.79-4.14-.56-3.28.59-3.34-1-2.75-3.4A6.05,6.05,0,0,1,514,216c3.79-4.06,4.68-9.7,6.8-14.49,1.87-4.22,3.71-8.77,5.19-13.24,1.23-3.74,3-8.08,1-12.42-.3-.66.24-1.76.51-2.62.55-1.76,2-3.75,1.6-5.18-.91-3,.35-3.58,2.74-3.69,1.07,0,2.4.28,2.08-1.52-.19-1.06-.5-2.14-2-2.11-.58,0-1.27,1.43-1.7,0a1.53,1.53,0,0,1,1-1.9c1.08-.32,2.14-.48,2.38-1.83l0,0c3.45-1.73,2.24-5.84,1.18-6.75-3.91-3.38-7.79-6.47-7.8-12.25-2.32.51-1.35,2.61-2.62,3.29-1.58-5.73-2.2-6.26-7-6h0c0-3.61-.94-5.35-4.13-1.74-1.29-2.86,8.08-6.84-2.45-8.52,3.77-.6,4.64-2.42,2.71-4.15-2.32-2.07-2.19-5.23-4.77-7.26l3.75-.55c3.51,3.64,6.65,7.78,11,10.31,7.63,4.38,11.44,12,16.73,18.36,2.53,3.07,6.34,5.06,9.39,7.74s4.41,6.34,6.25,9.71c1.47,2.71,2.87,5.45,5.09,7.57,3.78,3.6,3.36,8.9,5.61,13.11,5,9.3,7.2,19.7,11.74,29.21,1.46,3,4,7.08,0,11.35-1.94,2.07-.65,6.46,1.12,9.29,5.63,9,6.64,19.08,5.21,28.9-1.22,8.33-.82,17.58-7.15,24.61a8.5,8.5,0,0,0-2,5.16c-.84,10.66-6.85,18.72-13.76,26-3.65,3.82-6.78,8-10.51,11.76-8.72,8.68-19,15.3-29.19,22-3.23,2.12-5.11,5.64-8.67,7.22-2-.95-3.63-2.86-6.38-2.23-1.59.36-2.55-.78-2.26-2.58.22-1.37.45-2.75.63-4.12.11-.88.49-1.88-.57-2.47a1.08,1.08,0,0,0-.85.15c-1.14.67-.42,1.44-.23,2.34a11.8,11.8,0,0,1-5.5,12.15c.58,1.12,2.16-.14,2.41.72,1.46,4.86,3-.25,4.42.08C505.69,356.38,507.93,357.45,509.81,357.61Zm-50.65-68.19c0-.62.12-1.28-.64-1.52-.15,0-.59.26-.6.41,0,.8.65.92,1.21,1.13l.34.43Zm7,14.46-.27.33.27-.34c3.86.08,3.61,4.79,6.59,5.86l.36.27-.35-.28c-.06-2.8-1.68-4.77-3.57-6.56C467.91,301.93,466.8,302,466.18,303.88ZM543.91,208l-.25.39.28-.35c1.41-.1,4.26,1.27,3.45-1.66-1.79-6.5,2.29-12.18,1.94-18.42,0-.78,1.07-1.63,1.7-2.52-3,.38-3.2.34-3.41,1.35C546.14,193.85,542.94,200.58,543.91,208Zm-2.63,26.3c-1.64-1.15-2.36-1.39-2.6-1.86-2.06-4.19-3.51-2.08-4.42.56s-1.14,5.41-2.36,8a1.47,1.47,0,0,0,1.21,2.09c1.16.27,2.46.81,3.48.51.8-.23.53-1.57.08-2.46C534.81,237.42,534.91,234.6,541.28,234.33Zm2.9-3.43c-2.63-2.45-5.27-3.81-5.2-7.51C536.09,227.86,537.9,230.52,544.18,230.9Zm-17,23c2.59-2.18,1.71-4.9,3.06-6.67.52-.67,1.07-1.79-.26-2.2-1-.33-1.75.58-1.9,1.51C527.73,248.71,527.55,250.91,527.19,253.91Zm-71.26,30.55c1.29-2.81-.49-4.43-2.12-6.06a1.18,1.18,0,0,0-1.68-.08,1.1,1.1,0,0,0-.2.78C454.08,280.2,452.86,283.8,455.93,284.46ZM522.69,132c.71-1.82,3.46-3.19,1.44-5.5-.3-.35-1.4-.56-1.61-.34C520.77,128,522.44,130,522.69,132Zm17.51,32.19a6.61,6.61,0,0,0-5.13.85C537,166.4,538.3,166.38,540.2,164.21Zm2.32,47.89c1,.26,1.48.1,1.61-.65s0-1.24-.76-1.41-1.33-.13-1.37.67A3.6,3.6,0,0,0,542.52,212.1Zm-9.12-45c.23-.82,0-1.29-.51-1.22a2.32,2.32,0,0,0-1.45.79.71.71,0,0,0,.7,1.15C532.64,167.74,533.1,167.25,533.4,167.07Zm-41.35,54.6c.4-.1.9-.17.9-.24a2.12,2.12,0,0,0-.23-1.25c-.36-.47-.84-.22-.93.28A3.22,3.22,0,0,0,492.05,221.67Zm-28.22,20.94-.72-.48c-.15.24-.46.51-.41.71s.43.32.66.48ZM530.4,138.14c0-.11,0-.25,0-.3s-.23-.09-.34-.13v.5Z" transform="translate(-415.62 -78.64)"/><path class="cls-1" d="M517.35,135.36c4.78-.28,5.4.25,7,6,1.27-.68.3-2.78,2.62-3.29,0,5.78,3.89,8.87,7.8,12.25,1.06.91,2.27,5-1.18,6.75,0-.6.17-1.28-.6-1.53-.15-.05-.59.26-.6.42,0,.81.66.9,1.23,1.09-.24,1.35-1.3,1.51-2.38,1.83a1.53,1.53,0,0,0-1,1.9c.43,1.41,1.12,0,1.7,0,1.5,0,1.81,1,2,2.11.32,1.8-1,1.48-2.08,1.52-2.39.11-3.65.65-2.74,3.69.43,1.43-1,3.42-1.6,5.18-.27.86-.81,2-.51,2.62,2,4.34.24,8.68-1,12.42-1.48,4.47-3.32,9-5.19,13.24-2.12,4.79-3,10.43-6.8,14.49a6.05,6.05,0,0,0-1.29,2.93c-.59,2.39-.53,4,2.75,3.4,1.31-.23,2.76.35,4.14.56h0c-.25,1.19,1,3.39-2.21,2.14-3.88-1.53-4.6-.69-3.76,3.35a2.54,2.54,0,0,1,.06,1.36c-1.73,4.06-1.68,8.51-2.92,12.69-1.08,3.62-2.42,3.65-4.11.41-1.45,1,.43,2.57-1.16,3.53-2.31-2.07.93-5-1-7.07-.06-.94.74-1.89-.19-3.11-.43,1.25-.72,2.19.21,3.1-.41,1.94-.67,3.94-1.26,5.83-1,3.25,0,4.56,3.38,4h0c-.08,5.19-.22,10.24-2.38,15.25-1.51,3.53.6,7.91,1.74,10.94,1.85,4.87-.67,7.89-1.44,12.31-4.13-4.8-2.31-10.06-2.82-14.87-.25-2.34.78-5.11-2.58-6.16a1.21,1.21,0,0,1-.63-1.92c4.46-5.52.73-11.63,1.24-17.43.63-7.09-2.6-14.41,1.18-21.37a2.37,2.37,0,0,0,.18-.87c-5.87-1.54-3.13-6.91-4.3-10.38-1.29-3.86-1.07-8.25-1.33-12.42-.43-7.17-.24-14.41-1.22-21.49-.75-5.35-1.09-10.77-2.17-16.08-.18-.91-.27-2.56-1.91-1.78-.79.37-2.68,1.08-1.74,2.2,2.76,3.29-.63,5.92-.94,8.73-.41,3.64-2.26,7.21-2.26,11.1h0c-2.95,2.69-.49,6.31.44,7.77a32.53,32.53,0,0,0,5.63,6.92c3.62,3.22,2.56,8.08,1.38,12.15-.78,2.67-.32,3.08,2.62,2.29a6.28,6.28,0,0,1-3.81,3.27c-1.36.49-3.23.91-3,2.86.23,1.75.62,3.6,3.13,3.8,2,.16,2.59,1.8,2.14,3.43-.56,2-2.24,2.41-4.12,1.8-.52-.16-2,.1-1.06-1.15s1.4-2.49-.49-2.61c-1.71-.11-4.12-.38-5,1.64-.55,1.33-2.7,3.55-.79,4.36,3.95,1.67-.24,4,2.64,6-3.29-.63-2.79-2.34-3.57-3.15-2.06-2.16-4.77-4.83-4.14-7.34.39-1.52,4.75-2,7.32-3,.89-.34,2.1-.84,1.59-1.85a18.11,18.11,0,0,0-3.53-4.94c-.58-.56-1.27.86-1,1.5,2.47,5.44-2.9,3.75-4.69,4.79-2.29,1.32-4.1-.26-4.52-2.9-.34-2.1-2.76-2.89-3-5.12-.13-1.27-.35-3.48-2.12-2.9-2.1.67,1.24,2.2-.29,3.76-3.17-2.28-7-1.12-10.65-1.19a12.5,12.5,0,0,1,.33-2.3c.37-1.1-2.84-2.87.61-3.34.67-.09,1.13-1.34,1.92-.4,1.4,1.63-1,2.55-1,4.37,2.18-.68,5.32-.81,5.8-2,.69-1.74,2-3.94,1-6.19-2.55-6-5.07-11.93-7.66-17.88-1-2.34-2.21-1.28-2.86.17-1.45,3.24-3,6.49-1.7,10.26.57,1.68.83,3.49-1.73,5.32.3-3.3.32-5.91-2.39-7.62.5,3.08.27,6.06,1.37,9.26s4.2,5.41,3.62,9.13c-.12.79-1.4,1.71-.13,2.41s1.77-1,2.79-1.21c-.7,2.45.46,5.19-2.35,7.41-1.45,1.14.25,3.19,2.64,3.18,2.08,0,3.73.57,3,3.24-.69,0-1.48-.15-1.58.89a.45.45,0,0,0,.24.34c1,.23,1.14-.54,1.35-1.21,1.6.16,2.12.76,2.31,2.61a18.6,18.6,0,0,1,.26,4.94c-.19,1.24,1.26,3.42-.58,3.55-2.5.19-.38-2.09-.87-3.15-.32-.68-.37-1.51-1.6-2-1.53,5.45-6,8.2-10.8,11,1.75,1.8,3.44-.54,5.45.92-5.46,4.44-2.46,11.47-5.31,16.94-.38.73.24,2.08.6,3.07.56,1.6,3.82,2.13,2.88,3.62s-.93,3-1.05,5.14c-3.09-2.8-4.12-6.08-5.49-9-1.81-3.84-3.37-3.05-5.12-.29-.63,1-1.26,1.67-3.46,2.11,3.94.5,4.13,2.28,3,4.58h0c-2.5,1.4-4.19,2.93-1.07,5.44,1.31,1.05.63,3,2.33,4.05-3.74,2.05-6.17-1.59-9.37-1.11.23.42.35,1,.59,1.06,5.05,1.16,4.86,6.41,7.38,9.53a4.34,4.34,0,0,1,.2,4.44c-1,1.92-2.36-.18-3.59-.25s-4.42-2.81-2.5,1.72c-1.11.31-2.46,1.18-3.3.82-2.08-.87-2.57.59-3.54,2.08-.31-1.2-1-2.24-.69-2.9,3.14-7.83-1.84-13.69-5.21-19.55-3.61-6.3-4.51-12.21-2-19,1.5-4.06,2.82-8.59,2-12.78-1.77-8.85.43-16.87,3.49-24.9.39-1,.89-2,.21-3.11.48-3-.31-6.22,2-8.74.7-1.93.64-4.36,3.43-4.86,1-.17,1.3-.82.39-1.54-2-1.61-1.47-3.94-1.77-6l.14-.25c2.15-2.62,2.23-5.64,1.71-8.78.4-5.78,3.59-10.75,4.81-16.33a53.13,53.13,0,0,1,1.31-5.22c1-3,1.22-6,4.82-7.88,1.56-.79,2.95-3.37,2.66-6.87-.37-4.55,2-9.62,5.14-13.56,2.16-2.66,4.29-5.23,5.31-8.61a11.16,11.16,0,0,1,4.09-5.52c2.11-1.61,4.13-3.46,4.92-5.93a14.1,14.1,0,0,1,5.44-7.28c2.1-1.53,2.77-4,4-6.11a1.58,1.58,0,0,0,.64-1.85l.51-2.28c.95-2.24.17-5.46,3.8-6.33.19,2.18.94,5.48,3.45,3.33,1.28-1.1,3.12-1.29,4-2.72l26.5,18-3.75.55c2.58,2,2.45,5.19,4.77,7.26,1.93,1.73,1.06,3.55-2.71,4.15,10.53,1.68,1.16,5.66,2.45,8.52,3.19-3.61,4.1-1.87,4.13,1.74l-.28.34Zm-62.59,95.58c.33.84.57,1.81,1.76,1.77.17,0,.52-.41.49-.58-.22-1.23-1.35-1-2.16-1.26l-.37-.43Zm-3.47-7.26-.63,3.68c-1,0-1.89,0-1.9,1.3,0,.29.52.88.71.84,1.17-.22,1-1.32,1.2-2.13l1.81.34.36.43-.29-.49c.3-1.55.29-3-1.27-4,0-.69.15-1.46-.87-1.56a.41.41,0,0,0-.33.24C449.86,223.37,450.64,223.47,451.29,223.68ZM481,193.63c.09-1.14-.06-2.24-1.28-2.66-.72-.25-1.17.4-1.14,1,.07,1.49,1.37,1.39,2.37,1.65l.78,1.06c.27,1.46-1.63,2.56-.81,4.35l4.21-2.09c-1.22-1.18-2.08-2-3.39-2.27Zm-40.25,64.28c0-7.24-4.69-12.87-6.59-19.53.24,2.33-.48,4.55.85,6.86s3.1,5.6,2.4,7.7c-1.35,4,1.46,3.89,3.35,5-.13,1.65.83,2.46,2.24,3.32C443.25,259.1,442.34,258.25,440.77,257.91Zm5.51-43.63a7,7,0,0,0-1-5.18c-1-1.75-3.2-3.32-2.76-5.64,1-5.45-.38-10.52-2.28-15.61,1.3,6.1-2.42,12.55,1,18.28,1.63,2.72.58,7.2,5,8.21.1,1.68-2.64,3.8.79,5.07.27.1-1.61,2.14.41,2.4s1.71-2.2,2.83-3.23c1.78-1.63-.77-1.17-1.28-1.72C448.11,216,447.17,215.14,446.28,214.28ZM497,166c-.85.32-1.79.57-1.77,1.73,0,.17.42.51.58.48,1.2-.25.92-1.38,1.22-2.17,2.22-.77,3.33-2.55,4.44-4.5,6.12-10.71,5.19-22.68,6.1-34.36,0,2.89-2.2,5.12-2.3,7.9-.3,8.43-1.62,16.56-5,24.41C499.29,161.77,497,163.35,497,166Zm-37-10.95-1,1.37.49.35.52-1.73c1.79-.32,2.41,1.69,3.93,2.06,1-1.66,1.19-3.15,0-4.81-2.16-3.06-3-6.61-1.74-10.11,2.59-7.1,3.06-14.63,5.64-23-1.18,1.47-1.53,2-1.93,2.4-3.4,3.69-1.51,8.81-3.51,12.87-1.11,2.24-1.2,4.59-1.48,7C460.44,146.05,461.68,150.68,460,155.06Zm11.9,36.1c-1.11-.11-2.17,0-2.65,1.2a.64.64,0,0,0,.66.92c1.33,0,1.73-1,2-2.11,1.85.34,3.93,1,4.94-1.23,1.82-3.91-2.52-6.11-2.4-9.78-1.7.85-.85,3.3-3.42,2.86.88-1.48-2.25-3.86,1.6-4.71.93-.21.62-1.25.32-2-2.16-5.24-4.41-10.44-6.47-15.71-1.27-3.25-3.91.66-5.5-1.17-.19-.21-1.56,1-1.07,2,.75,1.68,1.83,2.86,4,2.06.46-.17,1.12.15,1.42.2,1.14,2-2.58,2.39-.79,4.2,2.29,2.31-1.37,4-.61,6.13-5.69,1.12-2.41,5.22-2.92,8.48,2.41-4.64,5.09-4.16,8.56-1-3.62,1-3.74,2.25-1.17,4.35C470,187.22,472.66,188.16,471.93,191.16Zm43.51-14.25c-2.63,4.81-3.33,8.72,1.38,12.18-4.18.63-5.65,1.83-6.15,7.25-.67,7-4.56,13.7-2.88,21.22,8-4,19.06-35.95,17.6-50.07-4.64,3.83-6.95,8-6.91,12.48,0,.63,1.26,1.47,0,1.8A2.7,2.7,0,0,1,516,181C515.53,180.06,515.66,178.77,515.44,176.91Zm-2.22-8.81c-2.85.12-2.5,2.18-3,3.67-.29.87.25,2.11-1.56,2.28-4.58.42-2.86,6.89-7.19,7.84-.38.08.47.92,1,1.23.88.56.79,1.23.22,1.91-.75.9-2.37,1.89-1.05,3s2.48-.39,3.64-1.14a7.71,7.71,0,0,0,3.33-4.76C509.89,177.53,511.56,173,513.22,168.1Zm-25.71-21.75c1.62-7.84-4.26-16.87,5.71-22.93-4.42-1.31-6.46,1-6.47,3.77,0,3.13-2.77,5.11-1.88,9C485.63,139.56,488.15,142.57,487.51,146.35Zm37.68,12.2c2-5,.95-9.77.26-15.55-1.57,2.11-3.13,2.92-5.38,4.19,7,.48.29,3.21,1.66,5.24C523,154.27,526.92,154.88,525.19,158.55Zm-42.93-57.91c-.74,4-.68,7.94,1.6,11.46.75,1.17,2.42.9,2.18.09-1.29-4.33,2.55-.11,2.88-2.34C484.16,108.87,483.07,105,482.26,100.64Zm-31.81,69.71c2-5.52,1-10.22.63-14.76C446.08,160,450.14,164.76,450.45,170.35Zm24.26-24.23c-2.45,2.95-.58,4.32.87,5.94,1.79,2-1,4-.32,6.55C482.37,153.92,475.84,150.42,474.71,146.12Zm36.67,10.15c.68-1.63,2.15-1.41,3.35-1.83a2.72,2.72,0,0,0,1.65-3c0-.52-.44-1.36-.84-1.47-1.3-.38-1.66,1.09-2.56,1.59C511.19,152.55,511.37,154.33,511.38,156.27Zm-79.32,73.11c-.91,1.4-.18,2.76,0,4,.11.71-2.12,2,.34,2.2,1.8.16,2.1-1.18,1.86-2.39A5.27,5.27,0,0,0,432.06,229.38Zm50-19.3a5.05,5.05,0,0,0-5.47,1.23,1.22,1.22,0,0,0,.14,1.16c2.15,1.12,3.24-1.12,4.89-1.64C481.8,210.78,481.88,210.4,482.06,210.08Zm6.67,1.32c-1.63,2.14-1.63,2.14.39,4C489.82,213.93,489.15,212.71,488.73,211.4Zm.46-58.44c-.82,1.4-1.24,2.57.16,3.94C490.4,155.43,490.75,154.26,489.19,153Zm-6.66,54.87,6.17,1A8.13,8.13,0,0,0,482.53,207.83ZM486,123.51c-.39-.44-.6-.87-.89-1s-1,0-1.13.26c-.33.64.12,1.09.74,1.16C485.05,124,485.42,123.74,486,123.51ZM431.53,226.15a2.68,2.68,0,0,0,.35-3A2.6,2.6,0,0,0,431.53,226.15Zm57.88-76.5L489,148.5c-.16.24-.43.47-.45.72a5.46,5.46,0,0,0,.11,1.27Zm-55,51.88.45-.7c-.23-.16-.5-.46-.69-.41a.77.77,0,0,0-.42.65C433.79,201.26,434.17,201.38,434.41,201.53Zm-2.28,6.13-.27-.74c-.17.2-.43.39-.46.61s.14.49.23.73Zm29.09-40.8a3.79,3.79,0,0,0,.57-.54.55.55,0,0,0,0-.44c-.14-.4-.42-.43-.59,0A2.88,2.88,0,0,0,461.22,166.86ZM431.68,293.49a1,1,0,0,0-.06-.4s-.22,0-.34,0a1.23,1.23,0,0,0,.07.39S431.57,293.5,431.68,293.49ZM491,160c-.1,0-.24,0-.29,0a.93.93,0,0,0-.13.32h.49Z" transform="translate(-415.62 -78.64)"/><path class="cls-1" d="M486,95.14c-.92,1.43-2.76,1.62-4,2.72-2.51,2.15-3.26-1.15-3.45-3.33-3.63.87-2.85,4.09-3.8,6.33-.08-7.07-.81-14.14.27-22.22C477.65,85.51,482,90.2,486,95.14Z" transform="translate(-415.62 -78.64)"/><path class="cls-1" d="M509.81,357.61c-1.88-.16-4.12-1.23-4.74,1.85-1.45-.33-3,4.78-4.42-.08-.25-.86-1.83.4-2.41-.72a11.8,11.8,0,0,0,5.5-12.15c-.19-.9-.91-1.67.23-2.34a1.08,1.08,0,0,1,.85-.15c1.06.59.68,1.59.57,2.47-.18,1.37-.41,2.75-.63,4.12-.29,1.8.67,2.94,2.26,2.58,2.75-.63,4.34,1.28,6.38,2.23Z" transform="translate(-415.62 -78.64)"/><path class="cls-1" d="M429.13,197.33c.3,2.1-.24,4.43,1.77,6,.91.72.57,1.37-.39,1.54-2.79.5-2.73,2.93-3.43,4.86C424.07,205,427.5,201.32,429.13,197.33Z" transform="translate(-415.62 -78.64)"/><path class="cls-1" d="M456.13,328.81c3.36-1.1,6.67,0,7.76,2.68.24.59.35,1.24-.28,1.63s-1.16-.05-1.54-.54C461,331.23,460,329.87,458,330Z" transform="translate(-415.62 -78.64)"/><path class="cls-1" d="M431,188.3c.52,3.14.44,6.16-1.71,8.78Z" transform="translate(-415.62 -78.64)"/><path class="cls-1" d="M474.16,103.14a1.58,1.58,0,0,1-.64,1.85C473.73,104.37,473.94,103.75,474.16,103.14Z" transform="translate(-415.62 -78.64)"/><path class="cls-1" d="M543.91,208c-1-7.45,2.23-14.18,3.71-21.21.21-1,.41-1,3.41-1.35-.63.89-1.74,1.74-1.7,2.52.35,6.24-3.73,11.92-1.94,18.42.81,2.93-2,1.56-3.45,1.66Z" transform="translate(-415.62 -78.64)"/><path class="cls-1" d="M541.28,234.33c-6.37.27-6.47,3.09-4.61,6.8.45.89.72,2.23-.08,2.46-1,.3-2.32-.24-3.48-.51A1.47,1.47,0,0,1,531.9,241c1.22-2.55,1.45-5.36,2.36-8s2.36-4.75,4.42-.56C538.92,232.94,539.64,233.18,541.28,234.33Z" transform="translate(-415.62 -78.64)"/><path class="cls-1" d="M437.84,303.77c.9.27,2.3,1.16,1.86,1.58-2.63,2.54-1,5.34-.47,8.25-2.89-.08-2.72-4.18-5.58-3.42l-.16-.21c.41-2.38,1.25-3.6,4.21-6.1Z" transform="translate(-415.62 -78.64)"/><path class="cls-1" d="M544.18,230.9c-6.28-.38-8.09-3-5.2-7.51C538.91,227.09,541.55,228.45,544.18,230.9Z" transform="translate(-415.62 -78.64)"/><path class="cls-1" d="M527.19,253.91c.36-3,.54-5.2.9-7.36.15-.93.85-1.84,1.9-1.51,1.33.41.78,1.53.26,2.2C528.9,249,529.78,251.73,527.19,253.91Z" transform="translate(-415.62 -78.64)"/><path class="cls-1" d="M455.93,284.46c-3.07-.66-1.85-4.26-4-5.36a1.1,1.1,0,0,1,.2-.78,1.18,1.18,0,0,1,1.68.08C455.44,280,457.22,281.65,455.93,284.46Z" transform="translate(-415.62 -78.64)"/><path class="cls-1" d="M522.69,132c-.25-2-1.92-4-.17-5.84.21-.22,1.31,0,1.61.34C526.15,128.83,523.4,130.2,522.69,132Z" transform="translate(-415.62 -78.64)"/><path class="cls-1" d="M472.77,309.73c-3-1.07-2.73-5.78-6.59-5.86h0c.62-1.89,1.73-1.95,3-.72,1.89,1.79,3.51,3.76,3.57,6.56Z" transform="translate(-415.62 -78.64)"/><path class="cls-1" d="M437.7,303.87c-1.95-.78-2.12-2.45-2-4.2a1.39,1.39,0,0,1,1.45-1.46c.57,0,1.44.16,1.65.54.58,1.06-.54.95-1.09,1.37-1.55,1.18.86,2.38.13,3.65Z" transform="translate(-415.62 -78.64)"/><path class="cls-1" d="M540.2,164.21c-1.9,2.17-3.18,2.19-5.13.85A6.61,6.61,0,0,1,540.2,164.21Z" transform="translate(-415.62 -78.64)"/><path class="cls-1" d="M542.52,212.1a3.6,3.6,0,0,1-.52-1.39c0-.8.77-.81,1.37-.67s.87.78.76,1.41S543.48,212.36,542.52,212.1Z" transform="translate(-415.62 -78.64)"/><path class="cls-1" d="M506.68,249.13c.28-1.07.66-2.08,2-2.12a.65.65,0,0,1,.66.93c-.47,1.25-1.56,1.28-2.66,1.2Z" transform="translate(-415.62 -78.64)"/><path class="cls-1" d="M533.4,167.07c-.3.18-.76.67-1.26.72a.71.71,0,0,1-.7-1.15,2.32,2.32,0,0,1,1.45-.79C533.36,165.78,533.63,166.25,533.4,167.07Z" transform="translate(-415.62 -78.64)"/><path class="cls-1" d="M492.05,221.67a3.22,3.22,0,0,1-.26-1.21c.09-.5.57-.75.93-.28a2.12,2.12,0,0,1,.23,1.25C493,221.5,492.45,221.57,492.05,221.67Z" transform="translate(-415.62 -78.64)"/><path class="cls-1" d="M459.13,289.44c-.56-.21-1.25-.33-1.21-1.13,0-.15.45-.46.6-.41.76.24.68.9.64,1.52Z" transform="translate(-415.62 -78.64)"/><path class="cls-1" d="M463.83,242.61l-.47.71c-.23-.16-.62-.28-.66-.48s.26-.47.41-.71Z" transform="translate(-415.62 -78.64)"/><path class="cls-1" d="M530.4,138.14l-.35.07v-.5c.11,0,.26,0,.34.13S530.4,138,530.4,138.14Z" transform="translate(-415.62 -78.64)"/><path class="cls-1" d="M440.14,273l.33.47c-.09,0-.2-.05-.24-.11a1.29,1.29,0,0,1-.1-.35Z" transform="translate(-415.62 -78.64)"/><path class="cls-1" d="M485.3,184.9l.34.26-.33-.27Z" transform="translate(-415.62 -78.64)"/><path class="cls-1" d="M459.16,289.42l.31.45c-.11-.15-.23-.29-.34-.43Z" transform="translate(-415.62 -78.64)"/><path class="cls-1" d="M472.78,309.72l.35.28-.36-.27Z" transform="translate(-415.62 -78.64)"/><path class="cls-1" d="M466.18,303.87l-.27.34.27-.33Z" transform="translate(-415.62 -78.64)"/><path class="cls-1" d="M519.63,222.9l.28-.36-.28.36Z" transform="translate(-415.62 -78.64)"/><path class="cls-1" d="M543.94,208.07l-.28.35.25-.39Z" transform="translate(-415.62 -78.64)"/><path class="cls-1" d="M515.44,176.91c.22,1.86.09,3.15.6,4.07a2.7,2.7,0,0,0,2.45.79c1.25-.33,0-1.17,0-1.8,0-4.44,2.27-8.65,6.91-12.48,1.46,14.12-9.58,46-17.6,50.07-1.68-7.52,2.21-14.17,2.88-21.22.5-5.42,2-6.62,6.15-7.25C512.11,185.63,512.81,181.72,515.44,176.91Z" transform="translate(-415.62 -78.64)"/><path class="cls-1" d="M456.54,215.08c-1,.23-1.54,1.9-2.79,1.21s0-1.62.13-2.41c.58-3.72-2.54-6-3.62-9.13s-.87-6.18-1.37-9.26c2.71,1.71,2.69,4.32,2.39,7.62,2.56-1.83,2.3-3.64,1.73-5.32-1.29-3.77.25-7,1.7-10.26.65-1.45,1.84-2.51,2.86-.17,2.59,5.95,5.11,11.92,7.66,17.88,1,2.25-.32,4.45-1,6.19-.48,1.19-3.62,1.32-5.8,2,0-1.82,2.36-2.74,1-4.37-.79-.94-1.25.31-1.92.4-3.45.47-.24,2.24-.61,3.34a12.5,12.5,0,0,0-.33,2.3Zm.79-14.42c.15-.24.46-.51.42-.7a.56.56,0,0,0-1.09.22C456.71,200.38,457.09,200.5,457.33,200.66Z" transform="translate(-415.62 -78.64)"/><path class="cls-1" d="M471.93,191.16c.73-3-1.93-3.94-3.53-5.25-2.57-2.1-2.45-3.37,1.17-4.35-3.47-3.16-6.15-3.64-8.56,1,.51-3.26-2.77-7.36,2.92-8.48-.76-2.14,2.9-3.82.61-6.13-1.79-1.81,1.93-2.24.79-4.2-.3-.05-1-.37-1.42-.2-2.15.8-3.23-.38-4-2.06-.49-1.07.88-2.24,1.07-2,1.59,1.83,4.23-2.08,5.5,1.17,2.06,5.27,4.31,10.47,6.47,15.71.3.72.61,1.76-.32,2-3.85.85-.72,3.23-1.6,4.71,2.57.44,1.72-2,3.42-2.86-.12,3.67,4.22,5.87,2.4,9.78-1,2.18-3.09,1.57-4.94,1.23Z" transform="translate(-415.62 -78.64)"/><path class="cls-1" d="M513.22,168.1c-1.66,4.94-3.33,9.43-4.64,14a7.71,7.71,0,0,1-3.33,4.76c-1.16.75-2.46,2.13-3.64,1.14s.3-2.09,1.05-3c.57-.68.66-1.35-.22-1.91-.49-.31-1.34-1.15-1-1.23,4.33-.95,2.61-7.42,7.19-7.84,1.81-.17,1.27-1.41,1.56-2.28C510.72,170.28,510.37,168.22,513.22,168.1Z" transform="translate(-415.62 -78.64)"/><path class="cls-1" d="M460,155.06c1.65-4.38.41-9,.92-13.52.28-2.46.37-4.81,1.48-7,2-4.06.11-9.18,3.51-12.87.4-.44.75-.93,1.93-2.4-2.58,8.34-3.05,15.87-5.64,23-1.28,3.5-.42,7.05,1.74,10.11,1.17,1.66.95,3.15,0,4.81-1.52-.37-2.14-2.38-3.93-2.06Z" transform="translate(-415.62 -78.64)"/><path class="cls-1" d="M497,166c0-2.66,2.29-4.24,3.26-6.51,3.39-7.85,4.71-16,5-24.41.1-2.78,2.3-5,2.3-7.9-.91,11.68,0,23.65-6.1,34.36-1.11,1.95-2.22,3.73-4.44,4.5Z" transform="translate(-415.62 -78.64)"/><path class="cls-1" d="M446.19,214.34c-4.39-1-3.34-5.49-5-8.21-3.44-5.73.28-12.18-1-18.28,1.9,5.09,3.33,10.16,2.28,15.61-.44,2.32,1.74,3.89,2.76,5.64a7,7,0,0,1,1,5.18Z" transform="translate(-415.62 -78.64)"/><path class="cls-1" d="M487.51,146.35c.64-3.78-1.88-6.79-2.64-10.12-.89-3.93,1.86-5.91,1.88-9,0-2.73,2.05-5.08,6.47-3.77C483.25,129.48,489.13,138.51,487.51,146.35Z" transform="translate(-415.62 -78.64)"/><path class="cls-1" d="M440.78,257.91c-1.89-1.08-4.7-.94-3.35-5,.7-2.1-1.05-5.37-2.4-7.7s-.61-4.53-.85-6.86c1.9,6.66,6.63,12.29,6.59,19.53Z" transform="translate(-415.62 -78.64)"/><path class="cls-1" d="M525.19,158.55c1.73-3.67-2.22-4.28-3.46-6.12-1.37-2,5.33-4.76-1.66-5.24,2.25-1.27,3.81-2.08,5.38-4.19C526.14,148.78,527.15,153.53,525.19,158.55Z" transform="translate(-415.62 -78.64)"/><path class="cls-1" d="M482.26,100.64c.81,4.37,1.9,8.23,6.66,9.21-.33,2.23-4.17-2-2.88,2.34.24.81-1.43,1.08-2.18-.09C481.58,108.58,481.52,104.65,482.26,100.64Z" transform="translate(-415.62 -78.64)"/><path class="cls-1" d="M450.45,170.35c-.31-5.59-4.37-10.4.63-14.76C451.48,160.13,452.41,164.83,450.45,170.35Z" transform="translate(-415.62 -78.64)"/><path class="cls-1" d="M474.71,146.12c1.13,4.3,7.66,7.8.55,12.49-.68-2.57,2.11-4.54.32-6.55C474.13,150.44,472.26,149.07,474.71,146.12Z" transform="translate(-415.62 -78.64)"/><path class="cls-1" d="M446.28,214.28c.89.86,1.83,1.67,2.66,2.58.51.55,3.06.09,1.28,1.72-1.12,1-.79,3.51-2.83,3.23s-.14-2.3-.41-2.4c-3.43-1.27-.69-3.39-.79-5.07Z" transform="translate(-415.62 -78.64)"/><path class="cls-1" d="M511.38,156.27c0-1.94-.19-3.72,1.6-4.73.9-.5,1.26-2,2.56-1.59.4.11.81,1,.84,1.47a2.72,2.72,0,0,1-1.65,3C513.53,154.86,512.06,154.64,511.38,156.27Z" transform="translate(-415.62 -78.64)"/><path class="cls-1" d="M432.06,229.38a5.27,5.27,0,0,1,2.21,3.8c.24,1.21-.06,2.55-1.86,2.39-2.46-.24-.23-1.49-.34-2.2C431.88,232.14,431.15,230.78,432.06,229.38Z" transform="translate(-415.62 -78.64)"/><path class="cls-1" d="M482.06,210.08c-.18.32-.26.7-.44.75-1.65.52-2.74,2.76-4.89,1.64a1.22,1.22,0,0,1-.14-1.16A5.05,5.05,0,0,1,482.06,210.08Z" transform="translate(-415.62 -78.64)"/><path class="cls-1" d="M481.76,194.71c1.31.23,2.17,1.09,3.39,2.27l-4.21,2.09c-.82-1.79,1.08-2.89.81-4.35Z" transform="translate(-415.62 -78.64)"/><path class="cls-1" d="M488.73,211.4c.42,1.31,1.09,2.53.39,4C487.1,213.54,487.1,213.54,488.73,211.4Z" transform="translate(-415.62 -78.64)"/><path class="cls-1" d="M489.19,153c1.56,1.3,1.21,2.47.16,3.94C488,155.53,488.37,154.36,489.19,153Z" transform="translate(-415.62 -78.64)"/><path class="cls-1" d="M482.53,207.83a8.13,8.13,0,0,1,6.17,1Z" transform="translate(-415.62 -78.64)"/><path class="cls-1" d="M481,193.66c-1-.26-2.3-.16-2.37-1.65,0-.64.42-1.29,1.14-1,1.22.42,1.37,1.52,1.28,2.66Z" transform="translate(-415.62 -78.64)"/><path class="cls-1" d="M450.66,227.36l.63-3.68h0c1.56,1,1.57,2.41,1.27,4l-.07.06-1.81-.34Z" transform="translate(-415.62 -78.64)"/><path class="cls-1" d="M471.93,191.17c-.26,1.08-.66,2.07-2,2.11a.64.64,0,0,1-.66-.92c.48-1.24,1.54-1.31,2.65-1.2Z" transform="translate(-415.62 -78.64)"/><path class="cls-1" d="M440.77,257.91c1.57.34,2.48,1.19,2.25,3.32-1.41-.86-2.37-1.67-2.24-3.32Z" transform="translate(-415.62 -78.64)"/><path class="cls-1" d="M486,123.51c-.57.23-.94.51-1.28.47-.62-.07-1.07-.52-.74-1.16.12-.24.78-.34,1.13-.26S485.6,123.07,486,123.51Z" transform="translate(-415.62 -78.64)"/><path class="cls-1" d="M450.67,227.37c-.24.81,0,1.91-1.2,2.13-.19,0-.71-.55-.71-.84,0-1.25.94-1.34,1.9-1.3Z" transform="translate(-415.62 -78.64)"/><path class="cls-1" d="M497,166.05c-.3.79,0,1.92-1.22,2.17-.16,0-.58-.31-.58-.48,0-1.16.92-1.41,1.77-1.73Z" transform="translate(-415.62 -78.64)"/><path class="cls-1" d="M431.53,226.15a2.6,2.6,0,0,1,.35-3A2.68,2.68,0,0,1,431.53,226.15Z" transform="translate(-415.62 -78.64)"/><path class="cls-1" d="M454.86,230.86c.8.29,1.93,0,2.15,1.27,0,.17-.32.58-.49.58-1.19,0-1.43-.93-1.76-1.77Z" transform="translate(-415.62 -78.64)"/><path class="cls-1" d="M451.29,223.68c-.65-.21-1.43-.31-1.21-1.31a.41.41,0,0,1,.33-.24c1,.1.88.87.87,1.56Z" transform="translate(-415.62 -78.64)"/><path class="cls-1" d="M504.56,239.3c-.93-.91-.64-1.85-.21-3.1.93,1.22.13,2.17.19,3.11Z" transform="translate(-415.62 -78.64)"/><path class="cls-1" d="M489.41,149.65l-.78.84a5.46,5.46,0,0,1-.11-1.27c0-.25.29-.48.45-.72Z" transform="translate(-415.62 -78.64)"/><path class="cls-1" d="M533.6,157c-.57-.19-1.27-.28-1.23-1.09,0-.16.45-.47.6-.42.77.25.62.93.6,1.53Z" transform="translate(-415.62 -78.64)"/><path class="cls-1" d="M459.88,228.93c-.21.67-.34,1.44-1.35,1.21a.45.45,0,0,1-.24-.34c.1-1,.89-.88,1.58-.89Z" transform="translate(-415.62 -78.64)"/><path class="cls-1" d="M434.41,201.53c-.24-.15-.62-.27-.66-.46a.77.77,0,0,1,.42-.65c.19,0,.46.25.69.41Z" transform="translate(-415.62 -78.64)"/><path class="cls-1" d="M460,155.05l-.52,1.73-.49-.35,1-1.37Z" transform="translate(-415.62 -78.64)"/><path class="cls-1" d="M432.13,207.66l-.5.6c-.09-.24-.27-.5-.23-.73s.29-.41.46-.61Z" transform="translate(-415.62 -78.64)"/><path class="cls-1" d="M461.22,166.86a2.88,2.88,0,0,1,0-1c.17-.41.45-.38.59,0a.55.55,0,0,1,0,.44A3.79,3.79,0,0,1,461.22,166.86Z" transform="translate(-415.62 -78.64)"/><path class="cls-1" d="M431.68,293.49c-.11,0-.31.06-.33,0a1.23,1.23,0,0,1-.07-.39c.12,0,.31-.07.34,0A1,1,0,0,1,431.68,293.49Z" transform="translate(-415.62 -78.64)"/><path class="cls-1" d="M491,160l.07.33h-.49a.93.93,0,0,1,.13-.32C490.77,160,490.91,160,491,160Z" transform="translate(-415.62 -78.64)"/><path class="cls-1" d="M454.76,230.94l-.28-.5.38.42Z" transform="translate(-415.62 -78.64)"/><path class="cls-1" d="M481,193.63l.74,1.08h0l-.78-1.06Z" transform="translate(-415.62 -78.64)"/><path class="cls-1" d="M452.55,227.65l.29.49-.36-.43Z" transform="translate(-415.62 -78.64)"/><path class="cls-1" d="M517.35,135.36l-.28.34.28-.34Z" transform="translate(-415.62 -78.64)"/><path class="cls-1" d="M457.33,200.66c-.24-.16-.62-.28-.67-.48a.56.56,0,0,1,1.09-.22C457.79,200.15,457.48,200.42,457.33,200.66Z" transform="translate(-415.62 -78.64)"/></svg>