<svg id="Layer_1" data-name="Layer 1" xmlns="http://www.w3.org/2000/svg" viewBox="0 0 333.82 432"><defs><style>.cls-1{fill:#8dc63f;}.cls-2{fill:#fff;}</style></defs><title>goldenrain</title><path class="cls-1" d="M177.7,311.63c-1.53-.45-2.23,0-2,1.72,0,.52-.39,1.1-.61,1.65a7.86,7.86,0,0,0-1.4-.95c-1.06-.44-2.35-.52-3.2-1.18-2-1.54-3.81-3.32-5.66-5a22.23,22.23,0,0,0-2.75-2.74,29.25,29.25,0,0,1-8.86-8.79,34.26,34.26,0,0,0-3.66-4.5c-1.13-1.22-1.48-2.13.17-2.52a14.55,14.55,0,0,0-.47-3.16,15.35,15.35,0,0,0-1.73-2.64c-1.73,1.53-2.13,1.29-2.76-.57-.89-2.61-2.12-5.11-3-7.71-.84-2.41-1.37-4.92-2.18-7.35-.73-2.16-1.67-4.26-2.46-6.4s-1.38-4.28-2.28-6.33c-1.57-3.59-3.49-7-4.91-10.68a72.06,72.06,0,0,1-2.2-8.25,19.15,19.15,0,0,1-1-4.05c-.13-4.08,0-8.17,0-12.63l2.07,1.23c.25-.44.63-.81.56-1.05-.21-.75-.47-1.95-.95-2.08-1.47-.4-1.57-1.35-1.56-2.53,0-2.44,0-4.87,0-7.58l1.78.88a10.06,10.06,0,0,0,1.07,2.92c1.33,1.76,2.91,3.32,4.89,5.53l-.31-3.26,4.11-1.41-4-1.45v2.92l-.93-.1-3.73-7.07-1.12,2c-.32-1.59-.75-3.18-.94-4.79-.32-2.76-.58-5.53-.67-8.3a15.12,15.12,0,0,1,.77-3.12c.65-3.34,1.19-6.69,1.89-10,.61-2.88,1.41-5.72,2-8.6a21.45,21.45,0,0,0,.23-3.32c0-.38-.15-.92,0-1.12,1.9-1.94,1.27-4.4,1.55-6.71s1.12-4.76,1.65-7.15c.73-3.31,1.45-6.62,2.06-9.95.33-1.83-.28-4.42.74-5.41,2.36-2.29,1.21-5,1.93-7.32s2.53-4.49,3.85-6.73a4.82,4.82,0,0,0,.71-1.55c.34-2,1-4.1.76-6-.54-4.13,2.63-6.91,3.39-10.59.53-2.57,2.87-4.72,4.22-7.16A36.63,36.63,0,0,0,155.1,95a82.1,82.1,0,0,0,4.13-18.76,124.92,124.92,0,0,1,2.83-14.75c.25-1.09,1.3-2,2.35-3.55A23.32,23.32,0,0,1,166,60.1c2.31,4.28,4.54,8.6,6.9,12.85.58,1,1.68,1.81,2.36,2.82,1.7,2.56,3,5.48,5,7.7a46,46,0,0,0,7.57,6c2.33,1.65,5,2.84,7.23,4.62a41.29,41.29,0,0,1,4.81,5.3c.15.17.22.56.37.58,3,.46,4,3.21,5.55,5.16.84,1,1.28,2.39,2.1,3.18a20.29,20.29,0,0,1,2.93,2.12c1,1,1.58,2.94,2.75,3.39,3.35,1.3,3.8,5,6.38,6.94,1.31,1,1.77,3,2.74,4.52,1.84,2.81,3.77,5.57,5.66,8.34a16.37,16.37,0,0,1,1.35,1.93c1.36,2.79,2.62,5.63,4,8.41s3,5.22,4.12,8a16,16,0,0,1,1,5.48c.14,4,0,8.08,0,12.3,3.52,1.37,1.45,4.52,1.8,7,.28,2-.89,4.18.94,5.91a.3.3,0,0,1,.06.23c-.17,2.5-.37,5-.52,7.51s-.32,4.9-.31,7.34c0,2-.08,3.85-2.33,5.19l2.19.49c-.3,2.1-.54,4.28-1,6.43-.1.47-.88.82-1.38,1.18s-1.3.89-2,1.32l.3.65,2.1-.66c1.47,1.48.41,2.94-.41,4.25s-1.07,2.07.58,2.77a1.69,1.69,0,0,1,.7,1.43c-.7,3.42-1.37,6.85-2.35,10.19a18.85,18.85,0,0,1-2.53,5.2,20.33,20.33,0,0,0-3.5,12.22c0,3.06-.15,6.1.14,9.2.22,2.28-.51,4.65-.88,7-.28,1.81-.26,3.82-1,5.39-3,5.93-5.91,11.88-9.45,17.57-2.77,4.44-6.74,7.92-9,12.64-.42.86-1.41,1.44-2.14,2.14.23-.85.45-1.71.66-2.56l-.63-.23c-.89.95-1.86,1.84-2.65,2.86s-.93,1.79.79,1.55l-.34.31c-2.21,2.25-2.21,2.25-4.16-.13l-2-.84a8.19,8.19,0,0,0-.85-2.22,34.89,34.89,0,0,0-2.77-3c.15,1.94-1.57,1.45-3.06,1.43a8.8,8.8,0,0,0-2.12.13c-.39.08-.71.47-1,.72a6.73,6.73,0,0,0,.79,1c.73.61,1.49,1.2,2.27,1.75.49.33,1.05.83,1.56.8,1.77-.1,3.53-.4,5.3-.63L197.34,306c2.15,1,3.55-.86,5.22-1.91a9.76,9.76,0,0,1-1.28,2.61,11.63,11.63,0,0,1-2.78,1.66l1.64,1.29-.16.74-3.82-.51c-1.83,2.11-3.54,4.72-5.85,6.58a20,20,0,0,0-5.68,6.87c-.79,1.6-2.09,1.45-3,.24a44.14,44.14,0,0,1-3.05-5.15,20.56,20.56,0,0,1-1.42-3.14,3.8,3.8,0,0,1,.09-1.63c.1-.69.25-1.38.38-2.08,2.09-2.72,0-4.2-2.07-6.42.21,1.32.14,2.44.44,2.54C178.1,308.42,177.47,310.19,177.7,311.63Zm-5.3-87,1.66-1.68L171,221.32l-.35.69c.62.89,1.24,1.77,1.85,2.66-2.6.49-2.7,1.78-.24,5.21-.06-.87-.51-1.7-.5-2.52A11.55,11.55,0,0,1,172.4,224.61Zm4.34,46.84-5.12-.88-.22.73c2.92.46,5,3.2,8.67,2.72l-3.41-2.63,1.62-.4.06-.61L174,268.29l-.42.8Zm-2.63,19.47,3.73.51.54-3.39-5.52-.53-.35.55c1.17.73-1.32,2.51,1.16,2.87l-2.46,1c2.55,1.17,5.1,1.62,4.7,4.74,0,.25,1,.76,1.63.91.19,0,.73-.66.85-1.09.6-2.24.93-4.36-2.41-4.62A5.67,5.67,0,0,1,174.11,290.92Zm5.14-26.69c.34-1,2.77-2.28-.55-3.58l2.67-1.75.07-.72-3.44-.89c-.11,3.75-2.75,3.93-5.12,4.32Zm-3.32,15.22,2.57.65c0-1.39.06-2.57,0-3.73,0-.37-.42-.94-.71-1s-.79.35-1,.68c-1,1.34-1.94,2.73-3,4.21l2.56,1.31Zm50.7-104.54c5,1.63,2.65,6,3.89,9a24.6,24.6,0,0,0,.14-6.46C230.37,175.71,229.71,173.57,226.63,174.91ZM170.8,281.14c.11,2.51.53,2.81,3.21,2.27a20.53,20.53,0,0,1,2.6,0,22.12,22.12,0,0,0,2.29-.32l-.08-.36Zm60-65.81-.59.87,2.21,2c.26-.51.81-1.41.72-1.48A18.8,18.8,0,0,0,230.84,215.33Zm-49.9,35.74,0-.61-3.94-1.1,1.57,2.76Zm-9.46,45-.58.56,1,3,1.57-1.37C172.81,297.51,172.15,296.78,171.48,296.06Zm20.29-4.84v-.5h-5.33v.5Zm3.18-1.5v.39h4.67v-.39Zm-4.64,16.35-.19.85,4.2,1.14.25-1Z"/><path class="cls-1" d="M183.75,346.53c-.2-2.87-.43-5.79-.58-8.71,0-.44.34-.91.52-1.36.57.46,1.63.91,1.63,1.37a46.39,46.39,0,0,1-.46,6.77A5.31,5.31,0,0,1,183.75,346.53Z"/><path class="cls-1" d="M207,304c-1.72.24-1.48-.67-.79-1.55s1.76-1.91,2.65-2.86l.63.23c-.21.85-.43,1.71-.66,2.56Z"/><path class="cls-1" d="M200.53,303.24c-1.77.23-3.53.53-5.3.63-.51,0-1.07-.47-1.56-.8-.78-.55-1.54-1.14-2.27-1.75a6.73,6.73,0,0,1-.79-1c.34-.25.66-.64,1-.72a8.8,8.8,0,0,1,2.12-.13c1.49,0,3.21.51,3.06-1.43a34.89,34.89,0,0,1,2.77,3,8.19,8.19,0,0,1,.85,2.22Z"/><path class="cls-1" d="M174.11,290.92h-.45c-2.47-.36,0-2.14-1.15-2.87l.35-.55,5.52.53-.54,3.39Z"/><path class="cls-1" d="M134.17,213.57l.31,3.26c-2-2.21-3.56-3.77-4.89-5.53a10.06,10.06,0,0,1-1.07-2.92l-.06.07,1.12-2,3.73,7.07.93.1Z"/><path class="cls-1" d="M170.8,281.14l8,1.6.08.36a22.12,22.12,0,0,1-2.29.32,20.53,20.53,0,0,0-2.6,0C171.33,284,170.91,283.65,170.8,281.14Z"/><path class="cls-1" d="M176.67,271.39l3.4,2.63c-3.68.48-5.75-2.26-8.67-2.72l.22-.73,5.12.88Z"/><path class="cls-1" d="M172.46,224.67,170.6,222l.35-.69,3.11,1.61-1.66,1.68Z"/><path class="cls-1" d="M177.7,311.63c-.23-1.44.4-3.21-1.68-3.95-.3-.1-.23-1.22-.44-2.54,2.07,2.22,4.16,3.7,2.07,6.42Z"/><path class="cls-1" d="M230.84,215.33a18.8,18.8,0,0,1,2.34,1.4c.09.07-.46,1-.72,1.48l-2.21-2Z"/><path class="cls-1" d="M180.94,251.07l-2.34,1.05L177,249.36l3.94,1.1Z"/><path class="cls-1" d="M176.74,271.45l-3.19-2.36.42-.8,4.37,2.09-.06.61-1.62.4Z"/><path class="cls-1" d="M202.56,304.08c-1.67,1.05-3.07,2.95-5.22,1.91l3.19-2.75-.07.06,2,.84Z"/><path class="cls-1" d="M134.24,213.63v-2.92l4,1.45-4.11,1.41Z"/><path class="cls-1" d="M171.48,296.06c.67.72,1.33,1.45,2,2.18l-1.57,1.37-1-3Z"/><path class="cls-1" d="M191.77,291.22h-5.32v-.5h5.33Z"/><path class="cls-1" d="M195,289.72h4.66v.39H195Z"/><path class="cls-1" d="M190.31,306.07l4.26,1-.25,1-4.2-1.14Z"/><path class="cls-2" d="M171.73,89.51q3.15,27.12,5.74,54.29c.9,9,1.69,18.11,2.53,27.17l2.37,27.19,2.21,27.2c.68,9.07,1.42,18.14,2,27.22q2,27.21,3.41,54.48-3.17-27.12-5.74-54.29c-.9-9.05-1.69-18.11-2.54-27.17l-2.36-27.19-2.21-27.2c-.68-9.07-1.41-18.14-2-27.22Q173.15,116.78,171.73,89.51Z"/><path class="cls-2" d="M167.64,109a12.52,12.52,0,0,1-2.55-2.72,19.37,19.37,0,0,1-1.78-3.08,18.25,18.25,0,0,1-1.19-3.35,12,12,0,0,1-.41-3.7,12.25,12.25,0,0,1,2.55,2.71,19.31,19.31,0,0,1,1.77,3.08,18.52,18.52,0,0,1,1.19,3.35A12.43,12.43,0,0,1,167.64,109Z"/><path class="cls-2" d="M169.79,142.1a33.39,33.39,0,0,1-3.85-4.79,56.86,56.86,0,0,1-3.1-5.19,54.54,54.54,0,0,1-2.53-5.49,32.67,32.67,0,0,1-1.78-5.89,32.15,32.15,0,0,1,3.86,4.79A56.73,56.73,0,0,1,168,136.21,33.47,33.47,0,0,1,169.79,142.1Z"/><path class="cls-2" d="M169.83,185.85a91.13,91.13,0,0,1-4.64-9.34c-1.41-3.16-2.67-6.38-3.86-9.62s-2.28-6.52-3.24-9.85a90.22,90.22,0,0,1-2.44-10.14,91.13,91.13,0,0,1,4.64,9.34c1.41,3.16,2.67,6.38,3.86,9.62s2.27,6.53,3.23,9.85A92.48,92.48,0,0,1,169.83,185.85Z"/><path class="cls-2" d="M174.57,221.66A86.52,86.52,0,0,1,169,213.2c-1.71-2.89-3.29-5.84-4.79-8.83s-2.91-6-4.2-9.13a84.63,84.63,0,0,1-3.44-9.51,85.34,85.34,0,0,1,5.54,8.46c1.71,2.89,3.29,5.84,4.78,8.83s2.91,6,4.2,9.13A88.22,88.22,0,0,1,174.57,221.66Z"/><path class="cls-2" d="M178.39,251.56a69.93,69.93,0,0,1-6.3-6.72c-2-2.33-3.84-4.75-5.63-7.22s-3.49-5-5.08-7.6a70.15,70.15,0,0,1-4.41-8.1,71.23,71.23,0,0,1,6.3,6.73c2,2.33,3.84,4.75,5.62,7.22s3.5,5,5.09,7.6A72.44,72.44,0,0,1,178.39,251.56Z"/><path class="cls-2" d="M180.2,280a59.91,59.91,0,0,1-6.32-5.42c-2-1.93-3.87-3.93-5.69-6s-3.55-4.2-5.2-6.42a60.19,60.19,0,0,1-4.55-7,61.31,61.31,0,0,1,6.33,5.43q3,2.88,5.68,6c1.81,2.07,3.55,4.2,5.2,6.42A60.06,60.06,0,0,1,180.2,280Z"/><path class="cls-2" d="M180.46,106.38a13.2,13.2,0,0,1-.05-3.81,20.48,20.48,0,0,1,2.16-6.93,13.29,13.29,0,0,1,2.2-3.11,12.85,12.85,0,0,1,0,3.81,20.14,20.14,0,0,1-.77,3.56,21,21,0,0,1-1.39,3.37A13.09,13.09,0,0,1,180.46,106.38Z"/><path class="cls-2" d="M182.31,139.56a34.64,34.64,0,0,1,1-6.23,60.67,60.67,0,0,1,1.83-5.93c.72-1.94,1.53-3.85,2.44-5.71a35.51,35.51,0,0,1,3.25-5.42,34.34,34.34,0,0,1-1,6.23,57.34,57.34,0,0,1-1.84,5.93,58.47,58.47,0,0,1-2.44,5.72A34.94,34.94,0,0,1,182.31,139.56Z"/><path class="cls-2" d="M187.54,182.8a92.45,92.45,0,0,1,1.2-10.56c.54-3.49,1.23-7,2-10.39s1.65-6.85,2.66-10.23a91.82,91.82,0,0,1,3.47-10.05,94.74,94.74,0,0,1-1.19,10.56c-.55,3.49-1.24,7-2,10.39S192,169.37,191,172.75A94.75,94.75,0,0,1,187.54,182.8Z"/><path class="cls-2" d="M191.16,219.24a90,90,0,0,1,2.26-10.13c.89-3.32,1.93-6.6,3-9.85s2.33-6.47,3.67-9.64a90.13,90.13,0,0,1,4.47-9.37,87.88,87.88,0,0,1-2.26,10.13c-.89,3.33-1.93,6.6-3,9.85s-2.33,6.47-3.68,9.64A90,90,0,0,1,191.16,219.24Z"/><path class="cls-2" d="M194,249.64a76.73,76.73,0,0,1,3.37-8.91c1.25-2.9,2.64-5.73,4.1-8.52s3-5.53,4.69-8.21a77.61,77.61,0,0,1,5.44-7.82,74.91,74.91,0,0,1-3.36,8.91c-1.26,2.9-2.65,5.73-4.11,8.52s-3,5.53-4.7,8.21A77.51,77.51,0,0,1,194,249.64Z"/><path class="cls-2" d="M196.48,284.48a65.55,65.55,0,0,1,3.64-7.82c1.36-2.52,2.82-5,4.36-7.37s3.17-4.73,4.9-7a64.2,64.2,0,0,1,5.62-6.55,62.7,62.7,0,0,1-3.64,7.83q-2,3.76-4.36,7.36t-4.9,7A65.48,65.48,0,0,1,196.48,284.48Z"/></svg>