<svg id="Layer_1" data-name="Layer 1" xmlns="http://www.w3.org/2000/svg" viewBox="0 0 333.82 432"><defs><style>.cls-1{fill:#8dc63f;}</style></defs><title>gum</title><path class="cls-1" d="M190.42,231.5c3.52,1.08,4.64-1.76,6.64-2.89,1.74-1,2.94-2.15,5.43-1.73,1.19.21,2.76-1.15,4.1-1.88,1.14-.63,2.21-1.36,3.69-2.28a16.87,16.87,0,0,1,5.45-8.84,28.64,28.64,0,0,0,8.47-11.46c.62-1.63,2.85-2.79,4.27-4.22a9.94,9.94,0,0,0,1.65-2.25c1.33-2.48,7.41-3.08,9.12-.75.41.57,0,1.73-.27,2.52-.73,1.8-1.66,3.54-2.5,5.3-.08.17-.07.47-.2.52-5,2.17-5.16,7.57-9.37,10.37-1.6,1.06-2.15,3.33-3.49,5.57,3.29-.79,6.23-1.3,9-2.21,4.06-1.34,7.87-3.49,12-4.29,3.32-.64,5.63-2.68,8.58-3.38,3.52-.84,6.23-2.58,9.2-4.15a28,28,0,0,1,6.67-2.12c3-.71,4.37,1.41,5.43,3.16.34.56-1,2.27-2,2.95s-2.75.82-4.07,1.36c-3.12,1.28-6.21,2.61-9.26,4a8.69,8.69,0,0,0-1.89,1.43c3.41.5,6.94,1,10.46,1.54s4.7,2.94,2.7,5.42c-.49.61-2.38,1.16-2.79.87-3.19-2.33-7.07-.14-10.46-1.46-2.22-.86-5-.62-7.29-1.33-3.74-1.13-7-.37-10.44.94-4.67,1.78-9.49,3.24-14.19,5-1.21.45-2.12,1.5-3.31,2-3.45,1.44-6.94,2.8-10.49,4.05a30.47,30.47,0,0,1-3.8.56,21.59,21.59,0,0,0-2.6.81c5.58.73,11.08,1.46,16.58,2.16a4.46,4.46,0,0,0,1.59,0c2.17-.49,4,.34,4.45,1.94a5.13,5.13,0,0,1-1.3,4.31c-.65.68-2.8.3-4.28.31s-3-.09-4.48-.14a19.58,19.58,0,0,1-4.15-.21c-2-.52-3.77-1.49-5.7-.05a.42.42,0,0,1-.31.05c-3.24-1.31-7-.31-10-1.33-4.26-1.44-7.29-.9-10.27,1.74a8.51,8.51,0,0,1-1.75,1.27c-4.42,2.23-8.9,4.35-13.25,6.66-1.1.58-1.8,1.71-2.77,2.67l6.21,1.24-.39-.49c5.16-2.19,10.33-4.36,15.47-6.58.85-.37,1.55-1,2.38-1.42,2.09-1,4.37-1.33,5.68.7.56.87.25,3-.56,3.55a84.91,84.91,0,0,1-8.52,4.56c2.19,3.24,5.9,1.91,9.11,2.2a4.93,4.93,0,0,0,2.38-.58q4.47-2.16,8.84-4.45a4.56,4.56,0,0,1,5.79.94c1.11,1.1,1.12,2.11-.63,2.95-1.59.77-3,1.82-5.05,3.09,3.93,1,7,2,10.11,2.69,2.83.63,1.71,2.51,1.24,3.58s-2.29,2.56-3.16,2.4c-2.36-.44-4.84.42-6.65.05-3.92-.82-8.16,0-11.65-1.5-2-.86-3.76-.6-5.64-.85-5-.7-10-1.61-15-2.29-4.07-.55-8.2-.82-12.27-1.38-1.84-.25-3.57-1.11-5.41-1.33a7.31,7.31,0,0,0-3.92.61,28.55,28.55,0,0,0-5.52,3.79,46.15,46.15,0,0,0-4.23,4.88c1.42,0,2.44,0,3.46,0,3.69-.08,7.42-.74,10.84,1.35,1.49.92,2.4,1.87,1.27,3.17a7.64,7.64,0,0,1-3.58,2.18,27.29,27.29,0,0,1-5.16.46,2,2,0,0,1-.32.06c-4-.44-8.19-.36-11.91-1.49a6,6,0,0,0-6.46,1.48,12,12,0,0,1-6.62,3.74c-.83.14-1.55,1.32-2.07,2.15-1.48,2.3-2.76,4.69-4.24,7-1.31,2.05-2.79,4-4.44,6.38l3.16-.55c-1.3,2.88-2.55,5.51-3.66,8.19-1.27,3.1-2.41,6.25-3.62,9.38-.14.36-.57.88-.43,1,3.06,3.38-1,5.85-1.45,8.75-.42,2.4-2,4.32-1,7.3s-1,6.39-1.66,9.62c-1,4.91-2.11,9.81-3.18,14.73,3.08-2.42,6.21-4.74,9.13-7.25,2-1.74,3.55-3.93,5.66-5.58,1.82-1.42,4.29-2.19,6.17-3.57a6.36,6.36,0,0,0,2.48-3.51c.86-4.75,2.52-9.12,6.18-12.81a6.3,6.3,0,0,0,.91-1.79c.83-1.78,1.65-3.57,2.59-5.59-3.56-2-3.18-5.25-2.31-8.84.64-2.64.46-5.42.72-8.13a26.8,26.8,0,0,1,.59-2.74c.15-.77.19-1.56.37-2.33.3-1.32.4-3.61,1.06-3.75,2-.42,4.2,0,6.32.14.2,0,.5.43.51.66.06,3.08,0,6.15.15,9.22a38.56,38.56,0,0,0,.65,4.38c1.53-1.14,3.37-2.49,5.19-3.86.4-.3,1-.72,1-1-.36-3.57,3.36-4.84,5.22-7.13,1.21-1.49,4.64-1.39,6,.35.49.65-.44,2.21-.9,3.29-.67,1.57-1.49,3.09-2.24,4.63l.9.68c1-.34,2.09-.63,3.09-1,2.3-.88,4.47-1,6.13.92,1.38,1.59,1.26,2.87-1.13,3.79-1.16.44-2,1.46-3.11,2.1a5.3,5.3,0,0,1-2.22.79c-3.68.27-7.37.43-10.06.58l-15.27,23.52c2.2-1.27,3.69-2.57,5.48-3.07,4.14-1.15,7.36-4.15,11.14-5.08,4.18-1,7.35-3.82,11.69-4.18a2.83,2.83,0,0,0,1.15-.48c3.82-2.23,7.58-4.55,11.46-6.69,2.25-1.25,4-2.46,5.17-4.86a43.61,43.61,0,0,1,7.83-10.93c3.11-3.17,4.88-6.95,7.62-10.24.38-.45.85-1.17,1.32-1.19,2.95-.14,3.17-2.44,4.27-4,1.36-1.93,2.56-3.73,5.82-3,.89.19,2.07-.59,2.72-.8a17.65,17.65,0,0,1,.65,3.6,3.77,3.77,0,0,1-1.07,2.21c-1.8,2-4.2,3.32-4.85,6.4s-3.29,5.76-5.37,8.44-4.71,5.43-7.38,8.46c3.63-1.87,7-3.71,10.44-5.35,4.69-2.24,9.59-4.15,14.18-6.53,2.95-1.54,7.15-2.27,7.18-6.42a3.64,3.64,0,0,1,.61-1.6c2.91-4.84,5.85-9.68,8.87-14.67,1,.7,1.62,1.49,2.43,1.68,3.49.82,4,2.29,1.62,4.6-.15.14-.39.36-.34.46,1.71,3.78-1.27,5.88-4.05,8.16,3.36-.65,6.41-.5,9.52-2.32,3.89-2.27,8.12-5,13.48-4.61.66,0,1.36-.53,2-.79,4.47-1.74,4.47-1.74,7.86,2.48l-16.9,7.75.09.58c3.38.16,6.84,0,10.11.6a8.85,8.85,0,0,1,5.16,3.08c.58.83-1,2.82-1.56,4-4.23-.28-8-.68-11.71-.73-2.85,0-5.73.61-8.58.51a26.84,26.84,0,0,1-6.87-1.31c-2.86-.88-4.83-.16-7.39,1.21-5,2.7-9.53,6.37-15.82,7.3-2,.3-3.64,2.25-6,3.84,5.18.62,9.8,1.17,14.42,1.76a11.08,11.08,0,0,1,2.47.64c2.63.94,5.24,1.94,8,3v3.93c-2.78.16-5.91.86-8.79.39-5.09-.83-10-2.64-15-3.51-4.42-.75-9.19-1.61-13.44-.85-3.68.65-6.87,3.47-10.24,5.39-.81.45-1.4,1.45-2.22,1.59-4.56.78-7.54,3.85-11.36,5.68a31.31,31.31,0,0,1-3.79,1.3l-.13.79c1.05.22,2.2.81,3.13.61a31.46,31.46,0,0,1,17,.84,4.52,4.52,0,0,0,1.56,0c.65,0,1.43-.27,1.93,0a28.12,28.12,0,0,0,9.63,2.06c1.64.1,2.86,4.08,1.9,5.68-1.16,1.94-3.1,1.62-5.1,1.16a25.25,25.25,0,0,0-3.16-.26c-2.28-.23-4.55-.48-6.54-.69a48.67,48.67,0,0,1,5.42,5.51,4,4,0,0,1,.12,4c-1.34,1.84-2.42,0-3.52-.76-1.68-1.17-3.55-2.17-5.12-3.45-2.07-1.68-3.62-4-6-5.23s-5.59-1.74-8.5-2.29c-3.82-.71-7.69-1.24-11.57-1.7a18.17,18.17,0,0,0-5.26,0,27.64,27.64,0,0,0-11.29,4.48c-2.17,1.57-4.34,3.15-6.67,4.53-4.56,2.7-9.23,5.27-13.38,7.63l14.61.71c.92-3.09,4.23-4.21,7.63-5.33,1.86-.62,3.62-1.49,5.42-2.26a13.17,13.17,0,0,1,1.43-.66c3.24-.9,6.48-1.84,9.77-2.6,1.59-.38,3.51-.88,4.21,1.24s.33,3.68-2.46,4.59c-3.34,1.09-6.51,2.56-9.71,3.95-.51.22-.76.87-1.55,1.85,1.48.15,2.61.28,3.75.37,3.72.32,7.47.49,11.17,1s1.77,3.24,2.07,5c0,.26-2.29.87-3.54,1.25a12.11,12.11,0,0,1-3.55.86c-5.08-.13-10.16-.42-15.24-.7a22.35,22.35,0,0,1-3-.72c2.64,2.2,4.8,3.72,6.57,5.54s.78,3.83-.21,5.41c-2.46-.72-4.65-1.35-6.83-2a1.16,1.16,0,0,1-.73-.54c-1-2.91-4.49-3.91-6.2-6.12-2.39-3.1-6.35-3.85-9.31-3.52-4,.44-6.89-1.08-10.25-1.79-.74-.15-2.19,0-2.31.25-1.48,3.71-5.44,4.74-8.86,6.18-2.56,1.07-4.09,2.33-3.86,4.91.26,2.82.81,5.65.59,8.44-.38,4.89-1.35,9.75-1.87,14.63-.41,3.86-.4,7.75-.83,11.6-.12,1.07-1,2.79-1.78,2.93a6.52,6.52,0,0,1-4-1.25c-3.24-2.13-5.09-4.81-3.83-8.58,2.05-6.09.72-12.18-.21-18.26q-.58-3.8-.93-7.61c-.06-.55.34-1.14.78-2.42.77,2,1.25,3.24,1.74,4.5l.53,0a20.09,20.09,0,0,0,.16-2.32c-.21-4.44-.25-8.89-.79-13.3-.2-1.68-1.49-3.28-2.4-4.86-1.15-2-3.78-3.49-2.9-6.26.09-.28-.56-.75-.88-1.12-.45-.53-1.35-1.08-1.31-1.57.34-3.84-2.67-7-2.93-10.67-.07-.92-1-1.8-1.51-2.71-1.31-2.25-4-4.25-2.38-6.24-1-3.09-1.75-5.44-2.56-7.78a11.89,11.89,0,0,0-.9-1.73,60.29,60.29,0,0,0-3.11-5.62c-1.19-1.74-2.93-3.19-4.08-4.94-.67-1-.66-2.38-1-3.58l.84-.77q-7.43-2.74-14.84-5.51c-4.52-1.69-9.05-3.37-13.55-5.11-1.46-.57-1.9-4-.76-5.71s2.58-1.15,4.22-.59c1.24.43,2.72.35,4,.73,1.7.5,3.28,1.35,5,1.83,1.34.38,3.45,1,4.09.5,1.64-1.34-.76-1.8-1.4-2.72a41,41,0,0,1-2.48-4.62c-.21-.4-.26-.86-.48-1.25-2.31-4-4.52-8-7-11.88-1.38-2.17-3.33-4.05-4.81-6.17A26.81,26.81,0,0,0,37.16,251c-1.42-1.13-.16-4.46,1.85-5.49s3.93-1,5.31.92C48.08,251.67,53.59,256,56,262c.48,1.21.9,2.44,1.32,3.67.13.36,0,.8.24,1.1,2.41,3.53,4.85,7,7.71,11.17-.66-7-1.48-13.26,1.2-19.46a15.58,15.58,0,0,0,2.76.59c3.28.06,3.77.55,2.48,3.28-.84,1.79-1.34,3.36.56,4.87a1.9,1.9,0,0,1,.59,1.3c.11,2.91.11,5.83.22,8.74a18.6,18.6,0,0,0,.44,3c.47,2.39.63,4.69-2.33,6.49a32.43,32.43,0,0,1,3,2.46c1,1,2.28,2.12,2.4,3.27.47,4.49,4.87,7.12,6.12,11.56.49-4.11.73-7.71,1.41-11.24.59-3.09,1.73-6.11,2.51-9.18.27-1.06-.11-2.27.28-3.27s.27-3.13,2.89-2.6c2.37.48,4.58.91,4.5,3.77-.11,3.65.3,7.32.1,11-.27,5.06-.9,10.1-1.42,15.15a2.59,2.59,0,0,1-.67,1.58c-4.93,4.81-2.09,8.89,1.52,12.92a4.18,4.18,0,0,1,.88,1.5c1.2,4,2.34,7.94,3.53,11.9a7.42,7.42,0,0,0,.88,1.3c1.56-3.91-.77-7.93,1.48-11.3l1.17-.05.72,7c2.48-8.64,3.08-17.38.65-26.2a10.27,10.27,0,0,1-.23-3.67c.05-.6.71-1.17,1.09-1.75a9.71,9.71,0,0,1,1.57,1.49,11.54,11.54,0,0,1,.85,2.24c1.22-4.69,1.84-9.16,3.59-13.27,1.92-4.49,1.48-8.83.42-14l3.73,2.29c1.06-2.47,2.18-4.82,3-7.24.24-.71,0-2.1-.59-2.4-4.53-2.4-4.38-6.08-4-9.94a11.48,11.48,0,0,0-.56-3.23c0-.19-.24-.35-.23-.53.13-4.07.3-8.15.42-12.23a6.45,6.45,0,0,0-.22-2.6c-1.1-2.68-1.69-5.27.31-7.85,1-1.34.35-2.37-1.3-2.35-5,.07-6.67-3.81-9.68-6-2.23-1.62-3.7-4-5.43-6.16-1-1.24-1.76-2.65-2.8-3.86-.68-.79-1.81-1.27-2.52-2s-2-2.21-1.72-2.71a14.4,14.4,0,0,1,4.11-4.16c.41-.27,2.38.87,3.32,1.65,3,2.46,5.83,5,8.64,7.63,1.21,1.11,2.17,2.41,3.52,3.94a10.06,10.06,0,0,0-.53-8.48c-1.11-2.34-.78-5.3-.63-8,.11-1.93-1.94-5.44-4-6.37a11.2,11.2,0,0,1-4-2.77c-2.4-2.91-4.2-6.14-7.71-8.37-1.06-.67-1-2.71-1.49-4.37-3.59-.15-6-1.5-6.35-5.38-.11-1.42-2.26-2.65-3.21-4.11-1.21-1.86-.11-4.64,2.63-5.3,1.3-.31,3.23,1.13,4.76,1.94a20.08,20.08,0,0,1,2.58,1.95,10.66,10.66,0,0,1,1.72,1.24c2,2.39,3.95,4.85,6,7.23,1,1.21,2.27,2.3,3.41,3.44l.81-.41c-1.18-4.86-2.19-9.77-3.61-14.58-1-3.31-2.79-6.44-3.67-9.76-.46-1.73-.43-4.19.68-5.44s3.78-1.24,5.81-1.59a2.17,2.17,0,0,1,1.66,1.1c1.07,3.58,2,7.19,3,10.8a9.4,9.4,0,0,0,.23,1.08c1.26,2.93,2.54,5.85,4,9.11.46-1.33,1-2.65,1.36-4,.83-3.18,1.35-6.44,2.4-9.57.94-2.79,5.4-3.74,7-1.54.81,1.13.48,2.83.89,4.23a3.87,3.87,0,0,0,1.82,2c.13-3.42,5.56-5.3,3.27-9.26l4,4.57,2.21-13.83,1.45-.09c.77,2.72,1.23,5.55,2.41,8.13s3.13,5.14,4.89,7.91c1.69-3.89,3.78-7.66,9.45-8.72,2.47,3.3.47,6.52-.68,9.75-.89,2.49-2,4.93-2.71,7.46-.32,1.17.15,2.5.3,4.2l2.75-2.55.83.15v3c0,1.58-.41,3.29.1,4.73,2.32,6.52-.66,12-4.71,16.95-1.93,2.36-1.26,3.76-.36,5.19a66.33,66.33,0,0,0,5-7.07c1-1.83,1.21-4,1.65-6s.9-4.06,3.6-5c.53-.17.84-1,1.09-1.62,1.31-3.1,2.47-6.25,3.92-9.29.4-.85,1.59-1.41,2.42-2.1l.64.59c.85-.93,1.73-1.84,2.53-2.8,1.47-1.76,2.43-3.59.6-5.61-2.1-2.32-2.33-4.82-1.77-7.71.5-2.54.15-5.22.1-7.83,0-1.58-.2-3.16-.32-5-3.58-.76-6.8-2.28-7.93-5.93a1.41,1.41,0,0,0-.8-.84c-3.94-.89-4.35-4.36-6.38-6.63-1.31-1.46-.19-4.22,1.92-5s3.61.08,4.68,1.86c.5.82,1.66,1.34,2.49,2,1,.82,2,1.65,2.95,2.52.67.61,1.25,1.3,2.1,2.21,1-3.91-.84-6.55-3.93-8.53a21.26,21.26,0,0,1-5.69-6.15c-.39-.58.86-2.5,1.9-3.15a4.28,4.28,0,0,1,3.63.19,53.71,53.71,0,0,1,5.47,5.24c.12-.34.69-1,.47-1.43-1.37-2.4-.81-5.73-4.41-7.09a3,3,0,0,1-1.14-1c-2.22-2.89-4.38-5.8-6.63-8.67a9.09,9.09,0,0,0-1.81-1.54c-.65-.49-2-.94-1.94-1.37.15-3-2.73-4.37-4.34-6.43-1.4-1.79-.15-4.43,2.82-5.42.84-.28,2.86.89,3.58,1.83,1.08,1.44,1.79,2.94,4.12,3a1.61,1.61,0,0,1,1,.7c2.06,2.84,4.08,5.71,6.14,8.56a22,22,0,0,0,1.53,1.69l1-.29c-.37-1.44-.7-2.9-1.14-4.33-.28-.91-1.23-1.86-1-2.64a8.73,8.73,0,0,0-2.07-8c-.83-1-1.43-2.18-2.16-3.26-.16-.24-.52-.38-.66-.62-2.68-4.46-5.4-8.9-8-13.42-1.15-2.05.23-4.32,3-4.8,2.26-.39,4.28,0,5,2.48a6.35,6.35,0,0,0,1.93,2.29c.5.47,1.52.66,1.76,1.16,1.82,3.83,3.5,7.7,5.26,11.55a19.2,19.2,0,0,0,1.2,2.17,20.75,20.75,0,0,1,2,3.2c.77,2.11,1.27,4.29,2.11,7.23,1.46-3.92,2-7.25,3.85-9.87,2.3-3.28,5.56-6.08,8.66-8.88,2.07-1.88,3.53,1,5.45,1a18,18,0,0,1-.42,2.85A3.63,3.63,0,0,1,190.89,82c-1.52,1.25-2.71,2.54-2,4.52a.76.76,0,0,1-.14.55q-3,4.59-6,9.18c-.15.23-.67.36-.69.56-.43,4.91-5.13,6.89-8.68,9.65-.13.1-.08.36-.11.54,4.39,2.64,4.38,2.68,2.59,7.35-.28.73-.54,2-.11,2.31,2,1.67,1.62,3.52,1.18,5.53a5.59,5.59,0,0,0,.31,2.36c.15.63.83,1.39.6,1.83-2.3,4.45.42,9-.62,13.59-.73,3.25-.14,6.73-.14,10.34.74-.28,1.16-.32,1.25-.49,1.57-3.1,2.44-6.69,4.82-9.2,2.8-3,1.73-7.8,6.56-9.54.33-.12.53-.56.76-.87,2.94-4.1,6-8.13,8.75-12.33,1.56-2.37,2.3-5.18,3.95-7.5,2.24-3.17,2.58-7.1,6.6-9.7,2.12-1.37,2.6-5,3.15-7.79.75-3.63.78-7.37,1.25-11,.26-2.09.79-4.16,1.2-6.23.76-3.82,1.58-7.62,2.26-11.45.39-2.17,2.43-4.26,4.2-4.06,2.42.29,4.37,2.58,4,4.8-1.14,6.22-2.33,12.44-3.55,18.88a247.6,247.6,0,0,1,37.17-39.27l5.94,3c-6.89,5.88-11.56,12.86-17.41,19.09s-11.1,12.63-17.14,19.56c6.54-2.18,12.05-4.23,17.73-5.84,3.27-.92,6.82-1.09,10.23-1.64,2.18-.35,2.64.77,3.23,2.29.68,1.78-.27,2.44-1.76,3L254,86.51c-.1,0-.22.11-.3.09-4.36-.91-7.5,2.07-11.39,2.82-3.49.67-6.62,2.68-10,4-3.62,1.37-7.31,2.59-11.19,4L213,110.69c5.31-1.75,9.79-3.34,14.36-4.67,2.78-.81,5.71-1.22,8.58-1.81.31-.06.77.05.94-.11,4.38-4,8.55-.69,12.91.21V109a13.28,13.28,0,0,1-1.84.6c-3.87.73-7.77,1.37-11.63,2.13a21.5,21.5,0,0,0-2.62,1c-1.38.47-2.8,1.22-4.2,1.22-2,0-3.6.2-4.75,1.72a1.35,1.35,0,0,1-.79.48c-4.79,1-9.58,1.87-15.59,3-2.09,2.48-5.2,6-8,9.69-.78,1-.43,2.67-1.17,3.74-2.81,4.08-5.86,8.05-8.82,12.05-.06.08-.21.15-.21.21.24,3.46-2.9,5.6-4.27,8.43-.29.59-.28,1.39-.73,1.83-4.36,4.3-6,9.92-9.44,14.64a31.61,31.61,0,0,1-4.13,4.7c-4.81,4.45-3.91,11-8.71,16.18l16.24-8c1-3.14,1.91-5.94,2.82-8.73.18-.54.78-1.13.64-1.57-1.16-3.57,2.69-5.34,4-8,.32-.67,4-.61,5.8-.09s.25,2.2.38,3.24c.45,3.6-1.25,6.55-2.6,9.66-.08.17.23.46.18.36,3.28-1.74,6.48-3.56,9.81-5.13,1-.46,2.91.15,3.44-.41a11.87,11.87,0,0,0,2.08-4.12c.79-2.08,1.32-4.23,2.14-6.3.92-2.3,2-4.53,3.06-6.8.16-.35.1-.89.37-1.06,3-1.95,4.47-4.79,5.77-7.72a35.06,35.06,0,0,0,1.89-3.91c.95-3.18,6.43-5.62,9.66-4a2.66,2.66,0,0,1,.83,2.71c-1.25,2.59-4.12,4.56-3.67,7.82.07.54-.56,1.22-1,1.73-1.92,2.08-4.35,3.68-4.16,7,.09,1.59-2.12,3.28-3.58,5.34,2.61.07,4.7.89,5.67-1.52a.68.68,0,0,1,.47-.37c5.32-.34,8.22-4.75,13-5.93a10,10,0,0,0,2.09-.76c4.16-2.08,8.19-4.39,12.5-6.2a15.26,15.26,0,0,1,6.84-.87c.82.07,2.34,2.6,1.94,3.19a16.06,16.06,0,0,1-4.59,4,48.18,48.18,0,0,1-5.17,2.63c-.27.14-.45.42-.73.56q-7.32,3.71-14.67,7.37l-2.2,1.06-6.49,3a15.69,15.69,0,0,0-3.37,1.9c7.53.21,15-.24,22.3,4-.42,1-.67,2.73-1.79,3.78-.7.65-2.7.26-4.12.3-.6,0-1.43-.29-1.76,0-1.95,1.45-3.72,1.13-5.61-.06a4.91,4.91,0,0,0-1.79-.36c-4.85-.66-9.71-1.26-14.54-2-.83-.13-1.51-1-2.12-1.45-6.73,4.3-15.27,6-21.5,10.87l.31.91c3.86-.28,7.74-.43,11.57-.85,4.27-.47,7.76,1.85,7.24,5.05a2.76,2.76,0,0,1-3.56,2.46c-1.77-.43-3.08-.49-4.38.68a1.85,1.85,0,0,1-1.2.4c-4.27-.2-8.54-.46-12.81-.68-2-.1-4.28.4-5.91-.3-5.21-2.22-8.44,1-12.39,2.69-3,1.28-6.34,1.79-10.86,3-1.88,3.73-4.36,8.66-6.85,13.59l.66.5,3.83-1.2.88,1.81-.65-.73c4-3,8-6.1,11.94-9.13a8.28,8.28,0,0,1,1.62-.92c2.35-1.11,4.72-2.19,7.67-3.55-1,3-2.05,6.11-3,9l12.13-4.38.47.65-2.66,4,12.94-3.29.63,1-7.13,5.36h8.64l-8.25,8.79c-.23-.14-.09,0,.06,0l5.12,2.15c-1.53,1-3,2.09-4.6,3a17.86,17.86,0,0,1-3.17,1Zm14.4,7.28c-.37-.62-.59-1.63-1.14-1.78-2-.57-5.37,1.14-6.51,3.26,1.1-.07,2-.14,2.9-.18l4-.19c1,2,2.5,1,4,.58s4.3-1.05,4.61-.6c2.16,3.18,4.62,1.67,7.14.77,3.95,3.12,4.79,2.91,6.73-2.18l-4.16-.23-.18.78,1.48,1.41c-1.47,0-3.63-.56-3.63-1.07,0-2.49-1.95-1.9-3.39-1.89-2,0-4.65,1.06-5.88.29C207.94,236,206.55,237.34,204.82,238.78Zm9.79-74.61c1.49-2.06.67-5.11,3.7-6.57.32-.16.42-1.43.09-1.72-2-1.75-.32-2.09,1.06-3a61.36,61.36,0,0,0,5.8-5l-2.74-.4c.11-1.23.16-2.26.31-3.27.16-1.16.4-2.3.61-3.45l.59,0,1.11,3.77,3.56-4.82-.47-.72a35.57,35.57,0,0,0-5.56,1.37c-2.74,1.15-1.94,3.19-.88,5.21-5,.92-4.62,4.44-5.28,7.32a7.86,7.86,0,0,0-3.16,2.34,11,11,0,0,0-1.26,2.55c-.49,1.13-.94,2.28-1.62,3.93l3.44-1c.3,1.35.53,2.41.75,3.46a14,14,0,0,1-3.35-.78c-1.92-1-2.93-.18-3.46,1.22a15.94,15.94,0,0,0-.55,3.53l.73.54c1.11-.65,2.27-1.24,3.31-2S213.53,165,214.61,164.17Zm13.68,43,6.26-3.7c-1.56-2.87,2.14-3.78,2.83-5.8a8.6,8.6,0,0,0,.2-2.1l-.91,0-8.38,11.63c1.18-2.37,2.31-4.75,3.55-7.1.88-1.68,1.91-3.31,2.87-5-3.09.27-3.29,2.05-3.77,3.74-.19.69-1,1.88-1.26,1.83-4.2-.94-3.23,1.92-3.82,3.72a6.19,6.19,0,0,1-1.5,2c-.31.32-1.2.52-1.19.75.16,2.78-.7,4.5-4.14,5.71-2,.69-1.15,4.84-5.08,5-.35,0-.77.87-1,1.4-.45,1.22-.78,2.48-1.15,3.72a5.66,5.66,0,0,0,2.8-1.42c.77-.69,1.45-1.45,2.49-2.51l.32,1.8c4.81-1.45,6.43-3.3,6.35-6.71l5.54-4-1.05-.37ZM52.18,263l2.61,5.16-3.08,1.63,5.93,4.87c-1.61,3.36-1.32,4.07,2.45,5.67l1.68-2.74c.32,1.93.55,3.37.8,4.87l-2.15,1.51a21.22,21.22,0,0,0,3.14,3.26c.68.48,2,.31,3,.43.07-.78.42-1.65.14-2.32-.6-1.44-1.89-2.71-2.23-4.17-.61-2.62-1.5-4.89-4.56-5.89.64-3.68-.36-5.46-2.8-6.33-1.51-3-3-5-3.62-7.31-.65-2.51-.55-5.12-4.34-5.62.06-2.44-.24-4.09-2.65-4.37l-5.18-5.13-3.43,2.91.3,1a28.92,28.92,0,0,0,4.9,1.39c3.26.33,3.4,2.94,4.6,4.64.51.71-.42,2.2-.78,3.7.08,0,.85.67,1.28.52,2.72-.9,3.45.65,4.11,2.35l-2.2-.91c-1,3.15-.34,4.1,2.52,3.81C52.45,264.94,52.32,264,52.18,263Zm82.2-99.69-6-4.15c-2.17,2-2.42,6.32-.18,8.41,1.84,1.72,3.85,3.31,6.27,5.37l3.4-3.77c.93,2.9,1.52,5.25,2.46,7.49.82,2,1.6,4.16,3.16,5.67,3,2.91,3.18,8.81-.24,11.77a68.36,68.36,0,0,0,1-7.21,6.25,6.25,0,0,0-1.3-3.09c-1.19-1.94-2.74-3.74-3.75-5.74a46.07,46.07,0,0,1-2.13-6.38c-.79,1.07-1.37,1.5-1.3,1.81,1.36,5.86,2.8,11.7,4.22,17.54l-1.11.26c-.72-2.36-1.35-4.74-2.17-7.07-1.39-3.91-2.37-8-4.54-11.58-1.62-2.64-4.82-4.56-7.39-6.73-1.87-1.58-7.19-2.29-8.62-1.69,2.14,2,5.43,3.76,6.48,6.28,1,2.32,3.52,5.92-1.31,8.18.9,1,2.67,2.15,2.46,2.85-1.11,3.68,1.87,5.42,4.47,6.63,4.19,1.94,7.35,4,8,8.49.15,1,3.75,2.68,4.16,2.38,3.07-2.26,7.22-4.57,8.2-7.56,1.4-4.34.09-9.23-1.64-13.64l-4.37.94c4.78-3.21,5.46-3,6.4,1.7.47,2.35.66,4.74,1,7.25,3.82-4.35-.86-8.48-.06-11.67-1.5-1.35-3.3-2.27-3.21-3a74.9,74.9,0,0,1,2.18-10.72,76.45,76.45,0,0,1,2.72-7.24l-1.27-.79c-1.38.82-3.06,1.42-4,2.5-1.25,1.37-1.86,3.17-2.9,4.7a3.78,3.78,0,0,1-1.89,1.29c-.29.09-1.12-.53-1.36-1-1.93-3.56-3.78-7.15-5.74-10.92a10.83,10.83,0,0,0-.19,10.76c.24.5,0,1.16,0,1.75Zm26.45,53-1.76.68c.11-.68.19-1.14.31-1.88l-3.13,2.48c-.1-1.47-.18-2.51-.32-4.42-5.41,5.55-5.44,12.58-9.71,17.21.72.79,1.39,1.24,1.6,1.82.88,2.42,2.48,4.37,5.54,4.11,5-.43,10-1.13,15-2.05s9.56-1.75,13.32,2.47c.41-4-4.22-4.86-5.78-7.39,4.61-2.18,8.61.3,13.2,1.29L188,228.06c-3.46.74-4.55-2-6.7-3.07.52-.19,1.3-.68,1.52-.53,3.39,2.27,5.58.09,8-1.79a9.08,9.08,0,0,0-3.11-.5c-.49,0-1.16.31-1.44.12-1.11-.74-2.17-2-3.45-.43a12.29,12.29,0,0,0-1.39,3.21l-3,1.82,4.2-7.43-.48-.24-2,1.5-.32-.26,4.74-6c3,2.08-.82,3.47-.39,5.27l7.87-2.58.16.49L196.8,213c-1.87.09-3.22.21-4.57.21a10.84,10.84,0,0,1-2-.36c.29-.64.39-1.45.91-1.9,1.34-1.16,2.85-2.16,4.3-3.23a9.21,9.21,0,0,0-3.66.46c-4.15,1.48-8.41,2.66-10.64,6.73-1.07,1.95-3.41,3.38-5.17,5l-.14-.23,9.43-12.63-.74-.61L170,212l-.84-1.11a27.82,27.82,0,0,0,4-3.08,36.83,36.83,0,0,0,3.24-4.84c-6.23.56-8.72,4.38-12.08,7.15l2.56-.92-6.18,7.19Zm-36.29,60.55c2.31-2.05,4.93-4.36,7.51-6.7.44-.39.65-1,1.1-1.36,3.67-3.14,7.31-6.32,11.1-9.35,1.87-1.49,4.05-2.68,6.07-4,.52-.34,1-.76,1.47-1.1,2.58-1.74,6.14-3,7.56-5.3,2.93-4.73,9.67-4.41,12.88-8.41a.78.78,0,0,1,.57-.24c3.93.85,4.4-2.69,7.38-3.91-3.49-1.79-6.46-2.42-9.81-1.56a76.21,76.21,0,0,1-9.72,2.2c-4.5.54-9.28,1.65-13-2.08a3.14,3.14,0,0,0-2.22-.28c-4.12.8-9.83,5.9-9.9,9.81-.08,4.75-2.7,8.46-4.91,12.42a8.72,8.72,0,0,0-.95,2.36c-.55,2.65-.76,5.37-1.55,8C127.06,270.68,125.61,274,124.54,276.82Zm6.35-79.3c-.48.59-2.09,1.82-1.83,2.35,1.71,3.47-3.47,5.11-2.67,8.38.23.94-2,2.22-2,3.33,0,2.73-1.34,4.63-3.32,6.47a3.31,3.31,0,0,0-1.1,2.21c.16,5.24.52,10.47.72,15.71.16,4.49,2.69,8.91.57,13.5-.13.29.42.82,1,1.88,1.65-3.84,3-7.06,4.42-10.29.79-1.86,1-4.21,2.4-5.5,3.6-3.21,3.63-7.26,4.68-11.15.4-1.46,1.61-2.77,2.55-4.1.74-1,1.93-1.9,2.37-3,.7-1.76.77-3.71,1.42-5.49.39-1.1,1.64-2,2-3.05a11.59,11.59,0,0,0,.81-5.08c-.2-1.33-.69-2.74-3.37-3C136.67,200.4,133.94,198.69,130.89,197.52Zm102.06-34c3.21-.82,5.9-1.49,6.78-4.54.17-.6,1.87-1.35,2.7-1.23,2.17.33,5.7-.67,6.22-2.57.43-1.54,1.16-1.56,2.61-1.7a13.9,13.9,0,0,0,5.08-1.53c.41-.22-.28-2-.41-3a6.39,6.39,0,0,1,.31-1.49c-3.51,1.49-7.65,1-8.2,5.34-5-1.68-7.14,1.06-8.78,4.3-4.4-.87-5.94-.15-8.23,3.33a3.2,3.2,0,0,1-2.53,1.09c-2.54-.75-4,.06-4.84,2-.53,1.24-1.07,1.82-2.84,1.39a7.46,7.46,0,0,0-7.92,3.53,4.17,4.17,0,0,1-2.41,1.82c-2.48.43-4.35,1.06-5.39,3.42a2.9,2.9,0,0,1-4.45,1.14,3.12,3.12,0,0,0-2.52,0,57.2,57.2,0,0,0-4.82,3.67c-.62.49-1.2,1.42-1.83,1.44a12,12,0,0,0-9.1,4.64c-2.36.26-4.5-.06-5.3.7a13.82,13.82,0,0,1-6.12,3.25c-4.15,1.25-7.46,4.63-11.69,7.49,6.16,1.29,6.85,1.09,10.06-2,.43-.41,1.36-.38,2-.66,2.73-1.23,5.46-2.48,8.15-3.78,1.07-.52,2-1.36,3.07-1.78,2.36-.87,6.07-1,6.9-2.46,1.1-1.92,2.74-2.23,4.28-3.1,2.46-1.38,5.86-1.61,7.1-4.52.12-.26,1.22-.13,1.81-.32,2.24-.7,4.74-1.1,6.59-2.27,2.53-1.6,4.52-3.85,6.82-5.75a12.74,12.74,0,0,1,2.38-1.25l1,1.05-3.36,1.58.64.62c1-.47,2.51-.72,3-1.47,1.53-2.31,3.94-2.41,6.5-2.79a4.88,4.88,0,0,0,3.25-2.21c1-2.13,1.52-2.75,4.54-2.84ZM175.16,258a8.21,8.21,0,0,0-12.82,2.4H170c1.65.63,3.52,2,4.56,1.63,3.17-1.15,5.62.6,8.39.85,1.85.16,3.74,0,6,0,1.74,1.76,4.28,2.12,7.25,1.3a3.3,3.3,0,0,1,2.51.49c2.21,1.89,4.39,2.16,6.8.13,2.77,2.5,5.6,4.22,8.63.77,4.59,2.65,5.67,2.32,6.1-2.15l-6.78-.49c-1.34-2.69-3.93-1.48-6.35-.9a14,14,0,0,0-4.65-1.52c-.45-.06-1.06,1-1.82,1.71.15,0-.19,0-.48-.05s-.73-.3-.74-.48c-.3-4.44-3.86-2.49-6.41-2.51-.83,0-2.08.28-2.4-.08-2.9-3.19-6.14-1.89-9.6-.66C179.51,256,177.52,255.7,175.16,258ZM220.85,91.72l1,.52c1.34-1.37,2.7-2.73,4-4.11.6-.63.95-1.64,1.68-1.91,4.07-1.51,3.59-6.47,7.88-7.74.08,0,.19-.17.17-.23-.93-2.37,1.34-2.93,2.87-4,.6-.4,1.44-1,1.47-1.47.14-3.28,3.67-4.21,5.5-6.29a6,6,0,0,0,1.1-1.4c1.28-3,6.38-3.71,6.2-7.64,0-.07.36-.19.56-.23,3.11-.53,3.91-2.36,3.51-4.59l5.83-3.86c-3.58-2.9-4.42-2.56-6.75,2.53-5.49-1.41-2.81,3-4,4.54-4-.34-5.08.59-6.51,5.69-3.7.62-4.45,1.5-5.1,6.15-.67.15-1.75.12-2,.52-1.07,1.49-1.49,3.51-2.89,4.61s-4.56.82-4.55,3.62a1.86,1.86,0,0,1-.72,1.46c-4,2.42-5,6.7-7.91,9.84C221.23,88.77,221.25,90.39,220.85,91.72Zm12.64,200.1-.63-.94q-3.71,2.24-7.43,4.45a9.61,9.61,0,0,1-2,1.12c-1.5.46-3.09.67-4.58,1.14-2.46.78-3.69,3.28-7,3.3-1.57,0-3.12,2-4.68,3.11l.55.54,5.2-.46c-.18.76-.3,1.24-.54,2.24,1.07-.83,2.19-1.28,2.23-1.79.17-2.13,1.75-1.89,3.42-2,2.67-.22,5.52-.31,6.62-3.19.16-.43,1.08-.71,1.7-.91,1.67-.53,4.13-.53,4.91-1.54,2.43-3.18,6.55-2.87,9.77-4.32,1.29-.58,2.43-1.42,3.66-2.11a9.47,9.47,0,0,1,1.4-.55l13.5-4.79c1.16,1.29,2.09-.24,3.28-1.16a17.81,17.81,0,0,1,3.31-2,16.27,16.27,0,0,1,2.87-.71l-1.25-2.39c-2,1.34-5.73.51-5.33,4.6l-3.14-3.24L254.29,284c-4.82-1.51-6.22,2.89-9.15,4.55-3.3-1.44-5.84-.82-7.89,2.19-1.59,2.35-4.1,2.93-6.59,3.71l-.53-.71ZM194.8,129.52c5.91-2.33,5.9-2.33,8.55-7.8a10.4,10.4,0,0,1,.92-1.11c2.47-3.52,4.92-7,7.35-10.57.12-.18-.07-.53-.06-.49l-2.48-.3a9.39,9.39,0,0,1,1.7-1.18c3.65-1.52,5.47-4.1,4.73-6.89a21.76,21.76,0,0,0-1.12-2.44c3,1.28,4.66,1.11,4.49-1.92-1.39-.21-3.65-1-4-.53-1.19,1.42-1.67,3.28-2.7,5.59-3.79,1.57-3.79,1.57-4.88,5.94-.09.36-.13.92-.39,1-2.73,1.16-1.37,2.58-.12,3.89-4.91,1.84-5,2-4.64,6.33-3.32.55-5.29,2.08-5,5.31,0,.39-.59,1-1.07,1.24a6.15,6.15,0,0,0-3.59,5.37,2.54,2.54,0,0,1-1.41,1.63c-3.6,1.69-4,3-1.68,6.07,3-2.72,8.53-3.46,8.47-8.67Zm-70.17,64.42c2.18-2.73-.33-5.05-1.14-7.52-.86-2.64-2.52-5.07-3.69-7.64a2,2,0,0,1,.42-1.79c2.12-2.35,2.23-5.11-.52-8.43-.17,2.09-.28,3.41-.38,4.73,0,.55.19,1.32-.13,1.6-2.12,1.86-2.61,4.12-2.83,6.61a4.8,4.8,0,0,1-2,2.8,2.63,2.63,0,0,0-1,3.41,82.41,82.41,0,0,1,2,9.3c.54,3.18.84,6.39,1.25,9.58C118.9,201.85,119.86,197,124.63,193.94Zm-19.15-6.4.65.11c.75-1.92,1.57-3.83,2.24-5.78.41-1.19,1.33-2.94.77-3.56-2.25-2.43-.69-5.2-1.46-7.7-1.25-4.08-3.79-7.88-3.6-12.29a3,3,0,0,0-.33-1.09,34,34,0,0,0-1.38-3.31,20.07,20.07,0,0,0-1.69-2.4c-1.53.87-3.74,1.45-4.44,2.68-.84,1.49-.41,3.48,2.2,4.22.5.15,1.16,1.36,1,1.6-2.08,2.57-.84,4.1,2,5-1.73,4.17.64,7.09,3.22,10-2.44,3-1.84,5.63,1.94,8.78Zm56.1-83.42c.71,5.14,1.38,5.75,6.67,6.81.45.09,1.05,1.65.89,1.77-2.45,1.71-.86,3.37.35,4.61.79.82,2.52,1,3.22,1.19.89-2.1,1.58-3.61,2.19-5.14,1.16-3-.41-4.7-3.89-4.25a10,10,0,0,0-2.54,1.15c-.92-3.45-1.63-6.77-6.15-7.84,1.06-2.63.25-4.12-3-3.82-1-4.87-1.18-6.5-4.95-5.49l-3.06-5.77c-3.8,3.57-3.6,4.29.62,6.24.6.28,1.25,1.4,1.06,1.9-1.06,2.76.66,3,3.11,3.12.56,0,1.66,1.08,1.55,1.38C156.45,103.14,158.82,103.67,161.58,104.12Zm8.23,2.36,1.78,0c.16-1.09.39-2.18.46-3.28s-.34-2.28,0-3.27c1.29-3.49.75-6-2-8,1.13-3.48,1.09-3.44-2.51-6.41-.43-.35-.11-1.33-.32-2-.53-1.59-1.09-3.18-1.77-4.73-.38-.87-1.41-1.63-1.48-2.48-.3-4.08-1-4.85-4.49-4.6-.47-1.57-.51-3.48-1.61-4.55-.53-.52-3.08.56-5.56,1.1l5.6,5.81c-.47,2.35-.47,2.35,4.16,3.89-1.34,3.78-1.19,4.11,2.75,5.79,0,2.42-.32,5,3.42,5.88a2.59,2.59,0,0,1,0,2.31c-2.46,2.12-1.1,3.85.31,5.75a5.24,5.24,0,0,1,.85,2.59C169.65,102.41,169.7,104.45,169.81,106.48ZM204.3,231.86c3.76.38,7.26,1,9.39-2.45.2-.33,1.14-.34,1.75-.46,2.85-.55,6.68.21,6.83-4a10.25,10.25,0,0,1,2.3-.44c0,2.5,1.91,1.23,2.84.92,2.53-.83,4.9-2,7.41-2.9,2.83-1,4.66-2.2,2.17-5.48-1.84,1-3.68,2.05-5.58,3-.66.34-1.84.89-2.14.67-2.33-1.68-4.27-.21-5.73.81-1.86,1.29-3.17,2.76-6,1.77-.73-.25-2.5.74-3.15,1.55-1.58,2-2.84,2.58-4.26-.19l-7.06,4.78.29.36,3.46-.55Zm-104-42.76c-.63,3.33.7,5.39,3.83,6.25A2.68,2.68,0,0,0,106,195a1.37,1.37,0,0,0,.18-1.41c-1.5-2.89-4.11-5.37-4.24-8.79a1.75,1.75,0,0,0-1.13-1.27c-2.64-.3-3-2.43-4.26-3.81-.66-.7-1.38-1.73-2.22-1.85-1.77-.27-1.9-1-2-2.33-.1-2.65-1.67-3.52-4.61-2.72-1.1-1.76.29-5.08-3.67-5.2l-3,3.66,5.89,3.27c-2.38,5.5,3.79,3.77,6.13,5.32-.23.61-.45,1.13-.62,1.66-.85,2.64-.36,3.1,2.74,3,.54,0,1.67.92,1.58,1.16C96,188.29,97.6,189.05,100.32,189.1Zm156.5,22c-2.37-.9-4.94.17-7.2,2.88a3.07,3.07,0,0,1-2.35,1c-3.5-1.3-7.38,1-7.25,4.45,5.75,1,8.38.21,8.55-2.54,2.1-.7,5.55.52,5.57-3.37l2.19,1.56,1-2.65c3.45.26,7,1.21,8.2-2.94.16-.54,2.49-1.22,2.68-1,2.17,2.27,3.31,0,4.85-.53-2.18-4.09-2.18-4.09-8.07-.37C260.48,205.44,259.79,209.76,256.82,211.1ZM215.32,93.15c4.52-3.66,5.5-7.78,3.05-9.48.84-1.06,2.07-2,2.38-3.12.62-2.28.25-4.84,1.21-7s2.07-3.69.08-5.45c1.32-2,3.21-3.69,1-5.76a2.9,2.9,0,0,0-2.4-.49c-2.42,1.77-1.4,3.74.41,5.83-3.32.1-3.39,1.93-3.49,3.78-.09,1.49-.44,3-.38,4.46.09,2.43.45,4.85-1.47,7-.27.3.18,1.07.24,1.62s.33,1.33,0,1.56C213.32,88.21,214.42,90.56,215.32,93.15Zm-40.4,10.22c2.52-2.06,6.05-3.2,4.16-6.83,4.28-2.18,4.28-2.18,3.33-5.87,5.27-2.63,5.42-3,4.66-4.77l5.54-5.68-1.34-1.17-3.36-2c-1.13,1.51-2.22,3-3.32,4.44-.55.73-1,1.71-1.73,2.12-3.29,1.77-3.8,2.73-2.92,4.73-1,2.12-2.36,3.62-2.23,5a2.87,2.87,0,0,1-1.19,3.06A5.41,5.41,0,0,0,174.92,103.37Zm46.65-8.88.51.91c.91-.47,1.85-.92,2.74-1.42.59-.33,1.19-1.11,1.67-1,3.41.48,5.62-.8,6.7-3.5,3.81,1.39,4.71,1.09,7.44-2.36,3.53,1.87,5.12-.63,6.87-2.78,2.73,1.85,4.94,1,7.16-.45a4.94,4.94,0,0,1,2.52-.8c3.37,0,3.63-.36,2-3.39-1.53.62-3.06,1.28-4.62,1.86-.64.24-1.57.66-2,.44-2.95-1.56-4.57,0-6,1.94a6.05,6.05,0,0,0-6.8,1.34,2.83,2.83,0,0,1-1.59.79C230.93,86.46,226.64,91,221.57,94.49Zm25.43,11c-1.39-.59-2.5-1.14-3.68-1.54-.71-.25-1.78-.58-2.26-.3a31.17,31.17,0,0,0-3.69,2.92c-2.78-2.51-4-.07-5.39,2.13-3.29-2.92-5.23-.85-6.88,1.26-7.63-2.87-2.79,3.81-5.16,5.05a17.25,17.25,0,0,0,4.85-1.92c.77-.39,1.82-1.26,2.28-1.07,3.33,1.4,5.31.3,6.5-2.45,2.64,0,5.68,1.85,7.21-1.27l6.93.39C247.35,107.07,247.13,106.09,247,105.49ZM101.51,219.2l3.94,3.93c1.27,5.82,1.53,6.19,5.34,6.49.06-6.29-3.43-10.71-9.65-14,.19-2.64-1.77-3.78-4-3.93l-3.68-5-3.23,4.3c2.54,1.48,5.39,2.73,5.36,5.87,0,.12.63.24,1.83.66l-1.9-2c2.78,0,3.54,1.87,3.26,3.34-.51,2.69,1.34,2.65,3.51,3.13C102.06,221.08,101.86,220.4,101.51,219.2ZM116,268.44l1.82-.14c-1.49-6,4-11.36,1.22-17.49-.15-.34.26-.87.36-1.33a15.73,15.73,0,0,0,.82-4.16c0-.94-1-1.86-1.5-2.79l-1,.41v2.8l-.59.12L116,243.27c-3.76,3.45-3.6,5.51.54,8.7-3.39,3.39-3.39,3.39-1.08,5.15l1.25-3.32.77.14a21,21,0,0,1-.73,3.89c-.69,1.77-2.3,3.41-2.42,5.16S115.39,266.62,116,268.44Zm80.24-78.66c-2.79-2-5-1.76-6.84.48-3.84-1.52-6.72-1.15-8.54,1.75,2.26-.13,4-.24,5.71-.31.66,0,1.52-.19,2,.1a5.79,5.79,0,0,0,7.65-.5c3.69,2.61,4.56,2.54,6.91,0h5.26c-.38-1.09-.51-2.91-1.21-3.1-1.43-.4-3.18.1-4.8.23v1C200.28,187.89,198.19,186.41,196.26,189.78Zm23.22,122.85.23,1c1.37.12,2.75.16,4.1.37a4.34,4.34,0,0,1,1.87.83c1.73,1.35,3.41,2,4.94.11l4.52,1.69v-2.88c-1.49-.12-3-.61-4.2-.25-1.62.5-2.18.35-2.3-1.11,0-.32-.34-.9-.46-.89-3.35.33-6.42-.71-9.58-1.34-1.23-.25-2.66-.05-3.73-.52-3.62-1.59-7.36-.73-9.32,2.85h5.56c1,0,2.23-.33,2.88.07C215.82,313.72,217.47,314.49,219.48,312.63Zm-152.73-52a39.5,39.5,0,0,1,.53,5.38c0,1.2-1,2.4-.94,3.56.2,2.54,1.67,5.22,1.07,7.54-1,3.67,1.61,5.39,3.44,7.66l1.09-.15c-.35-4-.71-7.93-1.15-13,1-1.44,1.23-3.77-2.32-5.27l2.47-5.73ZM48,285.47c1,3.46,2,3.8,5.24,2.07,1.59,1.82,3,4.22,5.86,2.85l5.35,3.35c-2.11-6.5-4.6-8.45-8.17-7.68-2.08-1.24-4.53-3.47-5.39-3.07-3,1.36-4.26-.76-6.49-1.55l-2.52,4Zm75-88.27c-.84,1,2.42,4.29-2.21,4.49,0,0-.07.16-.1.26-1.21,4.84-3.85,9.57-1.13,14.9a15.05,15.05,0,0,0,2.87-4c0-.06-1.37-.68-2.56-1.27l.64-3.8.8,0,1,2.26c3.14-1.09,3-3,1.72-4.94l3.78-3.09-1.25-.28c-.18-1.79-.37-3.59-.62-6l2.82,1.42.78-.67-1.77-1.66Zm36,103.75.73.07c.57-.67,1.79-1.58,1.6-2-1.35-2.84,1.92-3.28,3-4.81a7.72,7.72,0,0,0,.46-.9l-2.14.91.17-2.36c-.82.21-1.59.21-1.74.47-1.46,2.61-5.49,3.75-5.44,7.24a1.81,1.81,0,0,1-1,1.39c-2.57.95-4.84,2-4.44,5,0,.16-.41.48-.69.55-4,1.05-3,3.64-2.8,6.6.77-.87,1.48-1.31,1.47-1.74-.06-2.4,1.63-2.86,3.88-3.57,5.37-1.71,5.87-2.84,5.59-7.7-.05-1,.59-1.93.91-2.9l.68.12ZM242.31,176.5c-2.38-2.19-4.6-4.59-8-1.52l-1.55-1.81c-1.89.11-3.29.25-4.69.25-.88,0-1.76-.33-2.65-.37s-2,.44-2.7.13c-2.85-1.29-5.11-.36-7.78,1.14,2.76,1.6,5,3.27,7.78.39,2.05,1.89,4,4.09,6.18.62l5.65,3.49c.72-3.12,2.25-2.68,4-1.5S241.84,178.63,242.31,176.5Zm.33,118.43H249c.7,0,1.56-.23,2.08,0,2.27,1.16,4,1.25,4.45-1.72a7,7,0,0,1,1.31.75c1.26,1.39,2.38,3.05,4.32.47.27-.34,1.74-.18,2.57,0a24.39,24.39,0,0,1,3.22,1.3c.75-.9,1.36-1.63,2-2.37-3.31-1.54-6.36-3.64-9.88-1C256.23,289.72,249.05,290.63,242.64,294.93Zm-100.7-.27c-2.74,1.82-2,3.89.59,5.94-2.27,1.18-4.7,2.27-1.21,4.22-3.16,3-3.41,6.1-.81,8,1.82-3,1.82-3,3.72-2.57l2.46-8.13c-2.76.29-4.27.39-3.63-2.41.66-3,.44-6.08.62-9.5-.85.26-2.49.46-2.54.82C141,292,141.53,293.09,141.94,294.66Zm34.89-47.49-.59-.61h-1.93c0-.33-.12-.86.07-1,.67-.39,1.76-1.07,2.15-.87,4,2.1,6.18-1.23,9.13-2-.35-1-.94-1.84-.8-2.54.41-2.06-.67-1.76-2.37-1.63-2.71.21-4.57,1-5.37,3.42-.1.33-1,.68-1.54.64-4.11-.36-4.76,0-5.88,2.88,1.32,1.47,2.26,2.52,3.59,4Zm5.32-65.83,6-3.34-.79-1.44,4.45-5.63-3.38-1.14c1.33-1.36,2.42-2.48,3.9-4-1.67-.31-3-.87-4.17-.63-.5.1-.57,1.81-.88,2.95-3.22.8-3.52,2.63-2.11,5.17a1.88,1.88,0,0,1-.61,1.94C181.87,176.66,181.06,178.33,182.15,181.34Zm-24.36-52.26c-.95-1.48-1.82-2.84-2.68-4.2-.82.54-2.4,1.4-2.31,1.57a14.64,14.64,0,0,0,2.14,2.66c.67,1.31.94,2.72,1.89,3.43s2.73,1,4.15,1.4c-.36,3.53.93,5.15,4.7,5.86.9-6.06.82-6.26-2.77-6.78C161.67,128.9,161.1,128.51,157.79,129.08Zm1,199.15c6.35.44,4.8-6.39,9.2-7.28a13.47,13.47,0,0,0-5.17,3c-1.57,1.56-2.73,2.49-4.39-1.06l-8.22,9.36c5.31,1.19,8.43.28,10.39-2.65Zm80.69-54.5c-.46,2-.89,4-1.33,5.89-3.5,0-3.8.46-2.26,4.06-4.14,2.68-4.3,2.9-4.18,5.55,1,0,2.09.28,2.82-.07,1.16-.55,3.05-1.91,2.88-2.25-1-1.87.71-2,1.78-2.65,2.87-1.65,3.15-2.91,1.15-5.28l3.21-3.47Zm-68.8-111.8c1.57-2.72,3.11-5.31,4.56-7.93.32-.57.65-1.4.4-1.9-.58-1.17-1.24-2.71-2.37-3.17s-2.82.27-4.27.48c.28,1.15.6,2.29.82,3.45.12.57.33,1.32,0,1.73C167.43,157.92,167.52,158.93,170.68,161.93Zm-8,111.39c-1.56-.56-3.67-1.9-4.38-1.46-2,1.2-3.36-.59-4.77-.23a11.86,11.86,0,0,0-3.38,1.9c-1.2-.82-1.94-1.64-2.88-1.9-2.71-.75-4.09.59-5,2.88l3.35,1.34,2-1.89c5,3,6.17,2.35,9,.76C158.75,275.85,161,277.23,162.65,273.32Zm3.08-93.68c5.55-4.94,5.87-6.21,2.49-8.72-1.78,1.31-4.08,2.26-5,3.84-2,3.36-3.39,7.05-5.25,11.08a14,14,0,0,0,2.54-1.54,10.55,10.55,0,0,0,1.87-2.7c.23-.5-.14-1.2-.23-1.82Zm84.53,40.23a8,8,0,0,0,1,.66c3.24,1.67,7.07-.65,10.3,1.16,1.81-1.85,2.93.05,4.36.55a20.32,20.32,0,0,0,3.18.6c.05-.88.54-2.1.06-2.55a6.34,6.34,0,0,0-3.2-1.13c-.86-.13-1.83.31-2.7.19-1.74-.24-3.44-.7-5.15-1.06l-.27.8C254.39,216.9,252.63,217.06,250.26,219.87Zm-74.47-55.3c2.87-1.41,3.11-1.93,2.44-7.09-2.19-.47-3.31.19-3.74,2.23a7.45,7.45,0,0,1-1.77,3.49c-2.41,2.55-2.73,5.71.1,8.18ZM85.44,296.81c-1.84,1.45-1,3.06-.11,5.16,1.34,3.21,1.75,6.71,2.58,10.2,2.65-2.38,4.38-4.71,2.64-7.91-.26,1.66-.53,3.32-.79,5l-1,.08C88.43,305,90.71,300.12,85.44,296.81Zm2.64-7.2c-2.88,2.76-3,3.11-1.37,4.76,1.17-2.88,2.38-5.83,3.58-8.78l.82.15.38,3.81c2.52-2.55,2.16-3.92-1-5-.12-1.72-.24-3.47-.35-5.22l-1.28,0v4.57C86.51,285.23,85.57,287.12,88.08,289.61Zm23.48-105.78,1.26.29c.88-1.89,1.75-3.78,2.94-6.36l-2.81,1v-5l2.33,2.64c0-1.73.08-3.12,0-4.5s-.39-2.54-.66-4.12c-1.22,2.46-2.66,4.22-2.91,6.1C111.25,177.15,111.56,180.51,111.56,183.83Zm38.51,181.34,2.55,2.69c2.24-2.26,2.15-2.4-2.42-4.12-.95-5.1-6.49-3.23-9.57-5.05,2.57,2.46,6.6,3.74,6.65,8Zm36.1-113,0,.28L179,254.11c3.12,1.37,11,.26,12.55-1.37a1.86,1.86,0,0,0,.34-1.76c-.22-.47-1.3-1.12-1.63-1A36.9,36.9,0,0,0,186.17,252.17ZM89.82,297.35l.85,5.59c1.77-2.78,3-4.76.28-6.67,2.75-4.14,2.75-4.14-.88-5.29-.78,2.21-1.55,4.41-2.42,6.86Zm5.73,98.36c-.24,4.22,2,6.78,6.33,7.24C101.3,398.74,98.25,395.25,95.55,395.71ZM207.5,285c2.73,1.35,5.73-.29,7.6-3.53l-4.75-2.33C209.39,281.12,208.44,283.09,207.5,285Zm1.71-168.84c5.74,1.45,7.09.9,8.56-2.89.17-.43.11-1.23-.19-1.4a2.23,2.23,0,0,0-1.82-.17C213.7,113,211.75,114.42,209.21,116.18Zm-52.41.51c1.3.92,2.81,1.5,2.81,2.06,0,3.46,2.5,3.57,5.32,3.6.42-3.23-.89-4.73-4.2-4.92-.17-.74-.35-1.5-.64-2.72ZM80.48,315c1.15,4.39,3,6.08,6.38,5.67C85.1,314.93,83.91,313.88,80.48,315Zm122.71-57.68.09,1.31c2.11-.08,5.53.47,6.06-.38,1.29-2,3.32-2.45,5.51-3.2-1.78-1.88-3.22-1.55-4.81-.26a8.63,8.63,0,0,1-2.53,1.29C206.1,256.58,204.63,256.92,203.19,257.33ZM183.6,235.59l4.62-3.56-8.45-2.94ZM165.71,356.83l5.77,1.38V354.4C169.08,353.25,167.13,353.44,165.71,356.83ZM119.86,162.7c-3.88-1.65.73-3.06,0-4.32-2.67-.74-2.67-.74-4.6,4Zm72.72,86.6.72.81H197l.59-.63c-.65-.63-1.43-1.83-1.94-1.75A10.28,10.28,0,0,0,192.58,249.3Zm-102.64,86,.63-.52c-1.5-3.27-1.5-3.27-4.31-2.37Z"/><path class="cls-1" d="M233,163.56l1-1.45c-3,.09-3.57.71-4.54,2.84a4.88,4.88,0,0,1-3.25,2.21c-2.56.38-5,.48-6.5,2.79-.49.75-2,1-3,1.47l-.64-.62,3.36-1.58-1-1.05a12.74,12.74,0,0,0-2.38,1.25c-2.3,1.9-4.29,4.15-6.82,5.75-1.85,1.17-4.35,1.57-6.59,2.27-.59.19-1.69.06-1.81.32-1.24,2.91-4.64,3.14-7.1,4.52-1.54.87-3.18,1.18-4.28,3.1-.83,1.45-4.54,1.59-6.9,2.46-1.11.42-2,1.26-3.07,1.78-2.69,1.3-5.42,2.55-8.15,3.78-.63.28-1.56.25-2,.66-3.21,3.05-3.9,3.25-10.06,2,4.23-2.86,7.54-6.24,11.69-7.49a13.82,13.82,0,0,0,6.12-3.25c.8-.76,2.94-.44,5.3-.7a12,12,0,0,1,9.1-4.64c.63,0,1.21-.95,1.83-1.44a57.2,57.2,0,0,1,4.82-3.67,3.12,3.12,0,0,1,2.52,0,2.9,2.9,0,0,0,4.45-1.14c1-2.36,2.91-3,5.39-3.42a4.17,4.17,0,0,0,2.41-1.82,7.46,7.46,0,0,1,7.92-3.53c1.77.43,2.31-.15,2.84-1.39.84-2,2.3-2.79,4.84-2a3.2,3.2,0,0,0,2.53-1.09c2.29-3.48,3.83-4.2,8.23-3.33,1.64-3.24,3.78-6,8.78-4.3.55-4.31,4.69-3.85,8.2-5.34a6.39,6.39,0,0,0-.31,1.49c.13,1.05.82,2.8.41,3a13.9,13.9,0,0,1-5.08,1.53c-1.45.14-2.18.16-2.61,1.7-.52,1.9-4.05,2.9-6.22,2.57-.83-.12-2.53.63-2.7,1.23C238.85,162.07,236.16,162.74,233,163.56Z"/><path class="cls-1" d="M175.16,258c2.36-2.3,4.35-2,5.84.47,3.46-1.23,6.7-2.53,9.6.66.32.36,1.57.08,2.4.08,2.55,0,6.11-1.93,6.41,2.51,0,.18.46.39.74.48s.63.06.48.05c.76-.75,1.37-1.77,1.82-1.71a14,14,0,0,1,4.65,1.52c2.42-.58,5-1.79,6.35.9l6.78.49c-.43,4.47-1.51,4.8-6.1,2.15-3,3.45-5.86,1.73-8.63-.77-2.41,2-4.59,1.76-6.8-.13a3.3,3.3,0,0,0-2.51-.49c-3,.82-5.51.46-7.25-1.3-2.28,0-4.17.13-6,0-2.77-.25-5.22-2-8.39-.85-1,.37-2.91-1-4.56-1.63h-7.63A8.21,8.21,0,0,1,175.16,258Z"/><path class="cls-1" d="M220.85,91.72c.4-1.33.38-3,1.28-3.94C225,84.64,226,80.36,230,77.94a1.86,1.86,0,0,0,.72-1.46c0-2.8,3-2.43,4.55-3.62s1.82-3.12,2.89-4.61c.28-.4,1.36-.37,2-.52.65-4.65,1.4-5.53,5.1-6.15,1.43-5.1,2.47-6,6.51-5.69,1.2-1.57-1.48-6,4-4.54,2.33-5.09,3.17-5.43,6.75-2.53l-5.83,3.86c.4,2.23-.4,4.06-3.51,4.59-.2,0-.57.16-.56.23.18,3.93-4.92,4.61-6.2,7.64a6,6,0,0,1-1.1,1.4c-1.83,2.08-5.36,3-5.5,6.29,0,.51-.87,1.07-1.47,1.47-1.53,1-3.8,1.58-2.87,4,0,.06-.09.21-.17.23-4.29,1.27-3.81,6.23-7.88,7.74-.73.27-1.08,1.28-1.68,1.91-1.31,1.38-2.67,2.74-4,4.11Z"/><path class="cls-1" d="M233.49,291.82l-3.36,1.95.53.71c2.49-.78,5-1.36,6.59-3.71,2.05-3,4.59-3.63,7.89-2.19,2.93-1.66,4.33-6.06,9.15-4.55l5.11-3.84,3.14,3.24c-.4-4.09,3.3-3.26,5.33-4.6l1.25,2.39a16.27,16.27,0,0,0-2.87.71,17.81,17.81,0,0,0-3.31,2c-1.19.92-2.12,2.45-3.28,1.16l-13.5,4.79a9.47,9.47,0,0,0-1.4.55c-1.23.69-2.37,1.53-3.66,2.11-3.22,1.45-7.34,1.14-9.77,4.32-.78,1-3.24,1-4.91,1.54-.62.2-1.54.48-1.7.91-1.1,2.88-3.95,3-6.62,3.19-1.67.13-3.25-.11-3.42,2,0,.51-1.16,1-2.23,1.79.24-1,.36-1.48.54-2.24l-5.2.46-.55-.54c1.56-1.1,3.11-3.1,4.68-3.11,3.28,0,4.51-2.52,7-3.3,1.49-.47,3.08-.68,4.58-1.14a9.61,9.61,0,0,0,2-1.12q3.72-2.22,7.43-4.45Z"/><path class="cls-1" d="M194.8,129.52l3.07.5c.06,5.21-5.48,5.95-8.47,8.67-2.35-3.05-1.92-4.38,1.68-6.07a2.54,2.54,0,0,0,1.41-1.63,6.15,6.15,0,0,1,3.59-5.37c.48-.26,1.11-.85,1.07-1.24-.31-3.23,1.66-4.76,5-5.31-.35-4.38-.27-4.49,4.64-6.33-1.25-1.31-2.61-2.73.12-3.89.26-.11.3-.67.39-1,1.09-4.37,1.09-4.37,4.88-5.94,1-2.31,1.51-4.17,2.7-5.59.37-.44,2.63.32,4,.53.17,3-1.47,3.2-4.49,1.92a21.76,21.76,0,0,1,1.12,2.44c.74,2.79-1.08,5.37-4.73,6.89a9.39,9.39,0,0,0-1.7,1.18l2.48.3s.18.31.06.49c-2.43,3.54-4.88,7-7.35,10.57a10.4,10.4,0,0,0-.92,1.11C200.7,127.19,200.71,127.19,194.8,129.52Z"/><path class="cls-1" d="M124.63,193.94c-4.77,3.09-5.73,7.91-8.06,12.65-.41-3.19-.71-6.4-1.25-9.58a82.41,82.41,0,0,0-2-9.3,2.63,2.63,0,0,1,1-3.41,4.8,4.8,0,0,0,2-2.8c.22-2.49.71-4.75,2.83-6.61.32-.28.08-1,.13-1.6.1-1.32.21-2.64.38-4.73,2.75,3.32,2.64,6.08.52,8.43a2,2,0,0,0-.42,1.79c1.17,2.57,2.83,5,3.69,7.64C124.3,188.89,126.81,191.21,124.63,193.94Z"/><path class="cls-1" d="M105.48,187.54l1.1-3.72c-3.78-3.15-4.38-5.77-1.94-8.78-2.58-2.88-5-5.8-3.22-10-2.85-.95-4.09-2.48-2-5,.19-.24-.47-1.45-1-1.6-2.61-.74-3-2.73-2.2-4.22.7-1.23,2.91-1.81,4.44-2.68a20.07,20.07,0,0,1,1.69,2.4,34,34,0,0,1,1.38,3.31,3,3,0,0,1,.33,1.09c-.19,4.41,2.35,8.21,3.6,12.29.77,2.5-.79,5.27,1.46,7.7.56.62-.36,2.37-.77,3.56-.67,1.95-1.49,3.86-2.24,5.78Z"/><path class="cls-1" d="M161.58,104.12c-2.76-.45-5.13-1-4-4.14.11-.3-1-1.36-1.55-1.38-2.45-.07-4.17-.36-3.11-3.12.19-.5-.46-1.62-1.06-1.9-4.22-2-4.42-2.67-.62-6.24l3.06,5.77c3.77-1,3.92.62,4.95,5.49,3.28-.3,4.09,1.19,3,3.82,4.52,1.07,5.23,4.39,6.15,7.84a10,10,0,0,1,2.54-1.15c3.48-.45,5.05,1.3,3.89,4.25-.61,1.53-1.3,3-2.19,5.14-.7-.23-2.43-.37-3.22-1.19-1.21-1.24-2.8-2.9-.35-4.61.16-.12-.44-1.68-.89-1.77C163,109.87,162.29,109.26,161.58,104.12Z"/><path class="cls-1" d="M52.28,263c-.67-1.71-1.4-3.26-4.12-2.36-.43.15-1.2-.48-1.28-.52.36-1.5,1.29-3,.78-3.7-1.2-1.7-1.34-4.31-4.6-4.64a28.92,28.92,0,0,1-4.9-1.39l-.3-1,3.43-2.91,5.18,5.13c2.41.28,2.71,1.93,2.65,4.37,3.79.5,3.69,3.11,4.34,5.62.58,2.27,2.11,4.36,3.62,7.31,2.44.87,3.44,2.65,2.8,6.33,3.06,1,3.95,3.27,4.56,5.89.34,1.46,1.63,2.73,2.23,4.17.28.67-.07,1.54-.14,2.32-1-.12-2.29.05-3-.43a21.22,21.22,0,0,1-3.14-3.26l2.15-1.51c-.25-1.5-.48-2.94-.8-4.87l-1.68,2.74c-3.77-1.6-4.06-2.31-2.45-5.67l-5.93-4.87,3.08-1.63L52.18,263Z"/><path class="cls-1" d="M169.81,106.48c-.11-2-.16-4.07-.37-6.09a5.24,5.24,0,0,0-.85-2.59c-1.41-1.9-2.77-3.63-.31-5.75a2.59,2.59,0,0,0,0-2.31c-3.74-.87-3.44-3.46-3.42-5.88-3.94-1.68-4.09-2-2.75-5.79-4.63-1.54-4.63-1.54-4.16-3.89l-5.6-5.81c2.48-.54,5-1.62,5.56-1.1,1.1,1.07,1.14,3,1.61,4.55,3.53-.25,4.19.52,4.49,4.6.07.85,1.1,1.61,1.48,2.48.68,1.55,1.24,3.14,1.77,4.73.21.64-.11,1.62.32,2,3.6,3,3.64,2.93,2.51,6.41,2.78,2,3.32,4.48,2,8-.37,1,0,2.18,0,3.27s-.3,2.19-.46,3.28Z"/><path class="cls-1" d="M204.3,231.86l2.54-2.56-3.46.55-.29-.36,7.06-4.78c1.42,2.77,2.68,2.18,4.26.19.65-.81,2.42-1.8,3.15-1.55,2.81,1,4.12-.48,6-1.77,1.46-1,3.4-2.49,5.73-.81.3.22,1.48-.33,2.14-.67,1.9-1,3.74-2,5.58-3,2.49,3.28.66,4.49-2.17,5.48-2.51.87-4.88,2.07-7.41,2.9-.93.31-2.86,1.58-2.84-.92a10.25,10.25,0,0,0-2.3.44c-.15,4.19-4,3.43-6.83,4-.61.12-1.55.13-1.75.46C211.56,232.88,208.06,232.24,204.3,231.86Z"/><path class="cls-1" d="M100.32,189.1c-2.72,0-4.35-.81-3.44-3.43.09-.24-1-1.17-1.58-1.16-3.1.08-3.59-.38-2.74-3,.17-.53.39-1.05.62-1.66-2.34-1.55-8.51.18-6.13-5.32l-5.89-3.27,3-3.66c4,.12,2.57,3.44,3.67,5.2,2.94-.8,4.51.07,4.61,2.72,0,1.33.18,2.06,2,2.33.84.12,1.56,1.15,2.22,1.85,1.28,1.38,1.62,3.51,4.26,3.81a1.75,1.75,0,0,1,1.13,1.27c.13,3.42,2.74,5.9,4.24,8.79A1.37,1.37,0,0,1,106,195a2.68,2.68,0,0,1-1.88.39C101,194.49,99.69,192.43,100.32,189.1Z"/><path class="cls-1" d="M256.82,211.1c3-1.34,3.66-5.66,8.21-3.57,5.89-3.72,5.89-3.72,8.07.37-1.54.57-2.68,2.8-4.85.53-.19-.21-2.52.47-2.68,1-1.23,4.15-4.75,3.2-8.2,2.94l-1,2.65-2.19-1.56c0,3.89-3.47,2.67-5.57,3.37-.17,2.75-2.8,3.53-8.55,2.54-.13-3.44,3.75-5.75,7.25-4.45a3.07,3.07,0,0,0,2.35-1C251.88,211.27,254.45,210.2,256.82,211.1Z"/><path class="cls-1" d="M215.32,93.15c-.9-2.59-2-4.94.68-7,.29-.23,0-1,0-1.56s-.51-1.32-.24-1.62c1.92-2.14,1.56-4.56,1.47-7-.06-1.48.29-3,.38-4.46.1-1.85.17-3.68,3.49-3.78-1.81-2.09-2.83-4.06-.41-5.83a2.9,2.9,0,0,1,2.4.49c2.2,2.07.31,3.8-1,5.76,2,1.76.82,3.43-.08,5.45s-.59,4.7-1.21,7c-.31,1.13-1.54,2.06-2.38,3.12C220.82,85.37,219.84,89.49,215.32,93.15Z"/><path class="cls-1" d="M228.29,207.12v2.57l1.05.37-5.54,4c.08,3.41-1.54,5.26-6.35,6.71l-.32-1.8c-1,1.06-1.72,1.82-2.49,2.51a5.66,5.66,0,0,1-2.8,1.42c.37-1.24.7-2.5,1.15-3.72.19-.53.61-1.39,1-1.4,3.93-.12,3.1-4.27,5.08-5,3.44-1.21,4.3-2.93,4.14-5.71,0-.23.88-.43,1.19-.75a6.19,6.19,0,0,0,1.5-2c.59-1.8-.38-4.66,3.82-3.72.24.05,1.07-1.14,1.26-1.83.48-1.69.68-3.47,3.77-3.74-1,1.65-2,3.28-2.87,5-1.24,2.35-2.37,4.73-3.55,7.1Z"/><path class="cls-1" d="M174.92,103.37a5.41,5.41,0,0,1,1.6-6.94,2.87,2.87,0,0,0,1.19-3.06c-.13-1.4,1.21-2.9,2.23-5-.88-2-.37-3,2.92-4.73.78-.41,1.18-1.39,1.73-2.12,1.1-1.46,2.19-2.93,3.32-4.44l3.36,2,1.34,1.17-5.54,5.68c.76,1.82.61,2.14-4.66,4.77,1,3.69,1,3.69-3.33,5.87C181,100.17,177.44,101.31,174.92,103.37Z"/><path class="cls-1" d="M221.57,94.49c5.07-3.47,9.36-8,16.57-8.46a2.83,2.83,0,0,0,1.59-.79,6.05,6.05,0,0,1,6.8-1.34c1.47-2,3.09-3.5,6-1.94.41.22,1.34-.2,2-.44,1.56-.58,3.09-1.24,4.62-1.86,1.64,3,1.38,3.35-2,3.39a4.94,4.94,0,0,0-2.52.8c-2.22,1.49-4.43,2.3-7.16.45-1.75,2.15-3.34,4.65-6.87,2.78-2.73,3.45-3.63,3.75-7.44,2.36-1.08,2.7-3.29,4-6.7,3.5-.48-.07-1.08.71-1.67,1-.89.5-1.83,1-2.74,1.42Z"/><path class="cls-1" d="M247,105.49c.13.6.35,1.58.71,3.2l-6.93-.39c-1.53,3.12-4.57,1.24-7.21,1.27-1.19,2.75-3.17,3.85-6.5,2.45-.46-.19-1.51.68-2.28,1.07a17.25,17.25,0,0,1-4.85,1.92c2.37-1.24-2.47-7.92,5.16-5.05,1.65-2.11,3.59-4.18,6.88-1.26,1.4-2.2,2.61-4.64,5.39-2.13a31.17,31.17,0,0,1,3.69-2.92c.48-.28,1.55,0,2.26.3C244.5,104.35,245.61,104.9,247,105.49Z"/><path class="cls-1" d="M101.51,219.2c.35,1.2.55,1.88.82,2.84-2.17-.48-4-.44-3.51-3.13.28-1.47-.48-3.37-3.26-3.34l1.9,2c-1.2-.42-1.83-.54-1.83-.66,0-3.14-2.82-4.39-5.36-5.87l3.23-4.3,3.68,5c2.19.15,4.15,1.29,4,3.93,6.22,3.25,9.71,7.67,9.65,14-3.81-.3-4.07-.67-5.34-6.49Z"/><path class="cls-1" d="M116,268.44c-.63-1.82-1.84-3.67-1.72-5.45s1.73-3.39,2.42-5.16a21,21,0,0,0,.73-3.89l-.77-.14-1.25,3.32c-2.31-1.76-2.31-1.76,1.08-5.15-4.14-3.19-4.3-5.25-.54-8.7l1.18,2.59.59-.12v-2.8l1-.41c.53.93,1.46,1.85,1.5,2.79a15.73,15.73,0,0,1-.82,4.16c-.1.46-.51,1-.36,1.33,2.79,6.13-2.71,11.5-1.22,17.49Z"/><path class="cls-1" d="M214.68,164.22c-.24-1.07-.47-2.13-.77-3.48l-3.44,1c.68-1.65,1.13-2.8,1.62-3.93a11,11,0,0,1,1.26-2.55,7.86,7.86,0,0,1,3.16-2.34c.66-2.88.23-6.4,5.28-7.32-1.06-2-1.86-4.06.88-5.21a35.57,35.57,0,0,1,5.56-1.37l.47.72-3.56,4.82L224,140.78l-.59,0c-.21,1.15-.45,2.29-.61,3.45-.15,1-.2,2-.31,3.27l2.74.4a61.36,61.36,0,0,1-5.8,5c-1.38.91-3.09,1.25-1.06,3,.33.29.23,1.56-.09,1.72-3,1.46-2.21,4.51-3.7,6.57Z"/><path class="cls-1" d="M196.26,189.78c1.93-3.37,4-1.89,6.11-.37v-1c1.62-.13,3.37-.63,4.8-.23.7.19.83,2,1.21,3.1h-5.26c-2.35,2.55-3.22,2.62-6.91,0a5.79,5.79,0,0,1-7.65.5c-.44-.29-1.3-.13-2-.1-1.72.07-3.45.18-5.71.31,1.82-2.9,4.7-3.27,8.54-1.75C191.23,188,193.47,187.79,196.26,189.78Z"/><path class="cls-1" d="M219.48,312.63c-2,1.86-3.66,1.09-5.49-.07-.65-.4-1.91-.07-2.88-.07h-5.56c2-3.58,5.7-4.44,9.32-2.85,1.07.47,2.5.27,3.73.52,3.16.63,6.23,1.67,9.58,1.34.12,0,.43.57.46.89.12,1.46.68,1.61,2.3,1.11,1.18-.36,2.71.13,4.2.25v2.88l-4.52-1.69c-1.53,1.88-3.21,1.24-4.94-.11a4.34,4.34,0,0,0-1.87-.83c-1.35-.21-2.73-.25-4.1-.37Z"/><path class="cls-1" d="M66.75,260.59h4.19l-2.47,5.73c3.55,1.5,3.33,3.83,2.32,5.27.44,5.06.8,9,1.15,13l-1.09.15c-1.83-2.27-4.39-4-3.44-7.66.6-2.32-.87-5-1.07-7.54-.09-1.16.9-2.36.94-3.56A39.5,39.5,0,0,0,66.75,260.59Z"/><path class="cls-1" d="M48,285.47H41.86l2.52-4c2.23.79,3.53,2.91,6.49,1.55.86-.4,3.31,1.83,5.39,3.07,3.57-.77,6.06,1.18,8.17,7.68l-5.35-3.35c-2.91,1.37-4.27-1-5.86-2.85C49.93,289.27,49,288.93,48,285.47Z"/><path class="cls-1" d="M158.93,301l.28-3.63-.68-.12c-.32,1-1,1.95-.91,2.9.28,4.86-.22,6-5.59,7.7-2.25.71-3.94,1.17-3.88,3.57,0,.43-.7.87-1.47,1.74-.2-3-1.18-5.55,2.8-6.6.28-.07.71-.39.69-.55-.4-3,1.87-4,4.44-5a1.81,1.81,0,0,0,1-1.39c-.05-3.49,4-4.63,5.44-7.24.15-.26.92-.26,1.74-.47l-.17,2.36,2.14-.91a7.72,7.72,0,0,1-.46.9c-1.12,1.53-4.39,2-3,4.81.19.4-1,1.31-1.6,2Z"/><path class="cls-1" d="M242.31,176.5c-.47,2.13-1.95,1.95-3.67.82s-3.33-1.62-4,1.5l-5.65-3.49c-2.18,3.47-4.13,1.27-6.18-.62-2.74,2.88-5,1.21-7.78-.39,2.67-1.5,4.93-2.43,7.78-1.14.69.31,1.8-.16,2.7-.13s1.77.36,2.65.37c1.4,0,2.8-.14,4.69-.25l1.55,1.81C237.71,171.91,239.93,174.31,242.31,176.5Z"/><path class="cls-1" d="M242.64,294.93c6.41-4.3,13.59-5.21,16.45-2.46,3.52-2.68,6.57-.58,9.88,1-.63.74-1.24,1.47-2,2.37a24.39,24.39,0,0,0-3.22-1.3c-.83-.21-2.3-.37-2.57,0-1.94,2.58-3.06.92-4.32-.47a7,7,0,0,0-1.31-.75c-.47,3-2.18,2.88-4.45,1.72-.52-.27-1.38,0-2.08,0Z"/><path class="cls-1" d="M141.94,294.66c-.41-1.57-.93-2.64-.8-3.64.05-.36,1.69-.56,2.54-.82-.18,3.42,0,6.54-.62,9.5-.64,2.8.87,2.7,3.63,2.41l-2.46,8.13c-1.9-.47-1.9-.47-3.72,2.57-2.6-1.89-2.35-5,.81-8-3.49-1.95-1.06-3,1.21-4.22C139.92,298.55,139.2,296.48,141.94,294.66Z"/><path class="cls-1" d="M176.83,247.17l-3.54,2.34c-1.33-1.46-2.27-2.51-3.59-4,1.12-2.88,1.77-3.24,5.88-2.88.5,0,1.44-.31,1.54-.64.8-2.4,2.66-3.21,5.37-3.42,1.7-.13,2.78-.43,2.37,1.63-.14.7.45,1.51.8,2.54-2.95.73-5.1,4.06-9.13,2-.39-.2-1.48.48-2.15.87-.19.11,0,.64-.07,1h1.93Z"/><path class="cls-1" d="M182.15,181.34c-1.09-3-.28-4.68,2.43-6.1a1.88,1.88,0,0,0,.61-1.94c-1.41-2.54-1.11-4.37,2.11-5.17.31-1.14.38-2.85.88-2.95,1.14-.24,2.5.32,4.17.63-1.48,1.5-2.57,2.62-3.9,4l3.38,1.14-4.45,5.63.79,1.44Z"/><path class="cls-1" d="M157.79,129.08c3.31-.57,3.88-.18,5.12,3.94,3.59.52,3.67.72,2.77,6.78-3.77-.71-5.06-2.33-4.7-5.86-1.42-.45-3.1-.61-4.15-1.4s-1.22-2.12-1.89-3.43a14.64,14.64,0,0,1-2.14-2.66c-.09-.17,1.49-1,2.31-1.57C156,126.24,156.84,127.6,157.79,129.08Z"/><path class="cls-1" d="M158.79,328.23l1.81,1.33c-2,2.93-5.08,3.84-10.39,2.65l8.22-9.36c1.66,3.55,2.82,2.62,4.39,1.06a13.47,13.47,0,0,1,5.17-3C163.59,321.84,165.14,328.67,158.79,328.23Z"/><path class="cls-1" d="M239.48,273.73l4.07,1.78L240.34,279c2,2.37,1.72,3.63-1.15,5.28-1.07.62-2.75.78-1.78,2.65.17.34-1.72,1.7-2.88,2.25-.73.35-1.86.07-2.82.07-.12-2.65,0-2.87,4.18-5.55-1.54-3.6-1.24-4.1,2.26-4.06C238.59,277.69,239,275.77,239.48,273.73Z"/><path class="cls-1" d="M204.82,238.78c1.73-1.44,3.12-2.82,6-1,1.23.77,3.87-.27,5.88-.29,1.44,0,3.39-.6,3.39,1.89,0,.51,2.16,1,3.63,1.07L222.22,239l.18-.78,4.16.23c-1.94,5.09-2.78,5.3-6.73,2.18-2.52.9-5,2.41-7.14-.77-.31-.45-3.06.22-4.61.6s-3,1.43-4-.58Z"/><path class="cls-1" d="M170.68,161.93c-3.16-3-3.25-4-.83-7.34.3-.41.09-1.16,0-1.73-.22-1.16-.54-2.3-.82-3.45,1.45-.21,3.17-.93,4.27-.48s1.79,2,2.37,3.17c.25.5-.08,1.33-.4,1.9C173.79,156.62,172.25,159.21,170.68,161.93Z"/><path class="cls-1" d="M162.65,273.32c-1.65,3.91-3.9,2.53-6,1.4-2.79,1.59-4,2.19-9-.76l-2,1.89-3.35-1.34c.86-2.29,2.24-3.63,5-2.88.94.26,1.68,1.08,2.88,1.9a11.86,11.86,0,0,1,3.38-1.9c1.41-.36,2.78,1.43,4.77.23C159,271.42,161.09,272.76,162.65,273.32Z"/><path class="cls-1" d="M165.73,179.64l-3.61.14c.09.62.46,1.32.23,1.82a10.55,10.55,0,0,1-1.87,2.7,14,14,0,0,1-2.54,1.54c1.86-4,3.21-7.72,5.25-11.08.95-1.58,3.25-2.53,5-3.84C171.6,173.43,171.28,174.7,165.73,179.64Z"/><path class="cls-1" d="M250.26,219.87c2.37-2.81,4.13-3,7.53-.78l.27-.8c1.71.36,3.41.82,5.15,1.06.87.12,1.84-.32,2.7-.19a6.34,6.34,0,0,1,3.2,1.13c.48.45,0,1.67-.06,2.55a20.32,20.32,0,0,1-3.18-.6c-1.43-.5-2.55-2.4-4.36-.55-3.23-1.81-7.06.51-10.3-1.16A8,8,0,0,1,250.26,219.87Z"/><path class="cls-1" d="M175.79,164.57l-3,6.81c-2.83-2.47-2.51-5.63-.1-8.18a7.45,7.45,0,0,0,1.77-3.49c.43-2,1.55-2.7,3.74-2.23C178.9,162.64,178.66,163.16,175.79,164.57Z"/><path class="cls-1" d="M85.44,296.81c5.27,3.31,3,8.18,3.36,12.51l1-.08c.26-1.66.53-3.32.79-5,1.74,3.2,0,5.53-2.64,7.91-.83-3.49-1.24-7-2.58-10.2C84.45,299.87,83.6,298.26,85.44,296.81Z"/><path class="cls-1" d="M88.08,289.61c-2.51-2.49-1.57-4.38.74-5.71v-4.57l1.28,0c.11,1.75.23,3.5.35,5.22,3.2,1.11,3.56,2.48,1,5l-.38-3.81-.82-.15c-1.2,3-2.41,5.9-3.58,8.78C85.12,292.72,85.2,292.37,88.08,289.61Z"/><path class="cls-1" d="M111.56,183.83c0-3.32-.31-6.68.12-10,.25-1.88,1.69-3.64,2.91-6.1.27,1.58.57,2.84.66,4.12s0,2.77,0,4.5L113,173.74v5l2.81-1c-1.19,2.58-2.06,4.47-2.94,6.36Z"/><path class="cls-1" d="M150.07,365.17l-2.79,1.5c-.05-4.24-4.08-5.52-6.65-8,3.08,1.82,8.62-.05,9.57,5.05,4.57,1.72,4.66,1.86,2.42,4.12Z"/><path class="cls-1" d="M186.17,252.17a36.9,36.9,0,0,1,4.07-2.17c.33-.14,1.41.51,1.63,1a1.86,1.86,0,0,1-.34,1.76c-1.6,1.63-9.43,2.74-12.55,1.37l7.16-1.66Z"/><path class="cls-1" d="M89.82,297.35l-2.17.49c.87-2.45,1.64-4.65,2.42-6.86,3.63,1.15,3.63,1.15.88,5.29,2.77,1.91,1.49,3.89-.28,6.67Z"/><path class="cls-1" d="M95.55,395.71c2.7-.46,5.75,3,6.33,7.24C97.55,402.49,95.31,399.93,95.55,395.71Z"/><path class="cls-1" d="M207.5,285c.94-1.93,1.89-3.9,2.85-5.86l4.75,2.33C213.23,284.73,210.23,286.37,207.5,285Z"/><path class="cls-1" d="M209.21,116.18c2.54-1.76,4.49-3.18,6.55-4.46a2.23,2.23,0,0,1,1.82.17c.3.17.36,1,.19,1.4C216.3,117.08,215,117.63,209.21,116.18Z"/><path class="cls-1" d="M156.8,116.69l3.29-2c.29,1.22.47,2,.64,2.72,3.31.19,4.62,1.69,4.2,4.92-2.82,0-5.36-.14-5.32-3.6C159.61,118.19,158.1,117.61,156.8,116.69Z"/><path class="cls-1" d="M228.29,207.13l8.38-11.63.91,0a8.6,8.6,0,0,1-.2,2.1c-.69,2-4.39,2.93-2.83,5.8l-6.26,3.7Z"/><path class="cls-1" d="M80.48,315c3.43-1.13,4.62-.08,6.38,5.67C83.53,321.09,81.63,319.4,80.48,315Z"/><path class="cls-1" d="M203.19,257.33c1.44-.41,2.91-.75,4.32-1.24A8.63,8.63,0,0,0,210,254.8c1.59-1.29,3-1.62,4.81.26-2.19.75-4.22,1.18-5.51,3.2-.53.85-4,.3-6.06.38Z"/><path class="cls-1" d="M181.41,225.07a12.29,12.29,0,0,1,1.39-3.21c1.28-1.59,2.34-.31,3.45.43.28.19.95-.14,1.44-.12a9.08,9.08,0,0,1,3.11.5c-2.39,1.88-4.58,4.06-8,1.79-.22-.15-1,.34-1.51.54Z"/><path class="cls-1" d="M214.61,164.17c-1.08.87-2.12,1.78-3.27,2.58s-2.2,1.31-3.31,2l-.73-.54a15.94,15.94,0,0,1,.55-3.53c.53-1.4,1.54-2.19,3.46-1.22a14.49,14.49,0,0,0,3.36.79Z"/><path class="cls-1" d="M183.6,235.59l-3.83-6.5,8.45,2.94Z"/><path class="cls-1" d="M165.71,356.83c1.42-3.39,3.37-3.58,5.77-2.43v3.81Z"/><path class="cls-1" d="M204.82,238.78l-.76,1.11-4,.19c-.9,0-1.8.11-2.9.18,1.14-2.12,4.55-3.83,6.51-3.26C204.23,237.15,204.45,238.16,204.82,238.78Z"/><path class="cls-1" d="M119.86,162.7l-4.6-.36c1.93-4.7,1.93-4.7,4.6-4C120.59,159.64,116,161.05,119.86,162.7Z"/><path class="cls-1" d="M192.58,249.3a10.28,10.28,0,0,1,3.07-1.57c.51-.08,1.29,1.12,1.94,1.75l-.59.63h-3.7Z"/><path class="cls-1" d="M52.18,263c.14,1,.27,2,.41,3-2.86.29-3.54-.66-2.52-3.81l2.21.92Z"/><path class="cls-1" d="M89.94,335.34l-3.68-2.89c2.81-.9,2.81-.9,4.31,2.37Z"/><path class="cls-1" d="M134.29,163.34c3.89,1.25,5.88,4,5.92,8.22-1.05-1.9-2-3.87-3.18-5.7a17.23,17.23,0,0,0-2.66-2.59Z"/></svg>