<svg id="Layer_1" data-name="Layer 1" xmlns="http://www.w3.org/2000/svg" viewBox="0 0 333.82 432"><defs><style>.cls-1{fill:#99c864;}.cls-2{fill:#fff;}</style></defs><title>hawthorn</title><path class="cls-1" d="M153.59,396.34l-7.38-2.49c6.55-20.66,14.1-41.37,17.95-63.48-2.49.16-4.87.34-7.25.48-27,1.54-53.36-1.56-78.53-12.62-16.25-7.14-30.74-17-42.52-31C29,279.1,23.37,270.1,20.76,259.35a28.74,28.74,0,0,1-.53-12.68c1.47-7.2,6.86-11.57,14.4-11.73,6.62-.13,12.8,1.83,18.73,4.65,4.56,2.16,9,4.69,13.56,7.13-1.1-1.47-2.18-2.86-3.22-4.29-9.41-12.89-16.71-26.89-20.08-42.9-1.32-6.29-2-12.64-.59-19a19.56,19.56,0,0,1,.73-2.48c2.19-6,6.56-8,12.22-5.55a31.69,31.69,0,0,1,12,9.68C72,187.24,75.74,192.66,79.6,198c.42.57.76,1.21,1.41,2.24-1.65-5-3.28-9.39-4.59-13.92-5-17.13-8.17-34.58-7.76-52.56a67.74,67.74,0,0,1,2-13.79c.85-3.62,2.72-6.88,6.83-7.43a8.82,8.82,0,0,1,6.8,2.08c3.44,2.81,7,5.59,9.88,9,4.79,5.77,9,12,13.52,18.08.38.51.73,1,1.3,1.87-1.26-5.83-2.56-11.24-3.6-16.71-1.94-10.3-3.36-20.69-2.42-31.22a42.53,42.53,0,0,1,2.32-10.84c2.25-6.15,6.89-7.78,12.49-4.8a34.45,34.45,0,0,1,11.46,10.4c4.47,6.13,8.59,12.55,12.85,18.86.58.86,1.06,1.81,1.77,3,.11-.73.2-1.12.22-1.52.52-10.6.76-21.22,1.61-31.79s2.54-21,7.14-30.71c2.14-4.5,5-8.29,9.42-10.65a9.35,9.35,0,0,1,9.45,0,20.73,20.73,0,0,1,8.2,8.4c3.81,6.7,5.57,14.13,6.86,21.7,2.3,13.45,2.76,27.06,3,40.68,0,1.07,0,2.13.05,3.2,0,.1.12.19.25.36,2.49-4,4.9-8.06,7.48-12,4.12-6.28,8.52-12.33,14.3-17.06a24.65,24.65,0,0,1,5.7-3.54c4.48-1.94,8.09-.5,10.45,4,2,3.82,2.68,8,3,12.31.82,11.91-.89,23.56-3.26,35.13-.85,4.14-1.86,8.25-2.85,12.62,3.39-4.76,6.54-9.35,9.86-13.81,3.72-5,7.66-9.85,12.67-13.49a24.6,24.6,0,0,1,6.79-3.41c2.92-1,5.35.39,7.08,3,2.5,3.73,3.23,8.09,3.63,12.49,1.31,14.52-.75,28.75-3.63,42.88A180.61,180.61,0,0,1,253,199.67c2.61-3.8,5.14-7.67,7.85-11.39,3.49-4.78,7.27-9.32,12-12.77a25.16,25.16,0,0,1,6.37-3.47c4.67-1.65,8.41.21,10.45,5s2.19,9.57,1.7,14.53c-1.85,18.58-9.72,34.46-20,49.23-1.41,2-2.92,3.94-4.6,6.2,3.72-2.09,7.06-4.09,10.51-5.86,6.43-3.27,13.08-5.92,20.33-6.14,12.78-.37,17.6,8.7,16.27,19.77-1.39,11.61-6.91,21.23-13.86,30-13.48,17-30.79,28.21-50.32,35.87a154.18,154.18,0,0,1-41.85,9.73,200.23,200.23,0,0,1-37.29,0c-.25,0-.5,0-1,0A332.42,332.42,0,0,1,153.59,396.34Zm-51.2-237.6c-.07.24-.17.37-.14.46.23.62.48,1.23.73,1.84,6.24,14.89,16.15,26.72,28,36.88,13.26,11.38,28.09,20.08,43.42,27.91a3.67,3.67,0,0,0,.69.18c.45-4.17.44-4.15-2.9-6.09-3.94-2.29-7.88-4.58-11.77-6.95-14.47-8.85-28.32-18.6-40.4-30.9A107.1,107.1,0,0,1,102.39,158.74ZM172.24,315c28.89-1.22,89-22.66,102.25-36.6-.77.4-1.2.63-1.64.84-6.08,3-12.09,6.18-18.26,9-25.44,11.49-52,18.61-79.38,22.77C172.57,311.36,172.26,310.57,172.24,315ZM171,301.45c-35.75-5.06-69.9-15.12-102-32.4,31,21.11,65.37,31.42,101.65,36,.16-1.09.28-1.88.38-2.67A6.4,6.4,0,0,0,171,301.45ZM236,158c-.16.28-.34.56-.48.85a212.49,212.49,0,0,1-55.36,71c-2.38,2-3,4.1-2.73,7.2C204.44,216.6,225,191.18,236,158ZM173.82,263.16a357.31,357.31,0,0,1-43.72-16.57,225.15,225.15,0,0,1-40.41-24c24.47,22.06,53.28,35.22,83.92,45.21ZM175.75,278c19.74-5.1,62.83-31.36,70.19-42.94-.68.5-1.08.77-1.46,1.07-2.75,2.14-5.45,4.36-8.26,6.43-17.58,13-36.95,22.15-57.11,29.66C175.42,273.58,175.41,273.57,175.75,278ZM130.69,116c.06.31.09.63.18.94,2.79,9.91,8.37,18,15,25.44,8,9,17.28,16.51,26.32,24.29,1,.87,2,1.71,3.28,2.76.16-3.16.23-5.58-2.56-7.51-4.66-3.23-9-6.92-13.4-10.57C147.76,141.55,136.7,131.09,130.69,116Zm47.56,64.29c15.09-14.48,25.17-31.74,28.95-52.8a5.65,5.65,0,0,0-.67,1.6c-5.11,16.75-13.22,31.59-25.73,43.46C178.51,174.75,177.4,176.85,178.25,180.32Z"/><path class="cls-2" d="M102.39,158.74A107.1,107.1,0,0,0,120,182.07c12.08,12.3,25.93,22.05,40.4,30.9,3.89,2.37,7.83,4.66,11.77,6.95,3.34,1.94,3.35,1.92,2.9,6.09a3.67,3.67,0,0,1-.69-.18C159.08,218,144.25,209.3,131,197.92c-11.86-10.16-21.77-22-28-36.88-.25-.61-.5-1.22-.73-1.84C102.22,159.11,102.32,159,102.39,158.74Z"/><path class="cls-2" d="M172.24,315c0-4.41.33-3.62,3-4,27.35-4.16,53.94-11.28,79.38-22.77,6.17-2.79,12.18-6,18.26-9,.44-.21.87-.44,1.64-.84C261.26,292.32,201.13,313.76,172.24,315Z"/><path class="cls-2" d="M171,301.45a6.4,6.4,0,0,1,.06,1c-.1.79-.22,1.58-.38,2.67-36.28-4.62-70.68-14.93-101.65-36C101.09,286.33,135.24,296.39,171,301.45Z"/><path class="cls-2" d="M236,158c-11,33.2-31.57,58.62-58.57,79-.26-3.1.35-5.2,2.73-7.2a212.49,212.49,0,0,0,55.36-71C235.67,158.54,235.85,158.26,236,158Z"/><path class="cls-2" d="M173.82,263.16l-.21,4.68c-30.64-10-59.45-23.15-83.92-45.21a225.15,225.15,0,0,0,40.41,24A357.31,357.31,0,0,0,173.82,263.16Z"/><path class="cls-2" d="M175.75,278c-.34-4.41-.33-4.4,3.36-5.78,20.16-7.51,39.53-16.69,57.11-29.66,2.81-2.07,5.51-4.29,8.26-6.43.38-.3.78-.57,1.46-1.07C238.58,246.62,195.49,272.88,175.75,278Z"/><path class="cls-2" d="M130.69,116c6,15.06,17.07,25.52,28.82,35.35,4.37,3.65,8.74,7.34,13.4,10.57,2.79,1.93,2.72,4.35,2.56,7.51-1.25-1.05-2.28-1.89-3.28-2.76-9-7.78-18.3-15.3-26.32-24.29-6.63-7.42-12.21-15.53-15-25.44C130.78,116.66,130.75,116.34,130.69,116Z"/><path class="cls-2" d="M178.25,180.32c-.85-3.47.26-5.57,2.55-7.74,12.51-11.87,20.62-26.71,25.73-43.46a5.65,5.65,0,0,1,.67-1.6C203.42,148.58,193.34,165.84,178.25,180.32Z"/></svg>