<svg id="Layer_1" data-name="Layer 1" xmlns="http://www.w3.org/2000/svg" viewBox="0 0 333.82 432"><defs><style>.cls-1,.cls-2{fill:#99c864;}.cls-2{stroke:#fff;stroke-miterlimit:10;stroke-width:4px;}</style></defs><title>hornbeam</title><path class="cls-1" d="M168.12,258.05l0,0,0,0Z"/><path class="cls-2" d="M168.12,127.93l-.13.15.13-.15v-.3L133,84.1q-4.84,9.14-9.06,18.82l43.7,49.72-43.7-49.72q-4,9.08-7.35,18.53l51.05,58.05-51.05-58c-2.53,7.06-4.81,14.26-6.83,21.54L168,205.55C168,179,168,152,168.12,127.93Z"/><path class="cls-1" d="M168.12,127.63v.3l.12-.15Z"/><path class="cls-2" d="M169.44,44.91c-.68-.91-1.12,35.2-1.32,82.72l.12.15,37.32-46.23-37.32,46.23.83,1-.83-1-.12.15C168,152,168,179,168,205.55l.35.38-.35-.38c0,18,.05,35.82.12,52.42l0,0,77.72-76.35a227.59,227.59,0,0,0-11.94-46.5l-65.22,70,65.22-70q-3.76-10.18-8.47-20.11l-56,63.72,56-63.72a255.13,255.13,0,0,0-58.36-79C154.18,49.35,142.68,65.79,133,84.1l35.14,43.53C168.32,80.11,168.76,44,169.44,44.91Zm69.08,112.2-69.08,73.21Zm-69.08-5.2,47.05-53.52Zm0-50.69,25.4-33.8Zm14-46.84-14,21.28Zm-15.82,22-14-21.28Zm-25.39-8.24L167.62,102Z"/><path class="cls-2" d="M247.9,207.26l-78.46,75.48,78.46-75.48a198.19,198.19,0,0,0-2-25.6L168.16,258l.78.77-.78-.77,0,0c.19,44.21.56,79.8,1.13,87.34,32.05-18,53.4-42.65,65.67-70.75l-65.48,57.49,65.48-57.49a154,154,0,0,0,11-38.27l-76.47,71.5,76.47-71.5A177,177,0,0,0,247.9,207.26Z"/><path class="cls-2" d="M168,205.55,109.74,143q-2.92,10.57-5.1,21.32l63,66.74-63-66.74c-1.82,9.05-3.23,18.14-4.18,27.19L168.12,258C168.05,241.37,168,223.55,168,205.55Z"/><path class="cls-2" d="M168.12,258.05h0V258L100.46,191.5c-.93,8.71-1.43,17.38-1.49,25.91l68.65,66.06L99,217.41a225,225,0,0,0,1.54,28.44l67.11,62.75-67.11-62.75a172.19,172.19,0,0,0,7.74,34.88l59.37,52.13-59.37-52.13c10,29.38,28.45,52.82,57.09,64.58-3.33,19.5-1.41,39.85-3,50.69h8.94c.16-10.34,1.22-30.34-2.29-50.47l.24-.14c-.57-7.54-.94-43.13-1.13-87.34Z"/></svg>