<svg id="Layer_1" data-name="Layer 1" xmlns="http://www.w3.org/2000/svg" viewBox="0 0 333.82 432"><defs><style>.cls-1{fill:#99c864;}.cls-2{fill:#fff;}</style></defs><title>Horsechestnut</title><path class="cls-1" d="M164.41,398.76c-6.62-34.44-4.81-71.19,4-109.85-76.22,120.18-61.8,92.58-123.18,83.2C58,321.25,47.93,296.7,153.13,284.56-1.41,264.07,39.87,251.17,7.81,172.53c81.2-12.91,75.26-35.65,152,92.45C99.64,94,112.9,113,168.43,38.76c70,80.17,59.3,78.85,10.11,223.5,81-121.81,75-113.22,148.45-88.64-27.63,107-16.94,90.82-141.76,110.94,77.86,19.77,88.18,2,105.65,86.46-74.69,25.34-55.13,12.33-119.47-78.85-3.65,33-1.13,67.07,8,102.23Z"/><path class="cls-2" d="M169,64q.87,24.8,1.17,49.58c.13,8.26.16,16.53.25,24.79l.08,24.79L170.45,188c-.08,8.26-.11,16.52-.25,24.78q-.3,24.8-1.17,49.58-.87-24.78-1.17-49.58c-.14-8.26-.17-16.52-.25-24.78l-.08-24.79.08-24.79c.09-8.26.12-16.53.25-24.79Q168.16,88.82,169,64Z"/><path class="cls-2" d="M188.51,74.91a33.12,33.12,0,0,1-4.18,4.49,56.55,56.55,0,0,1-4.68,3.79,54.7,54.7,0,0,1-5.06,3.28A32.42,32.42,0,0,1,169,89.05a32,32,0,0,1,4.18-4.49,51.32,51.32,0,0,1,4.68-3.79A54.7,54.7,0,0,1,183,77.49,32.42,32.42,0,0,1,188.51,74.91Z"/><path class="cls-2" d="M198,85.06a70.68,70.68,0,0,1-6.54,6.42c-2.28,2-4.64,3.92-7,5.76s-4.89,3.59-7.45,5.23A71.26,71.26,0,0,1,169,107a70.8,70.8,0,0,1,6.54-6.43c2.27-2,4.63-3.92,7.05-5.75s4.89-3.59,7.45-5.23A72.17,72.17,0,0,1,198,85.06Z"/><path class="cls-2" d="M204.56,97.39a111,111,0,0,1-8.15,8.09c-1.39,1.31-2.86,2.53-4.28,3.79l-4.39,3.66c-3,2.41-6,4.71-9.09,6.94a111.1,111.1,0,0,1-9.62,6.28,109.24,109.24,0,0,1,8.15-8.1c2.82-2.57,5.7-5.06,8.67-7.45l4.49-3.53c1.53-1.13,3-2.31,4.6-3.4A111.1,111.1,0,0,1,204.56,97.39Z"/><path class="cls-2" d="M209.31,111.77c-3,3.15-6.12,6.07-9.34,8.91-1.6,1.45-3.25,2.8-4.88,4.2l-5,4.07q-5,4-10.27,7.75c-3.49,2.49-7.05,4.91-10.8,7.09,3-3.16,6.12-6.09,9.34-8.93s6.51-5.6,9.87-8.26l5.08-3.93c1.73-1.28,3.43-2.59,5.2-3.81C202,116.36,205.57,114,209.31,111.77Z"/><path class="cls-2" d="M204.56,134.49a111,111,0,0,1-8.15,8.09c-1.39,1.31-2.86,2.53-4.28,3.79L187.74,150c-3,2.41-6,4.71-9.09,6.94a111.1,111.1,0,0,1-9.62,6.28,109.24,109.24,0,0,1,8.15-8.1c2.82-2.57,5.7-5.06,8.67-7.45l4.49-3.53c1.53-1.13,3-2.31,4.6-3.4A111.1,111.1,0,0,1,204.56,134.49Z"/><path class="cls-2" d="M203.81,154.3a102.12,102.12,0,0,1-8,7.75c-2.75,2.47-5.6,4.81-8.49,7.09s-5.86,4.48-8.9,6.57a101.34,101.34,0,0,1-9.42,5.91,104,104,0,0,1,8-7.75c2.75-2.46,5.6-4.81,8.5-7.09s5.85-4.47,8.9-6.56A102.05,102.05,0,0,1,203.81,154.3Z"/><path class="cls-2" d="M198,179a72,72,0,0,1-6.54,6.42c-2.28,2-4.64,3.92-7,5.76s-4.89,3.58-7.45,5.23A69.66,69.66,0,0,1,169,201a72,72,0,0,1,6.54-6.42c2.27-2,4.63-3.92,7.05-5.75s4.89-3.59,7.45-5.23A70.6,70.6,0,0,1,198,179Z"/><path class="cls-2" d="M194.23,199.66a54.88,54.88,0,0,1-5.59,5.71c-2,1.77-4,3.44-6.1,5s-4.26,3.11-6.5,4.52a56.34,56.34,0,0,1-7,3.84,54,54,0,0,1,5.59-5.72c2-1.77,4-3.44,6.1-5s4.27-3.1,6.5-4.51A55.07,55.07,0,0,1,194.23,199.66Z"/><path class="cls-2" d="M186.42,224.46a27.21,27.21,0,0,1-3.56,4.31,47,47,0,0,1-4.08,3.65,45.62,45.62,0,0,1-4.49,3.14,27.56,27.56,0,0,1-5,2.47,26.85,26.85,0,0,1,3.56-4.32,45.74,45.74,0,0,1,8.58-6.78A27.14,27.14,0,0,1,186.42,224.46Z"/><path class="cls-2" d="M181.08,246.13a12,12,0,0,1-2.34,2.81A18.54,18.54,0,0,1,176,251a18.14,18.14,0,0,1-3.12,1.55,12.52,12.52,0,0,1-3.57.81,11.88,11.88,0,0,1,2.34-2.82,17.89,17.89,0,0,1,2.78-2.09,19.25,19.25,0,0,1,3.12-1.54A12,12,0,0,1,181.08,246.13Z"/><path class="cls-2" d="M150.12,74.91a32.42,32.42,0,0,1,5.56,2.58,54.7,54.7,0,0,1,5.06,3.28,52.72,52.72,0,0,1,4.68,3.79,32,32,0,0,1,4.18,4.49A32.42,32.42,0,0,1,164,86.47,53.39,53.39,0,0,1,159,83.19a56.55,56.55,0,0,1-4.68-3.79A33.12,33.12,0,0,1,150.12,74.91Z"/><path class="cls-2" d="M140.61,85.06a72.17,72.17,0,0,1,7.95,4.56c2.56,1.64,5,3.4,7.45,5.23s4.78,3.73,7.05,5.75A70.8,70.8,0,0,1,169.6,107a72.32,72.32,0,0,1-8-4.56c-2.56-1.64-5-3.4-7.44-5.23s-4.78-3.74-7-5.76A70.68,70.68,0,0,1,140.61,85.06Z"/><path class="cls-2" d="M134.07,97.39a111.1,111.1,0,0,1,9.62,6.28c1.56,1.09,3.06,2.27,4.6,3.4l4.49,3.53q4.44,3.59,8.67,7.45a109.24,109.24,0,0,1,8.15,8.1,109.59,109.59,0,0,1-9.62-6.28c-3.1-2.23-6.13-4.53-9.09-6.94l-4.39-3.66c-1.43-1.26-2.89-2.48-4.28-3.79A111,111,0,0,1,134.07,97.39Z"/><path class="cls-2" d="M129.32,111.77c3.74,2.18,7.3,4.59,10.79,7.09,1.77,1.22,3.46,2.53,5.19,3.81l5.09,3.93c3.36,2.66,6.64,5.43,9.87,8.26s6.37,5.77,9.34,8.93c-3.75-2.18-7.31-4.6-10.8-7.09s-6.92-5.08-10.28-7.75l-5-4.07c-1.63-1.4-3.29-2.75-4.88-4.2C135.44,117.84,132.29,114.92,129.32,111.77Z"/><path class="cls-2" d="M134.07,134.49a111.1,111.1,0,0,1,9.62,6.28c1.56,1.09,3.06,2.27,4.6,3.4l4.49,3.53q4.44,3.59,8.67,7.45a109.24,109.24,0,0,1,8.15,8.1A109.59,109.59,0,0,1,160,157c-3.1-2.23-6.13-4.53-9.09-6.94l-4.39-3.66c-1.43-1.26-2.89-2.48-4.28-3.79A111,111,0,0,1,134.07,134.49Z"/><path class="cls-2" d="M134.81,154.3a100.89,100.89,0,0,1,9.42,5.92c3.05,2.09,6,4.29,8.9,6.56s5.74,4.63,8.5,7.09a104,104,0,0,1,8,7.75,98.76,98.76,0,0,1-9.42-5.91c-3.05-2.09-6-4.29-8.9-6.57s-5.74-4.62-8.49-7.09A104,104,0,0,1,134.81,154.3Z"/><path class="cls-2" d="M140.61,179a70.6,70.6,0,0,1,7.95,4.56c2.56,1.64,5,3.4,7.45,5.23s4.78,3.73,7.05,5.75A72,72,0,0,1,169.6,201a70.67,70.67,0,0,1-8-4.55c-2.56-1.65-5-3.4-7.44-5.23s-4.78-3.74-7-5.76A72,72,0,0,1,140.61,179Z"/><path class="cls-2" d="M144.4,199.66a55.76,55.76,0,0,1,7,3.84c2.23,1.41,4.39,2.92,6.49,4.51s4.14,3.26,6.11,5a54,54,0,0,1,5.59,5.72,56.34,56.34,0,0,1-7-3.84c-2.24-1.41-4.4-2.92-6.5-4.52s-4.13-3.26-6.1-5A54.88,54.88,0,0,1,144.4,199.66Z"/><path class="cls-2" d="M152.21,224.46a27.14,27.14,0,0,1,5,2.47,45.74,45.74,0,0,1,8.58,6.78,26.79,26.79,0,0,1,3.55,4.32,27.79,27.79,0,0,1-5-2.47,45.62,45.62,0,0,1-4.49-3.14,48.68,48.68,0,0,1-4.09-3.65A27.71,27.71,0,0,1,152.21,224.46Z"/><path class="cls-2" d="M157.55,246.13a12,12,0,0,1,3.57.81,19.25,19.25,0,0,1,3.12,1.54,17.89,17.89,0,0,1,2.78,2.09,11.85,11.85,0,0,1,2.33,2.82,12.45,12.45,0,0,1-3.56-.81,18.14,18.14,0,0,1-3.12-1.55,17.58,17.58,0,0,1-2.78-2.09A12,12,0,0,1,157.55,246.13Z"/><path class="cls-2" d="M311.63,179.4q-15.69,13.08-31.71,25.69c-5.32,4.24-10.71,8.39-16.06,12.58L247.7,230.12l-16.26,12.32c-5.45,4.06-10.87,8.17-16.36,12.18Q198.7,266.77,182,278.46q15.69-13.08,31.71-25.7c5.32-4.24,10.71-8.38,16.06-12.58l16.16-12.44,16.26-12.32c5.45-4.06,10.87-8.16,16.36-12.18Q294.9,191.09,311.63,179.4Z"/><path class="cls-2" d="M316.26,200.53a28.76,28.76,0,0,1-5.69-1.07,49.32,49.32,0,0,1-5.37-1.86,50.16,50.16,0,0,1-5.13-2.45,30,30,0,0,1-4.8-3.25A29.45,29.45,0,0,1,301,193a50.13,50.13,0,0,1,5.37,1.87,47.16,47.16,0,0,1,5.12,2.46A29.31,29.31,0,0,1,316.26,200.53Z"/><path class="cls-2" d="M315.36,213.27a64.87,64.87,0,0,1-8.39-2c-2.73-.83-5.42-1.77-8.08-2.8s-5.27-2.16-7.84-3.4a63.44,63.44,0,0,1-7.54-4.19,61.39,61.39,0,0,1,8.39,2c2.74.82,5.43,1.76,8.08,2.79s5.27,2.17,7.85,3.4A65.67,65.67,0,0,1,315.36,213.27Z"/><path class="cls-2" d="M311.24,224.69a95.47,95.47,0,0,1-10.44-2.46c-3.44-1-6.82-2.07-10.17-3.26s-6.68-2.46-9.95-3.87a95.44,95.44,0,0,1-9.67-4.67,96.2,96.2,0,0,1,10.45,2.46c3.43,1,6.82,2.07,10.17,3.26s6.67,2.46,9.95,3.88A98.46,98.46,0,0,1,311.24,224.69Z"/><path class="cls-2" d="M304.71,235.71c-4-.79-7.86-1.86-11.71-3-1.93-.56-3.83-1.22-5.74-1.83l-5.68-2c-3.77-1.36-7.5-2.85-11.2-4.42a120.83,120.83,0,0,1-10.9-5.22,118.94,118.94,0,0,1,11.71,3c3.84,1.16,7.65,2.42,11.42,3.81l5.62,2.13c1.86.76,3.73,1.48,5.57,2.3C297.49,232.08,301.15,233.75,304.71,235.71Z"/><path class="cls-2" d="M287,243.23a97.87,97.87,0,0,1-10.44-2.47c-3.44-1-6.82-2.07-10.17-3.25s-6.68-2.47-9.95-3.88a96.48,96.48,0,0,1-9.67-4.67,96.2,96.2,0,0,1,10.45,2.46c3.43,1,6.82,2.07,10.17,3.26s6.67,2.47,9.95,3.88A96.32,96.32,0,0,1,287,243.23Z"/><path class="cls-2" d="M273.58,252.53A91.76,91.76,0,0,1,263.46,250c-3.32-1-6.59-2.09-9.82-3.28s-6.45-2.49-9.6-3.91a90,90,0,0,1-9.3-4.69,87.79,87.79,0,0,1,10.11,2.5c3.32,1,6.59,2.09,9.83,3.29s6.44,2.48,9.59,3.91A90.1,90.1,0,0,1,273.58,252.53Z"/><path class="cls-2" d="M253.92,260.2a64.87,64.87,0,0,1-8.39-2c-2.73-.83-5.42-1.77-8.08-2.8s-5.27-2.16-7.84-3.39a65,65,0,0,1-7.54-4.2,64.48,64.48,0,0,1,8.39,2q4.11,1.24,8.08,2.8c2.66,1,5.27,2.16,7.85,3.4A64.11,64.11,0,0,1,253.92,260.2Z"/><path class="cls-2" d="M238.14,267.46a51.09,51.09,0,0,1-7.35-1.6c-2.38-.69-4.73-1.5-7-2.39s-4.57-1.89-6.8-3a49.53,49.53,0,0,1-6.5-3.79,48,48,0,0,1,7.35,1.59c2.39.69,4.73,1.49,7,2.39s4.58,1.9,6.8,3A49.53,49.53,0,0,1,238.14,267.46Z"/><path class="cls-2" d="M217.22,273.55a24,24,0,0,1-5.21-.66,40.31,40.31,0,0,1-9.61-3.51,24.76,24.76,0,0,1-4.4-2.87,24,24,0,0,1,5.21.65,39.07,39.07,0,0,1,4.91,1.46,39.93,39.93,0,0,1,4.7,2.07A24.16,24.16,0,0,1,217.22,273.55Z"/><path class="cls-2" d="M199.82,280.07a11.61,11.61,0,0,1-3.49-.42,16.89,16.89,0,0,1-3.11-1.18,16.59,16.59,0,0,1-2.82-1.76,11.12,11.12,0,0,1-2.44-2.53,11,11,0,0,1,3.49.42,16.89,16.89,0,0,1,3.11,1.18,17.68,17.68,0,0,1,2.82,1.76A11.33,11.33,0,0,1,199.82,280.07Z"/><path class="cls-2" d="M293.11,169.59a29.62,29.62,0,0,1,1.8,5.57,51.6,51.6,0,0,1,.94,5.65,49.64,49.64,0,0,1,.31,5.73,28.85,28.85,0,0,1-.55,5.81,28.78,28.78,0,0,1-1.79-5.56,49.71,49.71,0,0,1-.95-5.65,52.11,52.11,0,0,1-.3-5.73A29.75,29.75,0,0,1,293.11,169.59Z"/><path class="cls-2" d="M280.74,167a66.61,66.61,0,0,1,1.95,8.48c.48,2.84.84,5.69,1.1,8.55s.42,5.73.46,8.61a66.9,66.9,0,0,1-.39,8.7,65.36,65.36,0,0,1-2-8.48c-.48-2.84-.84-5.7-1.1-8.56s-.41-5.73-.45-8.61A66.83,66.83,0,0,1,280.74,167Z"/><path class="cls-2" d="M268.74,167.89a98,98,0,0,1,1.81,10.68c.46,3.56.77,7.14,1,10.73s.35,7.17.33,10.76a96.1,96.1,0,0,1-.52,10.83,98.46,98.46,0,0,1-1.82-10.68c-.45-3.57-.76-7.15-1-10.73s-.34-7.17-.32-10.77A95.79,95.79,0,0,1,268.74,167.89Z"/><path class="cls-2" d="M256.46,171.24c.9,4,1.51,8,2,12,.27,2,.44,4,.67,6l.5,6.05c.29,4,.45,8.09.51,12.14s0,8.11-.33,12.2c-.9-4-1.51-8-2-12s-.89-8-1.16-12.09l-.34-6.06c-.06-2-.17-4-.17-6.08C256.08,179.38,256.12,175.32,256.46,171.24Z"/><path class="cls-2" d="M244.48,186.42a98,98,0,0,1,1.81,10.68c.46,3.57.77,7.14,1,10.73s.35,7.17.33,10.77a95.92,95.92,0,0,1-.52,10.82,98.46,98.46,0,0,1-1.82-10.68c-.45-3.57-.76-7.15-1-10.73s-.34-7.17-.32-10.77A95.79,95.79,0,0,1,244.48,186.42Z"/><path class="cls-2" d="M232,196.92a92.06,92.06,0,0,1,1.95,10.33c.49,3.45.84,6.92,1.11,10.39s.42,7,.45,10.45a92.57,92.57,0,0,1-.39,10.51,92.66,92.66,0,0,1-2-10.34c-.49-3.45-.84-6.92-1.1-10.39s-.43-7-.45-10.45A92.38,92.38,0,0,1,232,196.92Z"/><path class="cls-2" d="M219.3,213.93a67,67,0,0,1,1.95,8.48c.48,2.84.84,5.69,1.1,8.55s.42,5.74.46,8.62a65.11,65.11,0,0,1-.39,8.69,65.36,65.36,0,0,1-2-8.48q-.72-4.26-1.09-8.56c-.26-2.86-.42-5.73-.46-8.61A66.83,66.83,0,0,1,219.3,213.93Z"/><path class="cls-2" d="M208.09,227.29a51.15,51.15,0,0,1,1.85,7.36q.66,3.71,1,7.43c.22,2.49.35,5,.35,7.49a49.6,49.6,0,0,1-.49,7.57,49.74,49.74,0,0,1-1.85-7.35q-.67-3.71-1-7.44t-.36-7.49A51,51,0,0,1,208.09,227.29Z"/><path class="cls-2" d="M196.58,246a24.76,24.76,0,0,1,1.54,5.07,40.51,40.51,0,0,1,.69,5.13,38.75,38.75,0,0,1,.05,5.17,24.58,24.58,0,0,1-.81,5.23,23.89,23.89,0,0,1-1.54-5.06,38.77,38.77,0,0,1-.69-5.13,40.53,40.53,0,0,1,0-5.17A24.55,24.55,0,0,1,196.58,246Z"/><path class="cls-2" d="M185.63,261.11a11.21,11.21,0,0,1,1.75,3.07,17.59,17.59,0,0,1,1.19,6.57,11.56,11.56,0,0,1-.56,3.5,11.45,11.45,0,0,1-1.76-3.08,17.32,17.32,0,0,1-1.18-6.57A11.45,11.45,0,0,1,185.63,261.11Z"/><path class="cls-2" d="M25.43,178.25Q42.17,190,58.56,202.09c5.48,4,10.9,8.12,16.36,12.18l16.26,12.32L107.34,239c5.35,4.2,10.74,8.34,16.06,12.58q16,12.61,31.7,25.7Q138.36,265.63,122,253.47c-5.48-4-10.9-8.12-16.36-12.18L89.36,229,73.2,216.52c-5.36-4.19-10.74-8.34-16.06-12.58Q41.11,191.33,25.43,178.25Z"/><path class="cls-2" d="M20.79,199.38a29.39,29.39,0,0,1,4.81-3.24,47.16,47.16,0,0,1,5.12-2.46,50.13,50.13,0,0,1,5.37-1.87,29.45,29.45,0,0,1,5.7-1.06A30,30,0,0,1,37,194a50.72,50.72,0,0,1-10.5,4.31A28.72,28.72,0,0,1,20.79,199.38Z"/><path class="cls-2" d="M21.7,212.12a64.84,64.84,0,0,1,7.53-4.2c2.58-1.23,5.19-2.36,7.85-3.4s5.34-2,8.07-2.79a61.74,61.74,0,0,1,8.39-2A62.54,62.54,0,0,1,46,203.92q-3.85,1.86-7.85,3.4c-2.65,1-5.34,2-8.08,2.8A66.41,66.41,0,0,1,21.7,212.12Z"/><path class="cls-2" d="M25.81,223.54a98.62,98.62,0,0,1,9.67-4.66c3.28-1.42,6.6-2.69,10-3.88s6.74-2.29,10.17-3.26a95.65,95.65,0,0,1,10.45-2.46A96.48,96.48,0,0,1,56.38,214c-3.27,1.41-6.6,2.68-10,3.87s-6.74,2.29-10.17,3.26A95.65,95.65,0,0,1,25.81,223.54Z"/><path class="cls-2" d="M32.35,234.56c3.56-2,7.21-3.63,10.91-5.21,1.84-.82,3.71-1.54,5.57-2.3l5.62-2.13c3.77-1.39,7.58-2.65,11.42-3.81a118.94,118.94,0,0,1,11.71-3c-3.56,2-7.21,3.64-10.91,5.22s-7.42,3.06-11.19,4.42l-5.68,2c-1.92.61-3.81,1.27-5.74,1.83C40.21,232.7,36.33,233.77,32.35,234.56Z"/><path class="cls-2" d="M50.07,242.08a96.48,96.48,0,0,1,9.67-4.67c3.28-1.41,6.6-2.69,9.95-3.88s6.74-2.29,10.17-3.26a95.65,95.65,0,0,1,10.45-2.46,96.48,96.48,0,0,1-9.67,4.67c-3.27,1.41-6.6,2.69-10,3.88s-6.74,2.28-10.17,3.25A98,98,0,0,1,50.07,242.08Z"/><path class="cls-2" d="M63.48,251.38a90.1,90.1,0,0,1,9.31-4.69c3.15-1.43,6.36-2.71,9.59-3.91s6.51-2.32,9.83-3.29a87.79,87.79,0,0,1,10.11-2.5,90,90,0,0,1-9.3,4.69c-3.16,1.42-6.36,2.71-9.6,3.91s-6.5,2.31-9.82,3.28A92.89,92.89,0,0,1,63.48,251.38Z"/><path class="cls-2" d="M83.14,259.05a62.54,62.54,0,0,1,7.53-4.19c2.58-1.24,5.19-2.37,7.85-3.4s5.34-2,8.07-2.8a64.87,64.87,0,0,1,8.39-2,64,64,0,0,1-7.53,4.2c-2.58,1.23-5.19,2.36-7.85,3.39s-5.34,2-8.08,2.8A64.73,64.73,0,0,1,83.14,259.05Z"/><path class="cls-2" d="M98.92,266.31a49.43,49.43,0,0,1,6.49-3.79q3.34-1.65,6.81-3c2.3-.9,4.65-1.7,7-2.39a48.51,48.51,0,0,1,7.35-1.59,49.43,49.43,0,0,1-6.49,3.79c-2.23,1.1-4.5,2.09-6.81,3s-4.65,1.7-7,2.39A51.09,51.09,0,0,1,98.92,266.31Z"/><path class="cls-2" d="M119.84,272.4a24.16,24.16,0,0,1,4.4-2.86,39.79,39.79,0,0,1,4.69-2.07,39.22,39.22,0,0,1,4.92-1.46,24,24,0,0,1,5.21-.65,24.76,24.76,0,0,1-4.4,2.87,40.31,40.31,0,0,1-9.61,3.51A24,24,0,0,1,119.84,272.4Z"/><path class="cls-2" d="M137.23,278.92a11.37,11.37,0,0,1,2.45-2.53,17.24,17.24,0,0,1,2.82-1.76,16.62,16.62,0,0,1,3.11-1.18,10.93,10.93,0,0,1,3.49-.42,11.33,11.33,0,0,1-2.44,2.53,17.21,17.21,0,0,1-5.94,2.94A11.53,11.53,0,0,1,137.23,278.92Z"/><path class="cls-2" d="M44,168.44a30.54,30.54,0,0,1,.54,5.82,52.11,52.11,0,0,1-.3,5.73,49.71,49.71,0,0,1-.95,5.65,29.53,29.53,0,0,1-1.8,5.56,29.58,29.58,0,0,1-.54-5.81A50.2,50.2,0,0,1,42.15,174,29.62,29.62,0,0,1,44,168.44Z"/><path class="cls-2" d="M56.32,165.85a66.83,66.83,0,0,1,.39,8.69c0,2.88-.2,5.75-.46,8.61s-.62,5.72-1.09,8.56a65.36,65.36,0,0,1-2,8.48,65.18,65.18,0,0,1-.39-8.7q.06-4.32.46-8.61c.26-2.86.62-5.71,1.1-8.55A66.61,66.61,0,0,1,56.32,165.85Z"/><path class="cls-2" d="M68.32,166.74a98.19,98.19,0,0,1,.51,10.82c0,3.59-.11,7.18-.32,10.77s-.53,7.16-1,10.73a96.12,96.12,0,0,1-1.83,10.68,98.49,98.49,0,0,1-.51-10.83c0-3.59.11-7.18.33-10.76s.53-7.17,1-10.73A98,98,0,0,1,68.32,166.74Z"/><path class="cls-2" d="M80.59,170.09c.34,4.08.39,8.14.33,12.19,0,2-.11,4.05-.17,6.08l-.34,6.06c-.27,4-.67,8.07-1.17,12.09a121.37,121.37,0,0,1-2,12,121.54,121.54,0,0,1-.33-12.2c.06-4,.22-8.1.51-12.14l.5-6.05c.22-2,.39-4,.67-6C79.09,178.1,79.69,174.08,80.59,170.09Z"/><path class="cls-2" d="M92.58,185.27a98.19,98.19,0,0,1,.51,10.82c0,3.6-.11,7.19-.32,10.77s-.53,7.16-1,10.73A96.12,96.12,0,0,1,90,228.27a98.31,98.31,0,0,1-.51-10.82c0-3.6.11-7.19.33-10.77s.53-7.16,1-10.73A98,98,0,0,1,92.58,185.27Z"/><path class="cls-2" d="M105.09,195.77a92.4,92.4,0,0,1,.39,10.5c0,3.49-.19,7-.45,10.45s-.61,6.94-1.1,10.39a92.66,92.66,0,0,1-2,10.34,92.57,92.57,0,0,1-.39-10.51c0-3.49.19-7,.45-10.45s.61-6.94,1.11-10.39A92,92,0,0,1,105.09,195.77Z"/><path class="cls-2" d="M117.76,212.78a66.83,66.83,0,0,1,.39,8.69c0,2.88-.2,5.75-.46,8.61s-.62,5.72-1.1,8.56a63.72,63.72,0,0,1-2,8.48,63.48,63.48,0,0,1-.39-8.69c0-2.88.19-5.76.46-8.62s.62-5.71,1.1-8.55A67,67,0,0,1,117.76,212.78Z"/><path class="cls-2" d="M129,226.14a49.69,49.69,0,0,1,.49,7.57c0,2.51-.13,5-.35,7.49s-.55,5-1,7.44a49.74,49.74,0,0,1-1.85,7.35,49.62,49.62,0,0,1-.5-7.57q0-3.75.36-7.49t1-7.43A51.15,51.15,0,0,1,129,226.14Z"/><path class="cls-2" d="M140.48,244.82a25.2,25.2,0,0,1,.8,5.24,41.1,41.1,0,0,1-.73,10.3,24.49,24.49,0,0,1-1.54,5.06,24.58,24.58,0,0,1-.81-5.23,38.75,38.75,0,0,1,.05-5.17,40.51,40.51,0,0,1,.69-5.13A24.76,24.76,0,0,1,140.48,244.82Z"/><path class="cls-2" d="M151.42,260a11.28,11.28,0,0,1,.57,3.5,17.85,17.85,0,0,1-1.18,6.57,11.72,11.72,0,0,1-1.76,3.08,11.58,11.58,0,0,1-.57-3.5,17.59,17.59,0,0,1,1.19-6.57A12,12,0,0,1,151.42,260Z"/><path class="cls-2" d="M59.85,366.17c7.1-6.39,14.38-12.54,21.73-18.62,3.65-3.06,7.38-6,11.07-9l11.17-8.92,11.27-8.78c3.8-2.89,7.56-5.81,11.38-8.65,7.62-5.73,15.31-11.37,23.18-16.78-7.1,6.39-14.38,12.54-21.73,18.61-3.65,3.06-7.38,6-11.07,9.05L105.68,332,94.4,340.73c-3.79,2.89-7.55,5.81-11.38,8.65C75.4,355.11,67.72,360.75,59.85,366.17Z"/><path class="cls-2" d="M56.32,351.68a15.17,15.17,0,0,1,4.13.29,24.54,24.54,0,0,1,7.43,2.77,15.36,15.36,0,0,1,3.3,2.5,15.14,15.14,0,0,1-4.13-.29,23,23,0,0,1-3.83-1.09,24,24,0,0,1-3.6-1.69A15.31,15.31,0,0,1,56.32,351.68Z"/><path class="cls-2" d="M56.79,342.88a33,33,0,0,1,6,.88,56.28,56.28,0,0,1,11.27,4,32.19,32.19,0,0,1,5.24,3.1,32.23,32.23,0,0,1-6-.87,53.14,53.14,0,0,1-5.73-1.69A55.41,55.41,0,0,1,62,346,32.93,32.93,0,0,1,56.79,342.88Z"/><path class="cls-2" d="M59.53,334.92A49.86,49.86,0,0,1,67,336.07c2.44.55,4.84,1.21,7.21,2s4.71,1.61,7,2.57A49.65,49.65,0,0,1,88,344a48.41,48.41,0,0,1-7.47-1.14q-3.66-.83-7.21-2c-2.37-.76-4.71-1.61-7-2.58A49,49,0,0,1,59.53,334.92Z"/><path class="cls-2" d="M64,327.2a62.48,62.48,0,0,1,8.36,1.51q4.09,1,8.1,2.32c2.66.87,5.3,1.84,7.89,2.92A61.94,61.94,0,0,1,96,337.7a62.48,62.48,0,0,1-8.36-1.51c-2.73-.66-5.43-1.44-8.1-2.31s-5.3-1.85-7.89-2.94A62.58,62.58,0,0,1,64,327.2Z"/><path class="cls-2" d="M76.33,321.68a49.86,49.86,0,0,1,7.47,1.15c2.43.54,4.84,1.2,7.21,2s4.71,1.6,7,2.57a49.65,49.65,0,0,1,6.76,3.39,49.65,49.65,0,0,1-7.47-1.14q-3.66-.83-7.21-2t-7-2.57A51.32,51.32,0,0,1,76.33,321.68Z"/><path class="cls-2" d="M85.62,315a46.85,46.85,0,0,1,7.25,1.18c2.35.56,4.68,1.23,7,2s4.54,1.62,6.76,2.6a46.35,46.35,0,0,1,6.5,3.41,46.53,46.53,0,0,1-7.24-1.18c-2.36-.55-4.69-1.22-7-2s-4.55-1.63-6.77-2.6A47.49,47.49,0,0,1,85.62,315Z"/><path class="cls-2" d="M99.33,309.34a32.84,32.84,0,0,1,6,.88,55.7,55.7,0,0,1,11.27,4,32.19,32.19,0,0,1,5.24,3.1,32.12,32.12,0,0,1-6-.87,55.49,55.49,0,0,1-11.27-4A32.19,32.19,0,0,1,99.33,309.34Z"/><path class="cls-2" d="M110.32,304a25.44,25.44,0,0,1,5.29.61,41.78,41.78,0,0,1,9.8,3.45,24.22,24.22,0,0,1,4.5,2.84,24.78,24.78,0,0,1-5.29-.62,39.07,39.07,0,0,1-5-1.42,40.92,40.92,0,0,1-4.79-2A24.77,24.77,0,0,1,110.32,304Z"/><path class="cls-2" d="M124.94,299.44a12.87,12.87,0,0,1,3.77,0,19.79,19.79,0,0,1,3.5.82,19.45,19.45,0,0,1,3.29,1.42,12.94,12.94,0,0,1,3,2.25,12.86,12.86,0,0,1-3.77,0,20.18,20.18,0,0,1-6.79-2.25A12.84,12.84,0,0,1,124.94,299.44Z"/><path class="cls-2" d="M137.07,294.61a6.4,6.4,0,0,1,2.59-.11,8.3,8.3,0,0,1,2.24.66,8.4,8.4,0,0,1,2,1.25,6.48,6.48,0,0,1,1.62,2,6.46,6.46,0,0,1-2.6.12,8.55,8.55,0,0,1-4.2-1.92A6.6,6.6,0,0,1,137.07,294.61Z"/><path class="cls-2" d="M73,372.57a15,15,0,0,1-1.68-3.75,25,25,0,0,1-.84-3.87,23.73,23.73,0,0,1-.19-4,14.63,14.63,0,0,1,.65-4.06,15.32,15.32,0,0,1,1.69,3.76,24.47,24.47,0,0,1,.83,3.87,23.61,23.61,0,0,1,.19,3.95A15.4,15.4,0,0,1,73,372.57Z"/><path class="cls-2" d="M81.71,374.13a33.38,33.38,0,0,1-1.83-5.78,55.71,55.71,0,0,1-1-5.87,53.21,53.21,0,0,1-.34-5.94,31.82,31.82,0,0,1,.51-6,31.93,31.93,0,0,1,1.84,5.77,55.84,55.84,0,0,1,1.31,11.81A31.86,31.86,0,0,1,81.71,374.13Z"/><path class="cls-2" d="M90.13,373.29A50.17,50.17,0,0,1,88.36,366c-.42-2.45-.72-4.91-.92-7.37s-.3-4.95-.28-7.43a47.63,47.63,0,0,1,.57-7.5A49,49,0,0,1,89.51,351c.42,2.45.72,4.91.92,7.37s.29,4.95.27,7.43A47.63,47.63,0,0,1,90.13,373.29Z"/><path class="cls-2" d="M98.71,370.74a62.86,62.86,0,0,1-1.92-8.23c-.47-2.76-.82-5.53-1.07-8.31s-.4-5.57-.43-8.37a61.43,61.43,0,0,1,.43-8.44,62.86,62.86,0,0,1,1.92,8.23c.47,2.76.82,5.53,1.07,8.31s.39,5.57.42,8.37A63,63,0,0,1,98.71,370.74Z"/><path class="cls-2" d="M106.93,360a50,50,0,0,1-1.77-7.3c-.42-2.45-.72-4.91-.92-7.38s-.3-4.94-.28-7.42a47.63,47.63,0,0,1,.57-7.5,49,49,0,0,1,1.78,7.31c.42,2.44.72,4.9.92,7.37s.29,4.94.27,7.43A50,50,0,0,1,106.93,360Z"/><path class="cls-2" d="M115.58,352.56a47.27,47.27,0,0,1-1.85-7.05c-.45-2.37-.78-4.75-1-7.14s-.35-4.79-.36-7.21a46,46,0,0,1,.49-7.28,47.12,47.12,0,0,1,1.86,7.06q.66,3.56,1,7.14t.36,7.2A46,46,0,0,1,115.58,352.56Z"/><path class="cls-2" d="M124.26,340.59a31.74,31.74,0,0,1-1.83-5.78,54.81,54.81,0,0,1-1.32-11.8,31.86,31.86,0,0,1,.51-6,31.89,31.89,0,0,1,1.83,5.77,53.63,53.63,0,0,1,1,5.87,56,56,0,0,1,.34,5.94A33.59,33.59,0,0,1,124.26,340.59Z"/><path class="cls-2" d="M132,331.16a24.56,24.56,0,0,1-1.74-5,41,41,0,0,1-1.15-10.27,23.83,23.83,0,0,1,.59-5.26,23.81,23.81,0,0,1,1.75,5,41.62,41.62,0,0,1,1.14,10.27A25.17,25.17,0,0,1,132,331.16Z"/><path class="cls-2" d="M139.8,318.06a12.77,12.77,0,0,1-1.5-3.44,19.55,19.55,0,0,1-.65-7.09,12.37,12.37,0,0,1,.85-3.65,12.77,12.77,0,0,1,1.5,3.44,20.23,20.23,0,0,1,.64,3.51,19.46,19.46,0,0,1,0,3.58A12.66,12.66,0,0,1,139.8,318.06Z"/><path class="cls-2" d="M147.29,307.41a6.43,6.43,0,0,1-1.61-2,8.57,8.57,0,0,1-.78-2.19,8.15,8.15,0,0,1-.14-2.32,6.28,6.28,0,0,1,.69-2.49,6.25,6.25,0,0,1,1.62,2,7.94,7.94,0,0,1,.77,2.19,8.51,8.51,0,0,1,.14,2.32A6.46,6.46,0,0,1,147.29,307.41Z"/><path class="cls-2" d="M275.1,366.72c-7.87-5.41-15.56-11.05-23.18-16.78-3.82-2.84-7.58-5.77-11.37-8.65l-11.28-8.78-11.18-8.91c-3.69-3-7.41-6-11.07-9.05-7.34-6.07-14.62-12.23-21.72-18.62,7.87,5.41,15.55,11.06,23.17,16.78,3.83,2.84,7.59,5.77,11.38,8.65l11.28,8.79,11.17,8.91c3.69,3,7.41,6,11.07,9.05C260.72,354.18,268,360.34,275.1,366.72Z"/><path class="cls-2" d="M278.63,352.24a15.64,15.64,0,0,1-3.3,2.49,24.13,24.13,0,0,1-3.61,1.69,23.54,23.54,0,0,1-3.82,1.09,15.56,15.56,0,0,1-4.13.28,15.07,15.07,0,0,1,3.3-2.49,23.57,23.57,0,0,1,3.6-1.69,23.91,23.91,0,0,1,3.83-1.08A15.14,15.14,0,0,1,278.63,352.24Z"/><path class="cls-2" d="M278.16,343.44a32.13,32.13,0,0,1-5.24,3.09,54.12,54.12,0,0,1-5.53,2.29,53.27,53.27,0,0,1-5.74,1.68,31.32,31.32,0,0,1-6,.87,32.13,32.13,0,0,1,5.24-3.09A53.2,53.2,0,0,1,266.4,346a55.65,55.65,0,0,1,5.74-1.68A32.12,32.12,0,0,1,278.16,343.44Z"/><path class="cls-2" d="M275.42,335.48a50.82,50.82,0,0,1-6.76,3.39q-3.45,1.44-7,2.57t-7.21,2a49.65,49.65,0,0,1-7.47,1.14,49.53,49.53,0,0,1,6.75-3.39c2.31-1,4.65-1.82,7-2.57s4.77-1.42,7.21-2A49.66,49.66,0,0,1,275.42,335.48Z"/><path class="cls-2" d="M271,327.76a62.58,62.58,0,0,1-7.63,3.74q-3.9,1.62-7.9,2.93c-2.66.88-5.36,1.66-8.09,2.32a61.06,61.06,0,0,1-8.37,1.5,62.58,62.58,0,0,1,7.63-3.74q3.9-1.62,7.9-2.93c2.67-.87,5.36-1.65,8.1-2.31A62.48,62.48,0,0,1,271,327.76Z"/><path class="cls-2" d="M258.62,322.24a49.58,49.58,0,0,1-6.76,3.38c-2.3,1-4.64,1.82-7,2.58s-4.77,1.42-7.21,2a49.66,49.66,0,0,1-7.47,1.15,49,49,0,0,1,6.75-3.39c2.31-1,4.65-1.82,7-2.58s4.77-1.41,7.21-2A51,51,0,0,1,258.62,322.24Z"/><path class="cls-2" d="M249.32,315.57a46.8,46.8,0,0,1-6.49,3.41c-2.22,1-4.48,1.83-6.77,2.6s-4.61,1.43-7,2a46.53,46.53,0,0,1-7.24,1.18,46.87,46.87,0,0,1,6.49-3.42q3.33-1.45,6.77-2.59c2.29-.77,4.61-1.44,7-2A46.92,46.92,0,0,1,249.32,315.57Z"/><path class="cls-2" d="M235.62,309.9a32.64,32.64,0,0,1-5.25,3.09,54,54,0,0,1-5.52,2.29,51.7,51.7,0,0,1-5.74,1.68,32.23,32.23,0,0,1-6,.88,32.19,32.19,0,0,1,5.24-3.1,54.66,54.66,0,0,1,11.27-4A32.23,32.23,0,0,1,235.62,309.9Z"/><path class="cls-2" d="M224.62,304.59a25.32,25.32,0,0,1-4.5,2.84,42.7,42.7,0,0,1-4.79,2,40.77,40.77,0,0,1-5,1.42,24.16,24.16,0,0,1-5.29.61,24.7,24.7,0,0,1,4.5-2.83,39.29,39.29,0,0,1,4.79-2,42.77,42.77,0,0,1,5-1.42A24.77,24.77,0,0,1,224.62,304.59Z"/><path class="cls-2" d="M210,300a12.62,12.62,0,0,1-3,2.24,20,20,0,0,1-3.3,1.43,19.58,19.58,0,0,1-3.5.82,12.8,12.8,0,0,1-3.76,0,12.38,12.38,0,0,1,3-2.24,20,20,0,0,1,3.3-1.43,19.56,19.56,0,0,1,3.5-.81A13.21,13.21,0,0,1,210,300Z"/><path class="cls-2" d="M197.87,295.17a6.53,6.53,0,0,1-1.61,2,8.44,8.44,0,0,1-2,1.26,8.3,8.3,0,0,1-2.24.66,6.4,6.4,0,0,1-2.59-.11,6.34,6.34,0,0,1,1.62-2,7.72,7.72,0,0,1,2-1.25,8.35,8.35,0,0,1,2.23-.67A6.59,6.59,0,0,1,197.87,295.17Z"/><path class="cls-2" d="M262,373.13a15.4,15.4,0,0,1-.65-4.06,24.28,24.28,0,0,1,1-7.83,14.92,14.92,0,0,1,1.69-3.76,15.48,15.48,0,0,1,.65,4.07,22.59,22.59,0,0,1-.2,3.95,23.41,23.41,0,0,1-.83,3.87A14.92,14.92,0,0,1,262,373.13Z"/><path class="cls-2" d="M253.23,374.68a32.58,32.58,0,0,1-.5-6,56,56,0,0,1,.33-5.94,53.24,53.24,0,0,1,1-5.87,31.64,31.64,0,0,1,1.83-5.77,31,31,0,0,1,.52,6,55.87,55.87,0,0,1-1.33,11.81A31.89,31.89,0,0,1,253.23,374.68Z"/><path class="cls-2" d="M244.81,373.84a50.11,50.11,0,0,1-.57-7.49c0-2.49.08-5,.28-7.43s.5-4.93.92-7.37a49,49,0,0,1,1.78-7.31,50.14,50.14,0,0,1,.57,7.5c0,2.48-.08,5-.28,7.42s-.5,4.93-.92,7.38A48.82,48.82,0,0,1,244.81,373.84Z"/><path class="cls-2" d="M236.24,371.3a60.09,60.09,0,0,1-.42-8.45c0-2.8.17-5.58.42-8.36s.6-5.55,1.07-8.31a60.27,60.27,0,0,1,1.92-8.24,61.66,61.66,0,0,1,.43,8.45c0,2.8-.18,5.59-.43,8.36s-.6,5.55-1.07,8.31A63.38,63.38,0,0,1,236.24,371.3Z"/><path class="cls-2" d="M228,360.6a48.87,48.87,0,0,1-.58-7.5c0-2.48.08-5,.28-7.42s.5-4.93.92-7.38a48.53,48.53,0,0,1,1.78-7.3,48.72,48.72,0,0,1,.57,7.49c0,2.49-.08,5-.28,7.43s-.5,4.92-.92,7.37A50.17,50.17,0,0,1,228,360.6Z"/><path class="cls-2" d="M219.36,353.12a47.19,47.19,0,0,1-.48-7.28q0-3.61.36-7.2t1-7.14a44.83,44.83,0,0,1,1.86-7.06,47.21,47.21,0,0,1,.49,7.28c0,2.41-.14,4.81-.37,7.2s-.56,4.77-1,7.14A47.12,47.12,0,0,1,219.36,353.12Z"/><path class="cls-2" d="M210.69,341.15a31.93,31.93,0,0,1-.51-6,55,55,0,0,1,1.32-11.81,31.89,31.89,0,0,1,1.83-5.77,31.76,31.76,0,0,1,.51,6,55,55,0,0,1-1.32,11.81A32,32,0,0,1,210.69,341.15Z"/><path class="cls-2" d="M203,331.72a24.55,24.55,0,0,1-.6-5.27,42.42,42.42,0,0,1,.26-5.17,38.45,38.45,0,0,1,.89-5.09,24.43,24.43,0,0,1,1.74-5,24.55,24.55,0,0,1,.6,5.27,40.5,40.5,0,0,1-.25,5.17,42,42,0,0,1-.9,5.09A24.64,24.64,0,0,1,203,331.72Z"/><path class="cls-2" d="M195.15,318.61a12.87,12.87,0,0,1-.85-3.65,19.35,19.35,0,0,1,0-3.57,18.6,18.6,0,0,1,.64-3.52,12.58,12.58,0,0,1,1.5-3.43,12.69,12.69,0,0,1,.85,3.65,19.35,19.35,0,0,1,0,3.57,20.34,20.34,0,0,1-.64,3.52A12.58,12.58,0,0,1,195.15,318.61Z"/><path class="cls-2" d="M187.66,308a6.28,6.28,0,0,1-.69-2.49,8.39,8.39,0,0,1,.91-4.51,6.47,6.47,0,0,1,1.62-2,6.37,6.37,0,0,1,.69,2.49,8.27,8.27,0,0,1-.92,4.51A6.46,6.46,0,0,1,187.66,308Z"/></svg>