<svg id="Layer_1" data-name="Layer 1" xmlns="http://www.w3.org/2000/svg" viewBox="0 0 284.86 426.11"><defs><style>.cls-1{fill:#90c33e;}</style></defs><title>katsura105</title><path class="cls-1" d="M504.66,342.91c-4,0-5.29,2.42-5.3,5.9-.14,29.57-6.14,58.64-7.73,88.08-.83,15.45-1.4,30.91-3,46.31-.78,7.47-2.11,14.79-5.09,21.81a15.91,15.91,0,0,0-1.43,9h-4.89c-4.61-3.66-4.54-3.62-.93-10.55a69.53,69.53,0,0,0,7.55-27.24q3-40.15,5.92-80.31c.91-12.69,3.12-25.3,2.45-38.09a59.73,59.73,0,0,0-1-10c-1.16-5.25-2.35-6-7.62-4.28-1.53.51-3,1.12-4.53,1.68,0-2.66,2-2.86,4-3.21a1.56,1.56,0,0,0,1.46-1.61c-.11-1-1.08-1-1.87-1.05l-9.6-.67,0-1.17a62.69,62.69,0,0,0,7.88-.09c1.9-.25,4.57,2.1,5.21.15.77-2.31-2.93-2.7-4.32-4.33-.54-.63-1.74-.75-2.66-1-3.18-.93-7.24-.93-9.52-2.17C463,326.44,456,326.55,449,325.92q-.09-.45-.15-.93a6.61,6.61,0,0,0,0-.89,147.61,147.61,0,0,1,24.37,3.8c.71,1.1,1.85,1,2.93,1a2,2,0,0,0,1.95.81c2.47.21,4.39,2.83,7.58,1.52-1.53-2.21-1.89-5-4.61-6.24a3.22,3.22,0,0,0-.82-.09,14.74,14.74,0,0,0-4.06-6.61c-2.24-1.44-5.32-2.17-5-5.75l1.08-.08a78.3,78.3,0,0,1,12.65,12.63c1.32,2.42,2.77,4.73,5.77,6.11.23-4.24-1.53-7.56-2.76-11-1.39-4.84-2.76-9.69-4.17-14.52-.37-1.26-1.06-2.55,1.17-2.68h0c1.46,3.46,1.78,7.33,3.91,10.55q2.4,8.81,4.82,17.61c2.93-6.16,1.55-12.44,2.12-18.56,1.59-6.36.68-12.83.82-19.25,1.45-1.1,1-2.55.76-3.95,0-1.58.71-3.28-.72-4.65,0-.94.07-1.88.11-2.81,1.34-1.08.8-2.57.9-3.92v-1l-.12-2.9,0-2.85c.6-1.92-.72-4.23,1.28-5.85l0,1.93c0,2.29-.92,4.68.76,6.78,0,1.29,0,2.57,0,3.86-1.31,1.28-1.43,2.55.05,3.8q0,5.78,0,11.55-1.55.94,0,1.89c0,3.17-1.44,6.24-.69,9.46l0,4,0,.42,0,.43-.19,2.93v1c0,4.89-.73,9.85,1.48,14.69q3.57-8.81,7.13-17.59A37.84,37.84,0,0,1,513.25,300h1.25l-1.26,4.75-.81,1a6.76,6.76,0,0,0-1.34,3.76c-1.92,1.1-1.75,3.27-2.59,4.91-.09.86-.17,1.73-.26,2.59-2.48,1.07-2.35,3.56-3,5.56s-2.66,5.29-.45,6.43c2.63,1.36,4-2.11,5.56-4a2.09,2.09,0,0,0,2-1,6.46,6.46,0,0,0,2.94-2.72c5.48-2.79,9.05-8.07,14.61-10.76l.07,1a14.74,14.74,0,0,1-3.11,3.49c-5.3,5.13-11.9,8.84-16.6,14.62-3.07.91-5.05,2.75-5.61,6.11,2.65.1,3.82-2.18,5.88-2.57l2.89,0-.12,1.34c-.95.06-2,.17-2.3,1.19-.38,1.2.73,1.55,1.55,1.83a36.65,36.65,0,0,0,3.58.88c-2.12,3.85-5.7,1.6-8.48,1.58C505,340,504.56,340.85,504.66,342.91Z" transform="translate(-355.67 -87.89)"/><path class="cls-1" d="M361.19,208c0-.64.06-1.27.1-1.9,2.47-3.48,1.58-8.23,4.52-11.53,5.56.31,5.58.3,4.36-5.3-.21-.92,0-1.63.77-2,4.86-2.14,1.13-3.6-.39-5.24l-.18-2.15V180c.81,0,1.63.07,2.43.15,7.11.72,9.07-1.42,8.09-8.84-.31-2.36,3.11-4.7,5.63-3.72,1,.39,2,1.62,3,.43s-.66-1.91-1.11-2.83c-1.59-3.21-2.28-5.75,2.82-6.28a5,5,0,0,0,4.92-5c.15-2,2.42-5.24,2.77-5,4.71,3,8.69-.59,12.68-.63,3.65,0,4.82-.49,6.2-3.14.53-1,1.85-2,2.4-.19.66,2.22,1.73,3.2,3.76,2s1.65-3,.46-4.57c-1.95-2.66-.42-4.4,1.51-6.09,3.05-2.69,6.27-5.23,9.12-8.11,2.58-2.62,4.77-5.6,7.68-7.92,1-.81,1.86-1.88,3.26-.47,1.17,1.17,3.15,1.38,3.91.28,1-1.39,2.9-2.77,2-4.94-1.71-4.23,2.05-4.93,4.35-5.62,3.19-1,1.76,2.6,2.85,3.87.67.79-1.11,2.08.6,3a9.6,9.6,0,0,0,1.7-4.78c.11-1.15.16-2.3,1.72-2.43s2,.66,2.21,2c.65,3.49,4.18,3.87,6.58,5a3.69,3.69,0,0,0,5.16-2.67c1-5.07,2.17-5.2,7.11-3,3.85,1.7,7.72,4.51,12.48,1.15,2.48-1.75,3.95.41,3.74,2.93a76.25,76.25,0,0,1-1.41,9.86c-1.71,8-1.78,8-9.22,6.73-1.33,0-2.6,0-3-1.69-.3-1.14-1-2.18-2.41-1.67-1.25.44-1.37,1.62-1.37,2.79,0,4.68-1.29,9.7,4,12.81a1.67,1.67,0,0,1,.58,2.14,1.56,1.56,0,0,1-1.15.57c-4,.18-7.84.37-9.79-4.45a23.12,23.12,0,0,1-1.61-4.26c-.29-1.52-.67-3.5-2.87-3.12-4.88.86-2.62-2.13-2.28-4,.18-.94,1.95-2.31.26-2.61a10.87,10.87,0,0,0-6,1.19c-1.31.61-.55,2.25-.13,3.46,1.34,3.82,1.51,8.24,6,10.3,1.68.76,1.09,2.47,1.2,3.85h-1.94c-4-1.93-5.41-7-10.32-7.95a8.2,8.2,0,0,0,.16,1.43c.82,2.89-1.37,3.38-3.27,3.51-2.75.19-1.68-1.65-1.67-3.26s1-3.34-.81-5.34c-.86,3.22-1.44,6.11-3.59,8.36-1.59-1-2.72-3.26-1.48-3.87,3.69-1.81,1.18-4.33,1.45-6.51.66-5.22-2.1-4.46-5.22-3.13-1,1.73,3.54,1.56,1.17,3.05-2.61,1.64-1.78,4.21-2.82,6.21-1.44,2.75-.12,6.11-1.87,8.74-.59.89-.91,2.77-2.74,2-1.24-.52-1.27-1.68-.9-2.88.3-1,1.35-2.28-.39-2.73a2.09,2.09,0,0,0-2.39,1.89c.11,2-2.64,3.2-1.3,5.62.91,1.64-.62,1.13-1.5,1-4.15-.8-5.64,3.06-8.16,4.88a4.13,4.13,0,0,0-.61,6.26c1.21,1.47-.22,3.26-2.31,2.84s-6.48,1.9-6.27-1.57c.21-3.63-2-5.49-3-8.15-.29-.73-.83-1.48-1.82-1.19s-.95,1.27-.83,2c.46,2.81.89,5.64,1.61,8.39.57,2.19-.07,3.38-2.27,3.82-3.45.68-7.65,2.3-10.17,2-6.58-.84-5.14,3.37-5.18,6.13,0,2-.15,3-2.12,3.37-4.72.89-6.12,4.18-6.33,8.36h0c-.74.27-1.51.49-2.22.82-3.81,1.75-6,3.83-2.23,7.82,1.32,1.4,2,4.77.11,4.87-4.3.21-5.43,5.48-10,4.43,2.13,3.4,5.77,1.29,8.07,2.85-.73,2.21-3.41.3-3.85,2,3.42,4.61,5.11,10.31,10.92,12.72-4.87-.15-5.58.07-5,1.77,1.15,3.69,5.7,5.39,8.54,2.79,1.87-1.71,4.06-2.65,5.34-.89s4.28,4,2.3,7.06a5.23,5.23,0,0,0-.9,4.55c1.16-.2,1.21-2.55,2.82-1.53,1.32.83.69,1.93,0,2.87-1.84,2.41-.76,3.21,1.81,3.72,1.2.24,3,.17,3.5,2.22-2.44.76-6.49-1.85-7,3,0,.19-1.49.22-2.29.33-.29-1.48,2-3,.15-4.33-.78-.56-2.18.2-2.45,1-.62,1.84.39,3,2.3,3.31.29.53.48,1.44.87,1.53,5.36,1.26,10.69,2.75,17.1,2.73-1.78,1.37-2.89,2.15-3.92,3-2.38,2-4.6,3.33-1.88,7.46,1.56,2.36,7.37,1.09,5.23,6a1.66,1.66,0,0,0,2.09-.6c1-1.16,1.49-2.79,3.07-3.41,2.68,2.22.68,4.23-.08,6.28a72.21,72.21,0,0,1-20.92.86c6.38.92,12.46,3.91,19.13,2,1.72-.5,1.74-1.59,1.79-2.87,3.81,1.52,8-1.46,11.73.95,4.75-.37,7.83,2.46,10.6,5.58,4.1,4.62,7.58,9.86,12.12,14,3.29,3,6.09,6,7.6,10.12-1.51,1-1.48,6.93-5.2.9-.74,3.17-2.41,4.79-5.07,5.26-1.22-2,3.12-4.31-.87-5.65-1.3,1.61-.92,4.79-3.53,4.69-2.27-.08.84-2.87-1.2-3.84-1.79.13-3.87,4.95-5,1.35-1.83-6-3.95-3.24-7.14-.53,0-4.09-3.43-5.43-4.11-8.5-2.28,1.45-4.15,2.69-6.08,3.85-1.38.82-2.5.69-2.85-1.12-.66-3.48-3.56-6.67-1.16-10.59.43-.71.13-3.6-.66-3.09-4.63,3-2.23-3.05-4.48-3l-1.48,2.48c-1.81-4.53-8.38,3.09-9.53-3.6-.16-.92-1.52-.31-2.22.58-2.06,2.59-4.14,2.65-6.08-.18-1-1.47-2.88-2.6-4.13-1.82-4.55,2.86-6.42-.85-8.87-3.08-1.66-1.51-3.08-3.27-4.61-4.92a1.48,1.48,0,0,0-1.71-.56c-.72.3-.81.86-.58,1.56.29.86.88,1.79-.43,2.56-5.23-3-.9-10.46-6.93-13.19,1.56-1.17,5,.56,3.74-2.66-1-2.59-.32-4.49.93-6.7.7-1.24,1.87-2.93.77-4.5a11.33,11.33,0,0,1-1.6-10.87,4.45,4.45,0,0,0-.42-3.22c-2.12-3.79-3.12-7.59-1.12-11.73.65-1.34,1.24-3,.07-4.06-2.44-2.17-2.81-5.26-4.23-7.87C361,211.64,363.18,209.13,361.19,208Zm46.38-44.61c-1-1.78-3.51-1.88-2.53-4.14.48-1.12-.34-1.87-1.43-1.95-1.61-.12-1.73,1.09-1.77,2.26-.06,1.71.3,3.49-1.62,4.68-1.18.73-1.93,2.11-.36,3.08a2.27,2.27,0,0,0,3.35-.93C403.93,164.53,405.2,163.69,407.57,163.42ZM393.39,275.17c-.18-.35-.33-.81-.42-.8-.45.05-1,.1-1.28.39a.58.58,0,0,0,.5.95C392.59,275.72,393,275.37,393.39,275.17Zm-20.85-24.24.39-.21c-.11-.09-.22-.24-.34-.25s-.25.12-.38.19Z" transform="translate(-355.67 -87.89)"/><path class="cls-1" d="M500.45,89.07l1.9-.63c1.47,4.36,4.78.29,6.94,1.46,4.05,1.61,8.25,2.87,11.93,5.28,0,.47-.17,1.2.07,1.37,3.1,2.17,7.29,2.67,9.44,6.47.48.84,3.07.71,4.13-1,.56.09,1.11.19,1.67.3,1.2.88-1.13,2.78.59,3.08,4.24.76,7.45,4.85,12.27,3.61h0c0,2.1,1.53,2.43,3.1,2.77h0c0,1.8,0,3.56,2.7,2.35l1.76.22c.29.71.44,1.9.91,2.05a31.15,31.15,0,0,1,13.94,8.57c2.71,2.87,6.78,4.62,9.15,8,1.49,2.14,4.55.22,5.81,2.6,1.9,3.57,6.68,4,8.56,7.95,1.74,3.66,6.6,4.87,8.38,8.9,1.24,2.79,3.25,4.52,6.47,6.06,2.38,1.14,3.31,6.73,3.48,10.4.21,4.47,4.74,6.77,4.67,11.12,0,.5,1.08,1.33,1.78,1.48,4.75,1,4.83,5.18,6.2,8.53.7,1.74-.67,3.93,1.29,5.35v0c.2.37.41.74.62,1.1a.86.86,0,0,1,.37.65c2,3.33-.92,7.91,2.82,10.81.05.56.11,1.11.17,1.66.91,2.18-2.74,5.92,2.36,6.68l.48,1.07c-.09,2.94.54,5.84-1.4,8.69-.79,1.17.15,3.48.3,5.28l3.16-.42a.45.45,0,0,1,.3.47c-1.37,2.48-4,4.3-2.13,8a9.92,9.92,0,0,1-.18,7.75c-1.27.47-2.65,1.93-3.79,0-1.91-3.17-.64-6,1.69-9-1.36,0-2.94.27-3.07,0-1.46-3.51-9.53-4.67-4-10.74.77-.85-.35-2.08-.63-3.14-1.13-4.25-2.46-8.57,0-12.76,3.53-6-.79-10.57-2.64-15.58-1.39-3.77-8-3-7.82-8.45,0-.83-1.66-.18-2.59-.14-3.67.15-5.05-.66-7.27-3.79A2,2,0,0,0,603,183c-3.94-.38-5.16-2.84-4.48-6.21.58-2.85-2.58-5.11-.36-8.44,3.14-4.72-.31-11.61-5.31-11.92-6.61-.4-7.34-1.19-5.93-7.77.45-2.12.08-3.94-1.68-4.36-2.81-.67-5.08-3-8.19-2.57-3.45.44-5.22-1-5.32-4.45-.08-2.79-1.5-5.38-3.89-6.25-5.45-2-8.71-6.5-13.08-9.71-3-2.19-7.4-1.76-9.23,1.33s-3.3.63-3.56-.52c-1-4.47-6.23-5.64-7.44-9.88-.39-1.34-1.45-.28-2.3.16-4.33,2.23-9.41-.33-13.94,2.16-1.42.78-4.12-1.85-4.8-3.42-2-4.61-6.06-7-9.47-10.35-1.13,2.33-.47,4.42-.65,6.44a2,2,0,0,1-1,1.91c-1.56-2.42-4.17-4.15-4.75-7.22a1.51,1.51,0,0,0-1.83-1.19,1,1,0,0,0-.81,1.4c1,2.73,0,4.81-2.53,5.87-3.45,1.42-3.62-2.19-5.21-3.63a5.49,5.49,0,0,1-1.61-3.38c-.21-1.2-1.47-1.75-2.15-1.09-2.51,2.46-7.43,2.62-8.52,4.77-3,5.92-5.32,2.29-7.39.15-2.73-2.81-4.63-3.21-7.46-.09-1.68,1.86-4.11,4.85-6.94.64-.63-.94-2,0-2.27.83-1.95,6.64-7.87,7.46-13.33,8.63-2.95.63-4,1.55-2.93,4.47.56,1.48,1,3.52-.25,4.51s-2.83-.7-3.6-1.6c-2.43-2.82-4.1.36-6,.67-2.52.43.39,1.82.13,2.69-.63,2.17.37,5.73-2.07,6.27-4.25.95-6,4.08-8.25,6.84-.8,1-1.35,2.62-2.91,1.3-3.78-3.19-7.33-.47-10.68.55-4.09,1.23-9.47,1.36-9.8,7.81,0,.92-3.42,4.4-5.18-.05,1.92-1.44,3.89-2.8,4.73-5.24.3-.87.91-2.09,1.63-2.29,5.77-1.58,8.18-7.39,13.17-9.87a8.8,8.8,0,0,0,3.13-2.93c2.71-3.71,5.21-7.24,10-9.21,3-1.25,5.38-4.52,8.79-6.17,2.48-1.2,4.53-3,7.55-2.41a2.1,2.1,0,0,0,1.74-.54c4.88-7.68,14-7.59,21.24-10.26,5-1.86,10.61-5,16.72-3.48a2.36,2.36,0,0,0,1.87-.23c4.26-4.84,10.69-2.76,15.79-4.85C495.13,90.16,498.74,93.9,500.45,89.07Z" transform="translate(-355.67 -87.89)"/><path class="cls-1" d="M504.66,342.91c-.1-2.06.34-2.87,3-2.86,2.78,0,6.36,2.27,8.49-1.58,4.52,1.28,9.12.87,13.78.78-.64-2.26-2.69-5.22,2.32-3.88.42.11,1-.53,1.58-.82h0c4.22.18,8.41,3.95,12.73.14.21-.19,1.3.23,1.68.64,1.08,1.17,2.56.3,3.46.66,4.56,1.77,8.26.92,11.83-2.23.9-.8,2.47.26,3.63.83s2.78,1.5,3.65.67c2.85-2.68,5.34-4.17,8.35-.24.48.63,1.36-.4,2-.92a5.76,5.76,0,0,1,3.5-1.5c.13.7.1,1.52,1.18,1.45.11,0,.3-.19.3-.3.07-1.05-.77-1-1.47-1.15,0-2,0-2.11,4.15-3.61,7.94-2.87,12.36-9.12,15.84-16.07,1-2.08.93-4.55,4-5,.43-.06,1.11-1.8.93-2-5.47-4.89.25-3.59,2.4-4.37a1.83,1.83,0,0,0,.89-1.54c-.73-5.21,8-3.75,6.73-9.24a7.69,7.69,0,0,0,1,0c4.2-.45,2.47-4,1.4-4.58-3.21-1.77-1-3.27-.77-5.08,1.66.31.82,3.9,3.33,2,1.48-1.14.81-2.24-.42-3.07s-1.81-2.1-1-3.26c1.1-1.48,1.15-1.95-.6-3.15-2.6-1.78,3.73-3,.86-5.56-.26-.22,1.51-.55,2.43-.53,2.56.06,5-3.55,3.17-5.14-2.85-2.5-2.87-5.11-1.05-7.53,1.7-2.25,2.63-5.78,6.55-5.71.07,4.52-.35,9,.29,13.56A12.3,12.3,0,0,1,632,272.4c-1.12,1.44-3.28,5.77,2,6.78.86.16,1.06,1,.3,1.84-1.93,2.22.24,3.36,1.42,4.74l0,0c-2.69-.08-1.85,1.64-2,3.24-.35,4.81-.15,10-4.91,13.14a6.38,6.38,0,0,0-3.15,6.41h0c-.53.27-1.49.5-1.53.83-.5,4.49-4.36,6.25-7.25,8.8l-.38-.23.41.2c-.05,2-1.84,2.92-3.11,3.28-9.34,2.67-9.47,12.63-15.16,18.14a6.19,6.19,0,0,0,.56.7,1.19,1.19,0,0,1,0,.85c-2.47,1.63-5.05,3.32-7.45,4.74-1.73,1-.13,3.45-2.16,3-5.91-1.25-5.9,5.07-9.16,7.31s-6.48,4.7-9.73,1.93c-1.16-1-2.13-2-3.78-1.19-1.9.93.79,2.29-.28,3.6-4.73-2.28-10-5.11-14.38-5.13-5,0-8.84-3.73-13.67-2.56a.54.54,0,0,1-.67-.26c-.06-.94,0-2.05-1-2.46-5.19-2.09-10.09-5.43-16.19-3.78l-2.25-.2-1.11-.13C512.75,346.13,508.69,344.55,504.66,342.91Zm71.59,12.68.78-.38c-.24-.15-.48-.4-.72-.42s-.51.22-.77.34Z" transform="translate(-355.67 -87.89)"/><path class="cls-1" d="M449,325.92c7,.63,14,.52,20.66,4.15,2.28,1.24,6.34,1.24,9.52,2.17.92.27,2.12.39,2.66,1,1.39,1.63,5.09,2,4.32,4.33-.64,2-3.31-.4-5.21-.15a62.69,62.69,0,0,1-7.88.09l0,1.17,9.6.67c.79.06,1.76,0,1.87,1.05A1.56,1.56,0,0,1,483,342c-2,.35-4,.55-4,3.21L476.15,347c-.87-.07-1.6.11-1.89,1.05h0l-1,1-1.22.76c-4,.58-8.92-.07-11.8,2-4.9,3.53-7.41.92-10.21-1.88-1.46-1.46-2.56-1.62-4.59-1.41-7.36.79-14.95,2.29-21.55-2.83-.48-.37-1.38-1-1.5-.91-4.36,3.89-7.61-1-11.4-1.37-.69-.07-1.92-.1-1.7-1.2s1.54-.78,2.44-.89l.39.23-.42-.2c-.25-1.27.43-2.68-.64-4.08-2.68,4.1-6.16,1.8-9.41,1.38-5.69-2.88-11.9-5.24-12.78-12.79-.23-1.92-1.88-2.74-3.27-3.87-3.89-3.16-6.53-7-5.27-12.33,1-4.32-2.1-7.49-3.09-11.24a5.64,5.64,0,0,0,1.12-4c1-.72,1.63-1.73.38-2.48-.91-.55-1.06.62-1.22,1.31l-1.15.11-4.83-1.78-.92-1.94c.11-1.92.36-4,2.92-2,1.6,1.24,3.41,1,5.06,1.33,3.12.57,5.95,1.12,6.62,4.9.59-.5,1-.65,1-.87.79-4,4.25-4.55,6.65-3.11,3.43,2.06-1.87,2.14-1.7,4,.09.95-.61,2-1,3.09,2.09.17,3.92,1.58,6.12,1,.92-.24,1.68-.22,1.49,1-.13.82-.84.85-1.51.67-1.35-.35-3.39-1.28-3.57.64-.26,2.8.59,6,2.93,7.66,2.17,1.58,2.52-2.26,4.76-2.57.89,2.3,1.7,6.46,4.81,5,5.58-2.69,8.71.42,12.36,3.16-.78.16-2.07.11-2.25.52-1.93,4.54-3.9,3.85-5.77-.26-1.73,2.12,2,5.8-3.08,5.92,2.93,1.48,9.48-1.79,6.26,5.54-.08.2,1,1,1.64,1.36,3.17,1.81,5.09,4.11,3.19,7.8,3.82-.48,7-1.54,9.28-4.49a1.84,1.84,0,0,1,2.55-.68c1.44,1-1.15,1.76-.3,3,1.77.23,3.92-1.45,5.47.06,2.31,2.25,3.46.46,5.27-.68C442.82,329.65,445.17,326.61,449,325.92Zm-49.27-10.84c2.61,2.33,4.53,4.27,7.32,2.69,1.05-.6-.21-1.58-.62-2.35C404.56,312,402.49,314.54,399.71,315.08ZM435.41,341c-2.54-3.82-3.91-1.36-6.49,1.06Zm28.91-1.43c2.65-.46,4.2.17,5.95-1.26C468.16,337.15,466.76,337.61,464.32,339.6Zm-29.22-2.35.39-.2c-.11-.09-.22-.24-.33-.25s-.26.12-.39.18Z" transform="translate(-355.67 -87.89)"/><path class="cls-1" d="M386.09,148.25c1.76,4.45,5.13,1,5.18.05.33-6.45,5.71-6.58,9.8-7.81,3.35-1,6.9-3.74,10.68-.55,1.56,1.32,2.11-.33,2.91-1.3,2.29-2.76,4-5.89,8.25-6.84,2.44-.54,1.44-4.1,2.07-6.27.26-.87-2.65-2.26-.13-2.69,1.88-.31,3.55-3.49,6-.67.77.9,2.21,2.7,3.6,1.6s.81-3,.25-4.51c-1.1-2.92,0-3.84,2.93-4.47,5.46-1.17,11.38-2,13.33-8.63.24-.81,1.64-1.77,2.27-.83,2.83,4.21,5.26,1.22,6.94-.64,2.83-3.12,4.73-2.72,7.46.09,2.07,2.14,4.4,5.77,7.39-.15,1.09-2.15,6-2.31,8.52-4.77.68-.66,1.94-.11,2.15,1.09a5.49,5.49,0,0,0,1.61,3.38c1.59,1.44,1.76,5,5.21,3.63,2.55-1.06,3.5-3.14,2.53-5.87a1,1,0,0,1,.81-1.4,1.51,1.51,0,0,1,1.83,1.19c.58,3.07,3.19,4.8,4.75,7.22,0,3.23.17,6.48-1,9.6-.37,7-2.15,14-1.84,21.07.08,2-.2,4,1.49,5.27s3,0,4.39-.8a8.88,8.88,0,0,1,2.8-.59h0c-1.43,3.37-4.34,4.45-7.7,4.84a2.26,2.26,0,0,0-2.08-1c.67-6.52-.43-12.15-7.57-14.84-.51-.2-.79-.94-1.18-1.43,7.44,1.29,7.51,1.3,9.22-6.73a76.25,76.25,0,0,0,1.41-9.86c.21-2.52-1.26-4.68-3.74-2.93-4.76,3.36-8.63.55-12.48-1.15-4.94-2.17-6.11-2-7.11,3a3.69,3.69,0,0,1-5.16,2.67c-2.4-1.14-5.93-1.52-6.58-5-.24-1.29-.77-2.08-2.21-2s-1.61,1.28-1.72,2.43a9.6,9.6,0,0,1-1.7,4.78c-1.71-1,.07-2.26-.6-3-1.09-1.27.34-4.83-2.85-3.87-2.3.69-6.06,1.39-4.35,5.62.88,2.17-1.06,3.55-2,4.94-.76,1.1-2.74.89-3.91-.28-1.4-1.41-2.24-.34-3.26.47-2.91,2.32-5.1,5.3-7.68,7.92-2.85,2.88-6.07,5.42-9.12,8.11-1.93,1.69-3.46,3.43-1.51,6.09,1.19,1.61,1.44,3.44-.46,4.57s-3.1.24-3.76-2c-.55-1.83-1.87-.82-2.4.19-1.38,2.65-2.55,3.1-6.2,3.14-4,0-8,3.59-12.68.63-.35-.22-2.62,3.06-2.77,5a5,5,0,0,1-4.92,5c-5.1.53-4.41,3.07-2.82,6.28.45.92,2.05,1.66,1.11,2.83s-2,0-3-.43c-2.52-1-5.94,1.36-5.63,3.72,1,7.42-1,9.56-8.09,8.84-.8-.08-1.62-.1-2.43-.15l1-3.67c2.05-1.51.86-3.56.92-5.39a2.76,2.76,0,0,1,1.49-2.3c2.6-.88,1.44-2.84,1.35-4.5.1-.43.19-.86.29-1.29,1.74-.63,2.12-2.32,3-3.65,2.27-1.84,2.26-4.85,3.75-7.07C383.17,150.64,383.82,148.61,386.09,148.25Z" transform="translate(-355.67 -87.89)"/><path class="cls-1" d="M627.59,195.35c-2-1.42-.59-3.61-1.29-5.35-1.37-3.35-1.45-7.51-6.2-8.53-.7-.15-1.79-1-1.78-1.48.07-4.35-4.46-6.65-4.67-11.12-.17-3.67-1.1-9.26-3.48-10.4-3.22-1.54-5.23-3.27-6.47-6.06-1.78-4-6.64-5.24-8.38-8.9-1.88-3.94-6.66-4.38-8.56-7.95-1.26-2.38-4.32-.46-5.81-2.6-2.37-3.4-6.44-5.15-9.15-8a31.15,31.15,0,0,0-13.94-8.57c-.47-.15-.62-1.34-.91-2.05,1.95-.72,3.44.42,5,1.24,2.7,1.43,5.27,3.17,8.53,3.23,1.59,0,2.7,1.09,3.69,2.11,5.66,5.85,12.34,10.37,18.81,15.25,5.32,4,12.56,7.07,15,14.66,1.1,3.36,5,5.36,7,8.72a224.93,224.93,0,0,1,12.42,23.6C629.12,187.09,628.66,191.26,627.59,195.35Z" transform="translate(-355.67 -87.89)"/><path class="cls-1" d="M538.47,352.87c4.83-1.17,8.66,2.53,13.67,2.56,4.4,0,9.65,2.85,14.38,5.13,1.07-1.31-1.62-2.67.28-3.6,1.65-.8,2.62.2,3.78,1.19,3.25,2.77,6.58.24,9.73-1.93s3.25-8.56,9.16-7.31c2,.44.43-2,2.16-3,2.4-1.42,5-3.11,7.45-4.74.07.63.46,1.52.17,1.85-6.14,7-9.71,16.08-21,18.36-5.76,1.17-11.07,2.17-16.59.86C553.49,360.29,545.07,358.68,538.47,352.87Z" transform="translate(-355.67 -87.89)"/><path class="cls-1" d="M635.63,285.76c-1.18-1.38-3.35-2.52-1.42-4.74.76-.87.56-1.68-.3-1.84-5.24-1-3.08-5.34-2-6.78a12.3,12.3,0,0,0,2.78-9.69c-.64-4.54-.22-9-.29-13.56,0-.68,0-1.37,0-2.05a9.92,9.92,0,0,0,.18-7.75c-1.83-3.74.76-5.56,2.13-8,.38.29,1.07.55,1.1.87.73,6.59,1.42,13.19,2,19.78.07.76-.74,1.72-.48,2.31,3.31,7.63-2,15.15-.23,22.78A8,8,0,0,1,635.63,285.76Z" transform="translate(-355.67 -87.89)"/><path class="cls-1" d="M401.63,338.65c3.25.42,6.73,2.72,9.41-1.38,1.07,1.4.39,2.81.64,4.08l0,0c-.9.11-2.18-.36-2.44.89s1,1.13,1.7,1.2c3.79.4,7,5.26,11.4,1.37.12-.11,1,.54,1.5.91,6.6,5.12,14.19,3.62,21.55,2.83,2-.21,3.13,0,4.59,1.41,2.8,2.8,5.31,5.41,10.21,1.88,2.88-2.08,7.8-1.43,11.8-2-5.43,4.91-11.89,6.36-19,5.47-.47,0-1.22-.17-1.34-.46-2.69-6.49-7.62-3.29-12.13-3A35.2,35.2,0,0,1,423.72,349a5,5,0,0,0-3.21-.44,41.4,41.4,0,0,1-4.34.39C408.29,349.64,403.81,345.72,401.63,338.65Z" transform="translate(-355.67 -87.89)"/><path class="cls-1" d="M361.19,208c2,1.1-.18,3.61,1.66,4.77-1.68,2.34-6,4.5-3.5,7.43,2.13,2.52,1.6,4.05.93,6.42-.49,1.76-1.33,3.53-.83,5.52,1.62,6.51-.6,13.38,1.95,19.81.41,1,.76,2.15-.46,3L358,253.22a86.54,86.54,0,0,0-1.91-11c-1.41-7.23,1.25-13.71,1.4-20.48C357.59,216.58,357.63,212,361.19,208Z" transform="translate(-355.67 -87.89)"/><path class="cls-1" d="M616.8,318.22c2.89-2.55,6.75-4.31,7.25-8.8,0-.33,1-.56,1.53-.83.36,7.46-3.87,12-10.16,15.09a6.81,6.81,0,0,0-3.92,4.16c-2.2,5.72-5.85,10.63-12.38,12.47a6.19,6.19,0,0,1-.56-.7c5.69-5.51,5.82-15.47,15.16-18.14,1.27-.36,3.06-1.29,3.11-3.28Z" transform="translate(-355.67 -87.89)"/><path class="cls-1" d="M358,253.22l2.95,1.75c-.25,4.74-.9,9.38,2.46,13.71,1.38,1.78,1.64,4.68,1.28,7.36-.75,5.6,2.55,9.67,5.92,13.64l.92,1.94c-5-1.32-9.49-8.55-9.46-15.35,0-1.26.38-2.89-.26-3.7C357.15,266.7,357,260.09,358,253.22Z" transform="translate(-355.67 -87.89)"/><path class="cls-1" d="M370.55,182.08c1.52,1.64,5.25,3.1.39,5.24-.79.35-1,1.06-.77,2,1.22,5.6,1.2,5.61-4.36,5.3l-1.29-1.09c2-2-.52-4.49.62-6.61a7,7,0,0,0,3.17-5.15Z" transform="translate(-355.67 -87.89)"/><path class="cls-1" d="M625.58,308.58a6.38,6.38,0,0,1,3.15-6.41c4.76-3.1,4.56-8.33,4.91-13.14.11-1.6-.73-3.32,2-3.24-.4,4.88,1.78,9.8-1.6,14.68C631.66,303.85,629.33,306.81,625.58,308.58Z" transform="translate(-355.67 -87.89)"/><path class="cls-1" d="M520.59,346.37c6.1-1.65,11,1.69,16.19,3.78,1,.41,1,1.52,1,2.46C531.86,351.08,525.68,350.17,520.59,346.37Z" transform="translate(-355.67 -87.89)"/><path class="cls-1" d="M534.86,102c-1.06,1.73-3.65,1.86-4.13,1-2.15-3.8-6.34-4.3-9.44-6.47-.24-.17-.06-.9-.07-1.37C526.33,96.36,530.68,99,534.86,102Z" transform="translate(-355.67 -87.89)"/><path class="cls-1" d="M636.46,230.84l-3.16.42c-.15-1.8-1.09-4.11-.3-5.28,1.94-2.85,1.31-5.75,1.4-8.69,2.8,2.25,2.34,5.37,2.31,8.36C636.7,227.38,636.55,229.11,636.46,230.84Z" transform="translate(-355.67 -87.89)"/><path class="cls-1" d="M549.39,109c-4.82,1.24-8-2.85-12.27-3.61-1.72-.3.61-2.2-.59-3.08C541.75,102.8,544.58,107.73,549.39,109Z" transform="translate(-355.67 -87.89)"/><path class="cls-1" d="M364.52,193.51l1.29,1.09c-2.94,3.3-2.05,8.05-4.52,11.53C360.57,201.48,361.08,197.14,364.52,193.51Z" transform="translate(-355.67 -87.89)"/><path class="cls-1" d="M631.39,207.88c-3.74-2.9-.79-7.48-2.82-10.81C633.55,199.66,631.38,204,631.39,207.88Z" transform="translate(-355.67 -87.89)"/><path class="cls-1" d="M509.29,89.9c-2.16-1.17-5.47,2.9-6.94-1.46C504.93,87.71,507.44,87.31,509.29,89.9Z" transform="translate(-355.67 -87.89)"/><path class="cls-1" d="M633.92,216.22c-5.1-.76-1.45-4.5-2.36-6.68C634.87,210.9,633.14,214,633.92,216.22Z" transform="translate(-355.67 -87.89)"/><path class="cls-1" d="M500.45,89.07c-1.71,4.83-5.32,1.09-8,1.7C495,89.47,497.78,89.54,500.45,89.07Z" transform="translate(-355.67 -87.89)"/><path class="cls-1" d="M378.34,294.46a5.64,5.64,0,0,1-1.12,4c-1.8-1.42-1-3.28-.87-5l1.15-.1Z" transform="translate(-355.67 -87.89)"/><path class="cls-1" d="M368.3,181.75a7,7,0,0,1-3.16,5.15C365.88,185,365.39,182.36,368.3,181.75Z" transform="translate(-355.67 -87.89)"/><path class="cls-1" d="M372.31,171c-.06,1.83,1.13,3.88-.92,5.39C371,174.43,370.92,172.57,372.31,171Z" transform="translate(-355.67 -87.89)"/><path class="cls-1" d="M375.15,164.16c.09,1.66,1.25,3.62-1.35,4.5C374.05,167.1,373.93,165.44,375.15,164.16Z" transform="translate(-355.67 -87.89)"/><path class="cls-1" d="M555.19,114.1c-2.7,1.21-2.72-.55-2.7-2.35Z" transform="translate(-355.67 -87.89)"/><path class="cls-1" d="M378.4,159.22c-.84,1.33-1.22,3-3,3.65C375.69,161.08,376.43,159.67,378.4,159.22Z" transform="translate(-355.67 -87.89)"/><path class="cls-1" d="M552.48,111.75c-1.57-.34-3.15-.67-3.1-2.77C550.82,109.47,552.14,110.08,552.48,111.75Z" transform="translate(-355.67 -87.89)"/><path class="cls-1" d="M370.55,182.08l-2.24-.33a2.38,2.38,0,0,1,2.06-1.82Z" transform="translate(-355.67 -87.89)"/><path class="cls-1" d="M474.26,348.07c.29-.94,1-1.12,1.89-1.05C475.86,348,475.14,348.15,474.26,348.07Z" transform="translate(-355.67 -87.89)"/><path class="cls-1" d="M517.23,346l1.11.13a5,5,0,0,1-.82.18C517.43,346.35,517.33,346.15,517.23,346Z" transform="translate(-355.67 -87.89)"/><path class="cls-1" d="M628.2,196.42c-.21-.36-.42-.73-.62-1.1A.84.84,0,0,1,628.2,196.42Z" transform="translate(-355.67 -87.89)"/><path class="cls-1" d="M473.24,349l1-1A1,1,0,0,1,473.24,349Z" transform="translate(-355.67 -87.89)"/><path class="cls-1" d="M510.24,329.67c4.7-5.78,11.3-9.49,16.6-14.62a14.74,14.74,0,0,0,3.11-3.49c4.6-2.76,9.5-5.22,11.63-10.6h0c2.52-.09,3-1.75,3-3.77,6.34-.54,9.29-6.25,14.15-9.06.28-.17.33-1.29.07-1.71-.61-1-1.43-.37-2,.14-4.07,3.55-8.81,6.34-12.32,10.52l-1.88.1c-.93-1.28-2.92-2.95-2.61-3.77,1.34-3.52-1.87-4-3.27-5.74-.7-.85-1.56-1.37-2.38-.45a1.81,1.81,0,0,0,.35,2.88c.75.57,2.32-.08,2.54,1.53-1.26.26-2.36.47-3.45.73-1.62.39-3.52,2.3-4.56-.63-.68-1.92-.67-3.62,1.91-4.51,1.81-.63,2.53-2.56,2.54-4.31a7.43,7.43,0,0,1,2.68-6c2.67-2.55-.23-6.53.82-9.81a9.3,9.3,0,0,0-1.65-.66c-1.22-.36-2.46-.67-3.69-1,1.19-4.63,1.69-9.5,4.86-13.44.24,4.2-1.2,8.84,3.49,12.41,1.24-3.64,3.44-6.1,7.21-6.83a2,2,0,0,0,1.63-1.56c.34-1.79-3.34-6.6-5.21-6.93-1.42-.25-2.82-.62-4.22-.94l0-1.9c4.19,1.31,8.55.28,12.8.89,1.3.18,3.35.56,3.59-1.41.36-3,.88-7,.08-9-1.91-5,.9-6.48,4-8.07,1.86-.95,4-1.58,5.24-3.22,2.56-3.26,6.39-4.32,9.89-6s4.71-4.13,3.43-7.74c.05-2.59,4.42-1.76,3.91-4.79h0c1.15-.27,3,.71,3.27-1,.2-1.19-1.43-.77-2.29-.93-.27-2.81,1.05-6.06-1.07-8.32s-8.55-1.85-3.35-7.21a1.47,1.47,0,0,0-.23-.37c-3.46-4.38,4.85-4.28,3.16-8,5.25.25,5.65-4.26,7.7-7.28l-4.27-1.45c1-2.42,2.43-4.35,5.18-5.25,1.14-.38,2.05-1.89,3.11-.17.7,1.13.91,2.56-.6,3.29-2.66,1.3-1.79,2.61-.53,4.48a9.74,9.74,0,0,1,1.11,9.09c-.85,2.31-1.09,4.22.39,6.56,2.81,4.42,4.31,8.93-2.7,11.28-.07,0-.06.29-.09.45-1.15.1-2.24.33-2.51,1.66a.65.65,0,0,0,.83.81c1.35-.26,1.59-1.33,1.69-2.46,5,.5,7.94-2,9.68-6.26.4-1,.21-2.71,1.91-1.74,2.12,1.21,5,2.22,3.68,5.73-.53,1.35-1.25,2.95.27,3.92,2.44,1.56,1.35,2.9.47,4.77-.49,1-2.43,3.67.12,3.82,4.75.28,2.58,3.23,2.59,6,2.47-1.77,4.19-1.2,5.34.88a1.73,1.73,0,0,1-.81,2.46c-2.15,1.07-3.59.65-5.23-1.51s-4.53-3.75-6.85-5.58c-1.37-1.09-2.75-.78-3,.75-.36,2.08-2,4.08-.8,6.41,1.59.45,1.84-3.9,3.94-1.06,1.3,1.75,1.08,2.81-.68,4.73-4.66,5.05-9.87,9.71-13.17,15.93-2.61,4.91-3.59,10.6-7.26,14.94-2.73,3.23-2.27,8.26-6,10.69-5.28,3.43-8.57,8.65-12.95,12.88-.9.87-2,1.81-.74,3.54a19,19,0,0,0,3-2.16c3-3.13,5.92-6.29,8.68-9.6,2.27-2.71,4.42-4.88,8.56-3.49,1.85.62,4.1.1,6.17.1-6.74-1.39-8-3.48-5.44-9.76.48-1.17,1.37-2.17,1.88-3.33,1.53-3.46,3.49-6.74,5.11-10.15,2-4.1,3.75-9.29,9.53-10.51,1.49-.32,1.39-1.89,1.91-3,2.77-6.06,6-9.45,13-6.92,1.46.53,4.15-.33,4.22,2.25.06,2-1.93,2.76-3.52,3.57-1.89,1-3.9,1.86-3.95,4.39,0,1.43.62,2.76,2.15,2.65,2.36-.17.5-1.38.42-2.25-.17-1.7,1.27-2.42,2.53-3.06a1.69,1.69,0,0,1,2.2.47c.76,1.18,0,2.18-.86,2.93-1.51,1.3-.73,2,.46,2.94.79.62,1.15,2.23.22,2.41-2.76.53-3.58,2.94-5.25,4.5a2,2,0,0,1-3,.16c-1-.86-1.52-2.75-3.45-1.68s-.49,2.51-.48,3.83a22.84,22.84,0,0,1-.5,3.74c-.19,1.13.48,2.37,1.32,2.13,6.45-1.81,6,3.8,8.44,7-3,.16-4.91,1.59-7.07,3.33,2.85,1.09,4.35-1.17,6.39-1.31,1.27-.09,3-1.9,3.68.1.46,1.29-.12,3.62-1.69,4.14-4.22,1.39-7.17,5-11.32,6.21-2.76.81-3.45,2.43-2.95,4.58,1.1,4.74.76,10,4.81,13.78-2.3,1.6-5.17.6-7.6,1.94h3.68c-.79,4.31-1.74,8.69-6.82,10-5.77,1.46-11.27-.47-13.65-4.45-.42-.71-.48-1-1.26-.44-1.89,1.44-3-.09-4.07-1.23a5.73,5.73,0,0,0-6.64-1.6c-2.52.91-3.2,3-2.25,5.49.47,1.26-.3,1.75-1.46,1.77s-1.79-.59-1.43-1.82c.64-2.14-1-3.57-1.76-5.28-.33-.8-.65-2.16-1.84-1.85a2.23,2.23,0,0,0-1.45,2.71c.82,3.81-1.49,4.76-4.41,4.15-4.34-.91-4,1.27-3.17,3.95.29,1,1.83,1.81.46,2.86-3.17,2.43-6.8,4.23-10.21,6.79.42.25.57.11.34-.33s-.38-.85-.7-1a.5.5,0,0,0-.69.67c.14.33.62.52,1,.64.65,1.93,1.24,3.48,3.27,4.13a1.35,1.35,0,0,1,.76,2c-.56,1.3-1.24.58-2.23.29-5.71-1.64-7.56-.82-8.68,3.44,3.31-1.35,4.64,2.39,7.29,2.73-3.09,1.36-6.39,1.57-9.71,2-6.93.85-14.06,1-20.45,4.39l-2.89,0Zm81.16-37.36c-3.36-2.24-7.22-.43-10.84-1.36a77.8,77.8,0,0,0-18.88-2.55c9.77,2.3,19.32,6.12,29.72,3.91,1.47,1.37,2.92,1.19,4.79.12C594.3,291.12,592.86,292.8,591.4,292.31Zm1.48-23c1-.41,2-.61,2-1.82,0-.25-.7-.78-.92-.71-.85.28-2,.39-2,1.61C591.91,268.67,592.5,269,592.88,269.31Z" transform="translate(-355.67 -87.89)"/><path class="cls-1" d="M501.45,118.7c1.13-3.12,1-6.37,1-9.6a2,2,0,0,0,1-1.91c3.11.16.51,2.61,1.5,3.6a39.92,39.92,0,0,0,10.17,7.2c3.78,1.79,9.68,5.35,14.87.9a1.74,1.74,0,0,1,2.22.4c.65.75.12,1.38-.22,2.13-1.81,4.06-.73,6.21,3.83,6.74,2.16.24,3.44.8,4.53,2.7,2.11,3.7,6.13,3.54,9.43,3,2.13-.36,2.54.07,3,1.59,1.7,5.46,2.48,5.81,7.11,3.22,2-1.13,3.34-1.3,4.27,1.53a32.58,32.58,0,0,0,4.49,8.81c2.26,3.1.86,4.59-1.75,6s-2.77,1.47-3.86,4.34c4.74-3.25,10.69-4.16,12.93-9.94a1.2,1.2,0,0,1,2-.52c.38.31.66,1.45.45,1.64-2.55,2.21-1.2,5.16-1.14,7.6,0,1.67-.65,4.54,1.89,5.42s5,.33,6.35-2.47c1.69,1.91.53,3.28,0,4.71-.81,2.14-2,4.24-.91,6.64a2.08,2.08,0,0,1-.95,1.92,12.7,12.7,0,0,0-9.81,6.71A15.28,15.28,0,0,1,567,183c-1.38-1.7-3.37.49-4.94-.78-.75-.61-2.67,0-2.65-1.47.1-6.35-.07-12.75.82-19a6.61,6.61,0,0,0-2.67-6.94c2.12,15.54.12,30.61-4.26,45.46a57.92,57.92,0,0,0-4.87,12.66,221.29,221.29,0,0,1-8.37,24.6c-2.8,6.71-6.73,13-8.89,19.81-3.28,10.33-8.5,19.7-12.67,29.57-1.83,4.32-4.65,8.32-5.21,13.15a37.84,37.84,0,0,0-5.84,10.57l-8.42-1,0-.43v-.42l.81-1c1.27-.4,3.26-.45,3.08-2.07s-2.07-.63-3.19-.89l-.67-.13c-.75-3.22.68-6.29.69-9.46.9-.63.91-1.26,0-1.89q0-5.77,0-11.54c1.28-1.29,1.28-2.56-.05-3.81,0-1.29,0-2.57,0-3.86,1.36-2.43,2.15-4.81-.76-6.78l0-1.93c1.64-2,.45-4.44.85-6.64a2,2,0,0,0,1.92-.95c2.94-.25,3,1.65,2.94,3.72-.06,4.49,1.21,8.79,2,13.15a2,2,0,0,0,1.39,1.8c.7.19,1.11-.26,1.37-1,1.62-4.4,4.51-2.2,7.06-1.19,1,.41,1.53,2.28,3.19,1.15-1.34-3-1.57-3.2,0-4.81,2.39-2.46.52-2.87-1.37-3.22-1.57-.29-3.89-.06-3.52-2.23.57-3.47-1.06-2.48-2.94-2-1.68.47-3.22-.14-2.9-2,.2-1.14-.12-3.73,2.67-2.9,1.24.37,2.27.32,2.87-.94.84-1.74,2-3,4.16-2.41s1.32,2.59,1.66,4c.18.73.5,1.11,1.29,1,.93-5.91-.11-7.43-5.57-7.94-1.53-.15-3-.3-3.43-2s.09-3.75,1.46-4.25c4.16-1.52,3.86-6,6.48-8.49.83-.77.73-2-.44-2.29-3.12-.73-.48-3.33-1.54-4.54-1.53-.52-2.15,1.78-3.52.9-.84-4,2.42-9.31-4.62-10.93-1.25-.29-3-4.24-.3-4.23,4.4,0,4-2.3,4.72-4.9a5,5,0,0,1,4.36-3.39c.85-.1,1.68-.33,1.76-1.3.11-1.3-1.17-1.23-1.88-1.77-2.2-1.68-4.08,1.38-6.68.39,1.25-1.13,2.19-1.94,3.11-2.79,3.35-3.08,3.72-9.1,9.89-9.51.84-.06.69-1.66.57-2.59-.18-1.33-1-1.35-2.14-1-1.49.44-2.74.41-2.1-1.71.41-1.4-.32-2.14-1.49-2.57s-2.41-.8-1.57-2.25c.62-1.06,1.64-.64,2.46.09,1.12,1,1.79.44,1.95-.74.22-1.66,1.33-2,2.71-2.15,3.16-.35,4.91-2.67,7-4.62,1.24-1.13.91-4.11,3.3-3.54a3.18,3.18,0,0,0,4.18-3.23c-.51-2.72,1.7-6-1.72-8.26-4.14-2.71-9.38-2.06-12.18,1.94-.85,1.23-1.52,2.47-3.26,2.47l0,0c-1-2,6-6.75-2.25-6.24-.18,0-.55-.76-.61-1.2-.42-2.95-2.77-6.07.94-8.66,1-.7,1.38-2.12,0-2.76-3.22-1.54-.79-2.08.36-3,3.11-2.45,1.78-5.78.17-7.65-1.79-2.08-3.14,1.2-4.76,2-3.23,1.67-4.43,5.93-8.56,6.38h0c-1.26-3.49,1.84-5.08,3.52-7,1.87-2.18,2.52-7.21,0-8-3.1-1-3.06-3.35-3.27-5.17C508,118.83,506.13,117,501.45,118.7Zm56.65,32.91c1.5-3.06.33-5.67-1.44-9C555.57,146.38,556.86,149,558.1,151.61Z" transform="translate(-355.67 -87.89)"/><path class="cls-1" d="M584.52,172.41c-1.13-2.4.1-4.5.91-6.64.55-1.43,1.71-2.8,0-4.71-1.36,2.8-3.8,3.36-6.35,2.47s-1.86-3.75-1.89-5.42c-.06-2.44-1.41-5.39,1.14-7.6.21-.19-.07-1.33-.45-1.64a1.2,1.2,0,0,0-2,.52c-2.24,5.78-8.19,6.69-12.93,9.94,1.09-2.87,1.1-2.85,3.86-4.34s4-2.9,1.75-6a32.58,32.58,0,0,1-4.49-8.81c-.93-2.83-2.25-2.66-4.27-1.53-4.63,2.59-5.41,2.24-7.11-3.22-.47-1.52-.88-2-3-1.59-3.3.56-7.32.72-9.43-3-1.09-1.9-2.37-2.46-4.53-2.7-4.56-.53-5.64-2.68-3.83-6.74.34-.75.87-1.38.22-2.13a1.74,1.74,0,0,0-2.22-.4c-5.19,4.45-11.09.89-14.87-.9a39.92,39.92,0,0,1-10.17-7.2c-1-1,1.61-3.44-1.5-3.6.18-2-.48-4.11.65-6.44,3.41,3.38,7.48,5.74,9.47,10.35.68,1.57,3.38,4.2,4.8,3.42,4.53-2.49,9.61.07,13.94-2.16.85-.44,1.91-1.5,2.3-.16,1.21,4.24,6.45,5.41,7.44,9.88.26,1.15,1.66,3.74,3.56.52s6.26-3.52,9.23-1.33c4.37,3.21,7.63,7.72,13.08,9.71,2.39.87,3.81,3.46,3.89,6.25.1,3.47,1.87,4.89,5.32,4.45,3.11-.4,5.38,1.9,8.19,2.57,1.76.42,2.13,2.24,1.68,4.36-1.41,6.58-.68,7.37,5.93,7.77,5,.31,8.45,7.2,5.31,11.92-2.22,3.33.94,5.59.36,8.44-.68,3.37.54,5.83,4.48,6.21a2,2,0,0,1,1.3.52c2.22,3.13,3.6,3.94,7.27,3.79.93,0,2.61-.69,2.59.14-.14,5.44,6.43,4.68,7.82,8.45,1.85,5,6.17,9.62,2.64,15.58-2.48,4.19-1.15,8.51,0,12.76.28,1.06,1.4,2.29.63,3.14-5.51,6.07,2.56,7.23,4,10.74.13.31,1.71,0,3.07,0-2.33,3-3.6,5.85-1.69,9,1.14,1.9,2.52.44,3.79,0,0,.68,0,1.37,0,2.05-3.92-.07-4.85,3.46-6.55,5.71-1.82,2.42-1.8,5,1.05,7.53,1.81,1.59-.61,5.2-3.17,5.14-.92,0-2.69.31-2.43.53,2.87,2.52-3.46,3.78-.86,5.56,1.75,1.2,1.7,1.67.6,3.15-.85,1.16-.32,2.39,1,3.26s1.9,1.93.42,3.07c-2.51,1.93-1.67-1.66-3.33-2-.22,1.81-2.44,3.31.77,5.08,1.07.59,2.8,4.13-1.4,4.58a7.69,7.69,0,0,1-1,0c1.23,5.49-7.46,4-6.73,9.24a1.83,1.83,0,0,1-.89,1.54c-2.15.78-7.87-.52-2.4,4.37.18.17-.5,1.91-.93,2-3.08.47-3,2.94-4,5-3.48,6.95-7.9,13.2-15.84,16.07-4.15,1.5-4.1,1.64-4.15,3.61h0a5.76,5.76,0,0,0-3.5,1.5c-.6.52-1.48,1.55-2,.92-3-3.93-5.5-2.44-8.35.24-.87.83-2.47-.08-3.65-.67s-2.73-1.63-3.63-.83c-3.57,3.15-7.27,4-11.83,2.23-.9-.36-2.38.51-3.46-.66-.38-.41-1.47-.83-1.68-.64-4.32,3.81-8.51,0-12.73-.14-.09-.61-.08-1.32-.92-1.44-.16,0-.56.38-.54.54.12.81.85.79,1.47.89-.54.29-1.16.93-1.58.82-5-1.34-3,1.62-2.32,3.88-4.66.09-9.26.5-13.78-.78a36.15,36.15,0,0,1-3.59-.88c-.82-.28-1.93-.63-1.55-1.83.32-1,1.35-1.13,2.3-1.19,9.75-4.21,20.52-3.07,30.61-5.57a12.29,12.29,0,0,1,5.72-.35c5.74,1.31,10.75-1.73,16.08-2.9a1.23,1.23,0,0,0,1-1.8,1.28,1.28,0,0,0-2-.46c-5.25,3.5-11.21,3.42-17.17,3.37-.47-1.18,2-2.9-.35-3.55-1.82-.51-1.39,1.73-2.11,2.63a4,4,0,0,0-.41.86l-1,.07c-2.65-.34-4-4.08-7.29-2.73,1.12-4.26,3-5.08,8.68-3.44,1,.29,1.67,1,2.23-.29a1.35,1.35,0,0,0-.76-2c-2-.65-2.62-2.2-2.87-4,3-2.66,6.64-4.46,9.81-6.89,1.37-1.05-.17-1.9-.46-2.86-.84-2.68-1.17-4.86,3.17-3.95,2.92.61,5.23-.34,4.41-4.15a2.23,2.23,0,0,1,1.45-2.71c1.19-.31,1.51,1.05,1.84,1.85.71,1.71,2.4,3.14,1.76,5.28-.36,1.23.18,1.83,1.43,1.82s1.93-.51,1.46-1.77c-.95-2.54-.27-4.58,2.25-5.49a5.73,5.73,0,0,1,6.64,1.6c1,1.14,2.18,2.67,4.07,1.23.78-.59.84-.27,1.26.44,2.38,4,7.88,5.91,13.65,4.45,5.08-1.28,6-5.66,6.82-10,1.46,0,2.92,0,4.36-.07.79-.06,2.26.3,1.71-1.28-.14-.39-1.4-.4-2.15-.59-4-3.76-3.71-9-4.81-13.78-.5-2.15.19-3.77,2.95-4.58,4.15-1.23,7.1-4.82,11.32-6.21,1.57-.52,2.15-2.85,1.69-4.14-.71-2-2.41-.19-3.68-.1-2,.14-3.54,2.4-6.39,1.31,2.16-1.74,4-3.17,7.07-3.33-2.39-3.2-2-8.81-8.44-7-.84.24-1.51-1-1.32-2.13a22.84,22.84,0,0,0,.5-3.74c0-1.32-1.41-2.78.48-3.83s2.44.82,3.45,1.68a2,2,0,0,0,3-.16c1.67-1.56,2.49-4,5.25-4.5.93-.18.57-1.79-.22-2.41-1.19-.92-2-1.64-.46-2.94.88-.75,1.62-1.75.86-2.93a1.69,1.69,0,0,0-2.2-.47c-1.26.64-2.7,1.36-2.53,3.06.08.87,1.94,2.08-.42,2.25-1.53.11-2.19-1.22-2.15-2.65,0-2.53,2.06-3.42,3.95-4.39,1.59-.81,3.58-1.58,3.52-3.57-.07-2.58-2.76-1.72-4.22-2.25-7-2.53-10.21.86-13,6.92-.52,1.15-.42,2.72-1.91,3-5.78,1.22-7.58,6.41-9.53,10.51-1.62,3.41-3.58,6.69-5.11,10.15-.51,1.16-1.4,2.16-1.88,3.33-2.55,6.28-1.3,8.37,5.44,9.76-2.07,0-4.32.52-6.17-.1-4.14-1.39-6.29.78-8.56,3.49-2.76,3.31-5.72,6.47-8.68,9.6a19,19,0,0,1-3,2.16c-1.23-1.73-.16-2.67.74-3.54,4.38-4.23,7.67-9.45,12.95-12.88,3.74-2.43,3.28-7.46,6-10.69,3.67-4.34,4.65-10,7.26-14.94,3.3-6.22,8.51-10.88,13.17-15.93,1.76-1.92,2-3,.68-4.73-2.1-2.84-2.35,1.51-3.94,1.06-1.25-2.33.44-4.33.8-6.41.25-1.53,1.63-1.84,3-.75,2.32,1.83,5.12,3.31,6.85,5.58s3.08,2.58,5.23,1.51a1.73,1.73,0,0,0,.81-2.46c-1.15-2.08-2.87-2.65-5.34-.88,0-2.73,2.16-5.68-2.59-6-2.55-.15-.61-2.79-.12-3.82.88-1.87,2-3.21-.47-4.77-1.52-1-.8-2.57-.27-3.92,1.37-3.51-1.56-4.52-3.68-5.73-1.7-1-1.51.77-1.91,1.74-1.74,4.26-4.72,6.76-9.68,6.26h0c0-.16,0-.43.09-.45,7-2.35,5.51-6.86,2.7-11.28-1.48-2.34-1.24-4.25-.39-6.56a9.74,9.74,0,0,0-1.11-9.09c-1.26-1.87-2.13-3.18.53-4.48,1.51-.73,1.3-2.16.6-3.29-1.06-1.72-2-.21-3.11.17-2.75.9-4.16,2.83-5.18,5.25Zm30.34,118,1.27-.37-.25-.36-1,.71c-1.1.42-3-.9-3.32,1.4C613.05,292.12,614,291.35,614.86,290.39Zm-26.55,30.23c-3.5-.34-7.15-1.28-10.93,2.18C581.8,322.58,584.83,320.28,588.31,320.62ZM601,316.53c-1.47-1.66-2.74-1.32-4.48-.4C598.06,317.66,599.33,317.38,601,316.53Zm18-28.06c.31-.19,1.08-.41,1.21-.82.29-.86-.6-1-1.17-1s-1.38.32-1.51.69C617.15,288.22,618,288.23,618.92,288.47Zm-13.58,18.12-1.06-1.37c-.31.24-.81.42-.9.72-.18.58,0,1.25.79,1.21A3.65,3.65,0,0,0,605.34,306.59Zm-20,20.24c.26-.4.71-.8.63-1a1.29,1.29,0,0,0-.94-.68c-.66,0-1.18.38-.92,1.08C584.26,326.48,584.86,326.58,585.38,326.83Zm-41.49-4.59-.71-.53a3.35,3.35,0,0,0-.21.75c0,.07.28.27.34.24A3.44,3.44,0,0,0,543.89,322.24Z" transform="translate(-355.67 -87.89)"/><path class="cls-1" d="M370.6,289.68c-3.37-4-6.67-8-5.92-13.64.36-2.68.1-5.58-1.28-7.36-3.36-4.33-2.71-9-2.46-13.71,1.22-.84.87-2,.46-3-2.55-6.43-.33-13.3-1.95-19.81-.5-2,.34-3.76.83-5.52.67-2.37,1.2-3.9-.93-6.42-2.46-2.93,1.82-5.09,3.5-7.43,1.42,2.61,1.79,5.7,4.23,7.87,1.17,1.05.58,2.72-.07,4.06-2,4.14-1,7.94,1.12,11.73a4.45,4.45,0,0,1,.42,3.22,11.33,11.33,0,0,0,1.6,10.87c1.1,1.57-.07,3.26-.77,4.5-1.25,2.21-2,4.11-.93,6.7,1.29,3.22-2.18,1.49-3.74,2.66,6,2.73,1.7,10.17,6.93,13.19,1.31-.77.72-1.7.43-2.56-.23-.7-.14-1.26.58-1.56a1.48,1.48,0,0,1,1.71.56c1.53,1.65,2.95,3.41,4.61,4.92,2.45,2.23,4.32,5.94,8.87,3.08,1.25-.78,3.13.35,4.13,1.82,1.94,2.83,4,2.77,6.08.18.7-.89,2.06-1.5,2.22-.58,1.15,6.69,7.72-.93,9.53,3.6l1.48-2.48c2.25-.08-.15,5.93,4.48,3,.79-.51,1.09,2.38.66,3.09-2.4,3.92.5,7.11,1.16,10.59.35,1.81,1.47,1.94,2.85,1.12,1.93-1.16,3.8-2.4,6.08-3.85.68,3.07,4.14,4.41,4.11,8.5,3.19-2.71,5.31-5.45,7.14.53,1.09,3.6,3.17-1.22,5-1.35,2,1-1.07,3.76,1.2,3.84,2.61.1,2.23-3.08,3.53-4.69,4,1.34-.35,3.66.87,5.65,2.66-.47,4.33-2.09,5.07-5.26,3.72,6,3.69.12,5.2-.9,2.54.32,4.2,2,6,3.51,2,1.65,3.39,4.28,6.54,4.18-.31,3.58,2.77,4.31,5,5.75-1.5,4.83-.54,6.39,4.06,6.61a3.22,3.22,0,0,1,.82.09c.11,2.25-3.87,2-3,4.72a2,2,0,0,1-1.95-.81c-.2-2.61-1.66-1.5-2.93-1a147.61,147.61,0,0,0-24.37-3.8,3.69,3.69,0,0,0-3.33-2.5c-6.88.53-12.79-2.78-19.16-4.25l0,0c-.69-1.15-1.85-.93-2.92-.95h0c-.7-1.14-1.85-.95-2.94-1h0a2.93,2.93,0,0,0-2.93-1.91h0c-3.65-2.74-6.78-5.85-12.36-3.16-3.11,1.49-3.92-2.67-4.81-5-2.24.31-2.59,4.15-4.76,2.57-2.34-1.69-3.19-4.86-2.93-7.66.18-1.92,2.22-1,3.57-.64.67.18,1.38.15,1.51-.67.19-1.21-.57-1.23-1.49-1-2.2.57-4-.84-6.12-1,.39-1.11,1.09-2.14,1-3.09-.17-1.82,5.13-1.9,1.7-4-2.4-1.44-5.86-.93-6.65,3.11,0,.22-.41.37-1,.87-.67-3.78-3.5-4.33-6.62-4.9-1.65-.31-3.46-.09-5.06-1.33C371,285.68,370.71,287.76,370.6,289.68Zm2.35-8.53c.27.12.6.38.79.3s.25-.49.37-.75c-.27-.11-.6-.38-.79-.3S373.06,280.89,373,281.15Zm-9.11-48.44.3-.22-.25-.27-.39.37Z" transform="translate(-355.67 -87.89)"/><path class="cls-1" d="M496.61,284.7c1.43,1.37.71,3.07.72,4.65-.24,0-.49.08-.75.11-3.11,2.4-7.33,4.07-6,9.32.22.84-.92,1.13-1.75,1.26-.26-.33.43-1.32-.73-1l.73,1c.32,3.1-1.88,2.92-3.94,2.91h0c1.21-3.1-.09-5.21-2.76-6.79C479,287,476,277.85,472.09,269c-2.72-6.2-5.11-12.53-7.65-18.81,1.29.08,3.08-.34,3.78.33,1.95,1.88,3.87,1.54,5.73.45,2.47-1.46.18-3-.24-4.52-.3-1.06-.31-1.95.78-2.41,1.29-.55,1.73.56,2,1.41a6.33,6.33,0,0,1,.52,2.78c-.37,3.36,1.38,4.29,4.35,3.87,3.48-.49,6.08.17,5.88,4.12,1.86.58,1.23-2.61,3-1.46,2.19,2.51-6.3,7,2.24,8.24-1.87-2.79.21-3.9,2.05-5.13-2.72-3.59-.46-10.83-8.24-10.73-1.19,0-1.46-1.12-1.32-2.15a1.59,1.59,0,0,1,2.13-1.4c2.79.89,5.79-.59,8.49.84.18,7.77,1.46,15.49,1,23.28-.08,1.24-.27,2.58.82,3.59,0,.95,0,1.9,0,2.85-1,.76-.85,1.86-.87,2.9v1l0,0c-2,1-4,2.6-4.12,4.55C492.39,284.12,494.71,284.82,496.61,284.7Z" transform="translate(-355.67 -87.89)"/><path class="cls-1" d="M531.82,265.48c1.23.32,2.47.63,3.69,1a9.3,9.3,0,0,1,1.65.66c-1,3.28,1.85,7.26-.82,9.81a7.43,7.43,0,0,0-2.68,6c0,1.75-.73,3.68-2.54,4.31-2.58.89-2.59,2.59-1.91,4.51,1,2.93,2.94,1,4.56.63,1.09-.26,2.19-.47,3.45-.73-.22-1.61-1.79-1-2.54-1.53a1.81,1.81,0,0,1-.35-2.88c.82-.92,1.68-.4,2.38.45,1.4,1.7,4.61,2.22,3.27,5.74-.31.82,1.68,2.49,2.61,3.77a5.92,5.92,0,0,0-1,3.78h0c-5.34,1.52-8.25,5.88-11.7,9.62-5.56,2.69-9.13,8-14.61,10.76a5.77,5.77,0,0,0-1.4-4.33,2.07,2.07,0,0,0-2.61-.33c-.4.23-.45,1-.66,1.56,3.49,1.1.25,4.14,1.73,5.82a2.09,2.09,0,0,1-2,1c-.26-2.79-3.35-4.86-2.12-8,.09-.86.17-1.73.26-2.59a11.61,11.61,0,0,0,2.89-.05c1.54-.4,3.62,1.75,4.36,0,1-2.44-2.29-1.33-3.08-2.55-.51-.78-1-1.53-1.58-2.3a6.76,6.76,0,0,1,1.34-3.76l.81-1L514.5,300c5-6.64,7.27-14.7,11.29-21.88C528.05,274.1,528.8,269.25,531.82,265.48Z" transform="translate(-355.67 -87.89)"/><path class="cls-1" d="M449,325.92c-3.81.69-6.16,3.73-9.18,5.65-1.81,1.14-3,2.93-5.27.68-1.55-1.51-3.7.17-5.47-.06-.85-1.21,1.74-1.93.3-3a1.84,1.84,0,0,0-2.55.68c-2.26,3-5.46,4-9.28,4.49,1.9-3.69,0-6-3.19-7.8-.64-.36-1.72-1.16-1.64-1.36,3.22-7.33-3.33-4.06-6.26-5.54,5-.12,1.35-3.8,3.08-5.92,1.87,4.11,3.84,4.8,5.77.26.18-.41,1.47-.36,2.25-.52h0c.09,1.95,1.51,1.93,2.93,1.91h0c.7,1.16,1.85.95,2.94,1h0c.69,1.14,1.84,1,2.92.95l0,0c.18.81-.35,1.69,1,2.27,6.88,2.92,14.56,2.65,21.47,5.37Q448.89,325.47,449,325.92Zm-28.65,2.46c2.25.13,3.87-1.14,5.89-3.27A6.13,6.13,0,0,0,420.33,328.38Zm.56-4.34a11.35,11.35,0,0,0-2.69.31c-.9.36-1.74,1-.91,2.22C418.85,326.5,419.78,325.56,420.89,324Zm6.8.3c.1,0,.25,0,.3-.07a1.2,1.2,0,0,0,.08-.35l-.51.09Z" transform="translate(-355.67 -87.89)"/><path class="cls-1" d="M482.14,296.16c2.67,1.59,4,3.7,2.76,6.8-2.23.13-1.54,1.42-1.17,2.68,1.41,4.83,2.78,9.68,4.17,14.52-1,1.63-2,3.26-3,4.9a78.3,78.3,0,0,0-12.65-12.63c-.67-.93-2.1-1.35-1.95-2.82-2.67-2.87,4-7.44-.88-8.95s1.86-8-5.7-7c3.58-1.92,5.25-.59,6.87.7,1,.78.63,3.46,2.75,2.42,1.91-.93,2.65-3.62,1.57-5-1.76-2.18.31-3.5.27-5.19,3.19,1.12,2.23,4.12,3.08,6.33C478.87,294.51,478.17,298.26,482.14,296.16Z" transform="translate(-355.67 -87.89)"/><path class="cls-1" d="M531.82,265.48c-3,3.77-3.77,8.62-6,12.66-4,7.18-6.25,15.24-11.29,21.88h-1.25c.56-4.83,3.38-8.83,5.21-13.15,4.17-9.87,9.39-19.24,12.67-29.57,2.16-6.8,6.09-13.1,8.89-19.81a221.29,221.29,0,0,0,8.37-24.6,57.92,57.92,0,0,1,4.87-12.66h1c-1.28,6.18-4.44,11.86-5,18.24-1.69,1.71-.63,3.84-.92,5.76-3.91,7-6.06,14.63-8.79,22.07,0,.63,0,1.26,0,1.9l-2.9,3.85C533.51,256,533,260.85,531.82,265.48Z" transform="translate(-355.67 -87.89)"/><path class="cls-1" d="M497.47,271.26c-1.09-1-.9-2.35-.82-3.59.48-7.79-.8-15.51-1-23.28,0-.95,0-1.91-.05-2.87a6.23,6.23,0,0,0-.89-3.83v-6.76c1.75-4.91.62-10,.71-15,0-.86-.91-1.2-1.74-1.34.73-1.41-2.73-3.15-.88-3.23,4.69-.2,2.52-3.24,2.7-5,.55-5.51.26-11.07.72-16.63.39-4.68,1-9.71-.66-14.46,1-1.49,1.92-.35,2.88,0,0,.32,0,.63.07.94q.52,3.36,1.07,6.72c-.08,6.39-1.63,12.7-1.09,19.13l-.79,1v5.81c-.4,2.81,1.23,5.7-.88,8.56a3.84,3.84,0,0,0,.79,4.83,37.1,37.1,0,0,0,1,10.55c-.61,2.26,1.45,4.49.09,6.76,0,1.58,0,3.16,0,4.74,0,1.34-.52,2.79.8,3.86,0,1.92.05,3.83.08,5.75,0,1.29,0,2.57,0,3.86l0,.47v.47c-.4,2.2.79,4.6-.85,6.64C496.75,267,498.07,269.34,497.47,271.26Z" transform="translate(-355.67 -87.89)"/><path class="cls-1" d="M484.9,303c2.06,0,4.26.19,3.94-2.91h0c.83-.13,2-.42,1.75-1.26-1.34-5.25,2.88-6.92,6-9.32.43,1.28-1.63,2.55,0,3.84-.14,6.42.77,12.89-.82,19.25-2.6-1.67-4.57,1.06-6.94.95C486.68,310.28,486.36,306.41,484.9,303Z" transform="translate(-355.67 -87.89)"/><path class="cls-1" d="M470.29,309.61c-.15,1.47,1.28,1.89,1.95,2.82l-1.08.08c-3.15.1-4.56-2.53-6.54-4.18-1.83-1.53-3.49-3.19-6-3.51-1.51-4.12-4.31-7.11-7.6-10.12-4.54-4.14-8-9.38-12.12-14-2.77-3.12-5.85-5.95-10.6-5.58a2,2,0,0,1,1.92-1l3-1c3.78-.14,4.07,4.94,7.72,5a17.19,17.19,0,0,0,1.21,2.52c5.59,8.18,13.44,14.34,20.14,21.53C464.75,304.8,466.86,307.92,470.29,309.61Z" transform="translate(-355.67 -87.89)"/><path class="cls-1" d="M543.56,326.87l1-.07,2.87.06c6,.05,11.92.13,17.17-3.37a1.28,1.28,0,0,1,2,.46,1.23,1.23,0,0,1-1,1.8c-5.33,1.17-10.34,4.21-16.08,2.9a12.29,12.29,0,0,0-5.72.35c-10.09,2.5-20.86,1.36-30.61,5.57l.12-1.34c6.39-3.39,13.52-3.54,20.45-4.39C537.17,328.44,540.47,328.23,543.56,326.87Z" transform="translate(-355.67 -87.89)"/><path class="cls-1" d="M499,309.57l8.42,1q-3.57,8.79-7.13,17.59c-2.21-4.84-1.46-9.8-1.48-14.69.43-.33.44-.66,0-1Z" transform="translate(-355.67 -87.89)"/><path class="cls-1" d="M488.81,313.5c2.37.11,4.34-2.62,6.94-.95-.57,6.12.81,12.4-2.12,18.56Q491.22,322.31,488.81,313.5Z" transform="translate(-355.67 -87.89)"/><path class="cls-1" d="M508.24,317c-1.23,3.17,1.86,5.24,2.12,8-1.55,1.85-2.93,5.32-5.56,4-2.21-1.14-.24-4.29.45-6.43S505.76,318.09,508.24,317Z" transform="translate(-355.67 -87.89)"/><path class="cls-1" d="M448.83,325c-6.91-2.72-14.59-2.45-21.47-5.37-1.37-.58-.84-1.46-1-2.27,6.37,1.47,12.28,4.78,19.16,4.25a3.69,3.69,0,0,1,3.33,2.5A6.61,6.61,0,0,1,448.83,325Z" transform="translate(-355.67 -87.89)"/><path class="cls-1" d="M529.88,310.58c3.45-3.74,6.36-8.1,11.7-9.62-2.13,5.38-7,7.84-11.63,10.6C529.92,311.23,529.9,310.91,529.88,310.58Z" transform="translate(-355.67 -87.89)"/><path class="cls-1" d="M484.89,325.06c1-1.64,2-3.27,3-4.9,1.23,3.45,3,6.77,2.76,11C487.66,329.79,486.21,327.48,484.89,325.06Z" transform="translate(-355.67 -87.89)"/><path class="cls-1" d="M478.08,329.68c-.9-2.72,3.08-2.47,3-4.72,2.72,1.26,3.08,4,4.61,6.24C482.47,332.51,480.55,329.89,478.08,329.68Z" transform="translate(-355.67 -87.89)"/><path class="cls-1" d="M512.33,324.06c-1.48-1.68,1.76-4.72-1.73-5.82.21-.54.26-1.33.66-1.56a2.07,2.07,0,0,1,2.61.33,5.77,5.77,0,0,1,1.4,4.33A6.46,6.46,0,0,1,512.33,324.06Z" transform="translate(-355.67 -87.89)"/><path class="cls-1" d="M511.09,309.52c.53.77,1.07,1.52,1.58,2.3.79,1.22,4.11.11,3.08,2.55-.74,1.76-2.82-.39-4.36,0a11.61,11.61,0,0,1-2.89.05C509.34,312.79,509.17,310.62,511.09,309.52Z" transform="translate(-355.67 -87.89)"/><path class="cls-1" d="M496.61,284.7c-1.9.12-4.22-.58-4.12-2.2.13-1.95,2.08-3.58,4.12-4.55,0,1.31.08,2.63.11,3.94C496.68,282.82,496.65,283.76,496.61,284.7Z" transform="translate(-355.67 -87.89)"/><path class="cls-1" d="M510.24,329.67l.27,3.54c-2.06.39-3.23,2.67-5.88,2.57C505.19,332.42,507.17,330.58,510.24,329.67Z" transform="translate(-355.67 -87.89)"/><path class="cls-1" d="M480.23,324.87c-4.6-.22-5.56-1.78-4.06-6.61A14.74,14.74,0,0,1,480.23,324.87Z" transform="translate(-355.67 -87.89)"/><path class="cls-1" d="M498.78,267.34c2.91,2,2.12,4.35.76,6.78C497.86,272,498.8,269.63,498.78,267.34Z" transform="translate(-355.67 -87.89)"/><path class="cls-1" d="M499.59,278c1.33,1.25,1.33,2.52.05,3.81C498.16,280.53,498.28,279.26,499.59,278Z" transform="translate(-355.67 -87.89)"/><path class="cls-1" d="M496.57,293.3c-1.61-1.29.45-2.56,0-3.84.25,0,.5-.06.74-.11C497.55,290.75,498,292.2,496.57,293.3Z" transform="translate(-355.67 -87.89)"/><path class="cls-1" d="M473.2,327.9c1.27-.53,2.73-1.64,2.93,1C475.05,328.85,473.91,329,473.2,327.9Z" transform="translate(-355.67 -87.89)"/><path class="cls-1" d="M496.72,281.89c0-1.31-.07-2.63-.11-3.94l0,0h1C497.52,279.32,498.06,280.81,496.72,281.89Z" transform="translate(-355.67 -87.89)"/><path class="cls-1" d="M499.68,293.33c.91.63.9,1.26,0,1.89Q498.14,294.27,499.68,293.33Z" transform="translate(-355.67 -87.89)"/><path class="cls-1" d="M499,304.68l.67.13c0,1,.07,2,.11,3l-.81,1C499,307.37,499,306,499,304.68Z" transform="translate(-355.67 -87.89)"/><path class="cls-1" d="M496.64,277c0-1-.16-2.14.87-2.9,0,1,.07,1.93.11,2.9Z" transform="translate(-355.67 -87.89)"/><path class="cls-1" d="M498.8,312.5c.44.32.43.65,0,1Z" transform="translate(-355.67 -87.89)"/><path class="cls-1" d="M496.64,277h1v1h-1v-1Z" transform="translate(-355.67 -87.89)"/><path class="cls-1" d="M513.24,304.77l-.81,1Z" transform="translate(-355.67 -87.89)"/><path class="cls-1" d="M440.93,278.11c-3.65-.06-3.94-5.14-7.72-5-.88-3.91-4.18-6.28-6.19-9.46-1.23-1.95-1.49-4.66-4.6-4.86-1.12-5.06-5.64-8.05-7.84-12.45.2-6.13-5.27-9.56-7.27-14.64-.26-.67-1.08-.67-1.68-.34s-.58,1.15-.23,1.67c2.94,4.31,4.25,9.6,8.19,13.32,0,.31,0,.63,0,.94h-5.81l-.1.7,5.91,1.25c2.82,3.3,4.61,7.51,8.8,9.6.68,3.76,3.5,6.36,5.49,9.37,1.25,1.89,2.79,3.46,2.33,5.92a2,2,0,0,0-1.92,1c-3.73-2.41-7.92.57-11.73-.95h0c.76-2.05,2.76-4.06.08-6.28-1.58.62-2.08,2.25-3.07,3.41a1.66,1.66,0,0,1-2.09.6c2.14-4.92-3.67-3.65-5.23-6-2.72-4.13-.5-5.45,1.88-7.46,1-.87,2.14-1.65,3.92-3-6.41,0-11.74-1.47-17.1-2.73-.39-.09-.58-1-.87-1.53h0c.8-.11,2.27-.14,2.29-.33.53-4.84,4.58-2.23,7-3-.51-2.05-2.3-2-3.5-2.22-2.57-.51-3.65-1.31-1.81-3.72.71-.94,1.34-2,0-2.87-1.61-1-1.66,1.33-2.82,1.53a5.23,5.23,0,0,1,.9-4.55c2-3.07-.93-5.18-2.3-7.06s-3.47-.82-5.34.89c-2.84,2.6-7.39.9-8.54-2.79-.53-1.7.18-1.92,5-1.77-5.81-2.41-7.5-8.11-10.92-12.72.44-1.71,3.12.2,3.85-2-2.3-1.56-5.94.55-8.07-2.85,4.6,1.05,5.73-4.22,10-4.43,1.9-.1,1.21-3.47-.11-4.87-3.76-4-1.58-6.07,2.23-7.82.71-.33,1.48-.55,2.22-.82-2.29,3.36-.71,5.46,3.26,7.73-1.73-3,3.63-7.38-3.26-7.73.21-4.18,1.61-7.47,6.33-8.36,2-.37,2.09-1.37,2.12-3.37,0-2.76-1.4-7,5.18-6.13,2.52.32,6.72-1.3,10.17-2,2.2-.44,2.84-1.63,2.27-3.82-.72-2.75-1.15-5.58-1.61-8.39-.12-.73-.17-1.7.83-2s1.53.46,1.82,1.19c1.05,2.66,3.23,4.52,3,8.15-.21,3.47,4.06,1.12,6.27,1.57s3.52-1.37,2.31-2.84a4.13,4.13,0,0,1,.61-6.26c2.52-1.82,4-5.68,8.16-4.88.88.17,2.41.68,1.5-1-1.34-2.42,1.41-3.58,1.3-5.62a2.09,2.09,0,0,1,2.39-1.89c1.74.45.69,1.77.39,2.73-.37,1.2-.34,2.36.9,2.88,1.83.77,2.15-1.11,2.74-2,1.75-2.63.43-6,1.87-8.74,1-2,.21-4.57,2.82-6.21,2.37-1.49-2.19-1.32-1.17-3.05,3.12-1.33,5.88-2.09,5.22,3.13-.27,2.18,2.24,4.7-1.45,6.51-1.24.61-.11,2.83,1.48,3.87,2.15-2.25,2.73-5.14,3.59-8.36,1.84,2,.82,3.81.81,5.34s-1.08,3.45,1.67,3.26c1.9-.13,4.09-.62,3.27-3.51a8.2,8.2,0,0,1-.16-1.43c4.91,1,6.36,6,10.32,7.95.55,3.59,2.31,6.29,5.86,7.67,1.79,3.18,3,6.83,6.89,8.27-2.11-2.92-1.13-8.46-6.89-8.27-.44-3-2.67-5.08-3.92-7.67-.11-1.38.48-3.09-1.2-3.85-4.52-2.06-4.69-6.48-6-10.3-.42-1.21-1.18-2.85.13-3.46a10.87,10.87,0,0,1,6-1.19c1.69.3-.08,1.67-.26,2.61-.34,1.82-2.6,4.81,2.28,4,2.2-.38,2.58,1.6,2.87,3.12a23.12,23.12,0,0,0,1.61,4.26c1.95,4.82,5.77,4.63,9.79,4.45a1.56,1.56,0,0,0,1.15-.57,1.67,1.67,0,0,0-.58-2.14c-5.28-3.11-4-8.13-4-12.81,0-1.17.12-2.35,1.37-2.79,1.43-.51,2.11.53,2.41,1.67.43,1.68,1.7,1.69,3,1.69.39.49.67,1.23,1.18,1.43,7.14,2.69,8.24,8.32,7.57,14.84-2,3.38-.49,7.05-.91,10.56-.34,3.78-.66,7.55-1,11.31-.3,3-1.48,3.31-4.13,1.73s-4.3-4.3-7.28-5.45c2.13,4.63,5.3,8.18,10.44,9.72,1.62,4.75,1.05,9.78.66,14.46-.46,5.56-.17,11.12-.72,16.63-.18,1.75,2,4.79-2.7,5-1.85.08,1.61,1.82.88,3.23-1.35,1.27-2.48,2.55-.95,4.45.62.76,1.15,2.09-.49,1.88-4.29-.56-1.84,3.16-3.15,4.43,1.87,1.85.82,6.56,5.62,5.54,0,2.25,0,4.51,0,6.76-2-.11-4.52-.11-4.38,2.4s2.82,1,4.31,1.41a3.83,3.83,0,0,0,1,0c0,1,0,1.92.05,2.87-2.7-1.43-5.7.05-8.49-.84a1.59,1.59,0,0,0-2.13,1.4c-.14,1,.13,2.17,1.32,2.15,7.78-.1,5.52,7.14,8.24,10.73-1.84,1.23-3.92,2.34-2.05,5.13-8.54-1.24-.05-5.73-2.24-8.24-1.81-1.15-1.18,2-3,1.46.2-4-2.4-4.61-5.88-4.12-3,.42-4.72-.51-4.35-3.87a6.33,6.33,0,0,0-.52-2.78c-.31-.85-.75-2-2-1.41-1.09.46-1.08,1.35-.78,2.41.42,1.48,2.71,3.06.24,4.52-1.86,1.09-3.78,1.43-5.73-.45-.7-.67-2.49-.25-3.79-.33l0,0c0-1.4,0-2.77-2-2.82a47,47,0,0,1-3.15-6.21c-1.69-3.93-4.31-7.47-6.54-11.18-.58-8-4.87-15-5.94-22.91-2-7.32-.83-14.84-1.26-22.26-.52-8.92-.31-17.87-2.23-26.92-.6.72-1,1.18-1.4,1.69-2,2.68,1.07,4.63,1.08,7.15.07,11.47.56,22.93.86,34.39,0,1.39.56,3.15-.84,4-1.91,1.2-2.66-1.15-4-1.69a7.54,7.54,0,0,0-1.92-.24c-1-3.25-3.68-5.13-6.26-8,.8,4.74,1.94,6.09,6.24,8-.42,3.61,2.93,4.1,4.9,5.74,3.13,2.11,9,17,7.67,20.29-1,2.46.06,2.78,2.05,2.77,1.62,6,7,10.56,6.88,17.23-1.73.07-3.73-.4-3.94,2.29-.1,1.18-.75,2.42-2.08,2.11a6.56,6.56,0,0,1-3.16-2.06c-1.05-1.21-.12-2,1.12-2.43.7-.25,1.06-.74.72-1.47a1.51,1.51,0,0,0-2-.93c-1.59.69-3.51.39-4.83,2a4.48,4.48,0,0,1-4.44,1.43c-2.33-.54-4.69-1.61-5.23,2.06-3.51-.52-3.35,2.73-4.51,4.45-1.45,2.13,1.1,3.61,1.7,5.39.43,1.29,1.76-.2,2.7-.68,2.58-1.33,5.54-.24,7.73.41,1.7.52-1.25,2.57-1.83,4.06-.12.29-.28.75-.14.9C443.68,270.35,440.34,274.33,440.93,278.11ZM420.4,185.9c2,3.06,3.67,6.37,8,9-1.25-5.27-3.39-8.2-8-9a2.93,2.93,0,0,0-2-2.88c-1.82-3.52-3.57-7.08-6.18-10.14-.81-.94-1.74-1.63-2.8-.43s-.11,1.52.86,2.05c2.32,1.26,2.92,3.79,3.71,5.93.86,2.33,2.27,2.82,4.4,2.6C418.43,184.43,418.44,185.81,420.4,185.9ZM396,216.63c-2-3.54-1.74-8.12-5-11.2-2.79,2.71,4.76,6.48-1.91,8.21l5,3c.15,2.32,1.8,3.18,3.58,4.63C398.18,218.67,396.45,217.94,396,216.63Zm36.78,50.25c1.37.19,2.93,1.38,3.8-.43a2.21,2.21,0,0,0-.86-2C433.81,263.65,433.54,265.55,432.77,266.88Zm-30.4-40c.21-1.66-.13-2.72-2-3.25C400.21,225.3,400.52,226.36,402.37,226.9Zm2.52,3c.2-.48.55-1,.44-1.12a1.78,1.78,0,0,0-1.13-.52c-.48,0-.87.36-.54.85C403.88,229.45,404.35,229.59,404.89,229.92ZM403,173.33c.72,0,1.21-.13,1-.79-.08-.25-.45-.6-.66-.58a3.52,3.52,0,0,0-1.06.5Z" transform="translate(-355.67 -87.89)"/><path class="cls-1" d="M416.54,274.17c-.05,1.28-.07,2.37-1.79,2.87-6.67,1.9-12.75-1.09-19.13-2a72.21,72.21,0,0,0,20.92-.86Z" transform="translate(-355.67 -87.89)"/><path class="cls-1" d="M407.57,163.42c-2.37.27-3.64,1.11-4.36,3a2.27,2.27,0,0,1-3.35.93c-1.57-1-.82-2.35.36-3.08,1.92-1.19,1.56-3,1.62-4.68,0-1.17.16-2.38,1.77-2.26,1.09.08,1.91.83,1.43,1.95C404.06,161.54,406.55,161.64,407.57,163.42Z" transform="translate(-355.67 -87.89)"/><path class="cls-1" d="M471.17,146.54c1.25,2.59,3.48,4.69,3.92,7.67h0c-3.55-1.38-5.31-4.08-5.86-7.67Z" transform="translate(-355.67 -87.89)"/><path class="cls-1" d="M394.06,251.15c-1.91-.34-2.92-1.47-2.3-3.31.27-.81,1.67-1.57,2.45-1,1.86,1.33-.44,2.85-.15,4.33Z" transform="translate(-355.67 -87.89)"/><path class="cls-1" d="M393.39,275.17c-.4.2-.8.55-1.2.54a.58.58,0,0,1-.5-.95c.24-.29.83-.34,1.28-.39C393.06,274.36,393.21,274.82,393.39,275.17Z" transform="translate(-355.67 -87.89)"/><path class="cls-1" d="M372.54,250.93l-.33-.27c.13-.07.26-.2.38-.19s.23.16.34.25Z" transform="translate(-355.67 -87.89)"/><path class="cls-1" d="M584.59,332.61c.7.12,1.54.1,1.47,1.15,0,.11-.19.29-.3.3-1.08.07-1-.75-1.18-1.45Z" transform="translate(-355.67 -87.89)"/><path class="cls-1" d="M576.25,355.59l-.71-.46c.26-.12.52-.35.77-.34s.48.27.72.42Z" transform="translate(-355.67 -87.89)"/><path class="cls-1" d="M616.83,318.19l-.41-.2.38.23Z" transform="translate(-355.67 -87.89)"/><path class="cls-1" d="M399.71,315.08c2.78-.54,4.85-3.07,6.7.34.41.77,1.67,1.75.62,2.35C404.24,319.35,402.32,317.41,399.71,315.08Z" transform="translate(-355.67 -87.89)"/><path class="cls-1" d="M435.41,341l-6.49,1.06C431.5,339.67,432.87,337.21,435.41,341Z" transform="translate(-355.67 -87.89)"/><path class="cls-1" d="M464.32,339.6c2.44-2,3.84-2.45,5.95-1.26C468.52,339.77,467,339.14,464.32,339.6Z" transform="translate(-355.67 -87.89)"/><path class="cls-1" d="M378.34,294.46l-.84-1.16c.16-.7.31-1.87,1.22-1.32C380,292.73,379.29,293.74,378.34,294.46Z" transform="translate(-355.67 -87.89)"/><path class="cls-1" d="M435.1,337.25l-.33-.27c.13-.06.26-.19.39-.18s.22.16.33.25Z" transform="translate(-355.67 -87.89)"/><path class="cls-1" d="M411.68,341.35l.42.2-.39-.23Z" transform="translate(-355.67 -87.89)"/><path class="cls-1" d="M497.72,208.92c0-1.94,0-3.87,0-5.81l.79-1c-.54-6.43,1-12.74,1.09-19.13a3.74,3.74,0,0,0,3.24-3.84c-.25-1.6-2.31-2.69-4.31-2.88,0-.31-.06-.62-.07-.94-.05-5.8,1.73-11.5,1-17.33.11-3.2-.31-6.46,1.12-9.51,3.36-.39,6.27-1.47,7.7-4.84,4.13-.45,5.33-4.71,8.56-6.38,1.62-.84,3-4.12,4.76-2,1.61,1.87,2.94,5.2-.17,7.65-1.15.91-3.58,1.45-.36,3,1.34.64,1,2.06,0,2.76-3.71,2.59-1.36,5.71-.94,8.66.06.44.43,1.22.61,1.2,8.3-.51,1.29,4.25,2.25,6.24-.7.13-1.54.11-1.47,1.16a.47.47,0,0,0,.31.3c1.07.07,1.05-.75,1.18-1.44,1.74,0,2.41-1.24,3.26-2.47,2.8-4,8-4.65,12.18-1.94,3.42,2.24,1.21,5.54,1.72,8.26a3.18,3.18,0,0,1-4.18,3.23c-2.39-.57-2.06,2.41-3.3,3.54-2.11,1.95-3.86,4.27-7,4.62-1.38.15-2.49.49-2.71,2.15-.16,1.18-.83,1.73-1.95.74-.82-.73-1.84-1.15-2.46-.09-.84,1.45.44,1.84,1.57,2.25s1.9,1.17,1.49,2.57c-.64,2.12.61,2.15,2.1,1.71,1.1-.33,2-.31,2.14,1,.12.93.27,2.53-.57,2.59-6.17.41-6.54,6.43-9.89,9.51-.92.85-1.86,1.66-3.11,2.79,2.6,1,4.48-2.07,6.68-.39.71.54,2,.47,1.88,1.77-.08,1-.91,1.2-1.76,1.3a5,5,0,0,0-4.36,3.39c-.75,2.6-.32,4.92-4.72,4.9-2.7,0-.95,3.94.3,4.23,7,1.62,3.78,7,4.62,10.93,1.37.88,2-1.42,3.52-.9,1.06,1.21-1.58,3.81,1.54,4.54,1.17.27,1.27,1.52.44,2.29-2.62,2.46-2.32,7-6.48,8.49-1.37.5-1.91,2.53-1.46,4.25s1.9,1.89,3.43,2c5.46.51,6.5,2,5.57,7.94-.79.14-1.11-.24-1.29-1-.34-1.41.64-3.42-1.66-4s-3.32.67-4.16,2.41c-.6,1.26-1.63,1.31-2.87.94-2.79-.83-2.47,1.76-2.67,2.9-.32,1.85,1.22,2.46,2.9,2,1.88-.53,3.51-1.52,2.94,2-.37,2.17,2,1.94,3.52,2.23,1.89.35,3.76.76,1.37,3.22-1.58,1.61-1.35,1.83,0,4.81-1.66,1.13-2.14-.74-3.19-1.15-2.55-1-5.44-3.21-7.06,1.19-.26.7-.67,1.15-1.37,1a2,2,0,0,1-1.39-1.8c-.83-4.36-2.1-8.66-2-13.15,0-2.07,0-4-2.94-3.72h0c.22-1.47,2.51-1.53,2.35-3.6L499.6,254c0-1.92-.05-3.83-.08-5.75,1.3-.11,2-.73,1.91-2.08-.11-1.77-1.46-1.69-2.71-1.78,0-1.58,0-3.16,0-4.74,3.61.2,3.48-4.06,6.24-5.28l-6.32-1.48a37.1,37.1,0,0,1-1-10.55c.73-5.14,5.21-8.74,6.18-14C501.8,210.92,500,212,497.72,208.92Zm19.12-38.2C511,171.89,511,171.89,510,175,512.52,174.62,514.16,173.08,516.84,170.72Zm-10.09,40c1.2-.18,2.1-.52,2.13-1.7,0-.25-.7-.79-.91-.71-.86.28-2,.39-2,1.61C505.92,210.19,506.51,210.49,506.75,210.71Z" transform="translate(-355.67 -87.89)"/><path class="cls-1" d="M501.45,118.7c4.68-1.72,6.59.13,7.13,4.78.21,1.82.17,4.22,3.27,5.17,2.48.76,1.83,5.79,0,8-1.68,1.95-4.78,3.54-3.52,7a8.88,8.88,0,0,0-2.8.59c-1.42.84-2.82,2-4.39.8s-1.41-3.31-1.49-5.27C499.3,132.66,501.08,125.74,501.45,118.7Z" transform="translate(-355.67 -87.89)"/><path class="cls-1" d="M500.58,148.49c-1.43,3-1,6.31-1.12,9.51h-1.87c.42-3.51-1.11-7.18.91-10.56A2.26,2.26,0,0,1,500.58,148.49Z" transform="translate(-355.67 -87.89)"/><path class="cls-1" d="M549.31,218.46c.54-6.38,3.7-12.06,5-18.24,2-1.13,2.55-3.08,2.94-5.14,1-5.33,1.77-10.89,9.07-11.46.24,0,.44-.43.66-.66a15.28,15.28,0,0,0,6.8-1.92c3.72-1.6,7.25-3.47,9.81-6.71a2.08,2.08,0,0,0,.95-1.92l1,0,4.27,1.45c-2,3-2.45,7.53-7.7,7.28,1.69,3.7-6.62,3.6-3.16,8a1.47,1.47,0,0,1,.23.37c-5.2,5.36,1.34,5.05,3.35,7.21s.8,5.51,1.07,8.32c-.33.64-.65,1.28-1,1.91h0c-3.5-.21-5.92.85-5.86,4.81h0c-.93.17-2.13,0-2.75.56-5.38,4.55-12.35,5.54-18.56,8.23C552.51,221.75,550.56,221.38,549.31,218.46Z" transform="translate(-355.67 -87.89)"/><path class="cls-1" d="M539.6,246.29c2.73-7.44,4.88-15.09,8.79-22.07,6-1.71,12.06-3.31,18-5.15,4.22-1.3,8-3.44,10.29-7.35h0l1.95,0c1.28,3.61-.07,6.13-3.43,7.74s-7.33,2.73-9.89,6c-1.28,1.64-3.38,2.27-5.24,3.22-3.12,1.59-5.93,3.05-4,8.07.8,2.07.28,6-.08,9-.24,2-2.29,1.59-3.59,1.41C548.15,246.57,543.79,247.6,539.6,246.29Z" transform="translate(-355.67 -87.89)"/><path class="cls-1" d="M536.68,252l2.9-3.85c1.4.32,2.8.69,4.22.94,1.87.33,5.55,5.14,5.21,6.93a2,2,0,0,1-1.63,1.56c-3.77.73-6,3.19-7.21,6.83C535.48,260.88,536.92,256.24,536.68,252Z" transform="translate(-355.67 -87.89)"/><path class="cls-1" d="M591.4,292.31c-10.4,2.21-19.95-1.61-29.72-3.91A77.8,77.8,0,0,1,580.56,291c3.62.93,7.48-.88,10.84,1.36Z" transform="translate(-355.67 -87.89)"/><path class="cls-1" d="M544.47,297.08c3.51-4.18,8.25-7,12.32-10.52.58-.51,1.4-1.11,2-.14.26.42.21,1.54-.07,1.71-4.86,2.81-7.81,8.52-14.15,9.06Z" transform="translate(-355.67 -87.89)"/><path class="cls-1" d="M578.65,211.71l-1.95,0c-.06-4,2.36-5,5.86-4.81C583.07,210,578.7,209.12,578.65,211.71Z" transform="translate(-355.67 -87.89)"/><path class="cls-1" d="M607,291.34c.75.19,2,.2,2.15.59.55,1.58-.92,1.22-1.71,1.28-1.44.11-2.9.06-4.36.07h-3.68C601.86,291.94,604.73,292.94,607,291.34Z" transform="translate(-355.67 -87.89)"/><path class="cls-1" d="M541.58,301a5.92,5.92,0,0,1,1-3.78l1.88-.1.11.11C544.57,299.21,544.1,300.87,541.58,301Z" transform="translate(-355.67 -87.89)"/><path class="cls-1" d="M592.88,269.31c-.38-.35-1-.64-1-.92,0-1.22,1.19-1.33,2-1.61.22-.07.92.46.92.71C594.87,268.7,593.84,268.9,592.88,269.31Z" transform="translate(-355.67 -87.89)"/><path class="cls-1" d="M591.4,292.31c1.46.49,2.9-1.19,4.79.12-1.87,1.07-3.32,1.25-4.79-.12Z" transform="translate(-355.67 -87.89)"/><path class="cls-1" d="M582.56,206.91c.33-.63.65-1.27,1-1.91.86.16,2.49-.26,2.29.93C585.55,207.62,583.71,206.64,582.56,206.91Z" transform="translate(-355.67 -87.89)"/><path class="cls-1" d="M591.36,202.13c-.1,1.13-.34,2.2-1.69,2.46a.65.65,0,0,1-.83-.81c.27-1.33,1.36-1.56,2.51-1.66Z" transform="translate(-355.67 -87.89)"/><path class="cls-1" d="M542.75,314.19a1.26,1.26,0,0,1-.65-.53.5.5,0,0,1,.69-.67c.32.13.51.62.7,1S543.57,314.55,542.75,314.19Z" transform="translate(-355.67 -87.89)"/><path class="cls-1" d="M567,183c-.22.23-.42.64-.66.66-7.3.57-8.06,6.13-9.07,11.46-.39,2.06-.91,4-2.94,5.14h-1c4.38-14.85,6.38-29.92,4.26-45.46a6.61,6.61,0,0,1,2.67,6.94c-.89,6.26-.72,12.66-.82,19,0,1.51,1.9.86,2.65,1.47C563.59,183.45,565.58,181.26,567,183Z" transform="translate(-355.67 -87.89)"/><path class="cls-1" d="M583.57,174.33c-2.56,3.24-6.09,5.11-9.81,6.71A12.7,12.7,0,0,1,583.57,174.33Z" transform="translate(-355.67 -87.89)"/><path class="cls-1" d="M558.1,151.61c-1.24-2.63-2.53-5.23-1.44-9C558.43,145.94,559.6,148.55,558.1,151.61Z" transform="translate(-355.67 -87.89)"/><path class="cls-1" d="M499.77,307.77c0-1-.07-2-.11-3,1.12.26,3-.62,3.19.89S501,307.37,499.77,307.77Z" transform="translate(-355.67 -87.89)"/><path class="cls-1" d="M499.6,258.77v-.47l0-.47h1.91A2,2,0,0,1,499.6,258.77Z" transform="translate(-355.67 -87.89)"/><path class="cls-1" d="M588.31,320.62c-3.48-.34-6.51,2-10.93,2.18C581.16,319.34,584.81,320.28,588.31,320.62Z" transform="translate(-355.67 -87.89)"/><path class="cls-1" d="M547.46,326.86l-2.87-.06a4,4,0,0,1,.41-.86c.72-.9.29-3.14,2.11-2.63C549.45,324,547,325.68,547.46,326.86Z" transform="translate(-355.67 -87.89)"/><path class="cls-1" d="M601,316.53c-1.62.85-2.89,1.13-4.48-.4C598.21,315.21,599.48,314.87,601,316.53Z" transform="translate(-355.67 -87.89)"/><path class="cls-1" d="M618.92,288.47c-.88-.24-1.77-.25-1.47-1.11.13-.37,1-.65,1.51-.69s1.46.12,1.17,1C620,288.06,619.23,288.28,618.92,288.47Z" transform="translate(-355.67 -87.89)"/><path class="cls-1" d="M614.86,290.39c-.87,1-1.81,1.73-3.34,1.38.37-2.3,2.22-1,3.32-1.4Z" transform="translate(-355.67 -87.89)"/><path class="cls-1" d="M605.34,306.59a3.65,3.65,0,0,1-1.17.56c-.84,0-1-.63-.79-1.21.09-.3.59-.48.9-.72Z" transform="translate(-355.67 -87.89)"/><path class="cls-1" d="M585.38,326.83c-.52-.25-1.12-.35-1.23-.63-.26-.7.26-1.11.92-1.08a1.29,1.29,0,0,1,.94.68C586.09,326,585.64,326.43,585.38,326.83Z" transform="translate(-355.67 -87.89)"/><path class="cls-1" d="M533.8,334.55c-.62-.1-1.35-.08-1.47-.89,0-.16.38-.56.54-.54.84.12.83.83.92,1.44Z" transform="translate(-355.67 -87.89)"/><path class="cls-1" d="M543.89,322.24a3.44,3.44,0,0,1-.58.46c-.06,0-.35-.17-.34-.24a3.35,3.35,0,0,1,.21-.75Z" transform="translate(-355.67 -87.89)"/><path class="cls-1" d="M614.84,290.37l1-.71.25.36-1.27.37Z" transform="translate(-355.67 -87.89)"/><path class="cls-1" d="M420.47,315.42c-1.42,0-2.84,0-2.93-1.91A2.93,2.93,0,0,1,420.47,315.42Z" transform="translate(-355.67 -87.89)"/><path class="cls-1" d="M373,281.15c.11-.26.17-.67.37-.75s.52.19.79.3c-.12.26-.18.68-.37.75S373.22,281.27,373,281.15Z" transform="translate(-355.67 -87.89)"/><path class="cls-1" d="M426.32,317.33c-1.08,0-2.23.19-2.92-.95C424.47,316.4,425.63,316.18,426.32,317.33Z" transform="translate(-355.67 -87.89)"/><path class="cls-1" d="M423.41,316.38c-1.09,0-2.24.2-2.94-1C421.56,315.43,422.71,315.24,423.41,316.38Z" transform="translate(-355.67 -87.89)"/><path class="cls-1" d="M363.84,232.71l-.34-.12.39-.37.25.27Z" transform="translate(-355.67 -87.89)"/><path class="cls-1" d="M458.51,249.2c.12-6.67-5.26-11.23-6.87-17.23a2.25,2.25,0,0,1,1.08-2.06c2.23,3.71,4.85,7.25,6.54,11.18a47,47,0,0,0,3.15,6.21,2.89,2.89,0,0,0,2,2.82l0,0c2.55,6.28,4.94,12.61,7.66,18.81C476,277.85,479,287,482.14,296.17c-4,2.09-3.27-1.66-3.89-3.24-.85-2.21.11-5.21-3.08-6.33a16.33,16.33,0,0,0-2.23-8.59,92.63,92.63,0,0,1-6.59-14.68C464.56,257.94,461.53,253.68,458.51,249.2Z" transform="translate(-355.67 -87.89)"/><path class="cls-1" d="M488.84,300l-.73-1c1.16-.32.47.67.73,1Z" transform="translate(-355.67 -87.89)"/><path class="cls-1" d="M420.33,328.38a6.13,6.13,0,0,1,5.89-3.27C424.2,327.24,422.58,328.51,420.33,328.38Z" transform="translate(-355.67 -87.89)"/><path class="cls-1" d="M420.89,324c-1.11,1.52-2,2.46-3.6,2.53-.83-1.24,0-1.86.91-2.22A11.35,11.35,0,0,1,420.89,324Z" transform="translate(-355.67 -87.89)"/><path class="cls-1" d="M427.69,324.34l-.13-.33.51-.09a1.2,1.2,0,0,1-.08.35C427.94,324.33,427.79,324.32,427.69,324.34Z" transform="translate(-355.67 -87.89)"/><path class="cls-1" d="M458.51,249.2c3,4.48,6.05,8.74,7.84,14.13A92.63,92.63,0,0,0,472.94,278a16.33,16.33,0,0,1,2.23,8.59c0,1.69-2,3-.27,5.19,1.08,1.34.34,4-1.57,5-2.12,1-1.77-1.64-2.75-2.42-1.62-1.29-3.29-2.62-6.87-.7,7.56-.94.88,5.54,5.7,7s-1.79,6.08.88,8.95c-3.43-1.69-5.54-4.81-8-7.45-6.7-7.19-14.55-13.35-20.14-21.53a17.19,17.19,0,0,1-1.21-2.52c-.59-3.78,2.75-7.76-.58-11.42-.14-.15,0-.61.14-.9.58-1.49,3.53-3.54,1.83-4.06-2.19-.65-5.15-1.74-7.73-.41-.94.48-2.27,2-2.7.68-.6-1.78-3.15-3.26-1.7-5.39,1.16-1.72,1-5,4.51-4.45.54-3.67,2.9-2.6,5.23-2.06a4.48,4.48,0,0,0,4.44-1.43c1.32-1.57,3.24-1.27,4.83-2a1.51,1.51,0,0,1,2,.93c.34.73,0,1.22-.72,1.47-1.24.45-2.17,1.22-1.12,2.43a6.56,6.56,0,0,0,3.16,2.06c1.33.31,2-.93,2.08-2.11C454.78,248.8,456.78,249.27,458.51,249.2Z" transform="translate(-355.67 -87.89)"/><path class="cls-1" d="M576.71,211.72c-2.34,3.91-6.07,6.05-10.29,7.35-6,1.84-12,3.44-18,5.15.29-1.92-.77-4.05.92-5.76,1.25,2.92,3.2,3.29,6.09,2,6.21-2.69,13.18-3.68,18.56-8.23C574.58,211.76,575.78,211.89,576.71,211.72Z" transform="translate(-355.67 -87.89)"/><path class="cls-1" d="M497.59,158h1.87c.74,5.83-1,11.53-1,17.33-1-.36-1.91-1.5-2.88,0-5.14-1.54-8.31-5.09-10.44-9.72,3,1.15,4.63,3.87,7.28,5.45s3.83,1.29,4.13-1.73C496.93,165.56,497.25,161.79,497.59,158Z" transform="translate(-355.67 -87.89)"/><path class="cls-1" d="M494.74,230.93c-4.8,1-3.75-3.69-5.62-5.54,1.31-1.27-1.14-5,3.15-4.43,1.64.21,1.11-1.12.49-1.88-1.53-1.9-.4-3.18.95-4.45.83.14,1.76.48,1.74,1.34C495.36,221,496.49,226,494.74,230.93Zm-1-4.78c-.38-.7-.32-1.63-1.21-1.32-.38.13-.66.94-.7,1.47s.12,1.43,1,1.15C493.26,227.31,493.48,226.57,493.76,226.15Z" transform="translate(-355.67 -87.89)"/><path class="cls-1" d="M497.72,208.92c2.23,3,4.08,2,6.09-.57-1,5.22-5.45,8.82-6.18,14a3.84,3.84,0,0,1-.79-4.83C499,214.62,497.32,211.73,497.72,208.92Z" transform="translate(-355.67 -87.89)"/><path class="cls-1" d="M498.62,232.86l6.32,1.48c-2.76,1.22-2.63,5.48-6.24,5.28C500.07,237.35,498,235.12,498.62,232.86Z" transform="translate(-355.67 -87.89)"/><path class="cls-1" d="M495.62,241.52a3.83,3.83,0,0,1-1,0c-1.49-.45-4.18,1.16-4.31-1.41s2.37-2.51,4.38-2.4A6.23,6.23,0,0,1,495.62,241.52Z" transform="translate(-355.67 -87.89)"/><path class="cls-1" d="M498.54,176.27c2,.19,4.06,1.28,4.31,2.88a3.74,3.74,0,0,1-3.24,3.84Q499.07,179.63,498.54,176.27Z" transform="translate(-355.67 -87.89)"/><path class="cls-1" d="M501.52,257.82h-1.91c0-1.29,0-2.57,0-3.86l4.27.25C504,256.29,501.74,256.35,501.52,257.82Z" transform="translate(-355.67 -87.89)"/><path class="cls-1" d="M498.72,244.36c1.25.09,2.6,0,2.71,1.78.08,1.35-.61,2-1.91,2.08C498.2,247.15,498.7,245.7,498.72,244.36Z" transform="translate(-355.67 -87.89)"/><path class="cls-1" d="M498.52,202.12l-.79,1Z" transform="translate(-355.67 -87.89)"/><path class="cls-1" d="M422.42,258.79c3.11.2,3.37,2.91,4.6,4.86,2,3.18,5.31,5.55,6.19,9.46l-3,1c.46-2.47-1.08-4-2.33-5.93-2-3-4.81-5.61-5.49-9.37Z" transform="translate(-355.67 -87.89)"/><path class="cls-1" d="M441.91,208.91c-2-1.64-5.32-2.13-4.9-5.74l0,0a7.54,7.54,0,0,1,1.92.24c1.38.54,2.13,2.89,4,1.69,1.4-.88.88-2.64.84-4-.3-11.46-.79-22.92-.86-34.39,0-2.52-3.08-4.47-1.08-7.15.38-.51.8-1,1.4-1.69,1.92,9.05,1.71,18,2.23,26.92.43,7.42-.75,14.94,1.26,22.26C445.05,207.38,442.54,205.85,441.91,208.91Z" transform="translate(-355.67 -87.89)"/><path class="cls-1" d="M441.91,208.91c.63-3.06,3.14-1.53,4.87-1.91,1.07,7.86,5.36,14.93,5.94,22.91a2.25,2.25,0,0,0-1.08,2.06c-2,0-3.05-.31-2.06-2.77C450.91,225.92,445,211,441.91,208.91Z" transform="translate(-355.67 -87.89)"/><path class="cls-1" d="M413.59,246.35c-3.94-3.72-5.25-9-8.19-13.32-.35-.52-.52-1.26.23-1.67s1.42-.33,1.68.34c2,5.08,7.47,8.51,7.27,14.64Z" transform="translate(-355.67 -87.89)"/><path class="cls-1" d="M418.44,183c-2.13.22-3.54-.27-4.4-2.6-.79-2.14-1.39-4.67-3.71-5.93-1-.53-1.82-1-.86-2.05s2-.51,2.8.43c2.61,3.06,4.36,6.62,6.18,10.14Z" transform="translate(-355.67 -87.89)"/><path class="cls-1" d="M394,216.62l-5-3c6.67-1.73-.88-5.5,1.91-8.21,3.25,3.08,3,7.66,5,11.2Z" transform="translate(-355.67 -87.89)"/><path class="cls-1" d="M413.59,246.35h1c2.2,4.4,6.72,7.39,7.84,12.45l-.05,0c-4.19-2.09-6-6.3-8.8-9.6v-2C413.58,247,413.58,246.66,413.59,246.35Z" transform="translate(-355.67 -87.89)"/><path class="cls-1" d="M420.41,185.89c4.63.79,6.77,3.72,8,9-4.36-2.61-6.05-5.92-8-9Z" transform="translate(-355.67 -87.89)"/><path class="cls-1" d="M384.26,189.76c6.89.35,1.53,4.72,3.26,7.73-4-2.27-5.55-4.37-3.26-7.73Z" transform="translate(-355.67 -87.89)"/><path class="cls-1" d="M475.09,154.21c5.76-.19,4.78,5.35,6.89,8.27-3.86-1.44-5.1-5.09-6.89-8.27Z" transform="translate(-355.67 -87.89)"/><path class="cls-1" d="M437,203.17c-4.3-1.92-5.44-3.27-6.24-8,2.58,2.86,5.25,4.74,6.26,8Z" transform="translate(-355.67 -87.89)"/><path class="cls-1" d="M432.77,266.88c.77-1.33,1-3.23,2.94-2.43a2.21,2.21,0,0,1,.86,2C435.7,268.26,434.14,267.07,432.77,266.88Z" transform="translate(-355.67 -87.89)"/><path class="cls-1" d="M394,216.62H396c.46,1.31,2.19,2,1.63,4.62C395.84,219.8,394.19,218.94,394,216.62Z" transform="translate(-355.67 -87.89)"/><path class="cls-1" d="M413.57,247.29v2L407.66,248l.1-.7Z" transform="translate(-355.67 -87.89)"/><path class="cls-1" d="M402.37,226.9c-1.85-.54-2.16-1.6-2-3.25C402.24,224.18,402.58,225.24,402.37,226.9Z" transform="translate(-355.67 -87.89)"/><path class="cls-1" d="M404.89,229.92c-.54-.33-1-.47-1.23-.79-.33-.49.06-.86.54-.85a1.78,1.78,0,0,1,1.13.52C405.44,228.92,405.09,229.44,404.89,229.92Z" transform="translate(-355.67 -87.89)"/><path class="cls-1" d="M403,173.33l-.73-.87a3.52,3.52,0,0,1,1.06-.5c.21,0,.58.33.66.58C404.2,173.2,403.71,173.3,403,173.33Z" transform="translate(-355.67 -87.89)"/><path class="cls-1" d="M420.4,185.9c-2-.09-2-1.47-2-2.87h0a2.93,2.93,0,0,1,2,2.88Z" transform="translate(-355.67 -87.89)"/><path class="cls-1" d="M464.4,250.12a2.89,2.89,0,0,1-2-2.82C464.38,247.35,464.41,248.72,464.4,250.12Z" transform="translate(-355.67 -87.89)"/><path class="cls-1" d="M516.84,170.72c-2.68,2.36-4.32,3.9-6.84,4.28C511,171.89,511,171.89,516.84,170.72Z" transform="translate(-355.67 -87.89)"/><path class="cls-1" d="M506.75,210.71c-.24-.22-.83-.52-.82-.8,0-1.22,1.18-1.33,2-1.61.21-.08.92.46.91.71C508.85,210.19,508,210.53,506.75,210.71Z" transform="translate(-355.67 -87.89)"/><path class="cls-1" d="M523,164.75c-.13.69-.11,1.51-1.18,1.44a.47.47,0,0,1-.31-.3c-.07-1,.77-1,1.47-1.16Z" transform="translate(-355.67 -87.89)"/><path class="cls-1" d="M493.76,226.15c-.28.42-.5,1.16-.92,1.3-.87.28-1-.59-1-1.15s.32-1.34.7-1.47C493.44,224.52,493.38,225.45,493.76,226.15Z" transform="translate(-355.67 -87.89)"/></svg>