<svg id="Layer_1" data-name="Layer 1" xmlns="http://www.w3.org/2000/svg" viewBox="0 0 170.68 421.83"><defs><style>.cls-1{fill:#90c33e;}.cls-2{fill:#768a63;}.cls-3{fill:#4b6536;}</style></defs><title>laurel</title><path class="cls-1" d="M390.94,280.12a3.51,3.51,0,0,1,0-2.37c.86-.65.87-1.32.06-2-.41-9.07-.5-18.14,1.07-27.14a.81.81,0,0,0,.45-1h0l3.35-1.31c-1.35-.09-1.57-2.09-3-1.63,0-.35.06-.71.08-1.06,1.55,1.21,2.31-.08,2.71-1.12.53-1.39-1-1.13-1.68-1.51a4.38,4.38,0,0,0-1.43-.24,1.94,1.94,0,0,1,.4-1.54c1.72.88,1.9.94,2.08.63.66-1.11.68-1.16,1.62-.75,1.26.55,2.49,1.16,3.81.16.72.11,1.56.19,1.63,1.11s.57.93,1.17.76a1.33,1.33,0,0,0,1-1.52,3.71,3.71,0,0,0-3.2-2.67c-1.85,0,.8,1.42-.35,1.9-.12.05-.15.29-.22.44a4.13,4.13,0,0,1-.95-.24c-.5-.25-1.27-2.58-1.26-3.25,0-.38-.32-1.27-.64-.82-1,1.42-2.8,1.12-3,.39-.5-1.56-1.51-3.36-.46-5.13.27.78.13,1.66,1,2.13.61.34.3,1.62,1.45,1.35-.28-1.09,1.52-1.26,1.12-2.23-.82-2,.85-.8,1.32-1.11l.18.12-.19-.11c1-1.31,1.81-2.73,3.57-3.3-.53-.34-1.06-.51-1.32-.88-.45-.67-.74-1.69-1.69-1.46s-.33,1.27-.55,1.92c-.38,1.15-.86,1.69-2.08.68-2.54-2.1,1.4-2.57,1-4.27-.21-.93.76-.16,1.16-.07s1.06.71,1.55.13a2.71,2.71,0,0,0,.39-1.29c-2-.74,0-1.67.06-2.63-1.88.67-2.19-1.1-2.92-1.81a3,3,0,0,1-.85-3.45c1.55-4,1.81-8.39,3.47-12.4a4.47,4.47,0,0,0,.08-1.43l.05-.85c1-2.29,2.36-4.5,2.81-6.89.57-3,1.88-4.42,4.91-4.53,1.63-.06,1.74-1.26,1.07-2.43-1.06-1.85-2.12-.77-3.2.47,0-.7-.17-1.28,0-1.46,1.62-1.5,2-3.73,3.3-5.43.94-1.25.72-2.08-.54-2.46,0-.42-.08-.85.37-1.1a2.32,2.32,0,0,0,1.37-2.93,1.57,1.57,0,0,1,.94-1.35c1.94-1.16,2.5-3.42,3.59-5.12a13.1,13.1,0,0,1,3.82-4.36,1.67,1.67,0,0,1-2.11,0c.48-2.69,2-4.79,3.68-6.86,1.48-1.78,2.47-3.95,4.32-5.45,2,0,1.93-2,3-2.89,1.67-1.37,2.67-3.28,4.27-4.71.74-.66,2-1.81,1.46-3.38h0a1.83,1.83,0,0,0,2.31-1.1c1.6-2.88,1.73-2.8,4.06-1.82a2.21,2.21,0,0,0-2.65,1.68,13.31,13.31,0,0,1-2.15,3.77,1.29,1.29,0,0,0-.09-.16s-.08,0-.12,0l.2.2c-.4,2.59-2,4.87-2,7.56,0,1.54-.51,2-2.13,1.53-2.79-.82-2.49-.37-4,1.19-.92.92-.88,2.9-2.87,2.92-.76,0-.83,1.11-.79,1.84s.76.67,1.31.77c.74.13,1.85-.36,2,.84.21,1.4,1.2,1.06,2,1.13h0c-1.24,1.38-1.2,2.86-.1,4.53l3.74-5.07c.6,2.36,2,4.14,2,6.41.3-1.47,1.06-2.94-.51-4.23a1,1,0,0,1,.44-1.6c1-.34.65-1.33,1.69-1.85-1-.12-1.22.13-1.34.46-.21.63-.62,1.14-1.21.56s.08-1.3.45-1.41c1.9-.59,2.75-3,5.1-2.81,1.3.1,1.66-.7.77-1.67-1.14-1.22.26-1.56.71-2.08.69-.83,1.33-.48,1.92.37a8.37,8.37,0,0,0,1.61,1.46,7.7,7.7,0,0,1-2.35,2.47c-.17.16-.87.22-.5.35,1.58.52.17,1.75.7,2.46a1.84,1.84,0,0,0,1.81-1.11c.84-2.42,2.71-2.19,4.6-1.91.27,0,.54.47.62-.1.38-2.92,1.7-.86,2.88-.51-1.22-1.63-1.16-3.81-2.83-5.09.34-.52,1.15-.8.93-1.6-.58-2.11.56-2.6,2.35-2.94,1.22-.23,2.93.51,3.81-1.72-1,2.79,0,3.59,2.3,3.29l.18.66.19-.13-.38-.53c.85-1.91.34-3.8-.22-6,1.24,2.82,2.65,2.85,4.19.64,1,1.52,1.83,3,3.87,3.34a3.53,3.53,0,0,0,2,4.07c.56.26,1,.57,1.57.27a1.09,1.09,0,0,0,.41-1.32c-.5-1.7-.38-3.93-2.71-4.38a1.8,1.8,0,0,1-1.54-2.11c.55-1.83.71.45,1.14.22a1.17,1.17,0,0,0,.6-.68c.16-.91.9-1.12,1.55-1.43a4.25,4.25,0,0,0,2-5.94h0c.06-.44.15-.82.75-.54a5.93,5.93,0,0,1,3.28,3.15c3.46-1.84,1.1-5.18,2-7.62a27.11,27.11,0,0,1,.5,4.81,80.93,80.93,0,0,1,0,15.25c-.76,7.43-.48,15-.68,22.45-.15,5.42,0,10.83-.3,16.25-.13,2.75-2.7,5.1-1.11,8l-.12.17.1-.19c.53.09,1.07.24.61.91-1,1.38-.47,3-.81,4.46-.3,1.26-.22,2.77-.92,3.73-1.32,1.83-1.38,2.75.58,3.78.78.42.94.74.64,1.7-.73,2.33-2.37,4.7-.23,7.2a2.15,2.15,0,0,1,.07,1.91,17.9,17.9,0,0,0-1.36,7.39c0,.85-.07,1.67-1,2l-.18-.11.19.1c1.3,3-.3,6.16.48,9.2,0,.17-.3.42-.32.64-.1,1.12-.63,2.56.33,3.24s.94,1.6.92,2.54c-.2,8.39.11,16.78-.18,25.18,0,1.15-.22,2.94.81,4.16l0,.93c-1.6,1.87.23,4-.38,6.07-.34,1.15-1,2.6-.68,4,.58,2.93-.19,6,.86,8.87.2.53.22,1.48-.93.81a1.87,1.87,0,0,0-.64-.09c.39,2.1-2.38,3-2,4.79.24,1.26-.79,1.18-1.08,1.95.42.4,1.5-.73,1.63.89a3.47,3.47,0,0,1-1.14,3.18c-.37.34-1.59,0-1.12,1a1,1,0,0,0,1.79-.26.57.57,0,0,1,1-.13c.16.84-.57,1.28-.84,1.86.87.64,3.87.06,1.32,2.52-.23.22-.05.81-.21,1.15-1.33,2.74,1.11,5,.94,7.89s.33,6.06.11,9a6.4,6.4,0,0,1-4.51,5.7c-.48.16-.94.59-.85,1.09s.77.52,1.22.38c.88-.29,2-.3,2.05-1.7,0-.55.31-1.14,1.3-.82a3.8,3.8,0,0,0,.39,3.4,1.71,1.71,0,0,1-.8,2.44c-2.53.46-2.56.3-3.05,2.45,2.7-1.88,2.7-1.88,5.08-1.44-.81,1.56-1.7,3.09-2.39,4.71-.32.77-.77,1.11-1.46,1-2.6-.48-3,1.74-4,3.21-.27.4-.32,1-.64,1.31s-.8,1.24-1.5,1.09a1.22,1.22,0,0,1-.72-1.42c0-.36.07-.69-.42-.63-.2,0-.51.22-.54.39-.64,2.88-2.78,2.38-4.8,2.17-.59-.07-3,2.72-2.64,3.07.71.69,1.49.21,2.15-.21s.45-1.39,1.83-1.39c-.77,1.54-1.39,2.83-2.07,4.09-.37.69-.82,1.84-1.71,1.3s.11-1.4.36-2.11c0-.08-.14-.25-.25-.43-1.18.13-2,.55-1.91,2,.06.7-.09,1.33-1,1.41l0,0c.1-1.08-1.66-2.29.29-3.32.28-.14-.15-1.17-.52-1.7-2.61,1.75-1.66,4.81-2.61,7.16-.3.78.72,1,1.35.56,1.35-.93,3.38.19,4.5-1.58a1.16,1.16,0,0,1,1.69.26c.29.55-.6.65-.73,1.11-1.35.36-1.15.93-.12,1.86l.12-1.86c1.24.28,2-.46,2.74-1.27.43-.47.8-1.33,1.5-1.09,2.42.81,5.09.24,7.6,1.28a1.23,1.23,0,0,1-1.23.47c-1.51-.07-1.78,1.3-2.1,2.25-.44,1.28,1.08.78,1.36,1.11,1.47,1.76,2.8.61,4.4-.27-1.24,2.15-3,2.57-5.29,1.48-.57-.27-1.39-.63-1.39,0,0,2.41-1.89,2.31-3.34,2.82a1.88,1.88,0,0,0-1.29,2.13c0,.76,0,1.58.9,1.83a2,2,0,0,0,2.45-.62c1.11-1.52,2.73-.89,4.21-1-2,1.2-3.65,2.84-5.82,3.75-1.79.76-3,4.09-2.48,6.2-.78.11-1.11-.65-1.7-.83-.07-2.26,1.61-3.82,2.33-5.77.1-.27.48-.49.28-.81-.1-.15-.61-.23-.61-.21-.61,1.51-1.85.48-3.6.63,2.59,1,1.57,1.93,1.13,3.12-.35.9-2.36,2.47.42,3.08,0,.69,0,1-1,1.18a1.69,1.69,0,0,1-2.06-1.13c-.58-1.16-1-2.08-2.46-.92-.26.2-.91-.09-1.38-.16a3,3,0,0,1,.18-2.81c-1.12-.27-1.49.6-2.16.84l-.49-.5c-.06-.18-.07-.48-.37-.18l.32.23c.17.16.33.33.49.5,0,.66.58,1.36-.24,2-.4.3-1,.86-.2,1.34a.93.93,0,0,0,1.41-.51c.18-.51.43-.86,1-.86,1.62,3.35,2.26,6.45-1.95,8.51a1.22,1.22,0,0,0-.62,1.72,9.87,9.87,0,0,0,2.34-1.09c1.84-1.55,3.53-3.26,5.34-4.84.77-.67,1.56-1.73,2.74-1.3,3.08,1.15,6.2,2.3,8.46,4.9l0,0c-1.25.54-2.08-1.19-3.41-.58s-2.8,1-4-.54a1,1,0,0,0-1.55,0c-.69.67.14,1,.45,1.36a29,29,0,0,0,2.22,2.6c1.48,1.47.24,2.31-.85,2.31-2.26,0-3.56,1.82-5.65,2.13.74,1.13,2.48-.58,2.44,1.13,0,1.1-1.32.94-2.18.95s-1.49.4-1.58,1.22c-.13,1.08.92.62,1.41.9s1,.27,1.07.87-.37.68-.73.89-1.57-.08-1.19,1c.26.78,1,1,1.8,1s1.61-.32,2.21.78c-.57.09-.95.18-1.34.2-2.76.19-3.51.94-3,3.67a2.24,2.24,0,0,1-1.1,2.76c1.21-.07,2.11.16,2.43-.18,2.23-2.31,4.87-1.57,7.56-1.37,3,.23,6.05-.14,9,.17,1.76.18,3.9-.45,5.28,1.38l0,0c-1.87,0-3.75,0-5.6-.16-1.63-.17-3.33-1.09-4.62.62-1,1.3-2.18,2.61-1.63,4.5-1.09-.91-2.69.23-3.79-.95-.29-.31-.93-1.21-1.62-.47-.86.94.38.92.71,1.3.14.17.46.3.13.51s-1.6,0-1,1.07c.47.79,1.28.32,2,.16a3.51,3.51,0,0,1,1.92-.07c1.85.72,1.63-.48,1.6-1.57,1.31.51,1,3.63,3.7,1.8-1.47,2.85.47,3.7,2.12,4.56-1.13,1.85-2.49-.57-3.71.54,1.41,1.56,3.47,1.27,5.16,1.83a32.52,32.52,0,0,0,6.88,1.57c1.78.18,2.74,1.27,2.16,3.35-1.7-1.11-3.78-2.94-5.46-1.67s-2.76,0-4.05-.18c-.77-.09-2.22,0-1.21-1.74.36-.6-.51-.65-.93-.44s-1.08.65-1,1.27a1.62,1.62,0,0,0,1.5,1.41c1.54.19,3.13.72,3.75,2,1,2,2.53,1.95,4.28,2,.91.05,2.25-.69,2.64,1h0c-2.2.43-4.41,1.09-6.51-.33-.32.72,1.27,1.51-.33,1.84-.14,0-.85.22-.28.36,1.31.3,1.45,2.09,2.92,2.05.24,0,1.13-.12.65.46-1.14,1.37.05,1,.67,1,1.14,0,2.28-.05,3.43-.15,1.41-.12,3,0,3.33,2,.74,4.24,1.6,8.46,2.3,12.71.81,4.95,2.2,9.8,2.44,15.11-1.3-.88-2.48.11-3.86-.71a55.82,55.82,0,0,1-11.63-9.29c-.88-.9-1.52-2.21-3.05-2.3h0c.06-.63-.18-1-.84-1.07a.34.34,0,0,1-.22-.29c.09-.71-.2-1.1-.94-1.1h0c0-.73-.35-1-1-1a.5.5,0,0,1-.34-.32.28.28,0,0,0-.28-.28l-1.32-1.33c0-1.21-.94-1.4-1.84-1.63l0,0a5.49,5.49,0,0,0-3.9-3.43c-.35-.35-.7-.7-1-1.06a.9.9,0,0,0-.89-.94,2.6,2.6,0,0,1-1.18-1.31.53.53,0,0,0-.55-.54l-1.43-1.44a.52.52,0,0,0-.53-.54l-.46-.46c.09-.73-.29-1-1-1.06l-2-1.86c.08-1.23-.66-1.62-1.73-1.67a.45.45,0,0,1-.22-.33l-.49-.56h0a1.39,1.39,0,0,0-1.3-1.58l-.59-.6-.25-.37-.81-.9a1.45,1.45,0,0,0-1.32-1.59l-.68-.83a6.1,6.1,0,0,0-3.32-4.1l-1.62-1.84a1.33,1.33,0,0,0-1.26-1.63.79.79,0,0,1-.19-.39,2.24,2.24,0,0,0-1.75-2.09l-.92-1.64a8.32,8.32,0,0,0-3.08-5.26l-6.09-10.29c.1-.57-.07-1-.7-1.09l-.39-.74a.57.57,0,0,0-.38-.67.34.34,0,0,1-.07-.39c-.31-1.89-1.53-3.36-2.37-5-.65-1.25-.83-2.88-2.37-3.56l-.68-1.33a.84.84,0,0,0-.56-1.15l-.34-1c0-2.42-2-4.2-2.33-6.56,1.27-.29,2,.7,3.09.87.27-1.39-.11-2.76.13-4,.37-1.86-2.07-3.52-.23-5.34-1-.87-.11-3.22-2.4-3.17.05-.77,1.75-.7,1.08-1.54-.84-1.06-2,.67-3.07.1,2-2.14,1.81-2.21-.55-4.16a16,16,0,0,0-2.36-1.22c.39-.84,2.95.42,1.47-1.79-.25-.36.49-.75,1-.81a2.33,2.33,0,0,0,2.1-1.25c-2.15-.79-3.63.14-4.83,1.42-1.14-3.29-2.34-6.55.76-9.58-1.29.58-2.23,1.1-3.42.64-.26-.1-1.24.24-.95.76.65,1.19.47,1.54-.89,1.61s-2.11-.26-2.38-1.54c-.6-2.86-2.2-5.34-3.07-8.1-.43-1.35-.65-2.92-2.07-3.77,0-.24,0-.47-.07-.7-.18-1.33,1.16-3.13-1.19-3.76-.05-.31-.11-.63-.16-.94.89-.74.19-.86-.4-1A71.08,71.08,0,0,1,393,305.4c.7-.33.74-.67,0-1a1.25,1.25,0,0,1,.16-1.44c.38-.07.91,0,1.14-.23,1.63-1.66,3.2-3.38,4.8-5.06,2.16-2.26,3.27-5.81,1.81-7.55A67.89,67.89,0,0,0,390.94,280.12Zm66.25-70.61-.43.57a1.59,1.59,0,0,0-1.55,1.42c-.16.09-.44.13-.15.39l.25-.29a1.57,1.57,0,0,0,1.43-1.54l.58-.42.19-.32ZM440,361.71l.21-.26-.26.21-.49.49c-1.69.3-3.33.69-4.42,2.21-.23.31-.79.73-1,.35-1-1.63-1.62-.44-2.49.08-.5.31-1.17.91-1.91.14-1.05-1.09-1.95-.12-2.64.49-.53.48,0,1.39.33,1.77.83.88,1.4-.11,2-.53s1.56-1,2.67-.35c-1.61.05-1.46,2.09-3.67,2.24-2.57.18-5.12,1.18-7.84.63a1,1,0,0,0-1.2,1c-.06.33.08.84.42.72,2-.74,1.2.95,1.48,1.7l-.11.2.09-.22c1.31.29,2.5.5,1.25,2.32-.43.63-.21,1.76-.15,2.64a1,1,0,0,0,1.26.89c.58-.06,1.5-.41,1.34-.8-.61-1.48.66-3-.41-4.6,1.74.35,2.89-.68,4.24-1.18.79-.3,2-1.41,2.56-.28.52,1-1.16.81-1.56,1.46A3,3,0,0,1,428,374.2c-2.51.89-3,2.75-1.53,5.29,1.79-1.95,5.36-1.31,6.4-4.36,2.42,0,4.2-1.89,6.55-2.18,1.36-.16,2.84-.52,2.59-3,.9,2.33,1.74,2.6,3.15,1.43.49-.4.73-1.08,1.46-1.24s1.64,0,1.47-.86c-.24-1.16-1.18-.37-1.81-.24-3,.59-3.55.19-4.33-3-.16-.62-.93-1.54-1.39-1.52-.7,0-1.93-.25-2.11,1.13a1.28,1.28,0,0,1-.73,1.13c-1.94.89-4,1.74-4.65,4.21-1-3.13-.3-4.33,2.11-5.53,1.59-.78,3.5-1.38,4.36-3.24Zm-6.44,23.19c.35-.07.78-.07.73-.61a.21.21,0,0,0-.15-.15c-.53,0-.56.37-.58.75l-.68.18.13.21Zm-8.4-225.21H427c-.89-.67-1.4-.57-1.85,0l-.23.2c.05,0,.11,0,.13,0A1,1,0,0,0,425.14,159.69Zm-11.26,17.87a6.09,6.09,0,0,0,.74-.51s-.1-.35-.18-.36c-.54-.09-.64.33-.73.72a.91.91,0,0,0-.35,1c0,.06.11.1.18.15Zm33.48,181.17a.58.58,0,0,0-.08-.18s-.08,0-.13-.05l.22.22c.06.36,0,.8.59.76a.22.22,0,0,0,.16-.15C448.16,358.76,447.72,358.79,447.36,358.73Zm-8.81-177.88-.34-.19.19.34c.14.57.36,1.1,1,1.22a.32.32,0,0,0,.41-.42C439.67,181.15,439.1,181,438.55,180.85Zm-20.31-9.29c-1.45.26-.89,1.17-1,2.4a2.88,2.88,0,0,0,1-2.42l.5-.49c.76.25,1-1.3,2.11-.44,1.23,1,1.14.22,1-.89-.17-1.82.09-3.54,2.72-2.55l.53.44c0,.93,0,1.8,1.36,1.82.16-1.15-.65-1.45-1.32-1.85l-.45-.54c0-.48,0-1-.49-1.31-2-1.36-2.33-3.35-2-5.52a20.13,20.13,0,0,1,.85-2.76c-.39,0-.65,0-.68.05-.91,2.11-2.54,3.84-1.92,6.62.37,1.64,1.49,4.27-1.55,5.34-.51.17-.24,1-.24,1.6Zm50.41,169.33c-.25-.54.32-1.44-.69-1.75-.57,1-.08,1.44.59,1.85.57.82,1.23,1.65,2.32,1.27.19-.07-.05-1.38-.12-2.8C470.07,340.75,469.43,341,468.65,340.89ZM415.8,357.27c.66-.55,2.27-.63,1.6-1.89s-1.75.14-2.8.15c1.12.17,1.19.88,1.12,1.67-.78,0-1.5.14-1.4,1.19,0,.35.2.71.57.62C415.84,358.81,415.8,358,415.8,357.27Zm4.82.39c-1.89.19-1.88,2.39-3.29,3.19l1.87-.13.24.2-.2-.24a2.88,2.88,0,0,0,1.54-2.85c.44-.11,1,.07,1.19-.56,0-.12-.24-.42-.4-.45C420.93,356.69,420.75,357.17,420.62,357.66Zm17.86,36.12c-.49.16-1.8-.28-.85,1a26.92,26.92,0,0,0,2.42,2.46,3,3,0,0,1,1.59-3.63,4.14,4.14,0,0,0,1.78-1.93,2.15,2.15,0,0,0-.63-2.53c-1-.6-1.3.69-1.8,1.2-1.18,1.19,1,.61.82,1.49a2.56,2.56,0,0,0-3.34,2Zm19.25-59.25c-.08-.57-.19-1.14-.87-1.29a.33.33,0,0,0-.42.42c.17.66.73.78,1.31.85.42,1.27-2.14,5.34-3.4,5.19-.87-.11-1.44-.2-1.62.83-.08.45-.55,1,.11,1.26a2,2,0,0,0,2.09-.36,29.32,29.32,0,0,0,3.47-3.49,2.42,2.42,0,0,1,3.29-1c0,.06,0,.13.07.18s.09,0,.14,0l-.22-.21.62-1.25C460.47,336.51,459.53,333.9,457.73,334.53Zm-11.85,26.65h0a2.6,2.6,0,0,1,.35-.87c.51-.53.8-1.09-.24-1-.79.08-1,1-1.08,1.73-.21,1.46-.59,2.9-.05,4.39.39,1.08-.57.55-1,.69-.06-.38,0-.82-.61-.78-.06,0-.16.1-.16.16,0,.58.41.55.79.6.35,1.57,1.89,1.29,2.91,1.75.54.24.74-.71.93-1.21.09-.21.17-.46-.37-.57-1.57-.33-1.77-.93-.43-1.9s1.73-2.18,2.65-3.29C448.19,360.3,447.06,361,445.88,361.18Zm19.75,66.19c-1.78-.59-3.41-1.77-5.43-1.47.74-3,3.78-3.68,5.72-5.47-.63-1-2.22-.42-2.71-1.75-.15-.42-1-.14-1.16.34-.42,2.05-2.25,2.74-3.66,3.69-1,.66-1.17.92-.33,1.7.64.6,1.13,1.43,2.16,1.47a22.79,22.79,0,0,0,5.92,8.13c2,1.86,3.26,3.38,5.89,1.62a1.89,1.89,0,0,0,.33-.43c-.36-.85-1.18-1.18-1.85-1.73-.57.55.53,1.69-.77,1.78-.55,0-1.16.18-1.52-.47-.72-1.29.7-1.83,1.13-2.64-1.09-.81-2,.19-2.44.06-1.16-.48,1.39-1.17-.76-1.46s-2.3-1.38-1-2.88c.55.44.9,1.21,1.88,1.26C467,428,466.6,427.45,465.63,427.37ZM440.94,380c3,.57,3-2.32,4.27-3.67.16-.17.44-.42.4-.55-.16-.59-.59-.6-1.16-.51a7.74,7.74,0,0,1-4.34-.56,2.57,2.57,0,0,0-2.88.46c-1,2.16-3.8,1.76-4.82,4.22-.92,2.21-1.74,2.68-.8,5.31,1.07-1.09-.37-2.93,1.1-3.75s2.79-2.08,4.55-2.39c.58-.11,1.52-.22,1.43-.69-.39-2.12,1.22-1.23,1.92-1.71.61,1-1,1.93-.31,2,1.92.24.41,1.28.65,1.84-.73-.08-1.9,1.78-2.15-.49,0-.06-.56-.12-.57-.11-.33,1.47-1.77.86-2.6,1.38a1.34,1.34,0,0,0-.57,1.28c0,.32.06.7.5.71,1.61,0,2.89-1.28,4.6-1.13C440.63,381.64,441,380.65,440.94,380Zm9.37-10.88,0,0c-.61,3.33,1.93,4.63,3.82,6.44.81-.8-.11-1.55.51-2.24,1.12-1.28.34-2.49-.79-3-1.8-.83-.85-1.52-.17-2.36s1.46-.66,2.17-1c.91-.43,2.16-.87,1.73-2.28-.61-2-1.54.48-2.35,0,.07-.35.05-.66.19-.8a1.58,1.58,0,0,0-.39-2.8c-1.72-.95-.77.65-1,1.17s-.5.1-.8,0c-1.53-.48-3.19-.32-3.67,1.28C449.06,365.31,447.46,367.57,450.31,369.07Zm-6.63,32.82a1.44,1.44,0,0,0,1.79-.09c2-1.24,3.63-1.7,3.86,1.5,0,.34.11.74.52.52a2.56,2.56,0,0,0,.72-.83c-1.44-1.31-.07-2.79-.3-4.15,0-.17-.29-.29-.44-.43-.7.33.16,1.2-.71,1.46-1.32-.93-1.2-2.81-2.47-4C447.81,399,444,399.52,443.68,401.89Zm-.57-52.11c-.06.83-.76,1.18-.09,1.45.3.13,1,0,1.1-.22,1.07-2.85,3.81-3.23,6.13-4.21,1.09-.45,1-1.34,1-2.24,0-.41,0-.87-.5-1s-.83.29-.89.83,0,1.56-.93,1.39c-2.88-.5-3.45,2.8-5.69,3.32C442.49,349.3,443.11,349.88,443.11,349.78Zm19.55,68c-3.89-1.38-4.37-1.16-6.4,2.3-.34.56-.69,1.16-.17,1.79.69.84,1.42.27,1.93-.13C459.49,420.58,460.87,419.31,462.66,417.77ZM427.91,331c-1.37,0-2.87.11-3.44,1.13a55.13,55.13,0,0,1-4,5.48.52.52,0,0,0,.23.81.66.66,0,0,0,.85-.27A76.56,76.56,0,0,1,427.91,331Zm-4.78,36.22c-2.87.66-2.36-1-2.41-2.24,0-.39.08-.86-.4-1-.18-.07-.61,0-.63.14-.23,1.21-.75,2.51-.05,3.63S421.5,368.77,423.13,367.19Zm.79-3.45a1.48,1.48,0,0,0-1,1.62c.27.8.39,2,1.57,2a1.46,1.46,0,0,0,1.41-1.48C425.78,364.8,424.38,364.69,423.92,363.74Zm23.33-34.32c-1.95-.49-2.32,1.5-3.57,2,.1.19.17.52.3.55,1.62.36,2.17-1.07,3.09-1.89C447.17,330,447.16,329.77,447.25,329.42ZM412.43,190.75v5.36C413.24,191.49,413.24,191.49,412.43,190.75Zm40.5,142.31c-1.46.4-2.09,1-2.36,2,0,.08.34.4.47.37C452,335.15,452.24,334.26,452.93,333.06ZM423.37,229.68c-1.52.54-1.52.54-1.73,2C422.56,231.24,422.91,230.4,423.37,229.68Zm7.54-62.49c-2.35-.68-2.35-.68-3.5.28C428.37,167.1,429.35,167.7,430.91,167.19Zm-5.06,194c1.24,1,.18,2.18,1.34,2.9a.48.48,0,0,0,.45,0c1-.92-.95-1.39-.35-2.3C427.46,361.47,427.19,361.31,425.85,361.15Zm27.4-29.83a2,2,0,0,0,2.2,1.34A2.29,2.29,0,0,0,453.25,331.32ZM416.69,169.65,415,171.56C416.82,172,416.79,170.82,416.69,169.65Zm40.58,240.87c.31-.72,0-1-.45-.83a1.45,1.45,0,0,0-.86.69c-.19.45.22.7.61.82C457.37,411.43,457.17,410.7,457.27,410.52Zm17-266.83c-.61-.06-.69.31-.66.6s.18.7.37.76c.44.16.51-.28.51-.58A2.63,2.63,0,0,0,474.25,143.69Zm.74,3.65c0-.32,0-.71-.46-.71s-.44.39-.45.7,0,.71.45.71S475,147.66,475,147.34Zm-15.8,185.77c-.05-.4-.06-.79-.47-.77s-.49.4-.35.7.39.41.59.62Zm-26.75-187c.16-.21.39-.38.41-.58.08-.54-.32-.67-.74-.63-.24,0-.78-.12-.55.4C431.69,145.61,432.11,145.81,432.44,146.1ZM416.78,360.75c-.07-.28.06-.73-.43-.67a.56.56,0,0,0-.47.7.82.82,0,0,0,.4.53C416.79,361.48,416.69,361,416.78,360.75Zm32.66,31.37c-.15.28-.35.5-.32.68a.62.62,0,0,0,.47.39c.17,0,.34-.25.5-.38ZM425.86,164a3.51,3.51,0,0,0,.56-.62c.05-.09-.08-.27-.13-.42-.18.08-.47.12-.52.26S425.81,163.6,425.86,164Zm-2.76,8.19c-.1-.12-.21-.37-.39-.44a.3.3,0,0,0-.4.39.91.91,0,0,0,.4.53C423,172.77,423.09,172.5,423.1,172.15ZM464,337.91a2.17,2.17,0,0,0-.5-.33c-.12,0-.29.09-.43.14.13.19.22.43.39.53S463.88,338.29,464,337.91Zm-39.3,43a2.83,2.83,0,0,0,.4-.6c0-.12-.09-.29-.14-.43a3,3,0,0,0-.42.54C424.48,380.49,424.6,380.65,424.68,380.89Zm-5.11-209.15-.18.41c.14.06.3.19.41.16s.12-.25.18-.39ZM406,238.46c-.14-.08-.27-.2-.4-.2s-.25.13-.38.2c.13.07.25.19.38.19S405.88,238.53,406,238.46ZM451.3,400l-.21-.39c-.08.12-.22.24-.22.37s.12.27.19.41Zm-42-211.51c0,.13-.14.29-.1.36s.23.14.35.21c0-.13.15-.29.11-.37S409.41,188.52,409.29,188.46Zm38.42,167c0,.05,0,.13,0,.15a.53.53,0,0,0,.19,0l-.05-.26ZM428.82,148c.06,0,.15-.05.16-.1s0-.14,0-.21l-.25.14Zm-3,18.28c-.07,0-.15-.09-.2-.07-.23.07-.24.18,0,.29a.25.25,0,0,0,.2-.05S425.77,166.34,425.78,166.28ZM456.9,383.17l.12.08,0-.14Zm-32.1-27.68.11.08,0-.13Z" transform="translate(-390.55 -84.18)"/><path class="cls-1" d="M457.24,359.71c.13-.46,1-.56.73-1.11a1.16,1.16,0,0,0-1.69-.26c-1.12,1.77-3.15.65-4.5,1.58-.63.42-1.65.22-1.35-.56.95-2.35,0-5.41,2.61-7.16.37.53.8,1.56.52,1.7-1.95,1-.19,2.24-.29,3.32l-.2.24.24-.2c.89-.08,1-.71,1-1.41-.1-1.43.73-1.85,1.91-2,.11.18.28.35.25.43-.25.71-1.29,1.55-.36,2.11s1.34-.61,1.71-1.3c.68-1.26,1.3-2.55,2.07-4.09-1.38,0-1.3,1.05-1.83,1.39s-1.44.9-2.15.21c-.35-.35,2.05-3.14,2.64-3.07,2,.21,4.16.71,4.8-2.17,0-.17.34-.36.54-.39.49-.06.46.27.42.63A1.22,1.22,0,0,0,465,349c.7.15,1.06-.65,1.5-1.09s.37-.91.64-1.31c1-1.47,1.43-3.69,4-3.21.69.12,1.14-.22,1.46-1,.69-1.62,1.58-3.15,2.39-4.71-2.38-.44-2.38-.44-5.08,1.44.49-2.15.52-2,3.05-2.45a1.71,1.71,0,0,0,.8-2.44,3.8,3.8,0,0,1-.39-3.4c-1-.32-1.28.27-1.3.82-.05,1.4-1.17,1.41-2.05,1.7-.45.14-1.1.26-1.22-.38s.37-.93.85-1.09a6.4,6.4,0,0,0,4.51-5.7c.22-3-.27-6.23-.11-9s-2.27-5.15-.94-7.89c.16-.34,0-.93.21-1.15,2.55-2.46-.45-1.88-1.32-2.52.27-.58,1-1,.84-1.86a.57.57,0,0,0-1,.13,1,1,0,0,1-1.79.26c-.47-1,.75-.62,1.12-1a3.47,3.47,0,0,0,1.14-3.18c-.13-1.62-1.21-.49-1.63-.89.29-.77,1.32-.69,1.08-1.95-.34-1.79,2.43-2.69,2-4.79a1.87,1.87,0,0,1,.64.09c1.15.67,1.13-.28.93-.81-1.05-2.89-.28-5.94-.86-8.87-.28-1.38.34-2.83.68-4,.61-2.1-1.22-4.2.38-6.07,1.79,1.09,1.27,2.93,1.39,4.51.14,2-.12,4,.11,5.91s.36,3.82.63,5.72a147.56,147.56,0,0,0-1.2-24.69.86.86,0,0,0-.26.64c-.23,2.33,1.23,4.82-.69,7-1-1.22-.85-3-.81-4.16.29-8.4,0-16.79.18-25.18,0-.94.16-1.78-.92-2.54s-.43-2.12-.33-3.24c0-.22.36-.47.32-.64-.78-3,.82-6.2-.48-9.2h0c1-.36,1-1.18,1-2a17.9,17.9,0,0,1,1.36-7.39,2.15,2.15,0,0,0-.07-1.91c-2.14-2.5-.5-4.87.23-7.2.3-1,.14-1.28-.64-1.7-2-1-1.9-1.95-.58-3.78.7-1,.62-2.47.92-3.73.34-1.47-.16-3.08.81-4.46.46-.67-.08-.82-.61-.91l0,0c-1.59-2.89,1-5.24,1.11-8,.26-5.42.15-10.83.3-16.25.2-7.49-.08-15,.68-22.45a80.93,80.93,0,0,0,0-15.25,27.11,27.11,0,0,0-.5-4.81c-.91,2.44,1.45,5.78-2,7.62a5.93,5.93,0,0,0-3.28-3.15c-.6-.28-.69.1-.75.54h-.51c-.44-1.68-1.43-3.17-1.61-4.94a7.7,7.7,0,0,0-.86,0v-4c-1.32,1.77-.71,2.86,0,3.94-.65,1.91.34,3.87-.18,5.78-.1.4-.31.85.27,1s.89-.37.85-.89c-.13-1.41.72-1.11,1.53-.94l.09,1.08h.27l.12-1.09a4.25,4.25,0,0,1-2,5.94c-.65.31-1.39.52-1.55,1.43a1.17,1.17,0,0,1-.6.68c-.43.23-.59-2.05-1.14-.22a1.8,1.8,0,0,0,1.54,2.11c2.33.45,2.21,2.68,2.71,4.38a1.09,1.09,0,0,1-.41,1.32c-.56.3-1,0-1.57-.27a3.53,3.53,0,0,1-2-4.07c-2-.31-2.83-1.82-3.87-3.34-1.54,2.21-2.95,2.18-4.19-.64.56,2.22,1.07,4.11.22,6h0c-2.29.3-3.3-.5-2.3-3.29-.88,2.23-2.59,1.49-3.81,1.72-1.79.34-2.93.83-2.35,2.94.22.8-.59,1.08-.93,1.6h0c-.53-.21-.57-.76-.82-1.16s0-1.6-1-1.37a2.7,2.7,0,0,0-1.52,1.47,1.67,1.67,0,0,0,.41,2.19c1-.28-.1-1.69,1.14-1.85.74,1.82.1,2.76-1.77,2.95-.79.08-1.68,0-1.43,1.24l0,0a8.37,8.37,0,0,1-1.61-1.46c-.59-.85-1.23-1.2-1.92-.37-.45.52-1.85.86-.71,2.08.89,1,.53,1.77-.77,1.67-2.35-.16-3.2,2.22-5.1,2.81-.37.11-1,.89-.45,1.41s1,.07,1.21-.56c.12-.33.32-.58,1.34-.46-1,.52-.7,1.51-1.69,1.85a1,1,0,0,0-.44,1.6c1.57,1.29.81,2.76.51,4.23,0-2.27-1.45-4.05-2-6.41L429,163.24c-1.1-1.67-1.14-3.15.1-4.53l.38-.54-.19-.14-.19.68c-.84-.07-1.83.27-2-1.13-.18-1.2-1.29-.71-2-.84-.55-.1-1.26,0-1.31-.77s0-1.84.79-1.84c2,0,1.95-2,2.87-2.92,1.55-1.56,1.25-2,4-1.19,1.62.47,2.13,0,2.13-1.53,0-2.69,1.57-5,2-7.56h0a13.31,13.31,0,0,0,2.15-3.77,2.21,2.21,0,0,1,2.65-1.68c-2.33-1-2.46-1.06-4.06,1.82a1.83,1.83,0,0,1-2.31,1.1c.31-3.15,3.44-4.13,5-6.34.46-.66.9-1.79,2.05-1.91l0,1.41-.12.18.1-.2c.47-.07.95-.15.92-.79s-.47-.53-.83-.63c-.35-1.56,1.22-2.45,1.86-2.77,3.3-1.64,4.34-5.12,6.69-7.49,1.57-1.58,3-3.33,4.43-5a1.36,1.36,0,0,1,1.32-.42c-.05.4-.28,1-.11,1.14a.89.89,0,0,0,1.3-.16c.51-1.08,1.78-.93,2.6-1.59-.83-.86-1.54-1.3-2.25-.16a1.48,1.48,0,0,1-1.46.69c.69-2,2.58-3,4-4.26,3.1-2.59,4.22-6.37,6-9.64A41.47,41.47,0,0,0,468,94.18a23.45,23.45,0,0,0,.66-4.16c.32-1.89.65-3.77,1.21-5.84a52.15,52.15,0,0,1,10.78,10.66c4.58,6.46,10,12.11,15.42,17.79,4.76,5,10.25,9.08,15,14,3.95,4.1,8.5,7.74,11.51,12.59,2.52,4.06,6.24,7.3,8,11.86a14.69,14.69,0,0,0,2.73,5.13h0c.27,2.34,2.43,3.76,2.92,6,1.14,5.12,4.68,9.4,5.16,14.72.23,2.58,1.66,4.72,2.16,7.2,1.18,5.9,2.66,11.73,3.86,17.62s3.46,11.32,4.88,17.05c1.24,5,2,10.18,3.52,15.12,2.25,7.49,2.74,15.23,3.85,22.89,1.05,7.2.7,14.51,1.51,21.74a7.14,7.14,0,0,1-.29,1.67,16.77,16.77,0,0,0,0,6.24c.72,3.08.27,6.39-.1,9.58a13,13,0,0,0-.09,3.89c.25,1.43.22,3-1.24,4-1.93-.64-1.6-2.8-1.44-3.71.22-1.24,2.11-2.19-.32-3.21-.27-.11,0-.73.35-1,.54-.51.54-1.14.3-2.1-.4,1.21-1.46,1.26-2.17,1.82a1.17,1.17,0,0,1-1.89-.31,1.06,1.06,0,0,1,.48-1.65,4.79,4.79,0,0,0,1.66-1.75c.57-.79,1-1.55,0-2.33a1.59,1.59,0,0,0-2.38.26c-.91.95-1.85,1.87-2.8,2.77a1.13,1.13,0,0,1-1.74,0,1,1,0,0,1,0-1.69c2.9-2,4.19-5.64,7.78-7-1-.78-2.36.21-2.71-1.13s1.27-1.73,1.72-2.72c-.54-.73-1.83-.55-1.89-1.81,1.87-.44,2.83-1.29,1.34-3.22-.54-.7-.15-1.22.71-1.35l.21.2-.19-.21c0-1.86-.64-3.63-.28-5.59a3.14,3.14,0,0,0-1.5-3.59c-.85-.42-1.16-1.77,0-2.06,3.13-.75,2-3.54,2-5,0-3.62-.93-7.24-1.51-11-.53.67-.24,1.76-1.32,2-2.15.39-2.33.6-1.74,2.85a3.4,3.4,0,0,1-.57,3.24c-.25-1.32-.13-2.55-.36-3.77-.33-1.75-1-3.86,1.75-4.53.47-.12.15-.53.24-.75.71-1.64-.09-3.45.58-5.09.15-.37.1-1.13-.27-1-1.62.61-1.2-1.25-2-1.59-.47-.18-.5-.81,0-1.23a.89.89,0,0,1,1.32-.06c.35.34.58.84.64.81,1.08-1.62-.36-2.56.11-4.15.29-1-.67-3.2-1.89-4.48-.41-.43-.74-.89-.46-1.53,1.79-4.09-.46-7.82-1.28-11.58-.63-2.89-2.62-5.46-3-8.51-1.3.43-.09,1.66-.83,2.33-2.14-3.14-1.24-6.71-1.71-10-.17-1.24-2-1.76-1-3.4,2.11-3.31.43-6.78-.83-9.61a19.3,19.3,0,0,1-2-6.5,1.67,1.67,0,0,0-.45-1.1c-1.45-1-1.48-2.23-1.09-3.88.55-2.28-1.05-3.67-3.18-3.06-.54.16-1.16.07-1.28-.39-.33-1.36-1.14-1.15-2.19-1.09-.57,0-1.29-.64-1.76-1.16s.23-.76.52-.94a1.13,1.13,0,0,1,1.76.34c.45.68,1.5.61,1.61,0,.36-2.14,1.24-.67,2.12,0l-.41-2c.11-.17.22-.35.32-.53l-.17-.12-.17.64c-.64-.09-1.61.06-1.86-.29-1.7-2.4-3.17-.87-4.79.05a5.67,5.67,0,0,1-2.34.64c-1.45.12-2.07.92-2.53,2.23-.91,2.58-.94,5.46-2.61,7.77-.48.66-.44,2.09-1.64,1.73-1-.28-.3-1.44-.45-2.19l.17-.29-.28.18c-.31-1.36.37-3,1.23-3.18,2.63-.65,1.91-1.89.93-3.23.58-.65,1.77-.08,1.57-.33-1.23-1.47.91-2.83,0-4.34-.56.48-1,.94-1.54,1.31-.71.51-1.73.8-2.24.11-.8-1.11.52-.94,1-1.29,1.4-.94.06-2.25.23-3.39.11-.82-1.2.25-1.8.06-1.51-.48-3,3-4.49,0a2.81,2.81,0,0,1-.39.58c-1.42,1.39-2.9,2.65-5.24,1.84.24-1.2,0-3.08.86-3.77,2.19-1.86,1.38-3.91.9-5.88a4.24,4.24,0,0,0-2.42-2.82c-1.34-.5-1.61,1-2.25,1.78-.89,1.06-1.76,2.15-2.7,3.18-.35.39-1.24,1-1.23.05a19.64,19.64,0,0,1,.07-4.28c.55-2.14.76-2.11-1.53-2.53-1.54-.28-3.08-1.34-2.93-2.62s-2.44-3.38.65-4.3c.21-.06,0-.69-.28-.8-1-.36-1.14-.83-.36-1.56s1.3-.33,1.76.41c.25.4.45.92,1.13.73.73-.78.06-1.9.72-2.76.81-1,.1-2.59-1.2-3.15a2.38,2.38,0,0,1-1.3-2.3c0-.5,1.33-1,1.85-.55,2.65,2.54,1.66-.46,1.75-1.21a4,4,0,0,0-.3-2.85c-1.87,1.92-2,1.9-3.8-1.08-.64,1.17.09,2.9-1.41,3.51a6.26,6.26,0,0,0-3.29,3.74c-.38.89-.71,1.31-1.55.5a.45.45,0,0,0,.17-.08s0-.09,0-.13l-.21.21c-.88,0-1.28.73-1.75,1.24-1,1.05-2.07,1-2.75.06-.79-1.06.63-1.23,1.18-1.64,2.31-1.76,4.68-3.46,7.09-5.22a3.33,3.33,0,0,0-2.47-1c-.31.56,1.14,1.08,0,1.59s-.46-1-1.09-1.07c-1.3,3.51-4.73,4.79-7.28,7-.76.66-2.44,1.17-2,2.06.61,1.12,1.39-.39,2.1-.75a2.26,2.26,0,0,1,.44-.22c.59-.13.85.16,1.06.71.49,1.32-.73,1.89-1.2,2.74-.29.51-.41-.16-.63-.44-.56-.71-1.33-.79-1.59.29-.18.74,0,1.58-1,2.14v-2.08c.23-.17.65-.28.19-.65l-.17.66c-2,1.61-3.44,3.92-3.24,6.26a99.7,99.7,0,0,1-.08,10.52c-.13,8.81-.05,17.63,0,26.45,0,2.61.13,5.23.11,7.84s-.06,5.26-.27,7.88c-.18,2.36.86,4.69.28,7-.4,1.57.8,3.11-.07,4.53a4.83,4.83,0,0,0-.28,4.48,14.62,14.62,0,0,1,1.07,5.86c-.33,3.26,1.49,1.2,2,1.07a25.66,25.66,0,0,1,6.24-1.26c-1.94,2.73-4.64,3.56-7.37,4.23-2,.49-3,2-2.51,3.56a11.23,11.23,0,0,1,.12,3c.08,2-1.08,4,.4,5.87a1.42,1.42,0,0,1-.06,1.17c-.88,2-.94,3.8.76,5.39a.55.55,0,0,1,.09.84c-1.52,1.9-1.2,4.27-1.59,6.44-.18,1-.47,2.38,1.33,2.63.57.07.73.94.22,1.09-2.21.69-1.08,1.83-.49,2.89a1.37,1.37,0,0,1-.16,1.79,2.59,2.59,0,0,0-.42,2.57,9,9,0,0,1,0,4.34c-.39,2,1.16,4.89,2.77,5.32-1.65,1.19-1.95,2.58-1.47,4.51.28,1.18,1,2.51.42,3.82a2.87,2.87,0,0,0,.62,3.41c1.15,1,2.19-.4,3-1.06,4.65-4,10.5-6.34,15-10.57,3.15-2.93,6.67-5.46,8.94-9.21a2.58,2.58,0,0,1,2.48-1.43c.38.63,0,1.06-.25,1.43-4.4,6.58-10.56,11.24-17,15.54-3.59,2.38-7.35,4.52-10.72,7.16-1.28,1-3,2.21-3.2,4.17-.35,3.9-1.27,7.74-1,11.73.34,4.3.43,8.64.47,13,0,1.75.18,2.92,2.89,2.06-3.21,1.34-2.89,3.34-2,5.49l0,0c-.51,1.2.1,2.12.74,3,.56-.32.7-1.14,1.51-1.22.9,1.48.62,2.41-1.2,2.65-.58.08-1.34.2-1.25.88.13.94,1.32.77,1.57.52.92-.93,3,1.05,3.27-1.42,0-.37.91,0,1,.21.62,1.76,1.12.8,1.89.07a2.08,2.08,0,0,1,2.48-.56c.91.5.69,1.37.34,2.19,1.38-.06.89-1.1,1.14-1.69.76-1.83,2.87-3.54,3.93-2.92,2.5,1.46,2-.56,2.51-1.48.24-.41.48-1,.85-1.13,2.59-.9,1.09-2.06,0-3.22,2.14-1,4.47-1.61,6-3.06,1.16-1.13,4.48-.5,3.48-3.66a4.85,4.85,0,0,0,.67-.24c.76-.46,1.51-1,2.31-1.46l-1.18-.62c.27-.3.65-.92.79-.86,1.29.47,1.78-.86,2.71-1.17s1.84-1.31,2.88-.73c.76.43.9.37,1.15-.38.39-1.15-.4-1-1-1v0c0-1.58,0-3.27,2-3.47a2.75,2.75,0,0,0,2-1.32c.61-1-1.24-.46-1.39-1.48,1.1-.17,2.11-.4,3.14-.47.45,0,1.15.33.91-.51-.5-1.83,1.19-1.81,2-2.5.22-.78-1.76-.41-.69-1.8,1.2-1.55,3-1.26,4.47-2,.42-.2.59,1.35,0,2a20.92,20.92,0,0,1-2,1.44c-.41.36-1.25.65-.57,1.63a19.6,19.6,0,0,0,2.14-1.61c1-1,1.79-2.69,2.91-2.93,3.35-.71,3.85-2.73,3.45-5.53-1.33-.22-.87,2.21-2,1.54s.84-1.4.39-2.3c-.18-.37-.32-.76-.49-1.13a1.43,1.43,0,0,1,0-1.33c1.28-2.82,2.18.19,3.34.17.25-.66.57-2,1-1.78,2.35,1.1,1.91-1.38,3-1.86-1.42-1.06-2.39-1-3.27.37a2.49,2.49,0,0,1-3,1c.23-.5.75-.73,1.06-1.18.7-1,2.57-1.61.65-3.24-.21-.19.09-1.74,1.17-1.79a3.82,3.82,0,0,0,2.39-1.07c.95-.8,2-1.2,3-.08s1.74-.16,2.17-.64c.94-1-.34-.71-.76-1s-.33-.87,0-1.27c.5-.61,1.05-1.18,1.64-1.84,1.65,2.33.59,4.81-.4,6.34a64.25,64.25,0,0,0-4.88,9.15,81.64,81.64,0,0,1-5.64,11.11c.76.53,2-.41,2.09,1.21,0,.9.93.07,1.41.24l0,0c1.17.76,1.38-.1,1.48-.94a16.28,16.28,0,0,0,0-2.21c0-2,2.12-1.46,3-2.44a.67.67,0,0,1,1.06.16c.64,1,0,1.93-.19,2.95-.36,1.7-2.37,2.2-2.42,3.95-.51.07-1,.22-.87.87,0,.15.35.42.44.38.59-.21.38-.78.46-1.22,2-.42,2.94-2.23,4.29-3.47a2.93,2.93,0,0,1,2.08-1c3.59.08,5.38,2.38,4.62,5.92a1.15,1.15,0,0,0,.24,1.22c1.63-1.13,1.13-2.69.83-4.17-.11-.56,0-1,.47-1.24s.78.05,1.14.24.69.59.4,1c-1.26,1.65,0,3.3-.2,5,2.2-.84,2.88-.45,3.48,1.76.15.54-.14,1.46.69,1.58s.49-1.13,1.17-1.34c.49,3.11-.86,5.91-2,8.57-1.66,4-2,8.27-2.79,12.46-.9,5-1.62,10.09-2.55,15.12A16.22,16.22,0,0,1,550,346.4c-1-.06-1.16-.89-.79-1.38.62-.81.3-1.7.56-2.52.5-1.51-.11-3.08,1.34-4.68s.31-2.79-2.11-2.88c-1.44-.05-.2,1-.61,1-1.58-.11-3.13,1.33-4.71.07.45-.06,1,.13,1.23-.45,0-.09-.22-.42-.37-.45-.63-.09-.82.34-.89.87-1.07,1-1.56-.51-2.38-.68-.3-.06.33-1.69.52-1.57,1.24.78,2.22-1.51,3.39-.19.79.89,1.63.35,2.11-.25a3.05,3.05,0,0,0,.69-2.75c0-.17-.37-.35-.57-.35-.53,0-.56.33-.58.81-.08,1.87-1.53.84-2.36,1s-.86-.57-1.2-1.26c-.8-1.61.46-2.93.21-4.46-.36.1-.71.1-.78.23-2.58,5.24-7.55,8.92-9.46,14.62-.35,1.05-.54,2.46-1.29,3.11-3.27,2.86-4.19,7.94-8.91,9.39-.25.08-.43.49-.58.77a71.56,71.56,0,0,1-8.23,12.06c-2.71,3.19-5,6.78-7.75,9.88a132.6,132.6,0,0,1-18,16.54c-1.64,1.25-3.64,2.56-4,5.36a4.41,4.41,0,0,0,2.3-1.9c.85-1.36,2.22-2.08,3.46-3,.65-.47,1.31-.44,1.32.16,0,1.54,1.53.64,2.18,1.37-1,.54-2.11.81-1.91,2.08.36,2.23-1,2.32-2.64,2.3-3.75,0-3.75,0-5.24,1.79,1.09.37,1.85-.53,2.78-.72s2.15-.53,2.73.42,1.28,1.71.88,3.26c-.55,2.09-1.25,3.52-3.39,4.1a1.4,1.4,0,0,0-1.06,1.49l-.13.18.11-.2a3.22,3.22,0,0,1,2.76.09c.21.13.2-1.41,1.05-.54.34.34,0,.88-.18,1.35a5.53,5.53,0,0,0,3.32,7.64,1.4,1.4,0,0,0,.9-.16c.51-.22,1-1.2,1.51-.17s-.61.84-1,1.17c-2,1.59-5,1.81-6.27,4.57,2.75.3,2.88,1.51.62,5a2.82,2.82,0,0,0,.68.22c.65,0,1.42-.9,1.94.1.39.75-.09,1.41-.58,2-.31.38-.51.91-.9,1.14-.71.41-1.79.75-1.14,1.7s1.6,0,2.42-.13c.44-.06.14-1.07,1-.77.47,1-.73,2.2.11,3.24,1.07,1.3.16,2.24-.61,3.18-.4.48-1.2.62-1.16,1.45l-.2.22.22-.2,2.11.11c.43.89-.83,1.48-.41,1.87,1.27,1.2.79,2.16-.09,3.2.94.74-1.23,1.49,0,2.31a2.41,2.41,0,0,0,2.55-.12c1.23-.57.62-1.49.36-2.32-.48-1.52.6-2.44,1.37-3.43.27-.35.91-.42.91-1a11.11,11.11,0,0,1,2.82-7.67c1.93-2,.21-5.24,2.87-6.67a.75.75,0,0,0,.08-.7c-.73-1.33.25-2,1-2.75,3.17-3,5.94-6.25,6.54-10.82.06-.53.42-1.42.74-1.46,2.54-.32,1.64-3.25,3.28-4.21.31-.18.25-.52,0-.83-1.71-2.11-.69-4.18.09-6.24-1.23-.93-1.68,1.06-2.78.78.42-1.22,1.26-2.38,2.32-2.54,1.54-.22,2.68-2,4.49-1.07.38.2.77-.24.43-.74-.22-.32-.68-.6-.09-.93,2.91-1.59,3.09-5.59,6.2-7a.71.71,0,0,0,.17-.67c-.85-1.72.44-2.56,1.41-3.49a5.2,5.2,0,0,0,1.63-4.71c.67-.16.77,2.26,1.18.46.69-3,3.09-4.56,4.56-6.85,1.07-1.67,1.22-4,2.69-5.12a9,9,0,0,0,3.86-7.46c0-1.55,1.18-1.35,2-1.61,1.64-.52,0,1.43,1.1,1.43.94-2.61,2.49-4.95,3.3-7.73.3-1,.31-3.13,1.94-3.87.62,2.63-.37,5.08-1.19,7.42-1.77,5.05-2.76,10.32-4.5,15.37a46.74,46.74,0,0,1-2.74,7.31c-2.35,4.27-3.39,9-5.24,13.44a292.18,292.18,0,0,1-12.72,26.83c-5.94,10.94-13,21.26-18.36,32.51a106.88,106.88,0,0,0-6,16.1c-.83,2.82.63,5.27,2,7.39,5.45,8.51,10.06,17.58,16.69,25.33.71.83,1.62,1.92.88,3.11s-1.87,1.11-3.1.93c-.94-.13-1.89-.15-2.42,1.06-.28.61-1,.45-1.36-.18a3.51,3.51,0,0,1,3-2.1,1.33,1.33,0,0,0,1.14-2,1.26,1.26,0,0,0-2-.66c-2,1.25-2.89.09-3.42-1.56a8.47,8.47,0,0,0-1.42-2.26,18.88,18.88,0,0,1-2.94-7.09c-.16-.79-.1-1.25-1-1.13-.73.1-1.29.5-1,1.33.43,1.21.55,2.49.95,3.73,1,3.13,3,5.8,3.81,9-5.29-5.58-8.82-12.35-12.7-18.88-3.12-5.26-4.85-11.44-9.18-15.85-3.81-3.9-8.1-7.38-12-11.22a22.2,22.2,0,0,1-3.74-4.18c1.53.09,2.17,1.4,3.05,2.3a55.82,55.82,0,0,0,11.63,9.29c1.38.82,2.56-.17,3.86.71-.24-5.31-1.63-10.16-2.44-15.11-.7-4.25-1.56-8.47-2.3-12.71-.35-2-1.92-2.12-3.33-2-1.15.1-2.29.12-3.43.15-.62,0-1.81.36-.67-1,.48-.58-.41-.46-.65-.46-1.47,0-1.61-1.75-2.92-2.05-.57-.14.14-.33.28-.36,1.6-.33,0-1.12.33-1.84,2.1,1.42,4.31.76,6.51.33l.21,1.14c.19-.11.49-.17.55-.33.29-.72-.26-.76-.75-.81-.39-1.65-1.73-.91-2.64-1-1.75-.08-3.3,0-4.28-2-.62-1.29-2.21-1.82-3.75-2a1.62,1.62,0,0,1-1.5-1.41c-.07-.62.49-1,1-1.27s1.29-.16.93.44c-1,1.7.44,1.65,1.21,1.74,1.29.14,2.24,1.54,4.05.18s3.76.56,5.46,1.67c.58-2.08-.38-3.17-2.16-3.35a32.52,32.52,0,0,1-6.88-1.57c-1.69-.56-3.75-.27-5.16-1.83,1.22-1.11,2.58,1.31,3.71-.54-1.65-.86-3.59-1.71-2.12-4.56-2.71,1.83-2.39-1.29-3.7-1.8l0,0c-.55-1.89.63-3.2,1.63-4.5,1.29-1.71,3-.79,4.62-.62,1.85.19,3.73.12,5.6.16.7,1.31,1.68,1.09,2.93.69-.93-1.46-2-.85-2.95-.67-1.38-1.83-3.52-1.2-5.28-1.38-3-.31-6,.06-9-.17-2.69-.2-5.33-.94-7.56,1.37-.32.34-1.22.11-2.43.18a2.24,2.24,0,0,0,1.1-2.76c-.52-2.73.23-3.48,3-3.67.39,0,.77-.11,1.34-.2-.6-1.1-1.49-.73-2.21-.78s-1.54-.26-1.8-1c-.38-1.11.73-.76,1.19-1s.78-.41.73-.89-.66-.63-1.07-.87-1.54.18-1.41-.9c.09-.82.7-1.22,1.58-1.22s2.15.15,2.18-.95c0-1.71-1.7,0-2.44-1.13,2.09-.31,3.39-2.12,5.65-2.13,1.09,0,2.33-.84.85-2.31a29,29,0,0,1-2.22-2.6c-.31-.38-1.14-.69-.45-1.36a1,1,0,0,1,1.55,0c1.18,1.56,2.6,1.17,4,.54s2.16,1.12,3.41.58c-.08,1.37.09,2.84-1.48,3.6-.42.21-.65.69-.28,1s1,.41,1.27-.16c1.12-2.59,3.1-2.83,5.56-1.91a9.19,9.19,0,0,0-5.09-2.46c-2.26-2.6-5.38-3.75-8.46-4.9-1.18-.43-2,.63-2.74,1.3-1.81,1.58-3.5,3.29-5.34,4.84a9.87,9.87,0,0,1-2.34,1.09,1.22,1.22,0,0,1,.62-1.72c4.21-2.06,3.57-5.16,1.95-8.51l.05,0c.47.07,1.12.36,1.38.16,1.44-1.16,1.88-.24,2.46.92a1.69,1.69,0,0,0,2.06,1.13c1-.18,1-.49,1-1.18l.05,0c.59.18.92.94,1.7.83-.55-2.11.69-5.44,2.48-6.2,2.17-.91,3.82-2.55,5.82-3.75-1.48.1-3.1-.53-4.21,1a2,2,0,0,1-2.45.62c-.86-.25-.86-1.07-.9-1.83a1.88,1.88,0,0,1,1.29-2.13c1.45-.51,3.34-.41,3.34-2.82,0-.63.82-.27,1.39,0,2.33,1.09,4,.67,5.29-1.48-1.6.88-2.93,2-4.4.27-.28-.33-1.8.17-1.36-1.11.32-1,.59-2.32,2.1-2.25a1.23,1.23,0,0,0,1.23-.47c-2.51-1-5.18-.47-7.6-1.28-.7-.24-1.07.62-1.5,1.09-.74.81-1.5,1.55-2.74,1.27Zm39-231.14c-.13.18-.26.35-.38.54l.19.13.21-.65.21-.22Zm-52.34,13.84a4.16,4.16,0,0,0-2.65.81,1.59,1.59,0,0,0,2,1.06c1-.3.55-1.21.66-1.87l.39-.47-.26-.15Zm88.88,163,0,0c-.65-.61.78-1.19.2-1.44-.9-.38-1.28.48-1.36,1.23-.21,2-.76,3.71-2.9,4.38-1.15.36.25,1.28-.42,1.73l-.2.26.26-.21a6.79,6.79,0,0,0,4.52-2.93c.72-1,1.43-1.7,2.77-1.52.51.06,1.38.2,1.32-.61a1.25,1.25,0,0,0-1.54-1.2A10.61,10.61,0,0,1,532.79,305.37Zm-66.16,51.37.21.11-.22-.1c.76-2.22-.78-5.14,2.21-6.78-2.24,0-4.32-.42-6.31,0-.33.93,1,.65.76,1.39-.79,2.47,3.05,2.83,2.38,5.24ZM473.54,377c.86-.17,2.22.57,2.42-.91a80.33,80.33,0,0,0,.87-9.39,67.32,67.32,0,0,0-.58-11.19c-.41-2.66.47-5.73-1.92-7.95-.06-.05.09-.51.22-.56.79-.33,1.22-.81.27-1.32s-1.13.42-1.39,1c-.46,1-.46,2.29-1.74,2.78a1.32,1.32,0,0,0-.43,2.35c2,1.61,1.44,3.47.77,5.42.82.08,1-1.19,1.71-.62.5.4.19,1,.09,1.61-.28,1.57-.79,3.18-.42,4.74.22.91.9,3.76.55,4.53-1.3,2.94-.91,7,.83,8.2-.46.41-1.33.43-1.24,1.33a.53.53,0,0,0-.17.08s0,.08,0,.12Zm53.94-63.11-.21-.21c.33-2.16-.67-2.69-2.74-3.09-2.75-.53-4.34,1.2-5.82,2.51a262.64,262.64,0,0,1-21.78,17.75c-1.19.84-2.71,1.62-.78,3.35a2,2,0,0,1,.44,2.29c-.34.66-1,.56-1.51.34-2.53-1.05-3,.26-2.84,2.5.71-.4.77-1.44,2.08-1.15,3.26.72,3.87,0,3.44-3.41a6.06,6.06,0,0,1,0-.74l0,0,3.63-.61.18.78a10.65,10.65,0,0,0-1.2.77,4.61,4.61,0,0,0-1.27,3.2c-.09,1.48,1.41-.85,2,.5a5.47,5.47,0,0,1-2.36,1.07c-.58.08-.43.59-.39,1a.73.73,0,0,0,.83.71,2.82,2.82,0,0,0,.61-.18c-.88-.7-.44-.91.36-.92,1,0,.53.82.57,1.27a5.41,5.41,0,0,1-.32,2.66,1,1,0,0,0,.21.86c.25.2.62,0,.83-.26,1.37-1.83,3.47-2.66,5.25-3.92.37-.05.81,0,.77-.6a.25.25,0,0,0-.16-.16c-.56,0-.57.37-.61.76-1.3,0-2.6-.21-3.77.71s-1.14-.48-1-.79c1-2,.1-4,.22-6,.17-2.73,1.4-3.74,3.79-4,.35,1.31-1.59.76-1.44,1.86,1.48,1.37,4.25-2.71,5.1,1.61.2-2.47,2.25-2.6,3.53-3.61,1-.82,1.53-.65,1.4.62-.16,1.55.64,1.33,1.37.75a2.21,2.21,0,0,1,1.77-.39c1.46.05,3-.79,4.27.67.41-2.45,3.83-1.12,4.14-3.42.77.21,0,1.25,1,1.26a1.71,1.71,0,0,0-.52-2.37,1.84,1.84,0,0,0-2.28.2c-.93.67-1.84,1.35-2.8,2-.74.48-1.58.38-1.76-.48-.11-.48-.11-1.7.91-1.62,1.47.11,1.32-.83,1.69-1.76.6-1.46.08-3.7,2.93-3.86a2.88,2.88,0,0,0,2.71-3.59c-.19-1.18,1.06-2.08,2.15-2.4,1.88-.54,3.19-1.51,3.63-3.29-2-2-3.69-1.23-5.33.42A2.49,2.49,0,0,1,527.48,313.88Zm.39,72-.5,0-.21-.12.22.11a8,8,0,0,1-1.38,4.46c-1.26,2.32-3.19,4.27-4.61,6.51-3,4.81-4.8,10.29-7.9,15.12-2.2,3.44-4.14,7.1-6.16,10.67-1.34,2.38-3.15,4.65-3.09,7.62l-.15.15c-.93-.16-1.17.39-1.53,1.15-1.4,2.89-1.72,6.21-3.76,8.85-.81,1.06-.42,2.26.28,3.43,1.09,1.8,2.71,2.23,4.6,2.29.1.18-.25.67.35.53l-.37-.52c-.48-1.66,1.69-1.86,1.75-2.6.22-2.69,2.79-4.29,2.8-7.05,0-1.51.34-1.52,1.93-1.3.36.05.76-.09.79-.4.28-2.81,3-4,4.11-6.32.82-1.66-.1-3.61,1.23-5.05.58.32-.21,1.28.69,1.46,1.1-1.68,1.09-3.94,2.17-5.44,1.36-1.88,3.7-3.1,1.86-6,.59.81,1.1,1.4,1.85.62s1.41-1.77.7-2.79c-.83-1.18-.22-1.53.73-1.6a3.28,3.28,0,0,0,2.85-3c0-2.12,1.37-3.57,1.73-5.46.57-3,3.72-5.11,3.42-8.59-.09-1,.58-1.79,1.1-2.68,1-1.76,2.3-3.9.85-6.16-.23-.36-.22-.6.13-.78,1.91-1,.46-1.64-.17-2.53s-2-.66-2.64-1.76c-.86,2.72-2.71,4.72-3.68,7.18ZM518.53,340c3.4.82,6.93-.66,7.64-3.43.39-1.5,1.68-1.33,2.21-1.43,1.9-.36,2.27-.46,1.47-2.13-.48-1,1.46-1.84.11-2.53-1.77-.89-.14,1.89-1.77,1.75s-2.74,1.19-3.88,2.21a2.43,2.43,0,0,1-2.3.56c-1.53-.39-3.09-.33-4.61-.57-1-.16-2.27-.86-2.95.27-.79,1.31-2.57,2.61-.9,4.6.74-1.16,1.65-2,2.25-.16.27.82.5.73.89.4,1.09-.9,2.88-.84,3.37-2.56.33-1.14,1.33-1.09,2.25-.93a1.29,1.29,0,0,1,1.09,1.64,2,2,0,0,1-1.81,1.75C520.67,339.62,519.65,339.08,518.53,340ZM486.1,336.2c.46-1-.14-2.13.69-2.48,2.24-1-.05-1.76,0-2.61-.93.73-2-1.1-2.75,0-1.15,1.68-.82,3.95-2,5.66,0,.05.31.49.39.47.28-.09.71-.26.75-.46C483.62,334.58,484.81,335.36,486.1,336.2Zm-16.65,78.48-.07.84h2.75c2.33,0,4.41,1,6.58,1.65.45.13.14,1.54,1.22.93a1.54,1.54,0,0,0,.49-1.05,1.16,1.16,0,0,0-1.14-1.34C476,415.39,472.8,414.11,469.45,414.68Zm41.4-77.15c-4.59-1.75-6.26-1-6,2.86C506.33,338,508.7,338.09,510.85,337.53Zm-16.8-4.22-7.13,4.46.43.68C489.72,337,492.69,336.39,494.05,333.31Zm19.22,23.25c-2.47.55-1.17,3.63-3.46,4.33C513.78,361.49,512.05,358,513.27,356.56ZM476.9,410.87c1.55.53,1.64,1.72,1.65,3a.86.86,0,0,0,.89.95c.61-.07.62-.73.64-1.16C480.23,411.07,479.65,410.54,476.9,410.87Zm43.46-67.94c-1.1-.63-2.34-.91-2.87,0a5.51,5.51,0,0,0-.57,4.62C518,345.67,517.39,343,520.36,342.93Zm-49,3.32c.35-.78,1.68-.48,1.93-1.42.18-.65-.57-.91-1.16-.92a1.37,1.37,0,0,0-1.58,1.45C470.56,345.8,470.66,346.17,471.38,346.25Zm-26.56-207c.74,1.35-.18,3.24,1.42,4.76A5.64,5.64,0,0,0,444.82,139.22Zm38,201.87c1.08-.91,2.56-.75,3.41-2,0-.06-.25-.5-.34-.49a6,6,0,0,0-3.23,1.85A2.9,2.9,0,0,0,482.79,341.09Zm19.37,8.56c-1.54.37-2.71-.3-3.71.58-.26.22-.08.85.11.83C499.64,350.92,500.84,351.1,502.16,349.65Zm-6.22-5.78,2.27,1.12C498.24,343.37,497.57,343.26,495.94,343.87ZM453.57,118.55c.07-.49-.05-.75-.47-.76s-.7.16-.61.54a3.23,3.23,0,0,0,.6.92ZM495.74,344c-.07-.33.06-.85-.52-.81-.36,0-.41.4-.41.72s0,.65.41.71S495.66,344.29,495.74,344Zm-55.41-210.6a2.36,2.36,0,0,0-.7-.26c-.37,0-.56.27-.38.61a.71.71,0,0,0,.6.15C440,133.85,440.13,133.61,440.33,133.39Zm-3.69,19.73a5.91,5.91,0,0,0,.55-.79c.16-.34.45-.91-.25-.81S436.53,152.27,436.64,153.12Zm41.77,273.26.12-.34a1.78,1.78,0,0,0-.66-.14c-.28.05-.85-.29-.75.34C477.13,426.35,478,426.34,478.41,426.38Zm21-278.4c.14.05.31.19.41.15s.13-.25.19-.39c-.14-.06-.31-.2-.4-.16S499.46,147.84,499.4,148Zm16.92,251.37-.17-.42c-.14.05-.35.07-.4.17s.09.27.14.41Zm1.37-.5c.13.06.29.19.39.16s.13-.25.19-.38c-.14-.06-.3-.19-.39-.16S517.75,398.72,517.69,398.85ZM468.94,137c-.11-.14-.18-.32-.27-.33s-.25.09-.37.15l.33.43Zm-15,4.87c.07.12.12.31.21.33s.25-.08.38-.13l-.29-.46ZM497,342.08c.07-.14.19-.27.19-.4s-.14-.26-.22-.38c-.07.13-.19.26-.19.39S496.94,341.94,497,342.08Zm6.66-188.43c.05-.12.16-.28.12-.35s-.23-.15-.35-.22c0,.12-.15.27-.11.36S503.57,153.58,503.69,153.65ZM497.55,339.8c-.06,0-.14,0-.16,0s0,.13-.05.19l.28,0Zm59.12-57.29c0,.07-.08.15-.07.2.07.23.18.24.29,0a.25.25,0,0,0,0-.2S556.73,282.52,556.67,282.51ZM496.1,444.77l0-.19-.26.05c0,.06,0,.13.07.16S496.05,444.78,496.1,444.77Zm-68-287.41-.17.1.1.15.24-.18Z" transform="translate(-390.55 -84.18)"/><path class="cls-1" d="M516,305.87c.63,0,1.42-.14,1,1-.25.75-.39.81-1.15.38-1-.58-1.92.41-2.88.73s-1.42,1.64-2.71,1.17c-.14-.06-.52.56-.79.86l1.18.62c-.8.5-1.55,1-2.31,1.46a4.85,4.85,0,0,1-.67.24c1,3.16-2.32,2.53-3.48,3.66-1.48,1.45-3.81,2-6,3.06,1.05,1.16,2.55,2.32,0,3.22-.37.13-.61.72-.85,1.13-.55.92,0,2.94-2.51,1.48-1.06-.62-3.17,1.09-3.93,2.92-.25.59.24,1.63-1.14,1.69.35-.82.57-1.69-.34-2.19a2.08,2.08,0,0,0-2.48.56c-.77.73-1.27,1.69-1.89-.07-.09-.25-1-.58-1-.21-.23,2.47-2.35.49-3.27,1.42-.25.25-1.44.42-1.57-.52-.09-.68.67-.8,1.25-.88,1.82-.24,2.1-1.17,1.2-2.65-.81.08-.95.9-1.51,1.22-.64-.91-1.25-1.83-.74-3a26.78,26.78,0,0,0,2.69-.15.74.74,0,0,0,.58-.93c0-.15-.51-.37-.55-.33-.75.77-2.39-.11-2.7,1.43-.93-2.15-1.25-4.15,2-5.49-2.71.86-2.87-.31-2.89-2.06,0-4.32-.13-8.66-.47-13-.31-4,.61-7.83,1-11.73.17-2,1.92-3.17,3.2-4.17,3.37-2.64,7.13-4.78,10.72-7.16,6.48-4.3,12.64-9,17-15.54.25-.37.63-.8.25-1.43a2.58,2.58,0,0,0-2.48,1.43c-2.27,3.75-5.79,6.28-8.94,9.21-4.54,4.23-10.39,6.53-15,10.57-.77.66-1.81,2-3,1.06a2.87,2.87,0,0,1-.62-3.41c.59-1.31-.14-2.64-.42-3.82-.48-1.93-.18-3.32,1.47-4.51-1.61-.43-3.16-3.35-2.77-5.32a9,9,0,0,0,0-4.34,2.59,2.59,0,0,1,.42-2.57,1.37,1.37,0,0,0,.16-1.79c-.59-1.06-1.72-2.2.49-2.89.51-.15.35-1-.22-1.09-1.8-.25-1.51-1.61-1.33-2.63.39-2.17.07-4.54,1.59-6.44a.55.55,0,0,0-.09-.84c-1.7-1.59-1.64-3.41-.76-5.39a1.42,1.42,0,0,0,.06-1.17c-1.48-1.89-.32-3.91-.4-5.87a11.23,11.23,0,0,0-.12-3c-.45-1.59.51-3.07,2.51-3.56,2.73-.67,5.43-1.5,7.37-4.23a25.66,25.66,0,0,0-6.24,1.26c-.53.13-2.35,2.19-2-1.07a14.62,14.62,0,0,0-1.07-5.86,4.83,4.83,0,0,1,.28-4.48c.87-1.42-.33-3,.07-4.53.58-2.3-.46-4.63-.28-7,.21-2.62.24-5.26.27-7.88s-.1-5.23-.11-7.84c0-8.82-.09-17.64,0-26.45a99.7,99.7,0,0,0,.08-10.52c-.2-2.34,1.23-4.65,3.24-6.26h0v2.08c1-.56.86-1.4,1-2.14.26-1.08,1-1,1.59-.29.22.28.34,1,.63.44.47-.85,1.69-1.42,1.2-2.74-.21-.55-.47-.84-1.06-.71a2.26,2.26,0,0,0-.44.22c-.71.36-1.49,1.87-2.1.75-.48-.89,1.2-1.4,2-2.06,2.55-2.21,6-3.49,7.28-7,.63.07-.12,1.6,1.09,1.07s-.31-1,0-1.59a3.33,3.33,0,0,1,2.47,1c-2.41,1.76-4.78,3.46-7.09,5.22-.55.41-2,.58-1.18,1.64.68.91,1.79,1,2.75-.06.47-.51.87-1.25,1.75-1.24h0c.84.81,1.17.39,1.55-.5a6.26,6.26,0,0,1,3.29-3.74c1.5-.61.77-2.34,1.41-3.51,1.84,3,1.93,3,3.8,1.08a4,4,0,0,1,.3,2.85c-.09.75.9,3.75-1.75,1.21-.52-.49-1.82.05-1.85.55a2.38,2.38,0,0,0,1.3,2.3c1.3.56,2,2.11,1.2,3.15-.66.86,0,2-.72,2.76-.68.19-.88-.33-1.13-.73-.46-.74-1-1.15-1.76-.41s-.63,1.2.36,1.56c.31.11.49.74.28.8-3.09.92-.48,2.92-.65,4.3s1.39,2.34,2.93,2.62c2.29.42,2.08.39,1.53,2.53a19.64,19.64,0,0,0-.07,4.28c0,.9.88.34,1.23-.05.94-1,1.81-2.12,2.7-3.18.64-.77.91-2.28,2.25-1.78a4.24,4.24,0,0,1,2.42,2.82c.48,2,1.29,4-.9,5.88-.82.69-.62,2.57-.86,3.77,2.34.81,3.82-.45,5.24-1.84a2.81,2.81,0,0,0,.39-.58c1.46,3,3-.46,4.49,0,.6.19,1.91-.88,1.8-.06-.17,1.14,1.17,2.45-.23,3.39-.52.35-1.84.18-1,1.29.51.69,1.53.4,2.24-.11.53-.37,1-.83,1.54-1.31,1,1.51-1.18,2.87,0,4.34.2.25-1-.32-1.57.33,1,1.34,1.7,2.58-.93,3.23-.86.21-1.54,1.82-1.23,3.18l.11.11c.15.75-.52,1.91.45,2.19,1.2.36,1.16-1.07,1.64-1.73,1.67-2.31,1.7-5.19,2.61-7.77.46-1.31,1.08-2.11,2.53-2.23a5.67,5.67,0,0,0,2.34-.64c1.62-.92,3.09-2.45,4.79-.05.25.35,1.22.2,1.86.29h0l.41,2c-.88-.64-1.76-2.11-2.12,0-.11.6-1.16.67-1.61,0a1.13,1.13,0,0,0-1.76-.34c-.29.18-.87.56-.52.94s1.19,1.2,1.76,1.16c1.05-.06,1.86-.27,2.19,1.09.12.46.74.55,1.28.39,2.13-.61,3.73.78,3.18,3.06-.39,1.65-.36,2.86,1.09,3.88a1.67,1.67,0,0,1,.45,1.1,19.3,19.3,0,0,0,2,6.5c1.26,2.83,2.94,6.3.83,9.61-1,1.64.81,2.16,1,3.4.47,3.3-.43,6.87,1.71,10,.74-.67-.47-1.9.83-2.33.4,3,2.39,5.62,3,8.51.82,3.76,3.07,7.49,1.28,11.58-.28.64.05,1.1.46,1.53,1.22,1.28,2.18,3.5,1.89,4.48-.47,1.59,1,2.53-.11,4.15-.06,0-.29-.47-.64-.81a.89.89,0,0,0-1.32.06c-.47.42-.44,1,0,1.23.85.34.43,2.2,2,1.59.37-.13.42.63.27,1-.67,1.64.13,3.45-.58,5.09-.09.22.23.63-.24.75-2.72.67-2.08,2.78-1.75,4.53.23,1.22.11,2.45.36,3.77a3.4,3.4,0,0,0,.57-3.24c-.59-2.25-.41-2.46,1.74-2.85,1.08-.2.79-1.29,1.32-2,.58,3.73,1.52,7.35,1.51,11,0,1.49,1.09,4.28-2,5-1.21.29-.9,1.64,0,2.06a3.14,3.14,0,0,1,1.5,3.59c-.36,2,.32,3.73.28,5.59h0c-.86.13-1.25.65-.71,1.35,1.49,1.93.53,2.78-1.34,3.22.06,1.26,1.35,1.08,1.89,1.81-.45,1-2.08,1.31-1.72,2.72s1.75.35,2.71,1.13c-3.59,1.33-4.88,5-7.78,7a1,1,0,0,0,0,1.69,1.13,1.13,0,0,0,1.74,0c1-.9,1.89-1.82,2.8-2.77a1.59,1.59,0,0,1,2.38-.26c1,.78.53,1.54,0,2.33a4.79,4.79,0,0,1-1.66,1.75,1.06,1.06,0,0,0-.48,1.65,1.17,1.17,0,0,0,1.89.31c.71-.56,1.77-.61,2.17-1.82.24,1,.24,1.59-.3,2.1-.32.31-.62.93-.35,1,2.43,1,.54,2,.32,3.21-.16.91-.49,3.07,1.44,3.71l0,1c-.68.21-.31,1.47-1.17,1.34s-.54-1-.69-1.58c-.6-2.21-1.28-2.6-3.48-1.76.22-1.68-1.06-3.33.2-5,.29-.39,0-.76-.4-1s-.71-.46-1.14-.24-.58.68-.47,1.24c.3,1.48.8,3-.83,4.17a1.15,1.15,0,0,1-.24-1.22c.76-3.54-1-5.84-4.62-5.92a2.93,2.93,0,0,0-2.08,1c-1.35,1.24-2.28,3.05-4.29,3.47l0,0c0-1.75,2.06-2.25,2.42-3.95.22-1,.83-1.93.19-2.95a.67.67,0,0,0-1.06-.16c-.87,1-3,.42-3,2.44a16.28,16.28,0,0,1,0,2.21c-.1.84-.31,1.7-1.48.94l.11-.18-.09.2c-.48-.17-1.39.66-1.41-.24-.05-1.62-1.33-.68-2.09-1.21a81.64,81.64,0,0,0,5.64-11.11,64.25,64.25,0,0,1,4.88-9.15c1-1.53,2.05-4,.4-6.34-.59.66-1.14,1.23-1.64,1.84-.33.4-.53.92,0,1.27s1.7-.06.76,1c-.43.48-1.1,1.76-2.17.64s-2.08-.72-3,.08a3.82,3.82,0,0,1-2.39,1.07c-1.08.05-1.38,1.6-1.17,1.79,1.92,1.63.05,2.21-.65,3.24-.31.45-.83.68-1.06,1.18a2.49,2.49,0,0,0,3-1c.88-1.34,1.85-1.43,3.27-.37-1.14.48-.7,3-3,1.86-.41-.19-.73,1.12-1,1.78-1.16,0-2.06-3-3.34-.17a1.43,1.43,0,0,0,0,1.33c.17.37.31.76.49,1.13.45.9-1.51,1.67-.39,2.3s.72-1.76,2-1.54c.4,2.8-.1,4.82-3.45,5.53-1.12.24-1.9,2-2.91,2.93a19.6,19.6,0,0,1-2.14,1.61c-.68-1,.16-1.27.57-1.63a20.92,20.92,0,0,0,2-1.44c.58-.62.41-2.17,0-2-1.45.7-3.27.41-4.47,2-1.07,1.39.91,1,.69,1.8-.78.69-2.47.67-2,2.5.24.84-.46.48-.91.51-1,.07-2,.3-3.14.47.15,1,2,.47,1.39,1.48a2.75,2.75,0,0,1-2,1.32c-2,.2-2,1.89-2,3.47a.85.85,0,0,0-.17.06s0,.08,0,.12Zm-28.15-162,.12-.2a1.51,1.51,0,0,1-.11.22.51.51,0,0,0-.17.07s0,.08,0,.12ZM498.72,137c-.05-.32,0-.68-.44-.75-.08,0-.29.19-.28.27.06.42.42.41.74.46.21.81-.5,1.94,1.05,2.55C499.69,138.41,500.19,137.34,498.72,137Zm-9.91,167.37c-2.16,0-3.09,1.33-3.71,3,1.18-1.09,4.54.36,3.78-3,.68-.64.6-1.35.07-2.46Zm-1-74c.1.09.26.27.29.26.3-.22,0-.32-.11-.45,0-1.14-1.29-1.9-1.71-1.52-1.26,1.13-2.31,2.61-1.59,4.65.67-.68,1.81-.91,1.62-2C486,229.58,487.14,230.48,487.78,230.41Zm10.13,85.16c-2.07.21-4.37-.44-6.09,1.37-.42.44-.44.24-.48-.11-.2-1.6-1.08-.78-1.73-.46a9.6,9.6,0,0,0-2,1.28c-.26.22.12.78.35.77,1.81-.14,3.07,1.11,4.63,2.05-.63-2.88-.19-3.31,2.72-3.05-2.13,1.05-1.1,3.28-1.73,4.89-.27.7,1,.86,1.72.85.52,0,1.34.19,1.25-.69-.06-.54.5-1.6-.92-1.51-1.19.07-.91-.69-.34-1.17a8.23,8.23,0,0,1,1.75-.9C496.43,317.58,495.08,316,497.91,315.57Zm9-7.93c2.11-1.62,4.67-1.39,6.91-2.09,3.49-1.08-1.56-2.81.61-3.64.2-.08,0-.69-.31-.76a1.59,1.59,0,0,0-.92.22,5,5,0,0,1-2.09.56c-1,0-1.65.6-1.36,1.57.55,1.8-.47,2.2-1.84,2.32S506.5,306.57,506.88,307.64Zm-23.17,18.57a9.15,9.15,0,0,0,8.22-2.18c.89-.81-.08-1.41.15-2.08-1.2.32-1.15-1.93-2.53-1.22a2.49,2.49,0,0,0-.31.27c1.81,1.84-2.58,1.81-1.07,3.55-.17.1-.44.33-.51.28C485.78,323.48,485.13,326.08,483.71,326.21ZM492,167.14c2.85-.44,4.51-2.37,6-4.54.41-.61.68-1.3,1.56-1.42,1.58-.2,1.58-1.53,2.15-2.91C496.87,159.88,495.5,164.65,492,167.14Zm60.3,74.26c-2.09.66-2.21,3-4,3.91,1.17-1,1.88,2.31,3.16.15C552.25,244.21,552.87,243,552.32,241.4Zm-29.1,42c-.74,1.45-1.92,1.24-3,1.23s-1.08.66-.75,1.43c.21.48,0,1.76.9,1.16C521.59,286.44,523.75,286.2,523.22,283.45ZM491,168c-1.31.26-5.9,3.84-6.23,4.84C489.81,170,489.84,170,491,168Zm2.12,139c.67-.9,1.06-1.49,1.52-2s1-1,1.54-1.53c.35-.32.5-.65.19-1a1,1,0,0,0-1.07-.39C494,302.38,492.77,304.84,493.16,307Zm5.37-15.37c-5.1,1-5.1,1-5.49,2.46C494.58,292.28,497.07,293.81,498.53,291.63Zm1.7-139.54c-1.73.11-1.29-3-2.45-2.22s.78,1.94.8,3.22Zm54.92,103.7c1.11-1.15.55-2.09,0-3a.49.49,0,0,0-.82,0C553.7,253.94,554.4,254.76,555.15,255.79ZM495.57,141.38c.44-.06,1.06-.23,1-.93s-.74-.85-1.28-.82-1.21.12-1.08.92C494.29,141.18,494.78,141.45,495.57,141.38Zm-2.12-2.63a1.62,1.62,0,0,0,2.06-1,.43.43,0,0,0-.44-.65C494.19,137.22,493.81,137.87,493.45,138.75Zm-5.81,1.71a6,6,0,0,0-1.22,3A2.35,2.35,0,0,0,487.64,140.46Zm67.8,120.17c.67-.74.66-1.28-.19-1.9C555.05,259.46,554.87,260,555.44,260.63Zm-54,52.91c.12-.41-.07-.59-.33-.56a.82.82,0,0,0-.57.33c-.2.33.11.44.34.43A2,2,0,0,0,501.48,313.54ZM489.7,141.62a2.3,2.3,0,0,0-.36-2.1C489.45,140.47,489.15,141,489.7,141.62Zm-6.58,31.55.4.17c.06-.13.19-.29.16-.39s-.25-.13-.38-.19ZM500.05,316.3c-.06-.14-.1-.33-.19-.37s-.26.07-.39.12l.24.48Zm-12,5.05a4,4,0,0,0-.75-.14.89.89,0,0,0-.41.17c.13.41.48.28.76.26C487.72,321.63,487.83,321.49,488,321.35Zm13-6.5c-.06-.13-.09-.34-.19-.37a.37.37,0,0,0-.38.13.28.28,0,0,0,.23.46C500.79,315.08,500.91,314.93,501,314.85Zm54-14.64-.2-.4c-.08.13-.21.25-.22.38s.11.27.18.4ZM488.66,142.26c-.05,0-.13,0-.15,0a.53.53,0,0,0,0,.18l.25,0Z" transform="translate(-390.55 -84.18)"/><path class="cls-1" d="M543.68,336c1.58,1.26,3.13-.18,4.71-.07.41,0-.83-1.06.61-1,2.42.09,3.6,1.23,2.11,2.88s-.84,3.17-1.34,4.68c-.26.82.06,1.71-.56,2.52-.37.49-.18,1.32.79,1.38.31,1.06-.54,1.65-1,2.43-1.63.74-1.64,2.84-1.94,3.87-.81,2.78-2.36,5.12-3.3,7.73-1.11,0,.54-1.95-1.1-1.43-.83.26-2,.06-2,1.61a9,9,0,0,1-3.86,7.46c-1.47,1.14-1.62,3.45-2.69,5.12-1.47,2.29-3.87,3.86-4.56,6.85-.41,1.8-.51-.62-1.18-.46a5.2,5.2,0,0,1-1.63,4.71c-1,.93-2.26,1.77-1.41,3.49a.71.71,0,0,1-.17.67c-3.11,1.42-3.29,5.42-6.2,7-.59.33-.13.61.09.93.34.5-.05.94-.43.74-1.81-.93-2.95.85-4.49,1.07-1.06.16-1.9,1.32-2.32,2.54,1.1.28,1.55-1.71,2.78-.78-.78,2.06-1.8,4.13-.09,6.24.25.31.31.65,0,.83-1.64,1-.74,3.89-3.28,4.21-.32,0-.68.93-.74,1.46-.6,4.57-3.37,7.81-6.54,10.82-.78.74-1.76,1.42-1,2.75a.75.75,0,0,1-.08.7c-2.66,1.43-.94,4.64-2.87,6.67a11.11,11.11,0,0,0-2.82,7.67c0,.6-.64.67-.91,1-.77,1-1.85,1.91-1.37,3.43.26.83.87,1.75-.36,2.32a2.41,2.41,0,0,1-2.55.12c-1.27-.82.9-1.57,0-2.31.88-1,1.36-2,.09-3.2-.42-.39.84-1,.41-1.87l-2.11-.11,0,0c0-.83.76-1,1.16-1.45.77-.94,1.68-1.88.61-3.18-.84-1,.36-2.2-.11-3.24-.86-.3-.56.71-1,.77-.82.11-1.85,1-2.42.13s.43-1.29,1.14-1.7c.39-.23.59-.76.9-1.14.49-.59,1-1.25.58-2-.52-1-1.29-.09-1.94-.1a2.82,2.82,0,0,1-.68-.22c2.26-3.52,2.13-4.73-.62-5,1.24-2.76,4.26-3,6.27-4.57.42-.33,1.55-.16,1-1.17s-1-.05-1.51.17a1.4,1.4,0,0,1-.9.16,5.53,5.53,0,0,1-3.32-7.64c.22-.47.52-1,.18-1.35-.85-.87-.84.67-1.05.54a3.22,3.22,0,0,0-2.76-.09l0,0a1.4,1.4,0,0,1,1.06-1.49c2.14-.58,2.84-2,3.39-4.1.4-1.55-.32-2.35-.88-3.26s-1.78-.61-2.73-.42-1.69,1.09-2.78.72c1.49-1.78,1.49-1.83,5.24-1.79,1.67,0,3-.07,2.64-2.3-.2-1.27,1-1.54,1.91-2.08-.65-.73-2.14.17-2.18-1.37,0-.6-.67-.63-1.32-.16-1.24.92-2.61,1.64-3.46,3a4.41,4.41,0,0,1-2.3,1.9c.34-2.8,2.34-4.11,4-5.36a132.6,132.6,0,0,0,18-16.54c2.8-3.1,5-6.69,7.75-9.88a71.56,71.56,0,0,0,8.23-12.06c.15-.28.33-.69.58-.77,4.72-1.45,5.64-6.53,8.91-9.39.75-.65.94-2.06,1.29-3.11,1.91-5.7,6.88-9.38,9.46-14.62.07-.13.42-.13.78-.23.25,1.53-1,2.85-.21,4.46.34.69.31,1.42,1.2,1.26s2.28.87,2.36-1c0-.48,0-.82.58-.81.2,0,.53.18.57.35a3.05,3.05,0,0,1-.69,2.75c-.48.6-1.32,1.14-2.11.25-1.17-1.32-2.15,1-3.39.19-.19-.12-.82,1.51-.52,1.57.82.17,1.31,1.65,2.38.68Z" transform="translate(-390.55 -84.18)"/><path class="cls-1" d="M398.34,335c1.42.85,1.64,2.42,2.07,3.77.87,2.76,2.47,5.24,3.07,8.1.27,1.28,1.12,1.6,2.38,1.54s1.54-.42.89-1.61c-.29-.52.69-.86.95-.76,1.19.46,2.13-.06,3.42-.64-3.1,3-1.9,6.29-.76,9.58,1.2-1.28,2.68-2.21,4.83-1.42a2.33,2.33,0,0,1-2.1,1.25c-.51.06-1.25.45-1,.81,1.48,2.21-1.08.95-1.47,1.79a16,16,0,0,1,2.36,1.22c2.36,1.95,2.51,2,.55,4.16,1.08.57,2.23-1.16,3.07-.1.67.84-1,.77-1.08,1.54,2.29-.05,1.36,2.3,2.4,3.17-1.84,1.82.6,3.48.23,5.34-.24,1.2.14,2.57-.13,4-1.06-.17-1.82-1.16-3.09-.87.31,2.36,2.32,4.14,2.33,6.56a47.76,47.76,0,0,1-5.55-10.22c-1.76-4.82-4.25-9.39-5.18-14.51,0-.05.12-.13.11-.15a1.71,1.71,0,0,0-.22-.25q-4.08-10.78-8.16-21.58C398.19,335.49,398.31,335.22,398.34,335Zm14.31,36.76c-.4.73.12,1.17.33,1.65.29.69.71,1.31,1.56,1.33.17,0,.44-.27.5-.46.27-.88-.6-1-1-1.46S413.51,371.77,412.65,371.76Zm-7.5-22-.47.29c.12.17.23.44.38.48a.65.65,0,0,0,.52-.3C405.74,350,405.46,349.9,405.15,349.8Zm2.05,5.59c-.05-.14-.07-.32-.17-.39s-.25.05-.38.08l.2.5Z" transform="translate(-390.55 -84.18)"/><path class="cls-1" d="M399,230.31c-.47.31-2.14-.9-1.32,1.11.4,1-1.4,1.14-1.12,2.23-1.15.27-.84-1-1.45-1.35-.83-.47-.69-1.35-1-2.13-1.05,1.77,0,3.57.46,5.13.23.73,2,1,3-.39.32-.45.65.44.64.82,0,.67.76,3,1.26,3.25a4.13,4.13,0,0,0,.95.24l0,0c-1.32,1-2.55.4-3.81-.15-.94-.41-1-.36-1.62.75-.18.31-.36.25-2.08-.63-.84-3.25,0-6.48.28-9.69a30.31,30.31,0,0,1,2.39-9.5c.81.4-.53,1.39.67,1.83.1-1.05.94-2.07-.55-2.79-.46-2,.56-3.86,1-5.72,1.14-4.47,1.62-9.17,4.11-13.23a4.47,4.47,0,0,1-.08,1.43c-1.66,4-1.92,8.41-3.47,12.4a3,3,0,0,0,.85,3.45c.73.71,1,2.48,2.92,1.81-.06,1-2,1.89-.06,2.63a2.71,2.71,0,0,1-.39,1.29c-.49.58-1,0-1.55-.13s-1.37-.86-1.16.07c.37,1.7-3.57,2.17-1,4.27,1.22,1,1.7.47,2.08-.68.22-.65-.38-1.7.55-1.92s1.24.79,1.69,1.46c.26.37.79.54,1.32.88-1.76.57-2.61,2-3.57,3.3Zm-3.11-.46c-.12-.16-.19-.34-.29-.36s-.35.07-.38.17a.31.31,0,0,0,.35.44C395.65,230.09,395.76,229.94,395.86,229.85Zm.41-6.68c0-.06-.09-.17-.12-.17a2.35,2.35,0,0,0-.37.14c0,.06.09.17.12.17A2.35,2.35,0,0,0,396.27,223.17Z" transform="translate(-390.55 -84.18)"/><path class="cls-1" d="M390.94,280.12a67.89,67.89,0,0,1,9.93,10c1.46,1.74.35,5.29-1.81,7.55-1.6,1.68-3.17,3.4-4.8,5.06-.23.23-.76.16-1.14.23-.39-1.82-1.06-3.6-.86-5.51.6-.13,1.89.48,1.53-.78-.78-2.78,1.13-2,2.47-2.15.9-.09,2.1.56,2.59-.71a3,3,0,0,0-.87-3.15c-1.65-1.79-3.4-3.5-5-5.36A3.21,3.21,0,0,0,390.8,284,6.45,6.45,0,0,1,390.94,280.12Z" transform="translate(-390.55 -84.18)"/><path class="cls-1" d="M390.8,284a3.21,3.21,0,0,1,2.21,1.32c1.57,1.86,3.32,3.57,5,5.36a3,3,0,0,1,.87,3.15c-.49,1.27-1.69.62-2.59.71-1.34.14-3.25-.63-2.47,2.15.36,1.26-.93.65-1.53.78q-.74-5.88-1.46-11.75c.33-.06.62-.24.58-.59s-.37-.45-.7-.44Z" transform="translate(-390.55 -84.18)"/><path class="cls-1" d="M409.28,176.48c1.26.38,1.48,1.21.54,2.46-1.28,1.7-1.68,3.93-3.3,5.43-.19.18,0,.76,0,1.46,1.08-1.24,2.14-2.32,3.2-.47.67,1.17.56,2.37-1.07,2.43-3,.11-4.34,1.55-4.91,4.53-.45,2.39-1.83,4.6-2.81,6.89-.75-2,.51-3.74,1.24-5.31,1.56-3.35,2.12-7,3.52-10.37A39.05,39.05,0,0,1,409.28,176.48Z" transform="translate(-390.55 -84.18)"/><path class="cls-1" d="M434,138.38c.58,1.57-.72,2.72-1.46,3.38-1.6,1.43-2.6,3.34-4.27,4.71-1,.86-1,2.9-3,2.89C427.75,145.38,429.8,141,434,138.38Z" transform="translate(-390.55 -84.18)"/><path class="cls-1" d="M417.26,161.67a1.67,1.67,0,0,0,2.11,0,13.1,13.1,0,0,0-3.82,4.36c-1.09,1.7-1.65,4-3.59,5.12.91-2.9,1.73-5.83,3.59-8.33C416,162.15,416.41,161.6,417.26,161.67Z" transform="translate(-390.55 -84.18)"/><path class="cls-1" d="M418.84,385.83c1.54.68,1.72,2.31,2.37,3.56.84,1.64,2.06,3.11,2.37,5A28.27,28.27,0,0,1,418.84,385.83Z" transform="translate(-390.55 -84.18)"/><path class="cls-1" d="M392.53,240.7a4.38,4.38,0,0,1,1.43.24c.67.38,2.21.12,1.68,1.51-.4,1-1.16,2.33-2.71,1.12C392.8,242.61,392.66,241.65,392.53,240.7Z" transform="translate(-390.55 -84.18)"/><path class="cls-1" d="M392.85,244.63c1.44-.46,1.66,1.54,3,1.63l-3.35,1.31C392.39,246.56,392.15,245.54,392.85,244.63Z" transform="translate(-390.55 -84.18)"/><path class="cls-1" d="M431.21,407.57a8.32,8.32,0,0,1,3.08,5.26A16.3,16.3,0,0,1,431.21,407.57Z" transform="translate(-390.55 -84.18)"/><path class="cls-2" d="M427.43,363.36a2.23,2.23,0,0,1,1.62,1.43A4.38,4.38,0,0,1,427.43,363.36Z" transform="translate(-390.55 -84.18)"/><path class="cls-1" d="M440,420.42a6.1,6.1,0,0,1,3.32,4.1A10.21,10.21,0,0,1,440,420.42Z" transform="translate(-390.55 -84.18)"/><path class="cls-1" d="M397.08,330.54c2.35.63,1,2.43,1.19,3.76C397.2,333.26,397.25,331.87,397.08,330.54Z" transform="translate(-390.55 -84.18)"/><path class="cls-1" d="M411,172.45a2.32,2.32,0,0,1-1.37,2.93C409.92,174.31,409.68,173,411,172.45Z" transform="translate(-390.55 -84.18)"/><path class="cls-2" d="M447.76,388.68a.92.92,0,0,1,.85.94C448.05,389.55,447.93,389.1,447.76,388.68Z" transform="translate(-390.55 -84.18)"/><path class="cls-1" d="M395.72,219c1.49.72.65,1.74.55,2.79-1.2-.44.14-1.43-.67-1.83Z" transform="translate(-390.55 -84.18)"/><path class="cls-1" d="M435.21,414.47a2.24,2.24,0,0,1,1.75,2.09A2.57,2.57,0,0,1,435.21,414.47Z" transform="translate(-390.55 -84.18)"/><path class="cls-1" d="M391,275.73c.81.7.8,1.37-.06,2A1.65,1.65,0,0,1,391,275.73Z" transform="translate(-390.55 -84.18)"/><path class="cls-1" d="M449,431.27c1.07.05,1.81.44,1.73,1.67A3.47,3.47,0,0,1,449,431.27Z" transform="translate(-390.55 -84.18)"/><path class="cls-2" d="M429.07,364.8c.37.09.75.17.76.68C429.52,365.31,429.2,365.17,429.07,364.8Z" transform="translate(-390.55 -84.18)"/><path class="cls-1" d="M447,428.81a1.39,1.39,0,0,1,1.3,1.58C447.64,430,447.06,429.65,447,428.81Z" transform="translate(-390.55 -84.18)"/><path class="cls-1" d="M437.15,417a1.33,1.33,0,0,1,1.26,1.63C437.78,418.2,437.14,417.82,437.15,417Z" transform="translate(-390.55 -84.18)"/><path class="cls-1" d="M444,425.35a1.45,1.45,0,0,1,1.32,1.59A1.88,1.88,0,0,1,444,425.35Z" transform="translate(-390.55 -84.18)"/><path class="cls-1" d="M393,304.38c.73.35.69.69,0,1C392.55,305.06,392.5,304.72,393,304.38Z" transform="translate(-390.55 -84.18)"/><path class="cls-2" d="M426.63,362.52a.39.39,0,0,1,.37.4A.38.38,0,0,1,426.63,362.52Z" transform="translate(-390.55 -84.18)"/><path class="cls-1" d="M424.42,396.19c.63.11.8.52.7,1.09C424.62,397.09,424.21,396.84,424.42,396.19Z" transform="translate(-390.55 -84.18)"/><path class="cls-1" d="M417.6,383.35a.84.84,0,0,1,.56,1.15C417.66,384.27,417.31,384,417.6,383.35Z" transform="translate(-390.55 -84.18)"/><path class="cls-1" d="M452.74,434.8c.69,0,1.07.33,1,1.06A1.21,1.21,0,0,1,452.74,434.8Z" transform="translate(-390.55 -84.18)"/><path class="cls-1" d="M396.52,328.59c.59.15,1.29.27.4,1A.86.86,0,0,1,396.52,328.59Z" transform="translate(-390.55 -84.18)"/><path class="cls-1" d="M390.68,284.65c.33,0,.66.09.7.44s-.25.53-.58.59Z" transform="translate(-390.55 -84.18)"/><path class="cls-2" d="M430.64,366.28c.29,0,.44.11.43.41A.5.5,0,0,1,430.64,366.28Z" transform="translate(-390.55 -84.18)"/><path class="cls-2" d="M431.07,366.69c.31,0,.43.16.39.45A.56.56,0,0,1,431.07,366.69Z" transform="translate(-390.55 -84.18)"/><path class="cls-2" d="M431.56,367.26c.27,0,.37.19.34.45A.44.44,0,0,1,431.56,367.26Z" transform="translate(-390.55 -84.18)"/><path class="cls-1" d="M392.51,247.57a.81.81,0,0,1-.45,1C391.9,248.11,391.91,247.71,392.51,247.57Z" transform="translate(-390.55 -84.18)"/><path class="cls-1" d="M406.42,357.26a1.71,1.71,0,0,1,.22.25s-.07.1-.11.15A.33.33,0,0,1,406.42,357.26Z" transform="translate(-390.55 -84.18)"/><path class="cls-1" d="M423.65,394.78a.57.57,0,0,1,.38.67A.52.52,0,0,1,423.65,394.78Z" transform="translate(-390.55 -84.18)"/><path class="cls-1" d="M446.16,427.84l.25.37C446.15,428.21,446,428.12,446.16,427.84Z" transform="translate(-390.55 -84.18)"/><path class="cls-1" d="M448.29,430.38l.49.56Z" transform="translate(-390.55 -84.18)"/><path class="cls-2" d="M425.09,360.93a.21.21,0,0,1,.22.22Z" transform="translate(-390.55 -84.18)"/><path class="cls-2" d="M425.91,361.76c.14,0,.21.08.22.22Z" transform="translate(-390.55 -84.18)"/><path class="cls-2" d="M430.38,366a.13.13,0,0,1,.12.12C430.39,366.17,430.35,366.14,430.38,366Z" transform="translate(-390.55 -84.18)"/><path class="cls-1" d="M421.2,372.56c-.28-.75.57-2.44-1.48-1.7-.34.12-.48-.39-.42-.72a1,1,0,0,1,1.2-1c2.72.55,5.27-.45,7.84-.63,2.21-.15,2.06-2.19,3.67-2.24-1.11-.67-1.9-.15-2.67.35s-1.21,1.41-2,.53c-.35-.38-.86-1.29-.33-1.77.69-.61,1.59-1.58,2.64-.49.74.77,1.41.17,1.91-.14.87-.52,1.52-1.71,2.49-.08.22.38.78,0,1-.35,1.09-1.52,2.73-1.91,4.42-2.21l.05.05c-.86,1.86-2.77,2.46-4.36,3.24-2.41,1.2-3.07,2.4-2.11,5.53.69-2.47,2.71-3.32,4.65-4.21a1.28,1.28,0,0,0,.73-1.13c.18-1.38,1.41-1.11,2.11-1.13.46,0,1.23.9,1.39,1.52.78,3.2,1.29,3.6,4.33,3,.63-.13,1.57-.92,1.81.24.17.84-.88.74-1.47.86s-1,.84-1.46,1.24c-1.41,1.17-2.25.9-3.15-1.43.25,2.49-1.23,2.85-2.59,3-2.35.29-4.13,2.2-6.55,2.18-1,3.05-4.61,2.41-6.4,4.36-1.48-2.54-1-4.4,1.53-5.29a3,3,0,0,0,1.76-1.21c.4-.65,2.08-.49,1.56-1.46-.6-1.13-1.77,0-2.56.28-1.35.5-2.5,1.53-4.24,1.18,1.07,1.59-.2,3.12.41,4.6.16.39-.76.74-1.34.8a1,1,0,0,1-1.26-.89c-.06-.88-.28-2,.15-2.64,1.25-1.82.06-2-1.25-2.32Zm4.22-1.65a2.72,2.72,0,0,0-.46.53c-.21.43-.43,1.07.41.79C425.81,372.09,425.73,371.42,425.42,370.91Zm9.94-.27c-.06-.14-.1-.34-.2-.38a.39.39,0,0,0-.39.13.3.3,0,0,0,.25.48C435.12,370.88,435.25,370.72,435.36,370.64Z" transform="translate(-390.55 -84.18)"/><path class="cls-1" d="M450.31,369.07c-2.85-1.5-1.25-3.76-.71-5.57.48-1.6,2.14-1.76,3.67-1.28.3.1.61.41.8,0s-.72-2.12,1-1.17a1.58,1.58,0,0,1,.39,2.8c-.14.14-.12.45-.19.8.81.47,1.74-2,2.35,0,.43,1.41-.82,1.85-1.73,2.28-.71.35-1.61.3-2.17,1s-1.63,1.53.17,2.36c1.13.53,1.91,1.74.79,3-.62.69.3,1.44-.51,2.24-1.89-1.81-4.43-3.11-3.82-6.44l.47-.51c.77,0,1.51-.06,1.59-1.05,0-.11-.29-.34-.47-.36-1.1-.13-1.12.64-1.12,1.41Z" transform="translate(-390.55 -84.18)"/><path class="cls-1" d="M441,380c-.24-.56,1.27-1.6-.65-1.84-.69-.08.92-1,.31-2-.7.48-2.31-.41-1.92,1.71.09.47-.85.58-1.43.69-1.76.31-3.05,1.57-4.55,2.39s0,2.66-1.1,3.75c-.94-2.63-.12-3.1.8-5.31,1-2.46,3.84-2.06,4.82-4.22a2.57,2.57,0,0,1,2.88-.46,7.74,7.74,0,0,0,4.34.56c.57-.09,1-.08,1.16.51,0,.13-.24.38-.4.55-1.31,1.35-1.3,4.24-4.27,3.67Z" transform="translate(-390.55 -84.18)"/><path class="cls-1" d="M460.2,425.9c2-.3,3.65.88,5.43,1.47h0l-.51.51h0c-1.3,1.5-1.08,2.6,1,2.88s-.4,1,.76,1.46c.41.13,1.35-.87,2.44-.06-.43.81-1.85,1.35-1.13,2.64.36.65,1,.51,1.52.47,1.3-.09.2-1.23.77-1.78.67.55,1.49.88,1.85,1.73a1.89,1.89,0,0,1-.33.43c-2.63,1.76-3.93.24-5.89-1.62a22.79,22.79,0,0,1-5.92-8.13Z" transform="translate(-390.55 -84.18)"/><path class="cls-1" d="M418.73,171.06c0-.56-.27-1.43.24-1.6,3-1.07,1.92-3.7,1.55-5.34-.62-2.78,1-4.51,1.92-6.62,0-.06.29,0,.68-.05a20.13,20.13,0,0,0-.85,2.76c-.38,2.17-.07,4.16,2,5.52.47.31.45.83.49,1.31l-.13.13c-2.62-1-2.88.73-2.71,2.55.1,1.11.19,1.88-1,.89-1.07-.86-1.35.69-2.11.44Z" transform="translate(-390.55 -84.18)"/><path class="cls-1" d="M449.34,148.34c1.67,1.28,1.61,3.46,2.83,5.09-1.18-.35-2.5-2.41-2.88.51-.08.57-.35.14-.62.1-1.89-.28-3.76-.51-4.6,1.91a1.84,1.84,0,0,1-1.81,1.11c-.53-.71.88-1.94-.7-2.46-.37-.13.33-.19.5-.35a7.7,7.7,0,0,0,2.35-2.47l0,0c1.23.58,2.46,1.74,3.61-.19.16-.27.87-.21,1.33-.3l.24.21-.21-.23a4.75,4.75,0,0,1,0-3Z" transform="translate(-390.55 -84.18)"/><path class="cls-1" d="M460.22,425.88c-1,0-1.52-.87-2.16-1.47-.84-.78-.65-1,.33-1.7,1.41-.95,3.24-1.64,3.66-3.69.11-.48,1-.76,1.16-.34.49,1.33,2.08.72,2.71,1.75-1.94,1.79-5,2.45-5.72,5.47Z" transform="translate(-390.55 -84.18)"/><path class="cls-1" d="M475.59,271.82c1.92-2.16.46-4.65.69-7a.86.86,0,0,1,.26-.64,147.56,147.56,0,0,1,1.2,24.69c-.27-1.9-.4-3.82-.63-5.72s0-3.94-.11-5.91c-.12-1.58.4-3.42-1.39-4.51C475.6,272.44,475.6,272.13,475.59,271.82Z" transform="translate(-390.55 -84.18)"/><path class="cls-1" d="M443.9,366.14c.4-.14,1.36.39,1-.69-.54-1.49-.16-2.93.05-4.39.11-.74.29-1.65,1.08-1.73,1-.1.75.46.24,1a2.6,2.6,0,0,0-.35.87.68.68,0,0,0-.17.09s0,.08,0,.13l.2-.23c1.18-.14,2.31-.88,3.73-.28-.92,1.11-1.4,2.39-2.65,3.29s-1.14,1.57.43,1.9c.54.11.46.36.37.57-.19.5-.39,1.45-.93,1.21-1-.46-2.56-.18-2.91-1.75Z" transform="translate(-390.55 -84.18)"/><path class="cls-1" d="M461.7,337a2.43,2.43,0,0,0-3.3,1,29.32,29.32,0,0,1-3.47,3.49,2,2,0,0,1-2.09.36c-.66-.26-.19-.81-.11-1.26.18-1,.75-.94,1.62-.83,1.26.15,3.82-3.92,3.4-5.19l0,0c1.8-.63,2.74,2,4.57,1.22l-.62,1.25Z" transform="translate(-390.55 -84.18)"/><path class="cls-1" d="M438.47,393.79a2.56,2.56,0,0,1,3.34-2c.21-.88-2-.3-.82-1.49.5-.51.76-1.8,1.8-1.2a2.15,2.15,0,0,1,.63,2.53,4.14,4.14,0,0,1-1.78,1.93,3,3,0,0,0-1.59,3.63,26.92,26.92,0,0,1-2.42-2.46c-.95-1.28.36-.84.85-1l.2.12Z" transform="translate(-390.55 -84.18)"/><path class="cls-1" d="M443.68,401.89c.28-2.37,4.13-2.85,3-6,1.27,1.21,1.15,3.09,2.47,4,.87-.26,0-1.13.71-1.46.15.14.41.26.44.43.23,1.36-1.14,2.84.3,4.15a2.56,2.56,0,0,1-.72.83c-.41.22-.49-.18-.52-.52-.23-3.2-1.89-2.74-3.86-1.5A1.44,1.44,0,0,1,443.68,401.89Z" transform="translate(-390.55 -84.18)"/><path class="cls-1" d="M443.11,349.78c0,.1-.62-.48.15-.66,2.24-.52,2.81-3.82,5.69-3.32.94.17.85-.76.93-1.39s.23-1,.89-.83.5.57.5,1c0,.9.07,1.79-1,2.24-2.32,1-5.06,1.36-6.13,4.21-.08.2-.8.35-1.1.22C442.35,351,443.05,350.61,443.11,349.78Z" transform="translate(-390.55 -84.18)"/><path class="cls-1" d="M462.66,417.77c-1.79,1.54-3.17,2.81-4.64,4-.51.4-1.24,1-1.93.13-.52-.63-.17-1.23.17-1.79C458.29,416.61,458.77,416.39,462.66,417.77Z" transform="translate(-390.55 -84.18)"/><path class="cls-1" d="M427.91,331a76.56,76.56,0,0,0-6.38,7.15.66.66,0,0,1-.85.27.52.52,0,0,1-.23-.81,55.13,55.13,0,0,0,4-5.48C425,331.08,426.54,331,427.91,331Z" transform="translate(-390.55 -84.18)"/><path class="cls-1" d="M464.64,412.54c0,1.09.25,2.29-1.6,1.57a3.51,3.51,0,0,0-1.92.07c-.71.16-1.52.63-2-.16-.64-1.06.52-.79,1-1.07s0-.34-.13-.51c-.33-.38-1.57-.36-.71-1.3.69-.74,1.33.16,1.62.47,1.1,1.18,2.7,0,3.79.95Z" transform="translate(-390.55 -84.18)"/><path class="cls-1" d="M457.71,378c-2.78-.61-.77-2.18-.42-3.08.44-1.19,1.46-2.15-1.13-3.12,1.75-.15,3,.88,3.6-.63,0,0,.51.06.61.21.2.32-.18.54-.28.81-.72,1.95-2.4,3.51-2.33,5.77Z" transform="translate(-390.55 -84.18)"/><path class="cls-1" d="M440.94,380c0,.7-.31,1.69-.78,1.65-1.71-.15-3,1.16-4.6,1.13-.44,0-.49-.39-.5-.71a1.34,1.34,0,0,1,.57-1.28c.83-.52,2.27.09,2.6-1.38,0,0,.56.05.57.11.25,2.27,1.42.41,2.15.49Z" transform="translate(-390.55 -84.18)"/><path class="cls-1" d="M400.46,239.22c.07-.15.1-.39.22-.44,1.15-.48-1.5-1.92.35-1.9a3.71,3.71,0,0,1,3.2,2.67,1.33,1.33,0,0,1-1,1.52c-.6.17-1.09.12-1.17-.76s-.91-1-1.63-1.11Z" transform="translate(-390.55 -84.18)"/><path class="cls-1" d="M423.13,367.19c-1.63,1.58-2.71,1.73-3.49.49s-.18-2.42.05-3.63c0-.09.45-.21.63-.14.48.18.38.65.4,1C420.77,366.2,420.26,367.85,423.13,367.19Z" transform="translate(-390.55 -84.18)"/><path class="cls-1" d="M423.92,363.74c.46.95,1.86,1.06,2,2.18a1.46,1.46,0,0,1-1.41,1.48c-1.18,0-1.3-1.24-1.57-2A1.48,1.48,0,0,1,423.92,363.74Z" transform="translate(-390.55 -84.18)"/><path class="cls-1" d="M448.87,375c.67-.23,1-1.1,2.16-.83a3,3,0,0,0-.18,2.81l-.05,0c-.58,0-.83.35-1,.86a.93.93,0,0,1-1.41.51c-.81-.48-.2-1,.2-1.34.82-.63.22-1.33.24-2Z" transform="translate(-390.55 -84.18)"/><path class="cls-1" d="M447.25,329.42c-.09.35-.08.55-.18.63-.92.82-1.47,2.25-3.09,1.89-.13,0-.2-.36-.3-.55C444.93,330.92,445.3,328.93,447.25,329.42Z" transform="translate(-390.55 -84.18)"/><path class="cls-1" d="M420.78,357.83a2.88,2.88,0,0,1-1.54,2.85l0,0-1.87.13c1.41-.8,1.4-3,3.29-3.19Z" transform="translate(-390.55 -84.18)"/><path class="cls-1" d="M412.43,190.75c.81.74.81.74,0,5.36Z" transform="translate(-390.55 -84.18)"/><path class="cls-1" d="M415.72,357.2c.07-.79,0-1.5-1.12-1.67,1,0,2.13-1.39,2.8-.15s-.94,1.34-1.6,1.89Z" transform="translate(-390.55 -84.18)"/><path class="cls-1" d="M468.65,340.89c.78.12,1.42-.14,2.1-1.43.07,1.42.31,2.73.12,2.8-1.09.38-1.75-.45-2.32-1.27Z" transform="translate(-390.55 -84.18)"/><path class="cls-1" d="M452.93,333.06c-.69,1.2-.92,2.09-1.89,2.33-.13,0-.49-.29-.47-.37C450.84,334.06,451.47,333.46,452.93,333.06Z" transform="translate(-390.55 -84.18)"/><path class="cls-1" d="M423.37,229.68c-.46.72-.81,1.56-1.73,2C421.85,230.22,421.85,230.22,423.37,229.68Z" transform="translate(-390.55 -84.18)"/><path class="cls-1" d="M430.91,167.19c-1.56.51-2.54-.09-3.5.28C428.56,166.51,428.56,166.51,430.91,167.19Z" transform="translate(-390.55 -84.18)"/><path class="cls-1" d="M425.85,361.15c1.34.16,1.61.32,1.44.57-.6.91,1.38,1.38.35,2.3a.48.48,0,0,1-.45,0C426,363.33,427.09,362.19,425.85,361.15Z" transform="translate(-390.55 -84.18)"/><path class="cls-1" d="M453.25,331.32a2.29,2.29,0,0,1,2.2,1.34A2,2,0,0,1,453.25,331.32Z" transform="translate(-390.55 -84.18)"/><path class="cls-1" d="M415.8,357.27c0,.74,0,1.54-.91,1.74-.37.09-.54-.27-.57-.62-.1-1.05.62-1.16,1.4-1.19Z" transform="translate(-390.55 -84.18)"/><path class="cls-1" d="M416.69,169.65c.1,1.17.13,2.36-1.73,1.91Z" transform="translate(-390.55 -84.18)"/><path class="cls-1" d="M457.27,410.52c-.1.18.1.91-.7.68-.39-.12-.8-.37-.61-.82a1.45,1.45,0,0,1,.86-.69C457.28,409.56,457.58,409.8,457.27,410.52Z" transform="translate(-390.55 -84.18)"/><path class="cls-1" d="M465.63,427.37c1,.08,1.4.61,1.4,1.75-1-.05-1.33-.82-1.88-1.26h0l.51-.51Z" transform="translate(-390.55 -84.18)"/><path class="cls-1" d="M474.25,143.69a2.63,2.63,0,0,1,.22.78c0,.3-.07.74-.51.58-.19-.06-.34-.48-.37-.76S473.64,143.63,474.25,143.69Z" transform="translate(-390.55 -84.18)"/><path class="cls-1" d="M425.16,167.58c.67.4,1.48.7,1.32,1.85-1.32,0-1.37-.89-1.36-1.82Z" transform="translate(-390.55 -84.18)"/><path class="cls-1" d="M418.22,171.54a2.88,2.88,0,0,1-1,2.42c.15-1.23-.41-2.14,1-2.4Z" transform="translate(-390.55 -84.18)"/><path class="cls-1" d="M475,147.34c0,.32,0,.7-.46.7s-.45-.39-.45-.71,0-.71.45-.7S475,147,475,147.34Z" transform="translate(-390.55 -84.18)"/><path class="cls-1" d="M457.24,359.71l-.12,1.86c-1-.93-1.23-1.5.12-1.86Z" transform="translate(-390.55 -84.18)"/><path class="cls-1" d="M438.55,180.85c.55.15,1.12.3,1.28,1a.32.32,0,0,1-.41.42c-.66-.12-.88-.65-1-1.22Z" transform="translate(-390.55 -84.18)"/><path class="cls-1" d="M459.19,333.11l-.23.55c-.2-.21-.48-.38-.59-.62s-.05-.68.35-.7S459.14,332.71,459.19,333.11Z" transform="translate(-390.55 -84.18)"/><path class="cls-1" d="M468.55,341c-.67-.41-1.16-.89-.59-1.85,1,.31.44,1.21.69,1.75Z" transform="translate(-390.55 -84.18)"/><path class="cls-1" d="M457.75,334.51c-.58-.07-1.14-.19-1.31-.85a.33.33,0,0,1,.42-.42c.68.15.79.72.87,1.29Z" transform="translate(-390.55 -84.18)"/><path class="cls-1" d="M432.44,146.1c-.33-.29-.75-.49-.88-.81-.23-.52.31-.39.55-.4.42,0,.82.09.74.63C432.83,145.72,432.6,145.89,432.44,146.1Z" transform="translate(-390.55 -84.18)"/><path class="cls-1" d="M456.74,210.06a1.57,1.57,0,0,1-1.43,1.54l-.1-.1a1.59,1.59,0,0,1,1.55-1.42Z" transform="translate(-390.55 -84.18)"/><path class="cls-1" d="M420.62,357.66c.13-.49.31-1,.95-.84.16,0,.42.33.4.45-.16.63-.75.45-1.19.56Z" transform="translate(-390.55 -84.18)"/><path class="cls-1" d="M416.78,360.75c-.09.27,0,.73-.5.56a.82.82,0,0,1-.4-.53.56.56,0,0,1,.47-.7C416.84,360,416.71,360.47,416.78,360.75Z" transform="translate(-390.55 -84.18)"/><path class="cls-1" d="M449.44,392.12l.65.69c-.16.13-.33.38-.5.38a.62.62,0,0,1-.47-.39C449.09,392.62,449.29,392.4,449.44,392.12Z" transform="translate(-390.55 -84.18)"/><path class="cls-1" d="M425.86,164c-.05-.36-.17-.61-.09-.78s.34-.18.52-.26c0,.15.18.33.13.42A3.51,3.51,0,0,1,425.86,164Z" transform="translate(-390.55 -84.18)"/><path class="cls-1" d="M423.1,172.15c0,.35-.07.62-.39.48a.91.91,0,0,1-.4-.53.3.3,0,0,1,.4-.39C422.89,171.78,423,172,423.1,172.15Z" transform="translate(-390.55 -84.18)"/><path class="cls-1" d="M464,337.91c-.1.38-.33.47-.54.34s-.26-.34-.39-.53c.14-.05.31-.18.43-.14A2.17,2.17,0,0,1,464,337.91Z" transform="translate(-390.55 -84.18)"/><path class="cls-1" d="M447.36,358.73c.36.06.8,0,.76.6a.22.22,0,0,1-.16.15c-.56,0-.53-.4-.59-.76Z" transform="translate(-390.55 -84.18)"/><path class="cls-1" d="M413.7,177.41c.1-.39.2-.81.74-.72.08,0,.21.34.18.36a6.09,6.09,0,0,1-.74.51Z" transform="translate(-390.55 -84.18)"/><path class="cls-1" d="M425.15,159.7c.45-.58,1-.68,1.85,0h-1.85Z" transform="translate(-390.55 -84.18)"/><path class="cls-1" d="M433.54,384.89c0-.38,0-.76.58-.75a.21.21,0,0,1,.15.15c.05.54-.38.54-.73.61Z" transform="translate(-390.55 -84.18)"/><path class="cls-1" d="M424.68,380.89c-.08-.24-.2-.4-.16-.49a3,3,0,0,1,.42-.54c.05.14.17.31.14.43A2.83,2.83,0,0,1,424.68,380.89Z" transform="translate(-390.55 -84.18)"/><path class="cls-1" d="M443.92,366.12c-.38-.05-.82,0-.79-.6,0-.06.1-.15.16-.16.58,0,.55.4.61.78Z" transform="translate(-390.55 -84.18)"/><path class="cls-1" d="M419.57,171.74l.41.18c-.06.14-.09.35-.18.39s-.27-.1-.41-.16Z" transform="translate(-390.55 -84.18)"/><path class="cls-1" d="M406,238.46c-.14.07-.27.19-.4.19s-.25-.12-.38-.19c.13-.07.25-.19.38-.2S405.88,238.38,406,238.46Z" transform="translate(-390.55 -84.18)"/><path class="cls-1" d="M451.3,400l-.24.39c-.07-.14-.2-.27-.19-.41s.14-.25.22-.37Z" transform="translate(-390.55 -84.18)"/><path class="cls-1" d="M409.29,188.46c.12.06.31.1.36.2s-.07.24-.11.37c-.12-.07-.29-.11-.35-.21S409.25,188.59,409.29,188.46Z" transform="translate(-390.55 -84.18)"/><path class="cls-1" d="M413.88,177.56l-.34,1c-.07,0-.17-.09-.18-.15a.91.91,0,0,1,.35-1Z" transform="translate(-390.55 -84.18)"/><path class="cls-1" d="M433.54,384.9l-.55.38-.13-.21.68-.18Z" transform="translate(-390.55 -84.18)"/><path class="cls-1" d="M447.71,355.46l.18-.07.05.26a.53.53,0,0,1-.19,0S447.72,355.51,447.71,355.46Z" transform="translate(-390.55 -84.18)"/><path class="cls-1" d="M428.82,148l-.11-.17.25-.14c0,.07.05.15,0,.21S428.88,148,428.82,148Z" transform="translate(-390.55 -84.18)"/><path class="cls-1" d="M458.72,145.37l.38.53-.19.13-.18-.66Z" transform="translate(-390.55 -84.18)"/><path class="cls-1" d="M425.78,166.28c0,.06,0,.14,0,.17a.25.25,0,0,1-.2.05c-.22-.11-.21-.22,0-.29C425.63,166.19,425.71,166.25,425.78,166.28Z" transform="translate(-390.55 -84.18)"/><path class="cls-1" d="M399,230.32l.19.11-.18-.12Z" transform="translate(-390.55 -84.18)"/><path class="cls-1" d="M447.37,358.72l-.22-.22c.05,0,.11,0,.13.05a.58.58,0,0,1,.08.18Z" transform="translate(-390.55 -84.18)"/><path class="cls-1" d="M435.51,140.93l-.2-.2s.1,0,.12,0a1.29,1.29,0,0,1,.09.16Z" transform="translate(-390.55 -84.18)"/><path class="cls-1" d="M419.24,360.68l.2.24-.24-.2Z" transform="translate(-390.55 -84.18)"/><path class="cls-1" d="M439.93,361.66l.26-.21-.21.26Z" transform="translate(-390.55 -84.18)"/><path class="cls-1" d="M440,361.71l-.49.49-.05-.05.49-.49Z" transform="translate(-390.55 -84.18)"/><path class="cls-1" d="M473.55,226.86l-.19-.1.18.11Z" transform="translate(-390.55 -84.18)"/><path class="cls-1" d="M421.18,372.54l-.09.22.11-.2Z" transform="translate(-390.55 -84.18)"/><path class="cls-1" d="M448.33,374.55l-.32-.23c.3-.3.31,0,.37.18Z" transform="translate(-390.55 -84.18)"/><path class="cls-1" d="M448.38,374.5l.49.5-.05,0c-.16-.16-.32-.33-.49-.49Z" transform="translate(-390.55 -84.18)"/><path class="cls-1" d="M455.31,211.6l-.25.29c-.29-.26,0-.3.15-.39Z" transform="translate(-390.55 -84.18)"/><path class="cls-1" d="M457.32,209.64l-.58.42,0,0,.43-.57Z" transform="translate(-390.55 -84.18)"/><path class="cls-1" d="M457.19,209.51l.32-.19-.19.32Z" transform="translate(-390.55 -84.18)"/><polygon class="cls-1" points="66.35 298.98 66.49 298.93 66.47 299.07 66.35 298.98"/><path class="cls-1" d="M461.68,337l.22.21s-.11,0-.14,0a1,1,0,0,1-.06-.18Z" transform="translate(-390.55 -84.18)"/><path class="cls-1" d="M476,193.76l-.1.19.12-.17Z" transform="translate(-390.55 -84.18)"/><path class="cls-1" d="M438.4,181l-.19-.34.34.19Z" transform="translate(-390.55 -84.18)"/><path class="cls-1" d="M418.24,171.56c.16-.17.32-.34.49-.5h0l-.5.49Z" transform="translate(-390.55 -84.18)"/><path class="cls-1" d="M425.12,167.61l-.54-.44.13-.13.45.54Z" transform="translate(-390.55 -84.18)"/><path class="cls-1" d="M425.14,159.69a1,1,0,0,1-.09.18s-.08,0-.13,0l.23-.2Z" transform="translate(-390.55 -84.18)"/><polygon class="cls-1" points="34.25 271.3 34.38 271.26 34.37 271.38 34.25 271.3"/><path class="cls-1" d="M504.24,430.26c-.06-3,1.75-5.24,3.09-7.62,2-3.57,4-7.23,6.16-10.67,3.1-4.83,4.85-10.31,7.9-15.12,1.42-2.24,3.35-4.19,4.61-6.51a8,8,0,0,0,1.38-4.46h0l.5,0,.2.12-.21-.1c1-2.46,2.82-4.46,3.68-7.18.63,1.1,2,.78,2.64,1.76s2.08,1.52.17,2.53c-.35.18-.36.42-.13.78,1.45,2.26.18,4.4-.85,6.16-.52.89-1.19,1.64-1.1,2.68.3,3.48-2.85,5.56-3.42,8.59-.36,1.89-1.76,3.34-1.73,5.46a3.28,3.28,0,0,1-2.85,3c-.95.07-1.56.42-.73,1.6.71,1,0,2-.7,2.79s-1.26.19-1.85-.62c1.84,2.94-.5,4.16-1.86,6-1.08,1.5-1.07,3.76-2.17,5.44-.9-.18-.11-1.14-.69-1.46-1.33,1.44-.41,3.39-1.23,5.05-1.14,2.28-3.83,3.51-4.11,6.32,0,.31-.43.45-.79.4-1.59-.22-1.93-.21-1.93,1.3,0,2.76-2.58,4.36-2.8,7.05-.06.74-2.23.94-1.75,2.6h0c-1.89-.06-3.51-.49-4.6-2.29-.7-1.17-1.09-2.37-.28-3.43,2-2.64,2.36-6,3.76-8.85.36-.76.6-1.31,1.53-1.15l.33.18Zm-1.77,9.55c-2.41,2.18-2.39,2.68.22,4C501.9,442.55,502.6,441.23,502.47,439.81Z" transform="translate(-390.55 -84.18)"/><path class="cls-1" d="M497.75,334a6.06,6.06,0,0,0,0,.74c.43,3.37-.18,4.13-3.44,3.41-1.31-.29-1.37.75-2.08,1.15-.17-2.24.31-3.55,2.84-2.5.53.22,1.17.32,1.51-.34a2,2,0,0,0-.44-2.29c-1.93-1.73-.41-2.51.78-3.35a262.64,262.64,0,0,0,21.78-17.75c1.48-1.31,3.07-3,5.82-2.51,2.07.4,3.07.93,2.74,3.09-2.09,1.12-3.92,2.46-4.16,5.06,1.24-1.81,3.54-2.69,4.37-4.85a2.49,2.49,0,0,0,.89-.39c1.64-1.65,3.36-2.38,5.33-.42-.44,1.78-1.75,2.75-3.63,3.29-1.09.32-2.34,1.22-2.15,2.4a2.88,2.88,0,0,1-2.71,3.59c-2.85.16-2.33,2.4-2.93,3.86-.37.93-.22,1.87-1.69,1.76-1-.08-1,1.14-.91,1.62.18.86,1,1,1.76.48,1-.63,1.87-1.31,2.8-2a1.84,1.84,0,0,1,2.28-.2,1.71,1.71,0,0,1,.52,2.37c-1,0-.25-1.05-1-1.26-.31,2.3-3.73,1-4.14,3.42-1.24-1.46-2.81-.62-4.27-.67a2.21,2.21,0,0,0-1.77.39c-.73.58-1.53.8-1.37-.75.13-1.27-.36-1.44-1.4-.62-1.28,1-3.33,1.14-3.53,3.61-.85-4.32-3.62-.24-5.1-1.61-.15-1.1,1.79-.55,1.44-1.86-2.39.23-3.62,1.24-3.79,4-.12,2,.78,4-.22,6-.15.31-.08,1.63,1,.79s2.47-.69,3.77-.71h0c-1.78,1.26-3.88,2.09-5.25,3.92-.21.29-.58.46-.83.26a1,1,0,0,1-.21-.86,5.41,5.41,0,0,0,.32-2.66c0-.45.47-1.27-.57-1.27-.8,0-1.24.22-.36.92a2.82,2.82,0,0,1-.61.18.73.73,0,0,1-.83-.71c0-.38-.19-.89.39-1a5.47,5.47,0,0,0,2.36-1.07c-.56-1.35-2.06,1-2-.5a4.61,4.61,0,0,1,1.27-3.2,10.65,10.65,0,0,1,1.2-.77l-.18-.78-3.63.61c0-.39,0-.82-.59-.8a.22.22,0,0,0-.16.16C496.94,334,497.36,334,497.75,334Zm25.65-14c.08.55-.24,1,.5,1.45C523.88,320.88,524.14,320.46,523.4,320Zm-5.07,10.68c-.07-.14-.1-.34-.2-.39a.41.41,0,0,0-.39.14.3.3,0,0,0,.24.48C518.08,330.89,518.21,330.73,518.33,330.65Z" transform="translate(-390.55 -84.18)"/><path class="cls-1" d="M473.55,377c-.09-.9.78-.92,1.24-1.33-1.74-1.24-2.13-5.26-.83-8.2.35-.77-.33-3.62-.55-4.53-.37-1.56.14-3.17.42-4.74.1-.57.41-1.21-.09-1.61-.71-.57-.89.7-1.71.62.67-1.95,1.26-3.81-.77-5.42a1.32,1.32,0,0,1,.43-2.35c1.28-.49,1.28-1.77,1.74-2.78.26-.57.57-1.42,1.39-1s.52,1-.27,1.32c-.13.05-.28.51-.22.56,2.39,2.22,1.51,5.29,1.92,7.95a67.32,67.32,0,0,1,.58,11.19,80.33,80.33,0,0,1-.87,9.39c-.2,1.48-1.56.74-2.42.91Z" transform="translate(-390.55 -84.18)"/><path class="cls-1" d="M518.53,340c1.12-.93,2.14-.39,3.06-.56a2,2,0,0,0,1.81-1.75,1.29,1.29,0,0,0-1.09-1.64c-.92-.16-1.92-.21-2.25.93-.49,1.72-2.28,1.66-3.37,2.56-.39.33-.62.42-.89-.4-.6-1.82-1.51-1-2.25.16-1.67-2,.11-3.29.9-4.6.68-1.13,1.9-.43,2.95-.27,1.52.24,3.08.18,4.61.57a2.43,2.43,0,0,0,2.3-.56c1.14-1,2.28-2.35,3.88-2.21s0-2.64,1.77-1.75c1.35.69-.59,1.52-.11,2.53.8,1.67.43,1.77-1.47,2.13-.53.1-1.82-.07-2.21,1.43C525.46,339.35,521.93,340.83,518.53,340Z" transform="translate(-390.55 -84.18)"/><path class="cls-1" d="M466.63,356.74l-1-.09c.67-2.41-3.17-2.77-2.38-5.24.24-.74-1.09-.46-.76-1.39,2-.47,4.07,0,6.31,0-3,1.64-1.45,4.56-2.21,6.78Z" transform="translate(-390.55 -84.18)"/><path class="cls-1" d="M528.33,311.29c.67-.45-.73-1.37.42-1.73,2.14-.67,2.69-2.39,2.9-4.38.08-.75.46-1.61,1.36-1.23.58.25-.85.83-.2,1.44-.16.17-.62.25-.18.61l.16-.63a10.61,10.61,0,0,0,2.67-.29,1.25,1.25,0,0,1,1.54,1.2c.06.81-.81.67-1.32.61-1.34-.18-2,.48-2.77,1.52a6.79,6.79,0,0,1-4.52,2.93Z" transform="translate(-390.55 -84.18)"/><path class="cls-1" d="M486.1,336.2c-1.29-.84-2.48-1.62-2.92.59,0,.2-.47.37-.75.46-.08,0-.42-.42-.39-.47,1.19-1.71.86-4,2-5.66.77-1.11,1.82.72,2.75,0-.06.85,2.23,1.64,0,2.61C486,334.07,486.56,335.24,486.1,336.2Z" transform="translate(-390.55 -84.18)"/><path class="cls-1" d="M449.35,148.33a4.75,4.75,0,0,0,0,3l0,0c-.46.09-1.17,0-1.33.3-1.15,1.93-2.38.77-3.61.19-.25-1.26.64-1.16,1.43-1.24,1.87-.19,2.51-1.13,1.77-2.95-1.24.16-.18,1.57-1.14,1.85a1.67,1.67,0,0,1-.41-2.19,2.7,2.7,0,0,1,1.52-1.47c.92-.23.66.87,1,1.37S448.82,148.12,449.35,148.33Z" transform="translate(-390.55 -84.18)"/><path class="cls-1" d="M469.45,414.68c3.35-.57,6.55.71,9.83,1a1.16,1.16,0,0,1,1.14,1.34,1.54,1.54,0,0,1-.49,1.05c-1.08.61-.77-.8-1.22-.93-2.17-.62-4.25-1.65-6.58-1.65h-2.75Z" transform="translate(-390.55 -84.18)"/><path class="cls-1" d="M467.11,384.91a9.19,9.19,0,0,1,5.09,2.46c-2.46-.92-4.44-.68-5.56,1.91-.25.57-1,.37-1.27.16s-.14-.75.28-1c1.57-.76,1.4-2.23,1.48-3.6Z" transform="translate(-390.55 -84.18)"/><path class="cls-1" d="M471.08,132c-.81-.17-1.66-.47-1.53.94,0,.52-.17,1-.85.89s-.37-.59-.27-1c.52-1.91-.47-3.87.18-5.78l0,0a7.7,7.7,0,0,1,.86,0c.18,1.77,1.17,3.26,1.61,4.94Z" transform="translate(-390.55 -84.18)"/><path class="cls-1" d="M510.85,337.53c-2.15.56-4.52.49-6,2.86C504.59,336.56,506.26,335.78,510.85,337.53Z" transform="translate(-390.55 -84.18)"/><path class="cls-1" d="M494.05,333.31c-1.36,3.08-4.33,3.64-6.7,5.14l-.43-.68Z" transform="translate(-390.55 -84.18)"/><path class="cls-1" d="M513.27,356.56c-1.22,1.39.51,4.93-3.46,4.33C512.1,360.19,510.8,357.11,513.27,356.56Z" transform="translate(-390.55 -84.18)"/><path class="cls-1" d="M476.9,410.87c2.75-.33,3.33.2,3.18,2.78,0,.43,0,1.09-.64,1.16a.86.86,0,0,1-.89-.95C478.54,412.59,478.45,411.4,476.9,410.87Z" transform="translate(-390.55 -84.18)"/><path class="cls-1" d="M520.36,342.93c-3,0-2.34,2.74-3.44,4.62a5.51,5.51,0,0,1,.57-4.62C518,342,519.26,342.3,520.36,342.93Z" transform="translate(-390.55 -84.18)"/><path class="cls-1" d="M455.41,114.32a1.48,1.48,0,0,0,1.46-.69c.71-1.14,1.42-.7,2.25.16-.82.66-2.09.51-2.6,1.59a.89.89,0,0,1-1.3.16c-.17-.14.06-.74.11-1.14Z" transform="translate(-390.55 -84.18)"/><path class="cls-1" d="M471.38,346.25c-.72-.08-.82-.45-.81-.89a1.37,1.37,0,0,1,1.58-1.45c.59,0,1.34.27,1.16.92C473.06,345.77,471.73,345.47,471.38,346.25Z" transform="translate(-390.55 -84.18)"/><path class="cls-1" d="M444.82,139.22a5.64,5.64,0,0,1,1.42,4.76C444.64,142.46,445.56,140.57,444.82,139.22Z" transform="translate(-390.55 -84.18)"/><path class="cls-1" d="M443.91,142.41c-.11.66.33,1.57-.66,1.87a1.59,1.59,0,0,1-2-1.06,4.16,4.16,0,0,1,2.65-.81Z" transform="translate(-390.55 -84.18)"/><path class="cls-1" d="M482.79,341.09a2.9,2.9,0,0,1-.16-.62,6,6,0,0,1,3.23-1.85c.09,0,.38.43.34.49C485.35,340.34,483.87,340.18,482.79,341.09Z" transform="translate(-390.55 -84.18)"/><path class="cls-1" d="M502.16,349.65c-1.32,1.45-2.52,1.27-3.6,1.41-.19,0-.37-.61-.11-.83C499.45,349.35,500.62,350,502.16,349.65Z" transform="translate(-390.55 -84.18)"/><path class="cls-1" d="M476.49,407.62c1-.18,2-.79,2.95.67-1.25.4-2.23.62-2.93-.69Z" transform="translate(-390.55 -84.18)"/><path class="cls-1" d="M468.61,127.09c-.73-1.08-1.34-2.17,0-3.94v4Z" transform="translate(-390.55 -84.18)"/><path class="cls-1" d="M495.94,343.87c1.63-.61,2.3-.5,2.27,1.12Z" transform="translate(-390.55 -84.18)"/><path class="cls-1" d="M453.57,118.55l-.48.7a3.23,3.23,0,0,1-.6-.92c-.09-.38.26-.54.61-.54S453.64,118.06,453.57,118.55Z" transform="translate(-390.55 -84.18)"/><path class="cls-1" d="M495.74,344c-.08.3-.08.69-.52.62s-.41-.4-.41-.71.05-.69.41-.72C495.8,343.14,495.67,343.66,495.74,344Z" transform="translate(-390.55 -84.18)"/><path class="cls-1" d="M441,130.11c.36.1.81.09.83.63s-.45.72-.92.79l0,0,0-1.41Z" transform="translate(-390.55 -84.18)"/><path class="cls-1" d="M440.33,133.39c-.2.22-.32.46-.48.5a.71.71,0,0,1-.6-.15c-.18-.34,0-.6.38-.61A2.36,2.36,0,0,1,440.33,133.39Z" transform="translate(-390.55 -84.18)"/><path class="cls-1" d="M540.23,299.47c-.08.44.13,1-.46,1.22-.09,0-.41-.23-.44-.38-.11-.65.36-.8.87-.87Z" transform="translate(-390.55 -84.18)"/><path class="cls-1" d="M543.65,336c.07-.53.26-1,.89-.87.15,0,.41.36.37.45-.22.58-.78.39-1.23.45Z" transform="translate(-390.55 -84.18)"/><path class="cls-1" d="M436.64,153.12c-.11-.85-.3-1.51.3-1.6s.41.47.25.81A5.91,5.91,0,0,1,436.64,153.12Z" transform="translate(-390.55 -84.18)"/><path class="cls-1" d="M480.46,429.84c.49.05,1,.09.75.81-.06.16-.36.22-.55.33l-.21-1.14Z" transform="translate(-390.55 -84.18)"/><path class="cls-1" d="M478.41,426.38c-.45,0-1.28,0-1.29-.14-.1-.63.47-.29.75-.34a1.78,1.78,0,0,1,.66.14Z" transform="translate(-390.55 -84.18)"/><path class="cls-1" d="M499.4,148c.06-.14.09-.36.2-.4s.26.1.4.16c-.06.14-.09.35-.19.39S499.54,148,499.4,148Z" transform="translate(-390.55 -84.18)"/><path class="cls-1" d="M516.32,399.35l-.43.16c0-.14-.18-.31-.14-.41s.26-.12.4-.17Z" transform="translate(-390.55 -84.18)"/><path class="cls-1" d="M517.69,398.85c.06-.13.09-.34.19-.38s.25.1.39.16c-.06.13-.09.34-.19.38S517.82,398.91,517.69,398.85Z" transform="translate(-390.55 -84.18)"/><path class="cls-1" d="M468.94,137l-.31.25-.33-.43c.12-.06.26-.17.37-.15S468.83,136.88,468.94,137Z" transform="translate(-390.55 -84.18)"/><path class="cls-1" d="M454,141.89l.3-.26.29.46c-.13,0-.28.16-.38.13S454,142,454,141.89Z" transform="translate(-390.55 -84.18)"/><path class="cls-1" d="M506.63,340.94c0-.39.05-.8.61-.76a.25.25,0,0,1,.16.16c0,.57-.4.55-.77.6Z" transform="translate(-390.55 -84.18)"/><path class="cls-1" d="M497,342.08c-.09-.14-.22-.27-.22-.39s.12-.26.19-.39c.08.12.21.25.22.38S497.1,341.94,497,342.08Z" transform="translate(-390.55 -84.18)"/><path class="cls-1" d="M471.56,132l-.12,1.09h-.27l-.09-1.08,0,0h.5Z" transform="translate(-390.55 -84.18)"/><path class="cls-1" d="M503.69,153.65c-.12-.07-.3-.11-.34-.21s.07-.24.11-.36c.12.07.29.12.35.22S503.74,153.53,503.69,153.65Z" transform="translate(-390.55 -84.18)"/><path class="cls-1" d="M497.55,339.8l.07.18-.28,0c0-.06,0-.14.05-.19S497.49,339.81,497.55,339.8Z" transform="translate(-390.55 -84.18)"/><path class="cls-1" d="M556.67,282.51c.06,0,.15,0,.17,0a.25.25,0,0,1,0,.2c-.11.22-.22.21-.29,0C556.59,282.66,556.65,282.58,556.67,282.51Z" transform="translate(-390.55 -84.18)"/><path class="cls-1" d="M443.91,142.41l.13-.62.26.15-.39.47Z" transform="translate(-390.55 -84.18)"/><path class="cls-1" d="M482.44,141.43l.17-.66c.46.37,0,.48-.19.65Z" transform="translate(-390.55 -84.18)"/><path class="cls-1" d="M536.25,166.6l.17-.64.17.12c-.1.18-.21.36-.32.53Z" transform="translate(-390.55 -84.18)"/><path class="cls-1" d="M496.27,128.59l-.21.65-.19-.13c.12-.19.25-.36.38-.54Z" transform="translate(-390.55 -84.18)"/><path class="cls-3" d="M442.55,364.45s-.05,0-.06,0,0,0,0-.07l.11,0Z" transform="translate(-390.55 -84.18)"/><path class="cls-1" d="M429.09,158.71l.19-.68.19.14-.38.54Z" transform="translate(-390.55 -84.18)"/><path class="cls-3" d="M445.7,365l.15.22c-.24.05-.1-.15-.14-.23Z" transform="translate(-390.55 -84.18)"/><path class="cls-1" d="M428.1,157.36l.17.07-.24.18-.1-.15Z" transform="translate(-390.55 -84.18)"/><path class="cls-1" d="M466.62,356.75l.22.1-.21-.11Z" transform="translate(-390.55 -84.18)"/><path class="cls-1" d="M496.25,128.57l.23-.2-.21.22Z" transform="translate(-390.55 -84.18)"/><path class="cls-1" d="M453.31,357.26l-.24.2.2-.24Z" transform="translate(-390.55 -84.18)"/><path class="cls-1" d="M440.94,131.53l-.1.2.12-.18Z" transform="translate(-390.55 -84.18)"/><path class="cls-1" d="M492.31,136l.21-.21s0,.11,0,.13a.45.45,0,0,1-.17.08Z" transform="translate(-390.55 -84.18)"/><path class="cls-1" d="M473.54,377l-.19.21s0-.1,0-.12a.53.53,0,0,1,.17-.08Z" transform="translate(-390.55 -84.18)"/><path class="cls-1" d="M528.39,311.34l-.26.21c.07-.09.14-.17.2-.26Z" transform="translate(-390.55 -84.18)"/><path class="cls-1" d="M556.52,273.77l.19.21-.21-.2Z" transform="translate(-390.55 -84.18)"/><path class="cls-1" d="M527.38,385.88l-.22-.11.21.12Z" transform="translate(-390.55 -84.18)"/><path class="cls-1" d="M485.88,409.58l-.11.2.13-.18Z" transform="translate(-390.55 -84.18)"/><path class="cls-1" d="M519.92,176.43l.28-.18-.17.29Z" transform="translate(-390.55 -84.18)"/><path class="cls-3" d="M440.15,362.76l-.09.08.08-.09Z" transform="translate(-390.55 -84.18)"/><path class="cls-1" d="M497.91,315.57c-2.83.46-1.48,2-.89,3.32a8.23,8.23,0,0,0-1.75.9c-.57.48-.85,1.24.34,1.17,1.42-.09.86,1,.92,1.51.09.88-.73.69-1.25.69-.73,0-2-.15-1.72-.85.63-1.61-.4-3.84,1.73-4.89-2.91-.26-3.35.17-2.72,3.05-1.56-.94-2.82-2.19-4.63-2.05-.23,0-.61-.55-.35-.77a9.6,9.6,0,0,1,2-1.28c.65-.32,1.53-1.14,1.73.46,0,.35.06.55.48.11C493.54,315.13,495.84,315.78,497.91,315.57Z" transform="translate(-390.55 -84.18)"/><path class="cls-1" d="M506.88,307.64c-.38-1.07-.3-1.71,1-1.82s2.39-.52,1.84-2.32c-.29-1,.38-1.57,1.36-1.57a5,5,0,0,0,2.09-.56,1.59,1.59,0,0,1,.92-.22c.34.07.51.68.31.76-2.17.83,2.88,2.56-.61,3.64C511.55,306.25,509,306,506.88,307.64Zm4.07-4.53c-.05.13-.19.29-.15.39s.24.13.38.19c.06-.14.19-.29.15-.4S511.09,303.17,511,303.11Z" transform="translate(-390.55 -84.18)"/><path class="cls-1" d="M483.71,326.21c1.42-.13,2.07-2.73,4-1.38.07.05.34-.18.51-.28-1.51-1.74,2.88-1.71,1.07-3.55a2.49,2.49,0,0,1,.31-.27c1.38-.71,1.33,1.54,2.53,1.22-.23.67.74,1.27-.15,2.08A9.15,9.15,0,0,1,483.71,326.21Z" transform="translate(-390.55 -84.18)"/><path class="cls-1" d="M492,167.14c3.48-2.49,4.85-7.26,9.67-8.87-.57,1.38-.57,2.71-2.15,2.91-.88.12-1.15.81-1.56,1.42C496.53,164.77,494.87,166.7,492,167.14Z" transform="translate(-390.55 -84.18)"/><path class="cls-1" d="M552.32,241.4c.55,1.64-.07,2.81-.81,4.06-1.28,2.16-2-1.17-3.16-.15C550.11,244.41,550.23,242.06,552.32,241.4Z" transform="translate(-390.55 -84.18)"/><path class="cls-1" d="M523.22,283.45c.53,2.75-1.63,3-2.89,3.82-.92.6-.69-.68-.9-1.16-.33-.77-.44-1.45.75-1.43S522.48,284.9,523.22,283.45Z" transform="translate(-390.55 -84.18)"/><path class="cls-1" d="M491,168c-1.2,2-1.23,2-6.23,4.84C485.14,171.8,489.73,168.22,491,168Z" transform="translate(-390.55 -84.18)"/><path class="cls-1" d="M493.16,307c-.39-2.16.84-4.62,2.18-5a1,1,0,0,1,1.07.39c.31.39.16.72-.19,1-.53.49-1.06,1-1.54,1.53S493.83,306.1,493.16,307Z" transform="translate(-390.55 -84.18)"/><path class="cls-1" d="M487.78,230.41c-.64.07-1.79-.83-1.5.9.19,1.13-.95,1.36-1.62,2-.72-2,.33-3.52,1.59-4.65.42-.38,1.66.38,1.71,1.52Z" transform="translate(-390.55 -84.18)"/><path class="cls-1" d="M488.88,304.42c.76,3.34-2.6,1.89-3.78,3,.62-1.71,1.55-3.07,3.71-3Z" transform="translate(-390.55 -84.18)"/><path class="cls-1" d="M498.53,291.63c-1.46,2.18-3.95.65-5.49,2.46C493.43,292.63,493.43,292.63,498.53,291.63Z" transform="translate(-390.55 -84.18)"/><path class="cls-1" d="M500.23,152.09l-1.65,1c0-1.28-1.94-2.5-.8-3.22S498.5,152.2,500.23,152.09Z" transform="translate(-390.55 -84.18)"/><path class="cls-1" d="M555.15,255.79c-.75-1-1.45-1.85-.78-3a.49.49,0,0,1,.82,0C555.7,253.7,556.26,254.64,555.15,255.79Z" transform="translate(-390.55 -84.18)"/><path class="cls-1" d="M495.57,141.38c-.79.07-1.28-.2-1.39-.83-.13-.8.59-.9,1.08-.92s1.2.2,1.28.82S496,141.32,495.57,141.38Z" transform="translate(-390.55 -84.18)"/><path class="cls-1" d="M479.48,323.17c.31-1.54,1.95-.66,2.7-1.43,0,0,.51.18.55.33a.74.74,0,0,1-.58.93,26.78,26.78,0,0,1-2.69.15Z" transform="translate(-390.55 -84.18)"/><path class="cls-1" d="M493.45,138.75c.36-.88.74-1.53,1.62-1.67a.43.43,0,0,1,.44.65A1.62,1.62,0,0,1,493.45,138.75Z" transform="translate(-390.55 -84.18)"/><path class="cls-1" d="M498.72,137c1.47.35,1,1.42,1.07,2.53-1.55-.61-.84-1.74-1.05-2.55Z" transform="translate(-390.55 -84.18)"/><path class="cls-1" d="M487.64,140.46a2.35,2.35,0,0,1-1.22,3A6,6,0,0,1,487.64,140.46Z" transform="translate(-390.55 -84.18)"/><path class="cls-1" d="M555.44,260.63c-.57-.61-.39-1.17-.19-1.9C556.1,259.35,556.11,259.89,555.44,260.63Z" transform="translate(-390.55 -84.18)"/><path class="cls-1" d="M501.48,313.54a2,2,0,0,1-.56.2c-.23,0-.54-.1-.34-.43a.82.82,0,0,1,.57-.33C501.41,313,501.6,313.13,501.48,313.54Z" transform="translate(-390.55 -84.18)"/><path class="cls-1" d="M488.81,304.36,489,302c.53,1.11.61,1.82-.07,2.46Z" transform="translate(-390.55 -84.18)"/><path class="cls-1" d="M489.7,141.62c-.55-.63-.25-1.15-.36-2.1A2.3,2.3,0,0,1,489.7,141.62Z" transform="translate(-390.55 -84.18)"/><path class="cls-1" d="M483.12,173.17l.18-.41c.13.06.34.09.38.19s-.1.26-.16.39Z" transform="translate(-390.55 -84.18)"/><path class="cls-1" d="M500.05,316.3l-.34.23-.24-.48c.13-.05.29-.16.39-.12S500,316.16,500.05,316.3Z" transform="translate(-390.55 -84.18)"/><path class="cls-1" d="M488,321.35c-.18.14-.29.28-.4.29-.28,0-.63.15-.76-.26a.89.89,0,0,1,.41-.17A4,4,0,0,1,488,321.35Z" transform="translate(-390.55 -84.18)"/><path class="cls-1" d="M501,314.85c-.11.08-.23.23-.34.22a.28.28,0,0,1-.23-.46.37.37,0,0,1,.38-.13C500.93,314.51,501,314.72,501,314.85Z" transform="translate(-390.55 -84.18)"/><path class="cls-1" d="M498.74,137c-.32-.05-.68,0-.74-.46,0-.08.2-.28.28-.27.42.07.39.43.44.75Z" transform="translate(-390.55 -84.18)"/><path class="cls-1" d="M555,300.21l-.24.38c-.07-.13-.19-.27-.18-.4s.14-.25.22-.38Z" transform="translate(-390.55 -84.18)"/><path class="cls-1" d="M488.66,142.26l.06.17-.25,0a.53.53,0,0,1,0-.18S488.61,142.27,488.66,142.26Z" transform="translate(-390.55 -84.18)"/><path class="cls-1" d="M488,230.22c.15.13.41.23.11.45,0,0-.19-.17-.29-.26Z" transform="translate(-390.55 -84.18)"/><path class="cls-1" d="M487.87,143.9l.11-.22-.12.2Z" transform="translate(-390.55 -84.18)"/><path class="cls-1" d="M487.86,143.88l-.19.21s0-.1,0-.12a.51.51,0,0,1,.17-.07Z" transform="translate(-390.55 -84.18)"/><path class="cls-1" d="M537.26,298l.09-.2-.11.18Z" transform="translate(-390.55 -84.18)"/><path class="cls-1" d="M516,305.87l-.2.2s0-.1,0-.12a.85.85,0,0,1,.17-.06Z" transform="translate(-390.55 -84.18)"/><path class="cls-1" d="M412.65,371.76c.86,0,1,.67,1.38,1.06s1.28.58,1,1.46c-.06.19-.33.46-.5.46-.85,0-1.27-.64-1.56-1.33C412.77,372.93,412.25,372.49,412.65,371.76Z" transform="translate(-390.55 -84.18)"/><path class="cls-1" d="M405.15,349.8c.31.1.59.17.43.47a.65.65,0,0,1-.52.3c-.15,0-.26-.31-.38-.48Z" transform="translate(-390.55 -84.18)"/><path class="cls-1" d="M407.2,355.39l-.35.19-.2-.5c.13,0,.3-.13.38-.08S407.15,355.25,407.2,355.39Z" transform="translate(-390.55 -84.18)"/><path class="cls-1" d="M395.86,229.85c-.1.09-.21.24-.32.25a.31.31,0,0,1-.35-.44c0-.1.26-.19.38-.17S395.74,229.69,395.86,229.85Z" transform="translate(-390.55 -84.18)"/><path class="cls-1" d="M396.27,223.17a2.35,2.35,0,0,1-.37.14s-.08-.11-.12-.17a2.35,2.35,0,0,1,.37-.14S396.23,223.11,396.27,223.17Z" transform="translate(-390.55 -84.18)"/><path class="cls-1" d="M425.42,370.91c.31.51.39,1.18-.05,1.32-.84.28-.62-.36-.41-.79A2.72,2.72,0,0,1,425.42,370.91Z" transform="translate(-390.55 -84.18)"/><path class="cls-1" d="M435.36,370.64c-.11.08-.24.24-.34.23a.3.3,0,0,1-.25-.48.39.39,0,0,1,.39-.13C435.26,370.3,435.3,370.5,435.36,370.64Z" transform="translate(-390.55 -84.18)"/><path class="cls-1" d="M450.82,368.6c0-.77,0-1.54,1.12-1.41.18,0,.48.25.47.36-.08,1-.82,1.05-1.59,1.05Z" transform="translate(-390.55 -84.18)"/><path class="cls-1" d="M450.31,369.07l.51-.47h0l-.47.51Z" transform="translate(-390.55 -84.18)"/><path class="cls-1" d="M465.65,427.36l-.51.51Z" transform="translate(-390.55 -84.18)"/><path class="cls-1" d="M449.36,151.29l.21.23-.24-.21Z" transform="translate(-390.55 -84.18)"/><path class="cls-1" d="M445.88,361.18l-.2.23c0-.05,0-.11,0-.13a.68.68,0,0,1,.17-.09Z" transform="translate(-390.55 -84.18)"/><path class="cls-1" d="M438.47,393.79l.21.11-.2-.12Z" transform="translate(-390.55 -84.18)"/><path class="cls-2" d="M445.2,362.38c.06.6-.23,1.14.1,1.67C444.21,363.5,444.2,363.29,445.2,362.38Z" transform="translate(-390.55 -84.18)"/><path class="cls-1" d="M527.86,385.89l.21.1-.2-.12Z" transform="translate(-390.55 -84.18)"/><path class="cls-1" d="M504.24,430.26l.18.33-.33-.18Z" transform="translate(-390.55 -84.18)"/><path class="cls-1" d="M527.48,313.88c-.83,2.16-3.13,3-4.37,4.85.24-2.6,2.07-3.94,4.16-5.06Z" transform="translate(-390.55 -84.18)"/><path class="cls-1" d="M497.75,334c-.39,0-.81-.06-.77-.62a.22.22,0,0,1,.16-.16c.58,0,.55.41.59.8Z" transform="translate(-390.55 -84.18)"/><path class="cls-1" d="M523.4,320c.74.49.48.91.5,1.45C523.16,321,523.48,320.52,523.4,320Z" transform="translate(-390.55 -84.18)"/><path class="cls-1" d="M518.33,330.65c-.12.08-.25.24-.35.23a.3.3,0,0,1-.24-.48.41.41,0,0,1,.39-.14C518.23,330.31,518.26,330.51,518.33,330.65Z" transform="translate(-390.55 -84.18)"/><path class="cls-1" d="M532.79,305.37l-.16.63c-.44-.36,0-.44.18-.61Z" transform="translate(-390.55 -84.18)"/><path class="cls-1" d="M511,303.11c.14.06.35.09.38.18s-.09.26-.15.4c-.14-.06-.34-.09-.38-.19S510.9,303.24,511,303.11Z" transform="translate(-390.55 -84.18)"/></svg>