<svg id="Layer_1" data-name="Layer 1" xmlns="http://www.w3.org/2000/svg" viewBox="0 0 160.49 427.33"><defs><style>.cls-1{fill:#90c33e;}</style></defs><title>madrone</title><path class="cls-1" d="M465.67,526.48c1.09.72,1.82,2.35,3.2,2.3-1,1.71-1.75,3.62-3.56,4.27-1.42.5-2.57.49-3.2-1.31s.66-2.28,1.48-3S465,527.23,465.67,526.48Z" transform="translate(-398.18 -106)"/><path class="cls-1" d="M486,490.56c0-1.47-.42-3.13.84-4.14A4.58,4.58,0,0,1,486,490.56Z" transform="translate(-398.18 -106)"/><path class="cls-1" d="M490.08,453.53c-6.65,2.79-12.72-.22-18.76-3.5l-.37,0-1.73-.38c-2-7.59-9.62-7.64-11.2-15.81-.06-.28-.76-.66-1-.51-2.22,1.56-3.28-1.23-4-2.72-1.29-2.66-2.81-3.17-4.81-2.85a1.17,1.17,0,0,1-.46-.79c-.13-1-.56-1.48-1.27-1.58l-.48-.78-.62-1.2c-5.12-9.09-10.08-18.37-13.62-28.83-.91-2.71-3.36-4-3.29-7.41a1.47,1.47,0,0,1,1.58-1.1c.11.45.21.89.31,1.34l.27-.25c-.17-.39-.36-.76-.54-1.13.39-2.73.31-4.78-2.37-3.15l0,0a4.62,4.62,0,0,0-.18-1.53A24,24,0,0,1,424,368.14c0-3.72-.37-7.4-4.36-6.25-.45.14-1.28-1.06-1.68-1.87-1.84-3.8-2.87-7.75-1.1-12.26a3.42,3.42,0,0,0-.61-4c-.72,1.86-.94,4.67-3.17,4-.48-2.58-1.91-4.39-2.84-6.6.72.18,1.51,2,2.14.19.42-1.21-.12-2.75-1.1-2.88-1.69-.24-1.4,1.34-1,2.79.34-4.59-1.62-8.37-2.94-12a20.45,20.45,0,0,1-1.33-9.12c4.7.41,4,5.55,4.23,10a15,15,0,0,0,1.52-3.9c.78-2.73-2.79-9.81,3.64-6.9,1.64-4,4.11-1.15,5.71-1.74,2.06,1.31-3.65.53.19,3.47,2,1.51,5.59,3.77,6,8.63-.56.13-1.22.08-1.18,1.24a.44.44,0,0,0,.23.33c.85.07.83-.83.93-1.59a5.51,5.51,0,0,1,1.15,0c2.54.55,4.77-1.14,6.05-3.44,1.55-2.81-1.2-4.31-2.16-6.35a12.2,12.2,0,0,1-1-3.38,9,9,0,0,0-3.41-5.93c-3.68-3.14-3.93-4.75-1.44-10.46-1.53.45-3.39,1.34-3.46-1.51-.07-3.53,2-2.86,3.66-2.86.18,2.26,1.33,3.56,2.65,5.58.65-3.91-.72-5-2.55-5.72-.51-2.35-1.19-4.51-3.09-5.31l-.36-.43.3.51c-.36,1.31,1.59,3.2-.26,3.93-1.29.51-3-.9-2.92-2.56.22-5.84-7-8.62-3.29-15.66-3.69-2.81.43-11.16-4.83-12.88a1.13,1.13,0,0,1-.45-.82c0-3.63-2.07-6.59-1.85-11.16,2.68,4.12,4.59.27,6.69-.43s2.77-4.76,5.26-5.13c-.14-.66-.23-1.34-.43-2-.56-1.84-2.37-3.5-1.14-5.64s2.83.29,4.28.24c0,2.29-.14,4.62,1.95,6.22.45-3.2-1.1-4.49-2-6.21.2-2.37-.75-4-2.05-5.82-.39,2.47-1.4,4.56-3.1,3.3s1.27-2.62.52-4.33c2.28-1.61,1.78-4.39,1.88-7.17.05-1.63,1.91-2.84,2.55-1,2,5.68,4.43,1.7,7.74,2.11-2.16-2.7-3.89-1.23-5.46-2.66a23.8,23.8,0,0,1,4.71-1.29c1.93-.12,2.17-1.16,3-3.61,1-2.81.3-7.57,3.69-8.93-4.27.82-5.79-3.7-5.86-7.46-.05-2.36-.6-5.15-.29-6.81.73-4-1.87-9,1.79-12.35,1,3.1,1.82,6.12,4.59,2.46,1-1.34,2.3.07,2.89,1.45,1.3,3.08,4.35-.45,5.47,2.95,1.09-2.67,4.31-1.85,4.65-6.33s-3-1.79-3.27-4.29c2.22-3.8,5.37,2.56,7.67-1.16.2.37.6.77.58,1.11-.34,4.42,2.49,4.9,4.34,6,2.36,1.34,3.23,3.4,3.62,6.62,1,8.29,2.41,16.48,3.43,24.78.32,2.55.36,6.05,2.34,8.56a29.22,29.22,0,0,0-.2-7.27c-.43-4.11-1.92-8.09-1-12.42l.78-1.05c1.12,0,1.88-.72,2.34-2.09.29-.67.58-1.33.86-2,.58-.18,1.17-.33,1.1-1.43,0-.12-.15-.32-.24-.32-.8-.07-.89.78-1,1.55a2.8,2.8,0,0,0-.73,2.16c-1.15,0-1.91.68-2.31,2.13l-.78,1.06c-3-4.37-1.09-10.42-2.78-15.25-2.37-6.81-1-12.45,3-17.29,1.05,1.62-.38,5.66,1.68,5.38s3.79,3.25,4.69,2.2c1.57-1.84,5-2.74,3.39-7.48,2.43.4,3.56,1.21,2.27,4.67s-2,7.21-3,10.83a7.35,7.35,0,0,0-1.57,4.23,2.55,2.55,0,0,0-.79,2.11c-.2.38-.4.76-.58,1.16,0,0,.18.19.27.3l.38-1.37a2.59,2.59,0,0,0,.79-2.12c2-.41,1.4-2.57,1.56-4.24,2.52-.65,2.24-4,2.89-6.17a62.49,62.49,0,0,1,5.28-13.17c.05,3.43-.56,6.66,1.4,9.46.56.79-.46,1.26-1.08,1.43-.27-.46-.42-1.43-1-.43l1,.4a2.3,2.3,0,0,0,1.37,2.17c2.74,1.42,5.14-1.11,7.74-1,2.18.08,3.62-.64,2.61-4.32-.24-.88-.35-2.41.71-2.52s1.47,1.25,1.31,2.58c-.34,2.85-1,5.49-3.23,6.92,1.23.08,2.38,2.87,3.29,0,.51-1.61.77-3.37,1.13-5.07.48,5.95,3.23,4.92,5.88,4.76,4.37-.27,6,2,4.87,7.7-.89,4.43,3.07,4.46,2.92,7.79,4.12-.48,3.86,5.18,5.81,7.75.58-.7.72-4,1.54-2.14,1.42,3.2,4.33,4.76,4.83,8.76l-.18.44.17-.46c1.91.86,2.68-2.09,5.22-3.13-1.72,2.51.3,5.62-2.53,6.55-.38.12-.38,2.42-.55,3.71,2.4.61,1.17,3.89,2.13,5.48s.83,4.94,3.64,3.88c1.2-.45,1.91,1.54,2.13,3.62a49.18,49.18,0,0,1-1.5,18c2.57-.73,1.84-3.51,2.48-5.16.52-1.33.52-3.41,2.17-3,1.85.46,1.15,2.14.83,3.68-.16.81-.3,2.3,0,2.5,3.23,2.52.15,3.53-.47,5.38-.77,2.28-3,4.92,1,7,2.19,1.14,7-.72,5.81,6.88,1.45-1.29,2.93-3.31,3.68-1.39,1.37,3.51-1.57-.91-1.75,1.46s-1.39,4.73.32,6.81c.79,1,2.22,1,1.26,3.42s-2-1.06-3.29.83c2.71,1.46,1.07,6.42,3.88,8.07h0c0,1.18.18,2.47-.8,3.19-.15-.55.18-1.56-.71-1.37a.51.51,0,0,0-.26.36c-.14,1.2.56.83,1,1,.12,2.29,1.44,3,2.68,3.09,2.19.16,1.06,3,2,4.06-1,.16-.64,3.71-2.51,1.95-.68-.64-1.16.16-1.6.83-2.19,3.3.2,7.13-.64,10.7-.3,1.25,1.46,1.42,2.36,1.88,2.28,1.17,3.13,3,1.45,5.95-.24.43-1.26.8-.65,1.23,4.84,3.39-3.44,8.66,1,12-.4.38-1,.63-1.17,1.15-1,2.58-4.58,5-3.61,6.29,2.12,2.9.1,3-.65,4-1.37,1.93-1.17,2.8.82,3.29a3.58,3.58,0,0,0,3.75-.52c-1,3.08-1.45,5.22-2.32,7.24-1.18,2.7,0,3.34,1.81,2.78,0,1,0,2.08-.07,3.12-2,.14-3.91-2-6.08-.67.91,1.21,3.11.43,2.85,3.31-.24,2.57-1.45,4-3.24,4.48-2.39.64-3.93,2.25-3.86,5.82,1.22,1.5,3.14-2.55,3.08-.15-.08,3.46,2.11,7.24-.86,10.87a14.19,14.19,0,0,0-3.2,9.52c.28,3.92-.91,7.12-1.63,10.62-.53,2.58-3.49,3.42-2.69,6.47.74,2.84-.69,4.91-1.62,5.1-3.36.66-2.71,5-4,7.39-1,2,.89,1.62,1.73,1.9-2.13,5.53-4.16,10.93-7.83,15.2-5.2,6.07-10.91,10.72-17.4,12.88-3.77,1.25-7.54,4.7-11.8,2.18-1.32-.78-1.59,1.31-2.3,2.16.38-6.92,1.27-13.86,1-20.74-.41-11.92-1.85-23.71-3.22-35.52-2.16-18.59-4.47-37.16-6.53-55.77-1.34-12.13-4.3-24.07-3.15-36.63,2.28-1.81,5-3,5.45-7.37,1,0,1.54-.67,1.62-2l.75-1.07c1.81-.35,2.77-1.87,3.09-4.26,1.32-.83,1.65-2.37,1.61-4.19l.76-1c3-2.49,4.54-6.24,5-10.92-1.8,3.5-4.33,6.35-5.08,10.76l-.77,1.05c-1.28.89-1.62,2.43-1.56,4.26-2,.06-2.3,2.5-3.11,4.22l-.78,1c-1,.09-1.48.85-1.51,2.19-1.71,2.61-4.91,3.15-5.44,7.4-.43-.31-1.16-.5-1.25-.94a204,204,0,0,1-2.82-20.27c-.68-7.22-1.63-14.4-2.39-21.61-.45-4.27,0-8.86-2.57-12.56.36,15.57,3.07,30.81,4.21,46.67-2.44-1.09-4.31-3.24-6.7-3.11a6.45,6.45,0,0,0-4.63-4.26c-2.27-3.67-5.45-5.42-8.43-7.58-1.41-2.3-3-4.09-5.33-4.37-1.78-4.93-4.71-8-8.47-9.59-.53-3.14-2.17-4.71-4.86-6.55,1.32,3.71,2.46,6,4.74,6.71,2.15,4.32,5.32,6.95,8.45,9.65,1.27,2.68,3.05,4.14,5.38,4.3,1.91,4.5,5.34,5.69,8.52,7.42.45,3.62,2.52,4,4.6,4.32a3.51,3.51,0,0,0,2,2.2c3.23,1.56,5.22,4.43,5.78,9.38,1.84,16.41,3.86,32.79,5.9,50-2.45-2.32-4.45-4.19-7.85-4.06,1.57,1.52,2.33,2.76,3.24,3,4.4,1.33,5.54,6,5.83,11.06.78,13.42,4.31,26.37,3.47,40.1-.09,1.52.06,4.38.72,5.27,4.08,5.54,1.63,12.08,1.8,18.16.07,2.56-1,3.24-2.85,2.38-2.26-1.07-4.63-1.75-6.95-2.6A8.36,8.36,0,0,0,486,433.6c6.32,3.1,6.85,4.48,6.4,13.49C492.3,449.91,490.47,451.13,490.08,453.53Zm17.29-72.13.79-1c1.65-.38,2-1.82,1.94-4-1.91.49-1.9,2.25-1.94,4l-.77,1.06-.19.42C507.26,381.69,507.32,381.55,507.37,381.4Zm17.79,15.13.28-.6-.45.36-.29.62ZM424.91,341.36l.31.26-.32-.25-.31-.25Zm95.52,59.29.77-1.06a1.54,1.54,0,0,0,1.6-1l.31-.56-.42.41a1.53,1.53,0,0,0-1.49,1.14l-.78,1.05-.83,1-.32.6.44-.43Zm-82-138.79.34,1.4L439,263c-.18-.41-.38-.8-.58-1.2a1.51,1.51,0,0,0-1.53-1.07,3.81,3.81,0,0,0-2.08-3.63c-.33,2.72.72,3.36,2.05,3.68A1.48,1.48,0,0,0,438.38,261.86Zm26.44-34.81c.27.25.55.51.83.74a4,4,0,0,0,.21-.36l-1-.47a1.5,1.5,0,0,0-1.52-1.09c-1.12-3.06-3.51-3.09-5.4-4.29-.29-.26-.57-.53-.86-.77a3.85,3.85,0,0,0-.21.38l1,.49c1.27,2.71,3.08,4.1,5.41,4.29A1.53,1.53,0,0,0,464.82,227.05Zm37.95,161.82.74-1.09c1.54-.46,2-1.74,1.9-4.12a5.33,5.33,0,0,0-2,4.06l-.8,1c-.2.39-.4.78-.57,1.19,0,0,.17.21.26.32ZM537,325.34c-.5.09-1.05.16-1.13,1.05,0,.18.3.61.43.58.64-.11.65-.89.75-1.57a7.11,7.11,0,0,0,1.58-4.21l.77-1,3.3-2.58c-2.44-1-3.11.3-3.38,2.46l-.77,1.05C536.56,321.5,537.13,323.66,537,325.34Zm-2.75-65.85c.43-.17,1.15.22,1-1a.51.51,0,0,0-.27-.37c-.88-.21-.61.78-.73,1.37a2.87,2.87,0,0,0-1.16,3.72C534.31,262.33,534.19,260.87,534.23,259.49Zm-15.76,42.19a1.72,1.72,0,0,0-1.35,2c0,.24.29.66.39.63.89-.26,1-1.36,1.16-2.31a7,7,0,0,0,2.4-5.23c1.69-1.08,2.52-3.06,3-5.4,1-.94,2-1.81,1.94-3.95-2,.24-1.92,2.14-2.07,3.79-1.86.84-2.54,3-3.15,5.25A6.62,6.62,0,0,0,518.47,301.68Zm-11.23-39.19c.89-1.41,1.88-2.8.85-5.31-1.22,1.68-.79,3.54-1,5.14-1.43,1.25-1.95,3.23-2.29,5.35-1.12,2.15-2.67,4-2.86,7.59a9,9,0,0,0,2.94-7.47C506.91,267.07,507,264.75,507.24,262.49ZM512.06,373l-.6,1.15.3.26.29-1.42c1.66-.22,2.63-1.32,2.88-3.93C513,369.45,512.29,370.92,512.06,373ZM496.5,397.25c.68-.15,1.53.27,1.88-.95a1.35,1.35,0,0,0-.57-.95c-1-.2-1.17.87-1.32,1.89-1.59.3-2.59,1.32-2.79,3.94C495.55,400.61,496.34,399.33,496.5,397.25Zm-73.9-59.09-.71-1.86c-.36-.92-.67-2-1.6-1.89-.22,0-.58.68-.59,1.06-.05,1.31.8,1.67,1.45,2.13a6.27,6.27,0,0,0,1.46.55,2,2,0,0,0,.12.37c0,.06.13.05.2.07Zm92.13-28.86c.94-.88,2-1.7,1.12-3.65-1.32.62-1.12,2.17-1.25,3.49-2.19.4-2.32,2.65-2.51,4.87C513.25,312.7,514.54,311.54,514.73,309.3Zm2.7,55.12-.3.57.43-.4a8.13,8.13,0,0,0,2.67-6.62A8.31,8.31,0,0,0,517.43,364.42ZM431.81,351a13.4,13.4,0,0,0-3.87-5.08c.82,3.14.27,7.06,3.88,5.07.06.68.08,1.44.72,1.57.12,0,.44-.41.42-.58C432.86,351.09,432.29,351.1,431.81,351ZM545,276.59c-.11-.87-.31-2.22-1-1.87-2.6,1.38-5.58,1.74-7.53,5a1,1,0,0,0-.27.17.9.9,0,0,0-.06.27l.33-.43c3.08.2,5.46-3.2,8.52-3.12.28.35.42,1.37,1,.39ZM448.75,213c-1.24-4-3.25-6.87-6.2-8.46l-.31-.25.32.24c.74,4.6,3.35,6.7,6.1,8.61.67,1.34,1.26,2.89,2.84,2.68C451.34,213,450,213.15,448.75,213Zm83.84,68.84,1.7-.46c-.07-.14-.11-.37-.2-.4-.66-.28-1.17,0-1.52.83-2.7.87-3.84-.63-3.75-4.47-.75,2.64-1.51,5.28-2.26,7.92C528.4,283,531.51,285.44,532.59,281.8Zm-16.05-45.87c-.19.39-.38.78-.55,1.19a3.43,3.43,0,0,0,.28.28l.34-1.38c3-2.45,2.87-7.47,4.61-11,.35-.7,1.72-1,.6-2.25-.76-.83-1.44.06-1.87,1A45.66,45.66,0,0,0,516.54,235.93ZM435.87,309.6c.07.51,0,1.24.24,1.51q8.19,9.87,16.46,19.63c.05.05.37-.35.27-.25-2.14-3.3-4.12-6.95-6.54-9.93-3.25-4-6.5-8.13-10.42-11-.29-2.2-1.24-2.86-3-2.65C433.67,309,434.73,309.39,435.87,309.6Zm25.38,27.7-.77,1.67c5.4,4.34,9.75,11,16.37,12.65ZM501,335.09c-1.17,1.42-4.07.92-3.73,1.74,1.35,3.37-1.17,3.73-1.75,5.45-.85,2.55-3.24,3.57-4.1,7C496.81,346.86,498.62,340.71,501,335.09Zm-5.15-124.33c2.84-7.38,6.7-14.51,4.11-23.86C500.83,195.66,496.75,202.58,495.83,210.76Zm19.4,29.1c-2.72,3.65-5,7.6-4.93,13.13C513.36,249.64,513.37,244,515.23,239.86Zm7.48-31.21c-3,1.7-3.74,5.67-2,11.15C521.72,216,520.06,211.54,522.71,208.65Zm10,58.31-.91-.75a13.64,13.64,0,0,0-1.46,8.49ZM426,305.25c1.72,2.16,3.09-.06,4.53,0,.74.06,1.25-.41.84-1.59-.29-.84-.9-1.77-1.4-.8C429,304.81,427.26,303.52,426,305.25Zm30.45,28.08c.6,2,1.33,3.64,3.1,3a4.44,4.44,0,0,0-1.72-2.66C457.45,333.34,456.93,333.42,456.46,333.33Zm77.94-2.86a4.7,4.7,0,0,0-2.2,4.91C533,334.12,534.41,333.36,534.4,330.47Zm-27.23,9.45c-.16,1.61-1.15,3.17-.2,4.72.13.22.86.17.95,0C508.69,342.84,507.6,341.47,507.17,339.92Zm-86.56,17.47c-.4.46-.87.89-.84,1a5,5,0,0,0,.81,1.46c.08.09.75-.5.73-.58A16.19,16.19,0,0,0,420.61,357.39Zm80,34c-.8-.11-1,.58-1.16,1.22a1.94,1.94,0,0,0,.21,1.22c.71.19,1.27-.21,1.32-1.28A3.67,3.67,0,0,0,500.64,391.42Zm26-43a16.5,16.5,0,0,0,.7-3.11c0-.52-.58-.6-.85-.17C526,345.88,526,346.74,526.62,348.44Zm1.3-6.24c.17.33.27.72.41.74a.6.6,0,0,0,.55-.36c.14-.51,0-.93-.47-.87C528.23,341.73,528.08,342,527.92,342.2Zm2.21-3.83c-.21.15-.5.23-.57.44s.09.55.16.84l.74-.56ZM426,344.84l.63.39c.09-.29.3-.64.25-.85s-.44-.45-.59-.37S426.09,344.55,426,344.84Zm118.29,32-.27.86c.21.13.46.41.61.33s.2-.52.29-.81Zm-55-25.38c.1.27.18.69.32.73a.57.57,0,0,0,.58-.33c.19-.5,0-.94-.41-.94C489.59,350.92,489.43,351.26,489.26,351.46ZM536,253.52c-.22.12-.56.17-.63.38s.14.58.22.89c.22-.12.56-.17.62-.38S536.08,253.83,536,253.52Zm-81.12,78.59-.16-.42c-.07.12-.19.23-.2.36a1.07,1.07,0,0,0,.15.42Zm-20.3-13.26a1.85,1.85,0,0,0-.1.44s.17.1.27.14a2.16,2.16,0,0,0,.1-.44C434.85,318.94,434.68,318.89,434.58,318.85Z" transform="translate(-398.18 -106)"/><path class="cls-1" d="M551.07,290.46c1-.72.78-2,.8-3.19.57-.12,1.22-.1,1.17-1.27a.43.43,0,0,0-.24-.34c-.85-.08-.84.83-.93,1.61-2.81-1.65-1.17-6.61-3.88-8.07,1.33-1.89,2.29,1.67,3.29-.83s-.47-2.45-1.26-3.42c-1.71-2.08-.51-4.42-.32-6.81s3.12,2.05,1.75-1.46c-.75-1.92-2.23.1-3.68,1.39,1.22-7.6-3.62-5.74-5.81-6.88-4-2.06-1.73-4.7-1-7,.62-1.85,3.7-2.86.47-5.38-.26-.2-.12-1.69,0-2.5.32-1.54,1-3.22-.83-3.68-1.65-.4-1.65,1.68-2.17,3-.64,1.65.09,4.43-2.48,5.16a49.18,49.18,0,0,0,1.5-18c-.22-2.08-.93-4.07-2.13-3.62-2.81,1.06-2.68-2.28-3.64-3.88s.27-4.87-2.13-5.48c.17-1.29.17-3.59.55-3.71,2.83-.93.81-4,2.53-6.55-2.54,1-3.31,4-5.22,3.13v0c-.5-4-3.41-5.56-4.83-8.76-.82-1.85-1,1.44-1.54,2.14-2-2.57-1.69-8.23-5.81-7.75.15-3.33-3.81-3.36-2.92-7.79,1.14-5.68-.5-8-4.87-7.7-2.65.16-5.4,1.19-5.88-4.76-.36,1.7-.62,3.46-1.13,5.07-.91,2.91-2.06.12-3.29,0,2.2-1.43,2.89-4.07,3.23-6.92.16-1.33-.15-2.71-1.31-2.58s-.95,1.64-.71,2.52c1,3.68-.43,4.4-2.61,4.32-2.6-.09-5,2.44-7.74,1a2.3,2.3,0,0,1-1.37-2.17l0,0c.62-.17,1.64-.64,1.08-1.43-2-2.8-1.35-6-1.4-9.46a62.49,62.49,0,0,0-5.28,13.17c-.65,2.22-.37,5.52-2.89,6.17l-.07-.07c1-3.62,1.69-7.42,3-10.83s.16-4.27-2.27-4.67c1.6,4.74-1.82,5.64-3.39,7.48-.9,1-2.48-2.51-4.69-2.2s-.63-3.76-1.68-5.38c-4.07,4.84-5.4,10.48-3,17.29,1.69,4.83-.21,10.88,2.78,15.25h0c-.9,4.33.59,8.31,1,12.42a29.22,29.22,0,0,1,.2,7.27c-2-2.51-2-6-2.34-8.56-1-8.3-2.42-16.49-3.43-24.78-.39-3.22-1.26-5.28-3.62-6.62-1.85-1.06-4.68-1.54-4.34-6,0-.34-.38-.74-.58-1.11-2.3,3.72-5.45-2.64-7.67,1.16.28,2.5,3.61-.17,3.27,4.29s-3.56,3.66-4.65,6.33c-1.12-3.4-4.17.13-5.47-2.95-.59-1.38-1.88-2.79-2.89-1.45-2.77,3.66-3.62.64-4.59-2.46-3.66,3.4-1.06,8.37-1.79,12.35-.31,1.66.24,4.45.29,6.81.07,3.76,1.59,8.28,5.86,7.46-3.39,1.36-2.74,6.12-3.69,8.93-.82,2.45-1.06,3.49-3,3.61a23.8,23.8,0,0,0-4.71,1.29c1.57,1.43,3.3,0,5.46,2.66-3.31-.41-5.75,3.57-7.74-2.11-.64-1.83-2.5-.62-2.55,1-.1,2.78.4,5.56-1.88,7.17.75,1.71-2.31,3-.52,4.33s2.71-.83,3.1-3.3c1.3,1.84,2.25,3.45,2.05,5.82h0c-1.45.05-3-2.4-4.28-.24s.58,3.8,1.14,5.64c.2.63.29,1.31.43,2-2.49.37-3.19,4.44-5.26,5.13s-4,4.55-6.69.43c-.22,4.57,1.89,7.53,1.85,11.16a1.13,1.13,0,0,0,.45.82c5.26,1.72,1.14,10.07,4.83,12.88-3.69,7,3.51,9.82,3.29,15.66-.07,1.66,1.63,3.07,2.92,2.56,1.85-.73-.1-2.62.26-3.93l.06-.08c1.9.8,2.58,3,3.09,5.31l-.1.14c-1.63,0-3.73-.67-3.66,2.86.07,2.85,1.93,2,3.46,1.51-2.49,5.71-2.24,7.32,1.44,10.46a9,9,0,0,1,3.41,5.93,12.2,12.2,0,0,0,1,3.38c1,2,3.71,3.54,2.16,6.35-1.28,2.3-3.51,4-6.05,3.44a5.51,5.51,0,0,0-1.15,0l0,0c-.42-4.86-4-7.12-6-8.63-3.84-2.94,1.87-2.16-.19-3.47-1.6.59-4.07-2.27-5.71,1.74-6.43-2.91-2.86,4.17-3.64,6.9a15,15,0,0,1-1.52,3.9c-.24-4.49.47-9.63-4.23-10-1.72-1.54-1.64-3.65-1.94-6.34-.66-6-.6-12.27-2.07-17.8-.74-2.8-1.7-4.61-1-7.87.42-2-1-4.66-1.17-7.07-.08-1.33-2.21-4.14,1-4.35.6,0,.51-1.81.15-2.27-3.61-4.61-.63-11.24-2.69-16.3-.12-.3-.27-1.66.6-1.35,3.06,1.08,1-3.2,2.25-4-2.79-6,.6-11.77,1-17.42.45-6.75.57-14.07,2.54-20.93,1.16-.51.8,2.59,2.32,1.81-1.3-7.56,4.38-13.17,2.35-21.72,2.06,1.21,1.37,3.74,3.26,4-.54-6.77,2.51-11.44,5.14-16.5.81-1.56.64-4.08.9-6.17.15-1.17.08-2.91,1.47-2.05,3.09,1.93,2.68-1,2.76-3.48.07-2.11.24-4.21.38-6.61,1.47.48,4.48,6.72,3.82-1.78-.1-1.16-.84-8.39,4-7.93,1.39.13.72-2.61,1-4s-.23-3.81.85-3.61c5.72,1.05,3-5.06,3.83-8.11a26.46,26.46,0,0,0,.38-3.72c1.58,2.82,2.43,3.62,3.2-.25.26-1.28.37-5.22,3.51-4.52,1.27.29.34-3.65.89-5.53.37-1.27-.95-4.83,1.92-2.57.16.13.63,0,.66-.11.59-2.36.62-5.84,1.8-6.86,1.87-1.64,2.2-1.05,2.55-5.48.09-1.08-.51-2.68.75-3.14.83-.29,1.56.52,1.92,1.42,1,2.56,3.19,2.85,4.59,4.58,1.72,2.11,2.14.19,2.62-2.28l3,8c2.3-4.11,3.63-1.88,4.86,1.37.56,1.47.79,4.1,2.75,1.14.82-1.22,1.53,1,1.76,2.35.48,2.93,1.54,3.91,3.87,5a12.84,12.84,0,0,1,7.1,7.69c1.65-.36,1.26-2.64,2.05-4.6,1.13,3.29,2.08,6.08,3,8.83,1.23.08.59-1.76,1.44-2.27,1.26,2.63,1.37,5.77,2,8.67,1.9-.29,1.73-2.82,2.77-4.72,1,4.56,3.52,7.27,4.9,11,.55,1.46.73,1.73,2.09.84,1.9-1.25,1.56,2.12,2.27,3.4.55,1-.54,3.36.9,3.33,1.85,0,.83-2.71,1.27-4.77,2.49,5.47,5,10.21,6.88,15.39,1.38,3.81,2.53-.19,3.72.56.66,5.49,5.59,8.16,4.72,14.46,2.25-.2,1.59-3.2,3.11-3.83.81,5.62,3.75,10,4.24,15.72,2.16.63,1.71-2.43,2.74-3.48,1.48,2.13.65,5.45,2,7.35,2,2.91,0,9.45,4.71,9.84.37,4.26,3.35,7.05,3.45,11.47a17.26,17.26,0,0,0,1,5.65c1.49.08.76-2.91,2.14-3,.17.21.51.43.5.62-.27,5.19,1.41,10,1.48,15.18,0,4.08,1.87,1.41,3.13.65-.74,5.59,1.35,10.81.92,16.32a2.59,2.59,0,0,0,.05,1c5.37,2.07,1.89,8.2,3,12.23.24.88-.19,2.65.87,2.35,2.78-.8,1.79,2.06,1.68,3.35-.84,9.56.51,19.19.89,28.55.49,12-1.55,22.83-2.56,34.21-.5,5.68-.1,11.4-2.27,16.61-1.83.56-3-.08-1.81-2.78.87-2,1.32-4.16,2.32-7.24a3.58,3.58,0,0,1-3.75.52c-2-.49-2.19-1.36-.82-3.29.75-1.05,2.77-1.13.65-4-1-1.32,2.66-3.71,3.61-6.29.19-.52.77-.77,1.17-1.15-4.41-3.31,3.87-8.58-1-12-.61-.43.41-.8.65-1.23,1.68-2.94.83-4.78-1.45-5.95-.9-.46-2.66-.63-2.36-1.88.84-3.57-1.55-7.4.64-10.7.44-.67.92-1.47,1.6-.83,1.87,1.76,1.48-1.79,2.51-1.95-.92-1.09.21-3.9-2-4.06-1.24-.09-2.56-.8-2.68-3.09ZM457.94,175.09c-.09.39-.18.72-.25,1.06-.65,3,.5,4.71,2.28,5.82,1,.59,2.18,2.38,3.06.73,1-1.9-.48-3.91-.73-5.91a11.93,11.93,0,0,1-.26-1.53c0-2.51-.34-4.62-2.69-4.58C456.44,170.73,457.88,173.34,457.94,175.09Zm-48.06,85.1c-.29.17-.68.31-.67.39a3,3,0,0,0,.29,1.4c.31.39.75.13.77-.47A4.22,4.22,0,0,0,409.88,260.19Z" transform="translate(-398.18 -106)"/><path class="cls-1" d="M483,307.89c-1.15,12.56,1.81,24.5,3.15,36.63,2.06,18.61,4.37,37.18,6.53,55.77,1.37,11.81,2.81,23.6,3.22,35.52.24,6.88-.65,13.82-1,20.74-2.46,6.43-3,13.76-5,20.4-2.23,2.44-3,5.74-3,9.52l0-.05c-1.26,1-.8,2.67-.84,4.14-3.82,11.81-7.83,23.47-13.58,33.8-1,1.77-1.68,4-3.59,4.42-1.38.05-2.11-1.58-3.2-2.3,2-6.85,6.79-10.67,9.43-17.07,6.51-15.82,11-32.65,14.83-49.9.41-1.83,1.33-3.94.15-6,.39-2.4,2.22-3.62,2.36-6.44.45-9-.08-10.39-6.4-13.49a8.36,8.36,0,0,1-3.46-2.57c2.32.85,4.69,1.53,6.95,2.6,1.84.86,2.92.18,2.85-2.38-.17-6.08,2.28-12.62-1.8-18.16-.66-.89-.81-3.75-.72-5.27.84-13.73-2.69-26.68-3.47-40.1-.29-5-1.43-9.73-5.83-11.06-.91-.28-1.67-1.52-3.24-3,3.4-.13,5.4,1.74,7.85,4.06-2-17.18-4.06-33.56-5.9-50-.56-4.95-2.55-7.82-5.78-9.38a3.51,3.51,0,0,1-2-2.2l0-.05c2.39-.13,4.26,2,6.7,3.11-1.14-15.86-3.85-31.1-4.21-46.67,2.61,3.7,2.12,8.29,2.57,12.56.76,7.21,1.71,14.39,2.39,21.61A204,204,0,0,0,481.76,307c.09.44.82.63,1.25.94Z" transform="translate(-398.18 -106)"/><path class="cls-1" d="M534.21,424.13c-.84-.28-2.75.08-1.73-1.9,1.25-2.42.6-6.73,4-7.39.93-.19,2.36-2.26,1.62-5.1-.8-3.05,2.16-3.89,2.69-6.47.72-3.5,1.91-6.7,1.63-10.62a14.19,14.19,0,0,1,3.2-9.52c3-3.63.78-7.41.86-10.87.06-2.4-1.86,1.65-3.08.15-.07-3.57,1.47-5.18,3.86-5.82,1.79-.48,3-1.91,3.24-4.48.26-2.88-1.94-2.1-2.85-3.31,2.17-1.3,4,.81,6.08.67-2.25,9.6-4,19.38-6.58,28.91-1.91,7-3.24,14.61-5.07,21.85-.52,2-.76,4.21-2.31,5.22C537,417.26,537.17,422.6,534.21,424.13Z" transform="translate(-398.18 -106)"/><path class="cls-1" d="M413,347.77c2.23.69,2.45-2.12,3.17-4a3.42,3.42,0,0,1,.61,4c-1.77,4.51-.74,8.46,1.1,12.26.4.81,1.23,2,1.68,1.87,4-1.15,4.39,2.53,4.36,6.25a24,24,0,0,0,3.63,13.21,4.62,4.62,0,0,1,.18,1.53c-1.23.08-1.76-1.18-2.4-2.3A138.82,138.82,0,0,1,413,350.89,11.38,11.38,0,0,1,413,347.77Z" transform="translate(-398.18 -106)"/><path class="cls-1" d="M448.24,427.74c2-.32,3.52.19,4.81,2.85.71,1.49,1.77,4.28,4,2.72.22-.15.92.23,1,.51,1.58,8.17,9.21,8.22,11.2,15.81-5.62-.72-9.37-5.83-13.09-10.82-1.74-2.34-3.54-4.52-5.39-6.67C449.7,430.94,448.27,430.06,448.24,427.74Z" transform="translate(-398.18 -106)"/><path class="cls-1" d="M486.86,486.47c0-3.78.8-7.08,3-9.52C489.21,480.32,488.87,483.9,486.86,486.47Z" transform="translate(-398.18 -106)"/><path class="cls-1" d="M427.75,382.86c2.68-1.63,2.76.42,2.37,3.15l0,0a1.47,1.47,0,0,0-1.58,1.1C427.5,386,427.78,384.37,427.75,382.86Z" transform="translate(-398.18 -106)"/><path class="cls-1" d="M446.51,425.37c.71.1,1.14.61,1.27,1.58A1.69,1.69,0,0,1,446.51,425.37Z" transform="translate(-398.18 -106)"/><polygon class="cls-1" points="72.77 344.01 73.14 344.03 72.94 344.38 72.77 344.01"/><path class="cls-1" d="M445.41,423.39l.62,1.2Z" transform="translate(-398.18 -106)"/><path class="cls-1" d="M435.88,309.59c3.92,2.84,7.17,7,10.42,11,2.42,3,4.4,6.63,6.54,9.93.1-.1-.22.3-.27.25q-8.25-9.76-16.46-19.63c-.23-.27-.17-1-.24-1.51Z" transform="translate(-398.18 -106)"/><path class="cls-1" d="M461.25,337.3l15.6,14.32c-6.62-1.67-11-8.31-16.37-12.65Z" transform="translate(-398.18 -106)"/><path class="cls-1" d="M501,335.09c-2.36,5.62-4.17,11.77-9.58,14.2.86-3.44,3.25-4.46,4.1-7,.58-1.72,3.1-2.08,1.75-5.45C496.91,336,499.81,336.51,501,335.09Z" transform="translate(-398.18 -106)"/><path class="cls-1" d="M495.83,210.76c.92-8.18,5-15.1,4.11-23.86C502.53,196.25,498.67,203.38,495.83,210.76Z" transform="translate(-398.18 -106)"/><path class="cls-1" d="M515.23,239.86c-1.86,4.18-1.87,9.78-4.93,13.13C510.25,247.46,512.51,243.51,515.23,239.86Z" transform="translate(-398.18 -106)"/><path class="cls-1" d="M516.54,235.93A45.66,45.66,0,0,1,520,223.81c.43-.94,1.11-1.83,1.87-1,1.12,1.22-.25,1.55-.6,2.25-1.74,3.49-1.56,8.51-4.61,11Z" transform="translate(-398.18 -106)"/><path class="cls-1" d="M453,280.09c-3.13-2.7-6.3-5.33-8.45-9.65l.12-.16c3.76,1.63,6.69,4.66,8.47,9.59Z" transform="translate(-398.18 -106)"/><path class="cls-1" d="M532.59,281.8c-1.08,3.64-4.19,1.22-6,3.42.75-2.64,1.51-5.28,2.26-7.92-.09,3.84,1,5.34,3.75,4.47Z" transform="translate(-398.18 -106)"/><path class="cls-1" d="M496.18,287.76c.75-4.41,3.28-7.26,5.08-10.76-.43,4.68-1.95,8.43-5,10.92Z" transform="translate(-398.18 -106)"/><path class="cls-1" d="M448.66,213.1c-2.75-1.91-5.36-4-6.1-8.61h0c2.95,1.59,5,4.49,6.2,8.46Z" transform="translate(-398.18 -106)"/><path class="cls-1" d="M522.71,208.65c-2.65,2.89-1,7.39-2,11.15C519,214.32,519.67,210.35,522.71,208.65Z" transform="translate(-398.18 -106)"/><path class="cls-1" d="M466.86,291.81c-3.18-1.73-6.61-2.92-8.52-7.43l.09-.14c3,2.16,6.16,3.91,8.43,7.58Z" transform="translate(-398.18 -106)"/><path class="cls-1" d="M545,276.58c-3.06-.08-5.44,3.32-8.52,3.12h0c1.95-3.23,4.93-3.59,7.53-5,.67-.35.87,1,1,1.87Z" transform="translate(-398.18 -106)"/><path class="cls-1" d="M444.51,270.44c-2.28-.75-3.42-3-4.74-6.71,2.69,1.84,4.33,3.41,4.86,6.55Z" transform="translate(-398.18 -106)"/><path class="cls-1" d="M532.75,267l-2.37,7.74a13.64,13.64,0,0,1,1.46-8.49Z" transform="translate(-398.18 -106)"/><path class="cls-1" d="M488.46,300.52c-.43,4.4-3.17,5.56-5.45,7.37h0c.53-4.25,3.73-4.79,5.44-7.4Z" transform="translate(-398.18 -106)"/><path class="cls-1" d="M426,305.25c1.25-1.73,3-.44,4-2.35.5-1,1.11,0,1.4.8.41,1.18-.1,1.65-.84,1.59C429.1,305.19,427.73,307.41,426,305.25Z" transform="translate(-398.18 -106)"/><path class="cls-1" d="M431.82,351c-3.61,2-3.06-1.93-3.88-5.07a13.4,13.4,0,0,1,3.87,5.08Z" transform="translate(-398.18 -106)"/><path class="cls-1" d="M458,221.58c1.89,1.2,4.28,1.23,5.4,4.29l-.06.1c-2.33-.19-4.14-1.58-5.41-4.29Z" transform="translate(-398.18 -106)"/><path class="cls-1" d="M517.43,364.41a8.3,8.3,0,0,1,2.8-6.44,8.13,8.13,0,0,1-2.67,6.62Z" transform="translate(-398.18 -106)"/><path class="cls-1" d="M504.88,267.79a9,9,0,0,1-2.94,7.47c.19-3.6,1.74-5.44,2.86-7.59Z" transform="translate(-398.18 -106)"/><path class="cls-1" d="M471.46,296.13c-2.08-.35-4.15-.7-4.6-4.32h0a6.45,6.45,0,0,1,4.63,4.26Z" transform="translate(-398.18 -106)"/><path class="cls-1" d="M453.1,279.87c2.29.28,3.92,2.07,5.33,4.37l-.09.14c-2.33-.15-4.11-1.61-5.38-4.29Z" transform="translate(-398.18 -106)"/><path class="cls-1" d="M426.72,295.63c1.83.69,3.2,1.81,2.55,5.72-1.32-2-2.47-3.32-2.65-5.58Z" transform="translate(-398.18 -106)"/><path class="cls-1" d="M456.46,333.33c.47.09,1,0,1.38.3a4.44,4.44,0,0,1,1.72,2.66C457.79,337,457.06,335.35,456.46,333.33Z" transform="translate(-398.18 -106)"/><path class="cls-1" d="M514.73,309.3c-.19,2.24-1.48,3.4-2.64,4.71.19-2.22.32-4.47,2.51-4.87Z" transform="translate(-398.18 -106)"/><path class="cls-1" d="M534.4,330.47c0,2.89-1.38,3.65-2.2,4.91A4.7,4.7,0,0,1,534.4,330.47Z" transform="translate(-398.18 -106)"/><path class="cls-1" d="M424.62,238.33c.86,1.72,2.41,3,2,6.21-2.09-1.6-2-3.93-1.95-6.22Z" transform="translate(-398.18 -106)"/><path class="cls-1" d="M422.61,338.15a6.27,6.27,0,0,1-1.46-.55c-.65-.46-1.5-.82-1.45-2.13,0-.38.37-1,.59-1.06.93-.1,1.24,1,1.6,1.89l.71,1.86Z" transform="translate(-398.18 -106)"/><path class="cls-1" d="M496.5,397.25c-.16,2.08-.95,3.36-2.8,3.93.2-2.62,1.2-3.64,2.79-3.94Z" transform="translate(-398.18 -106)"/><path class="cls-1" d="M520.81,296.42c.61-2.25,1.29-4.41,3.15-5.25l.13.16c-.5,2.34-1.33,4.32-3,5.4Z" transform="translate(-398.18 -106)"/><path class="cls-1" d="M512.06,373c.23-2,.9-3.51,2.87-3.94-.25,2.61-1.22,3.71-2.88,3.93Z" transform="translate(-398.18 -106)"/><path class="cls-1" d="M507.17,339.92c.43,1.55,1.52,2.92.75,4.68-.09.21-.82.26-.95,0C506,343.09,507,341.53,507.17,339.92Z" transform="translate(-398.18 -106)"/><path class="cls-1" d="M504.8,267.67c.34-2.12.86-4.1,2.29-5.35l.15.18c-.2,2.25-.33,4.57-2.36,5.29Z" transform="translate(-398.18 -106)"/><path class="cls-1" d="M518.46,301.68a6.65,6.65,0,0,1,2.35-5.26l.26.31a7,7,0,0,1-2.4,5.23Z" transform="translate(-398.18 -106)"/><path class="cls-1" d="M508.16,380.36c0-1.72,0-3.48,1.94-4,.09,2.14-.29,3.58-1.94,4Z" transform="translate(-398.18 -106)"/><path class="cls-1" d="M493.92,293.15c-.32,2.39-1.28,3.91-3.09,4.26l-.09-.12c.81-1.72,1.11-4.16,3.11-4.22Z" transform="translate(-398.18 -106)"/><path class="cls-1" d="M410.26,341.27c-.42-1.45-.71-3,1-2.79,1,.13,1.52,1.67,1.1,2.88-.63,1.79-1.42,0-2.14-.19Z" transform="translate(-398.18 -106)"/><path class="cls-1" d="M524,291.17c.15-1.65,0-3.55,2.07-3.79.09,2.14-1,3-1.94,3.95Z" transform="translate(-398.18 -106)"/><path class="cls-1" d="M435.87,309.6c-1.14-.21-2.2-.59-3-2.66,1.73-.21,2.68.45,3,2.65Z" transform="translate(-398.18 -106)"/><path class="cls-1" d="M503.46,387.72a5.33,5.33,0,0,1,2-4.06c.14,2.38-.36,3.66-1.9,4.12Z" transform="translate(-398.18 -106)"/><path class="cls-1" d="M507.09,262.32c.21-1.6-.22-3.46,1-5.14,1,2.51,0,3.9-.85,5.32Z" transform="translate(-398.18 -106)"/><path class="cls-1" d="M436.87,260.76c-1.33-.32-2.38-1-2.05-3.68a3.81,3.81,0,0,1,2.08,3.63Z" transform="translate(-398.18 -106)"/><path class="cls-1" d="M539.3,320c.27-2.16.94-3.5,3.38-2.46l-3.3,2.58Z" transform="translate(-398.18 -106)"/><path class="cls-1" d="M448.75,213c1.21.19,2.59,0,2.75,2.82-1.58.21-2.17-1.34-2.84-2.68Z" transform="translate(-398.18 -106)"/><path class="cls-1" d="M420.61,357.39a16.19,16.19,0,0,1,.7,1.85c0,.08-.65.67-.73.58a5,5,0,0,1-.81-1.46C419.74,358.28,420.21,357.85,420.61,357.39Z" transform="translate(-398.18 -106)"/><path class="cls-1" d="M500.64,391.42a3.67,3.67,0,0,1,.37,1.16c-.05,1.07-.61,1.47-1.32,1.28a1.94,1.94,0,0,1-.21-1.22C499.61,392,499.84,391.31,500.64,391.42Z" transform="translate(-398.18 -106)"/><path class="cls-1" d="M534.23,259.49c0,1.38.08,2.84-1.16,3.72a2.87,2.87,0,0,1,1.16-3.72Z" transform="translate(-398.18 -106)"/><path class="cls-1" d="M526.62,348.44c-.63-1.7-.6-2.56-.15-3.28.27-.43.86-.35.85.17A16.5,16.5,0,0,1,526.62,348.44Z" transform="translate(-398.18 -106)"/><path class="cls-1" d="M496.49,397.24c.15-1,.31-2.09,1.32-1.89a1.35,1.35,0,0,1,.57.95c-.35,1.22-1.2.8-1.88.95Z" transform="translate(-398.18 -106)"/><path class="cls-1" d="M493.85,293.07c-.06-1.83.28-3.37,1.56-4.26l.12.16c0,1.81-.29,3.35-1.61,4.18Z" transform="translate(-398.18 -106)"/><path class="cls-1" d="M476.58,192a7.35,7.35,0,0,1,1.57-4.23l.06.07c-.16,1.67.39,3.83-1.56,4.24Z" transform="translate(-398.18 -106)"/><path class="cls-1" d="M514.6,309.14c.13-1.32-.07-2.87,1.25-3.49.86,2-.18,2.77-1.12,3.65Z" transform="translate(-398.18 -106)"/><path class="cls-1" d="M537,325.34c.15-1.68-.42-3.84,1.55-4.26l.08.11A7.11,7.11,0,0,1,537,325.4Z" transform="translate(-398.18 -106)"/><path class="cls-1" d="M518.67,302c-.2,1-.27,2.05-1.16,2.31-.1,0-.38-.39-.39-.63a1.72,1.72,0,0,1,1.34-2Z" transform="translate(-398.18 -106)"/><path class="cls-1" d="M527.92,342.2c.16-.17.31-.47.49-.49.44-.06.61.36.47.87a.6.6,0,0,1-.55.36C528.19,342.92,528.09,342.53,527.92,342.2Z" transform="translate(-398.18 -106)"/><path class="cls-1" d="M530.13,338.37l.33.72-.74.56c-.07-.29-.23-.63-.16-.84S529.92,338.52,530.13,338.37Z" transform="translate(-398.18 -106)"/><path class="cls-1" d="M537,325.4c-.1.68-.11,1.46-.75,1.57-.13,0-.44-.4-.43-.58.08-.89.63-1,1.13-1.05Z" transform="translate(-398.18 -106)"/><path class="cls-1" d="M426,344.84c.09-.29.14-.74.29-.83s.53.16.59.37-.16.56-.25.85Z" transform="translate(-398.18 -106)"/><path class="cls-1" d="M427.27,329.69c-.1.76-.08,1.66-.93,1.59a.44.44,0,0,1-.23-.33c0-1.16.62-1.11,1.18-1.24Z" transform="translate(-398.18 -106)"/><path class="cls-1" d="M431.81,351c.48.11,1.05.1,1.15,1,0,.17-.3.6-.42.58-.64-.13-.66-.89-.72-1.57Z" transform="translate(-398.18 -106)"/><path class="cls-1" d="M544.3,376.84l.62.38c-.09.29-.14.73-.29.81s-.4-.2-.61-.33C544.11,377.42,544.2,377.13,544.3,376.84Z" transform="translate(-398.18 -106)"/><path class="cls-1" d="M469.6,203.67c.4-1.45,1.16-2.18,2.31-2.13l0,0c-.46,1.37-1.22,2.11-2.34,2.09Z" transform="translate(-398.18 -106)"/><path class="cls-1" d="M472.64,199.38c.13-.77.22-1.62,1-1.55.09,0,.23.2.24.32.07,1.1-.52,1.25-1.1,1.43Z" transform="translate(-398.18 -106)"/><path class="cls-1" d="M488.45,300.5c0-1.34.51-2.1,1.51-2.19l.12.17c-.08,1.37-.65,2-1.62,2Z" transform="translate(-398.18 -106)"/><path class="cls-1" d="M489.26,351.46c.17-.2.33-.54.49-.54.43,0,.6.44.41.94a.57.57,0,0,1-.58.33C489.44,352.15,489.36,351.73,489.26,351.46Z" transform="translate(-398.18 -106)"/><path class="cls-1" d="M536,253.53c.08.3.28.68.21.88s-.4.26-.62.38c-.08-.31-.28-.68-.22-.89S535.78,253.64,536,253.53Z" transform="translate(-398.18 -106)"/><path class="cls-1" d="M534.23,259.49c.12-.59-.15-1.58.73-1.37a.51.51,0,0,1,.27.37c.15,1.22-.57.83-1,1Z" transform="translate(-398.18 -106)"/><path class="cls-1" d="M532.57,281.77c.35-.82.86-1.11,1.52-.83.09,0,.13.26.2.4l-1.7.46Z" transform="translate(-398.18 -106)"/><path class="cls-1" d="M551.09,290.43c-.43-.15-1.13.22-1-1a.51.51,0,0,1,.26-.36c.89-.19.56.82.71,1.37Z" transform="translate(-398.18 -106)"/><path class="cls-1" d="M454.88,332.11l-.21.36a1.07,1.07,0,0,1-.15-.42c0-.13.13-.24.2-.36Z" transform="translate(-398.18 -106)"/><path class="cls-1" d="M430.12,386c.18.37.37.74.54,1.13l-.27.25c-.1-.45-.2-.89-.31-1.34Z" transform="translate(-398.18 -106)"/><path class="cls-1" d="M502.77,388.87l-.42,1.35c-.09-.11-.27-.29-.26-.32.17-.41.37-.8.57-1.19Z" transform="translate(-398.18 -106)"/><path class="cls-1" d="M545,276.59l1,.38c-.56,1-.7,0-1-.39Z" transform="translate(-398.18 -106)"/><path class="cls-1" d="M464.87,227l1,.47a4,4,0,0,1-.21.36c-.28-.23-.56-.49-.83-.74Z" transform="translate(-398.18 -106)"/><path class="cls-1" d="M463.35,225.87a1.5,1.5,0,0,1,1.52,1.09l-.05.09a1.53,1.53,0,0,1-1.53-1.08Z" transform="translate(-398.18 -106)"/><path class="cls-1" d="M516.61,236l-.34,1.38a3.43,3.43,0,0,1-.28-.28c.17-.41.36-.8.55-1.19Z" transform="translate(-398.18 -106)"/><path class="cls-1" d="M457.88,221.68l-1-.49a3.85,3.85,0,0,1,.21-.38c.29.24.57.51.86.77Z" transform="translate(-398.18 -106)"/><path class="cls-1" d="M522.8,398.6a1.54,1.54,0,0,1-1.6,1h0a1.53,1.53,0,0,1,1.49-1.14Z" transform="translate(-398.18 -106)"/><path class="cls-1" d="M472.8,199.58c-.28.67-.57,1.33-.86,2l0,0a2.8,2.8,0,0,1,.73-2.16Z" transform="translate(-398.18 -106)"/><path class="cls-1" d="M438.43,261.78c.2.4.4.79.58,1.2l-.29.28c-.11-.46-.22-.93-.34-1.4Z" transform="translate(-398.18 -106)"/><path class="cls-1" d="M436.9,260.71a1.51,1.51,0,0,1,1.53,1.07l-.05.08a1.48,1.48,0,0,1-1.51-1.1Z" transform="translate(-398.18 -106)"/><path class="cls-1" d="M512.05,373l-.29,1.42-.3-.26.6-1.15Z" transform="translate(-398.18 -106)"/><path class="cls-1" d="M434.58,318.85c.1,0,.27.09.27.14a2.16,2.16,0,0,1-.1.44c-.1,0-.27-.09-.27-.14A1.85,1.85,0,0,1,434.58,318.85Z" transform="translate(-398.18 -106)"/><path class="cls-1" d="M486.72,179.38l-1-.4c.59-1,.74,0,1,.43Z" transform="translate(-398.18 -106)"/><path class="cls-1" d="M476.65,192.1a2.59,2.59,0,0,1-.79,2.12l-.07-.09a2.55,2.55,0,0,1,.79-2.11Z" transform="translate(-398.18 -106)"/><path class="cls-1" d="M475.86,194.22l-.38,1.37c-.09-.11-.28-.29-.27-.3.18-.4.38-.78.58-1.16Z" transform="translate(-398.18 -106)"/><path class="cls-1" d="M517.56,364.59l-.43.4.3-.57Z" transform="translate(-398.18 -106)"/><path class="cls-1" d="M442.56,204.49l-.32-.24.31.25Z" transform="translate(-398.18 -106)"/><path class="cls-1" d="M519.72,401.78l-.45.43c.1-.2.21-.4.32-.6Z" transform="translate(-398.18 -106)"/><path class="cls-1" d="M520.43,400.65c-.24.38-.48.75-.71,1.13l-.13-.17.83-1Z" transform="translate(-398.18 -106)"/><path class="cls-1" d="M520.42,400.64l.78-1.05h0l-.77,1.06Z" transform="translate(-398.18 -106)"/><path class="cls-1" d="M522.69,398.45l.42-.41-.31.56Z" transform="translate(-398.18 -106)"/><path class="cls-1" d="M424.9,341.37l.32.25-.31-.26Z" transform="translate(-398.18 -106)"/><path class="cls-1" d="M525.16,396.53l-.46.38.29-.62Z" transform="translate(-398.18 -106)"/><path class="cls-1" d="M525,396.29l.45-.36-.28.6Z" transform="translate(-398.18 -106)"/><path class="cls-1" d="M424.91,341.36l-.32-.24.31.25Z" transform="translate(-398.18 -106)"/><path class="cls-1" d="M536.45,279.7l-.33.43a.9.9,0,0,1,.06-.27,1,1,0,0,1,.27-.17Z" transform="translate(-398.18 -106)"/><path class="cls-1" d="M495.41,288.81l.77-1.05.11.16-.76,1Z" transform="translate(-398.18 -106)"/><path class="cls-1" d="M539.38,320.15l-.77,1-.08-.11.77-1.05Z" transform="translate(-398.18 -106)"/><path class="cls-1" d="M527.49,212.68l-.17.46.18-.44Z" transform="translate(-398.18 -106)"/><path class="cls-1" d="M502.66,388.71l.8-1,.05.06c-.25.36-.5.72-.74,1.09Z" transform="translate(-398.18 -106)"/><path class="cls-1" d="M423.57,290.4l-.3-.51.36.43Z" transform="translate(-398.18 -106)"/><path class="cls-1" d="M490,298.31l.78-1,.09.12-.75,1.07Z" transform="translate(-398.18 -106)"/><path class="cls-1" d="M468.82,204.73l.78-1.06h0l-.78,1.05Z" transform="translate(-398.18 -106)"/><path class="cls-1" d="M507.37,381.4l-.17.44.19-.42Z" transform="translate(-398.18 -106)"/><path class="cls-1" d="M422.6,338.16l.33.43c-.07,0-.16,0-.2-.07a2,2,0,0,1-.12-.37Z" transform="translate(-398.18 -106)"/><path class="cls-1" d="M508.16,380.35l-.79,1,0,0,.77-1.06Z" transform="translate(-398.18 -106)"/><path class="cls-1" d="M457.94,175.09c-.06-1.75-1.5-4.36,1.41-4.41,2.35,0,2.66,2.07,2.69,4.58a11.93,11.93,0,0,0,.26,1.53c.25,2,1.73,4,.73,5.91-.88,1.65-2.1-.14-3.06-.73-1.78-1.11-2.93-2.84-2.28-5.82C457.76,175.81,457.85,175.48,457.94,175.09Z" transform="translate(-398.18 -106)"/><path class="cls-1" d="M409.88,260.19a4.22,4.22,0,0,1,.39,1.32c0,.6-.46.86-.77.47a3,3,0,0,1-.29-1.4C409.2,260.5,409.59,260.36,409.88,260.19Z" transform="translate(-398.18 -106)"/><path class="cls-1" d="M551.87,287.27c.09-.78.08-1.69.93-1.61a.43.43,0,0,1,.24.34c.05,1.17-.6,1.15-1.17,1.27Z" transform="translate(-398.18 -106)"/></svg>