<svg id="Layer_1" data-name="Layer 1" xmlns="http://www.w3.org/2000/svg" viewBox="0 0 333.82 432"><defs><style>.cls-1{fill:#8dc63f;}.cls-2{fill:#99c864;}.cls-3{fill:#fff;}</style></defs><title>monkey puzzle</title><path class="cls-1" d="M92,353.71c-2.18-6.22-1.22-9.4,3.54-13.43,4.38-3.72,8.73-7.51,12.88-11.59,6-5.93,12.76-9.79,20.49-11,.67-.1,1.32-.31,2.27-.54-3.06-6.14-6.65-10.24-12.67-11.28a20.13,20.13,0,0,1-10-5.07c-5.36-5.05-11.83-9.24-14.19-17.67a63.54,63.54,0,0,1-1.94-14.57c-.1-3,.47-3.08-2.38-4.71,2.23-2.23,2.34-4.68.85-7.58-.65-1.26-1.23-3.66-.71-4.54,2.11-3.53-.3-4-1.74-6-1.6-2.18-2.08-5.6-3-8.51A1.58,1.58,0,0,1,86,236c4.61-3,8.4-8.06,14.25-7.86,3.21.11,6.43-.3,10.08-.51-3.44-3.41-6.67-6.23-9.52-9.54a83.69,83.69,0,0,1-8.55-11.48c-3-5-4.47-10.5-2.45-16.83a14.1,14.1,0,0,0,.27-6.53c-.53-2.67-.24-4.33,2.14-5.08a23.6,23.6,0,0,1,.43-14.87c.57-1.61.24-3.65.54-5.43.19-1.12.57-2.61,1.26-3.12,3.49-2.53,7.11-4.8,10.36-6.95-.14-2.24-.22-4.92-.52-7.57-.12-1-1-1.92-1.11-3-.62-5-2.57-10.84-1.19-14.94,1.25-3.68.57-7.53,2.09-10.73,2.6-5.45,5.52-10.61,11.82-9.75a34.88,34.88,0,0,1,1.53-18.09c.39-1.15,1.54-1.91,2.36-2.84a9.73,9.73,0,0,0,1.45-1.63c.88-1.65,1.63-3.4,2.44-5.1,2.61-5.47,3.07-5.74,7.62-4.75,2.65-7.88,5.26-15.69,7.56-22.55a14.82,14.82,0,0,1,2.61-1.42c.68-.17,1.69-.37,2.09.07,4.22,4.58,10.32,6.9,12,14.59.26,1.18.59,2.32,1,4,4.06-2.59,5.9.95,8.22,4.3,5.62,8.13,3.84,7.15,5,17.1.55-.16,1.27-.09,1.57-.5,2.67-3.59,4.87-1.76,7.23.62,1,1,2.47,1.45,3.65,2.3a6.06,6.06,0,0,1,1.76,2c3.72,7,6.9,14.26,6.1,23,4.17.58,8.15-1.59,12.31,1.92,3.91,3.3,4.9,7.63,6,12.38,4.07-.7,4.45-.57,5.61,4.51,2.31,10.12,2,20-2.4,29.34-.65,1.37-1.22,2.79-1.72,3.92,4.81.36,9.59.82,14.39,1.06,3.28.16,5.08,2,6,5.85,1.74,6.92,3.11,13.79,1.09,21,6.93,1.68,7,1.69,5.85,10.2-1.7,12.57-7,22.88-14,32-1.17,1.52-2.3,3.09-3.45,4.63.12.25.19.59.3.61,5.7,1,11.43,1.8,17.09,3.06a4.83,4.83,0,0,1,2.67,3.54c.23,5.62.11,11.28-.12,16.91a35.58,35.58,0,0,1-1.21,7.57,63.67,63.67,0,0,1-2.55,6.68c4.66,4,4.74,4.28,2.73,11.05-3.05,10.28-9.6,16.24-17.42,20.41-9.55,5.09-19.36,9.48-28.76,14.94-7.75,4.51-14,11.29-16.66,21.86a16.71,16.71,0,0,0-.25,2.58l.78.63c3.32-3.28,6.52-6.74,10-9.78,2.59-2.28,5.34-4.9,8.34-5.77,4.72-1.36,9.68-2.67,14.55.21,1.58.93,3.56.77,5.27,1.44,2.5,1,4.83,2.11,5.92,5.66.43,1.39,2.21,2.37,3.54,3.1,3.75,2.08,4.95,4.36,3.87,9.25-.69,3.15-2,6.12-2.43,9.31-.41,2.12-.52,4.41-1.27,6.34-2.43,6.27-6.24,10.83-11.78,13.06-.64.25-1.61,1.38-1.52,1.85.65,3.45-1.52,4.55-3.27,5.32-7.38,3.27-14.63,4.39-21.56-2.06a19.07,19.07,0,0,0-7.73-4c-1.21-.34-3.27.82-4.14,2.1-3.11,4.6-3.51,10-2.37,15.72a29.5,29.5,0,0,1,.31,3.79c-1.35.05-2.79.45-4,0a3.62,3.62,0,0,1-1.87-2.68c-.12-3.42.23-6.87.23-10.31a40.24,40.24,0,0,0-.46-7c-1.24-7.15-2.69-8.39-8.55-9-3.08-.31-6.14-2.11-9.15-1.92-9.11.58-17.17,4.07-22.15,14.4-1.57,3.24-3.44,3.71-6.07,1.2-1.54-1.47-2.69-1.36-4.35-.6a12.62,12.62,0,0,1-11.83-.38c-2.76-1.51-6.12-1.79-7.35-6.25-.26-.92-2-1.34-3.18-1.77-4.14-1.56-4.81-2.6-4.81-7.83a8.67,8.67,0,0,0,0-1.84C86.62,362.57,87.16,359.63,92,353.71Z"/><line class="cls-2" x1="147.63" y1="74.09" x2="168.55" y2="350.61"/><path class="cls-3" d="M147.63,74.09c3.19,22.93,5.69,45.92,8,68.92,1.19,11.5,2.13,23,3.19,34.52l2.81,34.55L164,246.66c.68,11.54,1.49,23.07,2,34.61,1.24,23.09,2.22,46.19,2.51,69.34-3.2-22.93-5.7-45.92-8-68.92-1.2-11.5-2.13-23-3.2-34.53l-2.8-34.55L152.18,178c-.68-11.53-1.48-23.06-2-34.61C148.92,120.34,147.93,97.24,147.63,74.09Z"/><path class="cls-3" d="M224.42,266.81c-5.32,5-10.53,9.85-15.47,15s-9.68,10.42-14.23,15.88-8.89,11.09-13.16,16.84-8.42,11.59-12.81,17.4a124.74,124.74,0,0,1,9.54-19.58,139.9,139.9,0,0,1,12.59-17.86,123.62,123.62,0,0,1,15.4-15.55A94.71,94.71,0,0,1,224.42,266.81Z"/><path class="cls-3" d="M220.05,220.46c-5.33,5-10.54,9.85-15.48,15s-9.68,10.42-14.22,15.88-8.9,11.09-13.17,16.84-8.42,11.59-12.81,17.4A124.74,124.74,0,0,1,173.91,266a139.9,139.9,0,0,1,12.59-17.86,123.62,123.62,0,0,1,15.4-15.55A94.47,94.47,0,0,1,220.05,220.46Z"/><path class="cls-3" d="M204.38,188.94c-4,4-8,7.77-11.84,11.73s-7.48,8-11,12.16-7,8.44-10.36,12.79-6.74,8.78-10.36,13.13a83.36,83.36,0,0,1,7.11-15.33,96.42,96.42,0,0,1,9.8-13.83,87.39,87.39,0,0,1,12.19-11.83A65.33,65.33,0,0,1,204.38,188.94Z"/><path class="cls-3" d="M189.57,156c-3,3.51-5.93,6.8-8.78,10.17s-5.63,6.75-8.35,10.19-5.4,6.93-8.09,10.46-5.41,7.08-8.44,10.53A62,62,0,0,1,161,184.71a75.9,75.9,0,0,1,7.48-11.43,67.83,67.83,0,0,1,9.52-9.87A48.82,48.82,0,0,1,189.57,156Z"/><path class="cls-3" d="M176.77,132.43c-1.93,3-3.94,5.7-5.9,8.42L165,148.93c-2,2.69-3.94,5.38-6,8.06a88,88,0,0,1-6.65,7.92,40.94,40.94,0,0,1,3.29-9.95,53.81,53.81,0,0,1,5.31-9,49.28,49.28,0,0,1,7-7.77A33.72,33.72,0,0,1,176.77,132.43Z"/><path class="cls-3" d="M165.74,333.58c-4.77-5-9.33-10.05-14.1-14.87S142,309.22,137,304.78s-10.3-8.68-15.72-12.72-11-7.89-16.69-11.87a93.61,93.61,0,0,1,18.87,8.6A111.45,111.45,0,0,1,140.28,301a114.68,114.68,0,0,1,14.3,15.1A100.82,100.82,0,0,1,165.74,333.58Z"/><path class="cls-3" d="M164.21,289.82c-4.94-4.71-9.68-9.44-14.62-13.94s-9.94-8.85-15.15-12.95-10.6-8-16.17-11.64-11.3-7.13-17.11-10.72a90.59,90.59,0,0,1,19.09,7.33A106.71,106.71,0,0,1,137.53,259a110.51,110.51,0,0,1,14.87,14.14A97,97,0,0,1,164.21,289.82Z"/><path class="cls-3" d="M160.65,239.23c-3.89-3.74-7.54-7.53-11.29-11.17s-7.52-7.2-11.44-10.6-7.94-6.64-12.1-9.79-8.46-6.17-12.79-9.39a63.19,63.19,0,0,1,14.93,6.1,78,78,0,0,1,13.24,9.31,81.84,81.84,0,0,1,11.1,11.77A69.57,69.57,0,0,1,160.65,239.23Z"/><path class="cls-3" d="M160.18,191.43c-3.37-2.66-6.46-5.4-9.6-8.06s-6.25-5.25-9.43-7.76-6.43-5-9.75-7.36-6.71-4.78-10.1-7.42a46.9,46.9,0,0,1,12.11,4,60,60,0,0,1,20,15.76A48.3,48.3,0,0,1,160.18,191.43Z"/><path class="cls-3" d="M153.72,160.86a84.22,84.22,0,0,1-6.28-6.45l-5.72-6.48c-1.89-2.16-3.76-4.32-5.65-6.54a87.62,87.62,0,0,1-5.55-7.09,29.13,29.13,0,0,1,8.2,4.18,39.19,39.19,0,0,1,6.77,6.16,39.8,39.8,0,0,1,5.18,7.55A29.62,29.62,0,0,1,153.72,160.86Z"/></svg>