<svg id="Layer_1" data-name="Layer 1" xmlns="http://www.w3.org/2000/svg" viewBox="0 0 251.19 456.05"><defs><style>.cls-1{fill:#90c33e;}</style></defs><title>nut87</title><path class="cls-1" d="M409.39,125c21.7-5.6,42-1.85,61.14,9.28,1.24,2.71,4.65,3.1,6.06,5.73.56,1,1.75,2.58,3.09,1.8s.56-2.37.23-3.63c0-.64,0-1.27-.05-1.9.05-1,.09-2,.13-3l.33-4.08,1.71-6,.42-2.73c1.6-1.5,1.68-4.06,3.69-5.28a1.89,1.89,0,0,1,2.16,2c-1.5,2.15-1.26,4.26.08,7.23,1.49-2.85.71-5.11.93-7.24l2-2c1.71.1,3.28,1.05,2.88,2.68-1.1,4.45,1.26,9.27-1.36,13.56-1.74-.65-1.12-2.49-2.2-3.33-.56-.43-1.37-.86-1.67-.16-.94,2.17,2.08,4.26.28,6.69-.18.24,2,.43,3.1.58l.17,1.95,0,0a21,21,0,0,0-5.86,12l0,.06c-2,1.42-1.87,3.72-2.26,5.74-.55,2.81-2.05,3.26-4.43,2.25-.39-.71-.44-2.08-1.73-1.34-.58.33,0,1,.46,1.45,1,1.66,3.92,1.25,4,3.83a1.51,1.51,0,0,0-.06.73c-2.37,3.25-3.26,7.68-7.54,9.38l-3.13.08c-3.2-6.36-9.08-8.11-15.46-8.9-3.43-.42-6.9-.59-9.81-2.79-.66-3.28-2.06-6-5.54-7-.93-.27-2.11-.11-2.25-1.39s1.06-1.4,1.93-1.82,2.32-.6,2.28-2.14c-2.23-1.86-4.57-1.32-6.91-.36-1.8.75-3.44,2-5.54,1.78v-2c3.44-.47,6.25-1.92,8-5.11l8.11,1.83c4,.85,7.64,3.1,11.86,3.08.48,2.51,2.48,1.77,4.08,1.91a10.82,10.82,0,0,0,7.92,3.87c1.44,1.79,2.75,3.54,5.7,2.52-1.57-1.84-3.22-2.41-5.7-2.52-1.47-3.5-4.9-3.27-7.92-3.88-.8-1.71-2.31-2-4-2-3.56-2.77-7.79-3.48-12.1-3.93-2.4-1.82-5.16-2-8-1.82h0c-4.54-1.44-8.9-4.23-13.95-1.92l-15.17-1.94c-1.07-3.36-3.86-1.32-5.83-1.81-1.15-.29-2.38-.36-2.69-1.69s.85-2,1.9-2.47c2.24-1,4.48-2,6.78-2.84C412.82,126.7,409.78,125.94,409.39,125Z" transform="translate(-363.14 -62.15)"/><path class="cls-1" d="M416.14,210.88l12.38-3.12c1.2,0,2.34-1.89,3.6-.12a26.2,26.2,0,0,0,13.77,5.77c6.56.52,13.24.06,19.73,1,4.86.7,9.61,1.33,14.49.78,3.58,1.8,7.57,3.11,10.6,5.6,1.88,1.55,6.05,2.08,5,6.25-2.71,2-3.86-3.26-5.7-2.07,2.15,8.18,5.19,15.7,4.54,24.07l-.94.09c-1.59-.23-3.74.66-4.12-2-.71-3.09-3.14-1.73-5-1.92l0,0c.07-1.53-1.07-1.77-2.2-2.21a183.74,183.74,0,0,0-53.9-12.41c-8.41-1.21-16.84-2.33-25.23-3.66-4.55-.71-9.64-.13-13.69-4.58,3.25-.29,6.05.19,8.09-.85C403.88,218.23,410,214.44,416.14,210.88Zm64.17,13.93c.34,4.34-.71,8.94,2.65,13.82C483.67,233,481.34,229,480.31,224.81Z" transform="translate(-363.14 -62.15)"/><path class="cls-1" d="M446.06,317.21l2.09-.09a13.69,13.69,0,0,0,5.84,0,1,1,0,0,0,.53,0L456,317l2,.07,4.47.06c4.55.59,8.58,4.44,13.58,2.16,3.34,1.62,2.74-1.91,4-3,1.7-3.2,6.33-4.48,5.93-9,1.08,0,1.66,1.06,2.48,1.31,4.07,1.26,4.08,1.17,1.82,5.22a24.55,24.55,0,0,0-1.15,2.68c-2.26,1.89-6.17-.1-7.78,3.33-4,1.85-1.64,6.24-4.44,9.21,6.51-2.17,10-.92,10.84,3.25,1.07-.84-.41-3.09,2-3.47,1.24,5.16-.17,10.24.3,15.26.18,1.93,1.5,4.66-1.94,5.09-2.71.34-5.61.93-6.27-3.4-.33-2.12-.31-4.27-.78-6.53-1.42,1.27-2.21,3.36-4.74,2.67s-1.77-3.64-3.85-4.68c-.46,2.17.73,4.15-.28,6-.66,1.25-1.49,2.82-2.78,1.05-2.27-3.14-6-.71-7.95-2.18-2.28-1.7-1.22-6-4.09-8.07-.1-.06-.3,0-.9.1a13.68,13.68,0,0,0,.9,2.62c2.29,4,.9,4.91-3.29,4.95-2.18,0-4.91-2.14-6.79.82-12.46-3.65-25.69-1.23-38.14-4.9a2.3,2.3,0,0,0,.26-.83c-.21-3.6,6-4.61,3.65-9.07,9.52-5.9,20.05-8.83,31-10.43Z" transform="translate(-363.14 -62.15)"/><path class="cls-1" d="M504.2,332.94c2.79-6.72,8.73-9.68,14.85-12.4.19,1.1-.07,2.27,1.18,3.08a11.36,11.36,0,0,0,13.57-1.09c1.31-1.21,2.9-2.54,4.37-1.7,2.88,1.63,6.39,1.13,8.86,2.32a63.07,63.07,0,0,0,15.38,5.23c.78.15,2.2.51,2.19.73-.28,6.25,2.92.86,4.33,1.26,1.65.45,2.36-1.78,3.88-1.88,1.05-.07,3.24-.32,2.78.87-1.14,2.93,1,2.47,2.34,2.93.75.27,2.13.32,1.74,1.22-2,4.58,1.46,5.53,4.33,6.92,1.82.88,1.53,2.63.32,3.05-3.65,1.25.48,1.94,0,2.85l-10,0c-12.34-1.35-24.72-.73-37.09-.59-1.68,0-4.21-1.16-4.82,1.93l-1.1.06c-3.47-1.47-8.84-2.48-10.57-1.4-4.56,2.83-10,2.28-14.22,5.25-2,1.4-2.31.1-2.53-1.19-.88-5.28-2.88-10.46-1.62-16C503.27,334.23,504.09,334,504.2,332.94Z" transform="translate(-363.14 -62.15)"/><path class="cls-1" d="M476.11,319.25c-5,2.28-9-1.57-13.58-2.16-.46-2.74-2.74-2-4.49-2.37a4.47,4.47,0,0,0-3.05-1.07c-2.79-1.58-5.95-1.48-9-2-5.51-2-11.35-2.48-17-4.28-9.32-3-17.19-8.2-25.13-13.51l0-.47-.05-.46,0,0c1.89.59,3.75,1.5,5.68,1.69,2.78.27,5.13-1.72,3.73-4.06-2.06-3.42-.79-4.42,1.93-5.81,1.07-.54,1.7-1.95,2.53-3l6.14,0c.39,4.3,2.89,4.21,6,3a5.86,5.86,0,0,1,1.93-.1C438,286,444,287.32,450.08,288.8c7,1.71,13.45,5.34,20.82,5.51h0c1.17,3.78,4.36,2.76,7,2.95h0c2.58,2.31,5.75,3.26,9,3.93h0a4.51,4.51,0,0,0,0,1,19.78,19.78,0,0,0-2.21,1.84c-.72.79-2.5,1-2.13,2.29.47,1.64,2.21.64,3.38.9.4,4.57-4.23,5.85-5.93,9C478,316.16,475.78,316.07,476.11,319.25Zm-.91-7.61c2.28.87,3.43,0,4.7-1.95C477.78,309.71,476.36,309.92,475.2,311.64Z" transform="translate(-363.14 -62.15)"/><path class="cls-1" d="M430.71,384.68a11.8,11.8,0,0,1,5.22-3c1.06,0,2.14.07,2.73-1.09.44-.17.87-.35,1.31-.51a1.28,1.28,0,0,0,1.64-.63c3.3-2.49,7.45-2.58,11.15-3.95,3.45-1.43,7.35-.74,12.28-2.14l-10.45-1.87c.93-3.71,4.79-1.66,6.87-3.52s1.92-.86,4.45.95c1.18.85.07,3.2,2.22,2.67-.36,3.27,2.55,3.38,4.23,3.49,9.86.59,17.72,5.54,25.4,11a6.61,6.61,0,0,0,0,.89c0,3.7-.1,7.41.14,11.09.22,3.33-1,6.85,1.05,10,0,2,1.06,5.11-3,3h0c0-1.36-.68-2-2-2h0a12.89,12.89,0,0,0-8.5-5.07c-7-1-13.79-3.47-20.79-4.57-10.57-1.66-21.25-2.55-31.85-4-6-.83-6-1-4.21-7a7.44,7.44,0,0,0-.19-2.45l.95-.45Z" transform="translate(-363.14 -62.15)"/><path class="cls-1" d="M492.32,135.12c-1.1-.15-3.28-.34-3.1-.58,1.8-2.43-1.22-4.52-.28-6.69.3-.7,1.11-.27,1.67.16,1.08.84.46,2.68,2.2,3.33,2.62-4.29.26-9.11,1.36-13.56.4-1.63-1.17-2.58-2.88-2.68.66-1.51,3.21-2.5,1.1-4.82-.56-.62,0-2.09.87-2.63,4.13-2.56,6.7-7.22,11.57-8.71,3.12-1,4.42-2.68,3.27-5.89a.41.41,0,0,1,.51-.33l1.43-.78c.74-.68,1-1.92,2.29-2a1,1,0,0,0,.7-.53l1-.59c3.17.28,6,0,5.93-4.21L523,81.84c2.15.29,1.33,1.57.58,2.34-2,2.06-2.87,3.81.2,5.74.48.31.17,1.87.23,2.85-2.3.4-2.64,2.21-2.93,4.06-1.19.12-2.3.39-2.58,1.78a.67.67,0,0,0,.86.84c1.39-.29,1.63-1.42,1.73-2.61,2.57-.15,3.06-1.86,3-4,.88-.41,1.8-.77,2.64-1.25,1.68-1,3.46-2.81,5.13-.39,1.46,2.11,3.31,5.29,1.28,7.12-3.69,3.32-.7,4.17,1.24,5.71-1.87,6-5.06,11.36-8.4,16.64a1.76,1.76,0,0,0-1.47,2.38,1,1,0,0,1-.46.65c-2.45.76-3.81,2.34-3.77,5l-.05.06a9.73,9.73,0,0,0-5.26,2.65c-4.09,3.83-8,7.88-12,11.78-4.71,4.57-9,9.76-16.36,10.12l-.09-4.14,0-.06c3-3.48,5.76-7.1,5.86-12l0,0c2.41-1.89,3.71-4.43,5.14-7.8C494.44,130.73,494,133.43,492.32,135.12ZM510.37,110l.33-.57-.57.34c-.33.68-.67,1.35-1,2a2,2,0,0,0-1.93,2.07l-.36.52.51-.38a2,2,0,0,0,2-2Zm-5,7,.39-.51-.5.41c-3.32.67-3.67,3.32-4,6-.72.2-1.55.28-1.43,1.35a.45.45,0,0,0,.31.32c1.08.09,1.11-.78,1.31-1.48A11.71,11.71,0,0,0,505.36,117Zm-6.9,9.34c-.25.17-.63.28-.69.48s.16.53.27.81L499,127Z" transform="translate(-363.14 -62.15)"/><path class="cls-1" d="M418.49,248.81c-6.55-3.29-13.15-6.5-19.14-10.8-.11-1.54-.85-2.17-2.38-1.63l-.1-.07c1.38-1.42.77-2.47-.36-3.81s-3-2.53-1.16-4.59l33,3.69c9.06,1.31,18.16,2.38,27,4.91.34,2.14,1.8,3.87,2.38,5.82.92,3.11.7,3.35,3.47,1.54,3.31-2.15,5.95-1.71,8.23,1.43-1.17.12-2.29.37-2.55,1.76a.67.67,0,0,0,.85.84c1.38-.29,1.61-1.41,1.71-2.59a6.38,6.38,0,0,1,2.42,0c1.24.53,2.49-3.09,3.67.16.75,2.05,2.5,3.86-.36,5.69a32,32,0,0,0-3.65,3.17c-.25,3.31-2.72,3-5,3-.83-.11-2.11-1.39-2.37-.16-.35,1.71,1.48.9,2.38,1.16l1,1c-1.25,3.58,1.57,3.29,3.23,2.82,5.52-1.57,11.13-.59,16.67-1-3.19,3.09-7.81,1.15-11.53,3,1.46,2.76,4.85,2.5,6.22,4.85-1.63.24-3.57.82-4.7-.58-3.1-3.87-7.42-2.84-11.4-3.26.55-1.21,1.29-2.12-.87-2.9-10.26-3.68-21.13-4.3-31.63-6.71l-3.07-.82-1-.82-.05-.13C425.89,251.84,422.76,249.07,418.49,248.81Z" transform="translate(-363.14 -62.15)"/><path class="cls-1" d="M471.9,171.3l3.13-.08,1.83,1.89c-2.67,4.25-1.56,8.76-.71,13.17.33,1.74.64,2.94-1.68,3-1.72,0-3.34.11-3.54-2.33a56.53,56.53,0,0,0-1-6.32c-.35-1.74.71-4.94-2.11-4.55-2.14.3.23,2.72.07,4.23s.16,3.23-1.74,3.63c-1.7.35-2-1.36-2.68-2.44-.95-1.53-.49-4-3.62-4.81,1.09,3.54,2.91,6.69,1,10-7.23-2.09-14.37-4.59-22-5a120.62,120.62,0,0,0-32.06-5.78c-2.49-2-5.35-.52-8-.89h0c-3.17-1.47-6.59-1.64-10-1.88-2.41.56-3.82-1.93-6-2l0,0c0-2,0-4,0-6,1.63-1.6,3.8-1.88,5.87-2.38,1.2,1.78,1.77,1.06,2.12-.54,3.32-1.89,7.42-1.69,10.62-3.93,1.64-.43,2.74.38,3.66,1.6,4.9,2.53,1.21-2.49,2.65-3,1.69-.19,3.49.15,5-1,2.25,0,4.55.65,6.74-.43a5.81,5.81,0,0,0,1,1.13c6.84,4.92,14.65,7.83,22.69,9.77,3.35.81,6.3,2.92,9.85,2.83A59.77,59.77,0,0,1,471.9,171.3Zm-13.69,3.38c.28.11.62.39.81.31s.26-.51.37-.79c-.27-.12-.61-.39-.81-.31S458.33,174.4,458.21,174.68Z" transform="translate(-363.14 -62.15)"/><path class="cls-1" d="M432.12,207.64c-1.26-1.77-2.4.15-3.6.12-.81-4-4.8-3.33-7.2-4.13-9.55-3.22-17.6-9.12-26.4-13.64A6.88,6.88,0,0,0,391,187.8l-2.33-1.73c-.46-1.32-1.6-1.52-2.77-1.66a.67.67,0,0,0-.73-.46c-1.84-2.21-4.35-3.3-7-4.14l-.25.27.27-.25c-.89-1.93-3.29-1.82-4.5-3.32,1.15-1.38,1.07-5.16,3.06-4.08,3.05,1.65,4.08-1.08,6.07-1.37l0,0c-.39,5.81,4.14,1.7,6,3,3.2,1.95,6.69.51,10,.89h0a13.61,13.61,0,0,0,8.08,1.83,118.23,118.23,0,0,1,25,4.85c-.43,2.05-1.5,4.26,2.36,4.12,2.24-.09,4,1.42,5.2,3.38,2.51,4.15,4.92,5,8.25.52,1.44-1.93,4.25-.35,6.36-.18,1.07.09.73,1.89-.14,2.39-3,1.73-4.58,5.26-7.95,6.53-1.07.41-2.54.55-2.41,2,.15,1.65,1.87.88,2.84,1.32,2.38,1.1,3.23-.1,3.71-2.31.6-2.72,3.15-2.5,5.15-2.92.93-.2,2.12-.18,2.49,1.05.64,2.17-1.88,2.45-2.46,3.92a6.09,6.09,0,0,0-.22,1c-3.48.06-6.34,2.51-10,2.37-1.7-.07-2.06,1.83-1.93,3.44C439.42,209.39,435.93,205.62,432.12,207.64Zm1.83-18-.22.42.23-.41c.72-.14,1.57-.12,1.5-1.22a.47.47,0,0,0-.32-.31C434.05,188,434.08,188.9,434,189.62Z" transform="translate(-363.14 -62.15)"/><path class="cls-1" d="M589.6,275.19c-1,2.27-3.31,3-5.06,4.48-3.38,2.76-7.2,4.52-10.15,8.41-6.69,8.82-15.14,16.1-27.41,16.1,2.21-2.45,4.69-4.5,8.84-5.07-1.53-.82-2.25-1.18-3-1.59-1.25-.73-3.26-.92-3.44-2.51-.22-2,2.19-1.45,3.26-2.32s3.14-1.58,2.56-3.15c-.69-1.89-2.89-.68-4.4-1-3.05-3-5.69-6.92-11-5.08-2,.71-3-.9-4.23-1.87.13-1.4-.64-1.91-1.91-1.94v-2c.8-3.34,2.56-6.9-2.07-9l-1-1c0-1,0-2,0-3h3c1.1,3,2.39,2.49,3.07-.07.86-3.25,1.25-6.63,1.84-10l3-1a14.55,14.55,0,0,0-.25,1.47c-.31,6.08-5.91,13.09,3.1,17.61.48.24.25,1.87.35,2.85l-1.13.9-2,1.05c-1.5.27-3.33-.35-5.19,1.72,2.61-.08,4.16-.29,5.4-1.49l2-1c2.18-.14,4.4-.17,5.89-2.18h0c4.64.2,8.77-1.72,13-3.1a6.23,6.23,0,0,0,5-2.05l.84,0c4.53-.37,9.06-.89,13.6-1.06,3-.12,6.37-.16,5.63,4.66C587.7,274,588.66,274.74,589.6,275.19Z" transform="translate(-363.14 -62.15)"/><path class="cls-1" d="M540.52,436.93a2.25,2.25,0,0,1-2.44-.8,1.29,1.29,0,0,0-.61-.49l-.29-.17-1.06-.68a44.74,44.74,0,0,0-15.64-4.49c-8.16-.62-13.62-5.41-17.48-12.31a6.35,6.35,0,0,1-.89-5l.89-1c1.34,0,2.75,0,2.95-1.84a108.31,108.31,0,0,1,38,3.46c-.15,1.75.27,3.64,1.46,4.62,3.85,3.16,2.54,9.31,7.16,12a1.05,1.05,0,0,1,0,1.72c-4.79,2.33.24,3.54.58,5.44C548.9,438.41,544.75,435.66,540.52,436.93Z" transform="translate(-363.14 -62.15)"/><path class="cls-1" d="M503,412l-.89,1c-.1-4.09-.23-8.19-.28-12.29,0-3.05-.61-6.26,2.07-8.68,1-1.34.88-3.35,2.65-4.18,3.39,2.93,6.33-.48,9.06-1.25s6-.45,6.75.94c2,3.73,3.95,1.89,6,.84a5.63,5.63,0,0,1,6.52.88c1.6,1.56-1.54,2.46-1.74,4,0,.28.17.59.4,1.3,3.06-1.87,6.3-5.19,9.28-.05.17.29,1.26.05,1.93.06h0c-1.5,3.86-6.53,5.1-7.79,10.62l9.12-7.47c.9-.74,1.94-1.62,3.06-.68a3.52,3.52,0,0,1,1.34,3.95c-.31,1-1.87,1.59-1.07,2.87,1.89,1.2,3.65-2.69,5.22-.11,1,1.57,2,3.58.05,5.42a4.15,4.15,0,0,0-1.72,3.4c-4,.32-7.88-.6-11.8-1.3-10.69-1.9-21.31-4.63-32.33-3.57,2.16-6-3.45-8-6-11.76l.11,13Z" transform="translate(-363.14 -62.15)"/><path class="cls-1" d="M500.24,444.2l2.93-1.31c2.22,1.78,3.81-.17,5.56-1s3.61-2.31,5.28.49c.36.59,2.1.36,3.2.51.63,4.88,7.12,7.9,4.44,13.9-.09.19.79.94,1.32,1.29,3.83,2.48.81,7.48,3.81,10.25l-1.37.47c-.73.28-2.15-.53-2.11.87,0,1.05,1.31,1.05,2.23,1.13,2.78.63,4.85,2.41,6.8,4.32,1.66,1.63,2.21,4.49,5.22,4.57h0c.35.71.69.67,1,0h1l1,1c0,1.64,1.56,2,2.31,3,.88,1.18,1.1,2.47,0,3.6-3.29,3.29-11.17,4.8-15.44,2.57-1.95-1-3.8-.93-5.75-1-.1-2.78-4-2.4-4.2-5.61-.43-6.49-1.06-13.09-7.67-17.06a5.19,5.19,0,0,1-2.4-5.17c2.48-.15,3.83,3.27,6.65,2.27,0-1.64-1.28-1.87-2.13-2.6-4.21-3.6-10-1.93-14.49-4.51a37.3,37.3,0,0,0,1.82-10A2,2,0,0,0,500.24,444.2Zm15.17,20c1.31,2.95,3.25,3.75,5.74,4.33C520.75,464.76,518.36,464.64,515.41,464.16Z" transform="translate(-363.14 -62.15)"/><path class="cls-1" d="M550.94,288.53c1.42.33,3.62-.88,4.31,1,.58,1.57-1.45,2.23-2.56,3.15s-3.48.29-3.26,2.32c.18,1.59,2.19,1.78,3.44,2.51.7.41,1.42.77,3,1.59-4.15.57-6.63,2.62-8.84,5.07-9.17-1.48-17.56,2.36-26.27,3.95-8.15,1.49-12.05.06-16.79-7.06-1.61-2.38,0-3.14,1.72-4.55,5.83-4.89,13.28-7,19.18-11.71l0,0h1.13l.84,0,3-.09c4.3,5.17,10.18,7.12,16.91,9-.79-2.57-2.47-2.17-3.51-2.82-4.2-2.6-9-4.35-12.41-8.11l4.87-1.16c1.25,1,2.2,2.59,4.23,1.88,5.27-1.84,7.91,2.07,11.05,5-1.24.36-2.79-.55-3.7,1.43C548.77,290.64,550,291.06,550.94,288.53Z" transform="translate(-363.14 -62.15)"/><path class="cls-1" d="M494.57,182.05c.18-1.46.35-2.93.53-4.39,2.08-5.11,4.17-10.21,7.52-14.67a.35.35,0,0,0,.33-.46,5.49,5.49,0,0,0,2.07-3.26l-.24-.21.21.24c3-.27,3.07-3.86,5.43-4.88,1.6,3.72,3.86-1.67,5.69.44,2.12,2.45,3.06,1.34,3.8-1.25.39-1.34,2.06-2.37,2.3-3.69.66-3.65,3.13-2.66,5.16-2.15,2.55.65,4,2.19,2.73,5.14-1.12,2.63,0,4.67,2.47,5.55,1.33.47,1.8,1.61,2.74,2.25,1.73-4.42,1.78-9.42,5.27-13.05-.37,4.16,1.25,8,2,12a3.46,3.46,0,0,1,0,.85,9.8,9.8,0,0,0-7.82,4.2,2,2,0,0,0-2,1l-1,1c-1.94,0-3.94-.13-5,2-1.78.4-3.57.78-4,3a2.14,2.14,0,0,0-1.93,1.08c-1.35-.35-2.62,1.83-4,.13-.38-3.77,2.55-7.67-.48-11.35.45,3.81-2.6,7.48-.41,11.33-.07,1-.13,1.9-.2,2.84-7.15,2.77-13.37,6.8-17.84,13.2a2.17,2.17,0,0,0-1.91,1.12l-1,0Z" transform="translate(-363.14 -62.15)"/><path class="cls-1" d="M568.62,269.42l-.84,0a8.11,8.11,0,0,0-5.1,1c-4.39,1.16-9.38.45-13,4.11h0a8,8,0,0,0-5,1c-.1-1,.13-2.61-.35-2.85-9-4.52-3.41-11.53-3.1-17.61a14.55,14.55,0,0,1,.25-1.47c1,.23,2.16.94,2.84.6a21.69,21.69,0,0,1,10.25-2.38c1.47,0,5.92-.65,6-4.63l3.65.37a7.89,7.89,0,0,1,4.6,1.46c-.74.17-1.55.24-1.78,1.13,0,.13.32.36.5.55l1.36-1.66a4.85,4.85,0,0,1,.65-.31c.09,0,.23.11.34.17l1.28.55.19.16c.45,2,1.59,2.9,3.66,2.44a.36.36,0,0,1,.47.3c.94,2.25,1.69,4.74,5,3.91-.85,3-5.85,6.08.12,9C577,267.82,572,266,568.62,269.42Z" transform="translate(-363.14 -62.15)"/><path class="cls-1" d="M544.79,394.63c-.67,0-1.76.23-1.93-.06-3-5.14-6.22-1.82-9.28.05-.23-.71-.44-1-.4-1.3.2-1.57,3.34-2.47,1.74-4a5.63,5.63,0,0,0-6.52-.88c-2.09,1-4,2.89-6-.84-.75-1.39-3.87-1.76-6.75-.94s-5.67,4.18-9.06,1.25c2.72-4.19,6.7-6.21,11.53-7a62.09,62.09,0,0,1,21.71.27l2.64.62.21.07,1.41.68.89.81,1.7.32h0c-1.93,2.09-5.24-.06-7.07,2.41.68,1.16,2.54.17,3.12,1.6l-.22.42.22-.42c1.24.27,3.15-1.65,3.53-.12.75,3.11,2,2.21,4,1.54,1-.34,3.37.27,3.6,1,1.1,3.32,4.39,3.31,6.58,4.89,2.5,1.79,4.52,3.45,5.92,6.75,2.45,5.79,5.5,9.85,11.54,8.66h0c1,5.13-.73,6.92-5.78,6.07-3.7-.63-7.38-1.32-11.16-.9h0c0-.34,0-.68,0-1,.21-2.29,1.49-4,3-5.62s.53-2.9-.65-3.87-1.95.16-2.74,1.08c-2.06,2.39-4,4.89-6.79,6.55a6.26,6.26,0,0,1-.75,0,4.15,4.15,0,0,1,1.72-3.4c2-1.84.9-3.85-.05-5.42-1.57-2.58-3.33,1.31-5.22.11-.8-1.28.76-1.88,1.07-2.87a3.52,3.52,0,0,0-1.34-3.95c-1.12-.94-2.16-.06-3.06.68L537,405.26c1.26-5.52,6.29-6.76,7.79-10.62l.22-.42Z" transform="translate(-363.14 -62.15)"/><path class="cls-1" d="M571.46,233.54a1.56,1.56,0,0,1-.43.72c-2.76,0-4.58,2.92-7.51,2.42-2.15-3-5.31-4-8.73-4.1a17.73,17.73,0,0,1-9-3.14c3.16-1,5.82,1.48,8.87,1.12,1.57-.19,3-.38,3.45-2.19s-.72-2.47-2.24-3.16c-1.94-.9-4.5-1.18-5.45-4,3.18-.87,5.48,2.11,8.58,1.65-2.54-3.61-2.54-3.61,1-4.57-2.86-2.95-7.16-.36-9.93-2.85.06-.63.11-1.27.17-1.91l.82,0c3.56.47,6.29-1.56,9-3.24.8-.49-.5-.68-1-.88a16.79,16.79,0,0,1,.73-4.86c.36-1.46,2.23-3.82.44-4.39-2.67-.84-1.74,2.41-2.56,3.77a1.69,1.69,0,0,1-2,1c.8-2.2-.57-4.69,1.53-6.73.82-.79.89-1.91-.28-2.43a1.94,1.94,0,0,0-2.86,1c-.65,1.51-.73,3.65-3.65,3.41l4.39-11.87a2,2,0,0,1,1.07-1.88c1.38,0,2-.82,2-2.13l4,.16c-2.22,4.09-.37,5.8,3.67,6.17,1.36.13,2.47.67,1.82,2.13-1.76,3.92,1.59,7.83-.17,11.78-.44,1,.8,1.65,1.9,1.77l6,.92c-.91,1.63-.84,3.93-3.39,4.45a1.5,1.5,0,0,0-1,2.36c3.25,4.36-.23,7.59-1.64,11.24-.74,1.94-1.51,4.23-1.13,6.13.3,1.51,2.23-.47,3.47-.09Zm-8-28c-.27.18-.77.34-.94.67a.59.59,0,0,0,.65.87,1.61,1.61,0,0,0,1.08-.66C564.66,205.82,564.1,205.69,563.5,205.55Z" transform="translate(-363.14 -62.15)"/><path class="cls-1" d="M540.58,147.66c-3.49,3.63-3.54,8.63-5.27,13.05-.94-.64-1.41-1.78-2.74-2.25-2.5-.88-3.59-2.92-2.47-5.55,1.27-2.95-.18-4.49-2.73-5.14-2-.51-4.5-1.5-5.16,2.15-.24,1.32-1.91,2.35-2.3,3.69-.74,2.59-1.68,3.7-3.8,1.25-1.83-2.11-4.09,3.28-5.69-.44,2-4.31,7-5.41,9.51-9.18l-.21-.39.22.39,7.8-4.36,1.78-1.1c2.81-.08,5.15-1.36,7.38-2.9,4.72.4,8.76-3.13,13.54-2.36,0,1,0,2,0,3l-4.92.05c1.75,1,3.47,1.49,4.93,0,2.4-.48,5-2.13,7.2-.57,3.59,2.52,6.45,2,8.79-.85,4.77,2.08.27,7.79,4.55,10.05.44.23-.43,1.09-1,1.41-1.14.62-2.29,1.22-3.44,1.83a2.06,2.06,0,0,0-2,1h0a2.09,2.09,0,0,0-2,1h0a7,7,0,0,0-4,1c.56-2.78-4.7-1.83-3.28-5.08.5-1.14,2.08-2.53.39-3.29s-2.44,1.23-3.15,2.51c-.55,1-.94,2.07-1.61,3.55-1-2.73-3.51-3.28-5.1-4.55C541.77,142.37,541.34,144.38,540.58,147.66Z" transform="translate(-363.14 -62.15)"/><path class="cls-1" d="M496.13,418.72c-4.2.65-7.91,2.8-12.12,3.66a21.58,21.58,0,0,1-11-.57l-1.4-.22-8.56.5c-.1-.11-.23-.34-.28-.32a4.52,4.52,0,0,0-.7.34l-2-.07c-2.51-2.61-6.71-.76-9.17-3.47,5.17-3.86,10.67-7.38,14-13.21.07-.14.14-.29.22-.43l-.24.41a8.33,8.33,0,0,1-1,.16c-1.8.13-2.74,3.72-4.38,2.06-2-2,.73-3.72,1.89-5.39a8.18,8.18,0,0,0,.47-.88c3.69-.16,7.14,2.13,10.93,1.1-3.83,6.29-11.75,8.72-14.76,15.83,5.92-4.6,12.34-8.61,16.83-14.84,6.64.91,12.47,4.53,19,5.72h0c0,1.37.72,1.95,2,2h0C497.38,413.58,498.53,416.11,496.13,418.72Z" transform="translate(-363.14 -62.15)"/><path class="cls-1" d="M584.36,346.33c.44-.91-3.69-1.6,0-2.85,1.21-.42,1.5-2.17-.32-3.05-2.87-1.39-6.34-2.34-4.33-6.92.39-.9-1-.95-1.74-1.22-1.29-.46-3.48,0-2.34-2.93.46-1.19-1.73-.94-2.78-.87-1.52.1-2.23,2.33-3.88,1.88-1.41-.4-4.61,5-4.33-1.26,0-.22-1.41-.58-2.19-.73A63.07,63.07,0,0,1,547,323.15c-2.47-1.19-6-.69-8.86-2.32-1.47-.84-3.06.49-4.37,1.7a11.36,11.36,0,0,1-13.57,1.09c-1.25-.81-1-2-1.18-3.08,5.93-3.35,12.09-6,19.08-5.6,3.27.19,6.26.74,9.06,3.2,4.27,3.76,10.25,3.23,15.46,4.25,11.68,2.29,22.18,6.59,31,14.76l-.15-.14c1.66,1.71,5.47,1.34,5,5.15-1.83.09-3.58.11-4.7-1.8a1.45,1.45,0,0,0-2.11-.55,1.55,1.55,0,0,0-.79,1.62C591.49,347.7,590.53,348.41,584.36,346.33Z" transform="translate(-363.14 -62.15)"/><path class="cls-1" d="M496.13,418.72c2.4-2.61,1.25-5.14-.21-7.65,4.08,2.13,3-1,3-3,1.75-6.51.56-13.12.65-19.69,0-.91-1-1.16-1.84-1.39a6.61,6.61,0,0,1,0-.89c2.14-.38,1.74-2.07,1.75-3.49,0-4.27.07-8.55-.08-12.82-.08-2.15.87-4.76-2-6a4.52,4.52,0,0,0-2.32-4.88c-3.52-2.32-7.82-3.43-10.71-6.71,3.21-.57,5.64,1.11,8.22,2.64,2.08,1.22,3.83,3.77,6.87,2.37,1.88-8.81,1.21-17.61-.16-26.4a2.63,2.63,0,0,0-.12-.69,4.48,4.48,0,0,0,.09-.89l.08-.13a17.1,17.1,0,0,0-.29-12,8,8,0,0,0-1.24-4.65l.12-7.32c0-1.89,1.52-1.91,2.78-2.26.16,8.84.3,17.69.48,26.53,0,1.78-.31,3.67,1.2,5.11-1.26,5.51.74,10.69,1.62,16,.22,1.29.56,2.59,2.53,1.19,4.17-3,9.66-2.42,14.22-5.25,1.73-1.08,7.1-.07,10.57,1.4a8.46,8.46,0,0,0,0,.87l-1.94.14c-7.33-.07-14.17,2-20.94,4.61-3.24,1.23-4.88,3.09-3.95,6.64-1.88.39-1.42,2-1.6,3.2-1.17,8.27-.17,16.61-.73,24.91a4.13,4.13,0,0,0,1.74,3.93c-2.68,2.42-2.11,5.63-2.07,8.68.05,4.1.18,8.2.28,12.29a6.35,6.35,0,0,0,.89,5c-1.45.29-1.7,1.4-1.71,2.6-.09,7.88-1.76,15.69-1.05,23.61a2,2,0,0,1-1,2c-1.82-1.21-2.71-3.58-5.08-4.1C497.48,434.51,496.31,426.58,496.13,418.72Z" transform="translate(-363.14 -62.15)"/><path class="cls-1" d="M540.52,436.93c4.23-1.27,8.38,1.48,12.64.45-.34-1.9-5.37-3.11-.58-5.44a1.05,1.05,0,0,0,0-1.72c-4.62-2.64-3.31-8.79-7.16-12-1.19-1-1.61-2.87-1.46-4.62,5.78-.27,11.21,2.58,17,1.87h0c.53.75,1.45.65,2.12,1,3.5,1.82,9-.41,10.8,3.7,1.44,3.17,3.55,4.06,6.15,5.08a144.42,144.42,0,0,1-25,13.52A14.19,14.19,0,0,1,540.52,436.93Zm16.57-2.58c-.17-.59-.14-1.47-1.08-1.25-.74.17-.85.91-.76,1.57s.12,1.47,1.07,1.26C557.06,435.76,557.1,435,557.09,434.35Zm-7.91-16.74c-.27.43-.72.85-.64,1.09a1.28,1.28,0,0,0,1,.71c.68,0,1.22-.4.93-1.14C550.34,418,549.72,417.87,549.18,417.61Z" transform="translate(-363.14 -62.15)"/><path class="cls-1" d="M504.49,360c-.93-3.55.71-5.41,3.95-6.64,6.77-2.57,13.61-4.68,20.94-4.61-1.93,2.92,1.06,4.94,1.84,7.69a7.38,7.38,0,0,1-1.84-.42c-2-1.32-3.6-5.78-6-3.42-1.67,1.66,2.49,3.88,4.19,5.66,2.19,2.3,2.61,4.52-.08,6.18-1.92,1.19-2,2.35-.71,3.37,2,1.56,1.49-1.34,2.46-1.81,1.21-.6,1.81-3,3.57-1.7,1.3,1,1.08,2.9.21,4.14-2.56,3.65.33,3.7,2.6,4.24a2.06,2.06,0,0,1,1,1.94c-7.43-1.29-14.9-2.36-22.11-4.77C509.48,368.19,505.82,365.35,504.49,360Zm18.44,2.09.83.35c.11-.28.38-.62.3-.82s-.51-.25-.79-.37Zm-4.75-7.87c-.12.28-.38.62-.3.82s.51.25.79.37c.11-.28.38-.62.3-.82S518.46,354.36,518.18,354.24Z" transform="translate(-363.14 -62.15)"/><path class="cls-1" d="M472.81,402.39c-3.79,1-7.24-1.26-10.93-1.1-.13-.11-.23-.29-.37-.33-10.68-3.35-21.86-3-32.81-4-7.56-.7,1.54,5-1.57,6.9-.56.35.25,1.72,1.18,1.6a11.83,11.83,0,0,0,2.62-1.21c1.39-.59,2.59-2.25,4.93-.6-2.42.95-4.25,2.23-3,4.95l-.39.44.44-.39c2.31.07,4.78-.79,5.21,3.18.31,2.87,7.39,6.09,10.85,5.64h0l1.92,1.07c2.46,2.71,6.66.86,9.17,3.47-6,2.28-11.39.25-16.58-2.45-10.62-5.52-20.81-11.61-27.35-22.23-1.91-3.11-2.33-5.13,1.94-6.54,3.56-1.18,6.85-3.18,10.27-4.82a7.44,7.44,0,0,1,.19,2.45c-1.76,5.95-1.82,6.16,4.21,7,10.6,1.47,21.28,2.36,31.85,4,7,1.1,13.79,3.53,20.79,4.57a12.89,12.89,0,0,1,8.5,5.07c-6.55-1.19-12.38-4.81-19-5.72Z" transform="translate(-363.14 -62.15)"/><path class="cls-1" d="M550.49,137.57c0-1,0-2,0-3l.22-.19.27.11c3.58,0,7.17.05,10.75,0,1.56,0,3.44.41,3.77-2l5.07.37c.1.08.21.24.28.22a3.56,3.56,0,0,0,.6-.27l2.18,0c1,.79,2,.53,3.13.4a.72.72,0,0,1,.77.19c1.81,1.68,4,.61,6,.86.74.14,1.39.38,1.56,1.25-.64.34-1.82.37-1.5,1.36a2.13,2.13,0,0,0,1.95.82c1.27-.47.67-1.48.22-2.32l.94-.6c1,.15,2,.37,3,.43,5.68.32,5.66.33,2.92,5-.62,1.07-2.56,2.49-1.49,3.32,2.83,2.21.22,4.35.48,6.46-.1,2.48-2.8,2.7-3.82,4.37-.22-.7-.22-2-1.38-1.22-2.77,1.88-5,.05-5.78-1.75-2-4.49-4.69-4-8.24-2.5a37.52,37.52,0,0,1-5.72,1.49v-1c1.15-.61,2.3-1.21,3.44-1.83.58-.32,1.45-1.18,1-1.41-4.28-2.26.22-8-4.55-10.05-2.34,2.86-5.2,3.37-8.79.85-2.22-1.56-4.8.09-7.2.57Z" transform="translate(-363.14 -62.15)"/><path class="cls-1" d="M494.15,442.06c2.37.52,3.26,2.89,5.08,4.1a37.3,37.3,0,0,1-1.82,10c-.34,2.33-1.46,3.2-3.79,2.18-3.29-1.45-6.79-1.28-10.27-1.13-1.07,0-2.23-.19-2.94,1a1.32,1.32,0,0,0-.1.68l-2.94.38c-3.81-4.84-4.06,1.08-6,2a.89.89,0,0,1-.88.21c-1.57-1.26-2.73-3.31-5.42-2.8.47,1.68.93,3.31,1.39,4.93l-1.29.78-.79.56-1.48,1.36-4.45.22c-.13-1.64.15-2.95,2.19-3.12.9-.07,1.86-.86,1.15-1.58-3.43-3.45.39-3.52,2-4.75s4.34-1.75,2.5-4.73c6.11-2.82,12.31-5.48,18.3-8.54A14.89,14.89,0,0,1,494.15,442.06Z" transform="translate(-363.14 -62.15)"/><path class="cls-1" d="M580.07,425.31c-2.6-1-4.71-1.91-6.15-5.08-1.85-4.11-7.3-1.88-10.8-3.7-.67-.36-1.59-.26-2.12-1,3.78-.42,7.46.27,11.16.9,5.05.85,6.74-.94,5.78-6.07l.22-.43-.23.42c-6,1.19-9.09-2.87-11.54-8.66-1.4-3.3-3.42-5-5.92-6.75-2.19-1.58-5.48-1.57-6.58-4.89-.23-.69-2.57-1.3-3.6-1-2,.67-3.28,1.57-4-1.54-.38-1.53-2.29.39-3.53.12h0c-.58-1.43-2.44-.44-3.12-1.6,1.83-2.47,5.14-.32,7.07-2.41,5.5-.06,9.49,4.36,14.76,5,1.86,1.63,3.48,3.63,6.15,4v0l1.18.9c1,1.94,2.09,3.82,4.15,4.87A4.13,4.13,0,0,0,575,402c4.29,3,6.91,7.31,9.87,11.39a11,11,0,0,0,.87,2.75c3.13,4.88,3.09,5.12-2.57,7.81C582.16,424.48,581.1,424.87,580.07,425.31Z" transform="translate(-363.14 -62.15)"/><path class="cls-1" d="M413.11,327.64c2.36,4.46-3.86,5.47-3.65,9.07a2.3,2.3,0,0,1-.26.83c12.45,3.67,25.68,1.25,38.14,4.9l1.06.05c-1.86,1.81-4,1-6,.6-8.44-1.77-17-1.88-25.58-2.33-2.67-.15-3.09.44-2.51,3.4,1,5.16,4.36,6.12,8.47,6,.29,1.92-2.4,1.34-1.65,2.93.49,1.06,1.77.49,2.68.71,1.42.35,4.7-.61,4,1.16-2.38,5.71,2.19,4.51,4.61,6.09,1.48,1,6.51.15,3.93,4.76l-6-.85h0c.22-3.71-2.55-3-4.73-3.21l-1.14-.8a1,1,0,0,0-1.21-.92.88.88,0,0,1-.6-.48,1.82,1.82,0,0,0-2.27-1.63,1.31,1.31,0,0,1-.73-.41,1.73,1.73,0,0,0-2.31-1.54,1,1,0,0,1-.72-.37,1.8,1.8,0,0,0-2.12-1.73c-6.71-4.06-10.74-11-17-15.58-1.41-1-.65-2.08.5-2.68C402.94,332.94,407.48,329.25,413.11,327.64Z" transform="translate(-363.14 -62.15)"/><path class="cls-1" d="M524.05,92.77c-.06-1,.25-2.54-.23-2.85-3.07-1.93-2.22-3.68-.2-5.74.75-.77,1.57-2.05-.58-2.34l2.9-3.18,7.34-5.75a.58.58,0,0,0,.62-.37,1.93,1.93,0,0,0,2-1.81l1-.58c.53.23.72,0,.73-.52l.14-.15c2.85-.16,2.83-5,6.45-3.92-.69,10.59-2.36,21-6.41,30.87-1.06,2.58-1.47,5.44-3.41,7.62-1.94-1.54-4.93-2.39-1.24-5.71,2-1.83.18-5-1.28-7.12-1.67-2.42-3.45-.56-5.13.39-.84.48-1.76.84-2.64,1.25Z" transform="translate(-363.14 -62.15)"/><path class="cls-1" d="M430.59,146.66c0,.66,0,1.32,0,2-1.26,1.11-3.85.46-4,3a2.81,2.81,0,0,0-3,3h-4.08c-2-3-5.17-4.67-8-6.72a.75.75,0,0,0-.79-.27,22.37,22.37,0,0,0-9.17-4.09l-1.53-.71-.09-.31-.27.14-5.33-2.63c4.38-3.87,9.27-5.49,15-3.41l15.17,1.94c3.47-.1,6.62,1.4,9.95,2C432.36,142.1,428.38,142.36,430.59,146.66Zm-1.1-5.61c-2.11.68-3.61,1-3.53,3.2C428,144.26,428.75,143.15,429.49,141.05Z" transform="translate(-363.14 -62.15)"/><path class="cls-1" d="M584.36,346.33c6.17,2.08,7.13,1.37,6.46-4.9a1.55,1.55,0,0,1,.79-1.62,1.45,1.45,0,0,1,2.11.55c1.12,1.91,2.87,1.89,4.7,1.8l.23.29-.16.34-.82,1.1.48.31c.13-.44.26-.89.38-1.34a10.62,10.62,0,0,1,6.84,3.23,1,1,0,0,0,.86.09l.06,0c.28,2.17-2.36,1.54-3.28,2.9,2,.68,4.1-1,5.46,1h0a2.93,2.93,0,0,0-3.07,1.54c-6,4.13-13.11,6.21-18.43,11.66-3.67,3.76-9.23,4.84-14.39,6l-.41-.23.4.24a3.57,3.57,0,0,1-3,.9v-1.86c-2.69-4.07,2.3-2.43,3-4a2.14,2.14,0,0,0,1-2c2.33.05,5.23,2.89,6.69-1.51.22-.66,1.4.25,2.09.66,1.11.67,2.26,1.25,3.6,0-1.23-1.57-1.89-2.85-1.21-5.21,1.94-6.74.85-8-5.34-8l-1,0h-1c-.74-1.14-1.92-.92-3-.95v-1Zm4.5,2.11c-.56,3.21.26,5.57,4.7,5.42Z" transform="translate(-363.14 -62.15)"/><path class="cls-1" d="M566.6,150.43a37.52,37.52,0,0,0,5.72-1.49c3.55-1.53,6.28-2,8.24,2.5.78,1.8,3,3.63,5.78,1.75,1.16-.78,1.16.52,1.38,1.22a.6.6,0,0,1-.34.73c-.93.08-1.58.41-1.43,1.5l-2,2.46a2.15,2.15,0,0,0-1.35,2l-.1.11-.87.87-.11.11c-3.09-.2-3.38,3.23-5.52,4.25-1.22.14-2.84-.68-3.56.73-.55,1.08.8,1,1.49,1.3-1.39,1.73-2.59,3.69-5.06,4.07-3.31-4.16,1.78-5.37,2.7-7.76-2-3.1-6.67.67-8.9-3.94,4.19.55,8.27,1.76,10.71-3.07-4.79-.49-9.32-.91-12.75-4.31l2-2h0a2,2,0,0,0,2-1h0Z" transform="translate(-363.14 -62.15)"/><path class="cls-1" d="M571.44,231.42c-1.24-.38-3.17,1.6-3.47.09-.38-1.9.39-4.19,1.13-6.13,1.41-3.65,4.89-6.88,1.64-11.24a1.5,1.5,0,0,1,1-2.36c2.55-.52,2.48-2.82,3.39-4.45,0-1,0-2,0-3h0c5.19-1.13,8.46,1.64,9.8,6,.67,2.2,1.24,3.78,3.24,4.77-1.81,2.05-3.61,4.11-5.42,6.17a.89.89,0,0,0-.52.74l-.12.16c-4-.19-5,2.09-4.55,5.59l-1.82,1.86a1,1,0,0,0-1.19.89l-.12-.22.14.21Z" transform="translate(-363.14 -62.15)"/><path class="cls-1" d="M483.35,457.2c3.48-.15,7-.32,10.27,1.13,2.33,1,3.45.15,3.79-2.18,4.48,2.58,10.28.91,14.49,4.51.85.73,2.15,1,2.13,2.6-2.82,1-4.17-2.42-6.65-2.27h-4a4.84,4.84,0,0,0-3.87,4.2c-1.83,9-1.67,18.23-2.78,27.32l-.36-6.28c-1.13,4.76-.09,9.6-1.21,14.71-2.44-1.88,0-5.2-3.22-5.81.23-2.68.45-5.35.68-8,.33,1.64-.45,3.42,1,5.68-.2-3,.73-5.43-.91-7.61L493.5,469c.16-8.1-1.48-9.86-9.13-9.82l-4.06-.33a1.32,1.32,0,0,1,.1-.68C481.5,458.17,482.64,458.33,483.35,457.2Z" transform="translate(-363.14 -62.15)"/><path class="cls-1" d="M588.14,215.16c-2-1-2.57-2.57-3.24-4.77-1.34-4.39-4.61-7.16-9.8-6,2.08-1.19,4-2.69,6.45-3.15,3.15-.58,2.62-3.52,1.3-4.36-4-2.52-4.1-8.22-8.77-9.92,8.52,1,16.9,2.36,24.07,7.6.65,1.21,2.71-.19,3.15,1.91-3,.87-6,1.7-8.94,2.57-2,.6-4.13,1-1.78,3.87,1.19,1.45.43,3.53.54,5.33-1.45.27-3.49-.6-3.85,1.82-.23,1.5-.17,3,1.9,3.2l0,1.33Z" transform="translate(-363.14 -62.15)"/><path class="cls-1" d="M574.08,186.93c4.67,1.7,4.8,7.4,8.77,9.92,1.32.84,1.85,3.78-1.3,4.36-2.47.46-4.37,2-6.45,3.15h0a9.44,9.44,0,0,0-6,2c-1.1-.12-2.34-.78-1.9-1.77,1.76-3.95-1.59-7.86.17-11.78.65-1.46-.46-2-1.82-2.13-4-.37-5.89-2.08-3.67-6.17l4-.1,5.12,1.33,1.23.48Z" transform="translate(-363.14 -62.15)"/><path class="cls-1" d="M568.62,269.42c3.33-3.38,8.41-1.6,12-4.1,2.87.1,5.49-.94,8.16-1.74,1.51-.45,1.79-1.8,2.07-3.11a1,1,0,0,0-1.09-1.25c-3.64.71-5.9-2.83-9.26-2.9-3.33.83-4.08-1.66-5-3.91,7.89.87,15.83,1.57,21.9,7.67a4,4,0,0,0,2.12,1.11c1.55.22,3.94-.71,4.12,1.5.16,1.89-2.48,1.81-3.85,2.48-4.58,2.2-6.33,7.17-10.21,10-.94-.45-1.9-1.22-1.75-2.17.74-4.82-2.6-4.78-5.63-4.66C577.68,268.53,573.15,269.05,568.62,269.42Z" transform="translate(-363.14 -62.15)"/><path class="cls-1" d="M417.79,281.7c-.83,1-1.46,2.43-2.53,3-2.72,1.39-4,2.39-1.93,5.81,1.4,2.34-.95,4.33-3.73,4.06-1.93-.19-3.79-1.1-5.68-1.69-.15-.88.16-2.07-1-2.39-.93-.26-1.21.72-1.51,1.42l-1.6-.91c-.21-2.09.78-4.65-2.71-5.26-1.93-.33-1.19-2.36-1.4-3.71,1.5-1.21,3.89-1.86,2.42-4.74-.47-.92.78-1.16,1.56-1.33,1,.24,2,1.57,3,0l3,1C408.93,280.48,414.4,278.47,417.79,281.7Z" transform="translate(-363.14 -62.15)"/><path class="cls-1" d="M428.37,231.6l-33-3.69c-4.66-2.48-4.57,1.05-5,3.93-4.13-1-5.59-4.94-8.25-7.56-.7-.69-.78-1.63.67-2.2,10.93-4.3,21.73-9,33.36-11.2-6.19,3.56-12.26,7.35-18.63,10.57-2,1-4.84.56-8.09.85,4.05,4.45,9.14,3.87,13.69,4.58,8.39,1.33,16.82,2.45,25.23,3.66ZM394,219.45c.26.16.49.43.74.43s.52-.23.78-.36c-.24-.16-.48-.42-.73-.43S394.22,219.31,394,219.45ZM404.73,215l-.78.39c.24.14.48.38.73.39s.51-.22.77-.35Z" transform="translate(-363.14 -62.15)"/><path class="cls-1" d="M494.57,182.05l.33,8.06c-3.25,2.9-3.4-2.8-5.85-2.11-2.55-6.2-6.16-11.53-12.19-14.89L475,171.22c4.28-1.7,5.17-6.13,7.54-9.38,1.35,0,3.32,1.3,3.15-1.61l.91-1.18c.3,8.74,3.49,16.92,4.22,25.45C493.4,184.8,492.7,181.82,494.57,182.05Z" transform="translate(-363.14 -62.15)"/><path class="cls-1" d="M537.55,479.71c-3-.08-3.56-2.94-5.22-4.57-2-1.91-4-3.69-6.8-4.32l-.12-2,1.37-.47c-3-2.77,0-7.77-3.81-10.25-.53-.35-1.41-1.1-1.32-1.29,2.68-6-3.81-9-4.44-13.9l0-.06,2.38-.54.1.12c-.77,2.49,1,2.31,2.52,2.38v0l.67,1a.72.72,0,0,1,.46.72c-.31,3.19.63,5.51,4.2,6l-.22.28.2-.28a1.6,1.6,0,0,0,1.56,2.25.67.67,0,0,1,.33.75c-.87,4.2,3.16,7.53,2.07,11.77,1.56.26,1.72,4.48,4.41,1.57.25.58.49,1.17.74,1.75-1.82,1.72-.44,1.85,1,1.95l0,0Q537.59,476.12,537.55,479.71Z" transform="translate(-363.14 -62.15)"/><path class="cls-1" d="M409.39,136.73c-5.74-2.08-10.63-.46-15,3.41-2.61-1-5.25-1.88-7.83-2.94-2.75-1.13-2.79-2.55-.16-3.92,7.3-3.8,14.72-7.23,23-8.3.38,1,3.42,1.72.15,2.94-2.3.85-4.54,1.84-6.78,2.84-1,.46-2.24,1-1.9,2.47s1.54,1.4,2.69,1.69C405.53,135.41,408.32,133.37,409.39,136.73Z" transform="translate(-363.14 -62.15)"/><path class="cls-1" d="M505.39,461h2a5.19,5.19,0,0,0,2.4,5.17c6.61,4,7.24,10.57,7.67,17.06.21,3.21,4.1,2.83,4.2,5.61,0,.61,0,1.21,0,1.82-3.64,2.45-4.68-1.33-6-3-2.24-2.84-2.76-6.62-3.94-10-2.1-6-5.72-10.64-12.17-12.45a4.84,4.84,0,0,1,3.87-4.2c.15.73.13,1.74,1.23,1.51C505,462.43,505.13,461.53,505.39,461Z" transform="translate(-363.14 -62.15)"/><path class="cls-1" d="M569.57,368.42v1.86a3.94,3.94,0,0,1-3.12.81c-1.48-1.06-1.66,0-1.86,1.12-9.26,1.51-18.44,4-28,2.43a2.06,2.06,0,0,0-1-1.94c.87-1.23,1.43-2.86,3.08-.43a4.32,4.32,0,0,0,6.17,1.42c-.58-2.08-3.49.05-3.67-3.06,6.19,1,11.73-1.38,17.5-2.61-1.32-4.24-5.31-7-6.25-11.45,4.83,1.59,5.76,6.36,8.09,10,.25.4-.43,1.77,1,.95l3,0A8.33,8.33,0,0,0,569.57,368.42Z" transform="translate(-363.14 -62.15)"/><path class="cls-1" d="M466.32,452.27c1.84,3-1,3.58-2.5,4.73s-5.44,1.3-2,4.75c.71.72-.25,1.51-1.15,1.58-2,.17-2.32,1.48-2.19,3.12v0c-.93.43-1,1.26-1,2.13l.84,4.32a.46.46,0,0,1-.33.55l-.39,1.13c-.59,1-1.17,2-1.75,3-5.18-.85.38-4.1-1.16-5.81-2.65.45-4.47,2-6.18,3.72,0-1.28,0-2.56,0-3.85,2.86-6.9,6.76-13.06,13-17.42C462.93,453.27,464.21,451.65,466.32,452.27ZM456,466.11c-.1.05-.26.09-.3.17s0,.25.05.37l.46-.24Z" transform="translate(-363.14 -62.15)"/><path class="cls-1" d="M491.94,495.13c3.23.61.78,3.93,3.22,5.81,1.12-5.11.08-9.95,1.21-14.71l.36,6.28c.38,7.12-.19,14.3,1.79,21.31a3.56,3.56,0,0,1-1.92,4.24c-1.89.78-1.57-2-2.49-2.28-7.42-2-3.4-7.18-3.13-11.24C491.19,501.39,491.61,498.26,491.94,495.13Z" transform="translate(-363.14 -62.15)"/><path class="cls-1" d="M486.66,153.32C494,153,498.31,147.77,503,143.2c4-3.9,7.91-7.95,12-11.78a9.73,9.73,0,0,1,5.26-2.65c-3.34,7-9.46,11.59-14.79,16.85-1.52,1.5-3.37,2.67-4.84,4.22-3.9,4.1-9,6.09-14,8.2Z" transform="translate(-363.14 -62.15)"/><path class="cls-1" d="M433.57,255.49c10.5,2.41,21.37,3,31.63,6.71,2.16.78,1.42,1.69.87,2.9-8.68,2.25-15.68-3.21-23.45-5.14a4,4,0,0,0-3.06-.25h-1.95l-2.1,0a1,1,0,0,0-.92,0l-1-1C433.55,257.65,433.56,256.57,433.57,255.49Z" transform="translate(-363.14 -62.15)"/><path class="cls-1" d="M565.87,184.46l-4,.1-4-.16a2.62,2.62,0,0,0-.74-.07c-.66-2.25.88-3.1,2.4-4.23,3.19-2.38,7.19-3.81,9.25-7.58,2.47-.38,3.67-2.34,5.06-4.07a2.23,2.23,0,0,0,2.07-2c2.14-1,2.43-4.45,5.52-4.25-.1,5.67-5.07,8.1-7.92,12C571,177.57,566.18,179.34,565.87,184.46Z" transform="translate(-363.14 -62.15)"/><path class="cls-1" d="M381.57,270.11c-1.47-.11-3.45.11-2.14-2.37.85-1.61,2.18-3.64,3.89-3.43,5.09.64,9.38-2.78,14.34-2.36a12.12,12.12,0,0,0,10-3.77c1.95-1.95,4.3-.25,6.41-.29,5.49-.12,11.07-1.15,16.48.75l-2.05,1h0l-4.93,0-4-.2-1,.1-27.12,6.17C387.64,266.1,383.07,264.68,381.57,270.11Z" transform="translate(-363.14 -62.15)"/><path class="cls-1" d="M521.6,490.65c0-.61,0-1.21,0-1.82,2,.1,3.8,0,5.75,1,4.27,2.23,12.15.72,15.44-2.57,1.13-1.13.91-2.42,0-3.6-.75-1-2.36-1.38-2.31-3l-1-1h-2q0-3.58.08-7.16c4.82,5.41,9.1,11.14,10.26,19C539.18,490,530.31,494.66,521.6,490.65Z" transform="translate(-363.14 -62.15)"/><path class="cls-1" d="M591.54,150c-.26-2.11,2.35-4.25-.48-6.46-1.07-.83.87-2.25,1.49-3.32,2.74-4.71,2.76-4.72-2.92-5-1-.06-2-.28-2.94-.42,6-.31,12-1,18-.09,3.49.5,2.16,1.61,1.39,3.19-1.78-.24-2.33,1.58-3.62,2.16-3.4,1-5.4,3.72-7.62,6.17C593.56,147.31,593.4,149.42,591.54,150Z" transform="translate(-363.14 -62.15)"/><path class="cls-1" d="M524.82,284.81c-5.9,4.68-13.35,6.82-19.18,11.71-1.69,1.41-3.33,2.17-1.72,4.55l-1.93.06c-.45-.83-.83-.49-1.2.07a4.88,4.88,0,0,0-.86-.19c-.07-1.68-.13-3.37-.2-5.05q-.53-8.18-1.06-16.36a5.23,5.23,0,0,1,.23-3.53,6.49,6.49,0,0,0,1-.09c.64,5,1.27,10.06,1.94,15.09.18,1.38-.72,3.34.8,4s2.65-1,3.81-1.86C512,289.08,517.74,285.54,524.82,284.81Z" transform="translate(-363.14 -62.15)"/><path class="cls-1" d="M591.12,208.21c-.11-1.8.65-3.88-.54-5.33-2.35-2.84-.24-3.27,1.78-3.87,3-.87,5.93-1.7,8.94-2.57-.44-2.1-2.5-.7-3.15-1.91,2.41-.58,5.24-.49,6.2,1.7s-1.48,3.27-3.36,4.53c-2.34,1.57-2.77,5.18-5.64,6.6l-.52-.45.47.52-.72.87-3.44-.08Z" transform="translate(-363.14 -62.15)"/><path class="cls-1" d="M388.6,162.7c-2.07.5-4.24.78-5.87,2.38A122.7,122.7,0,0,0,368.86,169c-3.88,1.44-3.83,2.87-.88,5.14-1.75-.31-4.81,1.26-4.84-1.61s2.25-6,5.39-6.1c5.91-.28,10.38-4.08,15.63-5.46,5.53-1.45,11.1-4.18,17.18-2.73-3.2,2.24-7.3,2-10.62,3.93A2,2,0,0,0,388.6,162.7Z" transform="translate(-363.14 -62.15)"/><path class="cls-1" d="M368,174.13c-3-2.27-3-3.7.88-5.14a122.7,122.7,0,0,1,13.87-3.91c0,2,0,4,0,6-2,.29-3,3-6.07,1.37-2-1.08-1.91,2.7-3.06,4.08l-2.64-.8A4.69,4.69,0,0,0,368,174.13Z" transform="translate(-363.14 -62.15)"/><path class="cls-1" d="M508.1,93.05c1.15,3.21-.15,4.93-3.27,5.89-4.87,1.49-7.44,6.15-11.57,8.71-.86.54-1.43,2-.87,2.63,2.11,2.32-.44,3.31-1.1,4.82l-2,2h-1a1.89,1.89,0,0,0-2.16-2c0-.67,0-1.34,0-2a.66.66,0,0,0,.32-.65c1.7-.46,1.81-1.89,2-3.27A120.15,120.15,0,0,1,508.1,93.05Z" transform="translate(-363.14 -62.15)"/><path class="cls-1" d="M563.52,236.68c2.93.5,4.75-2.43,7.51-2.42-.61,3.61-4,5.23-5.78,8.09-1.06,1.77-2.35,3.17-1,5.27l-3.65-.36c-2.55-2.43-6.05-.45-8.81-1.9-.53-2,.42-2.56,2.25-2.74C558.15,242.23,561.17,240,563.52,236.68Z" transform="translate(-363.14 -62.15)"/><path class="cls-1" d="M606.13,137.9c.77-1.58,2.1-2.69-1.39-3.19-6.09-.89-12-.22-18,.09-.32.19-.64.39-.94.59l-.68.14c-.17-.87-.82-1.11-1.56-1.25-1.84-1.49-4-1-6-.86a.72.72,0,0,0-.77-.19l-.42-.79c9.1-.11,18.2-.16,27.29-.36,3.35-.07,5.92,2.83,9.41,2.16.9-.17,1.31.84,1.34,1.74a1.7,1.7,0,0,1-1.76,1.94C610.43,138,608.28,137.92,606.13,137.9Z" transform="translate(-363.14 -62.15)"/><path class="cls-1" d="M430.25,364.93l6,.85c5.62,3.48,12.07,4.3,18.32,5.75L465,373.4c-4.93,1.4-8.83.71-12.28,2.14-2.29-4.29-7-3.59-10.66-5.07C438.05,368.83,433.27,368.81,430.25,364.93Z" transform="translate(-363.14 -62.15)"/><path class="cls-1" d="M395.74,282c.21,1.35-.53,3.38,1.4,3.71,3.49.61,2.5,3.17,2.71,5.26-6.75-4.31-11.72-10.3-16-16.92h1.86a2.15,2.15,0,0,0,2,1h0A15.13,15.13,0,0,0,395.74,282Z" transform="translate(-363.14 -62.15)"/><path class="cls-1" d="M385.67,274h-1.86a3.84,3.84,0,0,1-.76-.08c-.46-1-.92-1.91-1.37-2.87,0-.33-.07-.66-.11-1,1.5-5.43,6.07-4,9.84-4.41,1.19,1.37.3,2.85.22,4.29s1.48,1.93,2.05,3l0,0a12.71,12.71,0,0,1-4.83-.74C387.35,271.69,385.89,271.94,385.67,274Z" transform="translate(-363.14 -62.15)"/><path class="cls-1" d="M584.88,413.43c-3-4.08-5.58-8.43-9.87-11.39a4.13,4.13,0,0,1-2.1-3.67C580.87,401,584.89,406.08,584.88,413.43Z" transform="translate(-363.14 -62.15)"/><path class="cls-1" d="M484.37,459.17c7.65,0,9.29,1.72,9.13,9.82C489.38,466.72,485.89,463.86,484.37,459.17Z" transform="translate(-363.14 -62.15)"/><path class="cls-1" d="M519.93,145.24c-2.48,3.77-7.55,4.87-9.51,9.18-2.36,1-2.41,4.61-5.43,4.88.68-4.12,1.84-7.78,6.73-8.79a3.7,3.7,0,0,0,2.34-2.35C514.83,144.53,517.11,144.47,519.93,145.24Z" transform="translate(-363.14 -62.15)"/><path class="cls-1" d="M428.52,259.61l2.05-1,3,.1,1,1.05c-.2,1.55.34,4-2.11,3.65-3-.39-6.66,2.37-8.86-1.77l0-2,4.93,0a1.83,1.83,0,0,0,.18.34c0,.06.15.07.23.1Z" transform="translate(-363.14 -62.15)"/><path class="cls-1" d="M411.56,148c2.83,2.05,6,3.7,8,6.72a.77.77,0,0,0-.16.7c-2.19,1.08-4.49.42-6.74.43A18.26,18.26,0,0,0,411.56,148Z" transform="translate(-363.14 -62.15)"/><path class="cls-1" d="M390.36,231.84c.42-2.88.33-6.41,5-3.93-1.8,2.06.14,3.37,1.16,4.59s1.74,2.39.36,3.81C394.55,235,392.18,233.84,390.36,231.84Z" transform="translate(-363.14 -62.15)"/><path class="cls-1" d="M500.79,301.2c.37-.56.75-.9,1.2-.07.05,9.45.06,18.89.21,28.34,0,1.34-1,3.66,2,3.47-.11,1.06-.93,1.29-1.77,1.51-1.51-1.44-1.17-3.33-1.2-5.11-.18-8.84-.32-17.69-.48-26.53C500.76,302.28,500.78,301.74,500.79,301.2Z" transform="translate(-363.14 -62.15)"/><path class="cls-1" d="M448.51,475.51c1.71-1.73,3.53-3.27,6.18-3.72,1.54,1.71-4,5,1.16,5.81-2.57,1.88-5.46.9-8.2.77-1.86-.1-1.59-1.28-.5-2.34,1.05,1.35,1.26.54,1.37-.53Z" transform="translate(-363.14 -62.15)"/><path class="cls-1" d="M536,468.88c-2.69,2.91-2.85-1.31-4.41-1.57,1.09-4.24-2.94-7.57-2.07-11.77C531.31,460.14,534.66,464,536,468.88Z" transform="translate(-363.14 -62.15)"/><path class="cls-1" d="M418.49,248.81c4.27.26,7.4,3,10.93,4.91a25.61,25.61,0,0,0-4.38,0C421,254.42,418.91,252.8,418.49,248.81Z" transform="translate(-363.14 -62.15)"/><path class="cls-1" d="M502.62,163c-3.35,4.46-5.44,9.56-7.52,14.67-1.33-4.33,1.79-7.85,2.29-11.89C497.62,163.82,500.15,162.6,502.62,163Z" transform="translate(-363.14 -62.15)"/><path class="cls-1" d="M479.91,138.16c.33,1.26,1,2.93-.23,3.63s-2.53-.77-3.09-1.8c-1.41-2.63-4.82-3-6.06-5.73,3-.83,5.76-1.45,6.09,3.24C476.82,140.3,478.75,138.13,479.91,138.16Z" transform="translate(-363.14 -62.15)"/><path class="cls-1" d="M517.21,442.91c-1.1-.15-2.84.08-3.2-.51-1.67-2.8-3.4-1.36-5.28-.49s-3.34,2.76-5.56,1c4.43-2.44,8.88-4.68,14-2l.06,1.94Z" transform="translate(-363.14 -62.15)"/><path class="cls-1" d="M486.66,153.32l0,4.72c0,.34,0,.68,0,1-.3.4-.6.79-.91,1.18-1.44-1.17-2.1.42-3.09.88-.1-2.58-3-2.17-4-3.83l1.27-.11c2.38,1,3.88.56,4.43-2.25.39-2,.27-4.32,2.26-5.74Z" transform="translate(-363.14 -62.15)"/><path class="cls-1" d="M446,311.61c3,.56,6.18.46,9,2l-1,3.46a13.69,13.69,0,0,1-5.84,0c.67-1.05,2.88-.32,2.72-2.17s-1.86-1.33-3-1.49A2,2,0,0,1,446,311.61Z" transform="translate(-363.14 -62.15)"/><path class="cls-1" d="M565.45,132.47c-.33,2.4-2.21,2-3.77,2-3.58,0-7.17,0-10.75,0a11.16,11.16,0,0,1,8.39-2l2.27,0Z" transform="translate(-363.14 -62.15)"/><path class="cls-1" d="M589.12,214.56l0-1.33.4-.23-.18-.18-.22.41c-2.07-.2-2.13-1.7-1.9-3.2.36-2.42,2.4-1.55,3.85-1.82h0a2.22,2.22,0,0,0,1.35,2.19C591.33,211.76,591,213.81,589.12,214.56Z" transform="translate(-363.14 -62.15)"/><path class="cls-1" d="M401.6,143.65a22.37,22.37,0,0,1,9.17,4.09C406.93,148.14,402.71,149.4,401.6,143.65Z" transform="translate(-363.14 -62.15)"/><path class="cls-1" d="M371,175.71l2.64.8c1.21,1.5,3.61,1.39,4.5,3.32C372.7,181.15,371.42,180.42,371,175.71Z" transform="translate(-363.14 -62.15)"/><path class="cls-1" d="M594.89,146.23c2.22-2.45,4.22-5.17,7.62-6.17C602.67,145.44,598.22,145.15,594.89,146.23Z" transform="translate(-363.14 -62.15)"/><path class="cls-1" d="M544.25,65.56c-3.62-1.12-3.6,3.76-6.45,3.92-.09-2.72,2.54-4,3.41-6.18a1.86,1.86,0,0,1,2.45-1C545,63.06,545.25,64.26,544.25,65.56Z" transform="translate(-363.14 -62.15)"/><path class="cls-1" d="M458.32,472.88l-.84-4.32a2.33,2.33,0,0,0,1-2.13v0l4.45-.22Z" transform="translate(-363.14 -62.15)"/><path class="cls-1" d="M466.48,463.53c-.46-1.62-.92-3.25-1.39-4.93,2.69-.51,3.85,1.54,5.42,2.8A6,6,0,0,1,466.48,463.53Z" transform="translate(-363.14 -62.15)"/><path class="cls-1" d="M536.9,136.88c-2.23,1.54-4.57,2.82-7.38,2.9-1-1.81-1-3.1,1.61-3C533.06,136.82,535,136.84,536.9,136.88Z" transform="translate(-363.14 -62.15)"/><path class="cls-1" d="M533.28,72.91l-7.34,5.75C526.29,74.06,528.66,72.05,533.28,72.91Z" transform="translate(-363.14 -62.15)"/><path class="cls-1" d="M378.13,179.81c2.66.84,5.17,1.93,7,4.14C381.75,184.36,379.37,183,378.13,179.81Z" transform="translate(-363.14 -62.15)"/><path class="cls-1" d="M527.74,140.88l-7.8,4.36C521,141.05,524.13,140.53,527.74,140.88Z" transform="translate(-363.14 -62.15)"/><path class="cls-1" d="M577.53,227.82c-.49-3.5.52-5.78,4.55-5.59A15.82,15.82,0,0,1,577.53,227.82Z" transform="translate(-363.14 -62.15)"/><path class="cls-1" d="M608.47,350.12c-1.36-2-3.41-.34-5.46-1,.92-1.36,3.56-.73,3.28-2.9C607.63,347.16,611,347,608.47,350.12Z" transform="translate(-363.14 -62.15)"/><path class="cls-1" d="M519.92,84.65c.05,4.25-2.76,4.49-5.93,4.21A12.44,12.44,0,0,1,519.92,84.65Z" transform="translate(-363.14 -62.15)"/><path class="cls-1" d="M486.1,113.13c0,.67,0,1.34,0,2-2,1.22-2.09,3.78-3.69,5.28A6.25,6.25,0,0,1,486.1,113.13Z" transform="translate(-363.14 -62.15)"/><path class="cls-1" d="M567.59,392.65c-2.67-.39-4.29-2.39-6.15-4C564.6,388.26,567.36,388.52,567.59,392.65Z" transform="translate(-363.14 -62.15)"/><path class="cls-1" d="M471.39,461.19c1.92-.89,2.17-6.81,6-2C475.46,460.13,473.62,461.26,471.39,461.19Z" transform="translate(-363.14 -62.15)"/><path class="cls-1" d="M527.6,452.54c-3.57-.49-4.51-2.81-4.2-6C525,448.42,526.8,450.12,527.6,452.54Z" transform="translate(-363.14 -62.15)"/><path class="cls-1" d="M520.33,128.71c0-2.65,1.32-4.23,3.77-5C523.78,126.09,523.06,128.15,520.33,128.71Z" transform="translate(-363.14 -62.15)"/><path class="cls-1" d="M425.49,361.72c2.18.19,4.95-.5,4.73,3.21C428.34,364.31,426.25,364,425.49,361.72Z" transform="translate(-363.14 -62.15)"/><path class="cls-1" d="M482,123.15l-1.71,6C479.69,126.83,479.55,124.62,482,123.15Z" transform="translate(-363.14 -62.15)"/><path class="cls-1" d="M492.72,485.17c1.64,2.18.71,4.56.91,7.61-1.46-2.26-.68-4-1-5.68Z" transform="translate(-363.14 -62.15)"/><path class="cls-1" d="M407.65,156.82c-1.44.52,2.25,5.54-2.65,3C407.32,160.09,405,156.28,407.65,156.82Z" transform="translate(-363.14 -62.15)"/><path class="cls-1" d="M571.44,231.42l3.1-.86c-.11,1.94-1.26,2.81-3.08,3C571.45,232.83,571.45,232.13,571.44,231.42Z" transform="translate(-363.14 -62.15)"/><path class="cls-1" d="M575.05,252.11c-2.07.46-3.21-.48-3.66-2.44A5.18,5.18,0,0,1,575.05,252.11Z" transform="translate(-363.14 -62.15)"/><path class="cls-1" d="M391,187.8a6.88,6.88,0,0,1,3.95,2.19C393.27,189.85,391.13,190.62,391,187.8Z" transform="translate(-363.14 -62.15)"/><path class="cls-1" d="M522.26,444.81c-1.53-.07-3.29.11-2.52-2.38A3.48,3.48,0,0,1,522.26,444.81Z" transform="translate(-363.14 -62.15)"/><path class="cls-1" d="M592.49,210.41a2.22,2.22,0,0,1-1.35-2.19l3.44.08A3.65,3.65,0,0,1,592.49,210.41Z" transform="translate(-363.14 -62.15)"/><path class="cls-1" d="M401.45,291.88c.3-.7.58-1.68,1.51-1.42,1.12.32.81,1.51,1,2.39l0,0-1.51-.08Z" transform="translate(-363.14 -62.15)"/><path class="cls-1" d="M488.42,109.21c-.19,1.38-.3,2.81-2,3.27C486.24,110.88,486,109.26,488.42,109.21Z" transform="translate(-363.14 -62.15)"/><path class="cls-1" d="M505,159.27a5.49,5.49,0,0,1-2.07,3.26C502.77,160.89,502.24,159,505,159.27Z" transform="translate(-363.14 -62.15)"/><path class="cls-1" d="M385.87,184.41c1.17.14,2.31.34,2.77,1.66C387.36,186.11,386.11,186.11,385.87,184.41Z" transform="translate(-363.14 -62.15)"/><path class="cls-1" d="M605.38,351.67a2.93,2.93,0,0,1,3.07-1.54C608.07,351.92,606.72,351.78,605.38,351.67Z" transform="translate(-363.14 -62.15)"/><path class="cls-1" d="M480,133.26c0,1-.08,2-.13,3C477.48,135.15,479.11,134.22,480,133.26Z" transform="translate(-363.14 -62.15)"/><path class="cls-1" d="M564.59,372.21c.2-1.08.38-2.18,1.86-1.12A1.91,1.91,0,0,1,564.59,372.21Z" transform="translate(-363.14 -62.15)"/><path class="cls-1" d="M535.9,70.73a1.93,1.93,0,0,1-2,1.81A1.7,1.7,0,0,1,535.9,70.73Z" transform="translate(-363.14 -62.15)"/><path class="cls-1" d="M524.56,123.07a1.76,1.76,0,0,1,1.47-2.38A2.13,2.13,0,0,1,524.56,123.07Z" transform="translate(-363.14 -62.15)"/><path class="cls-1" d="M568.93,249.1l-1.36,1.66c-.18-.19-.53-.42-.5-.55.23-.89,1-1,1.78-1.13Z" transform="translate(-363.14 -62.15)"/><path class="cls-1" d="M529.14,454.79a1.6,1.6,0,0,1-1.56-2.25A2.41,2.41,0,0,1,529.14,454.79Z" transform="translate(-363.14 -62.15)"/><path class="cls-1" d="M397,236.38c1.53-.54,2.27.09,2.38,1.63A2.53,2.53,0,0,1,397,236.38Z" transform="translate(-363.14 -62.15)"/><path class="cls-1" d="M448.55,471.66c0,1.29,0,2.57,0,3.85h-1.09C447.53,474.14,447.5,472.74,448.55,471.66Z" transform="translate(-363.14 -62.15)"/><path class="cls-1" d="M517.26,442.85l-.06-1.94a2.76,2.76,0,0,1,2.44,1.4Z" transform="translate(-363.14 -62.15)"/><path class="cls-1" d="M537.66,472.58c-1.41-.1-2.79-.23-1-1.95A2,2,0,0,1,537.66,472.58Z" transform="translate(-363.14 -62.15)"/><path class="cls-1" d="M420.27,357.89a1.82,1.82,0,0,1,2.27,1.63A2.19,2.19,0,0,1,420.27,357.89Z" transform="translate(-363.14 -62.15)"/><path class="cls-1" d="M417.23,355.94a1.73,1.73,0,0,1,2.31,1.54A2.1,2.1,0,0,1,417.23,355.94Z" transform="translate(-363.14 -62.15)"/><path class="cls-1" d="M582.58,161.08a2.15,2.15,0,0,1,1.35-2C584.19,160.25,583.66,160.85,582.58,161.08Z" transform="translate(-363.14 -62.15)"/><path class="cls-1" d="M576.29,132.44l.42.79c-1.08.13-2.17.39-3.13-.4Z" transform="translate(-363.14 -62.15)"/><path class="cls-1" d="M381.68,271.1c.45,1,.91,1.91,1.37,2.87C381.48,273.54,381.67,272.28,381.68,271.1Z" transform="translate(-363.14 -62.15)"/><path class="cls-1" d="M438.66,380.63c-.59,1.16-1.67,1.1-2.73,1.09A3.47,3.47,0,0,1,438.66,380.63Z" transform="translate(-363.14 -62.15)"/><path class="cls-1" d="M542.43,381.77l-2.64-.62A2.82,2.82,0,0,1,542.43,381.77Z" transform="translate(-363.14 -62.15)"/><path class="cls-1" d="M414.39,353.84a1.8,1.8,0,0,1,2.12,1.73A2.63,2.63,0,0,1,414.39,353.84Z" transform="translate(-363.14 -62.15)"/><path class="cls-1" d="M447.42,475.5h1.1c-.11,1.07-.32,1.88-1.37.53A.44.44,0,0,1,447.42,475.5Z" transform="translate(-363.14 -62.15)"/><path class="cls-1" d="M446.06,317.21h-1.92C444.78,316.38,445.42,316.39,446.06,317.21Z" transform="translate(-363.14 -62.15)"/><path class="cls-1" d="M546.64,383.65l-1.7-.32Z" transform="translate(-363.14 -62.15)"/><path class="cls-1" d="M561.59,132.41l-2.27,0A1.48,1.48,0,0,1,561.59,132.41Z" transform="translate(-363.14 -62.15)"/><path class="cls-1" d="M402.38,292.81l1.51.08.05.46,0,.47A1.51,1.51,0,0,1,402.38,292.81Z" transform="translate(-363.14 -62.15)"/><path class="cls-1" d="M586,156.64c-.15-1.09.5-1.42,1.43-1.5Z" transform="translate(-363.14 -62.15)"/><path class="cls-1" d="M537.66,69.63c0,.49-.2.75-.73.52A1.09,1.09,0,0,1,537.66,69.63Z" transform="translate(-363.14 -62.15)"/><path class="cls-1" d="M572.22,186.27l-1.23-.48Z" transform="translate(-363.14 -62.15)"/><path class="cls-1" d="M571.4,132.79a3.56,3.56,0,0,1-.6.27c-.07,0-.18-.14-.28-.22A.71.71,0,0,1,571.4,132.79Z" transform="translate(-363.14 -62.15)"/><path class="cls-1" d="M574.52,230.57a1,1,0,0,1,1.19-.89Z" transform="translate(-363.14 -62.15)"/><path class="cls-1" d="M537.47,435.64a1.29,1.29,0,0,1,.61.49C537.61,436.3,537.42,436.12,537.47,435.64Z" transform="translate(-363.14 -62.15)"/><path class="cls-1" d="M536.12,434.79l1.06.68Z" transform="translate(-363.14 -62.15)"/><path class="cls-1" d="M582.2,222.07a.89.89,0,0,1,.52-.74C582.54,221.57,582.37,221.82,582.2,222.07Z" transform="translate(-363.14 -62.15)"/><path class="cls-1" d="M581.61,162.06l.87-.87C582.51,161.8,582.25,162.13,581.61,162.06Z" transform="translate(-363.14 -62.15)"/><path class="cls-1" d="M471.59,421.59l1.4.22Z" transform="translate(-363.14 -62.15)"/><path class="cls-1" d="M457.6,474.56l.39-1.13Z" transform="translate(-363.14 -62.15)"/><path class="cls-1" d="M510,91.94l-1.43.78A1.22,1.22,0,0,1,510,91.94Z" transform="translate(-363.14 -62.15)"/><path class="cls-1" d="M593.45,337l.15.14Z" transform="translate(-363.14 -62.15)"/><path class="cls-1" d="M522.94,445.82l-.67-1Z" transform="translate(-363.14 -62.15)"/><path class="cls-1" d="M606.23,346.18a1,1,0,0,1-.86-.09,5.63,5.63,0,0,1,.69-.24S606.17,346.06,606.23,346.18Z" transform="translate(-363.14 -62.15)"/><path class="cls-1" d="M544.05,382.52l-1.41-.68Z" transform="translate(-363.14 -62.15)"/><path class="cls-1" d="M441.61,379.49a1.28,1.28,0,0,1-1.64.63Z" transform="translate(-363.14 -62.15)"/><path class="cls-1" d="M513,89.45a1,1,0,0,1-.7.53C512.32,89.48,512.52,89.27,513,89.45Z" transform="translate(-363.14 -62.15)"/><path class="cls-1" d="M464.4,464.87l.79-.56C465.14,464.81,464.91,465,464.4,464.87Z" transform="translate(-363.14 -62.15)"/><path class="cls-1" d="M429.47,253.85l1,.82Z" transform="translate(-363.14 -62.15)"/><path class="cls-1" d="M430.71,384.68l-1.4.87Z" transform="translate(-363.14 -62.15)"/><path class="cls-1" d="M568.76,393.5l-1.18-.9Z" transform="translate(-363.14 -62.15)"/><path class="cls-1" d="M423.14,360a1,1,0,0,1,1.21.92Z" transform="translate(-363.14 -62.15)"/><polygon class="cls-1" points="36.57 80.62 36.84 80.47 36.93 80.79 36.57 80.62"/><path class="cls-1" d="M571.2,249.51l-1.28-.55C570.58,248.61,571,248.74,571.2,249.51Z" transform="translate(-363.14 -62.15)"/><path class="cls-1" d="M462.05,422.11a4.52,4.52,0,0,1,.7-.34c.05,0,.18.21.28.32Z" transform="translate(-363.14 -62.15)"/><path class="cls-1" d="M419.4,155.43a.77.77,0,0,1,.16-.7h4.08l9.09,3.84,13.9,1.05c2.91,2.2,6.38,2.37,9.81,2.79,6.38.79,12.26,2.54,15.46,8.9a59.77,59.77,0,0,0-19-2.14c-3.55.09-6.5-2-9.85-2.83-8-1.94-15.85-4.85-22.69-9.77A5.81,5.81,0,0,1,419.4,155.43Z" transform="translate(-363.14 -62.15)"/><path class="cls-1" d="M446.63,159.61l-13.9-1.05c1.12-1.41,2.75-.79,4.16-1a1.79,1.79,0,0,0,1.65-2.07c0-.65-.33-1.68-1-1.38-4.28,1.89-7-3.24-10.93-2.39.14-2.58,2.73-1.93,4-3,2.1.21,3.74-1,5.54-1.78,2.34-1,4.68-1.5,6.91.36,0,1.54-1.33,1.67-2.28,2.14s-2.07.52-1.93,1.82,1.32,1.12,2.25,1.39C444.57,153.59,446,156.33,446.63,159.61Z" transform="translate(-363.14 -62.15)"/><path class="cls-1" d="M430.59,146.66c-2.21-4.3,1.77-4.56,3.92-6l4,0h0a4.3,4.3,0,0,0,0,1C436.84,144.74,434,146.19,430.59,146.66Z" transform="translate(-363.14 -62.15)"/><path class="cls-1" d="M492.47,137.11c-.1,4.91-2.84,8.53-5.86,12A21,21,0,0,1,492.47,137.11Z" transform="translate(-363.14 -62.15)"/><path class="cls-1" d="M446.52,142.42c4.31.45,8.54,1.16,12.1,3.93l-.11.11c-4.22,0-7.86-2.23-11.86-3.08C446.59,143.07,446.55,142.74,446.52,142.42Z" transform="translate(-363.14 -62.15)"/><path class="cls-1" d="M438.51,140.59l-4,0c-3.33-.57-6.48-2.07-9.95-2C429.61,136.36,434,139.15,438.51,140.59Z" transform="translate(-363.14 -62.15)"/><path class="cls-1" d="M470.62,152.29a11.1,11.1,0,0,1-8-3.92h0C465.61,149,469,148.74,470.62,152.29Z" transform="translate(-363.14 -62.15)"/><path class="cls-1" d="M492.32,135.12c1.66-1.69,2.12-4.39,5.31-5.85-1.43,3.37-2.73,5.91-5.14,7.8Z" transform="translate(-363.14 -62.15)"/><path class="cls-1" d="M488.3,117.13h1c-.22,2.13.56,4.39-.93,7.24C487,121.39,486.8,119.28,488.3,117.13Z" transform="translate(-363.14 -62.15)"/><path class="cls-1" d="M446.52,142.42c0,.32.07.65.13,1l-8.11-1.83a4.3,4.3,0,0,1,0-1C441.36,140.4,444.12,140.6,446.52,142.42Z" transform="translate(-363.14 -62.15)"/><path class="cls-1" d="M470.39,152.2c2.6.15,4.25.72,5.82,2.56C473.26,155.78,472,154,470.39,152.2Z" transform="translate(-363.14 -62.15)"/><path class="cls-1" d="M458.62,146.35c1.66,0,3.17.3,4,2h0c-1.6-.14-3.6.6-4.08-1.91Z" transform="translate(-363.14 -62.15)"/><path class="cls-1" d="M482.63,161.11c1-.46,1.65-2.05,3.09-.88.17,2.91-1.8,1.66-3.15,1.61A1.51,1.51,0,0,1,482.63,161.11Z" transform="translate(-363.14 -62.15)"/><path class="cls-1" d="M479.88,157.17l-1.27.11c-.47-.41-1-1.12-.46-1.45C479.44,155.09,479.49,156.46,479.88,157.17Z" transform="translate(-363.14 -62.15)"/><path class="cls-1" d="M471.54,254.3a32,32,0,0,1,3.65-3.17c2.86-1.83,1.11-3.64.36-5.69-1.18-3.25-2.43.37-3.67-.16a6.38,6.38,0,0,0-2.42,0h0c-2.28-3.14-4.92-3.58-8.23-1.43-2.77,1.81-2.55,1.57-3.47-1.54-.58-2-2-3.68-2.38-5.82,10,1.89,19.36,5.84,29.07,8.65l0,0c.64,3.27,3.28,1.39,5,1.92.38,2.69,2.53,1.8,4.12,2-.63,2.77,2.42,3.21,3.21,5.07l-.12,1c-1.13,5-6,4.19-9.17,5.91-5.54.45-11.15-.53-16.67,1-1.66.47-4.48.76-3.23-2.82,2,0,4,.07,6-.12,2.33-.21,4.24-1.07,4-4a2.08,2.08,0,0,0,1-2c.82,0,1.65,0,2.48,0,1,0,2.08-.09,2.3-1.36a2,2,0,0,0-1.05-2.07c-1.13-.64-1.84.14-2.57.82a3.56,3.56,0,0,0-1.16,2.65c-1.38.15-3-.44-4,1Z" transform="translate(-363.14 -62.15)"/><path class="cls-1" d="M495.66,227.05c1.1-4.17-3.07-4.7-5-6.25-3-2.49-7-3.8-10.6-5.6a4.11,4.11,0,0,0-2.14-2.94,2.93,2.93,0,0,1,2.76-1.78c4.69-.37,7.74-2.88,9.61-7,1.27.53,3.16,3.13,3-1,0-1.32-.63-3.1,1.7-3.26,0,8.68-.36,17.38,2.2,25.85.53,1.74.69,3.63,3,4,.28,1.12.3,2.17-.9,2.81-1.64-1.1-2.53-2.81-3.56-4.41Z" transform="translate(-363.14 -62.15)"/><path class="cls-1" d="M478,212.26a4.11,4.11,0,0,1,2.14,2.94c-4.88.55-9.63-.08-14.49-.78-6.49-.95-13.17-.49-19.73-1a26.2,26.2,0,0,1-13.77-5.77c3.81-2,7.3,1.75,11.06.6l3.91.1,14.06,1,9,.88,2,1.06C473.86,212.92,476,212.24,478,212.26Z" transform="translate(-363.14 -62.15)"/><path class="cls-1" d="M495.82,227.42c1,1.6,1.92,3.31,3.56,4.41a.65.65,0,0,1,0,.56c-2,1.7-.77,3.92-.94,5.9-.39,4.46,1.59,3.66,4,1.71a19.94,19.94,0,0,0,8.22-6.6c1.68-2.29,2.54-.35,3.72-.49-2.34,3.81-6.25,5.94-9.49,8.78-1,.84-2.85,1.28-2.61,2.62s2,2,3.32,2.59c4.53,2.11,9.55,1.93,14.3,3-.7,2-2.25,2.8-4.24,3-3.52-1.9-7.75-1.66-11.22-3.37-4.5-2.21-5.13-.18-5,3.53l-2.65,1.19c-.79-1.87-3.84-2.31-3.21-5.08l.94-.09c5.22,1.15,2.87-2.91,2.75-4.58C496.86,238.79,494.85,233.24,495.82,227.42Z" transform="translate(-363.14 -62.15)"/><path class="cls-1" d="M484.44,245.16c-9.71-2.81-19.09-6.76-29.07-8.65-8.84-2.53-17.94-3.6-27-4.91l0-1.06A183.74,183.74,0,0,1,482.24,243C483.37,243.39,484.51,243.63,484.44,245.16Z" transform="translate(-363.14 -62.15)"/><path class="cls-1" d="M495.82,227.42c-1,5.82,1,11.37,1.43,17.05.12,1.67,2.47,5.73-2.75,4.58.65-8.37-2.39-15.89-4.54-24.07,1.84-1.19,3,4.05,5.7,2.07Z" transform="translate(-363.14 -62.15)"/><path class="cls-1" d="M480.31,224.81c1,4.21,3.36,8.16,2.65,13.82C479.6,233.75,480.65,229.15,480.31,224.81Z" transform="translate(-363.14 -62.15)"/><path class="cls-1" d="M489.44,247.11c-1.7-.53-4.34,1.35-5-1.92C486.3,245.38,488.73,244,489.44,247.11Z" transform="translate(-363.14 -62.15)"/><path class="cls-1" d="M448.4,342.49l-1.06-.05c1.88-3,4.61-.8,6.79-.82,4.19,0,5.58-1,3.29-4.95a13.68,13.68,0,0,1-.9-2.62c.6-.07.8-.16.9-.1,2.87,2,1.81,6.37,4.09,8.07,2,1.47,5.68-1,7.95,2.18,1.29,1.77,2.12.2,2.78-1.05,1-1.9-.18-3.88.28-6,2.08,1,1.47,4,3.85,4.68s3.32-1.4,4.74-2.67c.47,2.26.45,4.41.78,6.53.66,4.33,3.56,3.74,6.27,3.4,3.44-.43,2.12-3.16,1.94-5.09-.47-5,.94-10.1-.3-15.26-2.42.38-.94,2.63-2,3.47-.87-4.17-4.33-5.42-10.84-3.25,2.8-3,.46-7.36,4.44-9.21,5.18,4,11.67,5.86,16.75,10.05l1.07.35a2.63,2.63,0,0,1,.12.69c-1.81,1.61-1.21,3.75-.94,5.6a82.54,82.54,0,0,1,.9,12.65c-1.27.08-2.72-.05-2.77,1.79,0,.55.24,1.43.61,1.6,1.2.52,1.35-1.05,2.2-1.35q.07,3.06.16,6.12c-3,1.39-4.79-1.16-6.87-2.38-2.58-1.53-5-3.21-8.22-2.64h0c-2.24-2.21-5.11-2.66-8.05-2.94h0c-1-1.57-2.62-.94-4-1l0,0c-6.48-3.95-14-3.71-21.08-5.08C450.5,342.33,449.42,342.52,448.4,342.49Zm44.31,5.9,1,0-.13-14.59-1,0Z" transform="translate(-363.14 -62.15)"/><path class="cls-1" d="M498.14,329.75c-5.08-4.19-11.57-6-16.75-10.05,1.61-3.43,5.52-1.44,7.78-3.33,3.23-.54,5-3.38,7.69-4.8l1,.82a8,8,0,0,1,1.24,4.65q.15,6,.29,12l-.08.13Z" transform="translate(-363.14 -62.15)"/><path class="cls-1" d="M496.86,311.57c-2.67,1.42-4.46,4.26-7.69,4.8a24.55,24.55,0,0,1,1.15-2.68c2.26-4.05,2.25-4-1.82-5.22-.82-.25-1.4-1.32-2.48-1.31-1.17-.26-2.91.74-3.38-.9-.37-1.26,1.41-1.5,2.13-2.29a19.78,19.78,0,0,1,2.21-1.84h2c1.83,2.41,4.45,3.66,7.1,4.87A5.43,5.43,0,0,1,496.86,311.57Z" transform="translate(-363.14 -62.15)"/><path class="cls-1" d="M458,314.72c1.75.32,4-.37,4.49,2.37l-4.47-.06C458.05,316.26,458,315.49,458,314.72Z" transform="translate(-363.14 -62.15)"/><path class="cls-1" d="M476.11,319.25c-.33-3.18,1.84-3.09,4-3C478.85,317.34,479.45,320.87,476.11,319.25Z" transform="translate(-363.14 -62.15)"/><path class="cls-1" d="M458,314.72c0,.77,0,1.54,0,2.31l-2-.07a1.06,1.06,0,0,0-1.52.12,1,1,0,0,1-.53,0l1-3.46A4.47,4.47,0,0,1,458,314.72Z" transform="translate(-363.14 -62.15)"/><path class="cls-1" d="M454.52,317.08A1.06,1.06,0,0,1,456,317Z" transform="translate(-363.14 -62.15)"/><path class="cls-1" d="M574.38,346.36v1l-1,.23-1-.05-3.93-.1-19,.14-4,.06-10,.08-2.91,0c.61-3.09,3.14-1.91,4.82-1.93C549.66,345.63,562,345,574.38,346.36Z" transform="translate(-363.14 -62.15)"/><path class="cls-1" d="M532.47,347.7l2.91,0a10.12,10.12,0,0,1,1.08,2.19c.34,1.51,3,3.15.65,4.48-2,1.14-3.62-.78-4.61-2.59a22.46,22.46,0,0,1-1.18-3.19,8.46,8.46,0,0,1,0-.87Z" transform="translate(-363.14 -62.15)"/><path class="cls-1" d="M500.79,301.2c0,.54,0,1.08,0,1.61-1.26.35-2.78.37-2.78,2.26l-1.87.22c-2.2-1.45-4.13-3.5-7.13-3.15h0c-.36-1-1.17-1-2-1h0c-2.11-3.39-5.31-4.26-9-3.93h0c-1.59-2.8-4.42-2.62-7-2.95h0c-.87-1.39-2.42-1.82-3.77-2.25-9.3-2.93-18.61-5.86-28.24-7.48-2.26-.38-4.68-2.39-7,0a5.86,5.86,0,0,0-1.93.1c-3.15,1.24-5.65,1.33-6.05-3a55.69,55.69,0,0,0-18.22-4.87l-3-1a2.15,2.15,0,0,0-2-1l-1.05-5h2a1.55,1.55,0,0,0,1.95.79c.1,0,.16-.19.24-.29l-1.19-.5,0-2c5.15-.15,8.72-5.13,14.33-4.4,2.2.28,1.39-2.46,1.55-4l1-.1c.6,2.09,2.19,2.41,4.05,2.24,2.2,4.14,5.9,1.38,8.86,1.77,2.45.33,1.91-2.1,2.11-3.65a.94.94,0,0,1,.92,0c.1.67.34,1.46,1.06,1.37.4-.05.7-.91,1-1.41h1.95c.25,1.58-.46,4,2.36,3.64,2.55-.37.57-2.22.7-3.39,7.77,1.93,14.77,7.39,23.45,5.14,4,.42,8.3-.61,11.4,3.26,1.13,1.4,3.07.82,4.7.58a24.94,24.94,0,0,1,13.61,10,66.4,66.4,0,0,1,2.14,17.12c.44,1.75-1.2,4.34,2,5A4.88,4.88,0,0,1,500.79,301.2Z" transform="translate(-363.14 -62.15)"/><path class="cls-1" d="M431.9,284.61c2.31-2.42,4.73-.41,7,0,9.63,1.62,18.94,4.55,28.24,7.48,1.35.43,2.9.86,3.77,2.25-7.37-.17-13.84-3.8-20.82-5.51C444,287.32,438,286,431.9,284.61Z" transform="translate(-363.14 -62.15)"/><path class="cls-1" d="M405.7,276.87a55.69,55.69,0,0,1,18.22,4.87l-6.13,0C414.4,278.47,408.93,280.48,405.7,276.87Z" transform="translate(-363.14 -62.15)"/><path class="cls-1" d="M477.91,297.24c3.73-.33,6.93.54,9,3.93C483.66,300.5,480.49,299.55,477.91,297.24Z" transform="translate(-363.14 -62.15)"/><path class="cls-1" d="M470.88,294.3c2.62.33,5.45.15,7,2.95C475.24,297.06,472.05,298.08,470.88,294.3Z" transform="translate(-363.14 -62.15)"/><path class="cls-1" d="M475.2,311.64c1.16-1.72,2.58-1.93,4.7-1.95C478.63,311.68,477.48,312.51,475.2,311.64Z" transform="translate(-363.14 -62.15)"/><path class="cls-1" d="M486.94,301.16c.85-.06,1.66,0,2,1h-2A4.51,4.51,0,0,1,486.94,301.16Z" transform="translate(-363.14 -62.15)"/><path class="cls-1" d="M448.4,342.49c1,0,2.1-.16,2.91.73-.55.77-.2,1.15.58,1.29l20.5,3.79,0,0c1,1.59,2.62,1,4,1h0c2,2.76,5,2.87,8.05,2.94h0c2.89,3.28,7.19,4.39,10.71,6.71a4.52,4.52,0,0,1,2.32,4.88c-4.93,5-10.62,8.26-17.84,8.28-.2-.86.34-2.35-1.08-2.26s-.77,1.54-.92,2.43l-1.06.36a.63.63,0,0,0-.88-.08l-2.1,0-1-.07.09-.37c-.27-1.1-.5-2.68-1.58-2.74s-1.2,1.61-1.67,2.57l-1.29-.23c-2.15.53-1-1.82-2.22-2.67-2.53-1.81-2.45-2.74-4.45-.95s-5.94-.19-6.87,3.52c-6.25-1.45-12.7-2.27-18.32-5.75,2.58-4.61-2.45-3.81-3.93-4.76-2.42-1.58-7-.38-4.61-6.09.73-1.77-2.55-.81-4-1.16-.91-.22-2.19.35-2.68-.71-.75-1.59,1.94-1,1.65-2.93-4.11.15-7.45-.81-8.47-6-.58-3-.16-3.55,2.51-3.4,8.56.45,17.14.56,25.58,2.33C444.44,343.53,446.54,344.3,448.4,342.49Z" transform="translate(-363.14 -62.15)"/><path class="cls-1" d="M476.53,372.58l1.06-.36,2-.17c7.22,0,12.91-3.32,17.84-8.28,2.87,1.28,1.92,3.89,2,6,.15,4.27.09,8.55.08,12.82,0,1.42.39,3.11-1.75,3.49-7.68-5.46-15.54-10.41-25.4-11-1.68-.11-4.59-.22-4.23-3.49l1.29.23c1.05.64,2.15.34,3.25.17l-.09.37c.09.11.2.34.27.33a3.12,3.12,0,0,0,.7-.26l2.1,0c.08.11.17.3.23.29A3.08,3.08,0,0,0,476.53,372.58Z" transform="translate(-363.14 -62.15)"/><path class="cls-1" d="M497.75,387c.81.23,1.86.48,1.84,1.39-.09,6.57,1.1,13.18-.65,19.69-2.08-3.14-.83-6.66-1.05-10C497.65,394.42,497.78,390.71,497.75,387Z" transform="translate(-363.14 -62.15)"/><path class="cls-1" d="M495.93,411.08c-1.29,0-2-.6-2-2C495.25,409.1,496,409.72,495.93,411.08Z" transform="translate(-363.14 -62.15)"/><path class="cls-1" d="M501.26,122.91c.32-2.67.67-5.32,4-6l.11.11a11.72,11.72,0,0,1-3.91,6.08Z" transform="translate(-363.14 -62.15)"/><path class="cls-1" d="M524.14,92.86c.05,2.12-.44,3.83-3,4h0c.29-1.85.63-3.66,2.93-4.06Z" transform="translate(-363.14 -62.15)"/><path class="cls-1" d="M521.13,96.84c-.1,1.19-.34,2.32-1.73,2.61a.67.67,0,0,1-.86-.84c.28-1.39,1.39-1.66,2.58-1.78Z" transform="translate(-363.14 -62.15)"/><path class="cls-1" d="M501.45,123.11c-.2.7-.23,1.57-1.31,1.48a.45.45,0,0,1-.31-.32c-.12-1.07.71-1.15,1.43-1.36Z" transform="translate(-363.14 -62.15)"/><path class="cls-1" d="M507.2,113.9a2,2,0,0,1,1.93-2.07l.23.19a2,2,0,0,1-2,2Z" transform="translate(-363.14 -62.15)"/><path class="cls-1" d="M498.46,126.36l.53.65-.95.64c-.11-.28-.34-.59-.27-.81S498.21,126.53,498.46,126.36Z" transform="translate(-363.14 -62.15)"/><path class="cls-1" d="M509.13,111.83c.33-.68.67-1.35,1-2l.24.24-1,2Z" transform="translate(-363.14 -62.15)"/><path class="cls-1" d="M510.13,109.8l.57-.34-.33.57Z" transform="translate(-363.14 -62.15)"/><path class="cls-1" d="M507.35,114l-.51.38.36-.52Z" transform="translate(-363.14 -62.15)"/><path class="cls-1" d="M505.25,116.92l.5-.41-.39.52Z" transform="translate(-363.14 -62.15)"/><path class="cls-1" d="M495.78,278.93a24.94,24.94,0,0,0-13.61-10c-1.37-2.35-4.76-2.09-6.22-4.85,3.72-1.83,8.34.11,11.53-3,3.21-1.72,8-.94,9.17-5.91,1.18.46,1,1.54,1.2,2.5,1.1,6.08.69,12.25,1,18.37a5.23,5.23,0,0,0-.23,3.53Z" transform="translate(-363.14 -62.15)"/><path class="cls-1" d="M471.54,254.3l3,0c.73,1.17,1.91,1,3,1,.25,2.91-1.66,3.77-4,4-2,.19-4,.09-6,.12l-1-1c0-.33,0-.66,0-1C468.82,257.29,471.29,257.61,471.54,254.3Z" transform="translate(-363.14 -62.15)"/><path class="cls-1" d="M469.46,245.31c-.1,1.18-.33,2.3-1.71,2.59a.67.67,0,0,1-.85-.84c.26-1.39,1.38-1.64,2.55-1.76Z" transform="translate(-363.14 -62.15)"/><path class="cls-1" d="M466.56,257.33c0,.34,0,.67,0,1-.9-.26-2.73.55-2.38-1.16C464.45,255.94,465.73,257.22,466.56,257.33Z" transform="translate(-363.14 -62.15)"/><path class="cls-1" d="M476.86,173.11c6,3.36,9.64,8.69,12.19,14.89.52,2.24.92,4.48.13,6.76-.44,1.26,2.65,2.19.32,3.71-2,1.29-3-.48-4.42-1.14-6.26-3-12.27-6.53-19.15-8l0,0-5.09-2.7c1.88-3.31.06-6.46-1-10,3.13.81,2.67,3.28,3.62,4.81.67,1.08,1,2.79,2.68,2.44,1.9-.4,1.58-2.15,1.74-3.63s-2.21-3.93-.07-4.23c2.82-.39,1.76,2.81,2.11,4.55a56.53,56.53,0,0,1,1,6.32c.2,2.44,1.82,2.35,3.54,2.33,2.32,0,2-1.22,1.68-3C475.3,181.87,474.19,177.36,476.86,173.11Z" transform="translate(-363.14 -62.15)"/><path class="cls-1" d="M431.89,181.63a118.23,118.23,0,0,0-25-4.85c0-.32-.05-.63-.06-.94a120.62,120.62,0,0,1,32.06,5.78c.05.25.08.5.11.76l-4.05.06C434.1,181.51,433,181.69,431.89,181.63Z" transform="translate(-363.14 -62.15)"/><path class="cls-1" d="M439,182.38c0-.26-.06-.51-.11-.76,7.61.44,14.75,2.94,22,5l5.09,2.7a13.29,13.29,0,0,1-6.15-1.06c-3.73-1.56-7.55-3-11.71-3C445.37,183.34,441.93,183.66,439,182.38Z" transform="translate(-363.14 -62.15)"/><path class="cls-1" d="M398.82,175c-3.34-.38-6.83,1.06-10-.89,0-.33,0-.66,0-1C392.23,173.31,395.65,173.48,398.82,175Z" transform="translate(-363.14 -62.15)"/><path class="cls-1" d="M406.83,175.84c0,.31,0,.62.06.94a13.61,13.61,0,0,1-8.08-1.83C401.48,175.32,404.34,173.89,406.83,175.84Z" transform="translate(-363.14 -62.15)"/><path class="cls-1" d="M388.83,173.07c0,.33,0,.66,0,1-1.85-1.27-6.38,2.84-6-3C385,171.14,386.42,173.63,388.83,173.07Z" transform="translate(-363.14 -62.15)"/><path class="cls-1" d="M458.21,174.67c.12-.27.17-.7.37-.78s.54.19.81.31c-.11.28-.17.71-.37.79S458.49,174.79,458.21,174.67Z" transform="translate(-363.14 -62.15)"/><path class="cls-1" d="M388.6,162.7a2,2,0,0,1,2.12-.54C390.37,163.76,389.8,164.48,388.6,162.7Z" transform="translate(-363.14 -62.15)"/><path class="cls-1" d="M448.1,185.24c4.16,0,8,1.49,11.71,3a13.29,13.29,0,0,0,6.15,1.06l0,0c1.1,2.42,3.5,2.73,5.62,3.64,6.61,2.84,13.48,5.28,18.79,10.47-1.87,4.16-4.92,6.67-9.61,7a2.93,2.93,0,0,0-2.76,1.78c-2,0-4.11.66-5.82-1-.38-2.54,3.24-1.26,3.4-4l-5.43.05c-.69-3.62,3.82-3.64,4.63-6.77-3.17-.49-5.19,3.19-8.2,2.13-.19-1.89,1.45-2.1,2.36-2.93a2.72,2.72,0,0,0,.89-3.12c-.68-1.78-1.91-.39-2.91-.42a7.15,7.15,0,0,0-6,2.81,8.73,8.73,0,0,1-5.81,3.43h0a6.09,6.09,0,0,1,.22-1c.58-1.47,3.1-1.75,2.46-3.92-.37-1.23-1.56-1.25-2.49-1.05-2,.42-4.55.2-5.15,2.92-.48,2.21-1.33,3.41-3.71,2.31-1-.44-2.69.33-2.84-1.32-.13-1.47,1.34-1.61,2.41-2,3.37-1.27,4.91-4.8,7.95-6.53.87-.5,1.21-2.3.14-2.39-2.11-.17-4.92-1.75-6.36.18-3.33,4.49-5.74,3.63-8.25-.52-1.19-2-3-3.47-5.2-3.38-3.86.14-2.79-2.07-2.36-4.12,1.08.06,2.21-.12,3.05.82C438.19,186.65,443.07,187.69,448.1,185.24Z" transform="translate(-363.14 -62.15)"/><path class="cls-1" d="M447.09,208.34l-3.91-.1c-.13-1.61.23-3.51,1.93-3.44,3.62.14,6.48-2.31,10-2.37h0c-.38,2.48-2.32,2.87-4.27,3S447.34,206.1,447.09,208.34Z" transform="translate(-363.14 -62.15)"/><path class="cls-1" d="M434,189.62c.13-.72.1-1.58,1.19-1.52a.47.47,0,0,1,.32.31c.07,1.1-.78,1.08-1.5,1.22Z" transform="translate(-363.14 -62.15)"/><path class="cls-1" d="M434,189.63l-.23.41.22-.42Z" transform="translate(-363.14 -62.15)"/><path class="cls-1" d="M524.82,284.81c-7.08.73-12.87,4.27-18.39,8.42-1.16.88-2.35,2.51-3.81,1.86s-.62-2.64-.8-4c-.67-5-1.3-10.06-1.94-15.09l-.06-5.8,1.82-1.63c3.19-5.78,6.93-11,13.28-13.72,5.32,1.42,10.4-.89,15.61-1.05-.75,6.69-2.39,13.31-2.33,20.48,2.66-1.9.33-4.94,2.46-6.5l1,1a47,47,0,0,1-.15,6.93c-.37,2.23.86,2.05,2.22,2.06v2c-2-.06-3.92,3.82-6,.09.9-.8,1.54-1.85.09-2.46-1-.4-.94.85-1.07,1.55l0,5.94-.84,0c-.38-.73-.75-1-1.13,0Z" transform="translate(-363.14 -62.15)"/><path class="cls-1" d="M551.79,245.36c2.76,1.45,6.26-.53,8.81,1.9-.06,4-4.51,4.65-6,4.62a21.69,21.69,0,0,0-10.25,2.38c-.68.34-1.88-.37-2.84-.6l-3,1c-3.29.39-4.68,3-6.3,5.86-1.23-3,1.58-4.62,1.27-6.9.37-2.45,2.33-1.67,3.82-2,2.88-.59,5.86-1,8.18-3.06C548.17,248.62,549.12,245.34,551.79,245.36Z" transform="translate(-363.14 -62.15)"/><path class="cls-1" d="M533.51,253.64c.31,2.29-2.5,3.92-1.27,6.91,1.62-2.82,3-5.47,6.3-5.86-.59,3.33-1,6.71-1.84,10-.68,2.56-2,3.07-3.07.07-.17-1,.36-2.61-1.31-2.54-1.27.05-1.62,1.36-1.68,2.55,0,1,0,2,0,3-2.13,1.56.2,4.6-2.46,6.5-.06-7.17,1.58-13.79,2.33-20.48Z" transform="translate(-363.14 -62.15)"/><path class="cls-1" d="M527.78,279.78c2.05,3.73,4-.15,6-.09,1.27,0,2,.54,1.91,1.94l-4.87,1.15a1.9,1.9,0,0,0-1,1.94l-3,.09,0-5.94Z" transform="translate(-363.14 -62.15)"/><path class="cls-1" d="M533.75,277.73c-1.36,0-2.59.17-2.22-2.06a47,47,0,0,0,.15-6.93C536.31,270.83,534.55,274.39,533.75,277.73Z" transform="translate(-363.14 -62.15)"/><path class="cls-1" d="M549.7,274.59c3.6-3.66,8.59-2.95,13-4.11,0,.34,0,.68.05,1C558.47,272.87,554.34,274.79,549.7,274.59Z" transform="translate(-363.14 -62.15)"/><path class="cls-1" d="M544.73,275.59a8,8,0,0,1,5-1c-1.49,2-3.71,2-5.89,2.18l-.24-.27Z" transform="translate(-363.14 -62.15)"/><path class="cls-1" d="M530.64,264.73c.06-1.19.41-2.5,1.68-2.55,1.67-.07,1.14,1.54,1.31,2.54Z" transform="translate(-363.14 -62.15)"/><path class="cls-1" d="M541.86,277.77c-1.24,1.2-2.79,1.41-5.4,1.49,1.86-2.07,3.69-1.45,5.19-1.72Z" transform="translate(-363.14 -62.15)"/><path class="cls-1" d="M562.73,271.49c0-.33,0-.67-.05-1a8.11,8.11,0,0,1,5.1-1A6.23,6.23,0,0,1,562.73,271.49Z" transform="translate(-363.14 -62.15)"/><path class="cls-1" d="M543.84,276.76l-2,1-.21-.23,2-1.05Z" transform="translate(-363.14 -62.15)"/><path class="cls-1" d="M561,415.52c-5.82.71-11.25-2.14-17-1.87a108.31,108.31,0,0,0-38-3.46c-1.19-.7-.27-1.39,0-2.09l2.93-.33c11-1.06,21.64,1.67,32.33,3.57,3.92.7,7.78,1.62,11.8,1.3a4.7,4.7,0,0,0,.75,0A11.32,11.32,0,0,0,561,414.5C561,414.84,561,415.18,561,415.52Z" transform="translate(-363.14 -62.15)"/><path class="cls-1" d="M506,408.1c-.27.7-1.19,1.39,0,2.09-.2,1.87-1.61,1.8-2.95,1.84,0-1,0-2-.05-3,1.47-.62.28-2.9,1.65-3.15C505.77,405.64,505.77,407.16,506,408.1Z" transform="translate(-363.14 -62.15)"/><path class="cls-1" d="M506,408.1c-.18-.94-.18-2.46-1.35-2.24-1.37.25-.18,2.53-1.65,3.15,0-4.28-.07-8.57-.11-13,2.59,3.76,8.2,5.77,6,11.76Z" transform="translate(-363.14 -62.15)"/><path class="cls-1" d="M515.41,464.16c3,.48,5.34.6,5.74,4.33C518.66,467.91,516.72,467.11,515.41,464.16Z" transform="translate(-363.14 -62.15)"/><path class="cls-1" d="M525.41,468.82l.12,2c-.92-.08-2.2-.08-2.23-1.13C523.26,468.29,524.68,469.1,525.41,468.82Z" transform="translate(-363.14 -62.15)"/><path class="cls-1" d="M539.54,479.69l1,1Z" transform="translate(-363.14 -62.15)"/><path class="cls-1" d="M537.55,479.71h1C538.24,480.38,537.9,480.42,537.55,479.71Z" transform="translate(-363.14 -62.15)"/><path class="cls-1" d="M529.8,284.72a1.9,1.9,0,0,1,1-1.94c3.45,3.76,8.21,5.51,12.41,8.11,1,.65,2.72.25,3.51,2.82C540,291.84,534.1,289.89,529.8,284.72Z" transform="translate(-363.14 -62.15)"/><path class="cls-1" d="M551,288.49c-1,2.57-2.27,2.15-3.8,1.47C548.15,288,549.7,288.89,551,288.49Z" transform="translate(-363.14 -62.15)"/><path class="cls-1" d="M524.8,284.83c.38-1,.75-.73,1.13,0Z" transform="translate(-363.14 -62.15)"/><path class="cls-1" d="M490.34,203.44c-5.31-5.19-12.18-7.63-18.79-10.47-2.12-.91-4.52-1.22-5.62-3.64,6.88,1.47,12.89,5,19.15,8,1.39.66,2.45,2.43,4.42,1.14,2.33-1.52-.76-2.45-.32-3.71.79-2.28.39-4.52-.13-6.76,2.45-.69,2.6,5,5.85,2.11l1,0,1,1c-2.89,2.45-1.13,3.82,1.35,3.94,5.2.25,10.26,2.35,15.57,1.23,2.09-.44,2,1.12,2,2.47a1.86,1.86,0,0,0-.28.83l-1.7,1.12c-1.81,1-1.78,3.53-3.8,4.31-3.44-6-9.65-4.79-15-5.73-2.33.16-1.74,1.94-1.7,3.26C493.5,206.57,491.61,204,490.34,203.44Z" transform="translate(-363.14 -62.15)"/><path class="cls-1" d="M540.58,147.66c.76-3.28,1.19-5.29,5.29-2,1.59,1.27,4.11,1.82,5.1,4.55.67-1.48,1.06-2.56,1.61-3.55.71-1.28,1.58-3.21,3.15-2.51s.11,2.15-.39,3.29c-1.42,3.25,3.84,2.3,3.28,5.08-3.4,1.54-7.47,1.77-10,5.08-2.34-.2-4.08,1.31-6.08,2.08C541.83,155.66,540.21,151.82,540.58,147.66Z" transform="translate(-363.14 -62.15)"/><path class="cls-1" d="M497.85,189c4.47-6.4,10.69-10.43,17.84-13.19l.29.28c-5.54,5-11,10-17.92,13.11Z" transform="translate(-363.14 -62.15)"/><path class="cls-1" d="M515.89,172.91c-2.19-3.85.86-7.52.41-11.33,3,3.68.1,7.58.48,11.35Z" transform="translate(-363.14 -62.15)"/><path class="cls-1" d="M534.72,164.7a9.8,9.8,0,0,1,7.82-4.2l.29.28c-1.91,2.93-5,3.37-8.08,4Z" transform="translate(-363.14 -62.15)"/><path class="cls-1" d="M515.89,172.91l.89,0c1.38,1.7,2.65-.48,4-.13l.07.08c-.52,2.75-2.81,2.78-4.87,3.16l-.29-.28C515.76,174.81,515.82,173.86,515.89,172.91Z" transform="translate(-363.14 -62.15)"/><path class="cls-1" d="M542.58,159.65c2-.77,3.74-2.28,6.08-2.08l0,.06c-1.3,2.27-3.53,2.81-5.87,3.16l-.29-.29A3.46,3.46,0,0,0,542.58,159.65Z" transform="translate(-363.14 -62.15)"/><path class="cls-1" d="M522.7,171.72c.46-2.2,2.25-2.58,4-3l.1.11c-.19,2.5-1.92,3-4,3.05Z" transform="translate(-363.14 -62.15)"/><path class="cls-1" d="M526.73,168.74c1-2.17,3-2,5-2l.07.08,0,2,0,0-4.95.12Z" transform="translate(-363.14 -62.15)"/><path class="cls-1" d="M496.93,191.05l-1-1a2.17,2.17,0,0,1,1.91-1.12l.21.2A2.07,2.07,0,0,1,496.93,191.05Z" transform="translate(-363.14 -62.15)"/><path class="cls-1" d="M532.74,165.73a2,2,0,0,1,2-1l0,0a2,2,0,0,1-2,1Z" transform="translate(-363.14 -62.15)"/><path class="cls-1" d="M520.78,172.8a2.14,2.14,0,0,1,1.93-1.08l.14.18a2.16,2.16,0,0,1-2,1Z" transform="translate(-363.14 -62.15)"/><path class="cls-1" d="M531.72,166.7l1-1v0l-1,1Z" transform="translate(-363.14 -62.15)"/><path class="cls-1" d="M580.54,256.32c3.36.07,5.62,3.61,9.26,2.9a1,1,0,0,1,1.09,1.25c-.28,1.31-.56,2.66-2.07,3.11-2.67.8-5.29,1.84-8.16,1.74C574.69,262.4,579.69,259.34,580.54,256.32Z" transform="translate(-363.14 -62.15)"/><path class="cls-1" d="M561,414.5a11.32,11.32,0,0,1-7.21-1.87c2.77-1.65,4.73-4.15,6.79-6.54.79-.92,1.46-2.15,2.74-1.08s2,2.36.65,3.87S561.18,412.21,561,414.5Z" transform="translate(-363.14 -62.15)"/><path class="cls-1" d="M544.79,394.63l.23-.41-.22.42Z" transform="translate(-363.14 -62.15)"/><path class="cls-1" d="M542.73,387.66l-.22.42.22-.42Z" transform="translate(-363.14 -62.15)"/><path class="cls-1" d="M551.79,245.36c-2.67,0-3.62,3.26-6.28,3.26l-2.06-2.88c.5-2.07,1.53-3.64,3.89-3.62.85,0,1.71.34,1.87-.87.13-1-.69-1.28-1.44-1.69-4.12-2.28-8.95-2.24-13.14-4s-9.77-.49-12.3-5.69l1-2.07h0l1-1,0,0c2.62.22,4.29-1.43,6-3.06l0,0,4,0,1,1,.44.21-.42-.23-1-1c1.75-3.12,4.93-3.42,8-4.06,1.79.67,3.49,1.83,6.39,1.21-1.56-1.33-3.52-1.38-3.38-3.22,1.34-1.32,3.16-1.56,4.83-2.15,2.78,2.49,7.08-.1,9.94,2.85-3.5,1-3.5,1-1,4.57-3.1.46-5.4-2.52-8.58-1.65.95,2.79,3.51,3.07,5.45,4,1.52.69,2.72,1.23,2.24,3.16s-1.88,2-3.45,2.19c-3,.36-5.71-2.08-8.87-1.12a17.73,17.73,0,0,0,9,3.14c3.42.13,6.58,1.1,8.73,4.1-2.35,3.27-5.37,5.55-9.48,5.94C552.21,242.8,551.26,243.39,551.79,245.36Zm-9.07-17.09c-.48-1.34-1.13-2.19-2.41-2.17-.22,0-.69.76-.6,1C540.17,228.21,541,228.82,542.72,228.27Z" transform="translate(-363.14 -62.15)"/><path class="cls-1" d="M554.87,188.41l-4.39,11.87c2.92.24,3-1.9,3.65-3.41a1.94,1.94,0,0,1,2.86-1c1.17.52,1.1,1.64.28,2.43-2.1,2-.73,4.53-1.53,6.73a1.69,1.69,0,0,0,2-1c.82-1.36-.11-4.61,2.56-3.77,1.79.57-.08,2.93-.44,4.39a16.79,16.79,0,0,0-.73,4.86c-3,.76-5.86,1.82-8.08,4.12l-.82,0-2,.07c-.88-2.69,3.14-4.43,1.46-7.34-2.55,3-2.68,3.3-3.46,8.31-1.29,1.65-3.2.88-4.81,1.26-.74-3.9-2.85-5.48-6.81-4.17a8,8,0,0,1-2.4.05c.63-2.2-2-3.08-2-5,3.27-.73,4.66-2.69,3.95-6a5.49,5.49,0,0,0,2-4c1.42-.17,2.74-.11,4.11-1.12C544.58,192.32,549.77,190.43,554.87,188.41Zm-5.36,15.46.83.35c.12-.28.39-.62.31-.82s-.51-.25-.79-.37Zm-8.78,1.55c-.27-.12-.61-.38-.81-.3s-.25.5-.37.78c.28.11.62.38.81.3S540.62,205.69,540.73,205.42Z" transform="translate(-363.14 -62.15)"/><path class="cls-1" d="M554.87,188.41c-5.1,2-10.29,3.91-14.74,7.18-1.37,1-2.69.95-4.11,1.12-3.34.6-6.61,1.59-9.89,2.3s-6.91,3.7-10.54.51a2,2,0,0,1,.29-.83c12.09-8.25,25.63-12.11,40.07-13.22v1.06A2,2,0,0,0,554.87,188.41Z" transform="translate(-363.14 -62.15)"/><path class="cls-1" d="M548.18,213.63l2-.07c-.06.64-.11,1.28-.17,1.91-1.68.59-3.5.83-4.84,2.15a3.25,3.25,0,0,0-3,2c-3,.64-6.2.94-8,4.06l0,0-4,0c.32-1.65,2.24-1.74,3-3a2.15,2.15,0,0,0,2-1c2.17-1.1,5.41-.54,6.13-3.91,1.61-.38,3.52.39,4.81-1.26A2.17,2.17,0,0,0,548.18,213.63Z" transform="translate(-363.14 -62.15)"/><path class="cls-1" d="M551,213.58c2.22-2.3,5.08-3.36,8.08-4.12.46.2,1.76.39,1,.88C557.33,212,554.6,214.05,551,213.58Z" transform="translate(-363.14 -62.15)"/><path class="cls-1" d="M569.12,206.41a9.44,9.44,0,0,1,6-2c0,1,0,2,0,3Z" transform="translate(-363.14 -62.15)"/><path class="cls-1" d="M563.5,205.55c.6.14,1.16.27.79.88a1.61,1.61,0,0,1-1.08.66.59.59,0,0,1-.65-.87C562.73,205.89,563.23,205.73,563.5,205.55Z" transform="translate(-363.14 -62.15)"/><path class="cls-1" d="M555.94,186.53c0-.35,0-.71,0-1.06l1.25-1.14a2.62,2.62,0,0,1,.74.07C557.91,185.71,557.32,186.49,555.94,186.53Z" transform="translate(-363.14 -62.15)"/><path class="cls-1" d="M548.66,157.57c2.49-3.31,6.56-3.54,10-5.08a7,7,0,0,1,4-1l-2,2c-4.27.53-7.22,4.84-11.91,4.19Z" transform="translate(-363.14 -62.15)"/><path class="cls-1" d="M550.5,137.58c-1.46,1.53-3.18,1.08-4.93,0l4.92-.05Z" transform="translate(-363.14 -62.15)"/><path class="cls-1" d="M564.61,150.45a2,2,0,0,1-2,1A2.09,2.09,0,0,1,564.61,150.45Z" transform="translate(-363.14 -62.15)"/><path class="cls-1" d="M566.6,150.43l-2,0a2.06,2.06,0,0,1,2-1v1Z" transform="translate(-363.14 -62.15)"/><path class="cls-1" d="M450.91,418.57,449,417.5l-.39-.22.4.21c-3.46.45-10.54-2.77-10.85-5.64-.43-4-2.9-3.11-5.21-3.18l-.05-.05c-1.28-2.72.55-4,3-4.95-2.34-1.65-3.54,0-4.93.6a11.83,11.83,0,0,1-2.62,1.21c-.93.12-1.74-1.25-1.18-1.6,3.11-1.92-6-7.6,1.57-6.9,10.95,1,22.13.63,32.81,4,.14,0,.24.22.37.33a8.18,8.18,0,0,1-.47.88c-1.16,1.67-3.92,3.35-1.89,5.39,1.64,1.66,2.58-1.93,4.38-2.06a8.33,8.33,0,0,0,1-.16l0,0C461.58,411.19,456.08,414.71,450.91,418.57Zm-6.5-9.46a1.82,1.82,0,0,0-2.23.81c-.54.66-1.72,1.39-.11,2.3C443.4,411.61,444.63,411,444.41,409.11Z" transform="translate(-363.14 -62.15)"/><path class="cls-1" d="M472.81,402.39l2.07,1c-4.49,6.23-10.91,10.24-16.83,14.84C461.06,411.11,469,408.68,472.81,402.39Z" transform="translate(-363.14 -62.15)"/><path class="cls-1" d="M464.88,405.34l.24-.41c-.08.14-.15.29-.22.43Z" transform="translate(-363.14 -62.15)"/><path class="cls-1" d="M531.32,348.63a22.46,22.46,0,0,0,1.18,3.19c1,1.81,2.58,3.73,4.61,2.59,2.36-1.33-.31-3-.65-4.48a10.12,10.12,0,0,0-1.08-2.19l10-.08c3.16,2.34,2.67,7.57,7.08,8.91h0c.94,4.44,4.93,7.21,6.25,11.45-5.77,1.23-11.31,3.62-17.5,2.61.18,3.11,3.09,1,3.67,3.06a4.32,4.32,0,0,1-6.17-1.42c-1.65-2.43-2.21-.8-3.08.43-2.27-.54-5.16-.59-2.6-4.24.87-1.24,1.09-3.17-.21-4.14-1.76-1.33-2.36,1.1-3.57,1.7-1,.47-.44,3.37-2.46,1.81-1.32-1-1.21-2.18.71-3.37,2.69-1.66,2.27-3.88.08-6.18-1.7-1.78-5.86-4-4.19-5.66,2.39-2.36,3.94,2.1,6,3.42a7.38,7.38,0,0,0,1.84.42c-.78-2.75-3.77-4.77-1.84-7.69Z" transform="translate(-363.14 -62.15)"/><path class="cls-1" d="M499.29,349a82.54,82.54,0,0,0-.9-12.65c-.27-1.85-.87-4,.94-5.6,1.37,8.79,2,17.59.16,26.4q-.09-3-.16-6.11C499.32,350.4,499.3,349.72,499.29,349Z" transform="translate(-363.14 -62.15)"/><path class="cls-1" d="M499.38,329.08q-.13-6-.29-12A17.1,17.1,0,0,1,499.38,329.08Z" transform="translate(-363.14 -62.15)"/><path class="cls-1" d="M496.1,305.29l1.87-.22-.12,7.32-1-.82a5.43,5.43,0,0,0-.79-4.56Z" transform="translate(-363.14 -62.15)"/><path class="cls-1" d="M498.14,329.75l1.16-.54a4.48,4.48,0,0,1-.09.89Z" transform="translate(-363.14 -62.15)"/><path class="cls-1" d="M557.08,434.35c0,.67,0,1.41-.76,1.58-1,.21-1-.65-1.07-1.26s0-1.4.76-1.57C557,432.88,556.92,433.76,557.08,434.35Z" transform="translate(-363.14 -62.15)"/><path class="cls-1" d="M549.18,417.61c.54.26,1.16.36,1.27.66.29.74-.25,1.17-.93,1.14a1.28,1.28,0,0,1-1-.71C548.46,418.46,548.91,418,549.18,417.61Z" transform="translate(-363.14 -62.15)"/><path class="cls-1" d="M522.93,362.11l.34-.84c.28.12.71.18.79.37s-.19.54-.3.82Z" transform="translate(-363.14 -62.15)"/><path class="cls-1" d="M518.18,354.24c.28.12.71.17.79.37s-.19.54-.3.82c-.28-.12-.72-.17-.79-.37S518.06,354.52,518.18,354.24Z" transform="translate(-363.14 -62.15)"/><path class="cls-1" d="M432.94,408.67l-.44.39.39-.44Z" transform="translate(-363.14 -62.15)"/><path class="cls-1" d="M577.48,133.42c2.07-.1,4.19-.63,6,.86C581.49,134,579.29,135.1,577.48,133.42Z" transform="translate(-363.14 -62.15)"/><path class="cls-1" d="M585.07,135.53l.68-.14c.44.84,1,1.85-.23,2.32a2.13,2.13,0,0,1-1.95-.82C583.25,135.9,584.43,135.87,585.07,135.53Z" transform="translate(-363.14 -62.15)"/><path class="cls-1" d="M483.35,457.2c-.71,1.13-1.85,1-2.94,1C481.12,457,482.28,457.24,483.35,457.2Z" transform="translate(-363.14 -62.15)"/><path class="cls-1" d="M577.93,410.34l.23-.42-.22.43Z" transform="translate(-363.14 -62.15)"/><path class="cls-1" d="M426.61,151.69c4-.85,6.65,4.28,10.93,2.39.67-.3,1,.73,1,1.38a1.79,1.79,0,0,1-1.65,2.07c-1.41.24-3-.38-4.16,1l-9.09-3.84A2.81,2.81,0,0,1,426.61,151.69Z" transform="translate(-363.14 -62.15)"/><path class="cls-1" d="M429.49,141.05c-.74,2.1-1.47,3.21-3.53,3.2C425.88,142.09,427.38,141.73,429.49,141.05Z" transform="translate(-363.14 -62.15)"/><path class="cls-1" d="M549.37,347.6l19-.14c1.28,1.33,2.59,1.29,3.93.1l1,.05c.45,1.69-1,4.23,2.08,4.76l1,2c-.4,2.42,3.23,7.24-3.87,5.72-1.57-.33.2,1.63,1,2.34a2.14,2.14,0,0,1-1,2c-1.7-.58-3.44-1.05-5.07-1.78-1.26-.57-1.37-3.42-3.09-2.55-2,1,.36,2.86.14,4.4a18.42,18.42,0,0,0,0,3l-3,0-1-.95c-2.33-3.62-3.26-8.39-8.09-10h0C552.34,353.26,549.32,351,549.37,347.6Z" transform="translate(-363.14 -62.15)"/><path class="cls-1" d="M573.54,362.39c-.77-.71-2.54-2.67-1-2.34,7.1,1.52,3.47-3.3,3.87-5.71,5.9-.3.8-4.16,1.94-6l1,0c6.19,0,7.28,1.28,5.34,8-.68,2.36,0,3.64,1.21,5.21-1.34,1.24-2.49.66-3.6,0-.69-.41-1.87-1.32-2.09-.66C578.77,365.28,575.87,362.44,573.54,362.39Z" transform="translate(-363.14 -62.15)"/><path class="cls-1" d="M564.55,367.46a18.42,18.42,0,0,1,0-3c.22-1.54-2.19-3.36-.14-4.4,1.72-.87,1.83,2,3.09,2.55,1.63.73,3.37,1.2,5.07,1.78-.68,1.57-5.67-.07-3,4A8.33,8.33,0,0,1,564.55,367.46Z" transform="translate(-363.14 -62.15)"/><path class="cls-1" d="M578.38,348.34c-1.14,1.84,4,5.7-1.94,6l-1-2c.16-1.59-.69-3.68,2-4Z" transform="translate(-363.14 -62.15)"/><path class="cls-1" d="M588.86,348.44l4.7,5.42C589.12,354,588.3,351.65,588.86,348.44Z" transform="translate(-363.14 -62.15)"/><path class="cls-1" d="M577.39,348.33c-2.66.36-1.81,2.45-2,4-3.12-.53-1.63-3.07-2.08-4.76l1-.23C575.47,347.41,576.65,347.19,577.39,348.33Z" transform="translate(-363.14 -62.15)"/><path class="cls-1" d="M598.53,342.86c-.12.45-.25.9-.38,1.34l-.48-.31.82-1.1Z" transform="translate(-363.14 -62.15)"/><path class="cls-1" d="M572.55,369.38l-.4-.24.41.23Z" transform="translate(-363.14 -62.15)"/><path class="cls-1" d="M548.7,157.63c4.69.65,7.64-3.66,11.91-4.19,3.43,3.4,8,3.82,12.75,4.31-2.44,4.83-6.52,3.62-10.71,3.07,2.23,4.61,6.85.84,8.9,3.94-.92,2.39-6,3.6-2.7,7.76-2.06,3.77-6.06,5.2-9.25,7.58-1.52,1.13-3.06,2-2.4,4.23L556,185.47c-14.44,1.11-28,5-40.07,13.22,0-1.35.06-2.91-2-2.47-5.31,1.12-10.37-1-15.57-1.23-2.48-.12-4.24-1.49-1.35-3.94a2.07,2.07,0,0,0,1.13-1.9C505,186.06,510.44,181,516,176c2.06-.38,4.35-.41,4.87-3.16a2.16,2.16,0,0,0,2-1c2.06-.06,3.79-.55,4-3.05l4.95-.12.4.25-.42-.23,0-2,1-1a2,2,0,0,0,2-1c3-.59,6.17-1,8.08-4C545.17,160.44,547.4,159.9,548.7,157.63ZM552,181.69a5.94,5.94,0,0,0-.65,1c0,.07.5.56.65.51.42-.15,1-.41,1.1-.76C553.3,181.79,552.71,181.7,552,181.69Z" transform="translate(-363.14 -62.15)"/><path class="cls-1" d="M576,166.42a2.23,2.23,0,0,1-2.07,2c-.69-.25-2-.22-1.49-1.3C573.14,165.74,574.76,166.56,576,166.42Z" transform="translate(-363.14 -62.15)"/><path class="cls-1" d="M505.39,461c-.26.53-.43,1.43-.78,1.5-1.1.23-1.08-.78-1.23-1.51Z" transform="translate(-363.14 -62.15)"/><path class="cls-1" d="M399.69,269.9l1.05,5-1,1.05c-.78.17-2,.41-1.56,1.33,1.47,2.88-.92,3.53-2.42,4.74a15.13,15.13,0,0,1-8-7l.22-.42-.23.42a2.15,2.15,0,0,1-2-1c.22-2.1,1.68-2.35,3.21-1.81a12.71,12.71,0,0,0,4.83.74l1.66.83.27-.6-2-.2c-.57-1.08-2.2-1.44-2.05-3,2.71-.05,5.09-2.53,8-1.08l.05.06C399.69,269.28,399.68,269.59,399.69,269.9Z" transform="translate(-363.14 -62.15)"/><path class="cls-1" d="M399.72,275.93l1-1.05a2.15,2.15,0,0,1,2,1C401.74,277.5,400.73,276.17,399.72,275.93Z" transform="translate(-363.14 -62.15)"/><path class="cls-1" d="M394,219.45c.27-.14.54-.37.79-.36s.49.27.73.43c-.26.13-.52.37-.78.36S394.21,219.61,394,219.45Z" transform="translate(-363.14 -62.15)"/><path class="cls-1" d="M404.73,215l.72.43c-.26.13-.52.35-.77.35s-.49-.25-.73-.39Z" transform="translate(-363.14 -62.15)"/><path class="cls-1" d="M560.55,366.55l1,.95C560.12,368.32,560.8,367,560.55,366.55Z" transform="translate(-363.14 -62.15)"/><path class="cls-1" d="M458.47,466.43a2.33,2.33,0,0,1-1,2.13C457.46,467.69,457.54,466.86,458.47,466.43Z" transform="translate(-363.14 -62.15)"/><path class="cls-1" d="M456,466.11l.21.3-.46.24c0-.12-.09-.26-.05-.37S455.88,466.16,456,466.11Z" transform="translate(-363.14 -62.15)"/><path class="cls-1" d="M442.62,260c-.13,1.17,1.85,3-.7,3.39-2.82.4-2.11-2.06-2.36-3.64A4,4,0,0,1,442.62,260Z" transform="translate(-363.14 -62.15)"/><path class="cls-1" d="M437.61,259.72c-.34.5-.64,1.36-1,1.41-.72.09-1-.7-1.06-1.37Z" transform="translate(-363.14 -62.15)"/><path class="cls-1" d="M399.64,268.91c-2.92-1.45-5.3,1-8,1.08.08-1.44,1-2.92-.22-4.29l27.12-6.17c-.16,1.51.65,4.25-1.55,4-5.61-.73-9.18,4.25-14.33,4.4C401,266.27,400.06,266.82,399.64,268.91Z" transform="translate(-363.14 -62.15)"/><path class="cls-1" d="M423.62,261.67c-1.86.17-3.45-.15-4.05-2.24l4,.2Z" transform="translate(-363.14 -62.15)"/><path class="cls-1" d="M495.78,278.93l2.89.67q.52,8.17,1.06,16.36l-1.81.09A66.4,66.4,0,0,0,495.78,278.93Z" transform="translate(-363.14 -62.15)"/><path class="cls-1" d="M499.82,270.18l.06,5.8a6.49,6.49,0,0,1-1,.09c-.36-6.12.05-12.29-1-18.37-.17-1,0-2-1.2-2.5l.12-1,2.65-1.18q.12,7.48.25,15Z" transform="translate(-363.14 -62.15)"/><path class="cls-1" d="M497.92,296.05l1.81-.09c.07,1.68.13,3.37.2,5.05C496.72,300.39,498.36,297.8,497.92,296.05Z" transform="translate(-363.14 -62.15)"/><path class="cls-1" d="M595.3,207.43l-.47-.52.52.45Z" transform="translate(-363.14 -62.15)"/><path class="cls-1" d="M428.52,259.61l.41.44c-.08,0-.19,0-.23-.1a1.83,1.83,0,0,1-.18-.34Z" transform="translate(-363.14 -62.15)"/><polygon class="cls-1" points="226.03 151.08 226.25 150.67 226.44 150.84 226.03 151.08"/><path class="cls-1" d="M478.53,253.23a3.56,3.56,0,0,1,1.16-2.65c.73-.68,1.44-1.46,2.57-.82a2,2,0,0,1,1.05,2.07c-.22,1.27-1.29,1.32-2.3,1.36-.83,0-1.66,0-2.48,0Z" transform="translate(-363.14 -62.15)"/><path class="cls-1" d="M477.55,255.23c-1.1,0-2.28.2-3-1,1-1.47,2.61-.88,4-1h0A2.08,2.08,0,0,1,477.55,255.23Z" transform="translate(-363.14 -62.15)"/><path class="cls-1" d="M533.22,220.74c-.71,1.26-2.63,1.35-3,3l0,0c-2.67-.3-4.83.38-6,3.06l0,0-1,1h0l-3,.05c-2.12-3.71.05-8.09-2.15-13.32l.13,14.3c-.87,1.78-3.93,1.43-3.94,4.05h0c-1.18.14-2-1.8-3.72.49a19.94,19.94,0,0,1-8.22,6.6,7.78,7.78,0,0,1-3.06-7.61.65.65,0,0,0,0-.56c1.2-.64,1.18-1.69.9-2.81.35-9.21,5.27-16.57,9.82-24.07,2-.78,2-3.36,3.8-4.31.59,2.77,2.86,6.36,4.78,4.7,3.29-2.86,7.57-.8,10.37-3.57a8.39,8.39,0,0,0,1.06,5c.09,1.91,2.68,2.79,2,5C529,214.69,529.37,218,533.22,220.74Z" transform="translate(-363.14 -62.15)"/><path class="cls-1" d="M510.1,205c-4.55,7.5-9.47,14.86-9.82,24.07-2.32-.32-2.48-2.21-3-4-2.56-8.47-2.21-17.17-2.2-25.85C500.45,200.16,506.66,198.9,510.1,205Z" transform="translate(-363.14 -62.15)"/><path class="cls-1" d="M447.09,208.34c.25-2.24,1.72-2.78,3.71-2.91s3.89-.52,4.27-3a8.73,8.73,0,0,0,5.81-3.43,7.15,7.15,0,0,1,6-2.81c1,0,2.23-1.36,2.91.42a2.72,2.72,0,0,1-.89,3.12c-.91.83-2.55,1-2.36,2.93,3,1.06,5-2.62,8.2-2.13-.81,3.13-5.32,3.15-4.63,6.77-2.95.89-6.71-1.85-9,2Z" transform="translate(-363.14 -62.15)"/><path class="cls-1" d="M461.15,209.33c2.26-3.88,6-1.14,9-2,0,1,0,1.94,0,2.91Z" transform="translate(-363.14 -62.15)"/><path class="cls-1" d="M470.13,210.21c0-1,0-1.94,0-2.91l5.43-.05c-.16,2.76-3.78,1.48-3.4,4Z" transform="translate(-363.14 -62.15)"/><path class="cls-1" d="M522.33,229.89c2.53,5.2,8.15,4,12.3,5.69s9,1.7,13.14,4c.75.41,1.57.66,1.44,1.69-.16,1.21-1,.88-1.87.87-2.36,0-3.39,1.55-3.89,3.62a74.35,74.35,0,0,1-23.59,4.16c-4.75-1.07-9.77-.89-14.3-3-1.33-.62-3.08-1.23-3.32-2.59s1.65-1.78,2.61-2.62c3.24-2.84,7.15-5,9.49-8.78h0C517.6,233.46,519.37,230.11,522.33,229.89Z" transform="translate(-363.14 -62.15)"/><path class="cls-1" d="M499.67,268q-.14-7.47-.25-15c-.15-3.71.48-5.74,5-3.53,3.47,1.71,7.7,1.47,11.22,3.37l-.7,2c-6.35,2.71-10.09,7.94-13.28,13.71Z" transform="translate(-363.14 -62.15)"/><path class="cls-1" d="M514.92,254.83l.7-2c2-.17,3.54-1,4.24-3a74.35,74.35,0,0,0,23.59-4.16l2.06,2.88c-2.32,2.1-5.3,2.47-8.18,3.06-1.49.3-3.45-.48-3.82,2l-3,.13C525.32,253.94,520.24,256.25,514.92,254.83Z" transform="translate(-363.14 -62.15)"/><path class="cls-1" d="M499.34,232.39A7.78,7.78,0,0,0,502.4,240c-2.41,1.95-4.39,2.75-4-1.71C498.57,236.31,497.37,234.09,499.34,232.39Z" transform="translate(-363.14 -62.15)"/><path class="cls-1" d="M472.39,348.3l-20.5-3.79c-.78-.14-1.13-.52-.58-1.29C458.42,344.59,465.91,344.35,472.39,348.3Z" transform="translate(-363.14 -62.15)"/><path class="cls-1" d="M492.71,348.39l-.13-14.58,1,0,.13,14.59Z" transform="translate(-363.14 -62.15)"/><path class="cls-1" d="M484.42,352.19c-3-.07-6-.18-8.05-2.94C479.31,349.53,482.18,350,484.42,352.19Z" transform="translate(-363.14 -62.15)"/><path class="cls-1" d="M499.29,349c0,.68,0,1.36,0,2-.85.3-1,1.87-2.2,1.35-.37-.17-.62-1.05-.61-1.6C496.57,349,498,349.12,499.29,349Z" transform="translate(-363.14 -62.15)"/><path class="cls-1" d="M476.4,349.26c-1.42,0-3,.61-4-1C473.78,348.32,475.35,347.69,476.4,349.26Z" transform="translate(-363.14 -62.15)"/><path class="cls-1" d="M496.1,305.29l0,1.72c-2.65-1.21-5.27-2.46-7.1-4.87C492,301.79,493.9,303.84,496.1,305.29Z" transform="translate(-363.14 -62.15)"/><path class="cls-1" d="M549.37,347.6c0,3.36,3,5.66,3.08,9-4.41-1.34-3.92-6.57-7.08-8.91Z" transform="translate(-363.14 -62.15)"/><path class="cls-1" d="M572.32,347.56c-1.34,1.19-2.65,1.23-3.93-.1Z" transform="translate(-363.14 -62.15)"/><path class="cls-1" d="M399.64,268.91c.42-2.09,1.36-2.64,3-1,0,.67,0,1.34,0,2h-2l-1-.93Z" transform="translate(-363.14 -62.15)"/><path class="cls-1" d="M401.67,269.91h1l1.19.5c-.08.1-.14.26-.24.29A1.55,1.55,0,0,1,401.67,269.91Z" transform="translate(-363.14 -62.15)"/><path class="cls-1" d="M399.69,269l1,.93h-1C399.68,269.59,399.69,269.28,399.69,269Z" transform="translate(-363.14 -62.15)"/><path class="cls-1" d="M472.67,372c-1.1.17-2.2.47-3.25-.17.47-1,.56-2.64,1.67-2.57S472.4,370.93,472.67,372Z" transform="translate(-363.14 -62.15)"/><path class="cls-1" d="M479.59,372.05l-2,.17c.15-.89-.38-2.34.92-2.43S479.39,371.19,479.59,372.05Z" transform="translate(-363.14 -62.15)"/><path class="cls-1" d="M473.55,372.47a3.12,3.12,0,0,1-.7.26c-.07,0-.18-.22-.27-.33Z" transform="translate(-363.14 -62.15)"/><path class="cls-1" d="M476.53,372.58a3.08,3.08,0,0,1-.65.21c-.06,0-.15-.18-.23-.29A.63.63,0,0,1,476.53,372.58Z" transform="translate(-363.14 -62.15)"/><path class="cls-1" d="M448.1,185.24c-5,2.45-9.91,1.41-13.16-2.79l4.06-.07C441.93,183.66,445.37,183.34,448.1,185.24Z" transform="translate(-363.14 -62.15)"/><path class="cls-1" d="M527.78,279.78l-1-.91c.13-.7.09-1.95,1.07-1.55C529.32,277.93,528.68,279,527.78,279.78Z" transform="translate(-363.14 -62.15)"/><path class="cls-1" d="M499.67,268l2,.55-1.82,1.64Z" transform="translate(-363.14 -62.15)"/><path class="cls-1" d="M529.05,201.77c-2.8,2.77-7.08.71-10.37,3.57-1.92,1.66-4.19-1.93-4.78-4.7l1.7-1.12c3.62,3.19,7.19.21,10.53-.51s6.55-1.7,9.89-2.3a5.49,5.49,0,0,1-2,4c-1.36-4.1-2.66,1.25-4,0l-1,1Z" transform="translate(-363.14 -62.15)"/><path class="cls-1" d="M522.33,229.89c-3,.22-4.73,3.57-8,3,0-2.62,3.07-2.27,3.94-4.05a2.19,2.19,0,0,0,2-1l3-.05C523,228.51,522.65,229.2,522.33,229.89Z" transform="translate(-363.14 -62.15)"/><path class="cls-1" d="M542.2,219.63a3.25,3.25,0,0,1,3-2c-.14,1.84,1.82,1.89,3.38,3.22C545.69,221.46,544,220.3,542.2,219.63Z" transform="translate(-363.14 -62.15)"/><path class="cls-1" d="M524.28,226.82c1.14-2.68,3.3-3.36,6-3.06C528.57,225.39,526.9,227,524.28,226.82Z" transform="translate(-363.14 -62.15)"/><path class="cls-1" d="M542.72,228.27c-1.72.55-2.55-.06-3-1.19-.09-.22.38-1,.6-1C541.59,226.08,542.24,226.93,542.72,228.27Z" transform="translate(-363.14 -62.15)"/><path class="cls-1" d="M535.28,224.71l.42.23-.44-.21Z" transform="translate(-363.14 -62.15)"/><path class="cls-1" d="M535.26,224.73l-1-1,0,0,1,1Z" transform="translate(-363.14 -62.15)"/><path class="cls-1" d="M523.29,227.82l1-1Z" transform="translate(-363.14 -62.15)"/><path class="cls-1" d="M541.37,215.86c-.72,3.37-4,2.81-6.13,3.91a28.4,28.4,0,0,0-3.08-8,8,8,0,0,0,2.4-.05C538.52,210.38,540.63,212,541.37,215.86Z" transform="translate(-363.14 -62.15)"/><path class="cls-1" d="M530.06,200.76c1.34,1.23,2.64-4.12,4,0,.71,3.33-.68,5.29-3.95,6a8.43,8.43,0,0,1-1.06-5h0Z" transform="translate(-363.14 -62.15)"/><path class="cls-1" d="M548.18,213.63a2.17,2.17,0,0,1-2,1c.78-5,.91-5.32,3.46-8.31C551.32,209.2,547.3,210.94,548.18,213.63Z" transform="translate(-363.14 -62.15)"/><path class="cls-1" d="M549.51,203.87l.35-.84c.28.12.71.17.79.37s-.19.54-.31.82Z" transform="translate(-363.14 -62.15)"/><path class="cls-1" d="M540.73,205.42c-.11.27-.17.7-.37.78s-.53-.19-.81-.3c.12-.28.17-.71.37-.78S540.46,205.3,540.73,205.42Z" transform="translate(-363.14 -62.15)"/><path class="cls-1" d="M532.16,211.74a28.4,28.4,0,0,1,3.08,8,2.15,2.15,0,0,1-2,1C529.37,218,529,214.69,532.16,211.74Z" transform="translate(-363.14 -62.15)"/><path class="cls-1" d="M444.41,409.11c.22,1.85-1,2.5-2.34,3.11-1.61-.91-.43-1.64.11-2.3A1.82,1.82,0,0,1,444.41,409.11Z" transform="translate(-363.14 -62.15)"/><path class="cls-1" d="M449,417.49l-.4-.21.39.22Z" transform="translate(-363.14 -62.15)"/><path class="cls-1" d="M552,181.69c.72,0,1.31.1,1.1.73-.11.35-.68.61-1.1.76-.15,0-.68-.44-.65-.51A5.94,5.94,0,0,1,552,181.69Z" transform="translate(-363.14 -62.15)"/><path class="cls-1" d="M531.76,168.75l.42.23-.4-.25Z" transform="translate(-363.14 -62.15)"/><path class="cls-1" d="M393.68,273l2,.2-.27.6-1.66-.83Z" transform="translate(-363.14 -62.15)"/><path class="cls-1" d="M387.71,275l.23-.42-.22.42Z" transform="translate(-363.14 -62.15)"/><path class="cls-1" d="M520.31,227.87a2.19,2.19,0,0,1-2,1c0-4.27-.07-8.55-.13-14.3C520.36,219.78,518.19,224.16,520.31,227.87Z" transform="translate(-363.14 -62.15)"/><path class="cls-1" d="M530.06,200.76l-1,1Z" transform="translate(-363.14 -62.15)"/></svg>