<svg id="Layer_1" data-name="Layer 1" xmlns="http://www.w3.org/2000/svg" viewBox="0 0 333.82 432"><defs><style>.cls-1{fill:#99c864;}.cls-2{fill:#fff;}</style></defs><title>oak</title><path class="cls-1" d="M187.25,413.65c-11.54-5.7-2.75-20.68-8.36-28.39-6.26,4.82-6.37,3.19-8.28-6.45-2.1-10.61-6.13-20.56-8-31.58-.48-2.93-6.44-4.81-10.09-6.27-2.13-.85-5.06,1.12-7,0-3-1.74-6.79-4.54-7.51-7.87-.63-2.91,1.94-8.05,4.2-10.59,2.47-2.78,6.21-3.7,10-5.78-6.68-9.51-13.09-17.91-23.32-21.2-8.83-2.85-17.25-8.22-25.52-13.34-5.7-3.52-9.48-9.16-10-18.41-.28-4.63-3.51-9-5.61-13.39-3.24-6.71-4-12.89-.61-20.41C91.05,221.3,96,217,103.42,219.74c6.12,2.22,12,5.5,18,8.5,2.58,1.3,5,3.07,7.5,4.63l1-2c-3.84-3.53-7.48-7.51-11.56-10.47a167.7,167.7,0,0,0-19-12.22c-14.06-7.53-16.79-24-18.59-40.22-1.27-11.37,8.46-20.64,18.42-19.65,4.89.48,9.75,1.37,16.27,2.32-3.25-11.74-6.42-21.47-8.57-31.56-1.71-8-3.41-16.64-2.91-24.76.86-13.81,12.61-22.1,22.89-17.53a37.51,37.51,0,0,1,4.52,2.68c3.6,2.25,7.46,6.77,10.72,6.13,2.82-.55,4.47-7.86,7.52-10.49s7.44-5,10.7-4.07c6.5,1.75,10.46,0,13.1-7.87,2-6,5.46-11.4,10.79-8.91,3.61,1.68,7.13,6.32,9,10.79,2.22,5.27,4.31,6.21,8.42,4.52,13.55-5.59,22.52,4.54,19.87,22.73-.9,6.2-3.32,12-4.79,18.09-1,4.14-1.53,8.46-2.27,12.69l2.06,1.93c2.91-2.62,5.94-5,8.7-7.91,4.71-4.86,9.5-6.34,15.09-2.41,5.78,4.08,9.34,10.12,8.09,18.5-1.12,7.58-3.64,14.84-5.73,22.16-1.15,4-2.67,7.91-5,14.71,5.66-1.33,9-1.78,12.24-2.95,9.93-3.6,15.9-1.46,19,7.18,3.2,8.93-.55,19.55-7.57,26.9-11.68,12.26-22.7,25.58-33.93,38.55-.92,1.07-1.3,2.92-1.94,4.41l1.19,2.24c3.21-2.31,6.44-4.56,9.61-6.94,4.66-3.51,9-8.08,14-10.44,8.15-3.86,15.08,1.07,20,9,4.29,6.84,1.56,14.5-1.12,21.47-4.55,11.85-10.86,21.27-20.79,26.24-2.77,1.39-4.93,4.69-7.54,6.74-5,3.89-10.06,7.45-15.05,11.25-2.59,2-5.09,4.12-7.63,6.2l.36,5.42c3.44-.1,7.28-1.48,10.23,0,3.82,1.94,7,6.17,10.37,9.42-2.52,3.71-4.7,8-7.68,11-2.32,2.31-5.61,3.06-8.51,4.36-12.6,5.64-16.87,14.57-15.77,31.71.17,2.77-1.36,6.12-2.74,8.6-2.78,5-6,9.51-9.33,14.65-1.88-1.29-4.85-3.34-9.41-6.5C186.21,398,186.7,405.32,187.25,413.65ZM123.75,102l-.86.47C130.23,116,138,129.16,144.82,143c8.39,16.94,16.83,34,23.81,51.88,6.32,16.24,8.76,34.12,7.16,54.58-21.85-28.62-43.45-54.69-70.84-70.89a9.09,9.09,0,0,0,2.48,3q28,27.9,55.94,55.83c9.48,9.46,15.23,21.37,14.88,37.36a9,9,0,0,0,.53,3.45c2.62-5.3,4.89-12.26,8.71-17.26,13.57-17.73,27.67-34.8,41.56-52.12l-1-1.42L180.6,263.67c-.75-22.8-4.7-46.75,12.35-64.3,1-1.08,1.55-3,2.31-4.55l-.64-.61-16.24,21.57c-3.79-39.94,5.92-78.18,3.21-117.25-.55,5.7-1.1,11.4-1.87,19.29l-10.49-17.38c9.46,12.85,11.17,27.88,9,44.83-2,16.07-2.93,32.39-4.35,48.91ZM183,389.51c-3.33-19.9,1.87-35.1,14.34-46.68l-17.28,15.56c.61-12.8.85-24,1.83-35.09.31-3.45,2-7.67,4.11-9.71,9.59-9.27,19.56-17.9,29.39-26.75l-1.62-3L182,312.5c-.58-8.93-1-16-1.49-23.08l-1.1.07-1.12,16.84c-10.25-17.77-21.35-30.7-36.56-36.83,21.37,17.32,42.45,34.76,36,74.58l-2.89-1.14Z"/><path class="cls-2" d="M123.75,102l50.16,92.17c1.42-16.52,2.32-32.84,4.35-48.91,2.14-17,.43-32-9-44.83l10.49,17.38c.77-7.89,1.32-13.59,1.87-19.29,2.71,39.07-7,77.31-3.21,117.25l16.24-21.57.64.61c-.76,1.54-1.27,3.47-2.31,4.55-17,17.55-13.1,41.5-12.35,64.3L228,207.48l1,1.42c-13.89,17.32-28,34.39-41.56,52.12-3.82,5-6.09,12-8.71,17.26a9,9,0,0,1-.53-3.45c.35-16-5.4-27.9-14.88-37.36q-28-27.93-55.94-55.83a9.09,9.09,0,0,1-2.48-3c27.39,16.2,49,42.27,70.84,70.89,1.6-20.46-.84-38.34-7.16-54.58C161.65,177,153.21,160,144.82,143,138,129.16,130.23,116,122.89,102.48Z"/><path class="cls-2" d="M183,389.51l-8.22-46.57,2.89,1.14c6.49-39.82-14.59-57.26-36-74.58,15.21,6.13,26.31,19.06,36.56,36.83l1.12-16.84,1.1-.07c.46,7.08.91,14.15,1.49,23.08l31.79-28.64,1.62,3c-9.83,8.85-19.8,17.48-29.39,26.75-2.12,2-3.8,6.26-4.11,9.71-1,11.09-1.22,22.29-1.83,35.09l17.28-15.56C184.88,354.41,179.68,369.61,183,389.51Z"/></svg>