<svg id="Layer_1" data-name="Layer 1" xmlns="http://www.w3.org/2000/svg" viewBox="0 0 333.82 432"><defs><style>.cls-1{fill:#8dc63f;}</style></defs><title>pagoda</title><path class="cls-1" d="M280.2,222.42a14.37,14.37,0,0,0,3.75-1,42.91,42.91,0,0,0,5.41-3.75,51.85,51.85,0,0,0,4.83-4.12c.88-.86,1.37-2.4,2.3-3.08a28.81,28.81,0,0,0,8.06-9.48c1.26-2.27,2.88-4.22,4.27-6.39a13.16,13.16,0,0,0,.93-2.4,8.94,8.94,0,0,0-2.14-1.19,13.74,13.74,0,0,0-2.94-.09,47,47,0,0,0-5.31.08c-1.8.2-2.06.88-1.85,3.13a3.59,3.59,0,0,1-.24,2.15c-2.17,2.63-3.48,6.32-6.39,8.05a2.24,2.24,0,0,0-.76,1.17,22.87,22.87,0,0,1-7.51,11.11,6.31,6.31,0,0,0-1.55,2.52,24.62,24.62,0,0,0-.81,3.31,2.91,2.91,0,0,0-2.55,2.73C278.88,224.74,280.06,224.29,280.2,222.42ZM91.49,211c2,1.88,4,3.71,6,5.67,1.16,1.18,1.29,1.31,2.34.42-1.15-1.7-3.3-2.61-2.79-5.52-1.69-.2-4.46-2.67-4.56-4.21-.12-1.72-.45-2.77-2.06-1.85l.27-3L89,204l-.18-3.34c-1.57-1.82-1.62-2.11-.3-3.94l4.22,1.85a.64.64,0,0,0,.45.1,9.31,9.31,0,0,0,.93-.5c-.17-.43-.26-1-.53-1.24a7.45,7.45,0,0,0-2.39-1.29,9.49,9.49,0,0,0-2.66,0,8.72,8.72,0,0,0-1,.13l-.1-.51,1.53-1-2.7-3.49h2.56c-.07,2.59,1.48,2.6,2.87,2.87l0-.05,2.93,2.55a26.87,26.87,0,0,0,1-3c.36-1.9,1.28-.51,2-.64a5.87,5.87,0,0,0,1.26-.66,7.64,7.64,0,0,1,2.17-.95,10.24,10.24,0,0,1,6.72,1.18,9.1,9.1,0,0,0,3,1.1,2.78,2.78,0,0,1,2,1.53,13.39,13.39,0,0,1,2.21,6.71,3.27,3.27,0,0,0,.4,1.2q1.49,3,3,5.88c.29.55.66,1,1,1.6,1.33-1.29.37-2.44.18-3.5-.84-4.61-1.68-9.23-2.64-13.8-.85-4.09-2-8.09-2.75-12.21-.68-3.84-1.06-7.78-1.38-11.7-.2-2.46,0-5,0-7.72-.06,0,.28-.32.49-.22a2.72,2.72,0,0,0,3.08-.34c.19-.13,1.08.54,1.1.87,0,1.35.77,1.62,1.54,2.11,2.49,1.55,4.92,3.24,7.37,4.86,2.74,1.81,5.45,3.69,8.23,5.39,1.57,1,1.84,2.39.49,3.84-.31.33-.65.6-1,.9-.94-1.8-1.22-1.77-2.1,0-.74,1.49-1.41,3-2.27,4.42a24.15,24.15,0,0,0-3.68,15.64c.61,5.65,1.9,11.18,2.92,16.85,2.6-1.36,2.9-2,2.67-5.05-.09-1.22-.08-2.33,1.4-1.7.39.16.93-.18,1.4-.29.28-.07.74-.31.82-.19.71,1.15,2.65,1.53,1.64,3.84a2.91,2.91,0,0,0,0,1.15c.08,4.45.24,8.89.23,13.34,0,2.66-.7,3-2.51,1.55s-3.79-3.17-5.67-4.79c-4-3.44-8-6.84-12-10.37-3.28-2.93-6.42-6.11-9.71-9A19.1,19.1,0,0,0,103,201.7a1,1,0,0,0-1,.34,1.93,1.93,0,0,0-.24,1.34c.43,1.66.91,3.3,1.47,4.9.34,1,.8,2,1.94,1.26l-.47-1.54.46-.25,1.22,4,.25-.08-.46-4.32c2.91.7,3.38,4.67,5.78,5.65l.11-1.44c1.34,1.65.09,5.22,3,5.24l-.39-2.09,4.48,7.25.51-1.54c1.47,2.1,2.82,4,4.18,5.94a1.46,1.46,0,0,0,.68.37,6.65,6.65,0,0,1,2.12.88c2.13,2,4.11,4.15,6.26,6.06,1.69,1.5,3.72,2.45,5.3,4.1,3.15,3.28,7.14,3.35,10.73,4.91,1,.44,2.06.8,3.18,1.24a2.51,2.51,0,0,0-.91-2.9c-3.81-3.15-7.57-6.38-11.32-9.63a7.8,7.8,0,0,1-1.08-1.66,6.06,6.06,0,0,1,1.52-.91,3.41,3.41,0,0,0,2.57-3.16c-.16-3.46-.34-6.93-.52-10.39,0-1-.41-2.1-.12-2.87.93-2.53,0-5,.25-7.55.07-.72.24-1.42.37-2.2l1,1.45.32-2.24c-1.7-.22-.94-2-1.45-3.22,1.54,1.18,1.94,1,2.7-.85.16-.39.69-.54,1-.81l.22.46a3.34,3.34,0,0,0,.6,4.24l3.35-2.07,2.21,4.43c.57-.18,1.19-.62,1.7-.48a36,36,0,0,1,8.31,3.84,31.34,31.34,0,0,0,5.77,2.09c.1,0,.25-.18.46-.36-.19-.34-.29-.76-.52-.92-1.94-1.37-3.86-2.78-5.86-4-3.45-2.11-6.94-4.1-9.73-7.51a5.11,5.11,0,0,1,.11-6l-.94-1.95a9.15,9.15,0,0,1,2.75.45c.33.07,1-.15,1-.36.4-2.32,1.86-1.48,3-1.69a9,9,0,0,0,1.71-.66c-.48-.59-.93-1.24-1.45-1.77-.22-.22-.6-.19-.9-.29-2.19-.72-4.42-1.32-6.57-2.22-1.6-.67-3.1-1.34-4.85-.91-.82.21-1.78-.13-1.48-1.69.37-2-.41-2.13-1.71-2.09-2,0-4-.19-5.93-.31,0,0,0-.1-.09-.17a2.16,2.16,0,0,1,0-.36.66.66,0,0,1,.17-.32c2.5-2.38,2.92-5.82,3-9.39.11-4.2.15-8.4.22-13a6.75,6.75,0,0,1,1.84.74,35.27,35.27,0,0,1,3.16,3.08c1.54,1.74,3,3.64,4.51,5.36,2.43,2.72,5,5.31,7.41,8,2.71,3,5.37,6.13,8.07,9.16.23.27.63.3,1,.44a6.76,6.76,0,0,0,.28-1.38c0-.56-.29-1.18-.17-1.68.3-1.3,2.53-2.31,4.4-1.69.58.19,1.16,1.54,1.29,2.46.92,6.35,1.79,12.71,2.51,19.1a12.2,12.2,0,0,1-.58,4.59c-1.34,4.52-3,8.89-4.24,13.46a143.36,143.36,0,0,1-4.45,14.23c-1.21,3.15-2.31,6.36-3.36,9.6-.73,2.27-1.15,4.71-2,6.91a24.83,24.83,0,0,0-1.93,10.23c.09,1.65-.14,3.41-1.88,3.67q-7.87,1.14-15.77,2.15a2.21,2.21,0,0,1-1.52-.34c-2.31-1.67-5.35-1-7.35-3.87-.6-.85-2.14-.55-3-1.2a4.09,4.09,0,0,0-5.47.13c-1.36,1.28-3.46,2.35-3.13,5-2.63-.32-5.22-.3-7.68-1a53.44,53.44,0,0,1-7.26-3.3l-.43-1,1.44-.83c1,.73,2,1.46,3.22,2.31.28-2.93-.5-3.67-2.25-2.78l-1,.51c-.42-.43-.78-1-1.26-1.28-2-.93-4.32.63-6.15-1.45-.14-.17-.65.18-1,.25-.87.18-1.74.32-2.61.48,0-.57.15-.7.26-.79.58-.42,1.63-.8,1.65-1.26.08-1.53-1-.71-1.62-.9l-.16,0c-1.87-.68-1.89-.66-2.43,1.9-.2.94-.42,1.9-1.66,1.48a11.63,11.63,0,0,0,.34-1.31c.07-.46.07-.94.1-1.42a5.49,5.49,0,0,0-1.18.54,5.92,5.92,0,0,0-.89,1l-.4-.4c.29-.61.6-1.21.86-1.84s.58-1.41-.37-1.83c-1.52-.67-3.11-1.24-3.56-3.64-.09-.43-.75-.69-1.16-1-.23,1-.24,2-.54,2.21-1.19.65-.84,1.74-.75,2.81l0,0c-2.08-.52-2.58-1.7-1.75-4.35l-1.73.18A29.54,29.54,0,0,1,83.72,242a37.39,37.39,0,0,1,4.3-2.55c.71-.41,1.39-.92,2.12-1.25,3.23-1.48,6.41-3.33,9.75-4.23,2.83-.77,5.86-.44,8.8-.58,1.21-.06,1.62-.82,1-2.15a2.88,2.88,0,0,0-1-1.37c-2.23-1.07-3.8-3.08-5.25-5.33-.57-.89-1.33-1.18-2.41-.27.56,1,1.06,1.92,1.6,2.82,1.08,1.75.48,3.74-1.27,4-2.71.39-5.41.57-8,1.86s-5.34,1.6-7.89,2.77a45,45,0,0,0-15.1,11.41c-.66.76-1.23,1.22-1.92.09-.51-.82-1-.73-1.49.1-1,1.63-1.91,1.42-2.88-.29s-1.39-3.67-3.07-4.47c-.19-.08-.28-.61-.35-1-.1-.6-.15-1.22-.22-1.84a4.9,4.9,0,0,0-1.91.77c-1,1-1.77.88-2.52-.3a9.1,9.1,0,0,1-1-1.77,3.93,3.93,0,0,0-3-2.83,2.38,2.38,0,0,0-3.15,1.78c-.17.47-1.45.41-2.21.39-.23,0-.46-.68-.69-1.05a14.91,14.91,0,0,1,1.76-1.55,11.75,11.75,0,0,1,5.9-2.08c.24,0,.63-.15.7-.36a6.18,6.18,0,0,0,.42-2.1c0-.39-.69-1.12-.86-1a22.11,22.11,0,0,0-4.3,2.44c-1.12.91-1.81,2.66-3.55,2a8,8,0,0,1-4-3.83,2,2,0,0,1,0-1.55c.22-.33,1-.58,1.2-.37a19.71,19.71,0,0,1,2.48,3.14c.47.77.74,1,1,.23a25.56,25.56,0,0,0,.54-4.14l.68-.7c-1.12-1.88-.89-2.71.84-3.09,1.32-.28,2.68-.32,4-.64a19.52,19.52,0,0,0,3.09-1.2,34.23,34.23,0,0,1,4.7-2c.84-.22,1.82.51,2.75.66a4.26,4.26,0,0,0,2.16-.06,10.17,10.17,0,0,0,1.87-1.39c1.19-.82,2.37-2.2,3.6-2.29,2.43-.18,4.87.26,7.08-1.49.22-.17.61,0,.92-.06a8.12,8.12,0,0,0,4.32-2.51A12.28,12.28,0,0,0,82,212c-3.25-1.27-6.9-1.7-8.46-6.44,0-.17-.22-.27-.32-.42-2.39-3.28-4.8-6.55-7.16-9.87q-2.66-3.74-5.21-7.55c-2.67-3.95-5.45-7.79-7.89-11.95-1.26-2.15-2.47-4.15-4.42-5.28a5.13,5.13,0,0,0-1.58-.33c.47,1.4.83,2.45,1.18,3.5.43,1.29.78,2.63,1.3,3.86,1.09,2.57,3.45,3.54,4.69,6.25,1.76,3.84,4.43,7,6.72,10.5,1,1.45,2,2.78,2.94,4.28,1.92,3.2,3.88,6.24,7.32,7,1.24.28,2.42,2.33,2.34,3.76-.1,1.88-1.22,2.21-2.42,2.38-2.31.32-4.62.67-6.93,1-1.57.21-3.14.35-4.7.6-.38.06-.74.44-1.1.68-4,2.65-7.86,5.94-12.77,5.19a1.16,1.16,0,0,0-1,.45c-2.18,2.92-5.35,3-8.07,4.32a89.16,89.16,0,0,1-9,3.19c-1.79.63-3.58,1.27-5.33,2a13.17,13.17,0,0,0-2.14,1.53c.92.5,2,1.65,2.72,1.36,1.74-.71,2.78.48,4.1,1.28,2.41,1.47,4.89,2.75,7.37,4a1.18,1.18,0,0,0,1.27-.32,12.8,12.8,0,0,0,1.11-3.15,2.47,2.47,0,0,0-.39-1.79c-.85-.8-.56-1.27,0-2a8.23,8.23,0,0,0,.83-1.71l.66-1.39c2.76,2.69,2.76,2.71,1.14,6.41l1.1,1.69a6.55,6.55,0,0,1-.91-.13c-1.72-.57-2-.29-1.88,2a3.94,3.94,0,0,0,0,.77c.15.64.19,1.66.53,1.84.87.49,2,1.13,2.81.8,2-.83,3.49.06,3.64,2.66.09,1.43.49,2.26,1.75,2.42a12.69,12.69,0,0,1,3.18.93c1.55.66,3,1.54,4.58,2.22,3.87,1.72,7.75,3.38,12,5.23-2,2.58-2.5,6-5.46,6.86.81,1.62,1.72.78,2.79,0l-.75,2.4a19.32,19.32,0,0,1,2.74-.2,11,11,0,0,1,4.27.68c1.67.77,3.58.71,5.37,1.06,4.23.81,8.46,1.68,12.69,2.49,5.66,1.08,11.32,2.19,17,3.17,8.08,1.41,16.11,3.38,24.31,3.58a16.26,16.26,0,0,0,3.12,0c.38-.06.7-.78,1.05-1.19-.33-.32-.63-.8-1-.91-.8-.24-1.67-.18-2.46-.45a32.63,32.63,0,0,1-4.36-1.86,2.62,2.62,0,0,1-.72-1.51,18.5,18.5,0,0,1,2.1-1.86l.68,1.55,1.74-1.45,3.26,1.23.13-.46-2-1a25.4,25.4,0,0,1,5.61.81c.2,0,.53.21.56.14.63-1.31,1.63-.83,2.54-.9,1.17-.08,2.34-.37,3.52-.48a8.78,8.78,0,0,1,1.76.15l0,.5h-1.54v.57a9.51,9.51,0,0,0,1.85,0c.79-.16,1.54-.64,2.33-.74,2-.26,4.14-.18,6.16-.62,8.09-1.79,16.17-3.71,24.24-5.65a9.61,9.61,0,0,0,2.26-1.3c-.47-.7-.83-1-1.2-1a38,38,0,0,0-4.77.2c-3.46.43-6.91,1-10.37,1.49a24.91,24.91,0,0,1-2.79,0c.75-1.24,1.2-2,1.63-2.71a5.49,5.49,0,0,0,1-1.87,2.91,2.91,0,0,1,1.76-2.67c1.07-.47,1.25-1.35.72-2.62a3.46,3.46,0,0,1-.36-2c1-2.91.65-6.55,2.88-8.87a2.16,2.16,0,0,0,.35-1.24,23.08,23.08,0,0,1,2.11-8.14c.9-2.27,1.73-4.59,2.47-6.95.33-1.09.21-2.41.59-3.46s-.29-2.38.91-3.34c.57-.47.3-2.43.54-3.67.45-2.21,1-4.4,1.5-6.6l.24.08.27,2.16.25-.07v-4.9l.5,1.1,1.8-7.59,1.22,1.67c.08-1.59.14-2.87.22-4.51l.26,1,2.79-2,2.42,6,1.08-1.13.82,2.14c1.24-3.23-.4-5.25-1.09-7.42-.46-1.42-5-4.11-5.78-3.93-.08-.74-.13-1.47-.25-2.18-.07-.49-.28-.93-.36-1.41-.15-.87,0-2-.43-2.55-.25-.37-1.23,0-2.07.14.15-1.09.31-2.3.53-3.88l-.77-.69,0,.06,1.75-1.28c-.73-4.76-3.4-7.86-6.55-10.38-.91.46-2,.61-2.47,1.34a35,35,0,0,0-3,5.51c-1,2.19-2,2.43-3.36.61-2-2.75-4.15-5.43-6.21-8.16s-4-5.34-5.95-8c-.17-.23-.38-.57-.57-.57-1.95-.06-2.84-2.08-4.15-3.34-2.6-2.5-5.24-4.94-7.88-7.42l-3.79,24.23c-.91-1.85-1.32-3.06-.9-4.82a49.54,49.54,0,0,0,1-7.26c.34-3.81-.46-7.69.73-11.48.56-1.8.46-3.9.77-5.84.42-2.58.93-5.13,1.41-7.7.37-2,.74-4,1.14-6,.67-3.3,1.37-6.59,2-9.89.18-.84.07-1.9,1.21-1.82.17,0,.5-.74.52-1.16a9.59,9.59,0,0,0-.24-1.9c1.09.85,2.07,1.6,3,2.4.15.12.19.45.29.67,1,2,1.94,4,3,5.92s2.45,4,3.43,6.15c1.1,2.43,1.93,5,2.84,7.61a3.79,3.79,0,0,1,.16,1.5,3.71,3.71,0,0,0,1.94,3.88,3,3,0,0,1,1.61,1.88c.32,3.1,2.27,4.82,3.55,7.09.17.3.54.42,1,.79a5.7,5.7,0,0,0,0-1.6c-.91-2.37-1.74-4.82-2.86-7-2.55-5-2.63-5,.06-10,.41-.74,1-1.77,1.61-1.82,1.25-.09,1.6-.92,1.76-2.33l.36,1.08c.41-1.26.24-2.73.72-3.71.85-1.74,2-3.23,1.8-5.5a1.68,1.68,0,0,1,.63-1.06,1.84,1.84,0,0,0,.34-2.64,1.21,1.21,0,0,1,.52-1.95l1.33-.71c-1.34,2.14-1.32,4.45-.94,6.84a13.08,13.08,0,0,0,.18-1.68c0-.6.13-1.19.21-1.87,1.28.78,1.89,4.31,1,5.46-1.82,2.25-.59,4.77-.36,7,.13,1.31.47,2.54-.13,3.59a3.33,3.33,0,0,0-.12,2.64c.64,3.64,2.93,7,1.38,11.08-.14.37.21,1.08.41,1.58a14.73,14.73,0,0,1,1.36,3.22c.44,2.77.42,5.66,1,8.39.5,2.54.72,5.33,2.47,7.28a8.25,8.25,0,0,1,.76,1.45c1.29,2.26,2.27,5,3.94,6.67,3.52,3.48,5.75,8.07,8.06,12.61,1.08,2.12,1.72,4.57,2.61,6.85a5.1,5.1,0,0,0,.88,1.19,4.84,4.84,0,0,0,.62-1.55,22.08,22.08,0,0,0-.14-4.07c-.76-4.64-1.66-9.24-2.43-13.88q-3.06-18.58-6.07-37.2a4.82,4.82,0,0,1,1.2-4.52c4.17-4.16,8.23-8.51,12.5-12.5,2.21-2.06,4.85-3.38,7.18-5.27,2.6-2.1,5-4.53,7.62-6.68,1.4-1.17,2.95-2.05,4.67-3.23.1,2.15.21,3.54-.82,4.88-4.25,5.54-8.48,11.11-12.56,16.85-2.44,3.43-4.58,7.18-6.83,10.82a3.55,3.55,0,0,0-.18,1.19c.34,0,.77.24,1,.06a7.09,7.09,0,0,0,2.22-2.07c1.3-2.43,3-3.52,5.17-3.42l1.39,3.9c1.39-1.39,2.3-.9,3.17.36.28.4.85.48,1.2.83.94.92,1.51.76,2-.67a15.65,15.65,0,0,1,1.43-2.56l.39.31c-.55,1.56-1.18,3.09-1.63,4.7-.56,2-1,4.07-1.43,6.13a4.53,4.53,0,0,0-.15,2.25c.58,1.42.05,2.42-.37,3.62-.61,1.77-1.37,3.73-.39,5.56a61,61,0,0,0,4,6.4c.73,1,1.06,1.83.29,3a2.45,2.45,0,0,0,.13,3.29c1.56,1.34,1.21,2.94.9,4.78-.2,1.19-.43,2.82.05,3.65a9.63,9.63,0,0,1,.87,5.37c-.05,1.77-.66,2.35-1.89,1.54-3.83-2.52-7.87-2.72-12-1.84a17.42,17.42,0,0,0-3.82,1.45c-1.2.58-.73,1.19,0,2.08a26.12,26.12,0,0,1,2.49,4c1.59,3,3.62,6.28,7.08,5.89.09.41.36.95.24,1.25-.77,1.85.14,2.45,1.27,3.13a2.08,2.08,0,0,1,.4,1.69,4.34,4.34,0,0,1-1.5,2.11c-1,.56-1,1.32-1.07,2.46,0,1.37,0,3.11-.57,4a4.18,4.18,0,0,0-.06,5c-6.42,9.36-13.13,18.51-17.74,29.61a4.79,4.79,0,0,0,1.43-1.57,68.92,68.92,0,0,1,3.53-6.13c3.44-4.75,7-9.38,10.58-14,2.36-3,4.85-5.84,7.28-8.74.6-.71,1.23-1.37,1.81-2.09,1.25-1.55,2.3-3.59,3.79-4.52,1.09-.68,1.11-1.48,1.39-2.46a2.31,2.31,0,0,1,.46-1,18.43,18.43,0,0,1,1.56-1.24l.14.4,1.52-2.79.61,1.47c.23-2.54.59-2.87,1.82-2,1.21-3.44,1-4.73-1.13-7.31l0,.87.43-.59c-1.49-1.51-3-2.94-4.42-4.59a3.31,3.31,0,0,1-.31-2.39c1.36-5,2.82-9.9,4.3-14.82,2.48-8.26,5-16.5,7.5-24.75.4-1.31.86-2.29,2.12-1.07a1.22,1.22,0,0,0,1.19,0c1.07-.47,2.1-1.06,3.13-1.63,2.23-1.22,4.5-2.34,6.67-3.71,4.06-2.56,8-5.29,12.1-7.87.44-.28,1.3-.39,1.55-.07a3.69,3.69,0,0,1,.4,2.09c0,1-.4,2.05-.32,3.05a2.74,2.74,0,0,0,1,1.91c.46.23,1.25-.17,1.74-.58.68-.57,1.18-1.47,1.83-2.12a1.12,1.12,0,0,1,1.07-.34c1,.48,1.88,3.67,1.42,4.94l1.28.52c-2.4,1.29-2.52,3.64-2.73,6a12.9,12.9,0,0,1-.81,3c-.66,2-1.43,3.84-2,5.82a7.83,7.83,0,0,0,.1,2.2l1.77-.8c1,1,.9,2.08.56,3.51-1.14,4.87-4.56,8.44-5,13.74a20.85,20.85,0,0,1-1,4.15,39.64,39.64,0,0,1-1.42,4.44c-.74,1.74-1.71,3.33-2.5,5.05-2.23,4.88-4.42,9.79-6.61,14.71-.68,1.53-1.32,3.09-2,4.64l.53.51c.74-1,1.54-1.93,2.21-3q2.36-3.72,4.61-7.53c2.56-4.34,5.27-8.56,7.59-13.08,3-5.89,5.7-12.06,8.61-18,.84-1.72,1.72-3.86,3.93-2.52a.94.94,0,0,0,.62,0c4.33-.73,8.66-1.39,13-2.26.79-.15,1.46-1.18,2.19-1.81-.52-.81-1.06-1.6-1.56-2.43s-1.25-1.62-1.25-2.43a11.29,11.29,0,0,1,.88-3.86c.9-2.38,0-4.39-2.08-4.37-2.38,0-3.31-.91-3.76-3.71a4.67,4.67,0,0,0-.46-1.07c-2.24,3-2.42,7.26-4.82,10a7.15,7.15,0,0,1,.24-3.07c1.44-3.73,3-7.37,4.45-11.1a26.29,26.29,0,0,0,2.15-9.57,6.61,6.61,0,0,1,.93-2.37,27.66,27.66,0,0,0,1.31-3,53.64,53.64,0,0,0,1.26-5.4c.08-.49-.19-1.48-.5-1.63a12.85,12.85,0,0,0-3.53-1.21,3.79,3.79,0,0,0-2,.61,28,28,0,0,1-2.81,1.57c-3.2,1.11-6.43,2-9.64,3.11-2.7.9-5.39,1.89-8.09,2.8-2.53.86-5.08,1.66-7.61,2.53a4.23,4.23,0,0,0-1.39.8c-3.49,3.12-6.94,6.3-10.43,9.41-1.39,1.23-3.06.27-3.13-1.84a40.8,40.8,0,0,1,.19-6.16c.4-3.16.56-6.35,1.91-9.31,1.14-2.48,1.68-3.12,3.84-1.91,1.37.76,2.64,1.79,4,2.61,1.91,1.15,3.51.1,4-2.44a31.61,31.61,0,0,1,1.06-3.84,4.66,4.66,0,0,0-.78-4.79,15.11,15.11,0,0,0-2.19-2.19,1.54,1.54,0,0,0-1.46-.25c-1.23.64-2.39,1.52-3.59,2.25-.57.34-1.18.55-1.77.83a10.74,10.74,0,0,1,0-2.33c.65-3.13,1.47-6.21,2.08-9.35.26-1.35-.24-3.07.25-4.17,1.51-3.42,1.3-7.29,2.14-10.86a15.27,15.27,0,0,0,0-3A38.44,38.44,0,0,0,244.57,84c-.83.66-1.51,1.59-2.31,2.32-1,.89-1.52.58-1.63-.87,0-.58,0-1.17,0-1.75-.11-1.51-.28-3-.37-4.52-.07-1.2-.08-2.41-.09-3.62a26.79,26.79,0,0,0-.07-3.81c-.27-1.58-1.93-2.19-2.8-1.25q-2.49,2.7-5,5.35c-2.23,2.32-4.46,4.65-6.73,6.91a19.6,19.6,0,0,1-3.07,2.6c-.94.6-1.64.12-1.61-1.35s.16-3,.09-4.47a4.11,4.11,0,0,0-.66-2.2c-1.89-2.33-4.25-1.56-5.61,1.53a12.1,12.1,0,0,1-2.49,4.08c-3,2.71-6.23,5.08-9.33,7.65-2.17,1.8-4.41,1-5.33-2-.26-.84-.56-1.67-.79-2.53-.72-2.68-1.24-5.47-2.17-8-.79-2.15-1.93-4-2.06-6.56-.07-1.28-.3-3.07-1-3.67-2.18-1.87-2.4-4.65-2.91-7.4a16.09,16.09,0,0,0-1.07-4c-1.78-3.67-4-2.75-5.45.06-.19.38-.25.86-.44,1.24a33,33,0,0,1-1.92,3.75c-1.69,2.54-3.5,4.94-5.23,7.44-.68,1-1.17.53-1.34-.34-.43-2.16-1.26-4.3-.39-6.62a2.9,2.9,0,0,0,0-1.7C172,58.1,171.25,56,170.39,54a1.38,1.38,0,0,0-1.22-.59c-1.92.22-4.74,3.63-5.07,6a4.08,4.08,0,0,1-.22,1.31c-1.41,2.56-2.86,5.08-4.3,7.61-.58,1-1.19,1.05-1.69,0s-1-2.4-1.5-3.59c-1.06-2.5-2.14-5-3.2-7.49-.65-1.54-1.19-3.16-1.95-4.61-.6-1.14-1.49-1-2,.18a28.46,28.46,0,0,0-1.54,4.62c-.83,3.51-1.45,7.1-2.29,10.61-1.29,5.39-2.61,10.77-4,16.1-.7,2.59-1.69,5.06-2.75,8.16-1.47-1.84-2.56-3.26-3.7-4.6-1.35-1.58-2.7-3.17-4.13-4.63-2.84-2.89-6-5.3-7.93-9.4-.89-1.91-2.09-3.14-4.11-2.54-.76.23-1.64-.22-2.46-.31a10.71,10.71,0,0,0-3.07-.22,3.15,3.15,0,0,1-3.08-1.33c-.47-.52-1.26-1.15-1.72-1-.61.22-1,1.19-1.53,1.84.38.39.73,1,1.17,1.11,2.73.81,4.42,3,5.45,6.12a9.28,9.28,0,0,0,.66,1.47c0,.1.27.06.45.09l-.34-1.78c1.63,1,1.81,2.74,2.42,4.17.51,1.21,1.3,3.09,2,3.12,1.6.08,2.1,1.35,2.63,2.56.9,2,1.61,4.22,2.32,6.38.49,1.53,1.21,1.82,2.23.74l1.18-1.25c.37,1.42.73,2.47.91,3.57A11.8,11.8,0,0,1,128,99a8.38,8.38,0,0,1-.36,1.54,4.58,4.58,0,0,1-1.07-.83c-.58-.79-1.07-1.68-1.83-2.9-.48,1.29-.81,2.18-1.14,3.09-.17.47-.34,1.37-.47,1.36a1.77,1.77,0,0,1-1.35-.66c-.63-1.17-1-2.53-1.62-3.73a8,8,0,0,0-1.26-1.52,11.67,11.67,0,0,0-1.43-2.63c0-.06-1,.56-1,.74a14,14,0,0,1-.28,5.87c-.11.42.59,1.25,1,1.79s1,.54,1.18,1c1.33,3,2.59,6,3.84,9.06a2,2,0,0,1,0,1.24.7.7,0,0,1-.79.16,2.61,2.61,0,0,1-.44-1.11c-.22-.74-.23-1.75-.65-2.19-1-1.11-2.2-2-1.46-4.57-1.3.76-2.35,1.59-2.8-.23-.4-1.57-.73-3.17-1-4.77-.35-2-.59-4-.94-6.06-.06-.38-.45-.66-.66-1-.44-.76-.87-1.53-1.31-2.3l.33-.33,3.54,1.4c.13-1.73.13-3.32-1.2-4.48a3.76,3.76,0,0,1-.66-1.72c-.55-2-1.13-2.3-2.89-1.42.78,2-.2,3.22-1.34,4.4s-.93,1.8.35,2.48c.37.2.73.47,1.25.82a8.29,8.29,0,0,0-1.3,1.28c-.41.65.33,7.46.82,8.09,0,0,.1,0-.2-.06l2.72-1.16c.05,1.28.12,2.56.14,3.85,0,.31-.2.63-.18.93a10.5,10.5,0,0,0,.38,1.44l1.15-1.88c.34,1.37.66,2.38.83,3.42.38,2.41.51,4.9,1.07,7.23.66,2.72.69,5.94,3.11,7.68a20.33,20.33,0,0,1,.75-3,6.46,6.46,0,0,1,1.54-2.31c.71-.6,1.75-.61,2.43-1.23,1.83-1.67,2.05-1.63,1.19-4.23a14.54,14.54,0,0,1-1-3.6c-.11-2.35,1.27-3.11,2.87-3.52,1.19-.3,2.78.57,3.57,2.41.62,1.44,1,3.08,2.95,2a15,15,0,0,0-.39,1.64,9.22,9.22,0,0,0-.15,2.89c.63,2.55,1.1,5-.21,7.43a2.37,2.37,0,0,0,0,1.07,29.24,29.24,0,0,1,.19,3.36c-.21,3.23-.46,6.45-.8,9.66q-.48,4.42-1.19,8.79c-.2,1.22-.73,1.76-1.79.77-2-1.9-4.16-3.56-6.16-5.48-4.23-4.07-8.39-8.26-12.59-12.39-1.72-1.68-1.89-2.28-1-4.78a3.23,3.23,0,0,0-.41-3.16,17.57,17.57,0,0,1-2.13-4.89,54,54,0,0,1-1.36-8.44c-.25-3.13,0-6.31-.21-9.45a33.85,33.85,0,0,0-1-4.69,6.32,6.32,0,0,1-.34-2.71,3.57,3.57,0,0,0-.83-3.62c-.41-.55-1.08-1.44-1-1.86,1.21-4.12-2.63-7.82-.59-11.95a.84.84,0,0,0,0-.38c-.24-2-.46-4-.73-6a3.53,3.53,0,0,1,.79-3.32c.93.89,1.57,3.06,3,1,.56-.8,1.14-1.7.16-2.65-1.55-1.51-2.52-1.51-3.61.23a7.67,7.67,0,0,1-.36-1.72c.22-3-.4-4.51-2.64-5.68-.28-.15-1.08.32-1.12.61a12.85,12.85,0,0,0-.17,4,45.78,45.78,0,0,1,.25,17.42c-.28,1.58-.9,2.54-2.42,2.16a14.07,14.07,0,0,0-3.25-.21c-1.89,0-3.71-.22-5.26-1.84-.45-.46-1.42-1-1.64-.79a4.87,4.87,0,0,0-1.2,2.47c-.34,2.48-.29,5.06-.72,7.51a27.26,27.26,0,0,0,.45,11.48c.8,3.21,1.26,6.54,1.81,9.84.21,1.25-.34,1.78-1.27,1.28a40.37,40.37,0,0,1-4.13-2.56,14.74,14.74,0,0,0-5.91-3c.85,4,1.59,7.52,2.34,11.06.11.49.26,1,.33,1.48.31,2.21.59,4.43.9,6.64a4.37,4.37,0,0,0,.27.68c.44,1.22.94,2.4,1.28,3.65s.45,2.81.85,4.13q3.2,10.46,6.5,20.87c1.88,6,3.81,11.91,5.71,17.87,1.77,5.53,3.54,11.05,5.27,16.6.6,1.92.24,2.88-1.38,2.87a62.17,62.17,0,0,1-8-.78,2.26,2.26,0,0,1-1.34-1.38c-1.23-3.29-2.44-6.6-3.47-10Q80,162,76.32,149.25a25.88,25.88,0,0,1-1.08-6c0-1.3,0-2.37-.81-3.33a4.32,4.32,0,0,1-.75-1.67c-1.4-5.83-2.76-11.67-4.13-17.51-.38-1.66-.74-3.32-1.07-4.76.69-.23,1.71-.25,1.85-.69.41-1.3-.59-1.71-1.34-2.14-.37-.2-.74-.37-1.11-.56l-.14-.63A8.08,8.08,0,0,1,70,110.73c1-.15,1.66.55,1.68,2a1.68,1.68,0,0,0,.46.93,9.71,9.71,0,0,0,1.82,1.9c.46.31,1.12.16,1.7.21-.13-.6-.1-1.4-.41-1.77-1.67-2-3.39-4-5.14-5.94s-3.52-3.74-5.34-5.52c-.73-.72-1.39-.38-1.26.85.28,2.76.57,5.54,1.09,8.23.39,2,0,2.62-1.7,2.46a12.64,12.64,0,0,1-5.9-2.13,38.9,38.9,0,0,0-3.58-2c-.49-.25-1.2-.74-1.49-.5a3.13,3.13,0,0,0-.83,1.92,5.78,5.78,0,0,0,.31,2.28c1.08,3.61,2.1,7.26,3.35,10.77,1,2.76,2.56,5.22,3.36,8,.68,2.38,2.62,4.61,1.22,7.58-.14.29.17.85.19,1.29a43,43,0,0,1,.19,7.07c-.42,3.33.31,6.64,2.47,8.61,1.62,1.48,3,.89,3.57-1.53.13-.58.2-1.18.29-1.77l.49-.31c.9,1.33,2.3,2.51,2.6,4,.77,3.92,3.18,5.67,5.89,8.21a16.55,16.55,0,0,0-.24-2.93c-.32-1-1.08-1.86-1.26-2.89-.82-4.54-3.42-7.83-5.15-11.72a33,33,0,0,0-1.52-3.36c-1.42-2.44-1.8-5.49-3.38-7.93-1.36-2.08-2-4.91-2.92-7.41-.22-.59-.42-1.18-.65-1.75a19.47,19.47,0,0,0-1.18-2.7c-.87-1.4-1.63-2.9-1.12-4.62a3,3,0,0,0-1.32-3.89,3.28,3.28,0,0,1-1-1.7c-.08-.26.43-1.15.62-1.13a3.87,3.87,0,0,1,1.48.76c1.82,1.28,3.21,3.44,5.58,3.61a3.28,3.28,0,0,1,2.54,1.89A23,23,0,0,0,68,126.61a2.41,2.41,0,0,1,.1.57c1.13,4.65,1.23,9.6,2.84,14.14,1.11,3.12,1.75,6.5,2.63,9.74,1.36,5,2.8,10,4.08,15.09.38,1.5.16,3.25.56,4.74a58.22,58.22,0,0,0,2.1,5.81q1.47,3.86,3,7.69c.42,1.09.34,1.86-.72,2.21-2.82.91-5.63,1.85-8.94,2.93l1.95,4c.74-.26,1.47-.81,1.75-.56a8.4,8.4,0,0,1,1.3,2.23c1.2-.54.77-1.93.49-3.59.77,1.09.87,3.29,2.2,1.32l.07,1.68,1.35-.3-.8-1.74c1.48-.49,2.31,1,3.44,1.65a2.09,2.09,0,0,1,.87,2.74c-.68,1.46-.07,2.29.5,3.28.24.42.48.84,1,1.63-1.93-1-3.44-3.42-3.24-4.92L82,195.64c.6,5.8,1.36,7.89,3.31,9.18l-.43-2c.74,1,1.33,2.43,2.26,3a10.73,10.73,0,0,1,4.37,5.19l-2,1.05.13.76a7.92,7.92,0,0,0,1.81-.41C91.62,212.41,91.5,211.53,91.49,211ZM65.35,328.43l1,2.93a15.6,15.6,0,0,0,1.82-1.42,1.71,1.71,0,0,1,2.43-.3c.68.41,1.66,1,2.18.64a4.79,4.79,0,0,1,5,0,.7.7,0,0,0,.47.06c2.31-.55,4.64-1,6.94-1.7,3.7-1.07,7.37-2.24,11-3.39a4.69,4.69,0,0,0,1.09-.68,11.28,11.28,0,0,1,2-1.31c3.29-1.2,6.63-2.23,9.91-3.47,2.25-.85,2.74-.54,2.62,2.38-.17,4-.61,8-.59,12,0,4.71.42,9.41.66,14.11a42.32,42.32,0,0,1,.29,6.53c-.4,3.62-3.42,5.36-6.14,3.84-2.27-1.26-4.53-.68-6.11,1.68-1.24,1.83-2.47,3.68-3.56,5.64A16.64,16.64,0,0,0,95,369.88c-.38,1.48.22,2.13,1.46,2.06a1.64,1.64,0,0,1,1.42.58,3.21,3.21,0,0,1,0,2c-.33,1.28-.81,2.5-1.24,3.74a20,20,0,0,1-1.41,3.84,5.81,5.81,0,0,0-.55,5.3c.67,1.77,2.22,2.07,3.67,1.91,1.9-.23,3.78-.76,5.69-1,1.11-.12,2.44-.3,3.34.31,2.28,1.53,4.17,1.38,6.17-.68,1.7-1.76,3.23-.88,3.8,1.75.23,1.07.85,2.7,1.43,2.8,1.22.21,1.51-1.46,1.78-2.71a5.25,5.25,0,0,0,.13-1.72c-.27-2.52-.63-5-.91-7.55-.23-2-.51-4.07-.59-6.11-.21-4.85-.24-9.71-.51-14.55-.09-1.59-.34-3.52-2-3.91a9.09,9.09,0,0,0-2.54.11,13.85,13.85,0,0,1,2.74-3.27c.37-.35,1-.45,1.19-.87.62-1.81,2.1-2.26,3.21-3.25s2.79-1.76,4-2.91c6-5.62,12-11.33,18-17.06q9.53-9.12,19-18.31c2.49-2.41,5-4.83,7.47-7.28a8.25,8.25,0,0,0,.91-1.38l-.22-.66c-2.29.27-4.59.48-6.86.88-.43.08-.74,1-1.17,1.44a4.15,4.15,0,0,1-1.49,1.1,20.61,20.61,0,0,1-3,.57c-.5.07-1.18.33-1.48,0-2.26-2.21-5.09-1-7.53-2a.68.68,0,0,0-.71.22c-.79,1.89-1.79,1.25-2.92.56-.46-.28-1.11-.11-1.67-.11-.75,0-1.49,0-2.27,0a3,3,0,0,1,.05-.81,2.15,2.15,0,0,0-.71-2.8c-.86-.76-1.36-.08-2,.67a18.78,18.78,0,0,1-2.8,2.77c-.47.38-1.14.36-2.1.62a16.2,16.2,0,0,0,1.24-2.73,7.76,7.76,0,0,0-.16-2.06,8.78,8.78,0,0,0-1.7.31c-.71.27-1.37,1-2.06,1-1.52,0-2.36,1-3.11,2.45-.23.44-.7,1.07-1,1a23.94,23.94,0,0,1-3.93-1.1c-1.54-.56-2.53.28-2.3,2.28.15,1.38-.32,1.75-1.25,1.84-.35,0-.69.13-1,.2a2.88,2.88,0,0,1-.15.64c-.23.47-.5.91-.75,1.37a5.1,5.1,0,0,1-.4-1.64,5.47,5.47,0,0,1,.65-1.69c.17-.39.58-.78.53-1.1-.5-3.91,1.79-7.71.3-11.66a2.81,2.81,0,0,1,.15-1.52c.64-2.09.18-4-.45-6.05-1.74,6.21-3.44,12.32-5.19,18.58-2.32-1.94-4.22-2-6.28-.36s-4.2,3-6.33,4.47c-1.23.83-2.49,1.6-3.75,2.36-2.36,1.41-4.73,2.83-7.12,4.18-.41.24-.93.13-1.37.28-2.16.73-4.31,1.51-6.47,2.22-.35.12-1,.15-1.06,0a3,3,0,0,1-.12-1.62c.49-2.72,1.44-5.08,3.5-6.51a1.79,1.79,0,0,0,.75-.95c.15-.82.42-2.15.1-2.48a9.9,9.9,0,0,0-3.28-2.32c-1.27-.51-2.76-3.28-2.11-4.64.86-1.82,1.79-3.6,2.75-5.34.78-1.42,1.73-2.7,2.46-4.16a19.48,19.48,0,0,0,.91-3.09c-1,.45-2.54.62-2.77,1.4-.77,2.61-2.63,3.94-3.75,5.92-1.3,2.31-2.73,4.43-4.14,6.61-1.89,2.92-4,5-7.29,4.5a5.67,5.67,0,0,0-2.79.62c-.39.16-.66.82-1,1.26.42.41.8,1,1.27,1.18,1,.42,2.11.41,3,1a3.09,3.09,0,0,1,.91,2.43A14.61,14.61,0,0,1,67,315.56c-3.08,4.24-5.4,8.86-5.57,14.8-.06,2.09.32,2.55,1.79,1.56a6.43,6.43,0,0,0,1.42-1.9A11.23,11.23,0,0,0,65.35,328.43Zm155.88-20.34c-1.11,1-2.31,2.78-3.14,2.55-2-.57-1.94.69-1.88,1.85-1.08.4-2.17.45-2.84,1.13a39.4,39.4,0,0,0-2.71,3.82c-.26.34-.92.64-1.17.47-1.38-.94-2.67-.49-4.11-.23-2.8.51-3.84,1.39-4.36,5-1.56-.2-3.27,0-4.68-.71s-3.28-.37-4.38-2.46c-.65-1.22-2-.79-2.38.54-.6,1.95-1.09,4-1.61,5.94,0,.07.12.2.23.38l1.67-.37-.82,2.51a7.16,7.16,0,0,1-2.1-.71,3.8,3.8,0,0,1-1.58-1.86c-.39-1.72-1-2-2.07-1a2.11,2.11,0,0,1-2.89.15,17.81,17.81,0,0,0-4-1.59c-.47-.14-1,.24-1.57.39.24.65.34,1.52.74,1.91a35.17,35.17,0,0,0,4,3.39c7.37,5.3,14.73,10.64,22.18,15.75,2.34,1.6,5,2.5,7.49,3.75.46.23.88.62,1.35.87a25.44,25.44,0,0,0,4.07,2.05,32.15,32.15,0,0,0,4.39.58c1,.16,1.47-.14,1.33-1.56a18.47,18.47,0,0,1-.07-3.86c.5-4.35,1.31-8.65,1.63-13,.37-5.2.5-10.44.49-15.67C222.45,314.68,222.88,311.07,221.23,308.09Zm1.57-35.66.26.09,1.18-1.78,2,.71c.35-.8.35-.79,1.1-.29.11.08.34.14.39.07.65-1,1.56-.64,2.39-.82,1.4-.32,1.64-1.58.88-3.7-1.27-3.53-2.73-7-3.76-10.63a25.47,25.47,0,0,0-4.39-8.61,42.49,42.49,0,0,0-5.12-5.26,2.16,2.16,0,0,0-2.05-.53c-.41.19-.53,1.43-.75,2.21-.35,1.23-.4,3.14-1.07,3.59-1.64,1.08-2.89,2.2-2.83,4.27-1,.49-1.87.61-2.26,1.23-1.22,2-2.1,4.27-3.38,6.17a23.11,23.11,0,0,1-4.4,5.07c-2,1.57-4.36,2.38-5.52,5.28-.1.25-.41.37-.63.54-2.17,1.61-4.34,3.21-6.5,4.84a24.14,24.14,0,0,1-3.65,2.8c-2.71,1.27-5.53,2.21-8.29,3.33-.28.11-.49.48-.94.94.57.19.85.4,1.12.36,2.9-.38,5.81-.65,8.68-1.25,5.75-1.21,11.47-2.59,17.19-3.94,2.73-.65,5.45-1.37,8.17-2.11,1.46-.4,2.94-1.39,4.36-1.25a5.07,5.07,0,0,0,3.17-.9c.58-.33,1.38-.06,2.28-.06l.94-1.35-.47,2,2.2-2.29ZM198.46,361.5c-.22,1.38-.43,2.64-.72,4.43a23.93,23.93,0,0,1-2.33-1.25,7.19,7.19,0,0,1-1.12-1.3,8.57,8.57,0,0,0-.51,2.16c0,1.1,0,1.85-1,2.21-.31.12-.56.91-.65,1.43a5.39,5.39,0,0,0,.21,1.51l-.65.64c-.25-.61-.39-1.44-.79-1.79s-1.18-.39-1.78-.58l-2.58-.85c-2.48,2.37-2.48,2.37-4.7.75-.14.49-.3.93-.4,1.39-.54,2.33-1,4.69-1.61,7-.39,1.57-1,1.72-2.07.77-.39-.34-.82-.61-1.4-1l-.27,2.32-.45.17c-.25-.89-.54-1.76-.73-2.67-.3-1.45-.74-2.68-2-3.17a2.15,2.15,0,0,1-.9-.73c-1.57-2.2-3.13-4.43-4.68-6.66-.14-.19-.35-.47-.31-.64.6-2.63-1.83-3.47-2.09-5.67a2.29,2.29,0,0,0-.37,1.52,33.32,33.32,0,0,0,.82,3.31,38.09,38.09,0,0,0,1.81,5.53c2.32,4.81,4.63,9.65,7.29,14.16,1.49,2.53,3,5.12,5.41,6.81,1.79,1.27,3,3.72,5.12,4.54.21.08.31.52.5.73.32.38.68.71,1,1.06a9.24,9.24,0,0,0,.91-1.47,5.41,5.41,0,0,0,.15-1.31c.23-1.84.47-3.54,2.39-3.91a2.61,2.61,0,0,0,2-2.6,6,6,0,0,1,1-2.83c2.86-3.93,3.38-9.16,5-13.75.86-2.38,1.32-5,2-7.45C200.49,362.44,200.35,362.06,198.46,361.5Zm90.43-78.82c5.28-1.63,11.07-3.4,16.84-5.25a2,2,0,0,0,.87-1.3c-.3-.67-.85-1.64-1.31-1.64-1.62,0-2.53-1.28-3.56-2.44a14.85,14.85,0,0,0-2.06-2.06c-3.47-2.54-7-5-10.48-7.51-5-3.63-9.89-7.43-14.93-10.92a46.54,46.54,0,0,0-6.75-3.43c-.29-.14-.72.16-1.09.26.14.38.19.9.43,1.12,1.23,1.17,2.48,2.33,3.79,3.35,1.54,1.21,3.11,2.28,3.53,4.81.1.59.57,1.47.95,1.55,2,.39,3.5,1.8,4.85,3.56.66.85,1.34,1.48,0,2.25a1.2,1.2,0,0,0-.41.9c.19,2.14.4,4.27.7,6.39a3,3,0,0,0,.79,1.37c1.85,2.09,1.8,2.43-.22,4.18a4.37,4.37,0,0,0-.95,2.07c-.06.23.45.95.76,1C283.16,281.55,285.7,282,288.89,282.68Zm-42.37-15a5.25,5.25,0,0,0-1,.72c-.35.44-.63,1-.95,1.45.47.13,1,.44,1.4.36,4-.76,8-1.58,12.13-2.41-.44-.51-1.1-1-1.33-1.63a59.42,59.42,0,0,1-1.59-5.86c-1.49-6.79-3.49-13.3-7-18.89-3-4.69-5.94-9.36-9.09-13.84-1.56-2.22-3.84-3-6.54-3.55a10.12,10.12,0,0,0,.69,1.64c2.86,3.49,5.86,6.81,8.55,10.48a31.53,31.53,0,0,1,4,7.49c.58,1.57,1.28,3.62.26,5.56-.1.19.17.7.29,1,.76,2.22.36,3.34-1.5,4.07-1.23.49-1.46,1.35-.74,2.74.32.62.62,1.27,1,2.05-1.68-.21-3,1.25-3,3.51a9,9,0,0,0,1,4.52C243.63,267.89,245.19,267.53,246.52,267.69ZM143.27,395.77l.5.67a25.45,25.45,0,0,0,2.29-1.73c.81-.73,1.48-1.7,2.3-2.39,1.06-.89,2.1-3.62,1.45-4.5-1.72-2.32-1.72-5.14-1.42-7.87a4.71,4.71,0,0,0-1.43-4.27c-1.2-1.31-2.17-.22-3.2,0a5.15,5.15,0,0,0-3.89,3.47,55.72,55.72,0,0,1-2.43,6c-1.95,3.78-3.47,7.67-3.33,12.3,0,.49-.33,1-.3,1.49.05,1,0,2.41.44,3,.71.85,2.18,1.87,2.78,1.49,2.05-1.3,4.47-2.34,5.07-5.78A6.24,6.24,0,0,1,143.27,395.77ZM74.63,363.25c-.35,2,1.09,3,1.55,4.46,1.1,3.46,1.87,7.07,2.82,10.6a9.7,9.7,0,0,0,.86,1.74,8.36,8.36,0,0,0,.64-2.33c0-1.53-.35-3.05-.38-4.59-.07-2.79.06-5.59-.05-8.37-.1-2.56.66-4.77,1.23-7.13a39.47,39.47,0,0,0,1-7.94c.07-1.9-1-2.36-2.44-1.82a7.61,7.61,0,0,1-3.46.45,41.61,41.61,0,0,1-5.76-1.22c-1.64-.42-3.5-.64-3.19-3.76a2.07,2.07,0,0,0-.57-1.32.92.92,0,0,0-1-.22c-1.48.78-1.91,5.17-.82,6.57a12,12,0,0,1,1.84,3.57c.56,1.76,1.47,2.39,2.83,1.77a2.06,2.06,0,0,1,1.66.21c.61.31,1.09,1,1.69,1.35a5.2,5.2,0,0,1,2,5.14C74.89,361.34,74.78,362.3,74.63,363.25ZM35.69,175.51c-.08-.31-.18-.76-.32-1.2-.81-2.57,0-4.64,2.05-5.74,2.6-1.4,4.9-.66,7.25.9.5.34,1.29,0,1.95,0a8.35,8.35,0,0,0-.23-2.51c-1.47-3.32-3-6.66-4.67-9.78-.9-1.63-1.84-2.93-1.6-5.16a1.79,1.79,0,0,0-2-2.14c-1.11.19-1.36,1.44-1.11,2.74.45,2.37.87,4.75,1.39,7.1s.2,2.83-1.7,3.23c-3.5.74-4,1.09-4.12,5.5a35.12,35.12,0,0,0,.83,6ZM66.45,273.4c-.46-.31-.86-.8-1.11-.7a8.52,8.52,0,0,0-2,1.15,56.42,56.42,0,0,0-5.72,4.21c-1.86,1.71-4.13,3-4.66,6.41a8.86,8.86,0,0,1-1.64,3.18c-.91,1.39-2,2.6-2.87,4-.24.39,0,1.27.07,1.92.46-.09,1,0,1.36-.3a9.58,9.58,0,0,0,1.19-1.75c1.63-2.39,3.21-4.8,5.94-5.43a4.31,4.31,0,0,0,2.23-1.77c2.06-2.92,4-6,6-9C65.64,274.84,66,274.25,66.45,273.4ZM37.5,279.66c.49-.64,1.24-1.56,1.94-2.53,1.11-1.52,2.19-3.08,3.27-4.64S45,269.34,46,267.65c.27-.45.09-1.32.12-2-.53,0-1.11-.21-1.57,0-4.47,2.11-6.59,7-8.88,11.71A1.72,1.72,0,0,0,37.5,279.66Zm83.26,115.61-.73.36a27.76,27.76,0,0,0,.4,3c.48,2,1.08,4,1.6,6,.76,2.89,1.71,5.61,4.16,6.88,1.29.67,2.12-.11,1.82-1.8a14.92,14.92,0,0,0-1.27-3.82c-1-2.09-2.17-4.08-3.29-6.08C122.58,398.33,121.66,396.81,120.76,395.27ZM52,252.83c-.56,1.87-1.16,3.77-1.7,5.7a7.08,7.08,0,0,0-.26,1.9c0,1.53.43,1.81,1.54,1.19a32.82,32.82,0,0,0,3.42-1.8,16.76,16.76,0,0,0,3-3c.58-.73.26-1.29-.58-1.6C55.73,254.53,54,253.7,52,252.83Zm-9-.6c.19,0,.37.06.48,0,1.58-1,3-2.5,5-1.89.24.08.74-.5.89-.91a1.38,1.38,0,0,0-.44-1.08c-1.91-.81-3.82-1.6-5.76-2.24-.76-.25-1.15.35-1,1.41C42.52,249,42.74,250.53,43,252.23Zm5,45.22c-.54-.95-1.06-2.19-1.26-2.12-.74.28-1.76.81-2,1.57a39.1,39.1,0,0,0-1.09,5.8,1.2,1.2,0,0,0,.34.94.72.72,0,0,0,.83-.13C45.89,301.59,46.89,299.62,48,297.45Zm85.21-45.11c0-.13,0-.26,0-.38-.1-.89-3-3.72-3.69-3.54a1.25,1.25,0,0,0-.52.72,25.35,25.35,0,0,0,2.54,4.6C132.26,254.64,133.23,253.73,133.22,252.34ZM37.66,178.69c-.37.15-.52.16-.55.24-.15.44-.49,1.15-.37,1.31a15.45,15.45,0,0,0,2,2.15c.13.11.53-.18.76-.37a.64.64,0,0,0,.09-.52C39,180.51,38.27,179.55,37.66,178.69Zm20.62,51.73c-.57,1-1.12,1.51-1.14,2.06s.58,1,.91,1.51a7.74,7.74,0,0,0,1.47-1.61C59.61,232.22,58.9,231.38,58.28,230.42Zm10.57,13.05-1.85-2a6.72,6.72,0,0,0-1,1.9c-.07.29.65,1.18,1,1.2S68,244,68.85,243.47ZM25.44,186.55l.8-.53L28,184.14c-.36-.32-.9-1-1.07-.9a6.55,6.55,0,0,0-1.74,1.81C25,185.31,25.34,186,25.44,186.55Zm39.89,46.38c1.83,1.08,2.26.83,2.49-1.46C66.12,230.66,65.78,230.86,65.33,232.93ZM67.55,336c-.48-.54-.92-1.15-1-1.09a6.91,6.91,0,0,0-1.34,1.54c0,.07.68,1.12.78,1.06A10.58,10.58,0,0,0,67.55,336Zm96.66,21.42-.32-.84-1.25-1.42c-.21.38-.65.89-.57,1.11a3.61,3.61,0,0,0,1,1.6C163.31,358.06,163.83,357.61,164.21,357.44ZM175.9,213.7l1.95-1-1.49-.53v-4.68h-.46Zm10.68-14.82c-.93,1.85.61,2.78.93,4.66C187.8,200.31,187.63,199.57,186.58,198.88ZM109.11,63.15c-.47-.53-.78-1.13-1.07-1.11s-.65.56-1,.87a5,5,0,0,0,.94,1.3C108.12,64.3,108.59,63.66,109.11,63.15Zm41,79.85.72-.53c.15-.4.5-.94.39-1.19a1.62,1.62,0,0,0-1-.92c-.26-.05-.87.57-.84.76A9.9,9.9,0,0,0,150.11,143ZM86.52,305.62l.25.52c.76-.34,1.52-.63,2.26-1,.21-.11.32-.52.47-.8-.29-.14-.68-.49-.86-.37A25.59,25.59,0,0,0,86.52,305.62ZM50.38,229.75l-.12-.91H48.43l.28,1.52Zm70.37-105,1,2.38C122.57,125.56,122.23,124.77,120.75,124.75Zm35.32,271.41.67-.59-.86-1.68-.77.74Z"/><path class="cls-1" d="M84,249.63c-.09-1.07-.44-2.16.75-2.81.3-.16.31-1.19.54-2.21.41.36,1.07.62,1.16,1,.45,2.4,2,3,3.56,3.64,1,.42.65,1.12.37,1.83s-.57,1.23-.86,1.84l.4.4a5.92,5.92,0,0,1,.89-1,5.49,5.49,0,0,1,1.18-.54c0,.48,0,1-.1,1.42a11.63,11.63,0,0,1-.34,1.31c1.24.42,1.46-.54,1.66-1.48.54-2.56.56-2.58,2.43-1.9l.16,0c.6.19,1.7-.63,1.62.9,0,.46-1.07.84-1.65,1.26-.11.09-.21.22-.26.79.87-.16,1.74-.3,2.61-.48.35-.07.86-.42,1-.25,1.83,2.08,4.19.52,6.15,1.45.48.23.84.85,1.26,1.28l0,0-1.43.82.43,1a53.44,53.44,0,0,0,7.26,3.3c2.46.72,5,.7,7.68,1-.33-2.69,1.77-3.76,3.13-5a4.09,4.09,0,0,1,5.47-.13c.91.65,2.45.35,3,1.2,2,2.84,5,2.2,7.35,3.87a2.21,2.21,0,0,0,1.52.34q7.89-1,15.77-2.15c1.74-.26,2-2,1.88-3.67a24.83,24.83,0,0,1,1.93-10.23c.84-2.2,1.26-4.64,2-6.91,1-3.24,2.15-6.45,3.36-9.6a143.36,143.36,0,0,0,4.45-14.23c1.21-4.57,2.9-8.94,4.24-13.46a12.2,12.2,0,0,0,.58-4.59c-.72-6.39-1.59-12.75-2.51-19.1-.13-.92-.71-2.27-1.29-2.46-1.87-.62-4.1.39-4.4,1.69-.12.5.18,1.12.17,1.68a6.76,6.76,0,0,1-.28,1.38c-.32-.14-.72-.17-1-.44-2.7-3-5.36-6.14-8.07-9.16-2.44-2.71-5-5.3-7.41-8-1.55-1.72-3-3.62-4.51-5.36a35.27,35.27,0,0,0-3.16-3.08A6.75,6.75,0,0,0,141,154c-.07,4.55-.11,8.75-.22,13-.08,3.57-.5,7-3,9.39a.66.66,0,0,0-.17.32,2.16,2.16,0,0,0,0,.36c0,.07.06.16.09.17,2,.12,4,.35,5.93.31,1.3,0,2.08.12,1.71,2.09-.3,1.56.66,1.9,1.48,1.69,1.75-.43,3.25.24,4.85.91,2.15.9,4.38,1.5,6.57,2.22.3.1.68.07.9.29.52.53,1,1.18,1.45,1.77a9,9,0,0,1-1.71.66c-1.14.21-2.6-.63-3,1.69,0,.21-.7.43-1,.36a9.15,9.15,0,0,0-2.75-.45l.95,1.95a5.1,5.1,0,0,0-.12,6c2.79,3.41,6.28,5.4,9.73,7.51,2,1.23,3.92,2.64,5.86,4,.23.16.33.58.52.92-.21.18-.36.39-.46.36a31.34,31.34,0,0,1-5.77-2.09,36,36,0,0,0-8.31-3.84c-.51-.14-1.13.3-1.7.48l-2.21-4.43-3.35,2.07a3.34,3.34,0,0,1-.6-4.24l-.22-.46c-.36.27-.89.42-1,.81-.76,1.83-1.16,2-2.7.85.51,1.2-.25,3,1.45,3.22l-.32,2.24-1-1.45c-.13.78-.3,1.48-.37,2.2-.25,2.5.68,5-.25,7.55-.29.77.07,1.9.12,2.87.18,3.46.36,6.93.52,10.39a3.41,3.41,0,0,1-2.57,3.16,6.06,6.06,0,0,0-1.52.91,7.8,7.8,0,0,0,1.08,1.66c3.75,3.25,7.51,6.48,11.32,9.63a2.51,2.51,0,0,1,.91,2.9c-1.12-.44-2.16-.8-3.18-1.24-3.59-1.56-7.58-1.63-10.73-4.91-1.58-1.65-3.61-2.6-5.3-4.1-2.15-1.91-4.13-4.11-6.26-6.06a6.65,6.65,0,0,0-2.12-.88,1.46,1.46,0,0,1-.68-.37c-1.36-1.91-2.71-3.84-4.18-5.94l-.51,1.54-4.48-7.25.39,2.09c-2.89,0-1.64-3.59-3-5.24l-.11,1.44c-2.4-1-2.87-5-5.78-5.65l.46,4.32-.25.08-1.22-4-.46.25.47,1.54c-1.14.74-1.6-.28-1.94-1.26-.56-1.6-1-3.24-1.47-4.9a1.93,1.93,0,0,1,.24-1.34,1,1,0,0,1,1-.34,19.1,19.1,0,0,1,4.06,2.38c3.29,2.89,6.43,6.07,9.71,9,3.95,3.53,8,6.93,12,10.37,1.88,1.62,3.76,3.23,5.67,4.79s2.51,1.11,2.51-1.55c0-4.45-.15-8.89-.23-13.34a2.91,2.91,0,0,1,0-1.15c1-2.31-.93-2.69-1.64-3.84-.08-.12-.54.12-.82.19-.47.11-1,.45-1.4.29-1.48-.63-1.49.48-1.4,1.7.23,3-.07,3.69-2.67,5.05-1-5.67-2.31-11.2-2.92-16.85a24.15,24.15,0,0,1,3.68-15.64c.86-1.38,1.53-2.93,2.27-4.42.88-1.77,1.16-1.8,2.1,0,.33-.3.67-.57,1-.9,1.35-1.45,1.08-2.88-.49-3.84-2.78-1.7-5.49-3.58-8.23-5.39-2.45-1.62-4.88-3.31-7.37-4.86-.77-.49-1.5-.76-1.54-2.11,0-.33-.91-1-1.1-.87a2.72,2.72,0,0,1-3.08.34c-.21-.1-.55.24-.49.22,0,2.75-.17,5.26,0,7.72.32,3.92.7,7.86,1.38,11.7.73,4.12,1.9,8.12,2.75,12.21,1,4.57,1.8,9.19,2.64,13.8.19,1.06,1.15,2.21-.18,3.5-.35-.56-.72-1-1-1.6q-1.53-2.92-3-5.88a3.27,3.27,0,0,1-.4-1.2,13.39,13.39,0,0,0-2.21-6.71,2.78,2.78,0,0,0-2-1.53,9.1,9.1,0,0,1-3-1.1,10.24,10.24,0,0,0-6.72-1.18,7.64,7.64,0,0,0-2.17.95,5.87,5.87,0,0,1-1.26.66c-.68.13-1.6-1.26-2,.64a26.87,26.87,0,0,1-1,3l-2.93-2.55,1.79-.9-.12-.67-2.72-.37,1.1,2c-1.39-.27-2.94-.28-2.87-2.87H86.28l2.7,3.49-1.53,1,.1.51a8.72,8.72,0,0,1,1-.13,9.49,9.49,0,0,1,2.66,0,7.45,7.45,0,0,1,2.39,1.29c.27.2.36.81.53,1.24a9.31,9.31,0,0,1-.93.5.64.64,0,0,1-.45-.1l-4.22-1.85c-1.32,1.83-1.27,2.12.3,3.94L89,204l1.62-1.51-.27,3c1.61-.92,1.94.13,2.06,1.85.1,1.54,2.87,4,4.56,4.21-.51,2.91,1.64,3.82,2.79,5.52-1,.89-1.18.76-2.34-.42-1.94-2-4-3.79-6-5.67l0,0a10.66,10.66,0,0,0-4.36-5.19c-.93-.59-1.52-2-2.26-3l.43,2c-2-1.29-2.71-3.38-3.31-9.18L84.45,197c-.2,1.5,1.31,4,3.24,4.92-.47-.79-.71-1.21-1-1.63-.57-1-1.18-1.82-.5-3.28a2.09,2.09,0,0,0-.87-2.74c-1.13-.64-2-2.14-3.43-1.65l-.63.36c-1.33,2-1.43-.23-2.2-1.32.28,1.66.71,3.05-.49,3.59a8.4,8.4,0,0,0-1.3-2.23c-.28-.25-1,.3-1.75.56l-1.95-4c3.31-1.08,6.12-2,8.94-2.93,1.06-.35,1.14-1.12.72-2.21q-1.5-3.84-3-7.69a58.22,58.22,0,0,1-2.1-5.81c-.4-1.49-.18-3.24-.56-4.74-1.28-5.06-2.72-10.06-4.08-15.09-.88-3.24-1.52-6.62-2.63-9.74-1.61-4.54-1.71-9.49-2.84-14.14a2.41,2.41,0,0,0-.1-.57,23,23,0,0,1-2.48-6.72A3.28,3.28,0,0,0,63,118c-2.37-.17-3.76-2.33-5.58-3.61a3.87,3.87,0,0,0-1.48-.76c-.19,0-.7.87-.62,1.13a3.28,3.28,0,0,0,1,1.7,3,3,0,0,1,1.32,3.89c-.51,1.72.25,3.22,1.12,4.62a19.47,19.47,0,0,1,1.18,2.7c.23.57.43,1.16.65,1.75,1,2.5,1.56,5.33,2.92,7.41,1.58,2.44,2,5.49,3.38,7.93a33,33,0,0,1,1.52,3.36c1.73,3.89,4.33,7.18,5.15,11.72.18,1,.94,1.87,1.26,2.89a16.55,16.55,0,0,1,.24,2.93c-2.71-2.54-5.12-4.29-5.89-8.21-.3-1.52-1.7-2.7-2.6-4l-.49.31c-.09.59-.16,1.19-.29,1.77-.55,2.42-2,3-3.57,1.53-2.16-2-2.89-5.28-2.47-8.61a43,43,0,0,0-.19-7.07c0-.44-.33-1-.19-1.29,1.4-3-.54-5.2-1.22-7.58-.8-2.82-2.37-5.28-3.36-8-1.25-3.51-2.27-7.16-3.35-10.77a5.78,5.78,0,0,1-.31-2.28,3.13,3.13,0,0,1,.83-1.92c.29-.24,1,.25,1.49.5a38.9,38.9,0,0,1,3.58,2,12.64,12.64,0,0,0,5.9,2.13c1.72.16,2.09-.46,1.7-2.46-.52-2.69-.81-5.47-1.09-8.23-.13-1.23.53-1.57,1.26-.85,1.82,1.78,3.6,3.63,5.34,5.52s3.47,3.9,5.14,5.94c.31.37.28,1.17.41,1.77-.58,0-1.24.1-1.7-.21a9.71,9.71,0,0,1-1.82-1.9,1.68,1.68,0,0,1-.46-.93c0-1.43-.7-2.13-1.68-2A8.08,8.08,0,0,0,67.74,112l.14.63c.37.19.74.36,1.11.56.75.43,1.75.84,1.34,2.14-.14.44-1.16.46-1.85.69.33,1.44.69,3.1,1.07,4.76,1.37,5.84,2.73,11.68,4.13,17.51a4.32,4.32,0,0,0,.75,1.67c.8,1,.76,2,.81,3.33a25.88,25.88,0,0,0,1.08,6Q80,162,83.81,174.64c1,3.39,2.24,6.7,3.47,10A2.26,2.26,0,0,0,88.62,186a62.17,62.17,0,0,0,8,.78c1.62,0,2-.95,1.38-2.87-1.73-5.55-3.5-11.07-5.27-16.6-1.9-6-3.83-11.91-5.71-17.87q-3.3-10.42-6.5-20.87c-.4-1.32-.49-2.79-.85-4.13s-.84-2.43-1.28-3.65a4.37,4.37,0,0,1-.27-.68c-.31-2.21-.59-4.43-.9-6.64-.07-.5-.22-1-.33-1.48-.75-3.54-1.49-7.08-2.34-11.06a14.74,14.74,0,0,1,5.91,3,40.37,40.37,0,0,0,4.13,2.56c.93.5,1.48,0,1.27-1.28-.55-3.3-1-6.63-1.81-9.84a27.26,27.26,0,0,1-.45-11.48c.43-2.45.38-5,.72-7.51a4.87,4.87,0,0,1,1.2-2.47c.22-.23,1.19.33,1.64.79,1.55,1.62,3.37,1.81,5.26,1.84a14.07,14.07,0,0,1,3.25.21c1.52.38,2.14-.58,2.42-2.16a45.78,45.78,0,0,0-.25-17.42,12.85,12.85,0,0,1,.17-4c0-.29.84-.76,1.12-.61,2.24,1.17,2.86,2.64,2.64,5.68a7.67,7.67,0,0,0,.36,1.72c1.09-1.74,2.06-1.74,3.61-.23,1,1,.4,1.85-.16,2.65-1.43,2-2.07-.15-3-1a3.53,3.53,0,0,0-.79,3.32c.27,2,.49,4,.73,6a.84.84,0,0,1,0,.38c-2,4.13,1.8,7.83.59,11.95-.13.42.54,1.31,1,1.86a3.57,3.57,0,0,1,.83,3.62,6.32,6.32,0,0,0,.34,2.71,33.85,33.85,0,0,1,1,4.69c.19,3.14,0,6.32.21,9.45a54,54,0,0,0,1.36,8.44,17.57,17.57,0,0,0,2.13,4.89,3.23,3.23,0,0,1,.41,3.16c-.93,2.5-.76,3.1,1,4.78,4.2,4.13,8.36,8.32,12.59,12.39,2,1.92,4.16,3.58,6.16,5.48,1.06,1,1.59.45,1.79-.77q.71-4.37,1.19-8.79c.34-3.21.59-6.43.8-9.66a29.24,29.24,0,0,0-.19-3.36,2.37,2.37,0,0,1,0-1.07c1.31-2.44.84-4.88.21-7.43a9.22,9.22,0,0,1,.15-2.89,15,15,0,0,1,.39-1.64c-2,1.05-2.33-.59-2.95-2-.79-1.84-2.38-2.71-3.57-2.41-1.6.41-3,1.17-2.87,3.52a14.54,14.54,0,0,0,1,3.6c.86,2.6.64,2.56-1.19,4.23-.68.62-1.72.63-2.43,1.23a6.46,6.46,0,0,0-1.54,2.31,20.33,20.33,0,0,0-.75,3c-2.42-1.74-2.45-5-3.11-7.68-.56-2.33-.69-4.82-1.07-7.23-.17-1-.49-2-.83-3.42L114,105.88a10.5,10.5,0,0,1-.38-1.44c0-.3.19-.62.18-.93,0-1.29-.09-2.57-.14-3.85l-2.72,1.16c.3.1.23.1.2.06-.49-.63-1.23-7.44-.82-8.09a8.29,8.29,0,0,1,1.3-1.28c-.52-.35-.88-.62-1.25-.82-1.28-.68-1.42-1.39-.35-2.48s2.12-2.38,1.34-4.4c1.76-.88,2.34-.56,2.89,1.42a3.76,3.76,0,0,0,.66,1.72c1.33,1.16,1.33,2.75,1.2,4.48L112.54,90l-.33.33c.44.77.87,1.54,1.31,2.3.21.36.6.64.66,1,.35,2,.59,4,.94,6.06.28,1.6.61,3.2,1,4.77.45,1.82,1.5,1,2.8.23-.74,2.55.41,3.46,1.46,4.57.42.44.43,1.45.65,2.19a2.61,2.61,0,0,0,.44,1.11.7.7,0,0,0,.79-.16,2,2,0,0,0,0-1.24c-1.25-3-2.51-6.08-3.84-9.06-.2-.47-.85-.59-1.18-1s-1.12-1.37-1-1.79a14,14,0,0,0,.28-5.87c0-.18.9-.8,1-.74a11.67,11.67,0,0,1,1.43,2.63,8,8,0,0,1,1.26,1.52c.59,1.2,1,2.56,1.62,3.73a1.77,1.77,0,0,0,1.35.66c.13,0,.3-.89.47-1.36.33-.91.66-1.8,1.14-3.09.76,1.22,1.25,2.11,1.83,2.9a4.58,4.58,0,0,0,1.07.83A8.38,8.38,0,0,0,128,99a11.8,11.8,0,0,0,0-2.59c-.18-1.1-.54-2.15-.91-3.57l-1.18,1.25c-1,1.08-1.74.79-2.23-.74C123,91.21,122.25,89,121.35,87c-.53-1.21-1-2.48-2.63-2.56-.72,0-1.51-1.91-2-3.12-.61-1.43-.79-3.19-2.42-4.17l.34,1.78c-.18,0-.4,0-.45-.09a9.28,9.28,0,0,1-.66-1.47c-1-3.14-2.72-5.31-5.45-6.12-.44-.12-.79-.72-1.17-1.11.5-.65.92-1.62,1.53-1.84.46-.18,1.25.45,1.72,1a3.15,3.15,0,0,0,3.08,1.33,10.71,10.71,0,0,1,3.07.22c.82.09,1.7.54,2.46.31,2-.6,3.22.63,4.11,2.54,1.93,4.1,5.09,6.51,7.93,9.4,1.43,1.46,2.78,3,4.13,4.63,1.14,1.34,2.23,2.76,3.7,4.6,1.06-3.1,2-5.57,2.75-8.16,1.44-5.33,2.76-10.71,4-16.1.84-3.51,1.46-7.1,2.29-10.61a28.46,28.46,0,0,1,1.54-4.62c.5-1.18,1.39-1.32,2-.18.76,1.45,1.3,3.07,1.95,4.61,1.06,2.5,2.14,5,3.2,7.49.51,1.19,1,2.43,1.5,3.59s1.11,1.06,1.69,0c1.44-2.53,2.89-5,4.3-7.61a4.08,4.08,0,0,0,.22-1.31c.33-2.4,3.15-5.81,5.07-6a1.38,1.38,0,0,1,1.22.59c.86,2,1.64,4.11,2.37,6.22a2.9,2.9,0,0,1,0,1.7c-.87,2.32,0,4.46.39,6.62.17.87.66,1.32,1.34.34,1.73-2.5,3.54-4.9,5.23-7.44a33,33,0,0,0,1.92-3.75c.19-.38.25-.86.44-1.24,1.49-2.81,3.67-3.73,5.45-.06a16.09,16.09,0,0,1,1.07,4c.51,2.75.73,5.53,2.91,7.4.68.6.91,2.39,1,3.67.13,2.51,1.27,4.41,2.06,6.56.93,2.55,1.45,5.34,2.17,8,.23.86.53,1.69.79,2.53.92,3,3.16,3.82,5.33,2,3.1-2.57,6.31-4.94,9.33-7.65a12.1,12.1,0,0,0,2.49-4.08c1.36-3.09,3.72-3.86,5.61-1.53a4.11,4.11,0,0,1,.66,2.2c.07,1.48-.06,3-.09,4.47s.67,2,1.61,1.35a19.6,19.6,0,0,0,3.07-2.6c2.27-2.26,4.5-4.59,6.73-6.91q2.55-2.66,5-5.35c.87-.94,2.53-.33,2.8,1.25a26.79,26.79,0,0,1,.07,3.81c0,1.21,0,2.42.09,3.62.09,1.51.26,3,.37,4.52.05.58,0,1.17,0,1.75.11,1.45.66,1.76,1.63.87.8-.73,1.48-1.66,2.31-2.32a38.44,38.44,0,0,1,3.37-2.11,15.27,15.27,0,0,1,0,3c-.84,3.57-.63,7.44-2.14,10.86-.49,1.1,0,2.82-.25,4.17-.61,3.14-1.43,6.22-2.08,9.35a10.74,10.74,0,0,0,0,2.33c.59-.28,1.2-.49,1.77-.83,1.2-.73,2.36-1.61,3.59-2.25a1.54,1.54,0,0,1,1.46.25,15.11,15.11,0,0,1,2.19,2.19,4.66,4.66,0,0,1,.78,4.79,31.61,31.61,0,0,0-1.06,3.84c-.5,2.54-2.1,3.59-4,2.44-1.34-.82-2.61-1.85-4-2.61-2.16-1.21-2.7-.57-3.84,1.91-1.35,3-1.51,6.15-1.91,9.31a40.8,40.8,0,0,0-.19,6.16c.07,2.11,1.74,3.07,3.13,1.84,3.49-3.11,6.94-6.29,10.43-9.41a4.23,4.23,0,0,1,1.39-.8c2.53-.87,5.08-1.67,7.61-2.53,2.7-.91,5.39-1.9,8.09-2.8,3.21-1.06,6.44-2,9.64-3.11a28,28,0,0,0,2.81-1.57,3.79,3.79,0,0,1,2-.61,12.85,12.85,0,0,1,3.53,1.21c.31.15.58,1.14.5,1.63a53.64,53.64,0,0,1-1.26,5.4,27.66,27.66,0,0,1-1.31,3,6.61,6.61,0,0,0-.93,2.37,26.29,26.29,0,0,1-2.15,9.57c-1.43,3.73-3,7.37-4.45,11.1a7.15,7.15,0,0,0-.24,3.07c2.4-2.69,2.58-7,4.82-10a4.67,4.67,0,0,1,.46,1.07c.45,2.8,1.38,3.74,3.76,3.71,2.07,0,3,2,2.08,4.37a11.29,11.29,0,0,0-.88,3.86c0,.81.78,1.64,1.25,2.43s1,1.62,1.56,2.43c-.73.63-1.4,1.66-2.19,1.81-4.3.87-8.63,1.53-13,2.26a.94.94,0,0,1-.62,0c-2.21-1.34-3.09.8-3.93,2.52-2.91,6-5.58,12.15-8.61,18-2.32,4.52-5,8.74-7.59,13.08q-2.26,3.81-4.61,7.53c-.67,1.07-1.47,2-2.21,3l-.53-.51c.65-1.55,1.29-3.11,2-4.64,2.19-4.92,4.38-9.83,6.61-14.71.79-1.72,1.76-3.31,2.5-5.05a39.64,39.64,0,0,0,1.42-4.44,20.85,20.85,0,0,0,1-4.15c.4-5.3,3.82-8.87,5-13.74.34-1.43.43-2.48-.56-3.51l-1.77.8a7.83,7.83,0,0,1-.1-2.2c.62-2,1.39-3.87,2-5.82a12.9,12.9,0,0,0,.81-3c.21-2.38.33-4.73,2.73-6l-1.28-.52c.46-1.27-.44-4.46-1.42-4.94a1.12,1.12,0,0,0-1.07.34c-.65.65-1.15,1.55-1.83,2.12-.49.41-1.28.81-1.74.58a2.74,2.74,0,0,1-1-1.91c-.08-1,.3-2,.32-3.05a3.69,3.69,0,0,0-.4-2.09c-.25-.32-1.11-.21-1.55.07-4.05,2.58-8,5.31-12.1,7.87-2.17,1.37-4.44,2.49-6.67,3.71-1,.57-2.06,1.16-3.13,1.63a1.22,1.22,0,0,1-1.19,0c-1.26-1.22-1.72-.24-2.12,1.07-2.5,8.25-5,16.49-7.5,24.75-1.48,4.92-2.94,9.85-4.3,14.82a3.31,3.31,0,0,0,.31,2.39c1.38,1.65,2.93,3.08,4.42,4.59l-.43.59,0-.87c2.14,2.58,2.34,3.87,1.13,7.31-1.23-.86-1.59-.53-1.82,2l-.61-1.47L223,206l-.14-.4a18.43,18.43,0,0,0-1.56,1.24,2.31,2.31,0,0,0-.46,1c-.28,1-.3,1.78-1.39,2.46-1.49.93-2.54,3-3.79,4.52-.58.72-1.21,1.38-1.81,2.09-2.43,2.9-4.92,5.74-7.28,8.74-3.59,4.58-7.14,9.21-10.58,14a68.92,68.92,0,0,0-3.53,6.13,4.79,4.79,0,0,1-1.43,1.57c4.61-11.1,11.32-20.25,17.74-29.61a4.18,4.18,0,0,1,.06-5c.61-.92.54-2.66.57-4,0-1.14.09-1.9,1.07-2.46a4.34,4.34,0,0,0,1.5-2.11,2.08,2.08,0,0,0-.4-1.69c-1.13-.68-2-1.28-1.27-3.13.12-.3-.15-.84-.24-1.25-3.46.39-5.49-2.92-7.08-5.89a26.12,26.12,0,0,0-2.49-4c-.7-.89-1.17-1.5,0-2.08a17.42,17.42,0,0,1,3.82-1.45c4.13-.88,8.17-.68,12,1.84,1.23.81,1.84.23,1.89-1.54a9.63,9.63,0,0,0-.87-5.37c-.48-.83-.25-2.46-.05-3.65.31-1.84.66-3.44-.9-4.78a2.45,2.45,0,0,1-.13-3.29c.77-1.18.44-2-.29-3a61,61,0,0,1-4-6.4c-1-1.83-.22-3.79.39-5.56.42-1.2,1-2.2.37-3.62a4.53,4.53,0,0,1,.15-2.25c.43-2.06.87-4.12,1.43-6.13.45-1.61,1.08-3.14,1.63-4.7l-.39-.31a15.65,15.65,0,0,0-1.43,2.56c-.49,1.43-1.06,1.59-2,.67-.35-.35-.92-.43-1.2-.83-.87-1.26-1.78-1.75-3.17-.36l-1.39-3.9c-2.14-.1-3.87,1-5.17,3.42A7.09,7.09,0,0,1,199,139.5c-.24.18-.67,0-1-.06a3.55,3.55,0,0,1,.18-1.19c2.25-3.64,4.39-7.39,6.83-10.82,4.08-5.74,8.31-11.31,12.56-16.85,1-1.34.92-2.73.82-4.88-1.72,1.18-3.27,2.06-4.67,3.23-2.59,2.15-5,4.58-7.62,6.68-2.33,1.89-5,3.21-7.18,5.27-4.27,4-8.33,8.34-12.5,12.5a4.82,4.82,0,0,0-1.2,4.52q3,18.6,6.07,37.2c.77,4.64,1.67,9.24,2.43,13.88a22.08,22.08,0,0,1,.14,4.07,4.84,4.84,0,0,1-.62,1.55,5.1,5.1,0,0,1-.88-1.19c-.89-2.28-1.53-4.73-2.61-6.85-2.31-4.54-4.54-9.13-8.06-12.61-1.67-1.65-2.65-4.41-3.94-6.67a8.25,8.25,0,0,0-.76-1.45c-1.75-2-2-4.74-2.47-7.28-.54-2.73-.52-5.62-1-8.39a14.73,14.73,0,0,0-1.36-3.22c-.2-.5-.55-1.21-.41-1.58,1.55-4.09-.74-7.44-1.38-11.08a3.33,3.33,0,0,1,.12-2.64c.6-1,.26-2.28.13-3.59-.23-2.23-1.46-4.75.36-7,.93-1.15.32-4.68-1-5.46-.08.68-.16,1.27-.21,1.87a13.08,13.08,0,0,1-.18,1.68c-.38-2.39-.4-4.7.94-6.84l-1.33.71a1.21,1.21,0,0,0-.52,1.95,1.84,1.84,0,0,1-.34,2.64,1.68,1.68,0,0,0-.63,1.06c.18,2.27-.95,3.76-1.8,5.5-.48,1-.31,2.45-.72,3.71l-.36-1.08c-.16,1.41-.51,2.24-1.76,2.33-.57,0-1.2,1.08-1.61,1.82-2.69,5-2.61,4.92-.06,10,1.12,2.22,1.95,4.67,2.86,7a5.7,5.7,0,0,1,0,1.6c-.49-.37-.86-.49-1-.79-1.28-2.27-3.23-4-3.55-7.09a3,3,0,0,0-1.61-1.88,3.71,3.71,0,0,1-1.94-3.88,3.79,3.79,0,0,0-.16-1.5c-.91-2.56-1.74-5.18-2.84-7.61-1-2.16-2.32-4.08-3.43-6.15s-2-3.94-3-5.92c-.1-.22-.14-.55-.29-.67-1-.8-1.94-1.55-3-2.4a9.59,9.59,0,0,1,.24,1.9c0,.42-.35,1.17-.52,1.16-1.14-.08-1,1-1.21,1.82-.67,3.3-1.37,6.59-2,9.89-.4,2-.77,4-1.14,6-.48,2.57-1,5.12-1.41,7.7-.31,1.94-.21,4-.77,5.84-1.19,3.79-.39,7.67-.73,11.48a49.54,49.54,0,0,1-1,7.26c-.42,1.76,0,3,.9,4.82l3.79-24.23c2.64,2.48,5.28,4.92,7.88,7.42,1.31,1.26,2.2,3.28,4.15,3.34.19,0,.4.34.57.57,2,2.67,4,5.36,5.95,8s4.17,5.41,6.21,8.16c1.35,1.82,2.4,1.58,3.36-.61a35,35,0,0,1,3-5.51c.5-.73,1.56-.88,2.47-1.34,3.15,2.52,5.82,5.62,6.55,10.38L178,177c-1-1.75-2-3.45-2.81-5.3-.15-.32.38-1.22-.49-1a2.22,2.22,0,0,0-.23,1.46c1.65,1.8,1.78,4.4,2.41,6.73l-2.18-1.77.29-.44c.72,2.29,1.45,4.57,2.28,7.18.14-1.55.33-2.64.31-3.73,0-.42-.51-.83-.78-1.24-.16-1.17.6-1.45,1.17-1.93l.77.69c-.22,1.58-.38,2.79-.53,3.88.84-.09,1.82-.51,2.07-.14.4.57.28,1.68.43,2.55.08.48.29.92.36,1.41.12.71.17,1.44.25,2.18.74-.18,5.32,2.51,5.78,3.93.69,2.17,2.33,4.19,1.09,7.42l-.82-2.14-1.08,1.13-2.42-6-2.79,2-.26-1c-.08,1.64-.14,2.92-.22,4.51l-1.22-1.67-1.8,7.59-.5-1.1V207l-.25.07-.27-2.16-.24-.08c-.51,2.2-1.05,4.39-1.5,6.6-.24,1.24,0,3.2-.54,3.67-1.2,1-.54,2.28-.91,3.34s-.26,2.37-.59,3.46c-.74,2.36-1.57,4.68-2.47,6.95a23.08,23.08,0,0,0-2.11,8.14,2.16,2.16,0,0,1-.35,1.24c-2.23,2.32-1.84,6-2.88,8.87a3.46,3.46,0,0,0,.36,2c.53,1.27.35,2.15-.72,2.62a2.91,2.91,0,0,0-1.76,2.67,5.49,5.49,0,0,1-1,1.87c-.43.75-.88,1.47-1.63,2.71a24.91,24.91,0,0,0,2.79,0c3.46-.48,6.91-1.06,10.37-1.49a38,38,0,0,1,4.77-.2c.37,0,.73.34,1.2,1a9.61,9.61,0,0,1-2.26,1.3c-8.07,1.94-16.15,3.86-24.24,5.65-2,.44-4.11.36-6.16.62-.79.1-1.54.58-2.33.74a9.51,9.51,0,0,1-1.85,0v-.57h1.54l0-.5a8.78,8.78,0,0,0-1.76-.15c-1.18.11-2.35.4-3.52.48-.91.07-1.91-.41-2.54.9,0,.07-.36-.1-.56-.14a25.4,25.4,0,0,0-5.61-.81l2,1-.13.46-3.26-1.23L127,267.56l-.68-1.55a18.5,18.5,0,0,0-2.1,1.86,2.62,2.62,0,0,0,.72,1.51,32.63,32.63,0,0,0,4.36,1.86c.79.27,1.66.21,2.46.45.37.11.67.59,1,.91-.35.41-.67,1.13-1.05,1.19a16.26,16.26,0,0,1-3.12,0c-8.2-.2-16.23-2.17-24.31-3.58-5.67-1-11.33-2.09-17-3.17-4.23-.81-8.46-1.68-12.69-2.49-1.79-.35-3.7-.29-5.37-1.06a11,11,0,0,0-4.27-.68,19.32,19.32,0,0,0-2.74.2l.75-2.4c-1.07.75-2,1.59-2.79,0,3-.87,3.5-4.28,5.46-6.86-4.27-1.85-8.15-3.51-12-5.23-1.54-.68-3-1.56-4.58-2.22a12.69,12.69,0,0,0-3.18-.93c-1.26-.16-1.66-1-1.75-2.42-.15-2.6-1.68-3.49-3.64-2.66-.79.33-1.94-.31-2.81-.8-.34-.18-.38-1.2-.53-1.84a3.94,3.94,0,0,1,0-.77c-.11-2.27.16-2.55,1.88-2a6.55,6.55,0,0,0,.91.13c-.5-.76-.8-1.22-1.09-1.69,1.61-3.7,1.61-3.72-1.15-6.41L37,228.33a8.23,8.23,0,0,1-.83,1.71c-.59.72-.88,1.19,0,2a2.47,2.47,0,0,1,.39,1.79A12.8,12.8,0,0,1,35.37,237a1.18,1.18,0,0,1-1.27.32c-2.48-1.26-5-2.54-7.37-4-1.32-.8-2.36-2-4.1-1.28-.71.29-1.8-.86-2.72-1.36a13.17,13.17,0,0,1,2.14-1.53c1.75-.76,3.54-1.4,5.33-2a89.16,89.16,0,0,0,9.05-3.19c2.72-1.3,5.89-1.4,8.07-4.32a1.16,1.16,0,0,1,1-.45c4.91.75,8.76-2.54,12.77-5.19.36-.24.72-.62,1.1-.68,1.56-.25,3.13-.39,4.7-.6,2.31-.32,4.62-.67,6.93-1,1.2-.17,2.32-.5,2.42-2.38.08-1.43-1.1-3.48-2.34-3.76-3.44-.76-5.4-3.8-7.32-7-.9-1.5-2-2.83-2.94-4.28-2.29-3.46-5-6.66-6.72-10.5-1.24-2.71-3.6-3.68-4.69-6.25-.52-1.23-.87-2.57-1.3-3.86-.35-1-.71-2.1-1.18-3.5a5.13,5.13,0,0,1,1.58.33c1.95,1.13,3.16,3.13,4.42,5.28,2.44,4.16,5.22,8,7.89,11.95q2.56,3.81,5.21,7.55c2.36,3.32,4.77,6.59,7.16,9.87.1.15.27.25.32.42,1.56,4.74,5.21,5.17,8.46,6.44a12.28,12.28,0,0,1,1.32.78A8.12,8.12,0,0,1,79,215.26c-.31.07-.7-.11-.92.06-2.21,1.75-4.65,1.31-7.08,1.49-1.23.09-2.41,1.47-3.6,2.29a10.17,10.17,0,0,1-1.87,1.39,4.26,4.26,0,0,1-2.16.06c-.93-.15-1.91-.88-2.75-.66a34.23,34.23,0,0,0-4.7,2,19.52,19.52,0,0,1-3.09,1.2c-1.32.32-2.68.36-4,.64-1.73.38-2,1.21-.84,3.09l-.68.7a25.56,25.56,0,0,1-.54,4.14c-.24.8-.51.54-1-.23a19.71,19.71,0,0,0-2.48-3.14c-.2-.21-1,0-1.2.37a2,2,0,0,0,0,1.55,8,8,0,0,0,4,3.83c1.74.64,2.43-1.11,3.55-2a22.11,22.11,0,0,1,4.3-2.44c.17-.08.83.65.86,1a6.18,6.18,0,0,1-.42,2.1c-.07.21-.46.35-.7.36a11.75,11.75,0,0,0-5.9,2.08A14.91,14.91,0,0,0,46,236.72c.23.37.46,1.05.69,1.05.76,0,2,.08,2.21-.39a2.38,2.38,0,0,1,3.15-1.78,3.93,3.93,0,0,1,3,2.83,9.1,9.1,0,0,0,1,1.77c.75,1.18,1.52,1.29,2.52.3a4.9,4.9,0,0,1,1.91-.77c.07.62.12,1.24.22,1.84.07.35.16.88.35,1,1.68.8,2.16,2.88,3.07,4.47s1.84,1.92,2.88.29c.53-.83,1-.92,1.49-.1.69,1.13,1.26.67,1.92-.09a45,45,0,0,1,15.1-11.41c2.55-1.17,5.36-1.52,7.89-2.77s5.32-1.47,8-1.86c1.75-.26,2.35-2.25,1.27-4-.54-.9-1-1.84-1.6-2.82,1.08-.91,1.84-.62,2.41.27,1.45,2.25,3,4.26,5.25,5.33a2.88,2.88,0,0,1,1,1.37c.59,1.33.18,2.09-1,2.15-2.94.14-6-.19-8.8.58-3.34.9-6.52,2.75-9.75,4.23-.73.33-1.41.84-2.12,1.25a37.39,37.39,0,0,0-4.3,2.55,29.54,29.54,0,0,0-3.19,3.44l1.73-.18c-.83,2.65-.33,3.83,1.76,4.35.9,1.64,2.09,1.22,3.4.95C86.39,248.33,85.61,248.17,84,249.63Zm22.94-95.24a5,5,0,0,1-.78,1.43c-1.15,1-1.07,1.86-.15,2.94a8.35,8.35,0,0,1,.67,1.36c.1-2.19.18-4,.25-5.74,1.33-.83,2.59-2.21,4.17-.5.25.27,1-.06,1.42-.25a1.38,1.38,0,0,0,.07-1c-.89-1.3-1.81-2.59-2.79-3.79-1.45-1.8-3-3.53-4.68-5.57-.11.24-.66,1-.55,1.2.91,1.93.82,3.51-.85,4.64.79,1.69,1.84.47,2.7.67a16,16,0,0,1,2.85,1.29l-1.3,1.44c-.85-.37-1.5-.92-2-.8-.34.08-.53,1.18-.79,1.82Zm-12.2-14.21a4.36,4.36,0,0,1,1.76-.33A3,3,0,0,1,98.34,141c.23.36-.06,1.49-.36,2.09-.56,1.12-1.63,2-1.86,3.17-.29,1.49-.73,2.26-1.89,2.64a2,2,0,0,0-.68,3.25,22.15,22.15,0,0,0,2.78,2.46c.87.67,1.46.32,1.36-1a21.38,21.38,0,0,0-.61-3.38A2.55,2.55,0,0,1,98.46,147c.6-.24,1.47.58,2.22.93l-.1.24h2.24a6.8,6.8,0,0,0-1.74-4.48A8.46,8.46,0,0,1,99.4,141a2.73,2.73,0,0,1,.5-1.82c.12-.18.95.05,1.19.38a11.55,11.55,0,0,1,.9,2.11,8,8,0,0,0,.7,1.37c.07.1.65-.13.65-.24a5.94,5.94,0,0,0-.09-1.79,8.61,8.61,0,0,0-.61-1.51l2.4-.17c-.26-.85-.33-2.09-.82-2.46-1.23-.92-2,.3-2.43,1.11H98.17c-.55,0-1.52.15-1.57-.06-.37-1.42-1.87-2.39-1.15-4.7.49.7.78,1.17,1.12,1.58s.81.83,1.21,1.24l.75-1.35c-.93-1.14-1.61-2-2.28-2.79-.18-.22-.35-.47-.54-.69-.8-.91-1.62-1.78-2.39-2.71s-1.09-1.59-.08-2.57c.23-.23.07-1.06.09-1.61-.47,0-1-.18-1.41,0s-.31.88-.51,1.31-.56,1-.85,1.52c-.26-.7-.88-1.69-.7-2.05a6.41,6.41,0,0,1,2-2.33c.69-.47,1.72-.25,2.37-.77.46-.37.53-1.48.78-2.26-.49-.15-1-.53-1.47-.42-1.18.26-1.53-.31-1.7-1.94a8.25,8.25,0,0,0-1.3-3.3c-.15-.24-1.17.36-1.89.61,0,0-.11-.11-.22-.24l-1.25-1.31a14.68,14.68,0,0,0-.61,2.41c-.06.61.35,1.29.27,1.88A4.93,4.93,0,0,1,86,119c-.46-.42-1.37-.93-1.33-1.25.32-2.45-1-2.57-2.18-2.71a11.71,11.71,0,0,1-.41,2.15c-.53,1.36-.18,2.55,1,2.94.85.28,1.73.42,2.56.77s1.1.93.38,1.88-1.25,1.88-1.64,2.48a16.57,16.57,0,0,1,2.23,3.19c.89,2.37,1.61,4.86,2.28,7.35.57,2.11,1,4.29,1.45,6.45.21,1.05.68,2.15-.38,3.06a2.57,2.57,0,0,0,.23,1.71,11.56,11.56,0,0,0,1.62,1.83A10.22,10.22,0,0,0,94.73,140.18ZM186,127.32a7.23,7.23,0,0,0,1.86-1c1.79-1.84,3.55-3.72,5.25-5.69a34.48,34.48,0,0,0,3.82-5,6.12,6.12,0,0,0,.21-3.39,30.8,30.8,0,0,0-1-3.73c-.57-2.11-1.08-4.25-1.7-6.33-.1-.33-.77-.76-.94-.64a10.36,10.36,0,0,0-3,2.56,12.31,12.31,0,0,0-1.05,4c0,.26.32.75.59,1a2.31,2.31,0,0,1,.53,2.83c-1.44-.16-2.3-.66-2-2.78a8.75,8.75,0,0,0-.59-2.86l-.53.12c-.29,1.94-.64,3.87-.83,5.82a17.45,17.45,0,0,0,.13,3.14,41.1,41.1,0,0,1,.48,5.6A51.61,51.61,0,0,1,186,127.32ZM219.24,89l-.35-.67c-1.56.14-3.37-.32-4.64.52-4.39,2.88-8.73,5.92-11.91,11-1.63,2.57-1.86,7.14,0,9.39a1.6,1.6,0,0,0,1.81.24,15.64,15.64,0,0,0,3.07-2.92c2.69-3.32,5.39-6.63,7.89-10.18A82.28,82.28,0,0,0,219.24,89ZM147.7,99.23c-.49,0-.66,0-.79,0-1,.5-2,1-3,1.53.31.74.61,1.48.91,2.23a6.53,6.53,0,0,0,.74,1.88c.58.68,1.37,1.56,2.05,1.54,1,0,.89-1.26.77-2.3a8,8,0,0,1,.59-5c.54-1,.9-3.47.63-3.66-1.31-.89-.95-2.33-1.17-3.55-.33-1.77-.45-3.49,1.38-3.75l-1-3.06a15.61,15.61,0,0,0,2.89-1.68,8.4,8.4,0,0,0,1.21-2.25,7.53,7.53,0,0,0-2.13-1.05c-.59-.08-1.22.43-1.83.68-.6-2.62-.6-2.62,1.78-4.47l3,3c.89-2,.73-2.52-1-3.28-.14-1,0-2.49-.46-2.88-.9-.76-2.14-.92-3.45-1.41.33,2.76-1,2.5-2.57,2-.27,3.36-.54,6.59-.8,9.82-.11,1.41-.2,2.82-.32,4.46.15,1.42.32,3.13.49,4.8-3.34,1.14-3.68,1.75-2.93,4.72,1-1.35,3.27.31,3.58-3.06C146.82,96.47,147.22,97.74,147.7,99.23Zm-38.55,42.83c.43,1.8.71,3.41,1.21,4.89.13.39,1.14.78,1.42.55,1.14-1,1.71-.46,2.1.9.66,2.24,1.21,4.56,3.35,5.38.15.06.25.4.36.62,2.11,4.25,4.87,7.51,8.82,8.92.4.15,1.2.16,1.24,0,.16-.69.39-1.8.12-2.12-1.13-1.3-.53-2.26.15-3.34.79-1.26.61-2.13-.59-2.9-2.64-1.69-6.08-1.27-8.08-4.69,0-.08-.18-.09-.28-.14-2.43-1-2.86-2.35-1.87-5.28a4,4,0,0,0,0-1.9c-.15-.73-.5-1.4-.71-2.12s-2.62-2.2-3.17-1.9a.86.86,0,0,0-.42.52c-.18,2.12-1.27,2.38-2.67,2.19C109.77,141.61,109.42,141.93,109.15,142.06Zm-1.39,30.67s-.09,0-.16.07c-.6.57-1.09,1.92-2,.51s-.15-2,.74-2.7a3,3,0,0,0,1-2.09,21.73,21.73,0,0,0-1.61-4.29c-.16-.37-.68-.79-1-.72a31.72,31.72,0,0,0-3.15,1.07c.2.59.24,1,.44,1.25,1.84,1.81,1.46,3.77.55,6a5.78,5.78,0,0,0,0,3.3c.89,3.15,1.93,6.24,3,9.28a3.12,3.12,0,0,0,1.52,1.83,4.22,4.22,0,0,0,2.82-.21c.25-.11.24-1.77.07-2.64C109.35,179.88,108.55,176.38,107.76,172.73Zm29.6,34.32.49,0c.23-1,.51-2,.66-3.1a30.36,30.36,0,0,1,.49-4.24c1-3.28,2.1-6.46,1.3-10.08,0-.1.17-.28.26-.41l3,2.47c-.91-3.63-1.66-6.63-2.44-9.6-.08-.31-.46-.75-.66-.72-1,.16-2.34,0-3,.79-1,1.15-2.68,2-2.17,4.66.59,3,.83,6.11,1.14,9.19C136.79,199.7,137.06,203.38,137.36,207.05Zm-41.6-81.46c1,.59,2.18.83,2.62,1.67.57,1.08.53,2.66.82,4,.15.73.41,2,.64,2a3.24,3.24,0,0,0,2-.83,2.21,2.21,0,0,0,.5-1.72,2.17,2.17,0,0,1,.76-2.59c.39-.35.5-1.17.74-1.78-.59-.33-1.28-1.07-1.76-.89-.68.24-1.2,1.16-1.93,1.93-.82-1.36-2.8-1.77-2.23-4.44,0-.21-.71-1-1-.94a1.86,1.86,0,0,0-1.12,1.18A10.82,10.82,0,0,0,95.76,125.59Zm14.54,10.15c-.23-1-.55-2.41-.92-3.79-.07-.24-.38-.4-.6-.55a7.27,7.27,0,0,0-2.25-1.49,9,9,0,0,0-2.87.35,10.09,10.09,0,0,0,1,2.23c.64.83,1.3,1.46.82,2.79a5.63,5.63,0,0,0-.06,1.6,5.79,5.79,0,0,0,1.61,0C108.09,136.59,109.14,136.15,110.3,135.74Zm-8,122.86,0-.6h-6L96,256.35c-1.53-.25-2.26.66-2.59,2.27C94.78,260,101.1,259.91,102.32,258.6Zm48.15-144.22c0-4,.16-5.4-2.21-4.89a29.74,29.74,0,0,0-.08,3.65,2.32,2.32,0,0,0,.93,1.49C149.39,114.83,149.92,114.5,150.47,114.38ZM73.24,251.56l.25.51,5.13-2.62-.17-.52-2.4,1-.17-.43,1.31-2-4.63,2.71,2.09-.51.11.34ZM83.33,112.92l.55-.81c-.83-.92-1.65-1.86-2.52-2.74-.11-.12-.54,0-.66.19a1.09,1.09,0,0,0,0,.85C81.54,111.28,82.44,112.09,83.33,112.92Zm19.54,43.43c-.68-.49-1.09-.95-1.55-1-.18,0-.72.82-.65,1.11a7.84,7.84,0,0,0,.9,1.84ZM78.41,252l-.22-.83-3.89,1.82.17.62Z"/><path class="cls-1" d="M65.35,299.77a11.06,11.06,0,0,1-.69,1.58,6.3,6.3,0,0,1-1.42,1.9c-1.47,1-1.85.53-1.79-1.56.17-5.93,2.49-10.55,5.57-14.8a14.49,14.49,0,0,0,2.08-4.29,3.07,3.07,0,0,0-.91-2.42c-.85-.63-2-.61-3-1-.47-.21-.85-.78-1.27-1.19.33-.43.6-1.1,1-1.26a5.78,5.78,0,0,1,2.79-.62c3.26.48,5.4-1.57,7.29-4.49,1.41-2.18,2.84-4.31,4.14-6.61,1.12-2,3-3.31,3.75-5.92.23-.79,1.81-1,2.77-1.41a19.48,19.48,0,0,1-.91,3.09c-.73,1.46-1.68,2.74-2.46,4.16-1,1.75-1.89,3.53-2.75,5.35-.65,1.35.84,4.12,2.11,4.63A9.79,9.79,0,0,1,85,277.21c.32.33.05,1.65-.1,2.48a1.77,1.77,0,0,1-.75.94c-2.06,1.44-3,3.79-3.5,6.51a3.09,3.09,0,0,0,.12,1.63c.07.19.71.15,1.06,0,2.16-.72,4.31-1.5,6.47-2.22.44-.15,1,0,1.37-.28,2.39-1.36,4.76-2.77,7.12-4.19,1.26-.76,2.52-1.52,3.75-2.36,2.13-1.45,4.3-2.82,6.33-4.47s4-1.58,6.28.36c1.75-6.26,3.45-12.37,5.19-18.58.63,2,1.09,4,.45,6.05a2.82,2.82,0,0,0-.15,1.52c1.49,4-.8,7.75-.3,11.66,0,.32-.36.72-.53,1.1a5.47,5.47,0,0,0-.65,1.69,5.1,5.1,0,0,0,.4,1.64c.25-.46.52-.9.75-1.37a2.88,2.88,0,0,0,.15-.64c.34-.06.68-.16,1-.19.93-.1,1.4-.47,1.25-1.85-.23-2,.76-2.84,2.3-2.27a25,25,0,0,0,3.93,1.1c.3.05.77-.57,1-1,.75-1.43,1.59-2.43,3.11-2.45.69,0,1.35-.75,2.06-1a8.07,8.07,0,0,1,1.7-.3,7.69,7.69,0,0,1,.16,2.05,15.85,15.85,0,0,1-1.24,2.73c1-.26,1.63-.24,2.1-.61a19.35,19.35,0,0,0,2.8-2.78c.62-.74,1.12-1.43,2-.66a2.14,2.14,0,0,1,.71,2.79,3,3,0,0,0-.05.81h2.27c.56,0,1.21-.17,1.67.11,1.13.69,2.13,1.34,2.92-.56a.68.68,0,0,1,.71-.21c2.44,1,5.27-.17,7.53,2,.3.3,1,0,1.48,0a19.37,19.37,0,0,0,3-.57,4.15,4.15,0,0,0,1.49-1.1c.43-.43.74-1.36,1.17-1.44,2.27-.4,4.57-.6,6.86-.87l.22.66a8.58,8.58,0,0,1-.91,1.37c-2.48,2.45-5,4.87-7.47,7.28-6.33,6.11-12.64,12.24-19,18.32-6,5.72-11.95,11.43-18,17.06-1.23,1.15-2.77,1.78-4,2.9s-2.59,1.44-3.21,3.25c-.15.43-.82.53-1.19.87a13.85,13.85,0,0,0-2.74,3.27,9.08,9.08,0,0,1,2.54-.1c1.68.39,1.93,2.32,2,3.9.27,4.84.3,9.7.51,14.55.08,2,.36,4.08.59,6.11.28,2.52.64,5,.91,7.55a5.31,5.31,0,0,1-.13,1.73c-.27,1.25-.56,2.92-1.78,2.71-.58-.1-1.2-1.74-1.43-2.8-.57-2.64-2.1-3.52-3.8-1.76-2,2.07-3.89,2.21-6.17.68-.9-.61-2.23-.43-3.34-.31-1.91.2-3.79.74-5.69,1-1.45.16-3-.14-3.67-1.91a5.81,5.81,0,0,1,.55-5.3,20,20,0,0,0,1.41-3.84c.43-1.24.91-2.46,1.24-3.74a3.21,3.21,0,0,0,0-2,1.64,1.64,0,0,0-1.42-.57c-1.24.07-1.84-.59-1.46-2.06a16.9,16.9,0,0,1,1.48-3.84c1.09-2,2.32-3.8,3.56-5.64,1.58-2.35,3.84-2.94,6.11-1.67,2.72,1.51,5.74-.22,6.14-3.85a42.19,42.19,0,0,0-.29-6.52c-.24-4.71-.63-9.41-.66-14.12,0-4,.42-8,.59-12,.12-2.92-.37-3.23-2.62-2.38-3.28,1.25-6.62,2.27-9.91,3.47a11.85,11.85,0,0,0-2,1.31,4.69,4.69,0,0,1-1.09.68c-3.67,1.16-7.34,2.33-11,3.39-2.3.66-4.63,1.15-6.94,1.7a.69.69,0,0,1-.47,0,4.75,4.75,0,0,0-5,0c-.52.32-1.5-.24-2.18-.64a1.71,1.71,0,0,0-2.43.29,14.59,14.59,0,0,1-1.82,1.42Zm12.39-19.86a3.19,3.19,0,0,0,3.48-1.85c.19-.33-.53-1.5-.86-2.27-.14-.34-.28-.78-.53-.94a7.38,7.38,0,0,0-1.46-.65c-.1.66-.44,1.47-.25,1.95C78.66,277.52,78.87,278.68,77.74,279.91Zm-1.9,10.18c.94.81,1.66,1.49,2.43,2.08a8.76,8.76,0,0,0,1.4.71,8.12,8.12,0,0,0,.42-2.06c-.06-1-2.67-3.36-3.38-3.06a2.08,2.08,0,0,0-.79,1.21A3.28,3.28,0,0,0,75.84,290.09Zm29.32-.25.08.48a48.09,48.09,0,0,0,5.32-1.05c.54-.17,1.06-1.19,1.27-1.95.13-.49-.32-1.22-.51-1.84-.42.34-1,.56-1.23,1a3.49,3.49,0,0,1-2.7,2.54A11.83,11.83,0,0,0,105.16,289.84Zm-2.31-5.22,4.17-2C104.94,280.56,104.77,280.65,102.85,284.62Zm13.44,19.82c.1,1.25.21,2.5.31,3.75.23-2.33,2.36-3.82,1.86-6.5a18.28,18.28,0,0,0-.58,2.26C117.61,304.79,117.25,306.1,116.29,304.44Zm-43.88-8.82.43.34c1.48-.75,1.74-2.46,2-4.14l-.45-.35Zm43.82,4.92.34.13,1.33-5.23-.44-.17Zm1.42-16.63c-.61,1.58-.84,2.61.8,3.4C118.17,286.1,118,285.21,117.65,283.91Z"/><path class="cls-1" d="M221.23,279.42c1.65,3,1.22,6.59,1.22,10,0,5.22-.12,10.46-.49,15.67-.32,4.36-1.13,8.67-1.63,13a18.49,18.49,0,0,0,.07,3.86c.14,1.41-.31,1.71-1.33,1.55a30.66,30.66,0,0,1-4.39-.58,24.64,24.64,0,0,1-4.07-2.05c-.47-.25-.89-.63-1.35-.87-2.5-1.24-5.15-2.15-7.49-3.75-7.45-5.11-14.81-10.45-22.18-15.75a34.17,34.17,0,0,1-4-3.39c-.4-.39-.5-1.26-.74-1.91.53-.14,1.1-.52,1.57-.38a17.35,17.35,0,0,1,4,1.59,2.12,2.12,0,0,0,2.89-.16c1.1-1,1.68-.74,2.07,1a3.83,3.83,0,0,0,1.58,1.87,7.48,7.48,0,0,0,2.1.7l.82-2.51-1.67.37c-.11-.18-.25-.31-.23-.37.52-2,1-4,1.61-5.95.41-1.32,1.73-1.76,2.38-.54,1.1,2.1,2.94,1.72,4.38,2.46s3.12.52,4.68.71c.52-3.61,1.56-4.5,4.36-5,1.44-.26,2.73-.72,4.11.22.25.18.91-.13,1.17-.47a39.24,39.24,0,0,1,2.71-3.81c.67-.68,1.76-.74,2.84-1.14-.06-1.16-.14-2.42,1.88-1.85C218.92,282.2,220.12,280.37,221.23,279.42Z"/><path class="cls-1" d="M222.8,243.76l.26-1.27-2.2,2.3.47-2-.94,1.34c-.9,0-1.7-.27-2.28.06a5,5,0,0,1-3.17.9c-1.42-.13-2.9.85-4.36,1.25-2.72.74-5.44,1.46-8.17,2.11-5.72,1.35-11.44,2.73-17.19,3.94-2.87.61-5.78.87-8.68,1.25-.27,0-.55-.17-1.12-.36.45-.46.66-.83.94-.94,2.76-1.12,5.58-2.06,8.29-3.33a23.5,23.5,0,0,0,3.65-2.8c2.16-1.63,4.33-3.23,6.5-4.84.22-.17.53-.29.63-.54,1.16-2.9,3.54-3.71,5.52-5.28a23.11,23.11,0,0,0,4.4-5.07c1.28-1.89,2.16-4.2,3.38-6.17.39-.62,1.3-.74,2.26-1.23-.06-2.06,1.19-3.18,2.83-4.27.67-.45.72-2.35,1.07-3.59.22-.78.34-2,.75-2.21a2.19,2.19,0,0,1,2.05.53,41.89,41.89,0,0,1,5.12,5.27,25.38,25.38,0,0,1,4.39,8.61c1,3.64,2.49,7.09,3.76,10.63.76,2.11.52,3.37-.88,3.69-.83.19-1.74-.16-2.39.82-.05.07-.28,0-.39-.07-.75-.5-.75-.51-1.1.3l-2-.72-1.18,1.78Z"/><path class="cls-1" d="M198.46,361.5c1.89.56,2,.94,1.51,2.78-.7,2.48-1.16,5.07-2,7.45-1.67,4.59-2.19,9.82-5,13.75a6,6,0,0,0-1,2.83,2.61,2.61,0,0,1-2,2.6c-1.92.37-2.16,2.07-2.39,3.91a5.41,5.41,0,0,1-.15,1.31,9.24,9.24,0,0,1-.91,1.47c-.35-.35-.71-.68-1-1.06-.19-.21-.29-.65-.5-.73-2.12-.82-3.33-3.27-5.12-4.54-2.37-1.69-3.92-4.28-5.41-6.81-2.66-4.51-5-9.35-7.29-14.16a38.09,38.09,0,0,1-1.81-5.53,33.32,33.32,0,0,1-.82-3.31,2.29,2.29,0,0,1,.37-1.52c.26,2.2,2.69,3,2.09,5.67,0,.17.17.45.31.64,1.55,2.23,3.11,4.46,4.68,6.66a2.15,2.15,0,0,0,.9.73c1.28.49,1.72,1.72,2,3.17.19.91.48,1.78.73,2.67l.45-.17.27-2.32c.58.42,1,.69,1.4,1,1.09,1,1.68.8,2.07-.77.59-2.31,1.07-4.67,1.61-7,.1-.46.26-.9.4-1.39,2.22,1.62,2.22,1.62,4.7-.75l2.58.85c.6.19,1.31.17,1.78.58s.54,1.18.79,1.79l.65-.64a5.39,5.39,0,0,1-.21-1.51c.09-.52.34-1.31.65-1.43,1-.36,1.08-1.11,1-2.21a8.57,8.57,0,0,1,.51-2.16,7.19,7.19,0,0,0,1.12,1.3,23.93,23.93,0,0,0,2.33,1.25C198,364.14,198.24,362.88,198.46,361.5Zm-15,9.85c-.08,2.47-1.67,4.85-.08,7.31a4.21,4.21,0,0,1,.3,1.3l1.24,5.93c1.27-1.7,1.55-4.76.58-5.85a5.58,5.58,0,0,1-1-5.53C185.33,372.76,184.56,372.09,183.46,371.35Zm3.24,15-.94-.21-.36,2.37c.32,0,.89.15.92,0A19.59,19.59,0,0,0,186.7,386.31Z"/><path class="cls-1" d="M288.89,254c-3.19-.65-5.73-1.14-8.27-1.73-.31-.07-.82-.78-.76-1a4.41,4.41,0,0,1,.95-2.08c2-1.74,2.07-2.09.22-4.18a2.93,2.93,0,0,1-.79-1.37c-.3-2.11-.51-4.25-.7-6.38a1.17,1.17,0,0,1,.41-.9c1.36-.77.68-1.41,0-2.25-1.35-1.77-2.82-3.18-4.85-3.57-.38-.08-.85-1-.95-1.55-.42-2.52-2-3.6-3.53-4.81-1.31-1-2.56-2.18-3.79-3.34-.24-.23-.29-.75-.43-1.13.37-.1.8-.4,1.09-.26a46.54,46.54,0,0,1,6.75,3.43c5,3.5,9.95,7.29,14.93,10.92,3.48,2.53,7,5,10.48,7.51a14.85,14.85,0,0,1,2.06,2.06c1,1.17,1.94,2.45,3.56,2.44.46,0,1,1,1.31,1.64a2,2,0,0,1-.87,1.3C300,250.62,294.17,252.39,288.89,254Z"/><path class="cls-1" d="M246.52,239c-1.33-.16-2.89.2-3.41-.55a9,9,0,0,1-1-4.52c0-2.26,1.29-3.71,3-3.51-.37-.77-.67-1.42-1-2.05-.72-1.39-.49-2.24.74-2.73,1.86-.74,2.26-1.86,1.5-4.08-.12-.34-.39-.85-.29-1,1-2,.32-4-.26-5.57a31.73,31.73,0,0,0-4-7.49c-2.69-3.67-5.69-7-8.55-10.48a10.29,10.29,0,0,1-.69-1.63c2.7.58,5,1.32,6.54,3.54,3.15,4.48,6.13,9.15,9.09,13.84,3.52,5.59,5.52,12.1,7,18.9a60,60,0,0,0,1.59,5.85c.23.68.89,1.12,1.33,1.63C254,240,250,240.79,246,241.55c-.44.08-.93-.23-1.4-.36.32-.48.6-1,.95-1.45A5.25,5.25,0,0,1,246.52,239Z"/><path class="cls-1" d="M280.25,193.8a25,25,0,0,1,.81-3.31,6.27,6.27,0,0,1,1.55-2.51,23,23,0,0,0,7.51-11.12,2.24,2.24,0,0,1,.76-1.17c2.91-1.72,4.22-5.42,6.39-8.05a3.57,3.57,0,0,0,.24-2.15c-.21-2.25.05-2.92,1.85-3.13a49.48,49.48,0,0,1,5.31-.08,13.12,13.12,0,0,1,2.94.1,8.9,8.9,0,0,1,2.14,1.18,13.16,13.16,0,0,1-.93,2.4c-1.39,2.17-3,4.12-4.27,6.39a28.81,28.81,0,0,1-8.06,9.48c-.93.68-1.42,2.22-2.3,3.08a53.53,53.53,0,0,1-4.83,4.13,44,44,0,0,1-5.41,3.75,14.36,14.36,0,0,1-3.75,1Z"/><path class="cls-1" d="M143.27,367.1c-.4.64-1,1.21-1.17,1.93-.6,3.44-3,4.47-5.07,5.77-.6.38-2.07-.64-2.78-1.49-.48-.57-.39-1.95-.44-3,0-.48.31-1,.3-1.48-.14-4.64,1.38-8.53,3.33-12.31a54.91,54.91,0,0,0,2.43-6.05,5.12,5.12,0,0,1,3.89-3.46c1-.24,2-1.33,3.2,0a4.72,4.72,0,0,1,1.43,4.27c-.3,2.73-.3,5.56,1.42,7.87.65.88-.39,3.61-1.45,4.5-.82.69-1.49,1.66-2.3,2.4a27.36,27.36,0,0,1-2.29,1.72Z"/><path class="cls-1" d="M74.63,334.58c.15-.95.26-1.91.45-2.84a5.21,5.21,0,0,0-2-5.14c-.6-.36-1.08-1-1.69-1.35a2.1,2.1,0,0,0-1.66-.21c-1.36.63-2.27,0-2.83-1.77a12.08,12.08,0,0,0-1.84-3.57c-1.09-1.4-.66-5.79.82-6.57a.92.92,0,0,1,1,.22,2.1,2.1,0,0,1,.57,1.32c-.31,3.12,1.55,3.34,3.19,3.77a44.75,44.75,0,0,0,5.76,1.22,7.75,7.75,0,0,0,3.46-.46c1.46-.54,2.51-.07,2.44,1.82a39.66,39.66,0,0,1-1,8c-.57,2.35-1.33,4.57-1.23,7.12.11,2.79,0,5.59.05,8.37,0,1.54.37,3.06.38,4.6a8.39,8.39,0,0,1-.64,2.32,9.38,9.38,0,0,1-.86-1.74c-1-3.53-1.72-7.14-2.82-10.6C75.72,337.57,74.28,336.58,74.63,334.58Z"/><path class="cls-1" d="M35.69,175.51l-2.25-1a35.12,35.12,0,0,1-.83-6c.12-4.41.62-4.76,4.12-5.5,1.9-.4,2.22-.84,1.7-3.23s-.94-4.73-1.39-7.1c-.25-1.3,0-2.55,1.11-2.74a1.79,1.79,0,0,1,2,2.14c-.24,2.23.7,3.53,1.6,5.16,1.72,3.12,3.2,6.46,4.67,9.78a8.35,8.35,0,0,1,.23,2.51c-.66,0-1.45.33-1.95,0-2.35-1.56-4.65-2.3-7.25-.9-2,1.1-2.86,3.17-2.05,5.74C35.51,174.75,35.61,175.2,35.69,175.51Z"/><path class="cls-1" d="M66.45,273.4c-.5.85-.81,1.44-1.16,2-2,3-4,6.05-6,9a4.31,4.31,0,0,1-2.23,1.77c-2.73.63-4.31,3-5.94,5.43a9.58,9.58,0,0,1-1.19,1.75c-.33.31-.9.21-1.36.3,0-.65-.31-1.53-.07-1.92.87-1.43,2-2.64,2.87-4A8.86,8.86,0,0,0,53,284.47c.53-3.39,2.8-4.7,4.66-6.41a56.42,56.42,0,0,1,5.72-4.21,8.52,8.52,0,0,1,2-1.15C65.59,272.6,66,273.09,66.45,273.4Z"/><path class="cls-1" d="M37.5,279.66a1.72,1.72,0,0,1-1.88-2.3c2.29-4.68,4.41-9.6,8.88-11.71.46-.21,1,0,1.57,0,0,.68.15,1.55-.12,2-1,1.69-2.14,3.25-3.24,4.84s-2.16,3.12-3.27,4.64C38.74,278.1,38,279,37.5,279.66Z"/><path class="cls-1" d="M120.76,395.27c.9,1.54,1.82,3.06,2.69,4.62,1.12,2,2.28,4,3.29,6.08a14.92,14.92,0,0,1,1.27,3.82c.3,1.69-.53,2.47-1.82,1.8-2.45-1.27-3.4-4-4.16-6.88-.52-2-1.12-4-1.6-6a27.76,27.76,0,0,1-.4-3Z"/><path class="cls-1" d="M52,252.83c2,.87,3.7,1.7,5.46,2.36.84.31,1.16.87.58,1.6a16.76,16.76,0,0,1-3,3,32.82,32.82,0,0,1-3.42,1.8c-1.11.62-1.55.34-1.54-1.19a7.08,7.08,0,0,1,.26-1.9C50.87,256.6,51.47,254.7,52,252.83Z"/><path class="cls-1" d="M43,252.23c-.27-1.7-.49-3.22-.76-4.73-.18-1.06.21-1.66,1-1.41,1.94.64,3.85,1.43,5.76,2.24a1.38,1.38,0,0,1,.44,1.08c-.15.41-.65,1-.89.91-2-.61-3.46.85-5,1.89C43.38,252.29,43.2,252.23,43,252.23Z"/><path class="cls-1" d="M48,297.45c-1.12,2.17-2.12,4.14-3.18,6.06a.72.72,0,0,1-.83.13,1.2,1.2,0,0,1-.34-.94,39.1,39.1,0,0,1,1.09-5.8c.24-.76,1.26-1.29,2-1.57C47,295.26,47.47,296.5,48,297.45Z"/><path class="cls-1" d="M133.22,252.34c0,1.39-1,2.3-1.7,1.4a25.35,25.35,0,0,1-2.54-4.6,1.25,1.25,0,0,1,.52-.72c.7-.18,3.59,2.65,3.69,3.54C133.21,252.08,133.21,252.21,133.22,252.34Z"/><path class="cls-1" d="M37.66,178.69c.61.86,1.31,1.82,2,2.81a.64.64,0,0,1-.09.52c-.23.19-.63.48-.76.37a15.45,15.45,0,0,1-2-2.15c-.12-.16.22-.87.37-1.31C37.14,178.85,37.29,178.84,37.66,178.69Z"/><path class="cls-1" d="M58.28,230.42c.62,1,1.33,1.8,1.24,2A7.74,7.74,0,0,1,58.05,234c-.33-.5-.92-1-.91-1.51S57.71,231.39,58.28,230.42Z"/><path class="cls-1" d="M68.85,243.47c-.85.53-1.37,1.1-1.86,1.08s-1.11-.91-1-1.2a6.72,6.72,0,0,1,1-1.9Z"/><path class="cls-1" d="M106.52,256.15l1-.51c1.75-.89,2.53-.15,2.25,2.78-1.17-.85-2.2-1.58-3.22-2.31Z"/><path class="cls-1" d="M25.44,186.55c-.1-.51-.41-1.24-.25-1.5a6.55,6.55,0,0,1,1.74-1.81c.17-.12.71.58,1.07.9L26.24,186Z"/><path class="cls-1" d="M65.33,232.93c.45-2.07.79-2.27,2.49-1.46C67.59,233.76,67.16,234,65.33,232.93Z"/><path class="cls-1" d="M67.55,336A10.58,10.58,0,0,1,66,337.53c-.1.06-.82-1-.78-1.06a6.91,6.91,0,0,1,1.34-1.54C66.63,334.87,67.07,335.48,67.55,336Z"/><path class="cls-1" d="M164.21,357.44c-.38.17-.9.62-1.11.45a3.61,3.61,0,0,1-1-1.6c-.08-.22.36-.73.57-1.11l1.25,1.42Z"/><path class="cls-1" d="M175.9,213.7v-6.25h.46v4.68l1.49.53Z"/><path class="cls-1" d="M186.58,198.88c1,.69,1.22,1.43.93,4.66C187.19,201.66,185.65,200.73,186.58,198.88Z"/><path class="cls-1" d="M280.2,222.42c-.14,1.87-1.32,2.32-2.5,2.78a2.91,2.91,0,0,1,2.55-2.73Z"/><path class="cls-1" d="M109.11,63.15c-.52.51-1,1.15-1.11,1.06a5,5,0,0,1-.94-1.3c.33-.31.65-.86,1-.87S108.64,62.62,109.11,63.15Z"/><path class="cls-1" d="M150.11,143a9.9,9.9,0,0,1-.7-1.88c0-.19.58-.81.84-.76a1.62,1.62,0,0,1,1,.92c.11.25-.24.79-.39,1.19Z"/><path class="cls-1" d="M81.31,193l.63-.36c.26.58.52,1.16.79,1.74l-1.35.3Z"/><path class="cls-1" d="M86.52,305.62a25.59,25.59,0,0,1,2.12-1.68c.18-.12.57.23.86.37-.15.28-.26.69-.47.8-.74.4-1.5.69-2.26,1Z"/><path class="cls-1" d="M50.38,229.75l-1.67.61-.28-1.52h1.83Z"/><path class="cls-1" d="M120.75,124.75c1.48,0,1.82.81,1,2.38Z"/><path class="cls-1" d="M91.49,211c0,.5.13,1.38,0,1.44a7.92,7.92,0,0,1-1.81.41l-.13-.76,2-1.05Z"/><path class="cls-1" d="M156.07,396.16l-1-1.53.77-.74.86,1.68Z"/><path class="cls-1" d="M94.73,140.18a10.22,10.22,0,0,1-2.89,8.67A11.56,11.56,0,0,1,90.22,147a2.57,2.57,0,0,1-.23-1.71c1.06-.91.59-2,.38-3.06-.45-2.16-.88-4.34-1.45-6.45-.67-2.49-1.39-5-2.28-7.35a16.57,16.57,0,0,0-2.23-3.19c.39-.6,1-1.59,1.64-2.48s.39-1.54-.38-1.88-1.71-.49-2.56-.77c-1.17-.39-1.52-1.58-1-2.94a11.71,11.71,0,0,0,.41-2.15c1.21.14,2.5.26,2.18,2.71,0,.32.87.83,1.33,1.25a4.93,4.93,0,0,0,.83-1.54c.08-.59-.33-1.27-.27-1.88a14.68,14.68,0,0,1,.61-2.41l1.25,1.31c.11.13.23.25.22.24.72-.25,1.74-.85,1.89-.61a8.25,8.25,0,0,1,1.3,3.3c.17,1.63.52,2.2,1.7,1.94.46-.11,1,.27,1.47.42-.25.78-.32,1.89-.78,2.26-.65.52-1.68.3-2.37.77a6.41,6.41,0,0,0-2,2.33c-.18.36.44,1.35.7,2.05.29-.51.6-1,.85-1.52s.24-1.16.51-1.31.94,0,1.41,0c0,.55.14,1.38-.09,1.61-1,1-.59,1.78.08,2.57s1.59,1.8,2.39,2.71c.19.22.36.47.54.69.67.83,1.35,1.65,2.28,2.79L97.78,136c-.4-.41-.83-.8-1.21-1.24s-.63-.88-1.12-1.58c-.72,2.31.78,3.28,1.15,4.7.05.21,1,.05,1.57.06h3.62c.41-.81,1.2-2,2.43-1.11.49.37.56,1.61.82,2.46l-2.4.17a8.61,8.61,0,0,1,.61,1.51,5.94,5.94,0,0,1,.09,1.79c0,.11-.58.34-.65.24a8,8,0,0,1-.7-1.37,11.55,11.55,0,0,0-.9-2.11c-.24-.33-1.07-.56-1.19-.38a2.73,2.73,0,0,0-.5,1.82,8.46,8.46,0,0,0,1.68,2.68,6.8,6.8,0,0,1,1.74,4.48h-2.24l.1-.24c-.75-.35-1.62-1.17-2.22-.93a2.55,2.55,0,0,0-1.38,3.22,21.38,21.38,0,0,1,.61,3.38c.1,1.31-.49,1.66-1.36,1a22.15,22.15,0,0,1-2.78-2.46,2,2,0,0,1,.68-3.25c1.16-.38,1.6-1.15,1.89-2.64.23-1.17,1.3-2.05,1.86-3.17.3-.6.59-1.73.36-2.09a3,3,0,0,0-1.85-1.11A4.36,4.36,0,0,0,94.73,140.18Z"/><path class="cls-1" d="M186,127.32a51.61,51.61,0,0,0,1.18-6.38,41.1,41.1,0,0,0-.48-5.6,17.45,17.45,0,0,1-.13-3.14c.19-2,.54-3.88.83-5.82l.53-.12a8.75,8.75,0,0,1,.59,2.86c-.31,2.12.55,2.62,2,2.78a2.31,2.31,0,0,0-.53-2.83c-.27-.24-.64-.73-.59-1a12.31,12.31,0,0,1,1.05-4,10.36,10.36,0,0,1,3-2.56c.17-.12.84.31.94.64.62,2.08,1.13,4.22,1.7,6.33a30.8,30.8,0,0,1,1,3.73,6.12,6.12,0,0,1-.21,3.39,34.48,34.48,0,0,1-3.82,5c-1.7,2-3.46,3.85-5.25,5.69A7.23,7.23,0,0,1,186,127.32Z"/><path class="cls-1" d="M219.24,89a82.28,82.28,0,0,1-4.14,7.33c-2.5,3.55-5.2,6.86-7.89,10.18a15.64,15.64,0,0,1-3.07,2.92,1.6,1.6,0,0,1-1.81-.24c-1.85-2.25-1.62-6.82,0-9.39,3.18-5,7.52-8.07,11.91-11,1.27-.84,3.08-.38,4.64-.52Z"/><path class="cls-1" d="M147.7,99.23c-.48-1.49-.88-2.76-1.49-4.68-.31,3.37-2.57,1.71-3.58,3.06-.75-3-.41-3.58,2.93-4.72-.17-1.67-.34-3.38-.49-4.8.12-1.64.21-3,.32-4.46.26-3.23.53-6.46.8-9.82,1.6.46,2.9.72,2.57-2,1.31.49,2.55.65,3.45,1.41.46.39.32,1.87.46,2.88,1.74.76,1.9,1.24,1,3.28l-3-3c-2.38,1.85-2.38,1.85-1.78,4.47.61-.25,1.24-.76,1.83-.68a7.53,7.53,0,0,1,2.13,1.05,8.4,8.4,0,0,1-1.21,2.25,15.61,15.61,0,0,1-2.89,1.68l1,3.06c-1.83.26-1.71,2-1.38,3.75.22,1.22-.14,2.66,1.17,3.55.27.19-.09,2.64-.63,3.66a8,8,0,0,0-.59,5c.12,1,.21,2.27-.77,2.3-.68,0-1.47-.86-2.05-1.54a6.53,6.53,0,0,1-.74-1.88c-.3-.75-.6-1.49-.91-2.23,1-.51,2-1,3-1.53C147,99.18,147.21,99.23,147.7,99.23Z"/><path class="cls-1" d="M109.15,142.06c.27-.13.62-.45.94-.4,1.4.19,2.49-.07,2.67-2.19a.86.86,0,0,1,.42-.52c.55-.3,2.95,1.21,3.17,1.9s.56,1.39.71,2.12a4,4,0,0,1,0,1.9c-1,2.93-.56,4.24,1.87,5.28.1,0,.23.06.28.14,2,3.42,5.44,3,8.08,4.69,1.2.77,1.38,1.64.59,2.9-.68,1.08-1.28,2-.15,3.34.27.32,0,1.43-.12,2.12,0,.14-.84.13-1.24,0-4-1.41-6.71-4.67-8.82-8.92-.11-.22-.21-.56-.36-.62-2.14-.82-2.69-3.14-3.35-5.38-.39-1.36-1-1.88-2.1-.9-.28.23-1.29-.16-1.42-.55C109.86,145.47,109.58,143.86,109.15,142.06Z"/><path class="cls-1" d="M107.76,172.73c.79,3.65,1.59,7.15,2.29,10.69.17.87.18,2.53-.07,2.64a4.22,4.22,0,0,1-2.82.21,3.12,3.12,0,0,1-1.52-1.83c-1.1-3-2.14-6.13-3-9.28a5.78,5.78,0,0,1,0-3.3c.91-2.26,1.29-4.22-.55-6-.2-.2-.24-.66-.44-1.25a31.72,31.72,0,0,1,3.15-1.07c.29-.07.81.35,1,.72a21.73,21.73,0,0,1,1.61,4.29,3,3,0,0,1-1,2.09c-.89.74-1.6,1.35-.74,2.7s1.39.06,2-.51C107.67,172.73,107.78,172.72,107.76,172.73Z"/><path class="cls-1" d="M137.36,207.05c-.3-3.67-.57-7.35-.93-11-.31-3.08-.55-6.19-1.14-9.19-.51-2.62,1.13-3.51,2.17-4.66.68-.75,2-.63,3-.79.2,0,.58.41.66.72.78,3,1.53,6,2.44,9.6l-3-2.47c-.09.13-.28.31-.26.41.8,3.62-.33,6.8-1.3,10.08a30.36,30.36,0,0,0-.49,4.24c-.15,1.05-.43,2.07-.66,3.1Zm.25-22.11.81,1.12a4.58,4.58,0,0,0,.7-1.49c0-.39-.4-.85-.63-1.27Z"/><path class="cls-1" d="M106.93,154.39l-1.81-.86c.26-.64.45-1.74.79-1.82.55-.12,1.2.43,2,.8l1.3-1.44a16,16,0,0,0-2.85-1.29c-.86-.2-1.91,1-2.7-.67,1.67-1.13,1.76-2.71.85-4.64-.11-.24.44-1,.55-1.2,1.71,2,3.23,3.77,4.68,5.57,1,1.2,1.9,2.49,2.79,3.79a1.38,1.38,0,0,1-.07,1c-.45.19-1.17.52-1.42.25-1.58-1.71-2.84-.33-4.17.5Z"/><path class="cls-1" d="M95.76,125.59a10.82,10.82,0,0,1,0-2.39A1.86,1.86,0,0,1,96.93,122c.3-.07,1.06.73,1,.94-.57,2.67,1.41,3.08,2.23,4.44.73-.77,1.25-1.69,1.93-1.93.48-.18,1.17.56,1.76.89-.24.61-.35,1.43-.74,1.78a2.17,2.17,0,0,0-.76,2.59,2.21,2.21,0,0,1-.5,1.72,3.24,3.24,0,0,1-2,.83c-.23,0-.49-1.29-.64-2-.29-1.34-.25-2.92-.82-4C97.94,126.42,96.76,126.18,95.76,125.59Z"/><path class="cls-1" d="M110.3,135.74c-1.16.41-2.21.85-3.29,1.14a5.79,5.79,0,0,1-1.61,0,5.63,5.63,0,0,1,.06-1.6c.48-1.33-.18-2-.82-2.79a10.09,10.09,0,0,1-1-2.23,9,9,0,0,1,2.87-.35,7.27,7.27,0,0,1,2.25,1.49c.22.15.53.31.6.55C109.75,133.33,110.07,134.74,110.3,135.74Z"/><path class="cls-1" d="M102.32,258.6c-1.22,1.31-7.54,1.37-8.91,0,.33-1.61,1.06-2.52,2.59-2.27l.26,1.65h6Z"/><path class="cls-1" d="M150.47,114.38c-.55.12-1.08.45-1.36.25a2.32,2.32,0,0,1-.93-1.49,29.74,29.74,0,0,1,.08-3.65C150.63,109,150.47,110.4,150.47,114.38Z"/><path class="cls-1" d="M73.24,251.56l1.52-1.46-.11-.34-2.09.51,4.63-2.71-1.31,2,.17.43,2.4-1,.17.52-5.13,2.62Z"/><path class="cls-1" d="M176.82,178.87c.27.41.77.82.78,1.24,0,1.09-.17,2.18-.31,3.73-.83-2.61-1.56-4.89-2.28-7.18l-.29.44,2.18,1.77Z"/><path class="cls-1" d="M176.82,178.87h.08c-.63-2.33-.76-4.93-2.41-6.73a2.22,2.22,0,0,1,.23-1.46c.87-.21.34.69.49,1,.82,1.85,1.85,3.55,2.81,5.3l0-.05C177.42,177.42,176.66,177.7,176.82,178.87Z"/><path class="cls-1" d="M83.33,112.92c-.89-.83-1.79-1.64-2.65-2.51a1.09,1.09,0,0,1,0-.85c.12-.18.55-.31.66-.19.87.88,1.69,1.82,2.52,2.74Z"/><path class="cls-1" d="M84,249.63c1.62-1.46,2.4-1.3,3.43.9-1.31.27-2.5.69-3.4-.95C84,249.58,84,249.63,84,249.63Z"/><path class="cls-1" d="M106.92,154.38c-.07,1.78-.15,3.55-.25,5.74a8.35,8.35,0,0,0-.67-1.36c-.92-1.08-1-2,.15-2.94a5,5,0,0,0,.78-1.43Z"/><path class="cls-1" d="M102.87,156.35l-1.3,1.91a7.84,7.84,0,0,1-.9-1.84c-.07-.29.47-1.15.65-1.11C101.78,155.4,102.19,155.86,102.87,156.35Z"/><path class="cls-1" d="M78.41,252l-3.94,1.61-.17-.62,3.89-1.82Z"/><path class="cls-1" d="M91.71,193.71l-1.1-2,2.72.37.12.67-1.79.9Z"/><path class="cls-1" d="M77.74,308.58c1.13-1.23.92-2.39.38-3.76-.19-.48.15-1.29.25-1.95a6.84,6.84,0,0,1,1.46.65c.25.16.39.6.53.94.33.77,1,1.94.86,2.26A3.18,3.18,0,0,1,77.74,308.58Z"/><path class="cls-1" d="M75.84,318.75a3.29,3.29,0,0,1,.08-1.12,2.06,2.06,0,0,1,.79-1.2c.71-.31,3.32,2,3.38,3.05a8,8,0,0,1-.42,2.06,7.37,7.37,0,0,1-1.4-.71C77.5,320.25,76.78,319.56,75.84,318.75Z"/><path class="cls-1" d="M105.16,318.51a12.63,12.63,0,0,1,2.23-.79c1.33-.2,2.12-1.08,2.7-2.53.19-.49.81-.71,1.23-1.05.19.63.64,1.36.51,1.84-.21.77-.73,1.79-1.27,1.95a43.88,43.88,0,0,1-5.32,1.05Z"/><path class="cls-1" d="M102.85,313.29c1.92-4,2.09-4.06,4.17-2Z"/><path class="cls-1" d="M116.29,333.1c1,1.67,1.32.35,1.59-.48a18.28,18.28,0,0,1,.58-2.26c.5,2.68-1.63,4.16-1.86,6.49C116.5,335.6,116.39,334.35,116.29,333.1Z"/><path class="cls-1" d="M72.41,324.29l2-4.16.45.35c-.29,1.69-.55,3.39-2,4.15Z"/><path class="cls-1" d="M116.23,329.21l1.23-5.28.44.17-1.33,5.24Z"/><path class="cls-1" d="M117.65,312.57c.31,1.3.52,2.2.8,3.4C116.81,315.19,117,314.16,117.65,312.57Z"/><path class="cls-1" d="M183.46,342.69c1.1.73,1.87,1.41,1.06,3.15a5.61,5.61,0,0,0,1,5.54c1,1.09.69,4.14-.58,5.84l-1.24-5.92a4.14,4.14,0,0,0-.3-1.3C181.79,347.53,183.38,345.15,183.46,342.69Z"/><path class="cls-1" d="M186.7,386.31a19.59,19.59,0,0,1-.38,2.21c0,.1-.6,0-.92,0l.36-2.37Z"/><path class="cls-1" d="M137.61,184.94l.88-1.64c.23.42.66.88.63,1.27a4.58,4.58,0,0,1-.7,1.49Z"/><path class="cls-1" d="M277.58,265.43c2.51,1.82,3.36,5.31,4.54,8.41,1.8,4.72,3.49,9.53,4.93,14.44,1.2,4.11,1.95,8.43,3,12.63a17.05,17.05,0,0,0,1.39,3.45c.61,1.21.3,1.72-.67,2.12a33.71,33.71,0,0,1-4.17,1.81,22.06,22.06,0,0,1-4.38.32c-.51,0-1-.11-1.52-.07-2.69.21-5.39.8-8.06.6-8.49-.65-17-1.56-25.45-2.43a27.84,27.84,0,0,1-4.76-.94c-.5-.14-.89-.87-1.33-1.34.43-.41.82-1.05,1.3-1.18a16.19,16.19,0,0,1,4.12-.67,2.44,2.44,0,0,0,2.57-1.69c.64-1.52,1.26-1.55,2.21-.21a2.93,2.93,0,0,0,2.06.85,7.48,7.48,0,0,0,2.14-.49l-.12-2.7L254,299.56c-.17-.1-.33-.15-.33-.22-.21-2.07-.46-4.14-.59-6.23-.08-1.41,1-2.51,2-1.75,1.71,1.3,3.24,0,4.8-.11s3-1.2,4.48-1.85c-.78-3.55-.14-4.91,2.22-6.85,1.21-1,2.23-2.11,3.79-2,.29,0,.78-.6.9-1.05a47.1,47.1,0,0,1,1.14-4.89c.38-1,1.34-1.6,2.18-2.54-.45-1-.95-2.11,1.06-2.67C276.45,269.17,276.91,266.88,277.58,265.43Z"/><path class="cls-1" d="M249.11,320.6c1.94-.07,2.15.25,2,2.2-.16,2.62-.07,5.28-.41,7.85-.66,5-.08,10.19-2,14.91a6.58,6.58,0,0,0-.34,3,3,3,0,0,1-1.4,3.15c-1.78,1-1.66,2.7-1.51,4.55a5.55,5.55,0,0,1,.14,1.32,11.87,11.87,0,0,1-.58,1.71c-.41-.23-.82-.43-1.22-.69-.23-.15-.41-.53-.63-.55-2.22-.11-3.9-2.08-5.88-2.74-2.65-.87-4.68-2.88-6.64-4.84-3.51-3.5-6.74-7.43-10-11.33a33.84,33.84,0,0,1-2.89-4.76,29.75,29.75,0,0,1-1.48-2.93,2.36,2.36,0,0,1,0-1.59c.72,2,3.23,2.07,3.2,4.8,0,.17.26.38.42.52,2,1.65,3.93,3.31,5.91,4.93a1.91,1.91,0,0,0,1,.42c1.33.05,2,1.1,2.61,2.41.37.82.83,1.56,1.26,2.35l.4-.32-.23-2.32c.65.22,1.12.34,1.57.54,1.25.57,1.79.23,1.85-1.41.08-2.42.06-4.85.1-7.28,0-.48.06-1,.1-1.47,2.48.85,2.48.85,4.38-2.24h2.67c.62,0,1.3-.25,1.84,0s.77.95,1.14,1.47l.49-.83a4.68,4.68,0,0,1-.51-1.39c0-.54,0-1.38.33-1.59.9-.67.81-1.42.54-2.48a8.56,8.56,0,0,1,.05-2.25,5.88,5.88,0,0,0,1.35.9,21.25,21.25,0,0,0,2.51.46C249.24,323.28,249.18,322,249.11,320.6Zm-12.45,14.34c.43,2.41-.61,5.22,1.43,7.09a3.91,3.91,0,0,1,.56,1.16l2.42,5.33c.88-2.06.52-5.1-.64-5.84a5.12,5.12,0,0,1-2.09-5C238.75,335.71,237.87,335.3,236.66,334.94Zm6.23,13.41-1,.1.15,2.41c.31-.08.89-.14.89-.25A21.43,21.43,0,0,0,242.89,348.35Z"/></svg>