<svg id="Layer_1" data-name="Layer 1" xmlns="http://www.w3.org/2000/svg" viewBox="0 0 333.82 432"><defs><style>.cls-1{fill:#8dc63f;}</style></defs><title>peach</title><path class="cls-1" d="M153.24,399.88c2.24-1.93,4.21-4.32,6.69-5.64,9-4.74,16.76-11.3,24.64-17.69,2.86-2.32,5.3-5.22,8-7.94-2.68-1.87-5-3.41-7.31-5.1s-4.55-3.51-6.75-5.37c-.51-.42-.65-1.31-1.13-1.81a16.34,16.34,0,0,0-1.78-1.27c-.66-.55-1.26-1.17-1.88-1.77,0,0,0-.14,0-.21-2.1-.12-1.38-2.42-1.92-3.09l-3.55.22c-3.42,3.26-7.17,7.05-11.14,10.56-3.21,2.85-6.63,5.46-10.05,8-6.36,4.79-12.9,9.3-19.14,14.25-7.69,6.1-15.16,12.52-22.73,18.8-.27.22-.58.39-1.36.91,1.65-2.16,2.93-3.88,4.26-5.56,4.64-5.86,9.25-11.75,14-17.56,4.56-5.63,9-11.36,13.9-16.71a47.14,47.14,0,0,0,10.33-18.38c1.45-4.79,3.1-9.51,4.85-14.85,1.58,1.79,3,3.33,4.37,4.94,3.79,4.48,7.5,9,11.37,13.44a3.27,3.27,0,0,0,2.56.51c.53-.08.95-1,1.42-1.46l-.47-.55-1.16.49-2.15-2.72c1.78-3.32-.71-5.74-2.8-8.35,2.82-1,3.26,1.06,3.88,3.1l2.25-2c-3.84-6.22-7.61-12.64-11.71-18.81a9.63,9.63,0,0,1-1.25-9.38,468.08,468.08,0,0,0,16.35-64.17c2-11.21,3.91-22.45,5.75-33.7a11.63,11.63,0,0,0-.36-4.13c-1.51-7.31-3.55-14.53-4.51-21.91-.76-5.81-.32-11.81-.2-17.72.08-4,.53-8.09.86-12.77C178.29,167,181,179,183.79,191l.53-.13c-3-13.49-6.07-27-9.22-40.94l5.32,4.42a21.68,21.68,0,0,0-.22-3.15c-2.56-10-5.22-20-7.71-30-1.25-5-2.1-10.13-3.39-15.13-.26-1-1.66-1.68-2.54-2.51l-.67.57,2.82,9.9-.85.28a17.24,17.24,0,0,0-.86-2.72c-.74-1.47-1.69-2.82-2.45-4.28-.56-1.08-.92-2.29-1.44-3.41a4.25,4.25,0,0,0-1.1-1.78c-3.39-2.31-6.84-4.51-10.45-6.87L145,101.48l-.64-.57c2.21-3.18,6.26-5,6.77-9.61a32.62,32.62,0,0,0,18.08,9.93l.36-.81c-2.43-1.32-5.1-2.33-7.24-4.06-1.83-1.48-2.95-3.89-4.59-5.68A49.1,49.1,0,0,0,150.88,84c-2-1.5-2.38-3.57-3.15-5.65a10.89,10.89,0,0,1,4.9,4.38c2.25,3.84,6,6.77,9.11,10a2.3,2.3,0,0,0,1.78.27c2.64-.48,4.74-.14,8.21,1.74L170,95.8a6.55,6.55,0,0,0,1.92,1,34.76,34.76,0,0,0,6.09.5c.62,0,1.41-1,1.79-1.77a21.48,21.48,0,0,0,1.84-13.92,1.2,1.2,0,0,1,.41-1.14l.24,3.64.42,0,.18-2.53c.72,4.7-.64,9.15-2.18,13.54-.67,1.92-.48,3,1.46,4a10,10,0,0,0,5.86,1.18c3.29-.36,6.6-.5,9.91-.64a9,9,0,0,1,2.31.6l-1.24.82,1.93,1.14h-9.62c0,.2-.11.42,0,.47,5.33,4.56,10.63,9.17,16,13.64a8.19,8.19,0,0,0,7.12,2c5.86-1.26,11.18.47,16.31,3.23,7.3,3.93,13.12,9.68,18,16.5a95.93,95.93,0,0,1,16.9,39.27,83.26,83.26,0,0,1,1,23.64c-.52,5.08-.6,10.22-1.19,15.28-.34,2.92-1.38,5.74-2,8.64-.8,3.74-1.34,7.54-2.25,11.25-1.4,5.72-3,11.38-4.56,17.06-1.29,4.69-2.58,9.39-3.95,14.06-1.68,5.7-3.82,11.28-5.1,17.08-2.38,10.8-6.35,21-9.55,31.52a132.46,132.46,0,0,1-8.27,21.36c-2.65,5.21-5.84,10.13-9,15.06a103.8,103.8,0,0,1-17,20.58A98,98,0,0,1,188.67,384a175.33,175.33,0,0,1-19.17,10.34c-5.18,2.39-10.76,3.85-16.16,5.7C153.31,400.06,153.21,399.82,153.24,399.88Zm80-256.48,3,5.88.72-.46-3.79-5.38-4.35-5.67-6.65-8.07-4.7-4.77-.62.76,5.38,4,6.65,8.07Q231.14,140.56,233.29,143.4ZM193.17,366.89l.53.45c.71-.89,1.43-1.78,2.13-2.68A128.13,128.13,0,0,0,211,340.3c7.08-15,11.11-31.05,14.28-47.34,3-15.24,5.33-30.61,8.37-45.83,2-10.13,3.53-20.29,3.34-30.62-.17-8.59-.78-17.16-1.26-25.74a39.23,39.23,0,0,0-.81-7c-2.66-10.81-7.16-20.89-11.54-31-3-6.88-6-13.74-8.73-20.72-2-5-4-9.84-8.14-13.5s-7.82-7.89-11.81-11.75a19.09,19.09,0,0,0-3.77-2.3l-.33.55a3.93,3.93,0,0,0,.47.66c7.56,7.1,11.7,16.53,15.14,26.13a74.18,74.18,0,0,1,4,25.55c0,6.27-.71,12.55-1.32,18.8a174.9,174.9,0,0,1-5.44,30,15.66,15.66,0,0,0-.34,6.74,52.71,52.71,0,0,0,2.74,8.39c3.15,8.53,5.86,17.15,6.36,26.39.82,15.23-.64,30-7.07,44-3.51,7.59-6.58,15.51-10.88,22.59-5.84,9.59-12.67,18.5-19,27.73a2.09,2.09,0,0,0-.25,1.7,18,18,0,0,0,2.42,3.87c5.28,5.93,10.65,11.78,16.22,17.91ZM166.3,322.27c5.28-5.35,15.79-22.7,18.71-30.51,4.12-11,7.49-32.85,5.7-35.52-3.64,11.07-7,22.37-11.06,33.37S170.77,311.42,166.3,322.27ZM194,164.37c3.28-9.92-6.53-46.17-14.16-52.5C189.73,127.83,193.8,145.52,194,164.37Zm56.28,50.76h.36V201.75h-.36Zm-.63-21.88.76-.06-1.63-13.3-.56.08Zm-39.82-73.7-.4.64,6.12,4.16.38-.6Zm-15.24,53.89-.43,0-.51,8.42.54,0Q194.39,177.66,194.59,173.44Z"/><path class="cls-1" d="M129.79,57.61c1.72-1.64,2.58-.3,3.5.83l3.25,4c.89-1,1.52-1.81,2.2-2.53,1.26-1.32,2.39-2.55.79-4.52-.4-.49-.2-1.68,0-2.48a19.35,19.35,0,0,1,1.22-3l1.88,1.26,1-3.83-.51-.54L140,49.44c.2-2.57.35-4.62.51-6.67l.36,0c.37,1,.48,2.42,1.19,3s1.93.11,3,.11c-1.79,4.64-1.3,5.47,1.59,4.91a6.79,6.79,0,0,1-1.56,6.44c-2.07,2.24.68,2.56,1.72,3.91l.64-4.11A23.1,23.1,0,0,0,151,55.52a8.21,8.21,0,0,1,10,.38c2.15,1.8,4.29.94,4.95-2a7.58,7.58,0,0,1,.49-1.22c.17.56.66,1.34.47,1.65-.89,1.38-2,2.62-3,3.92a2.7,2.7,0,0,1-.32.38c.76,3.8,4.73,6.19,2.62,10.41-1.67-2.24-3.37-4.51-5-6.68,0-.87-.09-1.77-.13-2.67l-2,1.53-.69-1.67c-3.63,1.28-7.24,2.67-10.93,3.78a33.64,33.64,0,0,1-5.33.81,27.33,27.33,0,0,0-1.36,2.64,2.23,2.23,0,0,0-.05,1.44c1.79,4.57,3.59,9.15,5.48,13.68a64.74,64.74,0,0,0,2.89,5.92c.9,1.65.27,1.93-.81,1.82-.7-1.57-1.33-2.91-1.88-4.28-1.63-4-3.29-8-4.83-12.08A33.1,33.1,0,0,0,132.34,60C131.53,59.27,130.76,58.51,129.79,57.61Zm30.35-.75c-2.09-1.44-2.09-1.44-4.44.46C157.78,59.05,159,58.92,160.14,56.86Zm-7.58,2.79-.68-2.06-3,3.43Z"/><path class="cls-1" d="M122,99.93c.78.25,1.5.26,1.89.64,2.33,2.26,2.31,2.29,3.5,0,.87.63,1.78,1.23,2.62,1.92.29.23.63.8.53,1-.72,1.9,0,2.15,1.65,2,.78-.08,1.63.62,2,.77l8.18-8.52.76.78c-.47.56-.92,1.15-1.42,1.68-1.53,1.63-3.13,3.18-4.6,4.85-.81.91-.37,1.76.66,2,3.61.75,4.9,4.25,7.15,6.57,1.15,1.18-.38,4.72-2.17,4.84a24,24,0,0,1-7.07-.57c-1.77-.43-2.93-4.51-2.21-6.56.39-1.09.8-2.17,1.36-3.7-3.46,2.2-6.32.47-8.75-1.1A7.94,7.94,0,0,1,122,99.93Z"/><path class="cls-1" d="M114.6,126.88c.44-10.82.88-21.64,1.32-32.38.48,6.2,4,11.38,5.92,17.18.2.6.53,1.4.32,1.86-2.06,4.58-4.22,9.11-6.36,13.66Z"/><path class="cls-1" d="M128.62,78.58c2.94,2,2.58,6,6,7.49,2.76,1.22,5.21,3.48,8.29,4.29-1.14,4-1.14,4-5.69,4.35l2.37-1.83c-2.1-1.64-4-3.19-6-4.69A11.42,11.42,0,0,1,128.62,78.58Z"/><path class="cls-1" d="M155.29,48.87c-2.11,1.61-3.64,2.79-5.18,4a.7.7,0,0,1-.6,0c-1.79-.84-1.84-2.39-1.48-4.09.28-1.32.51-2.82,2.34-2.16C151.83,47.15,153.23,47.91,155.29,48.87Z"/><path class="cls-1" d="M153.34,65.06l.33,2.83c-.44-.06-1.22,0-1.26-.19a16.66,16.66,0,0,1-.22-2.55Z"/><path class="cls-1" d="M157.09,62.93l-.78,1.47a7.92,7.92,0,0,1-1.18-1.61c-.08-.18.49-.69.77-1Z"/><path class="cls-1" d="M229,137.72l-6.65-8.07-.05,0,6.64,8.07Z"/><path class="cls-1" d="M209.83,119.55l6.1,4.2-.38.6-6.12-4.16Z"/><path class="cls-1" d="M222.31,129.65l-5.38-4,.62-.76,4.7,4.77Z"/><path class="cls-1" d="M194.59,173.44q-.21,4.22-.4,8.42l-.54,0,.51-8.42Z"/><path class="cls-1" d="M228.9,137.77l4.35,5.67.05-.05L229,137.72Z"/><path class="cls-1" d="M233.25,143.44l3.79,5.38-.72.46-3-5.89Z"/><path class="cls-1" d="M160.14,56.86c-1.17,2.06-2.36,2.19-4.44.46C158.05,55.42,158.05,55.42,160.14,56.86Z"/><path class="cls-1" d="M152.56,59.65,148.85,61l3-3.43Z"/></svg>