<svg id="Layer_1" data-name="Layer 1" xmlns="http://www.w3.org/2000/svg" viewBox="0 0 333.82 432"><defs><style>.cls-1{fill:#fff;}.cls-2{fill:#99c864;}</style></defs><title>pear</title><path class="cls-1" d="M257.32,198c-.95-1.32-2.22-3.07-3.48-4.83l.3-.21Z"/><path class="cls-1" d="M210.33,382.81l-2-3.61.26-.19,1.9,3.65Z"/><path class="cls-2" d="M73,25.55c32.91,100-27.31,403.23,149,354.8C356.14,242.6,286.59,144.13,73,25.55Z"/><line class="cls-2" x1="108.97" y1="57.63" x2="229.84" y2="376.33"/><path class="cls-1" d="M109,57.63c11.43,26,22.21,52.33,32.76,78.71,5.34,13.16,10.45,26.42,15.66,39.63l15.29,39.77,14.94,39.9c4.85,13.35,9.83,26.65,14.56,40.05,9.59,26.74,18.95,53.57,27.66,80.64-11.43-26-22.22-52.33-32.77-78.7-5.34-13.17-10.43-26.43-15.65-39.64l-15.28-39.77-14.93-39.91c-4.86-13.34-9.83-26.65-14.56-40C127.06,111.53,117.69,84.7,109,57.63Z"/><path class="cls-1" d="M284.26,250.43c-6.2,8-12.24,16-17.9,24.25s-11,16.69-15.9,25.36-9.53,17.53-13.89,26.54S228.19,344.8,224,354a190.72,190.72,0,0,1,9-29,206.87,206.87,0,0,1,13.12-27.46,192.28,192.28,0,0,1,17.12-25.2A160.9,160.9,0,0,1,284.26,250.43Z"/><path class="cls-1" d="M262.72,197.42c-6.2,8-12.24,16-17.9,24.25s-11,16.69-15.9,25.36-9.53,17.53-13.89,26.54S206.65,291.79,202.5,301a191.85,191.85,0,0,1,9-29,206.87,206.87,0,0,1,13.12-27.46,194.27,194.27,0,0,1,17.12-25.2A160.9,160.9,0,0,1,262.72,197.42Z"/><path class="cls-1" d="M229.5,167.36c-4.72,6.29-9.4,12.48-13.76,18.85s-8.54,12.86-12.43,19.5-7.54,13.44-11,20.35S185.5,240,182,247.07a132.91,132.91,0,0,1,6.68-22.6A149.57,149.57,0,0,1,199,203.19a140.36,140.36,0,0,1,13.62-19.35A114.83,114.83,0,0,1,229.5,167.36Z"/><path class="cls-1" d="M197.08,135.21c-3.37,5.33-6.77,10.5-10,15.77s-6.28,10.57-9.19,16-5.68,10.89-8.38,16.44-5.33,11.19-8.21,16.81a100.32,100.32,0,0,1,4.57-18.31,119,119,0,0,1,7.62-17.32,110.73,110.73,0,0,1,10.38-15.84A85.27,85.27,0,0,1,197.08,135.21Z"/><path class="cls-1" d="M170.65,113.22c-2.13,4.31-4.37,8.4-6.51,12.53s-4.24,8.23-6.27,12.37-4,8.33-6,12.54-4,8.45-6.34,12.66a67.54,67.54,0,0,1,2.67-14.06,84.87,84.87,0,0,1,5.19-13.34,79.79,79.79,0,0,1,7.44-12.26A57.53,57.53,0,0,1,170.65,113.22Z"/><path class="cls-1" d="M220.18,357.42c-8.54-4.23-17-8.33-25.66-12s-17.41-7-26.33-9.79-18-5.25-27.14-7.34-18.44-3.75-27.81-5.47a157.45,157.45,0,0,1,28.52,1.63,172.25,172.25,0,0,1,28,6.42,164.87,164.87,0,0,1,26.47,11A144.76,144.76,0,0,1,220.18,357.42Z"/><path class="cls-1" d="M203.65,306.15c-8.72-3.78-17.38-7.42-26.18-10.63s-17.71-6-26.74-8.36-18.18-4.26-27.42-5.85-18.58-2.75-28-4a156.84,156.84,0,0,1,28.5.09A168.71,168.71,0,0,1,152,282.33a163.73,163.73,0,0,1,27,9.59A143.07,143.07,0,0,1,203.65,306.15Z"/><path class="cls-1" d="M181.92,247.72c-6.75-3.05-13.37-6.11-20.11-8.83s-13.52-5.19-20.42-7.34-13.9-4-21-5.61-14.26-3-21.52-4.45a110.62,110.62,0,0,1,22.2.57,125.53,125.53,0,0,1,21.8,4.71,121.25,121.25,0,0,1,20.59,8.58A103.07,103.07,0,0,1,181.92,247.72Z"/><path class="cls-1" d="M165.64,191.14c-5.59-2-11-4-16.48-5.8s-10.94-3.47-16.48-4.93-11.12-2.73-16.77-3.88-11.37-2.19-17.16-3.43a82.43,82.43,0,0,1,17.69-.47,97.47,97.47,0,0,1,17.52,3,93.16,93.16,0,0,1,16.68,6.14A75.06,75.06,0,0,1,165.64,191.14Z"/><path class="cls-1" d="M146.2,157.87c-3.73-1.73-7.21-3.6-10.71-5.38s-7-3.51-10.45-5.18-7-3.29-10.62-4.91-7.2-3.23-10.83-5.16a47,47,0,0,1,12.11,1.44,59.62,59.62,0,0,1,11.49,4.11,58.43,58.43,0,0,1,10.41,6.4A43.66,43.66,0,0,1,146.2,157.87Z"/></svg>