<svg id="Layer_1" data-name="Layer 1" xmlns="http://www.w3.org/2000/svg" viewBox="0 0 333.82 432"><defs><style>.cls-1{fill:#8dc63f;}</style></defs><title>pine</title><path class="cls-1" d="M89.46,336.79l-5.12.56-.11.71,14.9,3.45.09,1.05-3.85,2,.3,1a30.2,30.2,0,0,0,4.92-2.55c2.58-1.95,9.42-1.41,10.77,1.25l-2.67,3.19.39.67a35,35,0,0,0,3.29-2.95c3.1-3.53,3.07-3.57,6.16,0,.43.49.81,1.05,1.2,1.58,1.86-1.92,3.65-3.76,5.43-5.61l.22.48c-1.44,2-2.94,4-4.3,6.07a9.93,9.93,0,0,0-.72,2.62,10.28,10.28,0,0,0,2.52.52,11.59,11.59,0,0,0,2.57-.71l-.06-.09c-3.78,4.6-8.7,5-13.43,5.55-8,1-15.37-2.23-22.38-6.71A141.22,141.22,0,0,1,72,336.23c-2-1.79-3.89-4.45-6-6.54-3.93-3.93-7.75-8-11.53-12.19-.77-.84-1-2.46-1.78-3.3-3.58-3.94-7.29-7.68-10.88-11.61a11.75,11.75,0,0,1-1.51-3.12c-.23-.52-.22-1.38-.54-1.65-4.57-3.79-5.94-10.63-9.12-15.73A99.78,99.78,0,0,1,25.13,273c-2.17-4.5-3.92-9.33-5.9-14-.54-1.27-1.28-2.41-1.92-3.61l0-4.67a36.13,36.13,0,0,0,4.6,4.29c5.62,3.7,11.26,7.37,17.05,10.61,2.42,1.35,5.22,1.59,7.15,2.14.38,2.42.64,4,.9,5.66l-.39.7c-1-1.26-2-2.53-2.93-3.8-.56-.72-1-1.76-1.69-2.11-3.7-1.87-7.45-3.57-11.18-5.33-1.72,7.14-1.71,7.22,3.42,11.4a32.09,32.09,0,0,1,5.73,5.4l-5.78.06-.06.62c2.23.45,4.47.89,6.71,1.38a10.72,10.72,0,0,1,2.92.84c1.79,1,3.8,1.92,1.87,5.24-.31.53,0,1.62,0,2.74l-4.11-.46-.17.61,4.88,2.59L45.08,295c7,.57,14,1,21,1.79,2.13.25,4.22,1.52,6.28,2.49,3.82,1.79,7.61,3.71,11.45,6-1.59-.07-3.63-1.3-2.87,2.74-9.36,1.17-18.34-.79-27.43-2.51l7.91,3.19-1.58,2.21c9-.67,18-1.23,27-2.07a13.88,13.88,0,0,1,9.53,2.22c2.87,1.9,6.29,2.43,9.48,3.52,2.14.73,2.36,2.46,1.64,4.79-1,3.35-.81,3.91,2.38,5.43-14.05,2-27.51-.81-41-3.43l-.11,1.08,9.34,2.45-5.67,2.73.1.64c1.17-.12,2.62.29,3.46-.44,4-3.5,8.25-1.7,12.34-1.1,10.84,1.6,21.44,1.24,32-3.07,2.29-.94,5.41,1.49,8.34,2.42-1.8,4,2,10.58-4.81,10,2.66,4.27,5.52.52,8,2.36-4.34.68-8.68,2-13,1.9-9.06-.21-18.11-1.14-27.16-1.91-.81-.07-1.56-1.11-2.36-1.71.21-.67.43-1.33.65-2l-2-.95c1-1.82,1.74-3.35,2.61-5.05-2.95-.63-2.95-.63-6.91,3,0,3.4.94,5.11,3.84,4.16C88.1,335.77,88.82,336.49,89.46,336.79Zm21.38-1.54c-.43,4.54-.34,4.62,4,4.16Z"/><path class="cls-1" d="M199.07,276.88l-4.34-3.35.08-1c2.18.21,4.37.31,6.53.67a15.58,15.58,0,0,1,5,1.44,6.73,6.73,0,0,1,2.94,3.23c1.77,4.69,4.62,8,8.59,9.35l-7.32-8.55c2.29-.39,5,2,5.38-3,1.6.43,3.53.28,4.75,1.4,2.51,2.29,4.5,5.5,7,7.85,1.16,1.1,3,1.07,5.14,1.76l.66,2.77a9.35,9.35,0,0,0,2.33-.7c3.89-2.4,7.83-4.72,11.57-7.45,1.28-.93,2.07-3,3.31-4.84,3.09.75,4.47-.66,5.31-5.71,1.13-1,2-1.65,2.75-2.37a24.7,24.7,0,0,0,2.61-2.51,41.42,41.42,0,0,0,2.51-3.62,9.56,9.56,0,0,1,.89-1.47c2.17-2.17,2.18-2.15.64-6.06-3,1.35-6.09,2.77-9.19,4.13-8.28,3.64-16.46,7.83-24.9,10.73-9.49,3.26-19.32,2.59-29.06,2.12l0-1c2.94,0,5.88,0,8.81-.15a2.59,2.59,0,0,0,2-1.29,62.52,62.52,0,0,0,1.71-6.31l-2.16,1.79-1.49-3.39-8.64,5.79-.12-.24L230,241.75c2.63.69,5,1.73,7.34,1.85,5,.25,10.11.14,15.16,0,5.29-.2,10.58-.64,15.86-1.06a3.69,3.69,0,0,0,2.57-1.53l-5.55-.39-.08-.72q6.42-4,12.85-8.06l-.11-.17c-7.21,3.22-14.24,7.69-21.66,9.32s-15.45.51-23.2.6l-.32-1.22a55.72,55.72,0,0,1,4.08-3.93c3.69-2.92,7.38-5.85,11.22-8.42,1-.67,2.56,0,4.14.08l-.38-2.31c4.81-2.92,9.69-6,14.64-8.82a4,4,0,0,1,3.06-.16c7.34,2.42,14.16.66,20.66-4-6.4,2.59-12.81,4.45-19.45,2l-.4-1.15c2.37-1.65,4.72-3.37,7.13-4.94,1.79-1.16,3.66-2.14,5.51-3.14,3.56-1.91,6.66-4.91,11-4.79,2.6.07,5.23-2.33,7.85-3.62l-.16-1-3.11.44c-.29-2.55-.29-2.55,4.79-8.28a29.65,29.65,0,0,0-3.76,2.69c-1.79,1.7-2.55,1.33-3-2.2-1.73,2.38-3.45,4.77-5.2,7.13-1.33,1.8-2.5,4-4.12,5.2a78.91,78.91,0,0,1-9.87,5.87c-1.13.6-2.48.48-3.88.72l-1.48,2.67-.65-.42c.72-2.39,1.44-4.78,2.21-7.36l-3.49-3.67-.54.58-.12-2.65c-.39.26-.72.34-.83.58-3.41,7.41-9.3,12.57-11.56,21.07a5.2,5.2,0,0,1-2.21,2.5c-6.11,4.14-12.26,8.19-18.23,12.16-.68-3.17-1.33-6.25-2-9.34l-1-.36q-2.75,5.82-5.47,11.64l-.68-.61c4.85-16.59,17.16-24.53,25.82-37l-8.67,8,.38-3c-.43.54-.81.8-.95,1.2-2.35,7-7.47,10.65-11.49,15.61-3.69,4.54-5,10.58-6.59,16.46-1.47,5.65-3.06,10.94-7.71,13.64-1.43.83-2.3,1.89-4.27.8-1.76-1-4.23.14-6.64.36l-.26-1.63c-2.81-.32-3.6,6.8-7.35,3,.16-1.3-1.13-4.28,2.33-2.71-.09-8.64,4.41-14.09,8.2-20.12,2.52-4,4.72-8.33,7.06-12.51l-.92,0c-.28-2.44-.57-4.88-.88-7.56-2,5.11-.33,12.44-5.86,16.09l-3.84-5.42c.68,3.19,1.83,5.93,1.66,8.53s-1.63,5.06-2.4,7.22l-6-2-1,.43c4.5,8,1.31,13.25-3.11,18.38l-1.83-3c2.64,5.89-.72,10.75-1.56,16A58.94,58.94,0,0,1,197.44,225c4.64-8.51,9.52-16.78,16.49-22.42a80.28,80.28,0,0,1,9.37-6.29c2.26-1.36,4.62-2.93,7-3.33,3.47-.57,7-.17,10.57-.17.39,0,.8.25,1.15.14,3.64-1.22,7.24-2.68,10.92-3.68a11.54,11.54,0,0,1,5.29,0c3.21.67,6.28,2.69,9.64.18,1-.73,2.65.26,4,.1,4.57-.56,9.11-1,13.52-3.14a37.72,37.72,0,0,1,10.39-3.08c2-.35,4.22.51,6.35.66.53,0,1.06-.66,1.62-.85,1.84-.61,3.83-2,5.5-1.52,2.81.78,5.1-.06,7.47-1.55.32-.19.72-.15,1.62.56-1.7,2.58-3.38,5.18-5.09,7.74-2,3-4,5.91-6,8.86-1.85,2.71-3.82,5.3-5.54,8.15-1.44,2.37-2.58,5-3.87,7.56a6.94,6.94,0,0,1-.73,1.21c-2.18,2.85-4.51,5.55-6.52,8.58-1.16,1.75-1.81,4.06-2.72,6.09a5.56,5.56,0,0,1-1.18,2c-2.86,2.21-4.25,5.6-5,9.6-.06.35-.3.85-.53.91-3.36,1-4.75,5.08-6.26,8-1.77,3.48-5.11,5-6.07,9.47-.5,2.32-2.52,4.22-4.06,6-2.54,3-5.31,5.59-7.87,8.51-2.4,2.75-4.4,6.22-7.05,8.45A51.93,51.93,0,0,1,238.79,289c-10.1,4.78-20.31,4.82-29.94-1.64-3.71-2.49-6.61-7-9.87-10.56l10.36,8.61c-.91-3.55-1-7.23-2.31-8.28-2.52-2-5.77-2.51-9.09-3.77C198.5,275.07,198.79,276,199.07,276.88Zm38.59-67.07c-1-.65-1.79-1.59-2.39-1.45-2.56.61-6.22,6.74-6.42,10.36C233.79,219.27,234.44,213.05,237.66,209.81Zm9,21.62c-.88,1-2,1.83-1.92,2.36.67,5.08-2,3.29-3.93,3.45a31.68,31.68,0,0,0-5.13,1.25l.22,2,10.14-.71C245.9,237.06,248.42,234.44,246.67,231.43Zm34.69-18.15.74,1.28c1.94-1.21,3.88-2.42,6.13-3.84l-2.28-3-1,4.57-2.89-2.43Zm-57.77,47.64-.52-.94c-3.51.72-5.21,2.49-4.75,5.51Z"/><path class="cls-1" d="M103.5,213.87l-7.82-5.48c.17,2.7.28,4.42.47,7.33-.67-2.05-1-3-1.3-4-.64-2.38-1.18-4.81-1.84-7.18-1.56-5.6-4.41-8.74-9.28-9.43-3-.43-5.77-2.6-8.7-3.78-.7-.28-1.6.25-2.41.41.14,1,.23,2,.43,2.92a148,148,0,0,1,2.56,14.7L60.93,188.9l-.55.52,6.95,11.36-5.51-1.57-.17.38c1.06.82,2.05,2.11,3.18,2.37,5,1.16,8,5.79,11.19,10,2.74,3.59,5.48,7.18,8,11.17l-6.69-7.64c-1,5.84,1.92,7.22,4.53,8.94-7.9-2.14-12.63-9.73-17.58-16.95l-.63.79c1.43,2.22,2.84,4.46,4.29,6.66,2,3,4.51,5.63,5.75,9.06a20.6,20.6,0,0,1,.62,10c-.92,4.77,1.14,6.41,3.61,8.2a10.83,10.83,0,0,0-.55,1c2.19,2.32,4.41,4.6,6.63,6.88L79.2,249,79,250a12.66,12.66,0,0,0,3,1c6,.42,11.4,4,17.11,5.9,6.11,2,12.44,2.85,18.62,4.55a15.89,15.89,0,0,1,6.17,3.42c2.38,2.11,4.33,5,6.62,7.35,1.82,1.84,1.66,3.48.47,5.14a34.46,34.46,0,0,0-3-6c-.31-.42-2.15,1-3,1.48.89,2.24,1.59,4,2.28,5.72l-4.74,2.56,13.22,5.13-.09.68c-5.59-1.51-11.29-2.58-16.75-4.66a109.35,109.35,0,0,1-16.66-8.11c-5.22-3.08-10.14-7-15.19-10.57l-.5,1.12,12.83,9.92-6.4,2.25c2,.32,3.39,1.13,4.33.6,4.2-2.39,7.56,0,11.18,2.88l-5.29,2.33c4.88,1,10.26-3.7,15.12,2.64l-4.67,2.84.12.71,7.13-2.3-5.11,7.9c6.11,2.45,11.62,1.68,17.14.36a24.67,24.67,0,0,1-19.3.93,105.59,105.59,0,0,1-18.09-8.48c-3.11-1.77-5.87-4.82-8.45-7.78-1.63-1.87-2.57-4.72-4-7a6.45,6.45,0,0,0-2.39-2.09c-1.74-.95-3.45-1.75-1.64-4.65l-4.26-3.6c1.7-2.12.51-3.38-.14-5.39-1.13-3.46-4.37-5.63-3.79-10.07a1.81,1.81,0,0,0-.52-1.34c-2.78-1.65-1.67-5.5-2.8-8.09-1.27-2.93-2.31-6-3.32-9.11A13.69,13.69,0,0,1,64,225,10.69,10.69,0,0,0,64,223c-2.59-8.64-5.68-17.08-7.69-25.92-1.57-6.88-1.75-14.28-2.72-21.42-.29-2.13-1.25-4.09-1.7-6.21a19.86,19.86,0,0,1-.07-3.79l.81-.37c.9,1.64,1.72,3.34,2.7,4.89,2.59,4.12,4.85,8.79,8,12.08,2.82,2.95,6.56,4.56,10,6.39a93.67,93.67,0,0,0,11.2,5.12c6.15,2.3,12.4,4.11,18.55,6.42,5.47,2.06,10.74,4.43,15.63,8.76,2.32,2,5.4,4.78,9.19,4.32,1.53-.18,3.29,2.93,5,4.6l-16.72-8.3-2.57,4.65L104.89,206l-.44.71c1.21,1.61,2.43,3.22,3.64,4.84l.09-.07Z"/><path class="cls-1" d="M120.48,227.43c2.07,3.66,4,7.44,6.26,11,1.56,2.47,3.57,4.46,5.16,6.91,2.09,3.21.65,7.92-2.27,9.88-1.86,1.25-3.2,3.78-4.93,5.93-3.08-2.75-6.71-5.89-10.21-9.25-.58-.56-.59-2.1-.86-3.18-.33-1.32-.66-2.66-1-4l-.93-4.16-4,2.53c-.6-2.84-.29-5.87-2.57-8.24-.88-.91-2-4.68.15-7.1.38-.42-.06-2-.13-3.2l-4.64,1.85c1.29-2.45,2.06-4.65,3.32-6.18,2-2.46.71-4.26-.27-6.27l2.51.58c-.28,5,3.26,5.72,5,7.81l-.44,5.26c2-1.79,3.28-3,4.54-4.09l-2.4-.89.7-.85c-1.31-2.28-2.66-4.53-3.91-6.86a32.33,32.33,0,0,1-1.37-3.41l-.09.07,11.76,14.89-3.27,0c.7,2.34,1.24,4.34,1.91,6.27s1.4,3.58,2.08,5.3l.75-1.27,2,2.23c.21-6.57-.18-7.42-3.29-7.61Zm5.09,25.33c-5.75-2.45-5.75-2.45-4.83-7.82-.3,0-.73-.15-.84,0-1.1,1.78-2.16,3.62-3.19,5.38C119.26,256.06,119.67,256.18,125.57,252.76Z"/><path class="cls-1" d="M59.78,279.6c-.93.07-2,.59-2.75.14a19.89,19.89,0,0,1-5.15-4.87l3.67,1.21c.7-1.61,1.44-3.34,2.44-5.65-3.27-.89-6.82,2.91-9.62-2.17l28.2-.3a26.45,26.45,0,0,0-4.2,1.15,2.65,2.65,0,0,0-1.26,2,7.38,7.38,0,0,0,1.34,2.53c.65,1.09,1.35,2.14,1.94,3.27,1.53,2.87,3,5.79,4.59,8.84L77,286l6.61,11.1c-1.67-1-3-1.72-4.33-2.65-.53-.38-.84-1.24-1.29-1.84-.85-1.16-2-3.43-2.55-3.22-1.3.51-2.32,2.2-3,3.92a16.13,16.13,0,0,1-3.87-.05c-.64-.15-1.72-1.4-1.63-1.88.86-5-2.9-5.75-4.6-8.34-.81-1.23-1.74-2.34-2.61-3.5l4.84,2.89a6.49,6.49,0,0,0-1.25-3.11c-.54-.81-1-1.65-1.73-2.76C60.81,277.85,60.29,278.72,59.78,279.6Zm16.63,4.73-6.34-10.08-.52,3.22L63.72,275l-.13.47ZM64.5,270.65l-.45,1.74,3.8,1.7c.05-.72.28-2,.12-2.07A27.78,27.78,0,0,0,64.5,270.65Z"/><path class="cls-1" d="M81.07,244.4c3.11,1.15,6.2,2.46,9.36,3.33.62.17,1.53-1.35,2.34-2.13l-5-3.24.39-1.35c.78.21,1.56.39,2.33.65,4.55,1.57,9.12,3.07,13.64,4.78a15.34,15.34,0,0,1,5.07,2.8c2.55,2.32,4.85,5.07,7.21,7.7a8.4,8.4,0,0,1,.93,1.82L117,260c-7.23-2.15-14.49-4.15-21.68-6.53-3.18-1.06-6.2-2.89-9.29-4.37Z"/><path class="cls-1" d="M247.75,303.28l1.64-2.36-8.16-7.26.21-.3c5.17,2.93,10.27,6.05,15.52,8.73,4.08,2.09,8.31,3.67,12.5,5.38s8.27,3.47,12.47,4.83a10.65,10.65,0,0,0,5.32,0c6.78-1.39,13.54-3,20.26-4.49.12,2.67-5.78,9.17-10.81,10.8l3.61-3.42c-5.43-1.19-8.44,4.82-13,4.25l1.41-5c-4.33-.8-8.61-2.05-12.92-2.23-2.66-.12-5.34,1.47-8,2.12-1.53.36-2.62-.25-2-2.72v.13a14.75,14.75,0,0,0,2.09.13c.86-.06,1.71-.27,2.56-.41-.48-.82-1-2.39-1.43-2.35-4.9.44-8.26-4.71-12.78-5.63-1-.19-1.82-1.42-2.71-1.25l-5.66,1.06Z"/><path class="cls-1" d="M173.31,272.62c-.69,3.58-.95,7.41-2.15,10.67-4.34,11.76-6.47,24.25-8.23,36.92-.55,4-1.4,7.88-2.21,12.34l2,2c-4.82-.14-3.6,5-4.42,7.54-1.09,3.48-1,7.94-.53,11.79a179.62,179.62,0,0,1,.95,32.21,20.32,20.32,0,0,1-.5,2.38c-.38-5.16-.69-9.42-1-13.68-.49-6.57-1.1-13.13-1.42-19.72a78.45,78.45,0,0,1,.1-13.8c.51-3.85,2.24-7.42,3.37-11.15a100.66,100.66,0,0,0,4.13-26.52c0-.64-.14-1.57.13-1.89,2.85-3.4,1.14-8.3,2.4-11.08,5.15-5.84,5.34-13,5.5-20.93l1.91,3Z"/><path class="cls-1" d="M173.37,272.75l-.12-18.24-.82,0-.7,3.07c-2.58-6.23,1-11.17,1.89-16.59.61,1.85,1.71,3.76,1.77,5.71s-1.24,4.15-1.3,6.26c-.17,5.82,0,11.66,0,16.9,1.12.3,2.79.58,2.79.79,0,2.08-.37,4.16-.62,6.23-.64-.33-1.49-.44-1.87-1a15,15,0,0,1-1.11-3.15Z"/><path class="cls-1" d="M275.23,340.49c-2,5.92-6.88,6.35-10.64,8.86-3.51,2.35-7.15,4.39-10.73,6.57a2.67,2.67,0,0,1-.55.33c-3.68.91-7.37,1.78-11,2.72-2.56.65-4.91,2.36-7.73,1.74-1.4-.31-3,.55-4.45.88l-.11-1c2.38-.31,4.78-.52,7.14-1a3.66,3.66,0,0,0,2.16-1.59c.2-.31-.56-1.6-.89-2.45a8.47,8.47,0,0,1-.8-3.92c1,1.56,1.81,3.55,3.08,4.56a6.47,6.47,0,0,0,4.48,1.29,13.34,13.34,0,0,0,5.52-1.93c3.16-1.91,7-1.84,9.54-5.58a2.66,2.66,0,0,1,1-.8c2.74-1.44,5.43-3,8.23-4.22,1.87-.79,3.87-1,4.49-4,.05-.27.91-.26,1.4-.37Z"/><path class="cls-1" d="M108.18,211.46a32.33,32.33,0,0,0,1.37,3.41c1.25,2.33,2.6,4.58,3.91,6.86l-.7.85,2.4.89c-1.26,1.13-2.57,2.3-4.54,4.09l.44-5.26c-1.7-2.09-5.24-2.85-5-7.81l-2.51-.58a.11.11,0,0,0-.09,0Z"/><path class="cls-1" d="M217.28,325.2c9,1.13,18.36.24,26.87,5.87-2.38-.7-4.77-1.38-7.16-2.11-.68-.2-1.39-.84-2-.71C228.85,329.57,223.29,325.22,217.28,325.2Z"/><path class="cls-1" d="M120.48,227.43l-.42,3.94c3.11.19,3.5,1,3.29,7.61l-2-2.23-.75,1.27c-.68-1.72-1.45-3.47-2.08-5.3s-1.21-3.93-1.91-6.27l3.27,0Z"/><path class="cls-1" d="M93,215.33,82.81,199l.75-1,5.88,5.44-.28.74-2.58-1.15c2.69,4.2,5,7.81,7.34,11.43Z"/><path class="cls-1" d="M249.24,265.69a9.05,9.05,0,0,1,1.69-2c3.77-2.34,7.58-4.55,11.38-6.81l.64.75c-.69,1-1.31,2.65-2.1,2.79-3.09.57-5.79,1.58-7,6.24-1.46-3.08-3-2.06-4.62-1Z"/><path class="cls-1" d="M223.92,278.86l4.52-2.23c3.11,3,3.18,3.17,2.79,5.84-1.49,0-3,.54-4.15-.09C225.77,281.65,224.8,279.9,223.92,278.86Z"/><path class="cls-1" d="M45.88,281.06,33.4,272.23l.37-1,2.57,1.33.93-1.69-.91,1.3c1.33.93,2.65,1.85,4,2.79s2.46,2.19,3.82,2.64c1.73.56,2.09,1.65,1.68,3.59Z"/><path class="cls-1" d="M231.66,275.25l10.59,5.94c-2.47,2.3-2.42,2.21-5.45-.72-1.76-1.7-3.72-3.05-5.59-4.56Z"/><path class="cls-1" d="M265.67,311.72v-.13a39.92,39.92,0,0,1-5,3.32c-.87.42-2,0-3-.25-.1,0-.21-1.82,0-2a5.65,5.65,0,0,1,2.83-1.25A38.1,38.1,0,0,1,265.67,311.72Z"/><path class="cls-1" d="M81.07,244.4,86,249.12l-2,1c-2.22-2.28-4.44-4.56-6.63-6.88a10.83,10.83,0,0,1,.55-1Z"/><path class="cls-1" d="M247.74,303.27l-6.42,2.54c-.25-1.42-.56-3.18-.93-5.33l7.35,2.8S247.74,303.27,247.74,303.27Z"/><path class="cls-1" d="M112.64,244.68c.33,1.34.66,2.68,1,4-.49.21-1.18.8-1.44.57-1.31-1.12-2.51-2.46-3.75-3.72a19.07,19.07,0,0,1,2.24-.76A11.6,11.6,0,0,1,112.64,244.68Z"/><path class="cls-1" d="M125.45,350.1,138,339.49l.65,1.42L125.39,350Z"/><path class="cls-1" d="M75.42,197.87l4,14.14-.88.38-3.8-14Z"/><path class="cls-1" d="M162,267.82c-.14-1.45-.26-2.9-.45-4.33-.42-3.21-.88-6.4-1.33-9.6l-.11.12c.79,2,2,3.95,2.26,6.07C162.66,262.57,162.15,265.23,162,267.82Z"/><path class="cls-1" d="M202.4,260.53l5.86-5C208.53,258.41,206.49,260.58,202.4,260.53Z"/><path class="cls-1" d="M112.64,244.68a11.6,11.6,0,0,0-2,.09,19.07,19.07,0,0,0-2.24.76c-.23-.83-.47-1.65-.71-2.48l4-2.53Z"/><path class="cls-1" d="M161.21,342.51l.13,18.78C160.42,355.3,159.11,348.65,161.21,342.51Z"/><path class="cls-1" d="M214.05,306.26l-12.62,4-.13-.72L214,305.24Z"/><path class="cls-1" d="M45.83,281.15a8.07,8.07,0,0,1,2.66.34,54.87,54.87,0,0,1,5.7,3.25c.36.23.51,1,.33,2.35q-4.31-3-8.64-6Z"/><path class="cls-1" d="M238,341.9a47.75,47.75,0,0,1,5.4,0c.47.05.87,1,1.31,1.55-.54.35-1.17,1.13-1.59,1A53.35,53.35,0,0,1,238,341.9Z"/><path class="cls-1" d="M229.63,273.59a15.4,15.4,0,0,1-3.3,2.13c-.66.21-1.53-.61-2.31-1l.16-1.19,5.76-.82Z"/><path class="cls-1" d="M270.22,211.7l-5.43,2.6C265.67,210.79,267.67,209.87,270.22,211.7Z"/><path class="cls-1" d="M110.17,316.71l7.84,4.6-.39,1.05-7.77-4.8Z"/><path class="cls-1" d="M129,227.82l-4.21-2.69,5.58-1.6C130.1,224.47,129.65,225.9,129,227.82Z"/><path class="cls-1" d="M227.8,316.16l-5.7,4.43-.53-1.14,5.77-4.43Z"/><path class="cls-1" d="M249.2,265.68l-2.55,1.21.14.79,4.61,1.5-.2.9-6.32-2.38.24-2,4.1,0Z"/><path class="cls-1" d="M275.3,340.56q4-4.05,8-8.09l.51.89c-3.41,1.4-4,7.75-8.59,7.13C275.23,340.49,275.3,340.56,275.3,340.56Z"/><path class="cls-1" d="M224.3,350.63l6.51,2.83C229.06,354.71,229.06,354.71,224.3,350.63Z"/><path class="cls-1" d="M234.7,314.77l7.38-3.39.3,1.15-7.5,2.92Z"/><path class="cls-1" d="M89.46,336.79c-.64-.3-1.36-1-1.9-.84-2.9.95-3.88-.76-3.84-4.16,4-3.65,4-3.65,6.91-3-.87,1.7-1.66,3.23-2.61,5.05l2,.95c-.22.67-.44,1.33-.65,2Z"/><path class="cls-1" d="M110.84,335.25l4,4.16C110.5,339.87,110.41,339.79,110.84,335.25Z"/><path class="cls-1" d="M199.07,276.88c-.28-.9-.57-1.81-1.13-3.56,3.32,1.26,6.57,1.77,9.09,3.77,1.33,1.05,1.4,4.73,2.31,8.28L199,276.76Z"/><path class="cls-1" d="M237.66,209.81c-3.22,3.24-3.87,9.46-8.81,8.91.2-3.62,3.86-9.75,6.42-10.36C235.87,208.22,236.64,209.16,237.66,209.81Z"/><path class="cls-1" d="M246.67,231.43c1.75,3-.77,5.63-.62,8.32l-10.14.71-.22-2a31.68,31.68,0,0,1,5.13-1.25c1.93-.16,4.6,1.63,3.93-3.45C244.68,233.26,245.79,232.48,246.67,231.43Z"/><path class="cls-1" d="M281.36,213.28l.69-3.44,2.89,2.43,1-4.57,2.28,3c-2.25,1.42-4.19,2.63-6.13,3.84Z"/><path class="cls-1" d="M223.59,260.92l-5.27,4.57c-.46-3,1.24-4.79,4.75-5.51Z"/><path class="cls-1" d="M125.57,252.76c-5.9,3.42-6.31,3.3-8.86-2.41,1-1.76,2.09-3.6,3.19-5.38.11-.18.54,0,.84,0C119.82,250.31,119.82,250.31,125.57,252.76Z"/><path class="cls-1" d="M76.41,284.33l-12.82-8.84.13-.47,5.83,2.45.52-3.22Z"/><path class="cls-1" d="M59.78,279.6c.51-.88,1-1.75,1.8-3.06.69,1.11,1.19,1.95,1.73,2.76a6.49,6.49,0,0,1,1.25,3.11l-4.84-2.89Z"/><path class="cls-1" d="M64.5,270.65A27.78,27.78,0,0,1,68,272c.16.08-.07,1.35-.12,2.07l-3.8-1.7Z"/><path class="cls-1" d="M179.77,292c-.08-3.89,2.07-6.93,5-7.07,3.25-.17,8.15,4.32,8.13,7.44,0,3.62-3.31,8.2-6.09,8.5C183.79,301.17,179.87,296.24,179.77,292Z"/><path class="cls-1" d="M157.41,271.56c-3.46,3-7.88,1.49-10-3.19Z"/><path class="cls-1" d="M151.62,217.51c-.43.25-1,.82-1.28.68-2.26-.91-5.22-7.38-5-10.63l0,.09c1.92,4,5.66,2.77,8.39,4.37-.55,2.26-4.65,1.79-2.16,5.6Z"/><path class="cls-1" d="M145.38,207.56c-1.42,2.24-2.28.88-3.08-.8-.91-1.91-1.82-3.92,0-5.72.22-.21,1.55.74,1.82,1.47a42.65,42.65,0,0,1,1.22,5.16Z"/><path class="cls-1" d="M185,206.32l-4,3.93-.66-.45c1-2.52,1.84-5.09,2.9-7.53a25.88,25.88,0,0,1,2.89-5.39,5.72,5.72,0,0,1,3.43-2.3c4-.37,7.53-2.53,9.95-6.76l-8.9,5.54c.57-2.87,3.32-5.19-.19-7.53.91-1.75,1.52-4.1,2.78-5.14,2.59-2.13,5.65-3.32,8.27-5.41,1.23-1,1.88-3.15,3.19-5.48l2.24.25a18,18,0,0,0,.36-3c-.29-5.53-.51-11.07-1.09-16.55-.2-1.87-1.39-3.57-2.28-5.74,1.69-3.4,1.18-5.56-2.17-8.44-.28-1.71-.47-2.94-.69-4.15a40.32,40.32,0,0,0-.84-4c-.47-1.5-1.11-2.9-1.7-4.33a11.06,11.06,0,0,1-.73-1.61c-.77-3.38-.75-3.39-4.15-3-.14,4.09-.26,8.28-.42,12.47-.44,11.22-.44,22.52-1.47,33.65-1.16,12.51-5.3,24-9.26,35.41l-.75-.36c1.06-3.51,2.19-7,3.15-10.55a4.3,4.3,0,0,0-.18-2.89,46.28,46.28,0,0,0-3.93-4.39l.5,3.24-3,.52c.33,4.16.66,8.3,1,12.45l-.21.05c-2.69-14.36-5.38-28.71-7.92-42.29,1.47-2.87,3.09-5.28,4-8.06,2.06-5.92,3.86-12,5.59-18.07,1.82-6.38,3.47-12.85,5.12-19.3a6.45,6.45,0,0,0-.15-3.62l-2.34,6.47-.55-.17q-.54-9.15-1.07-18.31l-.16.07c-.34,9.78.28,19.82-1.29,29.26-1.6,9.6-5.36,18.6-8.18,27.86l-1-.07c-.45-2.1-1-4.17-1.33-6.31-.75-5.48-1.5-11-1.93-16.5-.11-1.45,1-3,1.6-4.9l-1.82-.41c-.33-6.81-.73-13.75-1-20.71a7.56,7.56,0,0,1,1-3.7c4.47-7.85,5.73-16.62,4.78-26.1-.5,8.58-1.54,16.92-5.81,23.91l-1,0c-.32-3.45-.69-6.88-.93-10.34-.17-2.56-.2-5.15-.23-7.73-.07-4.94-1.09-9.75.6-14.84,1-3.07.26-7.1.3-10.69l-.78-.18-.84,3.86c-1.95-.6-1.95-.6-4.21-8.77a48.94,48.94,0,0,0,.55,5.47c.57,2.77,0,3.53-2.69,2.72,1.08,2.94,2.18,5.87,3.23,8.83.81,2.26,2,4.48,2.24,6.85.49,4.59.54,9.28.58,13.94a25.88,25.88,0,0,1-.92,4.87L164,94.59l-.54.62-4.51-5.36L155,92.64l.22.86-2-.84a4.21,4.21,0,0,0,.11,1.2c4.1,6.82,5.65,15.75,11,21.6.65.71.89,2.32,1,3.56.73,8.82,1.38,17.65,2,26.23l-7.5-1.1-.63,1.06,6.39,10.84-.69.58c-10.21-11.94-11.39-29.55-17.17-44.48l2.59,13.3-2-1.57a6.52,6.52,0,0,0,.52,1.58c4.19,5.4,4.93,12.85,7,19.49,1.92,6.07,5.78,9.94,9.47,14,3.55,3.85,6.79,7.7,7,14.24.07,2,.52,3.45-1,5.39-1.36,1.73-1.46,5.09-2.19,8l-1.29-.29c-1.27,3.23,3.59,6.81-.53,9.88-.89-.68-3.52-.25-1.1-3.79-6.28-3.09-8.56-10.48-11.52-17.23-2-4.48-4.28-8.71-6.44-13l-.31,1.11-5.81-1.76c3,4.27,8.88,5,9.48,12.95L146.23,177c2.56.37,5,0,6.79,1.19s3.06,3.82,4.33,5.54c-1.46,2.52-2.58,4.44-3.7,6.36l-.06,1.37c7.47-2.39,10.07,3.35,12.14,10.52L162.88,203c5.24-1,7.51,4.84,11,7.81-11.09-1.65-20.72-9.41-27.07-21.82-4.44-8.68-8.61-17.56-10.11-28-.64-4.44-.86-9-1.07-13.5-.15-3.21-.41-6.59.2-9.62.87-4.36,2.49-8.46,3.8-12.67a8,8,0,0,0,.53-1.31c.46-4.79.74-9.62,1.39-14.37a22,22,0,0,1,2-6.29c1.68-3.57,4.28-6.48,3.71-11.42-.16-1.43,1.17-3,1.55-4.69,1.29-5.65,2.68-11.21,2.74-17.27a74.1,74.1,0,0,1,1.63-13.52c.5-2.58,1.93-4.85,2.83-7.32.22-.62-.09-1.51,0-2.25.24-2.41,0-5.29.94-7.11a17.14,17.14,0,0,0,1.65-9.48c0-.45.16-.91,1-1.72,1.24,3,2.5,5.94,3.72,8.94,1.41,3.47,2.79,7,4.18,10.45,1.27,3.22,2.42,6.52,3.84,9.63,1.18,2.59,2.69,4.94,4,7.41a7.86,7.86,0,0,1,.6,1.32c1.26,3.66,2.34,7.44,3.79,11,.84,2,2.27,3.66,3.4,5.5a5.68,5.68,0,0,1,1,2.15,14.61,14.61,0,0,0,5.11,9.48,1.49,1.49,0,0,1,.47,1c-.51,4.38,1.9,7.55,3.5,10.45,1.86,3.4,1.72,7.94,4.6,10.75,1.49,1.45,2.12,4.56,2.84,7.07,1.2,4.12,2.07,8.39,3.24,12.53,1.1,3.88,2.87,7.55,3.5,11.53a91,91,0,0,1,1,15.84c-.28,13.81-4,26-12.3,35.07-3.18,3.49-7.5,5.27-11.3,7.84,3.07-2.8,6.15-5.59,10.07-9.15-2.91-.24-5.59-1.52-6.85-.33-2.38,2.27-3.95,6-6.1,9.43ZM150.8,135.46c-.85,1-1.81,1.54-1.93,2.31-.51,3.28,2.56,9.91,5.11,11.49C156.21,143.59,152,140.5,150.8,135.46Zm19-2.71c.44,1.44.59,3.05,1,3.16,3.92,1.09,1.63,3.61,1,6a64.18,64.18,0,0,0-1,6.57l1.51.48,3.25-12.34C173.58,135.76,172.62,131.79,169.79,132.75Zm-.26-48.06,1.2-.41c-.16-2.76-.32-5.52-.5-8.73l-3,1.6,2.93,2.9-2.83,2.54Zm13,86.51-.87.26c-.78,4.45-.13,7.13,2.23,7.7C183.45,176.37,183,173.78,182.57,171.2Z"/></svg>