<svg id="Layer_1" data-name="Layer 1" xmlns="http://www.w3.org/2000/svg" viewBox="0 0 333.82 432"><defs><style>.cls-1{fill:#8dc63f;}.cls-2{fill:#fff;}</style></defs><title>plane</title><path class="cls-1" d="M351.2,173.13c-2.59,4.08-1.48,6.6,2.23,7.94-.38,2.27-.65,4.5-1.16,6.68-.25,1.1-.66,2.56-1.48,3.07-5.28,3.28-6.25,9.48-9.78,13.86-3,3.66-6.72,6.67-10.13,10-2.62,2.53-4.86,5.71-7.93,7.46-7.14,4.06-11.41,11.84-19.74,14.36l-1.8-3.59c-5.85,2.37-11.5,4.58-17.06,7a14.58,14.58,0,0,0-3.47,2.6c-1.38,1.17-2.5,2.75-4,3.58-5.31,2.88-10.66,7.46-16.18,7.75-7.17.37-11.21,6.79-18.18,7.16.38-1.21.61-1.93,1.29-4.11-2.3,2.05-3.65,3.23-5,4.44a30,30,0,0,1-3.53,3.25c-1.2.79-3.29.72-4,1.72-3.67,5.2-8.67,3.82-13.52,3.07-7.39-1.13-14.77-2.33-22.1-3.75-1.79-.34-3.38-1.68-5.06-2.55a47.58,47.58,0,0,1,2.91-4.95c4.58-6,9.33-11.95,13.84-18,1-1.35,1.32-3.2,2-4.83l-1.53-1c-5.26,6.94-10.86,13.65-15.59,20.93-1.52,2.35-6.07,4.26-3.32,8.51l-4.48,2c.24-2.76,1-4.52.4-5.54-4.13-7.36-8.6-14.54-12.83-21.85-4.08-7-8.08-14.14-11.94-21.3a20.72,20.72,0,0,1-2.29-6.54c-2.19-14-1.93-27.95-.3-42.1,1.35-11.8.72-23.85.59-35.78-.12-9.93,3.83-18.41,8.25-26.88,3.73-7.14,6.87-14.61,11-21.53,5.23-8.85,10.83-17.53,16.9-25.81,3.51-4.8,5.76-4.37,9.87.23A33.28,33.28,0,0,1,207.25,63c3.95,6.3,8.06,12.51,11.67,19,2,3.58,3.11,7.64,4.55,11.51.35.92.27,2,.63,2.91a75.05,75.05,0,0,1,5.12,37.53c-.33,2.77.31,6.44,2,8.53,6.83,8.56,4.53,18,3.28,27.26-.91,6.73-2.65,13.35-3.93,20-.24,1.26,0,2.62,0,5.34,4.28-1.56,8-2.9,11.73-4.27,6.64-2.46,13.26-4.94,19.9-7.38,1.4-.52,3-.65,4.27-1.37,7.88-4.55,16.64-5.44,25.4-6.53,3.08-.38,6-2,9.06-2.46,6.36-.93,12.79-2.1,19.17-2C330.19,171.23,340.28,172.36,351.2,173.13Z"/><path class="cls-1" d="M23.22,189.47c2.57-1,4.45-2.22,6.46-2.53,11.76-1.83,23.4-4.66,35.54-2.15,6.3,1.31,12.91,1.12,19.36,1.75a6.07,6.07,0,0,1,3.57,1.39c4,4.14,8.73,4.44,13.82,2.86,3.2-1,5.48.12,7.39,2.61,3,3.91,7.09,5.44,11.9,6.47s9.52,3.66,14.24,5.63c1.06.44,2.15,1.69,3,1.52,9.47-1.81,14,4.68,18.58,11,.94,1.3,1.65,4.06.94,5-2.84,3.88-.13,5.78,1.89,8.49,7,9.47,13.76,19.15,20.56,28.79,2.57,3.64,2.13,6-2.16,6.84-11.37,2.13-22.85,3.66-34.31,5.25-4.73.66-9.51,1-14.29,1.26-2.71.13-5.8.42-8.12-.65a238.28,238.28,0,0,1-23.2-12.07c-3-1.79-4.55-5.69-7.25-8.09-8.28-7.36-16.67-14.63-25.27-21.62-5-4.06-10.66-7.29-15.65-11.34-2.62-2.12-4.33-5.33-6.66-7.85s-4.38-5.11-7.14-6.69C30.16,201.7,27,195.86,23.22,189.47Z"/><path class="cls-2" d="M318.13,195.59l7.57-13.09c1.28,3.2,1.95,4.85,2.66,6.61L319.8,197Z"/><path class="cls-2" d="M191.61,210.06,199.18,197c1.28,3.2,1.95,4.85,2.66,6.61l-8.56,7.86Z"/><path class="cls-2" d="M191.61,114.76l7.57-13.08,2.66,6.61-8.56,7.86Z"/></svg>