<svg id="Layer_1" data-name="Layer 1" xmlns="http://www.w3.org/2000/svg" viewBox="0 0 333.82 432"><defs><style>.cls-1{fill:#99c864;}</style></defs><title>redwood</title><path class="cls-1" d="M158.42,46c.51-.28,1-.53,1.5-.82,3.2-1.88,6.4-3.76,9.57-5.68a1.11,1.11,0,0,0,.54-.88c0-.22-.54-.43-.87-.67l.5-1c-1.47-.3-2.44,0-2.65,1.55l-.54-.63c-.35.22-.66.45-1,.63a15,15,0,0,0-2.61,1.27c-1.47,1.13-2.76,2.44-4.19,3.62C157.77,44.2,157.38,44.93,158.42,46Z"/><path class="cls-1" d="M153.23,40.54c.49,1.52,1.21,3,1.82,4.49l.59,0c.06-.42.32-.92.15-1.25a15.91,15.91,0,0,1-1.26-4.23,38.92,38.92,0,0,0-1.18-4.32c-.83-2.39-1.77-4.75-2.67-7.13l-.69.05a5.84,5.84,0,0,0,0,1.72C151,33.42,152.08,37,153.23,40.54Z"/><polygon class="cls-1" points="155.72 59.71 155.72 59.71 155.73 59.71 155.72 59.71"/><path class="cls-1" d="M240.21,274.09c-3.51.83-7,1.79-10.44,2.71a6.84,6.84,0,0,0-1.07.53,2,2,0,0,0-.79-.07c-1.23.36-2.44.78-3.64,1.2-1.55.54-3.08,1.11-4.64,1.65-.42.15-.91.17-1.31.35q-5.46,2.3-10.89,4.64c-.71.3-1.41.64-2.08,1-1.12.61-2.13,1.66-3.34,1.8-2.33.27-3.21,2.56-5.54,2.63-2.53,2.08-5.9,3.21-8.05,5.79-.92,1.12-1.62,2.3-1.09,3.7l1.72.18-1.11,1.34c1.46,1.17,2.23,1.35,3.81.46,2.68-1.49,5.25-3.12,7.86-4.72a10.82,10.82,0,0,0,1.23-1.08c.89.11,3.6-1.36,3.8-2.16.83-.3,1.59-.49,2.26-.81,3.32-1.6,6.55-3.33,9.92-4.83s6.77-2.94,10.29-4.13c5-1.69,10-3.16,15.06-4.67,3.7-1.1,7.45-2.08,11.14-3.21a3.48,3.48,0,0,0,1.44-1.26c.09-.12-.21-.61-.44-.83s-.5-.15-.91-.26l1-.82c-1.37-1.05-2.8-.74-4.13-.64-1.58.13-3.12.47-4.67.7C243.78,273.55,241.94,273.69,240.21,274.09Z"/><path class="cls-1" d="M228.53,375.45c6-1.15,12-2.42,18-3.64,1.51-.31,3.1-.4,4.55-.84,1.74-.53,3.82-.69,4.81-2.58l-2.58-.26c0-.07,0-.14,0-.2l2.21-.51c0-.11,0-.23,0-.34a8.74,8.74,0,0,0-2.5-.83q-5.44,0-10.85.21c-2.14.1-4.25.41-6.36.7-1.63.22-3.22.59-4.85.85-1.21.2-2.46.28-3.67.47s-2.54.45-3.79.72c-.21.05-.34.32-.5.49l2.82,5.21C226.56,376.1,227.72,375.6,228.53,375.45Z"/><path class="cls-1" d="M248.38,380.47l2.55-.44.15-.33a16.36,16.36,0,0,0-2.56-1.25c-3.74-1.09-7.48-.66-11.21-.57-2.66.06-5.28.38-7.93.57-.63,0-1.24.07-1,.89-.35-.17-.74-.51-1.05-.47-2.92.35-5.83.76-8.74,1.17-2.63.36-5.27.68-7.88,1.11a33.65,33.65,0,0,0-3.88.91c-2.73.77-5.68,1.11-7.92,2.86-1.26,1-2.88,1.7-3.11,3.47-.07.47-.09.95-.14,1.42l-.38,0a7.89,7.89,0,0,1-.36-1.68,19.81,19.81,0,0,1,.3-2.87c.19-1.12.48-2.22.77-3.54a6.08,6.08,0,0,0,5.07.71c4.25-1.18,8.43-2.52,12.7-3.64,3.66-1,7.4-1.73,11.11-2.58.75-.17,1.36-.43,1-1.34L223,369.69a3.88,3.88,0,0,0-1.37-.24c-1.9.45-3.76,1-5.66,1.49-2.5.61-5.07,1.06-7.55,1.72s-4.65,1.46-7,2.2a13.85,13.85,0,0,1,1.44-.84c2.6-1.08,5.18-2.2,7.83-3.18,2.87-1,5.82-1.92,8.69-2.95.72-.26,1.88-.12,1.89-1.26a4.36,4.36,0,0,0,1.43.3c2.85-.5,5.68-1.09,8.51-1.62,4.93-.93,9.88-1.76,14.76-2.8a28.17,28.17,0,0,0,5.22-1.93c.55-.23.87-.84,1.35-1.33l-1.06-.18.7-1.05a24.53,24.53,0,0,0-4-.73,49.65,49.65,0,0,0-6.35.31c-3.15.35-6.41.41-9.21,1.88-1.38.63-2.74,1.3-4.15,1.89,1.41-.59,2.77-1.26,4.16-1.89.24-.63,0-.74-.68-.63-1.64.26-3.3.41-4.92.72-2.56.49-5.09,1.09-7.65,1.58-.78.15-1,.46-.69,1.12l1.35,2.45h0l-1.35-2.45c-.46-.24-1-.77-1.37-.69-2.3.51-4.58,1.08-6.8,1.77-1.71.52-3.35,1.24-5,1.9-1.47.58-2.94,1.16-4.36,1.82-2.7,1.26-4.93,2.89-5.21,6.09a3.57,3.57,0,0,1-.94-1.87c.06-2.36.25-4.7.44-7.05.06-.66.38-.88,1.24-.54a4,4,0,0,0,2.41.32c2.2-.65,4.3-1.51,6.43-2.29,3.18-1.17,6.37-2.31,9.53-3.52.38-.14.58-.63.87-.95.41.1.88.37,1.2.29,2.55-.7,5-1.53,7.6-2.19,4.08-1.05,8.19-2,12.31-3,2.26-.53,4.53-1,6.83-1.45,4.43-.79,8.91-1.43,13.31-2.3,1.35-.26,2.85-.65,3.67-2.2l-2.24-.21c0-.07,0-.13,0-.2l2-.6c-.65-.36-1.06-.77-1.5-.81a59.18,59.18,0,0,0-6.76-.45,56.77,56.77,0,0,0-5.64.7c-3.83.46-7.68.83-11.49,1.37-2.11.3-4.14.88-6.21,1.33-2.91.62-5.84,1.2-8.73,1.87-2.27.53-4.5,1.16-6.71,1.81-.29.09-.38.61-.56.93-.37-.84-1-.47-1.52-.32-2.29.7-4.63,1.32-6.82,2.21-3.38,1.37-6.82,2.73-9.27,5.58a13.23,13.23,0,0,1-.72-4.07c0-1,.84-1.1,2-.95a6.83,6.83,0,0,0,3.13-.34c1.51-.57,2.84-1.46,4.3-2.14,2-.93,4-1.76,5.94-2.69.46-.22,1.38-.33.78-1.22.52.12,1.12.44,1.53.32,2.43-.69,4.78-1.57,7.23-2.22q5.85-1.56,11.79-2.89c2.83-.63,5.71-1.14,8.59-1.61,2.18-.35,4.41-.52,6.61-.82,3.7-.5,7.4-1,11.08-1.61a19,19,0,0,0,3.23-1.16l-1.77-.83,1.63-.39a7,7,0,0,0-1.7-1.17c-3.92-1-7.84-.81-11.72-.56-3.57.23-7.11.63-10.67,1-1.88.18-3.79.3-5.63.64-3.13.58-6.15,1.58-9.31,1.92-4.47.49-8.44,2.12-12.64,3.22-.7.18-1.53.48-.87,1.47A1.67,1.67,0,0,0,206,343c-1.21.54-2.5,1-3.72,1.52a4.2,4.2,0,0,0-1,.84c-.23.21-.71.15-1,.34a33,33,0,0,0-3.81,3,3.49,3.49,0,0,0-.73,4.57c-.43-.07-1.1-.23-1.15-.45a30.4,30.4,0,0,1-.48-3.54c-.18-2-.32-4.08-.47-6.12a2.12,2.12,0,0,1,.1-.41l1,.18c-.69,1.07-.37,1.72,1,1.8a6.71,6.71,0,0,0,2.79-.44,41.56,41.56,0,0,0,4.75-2.29,29.25,29.25,0,0,0,2.89-2.07,3.91,3.91,0,0,0,1.21-.1c4.17-1.86,8.22-3.95,12.5-5.58,4.49-1.71,9.16-3.08,13.82-4.42,3.39-1,6.9-1.71,10.36-2.53,2.5-.59,5-1.15,7.53-1.7,2.07-.46,4.16-.84,6.2-1.37,1.13-.3,2.31-.7,2.57-2.18l-2.87.09,0-.25,2.2-.78c0-.1,0-.2,0-.31a5.46,5.46,0,0,0-1.54-.51,38,38,0,0,0-6.75,0c-6.31,1-12.57,2.19-18.82,3.36-2.66.5-5.32,1-7.88,1.75-3.32,1-6.55,2.13-9.79,3.26a46,46,0,0,0-4.64,1.89c-1.13.54-2.11,1.3-3.2,1.93a2.49,2.49,0,0,1-1,.24,3.64,3.64,0,0,0-2.9,1.94,5.07,5.07,0,0,0-1.39-.06c-.36.08-.61.44-.93.64-1.32.79-2.7,1.5-3.95,2.36s-2.16,1.77-3.43,2.82c-.55-2.24-1.53-4.22-1.09-6.31.29-1.41.53-1.47,2.14-1.09a1.68,1.68,0,0,0,1,0c1.72-.77,3.41-1.56,5.09-2.39.15-.08.09-.46.13-.7a4,4,0,0,0,1.31-.1c2.81-1.34,5.49-2.9,8.39-4.07q6.74-2.73,13.71-5a111.8,111.8,0,0,1,17.76-4.36c3.06-.49,6.09-1.09,9.09-1.77,1.14-.26,2.49-.52,2.74-1.91-.34-.23-.78-.38-.87-.62-.57-1.46-1.86-1.52-3.16-1.59a15.1,15.1,0,0,0-1.78,0c-3,.16-5.92.23-8.83.56-2.41.27-4.76.84-7.11,1.34-2.51.52-5,1.06-7.5,1.71-1.53.4-2.93,1.24-4.49,1.47a21.33,21.33,0,0,0-5.32,1.61,2.79,2.79,0,0,1-.63.3,9.94,9.94,0,0,0-5,1.84,4.23,4.23,0,0,1-.78.31l-1.78.74c-.78.34-1.76.35-2.55.68a52.47,52.47,0,0,0-4.8,2.41c-.65.37-1.49.78-1.11,1.78-.52-.64-1-.45-1.51-.05a12.17,12.17,0,0,0-1.68,1.28,13.84,13.84,0,0,0-2.13,3c-.21.42.33,1.18.5,1.8,0,.16,0,.42-.08.5a.61.61,0,0,1-.54-.08c-.4-.52-1-1.06-1.06-1.61-.31-2-.48-4-.6-6,0-.27.8-.76.82-.74,1.33,1.12,2.65.46,3.65,0,3.13-1.52,6.09-3.29,9.17-4.9,3.28-1.71,6.52-3.51,9.94-5,3.88-1.67,8-3,11.92-4.52a116.27,116.27,0,0,1,11.24-4c3.18-.87,6.4-1.66,9.59-2.49s6.4-2.06,9.75-2.76c1.23-.26,2.41-.81,2.7-2-.13-.42-.27-.85-.46-1.42a1.17,1.17,0,0,1-.81-1.79l-1.56-.69,1.08-.1.13-.39c-.54-.24-1.08-.5-1.64-.71-.32-.13-.68-.15-1-.25a28.85,28.85,0,0,0-9.57-1c-1.71.05-3.42.08-5.13.14-2.32.08-4.65.11-6.92.4-3.28.41-6.55.92-9.76,1.58-4.18.85-8.35,1.74-12.41,2.89-3,.85-5.76,2.34-8.79,3.15-2.78.74-4.94,2.36-7.46,3.45a14.1,14.1,0,0,0-4.24,3.07,11.16,11.16,0,0,0-1.72,3.24c-.1.2.1.51.11.77,0,.43,0,.86-.06,1.44a4.77,4.77,0,0,1-.7-.39,1.11,1.11,0,0,1-.3-.39,24.75,24.75,0,0,1-1.26-6.93,17.37,17.37,0,0,0-1.18-5.5c-.69-1.79-1.42-3.5-1.16-5.38.17-1.17.64-1.6,1.62-1.32,2.18.65,2.8.24,2.66-1.95a2.68,2.68,0,0,0,3-.25c3.11-2.07,6.24-4.14,9.51-6a65.06,65.06,0,0,1,6.6-2.87c2.84-1.2,5.62-2.53,8.55-3.54,3.39-1.17,6.87-2.19,10.41-3,4.14-1,8.38-1.74,12.59-2.56,2.86-.56,5.78-1,8.62-1.62a4,4,0,0,0,1.78-1.38c.09-.11-.42-.93-.79-1.08a11.68,11.68,0,0,0-3.6-1.06,45.73,45.73,0,0,0-7,.24c-4.46.51-9,1-13.3,1.86a113.32,113.32,0,0,0-12.59,3.56c-1.9.63-4.2.77-5.63,2.42l-.36-.24a12.18,12.18,0,0,1-1.28.61,15.38,15.38,0,0,0-1.89.53c-3.65,1.81-7.32,3.6-10.89,5.54a29.67,29.67,0,0,0-5.12,3.46c-1.86,1.59-3.47,3.43-2.61,6.3-.63-.58-1.4-1.2-1.53-1.88-.54-2.79-.89-5.6-1.32-8.45.32,0,.52,0,.55.07a3.06,3.06,0,0,1,.25.63,1.69,1.69,0,0,0,2.5,1.18,17,17,0,0,0,2.57-1.68c1.47-1.15,2.86-2.39,4.32-3.56,1.75-1.41,3.54-2.78,5.3-4.17a30.32,30.32,0,0,1,2.74-2.2c1.54-1,3.17-1.83,4.82-2.66,1.29-.64,2-2.06,3.74-2.09.1,0,.2-.12.29-.19a13.19,13.19,0,0,1,2.47-2c2.53-1.19,5.17-2.19,7.76-3.29,1.3-.56,2.58-1.15,3.87-1.73l3.12-1.05h0a10.13,10.13,0,0,0,2.32.08c1.08-.23,2.07-.72,3.12-1,.58-.17,1.23-.17,1.82-.3l11.92-2.71c1.61-.37,3.24-.7,4.81-1.18a1.6,1.6,0,0,0,.74-1.05,7.69,7.69,0,0,0-2.29-1.68,5.6,5.6,0,0,0-4.57.3l.67-1-2.6.08c0-.13-.07-.26-.11-.39.56-.19,1.1-.42,1.68-.58,1.29-.35,2.62-.62,3.9-1a4.83,4.83,0,0,0,1.19-.86c-.49-.37-.94-.55-1.05-.82-.54-1.36-.51-1.37-2.08-1.43a50.1,50.1,0,0,0-5.6-.17c-3.06.23-6.09.65-9.12,1.06-1.27.17-2.48.56-3.75.73-1.45.2-3,.13-4.4.43-3.38.72-6.72,1.57-10.06,2.41-.63.16-1.16.75-1.77.75a10.68,10.68,0,0,0-3.86.79c-.85.34-1.54,1-2.39,1.33-1.57.62-3.26,1-4.8,1.69-2,.87-3.95,1.86-5.85,2.89-1.38.75-2.66,1.64-4,2.46l-2.25,1.4c-.37.23-.73.47-1.09.71-.45.44-1,.73-1.4,1.09a18.84,18.84,0,0,1-2.55,2.1,5.05,5.05,0,0,0-2.44,2.56c-.44,1.12-1.15,2.22-.16,3.52.09.13,0,.38,0,.57l-.39,0c-1.54-3.29-1.35-6.78-1.88-10.28.39.18.81.46.83.74a1.43,1.43,0,0,0,2,1.32,9.52,9.52,0,0,0,2.29-1.11c3-2.06,5.89-4.25,8.95-6.24,3.24-2.11,6.55-4.15,10-6,3.63-2,7.37-3.8,11.16-5.52s7.6-3.31,11.5-4.78c3-1.13,6.12-2,9.22-3,1.93-.58,3.89-1.06,5.85-1.57,1.31-.34,2.66-.6,4-1a14.5,14.5,0,0,0,1.57-.8c1.09-.46,2.22-.86,3.3-1.33.21-.09.3-.39.44-.59a3.8,3.8,0,0,0-.76-.31c-.46-.11-.92-.15-1.39-.22a2,2,0,0,1,0-.25l1.72-.6c-.74-.32-1.17-.66-1.57-.65-1.46,0-2.92.09-4.36.21-.51,0-1,.37-1.48.41a30.68,30.68,0,0,0-3.48.14,123.79,123.79,0,0,0-20.76,5.5c-5.35,2.07-10.46,4.57-15.66,6.91a6.08,6.08,0,0,0-1.24,1c-1.35.67-2.86,1.14-4.22,1.84s-2.17,1.63-3.66,2c-.63.13-1.11.74-1.62,1.16a46.51,46.51,0,0,1-3.6,3c-1.5,1-3.2,1.77-4.79,2.67-.22.13-.29.45-.48.64-1.37,1.34-2.74,2.66-4.26,4.13-.34-.94-.56-1.57-.78-2.2-.44-1.29-.92-2.57-.23-3.86.31-.57.64-.83,1.38-.5a2.41,2.41,0,0,0,2.69-.45c1.17-.94,2.32-1.89,3.51-2.81,2-1.53,3.93-3.11,6-4.55a73.39,73.39,0,0,1,6.52-4.15c3.24-1.77,6.59-3.38,9.92-5a51.77,51.77,0,0,1,5.6-2.44c2.68-.94,5.47-1.67,8.21-2.51l11.8-3.64c2.52-.78,5.07-1.5,7.57-2.32a2.55,2.55,0,0,0,2.14-2.4l-3.14.44-.12-.27,2.62-.8c-1.08-1.17-2.16-.85-3.06-.72-2.9.41-5.79.88-8.63,1.47-3.51.74-7,1.62-10.43,2.47-.67.16-1.26.52-1.92.7s-1.56.23-2.28.46a46,46,0,0,1-4.42,1.51,7.08,7.08,0,0,0-3.8,1.78l-2.36.28c.12.45.19.7.32,1.15-2.15-.87-3.49.33-5.09.86s-2.82,1.76-4.44,2.43a53.8,53.8,0,0,0-7.59,4.28,8.17,8.17,0,0,0-3,2.35c-.66,1.05-2.1,1.66-3.23,2.44a5.47,5.47,0,0,1-1.12.43c0,.17,0,.56-.15.72a22.63,22.63,0,0,1-2.08,1.52,4.93,4.93,0,0,0-1.32,5.25,3,3,0,0,1,.15.8l-.59.09a31.55,31.55,0,0,1-1.15-3.44c-.27-1.22-.15-2.48-.45-3.7-.51-2.06-.63-2.93-.1-3.41.39,1.61,1.59,2.16,3.25,1.4a8.69,8.69,0,0,0,2-1.32c2.71-2.26,5.36-4.59,8.1-6.81,2.35-1.91,4.85-3.67,7.19-5.58,1.93-1.57,4.67-2.27,6-4.47.07-.12.4-.07.58-.15,1.08-.5,2.16-1,3.23-1.54.34-.17.6-.48,1-.65,2.08-1.05,4.21-2,6.27-3.12s3.91-2.3,6-3.33c1.17-.6,2.57-.86,3.78-1.4,1.73-.77,3.34-1.76,5.1-2.49s3.73-1.27,5.59-1.91c1-.35,2.28-.51,2.95-1.16.51-.5,2.18-.66,1.26-2l.89,1.14a10.25,10.25,0,0,0,2-1.27,1.4,1.4,0,0,0,.16-1.35,2.42,2.42,0,0,0-3-1.38c-.52.11-1.59-.25-1.36.86-.49-.14-1.05-.48-1.44-.38-2.31.59-4.65,1.15-6.85,2q-8.46,3.1-16.81,6.42a68,68,0,0,0-6.92,3.2c-3.86,2.08-7.64,4.25-11.39,6.46-1.4.83-2.61,1.89-3.91,2.84-.42.31-.85.6-1.43,1-.12.15-.28.59-.62.8a37.69,37.69,0,0,0-3.56,2.08c-1.74,1.36-3.34,2.89-5,4.38a7.89,7.89,0,0,0-.94,1.21,12.78,12.78,0,0,0-1.56,1.27c-.31.34-.34.9-.68,1.2a1.3,1.3,0,0,1-1.08,0c-.82-1.44-1.43-2.91-.71-4.47.24-.53.49-.67,1.22-.6a4.75,4.75,0,0,0,2.71-.39,30.47,30.47,0,0,0,3.47-2.84,95.3,95.3,0,0,1,8.17-6.83c3.73-2.52,7.78-4.68,11.77-6.88a82.42,82.42,0,0,1,9.91-4.54c2.13-.82,4.22-1.74,6.42-2.41,1.35-.41,2.44-1.4,4.1-1.22.48.05,1-.55,1.48-.85l-.18-.28a7.4,7.4,0,0,0,1.88,0c1.23-.36,2.36-1,3.6-1.29,1.63-.43,3.32-.68,5-1,.52-.11,1-.48,1.51-.4.8.14.85-.26.94-.73a5,5,0,0,0,1.8.5,2.07,2.07,0,0,0,2-1.76c-1.27.12-2.38.19-3.45.37-.18,0-.22.56-.32.85l-1.38-1.58c1.26.39,3.73,0,4.39-.79a14.24,14.24,0,0,0-1.78-.47c-2-.28-2.56,0-2.65,1.17a1.22,1.22,0,0,0-1.66-.85,32.84,32.84,0,0,1-3.62.41,56.72,56.72,0,0,0-5.73.64c-3.36.71-6.72,1.48-10,2.49-4,1.26-8,2.67-11.88,4.25-3.3,1.36-6.44,3-9.6,4.64-3.91,2-7.78,4-10.74,7.21a46.94,46.94,0,0,1-4.07,3.23,14.81,14.81,0,0,0-4,5.85c-1.18-2.39-.47-5-1.27-7.49.32,0,.63-.2.87-.12a4.29,4.29,0,0,0,4.24-1c1.31-1,2.52-2.13,3.85-3.12,1-.72,2.06-1.3,3.09-2,3.24-2,6.45-4,9.71-6,2.1-1.26,4.21-2.52,6.42-3.62,2.88-1.41,5.87-2.64,8.8-4,1.56-.72,3-1.62,4.65-2.22,2.56-.95,5.19-1.75,7.82-2.55,5.44-1.64,10.91-3.21,16.35-4.87,1.36-.42,2.93-.63,3.74-2.22l-2.73-.21,1.69-.85c-1.69-1.08-4.94-.86-6.06.4-1.42-1.38-2.55,0-4.06,0l.82.87c-1-.18-1.88-.8-2.51-.67-3.74.79-7.45,1.7-11.13,2.68-1.81.49-3.52,1.25-5.31,1.82-3.33,1.05-7,1.5-9.68,3.78-.07.06-.23,0-.34.05a5.37,5.37,0,0,0-1.37.27c-.83.4-1.56,1-2.41,1.35-1.29.55-2.72.87-4,1.48s-2.63,1.59-4,2.33c-1.93,1.05-4,2-5.86,3.05s-3.46,2.28-5.23,3.37a24,24,0,0,0-6.61,5.76,13.22,13.22,0,0,1-1.31,1.27c-1.21-2.51-1.35-3.41-.88-4.71a.88.88,0,0,1,1.18-.68,3.49,3.49,0,0,0,3.24-1,39,39,0,0,1,4.75-3.81c2.85-2,5.76-3.9,8.74-5.72a74.69,74.69,0,0,1,6.79-3.63c4-1.91,8.06-3.83,12.22-5.51,3.46-1.4,7.1-2.45,10.67-3.65,1.7-.57,3.42-1.13,5.13-1.68l3.05-1c2-.63,4.09-1.22,6.09-1.91.36-.12.53-.62.79-1-.47,0-.95-.13-1.42-.13-.68,0-1.36.09-2.05.14l2.94-1.06-.14-.44a16.59,16.59,0,0,0-2.73,0c-2.34.37-4.66.83-7,1.29-.66.12-1.25.47-1.9.55-1.36.16-2.75.19-4.12.31-.17,0-.3.23-.48.3a24.79,24.79,0,0,1-2.55.89c-.59.16-1.3,0-1.87.2-4,1.25-8.07,2.45-12,3.87-3,1.09-5.87,2.41-8.73,3.75-2.56,1.21-5.08,2.5-7.51,3.9s-4.69,2.91-7,4.45c-.63.42-.93,1.42-1.6,1.58a5.31,5.31,0,0,0-3.09,2.52c-.87,1.18-2.36,2.21-1.82,4,0,.12-.25.29-.47.52-1.08-2.89-.85-5.66-.92-8.41,0-.19.53-.43.86-.49.79-.14,1.79.06,2.4-.3,2.47-1.44,4.85-3,7.21-4.6.73-.49,1.17-1.31,1.9-1.79,1.92-1.25,4-2.35,5.88-3.59,3.29-2.12,6.47-4.35,9.78-6.43,2-1.26,4.2-2.33,6.3-3.48l4.91-2.71a8.48,8.48,0,0,1-1-.51c-.67-.47-1.68-.89-1.87-1.47-.38-1.21-1.51-1.75-2-2.56a7.13,7.13,0,0,1-1,.6,15.89,15.89,0,0,0-1.77.55c-2.4,1.21-4.82,2.42-7.15,3.74-4,2.26-8.08,4.46-11.9,7-4,2.61-7.72,5.52-11.49,8.38a11,11,0,0,0-1.77,2.35,5.33,5.33,0,0,1-1.14-3.62c0-1.34.74-1.92,2.16-1.68a2.27,2.27,0,0,0,1.5-.23c.89-.63,1.63-1.42,2.46-2.12,2.62-2.23,5.17-4.51,7.88-6.64a95.18,95.18,0,0,1,8.9-6.5c3.29-2,6.9-3.62,10.41-5.35.71-.35.89-.75.53-1.38a37.47,37.47,0,0,0-2-3.19,1.48,1.48,0,0,0-1.2-.43c-3.36,1.35-6.81,2.59-10,4.24s-5.9,3.67-8.81,5.57a22.25,22.25,0,0,0-2.73,2.07c-2.17,2-4.34,3.91-6.39,6a35.1,35.1,0,0,0-2.77,3.54,8.27,8.27,0,0,0-.54.87l-.9-2a3.26,3.26,0,0,0,.33-1.06c0-1.24-.12-2.48-.13-3.71a5,5,0,0,1,.34-1.21,3.19,3.19,0,0,0,3.91.16c1.33-.79,2.51-1.79,3.81-2.64,4.41-2.88,8.79-5.8,13.28-8.58,2.87-1.78,5.91-3.36,8.91-5,1.16-.62,1.48-1.55.42-3,.73.25,1.29.29,1.48.54.86,1.13,1.67.78,2.6.31,1.54-.78,3.08-1.58,4.7-2.21,3.8-1.5,7.64-2.91,11.48-4.35A3.76,3.76,0,0,0,218,149a9.1,9.1,0,0,1,.64-2.37,1.25,1.25,0,0,0-.28-1.74l-4.23,1.21-.15-.33v.67c-.46-.09-.9-.3-1.21-.21-2.39.67-4.78,1.37-7.13,2.13-1.33.44-2.56,1.06-3.87,1.53-1,.37-1.84.77-2.17,1.92-.23.8-1.19,1.37-1.82,2.06a10.18,10.18,0,0,0-1.16,1.39,10,10,0,0,0-.61,1.66l-1.47-.93c1.27-.35,1.65-.86,1.27-1.89-.13-.37.37-.95.71-1.33a5.67,5.67,0,0,1,1.08-.88c-1.64.56-3.58,1.13-5.42,1.88a46.74,46.74,0,0,0-4.76,2.35c-4,2.19-7.93,4.39-11.83,6.66-1.4.82-2.48,2.08-4,2.76-2.16,1-3.62,2.6-5.24,4.08a25.63,25.63,0,0,0-2,2.3h-.35a26.57,26.57,0,0,1-.45-3.61c0-1,.5-1.63,1.84-1a1.74,1.74,0,0,0,1,0c2.53-.49,3.91-2.3,5.51-3.86a23.22,23.22,0,0,1,3-2.93,53,53,0,0,1,6.92-4.07c5-2.33,10.09-4.43,15.12-6.68.72-.33,1.63-.84,1.79-1.45.22-.83.77-.87,1.54-1.21l-.49,1.69,17.6-5.52c-.55-1.36-1.25-1.86-2.66-1.46-2.48.7-4.88,1.58-7.3,2.42-.85.29-1.74,1.06-2.48.9a2.17,2.17,0,0,0-2.86,1.33l-1-1a3.13,3.13,0,0,1,.63-.47c3.58-1.48,7.36-2.61,10.72-4.49a5.27,5.27,0,0,1,6.37,1.26,1.24,1.24,0,0,0,.86.33,16.52,16.52,0,0,0,1.83-.19s.07-.32.23-.37a19.87,19.87,0,0,0,2.24-.59c.26-.11.27-.67.39-1-2.24-.4-3.76,1.17-5.75.63l-.12-.36,6.68-1.66a3.49,3.49,0,0,0-.59-.52,4,4,0,0,0-2.91,0c-1.86.42-3.82.56-5.71.92-2.39.44-4.76.92-7.11,1.49s-4.87,1.31-7.3,2c-2.91.82-5.89,1.51-8.7,2.55-4.54,1.67-9,3.46-13.4,5.41a47.15,47.15,0,0,0-11.15,7.46c-2.16,1.82-4.31,3.69-4.47,6.71,0,.18-.21.34-.32.5l-.25-.07c0-3.51-.05-7-.08-10.74,2.62,1.14,4.21,0,5.75-1.25,1.3-1.06,2.55-2.19,3.92-3.18,3.09-2.26,6.2-4.49,9.38-6.64,2.63-1.78,5.34-3.48,8.1-5.09,2.56-1.5,5.28-2.77,7.84-4.26a41.36,41.36,0,0,0,4.1-3c.62-.47,1.17-.85,2-.23,0,0,.14,0,.21-.06,0-.29,0-.57.07-.86a3,3,0,0,0,3.53-1.6,1.18,1.18,0,0,1,.56-.54c1.13-.49,2.27-1,3.43-1.38a2.83,2.83,0,0,1,.91,0,3.33,3.33,0,0,0,1.3,0c.26-.12.3-.6.47-1a22.89,22.89,0,0,0,2.26-.84c.27-.13.37-.53.55-.81a8.75,8.75,0,0,0-1-.55,1.82,1.82,0,0,0-.66,0,1.16,1.16,0,0,1,.67-.8c1.82-.65,1.82-.64.58-2.2-1.86.59-3.76,1.16-5.62,1.79s-3.49,1.21-5.21,1.84q-2.25.82-4.45,1.69c-1,.39-2,.82-2.91,1.26a8.37,8.37,0,0,0-1,.64c-1.51.61-2.94,1.16-4.33,1.79-.38.17-.63.58-1,1l-.69-.37c-.07.35-.12.6-.17.82-2,0-5.79,1.95-15.32,8.39a68.21,68.21,0,0,0-13.24,11,16.13,16.13,0,0,1-.6-4.15c0-.65.55-1.18,1.5-1,1.74.41,2.94-.44,4-1.33,1.69-1.37,3.11-3,4.9-4.28q5.93-4.12,12.13-7.93c2.42-1.5,5-2.76,7.62-4a61,61,0,0,1,8.11-3.58c4.09-1.34,8-3,12-4.59a54.9,54.9,0,0,0,5.59-2.92,5.36,5.36,0,0,0,1.11-1.12l-.29-.31c-2.54-.12-4.34,1.82-7,1.63l1.22-1.16-3.33-.28L209,115.88l-.92-.78a4.61,4.61,0,0,1-.59.49,3.51,3.51,0,0,1-2.95.82c-.37-.09-.85.32-1.27.51a6,6,0,0,1-.79.43c-2.25.68-4.56,1.24-6.74,2a61.16,61.16,0,0,0-6.26,2.7c-3.61,1.79-7.24,3.56-10.68,5.57-2.86,1.68-5.48,3.67-8.16,5.57-3.19,2.27-6.13,4.76-7.73,8.28-.07.15-.24.25-.36.38l-.29-.08c.06-3.13.12-6.27.18-9.62,1.72,1.15,2.93.45,4-.26,1.59-1,3.08-2.19,4.62-3.31,2.85-2.07,5.67-4.17,8.56-6.2,2.25-1.57,4.59-3,6.88-4.54.68-.45,1.16-1,.68-1.83.32.55.57.74,1.25.29,1.6-1.07,3.33-2,5-3,1.29-.72,2.61-1.4,3.9-2.12a1.13,1.13,0,0,0,.56-.56c.24-.85,1-.81,1.73-.94a3.71,3.71,0,0,0,2.38-1.08,3.1,3.1,0,0,1,2.4-1.4,2.65,2.65,0,0,0,2.5-1.38c1.22.8,1.63.1,2.13-.45l1.59-.63c.35-.07.94-.1.95-.19.07-1.73,2.33-.83,2.88-1.93,1.47.63,1.6-.6,2.14-1.21.37-.42.42-.89,1.36-.39,1.14.6,2-.22,1.67-1.46l-5.27,1.45-.22-.43,4.73-2c-1.79-.67-3.56-.87-4.8-.08s-2.42.33-3.59,1c-1.9,1.08-4.38,1.34-6.51,2.13a70.23,70.23,0,0,0-12.31,5.94c-1.59,1-3.48,1.56-5.09,2.51-.77.45-2.26.68-1.63,2.15-.56-1-1.24-.52-1.78-.17-4,2.66-8.08,5.31-12,8.05a58.64,58.64,0,0,0-5.35,4.28c-1.19,1-2.18,2.26-3.25,3.38a5.18,5.18,0,0,1,.52-6.69,6.78,6.78,0,0,0,2.87-.67,40,40,0,0,0,5.1-4,69.68,69.68,0,0,1,10.16-7.92c.77-.49,1-1,.62-1.84.83.79,1.51.26,2.17-.09,1.59-.85,3.11-1.8,4.73-2.6,2.63-1.3,5.31-2.52,8-3.75,1.49-.69,3-1.33,4.5-2l2.33-1c.67.48,7-1.85,8.26-3.4L209.22,93l-.17-.3,4.7-1.7-.15-.42c-.67.1-1.35.19-2,.31a76.32,76.32,0,0,0-8,1.44c-3.33.92-6.55,2.13-9.75,3.35-1.94.74-3.64,2-5.66,2.49a18.59,18.59,0,0,0-5.22,2.45c-1,.56-1.89,1.24-3,1.94.05.24.15.69.24,1.15-1.44-1-2-.91-2.87.32-.16.22-.5.33-.74.51-.53.37-1,.76-1.76,1.29-2.69,1.16-4.78,3.4-7.17,5.28s-4.74,4-5.89,7a5.26,5.26,0,0,1-.45-2c-.08-2.23-.11-4.46-.2-6.69,0-.8.18-1.12,1.17-.95a2.91,2.91,0,0,0,1.89-.27c1.22-.79,2.29-1.76,3.43-2.65,3-2.33,5.94-4.64,8.86-7,.24-.19.15-.71.21-1.09.41.59.77.45,1.24.1,2.09-1.54,4.17-3.1,6.33-4.55s4.37-2.73,6.51-4.15c1-.69,1.95-1.57,3-2.29.55-.38,1.26-.55,1.85-.89a12.36,12.36,0,0,0,1.29-1l.18.17.26-1,.84.69c.11-.73.06-1.46,1.17-1.16.12,0,.32-.13.44-.24.71-.62,1.4-1.25,2.1-1.88.07.11.13.22.2.32.51-.08,1.43-.09,1.46-.26.14-1,1.13-1.21,1.84-1.61a17.79,17.79,0,0,1,4.5-2.13c1.21-.3,2-1.67,3-2.56l-.31-.33a5.46,5.46,0,0,0-1,.28c-1.22.6-2.39,1.28-3.64,1.82-.35.15-.9,0-1.37-.11l2.24-1.29c-2.72.21-7.08,1.69-8.17,3.35-1.29-.93-2.36.24-3.52-.06-.15.43-.16.91-.39,1a6.32,6.32,0,0,1-2.35.77,4,4,0,0,0-3.11,1.72,14.13,14.13,0,0,0-3.12,1.29c-2.84,1.7-5.64,3.44-8.43,5.2-1.63,1-3.25,2.06-4.77,3.19-.37.27-.35,1-.52,1.44-.39-.66-.9-.57-1.36-.2-.74.58-1.42,1.22-2.15,1.81-2.19,1.78-4.47,3.46-6.56,5.32a42.67,42.67,0,0,0-3.44,3.89s-.21-.1-.22-.18a49.24,49.24,0,0,1-.68-5c0-.73.21-1.51,1.54-1.26a2.63,2.63,0,0,0,2-.45c1.45-1.25,2.75-2.64,4.1-4,1-1,2-1.94,2.89-3,.47-.57,1.61-.84,1.17-1.93a3.26,3.26,0,0,0,1.13,0c.31-.13.46-.51.73-.74,2.07-1.78,4.11-3.59,6.25-5.29,1.17-.93,2.55-1.65,3.8-2.5a16.67,16.67,0,0,0,1.53-1.25,7.53,7.53,0,0,1,.92-.87c1.36-.87,2.78-1.66,4.11-2.55a4.83,4.83,0,0,0,1-1.21c1.05-.52,2-1.21,3.05-1.79a12.22,12.22,0,0,1,1.88-.64,1.26,1.26,0,0,0,.58-.35,10.57,10.57,0,0,1,4.92-3.3,8.46,8.46,0,0,0,4.6-3.64l-3.42.83-.14-.25,2-1.05c-1.06-1-1.59-.2-2.26.06a2.18,2.18,0,0,0-1.3,0c-.79.33-1.52,1.07-2.3,1a2,2,0,0,0-1.91,1c-.21.25-.68.32-1,.44s-.8.22-1.2.34a8.14,8.14,0,0,0-1.94.85,6,6,0,0,0-1,1.74l-2.29.15L189,70.86l-.17,0c-.08-.3-.16-.59-.27-1-2.51,1.65-4.92,3.17-7.25,4.79-2.61,1.8-5.16,3.68-7.71,5.56-1.34,1-2.65,2-3.9,3.07-.25.21-.13.78-.18,1.17-.84-.48-.93.44-1.37.53-1.9.39-2.44,2.06-3.54,3.13-.85.81-2,1.47-2.4,2.74a14,14,0,0,1-1.94,3.08c-.15.23-.28.48-.42.72l-.38-.07c-.95-3.36-.17-6.72-.8-10.09.79,1.19,1.71,1.48,2.73.66,1.74-1.4,3.4-2.87,5-4.39.28-.27.07-1,.09-1.44h0l.55.43a30.33,30.33,0,0,0,6.61-5.44c.47-.27,1.09-.39,1.55-.71,1.26-.84,2.44-1.77,3.66-2.67-.13-.13-.26-.27-.38-.41,1.66-.78,3.33-1.55,5-2.36,2.72-1.32,5.42-2.64,8.11-4a1.42,1.42,0,0,0,.76-.79c.28-1.27,1.21-1.57,2.2-.83l4.17-1.95s0-.27,0-.52l6.39-1.59c.06-.69,1.05-1.31,3-1.67-.37-.32-.76-.62-1.12-1s-.61-.86-1-.92a5.9,5.9,0,0,0-2.7-.06c-1.66.6-3.44.92-5.08,1.63-1.9.84-4.13,1.12-6.14,1.78-1.11.37-2,1.33-3.13,1.5a11.3,11.3,0,0,0-3.92,1.5c-3.11,1.68-6.27,3.29-9.43,4.89-4,2-7.22,4.87-10.59,7.57a1.53,1.53,0,0,0-.57,2l-.44-.67a9.79,9.79,0,0,0-1.37.84c-.49.42-.5.81.38.85l1.54-.62h0l-1.54.62c-2.5.7-3.55,2.67-4.77,4.86-.32-1.06-.55-1.78-.77-2.51,0-.91-.07-1.83,0-2.74,0-1.22.08-2.42.11-3.37.47.21,1,.67,1.5.63a3,3,0,0,0,2.71-3.11l-2.1-3.57,2.1,3.57c.61,1.06,1.1.36,1.51,0,.61-.56,1.09-1.23,1.71-1.78a45.86,45.86,0,0,1,4.81-4.1,77.63,77.63,0,0,1,10.45-6.29c4-1.81,8.35-2.9,12.54-4.31,1.6-.54,3.24-1,4.75-1.68.59-.26.91-.93,1.52-.35l2.32-1.15c-.27-.22-.6-.37-.6-.51,0-1.13-.79-1-1.61-1a11.37,11.37,0,0,1-1.16,0c-1.82,0-3.7-.32-5.34.54A2.13,2.13,0,0,1,192,50a47.34,47.34,0,0,0-6.83,1.26c-3.58,1.2-7,2.78-10.48,4.19-.3.12-.64.18-.95.27a1.41,1.41,0,0,1,.77-.8c3.31-1.46,6.64-2.87,9.92-4.37,1.93-.87,3.78-1.87,5.74-2.84a5.85,5.85,0,0,0-5.59-1.43,37.28,37.28,0,0,1-3.82,1.11c-1.08.25-2.24.3-3.34.54-.3.07-.48.5-.93,1-2-.22-3.92.41-4.7,2.63-1-.23-2.09-.92-2.63.38,0,.09-.3.08-.45.15-1,.45-2,.86-3,1.38-.75.43-1.37,1-2.1,1.5-1.81,1.12-3.76,2.07-5.42,3.33-1,.73-1.92,1.73-1.66,3.17l-.86-1.73c-1.35-.41-.66,1.08-1.06,1.18-2.06-2.38-4-4.67-6-6.92-.8-.91-1.7-1.75-2.57-2.6-.35-.34-.75-.65-1.13-1a23.15,23.15,0,0,1-3.18-2.67,2,2,0,0,0-1.55-.92,2.52,2.52,0,0,1-1.5-1.53c-.39-1.43-2.74-2.66-4-2-1-.24-.68-1.21-1.08-1.59a32.61,32.61,0,0,0-4.3-3.42c-1.08-.74-2.36-1.23-3.53-1.87-.77-.43-1.43-.62-2,.22L127.16,39c-.06.09-.11.18-.16.27a8.33,8.33,0,0,1-1-.36c-.57-.31-1.08-.71-1.66-1a4.24,4.24,0,0,0-1.14-.16c.17.36.24.82.53,1.07a26.42,26.42,0,0,0,2.54,1.92c.79.54,1.66,1,2.47,1.51a2.06,2.06,0,0,1,.56.66c-.66.51.26.77.35.78,1.27.12,1.54,1.25,2.33,1.84.43.32.93.56,1.38.86A1.72,1.72,0,0,1,134,47c.89,1.9,3.17,2.61,4.38,4.36s3.28,3.19,5,4.72c.89.78,1.87,1.46,3.06,2.38.35,1.61,5.09,5.22,7,5l-.46-1,1.34-.35c.26,3.12.51,6.23.77,9.42A46.66,46.66,0,0,0,152,68a32.7,32.7,0,0,0-3.88-2.87c-1.85-1.23-3.77-2.38-5.67-3.54a55.2,55.2,0,0,0-4.81-2.8c-2.66-1.28-5.52-2.16-7.85-4-.2-.15-.58-.11-.87-.18a2.49,2.49,0,0,1-.84-.25,8.57,8.57,0,0,0-5.23-1.92.71.71,0,0,1-.45-.2c-1-1-2-1.83-3.5-1.08-.49-1.34-.48-1.21-2-1.23a4.63,4.63,0,0,1-2.5-.9c-1.73-1.33-3.79-1.68-5.82-2.24l1,.61-.05.1-2.15-.66-.17.38,2.48,1.25-.12.22-4.37-1.24c0,.44,0,.79,0,1.15a22.41,22.41,0,0,1,7.35,2.33c1,.65,2.09,1.19,3.11,1.81a21.36,21.36,0,0,0,3.88,2.39,21.8,21.8,0,0,1,2.41,1.25c2.35,1.19,4.57,2.66,7.21,3.24a.8.8,0,0,1,.5.36,1.83,1.83,0,0,0,2,1.35c.2,0,.45.2.65.35,1.1.76,2.15,1.59,3.3,2.28,1.67,1,3.41,1.86,5.1,2.83,1,.57,2,1.2,2.93,1.84,2.91,1.93,5.79,3.92,8.74,5.8a4.05,4.05,0,0,0,2.08.34c.84,0,1.08.09,1.12,1a28,28,0,0,0,.7,3.88c-.17.68-.33,1.36-.51,2.09l-1.52-1.21c-.12-.51-.06-1.19-.4-1.51a87,87,0,0,0-7.43-6.53,109.47,109.47,0,0,0-10.72-6.85,115.51,115.51,0,0,0-10.74-5.2,74.43,74.43,0,0,0-8.26-3,37.24,37.24,0,0,0-5.66-1.1,5.57,5.57,0,0,0-1.86.43l.06.29,1.47.52,0,.22-2-.28-.15.37a27.15,27.15,0,0,0,3.16,1.85c1.6.69,3.3,1.15,4.94,1.77,3,1.15,6,2.35,9,3.54a3.54,3.54,0,0,1,.59.27c2.76,1.65,5.53,3.27,8.27,4.95,2.12,1.29,4.28,2.55,6.25,4,2.48,1.84,4.76,3.91,7.17,5.83a30.62,30.62,0,0,0,2.56,1.69c-.79.78.32.94.65,1.3,1.08,1.16,2.12,2.6,3.93,2.56,1.25,0,1.32.58,1.52,1.29a6.55,6.55,0,0,1,.2,1.16c.16,1.56.3,3.11.46,4.66l-.35.07c-.2-.23-.39-.48-.59-.71a31.21,31.21,0,0,0-2.49-2.9c-1.78-1.65-3.64-3.23-5.56-4.75a7.62,7.62,0,0,0-2.12-.78c.75-.31.5-.6-.06-1-2.43-1.67-4.79-3.43-7.27-5-3.21-2.07-6.41-4.18-9.79-6s-7.13-3.33-10.75-4.87c-2.12-.9-4.44-1.39-6.47-2.43-1.57-.8-3.5-.36-4.85-1.71-.14-.14-.83.17-1.26.27.26.29.45.7.77.84.88.39,1.8.66,2.71,1l-.13.34-5.85-2a5.66,5.66,0,0,0,4.07,2.65c1.35.34,2.6.77,2.92,2.31.88-.34,1.68-.64,2.42.31a5.43,5.43,0,0,0,1.59,1.34c2.12,1.17,4.77,1.18,6.58,3.15.76.83,2.15,1.2,3.23,1.8,3.32,1.85,6.63,3.71,9.75,5.86,1.74,1.21,3.37,2.59,5.17,3.71.86.53,1.44,1.8,2.83,1.34-.08.15-.27.41-.24.44.49.38,1,.69,1.5,1.08,1.63,1.35,3.26,2.69,4.86,4.07s2.93,2.7,4.47,4A9.35,9.35,0,0,0,155,96.8a8.67,8.67,0,0,0,2.65.12c0,3.33,1.28,6.68.67,10a7.84,7.84,0,0,1-.38-1.26,7.13,7.13,0,0,0-.54-1.2c-2.05-3.85-5.53-6.67-8.8-9.6a52.26,52.26,0,0,0-5.75-4.15c-1.44-1-3-1.83-4.44-2.83a2,2,0,0,0-2.21-.1c.48-.44.71-.86-.11-1.3A65.4,65.4,0,0,0,129.65,83c-4.48-1.82-9-3.46-13.61-5a23.06,23.06,0,0,0-4.54-.59c-.8-.91-7.14-1.62-9.33-.67l4,.85-.06.27-4-.45-.09.3a7.32,7.32,0,0,0,1.25.76c2.11.83,4.22,1.66,6.35,2.4,4.37,1.51,8.78,2.89,13.11,4.48,2.19.79,4.24,1.94,6.38,2.88,1.2.54,2.35,1.4,3.78,1-.83.39-.56.76.11,1.16,1.29.76,2.58,1.54,3.87,2.31a23.33,23.33,0,0,1,2.69,1.61c2.32,1.83,4.66,3.66,6.82,5.65,2.6,2.39,5,5,7.53,7.4,1,1,1.9,2.2,3.7,1.78.21,0,.87.49.91.78.26,1.79.41,3.59.57,5.38,0,.54,0,1.09,0,1.63l-.35.09a20.31,20.31,0,0,0-1.63-2.37c-2.52-2.83-4.88-5.76-8.06-8.09-2.81-2.05-5.44-4.32-8.15-6.49A58.69,58.69,0,0,0,129.65,93c-1.11-.54-2.23-1.79-3.71-.9.74-.44.54-.84-.17-1.22-1-.51-1.94-1-2.94-1.53-2.59-1.26-5.18-2.55-7.81-3.73-2.37-1-4.77-2.07-7.22-2.92a30.09,30.09,0,0,0-4.27-.81c0,.16-.06.32-.1.48l4.11,1.44-.13.41c-1.57.34-2.79-1.25-4.56-1.12.56.25,1,.38,1.29.58,1.61,1,3.18,2,4.81,3a28,28,0,0,1,3.53,1.85,11.78,11.78,0,0,0,4.31,2.25,6.18,6.18,0,0,1,2.29,1.71,3.32,3.32,0,0,0,3,1.17l-.55.47c.42.25.79.66,1.1.64,2.37-.09,3.8,1.54,5.47,2.69,1.16.8,2.22,1.72,3.35,2.55.32.24.77.34,1.09.59,2.6,2,5.19,4,7.75,6,1.83,1.45,3.65,2.91,5.39,4.44,2.06,1.82,4,3.73,6,5.57,1.18,1.06,2.53,2,3.64,3.11.93.93,1.79,1.5,3.15,1.14.19,0,.86.45.88.7.23,2.94.39,5.88.55,8.82a3.66,3.66,0,0,1-.1.74,44.24,44.24,0,0,0-2.9-5.43,24.09,24.09,0,0,0-4-4.07c-2-1.67-4.11-3.13-6.06-4.8a50.58,50.58,0,0,0-9.51-6.05c-2-1.07-4.19-1.88-6.29-2.82a76,76,0,0,0-11.42-3.58,61.39,61.39,0,0,0-10.19-1.62c-1.39-.13-2.8-.26-4.19-.26a30.28,30.28,0,0,0-3.15.32l.09.34,3.22.36c0,.12,0,.25.07.37a14.51,14.51,0,0,1-1.61.11c-.63,0-1.44-.44-1.4.52l3.16.91c1.59.46,3.16,1,4.76,1.38s3.27.08,4.93,1.09c1.36.82,3.23.83,4.83,1.36a84.31,84.31,0,0,1,9.1,3.3,84.39,84.39,0,0,1,9.71,5.41,107.22,107.22,0,0,1,8.91,6.43c2.31,1.84,4.43,3.89,6.53,5.93a6.68,6.68,0,0,0,4.16,2.18,1.52,1.52,0,0,1,1,.69c.81,2,.43,3.88,0,5.78,0,0-.14.06-.27.12a2.33,2.33,0,0,1-.28-.36,23.09,23.09,0,0,0-5.68-6.4c-3.21-2.72-6.63-5.24-10.06-7.71a61.14,61.14,0,0,0-5.78-3.49c-1.61-.92-3.26-1.76-4.91-2.59-2.58-1.3-5.13-2.65-7.77-3.82-2.18-1-4.45-1.78-6.72-2.57a44.72,44.72,0,0,0-5.52-1.63c-2-.42-4.1-.59-6.16-.87-.43,0-.86-.14-1.29-.17-1.26-.09-2.52-.15-3.73-.22,0,0,0,.25,0,.6l4.07.91-.07.3c-1.27-.2-2.55-.36-3.82-.6s-2.48-.56-3.73-.85l-.14.42a5.55,5.55,0,0,0,1.19.88c2.28.9,4.57,1.81,6.9,2.59,1.81.61,3.69,1,5.5,1.58,1,.35,2,1,3,1.44,3.1,1.36,6.22,2.69,9.33,4a26.26,26.26,0,0,1,2.87,1.26c4.18,2.39,8.4,4.73,12.45,7.29a79.68,79.68,0,0,1,7.93,5.79c3,2.46,5.86,5.08,8.68,7.71a3.11,3.11,0,0,0,2.95,1.07c.74-.15,1.25.08,1.26.93s.13,1.77.17,2.66c.08,1.76.14,3.52.21,5.27l-.31.07a3,3,0,0,1-.19-.65c-.15-2.42-1.87-4.12-3.68-5.7-2-1.79-4.14-3.51-6.33-5.13a59.14,59.14,0,0,0-5.5-3.53c-1.67-1-3.42-1.81-5.17-2.65-2.89-1.37-5.77-2.79-8.72-4-1.88-.78-3.89-1.25-5.84-1.86-2.24-.7-4.47-1.52-6.75-2.07-2.77-.67-5.59-1.13-8.39-1.67-1.2-.23-2.4-.47-3.61-.64-1-.14-1.94-.16-2.91-.26-1.4-.14-2.79-.35-4.19-.45a5.6,5.6,0,0,0-1.51.49l2.36,1v.23l-1.51.1c1.45,1.57,3.41,1.87,5.28,2.2,1.61.28,3.25.31,4.88.46a1.21,1.21,0,0,1,.25.08c1.75.68,3.5,1.35,5.24,2,.58.23,1.12.57,1.71.8s1.5.47,2.24.75,1.72.78,2.62,1.07a24,24,0,0,1,3,.77c2.3,1.07,4.69,1.94,7,3a98,98,0,0,1,13.11,7c2.43,1.57,4.79,3.25,7.11,5,2.14,1.6,4.14,3.36,6.28,4.95a3.15,3.15,0,0,0,1.91.38c.88-.07,1.37.1,1.71.91.86,2.12.17,4.14.1,6.19,0,.05-.12.08-.25.15a6.75,6.75,0,0,1-.57-.63c-.16-.23-.23-.51-.39-.73a41.67,41.67,0,0,0-10.32-9.6c-2.25-1.56-4.51-3.11-6.82-4.59-2.63-1.68-5.27-3.39-8-4.89a66.87,66.87,0,0,0-7.44-3.44c-6.16-2.42-12.21-5.11-18.76-6.41-3.12-.62-6.19-1.58-9.3-2.28a5.6,5.6,0,0,0-4,.36l7.49,2.18c0,.14-.05.28-.08.42l-7.73-1.62-.16.43a3.23,3.23,0,0,0,.7.59c1.63.73,3.25,1.53,4.93,2.12s3.63.94,5.4,1.55c3.46,1.18,6.92,2.41,10.34,3.72,1.61.62,3.14,1.46,4.7,2.21l8.09,3.86a3.72,3.72,0,0,1,.34.19l4.4,2.67c2.28,1.39,4.65,2.67,6.83,4.19,3.1,2.16,6.14,4.42,9.06,6.79,2.22,1.81,4.17,3.89,6.31,5.8,1.45,1.29,2.78,3,5.2,2.29,0,0,.07,0,.28.14.15,2.57.32,5.22.48,7.88l-.4,0a12,12,0,0,0-4.36-6.86c-2-1.52-3.8-3.23-5.84-4.67s-4.2-2.63-6.32-3.91c-.4-.25-.86-.42-1.29-.64-2.86-1.42-5.65-3-8.59-4.22-2.47-1-5.21-1.44-7.67-2.48a48.74,48.74,0,0,0-7-1.94c-2-.52-4.13-.68-6.19-1.09s-4.14-1.44-6.34-.91c-.25.07-.58-.11-.88-.17-1-.19-2-.39-2.94-.56a8.61,8.61,0,0,0-1,0c-2.24-.08-4.49-.2-6.72-.21a5.79,5.79,0,0,0-1.71.55l.12.24,7.41,1.15c-1.07.44-2.61-.53-2.49,1.18-.45-.41-.83-1-1.35-1.19a19.51,19.51,0,0,0-3.16-.55,3.67,3.67,0,0,0-.86.11c.8,1.64,2.47,1.58,3.78,2,.44.15,1.06-.24,1.6-.38.46.33.88.85,1.38,1,2.58.59,5.18,1.09,7.77,1.59,2,.38,4,.54,6,1.11,4.34,1.28,8.64,2.74,13,4.15a106.85,106.85,0,0,1,15.21,6.5c.15.08.31.16.45.25,1.93,1.34,3.89,2.63,5.76,4,2.22,1.65,4.34,3.42,6.56,5.06,1.73,1.27,3,3.61,6.08,2.45.19,2.31.37,4.44.55,6.58a30,30,0,0,0-5.45-5.88c-1.76-1.31-3.36-2.85-5.24-4a80.56,80.56,0,0,0-8.82-4.65,114.33,114.33,0,0,0-18.94-6.21c-.59-.15-1.19-.28-1.78-.38-3.7-.62-7.4-1.28-11.11-1.83-1.74-.26-3.51-.3-5.44-.45.14.78.23,1.27.32,1.76a3.51,3.51,0,0,0-3.28-2.06c-2.48,0-5-.06-7.46-.13-1.11,0-2.22-.16-3.15.83,2.84.82,5.75.18,8.38,1.55L91,160.54l-.09.47a7.34,7.34,0,0,0,2.3,1.25c2.47.33,5,.39,7.46.62,1.8.17,3.6.46,5.35.69-.16-.43-.4-1.09-.63-1.75.73.8,1.45,1.62,2.2,2.41a1.35,1.35,0,0,0,.67.28c.85.19,1.71.35,2.57.53s1.52.34,2.28.47a20.83,20.83,0,0,1,2.26.32c4.14,1.21,8.26,2.46,12.39,3.69.13,0,.26,0,.38.09a53.27,53.27,0,0,1,6.33,2.08c3.32,1.55,6.44,3.5,9.75,5.09,4.16,2,7.52,5,11.26,7.47.6.4,1.28.71,1.93,1.06,0,1.08,2.3,2.46,3.4,2s1.47-.16,1.66.84c.24,1.27.56,2.53.79,3.8s.39,2.64.58,4l-.36.08c-.2-.18-.52-.34-.57-.54-1-4.15-4.77-6.12-8.06-8.46-.34-.24-1-.12-1.45-.17.75-1.06-.37-.93-.94-1.22a64.1,64.1,0,0,0-6.33-3.25c-4.08-1.5-8.23-2.83-12.41-4-3.29-.89-6.67-1.41-10-2-3-.56-6-1.08-9-1.49-.35-.05-1.46-.64-1.45.49l2.28,4.18a3.22,3.22,0,0,0,.92.54c3.69.77,7.46,1.21,11,2.3,5.91,1.81,11.71,4,17.52,6.13a5,5,0,0,0,3.2.49c0,.28-.06.72.11.83,1.48,1,3,2,4.5,3,1.95,1.3,3.83,2.7,5.84,3.92,1.6,1,3.17,2.32,5.23,1.65l1.66,8.64-.46.1a12.31,12.31,0,0,0-5-6.89,62.18,62.18,0,0,0-9.29-5.91c-.58-.28-1.08-.71-1.66-1-1.67-.75-3.34-1.5-5-2.14-.43-.15-1,.13-1.55.2.68-.42.26-.86-.21-1.08a41.66,41.66,0,0,0-4.74-2.1c-4.94-1.66-9.91-3.23-14.88-4.78-1.57-.49-3.19-.82-4.79-1.24-.62-.16-.92,0-.71.6a8.48,8.48,0,0,0-2.16-1.14c-2.47-.51-5-.87-7.45-1.25s-5.14-.87-7.72-1.08a18,18,0,0,0-3.83.47,2.46,2.46,0,0,1,0,.26l1.78.62a3.61,3.61,0,0,1-1,.3c-.6,0-1.2-.08-1.8-.13.15.57.34,1,.64,1.07a50.73,50.73,0,0,0,5.19,1.7c2.12.52,4.41.53,6.4,1.31,2.32.91,4.8.79,7.07,2a21,21,0,0,0,5,1.31c.17,0,.4-.29.6-.45a21.73,21.73,0,0,0,2.73,1.55c3.45,1.33,7,2.45,10.39,3.91a5.89,5.89,0,0,0,3.4.57c-.58.65.12.72.56.94q2.31,1.13,4.6,2.3c.81.41,1.6.86,2.41,1.27,1.41.7,2.87,1.31,4.24,2.08,1.61.91,3.16,1.9,4.69,2.92,1.78,1.17,3.41,2.59,5.29,3.58,2.16,1.14,3.83,4,7.16,2.1.61,3.07,1.18,5.93,1.74,8.78l-.26.14c-.24-.25-.58-.47-.7-.76a9.9,9.9,0,0,0-2.58-4.07,50.92,50.92,0,0,0-13.56-7.65c-4-1.64-8.24-2.73-12.39-4-2.45-.77-4.91-1.5-7.38-2.17a14.48,14.48,0,0,0-2.92-.42c-.26,0-.51.41-.76.64-.3-.3-.57-.77-.91-.86a25.91,25.91,0,0,0-2.91-.46c-3.69-.49-7.4-.86-11.08-1.5a72.92,72.92,0,0,0-9.17-.87,13.3,13.3,0,0,0-1.55.06c-1.28.1-2.56.2-3.82.35-.18,0-.28.38-.41.57a2.58,2.58,0,0,0,.77.4c.79.14,1.58.2,2.37.3a2.83,2.83,0,0,1,0,.29c-.88-.06-1.78-.15-2.66-.15a1.07,1.07,0,0,0-.74.45c-.06.09.2.54.38.6a29.81,29.81,0,0,0,3.75,1.12c1.87.37,3.76.56,5.64.88.84.14,1.66.45,2.5.59,3,.51,6,.69,9,1.42,2,.5,4,.88,6.06,1.35,1.78.41,3.56.87,5.34,1.27.12,0,.31-.28.47-.43,1,1.4,2.68,1.31,4.14,1.7,1.12.3,2.27.5,3.35.89s1.9,1,2.9,1.39c4,1.53,8.08,2.75,11.79,4.91,2.35,1.37,4.85,2.5,7.27,3.75.3.16.54.44.84.59,2.23,1.13,4,3.59,7.21,2.09.22,1.9.41,3.6.64,5.55-.58-.29-.83-.35-.93-.49-2-2.81-5.07-4.55-8-6.34a49.73,49.73,0,0,0-4.53-2.18c-2.91-1.35-5.79-2.76-8.74-4-2.25-.94-4.58-1.73-6.91-2.47-2.14-.69-4.34-1.23-6.52-1.81-.1,0-.25.18-.38.27a10.27,10.27,0,0,0-2.13-1.05c-3.12-.69-6.26-1.35-9.4-1.89-3.54-.6-7.09-1.36-10.65-.94a7.69,7.69,0,0,0-4.43-1c-2.55,0-5.13-.19-7.69-.2-1.66,0-1.7.09-2.12,1.06l8.24,1.15,0,.3-8.5-.72c.76,1.52,2,1.45,3.12,1.63.93.14,1.85.37,2.78.5.74.11,1.48.14,2.22.2l-.4.32c1.62.33,3.15.28,4.67.48a27.27,27.27,0,0,1,7.4,1.72,13.81,13.81,0,0,0,2.39.3c1.86.38,3.71.8,5.55,1.28,3.09.81,6.17,1.67,9.25,2.52a20.55,20.55,0,0,0,2.11.66c.29,0,.63-.31,1-.48a7.05,7.05,0,0,0,1.51,1.39c1.81.9,3.7,1.66,5.55,2.48,3.13,1.39,6.34,2.65,9.37,4.21s6.17,3.55,9.22,5.37c1.22.72,2.33,1.62,3.59,2.27.91.46,2,1.06,3,.21a1.24,1.24,0,0,1,1-.27,1.39,1.39,0,0,1,.53.87c.52,2.25,1,4.51,1.5,6.77a3.45,3.45,0,0,1-.09,1l-.38,0-.78-1.38a18.62,18.62,0,0,0-1.51-2.46,21.17,21.17,0,0,0-7.43-5.15,103.73,103.73,0,0,0-10.31-3.75,19.48,19.48,0,0,0-3.52-.8c-1.93-.29-3.87-.4-5.79-.69-2.17-.33-4.33-.92-6.49-1.12-2.82-.26-5.64-.27-8.46-.36-2.51-.09-5-.05-7.53-.21-2.11-.13-4.14.35-6.29.09-1.15-.14-2.3.3-3.56.27a18.86,18.86,0,0,0-5,.84c-1.16.29-2.61.41-2.87,2l1.34.15-1.06.87a5.56,5.56,0,0,0,1.23.81,11.84,11.84,0,0,0,1.89.32l2.35.32,0,.47c-1.64-.23-3.44-.13-4.86-.8s-2-.21-2.9.39l.9.59L98,230.48a33.81,33.81,0,0,0,3.94,1.11c3.35.52,6.73.89,10.09,1.37,2.43.35,4.86.77,7.29,1.16,3.14.5,6.32.86,9.44,1.54,3.34.73,6.66,1.68,9.95,2.66,3,.91,6,2,8.93,3a50.41,50.41,0,0,1,4.86,2c1.79.85,3.44,2,5.27,2.73,3.72,1.44,6.75,3.81,10,5.93,1.25.83,2.53,1.75,4.07.69.53-.37.94-.2,1.07.48.27,1.41.56,2.82.85,4.24.15.73.29,1.47.43,2.2a1,1,0,0,1-.7-.36,33,33,0,0,0-2.68-3.52c-2.37-2.4-5.49-3.81-8.6-5.11a65.82,65.82,0,0,0-7.32-2.38c-3.25-.93-6.51-1.81-9.8-2.55-2.3-.51-4.65-.77-7-1.1-2.08-.28-4.16-.53-6.23-.73-.72-.07-1.44.16-2.15.09-1.45-.13-2.91-.49-4.35-.54-1.66-.06-3.3.13-5,.19-3.79.13-7.6.2-11.38.42-.84,0-2,0-2.45,1.25l4.36.32c-1.38.51-3.15-.28-4.33,1.19a15.12,15.12,0,0,0,3.11,1c2.8.27,5.6.34,8.41.51,1.43.08,2.86.2,4.29.31-1.26.07-2.51.12-3.76.23-2.75.23-5.51.46-8.25.79a8.61,8.61,0,0,0-2.41.83c-.19.09-.2.48-.3.73a5.41,5.41,0,0,0,.77.19c.41,0,.83,0,1.25.06,0,.1,0,.19,0,.29l-2.6.75a6,6,0,0,0,1.26.68c1.68.27,3.36.6,5,.7s3.56,0,5.34,0c1.53,0,3,.43,4.55.6,2.56.29,5.14.06,7.67.94a1.25,1.25,0,0,0,.5,0c.26,0,.66-.18.75-.09.72.77,1.59.51,2.42.55a4.52,4.52,0,0,1,1,.12c.86.21,1.7.5,2.55.66,1.47.29,3,.37,4.43.76,3.29.88,6.54,1.88,9.81,2.84.4.12.78.27,1.23.43,0-.56-.06-1-.08-1.43l.29,0,.59.73.58-.41.91,1.29a5.89,5.89,0,0,0,.91,1.18,3.73,3.73,0,0,0,1.43.69c.94.23,1.92.31,2.87.51a.91.91,0,0,1,.51.57c.2.88,2,2.21,2.91,2a1.45,1.45,0,0,1,1.7.78c1,1.59,2.2,2.63,3.87,2.53,1,1,1.83,1.87,2.72,2.67,1.22,1.1,2.33.26,3.62-.27.53,2.58,1,4.93,1.5,7.28l-.57.17c-.36-.53-.74-1-1.1-1.57-.48-.69-.8-1.76-1.45-2a5.11,5.11,0,0,1-3.13-2.33,3.53,3.53,0,0,0-2.64-1.8c-1.9-.55-3.88-1.06-5.2-2.65a2.2,2.2,0,0,0-2.13-.84,19.08,19.08,0,0,1-2.69-.12c0-.46,0-.83.05-1.37-3.28-.64-6.49-1.3-9.71-1.88a27.13,27.13,0,0,0-4.86-.65c-5.13,0-10.27,0-15.36.29-3.48.19-6.91.74-10.33,1.27-.81.12-2,.07-2.29,1.43.51,0,.94.09,1.37.09,1,0,2-.05,2.93-.07h-.06l-4.51,1.06c.36.3.82.25,1,.43,1.15,1.29,1.93.35,2.82-.11a9.6,9.6,0,0,1,1.24-.46h0c-.24.45-.48.89-.74,1.4l1.65.58-2,.68a19,19,0,0,0,3.42,1.63c2,.45,4,.62,6,.93,2.89.44,5.78.87,8.66,1.37,2.55.45,5.11.87,7.61,1.51,2.66.68,5.25,1.62,7.88,2.43.94.29,1.91.48,2.85.79s1.85.69,2.76,1.06c1.6.64,3.22,1.26,4.8,2,2,.89,3.86,3,6.26,1.1,0,0,.16,0,.24.05l-.12.19,1.32,1a2.32,2.32,0,0,0-.73.13,2.13,2.13,0,0,0-.9.76c-.07.13.44.54.72.8a7.56,7.56,0,0,0,1.09.87c1.75,1.06,2.69,3,4.88,3.6.33.08.86.49.85.69-.09,1.2,1.16,1.45,1.69,2.2,1.46-1,1.51-1,2,.6.28,1,.4,2,.59,3.08.1.55.2,1.11.29,1.66l-.34.15a4,4,0,0,1-.71-.78c-1-2.12-3-3.47-5-4.7a4,4,0,0,0-2-.45c-.81,0-1.2-.19-1.43-.91a1.62,1.62,0,0,0-.82-.85,58.19,58.19,0,0,0-5.56-2.1,87.76,87.76,0,0,0-8.83-2.23c-3.29-.6-6.63-.87-9.94-1.25-2.23-.25-4.45-.46-6.68-.64-.67,0-1.34.13-2,.08-1.18-.09-2.38-.36-3.56-.38-1.63,0-3.24.15-4.87.17s-3.29-.1-4.92-.06a15.35,15.35,0,0,0-3.75.41c-1,.28-2.25.41-2.68,1.72l2.21.24a.84.84,0,0,1-.58.34c-.35.14-.68.33-1,.49a4.64,4.64,0,0,0,.95.83,4.45,4.45,0,0,0,1.62.44c3.28.14,6.56.22,9.84.32.13,0,.26,0,.38,0,2.88.26,5.75.5,8.62.8,2,.2,3.95.47,5.92.71l1,.13a36.47,36.47,0,0,1,4.45.48c2.87.64,5.75,1.35,8.55,2.24,3.54,1.13,7,2.45,10.5,3.7.19.07.34.23.3.21-3.24-.77-6.65-1.61-10.07-2.37-2-.45-4.07-.88-6.12-1.16-2.72-.36-5.45-.61-8.17-.85-3.66-.31-7.33-.78-11-.79-4.2,0-8.38.33-12.54.69-.93.08-1.73.87-2.6,1.33l.24.48,5.62-.11c0,.13,0,.25,0,.38l-5.45.59c.71.56,1.12,1.13,1.62,1.24a30.11,30.11,0,0,0,4.22.56c1.88.11,3.75,0,5.62.13a37.78,37.78,0,0,0,3.93.31c1.28-.08,2.36.73,3.75.5s2.94.4,4.43.65c3,.51,5.95,1,8.92,1.52s5.69,1,8.49,1.73c2.52.66,5,1.65,7.45,2.47A34.34,34.34,0,0,1,180.76,311c1.09.85,2.16,2.76,4.07.66.45,2.92.84,5.49,1.23,8.06l-.38.11a8.5,8.5,0,0,1-.68-1c-.22-.41-.32-.87-.53-1.29-1.7-3.35-4.95-5.26-8.24-7-4.77-2.5-10-3.74-15.22-5-.76-.19-1.51-.45-2.28-.57-3.14-.46-6.29-.87-9.43-1.34-1.62-.23-3.24-.56-4.86-.79a30.57,30.57,0,0,0-3.56-.32c-1.95,0-3.89,0-5.83.07a33.05,33.05,0,0,0-4.58.46,9.3,9.3,0,0,0-2.25,1.08l.15.35,2.49.17c0,.09,0,.17,0,.25l-2.45.62a2.56,2.56,0,0,0,2.44,1.6c3.75.42,7.51.81,11.26,1.22,1.07.11,2.14.25,3.21.38.72.08,1.44.13,2.15.26,1.5.29,3,.64,4.48.92,1.85.36,3.72.62,5.55,1.06,1.26.3,2.46.87,3.71,1.24,2.54.76,5.17,1.26,7.6,2.25a86.69,86.69,0,0,1,8.66,4.24c1.73.94,3.24,2.21,4.93,3.21,1.37.8,2.81,1.91,4.61.65a2.59,2.59,0,0,0-.15,3,9,9,0,0,1,.79,2.21c.24,1.16.34,2.33.51,3.5l-.41.07c-.26-.49-.52-1-.77-1.46-.82-1.65-1.59-3.36-3.41-4.37a35,35,0,0,0-5.44-2.72c-3-1-6.07-1.82-9.14-2.59a39.45,39.45,0,0,0-4.09-.57c-1.57-.24-3.13-.57-4.71-.73-1.32-.13-2.65,0-4-.14-.78,0-1.56-.3-2.34-.41a3.85,3.85,0,0,0-.89.06c-.66,0-1.32.12-2,.1-1.84,0-3.68-.15-5.51-.15-1.25,0-2.5.43-3.7.22-2.64-.44-5,.25-7.5.57-.78.11-1.42.82-2.23,1.33l2.07.93-2.09.56.1.45a17,17,0,0,0,3.72,1.25q6,.54,12,.7a86.34,86.34,0,0,1,14.22,1.51c2.83.55,5.71.93,8.49,1.69a52.57,52.57,0,0,1,14.11,5.7c1.14.71,2.32,1.45,3.67.13a22.94,22.94,0,0,1,1,6.8c-.33-.07-.44-.06-.49-.11a1.63,1.63,0,0,1-.37-.47,10.66,10.66,0,0,0-5.63-5.32,99.57,99.57,0,0,0-9.42-3.55c-2.6-.93-5.32-1.13-8-1.65-3-.57-5.89-1.13-8.87-1.43-1.78-.18-3.57-.35-5.36-.43-1.48-.07-3,0-4.44,0-2.7.07-5.4.13-8.09.32-.61,0-1.14.6-1.7.92,0,.12.09.24.13.35l3.8.28c0,.06,0,.11,0,.17l-3.91.59c0,.12,0,.24.05.36a25.44,25.44,0,0,0,3.41,1.17c2.24.44,4.5.71,6.75,1.06.56.09,1.11.27,1.66.34,3.67.42,7.35.71,11,1.27a71.91,71.91,0,0,1,7.43,1.72c2.89.77,5.79,1.54,8.62,2.52a35.35,35.35,0,0,1,8.7,4.38c1.56,1.08,3.05,2.91,5.26,2-.39,2.57,1.26,5.16.56,7.91-.32-.37-.51-.51-.57-.67-.36-1-.67-1.93-1-2.89a9,9,0,0,0-5.83-5.05,49.65,49.65,0,0,0-6.07-1.45,23.11,23.11,0,0,0-4-.52c-2.13-.07-4.25,0-6.38.07-3.81.07-7.65,0-11.44.26-4.72.32-9.42.85-14.09,1.45a7.19,7.19,0,0,0-5,2.48l2.76.29c0,.09,0,.17,0,.26l-1.83.71c0,.13,0,.27.07.4a6.62,6.62,0,0,0,1.91.64q4.74.13,9.46.08c3.19-.05,6.37-.25,9.56-.3,2.63-.05,5.27,0,7.9,0a37.64,37.64,0,0,1,4.51.09c2.14.26,4.25.83,6.39,1.09A22.12,22.12,0,0,1,187,353.54c1.19.85,2.12,1.58,3.44.56.68,3.37.71,6.48,0,7-.83-4-3.88-6.18-7.72-7.51-2.57-.9-5.26-1.45-7.9-2.14a14,14,0,0,0-1.66-.34c-2.85-.36-5.71-.71-8.56-1.05-2.22-.26-4.45-.61-6.67-.71-2.5-.12-5-.08-7.48,0a6.35,6.35,0,0,0-4.61,2.08l3.51.41v.28l-3.29.19c.52,1.22,1.7,1.44,2.78,1.62,2.71.44,5.44.76,8.15,1.15,3,.43,6.06.86,9.08,1.36,1.25.2,2.46.64,3.71.88,1.82.33,3.67.47,5.47.89A31.52,31.52,0,0,1,186.48,363c1.51,1.07,2.9,2.44,4.71,1.65.18,2.36.35,4.7.53,7l-.46.06c-.15-.32-.31-.64-.47-.95a30.52,30.52,0,0,0-1.74-3.36,5.7,5.7,0,0,0-3.51-2.05c-2.94-.75-5.84-1.71-8.8-2.21a44.92,44.92,0,0,0-6.57-.17c-2.24-.06-4.49-.15-6.74-.25s-4.6.18-6.15,1.89c.19.27.54.56.5.76-.24,1.17.05,1.66,1.44,1.89s3,.37,4.49.55c3.11.37,6.19.13,9.35.88s6.56,1.23,9.64,2.6c2.52,1.11,5,2.38,7.53,3.63.15-.11.5-.33.77-.51l1.21,1.78c-.51.39-.93.71-.69,1.53a5.08,5.08,0,0,1-.27,2c-1.22-.47-1.05-2.27-2.72-2.07-.14-.28-.22-.74-.42-.81a34.69,34.69,0,0,0-6-1.71,81.19,81.19,0,0,0-8.68-.38,30.55,30.55,0,0,0-11.62,1.67c-.91.35-1.77.8-2.66,1.21l.2.29,1.61.32-2,.89a8.29,8.29,0,0,0,1.51.59c3,.38,6,1.1,9,.42a2.67,2.67,0,0,1,.89,0c2.31.26,4.61.58,6.91.79,1.12.1,2.24,0,3.36,0,.19.23.34.6.57.66.92.27,1.87.4,2.78.67a10.16,10.16,0,0,1,1.62.84c-3.49,0-6.7-.54-9.81.16a2.21,2.21,0,0,1-.63,0,34,34,0,0,0-4.24-.41c-3,.09-6,.33-8.94.56a18.52,18.52,0,0,0-2.45.45c-.89.18-1.77.39-2.66.58-.6.1-1.39,0-1.66.38a3.21,3.21,0,0,0-.71,1.95c0,.26.87.73,1.39.85,1.51.35,3,.62,4.56.83a14.1,14.1,0,0,0,1.82-.11c1.4,0,2.8.15,4.19.2.93,0,1.86-.05,2.79,0a33.43,33.43,0,0,0,3.93.42,24.55,24.55,0,0,1,8.26.62c1.66.49,3.38.78,5,1.33,1.31.45,2.54,1.25,3.62-.07,0,0,.16,0,.43.09.37,3.18.36,6.33-.91,9.17a11.26,11.26,0,0,1-1.85.09c-.63-.08-1.24-.47-1.85-.49-1.36-.05-2.72,0-4.07.11a18,18,0,0,0-2.08.31c-1.08.22-2.15.45-3.22.7-1.84.42-3.8.9-4.16,2.85l3.42-.67c-.15,1.72-1.33,1.53-2.55,1.46.27.38.42.61.65.95l-1.39.06a2.91,2.91,0,0,1,0,.31c.78,0,1.57,0,2.34-.13a13.45,13.45,0,0,1,3.34-.41c1.33.22,2.62.19,3.91.3s3.53-1.15,4,1.54l1.28-.35c.11.95-.07,2,.41,2.8.83,1.36-.61,2.11-.43,3.23-1.39.27-.71,1.58-.48,1.85.93,1.07.34,1.58-.14,1.85.2.82.31,1.39.49,1.94s.45,1.22.69,1.83h-.61c.61,1.3,1.7,1.24,3,1.3a18.3,18.3,0,0,1,4.25,1.08c.25.08.41.48.58.7l-1,1.34c2.29,1.16,3-.69,4.4-1.48.33,1.54,1.31,1.08,2.34.89-.34-.48-.93-1-.85-1.24.44-1.48-.93-1.85-1.79-2.57s-1.34-1.14-2.15,0a2.57,2.57,0,0,0-.05-.69,4.83,4.83,0,0,1,0-4.44,3.73,3.73,0,0,0-.72-4.39.29.29,0,0,1-.08-.22c.55-1.34-.15-2.66-.37-4-.12-.68,0-1.32,1.24-1.15a19.08,19.08,0,0,0,4.27-.13c3.39-.32,6.76-.82,10.18-1,3-.18,6,0,9.06,0a5.11,5.11,0,0,0,4.1-1.65l-5.06-1a33.36,33.36,0,0,1,3.75.05,3.58,3.58,0,0,0,1.11-.35c-.23-.29-.4-.69-.71-.86a22.46,22.46,0,0,0-9.42-2.27,60.91,60.91,0,0,0-8.86.35c-2.49.24-5,.63-7,2-.74.52-1.38,1.16-2.14,1.65a6.35,6.35,0,0,1-1.43.5c-.11-.32-.36-.67-.3-.94.39-1.8.15-3.8,1.61-5.24a2.63,2.63,0,0,0,2.68,1.37c2.32-.27,4.63-.56,6.93-.9,3.18-.46,6.36-.93,9.54-1.45,2.95-.48,5.86-1.13,8.83-1.52,3.49-.46,7-.7,10.55-1.09a8.88,8.88,0,0,0,1.78-.6,4.83,4.83,0,0,0,1.35.33,36.41,36.41,0,0,0,4.2-.69,10.3,10.3,0,0,0,2-.9c0-.15-.09-.29-.13-.44-.8-.06-1.61-.12-2.41-.2s-1.53-.17-2.29-.26c0-.06,0-.11,0-.17l4.63-.31v-.35c-.2-.14-.39-.3-.6-.42-2.72-1.55-5.77-1.34-8.67-1.88-.16,0-.4.53-.6.82-.37-.31-.71-.83-1.12-.9a10.35,10.35,0,0,0-2.72-.12c-3.49.33-7,.71-10.44,1.09-1.18.13-2.36.29-3.54.43a1.07,1.07,0,0,1,.67-.59c2.86-.56,5.72-1.13,8.59-1.63,2.05-.35,4.14-.58,6.19-.93.24,0,.37-.45.56-.69a4.32,4.32,0,0,0,1.47.42c4.43-.52,8.86-1.05,13.26-1.69a8.65,8.65,0,0,0,4.65-2l-2.27-.61A1.36,1.36,0,0,0,248.38,380.47ZM120.93,266.72Zm-.05,0c1.74-.12,3.48-.27,5.23-.33-1.75.06-3.49.21-5.23.33Zm111.45-16.44h0a11.75,11.75,0,0,1-2.24,1A12.37,12.37,0,0,0,232.33,250.29Zm4.33-.66a5.54,5.54,0,0,1-4.18.64h0A5.54,5.54,0,0,0,236.66,249.63Zm-47.92,64.2a4.54,4.54,0,0,1,.11-.66A4.54,4.54,0,0,0,188.74,313.83Zm0,1.53c0-.25,0-.49,0-.74,0,.25,0,.49,0,.74a10.89,10.89,0,0,0,.21,1.14A10.89,10.89,0,0,1,188.74,315.36Zm.37,1.7a6.64,6.64,0,0,0,.43,1A6.64,6.64,0,0,1,189.11,317.06Zm9.68,58a2.64,2.64,0,0,1-.4-.12A2.64,2.64,0,0,0,198.79,375.08Zm-1.48-.84h0l-1.88.65Z"/><path class="cls-1" d="M208.61,173.62a14.89,14.89,0,0,0,2.47-.31,4.29,4.29,0,0,0,2.17-1.37c.46-.79.86-1,1.36-.72.8-.46,1.4-.82,2-1.15a5.25,5.25,0,0,1,.89-.33c.79-.24,1.23-1.22,2.38-.74.15.06.46-.25.71-.37,1.53-.67,3-1.67,4.62-1.9a5.14,5.14,0,0,0,3.21-1.77l1.1.24.19-.25a3.68,3.68,0,0,0-.71-.42c-1.32-.49-2.65-1-4-1.43a2.83,2.83,0,0,0-1.41-.3c-1.47.41-2.9.94-4.33,1.45a6.19,6.19,0,0,0-1.67.74,7.74,7.74,0,0,1-4.88,1.75,6.66,6.66,0,0,0-2.26.18c-2,.78-3.81,1.76-5.78,2.54a.92.92,0,0,0-.66,1.27A4,4,0,0,0,208.61,173.62Z"/><path class="cls-1" d="M159.34,49.67a6.09,6.09,0,0,0-1.79,2.47c-.22.49.12,1.21.24,2.08a12.14,12.14,0,0,0,2.16-.74c2.71-1.6,5.37-3.26,8-4.91.59-.37,1.08-1,1.73-1.11a7.17,7.17,0,0,0,4.19-2,2.27,2.27,0,0,1,2.5-.87,1.13,1.13,0,0,0,1-.26c.69-1.16,1.93-1.39,3.27-1.48l0-.34-2-.53a5.22,5.22,0,0,1,1.61-.38,4.79,4.79,0,0,1,1.4.72c0-.5.1-1,.15-1.45-.24-.08-.46-.23-.65-.21-1.89.16-3.77.36-5.65.56-.15,0-.36.1-.4.21-.37,1-1.11.81-2,.31-.37.92-.42.8-1.62,1.15a17.09,17.09,0,0,0-4,1.58C164.75,46.09,162,47.82,159.34,49.67Z"/><path class="cls-1" d="M157.05,47.88c.13-.52-.23-1.19-.37-1.79l-.52,0a17,17,0,0,1-.69,6.18c-.21-.83-.12-1.66-.37-2.41a16.41,16.41,0,0,0-3.74-6.58c-2.14-2.21-3.8-4.8-5.73-7.18a19.76,19.76,0,0,0-2.51-2.5,1.76,1.76,0,0,0-1.29-.18c-.16,0-.26.7-.13,1a19.77,19.77,0,0,0,1.55,2.81q4.8,7,9.66,14c.6.86,1.21,1.72,2.57,1.48.23,0,.55.21,1,.38-1.53.81-1.83,4.55-.71,6.54a27,27,0,0,0,1.17-5.54C156.91,52.06,156.51,50,157.05,47.88Z"/><path class="cls-1" d="M155.72,59.71h0Z"/><path class="cls-1" d="M109.79,174.09c-1.85-.25-3.76.09-5.58-.26-2.85-.53-5.52-.08-8.24.17-.35,0-.64.39-1.25.79l6,.45c0,.13,0,.26,0,.39a7.9,7.9,0,0,1-1.09.12c-1.14,0-2.29-.12-3.43-.14a1,1,0,0,0-.71.31c-.07.06.12.5.28.56,1,.38,1.93.7,2.91,1l.07-.21-.51-.41c.94.18,1.9.42,2.87.53.55,0,1.2-.35,1.64-.17a16.89,16.89,0,0,0,4.87,1.15,66.27,66.27,0,0,1,6.69,1.39c.36.07.76-.19,1.15-.29l-2.28-4.18A16.5,16.5,0,0,0,109.79,174.09Z"/><path class="cls-1" d="M207,160.65c.48-.09.94-.27,1.4-.4l-.18-.39-2.74.31c-.21-.35-.37-.63-.55-.91a5.37,5.37,0,0,0-1.37.27c-1.82.9-4.75.56-4.86,3.39a.51.51,0,0,0,.07.23L199,163l2.76,2.9,1-.89c1.72,1.06,2.35-1.11,3.91-.69a8.43,8.43,0,0,0-.54-1.92C205.4,161.06,205.42,161,207,160.65Z"/><path class="cls-1" d="M222.9,149.13c.74-.27,1.3-.48,1.87-.67s1.22-.35,2-.57c0-.07.07-.31.12-.56,2.74,0,5.12-1.2,5.2-2.61l-2.71.39-.18-.5,2.5-.91a18.69,18.69,0,0,0-3.63-.25c-.1,0-.2.13-.29.2-1.48,1.13-1.48,1.13-2.92.33l-4.27.8Z"/><path class="cls-1" d="M220,155.61c-.66-1-1.47-.19-2.09,0s-.4.71,0,1.22a12.94,12.94,0,0,1,1.15,2c.22.41.42.83.79,1.56.11-.63.15-.9.2-1.16l1.62-.05A32.92,32.92,0,0,0,220,155.61Z"/><path class="cls-1" d="M219.56,121.2c.84-.2,1.63-.55,2.45-.82.58-.19,1.17-.35,2.07-.62a13.54,13.54,0,0,0-2.48-.4,11.82,11.82,0,0,0-2.78.56c-.21.07-.32.67-.23,1S219.28,121.27,219.56,121.2Z"/><path class="cls-1" d="M219.21,122.23l.17.41a7.67,7.67,0,0,0,2.51.09c.7-.23,1.16-1,1.73-1.47l-.37-.44Z"/><path class="cls-1" d="M213.49,93.54c.53-.39,1.5-.53,1.14-1.67L211.42,93C212.18,93.87,212.83,94,213.49,93.54Z"/><path class="cls-1" d="M223.46,258.88c.84.35,2.93-.73,3.1-1.56l-3.12,1.05C223.44,258.55,223.39,258.85,223.46,258.88Z"/><path class="cls-1" d="M217,113.87l-.32-.49L214,114.63Z"/><path class="cls-1" d="M231.32,162a7.33,7.33,0,0,0-.86-.8l-.43.36.9.91C231.07,162.29,231.36,162,231.32,162Z"/></svg>