<svg id="Layer_1" data-name="Layer 1" xmlns="http://www.w3.org/2000/svg" viewBox="0 0 333.82 432"><defs><style>.cls-1{fill:#8dc63f;stroke:#8dc63f;stroke-miterlimit:10;stroke-width:3px;}.cls-2{fill:#fff;}</style></defs><title>sequoia</title><path class="cls-1" d="M7.84,61.14C60.78,107.08,108.49,203.63,145.1,407.39c39.42-136.3,99.59-229,181.38-276.18-27.88-33-66.34-32.83-142.16,84.51,41.3-96.75,71.73-171.6,60.33-162.14-43.61,12.45-69,77.56-90.5,153.89l2.26-160.08h-9.8L144,240.45C104.84,93.75,48.19,25.41,7.84,61.14Z"/><path class="cls-2" d="M310.08,130.18a288,288,0,0,0-31.79,18.19,246.6,246.6,0,0,0-28.77,22.36,255.77,255.77,0,0,0-25.06,26.36,279.59,279.59,0,0,0-21.31,29.49,343.12,343.12,0,0,0-17.85,31.77c-5.49,10.86-10.37,22-15,33.3l-3.35,8.51c-1.12,2.83-2.12,5.72-3.21,8.57l-1.6,4.29-1.51,4.32c-1,2.89-2.05,5.76-3,8.66-4,11.57-7.45,23.29-11,35,2.48-12,5.34-23.93,8.67-35.74s7.08-23.52,11.36-35,9.11-22.86,14.41-34a333.17,333.17,0,0,1,17.88-32.36,273.19,273.19,0,0,1,21.91-29.84A235.35,235.35,0,0,1,247,167.81a221.79,221.79,0,0,1,30-21.51A227.73,227.73,0,0,1,310.08,130.18Z"/><path class="cls-2" d="M30.53,63.47a86.19,86.19,0,0,1,17.79,9.91,23.75,23.75,0,0,1,2,1.56l2,1.62,2,1.62c.65.56,1.25,1.17,1.87,1.75l3.72,3.54,3.47,3.78c.58.64,1.17,1.26,1.72,1.91l1.6,2,3.2,4,3,4.18,1.48,2.1,1.38,2.16L78.48,108c.89,1.46,1.69,3,2.55,4.45s1.72,3,2.48,4.49l2.33,4.56a304.41,304.41,0,0,1,15.58,37.8c4.42,12.88,8.23,25.94,11.78,39s6.67,26.33,9.72,39.54,5.94,26.46,8.69,39.73c5.61,26.51,11.06,53,16.57,79.59-7.53-26.05-14.05-52.39-20.37-78.73l-9.5-39.5c-3.18-13.15-6.42-26.29-9.94-39.33s-7.21-26-11.42-38.84a338,338,0,0,0-14.61-37.62l-2.16-4.54c-.71-1.53-1.55-3-2.31-4.48s-1.54-3-2.37-4.44L73,105.35l-1.27-2.17-1.37-2.11-2.74-4.22-3-4-1.49-2-1.6-1.93L58.32,85l-3.46-3.65c-.59-.6-1.14-1.23-1.75-1.81l-1.87-1.68-1.86-1.7a24.66,24.66,0,0,0-1.9-1.65l-4-3.1c-.33-.26-.66-.52-1-.77l-1.06-.69-2.11-1.38L37.2,67.14c-.69-.49-1.47-.83-2.2-1.25Z"/><path class="cls-2" d="M235.41,77.62a278.66,278.66,0,0,0-22.07,29.51,242,242,0,0,0-17.5,32.23,281.35,281.35,0,0,0-12.57,34.41c-3.5,11.72-6.41,23.63-8.9,35.64s-4.73,24.09-6.8,36.22-4,24.28-6.07,36.43c-4,24.31-8.19,48.62-13.32,72.75,3.08-24.47,6.18-48.9,9.46-73.33,1.6-12.22,3.4-24.42,5.26-36.62s4.07-24.36,6.58-36.48,5.56-24.15,9.27-36a255.52,255.52,0,0,1,13.57-34.67,216.93,216.93,0,0,1,19-32A222.57,222.57,0,0,1,235.41,77.62Z"/></svg>