<svg id="Layer_1" data-name="Layer 1" xmlns="http://www.w3.org/2000/svg" viewBox="0 0 306.28 420.52"><defs><style>.cls-1{fill:#90c33e;}</style></defs><title>sharon70</title><path class="cls-1" d="M485,75.08l-.21-3.52c.73-4.74.67-4.37,4.68-3.66,4.9.88,6.89,4.87,8.38,9.27,1,2.81,2.46,5.63,1.35,9.09a2.37,2.37,0,0,0,3,2.78c2.32-.9,3.58.25,4.45,2.49a32.66,32.66,0,0,1,2.08,11.56c0,2,.5,2.41,2,1.62,2.42-1.3,3.85-.12,4.93,2.32,2.83,6.36,5,13.06,8,19.34,1.43,3,3,4.13,5.67,3.07a37.58,37.58,0,0,1,4.14-1.32,2.65,2.65,0,0,1,3.19,1c2.79,4.57,6.36,8.58,7.4,14.41.37,2.06.18,4.75,2.09,6.06,2.34,1.6,3.23,4.09,3.66,6.83,1.22,7.72,4.62,14.54,6.89,21.81.74,2.37,2.88,4.27,4.93,4.29A45.69,45.69,0,0,0,572,181c2.13-.49,6.16,0,7.13,1.34,5,6.66,6.05,14.52,5.31,22.9-.08.87-.2,1.7.6,2.12,2.33,1.21,2.69,3.52,2.57,6-.08,1.59.28,2.36,1.79,2.68,3.61.77,5.41,3,6,7.05a3.92,3.92,0,0,0,.21,1.17A17.05,17.05,0,0,1,596.68,236c-.79,3.53-.21,6.9.06,10.33.06.79.27,1.74,1.06,2,1.86.59,3.24,2.13,4.93,3,4.68,2.52,9.64,3.88,14.65,5.22,4,1.06,4.17,1.17,4.57-3.41a8,8,0,0,0-.08-3c-.69-2.09.4-2.3,1.69-2.4,2.2-.16,5,2,5.72,4.57a35.26,35.26,0,0,1,1.27,6.26c.08.71.07,2.23,1.33,1.58a24.39,24.39,0,0,0,4.38-2.89c2.06-1.7,3-1.52,3.89,1.28,1.53,5.11,2.94,10.26,4.38,15.41a3.4,3.4,0,0,0,2.48,2.76,19.44,19.44,0,0,0,7.7.29c1.67-.16,2.44.66,2.59,2.6,1.18,14.54-1,28.73-4.06,42.7-1.38,6.41-2.64,12.89-4.24,19.27-3,12-6.65,23.24-16.56,30.21a2.4,2.4,0,0,0-.59,1c-2,4.84-5.59,7.51-10.09,8.1-6,.79-8.92,5.17-10.78,10.9a33.92,33.92,0,0,1-6,11.37c-2.81,3.42-6.16,6.22-8.6,10a48.14,48.14,0,0,1-8.29,9.57c-1.92,1.75-3.7,4-6.32,4.43a8,8,0,0,0-5,3.22,8.11,8.11,0,0,1-2.42,2.39,30.84,30.84,0,0,0-8.18,5.68c-4.74,4.66-9.75,9-14.3,13.87-4,4.26-7.31,9.26-11.17,13.65a12.3,12.3,0,0,0-3.1,10.72c.38,2.5.82,5,1.11,7.53.15,1.37.57,3.54-1.49,3.54-7,0-7.59,1.8-7.87-7,0-.31,0-.62,0-.92-.06-4.61-1.53-8.38-5.34-10.39-5.52-2.92-10.18-7.11-14.55-11.84a25.88,25.88,0,0,0-4.79-3.84c-6.43-4.28-12.11-9.76-18.2-14.6-7.23-5.74-14.58-10.91-23-14.1-6.74-2.54-13.6-5-19.17-10.6a15,15,0,0,0-13.31-4.43,42.31,42.31,0,0,1-15.22-.29c-4.09-.84-8.3-1.86-11.45-4.84A111.36,111.36,0,0,1,385,381.28c-2-3.4-3.15-7.52-6.16-10.22-2-1.82-4-3.77-6.06-5.47-6.06-5.07-9.22-12-11.37-19.82a2.84,2.84,0,0,1,1.37-3.54,82.27,82.27,0,0,1,8.49-4.28c1.72-.69,1.56-1.33.67-2.64-2.84-4.15-4.62-8.92-6.32-13.77-1.46-4.16-2.88-8.34-4.32-12.5-2.54-7.34-1.11-10.5,5.19-13.81a18.56,18.56,0,0,1,4.86-1.77c3.35-.71,3.33-.71,2.45-4.36-.65-2.7-.88-5.39,1.54-7.12,1.64-1.16,2.19-2.69,2.37-4.76a10.67,10.67,0,0,1,3.81-7.77c1.16-.92,2-1.34,3,.47,2.21,3.83,4.71,7.43,7.08,11.13a5.26,5.26,0,0,1,1.12,2.21c.12.94.27,1.71,1.61,1.27,3.51-1.17,6.82-.22,10.1,1.57,2.28,1.25,4.25,3.2,7,3.55a22.1,22.1,0,0,1,10.41,4.65,6.25,6.25,0,0,0,5.21.84,8.89,8.89,0,0,1,6.34,1,25.81,25.81,0,0,1-1.62-7.42c-.12-3,.7-5.89.64-8.84-.1-4.71-.82-9.16-5.13-11.52-5.25-2.88-9-7.66-12.31-12.92-4.15-6.65-4.07-6.77,2-10.81,1.2-.8,1.66-1.52,1.09-3.13a37,37,0,0,1-1.86-6.7c-1.62-10.46-2-20.87,1.23-31.12.57-1.79,1.17-3.18,2.81-3.7,6.06-1.94,12.13-2.68,18.22-.17.69.29,2.07,1.45,1.81-.43-.66-4.85.25-9.73-.62-14.58-.55-3.06-1.28-6.17-1-9.4.31-3.68,1.34-5.08,4.53-5,1.81,0,2-.39,1.74-2.36-.78-5.24-1.38-10.53.12-15.77,1.18-4.12,2.25-5,6-5.21a13.82,13.82,0,0,1,9.27,2.47c1.25.93,2.62,1.66,4.47,2.82-1.6-6-.45-11.48-.24-16.94A29.56,29.56,0,0,1,469,120.56c1.92-3,4.12-6.59,8.41-4.32.79.42,1.14-.15,1.05-1.08-.4-4.21.85-8.33.55-12.5-.38-5.17,2.35-9.38,3.17-14.18a3.48,3.48,0,0,1,2.42-3c.65-.13.87-.67.88-1.33C485.49,81.1,486.12,78,485,75.08Z" transform="translate(-351.35 -67.48)"/><path class="cls-1" d="M353.76,361.27c0,.74-.48.81-1,.82s-1.19-.13-1.37-.8.29-.89.87-.91S353.55,360.49,353.76,361.27Z" transform="translate(-351.35 -67.48)"/><path class="cls-1" d="M408.2,222.81c-.46-.16-1.09-.21-1.06-.85s.6-.75,1.12-.73,1.09.16,1.06.79S408.68,222.68,408.2,222.81Z" transform="translate(-351.35 -67.48)"/><path class="cls-1" d="M408.94,225.58a.88.88,0,0,1-1.07.75c-.46-.07-.85-.34-.74-.84s.57-.61,1-.66S408.89,225.06,408.94,225.58Z" transform="translate(-351.35 -67.48)"/><path class="cls-1" d="M439.49,190.69c0,.41-.12.79-.56.73s-1-.28-1-.92c0-.42.34-.58.75-.58A.73.73,0,0,1,439.49,190.69Z" transform="translate(-351.35 -67.48)"/><path class="cls-1" d="M435.73,198.23c.58-1.08,1-1.53,1.75-1.18a.59.59,0,0,1,.19.55C437.32,198.48,436.61,198,435.73,198.23Z" transform="translate(-351.35 -67.48)"/><path class="cls-1" d="M486.73,445.39a.84.84,0,0,1-1,.54.5.5,0,0,1-.41-.62c.11-.53.54-.57,1-.51A.47.47,0,0,1,486.73,445.39Z" transform="translate(-351.35 -67.48)"/><path class="cls-1" d="M359.44,312.52c.39.11.77.12.64.5-.06.17-.42.29-.66.31s-.63-.06-.51-.44C359,312.71,359.3,312.61,359.44,312.52Z" transform="translate(-351.35 -67.48)"/><path class="cls-1" d="M355.5,355.87l-.3.36c-.13-.14-.35-.26-.36-.4a.55.55,0,0,1,.29-.44C355.36,355.32,355.51,355.51,355.5,355.87Z" transform="translate(-351.35 -67.48)"/><path class="cls-1" d="M421.45,209.12c.05-.11.08-.29.16-.32s.22.08.34.13c-.05.12-.08.3-.16.33S421.57,209.18,421.45,209.12Z" transform="translate(-351.35 -67.48)"/><path class="cls-1" d="M374.12,377.44c-.11.05-.26.16-.34.12s-.1-.22-.14-.33c.12-.05.26-.15.34-.12S374.08,377.33,374.12,377.44Z" transform="translate(-351.35 -67.48)"/><path class="cls-1" d="M365.92,302.71l.35.15c0,.12-.08.3-.16.33s-.22-.08-.34-.13Z" transform="translate(-351.35 -67.48)"/></svg>