<svg id="Layer_1" data-name="Layer 1" xmlns="http://www.w3.org/2000/svg" viewBox="0 0 333.82 432"><defs><style>.cls-1{fill:#8dc63f;}</style></defs><title>silk</title><path class="cls-1" d="M184.12,259.52c4,4.37,5.22.9,5.4-5.59,2.59,11.9,14,15.93,19,6.57,18.11-33.38,41.42-42.71,66.9-40.18,4.62.46,9.13,7.12,13.5,11.48,4.58,4.58,8.93,9.84,12.27,13.56-4.72,7.69-10.13,18.09-16.47,26.49-12.35,16.35-26.6,22.95-42.4,21.51-13.78-1.25-26.79-5-37.34-21.59-.7-1.11-1.67-2.35-2.55-2.43a78.51,78.51,0,0,0-8.54,0c.07,3.76.06,7.53.23,11.27a35.44,35.44,0,0,1,.4,5.24c-2.53-8.81-5.29-17.49-11.95-16.48-5.43.82-11.45,1-16.05,5.12-15.73,14.14-32.39,14.42-49.12,10.77-14.35-3.14-27.28-12.73-37.26-31.84-3.34-6.39-7.86-11-11.13-15.45,19.45-23.62,41.43-38,67.69-21.83-25.73-31.48-33.72-75-32.43-123,4.31,0,9.91-.79,15.41.16,12.78,2.2,24.33,10.29,32.54,27.24,5.69,11.76,9.79,25.69,14.65,38.61.59,1.59,1.44,2.9,3,6-.42-9.88-1-17.65-1-25.43,0-22.35-.32-45,6.9-65,2.38-6.61,6.09-11.89,9.26-17.66,2.67-4.85,5.44-9.52,8.26-14.43,4.88,7.2,11.94,14.64,16.58,25.14,7.78,17.65,9.66,39.1,8.29,60.76-.83,13.11-3,26-4.79,41.43,13.52-46.33,32.12-77,63.25-71.08.48,6.34,1.1,14,1.63,21.59,1.2,17.27-2.38,32.62-6.64,47.79-7.49,26.65-21.47,41.22-35.79,54.95-11.46,11-22.87,22.47-37.08,26.21,2-15.87,3.9-31,6-47.39l-15.6,42.54-12.19-45.34-.72.31c.05,1.81,0,3.64.16,5.43q1.41,20.25,2.89,40.46c.17,2.29.63,4.51,1,6.76L160.69,240c12.19,25,16.95,30.19,25.05,24.42Z"/><path class="cls-1" d="M179.48,282.18c7.65,46.15-6.92,74.51-26.41,98.24C145.81,327.36,157,292.19,179.48,282.18Z"/><path class="cls-1" d="M184.12,259.52l1.62,4.86c-8.1,5.77-12.86.57-25.05-24.42l19.53,12.18Z"/><path class="cls-1" d="M249.44,402.58,189.5,281.17q2.07-3.27,4.13-6.55Q226,331.68,258.3,388.73Z"/></svg>