<svg id="Layer_1" data-name="Layer 1" xmlns="http://www.w3.org/2000/svg" viewBox="0 0 173.6 429.07"><defs><style>.cls-1{fill:#90c33e;}</style></defs><title>stewartia</title><path class="cls-1" d="M384.05,238.23a3.56,3.56,0,0,1,0-2.41c.87-.66.88-1.34.06-2-.42-9.23-.51-18.45,1.08-27.61a.82.82,0,0,0,.46-1h0l3.4-1.33c-1.36-.09-1.59-2.13-3.05-1.66,0-.36.05-.72.08-1.08,1.58,1.24,2.35-.08,2.76-1.14.53-1.41-1-1.15-1.71-1.53a4.85,4.85,0,0,0-1.46-.25,2,2,0,0,1,.41-1.56c1.75.89,1.93,1,2.12.64.67-1.13.69-1.18,1.64-.76,1.29.55,2.54,1.18,3.88.15.73.12,1.58.2,1.66,1.14s.58.95,1.19.77a1.36,1.36,0,0,0,1-1.55,3.79,3.79,0,0,0-3.25-2.71c-1.88,0,.81,1.44-.36,1.94-.12.05-.15.28-.23.43a3.85,3.85,0,0,1-1-.23c-.5-.26-1.29-2.63-1.28-3.31,0-.38-.32-1.29-.65-.83-1,1.44-2.84,1.13-3.08.4-.51-1.6-1.53-3.42-.48-5.22.28.79.15,1.69,1,2.16.61.34.3,1.65,1.47,1.37-.28-1.11,1.55-1.28,1.14-2.27-.83-2,.87-.8,1.35-1.12l.17.12-.19-.11c1-1.33,1.84-2.78,3.64-3.36-.54-.34-1.09-.52-1.35-.9-.46-.68-.75-1.71-1.72-1.48s-.33,1.29-.55,1.95c-.4,1.17-.88,1.72-2.12.7-2.59-2.15,1.42-2.62,1-4.35-.2-.95.78-.17,1.18-.07s1.09.72,1.59.13a2.77,2.77,0,0,0,.39-1.3c-2-.76,0-1.71.06-2.68-1.92.68-2.23-1.12-3-1.85a3.06,3.06,0,0,1-.86-3.5c1.57-4.07,1.84-8.54,3.52-12.62a4.32,4.32,0,0,0,.08-1.45l.06-.87c1-2.33,2.39-4.58,2.86-7,.58-3,1.9-4.5,5-4.6,1.65-.06,1.77-1.29,1.09-2.47-1.09-1.89-2.16-.79-3.26.48,0-.72-.17-1.31,0-1.49,1.65-1.53,2.06-3.79,3.36-5.52,1-1.28.73-2.12-.55-2.51,0-.43-.09-.86.38-1.12a2.35,2.35,0,0,0,1.39-3,1.61,1.61,0,0,1,1-1.38c2-1.18,2.53-3.48,3.65-5.21A13.19,13.19,0,0,1,413,117.7a1.7,1.7,0,0,1-2.14,0,15.29,15.29,0,0,1,3.74-7c1.5-1.81,2.51-4,4.39-5.54,2,0,2-2.07,3-2.94,1.7-1.39,2.72-3.34,4.35-4.79.75-.68,2.07-1.85,1.48-3.44h0A1.85,1.85,0,0,0,430.15,93c1.63-2.92,1.76-2.85,4.13-1.85a2.25,2.25,0,0,0-2.7,1.71,13.56,13.56,0,0,1-2.19,3.84.53.53,0,0,0-.08-.17s-.08,0-.13,0l.21.2c-.41,2.64-2,5-2,7.7,0,1.56-.51,2-2.16,1.55-2.84-.83-2.53-.38-4.11,1.21-.94.94-.9,3-2.92,3-.78,0-.84,1.13-.8,1.87s.77.68,1.33.78c.75.14,1.88-.36,2.06.86.21,1.42,1.22,1.07,2.08,1.14h0c-1.26,1.41-1.22,2.9-.11,4.61,1.21-1.65,2.43-3.29,3.81-5.16.62,2.4,2.05,4.21,2.09,6.52.3-1.5,1.08-3-.52-4.31a1,1,0,0,1,.44-1.62c1-.35.67-1.35,1.72-1.89-1-.11-1.24.14-1.35.47-.22.64-.63,1.17-1.24.58s.08-1.32.46-1.44c1.93-.6,2.8-3,5.18-2.85,1.33.09,1.7-.72.78-1.71-1.15-1.24.28-1.58.73-2.11.7-.84,1.36-.49,1.95.38a9,9,0,0,0,1.64,1.48,8,8,0,0,1-2.39,2.52c-.17.15-.89.22-.5.34,1.6.54.17,1.79.71,2.51a1.85,1.85,0,0,0,1.83-1.13c.86-2.46,2.77-2.23,4.69-1.94.27,0,.55.48.62-.1.39-3,1.74-.88,2.93-.52-1.23-1.66-1.18-3.88-2.88-5.18.35-.53,1.18-.81.95-1.63-.59-2.14.57-2.65,2.39-3,1.25-.24,3,.52,3.87-1.75-1,2.84,0,3.66,2.34,3.35l.19.67.19-.13-.38-.54c.86-1.94.34-3.87-.23-6.12,1.27,2.86,2.7,2.89,4.26.65,1.06,1.54,1.86,3.08,4,3.4a3.58,3.58,0,0,0,2,4.14c.56.26,1,.57,1.59.27a1.1,1.1,0,0,0,.42-1.34c-.51-1.73-.39-4-2.75-4.46a1.82,1.82,0,0,1-1.57-2.15c.55-1.86.71.47,1.16.23a1.22,1.22,0,0,0,.61-.7c.16-.91.91-1.13,1.57-1.44a4.34,4.34,0,0,0,2-6.05v0c.06-.46.15-.85.76-.56a6,6,0,0,1,3.34,3.21c3.52-1.88,1.11-5.27,2-7.76a28.13,28.13,0,0,1,.51,4.9,82.85,82.85,0,0,1,0,15.51c-.77,7.55-.49,15.22-.7,22.84-.14,5.5,0,11-.3,16.52-.13,2.8-2.74,5.19-1.13,8.13l-.12.17.11-.19c.54.09,1.08.25.61.93-1,1.4-.47,3-.82,4.54-.3,1.27-.23,2.81-.93,3.79-1.34,1.85-1.41,2.79.58,3.84.8.43,1,.75.65,1.73-.74,2.37-2.41,4.78-.22,7.32a2.22,2.22,0,0,1,.06,1.94,18.41,18.41,0,0,0-1.39,7.53c0,.86-.07,1.69-1.05,2.05l-.18-.11.19.1c1.32,3.06-.3,6.28.49,9.37,0,.17-.31.42-.33.65-.09,1.13-.64,2.6.34,3.29s.95,1.63.93,2.58c-.2,8.54.12,17.08-.18,25.62,0,1.17-.23,3,.83,4.23v.94c-1.62,1.91.24,4.05-.38,6.18-.35,1.17-1,2.65-.69,4.05.59,3-.2,6.08.88,9,.2.55.22,1.52-1,.83a2,2,0,0,0-.66-.09c.4,2.14-2.42,3-2.07,4.88.25,1.28-.8,1.2-1.1,2,.43.41,1.53-.75,1.66.9a3.52,3.52,0,0,1-1.16,3.24c-.37.35-1.61,0-1.14,1a1.06,1.06,0,0,0,1.82-.27.58.58,0,0,1,1-.12c.16.85-.58,1.3-.85,1.89.88.65,3.94.05,1.34,2.56-.23.22-.05.82-.22,1.17-1.35,2.78,1.13,5.11,1,8s.33,6.16.11,9.19a6.5,6.5,0,0,1-4.59,5.8c-.48.16-.95.6-.86,1.11s.79.53,1.24.38c.89-.29,2-.3,2.08-1.72,0-.56.32-1.16,1.33-.84a3.84,3.84,0,0,0,.4,3.46,1.75,1.75,0,0,1-.82,2.49c-2.58.46-2.6.3-3.1,2.48,2.75-1.91,2.75-1.91,5.16-1.47-.82,1.59-1.73,3.15-2.42,4.8-.33.78-.78,1.13-1.49,1-2.65-.48-3.06,1.78-4.1,3.27-.28.41-.32,1-.65,1.33s-.82,1.27-1.52,1.11a1.24,1.24,0,0,1-.74-1.44c0-.37.08-.71-.42-.64a.75.75,0,0,0-.56.4c-.65,2.93-2.82,2.42-4.88,2.2-.6-.07-3,2.77-2.68,3.12.72.71,1.52.22,2.18-.21s.47-1.41,1.86-1.42c-.78,1.57-1.41,2.89-2.1,4.17-.37.7-.84,1.87-1.74,1.32s.11-1.42.37-2.14c0-.09-.15-.26-.26-.45-1.19.14-2,.57-1.93,2,.05.71-.1,1.35-1,1.43l0,0c.11-1.1-1.69-2.33.3-3.37.28-.15-.16-1.19-.53-1.73-2.65,1.78-1.69,4.88-2.65,7.28-.31.79.73,1,1.37.56,1.38-.93,3.44.2,4.57-1.6a1.18,1.18,0,0,1,1.73.27c.29.56-.61.66-.74,1.12-1.38.37-1.18.95-.13,1.89l.12-1.89c1.26.29,2-.46,2.78-1.28.44-.49.82-1.36,1.53-1.12,2.46.83,5.18.25,7.74,1.31a1.23,1.23,0,0,1-1.25.47c-1.55-.06-1.81,1.32-2.14,2.29-.45,1.31,1.09.8,1.38,1.14,1.5,1.78,2.85.62,4.48-.28-1.27,2.19-3,2.61-5.39,1.5-.57-.27-1.41-.63-1.41,0,0,2.45-1.92,2.34-3.4,2.86a1.91,1.91,0,0,0-1.31,2.16c0,.78.05,1.62.92,1.87a2.07,2.07,0,0,0,2.49-.63c1.13-1.55,2.78-.91,4.28-1-2,1.22-3.71,2.89-5.92,3.82-1.82.77-3.08,4.16-2.52,6.3-.79.12-1.13-.66-1.73-.84-.07-2.3,1.64-3.89,2.37-5.87.11-.28.49-.5.28-.83-.09-.15-.61-.22-.62-.2-.61,1.53-1.88.48-3.66.64,2.64,1,1.6,2,1.15,3.16-.35.92-2.39,2.52.43,3.14,0,.7,0,1-1,1.2a1.72,1.72,0,0,1-2.1-1.15c-.58-1.18-1-2.11-2.49-.94-.26.21-.93-.09-1.41-.16a3.06,3.06,0,0,1,.18-2.85c-1.13-.28-1.51.6-2.19.84l-.5-.5c-.07-.18-.07-.49-.37-.19l.32.24.5.5c0,.68.59,1.39-.25,2-.4.31-1,.88-.2,1.36a.93.93,0,0,0,1.43-.51c.19-.52.44-.87,1-.87,1.64,3.4,2.29,6.55-2,8.64a1.25,1.25,0,0,0-.63,1.76,10.21,10.21,0,0,0,2.38-1.11c1.87-1.58,3.59-3.32,5.43-4.92.78-.68,1.59-1.77,2.78-1.32,3.14,1.16,6.31,2.33,8.61,5l0,0c-1.27.55-2.11-1.21-3.47-.59s-2.84,1-4-.55a1,1,0,0,0-1.58,0c-.7.68.14,1,.45,1.39a33.46,33.46,0,0,0,2.26,2.64c1.5,1.49.25,2.34-.86,2.35-2.3,0-3.62,1.85-5.74,2.16.75,1.15,2.52-.59,2.48,1.15,0,1.12-1.35,1-2.22,1s-1.52.41-1.61,1.24c-.13,1.1.94.63,1.43.92s1,.27,1.1.88-.39.69-.75.9-1.6-.08-1.21,1.06c.26.78,1,1,1.83,1.05s1.64-.33,2.25.79c-.58.09-1,.18-1.37.21-2.8.19-3.56.95-3,3.73a2.29,2.29,0,0,1-1.11,2.81c1.22-.07,2.14.16,2.47-.18,2.27-2.36,4.95-1.61,7.68-1.4,3.05.23,6.16-.15,9.2.17,1.8.19,4-.46,5.38,1.41v0c-1.9,0-3.81,0-5.69-.17-1.66-.17-3.4-1.1-4.71.63-1,1.33-2.21,2.66-1.65,4.58-1.11-.92-2.73.24-3.86-1-.29-.31-.95-1.23-1.65-.47-.87.95.39.93.73,1.32.14.17.47.31.13.52s-1.63,0-1,1.09c.48.8,1.3.32,2,.16a3.62,3.62,0,0,1,1.95-.07c1.88.73,1.65-.49,1.63-1.59,1.33.51,1,3.69,3.76,1.82-1.49,2.9.48,3.77,2.16,4.64-1.15,1.88-2.54-.58-3.77.54,1.43,1.59,3.52,1.3,5.24,1.87a32.42,32.42,0,0,0,7,1.59c1.81.19,2.79,1.3,2.2,3.41-1.74-1.12-3.85-3-5.56-1.7s-2.8,0-4.11-.18c-.79-.08-2.26,0-1.23-1.77.36-.6-.52-.65-.95-.45s-1.1.66-1,1.3a1.64,1.64,0,0,0,1.53,1.43c1.56.19,3.18.74,3.81,2,1,2.08,2.58,2,4.35,2.08.93,0,2.29-.71,2.69,1h0c-2.24.43-4.49,1.11-6.62-.34-.32.74,1.28,1.54-.33,1.87-.15,0-.88.23-.29.37,1.33.31,1.47,2.12,3,2.09.24,0,1.15-.12.66.47-1.16,1.39.05,1,.68,1,1.16,0,2.32-.05,3.49-.15,1.43-.12,3,0,3.38,2,.76,4.32,1.63,8.61,2.34,12.93.83,5,2.24,10,2.49,15.37-1.33-.9-2.53.11-3.93-.72A56.82,56.82,0,0,1,468.11,416c-.9-.92-1.55-2.25-3.1-2.35h0c.07-.64-.17-1-.84-1.09a.35.35,0,0,1-.23-.29c.1-.73-.2-1.12-1-1.12h0c0-.74-.36-1.05-1.07-1a.56.56,0,0,1-.34-.33.28.28,0,0,0-.28-.28L460,408.22c0-1.23-1-1.43-1.87-1.66l0,0a5.57,5.57,0,0,0-4-3.49L453,402a.91.91,0,0,0-.91-1,2.66,2.66,0,0,1-1.2-1.34.53.53,0,0,0-.56-.54l-1.45-1.47a.52.52,0,0,0-.54-.55l-.46-.46c.08-.75-.3-1.06-1-1.08l-2.05-1.9c.08-1.25-.67-1.65-1.75-1.7a.42.42,0,0,1-.23-.33l-.5-.57h0a1.41,1.41,0,0,0-1.32-1.6l-.6-.61-.26-.38-.82-.91a1.47,1.47,0,0,0-1.35-1.61l-.68-.86a6.25,6.25,0,0,0-3.38-4.17l-1.65-1.86a1.35,1.35,0,0,0-1.28-1.66.89.89,0,0,1-.2-.4,2.25,2.25,0,0,0-1.77-2.12l-.94-1.67a8.52,8.52,0,0,0-3.13-5.35q-3.11-5.24-6.2-10.47c.1-.58-.07-1-.71-1.11l-.39-.75a.6.6,0,0,0-.4-.69.35.35,0,0,1-.06-.39c-.32-1.92-1.56-3.42-2.42-5.08-.66-1.28-.84-2.93-2.4-3.62-.24-.45-.47-.91-.7-1.36a.85.85,0,0,0-.57-1.17l-.35-1c0-2.47-2.05-4.27-2.36-6.68,1.29-.3,2.06.72,3.14.89.27-1.41-.11-2.81.13-4,.38-1.89-2.11-3.58-.23-5.43-1.06-.89-.12-3.28-2.45-3.23.06-.78,1.79-.71,1.11-1.57-.86-1.07-2,.69-3.13.11,2-2.18,1.84-2.25-.56-4.23a16.6,16.6,0,0,0-2.4-1.25c.4-.85,3,.44,1.49-1.81-.24-.37.51-.77,1-.83a2.35,2.35,0,0,0,2.13-1.27c-2.18-.8-3.7.15-4.91,1.44-1.16-3.35-2.39-6.65.77-9.74-1.31.59-2.26,1.12-3.48.65-.27-.1-1.26.24-1,.78.66,1.21.48,1.56-.9,1.63s-2.15-.26-2.42-1.57c-.61-2.91-2.24-5.42-3.13-8.23-.43-1.37-.65-3-2.09-3.84,0-.24-.06-.48-.08-.71-.18-1.35,1.18-3.18-1.21-3.82-.05-.32-.11-.64-.16-1,.9-.76.19-.87-.41-1A72.08,72.08,0,0,1,386.1,264c.71-.34.75-.69,0-1.05a1.25,1.25,0,0,1,.16-1.46c.39-.07.93,0,1.16-.24,1.66-1.68,3.25-3.43,4.89-5.14,2.19-2.3,3.32-5.91,1.84-7.68A69.29,69.29,0,0,0,384.05,238.23Zm67.39-71.82L451,167a1.63,1.63,0,0,0-1.57,1.45c-.16.1-.45.14-.15.4l.25-.29A1.63,1.63,0,0,0,451,167l.58-.43.19-.32Zm-17.5,154.81.21-.27-.27.22-.5.5c-1.71.3-3.38.7-4.49,2.24-.23.32-.8.74-1,.36-1-1.65-1.64-.44-2.52.09-.52.3-1.2.92-1.95.14-1.07-1.11-2-.12-2.68.5-.55.48,0,1.4.33,1.79.84.9,1.42-.11,2.07-.54s1.59-1,2.72-.35c-1.64.05-1.48,2.13-3.74,2.28-2.6.18-5.2,1.19-8,.64a1,1,0,0,0-1.23,1c-.06.33.08.85.42.72,2.09-.75,1.23,1,1.51,1.73l-.11.21.1-.22c1.32.29,2.54.5,1.26,2.36-.43.63-.21,1.78-.14,2.69.05.66.59,1,1.27.9s1.53-.42,1.36-.82c-.62-1.51.68-3.06-.41-4.68,1.77.36,2.94-.69,4.31-1.2.8-.3,2-1.44,2.61-.28.53,1-1.18.83-1.59,1.49a3.08,3.08,0,0,1-1.79,1.22c-2.55.91-3.06,2.8-1.56,5.38,1.82-2,5.46-1.32,6.51-4.43,2.47,0,4.27-1.92,6.67-2.21,1.37-.17,2.88-.54,2.63-3.06.92,2.36,1.77,2.63,3.2,1.45.5-.41.75-1.1,1.49-1.26s1.67,0,1.5-.88c-.25-1.18-1.21-.37-1.85-.25-3.09.6-3.61.2-4.41-3.06-.15-.63-.94-1.56-1.41-1.55-.71,0-2-.25-2.14,1.16a1.28,1.28,0,0,1-.74,1.14c-2,.91-4,1.77-4.73,4.29-1-3.19-.31-4.41,2.14-5.62,1.62-.8,3.56-1.41,4.44-3.3Zm-6.56,23.59c.37-.08.8-.07.75-.62,0-.06-.1-.16-.16-.16-.53,0-.57.38-.59.77l-.69.18.13.21Zm-8.54-229.08h1.9c-.91-.67-1.43-.57-1.89,0l-.23.2c.05,0,.11,0,.13,0A.51.51,0,0,0,418.84,115.73Zm-11.45,18.18a7.61,7.61,0,0,0,.75-.51S408,133,408,133c-.54-.08-.64.34-.74.74a.93.93,0,0,0-.35,1.06c0,.06.11.1.18.14Zm34.05,184.28a.54.54,0,0,0-.07-.19s-.09,0-.14,0l.23.21c.06.37,0,.82.59.79.06,0,.16-.1.16-.16C442.26,318.22,441.81,318.25,441.44,318.19Zm-9-180.93-.35-.19.2.34c.14.58.37,1.12,1,1.24a.33.33,0,0,0,.42-.43C433.62,137.56,433,137.41,432.48,137.26Zm-20.66-9.45c-1.48.27-.9,1.19-1.06,2.44a2.92,2.92,0,0,0,1-2.46l.51-.5c.78.25,1.06-1.32,2.15-.44,1.25,1,1.16.22,1.05-.91-.17-1.86.1-3.6,2.77-2.6l.54.45c0,.94,0,1.84,1.39,1.85.16-1.17-.66-1.47-1.35-1.88l-.45-.55c0-.49,0-1-.5-1.33-2.06-1.38-2.37-3.4-2-5.62a22.88,22.88,0,0,1,.86-2.81c-.39,0-.65,0-.68.06-.93,2.15-2.59,3.91-2,6.74.37,1.66,1.52,4.34-1.58,5.42-.52.18-.23,1.06-.24,1.63ZM463.1,300.05c-.26-.55.33-1.48-.7-1.79-.59,1-.09,1.46.59,1.88.58.84,1.26,1.68,2.36,1.3.2-.07,0-1.4-.12-2.85C464.54,299.9,463.89,300.17,463.1,300.05Zm-53.76,16.66c.67-.56,2.31-.65,1.62-1.93s-1.77.14-2.84.15c1.14.18,1.21.9,1.14,1.71-.79,0-1.53.13-1.43,1.21,0,.35.21.71.59.63C409.38,318.27,409.34,317.46,409.34,316.71Zm4.91.39c-1.93.2-1.92,2.44-3.35,3.25l1.9-.14.24.21-.2-.25a3,3,0,0,0,1.57-2.9c.44-.11,1,.08,1.2-.57,0-.12-.24-.42-.41-.46C414.55,316.12,414.38,316.6,414.25,317.1Zm18.16,36.74c-.5.16-1.83-.28-.86,1a26.46,26.46,0,0,0,2.46,2.51,3,3,0,0,1,1.61-3.69,4.19,4.19,0,0,0,1.81-2,2.18,2.18,0,0,0-.63-2.57c-1.06-.61-1.33.7-1.84,1.22-1.2,1.21,1.05.63.83,1.52-1.78-.43-2.84.36-3.39,2ZM452,293.58c-.08-.59-.19-1.17-.89-1.32a.33.33,0,0,0-.42.43c.17.67.74.79,1.33.87.43,1.29-2.18,5.42-3.46,5.27-.89-.1-1.46-.2-1.65.84-.08.46-.56,1,.12,1.28a2,2,0,0,0,2.12-.36,31.14,31.14,0,0,0,3.54-3.54,2.43,2.43,0,0,1,3.34-1,.56.56,0,0,0,.07.18s.09,0,.14.05l-.22-.22.63-1.26C454.77,295.59,453.82,292.93,452,293.58Zm-12.05,27.1v0a2.45,2.45,0,0,1,.36-.89c.51-.54.81-1.11-.25-1-.81.08-1,1-1.1,1.76-.21,1.49-.6,2.95,0,4.47.4,1.09-.58.56-1,.69-.07-.38,0-.83-.63-.78a.22.22,0,0,0-.16.16c0,.58.42.56.8.61.36,1.59,1.93,1.31,3,1.77.55.25.76-.71,1-1.23.09-.21.17-.46-.38-.57-1.6-.34-1.8-.95-.43-1.94s1.75-2.22,2.7-3.35C442.29,319.79,441.14,320.54,439.94,320.68ZM460,388c-1.82-.6-3.47-1.8-5.53-1.5.76-3.07,3.84-3.74,5.82-5.56-.64-1.05-2.26-.43-2.75-1.79-.16-.42-1.08-.14-1.18.36-.44,2.07-2.29,2.78-3.73,3.75-1,.67-1.19.93-.34,1.72.66.61,1.15,1.46,2.2,1.5a23.15,23.15,0,0,0,6,8.27c2,1.9,3.32,3.44,6,1.64.13-.08.2-.24.34-.43-.36-.86-1.2-1.2-1.88-1.76-.58.56.54,1.72-.78,1.81-.57,0-1.18.18-1.55-.48-.74-1.31.72-1.86,1.15-2.68-1.11-.83-2.06.19-2.48.06-1.18-.49,1.41-1.19-.78-1.49s-2.34-1.4-1-2.93c.56.45.92,1.23,1.92,1.28C461.45,388.62,461,388.09,460,388Zm-25.12-48.24c3,.59,3-2.35,4.35-3.73.16-.17.44-.42.41-.56-.17-.6-.61-.61-1.18-.52a7.83,7.83,0,0,1-4.42-.57,2.65,2.65,0,0,0-2.94.47c-1,2.19-3.86,1.79-4.89,4.29-.94,2.25-1.77,2.73-.81,5.41,1.08-1.12-.39-3,1.12-3.82s2.83-2.11,4.62-2.44c.59-.1,1.55-.21,1.46-.7-.41-2.15,1.24-1.24,1.94-1.73.62,1-1,2-.31,2,2,.24.42,1.3.66,1.88-.74-.09-1.93,1.81-2.19-.5,0-.06-.57-.13-.57-.12-.35,1.5-1.81.88-2.65,1.41a1.36,1.36,0,0,0-.58,1.3c0,.33.07.71.51.72,1.64,0,2.94-1.3,4.68-1.15C434.59,341.49,434.92,340.48,434.91,339.77Zm9.53-11.06,0,0c-.62,3.39,2,4.71,3.89,6.55.82-.81-.11-1.57.51-2.27,1.15-1.3.36-2.54-.79-3.07-1.83-.85-.87-1.54-.18-2.4s1.48-.68,2.21-1c.93-.44,2.2-.88,1.76-2.32-.62-2-1.57.49-2.39,0,.07-.35,0-.67.19-.82,1.17-1.14.74-2.21-.39-2.84-1.75-1-.79.66-1,1.19s-.5.1-.81,0c-1.56-.49-3.25-.33-3.73,1.3C443.17,324.88,441.54,327.18,444.44,328.71Zm-6.74,33.38a1.47,1.47,0,0,0,1.82-.09c2-1.26,3.69-1.73,3.93,1.53,0,.34.1.74.53.52a2.44,2.44,0,0,0,.72-.84c-1.45-1.33-.06-2.84-.3-4.22,0-.17-.3-.3-.45-.44-.71.34.17,1.22-.72,1.48-1.34-.94-1.22-2.86-2.51-4.08C441.9,359.19,438,359.67,437.7,362.09Zm-.58-53c-.06.85-.78,1.2-.09,1.48.3.13,1,0,1.12-.23,1.08-2.9,3.87-3.28,6.23-4.27,1.11-.47,1.05-1.37,1-2.29,0-.41,0-.87-.51-1-.67-.16-.85.3-.91.84s0,1.59-.94,1.42c-2.93-.51-3.51,2.84-5.79,3.38C436.49,308.6,437.12,309.19,437.12,309.08ZM457,378.24c-3.95-1.4-4.44-1.17-6.51,2.34-.34.57-.7,1.18-.16,1.83.7.85,1.44.27,2-.14C453.78,381.1,455.19,379.81,457,378.24ZM421.66,290c-1.4.05-2.92.12-3.5,1.16a57.77,57.77,0,0,1-4.09,5.57.53.53,0,0,0,.23.82.68.68,0,0,0,.87-.27A76.6,76.6,0,0,1,421.66,290Zm-4.86,36.84c-2.92.67-2.4-1-2.46-2.27,0-.4.09-.88-.4-1.06-.18-.07-.62.05-.64.14-.24,1.23-.77,2.55-.05,3.69S415.14,328.4,416.8,326.79Zm.8-3.51a1.51,1.51,0,0,0-1,1.65c.28.81.4,2.07,1.6,2.08a1.5,1.5,0,0,0,1.44-1.51C419.49,324.37,418.06,324.25,417.6,323.28Zm23.73-34.91c-2-.49-2.36,1.54-3.64,2,.11.19.18.53.32.56,1.64.37,2.21-1.09,3.14-1.92C441.25,288.94,441.23,288.73,441.33,288.37Zm-35.41-141v5.45C406.74,148.08,406.74,148.08,405.92,147.33ZM447.1,292.08c-1.48.4-2.12,1-2.39,2,0,.08.35.41.48.38C446.17,294.2,446.41,293.3,447.1,292.08ZM417,186.92c-1.55.55-1.55.55-1.76,2C416.22,188.52,416.57,187.66,417,186.92Zm7.67-63.55c-2.39-.7-2.39-.7-3.56.28C422.13,123.27,423.12,123.88,424.71,123.37Zm-5.14,197.28c1.25,1.06.18,2.22,1.36,3a.5.5,0,0,0,.46,0c1-.94-1-1.42-.36-2.34C421.2,321,420.92,320.81,419.57,320.65Zm27.87-30.35a2,2,0,0,0,2.23,1.37A2.34,2.34,0,0,0,447.44,290.3ZM410.25,125.86l-1.77,2C410.38,128.27,410.35,127.06,410.25,125.86Zm41.27,245c.32-.72,0-1-.46-.84a1.49,1.49,0,0,0-.87.7c-.19.46.23.72.62.83C451.62,371.79,451.42,371.05,451.52,370.86ZM468.8,99.46c-.63-.06-.7.32-.68.62s.18.7.38.77c.45.16.52-.29.52-.6A3.16,3.16,0,0,0,468.8,99.46Zm.75,3.71c0-.32,0-.72-.47-.72s-.45.39-.46.72,0,.71.46.72S469.52,103.5,469.55,103.17Zm-16.07,189c-.05-.41-.06-.81-.49-.78s-.49.41-.35.7.4.43.6.64ZM426.27,101.91c.16-.22.39-.39.42-.58.07-.55-.33-.68-.76-.65-.24,0-.79-.12-.56.41C425.51,101.41,425.93,101.61,426.27,101.91ZM410.33,320.25c-.06-.29.06-.75-.43-.69a.56.56,0,0,0-.47.72.8.8,0,0,0,.39.53C410.34,321,410.25,320.52,410.33,320.25Zm33.23,31.9c-.15.29-.36.51-.33.69a.63.63,0,0,0,.48.4c.17,0,.34-.25.51-.39Zm-24-232.07a3.26,3.26,0,0,0,.57-.63c.05-.09-.08-.28-.12-.42-.19.08-.48.12-.54.25S419.52,119.71,419.57,120.08Zm-2.8,8.33c-.11-.12-.22-.38-.4-.44s-.5.08-.41.38a.93.93,0,0,0,.41.55C416.69,129,416.76,128.76,416.77,128.41ZM458.35,297a2.23,2.23,0,0,0-.51-.33c-.12,0-.29.09-.44.14.13.19.22.43.4.54S458.25,297.4,458.35,297Zm-40,43.71a3,3,0,0,0,.4-.6c0-.12-.09-.29-.15-.44a3.64,3.64,0,0,0-.42.55C418.17,340.32,418.29,340.49,418.38,340.72ZM413.18,128l-.19.41c.14.06.31.2.41.16s.13-.25.19-.39Zm-13.79,67.85c-.14-.07-.27-.19-.4-.19s-.26.12-.39.19c.13.07.26.2.39.2S399.25,195.93,399.39,195.85Zm46.06,164.29-.21-.4c-.08.12-.22.25-.23.38s.12.27.19.41ZM402.72,145c0,.13-.15.29-.1.36s.23.15.36.22c0-.13.15-.29.1-.38S402.85,145.06,402.72,145ZM441.8,314.86c0,.05,0,.13,0,.16a.53.53,0,0,0,.19,0l0-.27Zm-19.21-211c.06,0,.14-.06.16-.11a.52.52,0,0,0,0-.21l-.26.14Zm-3.1,18.59c-.07,0-.15-.09-.2-.07-.24.07-.25.19,0,.29a.27.27,0,0,0,.21,0S419.48,122.5,419.49,122.44ZM451.15,343l.12.09,0-.14Zm-32.66-28.15.12.08,0-.13Z" transform="translate(-383.66 -38.93)"/><path class="cls-1" d="M451.5,319.18c.13-.46,1-.56.74-1.12a1.18,1.18,0,0,0-1.73-.27c-1.13,1.8-3.19.67-4.57,1.6-.64.44-1.68.23-1.37-.56,1-2.4,0-5.5,2.65-7.28.37.54.81,1.58.53,1.73-2,1-.19,2.27-.3,3.37l-.2.24.24-.2c.91-.08,1.06-.72,1-1.43-.11-1.45.74-1.88,1.93-2,.11.19.29.36.26.45-.26.72-1.32,1.57-.37,2.14s1.37-.62,1.74-1.32c.69-1.28,1.32-2.6,2.1-4.17-1.39,0-1.32,1.08-1.86,1.42s-1.46.92-2.18.21c-.36-.35,2.08-3.19,2.68-3.12,2.06.22,4.23.73,4.88-2.2a.75.75,0,0,1,.56-.4c.5-.07.47.27.42.64a1.24,1.24,0,0,0,.74,1.44c.7.16,1.08-.66,1.52-1.11s.37-.92.65-1.33c1-1.49,1.45-3.75,4.1-3.27.71.13,1.16-.22,1.49-1,.69-1.65,1.6-3.21,2.42-4.8-2.41-.44-2.41-.44-5.16,1.47.5-2.18.52-2,3.1-2.48a1.75,1.75,0,0,0,.82-2.49,3.84,3.84,0,0,1-.4-3.46c-1-.32-1.31.28-1.33.84-.05,1.42-1.19,1.43-2.08,1.72-.45.15-1.12.27-1.24-.38s.38-1,.86-1.11a6.5,6.5,0,0,0,4.59-5.8c.22-3-.27-6.33-.11-9.19s-2.31-5.25-1-8c.17-.35,0-1,.22-1.17,2.6-2.51-.46-1.91-1.34-2.56.27-.59,1-1,.85-1.89a.58.58,0,0,0-1,.12,1.06,1.06,0,0,1-1.82.27c-.47-1,.77-.62,1.14-1a3.52,3.52,0,0,0,1.16-3.24c-.13-1.65-1.23-.49-1.66-.9.3-.78,1.35-.7,1.1-2-.35-1.83,2.47-2.74,2.07-4.88a2,2,0,0,1,.66.09c1.17.69,1.15-.28,1-.83-1.08-2.93-.29-6-.88-9-.28-1.4.34-2.88.69-4.05.62-2.13-1.24-4.27.38-6.18,1.83,1.11,1.3,3,1.42,4.6.14,2-.12,4,.11,6s.37,3.89.64,5.82A149.34,149.34,0,0,0,471.12,222a.88.88,0,0,0-.26.65c-.24,2.37,1.25,4.9-.7,7.1-1.06-1.24-.87-3.06-.83-4.23.3-8.54,0-17.08.18-25.62,0-.95.17-1.8-.93-2.58s-.43-2.16-.34-3.29c0-.23.37-.48.33-.65-.79-3.09.83-6.31-.49-9.37h0c1-.36,1-1.19,1.05-2.05a18.41,18.41,0,0,1,1.39-7.53,2.22,2.22,0,0,0-.06-1.94c-2.19-2.54-.52-4.95.22-7.32.31-1,.15-1.3-.65-1.73-2-1.05-1.92-2-.58-3.84.7-1,.63-2.52.93-3.79.35-1.5-.16-3.14.82-4.54.47-.68-.07-.84-.61-.93v0c-1.61-2.94,1-5.33,1.13-8.13.27-5.51.16-11,.3-16.52.21-7.62-.07-15.29.7-22.84a82.85,82.85,0,0,0,0-15.51,28.13,28.13,0,0,0-.51-4.9c-.93,2.49,1.48,5.88-2,7.76a6,6,0,0,0-3.34-3.21c-.61-.29-.7.1-.76.56h-.52c-.45-1.7-1.46-3.23-1.64-5a7.89,7.89,0,0,0-.87,0v-4c-1.35,1.8-.73,2.91,0,4-.67,1.94.34,3.94-.18,5.88-.11.4-.33.86.27,1s.91-.37.86-.9c-.13-1.44.74-1.14,1.56-1l.09,1.1h.28l.12-1.11a4.34,4.34,0,0,1-2,6.05c-.66.31-1.41.53-1.57,1.44a1.22,1.22,0,0,1-.61.7c-.45.24-.61-2.09-1.16-.23a1.82,1.82,0,0,0,1.57,2.15c2.36.46,2.24,2.73,2.75,4.46a1.1,1.1,0,0,1-.42,1.34c-.56.3-1,0-1.59-.27a3.58,3.58,0,0,1-2-4.14c-2.09-.32-2.89-1.86-4-3.4-1.56,2.24-3,2.21-4.26-.65.57,2.25,1.09,4.18.23,6.12h0c-2.33.31-3.35-.51-2.34-3.35-.89,2.27-2.62,1.51-3.87,1.75-1.82.34-3,.85-2.39,3,.23.82-.6,1.1-.95,1.63h0c-.53-.21-.57-.77-.83-1.18s-.05-1.63-1-1.39a2.74,2.74,0,0,0-1.54,1.49,1.71,1.71,0,0,0,.41,2.23c1-.28-.09-1.72,1.17-1.88.75,1.85.1,2.8-1.8,3-.81.09-1.71,0-1.45,1.27v0a9,9,0,0,1-1.64-1.48c-.59-.87-1.25-1.22-1.95-.38-.45.53-1.88.87-.73,2.11.92,1,.55,1.8-.78,1.71-2.38-.17-3.25,2.25-5.18,2.85-.38.12-1,.9-.46,1.44s1,.06,1.24-.58c.11-.33.32-.58,1.35-.47-1.05.54-.71,1.54-1.72,1.89a1,1,0,0,0-.44,1.62c1.6,1.32.82,2.81.52,4.31,0-2.31-1.47-4.12-2.09-6.52-1.38,1.87-2.6,3.51-3.81,5.16-1.11-1.71-1.15-3.2.11-4.61l.39-.55-.2-.14-.19.68c-.86-.07-1.87.28-2.08-1.14-.18-1.22-1.31-.72-2.06-.86-.56-.1-1.28,0-1.33-.78s0-1.87.8-1.87c2,0,2-2,2.92-3,1.58-1.59,1.27-2,4.11-1.21,1.65.48,2.16,0,2.16-1.55,0-2.74,1.6-5.06,2-7.7h0a13.56,13.56,0,0,0,2.19-3.84,2.25,2.25,0,0,1,2.7-1.71c-2.37-1-2.5-1.07-4.13,1.85a1.85,1.85,0,0,1-2.34,1.12c.31-3.2,3.5-4.2,5.07-6.45.46-.67.92-1.82,2.08-1.94l0,1.43-.12.19.1-.2c.48-.08,1-.16.94-.81s-.48-.54-.85-.64c-.36-1.59,1.25-2.49,1.9-2.82,3.35-1.66,4.41-5.2,6.8-7.61,1.6-1.61,3-3.4,4.51-5.12a1.37,1.37,0,0,1,1.34-.43c-.05.4-.28,1-.12,1.16a.92.92,0,0,0,1.33-.16c.52-1.1,1.81-1,2.64-1.62-.84-.88-1.56-1.33-2.29-.16a1.52,1.52,0,0,1-1.48.7c.7-2.06,2.62-3.09,4.11-4.33,3.16-2.64,4.29-6.48,6.14-9.81a41.46,41.46,0,0,0,2.56-6.35,24.29,24.29,0,0,0,.68-4.23,58.87,58.87,0,0,1,1.23-5.94,53.2,53.2,0,0,1,11,10.84C480,56.34,485.46,62.1,491,67.87c4.83,5,10.42,9.24,15.26,14.27,4,4.17,8.65,7.87,11.71,12.81,2.56,4.13,6.35,7.42,8.11,12.06a15,15,0,0,0,2.78,5.22h0c.27,2.37,2.47,3.82,3,6.07,1.15,5.21,4.76,9.56,5.24,15,.24,2.62,1.69,4.8,2.2,7.33,1.21,6,2.7,11.93,3.93,17.92s3.51,11.51,5,17.34c1.26,5.11,2.07,10.35,3.58,15.38,2.29,7.62,2.78,15.49,3.92,23.28,1.07,7.33.71,14.76,1.53,22.11a7.56,7.56,0,0,1-.29,1.71,16.83,16.83,0,0,0,0,6.33c.73,3.14.28,6.51-.1,9.76a13.06,13.06,0,0,0-.1,3.95c.26,1.46.22,3-1.25,4-2-.66-1.64-2.85-1.47-3.78.22-1.26,2.15-2.23-.33-3.26-.27-.11,0-.75.36-1.06.54-.52.55-1.16.3-2.14-.4,1.24-1.48,1.29-2.2,1.85a1.19,1.19,0,0,1-1.92-.31,1.08,1.08,0,0,1,.48-1.68,5,5,0,0,0,1.7-1.78c.57-.8,1-1.57,0-2.36a1.61,1.61,0,0,0-2.42.26c-.92,1-1.88,1.9-2.85,2.81a1.15,1.15,0,0,1-1.77,0,1,1,0,0,1,0-1.73c3-2,4.27-5.73,7.92-7.08-1-.8-2.41.21-2.76-1.16s1.29-1.75,1.75-2.76c-.55-.74-1.86-.56-1.92-1.84,1.9-.45,2.88-1.31,1.36-3.27-.54-.72-.15-1.25.73-1.37l.21.2-.2-.22c0-1.89-.64-3.69-.29-5.68a3.18,3.18,0,0,0-1.52-3.66c-.86-.42-1.18-1.8.05-2.09,3.19-.77,2.07-3.6,2.08-5.11,0-3.69-.95-7.38-1.53-11.17-.55.68-.25,1.79-1.35,2-2.18.41-2.37.61-1.77,2.91a3.48,3.48,0,0,1-.58,3.29c-.25-1.34-.13-2.59-.37-3.84-.33-1.77-1-3.91,1.78-4.6.48-.12.15-.54.25-.76.72-1.68-.09-3.51.59-5.18.15-.38.1-1.15-.27-1-1.66.61-1.23-1.27-2.09-1.62-.48-.19-.51-.83,0-1.26a.91.91,0,0,1,1.34-.06c.36.35.6.86.65.82,1.1-1.64-.36-2.59.11-4.21.3-1-.68-3.25-1.92-4.56a1.33,1.33,0,0,1-.46-1.56c1.82-4.15-.48-8-1.31-11.78-.64-2.93-2.67-5.55-3.07-8.65-1.32.44-.1,1.69-.85,2.37-2.17-3.19-1.26-6.83-1.73-10.18-.18-1.26-2.06-1.79-1-3.46,2.15-3.37.44-6.9-.85-9.78a19.65,19.65,0,0,1-2-6.61,1.64,1.64,0,0,0-.46-1.11c-1.48-1.05-1.5-2.28-1.1-4,.55-2.32-1.07-3.74-3.24-3.11-.55.16-1.18.07-1.3-.41-.34-1.37-1.16-1.16-2.23-1.1-.58,0-1.31-.65-1.79-1.18s.24-.77.53-1a1.15,1.15,0,0,1,1.79.35c.46.69,1.53.62,1.63,0,.38-2.16,1.27-.67,2.16,0-.19-1-.3-1.5-.42-2,.12-.18.23-.36.34-.55l-.18-.11-.17.64c-.65-.08-1.64.07-1.9-.29-1.73-2.44-3.22-.89-4.86,0a6,6,0,0,1-2.39.65c-1.48.13-2.1.94-2.57,2.27-.93,2.62-1,5.55-2.65,7.9-.49.67-.45,2.13-1.68,1.76-1-.29-.3-1.46-.45-2.22,0-.1.11-.2.17-.3l-.29.18c-.31-1.38.39-3,1.26-3.23,2.67-.66,1.94-1.93,1-3.29.58-.65,1.79-.08,1.59-.33-1.25-1.5.92-2.88,0-4.41-.57.49-1,1-1.56,1.33-.73.52-1.77.81-2.28.1-.82-1.12.52-1,1.05-1.3,1.43-1,.07-2.29.23-3.45.12-.84-1.22.25-1.82.06-1.54-.49-3.08,3.05-4.57,0a3.64,3.64,0,0,1-.39.6c-1.45,1.41-3,2.69-5.34,1.87.25-1.22.05-3.14.87-3.84,2.23-1.88,1.41-4,.92-6a4.29,4.29,0,0,0-2.46-2.86c-1.36-.52-1.64,1-2.29,1.8-.9,1.09-1.79,2.19-2.74,3.24-.36.39-1.27,1-1.25,0,0-1.45-.28-3,.06-4.35.56-2.18.78-2.15-1.55-2.58-1.56-.28-3.13-1.36-3-2.66s-2.48-3.44.66-4.38c.22-.06,0-.69-.29-.81-1-.36-1.16-.84-.36-1.59s1.33-.33,1.79.42c.25.41.45.94,1.15.74.74-.78.06-1.93.73-2.8.83-1.06.1-2.64-1.22-3.21A2.42,2.42,0,0,1,494,89.53c0-.5,1.35-1.06,1.88-.55,2.69,2.58,1.69-.47,1.78-1.23a4,4,0,0,0-.31-2.9c-1.9,2-2,1.92-3.86-1.1-.65,1.19.09,3-1.43,3.57a6.32,6.32,0,0,0-3.35,3.8c-.38.9-.73,1.33-1.58.51a1,1,0,0,0,.18-.08s0-.09,0-.14l-.22.22c-.89,0-1.3.74-1.77,1.26-1,1.07-2.11,1-2.8.06-.81-1.08.64-1.25,1.19-1.67,2.36-1.79,4.77-3.51,7.21-5.3a3.37,3.37,0,0,0-2.51-1c-.31.57,1.17,1.11,0,1.62s-.46-1-1.1-1.08c-1.32,3.56-4.82,4.87-7.4,7.11-.78.67-2.49,1.2-2,2.1.62,1.14,1.41-.4,2.14-.76a1.51,1.51,0,0,1,.44-.22c.61-.14.86.16,1.08.72.5,1.34-.74,1.92-1.22,2.78-.29.52-.41-.16-.64-.45-.57-.72-1.35-.79-1.62.3-.18.75,0,1.61-1.05,2.18V97.15c.22-.17.65-.28.19-.66l-.18.67c-2,1.64-3.5,4-3.29,6.37a106,106,0,0,1-.08,10.7c-.14,9-.06,17.94,0,26.91,0,2.65.12,5.31.1,8s-.06,5.36-.26,8c-.19,2.4.87,4.77.28,7.11-.4,1.6.82,3.17-.07,4.61a4.9,4.9,0,0,0-.29,4.56,14.75,14.75,0,0,1,1.09,5.95c-.33,3.33,1.52,1.23,2.05,1.1a26.09,26.09,0,0,1,6.35-1.28c-2,2.77-4.72,3.61-7.49,4.29-2,.5-3,2-2.56,3.63a11.22,11.22,0,0,1,.13,3c.08,2-1.1,4,.4,6a1.49,1.49,0,0,1-.05,1.2c-.91,2-1,3.86.76,5.47a.57.57,0,0,1,.1.86c-1.55,1.93-1.23,4.34-1.62,6.55-.18,1-.48,2.42,1.35,2.67.58.08.74,1,.22,1.12-2.25.69-1.09,1.85-.5,2.93a1.39,1.39,0,0,1-.15,1.82,2.61,2.61,0,0,0-.43,2.62,9.26,9.26,0,0,1,0,4.41c-.4,2,1.18,5,2.81,5.41-1.67,1.22-2,2.63-1.5,4.59.3,1.2,1,2.55.44,3.89a2.9,2.9,0,0,0,.63,3.46c1.16,1,2.23-.4,3-1.08,4.74-4.11,10.68-6.45,15.31-10.75,3.2-3,6.78-5.55,9.08-9.36a2.64,2.64,0,0,1,2.53-1.46c.39.64,0,1.08-.25,1.46-4.47,6.69-10.74,11.43-17.34,15.8-3.64,2.42-7.47,4.6-10.9,7.29-1.3,1-3.08,2.25-3.26,4.24-.35,4-1.29,7.87-1,11.93.35,4.38.44,8.78.48,13.18,0,1.78.18,3,2.94,2.09-3.27,1.37-2.95,3.4-2,5.59l0,0c-.51,1.22.1,2.15.76,3.08.56-.32.71-1.16,1.53-1.24.92,1.51.63,2.45-1.22,2.7-.59.08-1.36.2-1.27.9.13.95,1.35.78,1.59.52.94-.95,3.1,1.06,3.33-1.45,0-.37.92,0,1,.22.64,1.79,1.15.81,1.93.07a2.12,2.12,0,0,1,2.52-.57c.93.5.71,1.39.35,2.23,1.4-.06.91-1.12,1.16-1.72.77-1.86,2.92-3.61,4-3,2.54,1.48,2-.57,2.55-1.5.25-.42.48-1,.86-1.16,2.64-.91,1.11-2.1.05-3.27,2.17-1,4.54-1.64,6.05-3.11,1.18-1.16,4.56-.51,3.54-3.73a3.5,3.5,0,0,0,.67-.24c.78-.47,1.55-1,2.35-1.49l-1.19-.62c.27-.31.66-.94.8-.89,1.31.49,1.81-.87,2.76-1.18s1.87-1.33,2.93-.74c.77.43.91.37,1.17-.39.39-1.17-.41-1-1.05-1v0c0-1.61,0-3.33,2-3.52a2.77,2.77,0,0,0,2-1.35c.63-1-1.26-.47-1.4-1.5,1.11-.18,2.14-.41,3.18-.48.47,0,1.17.34.94-.52-.52-1.86,1.21-1.85,2-2.54.23-.8-1.8-.42-.7-1.83,1.22-1.59,3.06-1.28,4.54-2,.43-.21.61,1.37,0,2a23.21,23.21,0,0,1-2,1.47c-.42.37-1.27.66-.58,1.66a23,23,0,0,0,2.18-1.64c1-1,1.82-2.74,3-3,3.4-.73,3.91-2.78,3.51-5.62-1.36-.23-.89,2.24-2.09,1.56s.85-1.42.39-2.34c-.18-.37-.32-.77-.49-1.15a1.41,1.41,0,0,1,0-1.35c1.3-2.87,2.22.19,3.4.17.25-.67.57-2,1-1.8,2.39,1.11,1.93-1.41,3.09-1.9-1.44-1.08-2.42-1-3.32.38a2.54,2.54,0,0,1-3.1,1c.23-.5.75-.73,1.07-1.2.72-1,2.61-1.63.67-3.29-.22-.19.09-1.77,1.19-1.82a3.9,3.9,0,0,0,2.43-1.09c1-.82,2-1.22,3.08-.09s1.76-.15,2.21-.64c1-1.06-.35-.73-.78-1s-.33-.89,0-1.3c.51-.61,1.07-1.19,1.67-1.86,1.68,2.37.6,4.89-.4,6.44a64.51,64.51,0,0,0-5,9.31,83.36,83.36,0,0,1-5.73,11.31c.76.53,2.07-.42,2.12,1.22,0,.92.95.07,1.43.24h0c1.19.77,1.41-.1,1.51-1a16.87,16.87,0,0,0,0-2.25c0-2.05,2.15-1.48,3-2.48a.68.68,0,0,1,1.08.16c.65,1,0,2-.2,3-.36,1.73-2.41,2.24-2.46,4-.52.07-1,.22-.88.88,0,.16.35.43.45.39.6-.21.38-.79.46-1.23,2.05-.43,3-2.28,4.37-3.53a2.88,2.88,0,0,1,2.11-1c3.65.08,5.48,2.41,4.71,6a1.15,1.15,0,0,0,.24,1.24c1.66-1.15,1.15-2.74.84-4.25-.11-.56,0-1,.48-1.25s.8.05,1.16.24.71.6.4,1c-1.27,1.67,0,3.35-.19,5.06,2.23-.86,2.92-.45,3.53,1.79.15.55-.14,1.48.7,1.61s.5-1.15,1.2-1.37c.49,3.16-.88,6-2,8.72-1.69,4.12-2.08,8.42-2.84,12.68-.91,5.11-1.65,10.26-2.59,15.38a16.55,16.55,0,0,1-2.19,5.44c-1-.07-1.18-.91-.8-1.4.63-.83.3-1.74.57-2.57.51-1.54-.11-3.13,1.36-4.76s.31-2.84-2.15-2.93c-1.46-.05-.19,1.06-.62,1-1.6-.11-3.18,1.35-4.78.07.45-.06,1,.13,1.25-.46,0-.09-.23-.43-.38-.45-.64-.1-.83.34-.9.88-1.1,1-1.6-.52-2.43-.69-.31-.06.34-1.72.53-1.6,1.26.79,2.26-1.54,3.45-.19.81.9,1.66.36,2.14-.26a3.12,3.12,0,0,0,.71-2.8.75.75,0,0,0-.58-.35c-.54,0-.57.33-.59.83-.08,1.89-1.56.85-2.41,1s-.87-.58-1.21-1.28c-.82-1.63.46-3,.21-4.54-.36.11-.72.1-.79.24-2.63,5.33-7.68,9.07-9.62,14.87-.36,1.06-.56,2.49-1.31,3.16-3.33,2.91-4.27,8.08-9.07,9.55-.26.08-.43.5-.59.78a72.63,72.63,0,0,1-8.37,12.27c-2.76,3.24-5,6.9-7.88,10.05a135.19,135.19,0,0,1-18.32,16.82c-1.67,1.27-3.7,2.61-4.05,5.45a4.39,4.39,0,0,0,2.33-1.92c.87-1.39,2.27-2.13,3.53-3.06.65-.48,1.33-.45,1.34.17,0,1.57,1.56.64,2.22,1.39-1,.55-2.15.83-1.95,2.11.37,2.28-1,2.37-2.68,2.35-3.82-.05-3.82,0-5.33,1.81,1.11.38,1.88-.53,2.82-.72s2.19-.55,2.79.42,1.29,1.74.88,3.31c-.55,2.13-1.26,3.59-3.44,4.17a1.44,1.44,0,0,0-1.08,1.52l-.12.19.1-.21a3.26,3.26,0,0,1,2.81.09c.21.14.21-1.43,1.07-.55.34.35,0,.9-.19,1.38a5.63,5.63,0,0,0,3.38,7.77,1.52,1.52,0,0,0,.92-.16c.51-.23,1-1.23,1.53-.18s-.62.85-1.05,1.19c-2,1.62-5.11,1.84-6.37,4.65,2.79.3,2.93,1.54.63,5.12a2.76,2.76,0,0,0,.69.22c.67,0,1.44-.92,2,.1.4.77-.09,1.44-.58,2-.32.38-.53.92-.92,1.15-.73.42-1.83.77-1.16,1.73s1.62,0,2.46-.13c.45-.05.14-1.08,1-.78.47,1.06-.74,2.24.11,3.29,1.09,1.33.16,2.29-.62,3.24-.4.48-1.22.63-1.18,1.48l-.21.22.23-.2,2.14.1c.45.91-.83,1.51-.41,1.91,1.29,1.22.8,2.19-.09,3.25.95.76-1.26,1.52,0,2.35a2.44,2.44,0,0,0,2.59-.12c1.25-.58.63-1.52.36-2.36-.48-1.54.61-2.48,1.4-3.49.27-.35.93-.42.92-1a11.3,11.3,0,0,1,2.88-7.8c2-2.07.21-5.32,2.91-6.78.13-.07.19-.53.09-.71-.75-1.36.24-2.05,1-2.8,3.23-3.06,6.05-6.35,6.65-11,.07-.54.44-1.44.75-1.48,2.59-.33,1.67-3.3,3.35-4.28.31-.18.25-.54,0-.85-1.74-2.14-.71-4.25.09-6.34-1.26-.95-1.71,1.07-2.83.79.43-1.24,1.28-2.43,2.36-2.58,1.57-.23,2.72-2,4.57-1.09.38.2.77-.25.43-.75-.22-.33-.69-.62-.09-.95,3-1.62,3.14-5.69,6.31-7.13a.75.75,0,0,0,.17-.69c-.87-1.74.45-2.6,1.44-3.55a5.26,5.26,0,0,0,1.65-4.78c.68-.16.78,2.3,1.2.46.7-3,3.14-4.63,4.64-7,1.09-1.71,1.24-4,2.74-5.21a9.13,9.13,0,0,0,3.92-7.59c0-1.58,1.2-1.37,2-1.64,1.67-.52,0,1.46,1.13,1.46,1-2.65,2.53-5,3.35-7.86.3-1.06.31-3.19,2-3.94.63,2.67-.38,5.17-1.21,7.54-1.8,5.14-2.81,10.5-4.58,15.64a47,47,0,0,1-2.79,7.44c-2.39,4.34-3.44,9.15-5.33,13.66A299.7,299.7,0,0,1,518,379.7c-6,11.12-13.2,21.62-18.68,33.06a108.69,108.69,0,0,0-6.07,16.37c-.85,2.88.63,5.36,2,7.53,5.54,8.65,10.24,17.88,17,25.76.72.85,1.65,2,.9,3.16s-1.9,1.13-3.15.95c-1-.13-1.92-.15-2.46,1.07-.28.63-1,.47-1.38-.17a3.54,3.54,0,0,1,3.06-2.14,1.34,1.34,0,0,0,1.16-2,1.27,1.27,0,0,0-2-.68c-2,1.28-2.93.1-3.48-1.58a8.6,8.6,0,0,0-1.44-2.3,19.1,19.1,0,0,1-3-7.22c-.17-.79-.1-1.26-1-1.15-.75.1-1.31.51-1,1.36.44,1.23.56,2.53,1,3.8,1,3.17,3.08,5.89,3.87,9.14-5.38-5.68-9-12.56-12.91-19.2-3.18-5.35-4.94-11.64-9.34-16.13-3.88-4-8.24-7.5-12.23-11.41a22,22,0,0,1-3.8-4.26c1.55.1,2.2,1.43,3.1,2.35a56.82,56.82,0,0,0,11.83,9.45c1.4.83,2.6-.18,3.93.72-.25-5.4-1.66-10.34-2.49-15.37-.71-4.32-1.58-8.61-2.34-12.93-.35-2-2-2.15-3.38-2-1.17.1-2.33.12-3.49.15-.63,0-1.84.37-.68-1,.49-.59-.42-.48-.66-.47-1.5,0-1.64-1.78-3-2.09-.59-.14.14-.34.29-.37,1.61-.33,0-1.13.33-1.87,2.13,1.45,4.38.77,6.62.34l.21,1.16c.2-.11.5-.17.56-.33.29-.74-.26-.78-.76-.84-.4-1.67-1.76-.92-2.69-1-1.77-.09-3.35,0-4.35-2.08-.63-1.3-2.25-1.85-3.81-2a1.64,1.64,0,0,1-1.53-1.43c-.07-.64.5-1.05,1-1.3s1.31-.15.95.45c-1,1.73.44,1.69,1.23,1.77,1.31.14,2.27,1.57,4.11.18s3.82.58,5.56,1.7c.59-2.11-.39-3.22-2.2-3.41a32.42,32.42,0,0,1-7-1.59c-1.72-.57-3.81-.28-5.24-1.87,1.23-1.12,2.62,1.34,3.77-.54-1.68-.87-3.65-1.74-2.16-4.64-2.75,1.87-2.43-1.31-3.76-1.82h0c-.56-1.92.64-3.25,1.65-4.58,1.31-1.73,3.05-.8,4.71-.63,1.88.2,3.79.13,5.69.17.72,1.33,1.71,1.11,3,.7-.95-1.48-2-.87-3-.68-1.41-1.87-3.58-1.22-5.38-1.41-3-.32-6.15.06-9.2-.17-2.73-.21-5.41-1-7.68,1.4-.33.34-1.25.11-2.47.18a2.29,2.29,0,0,0,1.11-2.81c-.52-2.78.24-3.54,3-3.73.4,0,.79-.12,1.37-.21-.61-1.12-1.52-.74-2.25-.79s-1.57-.27-1.83-1.05c-.39-1.14.74-.78,1.21-1.06s.79-.41.75-.9-.68-.64-1.1-.88-1.56.18-1.43-.92c.09-.83.71-1.24,1.61-1.24s2.19.15,2.22-1c0-1.74-1.73,0-2.48-1.15,2.12-.31,3.44-2.16,5.74-2.16,1.11,0,2.36-.86.86-2.35a33.46,33.46,0,0,1-2.26-2.64c-.31-.4-1.15-.71-.45-1.39a1,1,0,0,1,1.58,0c1.2,1.58,2.64,1.19,4,.55s2.2,1.14,3.47.59c-.08,1.39.09,2.88-1.5,3.66-.44.21-.66.71-.29,1s1,.43,1.29-.16c1.14-2.63,3.15-2.87,5.66-1.94a9.38,9.38,0,0,0-5.18-2.51c-2.3-2.64-5.47-3.81-8.61-5-1.19-.45-2,.64-2.78,1.32-1.84,1.6-3.56,3.34-5.43,4.92a10.21,10.21,0,0,1-2.38,1.11,1.25,1.25,0,0,1,.63-1.76c4.28-2.09,3.63-5.24,2-8.64l0-.05c.48.07,1.15.37,1.41.16,1.46-1.17,1.91-.24,2.49.94A1.72,1.72,0,0,0,451,339c1-.18,1-.5,1-1.2l0,0c.6.18.94,1,1.73.84-.56-2.14.7-5.53,2.52-6.3,2.21-.93,3.89-2.6,5.92-3.82-1.5.1-3.15-.54-4.28,1a2.07,2.07,0,0,1-2.49.63c-.87-.25-.88-1.09-.92-1.87a1.91,1.91,0,0,1,1.31-2.16c1.48-.52,3.4-.41,3.4-2.86,0-.64.84-.28,1.41,0,2.37,1.11,4.12.69,5.39-1.5-1.63.9-3,2.06-4.48.28-.29-.34-1.83.17-1.38-1.14.33-1,.59-2.35,2.14-2.29a1.23,1.23,0,0,0,1.25-.47c-2.56-1.06-5.28-.48-7.74-1.31-.71-.24-1.09.63-1.53,1.12-.74.82-1.52,1.57-2.78,1.28Zm39.67-235.1c-.13.18-.26.36-.38.55l.18.14c.08-.22.15-.44.22-.67l.21-.23ZM437.94,98.16a4.21,4.21,0,0,0-2.7.82,1.61,1.61,0,0,0,2,1.08c1-.3.56-1.23.67-1.9l.4-.48-.27-.15Zm90.4,165.76h0c-.67-.61.79-1.21.2-1.46-.92-.39-1.3.49-1.38,1.26-.22,2-.78,3.77-2.95,4.45-1.17.37.26,1.3-.42,1.75l-.21.27.26-.21a6.9,6.9,0,0,0,4.6-3c.74-1.07,1.46-1.73,2.82-1.56.51.07,1.4.22,1.34-.61a1.27,1.27,0,0,0-1.57-1.22A11.37,11.37,0,0,1,528.34,263.92ZM461,316.16l.21.12-.22-.1c.78-2.26-.79-5.23,2.25-6.9-2.28,0-4.4-.43-6.42.05-.33.95,1,.66.78,1.41-.81,2.51,3.1,2.88,2.41,5.33Zm7,20.6c.88-.17,2.26.59,2.46-.92a83.27,83.27,0,0,0,.89-9.56,68.63,68.63,0,0,0-.59-11.38c-.42-2.7.47-5.83-1.95-8.08a.72.72,0,0,1,.22-.58c.81-.33,1.24-.82.27-1.33s-1.15.42-1.41,1c-.47,1-.47,2.33-1.77,2.83a1.35,1.35,0,0,0-.44,2.39c2.07,1.64,1.47,3.53.79,5.51.82.08,1-1.21,1.74-.63.5.41.19,1.06.09,1.64-.29,1.59-.8,3.23-.43,4.82.22.93.91,3.83.56,4.61-1.33,3-.92,7.07.84,8.34-.46.42-1.35.44-1.26,1.35a.45.45,0,0,0-.17.08s0,.08,0,.12Zm54.87-64.19a2.28,2.28,0,0,1-.22-.22c.34-2.19-.68-2.73-2.79-3.14-2.79-.53-4.41,1.22-5.91,2.55a268.12,268.12,0,0,1-22.16,18.06c-1.21.86-2.75,1.65-.79,3.41a2.08,2.08,0,0,1,.44,2.33c-.34.67-1,.57-1.53.34-2.57-1.06-3.06.27-2.89,2.54.72-.4.78-1.45,2.12-1.16,3.31.73,3.94,0,3.49-3.47,0-.25,0-.5,0-.75h0l3.69-.62.18.8a9.1,9.1,0,0,0-1.22.79,4.64,4.64,0,0,0-1.29,3.25c-.09,1.5,1.44-.87,2,.5a5.46,5.46,0,0,1-2.41,1.09c-.59.08-.44.61-.4,1a.75.75,0,0,0,.85.72,2.9,2.9,0,0,0,.62-.18c-.89-.71-.44-.93.36-.94,1.07,0,.55.84.59,1.3a5.59,5.59,0,0,1-.33,2.7,1,1,0,0,0,.21.87c.26.21.63,0,.85-.26,1.39-1.86,3.52-2.7,5.34-4,.38-.06.82,0,.78-.62a.25.25,0,0,0-.16-.16c-.57,0-.58.38-.63.77-1.31,0-2.63-.21-3.83.73s-1.15-.5-1-.81c1-2,.1-4.06.22-6.08.18-2.78,1.42-3.8,3.86-4,.35,1.33-1.63.77-1.47,1.89,1.5,1.4,4.32-2.75,5.19,1.64.2-2.51,2.29-2.64,3.59-3.67,1.05-.83,1.55-.66,1.42.63-.16,1.58.65,1.35,1.4.76a2.27,2.27,0,0,1,1.79-.4c1.49.06,3.09-.8,4.35.69.42-2.49,3.9-1.14,4.21-3.48.78.21,0,1.27,1,1.28a1.74,1.74,0,0,0-.53-2.41,1.86,1.86,0,0,0-2.31.21c-.95.67-1.89,1.37-2.86,2-.75.49-1.6.38-1.79-.49-.11-.49-.11-1.73.93-1.65,1.5.12,1.34-.85,1.72-1.78.61-1.49.08-3.77,3-3.94a2.92,2.92,0,0,0,2.75-3.65c-.19-1.19,1.08-2.11,2.19-2.43,1.91-.56,3.24-1.54,3.69-3.35-2-2-3.75-1.26-5.42.43A3,3,0,0,1,522.94,272.57Zm.4,73.23-.52,0-.21-.12.23.1a8.16,8.16,0,0,1-1.41,4.54c-1.29,2.36-3.24,4.34-4.69,6.62-3.11,4.89-4.88,10.47-8,15.38-2.24,3.5-4.21,7.22-6.27,10.86-1.37,2.42-3.2,4.72-3.15,7.75l-.15.15c-.94-.17-1.18.4-1.56,1.17-1.41,2.93-1.74,6.32-3.81,9-.83,1.08-.43,2.3.28,3.49,1.11,1.83,2.76,2.27,4.67,2.32.11.19-.24.69.36.55l-.37-.53c-.49-1.69,1.72-1.89,1.78-2.65.22-2.73,2.84-4.36,2.84-7.17,0-1.54.35-1.54,2-1.32.38.05.78-.09.81-.41.29-2.86,3-4.11,4.18-6.43.84-1.68-.1-3.66,1.26-5.13.58.33-.22,1.3.69,1.48,1.12-1.71,1.12-4,2.22-5.53,1.37-1.91,3.76-3.16,1.88-6.14.6.82,1.12,1.42,1.89.62s1.43-1.8.7-2.83c-.83-1.2-.21-1.55.76-1.63a3.34,3.34,0,0,0,2.89-3c0-2.16,1.39-3.63,1.76-5.55.58-3.09,3.78-5.2,3.48-8.74-.09-1.06.59-1.82,1.12-2.73,1-1.78,2.33-4,.86-6.27-.23-.35-.22-.6.13-.79,2-1,.47-1.66-.17-2.57s-2-.67-2.69-1.79c-.87,2.77-2.75,4.8-3.74,7.31Zm-9.51-46.65c3.46.83,7-.67,7.78-3.49.39-1.52,1.7-1.35,2.24-1.46,1.93-.36,2.31-.46,1.5-2.16-.5-1,1.48-1.87.11-2.57-1.8-.91-.14,1.92-1.8,1.77s-2.79,1.22-3.95,2.25a2.48,2.48,0,0,1-2.34.57,46.91,46.91,0,0,0-4.69-.58c-1.07-.16-2.3-.88-3,.28-.8,1.33-2.61,2.65-.92,4.67.76-1.17,1.69-2,2.29-.16.28.84.52.75.91.41,1.11-.92,2.93-.85,3.43-2.61.34-1.16,1.35-1.1,2.28-.94a1.32,1.32,0,0,1,1.12,1.67,2.06,2.06,0,0,1-1.84,1.77C516,298.75,515,298.2,513.83,299.15Zm-33-3.88c.46-1-.15-2.16.7-2.52,2.27-1-.05-1.79,0-2.66-.95.75-2-1.11-2.8,0-1.17,1.7-.83,4-2,5.76,0,.05.31.49.4.47.28-.09.72-.26.76-.47C478.32,293.62,479.54,294.42,480.85,295.27ZM463.91,375.1l-.07.85h2.8c2.37,0,4.48,1.05,6.69,1.68.45.13.14,1.57,1.24.95a1.59,1.59,0,0,0,.5-1.07,1.19,1.19,0,0,0-1.16-1.37C470.57,375.82,467.32,374.52,463.91,375.1ZM506,296.62c-4.67-1.78-6.37-1-6,2.91C501.43,297.12,503.84,297.2,506,296.62Zm-17.09-4.29-7.25,4.54.44.7C484.53,296,487.55,295.47,488.93,292.33ZM508.48,316c-2.51.56-1.19,3.7-3.52,4.41C509,321,507.24,317.4,508.48,316Zm-37,55.24c1.58.55,1.67,1.75,1.67,3a.88.88,0,0,0,.91,1c.63-.07.63-.75.66-1.18C474.87,371.42,474.29,370.88,471.49,371.22Zm44.2-69.1c-1.11-.65-2.37-.93-2.92,0a5.65,5.65,0,0,0-.58,4.7C513.31,304.9,512.67,302.16,515.69,302.12Zm-49.81,3.38c.35-.79,1.7-.49,2-1.45.18-.67-.58-.93-1.18-.94a1.4,1.4,0,0,0-1.61,1.48C465,305,465.15,305.41,465.88,305.5Zm-27-210.58c.75,1.37-.18,3.3,1.44,4.84A5.71,5.71,0,0,0,438.86,94.92Zm38.62,205.32c1.1-.92,2.6-.76,3.47-2,0-.07-.25-.52-.34-.5a6,6,0,0,0-3.29,1.88S477.35,299.76,477.48,300.24ZM497.19,309c-1.58.38-2.76-.3-3.78.59-.27.23-.09.87.11.85C494.62,310.24,495.84,310.43,497.19,309Zm-6.34-5.88,2.31,1.14C493.2,302.56,492.51,302.45,490.85,303.07ZM447.76,73.89c.07-.5-.05-.76-.48-.77s-.72.16-.62.54a3.4,3.4,0,0,0,.61,1Zm42.9,229.31c-.08-.34.06-.87-.54-.83-.37,0-.41.41-.41.73s0,.66.41.73S490.57,303.51,490.66,303.2ZM434.29,89a2.51,2.51,0,0,0-.71-.26c-.38,0-.57.28-.38.62.07.13.42.2.6.15S434.09,89.21,434.29,89Zm-3.75,20.07a7.43,7.43,0,0,0,.56-.8c.16-.35.45-.92-.26-.82S430.42,108.18,430.54,109.05ZM473,387l.12-.34a1.65,1.65,0,0,0-.66-.15c-.29.05-.86-.29-.77.35C471.73,387,472.57,387,473,387Zm21.35-283.18c.15.06.32.2.42.16s.14-.26.2-.4c-.14-.06-.32-.2-.42-.16S494.44,103.68,494.37,103.82ZM511.58,359.5l-.16-.43c-.15.06-.37.08-.41.18s.09.28.14.42Zm1.4-.5c.13.06.3.19.4.15s.12-.24.18-.38c-.13-.06-.3-.19-.39-.16S513,358.86,513,359ZM463.39,92.68c-.11-.15-.18-.32-.27-.34s-.25.1-.38.15l.34.44Zm-15.24,4.95c.07.12.12.31.22.34s.25-.09.38-.14l-.29-.47ZM492,301.25c.07-.14.2-.27.19-.41s-.14-.26-.21-.38c-.07.13-.2.26-.2.39S491.88,301.11,492,301.25Zm6.78-191.66c0-.12.16-.28.12-.35s-.23-.16-.35-.23c-.05.12-.16.28-.12.37S498.61,109.52,498.74,109.59Zm-6.25,189.34c-.05,0-.14,0-.16,0s0,.13-.05.2l.29-.05Zm60.14-58.26c0,.06-.09.14-.07.2.07.23.18.23.29,0a.25.25,0,0,0-.05-.2S552.69,240.67,552.63,240.67ZM491,405.7l0-.19-.27.05a.67.67,0,0,0,.08.17S491,405.71,491,405.7ZM421.85,113.36l-.17.11.1.15.25-.18Z" transform="translate(-383.66 -38.93)"/><path class="cls-1" d="M511.27,264.42c.64,0,1.44-.14,1.05,1-.26.76-.4.82-1.17.39-1.06-.59-1.95.41-2.93.74s-1.45,1.67-2.76,1.18c-.14-.05-.53.58-.8.89l1.19.62c-.8.52-1.57,1-2.35,1.49a3.5,3.5,0,0,1-.67.24c1,3.22-2.36,2.57-3.54,3.73-1.51,1.47-3.88,2.06-6.05,3.11,1.06,1.17,2.59,2.36-.05,3.27-.38.14-.61.74-.86,1.16-.56.93,0,3-2.55,1.5-1.08-.64-3.23,1.11-4,3-.25.6.24,1.66-1.16,1.72.36-.84.58-1.73-.35-2.23a2.12,2.12,0,0,0-2.52.57c-.78.74-1.29,1.72-1.93-.07-.09-.25-1-.59-1-.22-.23,2.51-2.39.5-3.33,1.45-.24.26-1.46.43-1.59-.52-.09-.7.68-.82,1.27-.9,1.85-.25,2.14-1.19,1.22-2.7-.82.08-1,.92-1.53,1.24-.66-.93-1.27-1.86-.76-3.08.91,0,1.83,0,2.74-.15a.76.76,0,0,0,.59-1c0-.16-.53-.38-.56-.34-.76.79-2.43-.11-2.75,1.46-.95-2.19-1.27-4.22,2-5.59-2.76.88-2.92-.31-2.94-2.09,0-4.4-.13-8.8-.48-13.18-.32-4.06.62-8,1-11.93.18-2,2-3.23,3.26-4.24,3.43-2.69,7.26-4.87,10.9-7.29,6.6-4.37,12.87-9.11,17.34-15.8.25-.38.64-.82.25-1.46a2.64,2.64,0,0,0-2.53,1.46c-2.3,3.81-5.88,6.39-9.08,9.36-4.63,4.3-10.57,6.64-15.31,10.75-.77.68-1.84,2.05-3,1.08a2.9,2.9,0,0,1-.63-3.46c.59-1.34-.14-2.69-.44-3.89-.48-2-.17-3.37,1.5-4.59-1.63-.44-3.21-3.4-2.81-5.41a9.26,9.26,0,0,0,0-4.41,2.61,2.61,0,0,1,.43-2.62,1.39,1.39,0,0,0,.15-1.82c-.59-1.08-1.75-2.24.5-2.93.52-.16.36-1-.22-1.12-1.83-.25-1.53-1.63-1.35-2.67.39-2.21.07-4.62,1.62-6.55a.57.57,0,0,0-.1-.86c-1.72-1.61-1.67-3.47-.76-5.47a1.49,1.49,0,0,0,.05-1.2c-1.5-1.93-.32-4-.4-6a11.22,11.22,0,0,0-.13-3c-.46-1.62.52-3.13,2.56-3.63,2.77-.68,5.52-1.52,7.49-4.29a26.09,26.09,0,0,0-6.35,1.28c-.53.13-2.38,2.23-2.05-1.1a14.75,14.75,0,0,0-1.09-5.95,4.9,4.9,0,0,1,.29-4.56c.89-1.44-.33-3,.07-4.61.59-2.34-.47-4.71-.28-7.11.2-2.66.24-5.34.26-8s-.1-5.31-.1-8c0-9-.1-17.94,0-26.91a106,106,0,0,0,.08-10.7c-.21-2.38,1.25-4.73,3.29-6.37h0v2.12c1.05-.57.87-1.43,1.05-2.18.27-1.09,1-1,1.62-.3.23.29.35,1,.64.45.48-.86,1.72-1.44,1.22-2.78-.22-.56-.47-.86-1.08-.72a1.51,1.51,0,0,0-.44.22c-.73.36-1.52,1.9-2.14.76-.49-.9,1.22-1.43,2-2.1,2.58-2.24,6.08-3.55,7.4-7.11.64.07-.13,1.63,1.1,1.08s-.31-1,0-1.62A3.37,3.37,0,0,1,491,86c-2.44,1.79-4.85,3.51-7.21,5.3-.55.42-2,.59-1.19,1.67.69.93,1.82,1,2.8-.06.47-.52.88-1.27,1.77-1.26h0c.85.82,1.2.39,1.58-.51a6.32,6.32,0,0,1,3.35-3.8c1.52-.62.78-2.38,1.43-3.57,1.87,3,2,3,3.86,1.1a4,4,0,0,1,.31,2.9c-.09.76.91,3.81-1.78,1.23-.53-.51-1.85,0-1.88.55a2.42,2.42,0,0,0,1.32,2.34c1.32.57,2,2.15,1.22,3.21-.67.87,0,2-.73,2.8-.7.2-.9-.33-1.15-.74-.46-.75-1-1.17-1.79-.42s-.65,1.23.36,1.59c.33.12.51.75.29.81-3.14.94-.49,3-.66,4.38s1.42,2.38,3,2.66c2.33.43,2.11.4,1.55,2.58-.34,1.34,0,2.9-.06,4.35,0,.92.89.34,1.25,0,.95-1.05,1.84-2.15,2.74-3.24.65-.77.93-2.32,2.29-1.8a4.29,4.29,0,0,1,2.46,2.86c.49,2,1.31,4.1-.92,6-.82.7-.62,2.62-.87,3.84,2.38.82,3.89-.46,5.34-1.87a3.64,3.64,0,0,0,.39-.6c1.49,3.08,3-.46,4.57,0,.6.19,1.94-.9,1.82-.06-.16,1.16,1.2,2.49-.23,3.45-.53.35-1.87.18-1.05,1.3.51.71,1.55.42,2.28-.1.53-.38,1-.84,1.56-1.33,1,1.53-1.2,2.91,0,4.41.2.25-1-.32-1.59.33,1,1.36,1.72,2.63-1,3.29-.87.21-1.57,1.85-1.26,3.23l.12.12c.15.76-.53,1.93.45,2.22,1.23.37,1.19-1.09,1.68-1.76,1.69-2.35,1.72-5.28,2.65-7.9.47-1.33,1.09-2.14,2.57-2.27a6,6,0,0,0,2.39-.65c1.64-.94,3.13-2.49,4.86,0,.26.36,1.25.21,1.9.29v0l.42,2c-.89-.65-1.78-2.14-2.16,0-.1.62-1.17.69-1.63,0a1.15,1.15,0,0,0-1.79-.35c-.29.19-.89.57-.53,1s1.21,1.22,1.79,1.18c1.07-.06,1.89-.27,2.23,1.1.12.48.75.57,1.3.41,2.17-.63,3.79.79,3.24,3.11-.4,1.67-.38,2.9,1.1,4a1.64,1.64,0,0,1,.46,1.11,19.65,19.65,0,0,0,2,6.61c1.29,2.88,3,6.41.85,9.78-1.06,1.67.82,2.2,1,3.46.47,3.35-.44,7,1.73,10.18.75-.68-.47-1.93.85-2.37.4,3.1,2.43,5.72,3.07,8.65.83,3.82,3.13,7.63,1.31,11.78a1.33,1.33,0,0,0,.46,1.56c1.24,1.31,2.22,3.56,1.92,4.56-.47,1.62,1,2.57-.11,4.21,0,0-.29-.47-.65-.82a.91.91,0,0,0-1.34.06c-.48.43-.45,1.07,0,1.26.86.35.43,2.23,2.09,1.62.37-.14.42.63.27,1-.68,1.67.13,3.5-.59,5.18-.1.22.23.64-.25.76-2.76.69-2.11,2.83-1.78,4.6.24,1.25.12,2.5.37,3.84a3.48,3.48,0,0,0,.58-3.29c-.6-2.3-.41-2.5,1.77-2.91,1.1-.2.8-1.31,1.35-2,.58,3.79,1.54,7.48,1.53,11.17,0,1.51,1.11,4.34-2.08,5.11-1.23.29-.91,1.67-.05,2.09a3.18,3.18,0,0,1,1.52,3.66c-.35,2,.34,3.79.29,5.68v0c-.88.12-1.27.65-.73,1.37,1.52,2,.54,2.82-1.36,3.27.06,1.28,1.37,1.1,1.92,1.84-.46,1-2.12,1.34-1.75,2.76s1.78.36,2.76,1.16c-3.65,1.35-5,5.07-7.92,7.08a1,1,0,0,0,0,1.73,1.15,1.15,0,0,0,1.77,0c1-.91,1.93-1.85,2.85-2.81a1.61,1.61,0,0,1,2.42-.26c1,.79.54,1.56,0,2.36a5,5,0,0,1-1.7,1.78,1.08,1.08,0,0,0-.48,1.68,1.19,1.19,0,0,0,1.92.31c.72-.56,1.8-.61,2.2-1.85.25,1,.24,1.62-.3,2.14-.33.31-.63.95-.36,1.06,2.48,1,.55,2,.33,3.26-.17.93-.5,3.12,1.47,3.78l0,1c-.7.22-.32,1.5-1.2,1.37s-.55-1.06-.7-1.61c-.61-2.24-1.3-2.65-3.53-1.79.22-1.71-1.08-3.39.19-5.06.31-.4,0-.78-.4-1s-.73-.46-1.16-.24-.59.69-.48,1.25c.31,1.51.82,3.1-.84,4.25a1.15,1.15,0,0,1-.24-1.24c.77-3.61-1.06-5.94-4.71-6a2.88,2.88,0,0,0-2.11,1c-1.37,1.25-2.32,3.1-4.37,3.53l0,0c0-1.78,2.1-2.29,2.46-4,.23-1,.85-2,.2-3a.68.68,0,0,0-1.08-.16c-.89,1-3,.43-3,2.48a16.87,16.87,0,0,1,0,2.25c-.1.86-.32,1.73-1.51,1l.12-.19-.1.2c-.48-.17-1.41.68-1.43-.24-.05-1.64-1.36-.69-2.12-1.22a83.36,83.36,0,0,0,5.73-11.31,64.51,64.51,0,0,1,5-9.31c1-1.55,2.08-4.07.4-6.44-.6.67-1.16,1.25-1.67,1.86-.33.41-.53.95,0,1.3s1.73-.06.78,1c-.45.49-1.13,1.79-2.21.64s-2.12-.73-3.08.09a3.9,3.9,0,0,1-2.43,1.09c-1.1,0-1.41,1.63-1.19,1.82,1.94,1.66,0,2.25-.67,3.29-.32.47-.84.7-1.07,1.2a2.54,2.54,0,0,0,3.1-1c.9-1.37,1.88-1.46,3.32-.38-1.16.49-.7,3-3.09,1.9-.43-.2-.75,1.13-1,1.8-1.18,0-2.1-3-3.4-.17a1.41,1.41,0,0,0,0,1.35c.17.38.31.78.49,1.15.46.92-1.53,1.7-.39,2.34s.73-1.79,2.09-1.56c.4,2.84-.11,4.89-3.51,5.62-1.14.24-1.94,2-3,3a23,23,0,0,1-2.18,1.64c-.69-1,.16-1.29.58-1.66a23.21,23.21,0,0,0,2-1.47c.59-.63.41-2.21,0-2-1.48.72-3.32.41-4.54,2-1.1,1.41.93,1,.7,1.83-.79.69-2.52.68-2,2.54.23.86-.47.49-.94.52-1,.07-2.07.3-3.18.48.14,1,2,.48,1.4,1.5a2.77,2.77,0,0,1-2,1.35c-2.09.19-2.09,1.91-2,3.52a.51.51,0,0,0-.17.07s0,.08,0,.12ZM482.63,99.66l.13-.2-.11.21a.89.89,0,0,0-.17.08s0,.08,0,.12Zm11.05-7c0-.31,0-.69-.45-.76-.08,0-.29.2-.28.28.06.43.43.42.75.46.22.83-.51,2,1.08,2.6C494.67,94.09,495.17,93,493.68,92.64ZM483.6,262.88c-2.2,0-3.14,1.36-3.77,3.1,1.2-1.11,4.61.37,3.84-3,.69-.64.61-1.36.07-2.49Zm-1.05-75.21c.1.09.27.28.3.26.3-.22,0-.32-.11-.45-.05-1.16-1.31-1.94-1.74-1.55-1.29,1.14-2.36,2.65-1.62,4.73.68-.69,1.85-.93,1.65-2.08C480.73,186.83,481.91,187.74,482.55,187.67Zm10.31,86.62c-2.11.21-4.44-.45-6.19,1.39-.43.45-.45.24-.49-.11-.21-1.63-1.1-.8-1.77-.47a10.2,10.2,0,0,0-2.05,1.31c-.26.22.12.79.36.77,1.84-.13,3.12,1.13,4.71,2.1-.65-2.93-.2-3.37,2.76-3.11-2.16,1.07-1.12,3.33-1.76,5-.27.71,1,.87,1.75.86.53,0,1.37.19,1.28-.71-.06-.54.5-1.62-.94-1.53-1.21.07-.92-.7-.35-1.19a8.53,8.53,0,0,1,1.78-.92C491.35,276.33,490,274.76,492.86,274.29Zm9.12-8.07c2.14-1.64,4.75-1.41,7-2.12,3.54-1.1-1.59-2.87.61-3.71.21-.08,0-.69-.31-.77a1.71,1.71,0,0,0-.94.22,4.86,4.86,0,0,1-2.13.57c-1,0-1.67.62-1.37,1.6.55,1.83-.49,2.24-1.88,2.36S501.59,265.13,502,266.22Zm-23.57,18.89a9.31,9.31,0,0,0,8.37-2.22c.9-.82-.09-1.43.14-2.11-1.21.32-1.16-2-2.56-1.24a1.65,1.65,0,0,0-.32.28c1.85,1.87-2.62,1.83-1.09,3.61-.18.1-.45.33-.52.28C480.52,282.33,479.86,285,478.41,285.11Zm8.46-161.79c2.9-.46,4.59-2.42,6.06-4.62.42-.62.69-1.33,1.59-1.44,1.6-.22,1.61-1.56,2.19-3C491.8,115.93,490.41,120.78,486.87,123.32Zm61.34,75.53c-2.14.67-2.26,3.06-4.05,4,1.19-1,1.91,2.35,3.22.16C548.13,201.7,548.76,200.51,548.21,198.85Zm-29.6,42.77c-.76,1.47-2,1.26-3.1,1.24s-1.1.68-.76,1.46c.21.49,0,1.79.92,1.18C517,244.66,519.14,244.42,518.61,241.62ZM485.87,124.14c-1.33.27-6,3.91-6.33,4.93C484.62,126.23,484.65,126.21,485.87,124.14ZM488,265.57c.68-.91,1.08-1.51,1.55-2.05a19.14,19.14,0,0,1,1.56-1.56c.36-.32.51-.66.19-1a1,1,0,0,0-1.09-.41C488.88,260.87,487.63,263.38,488,265.57Zm5.46-15.63c-5.19,1-5.19,1-5.59,2.5C489.48,250.6,492,252.16,493.49,249.94ZM495.22,108c-1.76.1-1.31-3-2.5-2.26s.8,2,.82,3.28Zm55.86,105.48c1.13-1.18.56-2.13,0-3a.5.5,0,0,0-.84,0C549.6,211.6,550.32,212.44,551.08,213.49ZM490.48,97.11c.44-.06,1.07-.24,1-1s-.75-.86-1.3-.83-1.23.12-1.09.93C489.18,96.91,489.67,97.18,490.48,97.11Zm-2.16-2.67a1.66,1.66,0,0,0,2.1-1,.44.44,0,0,0-.45-.66C489.08,92.88,488.68,93.54,488.32,94.44Zm-5.9,1.74a6,6,0,0,0-1.24,3.06A2.4,2.4,0,0,0,482.42,96.18Zm69,122.22c.68-.74.67-1.3-.2-1.92C551,217.21,550.79,217.79,551.38,218.4Zm-54.89,53.82c.12-.41-.07-.59-.34-.57a.89.89,0,0,0-.58.34c-.2.33.12.45.35.44A1.83,1.83,0,0,0,496.49,272.22Zm-12-174.87a2.35,2.35,0,0,0-.37-2.13C484.25,96.19,484,96.71,484.51,97.35Zm-6.69,32.09.41.18c.06-.13.19-.3.15-.4s-.25-.13-.38-.19ZM495,275c-.07-.14-.1-.33-.2-.37s-.26.07-.4.12l.25.49Zm-12.25,5.14A4.28,4.28,0,0,0,482,280a.79.79,0,0,0-.42.17c.13.42.48.29.77.26C482.5,280.46,482.61,280.31,482.79,280.17ZM496,273.56c-.07-.14-.1-.34-.2-.38a.39.39,0,0,0-.39.13c-.13.23,0,.45.24.47C495.79,273.79,495.91,273.64,496,273.56Zm54.9-14.9-.2-.4c-.09.13-.22.25-.23.38s.12.28.18.41ZM483.45,98c-.05,0-.13,0-.15,0s0,.12,0,.18l.26,0Z" transform="translate(-383.66 -38.93)"/><path class="cls-1" d="M539.42,295.09c1.6,1.28,3.18-.18,4.78-.07.43,0-.84-1.08.62-1,2.46.09,3.67,1.25,2.15,2.93s-.85,3.22-1.36,4.76c-.27.83.06,1.74-.57,2.57-.38.49-.18,1.33.8,1.4.32,1.07-.55,1.68-1,2.47-1.67.75-1.68,2.88-2,3.94-.82,2.83-2.4,5.21-3.35,7.86-1.13,0,.54-2-1.13-1.46-.84.27-2,.06-2,1.64a9.13,9.13,0,0,1-3.92,7.59c-1.5,1.16-1.65,3.5-2.74,5.21-1.5,2.33-3.94,3.92-4.64,7-.42,1.84-.52-.62-1.2-.46a5.26,5.26,0,0,1-1.65,4.78c-1,.95-2.31,1.81-1.44,3.55a.75.75,0,0,1-.17.69c-3.17,1.44-3.35,5.51-6.31,7.13-.6.33-.13.62.09.95.34.5,0,.95-.43.75-1.85-.95-3,.86-4.57,1.09-1.08.15-1.93,1.34-2.36,2.58,1.12.28,1.57-1.74,2.83-.79-.8,2.09-1.83,4.2-.09,6.34.25.31.31.67,0,.85-1.68,1-.76,3.95-3.35,4.28-.31,0-.68.94-.75,1.48-.6,4.66-3.42,7.95-6.65,11-.8.75-1.79,1.44-1,2.8.1.18,0,.64-.09.71-2.7,1.46-.95,4.71-2.91,6.78a11.3,11.3,0,0,0-2.88,7.8c0,.62-.65.69-.92,1-.79,1-1.88,1.95-1.4,3.49.27.84.89,1.78-.36,2.36a2.44,2.44,0,0,1-2.59.12c-1.3-.83.91-1.59,0-2.35.89-1.06,1.38-2,.09-3.25-.42-.4.86-1,.41-1.91l-2.14-.1,0,0c0-.85.78-1,1.18-1.48.78-.95,1.71-1.91.62-3.24-.85-1,.36-2.23-.11-3.29-.88-.3-.57.73-1,.78-.84.11-1.88,1-2.46.13s.43-1.31,1.16-1.73c.39-.23.6-.77.92-1.15.49-.6,1-1.27.58-2-.53-1-1.3-.09-2-.1a2.76,2.76,0,0,1-.69-.22c2.3-3.58,2.16-4.82-.63-5.12,1.26-2.81,4.34-3,6.37-4.65.43-.34,1.58-.16,1.05-1.19s-1-.05-1.53.18a1.52,1.52,0,0,1-.92.16,5.63,5.63,0,0,1-3.38-7.77c.23-.48.53-1,.19-1.38-.86-.88-.86.69-1.07.55a3.26,3.26,0,0,0-2.81-.09l0,0a1.44,1.44,0,0,1,1.08-1.52c2.18-.58,2.89-2,3.44-4.17.41-1.57-.32-2.39-.88-3.31s-1.82-.62-2.79-.42-1.71,1.1-2.82.72c1.51-1.81,1.51-1.86,5.33-1.81,1.7,0,3.05-.07,2.68-2.35-.2-1.28,1-1.56,1.95-2.11-.66-.75-2.18.18-2.22-1.39,0-.62-.69-.65-1.34-.17-1.26.93-2.66,1.67-3.53,3.06a4.39,4.39,0,0,1-2.33,1.92c.35-2.84,2.38-4.18,4.05-5.45a135.19,135.19,0,0,0,18.32-16.82c2.84-3.15,5.12-6.81,7.88-10.05a72.63,72.63,0,0,0,8.37-12.27c.16-.28.33-.7.59-.78,4.8-1.47,5.74-6.64,9.07-9.55.75-.67,1-2.1,1.31-3.16,1.94-5.8,7-9.54,9.62-14.87.07-.14.43-.13.79-.24.25,1.56-1,2.91-.21,4.54.34.7.31,1.45,1.21,1.28s2.33.88,2.41-1c0-.5,0-.84.59-.83a.75.75,0,0,1,.58.35,3.12,3.12,0,0,1-.71,2.8c-.48.62-1.33,1.16-2.14.26-1.19-1.35-2.19,1-3.45.19-.19-.12-.84,1.54-.53,1.6.83.17,1.33,1.68,2.43.69Z" transform="translate(-383.66 -38.93)"/><path class="cls-1" d="M391.59,294.05c1.44.86,1.66,2.47,2.09,3.84.89,2.81,2.52,5.32,3.13,8.23.27,1.31,1.14,1.63,2.42,1.57s1.56-.42.9-1.63c-.29-.54.7-.88,1-.78,1.22.47,2.17-.06,3.48-.65-3.16,3.09-1.93,6.39-.77,9.74,1.21-1.29,2.73-2.24,4.91-1.44a2.35,2.35,0,0,1-2.13,1.27c-.52.06-1.27.46-1,.83,1.52,2.25-1.09,1-1.49,1.81a16.6,16.6,0,0,1,2.4,1.25c2.4,2,2.56,2.05.56,4.23,1.1.58,2.27-1.18,3.13-.11.68.86-1.05.79-1.11,1.57,2.33,0,1.39,2.34,2.45,3.23-1.88,1.85.61,3.54.23,5.43-.24,1.22.14,2.62-.13,4-1.08-.17-1.85-1.19-3.14-.89.31,2.41,2.35,4.21,2.36,6.68a49.42,49.42,0,0,1-5.64-10.4c-1.79-4.91-4.32-9.55-5.27-14.76,0-.05.12-.13.11-.15a2.53,2.53,0,0,0-.22-.26q-4.16-11-8.3-21.95C391.43,294.55,391.55,294.28,391.59,294.05Zm14.54,37.39c-.4.75.13,1.19.34,1.68.3.7.73,1.33,1.59,1.35.17,0,.45-.27.51-.46.28-.9-.61-1-1-1.49S407,331.45,406.13,331.44Zm-7.62-22.33-.48.29c.13.17.23.45.39.49a.66.66,0,0,0,.52-.31C399.11,309.28,398.82,309.2,398.51,309.11Zm2.09,5.68c-.06-.14-.08-.33-.18-.39s-.25,0-.39.07l.21.52Z" transform="translate(-383.66 -38.93)"/><path class="cls-1" d="M392.23,187.57c-.48.32-2.18-.92-1.35,1.12.41,1-1.42,1.16-1.14,2.27-1.17.28-.86-1-1.47-1.37-.84-.47-.71-1.37-1-2.16-1,1.8,0,3.62.48,5.22.24.73,2.06,1,3.08-.4.33-.46.66.45.65.83,0,.68.78,3,1.28,3.31a3.85,3.85,0,0,0,1,.23v0c-1.34,1-2.59.4-3.88-.15-.95-.42-1-.37-1.64.76-.19.31-.37.25-2.12-.64-.86-3.31,0-6.6.29-9.86a30.58,30.58,0,0,1,2.43-9.66c.82.41-.54,1.42.68,1.86.1-1.06.95-2.11-.56-2.83-.47-2.08.57-3.94,1.05-5.82,1.15-4.55,1.64-9.33,4.17-13.46a4.32,4.32,0,0,1-.08,1.45c-1.68,4.08-1.95,8.55-3.52,12.62a3.06,3.06,0,0,0,.86,3.5c.74.73,1.05,2.53,3,1.85-.06,1-2.06,1.92-.06,2.68a2.77,2.77,0,0,1-.39,1.3c-.5.59-1.05,0-1.59-.13s-1.38-.88-1.18.07c.38,1.73-3.63,2.2-1,4.35,1.24,1,1.72.47,2.12-.7.22-.66-.39-1.72.55-1.95s1.26.8,1.72,1.48c.26.38.81.56,1.35.9-1.8.58-2.66,2-3.64,3.36Zm-3.17-.47c-.12-.16-.19-.35-.29-.37a.45.45,0,0,0-.39.17.32.32,0,0,0,.35.45C388.85,187.34,389,187.19,389.06,187.1Zm.42-6.79c0-.06-.1-.18-.13-.18a2.35,2.35,0,0,0-.37.14c0,.06.09.18.12.17A2.84,2.84,0,0,0,389.48,180.31Z" transform="translate(-383.66 -38.93)"/><path class="cls-1" d="M384.05,238.23a69.29,69.29,0,0,1,10.11,10.15c1.48,1.77.35,5.38-1.84,7.68-1.64,1.71-3.23,3.46-4.89,5.14-.23.24-.77.17-1.16.24-.39-1.85-1.08-3.66-.87-5.6.61-.13,1.92.49,1.55-.8-.79-2.82,1.15-2,2.51-2.18.92-.09,2.15.57,2.64-.72a3,3,0,0,0-.89-3.21c-1.67-1.82-3.45-3.56-5-5.45a3.26,3.26,0,0,0-2.25-1.34A6.68,6.68,0,0,1,384.05,238.23Z" transform="translate(-383.66 -38.93)"/><path class="cls-1" d="M383.91,242.14a3.26,3.26,0,0,1,2.25,1.34c1.6,1.89,3.38,3.63,5,5.45a3,3,0,0,1,.89,3.21c-.49,1.29-1.72.63-2.64.72-1.36.14-3.3-.64-2.51,2.18.37,1.29-.94.67-1.55.8q-.75-6-1.49-12c.34-.07.63-.25.59-.6s-.37-.46-.71-.45Z" transform="translate(-383.66 -38.93)"/><path class="cls-1" d="M503.29,464.66c-.79-3.25-2.83-6-3.87-9.14-.41-1.27-.53-2.57-1-3.8-.3-.85.26-1.26,1-1.36.9-.11.83.36,1,1.15a19.1,19.1,0,0,0,3,7.22,8.6,8.6,0,0,1,1.44,2.3c.55,1.68,1.44,2.86,3.48,1.58a1.27,1.27,0,0,1,2,.68,1.34,1.34,0,0,1-1.16,2,3.54,3.54,0,0,0-3.06,2.14.42.42,0,0,1-.38-.27,2.25,2.25,0,0,0-2.06-2.29Z" transform="translate(-383.66 -38.93)"/><path class="cls-1" d="M402.71,132.81c1.28.39,1.51,1.23.55,2.51-1.3,1.73-1.71,4-3.36,5.52-.19.18,0,.77,0,1.49,1.1-1.27,2.17-2.37,3.26-.48.68,1.18.56,2.41-1.09,2.47-3.09.1-4.41,1.57-5,4.6-.47,2.43-1.87,4.68-2.86,7-.77-2.05.51-3.8,1.26-5.39,1.59-3.41,2.15-7.12,3.58-10.56A39.42,39.42,0,0,1,402.71,132.81Z" transform="translate(-383.66 -38.93)"/><path class="cls-1" d="M427.81,94.06c.59,1.59-.73,2.76-1.48,3.44-1.63,1.45-2.65,3.4-4.35,4.79-1.06.87-1,2.95-3,2.94C421.5,101.18,423.58,96.77,427.81,94.06Z" transform="translate(-383.66 -38.93)"/><path class="cls-1" d="M410.83,117.75a1.7,1.7,0,0,0,2.14,0,13.19,13.19,0,0,0-3.88,4.43c-1.12,1.73-1.68,4-3.65,5.21.92-3,1.75-5.92,3.64-8.47C409.56,118.23,410,117.68,410.83,117.75Z" transform="translate(-383.66 -38.93)"/><path class="cls-1" d="M412.44,345.76c1.56.69,1.74,2.34,2.4,3.62.86,1.66,2.1,3.16,2.42,5.08A28.56,28.56,0,0,1,412.44,345.76Z" transform="translate(-383.66 -38.93)"/><path class="cls-1" d="M385.67,198.13a4.85,4.85,0,0,1,1.46.25c.68.38,2.24.12,1.71,1.53-.41,1.06-1.18,2.38-2.76,1.14C385.94,200.08,385.8,199.11,385.67,198.13Z" transform="translate(-383.66 -38.93)"/><path class="cls-1" d="M386,202.13c1.46-.47,1.69,1.57,3.05,1.66l-3.4,1.33C385.53,204.1,385.29,203.06,386,202.13Z" transform="translate(-383.66 -38.93)"/><path class="cls-1" d="M425,367.87a8.52,8.52,0,0,1,3.13,5.35A16.66,16.66,0,0,1,425,367.87Z" transform="translate(-383.66 -38.93)"/><path class="cls-1" d="M454.09,403a5.57,5.57,0,0,1,4,3.49A10.6,10.6,0,0,1,454.09,403Z" transform="translate(-383.66 -38.93)"/><path class="cls-1" d="M434,380.93a6.25,6.25,0,0,1,3.38,4.17A10.26,10.26,0,0,1,434,380.93Z" transform="translate(-383.66 -38.93)"/><path class="cls-1" d="M390.3,289.52c2.39.64,1,2.47,1.21,3.82C390.42,292.28,390.47,290.86,390.3,289.52Z" transform="translate(-383.66 -38.93)"/><path class="cls-1" d="M404.48,128.72a2.35,2.35,0,0,1-1.39,3C403.36,130.61,403.12,129.29,404.48,128.72Z" transform="translate(-383.66 -38.93)"/><path class="cls-1" d="M503.75,464.87a2.25,2.25,0,0,1,2.06,2.29C504.45,467,504.15,465.89,503.75,464.87Z" transform="translate(-383.66 -38.93)"/><path class="cls-1" d="M388.92,176.08c1.51.72.66,1.77.56,2.83-1.22-.44.14-1.45-.68-1.86Z" transform="translate(-383.66 -38.93)"/><path class="cls-1" d="M429.09,374.89a2.25,2.25,0,0,1,1.77,2.12A2.6,2.6,0,0,1,429.09,374.89Z" transform="translate(-383.66 -38.93)"/><path class="cls-1" d="M384.11,233.77c.82.71.81,1.39-.06,2A1.67,1.67,0,0,1,384.11,233.77Z" transform="translate(-383.66 -38.93)"/><path class="cls-1" d="M443.12,392c1.08,0,1.83.45,1.75,1.7A3.49,3.49,0,0,1,443.12,392Z" transform="translate(-383.66 -38.93)"/><path class="cls-1" d="M458.09,406.56c.9.23,1.85.43,1.87,1.66C459.2,407.82,458.4,407.46,458.09,406.56Z" transform="translate(-383.66 -38.93)"/><path class="cls-1" d="M441.08,389.47a1.41,1.41,0,0,1,1.32,1.6C441.73,390.72,441.13,390.32,441.08,389.47Z" transform="translate(-383.66 -38.93)"/><path class="cls-1" d="M431.06,377.41a1.35,1.35,0,0,1,1.28,1.66C431.7,378.68,431.05,378.3,431.06,377.41Z" transform="translate(-383.66 -38.93)"/><path class="cls-1" d="M438.05,386a1.47,1.47,0,0,1,1.35,1.61A1.94,1.94,0,0,1,438.05,386Z" transform="translate(-383.66 -38.93)"/><path class="cls-1" d="M386.11,262.9c.74.36.7.71,0,1.05C385.69,263.6,385.64,263.25,386.11,262.9Z" transform="translate(-383.66 -38.93)"/><path class="cls-1" d="M452.13,401a.91.91,0,0,1,.91,1C452.44,401.93,452.2,401.54,452.13,401Z" transform="translate(-383.66 -38.93)"/><path class="cls-1" d="M418.11,356.29c.64.11.81.53.71,1.11C418.32,357.2,417.89,357,418.11,356.29Z" transform="translate(-383.66 -38.93)"/><path class="cls-1" d="M411.17,343.23a.85.85,0,0,1,.57,1.17C411.23,344.17,410.87,343.86,411.17,343.23Z" transform="translate(-383.66 -38.93)"/><path class="cls-1" d="M446.92,395.57c.7,0,1.08.33,1,1.08A1.23,1.23,0,0,1,446.92,395.57Z" transform="translate(-383.66 -38.93)"/><path class="cls-1" d="M389.73,287.53c.6.16,1.31.27.41,1A.88.88,0,0,1,389.73,287.53Z" transform="translate(-383.66 -38.93)"/><path class="cls-1" d="M383.79,242.84c.34,0,.67.09.71.45s-.25.53-.59.6Z" transform="translate(-383.66 -38.93)"/><path class="cls-1" d="M461.92,410.18c.71-.05,1.1.26,1.07,1A1.25,1.25,0,0,1,461.92,410.18Z" transform="translate(-383.66 -38.93)"/><path class="cls-1" d="M463,411.17c.76,0,1.06.39,1,1.12A1.37,1.37,0,0,1,463,411.17Z" transform="translate(-383.66 -38.93)"/><path class="cls-1" d="M464.17,412.58c.67.06.91.45.84,1.09A1.1,1.1,0,0,1,464.17,412.58Z" transform="translate(-383.66 -38.93)"/><path class="cls-1" d="M385.65,205.12a.82.82,0,0,1-.46,1C385,205.67,385,205.26,385.65,205.12Z" transform="translate(-383.66 -38.93)"/><path class="cls-1" d="M399.8,316.69a2.53,2.53,0,0,1,.22.26s-.07.1-.11.15A.34.34,0,0,1,399.8,316.69Z" transform="translate(-383.66 -38.93)"/><path class="cls-1" d="M417.32,354.85a.6.6,0,0,1,.4.69A.55.55,0,0,1,417.32,354.85Z" transform="translate(-383.66 -38.93)"/><path class="cls-1" d="M440.22,388.48l.26.38C440.21,388.86,440.08,388.76,440.22,388.48Z" transform="translate(-383.66 -38.93)"/><path class="cls-1" d="M442.39,391.07l.5.57Z" transform="translate(-383.66 -38.93)"/><path class="cls-1" d="M448.38,397.11a.52.52,0,0,1,.54.55Z" transform="translate(-383.66 -38.93)"/><path class="cls-1" d="M450.37,399.13a.53.53,0,0,1,.56.54Z" transform="translate(-383.66 -38.93)"/><path class="cls-1" d="M461.3,409.57a.28.28,0,0,1,.28.28C461.33,409.91,461.22,409.83,461.3,409.57Z" transform="translate(-383.66 -38.93)"/><path class="cls-1" d="M414.83,332.25c-.28-.76.58-2.48-1.51-1.73-.34.13-.48-.39-.42-.72a1,1,0,0,1,1.23-1c2.76.55,5.36-.46,8-.64,2.26-.15,2.1-2.23,3.74-2.28-1.13-.68-1.94-.16-2.72.35s-1.23,1.44-2.07.54c-.36-.39-.88-1.31-.33-1.79.7-.62,1.61-1.61,2.68-.5.75.78,1.43.16,1.95-.14.88-.53,1.54-1.74,2.52-.09.23.38.8,0,1-.36,1.11-1.54,2.78-1.94,4.5-2.24l.05.05c-.88,1.89-2.82,2.5-4.44,3.3-2.45,1.21-3.12,2.43-2.14,5.62.7-2.52,2.75-3.38,4.73-4.29a1.28,1.28,0,0,0,.74-1.14c.18-1.41,1.43-1.13,2.14-1.16.47,0,1.26.92,1.41,1.55.8,3.26,1.32,3.66,4.41,3.06.64-.12,1.6-.93,1.85.25.17.85-.9.75-1.5.88s-1,.85-1.49,1.26c-1.43,1.18-2.28.91-3.2-1.45.25,2.52-1.26,2.89-2.63,3.06-2.4.29-4.2,2.23-6.67,2.21-1,3.11-4.69,2.45-6.51,4.43-1.5-2.58-1-4.47,1.56-5.38a3.08,3.08,0,0,0,1.79-1.22c.41-.66,2.12-.5,1.59-1.49-.61-1.16-1.81,0-2.61.28-1.37.51-2.54,1.56-4.31,1.2,1.09,1.62-.21,3.17.41,4.68.17.4-.77.75-1.36.82s-1.22-.24-1.27-.9c-.07-.91-.29-2.06.14-2.69,1.28-1.86.06-2.07-1.26-2.36Zm4.3-1.67a2.56,2.56,0,0,0-.47.54c-.22.44-.44,1.08.41.8C419.52,331.78,419.44,331.1,419.13,330.58Zm10.11-.27c-.07-.15-.1-.36-.2-.4a.42.42,0,0,0-.4.14.3.3,0,0,0,.25.48C429,330.54,429.12,330.39,429.24,330.31Z" transform="translate(-383.66 -38.93)"/><path class="cls-1" d="M444.44,328.71c-2.9-1.53-1.27-3.83-.72-5.67.48-1.63,2.17-1.79,3.73-1.3.31.1.63.42.81,0s-.72-2.16,1-1.19c1.13.63,1.56,1.7.39,2.84-.15.15-.12.47-.19.82.82.48,1.77-2,2.39,0,.44,1.44-.83,1.88-1.76,2.32-.73.35-1.63.3-2.21,1s-1.65,1.55.18,2.4c1.15.53,1.94,1.77.79,3.07-.62.7.31,1.46-.51,2.27-1.93-1.84-4.51-3.16-3.89-6.55l.49-.51c.77,0,1.53-.06,1.61-1.07,0-.11-.3-.35-.48-.37-1.12-.13-1.13.65-1.14,1.44Z" transform="translate(-383.66 -38.93)"/><path class="cls-1" d="M434.92,339.79c-.24-.58,1.3-1.64-.66-1.88-.7-.08.93-1,.31-2-.7.49-2.35-.42-1.94,1.73.09.49-.87.6-1.46.7-1.79.33-3.1,1.6-4.62,2.44s0,2.7-1.12,3.82c-1-2.68-.13-3.16.81-5.41,1-2.5,3.9-2.1,4.89-4.29a2.65,2.65,0,0,1,2.94-.47,7.83,7.83,0,0,0,4.42.57c.57-.09,1-.08,1.18.52,0,.14-.25.39-.41.56-1.34,1.38-1.33,4.32-4.35,3.73Z" transform="translate(-383.66 -38.93)"/><path class="cls-1" d="M454.5,386.51c2.06-.3,3.71.9,5.53,1.5l0,0-.52.52h0c-1.32,1.53-1.1,2.64,1,2.93s-.4,1,.78,1.49c.42.13,1.37-.89,2.48-.06-.43.82-1.89,1.37-1.15,2.68.37.66,1,.52,1.55.48,1.32-.09.2-1.25.78-1.81.68.56,1.52.9,1.88,1.76-.14.19-.21.35-.34.43-2.67,1.8-4,.26-6-1.64a23.15,23.15,0,0,1-6-8.27Z" transform="translate(-383.66 -38.93)"/><path class="cls-1" d="M412.32,127.3c0-.57-.28-1.45.24-1.63,3.1-1.08,1.95-3.76,1.58-5.42-.63-2.83,1-4.59,2-6.74,0-.06.29,0,.68-.06a22.88,22.88,0,0,0-.86,2.81c-.38,2.22-.07,4.24,2,5.62.47.32.46.84.5,1.34l-.14.13c-2.66-1-2.93.73-2.76,2.59.11,1.13.2,1.91-1.05.91-1.09-.88-1.37.69-2.15.44Z" transform="translate(-383.66 -38.93)"/><path class="cls-1" d="M443.45,104.19c1.7,1.3,1.65,3.52,2.88,5.18-1.19-.36-2.54-2.45-2.93.52-.07.58-.35.14-.62.1-1.92-.29-3.83-.52-4.69,1.94a1.85,1.85,0,0,1-1.83,1.13c-.54-.72.89-2-.71-2.51-.39-.12.33-.19.5-.34a8,8,0,0,0,2.39-2.52v0c1.24.59,2.49,1.77,3.66-.19.16-.28.89-.21,1.36-.31l.24.21-.22-.23a4.91,4.91,0,0,1,0-3Z" transform="translate(-383.66 -38.93)"/><path class="cls-1" d="M454.52,386.49c-1,0-1.54-.89-2.2-1.5-.85-.79-.65-1.05.34-1.72,1.44-1,3.29-1.68,3.73-3.75.1-.5,1-.78,1.18-.36.49,1.36,2.11.74,2.75,1.79-2,1.82-5.06,2.49-5.82,5.56Z" transform="translate(-383.66 -38.93)"/><path class="cls-1" d="M470.16,229.79c1.95-2.2.46-4.73.7-7.1a.88.88,0,0,1,.26-.65,149.34,149.34,0,0,1,1.22,25.11c-.27-1.93-.41-3.88-.64-5.82s0-4-.11-6c-.12-1.61.41-3.49-1.42-4.6C470.17,230.42,470.16,230.1,470.16,229.79Z" transform="translate(-383.66 -38.93)"/><path class="cls-1" d="M437.93,325.72c.4-.13,1.38.4,1-.69-.55-1.52-.16-3,0-4.47.11-.75.29-1.68,1.1-1.76,1.06-.1.76.47.25,1a2.45,2.45,0,0,0-.36.89.58.58,0,0,0-.18.08s0,.09,0,.13l.2-.23c1.2-.14,2.35-.89,3.8-.29-.95,1.13-1.43,2.43-2.7,3.35s-1.17,1.6.43,1.94c.55.11.47.36.38.57-.19.52-.4,1.48-1,1.23-1-.46-2.6-.18-3-1.77Z" transform="translate(-383.66 -38.93)"/><path class="cls-1" d="M456,296.07a2.43,2.43,0,0,0-3.34,1,31.14,31.14,0,0,1-3.54,3.54A2,2,0,0,1,447,301c-.68-.25-.2-.82-.12-1.28.19-1,.76-.94,1.65-.84,1.28.15,3.89-4,3.46-5.27l0,0c1.83-.65,2.78,2,4.65,1.24l-.63,1.26Z" transform="translate(-383.66 -38.93)"/><path class="cls-1" d="M432.4,353.85c.55-1.62,1.61-2.41,3.39-2,.22-.89-2-.31-.83-1.52.51-.52.78-1.83,1.84-1.22a2.18,2.18,0,0,1,.63,2.57,4.19,4.19,0,0,1-1.81,2,3,3,0,0,0-1.61,3.69,26.46,26.46,0,0,1-2.46-2.51c-1-1.29.36-.85.86-1l.21.12Z" transform="translate(-383.66 -38.93)"/><path class="cls-1" d="M437.7,362.09c.28-2.42,4.2-2.9,3-6.14,1.29,1.22,1.17,3.14,2.51,4.08.89-.26,0-1.14.72-1.48.15.14.43.27.45.44.24,1.38-1.15,2.89.3,4.22a2.44,2.44,0,0,1-.72.84c-.43.22-.51-.18-.53-.52-.24-3.26-1.93-2.79-3.93-1.53A1.47,1.47,0,0,1,437.7,362.09Z" transform="translate(-383.66 -38.93)"/><path class="cls-1" d="M437.12,309.08c0,.11-.63-.48.15-.66,2.28-.54,2.86-3.89,5.79-3.38,1,.17.87-.78.94-1.42s.24-1,.91-.84c.52.12.51.58.51,1,0,.92.07,1.82-1,2.29-2.36,1-5.15,1.37-6.23,4.27-.08.21-.82.36-1.12.23C436.34,310.28,437.06,309.93,437.12,309.08Z" transform="translate(-383.66 -38.93)"/><path class="cls-1" d="M457,378.24c-1.81,1.57-3.22,2.86-4.71,4-.52.41-1.26,1-2,.14-.54-.65-.18-1.26.16-1.83C452.56,377.07,453.05,376.84,457,378.24Z" transform="translate(-383.66 -38.93)"/><path class="cls-1" d="M421.66,290a76.6,76.6,0,0,0-6.49,7.28.68.68,0,0,1-.87.27.53.53,0,0,1-.23-.82,57.77,57.77,0,0,0,4.09-5.57C418.74,290.07,420.26,290,421.66,290Z" transform="translate(-383.66 -38.93)"/><path class="cls-1" d="M459,372.93c0,1.1.25,2.32-1.63,1.59a3.62,3.62,0,0,0-1.95.07c-.73.16-1.55.64-2-.16-.65-1.08.53-.81,1-1.09s0-.35-.13-.52c-.34-.39-1.6-.37-.73-1.32.7-.76,1.36.16,1.65.47,1.13,1.21,2.75,0,3.86,1Z" transform="translate(-383.66 -38.93)"/><path class="cls-1" d="M452,337.79c-2.82-.62-.78-2.22-.43-3.14.45-1.2,1.49-2.18-1.15-3.16,1.78-.16,3.05.89,3.66-.64,0,0,.53,0,.62.2.21.33-.17.55-.28.83-.73,2-2.44,3.57-2.37,5.87Z" transform="translate(-383.66 -38.93)"/><path class="cls-1" d="M434.91,339.77c0,.71-.32,1.72-.79,1.68-1.74-.15-3,1.18-4.68,1.15-.44,0-.49-.39-.51-.72a1.36,1.36,0,0,1,.58-1.3c.84-.53,2.3.09,2.65-1.41,0,0,.57.06.57.12.26,2.31,1.45.41,2.19.5Z" transform="translate(-383.66 -38.93)"/><path class="cls-1" d="M393.73,196.62c.08-.15.11-.38.23-.43,1.17-.5-1.52-2,.36-1.94a3.79,3.79,0,0,1,3.25,2.71,1.36,1.36,0,0,1-1,1.55c-.61.18-1.12.13-1.19-.77s-.93-1-1.66-1.14Z" transform="translate(-383.66 -38.93)"/><path class="cls-1" d="M416.8,326.79c-1.66,1.61-2.76,1.76-3.55.5s-.19-2.46.05-3.69c0-.09.46-.21.64-.14.49.18.39.66.4,1.06C414.4,325.79,413.88,327.46,416.8,326.79Z" transform="translate(-383.66 -38.93)"/><path class="cls-1" d="M417.6,323.28c.46,1,1.89,1.09,2,2.22a1.5,1.5,0,0,1-1.44,1.51c-1.2,0-1.32-1.27-1.6-2.08A1.51,1.51,0,0,1,417.6,323.28Z" transform="translate(-383.66 -38.93)"/><path class="cls-1" d="M443,334.73c.68-.24,1.06-1.12,2.19-.84a3.06,3.06,0,0,0-.18,2.85l0,.05c-.6,0-.85.35-1,.87a.93.93,0,0,1-1.43.51c-.82-.48-.2-1.05.2-1.36.84-.64.23-1.35.25-2Z" transform="translate(-383.66 -38.93)"/><path class="cls-1" d="M441.33,288.37c-.1.36-.08.57-.18.65-.93.83-1.5,2.29-3.14,1.92-.14,0-.21-.37-.32-.56C439,289.91,439.35,287.88,441.33,288.37Z" transform="translate(-383.66 -38.93)"/><path class="cls-1" d="M414.41,317.28a3,3,0,0,1-1.57,2.89l0,0-1.89.14c1.43-.81,1.42-3.05,3.35-3.25Z" transform="translate(-383.66 -38.93)"/><path class="cls-1" d="M405.92,147.33c.82.75.82.75,0,5.45Z" transform="translate(-383.66 -38.93)"/><path class="cls-1" d="M409.26,316.63c.07-.8,0-1.52-1.14-1.7,1.07,0,2.17-1.41,2.84-.15s-.95,1.37-1.62,1.93Z" transform="translate(-383.66 -38.93)"/><path class="cls-1" d="M463.1,300.05c.79.12,1.44-.15,2.13-1.46.08,1.45.32,2.78.12,2.85-1.1.38-1.78-.46-2.36-1.3Z" transform="translate(-383.66 -38.93)"/><path class="cls-1" d="M447.1,292.08c-.69,1.22-.93,2.12-1.91,2.37-.13,0-.51-.3-.48-.38C445,293.1,445.62,292.48,447.1,292.08Z" transform="translate(-383.66 -38.93)"/><path class="cls-1" d="M417,186.92c-.47.74-.82,1.6-1.76,2C415.49,187.47,415.49,187.47,417,186.92Z" transform="translate(-383.66 -38.93)"/><path class="cls-1" d="M424.71,123.37c-1.59.51-2.58-.1-3.56.28C422.32,122.67,422.32,122.67,424.71,123.37Z" transform="translate(-383.66 -38.93)"/><path class="cls-1" d="M419.57,320.65c1.35.16,1.63.33,1.46.58-.61.92,1.4,1.4.36,2.34a.5.5,0,0,1-.46,0C419.75,322.87,420.82,321.71,419.57,320.65Z" transform="translate(-383.66 -38.93)"/><path class="cls-1" d="M447.44,290.3a2.34,2.34,0,0,1,2.23,1.37A2,2,0,0,1,447.44,290.3Z" transform="translate(-383.66 -38.93)"/><path class="cls-1" d="M409.34,316.71c0,.75,0,1.56-.92,1.77-.38.08-.56-.28-.59-.63-.1-1.08.64-1.19,1.43-1.21Z" transform="translate(-383.66 -38.93)"/><path class="cls-1" d="M410.25,125.86c.1,1.2.13,2.41-1.77,2Z" transform="translate(-383.66 -38.93)"/><path class="cls-1" d="M451.52,370.86c-.1.19.1.93-.71.69-.39-.11-.81-.37-.62-.83a1.49,1.49,0,0,1,.87-.7C451.53,369.89,451.84,370.14,451.52,370.86Z" transform="translate(-383.66 -38.93)"/><path class="cls-1" d="M460,388c1,.08,1.42.61,1.42,1.77-1,0-1.36-.83-1.92-1.28h0l.52-.52Z" transform="translate(-383.66 -38.93)"/><path class="cls-1" d="M468.8,99.46a3.16,3.16,0,0,1,.22.79c0,.31-.07.76-.52.6-.2-.07-.35-.5-.38-.77S468.17,99.4,468.8,99.46Z" transform="translate(-383.66 -38.93)"/><path class="cls-1" d="M418.86,123.76c.69.41,1.51.71,1.35,1.88-1.35,0-1.4-.91-1.39-1.85Z" transform="translate(-383.66 -38.93)"/><path class="cls-1" d="M411.8,127.79a2.92,2.92,0,0,1-1,2.46c.16-1.25-.42-2.17,1.06-2.44Z" transform="translate(-383.66 -38.93)"/><path class="cls-1" d="M469.55,103.17c0,.33,0,.72-.47.72s-.46-.4-.46-.72,0-.73.46-.72S469.51,102.85,469.55,103.17Z" transform="translate(-383.66 -38.93)"/><path class="cls-1" d="M451.49,319.18l-.12,1.89c-1.05-.94-1.25-1.52.13-1.89Z" transform="translate(-383.66 -38.93)"/><path class="cls-1" d="M432.48,137.25c.56.16,1.14.31,1.31,1a.33.33,0,0,1-.42.43c-.67-.12-.9-.66-1-1.24Z" transform="translate(-383.66 -38.93)"/><path class="cls-1" d="M453.48,292.13l-.24.56c-.2-.21-.49-.39-.6-.64s-.05-.68.35-.7S453.43,291.72,453.48,292.13Z" transform="translate(-383.66 -38.93)"/><path class="cls-1" d="M463,300.14c-.68-.42-1.18-.9-.59-1.88,1,.31.44,1.24.7,1.79Z" transform="translate(-383.66 -38.93)"/><path class="cls-1" d="M452,293.56c-.59-.08-1.16-.2-1.33-.87a.33.33,0,0,1,.42-.43c.7.15.81.73.89,1.32Z" transform="translate(-383.66 -38.93)"/><path class="cls-1" d="M426.27,101.91c-.34-.3-.76-.5-.9-.82-.23-.53.32-.39.56-.41.43,0,.83.1.76.65C426.66,101.52,426.43,101.69,426.27,101.91Z" transform="translate(-383.66 -38.93)"/><path class="cls-1" d="M451,167a1.63,1.63,0,0,1-1.46,1.57l-.1-.11A1.63,1.63,0,0,1,451,167Z" transform="translate(-383.66 -38.93)"/><path class="cls-1" d="M414.25,317.1c.13-.5.3-1,.95-.86.17,0,.44.34.41.46-.15.65-.76.46-1.2.57Z" transform="translate(-383.66 -38.93)"/><path class="cls-1" d="M410.33,320.25c-.08.27,0,.74-.51.56a.8.8,0,0,1-.39-.53.56.56,0,0,1,.47-.72C410.39,319.5,410.27,320,410.33,320.25Z" transform="translate(-383.66 -38.93)"/><path class="cls-1" d="M443.56,352.15l.66.7c-.17.14-.34.39-.51.39a.63.63,0,0,1-.48-.4C443.2,352.66,443.41,352.44,443.56,352.15Z" transform="translate(-383.66 -38.93)"/><path class="cls-1" d="M419.57,120.08c-.05-.37-.17-.62-.09-.8s.35-.17.54-.25c0,.14.17.33.12.42A3.26,3.26,0,0,1,419.57,120.08Z" transform="translate(-383.66 -38.93)"/><path class="cls-1" d="M416.77,128.41c0,.35-.08.63-.4.49a.93.93,0,0,1-.41-.55c-.09-.3.14-.48.41-.38S416.66,128.29,416.77,128.41Z" transform="translate(-383.66 -38.93)"/><path class="cls-1" d="M458.35,297c-.1.39-.34.48-.55.35s-.27-.35-.4-.54c.15-.05.32-.18.44-.14A2.23,2.23,0,0,1,458.35,297Z" transform="translate(-383.66 -38.93)"/><path class="cls-1" d="M441.44,318.19c.37.06.82,0,.77.61,0,.06-.1.15-.16.16-.57,0-.53-.42-.59-.79Z" transform="translate(-383.66 -38.93)"/><path class="cls-1" d="M407.21,133.76c.1-.4.2-.82.74-.74.09,0,.22.35.19.38a7.61,7.61,0,0,1-.75.51Z" transform="translate(-383.66 -38.93)"/><path class="cls-1" d="M418.85,115.75c.46-.59,1-.69,1.89,0h-1.9Z" transform="translate(-383.66 -38.93)"/><path class="cls-1" d="M427.38,344.8c0-.39.06-.78.59-.77.06,0,.15.1.16.16.05.55-.38.54-.75.62Z" transform="translate(-383.66 -38.93)"/><path class="cls-1" d="M418.38,340.72c-.09-.23-.21-.4-.17-.49a3.64,3.64,0,0,1,.42-.55c.06.15.18.32.15.44A3,3,0,0,1,418.38,340.72Z" transform="translate(-383.66 -38.93)"/><path class="cls-1" d="M437.94,325.71c-.38,0-.83,0-.8-.61a.22.22,0,0,1,.16-.16c.59-.05.56.4.63.78Z" transform="translate(-383.66 -38.93)"/><path class="cls-1" d="M413.18,128l.41.18c-.06.14-.09.36-.19.39s-.27-.1-.41-.16C413.05,128.27,413.12,128.13,413.18,128Z" transform="translate(-383.66 -38.93)"/><path class="cls-1" d="M399.39,195.85c-.14.08-.27.2-.4.2s-.26-.13-.39-.2c.13-.07.26-.19.39-.19S399.25,195.78,399.39,195.85Z" transform="translate(-383.66 -38.93)"/><path class="cls-1" d="M445.45,360.14l-.25.39c-.07-.14-.2-.28-.19-.41s.15-.26.23-.38Z" transform="translate(-383.66 -38.93)"/><path class="cls-1" d="M402.72,145c.13.06.31.1.36.2s-.06.25-.1.38c-.13-.07-.3-.11-.36-.22S402.68,145.13,402.72,145Z" transform="translate(-383.66 -38.93)"/><path class="cls-1" d="M407.39,133.91,407,135c-.07,0-.17-.08-.18-.14a.93.93,0,0,1,.35-1.06Z" transform="translate(-383.66 -38.93)"/><path class="cls-1" d="M427.38,344.81l-.56.38-.13-.21.69-.18Z" transform="translate(-383.66 -38.93)"/><path class="cls-1" d="M441.8,314.86l.18-.07,0,.27a.53.53,0,0,1-.19,0S441.81,314.91,441.8,314.86Z" transform="translate(-383.66 -38.93)"/><path class="cls-1" d="M422.59,103.85l-.12-.18.26-.14a.52.52,0,0,1,0,.21C422.73,103.79,422.65,103.81,422.59,103.85Z" transform="translate(-383.66 -38.93)"/><path class="cls-1" d="M453,101.17l.38.54-.19.13-.19-.67Z" transform="translate(-383.66 -38.93)"/><path class="cls-1" d="M419.49,122.44c0,.06,0,.15,0,.17a.27.27,0,0,1-.21,0c-.22-.1-.21-.22,0-.29C419.34,122.35,419.42,122.41,419.49,122.44Z" transform="translate(-383.66 -38.93)"/><path class="cls-1" d="M392.21,187.58l.19.11-.17-.12Z" transform="translate(-383.66 -38.93)"/><path class="cls-1" d="M441.46,318.17l-.23-.21s.11,0,.14,0a.54.54,0,0,1,.07.19Z" transform="translate(-383.66 -38.93)"/><path class="cls-1" d="M429.39,96.65l-.21-.2c.05,0,.11,0,.13,0a.53.53,0,0,1,.08.17Z" transform="translate(-383.66 -38.93)"/><path class="cls-1" d="M412.84,320.17l.2.25-.25-.21Z" transform="translate(-383.66 -38.93)"/><path class="cls-1" d="M433.88,321.16l.27-.21-.21.27Z" transform="translate(-383.66 -38.93)"/><path class="cls-1" d="M433.94,321.22l-.5.5-.05-.05.49-.5Z" transform="translate(-383.66 -38.93)"/><path class="cls-1" d="M468.08,184.05l-.19-.1.18.11Z" transform="translate(-383.66 -38.93)"/><path class="cls-1" d="M414.82,332.24l-.1.22.11-.21Z" transform="translate(-383.66 -38.93)"/><path class="cls-1" d="M442.43,334.28l-.32-.24c.3-.3.3,0,.37.19Z" transform="translate(-383.66 -38.93)"/><path class="cls-1" d="M442.48,334.23l.5.5-.05,0-.5-.5Z" transform="translate(-383.66 -38.93)"/><path class="cls-1" d="M449.53,168.54l-.25.29c-.3-.26,0-.3.15-.4Z" transform="translate(-383.66 -38.93)"/><path class="cls-1" d="M451.57,166.54,451,167h0l.44-.57Z" transform="translate(-383.66 -38.93)"/><path class="cls-1" d="M451.44,166.41l.32-.19-.19.32Z" transform="translate(-383.66 -38.93)"/><polygon class="cls-1" points="67.49 304.11 67.63 304.06 67.61 304.2 67.49 304.11"/><path class="cls-1" d="M456,296.08l.22.21c-.05,0-.12,0-.14,0a.56.56,0,0,1-.07-.18Z" transform="translate(-383.66 -38.93)"/><path class="cls-1" d="M470.58,150.39l-.11.19.12-.17Z" transform="translate(-383.66 -38.93)"/><path class="cls-1" d="M432.33,137.41l-.2-.34.35.19Z" transform="translate(-383.66 -38.93)"/><path class="cls-1" d="M411.82,127.81l.5-.51h0l-.51.5Z" transform="translate(-383.66 -38.93)"/><path class="cls-1" d="M418.82,123.79l-.54-.44.13-.13.45.54Z" transform="translate(-383.66 -38.93)"/><path class="cls-1" d="M418.84,115.73a.51.51,0,0,1-.09.18s-.08,0-.13,0l.23-.2Z" transform="translate(-383.66 -38.93)"/><polygon class="cls-1" points="34.84 275.96 34.97 275.91 34.95 276.04 34.84 275.96"/><path class="cls-1" d="M499.29,391c-.05-3,1.78-5.33,3.15-7.75,2.06-3.64,4-7.36,6.27-10.86,3.15-4.91,4.92-10.49,8-15.38,1.45-2.28,3.4-4.26,4.69-6.62a8.16,8.16,0,0,0,1.41-4.54l0,0,.52,0,.2.12-.22-.1c1-2.51,2.87-4.54,3.74-7.31.64,1.12,2,.8,2.69,1.79s2.12,1.55.17,2.57c-.35.19-.36.44-.13.79,1.47,2.3.18,4.49-.86,6.27-.53.91-1.21,1.67-1.12,2.73.3,3.54-2.9,5.65-3.48,8.74-.37,1.92-1.79,3.39-1.76,5.55a3.34,3.34,0,0,1-2.89,3c-1,.08-1.59.43-.76,1.63.73,1,0,2.06-.7,2.83s-1.29.2-1.89-.62c1.88,3-.51,4.23-1.88,6.14-1.1,1.53-1.1,3.82-2.22,5.53-.91-.18-.11-1.15-.69-1.48-1.36,1.47-.42,3.45-1.26,5.13-1.16,2.32-3.89,3.57-4.18,6.43,0,.32-.43.46-.81.41-1.61-.22-2-.22-2,1.32,0,2.81-2.62,4.44-2.84,7.17-.06.76-2.27,1-1.78,2.65v0c-1.91-.05-3.56-.49-4.67-2.32-.71-1.19-1.11-2.41-.28-3.49,2.07-2.68,2.4-6.07,3.81-9,.38-.77.62-1.34,1.56-1.17l.34.18Zm-1.8,9.71c-2.44,2.21-2.43,2.72.23,4.08C496.92,403.44,497.63,402.11,497.49,400.66Z" transform="translate(-383.66 -38.93)"/><path class="cls-1" d="M492.69,293.06c0,.25,0,.5,0,.75.45,3.43-.18,4.2-3.49,3.47-1.34-.29-1.4.76-2.12,1.16-.17-2.27.32-3.6,2.89-2.54.54.23,1.19.33,1.53-.34a2.08,2.08,0,0,0-.44-2.33c-2-1.76-.42-2.55.79-3.41A268.12,268.12,0,0,0,514,271.76c1.5-1.33,3.12-3.08,5.91-2.55,2.11.41,3.13,1,2.8,3.14-2.13,1.15-4,2.51-4.24,5.15,1.26-1.84,3.6-2.73,4.45-4.93a3,3,0,0,0,.9-.39c1.67-1.69,3.42-2.42,5.42-.43-.45,1.81-1.78,2.79-3.69,3.35-1.11.32-2.38,1.24-2.19,2.43a2.92,2.92,0,0,1-2.75,3.65c-2.9.17-2.37,2.45-3,3.94-.38.93-.22,1.9-1.72,1.78-1-.08-1,1.16-.93,1.65.19.87,1,1,1.79.49,1-.64,1.91-1.34,2.86-2a1.86,1.86,0,0,1,2.31-.21,1.74,1.74,0,0,1,.53,2.41c-1,0-.26-1.07-1-1.28-.31,2.34-3.79,1-4.21,3.48-1.26-1.49-2.86-.63-4.35-.69a2.27,2.27,0,0,0-1.79.4c-.75.59-1.56.82-1.4-.76.13-1.29-.37-1.46-1.42-.63-1.3,1-3.39,1.16-3.59,3.67-.87-4.39-3.69-.24-5.19-1.64-.16-1.12,1.82-.56,1.47-1.89-2.44.24-3.68,1.26-3.86,4-.12,2,.79,4.08-.22,6.08-.15.31-.08,1.66,1,.81s2.52-.71,3.83-.73h0c-1.82,1.28-4,2.12-5.34,4-.22.29-.59.47-.85.26a1,1,0,0,1-.21-.87,5.59,5.59,0,0,0,.33-2.7c0-.46.48-1.3-.59-1.3-.8,0-1.25.23-.36.94a2.9,2.9,0,0,1-.62.18.75.75,0,0,1-.85-.72c0-.38-.19-.91.4-1a5.46,5.46,0,0,0,2.41-1.09c-.57-1.37-2.1,1-2-.5a4.64,4.64,0,0,1,1.29-3.25,9.1,9.1,0,0,1,1.22-.79l-.18-.8-3.69.62c0-.39,0-.83-.6-.81a.25.25,0,0,0-.17.16C491.87,293,492.3,293,492.69,293.06Zm26.1-14.3c.07.56-.25,1,.5,1.48C519.27,279.69,519.54,279.26,518.79,278.76Zm-5.16,10.86c-.07-.14-.1-.34-.21-.39a.44.44,0,0,0-.4.14.31.31,0,0,0,.25.49C513.38,289.87,513.5,289.71,513.63,289.62Z" transform="translate(-383.66 -38.93)"/><path class="cls-1" d="M468.08,336.77c-.09-.91.8-.93,1.26-1.35-1.76-1.27-2.17-5.36-.84-8.34.35-.78-.34-3.68-.56-4.61-.37-1.59.14-3.23.43-4.82.1-.58.41-1.23-.09-1.64-.73-.58-.92.71-1.74.63.68-2,1.28-3.87-.79-5.51a1.35,1.35,0,0,1,.44-2.39c1.3-.5,1.3-1.8,1.77-2.83.26-.58.58-1.44,1.41-1s.54,1-.27,1.33a.72.72,0,0,0-.22.58c2.42,2.25,1.53,5.38,1.95,8.08a68.63,68.63,0,0,1,.59,11.38,83.27,83.27,0,0,1-.89,9.56c-.2,1.51-1.58.75-2.46.92Z" transform="translate(-383.66 -38.93)"/><path class="cls-1" d="M513.83,299.15c1.14-.95,2.18-.4,3.12-.58a2.06,2.06,0,0,0,1.84-1.77,1.32,1.32,0,0,0-1.12-1.67c-.93-.16-1.94-.22-2.28.94-.5,1.76-2.32,1.69-3.43,2.61-.39.34-.63.43-.91-.41-.6-1.85-1.53-1-2.29.16-1.69-2,.12-3.34.92-4.67.7-1.16,1.93-.44,3-.28a46.91,46.91,0,0,1,4.69.58,2.48,2.48,0,0,0,2.34-.57c1.16-1,2.32-2.39,3.95-2.25s0-2.68,1.8-1.77c1.37.7-.61,1.54-.11,2.57.81,1.7.43,1.8-1.5,2.16-.54.11-1.85-.06-2.24,1.46C520.88,298.48,517.29,300,513.83,299.15Z" transform="translate(-383.66 -38.93)"/><path class="cls-1" d="M461,316.16l-1-.09c.69-2.45-3.22-2.82-2.41-5.33.24-.75-1.11-.46-.78-1.41,2-.48,4.14,0,6.42-.05-3,1.67-1.47,4.64-2.25,6.9Z" transform="translate(-383.66 -38.93)"/><path class="cls-1" d="M523.8,269.93c.69-.45-.74-1.38.43-1.75,2.17-.68,2.73-2.44,2.95-4.45.08-.77.46-1.65,1.38-1.26.59.25-.87.85-.2,1.46-.16.18-.64.26-.18.62l.16-.63a11.37,11.37,0,0,0,2.71-.3,1.27,1.27,0,0,1,1.57,1.22c.06.83-.83.68-1.34.61-1.36-.17-2.08.49-2.82,1.56a6.9,6.9,0,0,1-4.6,3Z" transform="translate(-383.66 -38.93)"/><path class="cls-1" d="M480.85,295.27c-1.31-.85-2.53-1.65-3,.6,0,.21-.48.38-.76.47-.09,0-.43-.42-.4-.47,1.21-1.75.87-4.06,2-5.76.78-1.13,1.85.73,2.8,0-.06.87,2.26,1.68,0,2.66C480.7,293.11,481.31,294.3,480.85,295.27Z" transform="translate(-383.66 -38.93)"/><path class="cls-1" d="M443.46,104.18a4.91,4.91,0,0,0,0,3l0,0c-.47.1-1.2,0-1.36.31-1.17,2-2.42.78-3.66.19-.26-1.28.64-1.18,1.45-1.27,1.9-.19,2.55-1.14,1.8-3-1.26.16-.19,1.6-1.17,1.88a1.71,1.71,0,0,1-.41-2.23,2.74,2.74,0,0,1,1.54-1.49c.94-.24.68.89,1,1.39S442.93,104,443.46,104.18Z" transform="translate(-383.66 -38.93)"/><path class="cls-1" d="M463.91,375.1c3.41-.58,6.66.72,10,1a1.19,1.19,0,0,1,1.16,1.37,1.59,1.59,0,0,1-.5,1.07c-1.1.62-.79-.82-1.24-.95C471.12,377,469,376,466.64,376h-2.8Z" transform="translate(-383.66 -38.93)"/><path class="cls-1" d="M461.53,344.81a9.38,9.38,0,0,1,5.18,2.51c-2.51-.93-4.52-.69-5.66,1.94-.25.59-1,.38-1.29.16s-.15-.76.29-1c1.59-.78,1.42-2.27,1.5-3.66Z" transform="translate(-383.66 -38.93)"/><path class="cls-1" d="M465.57,87.6c-.82-.18-1.69-.48-1.56,1,.05.53-.17,1-.86.9s-.38-.6-.27-1c.52-1.94-.49-3.94.18-5.88l0,0a7.89,7.89,0,0,1,.87,0c.18,1.79,1.19,3.32,1.64,5Z" transform="translate(-383.66 -38.93)"/><path class="cls-1" d="M506,296.62c-2.18.58-4.59.5-6,2.91C499.65,295.64,501.35,294.84,506,296.62Z" transform="translate(-383.66 -38.93)"/><path class="cls-1" d="M488.93,292.33c-1.38,3.14-4.4,3.7-6.81,5.24l-.44-.7Z" transform="translate(-383.66 -38.93)"/><path class="cls-1" d="M508.48,316c-1.24,1.42.53,5-3.52,4.41C507.29,319.68,506,316.54,508.48,316Z" transform="translate(-383.66 -38.93)"/><path class="cls-1" d="M471.49,371.22c2.8-.34,3.38.2,3.24,2.83,0,.43,0,1.11-.66,1.18a.88.88,0,0,1-.91-1C473.16,373,473.07,371.77,471.49,371.22Z" transform="translate(-383.66 -38.93)"/><path class="cls-1" d="M515.69,302.12c-3,0-2.38,2.78-3.5,4.7a5.65,5.65,0,0,1,.58-4.7C513.32,301.19,514.58,301.47,515.69,302.12Z" transform="translate(-383.66 -38.93)"/><path class="cls-1" d="M449.63,69.59a1.52,1.52,0,0,0,1.48-.7c.73-1.17,1.45-.72,2.29.16-.83.67-2.12.52-2.64,1.62a.92.92,0,0,1-1.33.16c-.16-.14.07-.76.12-1.16Z" transform="translate(-383.66 -38.93)"/><path class="cls-1" d="M465.88,305.5c-.73-.09-.84-.47-.83-.91a1.4,1.4,0,0,1,1.61-1.48c.6,0,1.36.27,1.18.94C467.58,305,466.23,304.71,465.88,305.5Z" transform="translate(-383.66 -38.93)"/><path class="cls-1" d="M438.86,94.92a5.71,5.71,0,0,1,1.44,4.84C438.68,98.22,439.61,96.29,438.86,94.92Z" transform="translate(-383.66 -38.93)"/><path class="cls-1" d="M437.93,98.16c-.11.67.34,1.6-.67,1.9a1.61,1.61,0,0,1-2-1.08,4.21,4.21,0,0,1,2.7-.82Z" transform="translate(-383.66 -38.93)"/><path class="cls-1" d="M477.48,300.24c-.13-.48-.19-.6-.16-.62a6,6,0,0,1,3.29-1.88c.09,0,.38.43.34.5C480.08,299.48,478.58,299.32,477.48,300.24Z" transform="translate(-383.66 -38.93)"/><path class="cls-1" d="M497.19,309c-1.35,1.48-2.57,1.29-3.67,1.44-.2,0-.38-.62-.11-.85C494.43,308.65,495.61,309.33,497.19,309Z" transform="translate(-383.66 -38.93)"/><path class="cls-1" d="M471.08,367.92c1-.19,2-.8,3,.68-1.27.41-2.26.63-3-.7Z" transform="translate(-383.66 -38.93)"/><path class="cls-1" d="M463.06,82.58c-.75-1.1-1.37-2.21,0-4v4Z" transform="translate(-383.66 -38.93)"/><path class="cls-1" d="M490.85,303.07c1.66-.62,2.35-.51,2.31,1.14Z" transform="translate(-383.66 -38.93)"/><path class="cls-1" d="M447.76,73.89l-.49.72a3.4,3.4,0,0,1-.61-1c-.1-.38.26-.55.62-.54S447.83,73.39,447.76,73.89Z" transform="translate(-383.66 -38.93)"/><path class="cls-1" d="M490.66,303.2c-.09.31-.09.7-.54.63s-.41-.41-.41-.73,0-.7.41-.73C490.72,302.33,490.58,302.86,490.66,303.2Z" transform="translate(-383.66 -38.93)"/><path class="cls-1" d="M435,85.65c.37.1.83.09.85.64s-.46.73-.94.81h0l0-1.43Z" transform="translate(-383.66 -38.93)"/><path class="cls-1" d="M434.29,89c-.2.23-.32.47-.49.51s-.53,0-.6-.15c-.19-.34,0-.61.38-.62A2.51,2.51,0,0,1,434.29,89Z" transform="translate(-383.66 -38.93)"/><path class="cls-1" d="M535.9,257.92c-.08.44.14,1-.46,1.23-.1,0-.42-.23-.45-.39-.11-.66.36-.81.88-.88Z" transform="translate(-383.66 -38.93)"/><path class="cls-1" d="M539.39,295.06c.07-.54.26-1,.9-.88.15,0,.41.36.38.45-.23.59-.8.4-1.25.46Z" transform="translate(-383.66 -38.93)"/><path class="cls-1" d="M430.54,109.05c-.12-.87-.3-1.53.3-1.62s.42.47.26.82A7.43,7.43,0,0,1,430.54,109.05Z" transform="translate(-383.66 -38.93)"/><path class="cls-1" d="M475.11,390.51c.5.06,1.05.1.76.84-.06.16-.36.22-.56.33l-.21-1.16Z" transform="translate(-383.66 -38.93)"/><path class="cls-1" d="M473,387c-.45,0-1.29,0-1.31-.14-.09-.64.48-.3.77-.35a1.65,1.65,0,0,1,.66.15Z" transform="translate(-383.66 -38.93)"/><path class="cls-1" d="M494.37,103.82c.07-.14.1-.36.2-.4s.28.1.42.16c-.06.14-.1.36-.2.4S494.52,103.88,494.37,103.82Z" transform="translate(-383.66 -38.93)"/><path class="cls-1" d="M511.58,359.5l-.43.17c0-.14-.18-.32-.14-.42s.26-.12.41-.18C511.47,359.22,511.53,359.36,511.58,359.5Z" transform="translate(-383.66 -38.93)"/><path class="cls-1" d="M513,359c.06-.14.09-.35.19-.39s.26.1.39.16c-.06.14-.09.35-.18.38S513.11,359.06,513,359Z" transform="translate(-383.66 -38.93)"/><path class="cls-1" d="M463.39,92.68l-.31.25-.34-.44c.13,0,.26-.17.38-.15S463.28,92.53,463.39,92.68Z" transform="translate(-383.66 -38.93)"/><path class="cls-1" d="M448.15,97.63l.31-.27.29.47c-.13,0-.28.17-.38.14S448.22,97.75,448.15,97.63Z" transform="translate(-383.66 -38.93)"/><path class="cls-1" d="M501.72,300.09c0-.39.06-.81.63-.77a.25.25,0,0,1,.16.16c0,.58-.4.56-.78.62Z" transform="translate(-383.66 -38.93)"/><path class="cls-1" d="M492,301.25c-.08-.14-.22-.27-.22-.4s.13-.26.2-.39c.07.12.21.25.21.38S492,301.11,492,301.25Z" transform="translate(-383.66 -38.93)"/><path class="cls-1" d="M466.06,87.6l-.12,1.11h-.28l-.09-1.1,0,0h.52Z" transform="translate(-383.66 -38.93)"/><path class="cls-1" d="M498.74,109.59c-.13-.07-.31-.11-.35-.21s.07-.25.12-.37c.12.07.29.12.35.23S498.78,109.47,498.74,109.59Z" transform="translate(-383.66 -38.93)"/><path class="cls-1" d="M492.49,298.93l.08.19-.29.05c0-.07,0-.15.05-.2S492.44,298.94,492.49,298.93Z" transform="translate(-383.66 -38.93)"/><path class="cls-1" d="M552.63,240.67c.06,0,.14,0,.17,0a.25.25,0,0,1,.05.2c-.11.21-.22.21-.29,0C552.54,240.81,552.6,240.73,552.63,240.67Z" transform="translate(-383.66 -38.93)"/><path class="cls-1" d="M437.94,98.16l.12-.63.27.15-.4.48Z" transform="translate(-383.66 -38.93)"/><path class="cls-1" d="M477.12,97.16l.18-.67c.46.38,0,.49-.19.66Z" transform="translate(-383.66 -38.93)"/><path class="cls-1" d="M531.86,122.76l.17-.64.18.11c-.11.19-.22.37-.34.55Z" transform="translate(-383.66 -38.93)"/><path class="cls-1" d="M491.19,84.1l-.22.67-.18-.14c.12-.19.25-.37.38-.55Z" transform="translate(-383.66 -38.93)"/><path class="cls-1" d="M491,405.7s-.13.05-.15,0a.67.67,0,0,1-.08-.17l.27-.05Z" transform="translate(-383.66 -38.93)"/><path class="cls-1" d="M422.86,114.73l.19-.68.2.14-.39.55Z" transform="translate(-383.66 -38.93)"/><path class="cls-1" d="M498.71,407.1l.37.53c-.6.14-.25-.36-.36-.55Z" transform="translate(-383.66 -38.93)"/><path class="cls-1" d="M421.85,113.36l.18.08-.25.18-.1-.15Z" transform="translate(-383.66 -38.93)"/><path class="cls-1" d="M461,316.18l.22.1-.21-.12Z" transform="translate(-383.66 -38.93)"/><path class="cls-1" d="M491.17,84.08l.23-.21-.21.23Z" transform="translate(-383.66 -38.93)"/><path class="cls-1" d="M447.49,316.69l-.24.2.2-.24Z" transform="translate(-383.66 -38.93)"/><path class="cls-1" d="M434.91,87.1l-.1.2.12-.19Z" transform="translate(-383.66 -38.93)"/><path class="cls-1" d="M487.16,91.63l.22-.22s0,.11,0,.14a1,1,0,0,1-.18.08Z" transform="translate(-383.66 -38.93)"/><path class="cls-1" d="M468.07,336.76l-.2.21s0-.1,0-.12a.45.45,0,0,1,.17-.08Z" transform="translate(-383.66 -38.93)"/><path class="cls-1" d="M523.86,270l-.26.21.2-.27Z" transform="translate(-383.66 -38.93)"/><path class="cls-1" d="M552.47,231.77l.2.22-.21-.2Z" transform="translate(-383.66 -38.93)"/><path class="cls-1" d="M522.84,345.8l-.23-.1.21.12Z" transform="translate(-383.66 -38.93)"/><path class="cls-1" d="M480.62,369.91l-.1.21.12-.19Z" transform="translate(-383.66 -38.93)"/><path class="cls-1" d="M515.24,132.76l.29-.18c-.06.1-.12.2-.17.3Z" transform="translate(-383.66 -38.93)"/><path class="cls-1" d="M485.16,401.58l-.23.2.21-.22Z" transform="translate(-383.66 -38.93)"/><path class="cls-1" d="M492.86,274.29c-2.88.47-1.51,2-.91,3.37a8.53,8.53,0,0,0-1.78.92c-.57.49-.86,1.26.35,1.19,1.44-.09.88,1,.94,1.53.09.9-.75.7-1.28.71-.74,0-2-.15-1.75-.86.64-1.65-.4-3.91,1.76-5-3-.26-3.41.18-2.76,3.11-1.59-1-2.87-2.23-4.71-2.1-.24,0-.62-.55-.36-.77a10.2,10.2,0,0,1,2.05-1.31c.67-.33,1.56-1.16,1.77.47,0,.35.06.56.49.11C488.42,273.84,490.75,274.5,492.86,274.29Z" transform="translate(-383.66 -38.93)"/><path class="cls-1" d="M502,266.22c-.39-1.09-.31-1.74,1-1.85s2.43-.53,1.88-2.36c-.3-1,.38-1.59,1.37-1.6a4.86,4.86,0,0,0,2.13-.57,1.71,1.71,0,0,1,.94-.22c.34.08.52.69.31.77-2.2.84,2.93,2.61-.61,3.71C506.73,264.81,504.12,264.58,502,266.22Zm4.15-4.6c-.06.13-.2.29-.16.39s.25.13.38.19c.06-.13.2-.29.16-.4S506.26,261.67,506.13,261.62Z" transform="translate(-383.66 -38.93)"/><path class="cls-1" d="M478.41,285.11c1.45-.13,2.11-2.78,4-1.4.07.05.34-.18.52-.28-1.53-1.78,2.94-1.74,1.09-3.61a1.65,1.65,0,0,1,.32-.28c1.4-.72,1.35,1.56,2.56,1.24-.23.68.76,1.29-.14,2.11A9.31,9.31,0,0,1,478.41,285.11Z" transform="translate(-383.66 -38.93)"/><path class="cls-1" d="M486.87,123.32c3.54-2.54,4.93-7.39,9.84-9-.58,1.41-.59,2.75-2.19,3-.9.11-1.17.82-1.59,1.44C491.46,120.9,489.77,122.86,486.87,123.32Z" transform="translate(-383.66 -38.93)"/><path class="cls-1" d="M548.21,198.85c.55,1.66-.08,2.85-.83,4.13-1.31,2.19-2-1.2-3.22-.16C546,201.91,546.07,199.52,548.21,198.85Z" transform="translate(-383.66 -38.93)"/><path class="cls-1" d="M518.61,241.62c.53,2.8-1.66,3-2.94,3.88-.94.61-.71-.69-.92-1.18-.34-.78-.45-1.47.76-1.46S517.85,243.09,518.61,241.62Z" transform="translate(-383.66 -38.93)"/><path class="cls-1" d="M485.87,124.14c-1.22,2.07-1.25,2.09-6.33,4.93C479.87,128.05,484.54,124.41,485.87,124.14Z" transform="translate(-383.66 -38.93)"/><path class="cls-1" d="M488,265.57c-.4-2.19.85-4.7,2.21-5.07a1,1,0,0,1,1.09.41c.32.39.17.73-.19,1a19.14,19.14,0,0,0-1.56,1.56C489.11,264.06,488.71,264.66,488,265.57Z" transform="translate(-383.66 -38.93)"/><path class="cls-1" d="M482.55,187.67c-.64.07-1.82-.84-1.52.91.2,1.15-1,1.39-1.65,2.08-.74-2.08.33-3.59,1.62-4.73.43-.39,1.69.39,1.74,1.55Z" transform="translate(-383.66 -38.93)"/><path class="cls-1" d="M483.67,262.94c.77,3.41-2.64,1.93-3.84,3,.63-1.74,1.57-3.12,3.77-3.1Z" transform="translate(-383.66 -38.93)"/><path class="cls-1" d="M493.49,249.94c-1.48,2.22-4,.66-5.59,2.5C488.3,251,488.3,251,493.49,249.94Z" transform="translate(-383.66 -38.93)"/><path class="cls-1" d="M495.22,108l-1.68,1c0-1.31-2-2.55-.82-3.28S493.46,108.11,495.22,108Z" transform="translate(-383.66 -38.93)"/><path class="cls-1" d="M551.08,213.49c-.76-1.05-1.48-1.89-.8-3a.5.5,0,0,1,.84,0C551.64,211.36,552.21,212.31,551.08,213.49Z" transform="translate(-383.66 -38.93)"/><path class="cls-1" d="M490.48,97.11c-.81.07-1.3-.2-1.41-.85-.14-.81.6-.9,1.09-.93s1.22.2,1.3.83S490.92,97.05,490.48,97.11Z" transform="translate(-383.66 -38.93)"/><path class="cls-1" d="M474.11,282c.32-1.57,2-.67,2.75-1.46,0,0,.52.18.56.34a.76.76,0,0,1-.59,1c-.91.13-1.83.11-2.74.15Z" transform="translate(-383.66 -38.93)"/><path class="cls-1" d="M488.32,94.44c.36-.9.76-1.56,1.65-1.7a.44.44,0,0,1,.45.66A1.66,1.66,0,0,1,488.32,94.44Z" transform="translate(-383.66 -38.93)"/><path class="cls-1" d="M493.68,92.64c1.49.36,1,1.45,1.1,2.58-1.59-.62-.86-1.77-1.08-2.6Z" transform="translate(-383.66 -38.93)"/><path class="cls-1" d="M482.42,96.18a2.4,2.4,0,0,1-1.24,3.06A6,6,0,0,1,482.42,96.18Z" transform="translate(-383.66 -38.93)"/><path class="cls-1" d="M551.38,218.4c-.59-.61-.4-1.19-.2-1.92C552.05,217.1,552.06,217.66,551.38,218.4Z" transform="translate(-383.66 -38.93)"/><path class="cls-1" d="M496.49,272.22a1.83,1.83,0,0,1-.57.21c-.23,0-.55-.11-.35-.44a.89.89,0,0,1,.58-.34C496.42,271.63,496.61,271.81,496.49,272.22Z" transform="translate(-383.66 -38.93)"/><path class="cls-1" d="M483.6,262.88l.14-2.43c.54,1.13.62,1.85-.07,2.49Z" transform="translate(-383.66 -38.93)"/><path class="cls-1" d="M484.51,97.35c-.56-.64-.26-1.16-.37-2.13A2.35,2.35,0,0,1,484.51,97.35Z" transform="translate(-383.66 -38.93)"/><path class="cls-1" d="M477.82,129.44,478,129c.13.06.35.09.38.19s-.09.27-.15.4Z" transform="translate(-383.66 -38.93)"/><path class="cls-1" d="M495,275l-.35.24-.25-.49c.14,0,.3-.16.4-.12S495,274.89,495,275Z" transform="translate(-383.66 -38.93)"/><path class="cls-1" d="M482.79,280.17c-.18.14-.29.29-.41.29-.29,0-.64.16-.77-.26A.79.79,0,0,1,482,280,4.28,4.28,0,0,1,482.79,280.17Z" transform="translate(-383.66 -38.93)"/><path class="cls-1" d="M496,273.56c-.12.08-.24.23-.35.22-.28,0-.37-.24-.24-.47a.39.39,0,0,1,.39-.13C495.93,273.22,496,273.42,496,273.56Z" transform="translate(-383.66 -38.93)"/><path class="cls-1" d="M493.7,92.62c-.32,0-.69,0-.75-.46,0-.08.2-.29.28-.28.43.07.41.45.45.76Z" transform="translate(-383.66 -38.93)"/><path class="cls-1" d="M550.93,258.66l-.25.39c-.06-.13-.19-.27-.18-.41s.14-.25.23-.38Z" transform="translate(-383.66 -38.93)"/><path class="cls-1" d="M483.45,98l.07.17-.26,0c0-.06,0-.14,0-.18S483.4,98,483.45,98Z" transform="translate(-383.66 -38.93)"/><path class="cls-1" d="M482.74,187.48c.15.13.41.23.11.45,0,0-.2-.17-.3-.26Z" transform="translate(-383.66 -38.93)"/><path class="cls-1" d="M482.65,99.67l.11-.21-.13.2Z" transform="translate(-383.66 -38.93)"/><path class="cls-1" d="M482.63,99.66l-.19.21s0-.1,0-.12a.89.89,0,0,1,.17-.08Z" transform="translate(-383.66 -38.93)"/><path class="cls-1" d="M532.88,256.4l.1-.2-.12.19Z" transform="translate(-383.66 -38.93)"/><path class="cls-1" d="M511.27,264.42l-.2.21s0-.1,0-.12a.51.51,0,0,1,.17-.07Z" transform="translate(-383.66 -38.93)"/><path class="cls-1" d="M406.13,331.44c.88,0,1,.68,1.41,1.08s1.31.59,1,1.49c-.06.19-.34.46-.51.46-.86,0-1.29-.65-1.59-1.35C406.26,332.63,405.73,332.19,406.13,331.44Z" transform="translate(-383.66 -38.93)"/><path class="cls-1" d="M398.51,309.11c.31.09.6.17.43.47a.66.66,0,0,1-.52.31c-.16,0-.26-.32-.39-.49Z" transform="translate(-383.66 -38.93)"/><path class="cls-1" d="M400.6,314.79l-.36.2-.21-.52c.14,0,.31-.12.39-.07S400.54,314.65,400.6,314.79Z" transform="translate(-383.66 -38.93)"/><path class="cls-1" d="M389.06,187.1c-.11.09-.21.24-.33.25a.32.32,0,0,1-.35-.45.45.45,0,0,1,.39-.17C388.87,186.75,388.94,186.94,389.06,187.1Z" transform="translate(-383.66 -38.93)"/><path class="cls-1" d="M389.48,180.31a2.84,2.84,0,0,1-.38.13s-.08-.11-.12-.17a2.35,2.35,0,0,1,.37-.14S389.44,180.25,389.48,180.31Z" transform="translate(-383.66 -38.93)"/><path class="cls-1" d="M419.13,330.58c.31.52.39,1.2-.06,1.34-.85.28-.63-.36-.41-.8A2.56,2.56,0,0,1,419.13,330.58Z" transform="translate(-383.66 -38.93)"/><path class="cls-1" d="M429.24,330.31c-.12.08-.25.23-.35.22a.3.3,0,0,1-.25-.48.42.42,0,0,1,.4-.14C429.14,330,429.17,330.16,429.24,330.31Z" transform="translate(-383.66 -38.93)"/><path class="cls-1" d="M445,328.23c0-.79,0-1.57,1.14-1.44.18,0,.49.26.48.37-.08,1-.84,1.07-1.61,1.07Z" transform="translate(-383.66 -38.93)"/><path class="cls-1" d="M444.44,328.71l.52-.48h0l-.49.51Z" transform="translate(-383.66 -38.93)"/><path class="cls-1" d="M460.05,388l-.52.52Z" transform="translate(-383.66 -38.93)"/><path class="cls-1" d="M443.47,107.19l.22.23-.24-.21Z" transform="translate(-383.66 -38.93)"/><path class="cls-1" d="M439.94,320.68l-.2.23s0-.11,0-.13a.58.58,0,0,1,.18-.08Z" transform="translate(-383.66 -38.93)"/><path class="cls-1" d="M432.4,353.85l.22.11-.21-.12Z" transform="translate(-383.66 -38.93)"/><path class="cls-1" d="M497.49,400.66c.14,1.45-.57,2.78.23,4.08C495.06,403.38,495.05,402.87,497.49,400.66Z" transform="translate(-383.66 -38.93)"/><path class="cls-1" d="M523.32,345.82l.22.1-.2-.12Z" transform="translate(-383.66 -38.93)"/><path class="cls-1" d="M499.29,391l.19.33-.34-.18Z" transform="translate(-383.66 -38.93)"/><path class="cls-1" d="M522.94,272.57c-.85,2.2-3.19,3.09-4.45,4.93.25-2.64,2.11-4,4.24-5.15A1.45,1.45,0,0,0,522.94,272.57Z" transform="translate(-383.66 -38.93)"/><path class="cls-1" d="M492.69,293.06c-.39-.06-.82-.06-.78-.64a.25.25,0,0,1,.17-.16c.58,0,.56.42.6.81Z" transform="translate(-383.66 -38.93)"/><path class="cls-1" d="M518.79,278.76c.75.5.48.93.5,1.48C518.54,279.76,518.86,279.32,518.79,278.76Z" transform="translate(-383.66 -38.93)"/><path class="cls-1" d="M513.63,289.62c-.13.09-.25.25-.36.24a.31.31,0,0,1-.25-.49.44.44,0,0,1,.4-.14C513.53,289.28,513.56,289.48,513.63,289.62Z" transform="translate(-383.66 -38.93)"/><path class="cls-1" d="M528.34,263.92l-.16.63c-.46-.36,0-.44.18-.62Z" transform="translate(-383.66 -38.93)"/><path class="cls-1" d="M506.13,261.61c.13.06.35.1.38.19s-.1.27-.16.4c-.13-.06-.34-.09-.38-.19S506.07,261.75,506.13,261.61Z" transform="translate(-383.66 -38.93)"/></svg>