<svg id="Layer_1" data-name="Layer 1" xmlns="http://www.w3.org/2000/svg" viewBox="0 0 227.6 430"><defs><style>.cls-1{fill:#90c33e;}.cls-2{fill:#ebeae7;}</style></defs><title>sumac</title><path class="cls-1" d="M643.05,196.6a4.46,4.46,0,0,0-1.33.7c-2.78,1.87-5.46,3.89-8.21,5.8-3.24,2.24-6.22,4.82-9.48,7-.25.16-.62.32-.56.66.27,1.56-1,1.88-2,2.4a12.28,12.28,0,0,0-2.27,1.19c-.31.25-.53.52-.09.83s.32.64.05,1a6.22,6.22,0,0,1-2,1.83,11.19,11.19,0,0,0-2.36,1.61c0,.11,0,.23.07.29,1.46,1.69,1.52,1.21,0,3a18.89,18.89,0,0,1-4.43,3.56,1.47,1.47,0,0,0,.46.84c.75,1,.77,1-.12,1.76-.65.56-1.36,1-2,1.55s-1.47.46-1.51,1.6c0,.49-1,.75-1.6,1a8.55,8.55,0,0,0-2.5,1,2.53,2.53,0,0,0,.6,1.24c.57.91.56,1-.37,1.59-.38.23-.8.43-1.2.63a8.58,8.58,0,0,0-2.66,1.6,6.56,6.56,0,0,1-3.15,1.39c-.71.18-1,.53-.64,1.16s0,.94-.44,1.19c-.89.47-1.78.94-2.7,1.36-1.19.54-2.4,1.06-3.62,1.54-.65.25-.87.61-.58,1.27.12.27.17.58.28.86a.83.83,0,0,1-.43,1.14c-.52.3-1,.6-1.56.92-.72.46-1.73.5-2.08,1.51-.09.28-.5.31-.79.4-.82.24-1.64.49-2.47.71s-1.59.25-1.1,1.42c.2.48-.28.6-.58.72a12,12,0,0,1-3.25.69c-1.16.11-2.31.26-3.47.35-.64.05-1,.29-.71.93.4.83-.11,1.11-.68,1.38a18.61,18.61,0,0,1-3,1c-.34.09-.86.09-1,.31-.84,1.39-2.18,1-3.38,1-.35,0-.7,0-1.06,0s-.62,0-.7.42c-.17.87-.95,1-1.59,1.19a6.14,6.14,0,0,1-1.94.3c-2,0-3.69,1.06-5.61,1.2a.6.6,0,0,0-.49.31,1.6,1.6,0,0,1-1.5.77l-4.07.35a24.65,24.65,0,0,1-11.6-2.28c-.24-.1-.45-.26-.68-.34-.39-.11-.7,0-.77.45a22.7,22.7,0,0,0-.36,2.7c-.09,6.36-.14,12.73.06,19.09.06,1.87,0,3.74.06,5.6a28.15,28.15,0,0,0,.49,5.1c.11.51.11,1.1.77,1.1s.82-.51,1-1c.36-1.15.77-2.29,1.11-3.43a16.17,16.17,0,0,1,3.13-5.62,63.8,63.8,0,0,1,5.51-6,8.74,8.74,0,0,1,1-.74c1.29-.9,1.29-.89,2.57.06.94-1,1.7-2.11,2.59-3.13.59-.68,1.07-1.68,2.3-1.38.35.09.51-.28.68-.51.39-.53.77-1.06,1.11-1.62a1.44,1.44,0,0,1,1.59-.87,1.35,1.35,0,0,0,1.22-.46,7.31,7.31,0,0,1,1.69-1c1.67-.74,1.67-.74,2.83.6a.88.88,0,0,0,.65-.34c1.51-1.54,3.53-2.44,5.08-4,.84-.82,1-.76,2.14-.05.43.27.65.09.89-.21a7.78,7.78,0,0,1,2.83-2.22c.19-.08.42-.29.54-.24,1.31.53,2.14-.44,3.11-1s1.05-.59,1.73.4.6.86,1.49.21c.44-.33.9-.65,1.36-1,.17-.11.44-.3.53-.25,1.1.7,1.77-.31,2.59-.64a6.77,6.77,0,0,1,1.86-.61c.68-.07,1.39-.35,1.73.63.15.44.53.33.87.1.72-.46,1.44-.93,2.19-1.35.51-.29,1-.69,1.69-.4.37.17.65-.17,1-.31s.81-.42,1.23-.59c1.36-.55,1.5-.48,2.17.83a3.61,3.61,0,0,0,.28.37c.95-.51,1.85-1.05,2.81-1.5.55-.26,1.2-.67,1.67.24.22.44.61.12.92,0l2.67-1.09c.67-.27,1.25-.33,1.58.53.25.62.66.72,1.32.39,1.08-.55,2.14-1.14,3.22-1.69.87-.45,1.84-1.25,2.78,0,.18.24.46,0,.69-.07,4-2,8.43-2.69,12.61-4.17a40.21,40.21,0,0,1,5.78-1.78,10.19,10.19,0,0,1,3.61-.09.62.62,0,0,1,.62.45,16.16,16.16,0,0,1-3.38,1.54,61.57,61.57,0,0,0-10.53,5.93q-2.57,1.88-5.11,3.77c-.11.08-.29.24-.27.32.55,2.06-1.23,2.35-2.37,3.08-.62.41-1.39.6-2,1.06a.4.4,0,0,0,.17.54c.67.46.42.9,0,1.36a10.35,10.35,0,0,1-2.62,2,24.44,24.44,0,0,0-3.42,2.18,8.22,8.22,0,0,0,1.65,1.48c.46.31.41.62.12,1a7.64,7.64,0,0,1-1.81,1.59c-.57.42-1.15.83-1.73,1.22-.27.18-.55.38-.35.72.44.76-.16,1-.61,1.27a12.65,12.65,0,0,1-2.36,1l-1.64.63c.58.6,1,1.13,1.54,1.6s.45.82,0,1.23a22.72,22.72,0,0,1-5.18,3.37,10.53,10.53,0,0,0-2.19,1.16,7.37,7.37,0,0,0,1.34,2c-2.55,2.16-5.66,2.89-8.72,3.86a4.57,4.57,0,0,0,1,1.85c.48.64.26,1-.28,1.32-2.07,1.26-4.08,2.63-6.54,3.06a9.64,9.64,0,0,0-1,.25c-.2.05-.42.24-.33.42.5,1.07-.38,1.11-1,1.39a20.27,20.27,0,0,1-4.65,1.33c-.67.14-1.59.06-1.52,1.24,0,.36-.51.41-.85.5-1.81.48-3.67.66-5.51,1-.3.05-.67,0-.88.19-1.58,1.23-3.36.81-5.08.59a3.23,3.23,0,0,0-2.75.5,7,7,0,0,1-4.6,1.46,72.56,72.56,0,0,0-8.47.14,18.93,18.93,0,0,1-7.19-1.3,12.5,12.5,0,0,0-4.54-1.1c-1.51.08-2,.59-2,2,0,7.32,0,14.65.27,22,.1,2.63.08,5.26.13,7.88a4.12,4.12,0,0,0,.06,1.06c.14.5.1,1.16.82,1.31a1.27,1.27,0,0,0,1.28-.66,14.2,14.2,0,0,0,2.42-4,12.31,12.31,0,0,1,.83-1.94,4.33,4.33,0,0,1,2.21-2.38c.33-.13.57-.55.83-.85a9.37,9.37,0,0,1,2.27-2c.26-.15.66-.42.81-.33,1.12.67,1.45-.36,2-.87s.78-.93,1.23-1.33.68-.92,1.4-.59c.31.13.51-.26.75-.42.84-.56,1.68-1.12,2.51-1.69a1.21,1.21,0,0,1,1.66,0c.49.48.82.26,1.26-.1,1-.83,2.08-1.6,3.13-2.38a3.42,3.42,0,0,1,2.61-.89c.44.07.65-.18.93-.37a13.5,13.5,0,0,1,3-1.52c.68-.24,1.35-.5,1.9.26.35.48.71.2,1-.05.89-.66,1.77-1.35,2.67-2,.63-.46,1.28-.9,1.95,0,.31.39.65.09,1-.06a17.94,17.94,0,0,1,3.11-1.18c1.23-.35,1.23-.35,1.94.71l.39.6c.94-.47,1.9-1,2.88-1.43.64-.3,1.3-.55,2-.79s1.1-.25,1.37.48c.22.58.64.35,1,.2a13.15,13.15,0,0,1,4.11-.94c1.39-.12,1.2-.42,1.92,1.21,1.51-.55,3-1.17,4.53-1.64.75-.23,1.69-.63,2.17.58.14.36.52.17.8.09.87-.26,1.74-.53,2.61-.77s1.76-.47,1.94.91c.84-.35,1.51-.69,2.22-.91.88-.27,1.79-.82,2.65.1.24.26.57,0,.85-.06a103.44,103.44,0,0,0,10.42-2.55c1-.27,2-.48,2.94-.72a5.58,5.58,0,0,0,2.27-.74.58.58,0,0,1,.82.11c.19.21.08.47,0,.71a1.72,1.72,0,0,1-.76.92,20.89,20.89,0,0,1-2,1.21c-3.13,1.42-5.93,3.44-8.93,5.09a5.17,5.17,0,0,0-2.35,2.05c-.2.41-.75.65-1.15.94s-1.06.5-.83,1.36c.11.41-.5.73-.86,1a25,25,0,0,1-4.15,2.65.73.73,0,0,0-.39,1.21c.54.77.12,1.33-.42,1.83a9.54,9.54,0,0,1-2.32,1.43c-.43.22-.82.37-.84,1.06s-.7.94-1.2,1.27a13.9,13.9,0,0,1-2.74,1.27c-.64.24-.94.52-.56,1.22.64,1.22.41,1.74-.89,2.63a15.33,15.33,0,0,1-5,2.45c-.72.17-1.23.37-1.35,1.31-.16,1.23-1.27,1.75-2.32,2.14-1.23.45-2.49.83-3.76,1.16-.67.17-1.12.37-1,1.18a1.38,1.38,0,0,1-1,1.61c-1.92.75-3.74,1.8-5.9,1.77-.19,0-.46,0-.57.13-1.22,1.38-3,1.28-4.57,1.71a13.78,13.78,0,0,1-2.4.37c-.86.08-1.72,0-1.81,1.27,0,.42-.56.56-.91.73a8.61,8.61,0,0,1-3.84.71,2.34,2.34,0,0,0-1.44.31,3.61,3.61,0,0,1-2.21.31,36.24,36.24,0,0,1-3.75-.47c-.64-.06-1.39-.44-1.82.46-.06.11-.37.16-.56.14a28.58,28.58,0,0,1-4.22-.34,103.81,103.81,0,0,1-13.06-3.69c-.63-.25-.89-.11-1.1.52a8.56,8.56,0,0,0-.36,2.84c0,6.62-.08,13.24-.08,19.86,0,4.84.08,9.68.12,14.52,0,.2,0,.41,0,.61a1.38,1.38,0,0,0,2.06,1.2,5.31,5.31,0,0,0,2.65-2.18,28.26,28.26,0,0,1,3.22-3.61,2,2,0,0,1,.84-.62,7.91,7.91,0,0,0,3.2-2.16c1.2-1.06,2.79-1.32,4.19-2a1.73,1.73,0,0,1,1.46,0c1,.65,1.69.07,2.43-.4a18.88,18.88,0,0,1,2.91-1.62c.59-.25,1.16-.61,1.86-.16.38.25.75-.14,1.12-.28a12.44,12.44,0,0,1,3-1.06c.35,0,.8-.21,1,.13.53.93,1.13.44,1.78.22s1.49-.75,2.43-.2c.37.21,1.06-.13,1.6-.2,1.17-.15,2.27-.15,2.7,1.26.14.45.44.45.82.39,1-.14,1.9-.29,2.86-.37,1.18-.11,2.42-.49,3.34.72.25.32.67.08,1,0a14.23,14.23,0,0,1,5.12-.25c.76.12,1.39.32,1.47,1.21.07.65.49.66,1,.58.8-.12,1.6-.24,2.4-.31s1.61-.32,2.22.5c.23.3.67.15,1,.17a9.76,9.76,0,0,1,2.84.36c.6.2,1.32.3,1.39,1.17.05.47.48.47.82.51.85.12,1.71.17,2.55.31s1.93.18,2.43,1.22c.16.32.52.26.81.33,2.68.61,5.37,1.21,8,1.85,1.2.29,2.36.72,3.57,1a2.58,2.58,0,0,1,2,1.41c-.35.4-.71.23-1,.2a58.65,58.65,0,0,0-10.43.31,66.87,66.87,0,0,0-6.64,1.4c-.66.13-1.38.21-1.66,1.07-.14.42-.7.54-1.12.72a24.36,24.36,0,0,1-4.38,1.16c-.64.14-1.33.18-1.34,1.12,0,.4-.38.57-.7.71-.56.24-1.12.46-1.68.68-.33.14-.82.17-1,.41-.84,1.41-2.37,1.34-3.66,1.78-1,.35-1,.32-.91,1.48s.13,1.18-.91,1.69c-1.3.64-2.93.36-4,1.09a10.41,10.41,0,0,1-3.79,1.32l-.6.1c-1.48.19-1.55.18-1.76,1.61-.14.92-.73,1.16-1.43,1.29a40.72,40.72,0,0,1-4.9.94c-.34,0-.76-.09-1,.22-1,1.25-2.31,1-3.6.86a18,18,0,0,1-2.54-.46c-.8-.21-1.57-.71-2.28.24-.14.19-.67.13-1,.13a27.23,27.23,0,0,1-6.61-.73c-.7-.17-1.36-.58-2.15-.07-.26.16-.9-.11-1.27-.33-1.79-1.09-3.85-1.69-5.47-3.11a11.77,11.77,0,0,0-2.48-1.4,14,14,0,0,1-3.2-2.36,6.5,6.5,0,0,0-1,3.74c-.29,4.44-.23,8.88-.34,13.32-.16,6.66-.36,13.33-.54,20-.22,8-.38,15.95-.67,23.92-.26,7.16-.53,14.33-.48,21.49a51.65,51.65,0,0,0,.81,10.53,17.05,17.05,0,0,1,.33,2.84,19.35,19.35,0,0,0,1.54,5.63c.59,1.64.39,2.2-1.24,2.69a2.75,2.75,0,0,0-1,.33c-1,.89-2.27.41-3.39.47a1.69,1.69,0,0,1-1.85-.89c-.19-.43-.92-.27-1.4-.44-1.28-.44-1.26-.46-1.15-1.78a8.62,8.62,0,0,1,.67-2.29,49.15,49.15,0,0,0,1.82-6.65,77.06,77.06,0,0,0,1.62-14.84c.21-5,.59-10.06.78-15.09.39-10.44.77-20.89,1-31.33.13-5.25.2-10.49.31-15.73.07-3.38.2-6.76.15-10.14,0-.72.09-1.51-.67-1.87s-1.46.07-2,.68c-1.47,1.67-3.52,2.61-5.19,4-.47.4-1,.78-1.53,1.16a8.16,8.16,0,0,1-3.57,1.85,4.35,4.35,0,0,0-1.81,1.06,10.49,10.49,0,0,1-3.79,1.82c-1.22.28-2.38.82-3.58,1.2a2.34,2.34,0,0,1-2.05,0c-.41-.24-.78,0-1.15.09-1,.33-1.9.68-2.86,1a5.77,5.77,0,0,1-3.53.45c-.35-.1-.78.12-1.17.19a24.46,24.46,0,0,1-2.53.47c-1.22.1-1.45-.07-1.76-1.28-.17-.68-.5-.7-1.09-.62a19.61,19.61,0,0,1-4.52.41c-.65-.07-1.33-.05-1.42-1,0-.5-.5-.38-.85-.36-.91.06-1.81.13-2.72.16a5.87,5.87,0,0,1-1.95-.24c-1.1-.31-1.14-.3-1.11-1.54,0-.57-.12-.8-.74-.81a9.57,9.57,0,0,1-3-.3,11,11,0,0,0-4.45-.87,1,1,0,0,1-.7-.24c-1-1.23-2.5-1.07-3.84-1.17-3.27-.24-6.56,0-9.84,0a21.49,21.49,0,0,1-5.13-.23c-.25-.06-.5-.09-.74-.16a.65.65,0,0,1-.5-.67.59.59,0,0,1,.47-.53,22.18,22.18,0,0,1,2.6-.79,68.13,68.13,0,0,0,7.47-1.91c1.26-.39,2.38-1.09,3.64-1.48a1,1,0,0,0,.61-.41c.9-1.54,2.46-2,4-2.45.7-.21,1.51-.28,1.49-1.36,0-.43.48-.63.85-.77.61-.25,1.24-.44,1.86-.67.45-.17.92-.22,1.22-.76s.94-.53,1.48-.64l2.19-.42c-.12-1.77-.13-1.78,1.56-2.3a23.79,23.79,0,0,1,2.35-.6c.64-.13,1.22-.12,1.48-1,.16-.54,1-.62,1.56-.78a15.35,15.35,0,0,1,3.76-.39c.71,0,1.33-.05,1.34-1,0-.48.35-.66.77-.8a7.8,7.8,0,0,1,2.54-.35c1,0,2,0,3,0,.69,0,1.37.09,1.86-.67.26-.4.89-.43,1.39-.49a14.68,14.68,0,0,1,5.72.06c.55.15.93.15,1.29-.35a1,1,0,0,1,.64-.35c1.79-.31,3.57-.71,5.34.14a5.79,5.79,0,0,0,2.29.47,8.72,8.72,0,0,1,5,2.05,14,14,0,0,0,2.94,1.83,9.49,9.49,0,0,1,2.88,1.92,6.84,6.84,0,0,0,1.87,1.24c1.16.59,1.91.2,2.22-1.06a34,34,0,0,0,.6-7.53c.11-5.5.11-11,.11-16.51,0-4.34.1-8.68-.22-13,0-.65-.13-1.3-.23-1.95-.14-1-.28-1.07-1.11-.48a37,37,0,0,1-9.49,4.64,21.9,21.9,0,0,1-5.24,1.43,68.94,68.94,0,0,0-7.42,1.3,7.82,7.82,0,0,1-1.81.08c-.3,0-.7,0-.77-.34-.21-1-.93-.79-1.53-.63-2.07.58-4.22.42-6.32.65a5.91,5.91,0,0,1-2.38-.37c-.33-.09-.72-.19-.67-.67.09-.85-.37-.81-1-.77a23.31,23.31,0,0,1-5.28.2c-.92-.17-2.08,0-2.27-1.46-.07-.47-.67-.34-1.06-.38a22.13,22.13,0,0,1-6.31-1.47c-.78-.32-1.54-.57-1.08-1.71.19-.46-.24-.71-.62-.88a4.73,4.73,0,0,0-1.34-.2c-.94-.15-1.93-.2-2.52-1.13-.3-.48-.88-.47-1.34-.62a11.53,11.53,0,0,1-2.13-.77c-.64-.37-1.18-.74-.72-1.66.32-.64-.1-1-.74-1.2-.25-.06-.5-.08-.75-.14-.44-.11-1.05-.1-1.28-.39-1.1-1.35-2.83-1.4-4.18-2.2-.17-.11-.31-.25-.46-.36.87-2.26.87-2.26-1.33-3a2.48,2.48,0,0,1-1.37-.86c-.46-.66-1.34-.65-1.94-1.11s-1.65-.74-1.05-1.95c.21-.41-.32-.54-.65-.65a23.45,23.45,0,0,1-4.68-2.11c-1.2-.7-1.18-.73-.84-2.15-1.1-.46-2.23-.89-3.32-1.41-.68-.33-1.61-.5-1.55-1.59,0-.23-.16-.35-.36-.42-3-1.16-5.84-3-9.12-3.6h0a.43.43,0,0,0-.56-.23l-.31-.09a3.85,3.85,0,0,0-2.13-.83,11.2,11.2,0,0,0-2.34-1.06,22.24,22.24,0,0,1-4.91-2.61.41.41,0,0,0,.32-.31h1.46a1.38,1.38,0,0,0,1.23.18,1.46,1.46,0,0,0,.9.09.48.48,0,0,0,.62.21.67.67,0,0,0,.58.1c.06.16.14.22.28.08a2.42,2.42,0,0,0,1.47.25.55.55,0,0,0,.69.17,1.54,1.54,0,0,0,.9.14,1,1,0,0,0,.67.3,119.06,119.06,0,0,0,12.76,1.66c.28,0,.66.12.8-.23.33-.82,1-.55,1.55-.48,1.4.19,2.79.43,4.19.67.65.1,1.19,0,1.49-.67a1.22,1.22,0,0,1,1.39-.67,10.64,10.64,0,0,1,2.23.39c.33.1.7.3,1,.11.72-.43,1.38-.09,2.05.06s1.45.43,2.15.65c.52-.48.66-1.47,1.58-1.24,1.91.48,3.89.08,5.8.53a2.18,2.18,0,0,0,2.26-.35c.39-.36,1-.21,1.47-.12a12.76,12.76,0,0,1,2.77.75c.27.12.6.44.83.26.8-.64,1.52-.15,2.27,0s1.56.39,2.34.62c.35.1.69.26.89-.2.49-1.18,1.49-1,2.44-.92.5.05,1,.35,1.49.19a3.83,3.83,0,0,1,2.62.37c.74.27,1.4,1,2.3.33.11-.08.39.05.58.1,1.59.47,3.19.91,4.76,1.44.73.24,1.36.85,2.14.06.24-.24.68,0,1,.09a22.77,22.77,0,0,1,3.4,1.27c.31.14.6.47,1,.24,1-.64,1.83-.15,2.68.3s1.4.8,2.09,1.21c.26.16.52.37.81.09.68-.68,1.34-.26,1.93.09,1.41.85,2.78,1.79,4.15,2.69A23.29,23.29,0,0,0,521,338c1.15.47,1.82,1.55,2.71,2.35a9.48,9.48,0,0,1,2.81,4.22,5,5,0,0,0,.74,1.48c1.18,1.52,2.09,3.21,3.12,4.82.16.25.25.59.7.42a6.93,6.93,0,0,0,.52-2.6c.09-3.68,0-7.37,0-11,0-8.24-.14-16.46-.27-24.69a11.09,11.09,0,0,0-.42-3.29c-.35-1.11-.77-1.43-1.9-1.26a13.17,13.17,0,0,0-4.5,1.15A20.44,20.44,0,0,1,520,311.1a4.52,4.52,0,0,1-2.68.24,9.22,9.22,0,0,0-4.17-.21,12,12,0,0,1-3.17-.07,35.11,35.11,0,0,0-4.8-.56,14.61,14.61,0,0,1-4.41-1c-.32-.12-.86-.24-.83-.56.1-.83-.43-.75-.9-.74a18.13,18.13,0,0,0-1.81.12,8.75,8.75,0,0,1-3.3-.26c-.42-.11-.67-.32-.61-.7.14-.79-.37-.75-.89-.82a16,16,0,0,1-4.62-1.39,3.57,3.57,0,0,1-1.35-.95c-.37-.47.34-.92.08-1.42-1.4-.26-2.78-.54-4.17-.78a7.62,7.62,0,0,1-2.41-.85c-.38-.21-.69-.41-.5-.93.24-.69-.17-.82-.76-.95a20.67,20.67,0,0,1-5.38-2,5.3,5.3,0,0,1-1.47-1.06.7.7,0,0,1-.14-.92c.42-.84.38-.89-.56-1.15a11.86,11.86,0,0,1-3.32-1.41c-.41-.26-.76-.46-.52-1.06s0-1-.67-1.24a29.18,29.18,0,0,1-4-2.44c-.53-.32-.64-.62-.31-1.22.55-1,.5-1-.62-1.4a14.74,14.74,0,0,1-3-1.4c-.47-.3-1.2-.6-.94-1.35s-.12-.89-.59-1.13a15.4,15.4,0,0,1-4.5-3.66,3.56,3.56,0,0,0,1.11-1.7,9.37,9.37,0,0,1-3.07-1.69c-.22-.19-.63-.42-.47-.7.59-1-.28-1.24-.84-1.61a14.77,14.77,0,0,1-3.3-2.86c1.26-1.2,1.24-1.54-.24-2.39-.57-.33-1.16-.62-1.73-.95a6.13,6.13,0,0,1-1.62-1.34c-.23-.26-.61-.57-.45-.91.42-.9-.25-1.13-.78-1.49a10.19,10.19,0,0,0-1.24-.86c-1.12-.53-1.74-1.61-2.72-2.31a54.07,54.07,0,0,0-7.12-4,27.08,27.08,0,0,0-5.11-2.25h0c0-.18-.1-.24-.27-.17l-.34-.14c0-.17-.09-.25-.27-.17l-.35-.12a.43.43,0,0,0-.56-.28l0,0a.49.49,0,0,0-.57-.26l-.07,0a.42.42,0,0,0-.53-.28c-2.05-1.37-4.38-2.28-6.33-3.85.1-.49.57-.22.84-.37a1.36,1.36,0,0,0,1.25.16l.56.1c.05.18.16.23.33.14l.62.15c0,.15.12.23.28.13a.78.78,0,0,0,.62.17,6.67,6.67,0,0,0,2.57.74l.09,0a.27.27,0,0,0,.38.1l.57.18c.42.16.84.35,1.27.48,3.53,1,7,2.18,10.64,3,1.41.3,2.71,1.33,4.28.68,1.69.68,3.6.24,5.26,1.07a7.8,7.8,0,0,0,1.44.46,1.9,1.9,0,0,0,1.62-.13,2.68,2.68,0,0,1,2.73-.1,5.35,5.35,0,0,0,3,.31,4.07,4.07,0,0,1,2.22.16c1.1.36,2.2.8,3.34.08.18-.11.5,0,.75,0,2.95.57,5.91,1.13,8.85,1.73.7.14,1.37.43,2-.17a.9.9,0,0,1,1-.14c1.53.52,3,1.31,4.66,1.26a1.11,1.11,0,0,1,.78.4c.55.71,1.46.86,2,1.48a1.73,1.73,0,0,0,.94-.85c.37-.73.84-.72,1.48-.38,1.64.87,3.48,1.41,4.81,2.8.37.38.78.53,1.16.07s.82-.34,1.28,0a36.75,36.75,0,0,1,3,2.28c1.24,1.16,1.25,1.15,2.41,0a18.6,18.6,0,0,1,5.85,4.61c1.13-1.07,1.13-1.07,2.28-.2a16.3,16.3,0,0,1,2.41,2.29,16,16,0,0,0,2.46,2.61c1.29-1.33,1.37-1.35,2.93-.47a11.09,11.09,0,0,1,3.61,2.95c.15.2.22.68.62.44.57-.34.84.12,1.18.36,1.44,1,2.26,2.56,3.26,3.95,1.37-.74,1.37-.73,2.51.39a7.71,7.71,0,0,1,1.37,1.81c.68,1.26,1,2.72,2.18,3.7.94,2.55,2.83,4.6,3.71,7.18a6.28,6.28,0,0,0,.7,1.16.69.69,0,0,0,.75.4c.38-.08.34-.42.4-.72a29.78,29.78,0,0,0,.53-6.31c.08-7.43,0-14.85,0-22.28a6.13,6.13,0,0,0-.14-1.35c-.23-1-.6-1.33-1.64-1.44-1.32-.14-2.53.42-3.8.61-2.58.39-5.1,1.18-7.76,1.12-1.17,0-2.3-.38-3.46-.32a8.11,8.11,0,0,1-3.12-.5,22.32,22.32,0,0,0-4.68-1.19,39.06,39.06,0,0,1-6.34-1.34c-1.49-.43-1.56-.65-.95-2,0-.07,0-.18,0-.25a36.67,36.67,0,0,0-3.76-.43c-.68-.13-1.56-.1-1.87-.76s-.72-.57-1.2-.63a13.45,13.45,0,0,1-3.82-.88c-1.16-.51-1.19-.78-.47-1.87a.5.5,0,0,0,.07-.63c-2.21-.18-4.2-1.4-6.45-1.76a5.08,5.08,0,0,1-3.26-2c.1-.64.89-.86.86-1.56a26.91,26.91,0,0,0-5.07-2.38,4,4,0,0,1-2.16-1.52c.15-.64,1-.78.93-1.49-1.11-.46-2.32-.32-3.4-.81s-1.19-.62-1-1.89c-.87-.41-1.77-.77-2.59-1.25-1.33-.78-1.36-1.05-.49-2.3.11-.16.22-.32.45-.63-.37.31-.52.09-.69,0-1.4-.38-2.32-1.54-3.61-2.15-1.69-.79-1.82-1.34-1.1-3-.27-.35-.73-.29-1.07-.5s-.8-.44-1.18-.68-.78-.37-.74-.69c.11-.84-.53-1-1-1.3a13,13,0,0,1-1.42-1.13c-1.13-1.11-1.13-1.3-.21-2.63a3.22,3.22,0,0,0,.2-.49c-.89-.66-1.77-1.33-2.68-2a6,6,0,0,1-1.84-1.76c-.15-.25-.49-.53-.34-.8.42-.76-.19-1-.6-1.3a13.51,13.51,0,0,1-1.32-1c-.58-.59-1.39-1.09-1-2.15.09-.3-.16-.44-.37-.59a6.2,6.2,0,0,1-1-.85,41.69,41.69,0,0,0-7.94-6.5,31.78,31.78,0,0,0-4.25-2.6,18.26,18.26,0,0,1-3.61-1.89c-.83-.66-1.68-1.27-2.87-.63a1.7,1.7,0,0,1,1.69-1,11.51,11.51,0,0,1,3.6.35c3.22.82,6.31,2,9.49,3,1.37.39,2.65,1,4,1.37a17.24,17.24,0,0,1,4.41,1.54c.23.13.46.24.68,0,.75-.79,1.61-.4,2.4-.14a12.09,12.09,0,0,1,2.87,1.34c.59.37,1.17.8,1.81,0,.37-.48.95-.16,1.42,0a43,43,0,0,1,4.36,1.74c.35.14.7.5,1.11.21.92-.64,1.76-.14,2.59.16s1.84.79,2.78,1.19c.2-.32.35-.58.51-.82.74-1.1.85-1.18,2.08-.7a20,20,0,0,1,3.67,1.38c.32.2.68.33.9-.1.38-.73.88-.47,1.4-.22a8.16,8.16,0,0,1,1.89,1.25,9.75,9.75,0,0,0,2.33,1.6c.81-1.16.81-1.15,2.09-.8a10.65,10.65,0,0,1,3.4,1.94c.34.24.66.77,1.17.48,1-.56,1.67,0,2.26.63a32.32,32.32,0,0,0,3.8,3c.19.14.42.44.63.17.84-1.08,1.69-.39,2.37.09,1.13.8,2.15,1.77,3.21,2.68.57.49.82,1.65,2,.93.08-.05.35.15.5.27a10.6,10.6,0,0,1,1.59,1.62,10.35,10.35,0,0,0,2.67,2.65c.46.29.84.52,1.37.17s1.15-.12,1.67.24a17.52,17.52,0,0,1,2,1.87c.37.35.6,1,1.34.69.26-.11.44.19.61.36a6.41,6.41,0,0,1,1.49,2.08c.35.81.74,1.61,1.15,2.53.59-.8,1-.44,1.41,0a17.35,17.35,0,0,1,3.19,4.76c.17.4.27,1,.78,1,.87,0,1,.69,1.34,1.24,1.28,2.27,1.57,4.88,2.41,7.3a28.12,28.12,0,0,1,1.25,3.19.79.79,0,0,0,.83.65,13.41,13.41,0,0,0,.47-5.26c-.07-3.43-.43-6.85-.67-10.27-.22-3.13-.49-6.24-.78-9.36a10.35,10.35,0,0,0-.78-3.37c-.14-.3-.27-.73-.73-.65-1.54.26-3.09-.38-4.66.11a5.18,5.18,0,0,1-3.14,0,45.87,45.87,0,0,0-5.78-1.17A10.58,10.58,0,0,1,509.2,221c-.57-.46-.73-.94-.22-1.53-.64-.22-1.18-.36-1.68-.59-1.14-.52-2.49-.79-3.26-1.83a3.91,3.91,0,0,0-1.74-1.26,14,14,0,0,1-4.19-2.67c-.31-.3-.74-.59-.21-1.11s.13-.93-.4-1.22c-1.63-.9-3.25-1.83-4.89-2.72A8.69,8.69,0,0,1,490,205.7c.16-.54.9-.56.93-1.16-.26-.34-.68-.39-1-.56-1.29-.59-2.59-1.15-3.83-1.83-.52-.28-1.37-.63-1.12-1.39s-.06-.79-.48-1a10.81,10.81,0,0,1-4.11-3.72c-.66-.93-.66-.91.18-1.66.25-.22.62-.35.72-.87a35.34,35.34,0,0,1-4.22-3.06,9.49,9.49,0,0,1-1.59-1.37c-.34-.38-.58-.87,0-1.29a1.06,1.06,0,0,0,.46-.73,8.27,8.27,0,0,1-3.24-3.41c-.78-1.38-.77-1.38.29-2.51a.83.83,0,0,0,.1-.29,4.31,4.31,0,0,0-1.28-1,7.8,7.8,0,0,1-1.68-1.51c-.21-.27-.58-.63-.36-.93.63-.85,0-1.29-.46-1.81a8.46,8.46,0,0,1-1-1.68c-.27-.52-.31-.94.38-1.17a2.91,2.91,0,0,0,1.28-.85c-.7-.79-1.4-1.58-2.08-2.4-.31-.38-.86-.89-.63-1.29.47-.8-.13-1.19-.41-1.7-.39-.71-.87-1.36-1.27-2.06a1,1,0,0,1,.16-1.47c.79-.78.75-.84.06-1.8-.44-.61-.91-1.21-1.37-1.81a14,14,0,0,1-1.54-2.42c-.21-.41-.38-.87.05-1.25.59-.54.28-1-.13-1.42-2.19-2.26-3.25-5.3-5.27-7.68a1,1,0,0,1-.16-.26,5.68,5.68,0,0,0-1.67-1.94c-3.11-2.37-6.18-4.79-9.46-6.94l-.05,0a18.66,18.66,0,0,0-3.33-2.47c-.09-.3,0-.45.34-.46l1,0a14.65,14.65,0,0,0,3,.87,4.61,4.61,0,0,0,1.56.67.55.55,0,0,0,.52.29,3.42,3.42,0,0,0,1.29.58c.42.27.83.56,1.28.79,2.73,1.42,5.51,2.75,8.18,4.29.7.41,1.34,1.28,2,1.22,1.38-.13,2,.79,2.78,1.49.59.51,1,1.24,2,1,.24-.06.64.28.9.51.61.52,1.19,1.09,1.78,1.64.43.41.78,1,1.52.46.34-.23.69,0,1,.24.5.43,1,.88,1.46,1.31.26.24.5.66.85.57,1.5-.38,2.18.73,3,1.58s1.32,1.52,2,2.24c.39.4.89.74,1.41.14s.9-.37,1.44,0a22.31,22.31,0,0,1,3,2.34c.25.21.44.69.84.5.7-.33,1,.19,1.44.52a11.67,11.67,0,0,1,1.72,2.11,7,7,0,0,0,1.61,1.89c.64-.56,1.24-1,1.78-1.56a.59.59,0,0,1,.9-.08,11.24,11.24,0,0,1,2.75,2.35c.19.26.33.76.77.58.75-.31,1,.26,1.33.66.71.8,1,1.87,1.6,2.72,1.38-.69,1.46-.66,2.38.48a4.42,4.42,0,0,1,1,1.85c.18.91,1.26.77,1.52,1.51a3.86,3.86,0,0,0,.31.51,7.93,7.93,0,0,1,.8,2c.11.42.29.83.83.52s.7,0,1,.35a23.5,23.5,0,0,1,2.18,3.8c.16.3.2.79.6.82,1.18.08,1.49,1.07,2.05,1.81.93,1.22,1.31,2.73,2.16,4,.35.52.62,1.41,1.55.59.18-.16.49,0,.68.17s.57.56.84.86a21.37,21.37,0,0,1,2.77,4.76c.3.58.61,1.16,1.41,1.18.45,0,.65.43.9.74a7,7,0,0,1,1.22,2.88,7.45,7.45,0,0,0,1,3,5.89,5.89,0,0,1,1.16,2.75c.25,1.44.5,2.89.68,4.34.15,1.21.71,2.31.9,3.51a.72.72,0,0,0,.74.64c.46,0,.51-.44.51-.8a16.33,16.33,0,0,0-.1-2.42,66.77,66.77,0,0,0-6.44-19.6c-1.16-2.3-2.13-4.68-3.44-6.91a10.26,10.26,0,0,1-.86-2.89c-.06-.23-.12-.6.19-.61.47,0,.47-.14.35-.53a18.05,18.05,0,0,0-1.05-2.67,13.32,13.32,0,0,1-1-3.48c-.08-.43-.1-.87.58-1,1.21-.26,1.22-.33.74-1.44a11,11,0,0,1-1.09-3.13c0-.44-.26-1.1.12-1.29,1-.47.51-1.21.49-1.83,0-1.4-.17-2.8-.26-4.21a4.18,4.18,0,0,1,.43,0c2.77.59,2.74.59,2.13-2.19a9.73,9.73,0,0,1-.25-4.26h.4c.1,0,.19.08.29.1,1.2.18,1.26.15,1.38-1.1.07-.75.09-1.51.12-2.26a18.6,18.6,0,0,1,.4-3.5c.48.17.85.31,1.23.43a9.6,9.6,0,0,0,1.16.34c1.37.29,1.48.19,1.51-1.17,0-1,.07-1.91.1-2.87,0-.35,0-.8.39-.88.74-.14.61-.68.65-1.16a13.55,13.55,0,0,1,.25-2.81,5.84,5.84,0,0,0,1.93.73c1,.27,1.19.11,1.08-.9a8.59,8.59,0,0,1-.06-2c0-.3,0-.76.32-.79,1.11-.11.83-.91.9-1.57.12-1.19.26-2.38.4-3.61.93.31,1.79.58,2.63.88.56.19.75-.09.79-.57s0-.7,0-1.06a11.33,11.33,0,0,1,.44-3.28c.16-.48.3-1.06.89-1.13,1.06-.12,1.1-.88,1.14-1.66a13.61,13.61,0,0,1,.37-2.69c.08-.27.15-.72.5-.66,1.23.21,1.12-.61,1.17-1.37a5.27,5.27,0,0,1,.29-1.17,71.94,71.94,0,0,0,3-10.15c.37-2,1-4,1.25-6a.69.69,0,0,0,.06-.61,24.28,24.28,0,0,0,.49-4.25,4.06,4.06,0,0,0,.17-1.8,1.65,1.65,0,0,0,.17-1.23,30,30,0,0,0,.13-5.44.4.4,0,0,0,0-.62c.21-2-.26-4.07,0-6.11l.32-.23a2.39,2.39,0,0,1,1,1.28,26.45,26.45,0,0,1,1.82,6.65,14.31,14.31,0,0,0,.51,3.57,54.78,54.78,0,0,0,.47,6.4.63.63,0,0,0,0,.55,3.61,3.61,0,0,0-.19,1.84,2.91,2.91,0,0,0-.11,1.49,1.28,1.28,0,0,0-.19.87c.1,4.3-.35,8.58-.31,12.87,0,.3-.07.63.25.81.71.39.7,1.07.68,1.72-.06,1.75.45,3.52-.17,5.25-.14.39,0,.8.4.83.92.05,1,.7,1.1,1.35a7,7,0,0,1,.05,2.41c-.05.4-.14.84.25,1.12.72.5.62,1.22.53,1.92s-.26,1.28-.36,1.93c-.16,1.08,0,1.36,1.1,1.54a6.46,6.46,0,0,0,2-.06c1-.13,1.21,0,1.07,1-.1.8-.28,1.59-.46,2.38-.28,1.22-.58,2.45-.87,3.68-.16.62,0,1,.74,1l.6,0c1.74,0,1.75,0,1.61,1.74a7.65,7.65,0,0,1-.17,1.05c-.34,1.66-.37,3.4-1.29,5a11.22,11.22,0,0,0,3.61,0,7.12,7.12,0,0,1-.16,2.78c-.21.78-.44,1.55-.68,2.33-.13.42-.21.87.4.87s.72.38.69.89a5.26,5.26,0,0,1-.38,1.61,16.64,16.64,0,0,1-1.76,3.34c-.36.55-.27.89.4,1.13s1.37.18,2,.39a5.29,5.29,0,0,1-.72,2.22A21.34,21.34,0,0,0,557.7,167c-.19.51-.56,1,.31,1.29.29.1.22.54.2.84a4.22,4.22,0,0,1-1,2.33,21.17,21.17,0,0,0-2.17,2.89c1.24,1.06,1.17,1,.47,2.45a27.58,27.58,0,0,1-1.61,2.52c-.89,1.41-2.06,2.6-2.95,4a43.12,43.12,0,0,1-6.75,8.91,65.43,65.43,0,0,0-6.07,7.14c-1.7,2.11-2.64,4.64-3.76,7.07a.58.58,0,0,0,.17.8c.3.19.59.37.94,0s1-.88,1.43-1.33a27.58,27.58,0,0,0,5.55-6.93,4,4,0,0,1,2-2.16,3.14,3.14,0,0,0,1.72-1.55c.45-.67.87-1.36,1.32-2a7.42,7.42,0,0,1,2.08-2.17c.28-.19.65-.53.94-.22.63.66.84.1,1.1-.31.4-.64.79-1.29,1.16-2,.23-.4.38-.95.8-1.07.85-.25,1.21-1,1.8-1.51.42-.36.82-.76,1.25-1.1.66-.52,1.35-.93,2.08-.07a4.71,4.71,0,0,0,.44-.56c.95-2,2.83-3.09,4.22-4.67a2.77,2.77,0,0,1,.72-.54c.61-.36,1.22-.5,1.76.14s1,.46,1.46-.09c.75-.82,1.59-1.56,2.39-2.33a5.28,5.28,0,0,1,1.48-1c.3-.14.65-.38,1,0,.48.55.87.24,1.28-.09a15.57,15.57,0,0,1,4.15-2.47c.77-.3,1.46-.38,1.95.5.37.69.85.49,1.34.1s1.1-.88,1.69-1.28c.41-.28.92-.75,1.31-.68,1,.19,1.56-.45,2.27-.85.4-.22.8-.45,1.21-.64,1.51-.69,1.66-.65,2.74.67.06.07.17.09.29.16.83-.53,1.67-1.08,2.53-1.61a15.17,15.17,0,0,1,4-2c.48-.12.87-.27,1,.4s.54.59,1,.34c1.34-.71,2.69-1.39,4.05-2.06.56-.28,1.13-.75,1.71,0,.18.23.47,0,.7-.06,3.75-1.73,7.55-3.38,11.26-5.22s7-3.72,10.54-5.59l.07.64-.07.3a.86.86,0,0,0-.31.59,10.73,10.73,0,0,0-2.17,2.39h0a3,3,0,0,0-.4.19c-3.69,2.74-7.24,5.66-11,8.3a18.94,18.94,0,0,0-3.27,2.93c-2,2.26-3.79,4.71-5.7,7.05-.36.43-.24.68,0,1a1.26,1.26,0,0,1,.09,1.66c-.29.35-.55.73-.83,1.08a17.16,17.16,0,0,1-3.65,2.92c-1,.7-1.05.86-.19,1.72.55.55.38.93.07,1.44a9.51,9.51,0,0,1-2.14,2.33c-.36.29-.75.6-.39,1.13s.07.93-.34,1.28a11.81,11.81,0,0,1-2.9,1.9c-.72.32-.82.73-.35,1.25s.2.95-.18,1.4a10.57,10.57,0,0,1-3.1,2.38c-.52.29-1.21.42-.75,1.29.17.33-.15.55-.37.74a8.12,8.12,0,0,1-2.06,1.27c-1.06.45-2.1.93-3.07,1.36a.81.81,0,0,0,.24.81c.43.54.4,1-.2,1.37a6,6,0,0,1-.6.46,24.31,24.31,0,0,1-3.43,1.7c-.24.06-.58.14-.61.38-.15,1.08-1.12,1.22-1.82,1.6a24.13,24.13,0,0,1-2.51,1.05c-.51.2-1,.4-.51,1.08.25.37,0,.66-.3.91s-.74.69-1.13,1.06c.53.11.61.72,1.21.87,1.12-1.38,2.92-1.91,4.25-3.14a7.74,7.74,0,0,1,1.43-.83c.54-.29,1-.36,1.45.25s.7.4,1.11,0a10.92,10.92,0,0,1,3.36-2c1.12-.43,2.16-.49,3,.61,0,.05.18,0,.26.06a24.83,24.83,0,0,1,4.5-2.79c.79-.3,1.32-.31,1.69.54.26.61.62.6,1.18.26.92-.57,1.9-1,2.87-1.52.26-.13.67-.38.81-.06.42.93.91.41,1.43.17s1.11-.48,1.67-.68c.71-.26,1.28-.17,1.57.65s.77.76,1.38.33,1.19-.77,1.77-1.16a11.38,11.38,0,0,1,2.87-1.34c.7-.24,1.18-.21,1.42.56s.65.73,1.26.42c1.16-.61,2.33-1.2,3.53-1.72.72-.32,1.52-.72,2.09.31.14.25.41.23.67.09,1.44-.77,3.07-.93,4.59-1.49,3.88-1.43,7.63-3.15,11.36-4.94a17.34,17.34,0,0,1,6.9-2.07h0a.47.47,0,0,0,.27.41A.35.35,0,0,0,643.05,196.6ZM531.45,225a14.9,14.9,0,0,0-.34,4.51c.33,6.45.91,12.88,1.57,19.31.17,1.6.52,3.18.78,4.77.07.43.21.78.73.81s.57-.35.74-.65a1.43,1.43,0,0,0,.22-.56c.36-2.51,1.46-4.81,2.14-7.24a34.11,34.11,0,0,1,3.64-7.61,3.15,3.15,0,0,1,1.87-1.68,1.54,1.54,0,0,0,1.22-1.15c.27-.67.54-1.51,1.11-1.75,1.28-.52,1.81-1.66,2.6-2.59.41-.48.81-.92,1.52-.78a.87.87,0,0,0,1-.5,37.81,37.81,0,0,0,2.07-3.47,11,11,0,0,0-6.65.82,1.34,1.34,0,0,1-.59.13,64.33,64.33,0,0,1-6.8-.1A20.92,20.92,0,0,1,531.45,225Z" transform="translate(-415.73 -77.86)"/><path class="cls-2" d="M467.11,99.87a3.3,3.3,0,0,1,.17-1.76C467.89,99,467.86,99.33,467.11,99.87Z" transform="translate(-415.73 -77.86)"/></svg>