<svg id="Layer_1" data-name="Layer 1" xmlns="http://www.w3.org/2000/svg" viewBox="0 0 333.82 432"><defs><style>.cls-1{fill:#99c864;}.cls-2{fill:#fff;}</style></defs><title>sweetgum</title><path class="cls-1" d="M108.39,301.35c8.5-9.75,13.43-21.13,26.27-24.91L134,275c-2.93,0-5.87-.15-8.78,0-12,.74-22.92-3.39-33.35-8.39-5.68-2.71-11.74-6.1-15.49-10.82-4-5-9.36-7.19-13.94-10.83-.92-.73-1.12-2.33-2.11-4.57l-10.15-3.68.72-3.5c-12.23-3-22.87-8.52-31.54-17.52,7,0,12.11,5.09,18.43,5.84,2.37-.23,4.84-1,7.11-.61,9.06,1.54,17.92.35,27-.34,7.33-.57,15.1,1.49,22.34,3.53,6.1,1.71,11.67,5.16,17.58,7.62,1.49.63,3.35.43,5,.61-.58-1.58-.86-3.37-1.8-4.72-5.58-8-11.38-16-17-24-3.85-5.52-6.58-11.48-6.74-18.33a3.07,3.07,0,0,0-.23-1.32c-4.5-8.1-5.06-17.13-6.32-26a7.26,7.26,0,0,0-.7-2.59c-4.52-7.67-4-16.56-6.21-24.78-.28-1,.94-2.47,1.82-4.57-1.52-4.26-3.44-9.59-5.31-14.94-.29-.84-.84-2.1-.48-2.58,3.37-4.44-.56-7.35-2.33-10.52C64.83,86,63.46,72.78,63,59.3c2.42,6.6,4.62,13.29,7.34,19.77,1.49,3.53.94,8,6.06,10.12,2.25.94,2.73,5.51,4.57,8,1.52,2.1.65,6.84,5.71,5.67.27-.07.87,1.12,1.28,1.75,1.45,2.27,2.89,4.56,4.33,6.85l.74-1c1.54.7,3.47,1,4.55,2.17,3.5,3.63,6,9.19,10.17,11,6.64,2.83,7.14,11.45,14.52,12.74,5.24,7.95,13.81,13.65,15.79,23.84,1.26,6.44,3.54,12.7,5.44,19,.48,1.62,1.26,3.15,1.9,4.72l1.3-.27c-.27-3.3-.31-6.64-.85-9.89-2-12.17-4.41-24.37.38-36.39,3.17-7.95,5.71-16.48,10.6-23.32,4.5-6.29,5.1-12.53,5.21-19.39l1.26.27L165,88.34l.7.09c.54-2,1.67-3.94,1.52-5.84-.58-7.72-1.75-15.4-2.24-23.13-.11-1.71,1.73-3.51,2.58-5.31a27.88,27.88,0,0,1,4.53-7.55l6,23.86.29-.07c.64,1.75,1.82,3.51,1.8,5.25,0,4-.7,7.93-1.18,12.69L185.2,85c-.26,4-.29,7.61-.76,11.12-1.14,8.47,2.48,15.89,5.37,23.4,2.36,6.14,5.77,11.88,8.2,18,4.09,10.31,2.71,20.94,1.12,31.53-.72,4.79-1.24,9.61-1.85,14.42l1.37.35c.63-1.56,1.38-3.08,1.88-4.68,1.21-3.86,2.73-7.7,3.35-11.66,1.93-12.34,8.78-22.14,17.63-30.2,4-3.6,6.82-8.33,11-11.11,5.83-3.88,8.4-10.53,14.31-14a9.8,9.8,0,0,1,4.31-1.13c3.61-1.66,3.21-7.65,9.18-8.14,1.57-3.07,3.39-6.87,5.42-10.55,1-1.89,1.08-4.83,4.64-4.59.5,0,1.29-2.14,1.73-3.37,3-8.4,5.9-16.83,8.85-25.25l1.37.16c-.78,5.44-1.41,10.91-2.36,16.32-1.77,10.07-4.82,19.71-10.75,28.28-.25.36-.65,1-.52,1.18,3.06,3.69.81,7.32-.3,10.8-1.17,3.69-2.94,7.19-3.49,10.69.4,1.66,1.21,3.35,1.14,5-.49,10.61-6.24,20.18-7.22,30.47-1.08,11.36-5,21.86-8.39,32.34-2.76,8.43-9.17,15.75-14.16,23.44-2.46,3.79-5.44,7.24-8,11-.66,1-.62,2.4-.9,3.61,1.27,0,2.69.24,3.79-.21,7.31-3,14.45-6.49,21.86-9.28A41.76,41.76,0,0,1,275.4,221c7.93,1.36,16.23,1.77,24.37-.25,1.89-.47,4.16.56,6.2,1.93l18.26-8.21,1.11,1.9c-4.91,3.49-9.55,7.48-14.82,10.35S299.3,231.38,294,233.5c-.92,6.6-7.75,4.4-10.3,7.87a26.45,26.45,0,0,1-3,4.29c-1.17,1.13-2.9,1.67-4.22,2.68-7.29,5.57-14.52,11.22-21.8,16.79a19.86,19.86,0,0,1-3.84,2.35c-11.66,5.28-23.72,8.73-36.78,7.58a9.22,9.22,0,0,0-4.09.56c12.15,4.92,17.6,16,24.85,25.84-7-2.68-14.15-5.15-21.06-8.11-6.43-2.75-12.65-6-19-9.05a29.84,29.84,0,0,0-17.29-3c-3.4.44-4.37,1.48-4.33,4.69q.39,34.88.53,69.75c.09,15.46.07,30.91.1,46.36a6.54,6.54,0,0,1-.15,2.67c-.39.8-1.36,1.86-2,1.84a2.76,2.76,0,0,1-1.94-1.91,77.84,77.84,0,0,1-.19-8.09q.33-55.35.71-110.71c0-3.2-1.06-4.29-4.42-4.71-6.26-.78-11.71,1-17.23,3.43-12.27,5.34-24.61,10.51-36.93,15.73C110.88,300.62,110.16,300.79,108.39,301.35Z"/><line class="cls-1" x1="172.37" y1="124.07" x2="173.12" y2="285.98"/><path class="cls-2" d="M172.37,124.07c1.09,13.49,1.7,27,2.13,40.47.26,6.74.34,13.49.51,20.23l.23,20.24,0,20.24c-.11,6.75-.12,13.49-.32,20.24-.3,13.5-.79,27-1.76,40.49-1.11-13.49-1.71-27-2.14-40.47-.27-6.75-.34-13.49-.51-20.24L170.24,205l0-20.23c.1-6.75.12-13.5.32-20.24C170.92,151.06,171.39,137.57,172.37,124.07Z"/><line class="cls-1" x1="252.33" y1="137.01" x2="172.37" y2="278.67"/><path class="cls-2" d="M252.33,137c-5.76,12.31-12,24.39-18.3,36.37-3.13,6-6.42,11.94-9.63,17.91l-9.87,17.78-10.12,17.64c-3.45,5.84-6.82,11.72-10.35,17.51-7,11.62-14.12,23.16-21.69,34.45,5.75-12.31,11.94-24.39,18.29-36.37,3.13-6,6.42-11.94,9.63-17.91l9.88-17.78L220.29,189c3.45-5.83,6.83-11.71,10.36-17.5C237.63,159.85,244.77,148.31,252.33,137Z"/><line class="cls-1" x1="265.93" y1="235.44" x2="172.74" y2="278.67"/><path class="cls-2" d="M265.93,235.44c-7.33,4.54-14.87,8.64-22.48,12.57s-15.3,7.7-23.06,11.32-15.6,7.06-23.53,10.31-15.92,6.38-24.12,9c7.33-4.54,14.87-8.64,22.48-12.57s15.3-7.7,23.06-11.31,15.6-7.06,23.54-10.3S257.73,238.11,265.93,235.44Z"/><line class="cls-1" x1="93.15" y1="137.01" x2="173.12" y2="278.67"/><path class="cls-2" d="M93.15,137c7.57,11.3,14.7,22.84,21.68,34.46,3.54,5.79,6.91,11.67,10.36,17.5l10.12,17.64,9.88,17.78c3.21,6,6.5,11.89,9.63,17.91,6.35,12,12.54,24.06,18.3,36.37-7.57-11.29-14.71-22.83-21.69-34.45-3.54-5.79-6.91-11.67-10.36-17.51L131,209.07l-9.88-17.78c-3.21-6-6.5-11.89-9.63-17.91C105.11,161.4,98.91,149.32,93.15,137Z"/><line class="cls-1" x1="79.55" y1="235.44" x2="172.74" y2="278.67"/><path class="cls-2" d="M79.55,235.44c8.2,2.67,16.2,5.78,24.12,9.05s15.76,6.71,23.53,10.3,15.47,7.34,23.07,11.31,15.14,8,22.47,12.57c-8.2-2.65-16.2-5.76-24.12-9s-15.76-6.71-23.52-10.31S109.63,252,102,248,86.88,240,79.55,235.44Z"/></svg>