<svg id="Layer_1" data-name="Layer 1" xmlns="http://www.w3.org/2000/svg" viewBox="0 0 333.82 432"><defs><style>.cls-1{fill:#8dc63f;}</style></defs><title>tulip</title><path class="cls-1" d="M256.86,339.55c4.73-2.17,5.84-7.59,6.37-13.67,1.6,2.87,1.49,5-.44,9.56-.6,1.4-1.14,3.11-2.06,3.94-6.61,6-8.89,16.55-14.06,24-4.33,6.25-8,13.53-13.85,17.5-.38.26-.79.47-1.75,1,.22-3.66.4-6.71.58-9.76l.35.19c-.39-1.39-.78-2.77-1.41-5.05.43,8.78.6,16.67-2,24.14-1.79-2-1.25-7.25-4.89-7.72,1.05,3.7,2.07,7.31,3.27,11.53l-13.12-7,.11-.48,3.28.54.18-.73L214,385.63l3.59-1.36-4.41-3.46a11.78,11.78,0,0,0,1.75-1.47,3.43,3.43,0,0,0,1-1.85c-.26-4.37-4.2-8.25-7.1-7.65.31,1.68.5,3.42,1,5s1.16,3.05,1.85,4.81c-2.41-1.5-5.06-2.64-7.32-4.64-8.23-7.27-16.31-14.88-24.51-22.24a29.07,29.07,0,0,0-5.44-3.59c-6.12-3.39-12.16-7.15-18.43-9.9-7.68-3.37-15.55-6-23.4-8.63-1.5-.5-3.3,1-4.92.77a35.83,35.83,0,0,1-7-1.95c-.41-.14-.79-1-1-1.61-.87-2.81-3.69-3.81-5.28-1.79s-3,4.45-4.87,6.09c-1.34,1.22-3.16,1.47-4.77,2.16l-.41-1.4,7.51-8.43-.12-.93a24.73,24.73,0,0,0-3.44,1c-1.55.7-2.33,3.94-4.79,2-.8-.64-2.63,1.1-4.15,1.28l5-4.27-.21-1.37c-1.26.24-2.7,0-3.73.82-2.3,1.79-4.31,4.3-6.62,6.09-1.44,1.11-3.21,1.43-4.83,2.11l-.56-1.55c2.88-3,5.49-7,8.73-8.53,2.9-1.37,6.51,0,9.81.2a12.2,12.2,0,0,0,4.37-.24l-23.92-7.05.11-.74,16.93,2.48.1-.71a24.25,24.25,0,0,1-3.53-1c-3.31-1.42-6.55-3.14-9.88-4.42a27.92,27.92,0,0,0-5.45-1c-.54-.08-1.24.1-1.59-.3-3.43-3.91-7.73-1.2-11-3.11-1.31,2.13-2.35,3.79-3.56,5.76l.69,1.34c-2.6-2.41-5.19-1.77-7.86-.58-.45.21-1.12-.47-1.7-.73l1.47-.66c2.69-5.53,7.2-5.07,11.89-6l-3.2-1.35,2.12-2.26c-2.06-2.51-3.8-2.86-6-.68a5.41,5.41,0,0,1-4.55,1c-3.25-.55-6.44-1.64-9.66-2.51l.08.09c1.91-3.79,4.44-4,7.45-2.75,1.61.66,3.44.28,5.13.7a42.84,42.84,0,0,1,7.6,2.38c5,2.28,10,4.88,14.93,7.31a4.47,4.47,0,0,0,1.4.14c-6.79-4.43-13.4-8.66-20-13.05-2.63-1.77-5.1-4-7.7-5.85-1.71-1.23-3.37-3.73-5.5-1-.1.12-.37,0-.54,0-2.76-.84-5.54-1.61-8.27-2.61-.45-.17-.71-1.35-1.21-2.37L39.46,284l-.32-1.36a14.67,14.67,0,0,0,2-1.57c.77-.83,1.44-1.84,2.16-2.77a11.48,11.48,0,0,0-2.39-2c-3.51-1.5-7.07-2.78-10.58-4.24a10.61,10.61,0,0,1-2.07-1.56h0l8.48,2.67.18-.77L24.38,267.2l0-.43h5.42l.16-.68L24.62,263l.22-1.13L35.48,266l.29-.41L24.9,256.17l.38-.92c4.24,3.27,9.77,2.49,13.15,8.69l-2.13.12c-.07,2.6,10.62,10.9,14.21,11.22l-.75-3h0l-4.71-17.11c2.15,5.19,6.54,8.22,7.64,14.9.33,2,2.16,3.61,3.31,5.4l-1.6.46a43.28,43.28,0,0,0,3.85,4.34c3.94,3.31,7.9,6.6,12,9.6,3.34,2.46,6.85,4.51,10,6.54l-1.64-8.72v0q2.79,3.24,5.6,6.46c-1-1.49-1.76-1.52-1.69.79.08,3.06,1.66,3.85,4.25,4.27l-2.27-4.39L90.93,299l.5-.83c-1.75-3.17-3.56-6.28-5.2-9.55A11.37,11.37,0,0,1,84.8,284c-.15-9.7-2.49-18-7.81-24.66A17.76,17.76,0,0,1,74.65,255c4.5,3.4,6.26,11.06,11.2,13.72l.84-.67-6.51-21.6.84-.56c1.92,4.57,4,9,5.71,13.74s2.43,10.48,5.84,14.12c.47.5.33,1.95.75,2.64a21.79,21.79,0,0,0,2.36,2.78l1.18-1.34q-3.47-8.57-7-17.13l.22-.24,15.36,30.25-2.66,1.41,8,9.59.46-.47-1.13-2.89.28-.46L123.23,311c1-1.08-.09-5.41,3.33-3.17l-.17-1.28-3.84-4.27c.11,2.38.16,3.53.21,4.67l-.86.55-3.28-7.44-.57,2.12-4.55-5.29.24-.7,1.92.29-10.38-35.55.79-.59c2.23,4.64,4.45,9.29,7,14.5h-2.9c3.64,6.11,7,11.76,10.45,17.51l-2.74,3,19.59,20.58.66-.76c-.61-.94-1.19-1.91-1.84-2.79a16.75,16.75,0,0,1-2.08-3c4.2-.3,6.57,5.51,11.37,5.36l-1.95,2.08c3.81,4.46,8.69,6.36,12.72,10.24,4.2,4.05,8.62,7.7,13.31,11.85-3.3-6.91-7.91-11-12.42-15.24-2.87-2.71-6.37-5.32-6.66-10.38-.32-5.53-2.56-9-5-12.69s-4.85-7.15-7.28-10.72l-.8.91,11.26,22.07-.9,1c-3.23-3.08-7.34-4.13-8.76-10.87-2.33-11-7.18-20.43-12.25-29.53a39.41,39.41,0,0,1-2-5.06l.62-.54c1.27,1.89,3,3.51,3.73,5.73,2.18,6.42,6.17,9.93,10.4,13.19a105,105,0,0,1,8.6,6.89c-.93-1.71-1.87-3.42-3-5.39,3.22,1.38,9.92,10.58,14.39,19.68l-6.33-2.7-.16.48c3.28,3.26,6.68,6.33,9.8,9.84,2.74,3.09,5.19,6.66,7.74,10,4.29,5.66,8.55,11.35,12.83,17,1.63,2.15,2.64,5.24,5.61,5.2.89,0,1.8,2.55,2.69,3.94,1.09,1.69.76,5.39,3.73,4.58.48-.13,1.27,1.91,1.91,2.94,3.47-3.39,2.05-13.53-2.75-17.47l1.07,8.09-.67.44a56,56,0,0,0-2.59-5.33,9.91,9.91,0,0,0-2.74-2.9c-2.37-1.64-5.3-2.35-7.17-4.66-6.49-8-12.75-16.45-18.84-25.06-2.59-3.66-4.51-8.18-6.76-12.27a25.68,25.68,0,0,0-2.35-3.68c-3.45-4.25-4.66-10.23-6.92-15.4l.64-.91,3.63,4c1.22-6.13.57-8.64-2.89-12.06-3.2-3.16-6.43-6.29-9.48-9.7-1.28-1.44-2.16-3.57-3.22-5.39l.56-1.08c1.19.75,2.56,1.21,3.54,2.3,3.19,3.52,6.23,7.28,9.33,10.94l.6-.89q-4-4.79-8-9.59l.25-.53,8.88,6.85c-1.65-4.59,1.37-2.18,2.1-3.57-9.09-7.28-19.57-11.9-25.82-24.33l.63-1.26c1.18,1,2.38,2.05,3.54,3.12,2,1.82,3.83,4,6,5.43,1.6,1.07,3.58,1.05,5.31,1.82a43.52,43.52,0,0,1,4.74,3l-3.6-6.83,9.9,12.4c.13-1.25.19-1.8.18-1.7l7,2.74.63-1.34c-1.25-1.62-2.32-3.68-3.78-4.79-3.88-3-7.91-5.58-11.95-8.15-.42-.27-1.25.61-1.89,1-6.57-5-13.21-9.81-19.68-15-1.75-1.42-3-4-4.46-6.09l.53-.83c.41.16,1,.15,1.2.53,2.81,4.91,7.26,5.67,11.09,7.14,4.7,1.79,7.84,6.32,11.76,9.42a86.79,86.79,0,0,0,11.23,8.07L155.09,244l1.13-.94-7.72-6.34,2.59-.4.5-1c-2.17-2.43-4.12-5.38-6.54-7.21-8.19-6.18-16.58-11.88-24.81-18-1.57-1.16-2.76-3.28-4.13-5l.66-1.21,13.48,10.26.28-.74c-.66-1.32-1.31-2.65-2-4l.61-1c2.52,2.09,5,4.4,7.59,6.2,2.37,1.62,4.35,5.6,7.53,3.44l.55-1.48c-2.37-1.84-4.59-4.39-7.14-5.4-8.34-3.3-16.52-7-24-13.06-1.17-.95-2.28-2.06-3.41-3.09l.3-.93c4,2,7.91,4,11.91,5.93,5.2,2.46,10.34,5.57,15.71,6.86,3,.73,6,2.68,9.28,1.95,1.2-.26,2.87,1.18,3.91,2.46,2.16,2.65,4,5.71,6,8.6l.84-1c-1.65-2.8-3.29-5.61-5-8.59l2.29-1.32c-3.73-1.09-6.83-1.64-9.76-2.93-4-1.75-7.81-4.07-11.7-6.14l-.39-.27a5.36,5.36,0,0,1,.56-1c2.41,1.49,5.21,1,7.58,2.87.84.67,2.07.56,3.13.61s2-.28,3-.25c1.32,0,2.64.28,4,.43l.49-1c-.76-1.57-1.27-3.83-2.35-4.6-3.61-2.55-6.84-6.29-11.33-6.34-2.08,0-4.14-1.51-6.23-2.2-1.59-.53-3.22-.83-4.83-1.27s-3-.9-4.51-1.35l.23-1.48L137,188l.21-1.42c-2.8-.88-5.63-1.6-8.39-2.7-3.55-1.43-6.25-4.36-8.14-8.84-.58-1.37-2-2.17-3.13-3a14,14,0,0,0-2.89-1.26l3.34-3.38-7.2-6.69,1.19-1.83,10.81,10.76h-4.88l-.11.6c1.13.37,2.27,1.09,3.39,1,4.14-.21,6.55,3.68,9.34,6.8,2.55,2.84,5.22,5.47,7.84,8.2,3-4.52,4.48.74,6.59,1.51.9-3.53-.91-7.23-3.74-6.78-5.43.87-8.08-4.7-12.25-8.3,3.88-1.32,7.35,3.44,10.32-.42l13.91,22.67.52-.6c-3.21-6-6.47-12-9.59-18.12a7.34,7.34,0,0,1-.34-4.26l-3.63-3.77.3-.9h3.22c-3-4.44-5.19-9.74-10.34-10.17-3.43-.28-7.17.62-10.33-2.62-.64-.67-2,0-2.91-.3a5.1,5.1,0,0,1-2.6-2.11l18,2.47.16-.67c-.66-.63-1.67-1.07-1.93-1.93-1.53-5-4.47-5.37-7.89-5.13-2.33.16-4.7-.54-7-.86l-.19,1,11.75,5.29c-9.37-2.54-19.32-3.05-26.27-14,.93.65,1.84,1.39,2.8,1.93,1.77,1,3.42,3.25,5.55,1.11.17-.17.54,0,.81.07,6.19.89,12.37,1.74,18.55,2.72a3.12,3.12,0,0,1,1.85,1.53c4.6,7.91,9.12,15.91,13.72,23.82a9.91,9.91,0,0,0,2.08,2l.43-.71-6-9.18c2.72,1.94,4,8.21,8.43,4.86,3.86,7.14,6.23,15.59,11.41,21.19-3.8-8.64-7.76-17.14-11.79-25.57-.67-1.4-6.7-2.4-7.91-1.49-.14.11-.09.69-.13,1l-7.6-16.95c1.29-2.31,2.61-2.23,4.2-.72a47.57,47.57,0,0,0,4,3.12H140.1l-.12.92c2.58,1.27,4.1,6,8.64,3.94l-4.24-5a7.4,7.4,0,0,0-.09-2.24,24.69,24.69,0,0,0-3.73-6.53,20.66,20.66,0,0,1,2.67,2.85c2.87,4.39,5.65,8.89,8.45,13.37.47.75.87,1.58,1.3,2.38l.75-.77a57.17,57.17,0,0,0-2.91-7c-1.23-2.11-3-3.62-4.34-5.63s-2.6-4.48-3.92-6.8c3.38-1.48,5.7.13,6.55,4.35a10.76,10.76,0,0,0,.47,2.12q4.92,11.24,9.88,22.43a2.94,2.94,0,0,0,1.64,1.72c-1.46-4.21-2.89-8.45-4.38-12.65-1.59-4.49-3.1-9.05-4.89-13.39s-3.2-9.56-8.12-9.67c-1.46,0-2.91-2.15-4.12-4.09L145.9,129c-1.18-5.88-1.81-6.45-5.79-6.35-.85,0-1.71-.63-2.58-1.79l5.52-1.12c-.1-.78,0-1.67-.27-1.9-2-1.8-3.88-4.37-6.06-5-3.36-.94-7-.08-10.38-.84-1.83-.41-3.47-2.54-5.16-4-1.26-1.08-2.45-2.32-4.25-4,.21,1.93.29,2.71.42,4-6.82-3.85-14.27-5.23-19.53-13,5.7,3.57,11.13,8.22,18.32,8.38l-7.5-11.52.65-.91c2.67,3.26,5.62,6.2,7.93,9.86,2,3.18,4.33,3.87,7,3.66,1.67-.13,3.33-.59,5.46-1,.89,4.78,6.23-1.2,7.95,4.65l-4,.58c5.59.82,9.75,4.84,12.88,11.29l.71-.76V116l3.56-1.25c1.75,5.75,3.76,12.4,5.57,18.34a47,47,0,0,0,1.71-5.7c.56-2.9-1.89-2.93-2.73-4.55a1.69,1.69,0,0,1-.1-.34c-.62-2.57-1.25-5.14-1.9-7.8,2.66,0,4.38-6.94,3.16-9.82L153.09,112l-1.4-.81a27.35,27.35,0,0,1,.83-4c1.4-3.72,2.92-7.36,4.39-11l-.85-.61c-2.37,2.63-4.91,5.11-4.59,9a13.37,13.37,0,0,0-2.71,2.07,9.36,9.36,0,0,0-1.47,9.46q-3.78-5.19-7.58-10.37l.53-.82c.54.5,1.07,1,1.61,1.48.05,0,.17,0,.26-.07l-.2-.82h0l3.74,1.06c.85-3.63,5.22-6.95,2-13.7l-4.36,8.56c-.93-2-2.07-3.55.18-5.54,1-.88,1.35-3.11,2.28-5.44l-3.37,1.71V82.3c0-.25,0-.64,0-.72-3-2.64-.69-5.82-.4-8.69.83-8,1.83-16,2.75-23.94l-.66-.13V75.51L148,78l.29-.57c.47,1.14.94,2.29,1.86,4.56l4.58-10.07.58.06c-.52,4.69-.87,9.44-1.62,14C153,90.39,153,95.1,151,99l7.08-9.53c.8,9.64,1.81,18-1,26.34,6.78-5.65,9.14-14.18,8.82-24.58l1,.31c-.61,9.42-1.21,18.83-1.88,29.15,1.5-2.61,3.24-4.69,4-7.29a9.92,9.92,0,0,1,2.49-4.87c1.9-1.93,2.92-5.57,4.1-8.62a29,29,0,0,0,1-4.94l.77.22c-1,6.74-2,13.48-3.15,21.17-.6-2.19-.93-3.42-1.33-4.89l-13,23.42c-3.14,3-3.38,6.42-1.57,10.88A146.5,146.5,0,0,1,164.27,163c1.31,5,1.8,10.3,2.65,15.47l.56-.17-3.66-23.68a15.94,15.94,0,0,1,1.76,3.56c2.09,9.44,4.07,18.93,6,27.92l1.86-5-2.23,1.2c0-1.87-.46-3.89.07-4.64,2.37-3.39,1.16-7,.8-10.64,0-.3-.29-.56-.47-.9l-1.38.9c-4.51-4.43.4-8.82,0-14.36l-2.7,4c-1.23-2.36-3-4.39-3.37-6.82-.35-2.23.77-4.88,1.24-7.35a4.52,4.52,0,0,0-1.93,3.11c-.06,3,.25,6.07.41,9.11-1.22-3.09-2.45-6.16-3.67-9.25a1.09,1.09,0,0,1-.06-.7c2-3.43-.36-6.62-.27-9.94l3,4.49c1.75-4.22,4.2-8.21,5.07-12.76.76-4,1.43-7.1,4.31-8.75,1.11,9.79-2.59,18.54-3.71,29,7.08-9,9.89-19.27,9.9-31.16l.84,0v18.64l-1.49-.7c.67,7.69,1.34,15.39,2,23,8.51-9.81,11.37-23.42,13.6-37.49a81.45,81.45,0,0,1-4.5,26.07c-1.93,5.57-3.84,11.19-5.31,17-.54,2.12.19,4.85.68,7.28,5.28-6.56,8.51-13.87,6.78-23.83,1,1.7-.56,6,2.86,4.53.81,9.83-2.51,18.36-3.5,27.67l8.37-28.22,1.1.55c-1.34,5.18-2.4,10.53-4.1,15.48-2.88,8.4-5.38,16.9-6,26.12,2.13-1.91,2.56-2.68,2.14-5.67-.36-2.66.45-3.33,2-3.18.51,4.88,1,9.73,1.53,14.58l.8.13a137.82,137.82,0,0,0,9.41-29.35c2.12,7,1.53,13.25.82,19.54a22.48,22.48,0,0,0,.06,5.5c.3,2.29.92,4.5,1.19,5.76.31-8.54.65-18.06,1-27.57l1,0c.32,5.22,1.44,10.35.27,15.7a6.33,6.33,0,0,0,.24,2.41c.61,2.74,1.48,5.41,1.84,8.2.23,1.84,1.44,1.28,1.74,1.91a48,48,0,0,1,2.05,6.31l-.7.6-2.11-3.17c-1.31,2.18-1.23,3.58.74,8.53.2-1.69.35-2.92.55-4.67l11.29,12.2c-.53-2.11-.83-3.28-1.12-4.44l.26-.38c.87,1.43,1.53,3.43,2.64,4.19,6,4.07,8.68,12.49,13.53,18a19.33,19.33,0,0,1,2.07,3.86,19,19,0,0,0-1.19-1.54q-11.07-11.76-22.16-23.51c-.9-1-1.79-1.95-2.68-2.92l-.74.44c.21,2.22-.09,4.89.73,6.55,2.23,4.55,4.94,8.67,7.47,13,.57,1,1.19,1.9,1.69,2.94,2.22,4.7,4.22,9.61,6.66,14.09,2.13,3.9,4.77,7.28,7.12,11,2.24,3.51,4.2,7.43,8.26,8.76-1-4.51-1.47-9.07-4-12.28a31.48,31.48,0,0,1-6-12.24c2.44,2.27,4.18,3.91,6.61,6.18-.52-4.2.84-7.59-1.54-10.13L249,247.2c.39-3-1.67-7.32-3.31-8.87-2-1.86-3.57-4.45-5.33-6.72l.44-.77,2.27,1.3c0-4-.83-7-3.15-9.2-1.21-1.13-2.41-2.29-3.55-3.54-3.53-3.89-7-7.83-10.52-11.75l.52-.93,2.88,2.67-10.07-18.46.88-1c1.7,2.48,3.42,4.94,5.1,7.44,3.72,5.55,7.34,11.23,11.18,16.61,1.15,1.62,1.14,5.56,4.61,4l-3-7.3,4.55,4.07-.08-.12c-.07.87.57,1.28,0,2.76-1.13,2.76.85,4.73,3.11,5.95v-3.94l.66-.55c.6,1.37,1.19,2.73,1.79,4.09-2-.33-1,1.37-.78,2.27,1.15,5.58,2.75,11,3.44,16.71.81,6.67.84,13.51,1.21,20.26,1.74-4.9,5.18-9,5.41-15.77l-3.84,2c1.32-2.76,3.3-4.64,4.22-7.23s.63-5.66.88-8.54l-.8-.23c-1.65,3.27-3.3,6.55-4.85,9.61-1.71-6.59-3.34-12.87-5-19.15A27,27,0,0,1,253,237c1.05-4.83,5.06-6.84,4.14-12.3-1.39.61-2.7,1.68-3.93,1.52-.7-.1-1.24-2.22-1.87-3.4q-3-5.52-6-11l.79-.35a20.53,20.53,0,0,0-.06-4.65c-1-4.1-3.24-6.91-5.58-9.87-6.8-8.58-13.22-17.7-19.76-26.65a8.14,8.14,0,0,1-1.3-3.38L239.7,192l.8-.77-1.82-7,.38-.33c1.58,2.91,3,6,4.78,8.71,1.54,2.41,3.46,4.36,5.1,6.67a11.76,11.76,0,0,1,1.48,3.5c1.72,6.3,3.36,12.64,5,18.65l10-13.27-.58-1-8.74,4.07-.27-1.2,12.44-10.17c-.63,3.47-1.36,7.55-2.15,11.94,7.19-5,15.59-6.66,21.56-15.08l.49.87a49.18,49.18,0,0,1-4.19,5.06c-5.65,5.23-12,8.51-18.42,11.52-1.58.74-2.72,3.13-4.17,4.55-.71.69-1.67.88-3,1.54a32,32,0,0,0,.24,4.67c2.37,13,1.68,25.24-3.78,36.71-2.19,4.59-2.08,4.69-3.61,5.93l-4.35-13.21-.91.49c1.26,5.56,2.89,11,3.67,16.7s.69,11.34,1,17.12c1.17-1.57,3.57-1.86,2.53-6-.34-1.33,1.34-3.61,1.91-5,0-.17.14.56.31,1.28l.61,0c.2-1.57.39-3.15.62-5.06h-4.28l5.52-7.27c.74,10.74-.62,20-2.21,29.29l.05-.11c-1,2-2,4.15-3.16,6-.94,1.49-2.4,2.43-3.22,4a29.42,29.42,0,0,0-1.55,5.28s.05,0,.05,0c-.55-.71-1.38-1.29-1.6-2.15-1.32-5.18-2.51-10.42-3.8-15.91,3.26,1.64,7,2.25,6.1,9.32q3.31-6.24,6.65-12.48L254,288.61l-5,5c-3.55-5.14-7.63-10.82-11.5-16.76-2.3-3.51-4.24-7.44-6.37-11.16-1.2-2.11-2.45-4.18-3.68-6.27l-1,1.13,2.26,5.66c-5.33-4.3-8.58-11.14-12.06-17.68l19.6,19.95.51-.82c-2.44-4.75-4.19-10.36-8.76-12.48-.29.8-.53,1.48-1,2.91-.7-1.91-1.16-3.14-1.61-4.38-2.17,1-3.92-1.2-4-3.24-.13-4.9-3-6.07-5.14-8.52,0,2.31-2.13,4.76.52,6.69-1.45.93-1.56,2.17-.47,4.7,1.19,2.76,2.35,5.53,3.52,8.29q-5.64-8.79-11.27-17.58c5.36,11,11,21.62,18.64,30a83.84,83.84,0,0,0-5.56-8.56,28.23,28.23,0,0,1-1.88-4c2.09,2.11,4.8,2.95,6.18,6.53.72,1.84,2.36,3,3.5,4.55a32.25,32.25,0,0,1,1.77,3l-1.32-.76-.55.92,4.09,5.45,1-1.31-3.32-4.4c.91.33,2,.3,2.71,1,3.06,3.3,4.41,7.87,5.35,13,1.13,6.15,3,12,4.29,18.16,1.17,5.79,2,11.71,2.84,17.62a22,22,0,0,1-3.1,14.94A8.35,8.35,0,0,0,242,342.6a26.09,26.09,0,0,0-.32,3.9,7.38,7.38,0,0,0,2.31.25c2.16-.46,4.31-1.08,6.46-1.67a10.21,10.21,0,0,0,6.53-5.52Zm-32.15,5.82-14.89-14-.58,1.13c4.39,4.19,8.77,8.42,13.22,12.51.53.49,1.45.21,2.18.29l1.86,1.88.56-.43q-.48-3.42-.95-6.83l-1.06.14C224.93,341.81,224.82,343.59,224.71,345.37Zm15.64-39.56.79-.84a7.55,7.55,0,0,0-.36-2.48c-1.66-2.71-3.45-5.29-5.62-8.55l3.22,2,.51-.95c-7.19-4.79-10.79-14.68-17.07-21.22-.16,1.33-.28,2.35-.4,3.38l-.74.57-7.78-15.41-.3.2c.71,2.1,1.43,4.2,2.3,6.73l-6.34-5.47-.72,1.4c5.42,5.5,10.83,11,16.65,16.91l-1.08-3.48c10.84,15.76,14.87,35.5,19.34,55.1a51.81,51.81,0,0,0-.7-9.82c-.77-5.15-1.54-10.31-2.46-15.41a15,15,0,0,0-1.58-3.74c-.8-1.65-1.67-3.24-2.51-4.85l.4-.37ZM150,173.61c1.05,7.48,16.7,37.53,22.27,43.15L162.1,197.09l1.46-1.21-4.27-4,.52-1,2.41,1c-.34-4.2-5.33.17-4.64-5.46l2.54.19.44-.86c-1.41-1.77-2.74-4.82-4.24-5-1.93-.2-2.7-1.13-3.61-3A32.91,32.91,0,0,0,150,173.61Zm31.45-7c-3.13,3.83-3.32,9-4.3,13.74a8.08,8.08,0,0,0,.18,3.79c2.06,6.38,4.26,12.67,6.42,19l.51.25c.22-2.92.45-5.83.67-8.74l-.82-.25-1.53,3.14a77.27,77.27,0,0,1-1.19-8,79.68,79.68,0,0,1,.47-8.22l-2.53,2.8C177,182,176.61,182,182,175.08c.53,2.55,1.05,5,1.67,7.95C185.62,176.38,182.85,171.86,181.4,166.64Zm-80.21,141C100.86,296,95,279.23,91,276.35v2.59c-1.57-2.8-3-5.34-4.4-7.88l-.82.87,6.91,13.25a26.36,26.36,0,0,0,1.21,3.56c.37.77,1.42,1,1.67,1.78,1.6,4.88,3,9.86,4.58,14.78A18.44,18.44,0,0,0,101.19,307.59Zm26.16,7.71-.36.95,24.3,16.3C146.73,324.38,133.43,314.68,127.35,315.3ZM207,223.1c1.75,5.94,10.28,16.77,13.29,18.11.45-5.43.25-9.64-3.73-11.39l-.46,5.05c-4.55-2-2-7.87-3.74-12.24l-1.45,6.2c-.94-1.42-1.59-2.42-2.26-3.4C208.08,224.64,207.52,223.87,207,223.1Zm-15.43,65.17c-3.06-7.27-20.76-24.54-25-25.13Zm4.29-57.69c5.15-4.56,8.52-17.12,6.44-23.2C200.28,215.15,196.74,221.64,195.83,230.58ZM243.05,365q3.6-6.08,7.25-12.21c-7.65,1.32-10.33,4.38-10.1,10.27Zm-12.93-42.18a55.37,55.37,0,0,0,.81,5.51c.81,3.25,1.89,6.37,2.68,9.63.73,2.95,1.16,6,1.88,9,.17.72,1,1.14,1.49,1.7a7.2,7.2,0,0,0,.4-2.48c-1.09-4.47-2.32-8.87-3.47-13.31-.23-.89-.64-2.09-.39-2.75C234.94,326.26,234.08,324.06,230.12,322.79Zm-61.47-92.31-.68.8,18.78,29.66.75-.89C181.57,249.77,176,239.08,168.65,230.48Zm-4.87,52.35c4.56,10.33,12.28,14.65,19.79,19.36Zm-4.22-67.89-.68.92,18.57,24,.66-.93C172.08,230.71,166.7,221.57,159.56,214.94Zm17.23,70.37c4.29,7.72,8.87,15,15.48,18.89l.6-1Zm-13.61-40-.82,1.44L179.55,265l.71-1.24Zm13.76-38.22q5.28,13.06,10.55,26.13C185,223.81,183,214,176.94,207.08Zm.18-51.33c-4.46,3.76-4.1,6.65-2,13.57C177.27,165.13,177.61,160.72,177.12,155.75ZM156.06,258.68c2.05,5.06,11,13.37,14,13.36C164.7,268.71,161.86,260.82,156.06,258.68ZM197.7,328l.61-1.21c-3-3.1-6-6.27-9.08-9.26a27.25,27.25,0,0,0-4.33-3.19,1.36,1.36,0,0,0-1.41.28,1.94,1.94,0,0,0-.35,1.46c.26.57,1.06,1.41,1.16,1.31,2.46-2.66,3.28,1,4.64,2.25C191.91,322.31,194.78,325.17,197.7,328ZM185.18,186.64l-.94.59q3.31,11.1,6.62,22.2C189.48,201.59,189.81,192.89,185.18,186.64Zm53.65,80.14c2.16,4.27,4.32,8.54,6.85,13.52C246.85,273.18,245.5,270.58,238.83,266.78Zm-53-87.93.89.4q2.17-7.5,4.37-15c-1.88,2.46-2.83,5.73-4.54,7.92C184.7,174.56,185.18,176.5,185.85,178.85Zm19.27,178.81c-1.15-1.74-2.18-3.29-3.73-5.61,0,2.86-.12,4.61,0,6.3a27.37,27.37,0,0,0,.92,4l3.63-1.82-2.39-1.92Zm-54-265.09c.93-4.62,1.74-8.69,2.56-12.75l-.79-.31L148.5,91.19Zm24.67,47.07-.74-.42q-2.49,6.15-5,12.3l1,.7C174.49,149.4,174.24,143.87,175.77,139.64ZM162.37,294l-.94,1.33c1,1.66,1.82,3.68,3.06,4.87.93.88,2.41.68,3.64.95l.33-1.33ZM250.8,215c1.5-6.71.39-9.31-3.41-9.41C248.56,208.85,249.68,211.93,250.8,215Zm-28.58,92.27c1.73-3.69,1.59-5.65-.68-9.45C220.32,301.09,220.63,305.42,222.22,307.29Zm-21-109.36-.75-.39c-3.54,6.5-4.4,9.61-3.25,13C198.67,206.08,200,202,201.25,197.93Zm10.52,43.92c.46-2.82,1.81-5.64-1.11-7.55C208.84,239.66,208.84,239.66,211.77,241.85Zm7.81-12.51.73-1.25-8.79-9.5-.69,1.17Zm8.26,95.49-1.23.77q2,5.1,4,10.2l1-.66Zm-40.51,31.24c-1.48-3.79-2.68-6.86-3.89-9.93C183.21,350.36,183.05,354.52,187.33,356.07Zm19.52-97.72h.9V248.5H207C207.31,251.78,205.11,255,206.85,258.35Zm33.74,109.3c-4,.46-4.34,4.7-5.91,7.37Zm-5.09-48.73-.91.82L238.4,327C239.45,322.55,236.82,321.3,235.5,318.92ZM202.9,245.3l-.24-.2c-.56,1.27-1.13,2.54-1.77,4l-3.24-4.73-.45.48,4.07,7.51C201.93,249.48,202.42,247.39,202.9,245.3Zm5.2-16-.58-.73-1.24,1.37-1.53-2.7-.48.27,1.44,7.08Zm30.57,127.16,4.51-5.12c-.22-.34-.45-.67-.67-1C240,350.29,239.16,352.55,238.67,356.46Zm-63.83-50.65-.51.84,5.38,6.27.69-1.15Q177.63,308.78,174.84,305.81Zm61.32,12.06.49-.62q-2.9-4.58-5.78-9.14l-.68.84Zm8.9-89.09c-.81,5.11-.8,5.12,2.87,6.14ZM87.25,284.87l.77-.26q-.8-4.16-1.58-8.33l-1,.38C86,279.4,86.63,282.13,87.25,284.87Zm117.11-78.34.91,0v-8.82h-.91Zm18.82,108.55,2.9,6.67C227.74,316.72,224.15,317,223.18,315.08ZM172.3,334.46l-1.05.49,1.69,6.13.92-.48Zm22.07-122c-2.8,3.94-2.8,3.94-.59,6.86C194,217.06,194.14,215.23,194.37,212.49Z"/><path class="cls-1" d="M182.45,375c-4.37,1.76-8.73,3.56-13.11,5.28-8.14,3.2-16.31,6.18-24.88,6.23a4.43,4.43,0,0,1-3.06-1.1c.77-.69,1.49-1.75,2.34-2,4.28-1.31,8.59-2.42,12.66-3.54L155.06,381c8-1.78,15.76-4.37,22.48-11-3.81-1.58-7.41.4-11.9,1.07l3.7-3.26-.1-.7c-3.36.64-6.94.49-10,2.06-11.94,6-24.49,7.46-36.93,9.71-3.31.6-6.72.09-10.15-.26,9.83-3,19.87-4.8,29.54-10.65l-2.43-2.14,14.77-3-2.2,2.51c3.51,1.66,6.38,0,9.13-1.85,2.5-1.69,4.69-2.26,7.51-.64,2.34,1.34,5.2,1,7.83,1.46a6.11,6.11,0,0,1,1.33.6c-.21.78-.39,1.42-.65,2.35.65-.13,1.09-.2,1.52-.31,1.5-.4,3-.77,4.51-1.27a7.28,7.28,0,0,0,1.59-1.05c-.37-.77-.62-1.94-1.13-2.24a17.17,17.17,0,0,0-4-1.46c-4.5-1.24-9-2.37-13.53-3.66-.64-.19-1.12-1.22-1.77-1.58s-1.71-.58-1.82-.31c-1.14,3-3.29,1.82-4.32,1-1.94-1.49-3.58-.59-5.42-.48-2.18.13-4.38-.55-6.58-.75-4.82-.44-9.65-.79-14.48-1.18l-.09,1.23c1.8,1.09,3.63,2.12,5.39,3.3a3,3,0,0,1,.86,1.56c-.55.92-1.19,2.24-1.9,2.37a33.51,33.51,0,0,1-5.67.11l-.49-1.1,1.91-.55-.6-1.3a69.55,69.55,0,0,1-7.65,2.28c-4.27.79-7.64,4.64-11.73,5.91-3.71,1.15-7.46,2.05-11.19,3.06l-.27-1.16,15.76-6.78-.16-1.51-5.22-.41-.17-1.06a33.44,33.44,0,0,1,5.26-1.68c4.11-.64,8.53.67,12.34-4.27l-5-2.2,0-1.26c1.55-.15,3.16-.73,4.64-.35,2.29.58,4.35,1.47,6.46-1.06.66-.8,2.28-.12,4-.12-.62,1.58-.89,2.28-1.35,3.47,1.31.12,2.55.65,3.57.24,3.83-1.55,7.59-3.4,11.45-5.17h-4.28c3-2.1,5.7-3.45,9.28-1.59,5.64,2.92,11.55,5.45,17.5,6.45,3,.51,4.82,2.42,6.86,4.45,3.85,3.81,7.58,7.86,11.47,11.92-4.08-1.41-9.43,2.11-10,6.4C182.53,375.06,182.5,375,182.45,375Zm-24.83-23.81,0-1.18c-2.36-2.07-4.18.62-6.11,2.28Z"/><path class="cls-1" d="M254,149.83c1,1.67,1.84,3.42,2.87,5a15.37,15.37,0,0,0,2.4,2.31c2.29,9-.44,18.47-1.2,28.7l10.73-13.75-.58-1-7.51,3c3.16-5.89,7.73-7.26,12.4-10.8l-3.86,12.38C272.34,177,284,171,291.84,163.83c-6,16.17-16.74,23.65-28.6,29.6-.31-3.17,1.33-3.84,2.79-4.76,4.34-2.71,8.86-5,12.94-8.32,3.31-2.68,6.08-6.57,8.81-10.49-8,5.13-16.14,9.58-25.43,11.77,2.37,10.44-3,17-7.5,24.67L250.09,196l.53-.5,2.22,3.6c1.43-2.24.28-3.31-.8-4.56-3.35-3.85-6.67-7.76-10-11.69a17.48,17.48,0,0,1-1.32-2.16l.45-.75,11.18,10.91c.15.14.26.51.39.51,3.36.21,3.64,3.43,3.49,7.07l.84.33q2.66-6.19,5.32-12.4l-.84-.92c-.79.72-1.6,1.4-2.36,2.16-1.77,1.76-4.47.74-4.52-2.14-.09-4.67-2.74-6.95-4.29-10.24-.39-.84-.88-1.6-1.32-2.4l.72-1,5.08,5.86c1.14-4.49.38-7.66-2.56-10.18-2.18-1.87-4.38-3.71-6.46-5.78a25.32,25.32,0,0,1-2.6-3.82l.48-.68,4.06,3.13.45-.64-3.93-8.2.64-.79a31,31,0,0,1,2.59,3.57c3.24,6,6.39,12,9.58,18.07l1-.65a17,17,0,0,0-.43-3.09c-1.16-3.57-2.37-7.13-3.67-10.61a10,10,0,0,0-1.87-3.16c-3.47-3.8-5.1-9-6-15L254,150.15Z"/><path class="cls-1" d="M115.23,345.23c4.16,2.24,7.75,2.24,10.07-4.22-7.49.18-14.58.15-21.51,3.93-3.64,2-7.94,1.6-11.8,3-3.4,1.24-6.56,3.61-9.89,5.24-2.54,1.25-5.17,2.14-7.76,3.19L74,355.1l12.19-5.58H76.07l-.09-.93a8,8,0,0,1,1.63-.71c5.14-.9,10.28-1.13,15.3-3.76,4.3-2.26,9.52-1.68,13.51-4.51,4.35-3.1,9.1-3.37,13.43-5.87.69-.4,1.56-.26,2.62.46l-3.19,3,.09.93c3.77-.88,7.77-1,11.23-2.89,2.45-1.35,4.34-1.06,6.53-.23,2.62,1,5.22,2.12,7.87,2.95a59.27,59.27,0,0,0,6,1.25L148.33,342c-1.71-1.22-3.61.68-5.29,3.07s-3.34,2-5.88.83l6.53-5.62-.06-.64a11.09,11.09,0,0,0-2.51.79c-1.7,1-3.35,3.08-5,3-6.26-.17-11.57,4.89-17.63,5.31-1.12.08-2.3-1.23-3.45-1.9Zm21.63-6.38c-3.72-1.09-6.66.93-8,5Z"/><path class="cls-1" d="M112.63,261.37c3.82,8,7.39,16.27,11.56,23.93,2.06,3.81,5.2,6.54,7.86,9.75l.61-.58L123.82,273c5.45,10.8,12,20.67,15.51,34.37-1.66-1-2.58-1.64-3.54-2.12s-2.39-1.63-3.36-1.27c-2.77,1-3.8-1.11-5.07-3.75-3.66-7.62-7.56-15-11.26-22.61-1.6-3.28-2.94-6.8-4.54-10.55l2,.66-1.81-5.78Z"/><path class="cls-1" d="M261.39,164.26q3.56-4.92,7.12-9.83l-.29-.63-5.75,2.39c-.16,1-.41,2.43-.66,3.9l-.72-.1V144.94l1.47,1.69a6.86,6.86,0,0,0,.19-1.12c0-1.87.16-3.74.06-5.6-.32-5.88-.35-5.88,1.61-10.87v13.29l.73.38c.49-1.49,1-3,1.47-4.46l3.3-9.66,1.24.71c-1.29,4.14-2.46,8.36-3.91,12.39-1.37,3.84-3,7.49-4.55,11.22l.67.49L275.44,145l.55.71-5.32,10.41.22.89,16.2-7.34c-4.52,6.58-7.17,14.25-13.78,17.53,1.05-6,5.92-6.54,7.34-11.5-6.14,3.45-13.41,2.42-18.48,9.92Z"/><path class="cls-1" d="M141.91,105.53c-1.13-2.49-2.38-4.91-3.35-7.51-.65-1.74-.82-3.8-1.36-5.63a16.4,16.4,0,0,0-1.67-4.06c-4.5-7.09-9.07-14.09-13.6-21.13a4.38,4.38,0,0,1-.72-2.43c5.46,6,9.71,13.68,14.67,20.42-1.73-9.57-9.18-14.81-10.33-25.63l4.25,1.13L127.87,65c4-1.09,4-1.09,4.08-5.16L136.67,80l.91-.34-2.79-15.39.48-.26c.8,3.15,1.65,6.28,2.4,9.45,1.21,5.09,2.54,10.15,3.44,15.34a84.57,84.57,0,0,1,.61,10.14c.1,2.21.13,4.42.19,6.64Z"/><path class="cls-1" d="M78.58,287.69l-2,3.88c-5.36-4.77-11.86-8.66-13.83-19.78l-2.17,4q-4.9-9.14-9.8-18.22l.45-.53,8.2,13.16.3-.49L57.23,258.5l.51-.56,3.38,2.74-1.23.81,2.88,7.91,1.18-.68-1.87-6.44c3.68,3.56,8.45,5.18,10.61,11.48-1.15-1.24-2.29-2.49-3.82-4.16,1,5.72,1.86,10.83,3,15.83.25,1.14,1.5,1.87,2.55,3.09l.69-3.11c1.24.85,2.35,1.6,3.47,2.34A.15.15,0,0,0,78.58,287.69Z"/><path class="cls-1" d="M59.22,325.66c4.45-3.63,8.82-7.5,13.42-10.74,1.34-.95,3.35-.15,5.1-.15l-2.09-3,.27-.58a78.06,78.06,0,0,0,7.89,5A63.77,63.77,0,0,0,91.88,319c-3.79,2.16-7.72,4.84-11.85,6.63s-8.68,2.79-13,4.13l-.18-1,8.52-4.08-.22-1.13-5.45,1.23-.08-.34,12.53-6.08c-3.05-1.78-5.18-2.61-7.55-.19-2.59,2.65-5.4,4.92-8.13,7.33a1.32,1.32,0,0,1-.78.25l-6.16.42Z"/><path class="cls-1" d="M62.08,310.51l-1.47.66c-1.83,5-5.64,5.53-9,7l6.06-4.22c-4.22-1.16-7.32-2.89-11-.68-5.29,3.13-10.92,5.17-15.43,7.23,2.75-2.66,6.42-6.13,10-9.74,1.3-1.3,2.36-3,3.67-4.34a6.91,6.91,0,0,1,2.63-1.4,7.81,7.81,0,0,0,3.17-1.54H46.32l6.39-4.62-.08-.09,3,3.49-13.46,9,.46,1.25c4.55-2.88,9.06-5.9,13.69-8.56,1.07-.61,2.53,0,3.81.07v1.19l-6.93,4.91.2,1c1.95-.28,3.9-.62,5.85-.81A16.25,16.25,0,0,1,62.08,310.51Z"/><path class="cls-1" d="M261.41,314.69q-5.85,5.88-11.7,11.76a8.84,8.84,0,0,1-1.17.86c-1-5.13-.63-6.5,2.48-8.17,4.71-2.52,8.88-5.87,11-12.57l-15.41,9c.5-2.11.78-3.25,1.06-4.4,0,0,0,0,0,0,.38.3.92,1,1.09.85,4.78-3.85,9.69-7.46,14.18-11.87,1.77-1.74,2.58-5.31,3.85-8.1a20.23,20.23,0,0,1-.25,4.2c-1.69,6.25-3.53,12.44-5.31,18.64Z"/><path class="cls-1" d="M125.57,80.15c.44.16,1.08.13,1.29.52,2.87,5.38,5.67,10.82,8.64,16.53L109,86l.17-.78,12.45,4.24c-.24-6.35-4.44-7.93-6.39-12,2.16,1.66,5.39.47,6.43,5.12.21.94,1.68,1.36,2.43,1.93.23-2.11.37-3.45.51-4.79Z"/><path class="cls-1" d="M182.45,375c.05,0,.08.09.08.21,3.67,1.35,6.55-.89,9.49-3.49,2.06-1.82,4-.72,5.62,1.65l-7,4.9c3.2,2.49,3.25,2.53,4.81-.31.8-1.46,1.41-3.12,2.1-4.68l14.13,10.81-.12.56c-4.48-1.61-8.94-3.37-13.47-4.71a4,4,0,0,0-3.54,1.28c-2.53,2.69-3.76,2.32-5.48-1.35-.45-.95-2.27-.64-3.43-1.07a20.5,20.5,0,0,1-3.53-1.78A11.87,11.87,0,0,1,182.45,375Z"/><path class="cls-1" d="M135.13,139.73,129.57,137l2.57,4.45-.25.81c-.74-.24-1.81-.13-2.18-.76-4.3-7.57-11-10.11-16.66-14.68-1.56-1.25-3-2.81-4.47-4.23l.27-1.11a28,28,0,0,1,4.93,1.65A158.76,158.76,0,0,1,129.16,132c2.35,1.61,4.11,4.82,6.13,7.31Z"/><path class="cls-1" d="M256.86,339.55h.08c-.32-2.37-1.38-1.35-2.28-.89-2.75,1.41-5.47,2.89-8.23,4.26a9.78,9.78,0,0,1-2.41.45c1.48-4.42,2.74-8.18,3.88-11.56,5.06,1.49,8.48-4.48,13.36-5.19A40.83,40.83,0,0,1,256.86,339.55Zm-8.56-2.72.43,1.57,7.43-4.08-.25-.81Z"/><path class="cls-1" d="M28.36,292.11a13.22,13.22,0,0,1,2.27,0,7.39,7.39,0,0,0,7.94-3.5C41,285,44,286.12,46.93,286.81c2.7.65,5.34,1.73,8.14,2.66-2.91,4.58-6.18-1-9.4.76l1.58,2.58c-.25.25-.43.57-.66.63-2.15.64-4.31,1.26-6.47,1.83-.44.12-1.14.26-1.32,0-2-3.47-4.42-1.13-6.7-1a14.27,14.27,0,0,1-3.88-.83Z"/><path class="cls-1" d="M203.74,144.88a91,91,0,0,1-8.64,43.37c.16-2.88-.26-6.11.58-8.56a179.63,179.63,0,0,0,7.54-32.76A18.65,18.65,0,0,1,203.74,144.88Z"/><path class="cls-1" d="M287.15,229c-2.63,9.39-19,24.54-29.73,27.09,1.17-1.61,1.74-3,2.57-3.43a89.79,89.79,0,0,0,26.41-23.19C286.57,229.21,286.85,229.14,287.15,229Z"/><path class="cls-1" d="M216.8,248.61c-2.65-1.93-.51-4.38-.52-6.69,2.17,2.45,5,3.62,5.14,8.52.05,2,1.8,4.24,4,3.24.45,1.24.91,2.47,1.61,4.38.51-1.43.75-2.11,1-2.91,4.57,2.12,6.32,7.73,8.76,12.48l-.51.82-19.6-19.95Z"/><path class="cls-1" d="M266.21,267l-5.92,4-.77-.79c.41-1,.64-2.43,1.27-3a57.25,57.25,0,0,1,5.13-3.61c1.22-.86,1.93-.43,2.08,1.47.46,6.06-4.31,16.36-8.81,19-.44-5.79.44-7.31,3.78-9.79,1.67-1.22,2.72-4,4-6Z"/><path class="cls-1" d="M255.57,296c.84-1.1,1.55-2.55,2.55-3.24,7-4.83,12.8-11.87,18.36-19.29a27.51,27.51,0,0,1,2-2.25l.61.83a25.71,25.71,0,0,1-2.55,4.42c-3,3.33-4.64,9-9.15,9.72-.94,4-3.58,5.5-5.92,7.4a38.12,38.12,0,0,1-4.67,3.18c-.27.15-.81-.57-1.23-.88Z"/><path class="cls-1" d="M143.85,161.57c0-.36,0-.94.13-1,1.21-.91,7.24.09,7.91,1.49,4,8.43,8,16.93,11.79,25.57-5.18-5.6-7.55-14.05-11.41-21.19-4.42,3.35-5.71-2.92-8.43-4.86Z"/><path class="cls-1" d="M274.51,224.69c-1.85,9.57-7.23,14.34-13.19,18.76-.19-3.09-.19-3.09,4.41-8.5l-2.8,1-.4-.74c.89-.94,1.75-2.61,2.69-2.69C269.4,232.1,271.83,228.26,274.51,224.69Z"/><path class="cls-1" d="M100,104.36c2,1.58,4,3.38,6.1,4.7a73.29,73.29,0,0,0,6.92,3.47,69,69,0,0,1,6.85,3.38c1,.66,1.8,2.22,2.39,3.87-8.63-2.09-16.08-7.14-22.68-14.53Z"/><path class="cls-1" d="M282.29,211.06c-5.16,9.42-12.9,14-20.51,18.87l-.77-.75c.35-1,.51-2.39,1.09-2.83C268.82,221.15,275.6,216.1,282.29,211.06Z"/><path class="cls-1" d="M242.22,179.26c-8.82-7.63-15.67-18.72-20.73-32Z"/><path class="cls-1" d="M229.49,394.64c1.6,5.26,1.89,10.21-2.72,14.18a69.83,69.83,0,0,0-2.1-7.24c-.65-1.62-1.86-2.82-2.95-4.4.38-.34,1.17-1,2-1.75l3.4,3.58c.47-1.78.88-3.3,1.28-4.82Z"/><path class="cls-1" d="M125.57,80.15l-1-.52c-5.17-4-10.36-8-15.5-12.06a17.58,17.58,0,0,1-4.42-5.2c5.18,3.82,10.37,7.6,15.53,11.46,1.85,1.38,3.64,2.91,5.39,4.49C125.81,78.5,125.59,79.52,125.57,80.15Z"/><path class="cls-1" d="M17.19,275.23c3.82.36,7.65.61,11.46,1.13a66.33,66.33,0,0,1,11.17,2.46,16.6,16.6,0,0,1-4,1.46c-.95.1-1.95-.71-2.94-1.06a13.83,13.83,0,0,0-2.59-.75c-4.4-.64-8.81-1.22-13.22-1.82Z"/><path class="cls-1" d="M102.33,263.07c5.26,8.16,6.94,18.59,9.55,28.48l-1.12.61c-1.35-4.86-2.66-9.74-4.06-14.57S103.79,267.91,102.33,263.07Z"/><path class="cls-1" d="M85.36,337.2,65.91,350.84l-.43-1.11a31,31,0,0,0,3.27-2.28c3.75-3.32,7.38-6.88,11.19-10,1.4-1.16,3.18-1.47,4.79-2.18Z"/><path class="cls-1" d="M265.57,325.93c.34-1.49.34-2.71.79-3.23,4.28-5,8.63-9.83,12.65-14.37C278.43,313.09,273.51,319.87,265.57,325.93Z"/><path class="cls-1" d="M254,149.83l.09.32c0-4.53-2.48-6.82-4.53-9.61-3-4.13-5.84-8.53-8.74-12.82l.59-.76c5.06,6.83,10.12,13.66,15.7,21.21Z"/><path class="cls-1" d="M258.82,153.33c-1.61-8.91-1.38-17.9-2-27.48C261.25,135.11,258.13,144.46,258.82,153.33Z"/><path class="cls-1" d="M239.64,129.29l3.21,11.15c-2.82-1.9-6.24-8.4-9.88-18.34,2.1,2.24,4.39,4.71,6.69,7.17Z"/><path class="cls-1" d="M49.76,272.27c-3.26-.82-5.52-3.37-6.88-7.44l-.08.09,1.08,1,.38-.36c-1-2.83-1.93-5.68-2.94-8.48a56.63,56.63,0,0,1-2.68-8.5c3.19,7.08,6.36,14.16,9.57,21.22a19.17,19.17,0,0,0,1.56,2.48Z"/><path class="cls-1" d="M269.17,263.09a14.36,14.36,0,0,1,1.46-2.79c3.51-3.94,7.08-7.78,10.29-11.29.2,3.37-5,11-10.87,14.77Z"/><path class="cls-1" d="M234.05,177q-7-9.31-14.06-18.65l1-1.37c2.14,2.6,4.26,5.24,6.43,7.79,1.66,1.94,3.49,3.62,5,5.7a39.48,39.48,0,0,1,2.78,5.21Z"/><path class="cls-1" d="M189.51,123.05l-7.67,22.37-1.21-.62a30.46,30.46,0,0,1,1-4.31c2.32-6,4.73-11.82,7.12-17.72Z"/><path class="cls-1" d="M271.06,331.16c-3.35,7-7.87,12.13-13.92,14.64Z"/><path class="cls-1" d="M16.83,304.12,34,297.34c-4.89,5.76-11.35,4.78-16.83,8Z"/><path class="cls-1" d="M37.27,287.32c-2.72.87-5.47,1.62-8.16,2.66s-5.18,2.32-7.85,3.14c5.35-2.07,10.1-6.47,15.53-8.19Z"/><path class="cls-1" d="M181,121.88q2-12.8,4-25.58l.43,0q-1.53,12.91-3,25.83Z"/><path class="cls-1" d="M82.38,287.89,75.86,282c-1.4,1.14-1.62.66-1.92-7.17l8.8,12.55Z"/><path class="cls-1" d="M242.5,214.82a38.06,38.06,0,0,0-2.33-5.16c-2.21-3.46-4.6-6.71-6.64-9.64,5.9,2.31,8.48,9.77,11.61,16.47l-2.72-1.79Z"/><path class="cls-1" d="M269.12,203.3c1.33-6.38,6.82-7,8.81-12.44l1,1.42-8.92,12.11Z"/><path class="cls-1" d="M39.4,333.53c4.21-1.25,8.16-4.56,12.7-3.2l.19,1.48-12.67,3Z"/><path class="cls-1" d="M275.82,282.53c.19,4.26-4.75,13.84-8.36,15.15Z"/><path class="cls-1" d="M168.42,99.29a74.91,74.91,0,0,0,.34-8,49.67,49.67,0,0,0-1.5-6.79C171.77,87.81,171.93,90.45,168.42,99.29Z"/><path class="cls-1" d="M109.44,293.75Q104.63,283,99.8,272.16l.54-.46q5,10.65,10,21.31Z"/><path class="cls-1" d="M227.29,143.25a86.46,86.46,0,0,1,5.63,8.19c1.14,2.08,1.64,4.82,2.24,7.43A55.53,55.53,0,0,1,227.29,143.25Z"/><path class="cls-1" d="M92,70.18l11.82,12C100.79,81.7,93.59,74.11,92,70.18Z"/><path class="cls-1" d="M284.79,258.2A30.87,30.87,0,0,1,280,270.8l-1-.88Z"/><path class="cls-1" d="M229.54,141.37l10.09,11.78-.81,1-9-13.33Z"/><path class="cls-1" d="M208.05,168.27c-3.07-4.33-1-8.53,0-12.76Z"/><path class="cls-1" d="M114.26,55.47c1.81,3.56,4.59,6.25,5.7,10.43l-.87.79L113.56,56Z"/><path class="cls-1" d="M133.65,199.74l.39.27a32,32,0,0,1-4.26-2.23c-1.93-1.4-3.75-3.1-5.4-4.49C126,192.79,131.82,196.63,133.65,199.74Z"/><path class="cls-1" d="M116.86,120.51c2.48,1.75,5.83-.35,7.85,3.37l-.27,1.21-8-3.33Z"/><path class="cls-1" d="M136.8,381.25l8.29-1,0,.35-8.69,4.26-.22-.86,2.29-.64,0-.59-1.73-.47Z"/><path class="cls-1" d="M28.24,270.5c-3.46,3.76-6.09.23-8.82-2.36l8.8,2.38Z"/><path class="cls-1" d="M62.08,262.28,64,268.72l-1.18.68-2.88-7.91,1.23-.81Z"/><path class="cls-1" d="M132.05,165.9l6.79,1.44c-1,3.84-2.67,2.6-4.17,2C135.32,166.16,132.68,167.78,132.05,165.9Z"/><path class="cls-1" d="M42.88,264.83c-2.77-1.41-4.79-4-6.37-7.19l.73-1.06,5.56,8.34Z"/><path class="cls-1" d="M124.79,117.58l5.81,6.61C126.61,124.35,125.94,120.56,124.79,117.58Z"/><path class="cls-1" d="M140.08,73.9,141.28,57l.51.06q-.48,8.49-.94,17Z"/><path class="cls-1" d="M84.46,294.86l2.27,4.39c-2.59-.42-4.17-1.21-4.25-4.27-.07-2.31.67-2.28,1.69-.79C84.26,294.42,84.36,294.64,84.46,294.86Z"/><path class="cls-1" d="M63.17,257.48c-2.09,0-4.54-4.15-6.24-10.54Z"/><path class="cls-1" d="M219.73,203.79l4.63,7.12c-3.67.17-4-3.71-5.28-6.39Z"/><path class="cls-1" d="M106.51,338.2l-7.06,1.11L99.32,338l7.08-1.14Z"/><path class="cls-1" d="M29.07,282.61,19,284.67l-.08-.72L29,281.74Z"/><path class="cls-1" d="M56.49,254.06l-3.67-10.74.55-.37q1.93,5.3,3.86,10.6Z"/><path class="cls-1" d="M261.41,314.69l-.16.24,6.31-4.51.44,1.31-6.65,3.62a1,1,0,0,1-.07-.34A1.08,1.08,0,0,1,261.41,314.69Z"/><path class="cls-1" d="M70.73,256.51c-1.08-2.32-2.15-4.64-3.23-7l1-.77,2.71,7.36Z"/><path class="cls-1" d="M153.82,361.55l-7,.44,0-.51,7-1.36Z"/><path class="cls-1" d="M239.64,129.29l0,0Z"/><path class="cls-1" d="M62.08,310.51a16.25,16.25,0,0,0-2.77-.22c-2,.19-3.9.53-5.85.81l-.2-1,6.93-4.91V304c-1.28-.06-2.74-.68-3.81-.07-4.63,2.66-9.14,5.68-13.69,8.56l-.46-1.25,13.46-9-3-3.49c3.22.87,6.41,2,9.66,2.51a5.41,5.41,0,0,0,4.55-1c2.25-2.18,4-1.83,6,.68l-2.12,2.26,3.2,1.35C69.28,305.44,64.77,305,62.08,310.51Z"/><path class="cls-1" d="M147.29,116.13a9.36,9.36,0,0,1,1.47-9.46,13.37,13.37,0,0,1,2.71-2.07c-.32-3.89,2.22-6.37,4.59-9l.85.61c-1.47,3.68-3,7.32-4.39,11a27.35,27.35,0,0,0-.83,4l1.4.81,3.39-7.13c1.22,2.88-.5,9.78-3.16,9.82.65,2.66,1.28,5.23,1.9,7.8a1.69,1.69,0,0,0,.1.34c.84,1.62,3.29,1.65,2.73,4.55a47,47,0,0,1-1.71,5.7c-1.81-5.94-3.82-12.59-5.57-18.34L147.21,116Z"/><path class="cls-1" d="M247.85,222.9c1.64,6.28,3.27,12.56,5,19.15,1.55-3.06,3.2-6.34,4.85-9.61l.8.23c-.25,2.88,0,6.07-.88,8.54s-2.9,4.47-4.22,7.23l3.84-2c-.23,6.78-3.67,10.87-5.41,15.77-.37-6.75-.4-13.59-1.21-20.26-.69-5.67-2.29-11.13-3.44-16.71-.18-.9-1.18-2.6.78-2.27Z"/><path class="cls-1" d="M181.4,166.64c1.45,5.22,4.22,9.74,2.31,16.39-.62-3-1.14-5.4-1.67-7.95-5.43,6.87-5,6.91-2.76,9.09l2.53-2.8a79.68,79.68,0,0,0-.47,8.22,77.27,77.27,0,0,0,1.19,8l1.53-3.14.82.25c-.22,2.91-.45,5.82-.67,8.74l-.51-.25c-2.16-6.32-4.36-12.61-6.42-19a8.08,8.08,0,0,1-.18-3.79C178.08,175.67,178.27,170.47,181.4,166.64Z"/><path class="cls-1" d="M163.9,154.68c-.17-3-.48-6.08-.42-9.11a4.52,4.52,0,0,1,1.93-3.11c-.47,2.47-1.59,5.12-1.24,7.35.39,2.43,2.14,4.46,3.37,6.82l2.7-4c.37,5.54-4.54,9.93,0,14.36l1.38-.9c.18.34.44.6.47.9.36,3.61,1.57,7.25-.8,10.64-.53.75-.07,2.77-.07,4.64l2.23-1.2-1.86,5c-1.91-9-3.89-18.48-6-27.92a15.94,15.94,0,0,0-1.76-3.56Z"/><path class="cls-1" d="M101.19,307.59a18.44,18.44,0,0,1-1.08-2.29c-1.54-4.92-3-9.9-4.58-14.78-.25-.77-1.3-1-1.67-1.78a26.36,26.36,0,0,1-1.21-3.56l-6.91-13.25.82-.87c1.42,2.54,2.83,5.08,4.4,7.88v-2.59C95,279.23,100.86,296,101.19,307.59Z"/><path class="cls-1" d="M144.48,242.4c.64-.34,1.47-1.22,1.89-1,4,2.57,8.07,5.19,11.95,8.15,1.46,1.11,2.53,3.17,3.78,4.79l-.63,1.34-7-2.74c0-.1-.05.45-.18,1.7l-9.9-12.4Z"/><path class="cls-1" d="M127.35,315.3c6.08-.62,19.38,9.08,23.94,17.25L127,316.25Z"/><path class="cls-1" d="M207,223.1c.55.77,1.11,1.54,1.65,2.33.67,1,1.32,2,2.26,3.4l1.45-6.2c1.78,4.37-.81,10.28,3.74,12.24l.46-5.05c4,1.75,4.18,6,3.73,11.39C217.25,239.87,208.72,229,207,223.1Z"/><path class="cls-1" d="M243.05,365,240.2,363c-.23-5.89,2.45-8.95,10.1-10.27Q246.66,358.88,243.05,365Z"/><path class="cls-1" d="M230.12,322.79c4,1.27,4.82,3.47,3.4,7.28-.25.66.16,1.86.39,2.75,1.15,4.44,2.38,8.84,3.47,13.31a7.2,7.2,0,0,1-.4,2.48c-.51-.56-1.32-1-1.49-1.7-.72-3-1.15-6-1.88-9-.79-3.26-1.87-6.38-2.68-9.63A55.37,55.37,0,0,1,230.12,322.79Z"/><path class="cls-1" d="M159.56,214.94c7.14,6.63,12.52,15.77,18.55,24l-.66.93-18.57-24Z"/><path class="cls-1" d="M176.79,285.31l16.08,17.88-.6,1C185.66,300.32,181.08,293,176.79,285.31Z"/><path class="cls-1" d="M219.78,261.49a28.23,28.23,0,0,0,1.88,4,83.84,83.84,0,0,1,5.56,8.56c-7.59-8.4-13.28-19-18.64-30q5.63,8.79,11.27,17.58Z"/><path class="cls-1" d="M177.12,155.75c.49,5,.15,9.38-2,13.57C173,162.4,172.66,159.51,177.12,155.75Z"/><path class="cls-1" d="M156.06,258.68c5.8,2.14,8.64,10,14,13.36C167.07,272.05,158.11,263.74,156.06,258.68Z"/><path class="cls-1" d="M238.83,266.78c6.67,3.8,8,6.4,6.85,13.52C243.15,275.32,241,271.05,238.83,266.78Z"/><path class="cls-1" d="M185.85,178.85c-.67-2.35-1.15-4.29.72-6.7,1.71-2.19,2.66-5.46,4.54-7.92q-2.19,7.52-4.37,15Z"/><path class="cls-1" d="M144.38,146.92l4.24,5c-4.54,2-6.06-2.67-8.64-3.94l.12-.92h4.37Z"/><path class="cls-1" d="M205.12,357.66l-1.53.91,2.39,1.92-3.63,1.82a27.37,27.37,0,0,1-.92-4c-.16-1.69,0-3.44,0-6.3C202.94,354.37,204,355.92,205.12,357.66Z"/><path class="cls-1" d="M151.1,92.57l-2.6-1.38,4.37-11.68.79.31C152.84,83.88,152,88,151.1,92.57Z"/><path class="cls-1" d="M175.77,139.64c-1.53,4.23-1.28,9.76-4.73,12.58l-1-.7q2.48-6.15,5-12.3Z"/><path class="cls-1" d="M162.37,294l6.09,5.82-.33,1.33c-1.23-.27-2.71-.07-3.64-.95-1.24-1.19-2.06-3.21-3.06-4.87Z"/><path class="cls-1" d="M250.8,215c-1.12-3.09-2.24-6.17-3.41-9.41C251.19,205.71,252.3,208.31,250.8,215Z"/><path class="cls-1" d="M222.22,307.29c-1.59-1.87-1.9-6.2-.68-9.45C223.81,301.64,224,303.6,222.22,307.29Z"/><path class="cls-1" d="M201.25,197.93c-1.29,4.08-2.58,8.15-4,12.61-1.15-3.39-.29-6.5,3.25-13Z"/><path class="cls-1" d="M211.77,241.85c-2.93-2.19-2.93-2.19-1.11-7.55C213.58,236.21,212.23,239,211.77,241.85Z"/><path class="cls-1" d="M219.58,229.34l-8.75-9.58.69-1.17,8.79,9.5Z"/><path class="cls-1" d="M227.84,324.83l3.72,10.31-1,.66q-2-5.1-4-10.2Z"/><path class="cls-1" d="M187.33,356.07c-4.28-1.55-4.12-5.71-3.89-9.93C184.65,349.21,185.85,352.28,187.33,356.07Z"/><path class="cls-1" d="M206.85,258.35c-1.74-3.31.46-6.57.11-9.86h.79v9.86Z"/><path class="cls-1" d="M240.59,367.65,234.68,375C236.25,372.35,236.6,368.11,240.59,367.65Z"/><path class="cls-1" d="M235.5,318.92c1.32,2.38,3.95,3.63,2.9,8.08l-3.81-7.26Z"/><path class="cls-1" d="M202.9,245.3c-.48,2.09-1,4.18-1.63,7l-4.07-7.51.45-.48,3.24,4.73c.64-1.44,1.21-2.71,1.77-4Z"/><path class="cls-1" d="M208.1,229.3l-2.39,5.29-1.44-7.08.48-.27,1.53,2.7,1.24-1.37Z"/><path class="cls-1" d="M238.67,356.46c.49-3.91,1.31-6.17,3.84-6.12.22.33.45.66.67,1Z"/><path class="cls-1" d="M174.84,305.81q2.79,3,5.56,6l-.69,1.15-5.38-6.27Z"/><path class="cls-1" d="M224.71,345.37c.11-1.78.22-3.56.34-5.34l1.06-.14q.46,3.41.95,6.83l-.56.43-1.86-1.88Z"/><path class="cls-1" d="M236.16,317.87l-6-8.92.68-.84q2.9,4.56,5.78,9.14Z"/><path class="cls-1" d="M245.06,228.78l2.87,6.14C244.26,233.9,244.25,233.89,245.06,228.78Z"/><path class="cls-1" d="M231.15,275.46l3.32,4.4-1,1.31-4.09-5.45.55-.92,1.32.76Z"/><path class="cls-1" d="M87.25,284.87c-.62-2.74-1.23-5.47-1.85-8.21l1-.38q.78,4.17,1.58,8.33Z"/><path class="cls-1" d="M204.36,206.53v-8.85h.91v8.82Z"/><path class="cls-1" d="M172.3,334.46l1.56,6.14-.92.48L171.25,335Z"/><path class="cls-1" d="M194.37,212.49c-.23,2.74-.39,4.57-.59,6.86C191.57,216.43,191.57,216.43,194.37,212.49Z"/><path class="cls-1" d="M157.62,351.16l-6.14,1.1c1.93-1.66,3.75-4.35,6.11-2.28Z"/><path class="cls-1" d="M233.44,248.84c4.37-.26,4.7,4.5,6.6,6.82l-.51.78Z"/><path class="cls-1" d="M136.86,338.85l-8,5C130.2,339.78,133.14,337.76,136.86,338.85Z"/><path class="cls-1" d="M197.58,373.25c-.69,1.56-1.3,3.22-2.1,4.68-1.56,2.84-1.61,2.8-4.81.31l7-4.9Z"/><path class="cls-1" d="M248.3,336.83l7.61-3.32.25.81-7.43,4.08Z"/></svg>