<svg id="Layer_1" data-name="Layer 1" xmlns="http://www.w3.org/2000/svg" viewBox="0 0 333.82 432"><defs><style>.cls-1{fill:#99c864;}.cls-2{fill:#fff;}</style></defs><title>tupelo</title><path class="cls-1" d="M155.85,46.6c-117.69,94.82-165,198-5.58,325.92l-4.88,34.08H163v-49C342.82,283.86,299.26,173.43,155.85,46.6Z"/><path class="cls-2" d="M155.85,56.39c1.66,25.81,2.52,51.63,3.11,77.44s.9,51.63.89,77.44-.24,51.63-.88,77.45-1.45,51.62-3.12,77.44c-1.66-25.82-2.53-51.63-3.12-77.44s-.87-51.63-.88-77.45.31-51.62.89-77.44S154.2,82.2,155.85,56.39Z"/><path class="cls-2" d="M252.85,266.11c-7,7.23-14.4,14-22,20.48s-15.52,12.72-23.61,18.65-16.4,11.57-25,16.83a262.65,262.65,0,0,1-26.39,14.48c8-6.05,16.14-11.87,24.22-17.73l24.18-17.61,24.15-17.67C236.46,277.65,244.53,271.76,252.85,266.11Z"/><path class="cls-2" d="M253.26,214c-7,7.23-14.41,14-22,20.48s-15.52,12.72-23.61,18.65S191.2,264.73,182.65,270a261.84,261.84,0,0,1-26.39,14.49c8-6.05,16.13-11.87,24.21-17.73l24.18-17.61,24.15-17.67C236.86,225.57,244.94,219.67,253.26,214Z"/><path class="cls-2" d="M241.27,170.59A246,246,0,0,1,222,188.52c-6.69,5.68-13.64,11-20.77,16.18s-14.45,10-22,14.47a211.39,211.39,0,0,1-23.33,12.26c7-5.34,14.1-10.43,21.19-15.53l21.24-15.26c7.09-5.08,14.16-10.17,21.31-15.2S233.87,175.36,241.27,170.59Z"/><path class="cls-2" d="M222.53,140.39a161.17,161.17,0,0,1-14.75,13.89q-7.77,6.48-16.09,12.26c-5.54,3.85-11.25,7.45-17.14,10.75A142.08,142.08,0,0,1,156.26,186c5.3-4.24,10.75-8.15,16.18-12.07s10.91-7.73,16.4-11.54,11-7.58,16.59-11.29S216.64,143.76,222.53,140.39Z"/><path class="cls-2" d="M198.56,110.13A83,83,0,0,1,189.81,121a119.42,119.42,0,0,1-10.09,9.52,112.69,112.69,0,0,1-11.14,8.27,73.76,73.76,0,0,1-12.32,6.57c3.18-3.47,6.54-6.6,9.92-9.68s6.83-6.06,10.33-9,7-5.8,10.67-8.6A131,131,0,0,1,198.56,110.13Z"/><path class="cls-2" d="M177.41,88.11a35,35,0,0,1-4,7.7,51.59,51.59,0,0,1-5.32,6.64,49.23,49.23,0,0,1-6.37,5.68,31.43,31.43,0,0,1-7.56,4.27,52.62,52.62,0,0,1,4.83-7.1c1.74-2.19,3.56-4.28,5.47-6.29s3.89-3.94,6-5.79A44.72,44.72,0,0,1,177.41,88.11Z"/><path class="cls-2" d="M75.69,266.55c6.71,5.63,13.13,11.48,19.52,17.34s12.75,11.75,19.11,17.62l19.06,17.65c6.37,5.88,12.76,11.74,19,17.84a203.12,203.12,0,0,1-21.56-14.86c-6.91-5.34-13.53-11-19.94-17s-12.57-12.1-18.45-18.54A240.9,240.9,0,0,1,75.69,266.55Z"/><path class="cls-2" d="M75.37,214.47C82.08,220.09,88.5,226,94.9,231.81s12.74,11.74,19.1,17.62l19.06,17.65c6.37,5.88,12.76,11.74,19,17.84a203.21,203.21,0,0,1-21.56-14.87c-6.91-5.33-13.53-11-19.93-17S98,241,92.15,234.56A240.9,240.9,0,0,1,75.37,214.47Z"/><path class="cls-2" d="M84.85,171c6,4.76,11.69,9.78,17.37,14.79s11.27,10.09,16.86,15.17l16.74,15.27c5.56,5.14,11.15,10.24,16.6,15.62a169,169,0,0,1-19.11-12.59c-6.09-4.59-12-9.48-17.59-14.6s-11.06-10.49-16.24-16.08A197.54,197.54,0,0,1,84.85,171Z"/><path class="cls-2" d="M99.67,140.83c4.82,3.39,9.33,7,13.79,10.74s8.82,7.47,13.15,11.28,8.63,7.64,12.9,11.54,8.5,7.85,12.59,12.1a109,109,0,0,1-15.06-9,163.23,163.23,0,0,1-13.73-10.86,173.67,173.67,0,0,1-12.54-12.18A122.23,122.23,0,0,1,99.67,140.83Z"/><path class="cls-2" d="M118.64,110.57a99.14,99.14,0,0,1,9.32,8c2.93,2.79,5.75,5.66,8.51,8.59s5.44,5.91,8.07,9a116.13,116.13,0,0,1,7.56,9.67A58.73,58.73,0,0,1,141.8,139a91,91,0,0,1-9-8.37,96.94,96.94,0,0,1-7.82-9.44A65.77,65.77,0,0,1,118.64,110.57Z"/><path class="cls-2" d="M135.37,88.55a37,37,0,0,1,5.86,5.21,70.07,70.07,0,0,1,4.85,5.81,71.26,71.26,0,0,1,4.21,6.26,42,42,0,0,1,3.45,7,26.68,26.68,0,0,1-6.49-4.54,40.72,40.72,0,0,1-5.17-5.75A44.19,44.19,0,0,1,138,96,29.33,29.33,0,0,1,135.37,88.55Z"/></svg>