<svg id="Layer_1" data-name="Layer 1" xmlns="http://www.w3.org/2000/svg" viewBox="0 0 333.82 432"><defs><style>.cls-1,.cls-2{fill:#8dc63f;}.cls-2{stroke:#8dc63f;stroke-miterlimit:10;stroke-width:3px;}</style></defs><title>whitebeam</title><path class="cls-1" d="M230.16,312c1-5.88.3-9.94-3.24-18.78,1.2.55,3,1.94,3.51,1.5,1.07-.92,1.69-2.73,2.1-4.3.95-3.65,1.66-7.37,2.4-10.77l-10.83,6.51c-4.59-4-7.33-14.43-5.27-21.72,1.59-5.6,3.12-11.33,5.54-16.51,3.36-7.19,7.32-14.09,15.39-16.13,1.71-.43,3.14-2.12,4.77-3.06,2.71-1.56,5.49-3,8.24-4.47l.62,1.13-.66.85c3.54,1.44,4.72,4.55,2.77,8.27-2.91,5.55-5.42,11.57-11.18,14.43a19.82,19.82,0,0,1-4.9,1.85c-3.25.6-3.27.46-4.68,3.8,3.62-.18,5.55,2.4,7.24,10.17,2.15-2,4.05-3.9,6-5.65s3.78-3.26,5.77-4.73c6.77-5,13.1-3,19.18,1.68,2.13,1.64,1.9,3.13-.27,4.7s-4.14,3.44-6.2,5.18l.66,1.12c2.78-.88,5.53-1.93,8.35-2.59s5.59-.87,8.38-1.28l1,1.49c-1.57,3.45-2.43,7.76-4.84,10.18-6.29,6.3-8.92,13.92-9.32,23-.15,3.52-1,7-1.68,11.4a28.58,28.58,0,0,0,2.55-1.68q4.67-4.18,9.3-8.42a10.51,10.51,0,0,0,2.09-2.23c3.18-5.42,8.19-8.27,13.08-11.19a4.56,4.56,0,0,1,4.22.12c.65.42.63,2.83.32,4.19-2.27,10-5.77,19.38-11.31,27.77a31.18,31.18,0,0,0-5,19.41,22.44,22.44,0,0,1-7.17,18.5,8.28,8.28,0,0,0-2,2.4A13.27,13.27,0,0,1,266.4,366c-3.15.8-3.57,3-4.82,6-1.23-2.66-2.47-5.31-3.7-8l-.77.35c.7,3.11,1.39,6.22,2,9l3.91,2.65-.23,1.08c-4-.95-5.52,2.7-8.06,4.54-2.37,1.73-4.92,3.83-7.59,4.27a142.57,142.57,0,0,1-18.81,1.55c-6,.18-12-.07-18-.4a6.62,6.62,0,0,1-4.48-1.88c-2.46-3-5.36-1.89-8.23-1.94-3.05-.06-6.11-.32-9.15-.66a58.38,58.38,0,0,1-8.74-1.34c-3.45-.91-6.78-2.31-10.71-3.69,6.42-7.3,14.66-9.07,22.12-13.06-6.8-2-13.11-3.56-19.18-5.88-4.48-1.71-4.65-3.7-.49-6.26,6.84-4.21,14-7.76,21.05-11.56,1.32-.71,2.7-1.28,4-1.92l-.2-1c-1.52.24-3.05.4-4.55.72-3.64.79-7.25,1.73-10.9,2.46a8.27,8.27,0,0,1-3.57-.05c-6.2-1.57-12.38-3.26-18.56-4.95a9.23,9.23,0,0,1-1.72-1.17c2.42-2.6,4.31-5.57,6.89-7.25,13.92-9,28.45-16.79,44.68-18.79,5.78-.71,11.84,1.31,17.77,2.14A30.73,30.73,0,0,1,230.16,312Zm20.22,36.59,3.5,2,2.72-8.93c-4.25.85-5.32,3.88-6.16,7.16L246.5,340c.44,3.59.65,6.22,1.13,8.79a10.74,10.74,0,0,0,1.49,2.89Zm-6.13-8c.13-3.32-2.53-9.15-4.16-9.48-3.37-.68-4.36,2.67-6.74,4.31Zm11.13,21.17c-1.73-2.61-2.74-5.32-4.56-6.55-2.14-1.44-4.36.1-6,2.36ZM238.64,328l1.15-.58c-.26-6.47-.26-6.47-3.26-7.28C237.25,322.81,238,325.4,238.64,328Z"/><path class="cls-2" d="M129.53,97.51c-.52,2.63-.78,5.16,2.66,6.66-4,1.61-7.2,3.81-10.35,3.33l-8.48,1.68,0,.19c2,0,4.14-.51,6.06,0a28.91,28.91,0,0,1,7.51,3.12c4.05,2.36,8.86,3.53,11.46,8.35.55,1,1.17,2,1.62,3.07.81,1.92,1.51,3.89,2.55,6.61l-17.24,1.59c4,1.11,7.89,2.32,11.88,3.3a17.43,17.43,0,0,1,11,8c0-2,0-3.95-.12-5.92-.27-4.78-1.14-9.44,3.69-12.82,1.83-1.28,2.37-4.88,3.44-7.45.54-1.31.93-2.69,1.56-4.54l-15.8,9.63c-3.07-4.26-3.78-11.84-.87-16.91,4.54-7.89,9.16-15.77,14.31-23.16,2.88-4.13,6.89-7.31,10.45-10.85A11.82,11.82,0,0,1,167.58,70C170,81.7,165,91.61,163,102.16c1.4-1.48,2.78-3,4.19-4.44,1.64-1.69,3.33-2.43,5.56.82l-.6-4.85c1.33.57,2.71.69,3.34,1.51,2.5,3.28,2.08,7.21,1.48,11.06a40.43,40.43,0,0,1-6.45,16.63,11.77,11.77,0,0,0-.93,2.85c-2.22,6.87-5.28,13-12,15.62a47.69,47.69,0,0,1-6.89,1.77c-2.26.51-3,5.06-1.23,8,.47.77,1,1.47,1.58,2.26-2.85,1.16-5.51,2.07-8,3.33-2.72,1.34-5.3,1.68-7.93-.14a1.39,1.39,0,0,0-.92-.17c-8.36,1.12-15.08-3.94-21.65-8C104.8,143.53,98,137,90.82,131.16A11.18,11.18,0,0,1,89.35,129c6-3.36,12.27-1.46,18.17-2-3.42-2.32-7.07-4.43-10.34-7.12A125.16,125.16,0,0,1,86.86,110c-.8-.83-1.61-3.17-1.26-3.57,1-1.15,2.63-2.33,4-2.29,4.34.13,8.66.81,13.36,1.31-3.68-5-7-9.47-10.62-14.43,4.36-.39,8.4-.65,12.41-1.16a24.19,24.19,0,0,0,4.51-1.52l-.25.09c7,2.49,14.74,2.69,20.33,9C129.33,97.41,129.4,97.46,129.53,97.51Z"/><path class="cls-2" d="M138.44,252.38c-4.34-.24-8.7-.32-13-.79-2.63-.29-2.53-2.58-1.34-4.28,2.06-2.92,4.49-5.53,6.79-8.25.44-.52,1.1-.84,1.47-1.41,2.78-4.3,5.52-8.64,8.33-13.06-3,.47-6.5,1-10,1.6-3,.53-5.94,1.38-8.94,1.76-5.88.74-11.78,1.26-17.66,1.88l-.6-1.41c.73-1.2,1.26-2.66,2.22-3.55,7-6.46,14-13.08,21.36-19.08a98.06,98.06,0,0,1,14.68-9.45c6.92-3.85,14-2.54,21,.2,2.79,1.09,5.36,2.21,7.11,5.31.78,1.37,3.15,1.65,4.78,3.06-3.29-1-4.07.82-5.48,3.46s-4.41,4-6.9,5.66c-2.28,1.5-4.81,2.54-7,4.49,3.71-.52,7.41-1.23,11.13-1.49,6.68-.47,12.87.84,17.14,7.32a46,46,0,0,1,2.44,4.79l3.12,2.25a78.9,78.9,0,0,0-7.79,4.57c-4.35,3.26-8.93,4.36-14,2.75-3.06-1-5.77-1.05-8.53,1.44a9,9,0,0,1-6,2.3c-3.48-.24-5.7,1.27-7.91,3.91a70.47,70.47,0,0,1-6.47,6.1Z"/><path class="cls-2" d="M153.66,166.13a34.83,34.83,0,0,0,1.78-3.43,14.19,14.19,0,0,0,.82-3.43c.61-5.05,2.59-9.1,7.17-10.7,5.68-2,11.42-4.81,17.21-5,8.12-.31,16.63-.32,23.87,5.44,2.11,1.68,4.59,2.77,6.85,4.22,1.77,1.13,3.47,2.39,5.19,3.6l-1.1,1.5-3,1.72,9.56,5.82c-2.18,4.06-5.37,5.14-8.35,6.29A50.91,50.91,0,0,0,198,182.07c-7.27,6.51-15.25,12-25.07,12.9-1,.1-1.94,1.53-3,2.38l-1.27-2.78,2.29-1.38a9.77,9.77,0,0,1-.64-10.66c.6-1.14,1.8-1.89,2.74-2.81,2-1.95,3.93-3.88,5.9-5.82l-.8-1-1.14,0,5.78-8.57.89.42c-1.74-.12-3.65-.82-5.18-.26-7.41,2.71-14.92,2.8-22.54,1.83a4.52,4.52,0,0,0-1.52.35Z"/><path class="cls-2" d="M227.33,297c-3.63,2.35-6.65,5-10.08,6.35a138,138,0,0,1-16.38,4.87,7.4,7.4,0,0,1-4.19-.42,15.7,15.7,0,0,0-12.46.54c-6.69,3.15-13.7,2.29-20.58,1.81-5.19-.37-10.33-1.66-15.45-2.76a65,65,0,0,1-7-2.35l-.2-1.3,8.87-4.63c5.48-2.88,10.88-6,16.47-8.6,7.21-3.37,14.44-6.83,21.92-9.3,3-1,6.62.62,10,1,1.49.17,3.08.6,4.48.24,9.56-2.41,17.15,1.69,21,11.44.28.71,1.12,1.15,1.74,1.67S226.75,296.57,227.33,297Z"/><path class="cls-2" d="M138.34,252.46c10-1.61,20-3.61,30.14-4.64,3.73-.39,7.64,1.68,11.51,2.24,2.25.33,4.8.54,6.84-.31,6.88-2.87,14.94.63,18,8,.76,1.85,2.4,3.26,3.21,4.32a42.63,42.63,0,0,1-4.4,3.83c-2.67,1.75-5.35,3.76-8.28,4.7A76.12,76.12,0,0,1,180.09,274a46.23,46.23,0,0,1-13.21-.76c-7.06-1.35-14-3.35-21-5.06-.85-.21-1.75-.24-2.57-.53-6-2.05-12-4.14-18.43-6.36,3.12-6,8.51-7.13,13.57-8.92Z"/><path class="cls-2" d="M203.11,250.68c-5.37-6.32-5.94-13.5-3.6-20.91,3.83-12.13,11.29-21.28,20.7-28.51a10.83,10.83,0,0,1,5.83-2.12c5.79-.24,11.71-.25,16.83,3.26a10.75,10.75,0,0,1,4.08,6c.28,1.24-1.86,3.88-3.41,4.68a21.25,21.25,0,0,1-7.91,2c-5.11.42-8.2,4.08-11.28,7.85a3.57,3.57,0,0,0-.63,2.37c.88,8.87-4.93,13.45-9.89,18.33-2.1,2.06-5.2,2.84-7.77,4.36A21.43,21.43,0,0,0,203.11,250.68Z"/><path class="cls-2" d="M94.57,164.87c1.65-.7,3.28-1.94,5-2,12.31-.52,24.62-.94,36.89.88,3.77.56,7.64.55,11.31,1.51,4.11,1.08,6.93,4.24,8.72,8.59.61,1.47,2,2.56,2.82,3.61-1.61,1-2.85,1.87-4.2,2.52-2.75,1.32-5.52,3.42-8.35,3.57a165.83,165.83,0,0,1-22.4-.37,25.53,25.53,0,0,1-10.64-3.43c-6.64-3.94-12.93-8.6-19.37-13Z"/><path class="cls-2" d="M227,191.11c-2.73,1-5,1.65-7.22,2.57a70.39,70.39,0,0,0-8.71,4.08c-1.07.62-1.79,2.27-2.35,3.61-1.72,4.1-2.89,8.56-5,12.37-3.12,5.6-8.62,7.87-13.85,10.34a37.68,37.68,0,0,0-3.47,2.16c-7.14-8.24-5.62-20.21.94-27.8a139.13,139.13,0,0,1,13.61-13.54c4.86-4.27,11.53-3.25,16,1.5.8.86,2.56.86,3.87.84C223.23,187.19,225.17,188,227,191.11Z"/><path class="cls-2" d="M117.45,78.76c-.48-2.45-1.3-4.89-1.34-7.35,0-1.74,1-3.51,1.59-5.41-2.85-.16-3-3.14-3.06-6.22L110,63.47,108.56,56c-2.41-2.69-5.5-5.48-7.75-8.93-1.12-1.71-.68-4.57-1.79-6.8-1.2-2.4-1.76-5.19-2.79-7.72-.81-2-1.14-4,.8-4.92.9-.4,2.8.72,3.71,1.74,4.63,5.22,9.08,10.63,13.79,16.2.24-2.2,3.14-3.66.93-6.61-.34-.46.65-2.79,1.52-3.53s2.86-.95,3.34-.36c2.17,2.62,4.59,5.33,5.79,8.53a48.34,48.34,0,0,1,2.49,25.92c-.53,2.84-2.12,5.49-3.47,8.07-.35.68-1.62.77-2.83,1.29,0-.07.15.59.47,1.78l-2.84-.28Z"/><path class="cls-2" d="M129.53,97.51c-.13-.05-.2-.1-.22-.15-3.31-5.16-1.87-10.62-.67-16a108.09,108.09,0,0,1,3.38-12c2.63-7.64,5.46-15.21,8.32-22.75a7.39,7.39,0,0,1,2.83-3.14c1.37,10.49,5.63,20.16,2.74,31.42-2.72,10.65-6.87,19.44-15.46,25.53Z"/><path class="cls-2" d="M117.45,78.76l2.48,1.66,1.41,4.11L109,86.47c0,.35,0,1.13,0,1.91l.24-.09-4.59.1-.12-1.24c-1.81,2.24-3.63,3.24-6.31,1.58-1.15-.71-3,0-4.59.14a33,33,0,0,1-17-2.28,3.34,3.34,0,0,1-1.39-2.39,2.63,2.63,0,0,1,1.23-2.08Q84,79.38,91.63,76.94a37.23,37.23,0,0,1,7-1.67c4.18-.46,8.45-1.12,12.58-.65C113.41,74.86,115.38,77.31,117.45,78.76Z"/><path class="cls-2" d="M79.55,49.25c10.23,3.06,20.69,4,27.06,14.42a16.19,16.19,0,0,1,1.14,3.82c-1.58-.31-3.88,0-4.58-1.07-1.35-2-2.46-1.61-4.23-1.33-7.81,1.24-14-2.3-19.2-8.49-.5-.6-1.27-1-1.61-1.64-.53-1-1.31-2.43-1-3.3C77.42,50.63,78.75,50,79.55,49.25Z"/><path class="cls-2" d="M244.25,340.55l-10.9-5.17c2.38-1.64,3.37-5,6.74-4.31C241.72,331.4,244.38,337.23,244.25,340.55Z"/><path class="cls-2" d="M255.38,361.72l-10.57-4.19c1.65-2.26,3.87-3.8,6-2.36C252.64,356.4,253.65,359.11,255.38,361.72Z"/><path class="cls-2" d="M250.44,348.79c.84-3.28,1.91-6.31,6.16-7.16l-2.72,8.93-3.5-2Z"/><path class="cls-2" d="M250.44,348.79l-.06-.2-1.26,3.1a10.74,10.74,0,0,1-1.49-2.89c-.48-2.57-.69-5.2-1.13-8.79Z"/><path class="cls-2" d="M238.64,328c-.69-2.59-1.39-5.18-2.11-7.86,3,.81,3,.81,3.26,7.28Z"/></svg>