<svg id="Layer_1" data-name="Layer 1" xmlns="http://www.w3.org/2000/svg" viewBox="0 0 333.82 432"><defs><style>.cls-1{fill:#99c864;}</style></defs><title>wlanut</title><path class="cls-1" d="M228.69,255.87l3.09-4q13.74-33.5,27.49-67l-4.48-2.39c-2.58,5.61-5.12,11.23-7.72,16.82-5.91,12.67-11.41,25.64-17.9,37.92-6.36,12-14.26,13.06-22.62,1.84-2-2.61-4.52-4.63-6.8-6.92l.46.81c4.26-31.37,8.53-62.73,13.39-98.42-5,12.39-8.59,21.28-12.12,30.2-4.11,10.36-10.2,16.46-20.87,13.07l.61.59c-9.3-11.14-9.4-23.77-5.84-37.84,2.44-9.65,3-19.93,4.33-29.92l-3.91-.81c-3.69,9.49-7.39,19-12.78,32.82-6-22.49-10.81-40.67-15.65-58.85L143.3,85l10.76,76.35-25.36-8.75-2.51,3.78q36.54,20.26,51.77,62.07l-.35-.79C173.09,231,166,220.72,161.06,219c-15.05-5.2-29.63-12.12-44.4-18.37q-2.09,4.05-4.19,8.1c34.18,18.16,76.95,25.35,83.49,78.13H180.63l-50.84-15.63-1.72,6.68c16.52,6,33.3,11.28,49.46,18.38,10.06,4.43,19.17,11.66,28.7,17.64.62,4.33,1.23,8.66,1.92,13.49l-52.49-9c-.49,2.51-1,5-1.48,7.53l28.39,8.32,32.33,13.22c-4.69,9.17-8.21,16-11.72,22.92H177.76l-60.64-51.11.59.57C89.19,286.5,85.75,245.55,92,202.46c2.89-20,8.46-39.44,12.82-59.13,13.47-30.06,31.62-58,32.36-99.51,5.24,7.36,7.72,10.84,10.19,14.33C159.85,69.81,171.22,83.66,185,92.73c46.47,30.59,84.53,69.67,106.72,126.72,1.91,4.89,5.64,8.85,8.52,13.24q2.25,13.4,4.49,26.79c.48,10.77,1.11,21.55,1.39,32.33.26,10.18,1.28,20.61-.24,30.48-.87,5.59-6.8,15-9.39,14.59-15.66-2.66-33,8.81-47.1-6.52L273,292.69l12-56.23c-11.64,18.1-19.45,37-27.17,55.86-3.5,8.56-6.83,17.21-10.23,25.82l-1.23,1.4c-8.71,2.08-15.06-2.34-15.88-11.74C228.92,290.59,229.17,273.19,228.69,255.87Z"/><path class="cls-1" d="M165.06,370.48l-26.5-25.41-21.44-25.7,60.64,51.11Z"/><path class="cls-1" d="M178,218.44q-15.24-41.79-51.77-62.07l2.51-3.78,25.36,8.75L143.3,85l4.07-1.17C152.21,102,157,120.18,163,142.67c5.39-13.84,9.09-23.33,12.78-32.82l3.91.81c-1.37,10-1.89,20.27-4.33,29.92-3.56,14.07-3.46,26.7,5.84,37.84-17.41-6.52-13.24-21.28-9.72-35.57l-13.81,4c-1.16,7-2.44,14.77-4,24.12C167,181.26,176,197.45,178,218.44Z"/><path class="cls-1" d="M300.25,232.69c-2.88-4.39-6.61-8.35-8.52-13.24-22.19-57-60.25-96.13-106.72-126.72-13.79-9.07-25.16-22.92-37.65-34.58,42.56,36.09,93.86,59.91,124.48,112.7C283,190.15,290.88,212,300.25,232.69Z"/><path class="cls-1" d="M180.63,286.89H196c-6.54-52.78-49.31-60-83.49-78.13q2.1-4,4.19-8.1c14.77,6.25,29.35,13.17,44.4,18.37,4.89,1.69,12,12,16.55-1.38-1,4.57-1.94,9.13-2.88,13.57,9.15,17.22,20,37.55,30.78,57.88l-3.9,5.93Z"/><path class="cls-1" d="M104.81,143.33C100.45,163,94.88,182.49,92,202.46c-6.24,43.09-2.8,84,25.72,117.48-7.9-9.69-19.69-17.89-23-29.32C80,240.43,81.67,190.64,104.81,143.33Z"/><path class="cls-1" d="M199.75,232.17c2.28,2.29,4.85,4.31,6.8,6.92,8.36,11.22,16.26,10.19,22.62-1.84,6.49-12.28,12-25.25,17.9-37.92,2.6-5.59,5.14-11.21,7.72-16.82l4.48,2.39q-13.75,33.49-27.49,67C218.31,251.23,203.29,253.86,199.75,232.17Z"/><path class="cls-1" d="M180.61,177.83c10.67,3.39,16.76-2.71,20.87-13.07,3.53-8.92,7.14-17.81,12.12-30.2-4.86,35.69-9.13,67.05-13.39,98.42-.71-18.1-1.41-36.19-2-50.5Z"/><path class="cls-1" d="M247.52,318.14c3.4-8.61,6.73-17.26,10.23-25.82,7.72-18.9,15.53-37.76,27.17-55.86l-12,56.23c1-7.47,2-14.94,3.49-25.63Z"/><path class="cls-1" d="M249.4,330.36c14.14,15.33,31.44,3.86,47.1,6.52,2.59.44,8.52-9,9.39-14.59,1.52-9.87.5-20.3.24-30.48-.28-10.78-.91-21.56-1.39-32.33,1.31,23.64,3.2,47.28,3.32,70.93,0,3.81-7.71,10.65-12.15,11-17.36,1.29-34.82.53-56.67.53C244.19,336.29,246.8,333.33,249.4,330.36Z"/><path class="cls-1" d="M360.66,356.07c-19.47-1.21-39-1.54-58.4-3.83-27.31-3.24-52,7.59-77,16.65,11.62-5.77,22.81-14.46,34.94-16.77C293.66,345.73,327.49,343.91,360.66,356.07Z"/><path class="cls-1" d="M182.57,334.34,154.18,326c.49-2.51,1-5,1.48-7.53l52.49,9c-.69-4.83-1.3-9.16-1.92-13.49l11,16.38-1.81,3.82-44-8.8Z"/><path class="cls-1" d="M228.69,255.87c.48,17.32.23,34.72,1.72,51.93.82,9.4,7.17,13.82,15.88,11.74-4.78.62-11.6,3.86-14,1.41C219.4,307.78,218.07,273.16,228.69,255.87Z"/></svg>