<svg id="Layer_1" data-name="Layer 1" xmlns="http://www.w3.org/2000/svg" xmlns:xlink="http://www.w3.org/1999/xlink" viewBox="0 0 611 791"><defs><style>.cls-1,.cls-2,.cls-3,.cls-4,.cls-5,.cls-6{fill:none;}.cls-2{stroke:#8cc040;}.cls-2,.cls-3,.cls-4,.cls-5,.cls-6,.cls-7{stroke-miterlimit:10;}.cls-2,.cls-3,.cls-4,.cls-5,.cls-6{stroke-width:3px;}.cls-3{stroke:#d0ca29;}.cls-4{stroke:#f5ea14;}.cls-5{stroke:#aeaa5b;}.cls-6{stroke:#4eb648;}.cls-7{opacity:0.88;fill:url(#LEAF_NO_COLOR);stroke:url(#LEAF_NO_COLOR-3);}</style><pattern id="LEAF_NO_COLOR" data-name="LEAF NO COLOR" width="1224" height="1188" patternTransform="translate(-1041.54 953.28)" patternUnits="userSpaceOnUse" viewBox="0 0 1224 1188"><rect class="cls-1" width="1224" height="1188"/><path class="cls-2" d="M1347.14,1178.72c50.09,10.34,57.87,43,50.28,79.79s-28.56,63.51-78.66,53.17S1216,1221.06,1216,1221.06,1297,1168.38,1347.14,1178.72Z"/><line class="cls-1" x1="720.61" y1="1022.81" x2="720.61" y2="1260.81"/><path class="cls-3" d="M844.05,1213c41.07-51.47,83.12-41.35,120.89-11.22s56.25,69.81,15.18,121.28-163.9,65.12-163.9,65.12S803,1264.46,844.05,1213Z"/><line class="cls-4" x1="980.94" y1="883.89" x2="996.54" y2="844.6"/><line class="cls-4" x1="944.52" y1="899.88" x2="966.27" y2="845.06"/><line class="cls-4" x1="964.44" y1="891.28" x2="983.18" y2="844.07"/><line class="cls-4" x1="1014.4" y1="847.65" x2="1004.08" y2="873.64"/><line class="cls-4" x1="949.39" y1="897.78" x2="1002.94" y2="919.04"/><line class="cls-4" x1="969.31" y1="889.18" x2="1015.57" y2="907.54"/><line class="cls-4" x1="987.45" y1="881.34" x2="1024.53" y2="896.06"/><line class="cls-4" x1="1006.05" y1="873.32" x2="1031.08" y2="883.25"/><line class="cls-4" x1="1018.88" y1="867.77" x2="1036" y2="874.57"/><line class="cls-4" x1="1045" y1="856.5" x2="939.2" y2="902.18"/><path class="cls-4" d="M993.2,924.82c-29.15,12.58-44.74-1.26-54-22.65s-8.1-42.46,21-55,84.51,9.46,84.51,9.46S1022.35,912.23,993.2,924.82Z"/><line class="cls-2" x1="767.96" y1="1254.9" x2="716.94" y2="1177.34"/><line class="cls-2" x1="733.72" y1="1247.84" x2="689.65" y2="1180.83"/><line class="cls-2" x1="702.53" y1="1241.4" x2="667.21" y2="1187.7"/><path class="cls-2" d="M735.14,1178.72c50.09,10.34,57.87,43,50.28,79.79s-28.56,63.51-78.66,53.17S604,1221.06,604,1221.06,685,1168.38,735.14,1178.72Z"/><line class="cls-5" x1="864.72" y1="1019.45" x2="786.84" y2="979.16"/><line class="cls-5" x1="890.2" y1="1097.91" x2="781.55" y2="1041.7"/><line class="cls-5" x1="876.56" y1="1055.03" x2="782.98" y2="1006.62"/><line class="cls-5" x1="796.83" y1="942.93" x2="848.33" y2="969.57"/><line class="cls-5" x1="886.87" y1="1087.43" x2="941.78" y2="981.29"/><line class="cls-5" x1="873.23" y1="1044.55" x2="920.66" y2="952.86"/><line class="cls-5" x1="860.8" y1="1005.48" x2="898.81" y2="932"/><line class="cls-5" x1="848.07" y1="965.45" x2="873.74" y2="915.84"/><line class="cls-5" x1="839.28" y1="937.82" x2="856.82" y2="903.9"/><line class="cls-5" x1="821.39" y1="881.59" x2="893.84" y2="1109.35"/><path class="cls-5" d="M951.7,1002.59c20,62.75-11.82,92.07-57.87,106.72s-89.29,8-109.25-54.79,37-172.45,37-172.45S931.74,939.84,951.7,1002.59Z"/><line class="cls-6" x1="1051.63" y1="1104.91" x2="1112.18" y2="1080.9"/><line class="cls-6" x1="995.23" y1="1080.94" x2="1079.7" y2="1047.45"/><line class="cls-6" x1="1025.91" y1="1094.2" x2="1098.67" y2="1065.35"/><line class="cls-6" x1="1127.62" y1="1104.16" x2="1087.58" y2="1120.04"/><line class="cls-6" x1="1002.73" y1="1084.18" x2="1035.45" y2="1166.71"/><line class="cls-6" x1="1033.42" y1="1097.44" x2="1061.68" y2="1168.74"/><line class="cls-6" x1="1061.37" y1="1109.53" x2="1084.03" y2="1166.66"/><line class="cls-6" x1="1090.01" y1="1121.9" x2="1105.31" y2="1160.48"/><line class="cls-6" x1="1109.79" y1="1130.45" x2="1120.24" y2="1156.82"/><line class="cls-6" x1="1150.02" y1="1147.83" x2="987.05" y2="1077.41"/><path class="cls-6" d="M1018.68,1161.89c-44.9-19.41-45.85-51.52-31.61-84.47s39.07-53.93,84-34.52,78.64,104.79,78.64,104.79S1063.58,1181.29,1018.68,1161.89Z"/><line class="cls-6" x1="686.12" y1="960.74" x2="679.14" y2="928.24"/><line class="cls-6" x1="669.31" y1="987.1" x2="659.57" y2="941.77"/><line class="cls-6" x1="678.57" y1="972.78" x2="670.18" y2="933.73"/><line class="cls-6" x1="692.15" y1="922.43" x2="696.77" y2="943.92"/><line class="cls-6" x1="671.57" y1="983.6" x2="715.86" y2="974.09"/><line class="cls-6" x1="680.83" y1="969.27" x2="719.09" y2="961.06"/><line class="cls-6" x1="689.26" y1="956.22" x2="719.93" y2="949.64"/><line class="cls-6" x1="697.91" y1="942.85" x2="718.61" y2="938.4"/><line class="cls-6" x1="703.87" y1="933.62" x2="718.02" y2="930.58"/><line class="cls-6" x1="716.01" y1="914.84" x2="666.84" y2="990.92"/><path class="cls-6" d="M712,982.12c-13.55,21-29.79,18.73-45.17,8.79S643,966.7,656.55,945.74,715.91,915,715.91,915,725.57,961.16,712,982.12Z"/><line class="cls-1" x1="108.61" y1="1022.81" x2="108.61" y2="1260.81"/><path class="cls-3" d="M232.05,1213c41.07-51.47,83.12-41.35,120.89-11.22s56.25,69.81,15.18,121.28-163.9,65.12-163.9,65.12S191,1264.46,232.05,1213Z"/><line class="cls-4" x1="368.94" y1="883.89" x2="384.54" y2="844.6"/><line class="cls-4" x1="332.52" y1="899.88" x2="354.27" y2="845.06"/><line class="cls-4" x1="352.44" y1="891.28" x2="371.18" y2="844.07"/><line class="cls-4" x1="402.4" y1="847.65" x2="392.08" y2="873.64"/><line class="cls-4" x1="337.39" y1="897.78" x2="390.94" y2="919.04"/><line class="cls-4" x1="357.31" y1="889.18" x2="403.57" y2="907.54"/><line class="cls-4" x1="375.45" y1="881.34" x2="412.53" y2="896.06"/><line class="cls-4" x1="394.05" y1="873.32" x2="419.08" y2="883.25"/><line class="cls-4" x1="406.88" y1="867.77" x2="424" y2="874.57"/><line class="cls-4" x1="433" y1="856.5" x2="327.2" y2="902.18"/><path class="cls-4" d="M381.2,924.82c-29.15,12.58-44.74-1.26-54-22.65s-8.1-42.46,21-55,84.51,9.46,84.51,9.46S410.35,912.23,381.2,924.82Z"/><line class="cls-2" x1="155.96" y1="1254.9" x2="104.94" y2="1177.34"/><line class="cls-2" x1="121.72" y1="1247.84" x2="77.65" y2="1180.83"/><line class="cls-2" x1="90.53" y1="1241.4" x2="55.21" y2="1187.7"/><path class="cls-2" d="M123.14,1178.72c50.09,10.34,57.87,43,50.28,79.79s-28.56,63.51-78.66,53.17S-8,1221.06-8,1221.06,73,1168.38,123.14,1178.72Z"/><line class="cls-5" x1="252.72" y1="1019.45" x2="174.84" y2="979.16"/><line class="cls-5" x1="278.2" y1="1097.91" x2="169.55" y2="1041.7"/><line class="cls-5" x1="264.56" y1="1055.03" x2="170.98" y2="1006.62"/><line class="cls-5" x1="184.83" y1="942.93" x2="236.33" y2="969.57"/><line class="cls-5" x1="274.87" y1="1087.43" x2="329.78" y2="981.29"/><line class="cls-5" x1="261.23" y1="1044.55" x2="308.66" y2="952.86"/><line class="cls-5" x1="248.8" y1="1005.48" x2="286.81" y2="932"/><line class="cls-5" x1="236.07" y1="965.45" x2="261.74" y2="915.84"/><line class="cls-5" x1="227.28" y1="937.82" x2="244.82" y2="903.9"/><line class="cls-5" x1="209.39" y1="881.59" x2="281.84" y2="1109.35"/><path class="cls-5" d="M339.7,1002.59c20,62.75-11.82,92.07-57.87,106.72s-89.29,8-109.25-54.79,37-172.45,37-172.45S319.74,939.84,339.7,1002.59Z"/><line class="cls-6" x1="439.63" y1="1104.91" x2="500.18" y2="1080.9"/><line class="cls-6" x1="383.23" y1="1080.94" x2="467.7" y2="1047.45"/><line class="cls-6" x1="413.91" y1="1094.2" x2="486.67" y2="1065.35"/><line class="cls-6" x1="515.62" y1="1104.16" x2="475.58" y2="1120.04"/><line class="cls-6" x1="390.73" y1="1084.18" x2="423.45" y2="1166.71"/><line class="cls-6" x1="421.42" y1="1097.44" x2="449.68" y2="1168.74"/><line class="cls-6" x1="449.37" y1="1109.53" x2="472.03" y2="1166.66"/><line class="cls-6" x1="478.01" y1="1121.9" x2="493.31" y2="1160.48"/><line class="cls-6" x1="497.79" y1="1130.45" x2="508.24" y2="1156.82"/><line class="cls-6" x1="538.02" y1="1147.83" x2="375.05" y2="1077.41"/><path class="cls-6" d="M406.68,1161.89c-44.9-19.41-45.85-51.52-31.61-84.47s39.07-53.93,84-34.52,78.64,104.79,78.64,104.79S451.58,1181.29,406.68,1161.89Z"/><line class="cls-6" x1="74.12" y1="960.74" x2="67.14" y2="928.24"/><line class="cls-6" x1="57.31" y1="987.1" x2="47.57" y2="941.77"/><line class="cls-6" x1="66.57" y1="972.78" x2="58.18" y2="933.73"/><line class="cls-6" x1="80.15" y1="922.43" x2="84.77" y2="943.92"/><line class="cls-6" x1="59.57" y1="983.6" x2="103.86" y2="974.09"/><line class="cls-6" x1="68.83" y1="969.27" x2="107.09" y2="961.06"/><line class="cls-6" x1="77.26" y1="956.22" x2="107.93" y2="949.64"/><line class="cls-6" x1="85.91" y1="942.85" x2="106.61" y2="938.4"/><line class="cls-6" x1="91.87" y1="933.62" x2="106.02" y2="930.58"/><line class="cls-6" x1="104.01" y1="914.84" x2="54.84" y2="990.92"/><path class="cls-6" d="M100,982.12c-13.55,21-29.79,18.73-45.17,8.79S31,966.7,44.55,945.74,103.91,915,103.91,915,113.57,961.16,100,982.12Z"/><line class="cls-1" x1="1026.61" y1="428.81" x2="1026.61" y2="666.81"/><line class="cls-3" x1="1212.42" y1="681.92" x2="1222.21" y2="769.06"/><line class="cls-3" x1="1186.54" y1="780.89" x2="1180.07" y2="723.27"/><line class="cls-3" x1="1256.62" y1="625.72" x2="1137.87" y2="639.07"/><line class="cls-3" x1="1228.56" y1="660.9" x2="1125.96" y2="672.43"/><line class="cls-3" x1="1202.98" y1="692.95" x2="1120.77" y2="702.19"/><line class="cls-3" x1="1176.79" y1="725.78" x2="1121.28" y2="732.02"/><line class="cls-3" x1="1158.7" y1="748.45" x2="1120.76" y2="752.71"/><line class="cls-3" x1="1121.9" y1="794.56" x2="1270.97" y2="607.74"/><path class="cls-3" d="M1150.05,619c41.07-51.47,83.12-41.35,120.89-11.22s56.25,69.81,15.18,121.28-163.9,65.12-163.9,65.12S1109,670.46,1150.05,619Z"/><line class="cls-2" x1="1019.48" y1="650.05" x2="962.57" y2="687.49"/><line class="cls-2" x1="1082.32" y1="662.63" x2="1002.93" y2="714.85"/><line class="cls-2" x1="1048.09" y1="655.56" x2="979.71" y2="700.54"/><line class="cls-2" x1="941.83" y1="666.94" x2="979.46" y2="642.19"/><line class="cls-2" x1="1073.96" y1="660.9" x2="1022.94" y2="583.34"/><line class="cls-2" x1="1039.72" y1="653.84" x2="995.65" y2="586.83"/><line class="cls-2" x1="1008.53" y1="647.4" x2="973.21" y2="593.7"/><line class="cls-2" x1="976.57" y1="640.8" x2="952.73" y2="604.54"/><line class="cls-2" x1="954.51" y1="636.25" x2="938.21" y2="611.46"/><line class="cls-2" x1="909.62" y1="626.98" x2="1091.45" y2="664.51"/><path class="cls-2" d="M1041.14,584.72c50.09,10.34,57.87,43,50.28,79.79s-28.56,63.51-78.66,53.17S910,627.06,910,627.06,991,574.38,1041.14,584.72Z"/><line class="cls-5" x1="1170.72" y1="425.45" x2="1092.84" y2="385.16"/><line class="cls-5" x1="1196.2" y1="503.91" x2="1087.55" y2="447.7"/><line class="cls-5" x1="1182.56" y1="461.03" x2="1088.98" y2="412.62"/><line class="cls-5" x1="1102.83" y1="348.93" x2="1154.33" y2="375.57"/><line class="cls-5" x1="1192.87" y1="493.43" x2="1247.78" y2="387.29"/><line class="cls-5" x1="1179.23" y1="450.55" x2="1226.66" y2="358.86"/><line class="cls-5" x1="1166.8" y1="411.48" x2="1204.81" y2="338"/><line class="cls-5" x1="1154.07" y1="371.45" x2="1179.74" y2="321.84"/><line class="cls-5" x1="1145.28" y1="343.82" x2="1162.82" y2="309.9"/><line class="cls-5" x1="1127.39" y1="287.59" x2="1199.84" y2="515.35"/><path class="cls-5" d="M1257.7,408.59c20,62.75-11.82,92.07-57.87,106.72s-89.29,8-109.25-54.79,37-172.45,37-172.45S1237.74,345.84,1257.7,408.59Z"/><line class="cls-6" x1="992.12" y1="366.74" x2="985.14" y2="334.24"/><line class="cls-6" x1="975.31" y1="393.1" x2="965.57" y2="347.77"/><line class="cls-6" x1="984.57" y1="378.78" x2="976.18" y2="339.73"/><line class="cls-6" x1="998.15" y1="328.43" x2="1002.77" y2="349.92"/><line class="cls-6" x1="977.57" y1="389.6" x2="1021.86" y2="380.09"/><line class="cls-6" x1="986.83" y1="375.27" x2="1025.09" y2="367.06"/><line class="cls-6" x1="995.26" y1="362.22" x2="1025.93" y2="355.64"/><line class="cls-6" x1="1003.91" y1="348.85" x2="1024.61" y2="344.4"/><line class="cls-6" x1="1009.87" y1="339.62" x2="1024.02" y2="336.58"/><line class="cls-6" x1="1022.01" y1="320.84" x2="972.84" y2="396.92"/><path class="cls-6" d="M1018,388.12c-13.55,21-29.79,18.73-45.17,8.79S949,372.7,962.55,351.74,1021.91,321,1021.91,321,1031.57,367.16,1018,388.12Z"/><line class="cls-2" x1="1186.08" y1="886.7" x2="1154.87" y2="875.26"/><line class="cls-2" x1="1199.4" y1="914.99" x2="1155.86" y2="899.03"/><line class="cls-2" x1="1192.23" y1="899.51" x2="1154.73" y2="885.77"/><line class="cls-2" x1="1156.9" y1="861.16" x2="1177.53" y2="868.72"/><line class="cls-2" x1="1197.65" y1="911.2" x2="1213.23" y2="868.67"/><line class="cls-2" x1="1190.47" y1="895.73" x2="1203.94" y2="858.99"/><line class="cls-2" x1="1183.94" y1="881.63" x2="1194.73" y2="852.18"/><line class="cls-2" x1="1177.24" y1="867.19" x2="1184.52" y2="847.3"/><line class="cls-2" x1="1172.61" y1="857.21" x2="1177.59" y2="843.62"/><line class="cls-2" x1="1163.21" y1="836.92" x2="1201.32" y2="919.11"/><path class="cls-2" d="M1218,876.21c10.5,22.64,0,35.19-16.67,42.89s-33.2,7.25-43.7-15.39,5.68-66.61,5.68-66.61S1207.48,853.56,1218,876.21Z"/><line class="cls-1" x1="414.61" y1="428.81" x2="414.61" y2="666.81"/><line class="cls-3" x1="600.42" y1="681.92" x2="610.21" y2="769.06"/><line class="cls-3" x1="651.48" y1="617.12" x2="665.15" y2="738.69"/><line class="cls-3" x1="623.42" y1="652.3" x2="635.18" y2="757"/><line class="cls-3" x1="574.54" y1="780.89" x2="568.07" y2="723.27"/><line class="cls-3" x1="644.62" y1="625.72" x2="525.87" y2="639.07"/><line class="cls-3" x1="616.56" y1="660.9" x2="513.96" y2="672.43"/><line class="cls-3" x1="590.98" y1="692.95" x2="508.77" y2="702.19"/><line class="cls-3" x1="564.79" y1="725.78" x2="509.28" y2="732.02"/><line class="cls-3" x1="546.7" y1="748.45" x2="508.76" y2="752.71"/><line class="cls-3" x1="509.9" y1="794.56" x2="658.97" y2="607.74"/><path class="cls-3" d="M538.05,619c41.07-51.47,83.12-41.35,120.89-11.22s56.25,69.81,15.18,121.28-163.9,65.12-163.9,65.12S497,670.46,538.05,619Z"/><line class="cls-4" x1="674.94" y1="289.89" x2="690.54" y2="250.6"/><line class="cls-4" x1="638.52" y1="305.88" x2="660.27" y2="251.06"/><line class="cls-4" x1="658.44" y1="297.28" x2="677.18" y2="250.07"/><line class="cls-4" x1="708.4" y1="253.65" x2="698.08" y2="279.64"/><line class="cls-4" x1="643.39" y1="303.78" x2="696.94" y2="325.04"/><line class="cls-4" x1="663.31" y1="295.18" x2="709.57" y2="313.54"/><line class="cls-4" x1="681.45" y1="287.34" x2="718.53" y2="302.06"/><line class="cls-4" x1="700.05" y1="279.32" x2="725.08" y2="289.25"/><line class="cls-4" x1="712.88" y1="273.77" x2="730" y2="280.57"/><line class="cls-4" x1="739" y1="262.5" x2="633.2" y2="308.18"/><path class="cls-4" d="M687.2,330.82c-29.15,12.58-44.74-1.26-54-22.65s-8.1-42.46,21-55,84.51,9.46,84.51,9.46S716.35,318.23,687.2,330.82Z"/><line class="cls-2" x1="407.48" y1="650.05" x2="350.57" y2="687.49"/><line class="cls-2" x1="470.32" y1="662.63" x2="390.93" y2="714.85"/><line class="cls-2" x1="436.09" y1="655.56" x2="367.71" y2="700.54"/><line class="cls-2" x1="329.83" y1="666.94" x2="367.46" y2="642.19"/><line class="cls-2" x1="461.96" y1="660.9" x2="410.94" y2="583.34"/><line class="cls-2" x1="427.72" y1="653.84" x2="383.65" y2="586.83"/><line class="cls-2" x1="396.53" y1="647.4" x2="361.21" y2="593.7"/><line class="cls-2" x1="364.57" y1="640.8" x2="340.73" y2="604.54"/><line class="cls-2" x1="342.51" y1="636.25" x2="326.21" y2="611.46"/><line class="cls-2" x1="297.62" y1="626.98" x2="479.45" y2="664.51"/><path class="cls-2" d="M429.14,584.72c50.09,10.34,57.87,43,50.28,79.79S450.86,728,400.76,717.68,298,627.06,298,627.06,379,574.38,429.14,584.72Z"/><line class="cls-5" x1="558.72" y1="425.45" x2="480.84" y2="385.16"/><line class="cls-5" x1="584.2" y1="503.91" x2="475.55" y2="447.7"/><line class="cls-5" x1="570.56" y1="461.03" x2="476.98" y2="412.62"/><line class="cls-5" x1="490.83" y1="348.93" x2="542.33" y2="375.57"/><line class="cls-5" x1="580.87" y1="493.43" x2="635.78" y2="387.29"/><line class="cls-5" x1="567.23" y1="450.55" x2="614.66" y2="358.86"/><line class="cls-5" x1="554.8" y1="411.48" x2="592.81" y2="338"/><line class="cls-5" x1="542.07" y1="371.45" x2="567.74" y2="321.84"/><line class="cls-5" x1="533.28" y1="343.82" x2="550.82" y2="309.9"/><line class="cls-5" x1="515.39" y1="287.59" x2="587.84" y2="515.35"/><path class="cls-5" d="M645.7,408.59c20,62.75-11.82,92.07-57.87,106.72s-89.29,8-109.25-54.79,37-172.45,37-172.45S625.74,345.84,645.7,408.59Z"/><line class="cls-6" x1="745.63" y1="510.91" x2="806.18" y2="486.9"/><line class="cls-6" x1="689.23" y1="486.94" x2="773.7" y2="453.45"/><line class="cls-6" x1="719.91" y1="500.2" x2="792.67" y2="471.35"/><line class="cls-6" x1="821.62" y1="510.16" x2="781.58" y2="526.04"/><line class="cls-6" x1="696.73" y1="490.18" x2="729.45" y2="572.71"/><line class="cls-6" x1="727.42" y1="503.44" x2="755.68" y2="574.74"/><line class="cls-6" x1="755.37" y1="515.53" x2="778.03" y2="572.66"/><line class="cls-6" x1="784.01" y1="527.9" x2="799.31" y2="566.48"/><line class="cls-6" x1="803.79" y1="536.45" x2="814.24" y2="562.82"/><line class="cls-6" x1="844.02" y1="553.83" x2="681.05" y2="483.41"/><path class="cls-6" d="M712.68,567.89c-44.9-19.41-45.85-51.52-31.61-84.47s39.07-53.93,84-34.52,78.64,104.79,78.64,104.79S757.58,587.29,712.68,567.89Z"/><line class="cls-2" x1="805.54" y1="743.13" x2="860.87" y2="708.77"/><line class="cls-2" x1="745.78" y1="729.53" x2="822.98" y2="681.59"/><line class="cls-2" x1="778.33" y1="737.14" x2="844.82" y2="695.86"/><line class="cls-2" x1="880.19" y1="728.92" x2="843.6" y2="751.64"/><line class="cls-2" x1="753.74" y1="731.39" x2="800.57" y2="806.81"/><line class="cls-2" x1="786.29" y1="739.01" x2="826.74" y2="804.16"/><line class="cls-2" x1="815.94" y1="745.94" x2="848.36" y2="798.15"/><line class="cls-2" x1="846.32" y1="753.04" x2="868.21" y2="788.3"/><line class="cls-2" x1="867.3" y1="757.95" x2="882.26" y2="782.05"/><line class="cls-2" x1="909.98" y1="767.93" x2="737.1" y2="727.5"/><path class="cls-2" d="M783.2,805c-47.63-11.14-54.25-42.57-46.07-77.53s28.89-60,76.52-48.86,96,89.19,96,89.19S830.84,816.18,783.2,805Z"/><line class="cls-6" x1="380.12" y1="366.74" x2="373.14" y2="334.24"/><line class="cls-6" x1="363.31" y1="393.1" x2="353.57" y2="347.77"/><line class="cls-6" x1="372.57" y1="378.78" x2="364.18" y2="339.73"/><line class="cls-6" x1="386.15" y1="328.43" x2="390.77" y2="349.92"/><line class="cls-6" x1="365.57" y1="389.6" x2="409.86" y2="380.09"/><line class="cls-6" x1="374.83" y1="375.27" x2="413.09" y2="367.06"/><line class="cls-6" x1="383.26" y1="362.22" x2="413.93" y2="355.64"/><line class="cls-6" x1="391.91" y1="348.85" x2="412.61" y2="344.4"/><line class="cls-6" x1="397.87" y1="339.62" x2="412.02" y2="336.58"/><line class="cls-6" x1="410.01" y1="320.84" x2="360.84" y2="396.92"/><path class="cls-6" d="M406,388.12c-13.55,21-29.79,18.73-45.17,8.79S337,372.7,350.55,351.74,409.91,321,409.91,321,419.57,367.16,406,388.12Z"/><line class="cls-2" x1="574.08" y1="886.7" x2="542.87" y2="875.26"/><line class="cls-2" x1="587.4" y1="914.99" x2="543.86" y2="899.03"/><line class="cls-2" x1="580.23" y1="899.51" x2="542.73" y2="885.77"/><line class="cls-2" x1="544.9" y1="861.16" x2="565.53" y2="868.72"/><line class="cls-2" x1="585.65" y1="911.2" x2="601.23" y2="868.67"/><line class="cls-2" x1="578.47" y1="895.73" x2="591.94" y2="858.99"/><line class="cls-2" x1="571.94" y1="881.63" x2="582.73" y2="852.18"/><line class="cls-2" x1="565.24" y1="867.19" x2="572.52" y2="847.3"/><line class="cls-2" x1="560.61" y1="857.21" x2="565.59" y2="843.62"/><line class="cls-2" x1="551.21" y1="836.92" x2="589.32" y2="919.11"/><path class="cls-2" d="M606,876.21c10.5,22.64-.05,35.19-16.67,42.89s-33.2,7.25-43.7-15.39,5.68-66.61,5.68-66.61S595.48,853.56,606,876.21Z"/><line class="cls-3" x1="39.48" y1="617.12" x2="53.15" y2="738.69"/><line class="cls-3" x1="11.42" y1="652.3" x2="23.18" y2="757"/><line class="cls-3" x1="32.62" y1="625.72" x2="-86.13" y2="639.07"/><line class="cls-3" x1="4.56" y1="660.9" x2="-98.04" y2="672.43"/><line class="cls-3" x1="-102.1" y1="794.56" x2="46.97" y2="607.74"/><path class="cls-3" d="M-73.95,619c41.07-51.47,83.12-41.35,120.89-11.22s56.25,69.81,15.18,121.28-163.9,65.12-163.9,65.12S-115,670.46-73.95,619Z"/><line class="cls-4" x1="62.94" y1="289.89" x2="78.54" y2="250.6"/><line class="cls-4" x1="26.52" y1="305.88" x2="48.27" y2="251.06"/><line class="cls-4" x1="46.44" y1="297.28" x2="65.18" y2="250.07"/><line class="cls-4" x1="96.4" y1="253.65" x2="86.08" y2="279.64"/><line class="cls-4" x1="31.39" y1="303.78" x2="84.94" y2="325.04"/><line class="cls-4" x1="51.31" y1="295.18" x2="97.57" y2="313.54"/><line class="cls-4" x1="69.45" y1="287.34" x2="106.53" y2="302.06"/><line class="cls-4" x1="88.05" y1="279.32" x2="113.08" y2="289.25"/><line class="cls-4" x1="100.88" y1="273.77" x2="118" y2="280.57"/><line class="cls-4" x1="127" y1="262.5" x2="21.2" y2="308.18"/><path class="cls-4" d="M75.2,330.82c-29.15,12.58-44.74-1.26-54-22.65s-8.1-42.46,21.05-55,84.51,9.46,84.51,9.46S104.35,318.23,75.2,330.82Z"/><line class="cls-5" x1="-31.13" y1="493.43" x2="23.78" y2="387.29"/><line class="cls-5" x1="-44.77" y1="450.55" x2="2.66" y2="358.86"/><path class="cls-5" d="M33.7,408.59c20,62.75-11.82,92.07-57.87,106.72s-89.29,8-109.25-54.79,37-172.45,37-172.45S13.74,345.84,33.7,408.59Z"/><line class="cls-6" x1="133.63" y1="510.91" x2="194.18" y2="486.9"/><line class="cls-6" x1="77.23" y1="486.94" x2="161.7" y2="453.45"/><line class="cls-6" x1="107.91" y1="500.2" x2="180.67" y2="471.35"/><line class="cls-6" x1="209.62" y1="510.16" x2="169.58" y2="526.04"/><line class="cls-6" x1="84.73" y1="490.18" x2="117.45" y2="572.71"/><line class="cls-6" x1="115.42" y1="503.44" x2="143.68" y2="574.74"/><line class="cls-6" x1="143.37" y1="515.53" x2="166.03" y2="572.66"/><line class="cls-6" x1="172.01" y1="527.9" x2="187.31" y2="566.48"/><line class="cls-6" x1="191.79" y1="536.45" x2="202.24" y2="562.82"/><line class="cls-6" x1="232.02" y1="553.83" x2="69.05" y2="483.41"/><path class="cls-6" d="M100.68,567.89c-44.9-19.41-45.85-51.52-31.61-84.47s39.07-53.93,84-34.52,78.64,104.79,78.64,104.79S145.58,587.29,100.68,567.89Z"/><line class="cls-2" x1="193.54" y1="743.13" x2="248.87" y2="708.77"/><line class="cls-2" x1="133.78" y1="729.53" x2="210.98" y2="681.59"/><line class="cls-2" x1="166.33" y1="737.14" x2="232.82" y2="695.86"/><line class="cls-2" x1="268.19" y1="728.92" x2="231.6" y2="751.64"/><line class="cls-2" x1="141.74" y1="731.39" x2="188.57" y2="806.81"/><line class="cls-2" x1="174.29" y1="739.01" x2="214.74" y2="804.16"/><line class="cls-2" x1="203.94" y1="745.94" x2="236.36" y2="798.15"/><line class="cls-2" x1="234.32" y1="753.04" x2="256.21" y2="788.3"/><line class="cls-2" x1="255.3" y1="757.95" x2="270.26" y2="782.05"/><line class="cls-2" x1="297.98" y1="767.93" x2="125.1" y2="727.5"/><path class="cls-2" d="M171.2,805c-47.63-11.14-54.25-42.57-46.07-77.53s28.89-60,76.52-48.86,96,89.19,96,89.19S218.84,816.18,171.2,805Z"/><line class="cls-2" x1="1215.62" y1="32.98" x2="1397.45" y2="70.51"/><path class="cls-2" d="M1347.14-9.28c50.09,10.34,57.87,43,50.28,79.79s-28.56,63.51-78.66,53.17S1216,33.06,1216,33.06,1297-19.62,1347.14-9.28Z"/><line class="cls-1" x1="720.61" y1="-165.19" x2="720.61" y2="72.81"/><line class="cls-3" x1="906.42" y1="87.92" x2="916.21" y2="175.06"/><line class="cls-3" x1="957.48" y1="23.12" x2="971.15" y2="144.69"/><line class="cls-3" x1="929.42" y1="58.3" x2="941.18" y2="163"/><line class="cls-3" x1="880.54" y1="186.89" x2="874.07" y2="129.27"/><line class="cls-3" x1="950.62" y1="31.72" x2="831.87" y2="45.07"/><line class="cls-3" x1="922.56" y1="66.9" x2="819.96" y2="78.43"/><line class="cls-3" x1="896.98" y1="98.95" x2="814.77" y2="108.19"/><line class="cls-3" x1="870.79" y1="131.78" x2="815.28" y2="138.02"/><line class="cls-3" x1="852.7" y1="154.45" x2="814.76" y2="158.71"/><line class="cls-3" x1="815.9" y1="200.56" x2="964.97" y2="13.74"/><path class="cls-3" d="M844.05,25c41.07-51.47,83.12-41.35,120.89-11.22s56.25,69.81,15.18,121.28-163.9,65.12-163.9,65.12S803,76.46,844.05,25Z"/><line class="cls-2" x1="713.48" y1="56.05" x2="656.57" y2="93.49"/><line class="cls-2" x1="776.32" y1="68.63" x2="696.93" y2="120.85"/><line class="cls-2" x1="742.09" y1="61.56" x2="673.71" y2="106.54"/><line class="cls-2" x1="635.83" y1="72.94" x2="673.46" y2="48.19"/><line class="cls-2" x1="767.96" y1="66.9" x2="716.94" y2="-10.66"/><line class="cls-2" x1="733.72" y1="59.84" x2="689.65" y2="-7.17"/><line class="cls-2" x1="702.53" y1="53.4" x2="667.21" y2="-0.3"/><line class="cls-2" x1="670.57" y1="46.8" x2="646.73" y2="10.54"/><line class="cls-2" x1="648.51" y1="42.25" x2="632.21" y2="17.46"/><line class="cls-2" x1="603.62" y1="32.98" x2="785.45" y2="70.51"/><path class="cls-2" d="M735.14-9.28c50.09,10.34,57.87,43,50.28,79.79S756.86,134,706.76,123.68,604,33.06,604,33.06,685-19.62,735.14-9.28Z"/><line class="cls-2" x1="1111.54" y1="149.13" x2="1166.87" y2="114.77"/><line class="cls-2" x1="1051.78" y1="135.53" x2="1128.98" y2="87.59"/><line class="cls-2" x1="1084.33" y1="143.14" x2="1150.82" y2="101.86"/><line class="cls-2" x1="1186.19" y1="134.92" x2="1149.6" y2="157.64"/><line class="cls-2" x1="1059.74" y1="137.39" x2="1106.57" y2="212.81"/><line class="cls-2" x1="1092.29" y1="145.01" x2="1132.74" y2="210.16"/><line class="cls-2" x1="1121.94" y1="151.94" x2="1154.36" y2="204.15"/><line class="cls-2" x1="1152.32" y1="159.04" x2="1174.21" y2="194.3"/><line class="cls-2" x1="1173.3" y1="163.95" x2="1188.26" y2="188.05"/><line class="cls-2" x1="1215.98" y1="173.93" x2="1043.1" y2="133.5"/><path class="cls-2" d="M1089.2,211c-47.63-11.14-54.25-42.57-46.07-77.53s28.89-60,76.52-48.86,96,89.19,96,89.19S1136.84,222.18,1089.2,211Z"/><line class="cls-2" x1="880.08" y1="292.7" x2="848.87" y2="281.26"/><line class="cls-2" x1="893.4" y1="320.99" x2="849.86" y2="305.03"/><line class="cls-2" x1="886.23" y1="305.51" x2="848.73" y2="291.77"/><line class="cls-2" x1="850.9" y1="267.16" x2="871.53" y2="274.72"/><line class="cls-2" x1="891.65" y1="317.2" x2="907.23" y2="274.67"/><line class="cls-2" x1="884.47" y1="301.73" x2="897.94" y2="264.99"/><line class="cls-2" x1="877.94" y1="287.63" x2="888.73" y2="258.18"/><line class="cls-2" x1="871.24" y1="273.19" x2="878.52" y2="253.3"/><line class="cls-2" x1="866.61" y1="263.21" x2="871.59" y2="249.62"/><line class="cls-2" x1="857.21" y1="242.92" x2="895.32" y2="325.11"/><path class="cls-2" d="M912,282.21c10.5,22.64-.05,35.19-16.67,42.89s-33.2,7.25-43.7-15.39,5.68-66.61,5.68-66.61S901.48,259.56,912,282.21Z"/><line class="cls-1" x1="108.61" y1="-165.19" x2="108.61" y2="72.81"/><line class="cls-3" x1="294.42" y1="87.92" x2="304.21" y2="175.06"/><line class="cls-3" x1="345.48" y1="23.12" x2="359.15" y2="144.69"/><line class="cls-3" x1="317.42" y1="58.3" x2="329.18" y2="163"/><line class="cls-3" x1="268.54" y1="186.89" x2="262.07" y2="129.27"/><line class="cls-3" x1="338.62" y1="31.72" x2="219.87" y2="45.07"/><line class="cls-3" x1="310.56" y1="66.9" x2="207.96" y2="78.43"/><line class="cls-3" x1="284.98" y1="98.95" x2="202.77" y2="108.19"/><line class="cls-3" x1="258.79" y1="131.78" x2="203.28" y2="138.02"/><line class="cls-3" x1="240.7" y1="154.45" x2="202.76" y2="158.71"/><line class="cls-3" x1="203.9" y1="200.56" x2="352.97" y2="13.74"/><path class="cls-3" d="M232.05,25c41.07-51.47,83.12-41.35,120.89-11.22s56.25,69.81,15.18,121.28-163.9,65.12-163.9,65.12S191,76.46,232.05,25Z"/><line class="cls-2" x1="101.48" y1="56.05" x2="44.57" y2="93.49"/><line class="cls-2" x1="164.32" y1="68.63" x2="84.93" y2="120.85"/><line class="cls-2" x1="130.09" y1="61.56" x2="61.71" y2="106.54"/><line class="cls-2" x1="23.83" y1="72.94" x2="61.46" y2="48.19"/><line class="cls-2" x1="155.96" y1="66.9" x2="104.94" y2="-10.66"/><line class="cls-2" x1="121.72" y1="59.84" x2="77.65" y2="-7.17"/><line class="cls-2" x1="90.53" y1="53.4" x2="55.21" y2="-0.3"/><line class="cls-2" x1="58.57" y1="46.8" x2="34.73" y2="10.54"/><line class="cls-2" x1="36.51" y1="42.25" x2="20.21" y2="17.46"/><line class="cls-2" x1="-8.38" y1="32.98" x2="173.45" y2="70.51"/><path class="cls-2" d="M123.14-9.28c50.09,10.34,57.87,43,50.28,79.79S144.86,134,94.76,123.68-8,33.06-8,33.06,73-19.62,123.14-9.28Z"/><line class="cls-2" x1="499.54" y1="149.13" x2="554.87" y2="114.77"/><line class="cls-2" x1="439.78" y1="135.53" x2="516.98" y2="87.59"/><line class="cls-2" x1="472.33" y1="143.14" x2="538.82" y2="101.86"/><line class="cls-2" x1="574.19" y1="134.92" x2="537.6" y2="157.64"/><line class="cls-2" x1="447.74" y1="137.39" x2="494.57" y2="212.81"/><line class="cls-2" x1="480.29" y1="145.01" x2="520.74" y2="210.16"/><line class="cls-2" x1="509.94" y1="151.94" x2="542.36" y2="204.15"/><line class="cls-2" x1="540.32" y1="159.04" x2="562.21" y2="194.3"/><line class="cls-2" x1="561.3" y1="163.95" x2="576.26" y2="188.05"/><line class="cls-2" x1="603.98" y1="173.93" x2="431.1" y2="133.5"/><path class="cls-2" d="M477.2,211c-47.63-11.14-54.25-42.57-46.07-77.53s28.89-60,76.52-48.86,96,89.19,96,89.19S524.84,222.18,477.2,211Z"/><line class="cls-2" x1="268.08" y1="292.7" x2="236.87" y2="281.26"/><line class="cls-2" x1="281.4" y1="320.99" x2="237.86" y2="305.03"/><line class="cls-2" x1="274.23" y1="305.51" x2="236.73" y2="291.77"/><line class="cls-2" x1="238.9" y1="267.16" x2="259.53" y2="274.72"/><line class="cls-2" x1="279.65" y1="317.2" x2="295.23" y2="274.67"/><line class="cls-2" x1="272.47" y1="301.73" x2="285.94" y2="264.99"/><line class="cls-2" x1="265.94" y1="287.63" x2="276.73" y2="258.18"/><line class="cls-2" x1="259.24" y1="273.19" x2="266.52" y2="253.3"/><line class="cls-2" x1="254.61" y1="263.21" x2="259.59" y2="249.62"/><line class="cls-2" x1="245.21" y1="242.92" x2="283.32" y2="325.11"/><path class="cls-2" d="M300,282.21c10.5,22.64-.05,35.19-16.67,42.89s-33.2,7.25-43.7-15.39,5.68-66.61,5.68-66.61S289.48,259.56,300,282.21Z"/></pattern><pattern id="LEAF_NO_COLOR-3" data-name="LEAF NO COLOR" width="1224" height="1188" patternTransform="translate(-867.5 89.5)" patternUnits="userSpaceOnUse" viewBox="0 0 1224 1188"><rect class="cls-1" width="1224" height="1188"/><path class="cls-2" d="M1347.14,1178.72c50.09,10.34,57.87,43,50.28,79.79s-28.56,63.51-78.66,53.17S1216,1221.06,1216,1221.06,1297,1168.38,1347.14,1178.72Z"/><line class="cls-1" x1="720.61" y1="1022.81" x2="720.61" y2="1260.81"/><path class="cls-3" d="M844.05,1213c41.07-51.47,83.12-41.35,120.89-11.22s56.25,69.81,15.18,121.28-163.9,65.12-163.9,65.12S803,1264.46,844.05,1213Z"/><line class="cls-4" x1="980.94" y1="883.89" x2="996.54" y2="844.6"/><line class="cls-4" x1="944.52" y1="899.88" x2="966.27" y2="845.06"/><line class="cls-4" x1="964.44" y1="891.28" x2="983.18" y2="844.07"/><line class="cls-4" x1="1014.4" y1="847.65" x2="1004.08" y2="873.64"/><line class="cls-4" x1="949.39" y1="897.78" x2="1002.94" y2="919.04"/><line class="cls-4" x1="969.31" y1="889.18" x2="1015.57" y2="907.54"/><line class="cls-4" x1="987.45" y1="881.34" x2="1024.53" y2="896.06"/><line class="cls-4" x1="1006.05" y1="873.32" x2="1031.08" y2="883.25"/><line class="cls-4" x1="1018.88" y1="867.77" x2="1036" y2="874.57"/><line class="cls-4" x1="1045" y1="856.5" x2="939.2" y2="902.18"/><path class="cls-4" d="M993.2,924.82c-29.15,12.58-44.74-1.26-54-22.65s-8.1-42.46,21-55,84.51,9.46,84.51,9.46S1022.35,912.23,993.2,924.82Z"/><line class="cls-2" x1="767.96" y1="1254.9" x2="716.94" y2="1177.34"/><line class="cls-2" x1="733.72" y1="1247.84" x2="689.65" y2="1180.83"/><line class="cls-2" x1="702.53" y1="1241.4" x2="667.21" y2="1187.7"/><path class="cls-2" d="M735.14,1178.72c50.09,10.34,57.87,43,50.28,79.79s-28.56,63.51-78.66,53.17S604,1221.06,604,1221.06,685,1168.38,735.14,1178.72Z"/><line class="cls-5" x1="864.72" y1="1019.45" x2="786.84" y2="979.16"/><line class="cls-5" x1="890.2" y1="1097.91" x2="781.55" y2="1041.7"/><line class="cls-5" x1="876.56" y1="1055.03" x2="782.98" y2="1006.62"/><line class="cls-5" x1="796.83" y1="942.93" x2="848.33" y2="969.57"/><line class="cls-5" x1="886.87" y1="1087.43" x2="941.78" y2="981.29"/><line class="cls-5" x1="873.23" y1="1044.55" x2="920.66" y2="952.86"/><line class="cls-5" x1="860.8" y1="1005.48" x2="898.81" y2="932"/><line class="cls-5" x1="848.07" y1="965.45" x2="873.74" y2="915.84"/><line class="cls-5" x1="839.28" y1="937.82" x2="856.82" y2="903.9"/><line class="cls-5" x1="821.39" y1="881.59" x2="893.84" y2="1109.35"/><path class="cls-5" d="M951.7,1002.59c20,62.75-11.82,92.07-57.87,106.72s-89.29,8-109.25-54.79,37-172.45,37-172.45S931.74,939.84,951.7,1002.59Z"/><line class="cls-6" x1="1051.63" y1="1104.91" x2="1112.18" y2="1080.9"/><line class="cls-6" x1="995.23" y1="1080.94" x2="1079.7" y2="1047.45"/><line class="cls-6" x1="1025.91" y1="1094.2" x2="1098.67" y2="1065.35"/><line class="cls-6" x1="1127.62" y1="1104.16" x2="1087.58" y2="1120.04"/><line class="cls-6" x1="1002.73" y1="1084.18" x2="1035.45" y2="1166.71"/><line class="cls-6" x1="1033.42" y1="1097.44" x2="1061.68" y2="1168.74"/><line class="cls-6" x1="1061.37" y1="1109.53" x2="1084.03" y2="1166.66"/><line class="cls-6" x1="1090.01" y1="1121.9" x2="1105.31" y2="1160.48"/><line class="cls-6" x1="1109.79" y1="1130.45" x2="1120.24" y2="1156.82"/><line class="cls-6" x1="1150.02" y1="1147.83" x2="987.05" y2="1077.41"/><path class="cls-6" d="M1018.68,1161.89c-44.9-19.41-45.85-51.52-31.61-84.47s39.07-53.93,84-34.52,78.64,104.79,78.64,104.79S1063.58,1181.29,1018.68,1161.89Z"/><line class="cls-6" x1="686.12" y1="960.74" x2="679.14" y2="928.24"/><line class="cls-6" x1="669.31" y1="987.1" x2="659.57" y2="941.77"/><line class="cls-6" x1="678.57" y1="972.78" x2="670.18" y2="933.73"/><line class="cls-6" x1="692.15" y1="922.43" x2="696.77" y2="943.92"/><line class="cls-6" x1="671.57" y1="983.6" x2="715.86" y2="974.09"/><line class="cls-6" x1="680.83" y1="969.27" x2="719.09" y2="961.06"/><line class="cls-6" x1="689.26" y1="956.22" x2="719.93" y2="949.64"/><line class="cls-6" x1="697.91" y1="942.85" x2="718.61" y2="938.4"/><line class="cls-6" x1="703.87" y1="933.62" x2="718.02" y2="930.58"/><line class="cls-6" x1="716.01" y1="914.84" x2="666.84" y2="990.92"/><path class="cls-6" d="M712,982.12c-13.55,21-29.79,18.73-45.17,8.79S643,966.7,656.55,945.74,715.91,915,715.91,915,725.57,961.16,712,982.12Z"/><line class="cls-1" x1="108.61" y1="1022.81" x2="108.61" y2="1260.81"/><path class="cls-3" d="M232.05,1213c41.07-51.47,83.12-41.35,120.89-11.22s56.25,69.81,15.18,121.28-163.9,65.12-163.9,65.12S191,1264.46,232.05,1213Z"/><line class="cls-4" x1="368.94" y1="883.89" x2="384.54" y2="844.6"/><line class="cls-4" x1="332.52" y1="899.88" x2="354.27" y2="845.06"/><line class="cls-4" x1="352.44" y1="891.28" x2="371.18" y2="844.07"/><line class="cls-4" x1="402.4" y1="847.65" x2="392.08" y2="873.64"/><line class="cls-4" x1="337.39" y1="897.78" x2="390.94" y2="919.04"/><line class="cls-4" x1="357.31" y1="889.18" x2="403.57" y2="907.54"/><line class="cls-4" x1="375.45" y1="881.34" x2="412.53" y2="896.06"/><line class="cls-4" x1="394.05" y1="873.32" x2="419.08" y2="883.25"/><line class="cls-4" x1="406.88" y1="867.77" x2="424" y2="874.57"/><line class="cls-4" x1="433" y1="856.5" x2="327.2" y2="902.18"/><path class="cls-4" d="M381.2,924.82c-29.15,12.58-44.74-1.26-54-22.65s-8.1-42.46,21-55,84.51,9.46,84.51,9.46S410.35,912.23,381.2,924.82Z"/><line class="cls-2" x1="155.96" y1="1254.9" x2="104.94" y2="1177.34"/><line class="cls-2" x1="121.72" y1="1247.84" x2="77.65" y2="1180.83"/><line class="cls-2" x1="90.53" y1="1241.4" x2="55.21" y2="1187.7"/><path class="cls-2" d="M123.14,1178.72c50.09,10.34,57.87,43,50.28,79.79s-28.56,63.51-78.66,53.17S-8,1221.06-8,1221.06,73,1168.38,123.14,1178.72Z"/><line class="cls-5" x1="252.72" y1="1019.45" x2="174.84" y2="979.16"/><line class="cls-5" x1="278.2" y1="1097.91" x2="169.55" y2="1041.7"/><line class="cls-5" x1="264.56" y1="1055.03" x2="170.98" y2="1006.62"/><line class="cls-5" x1="184.83" y1="942.93" x2="236.33" y2="969.57"/><line class="cls-5" x1="274.87" y1="1087.43" x2="329.78" y2="981.29"/><line class="cls-5" x1="261.23" y1="1044.55" x2="308.66" y2="952.86"/><line class="cls-5" x1="248.8" y1="1005.48" x2="286.81" y2="932"/><line class="cls-5" x1="236.07" y1="965.45" x2="261.74" y2="915.84"/><line class="cls-5" x1="227.28" y1="937.82" x2="244.82" y2="903.9"/><line class="cls-5" x1="209.39" y1="881.59" x2="281.84" y2="1109.35"/><path class="cls-5" d="M339.7,1002.59c20,62.75-11.82,92.07-57.87,106.72s-89.29,8-109.25-54.79,37-172.45,37-172.45S319.74,939.84,339.7,1002.59Z"/><line class="cls-6" x1="439.63" y1="1104.91" x2="500.18" y2="1080.9"/><line class="cls-6" x1="383.23" y1="1080.94" x2="467.7" y2="1047.45"/><line class="cls-6" x1="413.91" y1="1094.2" x2="486.67" y2="1065.35"/><line class="cls-6" x1="515.62" y1="1104.16" x2="475.58" y2="1120.04"/><line class="cls-6" x1="390.73" y1="1084.18" x2="423.45" y2="1166.71"/><line class="cls-6" x1="421.42" y1="1097.44" x2="449.68" y2="1168.74"/><line class="cls-6" x1="449.37" y1="1109.53" x2="472.03" y2="1166.66"/><line class="cls-6" x1="478.01" y1="1121.9" x2="493.31" y2="1160.48"/><line class="cls-6" x1="497.79" y1="1130.45" x2="508.24" y2="1156.82"/><line class="cls-6" x1="538.02" y1="1147.83" x2="375.05" y2="1077.41"/><path class="cls-6" d="M406.68,1161.89c-44.9-19.41-45.85-51.52-31.61-84.47s39.07-53.93,84-34.52,78.64,104.79,78.64,104.79S451.58,1181.29,406.68,1161.89Z"/><line class="cls-6" x1="74.12" y1="960.74" x2="67.14" y2="928.24"/><line class="cls-6" x1="57.31" y1="987.1" x2="47.57" y2="941.77"/><line class="cls-6" x1="66.57" y1="972.78" x2="58.18" y2="933.73"/><line class="cls-6" x1="80.15" y1="922.43" x2="84.77" y2="943.92"/><line class="cls-6" x1="59.57" y1="983.6" x2="103.86" y2="974.09"/><line class="cls-6" x1="68.83" y1="969.27" x2="107.09" y2="961.06"/><line class="cls-6" x1="77.26" y1="956.22" x2="107.93" y2="949.64"/><line class="cls-6" x1="85.91" y1="942.85" x2="106.61" y2="938.4"/><line class="cls-6" x1="91.87" y1="933.62" x2="106.02" y2="930.58"/><line class="cls-6" x1="104.01" y1="914.84" x2="54.84" y2="990.92"/><path class="cls-6" d="M100,982.12c-13.55,21-29.79,18.73-45.17,8.79S31,966.7,44.55,945.74,103.91,915,103.91,915,113.57,961.16,100,982.12Z"/><line class="cls-1" x1="1026.61" y1="428.81" x2="1026.61" y2="666.81"/><line class="cls-3" x1="1212.42" y1="681.92" x2="1222.21" y2="769.06"/><line class="cls-3" x1="1186.54" y1="780.89" x2="1180.07" y2="723.27"/><line class="cls-3" x1="1256.62" y1="625.72" x2="1137.87" y2="639.07"/><line class="cls-3" x1="1228.56" y1="660.9" x2="1125.96" y2="672.43"/><line class="cls-3" x1="1202.98" y1="692.95" x2="1120.77" y2="702.19"/><line class="cls-3" x1="1176.79" y1="725.78" x2="1121.28" y2="732.02"/><line class="cls-3" x1="1158.7" y1="748.45" x2="1120.76" y2="752.71"/><line class="cls-3" x1="1121.9" y1="794.56" x2="1270.97" y2="607.74"/><path class="cls-3" d="M1150.05,619c41.07-51.47,83.12-41.35,120.89-11.22s56.25,69.81,15.18,121.28-163.9,65.12-163.9,65.12S1109,670.46,1150.05,619Z"/><line class="cls-2" x1="1019.48" y1="650.05" x2="962.57" y2="687.49"/><line class="cls-2" x1="1082.32" y1="662.63" x2="1002.93" y2="714.85"/><line class="cls-2" x1="1048.09" y1="655.56" x2="979.71" y2="700.54"/><line class="cls-2" x1="941.83" y1="666.94" x2="979.46" y2="642.19"/><line class="cls-2" x1="1073.96" y1="660.9" x2="1022.94" y2="583.34"/><line class="cls-2" x1="1039.72" y1="653.84" x2="995.65" y2="586.83"/><line class="cls-2" x1="1008.53" y1="647.4" x2="973.21" y2="593.7"/><line class="cls-2" x1="976.57" y1="640.8" x2="952.73" y2="604.54"/><line class="cls-2" x1="954.51" y1="636.25" x2="938.21" y2="611.46"/><line class="cls-2" x1="909.62" y1="626.98" x2="1091.45" y2="664.51"/><path class="cls-2" d="M1041.14,584.72c50.09,10.34,57.87,43,50.28,79.79s-28.56,63.51-78.66,53.17S910,627.06,910,627.06,991,574.38,1041.14,584.72Z"/><line class="cls-5" x1="1170.72" y1="425.45" x2="1092.84" y2="385.16"/><line class="cls-5" x1="1196.2" y1="503.91" x2="1087.55" y2="447.7"/><line class="cls-5" x1="1182.56" y1="461.03" x2="1088.98" y2="412.62"/><line class="cls-5" x1="1102.83" y1="348.93" x2="1154.33" y2="375.57"/><line class="cls-5" x1="1192.87" y1="493.43" x2="1247.78" y2="387.29"/><line class="cls-5" x1="1179.23" y1="450.55" x2="1226.66" y2="358.86"/><line class="cls-5" x1="1166.8" y1="411.48" x2="1204.81" y2="338"/><line class="cls-5" x1="1154.07" y1="371.45" x2="1179.74" y2="321.84"/><line class="cls-5" x1="1145.28" y1="343.82" x2="1162.82" y2="309.9"/><line class="cls-5" x1="1127.39" y1="287.59" x2="1199.84" y2="515.35"/><path class="cls-5" d="M1257.7,408.59c20,62.75-11.82,92.07-57.87,106.72s-89.29,8-109.25-54.79,37-172.45,37-172.45S1237.74,345.84,1257.7,408.59Z"/><line class="cls-6" x1="992.12" y1="366.74" x2="985.14" y2="334.24"/><line class="cls-6" x1="975.31" y1="393.1" x2="965.57" y2="347.77"/><line class="cls-6" x1="984.57" y1="378.78" x2="976.18" y2="339.73"/><line class="cls-6" x1="998.15" y1="328.43" x2="1002.77" y2="349.92"/><line class="cls-6" x1="977.57" y1="389.6" x2="1021.86" y2="380.09"/><line class="cls-6" x1="986.83" y1="375.27" x2="1025.09" y2="367.06"/><line class="cls-6" x1="995.26" y1="362.22" x2="1025.93" y2="355.64"/><line class="cls-6" x1="1003.91" y1="348.85" x2="1024.61" y2="344.4"/><line class="cls-6" x1="1009.87" y1="339.62" x2="1024.02" y2="336.58"/><line class="cls-6" x1="1022.01" y1="320.84" x2="972.84" y2="396.92"/><path class="cls-6" d="M1018,388.12c-13.55,21-29.79,18.73-45.17,8.79S949,372.7,962.55,351.74,1021.91,321,1021.91,321,1031.57,367.16,1018,388.12Z"/><line class="cls-2" x1="1186.08" y1="886.7" x2="1154.87" y2="875.26"/><line class="cls-2" x1="1199.4" y1="914.99" x2="1155.86" y2="899.03"/><line class="cls-2" x1="1192.23" y1="899.51" x2="1154.73" y2="885.77"/><line class="cls-2" x1="1156.9" y1="861.16" x2="1177.53" y2="868.72"/><line class="cls-2" x1="1197.65" y1="911.2" x2="1213.23" y2="868.67"/><line class="cls-2" x1="1190.47" y1="895.73" x2="1203.94" y2="858.99"/><line class="cls-2" x1="1183.94" y1="881.63" x2="1194.73" y2="852.18"/><line class="cls-2" x1="1177.24" y1="867.19" x2="1184.52" y2="847.3"/><line class="cls-2" x1="1172.61" y1="857.21" x2="1177.59" y2="843.62"/><line class="cls-2" x1="1163.21" y1="836.92" x2="1201.32" y2="919.11"/><path class="cls-2" d="M1218,876.21c10.5,22.64,0,35.19-16.67,42.89s-33.2,7.25-43.7-15.39,5.68-66.61,5.68-66.61S1207.48,853.56,1218,876.21Z"/><line class="cls-1" x1="414.61" y1="428.81" x2="414.61" y2="666.81"/><line class="cls-3" x1="600.42" y1="681.92" x2="610.21" y2="769.06"/><line class="cls-3" x1="651.48" y1="617.12" x2="665.15" y2="738.69"/><line class="cls-3" x1="623.42" y1="652.3" x2="635.18" y2="757"/><line class="cls-3" x1="574.54" y1="780.89" x2="568.07" y2="723.27"/><line class="cls-3" x1="644.62" y1="625.72" x2="525.87" y2="639.07"/><line class="cls-3" x1="616.56" y1="660.9" x2="513.96" y2="672.43"/><line class="cls-3" x1="590.98" y1="692.95" x2="508.77" y2="702.19"/><line class="cls-3" x1="564.79" y1="725.78" x2="509.28" y2="732.02"/><line class="cls-3" x1="546.7" y1="748.45" x2="508.76" y2="752.71"/><line class="cls-3" x1="509.9" y1="794.56" x2="658.97" y2="607.74"/><path class="cls-3" d="M538.05,619c41.07-51.47,83.12-41.35,120.89-11.22s56.25,69.81,15.18,121.28-163.9,65.12-163.9,65.12S497,670.46,538.05,619Z"/><line class="cls-4" x1="674.94" y1="289.89" x2="690.54" y2="250.6"/><line class="cls-4" x1="638.52" y1="305.88" x2="660.27" y2="251.06"/><line class="cls-4" x1="658.44" y1="297.28" x2="677.18" y2="250.07"/><line class="cls-4" x1="708.4" y1="253.65" x2="698.08" y2="279.64"/><line class="cls-4" x1="643.39" y1="303.78" x2="696.94" y2="325.04"/><line class="cls-4" x1="663.31" y1="295.18" x2="709.57" y2="313.54"/><line class="cls-4" x1="681.45" y1="287.34" x2="718.53" y2="302.06"/><line class="cls-4" x1="700.05" y1="279.32" x2="725.08" y2="289.25"/><line class="cls-4" x1="712.88" y1="273.77" x2="730" y2="280.57"/><line class="cls-4" x1="739" y1="262.5" x2="633.2" y2="308.18"/><path class="cls-4" d="M687.2,330.82c-29.15,12.58-44.74-1.26-54-22.65s-8.1-42.46,21-55,84.51,9.46,84.51,9.46S716.35,318.23,687.2,330.82Z"/><line class="cls-2" x1="407.48" y1="650.05" x2="350.57" y2="687.49"/><line class="cls-2" x1="470.32" y1="662.63" x2="390.93" y2="714.85"/><line class="cls-2" x1="436.09" y1="655.56" x2="367.71" y2="700.54"/><line class="cls-2" x1="329.83" y1="666.94" x2="367.46" y2="642.19"/><line class="cls-2" x1="461.96" y1="660.9" x2="410.94" y2="583.34"/><line class="cls-2" x1="427.72" y1="653.84" x2="383.65" y2="586.83"/><line class="cls-2" x1="396.53" y1="647.4" x2="361.21" y2="593.7"/><line class="cls-2" x1="364.57" y1="640.8" x2="340.73" y2="604.54"/><line class="cls-2" x1="342.51" y1="636.25" x2="326.21" y2="611.46"/><line class="cls-2" x1="297.62" y1="626.98" x2="479.45" y2="664.51"/><path class="cls-2" d="M429.14,584.72c50.09,10.34,57.87,43,50.28,79.79S450.86,728,400.76,717.68,298,627.06,298,627.06,379,574.38,429.14,584.72Z"/><line class="cls-5" x1="558.72" y1="425.45" x2="480.84" y2="385.16"/><line class="cls-5" x1="584.2" y1="503.91" x2="475.55" y2="447.7"/><line class="cls-5" x1="570.56" y1="461.03" x2="476.98" y2="412.62"/><line class="cls-5" x1="490.83" y1="348.93" x2="542.33" y2="375.57"/><line class="cls-5" x1="580.87" y1="493.43" x2="635.78" y2="387.29"/><line class="cls-5" x1="567.23" y1="450.55" x2="614.66" y2="358.86"/><line class="cls-5" x1="554.8" y1="411.48" x2="592.81" y2="338"/><line class="cls-5" x1="542.07" y1="371.45" x2="567.74" y2="321.84"/><line class="cls-5" x1="533.28" y1="343.82" x2="550.82" y2="309.9"/><line class="cls-5" x1="515.39" y1="287.59" x2="587.84" y2="515.35"/><path class="cls-5" d="M645.7,408.59c20,62.75-11.82,92.07-57.87,106.72s-89.29,8-109.25-54.79,37-172.45,37-172.45S625.74,345.84,645.7,408.59Z"/><line class="cls-6" x1="745.63" y1="510.91" x2="806.18" y2="486.9"/><line class="cls-6" x1="689.23" y1="486.94" x2="773.7" y2="453.45"/><line class="cls-6" x1="719.91" y1="500.2" x2="792.67" y2="471.35"/><line class="cls-6" x1="821.62" y1="510.16" x2="781.58" y2="526.04"/><line class="cls-6" x1="696.73" y1="490.18" x2="729.45" y2="572.71"/><line class="cls-6" x1="727.42" y1="503.44" x2="755.68" y2="574.74"/><line class="cls-6" x1="755.37" y1="515.53" x2="778.03" y2="572.66"/><line class="cls-6" x1="784.01" y1="527.9" x2="799.31" y2="566.48"/><line class="cls-6" x1="803.79" y1="536.45" x2="814.24" y2="562.82"/><line class="cls-6" x1="844.02" y1="553.83" x2="681.05" y2="483.41"/><path class="cls-6" d="M712.68,567.89c-44.9-19.41-45.85-51.52-31.61-84.47s39.07-53.93,84-34.52,78.64,104.79,78.64,104.79S757.58,587.29,712.68,567.89Z"/><line class="cls-2" x1="805.54" y1="743.13" x2="860.87" y2="708.77"/><line class="cls-2" x1="745.78" y1="729.53" x2="822.98" y2="681.59"/><line class="cls-2" x1="778.33" y1="737.14" x2="844.82" y2="695.86"/><line class="cls-2" x1="880.19" y1="728.92" x2="843.6" y2="751.64"/><line class="cls-2" x1="753.74" y1="731.39" x2="800.57" y2="806.81"/><line class="cls-2" x1="786.29" y1="739.01" x2="826.74" y2="804.16"/><line class="cls-2" x1="815.94" y1="745.94" x2="848.36" y2="798.15"/><line class="cls-2" x1="846.32" y1="753.04" x2="868.21" y2="788.3"/><line class="cls-2" x1="867.3" y1="757.95" x2="882.26" y2="782.05"/><line class="cls-2" x1="909.98" y1="767.93" x2="737.1" y2="727.5"/><path class="cls-2" d="M783.2,805c-47.63-11.14-54.25-42.57-46.07-77.53s28.89-60,76.52-48.86,96,89.19,96,89.19S830.84,816.18,783.2,805Z"/><line class="cls-6" x1="380.12" y1="366.74" x2="373.14" y2="334.24"/><line class="cls-6" x1="363.31" y1="393.1" x2="353.57" y2="347.77"/><line class="cls-6" x1="372.57" y1="378.78" x2="364.18" y2="339.73"/><line class="cls-6" x1="386.15" y1="328.43" x2="390.77" y2="349.92"/><line class="cls-6" x1="365.57" y1="389.6" x2="409.86" y2="380.09"/><line class="cls-6" x1="374.83" y1="375.27" x2="413.09" y2="367.06"/><line class="cls-6" x1="383.26" y1="362.22" x2="413.93" y2="355.64"/><line class="cls-6" x1="391.91" y1="348.85" x2="412.61" y2="344.4"/><line class="cls-6" x1="397.87" y1="339.62" x2="412.02" y2="336.58"/><line class="cls-6" x1="410.01" y1="320.84" x2="360.84" y2="396.92"/><path class="cls-6" d="M406,388.12c-13.55,21-29.79,18.73-45.17,8.79S337,372.7,350.55,351.74,409.91,321,409.91,321,419.57,367.16,406,388.12Z"/><line class="cls-2" x1="574.08" y1="886.7" x2="542.87" y2="875.26"/><line class="cls-2" x1="587.4" y1="914.99" x2="543.86" y2="899.03"/><line class="cls-2" x1="580.23" y1="899.51" x2="542.73" y2="885.77"/><line class="cls-2" x1="544.9" y1="861.16" x2="565.53" y2="868.72"/><line class="cls-2" x1="585.65" y1="911.2" x2="601.23" y2="868.67"/><line class="cls-2" x1="578.47" y1="895.73" x2="591.94" y2="858.99"/><line class="cls-2" x1="571.94" y1="881.63" x2="582.73" y2="852.18"/><line class="cls-2" x1="565.24" y1="867.19" x2="572.52" y2="847.3"/><line class="cls-2" x1="560.61" y1="857.21" x2="565.59" y2="843.62"/><line class="cls-2" x1="551.21" y1="836.92" x2="589.32" y2="919.11"/><path class="cls-2" d="M606,876.21c10.5,22.64-.05,35.19-16.67,42.89s-33.2,7.25-43.7-15.39,5.68-66.61,5.68-66.61S595.48,853.56,606,876.21Z"/><line class="cls-3" x1="39.48" y1="617.12" x2="53.15" y2="738.69"/><line class="cls-3" x1="11.42" y1="652.3" x2="23.18" y2="757"/><line class="cls-3" x1="32.62" y1="625.72" x2="-86.13" y2="639.07"/><line class="cls-3" x1="4.56" y1="660.9" x2="-98.04" y2="672.43"/><line class="cls-3" x1="-102.1" y1="794.56" x2="46.97" y2="607.74"/><path class="cls-3" d="M-73.95,619c41.07-51.47,83.12-41.35,120.89-11.22s56.25,69.81,15.18,121.28-163.9,65.12-163.9,65.12S-115,670.46-73.95,619Z"/><line class="cls-4" x1="62.94" y1="289.89" x2="78.54" y2="250.6"/><line class="cls-4" x1="26.52" y1="305.88" x2="48.27" y2="251.06"/><line class="cls-4" x1="46.44" y1="297.28" x2="65.18" y2="250.07"/><line class="cls-4" x1="96.4" y1="253.65" x2="86.08" y2="279.64"/><line class="cls-4" x1="31.39" y1="303.78" x2="84.94" y2="325.04"/><line class="cls-4" x1="51.31" y1="295.18" x2="97.57" y2="313.54"/><line class="cls-4" x1="69.45" y1="287.34" x2="106.53" y2="302.06"/><line class="cls-4" x1="88.05" y1="279.32" x2="113.08" y2="289.25"/><line class="cls-4" x1="100.88" y1="273.77" x2="118" y2="280.57"/><line class="cls-4" x1="127" y1="262.5" x2="21.2" y2="308.18"/><path class="cls-4" d="M75.2,330.82c-29.15,12.58-44.74-1.26-54-22.65s-8.1-42.46,21.05-55,84.51,9.46,84.51,9.46S104.35,318.23,75.2,330.82Z"/><line class="cls-5" x1="-31.13" y1="493.43" x2="23.78" y2="387.29"/><line class="cls-5" x1="-44.77" y1="450.55" x2="2.66" y2="358.86"/><path class="cls-5" d="M33.7,408.59c20,62.75-11.82,92.07-57.87,106.72s-89.29,8-109.25-54.79,37-172.45,37-172.45S13.74,345.84,33.7,408.59Z"/><line class="cls-6" x1="133.63" y1="510.91" x2="194.18" y2="486.9"/><line class="cls-6" x1="77.23" y1="486.94" x2="161.7" y2="453.45"/><line class="cls-6" x1="107.91" y1="500.2" x2="180.67" y2="471.35"/><line class="cls-6" x1="209.62" y1="510.16" x2="169.58" y2="526.04"/><line class="cls-6" x1="84.73" y1="490.18" x2="117.45" y2="572.71"/><line class="cls-6" x1="115.42" y1="503.44" x2="143.68" y2="574.74"/><line class="cls-6" x1="143.37" y1="515.53" x2="166.03" y2="572.66"/><line class="cls-6" x1="172.01" y1="527.9" x2="187.31" y2="566.48"/><line class="cls-6" x1="191.79" y1="536.45" x2="202.24" y2="562.82"/><line class="cls-6" x1="232.02" y1="553.83" x2="69.05" y2="483.41"/><path class="cls-6" d="M100.68,567.89c-44.9-19.41-45.85-51.52-31.61-84.47s39.07-53.93,84-34.52,78.64,104.79,78.64,104.79S145.58,587.29,100.68,567.89Z"/><line class="cls-2" x1="193.54" y1="743.13" x2="248.87" y2="708.77"/><line class="cls-2" x1="133.78" y1="729.53" x2="210.98" y2="681.59"/><line class="cls-2" x1="166.33" y1="737.14" x2="232.82" y2="695.86"/><line class="cls-2" x1="268.19" y1="728.92" x2="231.6" y2="751.64"/><line class="cls-2" x1="141.74" y1="731.39" x2="188.57" y2="806.81"/><line class="cls-2" x1="174.29" y1="739.01" x2="214.74" y2="804.16"/><line class="cls-2" x1="203.94" y1="745.94" x2="236.36" y2="798.15"/><line class="cls-2" x1="234.32" y1="753.04" x2="256.21" y2="788.3"/><line class="cls-2" x1="255.3" y1="757.95" x2="270.26" y2="782.05"/><line class="cls-2" x1="297.98" y1="767.93" x2="125.1" y2="727.5"/><path class="cls-2" d="M171.2,805c-47.63-11.14-54.25-42.57-46.07-77.53s28.89-60,76.52-48.86,96,89.19,96,89.19S218.84,816.18,171.2,805Z"/><line class="cls-2" x1="1215.62" y1="32.98" x2="1397.45" y2="70.51"/><path class="cls-2" d="M1347.14-9.28c50.09,10.34,57.87,43,50.28,79.79s-28.56,63.51-78.66,53.17S1216,33.06,1216,33.06,1297-19.62,1347.14-9.28Z"/><line class="cls-1" x1="720.61" y1="-165.19" x2="720.61" y2="72.81"/><line class="cls-3" x1="906.42" y1="87.92" x2="916.21" y2="175.06"/><line class="cls-3" x1="957.48" y1="23.12" x2="971.15" y2="144.69"/><line class="cls-3" x1="929.42" y1="58.3" x2="941.18" y2="163"/><line class="cls-3" x1="880.54" y1="186.89" x2="874.07" y2="129.27"/><line class="cls-3" x1="950.62" y1="31.72" x2="831.87" y2="45.07"/><line class="cls-3" x1="922.56" y1="66.9" x2="819.96" y2="78.43"/><line class="cls-3" x1="896.98" y1="98.95" x2="814.77" y2="108.19"/><line class="cls-3" x1="870.79" y1="131.78" x2="815.28" y2="138.02"/><line class="cls-3" x1="852.7" y1="154.45" x2="814.76" y2="158.71"/><line class="cls-3" x1="815.9" y1="200.56" x2="964.97" y2="13.74"/><path class="cls-3" d="M844.05,25c41.07-51.47,83.12-41.35,120.89-11.22s56.25,69.81,15.18,121.28-163.9,65.12-163.9,65.12S803,76.46,844.05,25Z"/><line class="cls-2" x1="713.48" y1="56.05" x2="656.57" y2="93.49"/><line class="cls-2" x1="776.32" y1="68.63" x2="696.93" y2="120.85"/><line class="cls-2" x1="742.09" y1="61.56" x2="673.71" y2="106.54"/><line class="cls-2" x1="635.83" y1="72.94" x2="673.46" y2="48.19"/><line class="cls-2" x1="767.96" y1="66.9" x2="716.94" y2="-10.66"/><line class="cls-2" x1="733.72" y1="59.84" x2="689.65" y2="-7.17"/><line class="cls-2" x1="702.53" y1="53.4" x2="667.21" y2="-0.3"/><line class="cls-2" x1="670.57" y1="46.8" x2="646.73" y2="10.54"/><line class="cls-2" x1="648.51" y1="42.25" x2="632.21" y2="17.46"/><line class="cls-2" x1="603.62" y1="32.98" x2="785.45" y2="70.51"/><path class="cls-2" d="M735.14-9.28c50.09,10.34,57.87,43,50.28,79.79S756.86,134,706.76,123.68,604,33.06,604,33.06,685-19.62,735.14-9.28Z"/><line class="cls-2" x1="1111.54" y1="149.13" x2="1166.87" y2="114.77"/><line class="cls-2" x1="1051.78" y1="135.53" x2="1128.98" y2="87.59"/><line class="cls-2" x1="1084.33" y1="143.14" x2="1150.82" y2="101.86"/><line class="cls-2" x1="1186.19" y1="134.92" x2="1149.6" y2="157.64"/><line class="cls-2" x1="1059.74" y1="137.39" x2="1106.57" y2="212.81"/><line class="cls-2" x1="1092.29" y1="145.01" x2="1132.74" y2="210.16"/><line class="cls-2" x1="1121.94" y1="151.94" x2="1154.36" y2="204.15"/><line class="cls-2" x1="1152.32" y1="159.04" x2="1174.21" y2="194.3"/><line class="cls-2" x1="1173.3" y1="163.95" x2="1188.26" y2="188.05"/><line class="cls-2" x1="1215.98" y1="173.93" x2="1043.1" y2="133.5"/><path class="cls-2" d="M1089.2,211c-47.63-11.14-54.25-42.57-46.07-77.53s28.89-60,76.52-48.86,96,89.19,96,89.19S1136.84,222.18,1089.2,211Z"/><line class="cls-2" x1="880.08" y1="292.7" x2="848.87" y2="281.26"/><line class="cls-2" x1="893.4" y1="320.99" x2="849.86" y2="305.03"/><line class="cls-2" x1="886.23" y1="305.51" x2="848.73" y2="291.77"/><line class="cls-2" x1="850.9" y1="267.16" x2="871.53" y2="274.72"/><line class="cls-2" x1="891.65" y1="317.2" x2="907.23" y2="274.67"/><line class="cls-2" x1="884.47" y1="301.73" x2="897.94" y2="264.99"/><line class="cls-2" x1="877.94" y1="287.63" x2="888.73" y2="258.18"/><line class="cls-2" x1="871.24" y1="273.19" x2="878.52" y2="253.3"/><line class="cls-2" x1="866.61" y1="263.21" x2="871.59" y2="249.62"/><line class="cls-2" x1="857.21" y1="242.92" x2="895.32" y2="325.11"/><path class="cls-2" d="M912,282.21c10.5,22.64-.05,35.19-16.67,42.89s-33.2,7.25-43.7-15.39,5.68-66.61,5.68-66.61S901.48,259.56,912,282.21Z"/><line class="cls-1" x1="108.61" y1="-165.19" x2="108.61" y2="72.81"/><line class="cls-3" x1="294.42" y1="87.92" x2="304.21" y2="175.06"/><line class="cls-3" x1="345.48" y1="23.12" x2="359.15" y2="144.69"/><line class="cls-3" x1="317.42" y1="58.3" x2="329.18" y2="163"/><line class="cls-3" x1="268.54" y1="186.89" x2="262.07" y2="129.27"/><line class="cls-3" x1="338.62" y1="31.72" x2="219.87" y2="45.07"/><line class="cls-3" x1="310.56" y1="66.9" x2="207.96" y2="78.43"/><line class="cls-3" x1="284.98" y1="98.95" x2="202.77" y2="108.19"/><line class="cls-3" x1="258.79" y1="131.78" x2="203.28" y2="138.02"/><line class="cls-3" x1="240.7" y1="154.45" x2="202.76" y2="158.71"/><line class="cls-3" x1="203.9" y1="200.56" x2="352.97" y2="13.74"/><path class="cls-3" d="M232.05,25c41.07-51.47,83.12-41.35,120.89-11.22s56.25,69.81,15.18,121.28-163.9,65.12-163.9,65.12S191,76.46,232.05,25Z"/><line class="cls-2" x1="101.48" y1="56.05" x2="44.57" y2="93.49"/><line class="cls-2" x1="164.32" y1="68.63" x2="84.93" y2="120.85"/><line class="cls-2" x1="130.09" y1="61.56" x2="61.71" y2="106.54"/><line class="cls-2" x1="23.83" y1="72.94" x2="61.46" y2="48.19"/><line class="cls-2" x1="155.96" y1="66.9" x2="104.94" y2="-10.66"/><line class="cls-2" x1="121.72" y1="59.84" x2="77.65" y2="-7.17"/><line class="cls-2" x1="90.53" y1="53.4" x2="55.21" y2="-0.3"/><line class="cls-2" x1="58.57" y1="46.8" x2="34.73" y2="10.54"/><line class="cls-2" x1="36.51" y1="42.25" x2="20.21" y2="17.46"/><line class="cls-2" x1="-8.38" y1="32.98" x2="173.45" y2="70.51"/><path class="cls-2" d="M123.14-9.28c50.09,10.34,57.87,43,50.28,79.79S144.86,134,94.76,123.68-8,33.06-8,33.06,73-19.62,123.14-9.28Z"/><line class="cls-2" x1="499.54" y1="149.13" x2="554.87" y2="114.77"/><line class="cls-2" x1="439.78" y1="135.53" x2="516.98" y2="87.59"/><line class="cls-2" x1="472.33" y1="143.14" x2="538.82" y2="101.86"/><line class="cls-2" x1="574.19" y1="134.92" x2="537.6" y2="157.64"/><line class="cls-2" x1="447.74" y1="137.39" x2="494.57" y2="212.81"/><line class="cls-2" x1="480.29" y1="145.01" x2="520.74" y2="210.16"/><line class="cls-2" x1="509.94" y1="151.94" x2="542.36" y2="204.15"/><line class="cls-2" x1="540.32" y1="159.04" x2="562.21" y2="194.3"/><line class="cls-2" x1="561.3" y1="163.95" x2="576.26" y2="188.05"/><line class="cls-2" x1="603.98" y1="173.93" x2="431.1" y2="133.5"/><path class="cls-2" d="M477.2,211c-47.63-11.14-54.25-42.57-46.07-77.53s28.89-60,76.52-48.86,96,89.19,96,89.19S524.84,222.18,477.2,211Z"/><line class="cls-2" x1="268.08" y1="292.7" x2="236.87" y2="281.26"/><line class="cls-2" x1="281.4" y1="320.99" x2="237.86" y2="305.03"/><line class="cls-2" x1="274.23" y1="305.51" x2="236.73" y2="291.77"/><line class="cls-2" x1="238.9" y1="267.16" x2="259.53" y2="274.72"/><line class="cls-2" x1="279.65" y1="317.2" x2="295.23" y2="274.67"/><line class="cls-2" x1="272.47" y1="301.73" x2="285.94" y2="264.99"/><line class="cls-2" x1="265.94" y1="287.63" x2="276.73" y2="258.18"/><line class="cls-2" x1="259.24" y1="273.19" x2="266.52" y2="253.3"/><line class="cls-2" x1="254.61" y1="263.21" x2="259.59" y2="249.62"/><line class="cls-2" x1="245.21" y1="242.92" x2="283.32" y2="325.11"/><path class="cls-2" d="M300,282.21c10.5,22.64-.05,35.19-16.67,42.89s-33.2,7.25-43.7-15.39,5.68-66.61,5.68-66.61S289.48,259.56,300,282.21Z"/></pattern></defs><title>Artboard 11200</title><rect class="cls-7" x="0.5" y="0.5" width="610" height="791"/></svg>