<svg xmlns="http://www.w3.org/2000/svg" viewBox="0 0 123.16 133.28">
<defs>
<style>.cls-1,.cls-3{fill:#8ec23f;}.cls-1{opacity:0.3;}.cls-2{fill:none;stroke:#8ec23f;stroke-linecap:round;stroke-linejoin:round;}</style>
</defs>
<title>Asset 2-Newslettergraphic</title>
<g id="Layer_2" data-name="Layer 2">
<g id="Layer_1-2" data-name="Layer 1">
<path class="cls-1" d="M115.88,126.55H8V63.89c-1.14-1.5-4-4.12-4.83-4.29C2,59.36,1.15,61.71,1.15,63.89v61.89a4,4,0,0,0,2.35,4,12,12,0,0,0,6.8,3l103.83,0c2.19,0,3.94-1.43,5.49-3l.87.79"/><path class="cls-2" d="M3.08,59A9.21,9.21,0,0,0,.5,65.36v58.22a9.23,9.23,0,0,0,9.2,9.2H113.46a9.23,9.23,0,0,0,9.2-9.2V65.36A9.18,9.18,0,0,0,120.07,59"/><line class="cls-2" x1="78.32" y1="94.24" x2="120.04" y2="58.96"/><line class="cls-2" x1="3.11" y1="58.96" x2="44.73" y2="94.15"/><line class="cls-2" x1="10.61" y1="51.46" x2="3.11" y2="58.96"/><polyline class="cls-2" points="86.87 25.79 61.58 0.5 36.26 25.81"/><line class="cls-2" x1="120.04" y1="58.96" x2="112.59" y2="51.51"/><line class="cls-2" x1="61.58" y1="80.48" x2="2.83" y2="129.68"/><line class="cls-2" x1="61.58" y1="80.48" x2="120.04" y2="129.75"/><polyline class="cls-2" points="112.54 65.3 112.68 25.79 10.61 25.79 10.61 65.3"/><path class="cls-3" d="M86.48,36.29a1.42,1.42,0,0,0,.3.54,3.43,3.43,0,0,0,.65.36,2.62,2.62,0,0,0,1.79-.36,6.12,6.12,0,0,1,2.36-1A20.76,20.76,0,0,0,93.49,35l.09-.05.06-.09,0-.05a6.79,6.79,0,0,0,.65-.44s.16,0,.16,0l.14-.14a5.53,5.53,0,0,1,.58-.47s.17,0,.09.15a5.23,5.23,0,0,0,.11,1.41,7,7,0,0,0,.57,1.5,12.1,12.1,0,0,0,.78,1.49A1.66,1.66,0,0,1,97,39a4.33,4.33,0,0,0,.65,1.33,2,2,0,0,0,1.12.7s.25.16,1.14,0c0,0,.26.06,0,.25,0,0-2.73,4.71-2.73,4.71s-1.71,1.71-1.36,2.86a2.66,2.66,0,0,0,2,1s4.42-.88,4.48-.92.18.12,0,.32c0,0,0,.85.4,1.11,0,0,1.49,1.26,1.49,1.26s.24.29,1.17.43a2.8,2.8,0,0,0,1.22.13s.25,0-.1.26a4.83,4.83,0,0,0-.78,1.37,4.64,4.64,0,0,0-.71,1.68s-1,2.08-1.46,2.21c0,0-1,1.4-.3,1.55,0,0,.07.2.26.2a4.51,4.51,0,0,1-2.08.7,20.3,20.3,0,0,0-3.57.68,2.59,2.59,0,0,0-2.26,2.35,18.12,18.12,0,0,0,.24,3,6.63,6.63,0,0,1-.12,2.17A5.6,5.6,0,0,0,95.84,70s-.06.28-.26-.17c0,0-2.23-1.89-2.45-2,0,0-2.18-2.16-2.69-2.48a1.1,1.1,0,0,0-1.45.43s-.82,2.62-.82,2.62.07.44-.22.39a.41.41,0,0,1-.17-.41A4,4,0,0,0,86.89,67a1.75,1.75,0,0,0-.31-.68,9.13,9.13,0,0,1-1.81-3.76,6.62,6.62,0,0,1-.23-1.87,62.82,62.82,0,0,1-3.9,5.06s-4.72,5.28-6.7,5.9c0,0-1,.17-.87-.72,0,0,6.08-4.14,6.56-5a50,50,0,0,0,4.51-5.37,6.58,6.58,0,0,1-3.5,1.17,18.07,18.07,0,0,1-3.73,0s-2.31-.4-2.61-.41a2,2,0,0,0-1.06.28s-.41.11,0-.18a10.17,10.17,0,0,1,1.86-1.84s1.39-1.3-.72-1.89a21.19,21.19,0,0,1-2.7-1.26s-1.8-1.17-1.91-1.67c0,0-1.26-1.07-1.94-1.1,0,0-.41,0-.41,0s-.56-.1,0-.26a4,4,0,0,0,1.64-.71,5.8,5.8,0,0,1,2.32-1.2S74,51,73.61,49.11a6.1,6.1,0,0,0-.58-2.9s-1.74-3.87-1.85-3.83-.24-.14.3,0c0,0,1.16.88,1.51-1.1a8.25,8.25,0,0,1,.77-2,5.7,5.7,0,0,0,.4-2.1S74,35.82,74,35.82s.06-.5.35,0a11.93,11.93,0,0,0,1.36,1.25,9.59,9.59,0,0,0,.94.29,20.44,20.44,0,0,0,2.3-.21,1.61,1.61,0,0,0,.58-.52s.22-.48.33.15c0,0,.9,1.4,1.3,2.23a16.41,16.41,0,0,0,1.27,2.93,7.28,7.28,0,0,0,1.13,1.45.64.64,0,0,0,.42.06s.35.24.62,0a3.16,3.16,0,0,0,.83-2.12s-.17-.13.19-1.48a22.45,22.45,0,0,0,.48-2.33s.14-.76.15-1A.27.27,0,0,1,86.48,36.29Z"/><path class="cls-3" d="M24.63,35.23a1.29,1.29,0,0,1,0,.48,3.89,3.89,0,0,1-.28.5,2.07,2.07,0,0,1-1.32.48,4.86,4.86,0,0,0-2,.28,15,15,0,0,1-1.61.22H19.4l-.07,0,0,0s-.57,0-.61,0-.11,0-.11,0l-.14,0a3.83,3.83,0,0,0-.58-.07s-.12,0,0,.13a3.5,3.5,0,0,1,.5,1,5,5,0,0,1,.23,1.21,9.41,9.41,0,0,1,.1,1.29,1.24,1.24,0,0,0,.14.6,3.62,3.62,0,0,1,.11,1.14,1.61,1.61,0,0,1-.46.91s-.09.2-.76.43c0,0-.14.16.09.18,0,0,3.7,2,3.7,2s1.81.43,2.05,1.32a2,2,0,0,1-.89,1.5s-3.26,1.21-3.31,1.21-.07.15.14.21c0,0,.36.54.18.88l-.47,1.43s0,.28-.59.75a2.12,2.12,0,0,1-.75.59s-.15.11.17.12a4,4,0,0,1,1.07.59,3.63,3.63,0,0,1,1.15.82s1.47,1,1.84.85c0,0,1.25.51.83.9,0,0,0,.16-.09.24a3.62,3.62,0,0,0,1.65-.39,15.46,15.46,0,0,1,2.62-1,2,2,0,0,1,2.43.62,14.93,14.93,0,0,1,1,2,5.19,5.19,0,0,0,1,1.38,4.38,4.38,0,0,1,.57,1.14s.15.15.1-.22c0,0,.7-2.14.81-2.29,0,0,.56-2.29.76-2.71a.85.85,0,0,1,1.13-.31S36.5,57,36.5,57s.13.32.3.17a.34.34,0,0,0,0-.34,3.05,3.05,0,0,1,0-1.3,1.39,1.39,0,0,1-.07-.57,7,7,0,0,0-.34-3.2,4.72,4.72,0,0,0-.6-1.31,47.44,47.44,0,0,0,4.6,1.73s5.24,1.57,6.79,1.17c0,0,.76-.31.28-.83,0,0-5.66-.25-6.35-.65a39.77,39.77,0,0,1-5.13-1.7,5,5,0,0,0,2.77-.65A13.11,13.11,0,0,0,41.14,48s1.35-1.19,1.54-1.33a1.66,1.66,0,0,1,.81-.24s.31-.09-.06-.12a7.86,7.86,0,0,0-2-.46s-1.44-.29-.3-1.53a16.72,16.72,0,0,0,1.27-1.92s.7-1.49.57-1.87c0,0,.4-1.21.84-1.5l.25-.19s.32-.3-.12-.17a3,3,0,0,1-1.37.2,4.26,4.26,0,0,0-2,.15s-1.82.82-2.36-.55a4.64,4.64,0,0,1-.79-2.13s-.42-3.25-.33-3.26.09-.2-.22.09c0,0-.4,1-1.43-.11a6.72,6.72,0,0,0-1.3-1,4.6,4.6,0,0,1-1.11-1.22s-.45-1-.45-1-.25-.3-.24.13A9,9,0,0,1,32,31.38a5.51,5.51,0,0,1-.5.57,14.93,14.93,0,0,1-1.6.79,1.27,1.27,0,0,1-.58-.1s-.34-.23-.16.23c0,0,0,1.28.05,2a12,12,0,0,1,.35,2.43,5.47,5.47,0,0,1-.16,1.41.49.49,0,0,1-.25.21s-.13.3-.4.26c0,0-.63-.07-1.39-1.05,0,0,.06-.16-.73-.89a16.24,16.24,0,0,1-1.26-1.34s-.4-.45-.5-.6A.2.2,0,0,0,24.63,35.23Z"/>
</g>
</g>
</svg>